<?xml version="1.0" encoding="UTF-8" standalone="no"?>
<!DOCTYPE svg PUBLIC "-//W3C//DTD SVG 1.1//EN"
 "http://www.w3.org/Graphics/SVG/1.1/DTD/svg11.dtd">
<!-- Generated by graphviz version 14.1.2 (20260124.0452)
 -->
<!-- Title: noahmp_glacier_routines::water_glacier Pages: 1 -->
<svg width="772pt" height="198pt"
 viewBox="0.00 0.00 772.00 198.00" xmlns="http://www.w3.org/2000/svg" xmlns:xlink="http://www.w3.org/1999/xlink">
<g id="graph0" class="graph" transform="scale(1 1) rotate(0) translate(4 193.5)">
<title>noahmp_glacier_routines::water_glacier</title>
<!-- Node1 -->
<g id="Node000001" class="node">
<title>Node1</title>
<g id="a_Node000001"><a xlink:title=" ">
<polygon fill="#999999" stroke="#666666" points="124,-97.5 0,-97.5 0,-67 124,-67 124,-97.5"/>
<text xml:space="preserve" text-anchor="start" x="8" y="-84" font-family="Source Sans Pro" font-size="10.00">noahmp_glacier_routines</text>
<text xml:space="preserve" text-anchor="middle" x="62" y="-72.75" font-family="Source Sans Pro" font-size="10.00">::water_glacier</text>
</a>
</g>
</g>
<!-- Node2 -->
<g id="Node000002" class="node">
<title>Node2</title>
<g id="a_Node000002"><a xlink:href="group___noah_m_p___l_s_m_ga7e56aa2916d87208019c88446904b04b.html#ga7e56aa2916d87208019c88446904b04b" target="_top" xlink:title=" ">
<polygon fill="white" stroke="#666666" points="284,-97.5 160,-97.5 160,-67 284,-67 284,-97.5"/>
<text xml:space="preserve" text-anchor="start" x="168" y="-84" font-family="Source Sans Pro" font-size="10.00">noahmp_glacier_routines</text>
<text xml:space="preserve" text-anchor="middle" x="222" y="-72.75" font-family="Source Sans Pro" font-size="10.00">::snowwater_glacier</text>
</a>
</g>
</g>
<!-- Node1&#45;&gt;Node2 -->
<g id="edge1_Node000001_Node000002" class="edge">
<title>Node1&#45;&gt;Node2</title>
<g id="a_edge1_Node000001_Node000002"><a xlink:title=" ">
<path fill="none" stroke="#63b8ff" d="M124.09,-82.25C132,-82.25 140.16,-82.25 148.23,-82.25"/>
<polygon fill="#63b8ff" stroke="#63b8ff" points="148.04,-85.75 158.04,-82.25 148.04,-78.75 148.04,-85.75"/>
</a>
</g>
</g>
<!-- Node3 -->
<g id="Node000003" class="node">
<title>Node3</title>
<g id="a_Node000003"><a xlink:href="group___noah_m_p___l_s_m_ga70ce0369bd8ba21d6ab56fa001a20be8.html#ga70ce0369bd8ba21d6ab56fa001a20be8" target="_top" xlink:title=" ">
<polygon fill="white" stroke="#666666" points="604,-97.5 480,-97.5 480,-67 604,-67 604,-97.5"/>
<text xml:space="preserve" text-anchor="start" x="488" y="-84" font-family="Source Sans Pro" font-size="10.00">noahmp_glacier_routines</text>
<text xml:space="preserve" text-anchor="middle" x="542" y="-72.75" font-family="Source Sans Pro" font-size="10.00">::combine_glacier</text>
</a>
</g>
</g>
<!-- Node2&#45;&gt;Node3 -->
<g id="edge2_Node000002_Node000003" class="edge">
<title>Node2&#45;&gt;Node3</title>
<g id="a_edge2_Node000002_Node000003"><a xlink:title=" ">
<path fill="none" stroke="#63b8ff" d="M284.31,-82.25C336.91,-82.25 412.79,-82.25 468.41,-82.25"/>
<polygon fill="#63b8ff" stroke="#63b8ff" points="468.09,-85.75 478.09,-82.25 468.09,-78.75 468.09,-85.75"/>
</a>
</g>
</g>
<!-- Node5 -->
<g id="Node000005" class="node">
<title>Node5</title>
<g id="a_Node000005"><a xlink:href="group___noah_m_p___l_s_m_ga5c2db6763c56bf372eef6bdc07ede3cc.html#ga5c2db6763c56bf372eef6bdc07ede3cc" target="_top" xlink:title=" ">
<polygon fill="white" stroke="#666666" points="444,-140.5 320,-140.5 320,-110 444,-110 444,-140.5"/>
<text xml:space="preserve" text-anchor="start" x="328" y="-127" font-family="Source Sans Pro" font-size="10.00">noahmp_glacier_routines</text>
<text xml:space="preserve" text-anchor="middle" x="382" y="-115.75" font-family="Source Sans Pro" font-size="10.00">::compact_glacier</text>
</a>
</g>
</g>
<!-- Node2&#45;&gt;Node5 -->
<g id="edge4_Node000002_Node000005" class="edge">
<title>Node2&#45;&gt;Node5</title>
<g id="a_edge4_Node000002_Node000005"><a xlink:title=" ">
<path fill="none" stroke="#63b8ff" d="M280.49,-97.9C290.84,-100.71 301.72,-103.67 312.34,-106.56"/>
<polygon fill="#63b8ff" stroke="#63b8ff" points="311.26,-109.9 321.83,-109.15 313.1,-103.14 311.26,-109.9"/>
</a>
</g>
</g>
<!-- Node6 -->
<g id="Node000006" class="node">
<title>Node6</title>
<g id="a_Node000006"><a xlink:href="group___noah_m_p___l_s_m_ga7d14a54053fc9c70ea7705754d594a92.html#ga7d14a54053fc9c70ea7705754d594a92" target="_top" xlink:title=" ">
<polygon fill="white" stroke="#666666" points="604,-30.5 480,-30.5 480,0 604,0 604,-30.5"/>
<text xml:space="preserve" text-anchor="start" x="488" y="-17" font-family="Source Sans Pro" font-size="10.00">noahmp_glacier_routines</text>
<text xml:space="preserve" text-anchor="middle" x="542" y="-5.75" font-family="Source Sans Pro" font-size="10.00">::divide_glacier</text>
</a>
</g>
</g>
<!-- Node2&#45;&gt;Node6 -->
<g id="edge5_Node000002_Node000006" class="edge">
<title>Node2&#45;&gt;Node6</title>
<g id="a_edge5_Node000002_Node000006"><a xlink:title=" ">
<path fill="none" stroke="#63b8ff" d="M238.84,-66.68C256.78,-50.23 287.76,-25.3 320,-15.25 368.02,-0.28 424.81,-0.64 468.79,-4.56"/>
<polygon fill="#63b8ff" stroke="#63b8ff" points="468.18,-8.01 478.47,-5.51 468.86,-1.05 468.18,-8.01"/>
</a>
</g>
</g>
<!-- Node7 -->
<g id="Node000007" class="node">
<title>Node7</title>
<g id="a_Node000007"><a xlink:href="group___noah_m_p___l_s_m_ga8017d043aecaf401ec7e591c3c558161.html#ga8017d043aecaf401ec7e591c3c558161" target="_top" xlink:title=" ">
<polygon fill="white" stroke="#666666" points="444,-54.5 320,-54.5 320,-24 444,-24 444,-54.5"/>
<text xml:space="preserve" text-anchor="start" x="328" y="-41" font-family="Source Sans Pro" font-size="10.00">noahmp_glacier_routines</text>
<text xml:space="preserve" text-anchor="middle" x="382" y="-29.75" font-family="Source Sans Pro" font-size="10.00">::snowfall_glacier</text>
</a>
</g>
</g>
<!-- Node2&#45;&gt;Node7 -->
<g id="edge7_Node000002_Node000007" class="edge">
<title>Node2&#45;&gt;Node7</title>
<g id="a_edge7_Node000002_Node000007"><a xlink:title=" ">
<path fill="none" stroke="#63b8ff" d="M280.49,-66.6C290.84,-63.79 301.72,-60.83 312.34,-57.94"/>
<polygon fill="#63b8ff" stroke="#63b8ff" points="313.1,-61.36 321.83,-55.35 311.26,-54.6 313.1,-61.36"/>
</a>
</g>
</g>
<!-- Node8 -->
<g id="Node000008" class="node">
<title>Node8</title>
<g id="a_Node000008"><a xlink:href="group___noah_m_p___l_s_m_ga3b426a088b2f2e94145bc4cea265cc61.html#ga3b426a088b2f2e94145bc4cea265cc61" target="_top" xlink:title=" ">
<polygon fill="white" stroke="#666666" points="444,-189.5 320,-189.5 320,-159 444,-159 444,-189.5"/>
<text xml:space="preserve" text-anchor="start" x="328" y="-176" font-family="Source Sans Pro" font-size="10.00">noahmp_glacier_routines</text>
<text xml:space="preserve" text-anchor="middle" x="382" y="-164.75" font-family="Source Sans Pro" font-size="10.00">::snowh2o_glacier</text>
</a>
</g>
</g>
<!-- Node2&#45;&gt;Node8 -->
<g id="edge8_Node000002_Node000008" class="edge">
<title>Node2&#45;&gt;Node8</title>
<g id="a_edge8_Node000002_Node000008"><a xlink:title=" ">
<path fill="none" stroke="#63b8ff" d="M242.99,-97.97C262.05,-112.48 291.93,-134.03 320,-149.25 322.97,-150.86 326.07,-152.43 329.23,-153.96"/>
<polygon fill="#63b8ff" stroke="#63b8ff" points="327.5,-157.01 338.05,-157.99 330.41,-150.65 327.5,-157.01"/>
</a>
</g>
</g>
<!-- Node4 -->
<g id="Node000004" class="node">
<title>Node4</title>
<g id="a_Node000004"><a xlink:href="group___noah_m_p___l_s_m_ga2725fe77ae7f78845a85c7c379e3ed2e.html#ga2725fe77ae7f78845a85c7c379e3ed2e" target="_top" xlink:title=" ">
<polygon fill="white" stroke="#666666" points="764,-54.5 640,-54.5 640,-24 764,-24 764,-54.5"/>
<text xml:space="preserve" text-anchor="start" x="648" y="-41" font-family="Source Sans Pro" font-size="10.00">noahmp_glacier_routines</text>
<text xml:space="preserve" text-anchor="middle" x="702" y="-29.75" font-family="Source Sans Pro" font-size="10.00">::combo_glacier</text>
</a>
</g>
</g>
<!-- Node3&#45;&gt;Node4 -->
<g id="edge3_Node000003_Node000004" class="edge">
<title>Node3&#45;&gt;Node4</title>
<g id="a_edge3_Node000003_Node000004"><a xlink:title=" ">
<path fill="none" stroke="#63b8ff" d="M600.49,-66.6C610.84,-63.79 621.72,-60.83 632.34,-57.94"/>
<polygon fill="#63b8ff" stroke="#63b8ff" points="633.1,-61.36 641.83,-55.35 631.26,-54.6 633.1,-61.36"/>
</a>
</g>
</g>
<!-- Node6&#45;&gt;Node4 -->
<g id="edge6_Node000006_Node000004" class="edge">
<title>Node6&#45;&gt;Node4</title>
<g id="a_edge6_Node000006_Node000004"><a xlink:title=" ">
<path fill="none" stroke="#63b8ff" d="M604.09,-24.53C612,-25.73 620.16,-26.97 628.23,-28.2"/>
<polygon fill="#63b8ff" stroke="#63b8ff" points="627.65,-31.65 638.06,-29.69 628.7,-24.73 627.65,-31.65"/>
</a>
</g>
</g>
<!-- Node8&#45;&gt;Node3 -->
<g id="edge9_Node000008_Node000003" class="edge">
<title>Node8&#45;&gt;Node3</title>
<g id="a_edge9_Node000008_Node000003"><a xlink:title=" ">
<path fill="none" stroke="#63b8ff" d="M424.58,-158.62C431.19,-155.74 437.86,-152.58 444,-149.25 467.9,-136.29 493.12,-118.74 511.85,-104.85"/>
<polygon fill="#63b8ff" stroke="#63b8ff" points="513.91,-107.68 519.8,-98.88 509.7,-102.09 513.91,-107.68"/>
</a>
</g>
</g>
</g>
</svg>
