<?xml version="1.0" encoding="UTF-8" standalone="no"?>
<!DOCTYPE svg PUBLIC "-//W3C//DTD SVG 1.1//EN"
 "http://www.w3.org/Graphics/SVG/1.1/DTD/svg11.dtd">
<!-- Generated by graphviz version 14.1.2 (20260124.0452)
 -->
<!-- Title: alcalc Pages: 1 -->
<svg width="247pt" height="175pt"
 viewBox="0.00 0.00 247.00 175.00" xmlns="http://www.w3.org/2000/svg" xmlns:xlink="http://www.w3.org/1999/xlink">
<g id="graph0" class="graph" transform="scale(1 1) rotate(0) translate(4 171.25)">
<title>alcalc</title>
<!-- Node1 -->
<g id="Node000001" class="node">
<title>Node1</title>
<g id="a_Node000001"><a xlink:title="This subroutine calculates albedo including snow effect (0 &#45;&gt; 1).">
<polygon fill="#999999" stroke="#666666" points="41.5,-93.25 0,-93.25 0,-74 41.5,-74 41.5,-93.25"/>
<text xml:space="preserve" text-anchor="middle" x="20.75" y="-79.75" font-family="Source Sans Pro" font-size="10.00">alcalc</text>
</a>
</g>
</g>
<!-- Node2 -->
<g id="Node000002" class="node">
<title>Node2</title>
<g id="a_Node000002"><a xlink:href="group___noah_m_p___l_s_m_ga9d5adb20aca5b72a7e126136088e20d1.html#ga9d5adb20aca5b72a7e126136088e20d1" target="_top" xlink:title="surface albedos. also fluxes (per unit incoming direct and diffuse radiation) reflected,...">
<polygon fill="white" stroke="#666666" points="122,-93.25 77.5,-93.25 77.5,-74 122,-74 122,-93.25"/>
<text xml:space="preserve" text-anchor="middle" x="99.75" y="-79.75" font-family="Source Sans Pro" font-size="10.00">albedo</text>
</a>
</g>
</g>
<!-- Node1&#45;&gt;Node2 -->
<g id="edge1_Node000001_Node000002" class="edge">
<title>Node1&#45;&gt;Node2</title>
<g id="a_edge1_Node000001_Node000002"><a xlink:title=" ">
<path fill="none" stroke="#63b8ff" d="M41.98,-83.62C49.23,-83.62 57.59,-83.62 65.64,-83.62"/>
<polygon fill="#63b8ff" stroke="#63b8ff" points="65.52,-87.13 75.52,-83.63 65.52,-80.13 65.52,-87.13"/>
</a>
</g>
</g>
<!-- Node3 -->
<g id="Node000003" class="node">
<title>Node3</title>
<g id="a_Node000003"><a xlink:href="group___noah_m_p___l_s_m_ga497b40d27709666f17da3e555f8628a1.html#ga497b40d27709666f17da3e555f8628a1" target="_top" xlink:title="ground surface albedo">
<polygon fill="white" stroke="#666666" points="227.25,-167.25 169.25,-167.25 169.25,-148 227.25,-148 227.25,-167.25"/>
<text xml:space="preserve" text-anchor="middle" x="198.25" y="-153.75" font-family="Source Sans Pro" font-size="10.00">groundalb</text>
</a>
</g>
</g>
<!-- Node2&#45;&gt;Node3 -->
<g id="edge2_Node000002_Node000003" class="edge">
<title>Node2&#45;&gt;Node3</title>
<g id="a_edge2_Node000002_Node000003"><a xlink:title=" ">
<path fill="none" stroke="#63b8ff" d="M108.83,-93.38C119.22,-105.46 138.29,-126.08 158,-139.62 159.35,-140.55 160.76,-141.46 162.2,-142.33"/>
<polygon fill="#63b8ff" stroke="#63b8ff" points="160.25,-145.25 170.72,-146.92 163.57,-139.09 160.25,-145.25"/>
</a>
</g>
</g>
<!-- Node4 -->
<g id="Node000004" class="node">
<title>Node4</title>
<g id="a_Node000004"><a xlink:href="group___noah_m_p___l_s_m_ga748c587c5dc0a38a1793042e92952d43.html#ga748c587c5dc0a38a1793042e92952d43" target="_top" xlink:title=" ">
<polygon fill="white" stroke="#666666" points="228.38,-130.25 168.12,-130.25 168.12,-111 228.38,-111 228.38,-130.25"/>
<text xml:space="preserve" text-anchor="middle" x="198.25" y="-116.75" font-family="Source Sans Pro" font-size="10.00">snow_age</text>
</a>
</g>
</g>
<!-- Node2&#45;&gt;Node4 -->
<g id="edge3_Node000002_Node000004" class="edge">
<title>Node2&#45;&gt;Node4</title>
<g id="a_edge3_Node000002_Node000004"><a xlink:title=" ">
<path fill="none" stroke="#63b8ff" d="M122.17,-91.84C133.45,-96.16 147.59,-101.59 160.56,-106.56"/>
<polygon fill="#63b8ff" stroke="#63b8ff" points="159.08,-109.74 169.67,-110.05 161.58,-103.2 159.08,-109.74"/>
</a>
</g>
</g>
<!-- Node5 -->
<g id="Node000005" class="node">
<title>Node5</title>
<g id="a_Node000005"><a xlink:href="group___noah_m_p___l_s_m_ga238debe3053962b0b33a5e846e333701.html#ga238debe3053962b0b33a5e846e333701" target="_top" xlink:title="bats snow surface albedo">
<polygon fill="white" stroke="#666666" points="236.25,-93.25 160.25,-93.25 160.25,-74 236.25,-74 236.25,-93.25"/>
<text xml:space="preserve" text-anchor="middle" x="198.25" y="-79.75" font-family="Source Sans Pro" font-size="10.00">snowalb_bats</text>
</a>
</g>
</g>
<!-- Node2&#45;&gt;Node5 -->
<g id="edge4_Node000002_Node000005" class="edge">
<title>Node2&#45;&gt;Node5</title>
<g id="a_edge4_Node000002_Node000005"><a xlink:title=" ">
<path fill="none" stroke="#63b8ff" d="M122.17,-83.62C130.06,-83.62 139.36,-83.62 148.68,-83.62"/>
<polygon fill="#63b8ff" stroke="#63b8ff" points="148.44,-87.13 158.44,-83.63 148.44,-80.13 148.44,-87.13"/>
</a>
</g>
</g>
<!-- Node6 -->
<g id="Node000006" class="node">
<title>Node6</title>
<g id="a_Node000006"><a xlink:href="group___noah_m_p___l_s_m_ga2ea2346edd6f426f30dcc99085def5cf.html#ga2ea2346edd6f426f30dcc99085def5cf" target="_top" xlink:title="class snow surface albedo">
<polygon fill="white" stroke="#666666" points="238.5,-56.25 158,-56.25 158,-37 238.5,-37 238.5,-56.25"/>
<text xml:space="preserve" text-anchor="middle" x="198.25" y="-42.75" font-family="Source Sans Pro" font-size="10.00">snowalb_class</text>
</a>
</g>
</g>
<!-- Node2&#45;&gt;Node6 -->
<g id="edge5_Node000002_Node000006" class="edge">
<title>Node2&#45;&gt;Node6</title>
<g id="a_edge5_Node000002_Node000006"><a xlink:title=" ">
<path fill="none" stroke="#63b8ff" d="M122.17,-75.41C133.45,-71.09 147.59,-65.66 160.56,-60.69"/>
<polygon fill="#63b8ff" stroke="#63b8ff" points="161.58,-64.05 169.67,-57.2 159.08,-57.51 161.58,-64.05"/>
</a>
</g>
</g>
<!-- Node7 -->
<g id="Node000007" class="node">
<title>Node7</title>
<g id="a_Node000007"><a xlink:href="group___noah_m_p___l_s_m_gaa737a61978bde4dc6363e11263999769.html#gaa737a61978bde4dc6363e11263999769" target="_top" xlink:title="use two&#45;stream approximation of Dickinson (1983) adv geophysics 25: 305&#45;353 and sellers (1985) int j ...">
<polygon fill="white" stroke="#666666" points="229.12,-19.25 167.38,-19.25 167.38,0 229.12,0 229.12,-19.25"/>
<text xml:space="preserve" text-anchor="middle" x="198.25" y="-5.75" font-family="Source Sans Pro" font-size="10.00">twostream</text>
</a>
</g>
</g>
<!-- Node2&#45;&gt;Node7 -->
<g id="edge6_Node000002_Node000007" class="edge">
<title>Node2&#45;&gt;Node7</title>
<g id="a_edge6_Node000002_Node000007"><a xlink:title=" ">
<path fill="none" stroke="#63b8ff" d="M108.83,-73.87C119.22,-61.79 138.29,-41.17 158,-27.62 159.35,-26.7 160.76,-25.79 162.2,-24.92"/>
<polygon fill="#63b8ff" stroke="#63b8ff" points="163.57,-28.16 170.72,-20.33 160.25,-22 163.57,-28.16"/>
</a>
</g>
</g>
</g>
</svg>
