<?xml version="1.0" encoding="UTF-8" standalone="no"?>
<!DOCTYPE svg PUBLIC "-//W3C//DTD SVG 1.1//EN"
 "http://www.w3.org/Graphics/SVG/1.1/DTD/svg11.dtd">
<!-- Generated by graphviz version 14.1.2 (20260124.0452)
 -->
<!-- Title: module_bl_mynn::condensation_edmf Pages: 1 -->
<svg width="339pt" height="57pt"
 viewBox="0.00 0.00 339.00 57.00" xmlns="http://www.w3.org/2000/svg" xmlns:xlink="http://www.w3.org/1999/xlink">
<g id="graph0" class="graph" transform="scale(1 1) rotate(0) translate(4 52.5)">
<title>module_bl_mynn::condensation_edmf</title>
<!-- Node1 -->
<g id="Node000001" class="node">
<title>Node1</title>
<g id="a_Node000001"><a xlink:title="This subroutine.">
<polygon fill="#999999" stroke="#666666" points="180.25,-24.88 0,-24.88 0,-5.63 180.25,-5.63 180.25,-24.88"/>
<text xml:space="preserve" text-anchor="middle" x="90.12" y="-11.38" font-family="Source Sans Pro" font-size="10.00">module_bl_mynn::condensation_edmf</text>
</a>
</g>
</g>
<!-- Node2 -->
<g id="Node000002" class="node">
<title>Node2</title>
<g id="a_Node000002"><a xlink:href="group__gp__mynnedmf_ga41a4c80227342f73cd16d2ae814498d0.html#ga41a4c80227342f73cd16d2ae814498d0" target="_top" xlink:title="This function extends function &quot;esat&quot; and returns a &quot;blended&quot; saturation mixing ratio....">
<polygon fill="white" stroke="#666666" points="330.5,-30.5 216.25,-30.5 216.25,0 330.5,0 330.5,-30.5"/>
<text xml:space="preserve" text-anchor="start" x="224.25" y="-17" font-family="Source Sans Pro" font-size="10.00">module_bl_mynn::qsat</text>
<text xml:space="preserve" text-anchor="middle" x="273.38" y="-5.75" font-family="Source Sans Pro" font-size="10.00">_blend</text>
</a>
</g>
</g>
<!-- Node1&#45;&gt;Node2 -->
<g id="edge1_Node000001_Node000002" class="edge">
<title>Node1&#45;&gt;Node2</title>
<g id="a_edge1_Node000001_Node000002"><a xlink:title=" ">
<path fill="none" stroke="#63b8ff" d="M180.69,-15.25C188.62,-15.25 196.57,-15.25 204.29,-15.25"/>
<polygon fill="#63b8ff" stroke="#63b8ff" points="204.27,-18.75 214.27,-15.25 204.27,-11.75 204.27,-18.75"/>
</a>
</g>
</g>
<!-- Node2&#45;&gt;Node2 -->
<g id="edge2_Node000002_Node000002" class="edge">
<title>Node2&#45;&gt;Node2</title>
<g id="a_edge2_Node000002_Node000002"><a xlink:title=" ">
<path fill="none" stroke="#63b8ff" d="M240.9,-30.99C234.28,-40.06 245.1,-48.5 273.38,-48.5 288.84,-48.5 299.08,-45.97 304.11,-42.2"/>
<polygon fill="#63b8ff" stroke="#63b8ff" points="307.54,-42.9 305.61,-32.48 300.62,-41.83 307.54,-42.9"/>
</a>
</g>
</g>
</g>
</svg>
