<?xml version="1.0" encoding="UTF-8" standalone="no"?>
<!DOCTYPE svg PUBLIC "-//W3C//DTD SVG 1.1//EN"
 "http://www.w3.org/Graphics/SVG/1.1/DTD/svg11.dtd">
<!-- Generated by graphviz version 14.1.2 (20260124.0452)
 -->
<!-- Title: module_mp_thompson::gcf Pages: 1 -->
<svg width="792pt" height="57pt"
 viewBox="0.00 0.00 792.00 57.00" xmlns="http://www.w3.org/2000/svg" xmlns:xlink="http://www.w3.org/1999/xlink">
<g id="graph0" class="graph" transform="scale(1 1) rotate(0) translate(4 52.5)">
<title>module_mp_thompson::gcf</title>
<!-- Node1 -->
<g id="Node000001" class="node">
<title>Node1</title>
<g id="a_Node000001"><a xlink:title="Returns the incomplete gamma function q(a,x) evaluated by its continued fraction representation as ga...">
<polygon fill="#999999" stroke="#666666" points="783.5,-24.88 649.75,-24.88 649.75,-5.63 783.5,-5.63 783.5,-24.88"/>
<text xml:space="preserve" text-anchor="middle" x="716.62" y="-11.38" font-family="Source Sans Pro" font-size="10.00">module_mp_thompson::gcf</text>
</a>
</g>
</g>
<!-- Node2 -->
<g id="Node000002" class="node">
<title>Node2</title>
<g id="a_Node000002"><a xlink:href="group__aathompson_ga5126f9b7d52cd4d3e7b072907abb4257.html#ga5126f9b7d52cd4d3e7b072907abb4257" target="_top" xlink:title=" ">
<polygon fill="white" stroke="#666666" points="613.75,-30.5 499.5,-30.5 499.5,0 613.75,0 613.75,-30.5"/>
<text xml:space="preserve" text-anchor="start" x="507.5" y="-17" font-family="Source Sans Pro" font-size="10.00">module_mp_thompson</text>
<text xml:space="preserve" text-anchor="middle" x="556.62" y="-5.75" font-family="Source Sans Pro" font-size="10.00">::gammp</text>
</a>
</g>
</g>
<!-- Node1&#45;&gt;Node2 -->
<g id="edge1_Node000001_Node000002" class="edge">
<title>Node1&#45;&gt;Node2</title>
<g id="a_edge1_Node000001_Node000002"><a xlink:title=" ">
<path fill="none" stroke="#63b8ff" d="M638.07,-15.25C629.93,-15.25 621.77,-15.25 613.93,-15.25"/>
<polygon fill="#63b8ff" stroke="#63b8ff" points="638.02,-18.75 648.02,-15.25 638.02,-11.75 638.02,-18.75"/>
</a>
</g>
</g>
<!-- Node2&#45;&gt;Node2 -->
<g id="edge2_Node000002_Node000002" class="edge">
<title>Node2&#45;&gt;Node2</title>
<g id="a_edge2_Node000002_Node000002"><a xlink:title=" ">
<path fill="none" stroke="#63b8ff" d="M581.82,-42.2C577.7,-45.97 569.3,-48.5 556.62,-48.5 533.44,-48.5 524.57,-40.06 530,-30.99"/>
<polygon fill="#63b8ff" stroke="#63b8ff" points="585.27,-42.85 583.06,-32.49 578.32,-41.97 585.27,-42.85"/>
</a>
</g>
</g>
<!-- Node3 -->
<g id="Node000003" class="node">
<title>Node3</title>
<g id="a_Node000003"><a xlink:href="group__aathompson_ga38c4bc57c8dd450c76cc65b1991cf23d.html#ga38c4bc57c8dd450c76cc65b1991cf23d" target="_top" xlink:title="Cloud ice converting to snow since portion greater than min snow size. Given cloud ice content (kg/m*...">
<polygon fill="white" stroke="#666666" points="463.5,-30.5 349.25,-30.5 349.25,0 463.5,0 463.5,-30.5"/>
<text xml:space="preserve" text-anchor="start" x="357.25" y="-17" font-family="Source Sans Pro" font-size="10.00">module_mp_thompson</text>
<text xml:space="preserve" text-anchor="middle" x="406.38" y="-5.75" font-family="Source Sans Pro" font-size="10.00">::qi_aut_qs</text>
</a>
</g>
</g>
<!-- Node2&#45;&gt;Node3 -->
<g id="edge3_Node000002_Node000003" class="edge">
<title>Node2&#45;&gt;Node3</title>
<g id="a_edge3_Node000002_Node000003"><a xlink:title=" ">
<path fill="none" stroke="#63b8ff" d="M487.84,-15.25C479.76,-15.25 471.58,-15.25 463.69,-15.25"/>
<polygon fill="#63b8ff" stroke="#63b8ff" points="487.64,-18.75 497.64,-15.25 487.64,-11.75 487.64,-18.75"/>
</a>
</g>
</g>
<!-- Node4 -->
<g id="Node000004" class="node">
<title>Node4</title>
<g id="a_Node000004"><a xlink:href="group__aathompson_ga913721b93920f568db16540ff0dac1e9.html#ga913721b93920f568db16540ff0dac1e9" target="_top" xlink:title="This subroutine calculates simplified cloud species equations and create lookup tables in Thomspson s...">
<polygon fill="white" stroke="#666666" points="313.25,-30.5 199,-30.5 199,0 313.25,0 313.25,-30.5"/>
<text xml:space="preserve" text-anchor="start" x="207" y="-17" font-family="Source Sans Pro" font-size="10.00">module_mp_thompson</text>
<text xml:space="preserve" text-anchor="middle" x="256.12" y="-5.75" font-family="Source Sans Pro" font-size="10.00">::thompson_init</text>
</a>
</g>
</g>
<!-- Node3&#45;&gt;Node4 -->
<g id="edge4_Node000003_Node000004" class="edge">
<title>Node3&#45;&gt;Node4</title>
<g id="a_edge4_Node000003_Node000004"><a xlink:title=" ">
<path fill="none" stroke="#63b8ff" d="M337.59,-15.25C329.51,-15.25 321.33,-15.25 313.44,-15.25"/>
<polygon fill="#63b8ff" stroke="#63b8ff" points="337.39,-18.75 347.39,-15.25 337.39,-11.75 337.39,-18.75"/>
</a>
</g>
</g>
<!-- Node5 -->
<g id="Node000005" class="node">
<title>Node5</title>
<g id="a_Node000005"><a xlink:href="namespacemp__thompson_abcad8fa6c118cf2ac1922e451d7ae174.html#abcad8fa6c118cf2ac1922e451d7ae174" target="_top" xlink:title="This subroutine is a wrapper around the actual thompson_init().">
<polygon fill="white" stroke="#666666" points="163,-24.88 0,-24.88 0,-5.63 163,-5.63 163,-24.88"/>
<text xml:space="preserve" text-anchor="middle" x="81.5" y="-11.38" font-family="Source Sans Pro" font-size="10.00">mp_thompson::mp_thompson_init</text>
</a>
</g>
</g>
<!-- Node4&#45;&gt;Node5 -->
<g id="edge5_Node000004_Node000005" class="edge">
<title>Node4&#45;&gt;Node5</title>
<g id="a_edge5_Node000004_Node000005"><a xlink:title=" ">
<path fill="none" stroke="#63b8ff" d="M187.25,-15.25C179.38,-15.25 171.29,-15.25 163.26,-15.25"/>
<polygon fill="#63b8ff" stroke="#63b8ff" points="187.09,-18.75 197.09,-15.25 187.09,-11.75 187.09,-18.75"/>
</a>
</g>
</g>
</g>
</svg>
