<?xml version="1.0" encoding="UTF-8" standalone="no"?>
<!DOCTYPE svg PUBLIC "-//W3C//DTD SVG 1.1//EN"
 "http://www.w3.org/Graphics/SVG/1.1/DTD/svg11.dtd">
<!-- Generated by graphviz version 14.1.2 (20260124.0452)
 -->
<!-- Title: fv_sat_adj::fv_sat_adj_run Pages: 1 -->
<svg width="382pt" height="192pt"
 viewBox="0.00 0.00 382.00 192.00" xmlns="http://www.w3.org/2000/svg" xmlns:xlink="http://www.w3.org/1999/xlink">

<svg id="main" version="1.1" xmlns="http://www.w3.org/2000/svg" xmlns:xlink="http://www.w3.org/1999/xlink" xml:space="preserve">

<style type="text/css"><![CDATA[
.node, .edge {opacity: 0.7;}
.node.selected, .edge.selected {opacity: 1;}
.edge:hover path { stroke: red; }
.edge:hover polygon { stroke: red; fill: red; }
]]></style>
<script type="application/ecmascript" xlink:href="svg.min.js"/>
<svg id="graph" class="graph">
<g id="graph0" class="graph" transform="scale(1 1) rotate(0) translate(4 188.25)">
<title>fv_sat_adj::fv_sat_adj_run</title>
<!-- Node1 -->
<g id="Node000001" class="node">
<title>Node1</title>
<g id="a_Node000001"><a xlink:title=" ">
<polygon fill="#999999" stroke="#666666" points="94,-88.88 0,-88.88 0,-58.38 94,-58.38 94,-88.88"/>
<text xml:space="preserve" text-anchor="start" x="8" y="-75.38" font-family="Source Sans Pro" font-size="10.00">fv_sat_adj::fv_sat</text>
<text xml:space="preserve" text-anchor="middle" x="47" y="-64.12" font-family="Source Sans Pro" font-size="10.00">_adj_run</text>
</a>
</g>
</g>
<!-- Node2 -->
<g id="Node000002" class="node">
<title>Node2</title>
<g id="a_Node000002"><a xlink:href="group__fast__sat__adj_ga87dc9f08821c6033c56775614f2c392a.html#ga87dc9f08821c6033c56775614f2c392a" target="_top" xlink:title="This subroutine includes the entity of the fast saturation adjustment processes.">
<polygon fill="white" stroke="#666666" points="224,-88.88 130,-88.88 130,-58.38 224,-58.38 224,-88.88"/>
<text xml:space="preserve" text-anchor="start" x="138" y="-75.38" font-family="Source Sans Pro" font-size="10.00">fv_sat_adj::fv_sat</text>
<text xml:space="preserve" text-anchor="middle" x="177" y="-64.12" font-family="Source Sans Pro" font-size="10.00">_adj_work</text>
</a>
</g>
</g>
<!-- Node1&#45;&gt;Node2 -->
<g id="edge1_Node000001_Node000002" class="edge">
<title>Node1&#45;&gt;Node2</title>
<g id="a_edge1_Node000001_Node000002"><a xlink:title=" ">
<path fill="none" stroke="#63b8ff" d="M94.21,-73.62C102.1,-73.62 110.37,-73.62 118.51,-73.62"/>
<polygon fill="#63b8ff" stroke="#63b8ff" points="118.34,-77.13 128.34,-73.63 118.34,-70.13 118.34,-77.13"/>
</a>
</g>
</g>
<!-- Node3 -->
<g id="Node000003" class="node">
<title>Node3</title>
<g id="a_Node000003"><a xlink:href="group__fast__sat__adj_ga8a9236e352c26c8d4c97723fe6899c23.html#ga8a9236e352c26c8d4c97723fe6899c23" target="_top" xlink:title="the function &#39;wqs1&#39; computes the saturated specific humidity for table iii">
<polygon fill="white" stroke="#666666" points="359.62,-166.25 274.62,-166.25 274.62,-147 359.62,-147 359.62,-166.25"/>
<text xml:space="preserve" text-anchor="middle" x="317.12" y="-152.75" font-family="Source Sans Pro" font-size="10.00">fv_sat_adj::iqs1</text>
</a>
</g>
</g>
<!-- Node2&#45;&gt;Node3 -->
<g id="edge2_Node000002_Node000003" class="edge">
<title>Node2&#45;&gt;Node3</title>
<g id="a_edge2_Node000002_Node000003"><a xlink:title=" ">
<path fill="none" stroke="#63b8ff" d="M194.02,-89.24C209.7,-103.79 234.84,-125.19 260,-138.62 262.49,-139.95 265.09,-141.2 267.76,-142.38"/>
<polygon fill="#63b8ff" stroke="#63b8ff" points="266.23,-145.54 276.81,-145.98 268.81,-139.03 266.23,-145.54"/>
</a>
</g>
</g>
<!-- Node4 -->
<g id="Node000004" class="node">
<title>Node4</title>
<g id="a_Node000004"><a xlink:href="group__fast__sat__adj_ga7cc92967b3deea876f0bbd6a018c0892.html#ga7cc92967b3deea876f0bbd6a018c0892" target="_top" xlink:title="The function &#39;iqs2&#39; computes the gradient of saturated specific humidity for table iii.">
<polygon fill="white" stroke="#666666" points="359.62,-111.25 274.62,-111.25 274.62,-92 359.62,-92 359.62,-111.25"/>
<text xml:space="preserve" text-anchor="middle" x="317.12" y="-97.75" font-family="Source Sans Pro" font-size="10.00">fv_sat_adj::iqs2</text>
</a>
</g>
</g>
<!-- Node2&#45;&gt;Node4 -->
<g id="edge4_Node000002_Node000004" class="edge">
<title>Node2&#45;&gt;Node4</title>
<g id="a_edge4_Node000002_Node000004"><a xlink:title=" ">
<path fill="none" stroke="#63b8ff" d="M224.38,-83.03C236.86,-85.56 250.46,-88.31 263.28,-90.91"/>
<polygon fill="#63b8ff" stroke="#63b8ff" points="262.3,-94.29 272.8,-92.84 263.69,-87.43 262.3,-94.29"/>
</a>
</g>
</g>
<!-- Node5 -->
<g id="Node000005" class="node">
<title>Node5</title>
<g id="a_Node000005"><a xlink:href="group__fast__sat__adj_ga7b60bfcbc803552a7706e44e8c034232.html#ga7b60bfcbc803552a7706e44e8c034232" target="_top" xlink:title="the function &#39;wqs1&#39; computes the saturated specific humidity for table ii.">
<polygon fill="white" stroke="#666666" points="362.25,-56.25 272,-56.25 272,-37 362.25,-37 362.25,-56.25"/>
<text xml:space="preserve" text-anchor="middle" x="317.12" y="-42.75" font-family="Source Sans Pro" font-size="10.00">fv_sat_adj::wqs1</text>
</a>
</g>
</g>
<!-- Node2&#45;&gt;Node5 -->
<g id="edge6_Node000002_Node000005" class="edge">
<title>Node2&#45;&gt;Node5</title>
<g id="a_edge6_Node000002_Node000005"><a xlink:title=" ">
<path fill="none" stroke="#63b8ff" d="M224.38,-64.56C235.9,-62.31 248.37,-59.87 260.29,-57.54"/>
<polygon fill="#63b8ff" stroke="#63b8ff" points="260.88,-60.99 270.02,-55.64 259.54,-54.12 260.88,-60.99"/>
</a>
</g>
</g>
<!-- Node6 -->
<g id="Node000006" class="node">
<title>Node6</title>
<g id="a_Node000006"><a xlink:href="group__fast__sat__adj_gad59f9d1cbaeec7fbc540d16ef561f33a.html#gad59f9d1cbaeec7fbc540d16ef561f33a" target="_top" xlink:title="The function wqs2_vect computes the gradient of saturated specific humidity for table ii....">
<polygon fill="white" stroke="#666666" points="374.25,-19.25 260,-19.25 260,0 374.25,0 374.25,-19.25"/>
<text xml:space="preserve" text-anchor="middle" x="317.12" y="-5.75" font-family="Source Sans Pro" font-size="10.00">fv_sat_adj::wqs2_vect</text>
</a>
</g>
</g>
<!-- Node2&#45;&gt;Node6 -->
<g id="edge8_Node000002_Node000006" class="edge">
<title>Node2&#45;&gt;Node6</title>
<g id="a_edge8_Node000002_Node000006"><a xlink:title=" ">
<path fill="none" stroke="#63b8ff" d="M202.81,-57.98C218.74,-48.37 240.1,-36.29 260,-27.62 263.33,-26.17 266.82,-24.78 270.35,-23.45"/>
<polygon fill="#63b8ff" stroke="#63b8ff" points="271.3,-26.83 279.57,-20.2 268.97,-20.23 271.3,-26.83"/>
</a>
</g>
</g>
<!-- Node3&#45;&gt;Node3 -->
<g id="edge3_Node000003_Node000003" class="edge">
<title>Node3&#45;&gt;Node3</title>
<g id="a_edge3_Node000003_Node000003"><a xlink:title=" ">
<path fill="none" stroke="#63b8ff" d="M295.19,-166.54C285.18,-175.15 292.49,-184.25 317.12,-184.25 330.6,-184.25 338.89,-181.53 342,-177.65"/>
<polygon fill="#63b8ff" stroke="#63b8ff" points="345.39,-176.78 339.45,-168 338.62,-178.56 345.39,-176.78"/>
</a>
</g>
</g>
<!-- Node4&#45;&gt;Node4 -->
<g id="edge5_Node000004_Node000004" class="edge">
<title>Node4&#45;&gt;Node4</title>
<g id="a_edge5_Node000004_Node000004"><a xlink:title=" ">
<path fill="none" stroke="#63b8ff" d="M295.19,-111.54C285.18,-120.15 292.49,-129.25 317.12,-129.25 330.6,-129.25 338.89,-126.53 342,-122.65"/>
<polygon fill="#63b8ff" stroke="#63b8ff" points="345.39,-121.78 339.45,-113 338.62,-123.56 345.39,-121.78"/>
</a>
</g>
</g>
<!-- Node5&#45;&gt;Node5 -->
<g id="edge7_Node000005_Node000005" class="edge">
<title>Node5&#45;&gt;Node5</title>
<g id="a_edge7_Node000005_Node000005"><a xlink:title=" ">
<path fill="none" stroke="#63b8ff" d="M295.19,-56.54C285.18,-65.15 292.49,-74.25 317.12,-74.25 330.6,-74.25 338.89,-71.53 342,-67.65"/>
<polygon fill="#63b8ff" stroke="#63b8ff" points="345.39,-66.78 339.45,-58 338.62,-68.56 345.39,-66.78"/>
</a>
</g>
</g>
</g>
</svg>
</svg>

<style type='text/css'>
<![CDATA[
[data-mouse-over-selected='false'] { opacity: 0.7; }
[data-mouse-over-selected='true']  { opacity: 1.0; }
]]>
</style>
<script type="application/ecmascript"><![CDATA[
document.addEventListener('DOMContentLoaded', (event) => {
  highlightEdges();
  highlightAdjacentNodes();
});
]]></script>
</svg>
