<?xml version="1.0" encoding="UTF-8" standalone="no"?>
<!DOCTYPE svg PUBLIC "-//W3C//DTD SVG 1.1//EN"
 "http://www.w3.org/Graphics/SVG/1.1/DTD/svg11.dtd">
<!-- Generated by graphviz version 14.1.2 (20260124.0452)
 -->
<!-- Title: bare_flux Pages: 1 -->
<svg width="288pt" height="249pt"
 viewBox="0.00 0.00 288.00 249.00" xmlns="http://www.w3.org/2000/svg" xmlns:xlink="http://www.w3.org/1999/xlink">
<g id="graph0" class="graph" transform="scale(1 1) rotate(0) translate(4 245.25)">
<title>bare_flux</title>
<!-- Node1 -->
<g id="Node000001" class="node">
<title>Node1</title>
<g id="a_Node000001"><a xlink:title="use newton&#45;raphson iteration to solve ground (tg) temperature that balances the surface energy budget...">
<polygon fill="#999999" stroke="#666666" points="55.75,-148.25 0,-148.25 0,-129 55.75,-129 55.75,-148.25"/>
<text xml:space="preserve" text-anchor="middle" x="27.88" y="-134.75" font-family="Source Sans Pro" font-size="10.00">bare_flux</text>
</a>
</g>
</g>
<!-- Node2 -->
<g id="Node000002" class="node">
<title>Node2</title>
<g id="a_Node000002"><a xlink:href="group___noah_m_p___l_s_m_gaecaebf370302a4553aafbf34e22f68c7.html#gaecaebf370302a4553aafbf34e22f68c7" target="_top" xlink:title="use polynomials to calculate saturation vapor pressure and derivative with respect to temperature: ov...">
<polygon fill="white" stroke="#666666" points="138.5,-241.25 103.75,-241.25 103.75,-222 138.5,-222 138.5,-241.25"/>
<text xml:space="preserve" text-anchor="middle" x="121.12" y="-227.75" font-family="Source Sans Pro" font-size="10.00">esat</text>
</a>
</g>
</g>
<!-- Node1&#45;&gt;Node2 -->
<g id="edge1_Node000001_Node000002" class="edge">
<title>Node1&#45;&gt;Node2</title>
<g id="a_edge1_Node000001_Node000002"><a xlink:title=" ">
<path fill="none" stroke="#63b8ff" d="M35.77,-148.7C46.52,-163.94 68.49,-193.25 91.75,-213.62 92.52,-214.3 93.31,-214.96 94.13,-215.62"/>
<polygon fill="#63b8ff" stroke="#63b8ff" points="91.9,-218.33 102.08,-221.28 95.96,-212.63 91.9,-218.33"/>
</a>
</g>
</g>
<!-- Node3 -->
<g id="Node000003" class="node">
<title>Node3</title>
<g id="a_Node000003"><a xlink:href="group___noah_m_p___l_s_m_ga4e76a9ee20e3ff7f36f761ffdc781690.html#ga4e76a9ee20e3ff7f36f761ffdc781690" target="_top" xlink:title="compute surface drag coefficient cm for momentum and ch for heat.">
<polygon fill="white" stroke="#666666" points="143.75,-204.25 98.5,-204.25 98.5,-185 143.75,-185 143.75,-204.25"/>
<text xml:space="preserve" text-anchor="middle" x="121.12" y="-190.75" font-family="Source Sans Pro" font-size="10.00">sfcdif1</text>
</a>
</g>
</g>
<!-- Node1&#45;&gt;Node3 -->
<g id="edge2_Node000001_Node000003" class="edge">
<title>Node1&#45;&gt;Node3</title>
<g id="a_edge2_Node000001_Node000003"><a xlink:title=" ">
<path fill="none" stroke="#63b8ff" d="M45.19,-148.64C58.73,-156.95 78.24,-168.92 93.96,-178.57"/>
<polygon fill="#63b8ff" stroke="#63b8ff" points="92,-181.47 102.35,-183.72 95.66,-175.51 92,-181.47"/>
</a>
</g>
</g>
<!-- Node4 -->
<g id="Node000004" class="node">
<title>Node4</title>
<g id="a_Node000004"><a xlink:href="group___noah_m_p___l_s_m_ga8a86a91a2b7884f8fcd1d32a0edc405e.html#ga8a86a91a2b7884f8fcd1d32a0edc405e" target="_top" xlink:title="calculate surface layer exchange coefficients via iteractive process (Chen et al. 1997,...">
<polygon fill="white" stroke="#666666" points="143.75,-167.25 98.5,-167.25 98.5,-148 143.75,-148 143.75,-167.25"/>
<text xml:space="preserve" text-anchor="middle" x="121.12" y="-153.75" font-family="Source Sans Pro" font-size="10.00">sfcdif2</text>
</a>
</g>
</g>
<!-- Node1&#45;&gt;Node4 -->
<g id="edge3_Node000001_Node000004" class="edge">
<title>Node1&#45;&gt;Node4</title>
<g id="a_edge3_Node000001_Node000004"><a xlink:title=" ">
<path fill="none" stroke="#63b8ff" d="M55.76,-144.22C65.54,-146.26 76.71,-148.58 86.96,-150.72"/>
<polygon fill="#63b8ff" stroke="#63b8ff" points="86.05,-154.11 96.55,-152.72 87.48,-147.25 86.05,-154.11"/>
</a>
</g>
</g>
<!-- Node5 -->
<g id="Node000005" class="node">
<title>Node5</title>
<g id="a_Node000005"><a xlink:href="group___noah_m_p___l_s_m_ga5894e4162657666340f3bd83f4b6263d.html#ga5894e4162657666340f3bd83f4b6263d" target="_top" xlink:title="compute surface drag coefficient cm for momentum and ch for heat.">
<polygon fill="white" stroke="#666666" points="143.75,-130.25 98.5,-130.25 98.5,-111 143.75,-111 143.75,-130.25"/>
<text xml:space="preserve" text-anchor="middle" x="121.12" y="-116.75" font-family="Source Sans Pro" font-size="10.00">sfcdif3</text>
</a>
</g>
</g>
<!-- Node1&#45;&gt;Node5 -->
<g id="edge4_Node000001_Node000005" class="edge">
<title>Node1&#45;&gt;Node5</title>
<g id="a_edge4_Node000001_Node000005"><a xlink:title=" ">
<path fill="none" stroke="#63b8ff" d="M55.76,-133.32C65.54,-131.39 76.71,-129.19 86.96,-127.17"/>
<polygon fill="#63b8ff" stroke="#63b8ff" points="87.42,-130.64 96.55,-125.28 86.06,-123.78 87.42,-130.64"/>
</a>
</g>
</g>
<!-- Node6 -->
<g id="Node000006" class="node">
<title>Node6</title>
<g id="a_Node000006"><a xlink:href="group___noah_m_p___l_s_m_ga4a88258da12057ced7c9dc5760b53d13.html#ga4a88258da12057ced7c9dc5760b53d13" target="_top" xlink:title=" ">
<polygon fill="white" stroke="#666666" points="143.75,-93.25 98.5,-93.25 98.5,-74 143.75,-74 143.75,-93.25"/>
<text xml:space="preserve" text-anchor="middle" x="121.12" y="-79.75" font-family="Source Sans Pro" font-size="10.00">sfcdif4</text>
</a>
</g>
</g>
<!-- Node1&#45;&gt;Node6 -->
<g id="edge5_Node000001_Node000006" class="edge">
<title>Node1&#45;&gt;Node6</title>
<g id="a_edge5_Node000001_Node000006"><a xlink:title=" ">
<path fill="none" stroke="#63b8ff" d="M45.61,-128.54C59.12,-120.4 78.36,-108.8 93.91,-99.43"/>
<polygon fill="#63b8ff" stroke="#63b8ff" points="95.44,-102.59 102.2,-94.43 91.83,-96.59 95.44,-102.59"/>
</a>
</g>
</g>
<!-- Node12 -->
<g id="Node000012" class="node">
<title>Node12</title>
<g id="a_Node000012"><a xlink:href="group___noah_m_p___l_s_m_gae2fa81a8d36349faf818400ee46c6357.html#gae2fa81a8d36349faf818400ee46c6357" target="_top" xlink:title=" ">
<polygon fill="white" stroke="#666666" points="150.5,-56.25 91.75,-56.25 91.75,-37 150.5,-37 150.5,-56.25"/>
<text xml:space="preserve" text-anchor="middle" x="121.12" y="-42.75" font-family="Source Sans Pro" font-size="10.00">thermalz0</text>
</a>
</g>
</g>
<!-- Node1&#45;&gt;Node12 -->
<g id="edge11_Node000001_Node000012" class="edge">
<title>Node1&#45;&gt;Node12</title>
<g id="a_edge11_Node000001_Node000012"><a xlink:title=" ">
<path fill="none" stroke="#63b8ff" d="M35.8,-128.7C46.59,-113.67 68.6,-84.76 91.75,-64.62 92.26,-64.18 92.78,-63.74 93.31,-63.31"/>
<polygon fill="#63b8ff" stroke="#63b8ff" points="95.17,-66.28 101.21,-57.58 91.06,-60.62 95.17,-66.28"/>
</a>
</g>
</g>
<!-- Node7 -->
<g id="Node000007" class="node">
<title>Node7</title>
<g id="a_Node000007"><a xlink:href="group__mynn__sfc_gab8e348eef161b16bada8841a900501c2.html#gab8e348eef161b16bada8841a900501c2" target="_top" xlink:title="this is taken from andreas (2002; j. of hydromet) and andreas et al. (2005; blm).">
<polygon fill="white" stroke="#666666" points="271.5,-167.25 194.75,-167.25 194.75,-148 271.5,-148 271.5,-167.25"/>
<text xml:space="preserve" text-anchor="middle" x="233.12" y="-153.75" font-family="Source Sans Pro" font-size="10.00">andreas_2002</text>
</a>
</g>
</g>
<!-- Node6&#45;&gt;Node7 -->
<g id="edge6_Node000006_Node000007" class="edge">
<title>Node6&#45;&gt;Node7</title>
<g id="a_edge6_Node000006_Node000007"><a xlink:title=" ">
<path fill="none" stroke="#63b8ff" d="M139.41,-93.63C143.19,-96.08 147.08,-98.81 150.5,-101.62 168.46,-116.41 167.22,-126.6 186.5,-139.62 188.05,-140.67 189.67,-141.67 191.34,-142.63"/>
<polygon fill="#63b8ff" stroke="#63b8ff" points="189.39,-145.56 199.9,-146.91 192.52,-139.3 189.39,-145.56"/>
</a>
</g>
</g>
<!-- Node8 -->
<g id="Node000008" class="node">
<title>Node8</title>
<g id="a_Node000008"><a xlink:href="group___noah_m_p___l_s_m_ga88dbf6bdf1a8097e27b06ddfce89516c.html#ga88dbf6bdf1a8097e27b06ddfce89516c" target="_top" xlink:title="data. the formula for land uses a constant ratio (z_0/7.4) taken from garratt (1992).">
<polygon fill="white" stroke="#666666" points="268.12,-130.25 198.12,-130.25 198.12,-111 268.12,-111 268.12,-130.25"/>
<text xml:space="preserve" text-anchor="middle" x="233.12" y="-116.75" font-family="Source Sans Pro" font-size="10.00">garratt_1992</text>
</a>
</g>
</g>
<!-- Node6&#45;&gt;Node8 -->
<g id="edge7_Node000006_Node000008" class="edge">
<title>Node6&#45;&gt;Node8</title>
<g id="a_edge7_Node000006_Node000008"><a xlink:title=" ">
<path fill="none" stroke="#63b8ff" d="M144.12,-91.02C157.67,-95.58 175.46,-101.57 191.5,-106.96"/>
<polygon fill="#63b8ff" stroke="#63b8ff" points="190.22,-110.22 200.82,-110.09 192.45,-103.59 190.22,-110.22"/>
</a>
</g>
</g>
<!-- Node9 -->
<g id="Node000009" class="node">
<title>Node9</title>
<g id="a_Node000009"><a xlink:href="group__mynn__sfc_ga7bbe8445bfcae5adad4fed82a0ecbaee.html#ga7bbe8445bfcae5adad4fed82a0ecbaee" target="_top" xlink:title="this subroutine returns a more robust z/l that best matches the z/l from hogstrom (1996) for unstable...">
<polygon fill="white" stroke="#666666" points="267,-93.25 199.25,-93.25 199.25,-74 267,-74 267,-93.25"/>
<text xml:space="preserve" text-anchor="middle" x="233.12" y="-79.75" font-family="Source Sans Pro" font-size="10.00">li_etal_2010</text>
</a>
</g>
</g>
<!-- Node6&#45;&gt;Node9 -->
<g id="edge8_Node000006_Node000009" class="edge">
<title>Node6&#45;&gt;Node9</title>
<g id="a_edge8_Node000006_Node000009"><a xlink:title=" ">
<path fill="none" stroke="#63b8ff" d="M144.12,-83.62C156.61,-83.62 172.71,-83.62 187.71,-83.62"/>
<polygon fill="#63b8ff" stroke="#63b8ff" points="187.38,-87.13 197.38,-83.63 187.38,-80.13 187.38,-87.13"/>
</a>
</g>
</g>
<!-- Node10 -->
<g id="Node000010" class="node">
<title>Node10</title>
<g id="a_Node000010"><a xlink:href="group__mynn__sfc_ga25595438cdc181cd5e5e05aa45486a69.html#ga25595438cdc181cd5e5e05aa45486a69" target="_top" xlink:title="this is a modified version of yang et al (2002 qjrms, 2008 jamc) and chen et al (2010,...">
<polygon fill="white" stroke="#666666" points="264.75,-56.25 201.5,-56.25 201.5,-37 264.75,-37 264.75,-56.25"/>
<text xml:space="preserve" text-anchor="middle" x="233.12" y="-42.75" font-family="Source Sans Pro" font-size="10.00">yang_2008</text>
</a>
</g>
</g>
<!-- Node6&#45;&gt;Node10 -->
<g id="edge9_Node000006_Node000010" class="edge">
<title>Node6&#45;&gt;Node10</title>
<g id="a_edge9_Node000006_Node000010"><a xlink:title=" ">
<path fill="none" stroke="#63b8ff" d="M144.12,-76.23C157.67,-71.67 175.46,-65.68 191.5,-60.29"/>
<polygon fill="#63b8ff" stroke="#63b8ff" points="192.45,-63.66 200.82,-57.16 190.22,-57.03 192.45,-63.66"/>
</a>
</g>
</g>
<!-- Node11 -->
<g id="Node000011" class="node">
<title>Node11</title>
<g id="a_Node000011"><a xlink:href="group___noah_m_p___l_s_m_gaa1453a4f904aa171ea91510f464824b3.html#gaa1453a4f904aa171ea91510f464824b3" target="_top" xlink:title=" ">
<polygon fill="white" stroke="#666666" points="279.75,-19.25 186.5,-19.25 186.5,0 279.75,0 279.75,-19.25"/>
<text xml:space="preserve" text-anchor="middle" x="233.12" y="-5.75" font-family="Source Sans Pro" font-size="10.00">zilitinkevich_1995</text>
</a>
</g>
</g>
<!-- Node6&#45;&gt;Node11 -->
<g id="edge10_Node000006_Node000011" class="edge">
<title>Node6&#45;&gt;Node11</title>
<g id="a_edge10_Node000006_Node000011"><a xlink:title=" ">
<path fill="none" stroke="#63b8ff" d="M139.41,-73.62C143.19,-71.17 147.08,-68.44 150.5,-65.62 168.46,-50.84 167.22,-40.65 186.5,-27.62 188.05,-26.58 189.67,-25.58 191.34,-24.62"/>
<polygon fill="#63b8ff" stroke="#63b8ff" points="192.52,-27.95 199.9,-20.34 189.39,-21.69 192.52,-27.95"/>
</a>
</g>
</g>
</g>
</svg>
