<?xml version="1.0" encoding="UTF-8" standalone="no"?>
<!DOCTYPE svg PUBLIC "-//W3C//DTD SVG 1.1//EN"
 "http://www.w3.org/Graphics/SVG/1.1/DTD/svg11.dtd">
<!-- Generated by graphviz version 14.1.2 (20260124.0452)
 -->
<!-- Title: error Pages: 1 -->
<!--zoomable 336 -->

<svg id="main" version="1.1" xmlns="http://www.w3.org/2000/svg" xmlns:xlink="http://www.w3.org/1999/xlink" xml:space="preserve" onload="init(evt)">

<style type="text/css"><![CDATA[
.node, .edge {opacity: 0.7;}
.node.selected, .edge.selected {opacity: 1;}
.edge:hover path { stroke: red; }
.edge:hover polygon { stroke: red; fill: red; }
]]></style>

<defs>
  <circle id="rim" cx="0" cy="0" r="7"/>
  <circle id="rim2" cx="0" cy="0" r="3.5"/>
  <g id="zoomPlus">
    <use xlink:href="#rim" fill="#404040"><set attributeName="fill" to="#808080" begin="zoomplus.mouseover" end="zoomplus.mouseout"/></use>
    <path d="M-4,0h8M0,-4v8" fill="none" stroke="white" stroke-width="1.5" pointer-events="none"/>
  </g>
  <g id="zoomMin">
    <use xlink:href="#rim" fill="#404040"><set attributeName="fill" to="#808080" begin="zoomminus.mouseover" end="zoomminus.mouseout"/></use>
    <path d="M-4,0h8" fill="none" stroke="white" stroke-width="1.5" pointer-events="none"/>
  </g>
  <g id="arrowUp" transform="translate(30 24)">
    <use xlink:href="#rim"/>
    <path pointer-events="none" fill="none" stroke="white" stroke-width="1.5" d="M0,-3.0v7 M-2.5,-0.5L0,-3.0L2.5,-0.5"/>
  </g>
  <g id="arrowRight" transform="rotate(90) translate(36 -43)">
    <use xlink:href="#rim"/>
    <path pointer-events="none" fill="none" stroke="white" stroke-width="1.5" d="M0,-3.0v7 M-2.5,-0.5L0,-3.0L2.5,-0.5"/>
  </g>
  <g id="arrowDown" transform="rotate(180) translate(-30 -48)">
    <use xlink:href="#rim"/>
    <path pointer-events="none" fill="none" stroke="white" stroke-width="1.5" d="M0,-3.0v7 M-2.5,-0.5L0,-3.0L2.5,-0.5"/>
  </g>
  <g id="arrowLeft" transform="rotate(270) translate(-36 17)">
    <use xlink:href="#rim"/>
    <path pointer-events="none" fill="none" stroke="white" stroke-width="1.5" d="M0,-3.0v7 M-2.5,-0.5L0,-3.0L2.5,-0.5"/>
  </g>
  <g id="resetDef">
    <use xlink:href="#rim2" fill="#404040"><set attributeName="fill" to="#808080" begin="reset.mouseover" end="reset.mouseout"/></use>
  </g>
</defs>
<script type="application/ecmascript">
var viewWidth = 1011;
var viewHeight = 336;
var sectionId = 'dynsection-0';
</script>
<script type="application/ecmascript" xlink:href="svg.min.js"/>
<svg id="graph" class="graph">
<g id="viewport">
<title>error</title>
<!-- Node1 -->
<g id="Node000001" class="node">
<title>Node1</title>
<g id="a_Node000001"><a xlink:title="check surface energy balance and water balance.">
<polygon fill="#999999" stroke="#666666" points="1003.25,-171.88 967.75,-171.88 967.75,-152.62 1003.25,-152.62 1003.25,-171.88"/>
<text xml:space="preserve" text-anchor="middle" x="985.5" y="-158.38" font-family="Source Sans Pro" font-size="10.00">error</text>
</a>
</g>
</g>
<!-- Node2 -->
<g id="Node000002" class="node">
<title>Node2</title>
<g id="a_Node000002"><a xlink:href="group___noah_m_p___l_s_m_ga3828ee66b8dbae34856cd229066adeb8.html#ga3828ee66b8dbae34856cd229066adeb8" target="_top" xlink:title="calculate amount of supercooled liquid soil water content if temperature is below 273....">
<polygon fill="white" stroke="#666666" points="884.12,-290.88 846.38,-290.88 846.38,-271.62 884.12,-271.62 884.12,-290.88"/>
<text xml:space="preserve" text-anchor="middle" x="865.25" y="-277.38" font-family="Source Sans Pro" font-size="10.00">frh2o</text>
</a>
</g>
</g>
<!-- Node1&#45;&gt;Node2 -->
<g id="edge1_Node000001_Node000002" class="edge">
<title>Node1&#45;&gt;Node2</title>
<g id="a_edge1_Node000001_Node000002"><a xlink:title=" ">
<path fill="none" stroke="#63b8ff" d="M977.92,-182.87C970.1,-204.24 955.11,-237.27 931.75,-257.25 918.22,-268.82 898.63,-275.02 884.4,-278.2"/>
<polygon fill="#63b8ff" stroke="#63b8ff" points="981.19,-184.11 981.12,-173.51 974.57,-181.84 981.19,-184.11"/>
</a>
</g>
</g>
<!-- Node5 -->
<g id="Node000005" class="node">
<title>Node5</title>
<g id="a_Node000005"><a xlink:href="group___noah_m_p___l_s_m_gab480f7969dad27ce9e00e559f82c464e.html#gab480f7969dad27ce9e00e559f82c464e" target="_top" xlink:title=" ">
<polygon fill="white" stroke="#666666" points="528.62,-253.88 457.12,-253.88 457.12,-234.62 528.62,-234.62 528.62,-253.88"/>
<text xml:space="preserve" text-anchor="middle" x="492.88" y="-240.38" font-family="Source Sans Pro" font-size="10.00">noahmp_sflx</text>
</a>
</g>
</g>
<!-- Node1&#45;&gt;Node5 -->
<g id="edge21_Node000001_Node000005" class="edge">
<title>Node1&#45;&gt;Node5</title>
<g id="a_edge21_Node000001_Node000005"><a xlink:title=" ">
<path fill="none" stroke="#63b8ff" d="M974,-181.59C964.92,-196.16 950.34,-215.14 931.75,-224.25 861.28,-258.79 620.14,-250.66 529.07,-246.19"/>
<polygon fill="#63b8ff" stroke="#63b8ff" points="976.84,-183.67 978.85,-173.27 970.79,-180.14 976.84,-183.67"/>
</a>
</g>
</g>
<!-- Node9 -->
<g id="Node000009" class="node">
<title>Node9</title>
<g id="a_Node000009"><a xlink:href="group___noah___l_s_m_ga7c0e713811400259a984b2153834e70c.html#ga7c0e713811400259a984b2153834e70c" target="_top" xlink:title="This subroutine calculates amount of supercooled liquid soil water content if temperature is below 27...">
<polygon fill="white" stroke="#666666" points="884.12,-214.88 846.38,-214.88 846.38,-195.62 884.12,-195.62 884.12,-214.88"/>
<text xml:space="preserve" text-anchor="middle" x="865.25" y="-201.38" font-family="Source Sans Pro" font-size="10.00">frh2o</text>
</a>
</g>
</g>
<!-- Node1&#45;&gt;Node9 -->
<g id="edge8_Node000001_Node000009" class="edge">
<title>Node1&#45;&gt;Node9</title>
<g id="a_edge8_Node000001_Node000009"><a xlink:title=" ">
<path fill="none" stroke="#63b8ff" d="M957.27,-175.55C949.16,-179.26 940.18,-183.13 931.75,-186.25 916.09,-192.05 897.81,-197.22 884.55,-200.7"/>
<polygon fill="#63b8ff" stroke="#63b8ff" points="958.72,-178.73 966.29,-171.31 955.75,-172.39 958.72,-178.73"/>
</a>
</g>
</g>
<!-- Node18 -->
<g id="Node000018" class="node">
<title>Node18</title>
<g id="a_Node000018"><a xlink:href="namespacemodule__mp__radar_aa36a5488839ac44471a11805e3b1273b.html#aa36a5488839ac44471a11805e3b1273b" target="_top" xlink:title=" ">
<polygon fill="white" stroke="#666666" points="921.62,-177.5 808.88,-177.5 808.88,-147 921.62,-147 921.62,-177.5"/>
<text xml:space="preserve" text-anchor="start" x="816.88" y="-164" font-family="Source Sans Pro" font-size="10.00">module_mp_radar::get</text>
<text xml:space="preserve" text-anchor="middle" x="865.25" y="-152.75" font-family="Source Sans Pro" font-size="10.00">_m_mix</text>
</a>
</g>
</g>
<!-- Node1&#45;&gt;Node18 -->
<g id="edge18_Node000001_Node000018" class="edge">
<title>Node1&#45;&gt;Node18</title>
<g id="a_edge18_Node000001_Node000018"><a xlink:title=" ">
<path fill="none" stroke="#63b8ff" d="M956.12,-162.25C945.83,-162.25 933.81,-162.25 921.97,-162.25"/>
<polygon fill="#63b8ff" stroke="#63b8ff" points="955.79,-165.75 965.79,-162.25 955.79,-158.75 955.79,-165.75"/>
</a>
</g>
</g>
<!-- Node19 -->
<g id="Node000019" class="node">
<title>Node19</title>
<g id="a_Node000019"><a xlink:href="namespacemodule__mp__radar_a06ba49afd2e3598a7054e8375bcd4964.html#a06ba49afd2e3598a7054e8375bcd4964" target="_top" xlink:title=" ">
<polygon fill="white" stroke="#666666" points="921.62,-128.5 808.88,-128.5 808.88,-98 921.62,-98 921.62,-128.5"/>
<text xml:space="preserve" text-anchor="start" x="816.88" y="-115" font-family="Source Sans Pro" font-size="10.00">module_mp_radar::get</text>
<text xml:space="preserve" text-anchor="middle" x="865.25" y="-103.75" font-family="Source Sans Pro" font-size="10.00">_m_mix_nested</text>
</a>
</g>
</g>
<!-- Node1&#45;&gt;Node19 -->
<g id="edge19_Node000001_Node000019" class="edge">
<title>Node1&#45;&gt;Node19</title>
<g id="a_edge19_Node000001_Node000019"><a xlink:title=" ">
<path fill="none" stroke="#63b8ff" d="M957.09,-149.39C948.98,-145.69 940.05,-141.72 931.75,-138.25 924.23,-135.11 916.15,-131.9 908.33,-128.87"/>
<polygon fill="#63b8ff" stroke="#63b8ff" points="955.59,-152.55 966.14,-153.56 958.53,-146.2 955.59,-152.55"/>
</a>
</g>
</g>
<!-- Node20 -->
<g id="Node000020" class="node">
<title>Node20</title>
<g id="a_Node000020"><a xlink:href="namespacemodule__mp__radar_a7fae5da3abc7ce21ad5881aafd8cf797.html#a7fae5da3abc7ce21ad5881aafd8cf797" target="_top" xlink:title=" ">
<polygon fill="white" stroke="#666666" points="929.88,-79.5 800.62,-79.5 800.62,-49 929.88,-49 929.88,-79.5"/>
<text xml:space="preserve" text-anchor="start" x="808.62" y="-66" font-family="Source Sans Pro" font-size="10.00">module_mp_radar::m</text>
<text xml:space="preserve" text-anchor="middle" x="865.25" y="-54.75" font-family="Source Sans Pro" font-size="10.00">_complex_maxwellgarnett</text>
</a>
</g>
</g>
<!-- Node1&#45;&gt;Node20 -->
<g id="edge20_Node000001_Node000020" class="edge">
<title>Node1&#45;&gt;Node20</title>
<g id="a_edge20_Node000001_Node000020"><a xlink:title=" ">
<path fill="none" stroke="#63b8ff" d="M974.33,-142.25C965.17,-125.99 950.29,-103.49 931.75,-89.25 927.12,-85.69 921.92,-82.59 916.53,-79.9"/>
<polygon fill="#63b8ff" stroke="#63b8ff" points="971.22,-143.84 979.03,-151 977.38,-140.53 971.22,-143.84"/>
</a>
</g>
</g>
<!-- Node21 -->
<g id="Node000021" class="node">
<title>Node21</title>
<g id="a_Node000021"><a xlink:href="namespacemodule__mp__radar_aa1de914d36ee03f5406fc3062e96e99a.html#aa1de914d36ee03f5406fc3062e96e99a" target="_top" xlink:title="ingroup thompson_radar">
<polygon fill="white" stroke="#666666" points="931.75,-30.5 798.75,-30.5 798.75,0 931.75,0 931.75,-30.5"/>
<text xml:space="preserve" text-anchor="start" x="806.75" y="-17" font-family="Source Sans Pro" font-size="10.00">module_mp_radar::rayleigh</text>
<text xml:space="preserve" text-anchor="middle" x="865.25" y="-5.75" font-family="Source Sans Pro" font-size="10.00">_soak_wetgraupel</text>
</a>
</g>
</g>
<!-- Node1&#45;&gt;Node21 -->
<g id="edge22_Node000001_Node000021" class="edge">
<title>Node1&#45;&gt;Node21</title>
<g id="a_edge22_Node000001_Node000021"><a xlink:title=" ">
<path fill="none" stroke="#63b8ff" d="M980.61,-141.04C974.62,-114.14 960.67,-67.94 931.75,-40.25 927.97,-36.63 923.61,-33.52 918.98,-30.85"/>
<polygon fill="#63b8ff" stroke="#63b8ff" points="977.16,-141.63 982.58,-150.73 984.02,-140.24 977.16,-141.63"/>
</a>
</g>
</g>
<!-- Node3 -->
<g id="Node000003" class="node">
<title>Node3</title>
<g id="a_Node000003"><a xlink:href="group___noah_m_p___l_s_m_ga224e81e192ae0cf37b2b8b52cd19ee82.html#ga224e81e192ae0cf37b2b8b52cd19ee82" target="_top" xlink:title="melting/freezing of snow water and soil water">
<polygon fill="white" stroke="#666666" points="762.75,-290.88 689,-290.88 689,-271.62 762.75,-271.62 762.75,-290.88"/>
<text xml:space="preserve" text-anchor="middle" x="725.88" y="-277.38" font-family="Source Sans Pro" font-size="10.00">phasechange</text>
</a>
</g>
</g>
<!-- Node2&#45;&gt;Node3 -->
<g id="edge2_Node000002_Node000003" class="edge">
<title>Node2&#45;&gt;Node3</title>
<g id="a_edge2_Node000002_Node000003"><a xlink:title=" ">
<path fill="none" stroke="#63b8ff" d="M834.58,-281.25C813.58,-281.25 785.3,-281.25 762.98,-281.25"/>
<polygon fill="#63b8ff" stroke="#63b8ff" points="834.49,-284.75 844.49,-281.25 834.49,-277.75 834.49,-284.75"/>
</a>
</g>
</g>
<!-- Node4 -->
<g id="Node000004" class="node">
<title>Node4</title>
<g id="a_Node000004"><a xlink:href="group___noah_m_p___l_s_m_ga2698d46b5582d11d0d6fc78d49dd796c.html#ga2698d46b5582d11d0d6fc78d49dd796c" target="_top" xlink:title="We use different approaches to deal with subgrid features of radiation transfer and turbulent transfe...">
<polygon fill="white" stroke="#666666" points="653,-290.88 607.75,-290.88 607.75,-271.62 653,-271.62 653,-290.88"/>
<text xml:space="preserve" text-anchor="middle" x="630.38" y="-277.38" font-family="Source Sans Pro" font-size="10.00">energy</text>
</a>
</g>
</g>
<!-- Node3&#45;&gt;Node4 -->
<g id="edge3_Node000003_Node000004" class="edge">
<title>Node3&#45;&gt;Node4</title>
<g id="a_edge3_Node000003_Node000004"><a xlink:title=" ">
<path fill="none" stroke="#63b8ff" d="M677.37,-281.25C668.98,-281.25 660.62,-281.25 653.37,-281.25"/>
<polygon fill="#63b8ff" stroke="#63b8ff" points="677.21,-284.75 687.21,-281.25 677.21,-277.75 677.21,-284.75"/>
</a>
</g>
</g>
<!-- Node4&#45;&gt;Node5 -->
<g id="edge4_Node000004_Node000005" class="edge">
<title>Node4&#45;&gt;Node5</title>
<g id="a_edge4_Node000004_Node000005"><a xlink:title=" ">
<path fill="none" stroke="#63b8ff" d="M596.48,-269.83C588.43,-267.2 579.82,-264.51 571.75,-262.25 557.85,-258.36 542.39,-254.66 528.94,-251.64"/>
<polygon fill="#63b8ff" stroke="#63b8ff" points="595.33,-273.13 605.92,-272.99 597.55,-266.5 595.33,-273.13"/>
</a>
</g>
</g>
<!-- Node7 -->
<g id="Node000007" class="node">
<title>Node7</title>
<g id="a_Node000007"><a xlink:href="group___s_a_m_fdeep_ga5e834dec0932a16a98b7d90fd69a9c70.html#ga5e834dec0932a16a98b7d90fd69a9c70" target="_top" xlink:title=" ">
<polygon fill="white" stroke="#666666" points="571.75,-327.88 414,-327.88 414,-308.62 571.75,-308.62 571.75,-327.88"/>
<text xml:space="preserve" text-anchor="middle" x="492.88" y="-314.38" font-family="Source Sans Pro" font-size="10.00">samfdeepcnv::samfdeepcnv_run</text>
</a>
</g>
</g>
<!-- Node4&#45;&gt;Node7 -->
<g id="edge6_Node000004_Node000007" class="edge">
<title>Node4&#45;&gt;Node7</title>
<g id="a_edge6_Node000004_Node000007"><a xlink:title=" ">
<path fill="none" stroke="#63b8ff" d="M596.48,-292.67C588.43,-295.3 579.82,-297.99 571.75,-300.25 561.73,-303.05 550.89,-305.76 540.58,-308.19"/>
<polygon fill="#63b8ff" stroke="#63b8ff" points="597.55,-296 605.92,-289.51 595.33,-289.37 597.55,-296"/>
</a>
</g>
</g>
<!-- Node8 -->
<g id="Node000008" class="node">
<title>Node8</title>
<g id="a_Node000008"><a xlink:href="group___s_a_m_f__shal_gaf2534c328553470068a75a9aa56b7d56.html#gaf2534c328553470068a75a9aa56b7d56" target="_top" xlink:title=" ">
<polygon fill="white" stroke="#666666" points="568.75,-290.88 417,-290.88 417,-271.62 568.75,-271.62 568.75,-290.88"/>
<text xml:space="preserve" text-anchor="middle" x="492.88" y="-277.38" font-family="Source Sans Pro" font-size="10.00">samfshalcnv::samfshalcnv_run</text>
</a>
</g>
</g>
<!-- Node4&#45;&gt;Node8 -->
<g id="edge7_Node000004_Node000008" class="edge">
<title>Node4&#45;&gt;Node8</title>
<g id="a_edge7_Node000004_Node000008"><a xlink:title=" ">
<path fill="none" stroke="#63b8ff" d="M595.91,-281.25C587.62,-281.25 578.4,-281.25 568.99,-281.25"/>
<polygon fill="#63b8ff" stroke="#63b8ff" points="595.79,-284.75 605.79,-281.25 595.79,-277.75 595.79,-284.75"/>
</a>
</g>
</g>
<!-- Node6 -->
<g id="Node000006" class="node">
<title>Node6</title>
<g id="a_Node000006"><a xlink:href="group___noah_m_p___l_s_m_ga0e44f72a92d8830344fecdb9fb65e6fb.html#ga0e44f72a92d8830344fecdb9fb65e6fb" target="_top" xlink:title="This subroutine is the main CCPP entry point for the NoahMP LSM.">
<polygon fill="white" stroke="#666666" points="362.25,-258.88 279.5,-258.88 279.5,-239.62 362.25,-239.62 362.25,-258.88"/>
<text xml:space="preserve" text-anchor="middle" x="320.88" y="-245.38" font-family="Source Sans Pro" font-size="10.00">noahmpdrv_run</text>
</a>
</g>
</g>
<!-- Node5&#45;&gt;Node6 -->
<g id="edge5_Node000005_Node000006" class="edge">
<title>Node5&#45;&gt;Node6</title>
<g id="a_edge5_Node000005_Node000006"><a xlink:title=" ">
<path fill="none" stroke="#63b8ff" d="M445.25,-245.62C419.41,-246.38 387.59,-247.32 362.73,-248.05"/>
<polygon fill="#63b8ff" stroke="#63b8ff" points="445.25,-249.12 455.14,-245.33 445.04,-242.13 445.25,-249.12"/>
</a>
</g>
</g>
<!-- Node10 -->
<g id="Node000010" class="node">
<title>Node10</title>
<g id="a_Node000010"><a xlink:href="group___noah___l_s_m_ga1b241897d00ec3d66eabe9e959d0ce04.html#ga1b241897d00ec3d66eabe9e959d0ce04" target="_top" xlink:title="This subroutine calculates sink/source term of the termal diffusion equation.">
<polygon fill="white" stroke="#666666" points="748.5,-214.88 703.25,-214.88 703.25,-195.62 748.5,-195.62 748.5,-214.88"/>
<text xml:space="preserve" text-anchor="middle" x="725.88" y="-201.38" font-family="Source Sans Pro" font-size="10.00">snksrc</text>
</a>
</g>
</g>
<!-- Node9&#45;&gt;Node10 -->
<g id="edge9_Node000009_Node000010" class="edge">
<title>Node9&#45;&gt;Node10</title>
<g id="a_edge9_Node000009_Node000010"><a xlink:title=" ">
<path fill="none" stroke="#63b8ff" d="M834.68,-205.25C808.9,-205.25 772.07,-205.25 748.83,-205.25"/>
<polygon fill="#63b8ff" stroke="#63b8ff" points="834.49,-208.75 844.49,-205.25 834.49,-201.75 834.49,-208.75"/>
</a>
</g>
</g>
<!-- Node11 -->
<g id="Node000011" class="node">
<title>Node11</title>
<g id="a_Node000011"><a xlink:href="group___noah___l_s_m_gabb602c2b09396e2f94c9556259f5bae4.html#gabb602c2b09396e2f94c9556259f5bae4" target="_top" xlink:title="This subroutine calculates the right hand side of the time tendency term of the soil thermal diffusio...">
<polygon fill="white" stroke="#666666" points="644.77,-205.88 615.98,-205.88 615.98,-186.62 644.77,-186.62 644.77,-205.88"/>
<text xml:space="preserve" text-anchor="middle" x="630.38" y="-192.38" font-family="Source Sans Pro" font-size="10.00">hrt</text>
</a>
</g>
</g>
<!-- Node10&#45;&gt;Node11 -->
<g id="edge10_Node000010_Node000011" class="edge">
<title>Node10&#45;&gt;Node11</title>
<g id="a_edge10_Node000010_Node000011"><a xlink:title=" ">
<path fill="none" stroke="#63b8ff" d="M692.02,-202.09C675.93,-200.54 657.42,-198.76 645.12,-197.57"/>
<polygon fill="#63b8ff" stroke="#63b8ff" points="691.39,-205.54 701.68,-203.02 692.06,-198.58 691.39,-205.54"/>
</a>
</g>
</g>
<!-- Node12 -->
<g id="Node000012" class="node">
<title>Node12</title>
<g id="a_Node000012"><a xlink:href="group___noah___l_s_m_ga977daabf4ff68b28fc5ccd8796d815cd.html#ga977daabf4ff68b28fc5ccd8796d815cd" target="_top" xlink:title="This subroutine updates the temperature state of the soil column based on the thermal diffusion equat...">
<polygon fill="white" stroke="#666666" points="511.38,-188.88 474.38,-188.88 474.38,-169.62 511.38,-169.62 511.38,-188.88"/>
<text xml:space="preserve" text-anchor="middle" x="492.88" y="-175.38" font-family="Source Sans Pro" font-size="10.00">shflx</text>
</a>
</g>
</g>
<!-- Node11&#45;&gt;Node12 -->
<g id="edge11_Node000011_Node000012" class="edge">
<title>Node11&#45;&gt;Node12</title>
<g id="a_edge11_Node000011_Node000012"><a xlink:title=" ">
<path fill="none" stroke="#63b8ff" d="M604.45,-193.12C577.48,-189.74 535.18,-184.43 511.48,-181.46"/>
<polygon fill="#63b8ff" stroke="#63b8ff" points="603.78,-196.57 614.14,-194.34 604.65,-189.62 603.78,-196.57"/>
</a>
</g>
</g>
<!-- Node13 -->
<g id="Node000013" class="node">
<title>Node13</title>
<g id="a_Node000013"><a xlink:href="group___noah___l_s_m_ga92994e4737ecfd692a6704778558c9c2.html#ga92994e4737ecfd692a6704778558c9c2" target="_top" xlink:title="This subroutine calculates soil moisture and heat flux values and update soil moisture content and so...">
<polygon fill="white" stroke="#666666" points="342,-184.88 299.75,-184.88 299.75,-165.62 342,-165.62 342,-184.88"/>
<text xml:space="preserve" text-anchor="middle" x="320.88" y="-171.38" font-family="Source Sans Pro" font-size="10.00">nopac</text>
</a>
</g>
</g>
<!-- Node12&#45;&gt;Node13 -->
<g id="edge12_Node000012_Node000013" class="edge">
<title>Node12&#45;&gt;Node13</title>
<g id="a_edge12_Node000012_Node000013"><a xlink:title=" ">
<path fill="none" stroke="#63b8ff" d="M462.87,-178.57C428.6,-177.76 372.45,-176.44 342.39,-175.73"/>
<polygon fill="#63b8ff" stroke="#63b8ff" points="462.41,-182.06 472.49,-178.79 462.58,-175.06 462.41,-182.06"/>
</a>
</g>
</g>
<!-- Node16 -->
<g id="Node000016" class="node">
<title>Node16</title>
<g id="a_Node000016"><a xlink:href="group__sfc__diag__mod_ga7e773c818d77462fd7acbd9b15baf909.html#ga7e773c818d77462fd7acbd9b15baf909" target="_top" xlink:title=" ">
<polygon fill="white" stroke="#666666" points="378,-147.88 263.75,-147.88 263.75,-128.62 378,-128.62 378,-147.88"/>
<text xml:space="preserve" text-anchor="middle" x="320.88" y="-134.38" font-family="Source Sans Pro" font-size="10.00">sfc_diag::sfc_diag_run</text>
</a>
</g>
</g>
<!-- Node12&#45;&gt;Node16 -->
<g id="edge15_Node000012_Node000016" class="edge">
<title>Node12&#45;&gt;Node16</title>
<g id="a_edge15_Node000012_Node000016"><a xlink:title=" ">
<path fill="none" stroke="#63b8ff" d="M462.88,-172.26C435.59,-165.68 394.43,-155.75 363.62,-148.32"/>
<polygon fill="#63b8ff" stroke="#63b8ff" points="461.99,-175.64 472.53,-174.58 463.63,-168.84 461.99,-175.64"/>
</a>
</g>
</g>
<!-- Node17 -->
<g id="Node000017" class="node">
<title>Node17</title>
<g id="a_Node000017"><a xlink:href="group___noah___l_s_m_gad65a889bf3f431ade2a312674671ab41.html#gad65a889bf3f431ade2a312674671ab41" target="_top" xlink:title="This subroutine calculates soil moisture and heat flux values and update soil moisture content and so...">
<polygon fill="white" stroke="#666666" points="344.62,-221.88 297.12,-221.88 297.12,-202.62 344.62,-202.62 344.62,-221.88"/>
<text xml:space="preserve" text-anchor="middle" x="320.88" y="-208.38" font-family="Source Sans Pro" font-size="10.00">snopac</text>
</a>
</g>
</g>
<!-- Node12&#45;&gt;Node17 -->
<g id="edge16_Node000012_Node000017" class="edge">
<title>Node12&#45;&gt;Node17</title>
<g id="a_edge16_Node000012_Node000017"><a xlink:title=" ">
<path fill="none" stroke="#63b8ff" d="M462.73,-184.91C429.37,-191.38 375.42,-201.86 344.88,-207.78"/>
<polygon fill="#63b8ff" stroke="#63b8ff" points="463.37,-188.35 472.52,-183.01 462.03,-181.48 463.37,-188.35"/>
</a>
</g>
</g>
<!-- Node14 -->
<g id="Node000014" class="node">
<title>Node14</title>
<g id="a_Node000014"><a xlink:href="group___noah___l_s_m_ga36e98f3ac91f839b816fd167eab30901.html#ga36e98f3ac91f839b816fd167eab30901" target="_top" xlink:title="This is the entity of GFS Noah LSM model of physics subroutines. It is a soil/veg/snowpack land&#45;surfa...">
<polygon fill="white" stroke="#666666" points="227.75,-202.88 160.75,-202.88 160.75,-183.62 227.75,-183.62 227.75,-202.88"/>
<text xml:space="preserve" text-anchor="middle" x="194.25" y="-189.38" font-family="Source Sans Pro" font-size="10.00">sflx::gfssflx</text>
</a>
</g>
</g>
<!-- Node13&#45;&gt;Node14 -->
<g id="edge13_Node000013_Node000014" class="edge">
<title>Node13&#45;&gt;Node14</title>
<g id="a_edge13_Node000013_Node000014"><a xlink:title=" ">
<path fill="none" stroke="#63b8ff" d="M287.99,-179.85C269.62,-182.51 246.58,-185.84 228.05,-188.51"/>
<polygon fill="#63b8ff" stroke="#63b8ff" points="288.4,-183.33 297.8,-178.44 287.4,-176.4 288.4,-183.33"/>
</a>
</g>
</g>
<!-- Node15 -->
<g id="Node000015" class="node">
<title>Node15</title>
<g id="a_Node000015"><a xlink:href="group___noah___l_s_m_ga5d624f72a0da3ffcdf7a01fb9862e0e8.html#ga5d624f72a0da3ffcdf7a01fb9862e0e8" target="_top" xlink:title=" ">
<polygon fill="white" stroke="#666666" points="124.75,-202.88 0,-202.88 0,-183.62 124.75,-183.62 124.75,-202.88"/>
<text xml:space="preserve" text-anchor="middle" x="62.38" y="-189.38" font-family="Source Sans Pro" font-size="10.00">lsm_noah::lsm_noah_run</text>
</a>
</g>
</g>
<!-- Node14&#45;&gt;Node15 -->
<g id="edge14_Node000014_Node000015" class="edge">
<title>Node14&#45;&gt;Node15</title>
<g id="a_edge14_Node000014_Node000015"><a xlink:title=" ">
<path fill="none" stroke="#63b8ff" d="M149.18,-193.25C141.47,-193.25 133.32,-193.25 125.24,-193.25"/>
<polygon fill="#63b8ff" stroke="#63b8ff" points="148.96,-196.75 158.96,-193.25 148.96,-189.75 148.96,-196.75"/>
</a>
</g>
</g>
<!-- Node17&#45;&gt;Node14 -->
<g id="edge17_Node000017_Node000014" class="edge">
<title>Node17&#45;&gt;Node14</title>
<g id="a_edge17_Node000017_Node000014"><a xlink:title=" ">
<path fill="none" stroke="#63b8ff" d="M285.6,-207.02C267.68,-204.29 245.85,-200.96 228.14,-198.26"/>
<polygon fill="#63b8ff" stroke="#63b8ff" points="284.82,-210.45 295.23,-208.49 285.87,-203.53 284.82,-210.45"/>
</a>
</g>
</g>
</g>
</svg>

<g id="navigator" transform="translate(0 0)" fill="#404254">
  <rect fill="#f2f5e9" fill-opacity="0.5" stroke="#606060" stroke-width=".5" x="0" y="0" width="60" height="60"/>
  <use id="zoomplus" xlink:href="#zoomPlus" x="17" y="9" onmousedown="handleZoom(evt,'in')"/>
  <use id="zoomminus" xlink:href="#zoomMin" x="42" y="9" onmousedown="handleZoom(evt,'out')"/>
  <use id="reset" xlink:href="#resetDef" x="30" y="36" onmousedown="handleReset()"/>
   <use id="arrowup" xlink:href="#arrowUp" x="0" y="0" onmousedown="handlePan(0,-1)"/>
  <use id="arrowright" xlink:href="#arrowRight" x="0" y="0" onmousedown="handlePan(1,0)"/>
  <use id="arrowdown" xlink:href="#arrowDown" x="0" y="0" onmousedown="handlePan(0,1)"/>
  <use id="arrowleft" xlink:href="#arrowLeft" x="0" y="0" onmousedown="handlePan(-1,0)"/>
</g>
<svg viewBox="0 0 15 15" width="100%" height="30px" preserveAspectRatio="xMaxYMin meet">
 <g id="arrow_out" transform="scale(0.3 0.3)">
  <a xlink:href="group___noah_m_p___l_s_m_gace27cd3a7b4e23955e39e33bd344baae_gace27cd3a7b4e23955e39e33bd344baae_icgraph_org.svg" target="_base">
   <rect id="button" ry="5" rx="5" y="6" x="6" height="38" width="38"
        fill="#f2f5e9" fill-opacity="0.5" stroke="#606060" stroke-width="1.0"/>
   <path id="arrow"
     d="M 11.500037,31.436501 C 11.940474,20.09759 22.043105,11.32322 32.158766,21.979434 L 37.068811,17.246167 C 37.068811,17.246167 37.088388,32 37.088388,32 L 22.160133,31.978069 C 22.160133,31.978069 26.997745,27.140456 26.997745,27.140456 C 18.528582,18.264221 13.291696,25.230495 11.500037,31.436501 z"
     style="fill:#404040;"/>
  </a>
 </g>
</svg>

<style type='text/css'>
<![CDATA[
[data-mouse-over-selected='false'] { opacity: 0.7; }
[data-mouse-over-selected='true']  { opacity: 1.0; }
]]>
</style>
<script type="application/ecmascript"><![CDATA[
document.addEventListener('DOMContentLoaded', (event) => {
  highlightEdges();
  highlightAdjacentNodes();
});
]]></script>
</svg>
