<?xml version="1.0" encoding="UTF-8" standalone="no"?>
<!DOCTYPE svg PUBLIC "-//W3C//DTD SVG 1.1//EN"
 "http://www.w3.org/Graphics/SVG/1.1/DTD/svg11.dtd">
<!-- Generated by graphviz version 14.1.2 (20260124.0452)
 -->
<!-- Title: module_radiation_clouds::cal_cldfra3 Pages: 1 -->
<svg width="450pt" height="222pt"
 viewBox="0.00 0.00 450.00 222.00" xmlns="http://www.w3.org/2000/svg" xmlns:xlink="http://www.w3.org/1999/xlink">
<g id="graph0" class="graph" transform="scale(1 1) rotate(0) translate(4 217.5)">
<title>module_radiation_clouds::cal_cldfra3</title>
<!-- Node1 -->
<g id="Node000001" class="node">
<title>Node1</title>
<g id="a_Node000001"><a xlink:title="Cloud fraction scheme by G. Thompson (NCAR&#45;RAL), not intended for combining with any cumulus or shall...">
<polygon fill="#999999" stroke="#666666" points="123.25,-130.5 0,-130.5 0,-100 123.25,-100 123.25,-130.5"/>
<text xml:space="preserve" text-anchor="start" x="8" y="-117" font-family="Source Sans Pro" font-size="10.00">module_radiation_clouds</text>
<text xml:space="preserve" text-anchor="middle" x="61.62" y="-105.75" font-family="Source Sans Pro" font-size="10.00">::cal_cldfra3</text>
</a>
</g>
</g>
<!-- Node2 -->
<g id="Node000002" class="node">
<title>Node2</title>
<g id="a_Node000002"><a xlink:href="group__module__radiation__clouds_gab93b09ad19ec692f8efe39d050618efa.html#gab93b09ad19ec692f8efe39d050618efa" target="_top" xlink:title="Do not alter any grid&#45;explicitly resolved hydrometeors, rather only the supposed amounts due to the c...">
<polygon fill="white" stroke="#666666" points="282.5,-213.5 159.25,-213.5 159.25,-183 282.5,-183 282.5,-213.5"/>
<text xml:space="preserve" text-anchor="start" x="167.25" y="-200" font-family="Source Sans Pro" font-size="10.00">module_radiation_clouds</text>
<text xml:space="preserve" text-anchor="middle" x="220.88" y="-188.75" font-family="Source Sans Pro" font-size="10.00">::adjust_cloudfinal</text>
</a>
</g>
</g>
<!-- Node1&#45;&gt;Node2 -->
<g id="edge1_Node000001_Node000002" class="edge">
<title>Node1&#45;&gt;Node2</title>
<g id="a_edge1_Node000001_Node000002"><a xlink:title=" ">
<path fill="none" stroke="#63b8ff" d="M86.28,-130.81C105.51,-143.12 133.55,-160.33 159.25,-173.25 162.45,-174.86 165.79,-176.45 169.17,-178.01"/>
<polygon fill="#63b8ff" stroke="#63b8ff" points="167.44,-181.07 178,-181.93 170.28,-174.67 167.44,-181.07"/>
</a>
</g>
</g>
<!-- Node3 -->
<g id="Node000003" class="node">
<title>Node3</title>
<g id="a_Node000003"><a xlink:href="group__module__radiation__clouds_gaec7e19fe843ee220394496a5b4d2ceb1.html#gaec7e19fe843ee220394496a5b4d2ceb1" target="_top" xlink:title="From cloud fraction array, find clouds of multi&#45;level depth and compute a reasonable value of LWP or ...">
<polygon fill="white" stroke="#666666" points="282.5,-164.5 159.25,-164.5 159.25,-134 282.5,-134 282.5,-164.5"/>
<text xml:space="preserve" text-anchor="start" x="167.25" y="-151" font-family="Source Sans Pro" font-size="10.00">module_radiation_clouds</text>
<text xml:space="preserve" text-anchor="middle" x="220.88" y="-139.75" font-family="Source Sans Pro" font-size="10.00">::find_cloudlayers</text>
</a>
</g>
</g>
<!-- Node1&#45;&gt;Node3 -->
<g id="edge2_Node000001_Node000003" class="edge">
<title>Node1&#45;&gt;Node3</title>
<g id="a_edge2_Node000001_Node000003"><a xlink:title=" ">
<path fill="none" stroke="#63b8ff" d="M123.42,-128.4C131.44,-130.13 139.73,-131.92 147.91,-133.69"/>
<polygon fill="#63b8ff" stroke="#63b8ff" points="146.99,-137.07 157.5,-135.76 148.47,-130.23 146.99,-137.07"/>
</a>
</g>
</g>
<!-- Node6 -->
<g id="Node000006" class="node">
<title>Node6</title>
<g id="a_Node000006"><a xlink:href="group__aathompson_ga878bec15133532309ba3036cd2739510.html#ga878bec15133532309ba3036cd2739510" target="_top" xlink:title="THIS FUNCTION CALCULATES THE ICE SATURATION VAPOR MIXING RATIO AS A FUNCTION OF TEMPERATURE AND PRESS...">
<polygon fill="white" stroke="#666666" points="278,-97.5 163.75,-97.5 163.75,-67 278,-67 278,-97.5"/>
<text xml:space="preserve" text-anchor="start" x="171.75" y="-84" font-family="Source Sans Pro" font-size="10.00">module_mp_thompson</text>
<text xml:space="preserve" text-anchor="middle" x="220.88" y="-72.75" font-family="Source Sans Pro" font-size="10.00">::rsif</text>
</a>
</g>
</g>
<!-- Node1&#45;&gt;Node6 -->
<g id="edge5_Node000001_Node000006" class="edge">
<title>Node1&#45;&gt;Node6</title>
<g id="a_edge5_Node000001_Node000006"><a xlink:title=" ">
<path fill="none" stroke="#63b8ff" d="M123.42,-102.49C132.86,-100.51 142.67,-98.45 152.25,-96.44"/>
<polygon fill="#63b8ff" stroke="#63b8ff" points="152.81,-99.9 161.88,-94.42 151.37,-93.05 152.81,-99.9"/>
</a>
</g>
</g>
<!-- Node7 -->
<g id="Node000007" class="node">
<title>Node7</title>
<g id="a_Node000007"><a xlink:href="group__aathompson_ga9617073eff52abf98dd295c8cd83ef24.html#ga9617073eff52abf98dd295c8cd83ef24" target="_top" xlink:title="THIS FUNCTION CALCULATES THE LIQUID SATURATION VAPOR MIXING RATIO AS A FUNCTION OF TEMPERATURE AND PR...">
<polygon fill="white" stroke="#666666" points="278,-30.5 163.75,-30.5 163.75,0 278,0 278,-30.5"/>
<text xml:space="preserve" text-anchor="start" x="171.75" y="-17" font-family="Source Sans Pro" font-size="10.00">module_mp_thompson</text>
<text xml:space="preserve" text-anchor="middle" x="220.88" y="-5.75" font-family="Source Sans Pro" font-size="10.00">::rslf</text>
</a>
</g>
</g>
<!-- Node1&#45;&gt;Node7 -->
<g id="edge7_Node000001_Node000007" class="edge">
<title>Node1&#45;&gt;Node7</title>
<g id="a_edge7_Node000001_Node000007"><a xlink:title=" ">
<path fill="none" stroke="#63b8ff" d="M87.2,-99.62C113.66,-82.8 155.96,-55.9 185.67,-37"/>
<polygon fill="#63b8ff" stroke="#63b8ff" points="187.38,-40.06 193.94,-31.74 183.62,-34.15 187.38,-40.06"/>
</a>
</g>
</g>
<!-- Node4 -->
<g id="Node000004" class="node">
<title>Node4</title>
<g id="a_Node000004"><a xlink:href="group__module__radiation__clouds_ga8f57a217926f989ce3137a0011976f91.html#ga8f57a217926f989ce3137a0011976f91" target="_top" xlink:title=" ">
<polygon fill="white" stroke="#666666" points="441.75,-188.5 318.5,-188.5 318.5,-158 441.75,-158 441.75,-188.5"/>
<text xml:space="preserve" text-anchor="start" x="326.5" y="-175" font-family="Source Sans Pro" font-size="10.00">module_radiation_clouds</text>
<text xml:space="preserve" text-anchor="middle" x="380.12" y="-163.75" font-family="Source Sans Pro" font-size="10.00">::adjust_cloudh2o</text>
</a>
</g>
</g>
<!-- Node3&#45;&gt;Node4 -->
<g id="edge3_Node000003_Node000004" class="edge">
<title>Node3&#45;&gt;Node4</title>
<g id="a_edge3_Node000003_Node000004"><a xlink:title=" ">
<path fill="none" stroke="#63b8ff" d="M282.67,-158.53C290.6,-159.74 298.79,-160.99 306.88,-162.22"/>
<polygon fill="#63b8ff" stroke="#63b8ff" points="306.32,-165.68 316.73,-163.73 307.38,-158.76 306.32,-165.68"/>
</a>
</g>
</g>
<!-- Node5 -->
<g id="Node000005" class="node">
<title>Node5</title>
<g id="a_Node000005"><a xlink:href="group__module__radiation__clouds_ga4e4b598c8fc3fa1252be8d3b149ac5f0.html#ga4e4b598c8fc3fa1252be8d3b149ac5f0" target="_top" xlink:title=" ">
<polygon fill="white" stroke="#666666" points="441.75,-139.5 318.5,-139.5 318.5,-109 441.75,-109 441.75,-139.5"/>
<text xml:space="preserve" text-anchor="start" x="326.5" y="-126" font-family="Source Sans Pro" font-size="10.00">module_radiation_clouds</text>
<text xml:space="preserve" text-anchor="middle" x="380.12" y="-114.75" font-family="Source Sans Pro" font-size="10.00">::adjust_cloudice</text>
</a>
</g>
</g>
<!-- Node3&#45;&gt;Node5 -->
<g id="edge4_Node000003_Node000005" class="edge">
<title>Node3&#45;&gt;Node5</title>
<g id="a_edge4_Node000003_Node000005"><a xlink:title=" ">
<path fill="none" stroke="#63b8ff" d="M282.67,-139.58C290.6,-138.32 298.79,-137.02 306.88,-135.74"/>
<polygon fill="#63b8ff" stroke="#63b8ff" points="307.41,-139.2 316.74,-134.17 306.31,-132.28 307.41,-139.2"/>
</a>
</g>
</g>
<!-- Node6&#45;&gt;Node6 -->
<g id="edge6_Node000006_Node000006" class="edge">
<title>Node6&#45;&gt;Node6</title>
<g id="a_edge6_Node000006_Node000006"><a xlink:title=" ">
<path fill="none" stroke="#63b8ff" d="M192.66,-97.99C186.9,-107.06 196.3,-115.5 220.88,-115.5 234.31,-115.5 243.21,-112.97 247.58,-109.2"/>
<polygon fill="#63b8ff" stroke="#63b8ff" points="251.02,-109.86 248.89,-99.49 244.09,-108.93 251.02,-109.86"/>
</a>
</g>
</g>
<!-- Node7&#45;&gt;Node7 -->
<g id="edge8_Node000007_Node000007" class="edge">
<title>Node7&#45;&gt;Node7</title>
<g id="a_edge8_Node000007_Node000007"><a xlink:title=" ">
<path fill="none" stroke="#63b8ff" d="M192.66,-30.99C186.9,-40.06 196.3,-48.5 220.88,-48.5 234.31,-48.5 243.21,-45.97 247.58,-42.2"/>
<polygon fill="#63b8ff" stroke="#63b8ff" points="251.02,-42.86 248.89,-32.49 244.09,-41.93 251.02,-42.86"/>
</a>
</g>
</g>
</g>
</svg>
