<?xml version="1.0" encoding="UTF-8" standalone="no"?>
<!DOCTYPE svg PUBLIC "-//W3C//DTD SVG 1.1//EN"
 "http://www.w3.org/Graphics/SVG/1.1/DTD/svg11.dtd">
<!-- Generated by graphviz version 14.1.2 (20260124.0452)
 -->
<!-- Title: gfdl_cloud_microphys_mod::lagrangian_fall_ppm Pages: 1 -->
<svg width="433pt" height="39pt"
 viewBox="0.00 0.00 433.00 39.00" xmlns="http://www.w3.org/2000/svg" xmlns:xlink="http://www.w3.org/1999/xlink">
<g id="graph0" class="graph" transform="scale(1 1) rotate(0) translate(4 34.5)">
<title>gfdl_cloud_microphys_mod::lagrangian_fall_ppm</title>
<!-- Node1 -->
<g id="Node000001" class="node">
<title>Node1</title>
<g id="a_Node000001"><a xlink:title="Lagrangian scheme.">
<polygon fill="#999999" stroke="#666666" points="132.25,-30.5 0,-30.5 0,0 132.25,0 132.25,-30.5"/>
<text xml:space="preserve" text-anchor="start" x="8" y="-17" font-family="Source Sans Pro" font-size="10.00">gfdl_cloud_microphys</text>
<text xml:space="preserve" text-anchor="middle" x="66.12" y="-5.75" font-family="Source Sans Pro" font-size="10.00">_mod::lagrangian_fall_ppm</text>
</a>
</g>
</g>
<!-- Node2 -->
<g id="Node000002" class="node">
<title>Node2</title>
<g id="a_Node000002"><a xlink:href="group__mod__gfdl__cloud__mp_gaeaa05a4c1310e5a546cadd40f1c66c42.html#gaeaa05a4c1310e5a546cadd40f1c66c42" target="_top" xlink:title=" ">
<polygon fill="white" stroke="#666666" points="278.75,-30.5 168.25,-30.5 168.25,0 278.75,0 278.75,-30.5"/>
<text xml:space="preserve" text-anchor="start" x="176.25" y="-17" font-family="Source Sans Pro" font-size="10.00">gfdl_cloud_microphys</text>
<text xml:space="preserve" text-anchor="middle" x="223.5" y="-5.75" font-family="Source Sans Pro" font-size="10.00">_mod::cs_profile</text>
</a>
</g>
</g>
<!-- Node1&#45;&gt;Node2 -->
<g id="edge1_Node000001_Node000002" class="edge">
<title>Node1&#45;&gt;Node2</title>
<g id="a_edge1_Node000001_Node000002"><a xlink:title=" ">
<path fill="none" stroke="#63b8ff" d="M132.57,-15.25C140.48,-15.25 148.57,-15.25 156.49,-15.25"/>
<polygon fill="#63b8ff" stroke="#63b8ff" points="156.42,-18.75 166.42,-15.25 156.42,-11.75 156.42,-18.75"/>
</a>
</g>
</g>
<!-- Node3 -->
<g id="Node000003" class="node">
<title>Node3</title>
<g id="a_Node000003"><a xlink:href="group__mod__gfdl__cloud__mp_ga4551eade22b554cea965dc3efbe63ce4.html#ga4551eade22b554cea965dc3efbe63ce4" target="_top" xlink:title="This subroutine perform positive definite constraint.">
<polygon fill="white" stroke="#666666" points="425.25,-30.5 314.75,-30.5 314.75,0 425.25,0 425.25,-30.5"/>
<text xml:space="preserve" text-anchor="start" x="322.75" y="-17" font-family="Source Sans Pro" font-size="10.00">gfdl_cloud_microphys</text>
<text xml:space="preserve" text-anchor="middle" x="370" y="-5.75" font-family="Source Sans Pro" font-size="10.00">_mod::cs_limiters</text>
</a>
</g>
</g>
<!-- Node2&#45;&gt;Node3 -->
<g id="edge2_Node000002_Node000003" class="edge">
<title>Node2&#45;&gt;Node3</title>
<g id="a_edge2_Node000002_Node000003"><a xlink:title=" ">
<path fill="none" stroke="#63b8ff" d="M279.13,-15.25C286.86,-15.25 294.88,-15.25 302.8,-15.25"/>
<polygon fill="#63b8ff" stroke="#63b8ff" points="302.78,-18.75 312.78,-15.25 302.78,-11.75 302.78,-18.75"/>
</a>
</g>
</g>
</g>
</svg>
