<?xml version="1.0" encoding="UTF-8" standalone="no"?>
<!DOCTYPE svg PUBLIC "-//W3C//DTD SVG 1.1//EN"
 "http://www.w3.org/Graphics/SVG/1.1/DTD/svg11.dtd">
<!-- Generated by graphviz version 14.1.2 (20260124.0452)
 -->
<!-- Title: gfdl_cloud_microphys_mod::cs_limiters Pages: 1 -->
<!--zoomable 88 -->

<svg id="main" version="1.1" xmlns="http://www.w3.org/2000/svg" xmlns:xlink="http://www.w3.org/1999/xlink" xml:space="preserve" onload="init(evt)">

<style type="text/css"><![CDATA[
.node, .edge {opacity: 0.7;}
.node.selected, .edge.selected {opacity: 1;}
.edge:hover path { stroke: red; }
.edge:hover polygon { stroke: red; fill: red; }
]]></style>

<defs>
  <circle id="rim" cx="0" cy="0" r="7"/>
  <circle id="rim2" cx="0" cy="0" r="3.5"/>
  <g id="zoomPlus">
    <use xlink:href="#rim" fill="#404040"><set attributeName="fill" to="#808080" begin="zoomplus.mouseover" end="zoomplus.mouseout"/></use>
    <path d="M-4,0h8M0,-4v8" fill="none" stroke="white" stroke-width="1.5" pointer-events="none"/>
  </g>
  <g id="zoomMin">
    <use xlink:href="#rim" fill="#404040"><set attributeName="fill" to="#808080" begin="zoomminus.mouseover" end="zoomminus.mouseout"/></use>
    <path d="M-4,0h8" fill="none" stroke="white" stroke-width="1.5" pointer-events="none"/>
  </g>
  <g id="arrowUp" transform="translate(30 24)">
    <use xlink:href="#rim"/>
    <path pointer-events="none" fill="none" stroke="white" stroke-width="1.5" d="M0,-3.0v7 M-2.5,-0.5L0,-3.0L2.5,-0.5"/>
  </g>
  <g id="arrowRight" transform="rotate(90) translate(36 -43)">
    <use xlink:href="#rim"/>
    <path pointer-events="none" fill="none" stroke="white" stroke-width="1.5" d="M0,-3.0v7 M-2.5,-0.5L0,-3.0L2.5,-0.5"/>
  </g>
  <g id="arrowDown" transform="rotate(180) translate(-30 -48)">
    <use xlink:href="#rim"/>
    <path pointer-events="none" fill="none" stroke="white" stroke-width="1.5" d="M0,-3.0v7 M-2.5,-0.5L0,-3.0L2.5,-0.5"/>
  </g>
  <g id="arrowLeft" transform="rotate(270) translate(-36 17)">
    <use xlink:href="#rim"/>
    <path pointer-events="none" fill="none" stroke="white" stroke-width="1.5" d="M0,-3.0v7 M-2.5,-0.5L0,-3.0L2.5,-0.5"/>
  </g>
  <g id="resetDef">
    <use xlink:href="#rim2" fill="#404040"><set attributeName="fill" to="#808080" begin="reset.mouseover" end="reset.mouseout"/></use>
  </g>
</defs>
<script type="application/ecmascript">
var viewWidth = 1074;
var viewHeight = 88;
var sectionId = 'dynsection-0';
</script>
<script type="application/ecmascript" xlink:href="svg.min.js"/>
<svg id="graph" class="graph">
<g id="viewport">
<title>gfdl_cloud_microphys_mod::cs_limiters</title>
<!-- Node1 -->
<g id="Node000001" class="node">
<title>Node1</title>
<g id="a_Node000001"><a xlink:title="This subroutine perform positive definite constraint.">
<polygon fill="#999999" stroke="#666666" points="1066,-54.5 955.5,-54.5 955.5,-24 1066,-24 1066,-54.5"/>
<text xml:space="preserve" text-anchor="start" x="963.5" y="-41" font-family="Source Sans Pro" font-size="10.00">gfdl_cloud_microphys</text>
<text xml:space="preserve" text-anchor="middle" x="1010.75" y="-29.75" font-family="Source Sans Pro" font-size="10.00">_mod::cs_limiters</text>
</a>
</g>
</g>
<!-- Node2 -->
<g id="Node000002" class="node">
<title>Node2</title>
<g id="a_Node000002"><a xlink:href="group__mod__gfdl__cloud__mp_gaeaa05a4c1310e5a546cadd40f1c66c42.html#gaeaa05a4c1310e5a546cadd40f1c66c42" target="_top" xlink:title=" ">
<polygon fill="white" stroke="#666666" points="919.5,-54.5 809,-54.5 809,-24 919.5,-24 919.5,-54.5"/>
<text xml:space="preserve" text-anchor="start" x="817" y="-41" font-family="Source Sans Pro" font-size="10.00">gfdl_cloud_microphys</text>
<text xml:space="preserve" text-anchor="middle" x="864.25" y="-29.75" font-family="Source Sans Pro" font-size="10.00">_mod::cs_profile</text>
</a>
</g>
</g>
<!-- Node1&#45;&gt;Node2 -->
<g id="edge1_Node000001_Node000002" class="edge">
<title>Node1&#45;&gt;Node2</title>
<g id="a_edge1_Node000001_Node000002"><a xlink:title=" ">
<path fill="none" stroke="#63b8ff" d="M943.63,-39.25C935.71,-39.25 927.69,-39.25 919.96,-39.25"/>
<polygon fill="#63b8ff" stroke="#63b8ff" points="943.61,-42.75 953.61,-39.25 943.61,-35.75 943.61,-42.75"/>
</a>
</g>
</g>
<!-- Node3 -->
<g id="Node000003" class="node">
<title>Node3</title>
<g id="a_Node000003"><a xlink:href="group__mod__gfdl__cloud__mp_gabfcb03d4ab831c5f0a879b75b2cf4e01.html#gabfcb03d4ab831c5f0a879b75b2cf4e01" target="_top" xlink:title="Lagrangian scheme.">
<polygon fill="white" stroke="#666666" points="773,-54.5 640.75,-54.5 640.75,-24 773,-24 773,-54.5"/>
<text xml:space="preserve" text-anchor="start" x="648.75" y="-41" font-family="Source Sans Pro" font-size="10.00">gfdl_cloud_microphys</text>
<text xml:space="preserve" text-anchor="middle" x="706.88" y="-29.75" font-family="Source Sans Pro" font-size="10.00">_mod::lagrangian_fall_ppm</text>
</a>
</g>
</g>
<!-- Node2&#45;&gt;Node3 -->
<g id="edge2_Node000002_Node000003" class="edge">
<title>Node2&#45;&gt;Node3</title>
<g id="a_edge2_Node000002_Node000003"><a xlink:title=" ">
<path fill="none" stroke="#63b8ff" d="M797.42,-39.25C789.47,-39.25 781.35,-39.25 773.41,-39.25"/>
<polygon fill="#63b8ff" stroke="#63b8ff" points="797.39,-42.75 807.39,-39.25 797.39,-35.75 797.39,-42.75"/>
</a>
</g>
</g>
<!-- Node4 -->
<g id="Node000004" class="node">
<title>Node4</title>
<g id="a_Node000004"><a xlink:href="group__mod__gfdl__cloud__mp_ga79e5f6ea8f5040ab16033081b9a64cb7.html#ga79e5f6ea8f5040ab16033081b9a64cb7" target="_top" xlink:title="The subroutine &#39;terminal_fall&#39; computes terminal fall speed.">
<polygon fill="white" stroke="#666666" points="604.75,-79.5 494.25,-79.5 494.25,-49 604.75,-49 604.75,-79.5"/>
<text xml:space="preserve" text-anchor="start" x="502.25" y="-66" font-family="Source Sans Pro" font-size="10.00">gfdl_cloud_microphys</text>
<text xml:space="preserve" text-anchor="middle" x="549.5" y="-54.75" font-family="Source Sans Pro" font-size="10.00">_mod::terminal_fall</text>
</a>
</g>
</g>
<!-- Node3&#45;&gt;Node4 -->
<g id="edge3_Node000003_Node000004" class="edge">
<title>Node3&#45;&gt;Node4</title>
<g id="a_edge3_Node000003_Node000004"><a xlink:title=" ">
<path fill="none" stroke="#63b8ff" d="M629.31,-51.57C621.13,-52.89 612.92,-54.21 605.07,-55.47"/>
<polygon fill="#63b8ff" stroke="#63b8ff" points="629.62,-55.06 638.94,-50.02 628.51,-48.15 629.62,-55.06"/>
</a>
</g>
</g>
<!-- Node8 -->
<g id="Node000008" class="node">
<title>Node8</title>
<g id="a_Node000008"><a xlink:href="group__mod__gfdl__cloud__mp_gacc8783950135d8875dbfe23ef5013c76.html#gacc8783950135d8875dbfe23ef5013c76" target="_top" xlink:title="This subroutine includes warm rain cloud microphysics.">
<polygon fill="white" stroke="#666666" points="604.75,-30.5 494.25,-30.5 494.25,0 604.75,0 604.75,-30.5"/>
<text xml:space="preserve" text-anchor="start" x="502.25" y="-17" font-family="Source Sans Pro" font-size="10.00">gfdl_cloud_microphys</text>
<text xml:space="preserve" text-anchor="middle" x="549.5" y="-5.75" font-family="Source Sans Pro" font-size="10.00">_mod::warm_rain</text>
</a>
</g>
</g>
<!-- Node3&#45;&gt;Node8 -->
<g id="edge7_Node000003_Node000008" class="edge">
<title>Node3&#45;&gt;Node8</title>
<g id="a_edge7_Node000003_Node000008"><a xlink:title=" ">
<path fill="none" stroke="#63b8ff" d="M629.31,-27.42C621.13,-26.16 612.92,-24.89 605.07,-23.68"/>
<polygon fill="#63b8ff" stroke="#63b8ff" points="628.52,-30.84 638.94,-28.91 629.59,-23.92 628.52,-30.84"/>
</a>
</g>
</g>
<!-- Node5 -->
<g id="Node000005" class="node">
<title>Node5</title>
<g id="a_Node000005"><a xlink:href="group__mod__gfdl__cloud__mp_ga9a157f35f4472577a555978027d97c65.html#ga9a157f35f4472577a555978027d97c65" target="_top" xlink:title="GFDL cloud microphysics, major program, and is based on Lin et al.(1983) lin_et_al_1983 and Rutledge ...">
<polygon fill="white" stroke="#666666" points="458.25,-54.5 347.75,-54.5 347.75,-24 458.25,-24 458.25,-54.5"/>
<text xml:space="preserve" text-anchor="start" x="355.75" y="-41" font-family="Source Sans Pro" font-size="10.00">gfdl_cloud_microphys</text>
<text xml:space="preserve" text-anchor="middle" x="403" y="-29.75" font-family="Source Sans Pro" font-size="10.00">_mod::mpdrv</text>
</a>
</g>
</g>
<!-- Node4&#45;&gt;Node5 -->
<g id="edge4_Node000004_Node000005" class="edge">
<title>Node4&#45;&gt;Node5</title>
<g id="a_edge4_Node000004_Node000005"><a xlink:title=" ">
<path fill="none" stroke="#63b8ff" d="M482.66,-52.86C474.65,-51.47 466.53,-50.07 458.71,-48.71"/>
<polygon fill="#63b8ff" stroke="#63b8ff" points="481.93,-56.28 492.38,-54.54 483.12,-49.39 481.93,-56.28"/>
</a>
</g>
</g>
<!-- Node6 -->
<g id="Node000006" class="node">
<title>Node6</title>
<g id="a_Node000006"><a xlink:href="group__mod__gfdl__cloud__mp_gab96ce7bbe8889ca0845652ef6df3ea14.html#gab96ce7bbe8889ca0845652ef6df3ea14" target="_top" xlink:title="This subroutine is the driver of the GFDL cloud microphysics.">
<polygon fill="white" stroke="#666666" points="311.75,-60.12 171.25,-60.12 171.25,-18.38 311.75,-18.38 311.75,-60.12"/>
<text xml:space="preserve" text-anchor="start" x="179.25" y="-46.62" font-family="Source Sans Pro" font-size="10.00">gfdl_cloud_microphys</text>
<text xml:space="preserve" text-anchor="start" x="179.25" y="-35.38" font-family="Source Sans Pro" font-size="10.00">_mod::gfdl_cloud_microphys</text>
<text xml:space="preserve" text-anchor="middle" x="241.5" y="-24.12" font-family="Source Sans Pro" font-size="10.00">_mod_driver</text>
</a>
</g>
</g>
<!-- Node5&#45;&gt;Node6 -->
<g id="edge5_Node000005_Node000006" class="edge">
<title>Node5&#45;&gt;Node6</title>
<g id="a_edge5_Node000005_Node000006"><a xlink:title=" ">
<path fill="none" stroke="#63b8ff" d="M336.15,-39.25C328.25,-39.25 320.16,-39.25 312.21,-39.25"/>
<polygon fill="#63b8ff" stroke="#63b8ff" points="336.04,-42.75 346.04,-39.25 336.04,-35.75 336.04,-42.75"/>
</a>
</g>
</g>
<!-- Node7 -->
<g id="Node000007" class="node">
<title>Node7</title>
<g id="a_Node000007"><a xlink:href="namespacegfdl__cloud__microphys_a57379a8f2ca712404e049dc5438ca6ac.html#a57379a8f2ca712404e049dc5438ca6ac" target="_top" xlink:title=" ">
<polygon fill="white" stroke="#666666" points="135.25,-54.5 0,-54.5 0,-24 135.25,-24 135.25,-54.5"/>
<text xml:space="preserve" text-anchor="start" x="8" y="-41" font-family="Source Sans Pro" font-size="10.00">gfdl_cloud_microphys</text>
<text xml:space="preserve" text-anchor="middle" x="67.62" y="-29.75" font-family="Source Sans Pro" font-size="10.00">::gfdl_cloud_microphys_run</text>
</a>
</g>
</g>
<!-- Node6&#45;&gt;Node7 -->
<g id="edge6_Node000006_Node000007" class="edge">
<title>Node6&#45;&gt;Node7</title>
<g id="a_edge6_Node000006_Node000007"><a xlink:title=" ">
<path fill="none" stroke="#63b8ff" d="M159.71,-39.25C151.6,-39.25 143.44,-39.25 135.51,-39.25"/>
<polygon fill="#63b8ff" stroke="#63b8ff" points="159.57,-42.75 169.57,-39.25 159.57,-35.75 159.57,-42.75"/>
</a>
</g>
</g>
<!-- Node8&#45;&gt;Node5 -->
<g id="edge8_Node000008_Node000005" class="edge">
<title>Node8&#45;&gt;Node5</title>
<g id="a_edge8_Node000008_Node000005"><a xlink:title=" ">
<path fill="none" stroke="#63b8ff" d="M482.66,-26.19C474.65,-27.52 466.53,-28.86 458.71,-30.16"/>
<polygon fill="#63b8ff" stroke="#63b8ff" points="483.09,-29.66 492.38,-24.57 481.94,-22.76 483.09,-29.66"/>
</a>
</g>
</g>
</g>
</svg>

<g id="navigator" transform="translate(0 0)" fill="#404254">
  <rect fill="#f2f5e9" fill-opacity="0.5" stroke="#606060" stroke-width=".5" x="0" y="0" width="60" height="60"/>
  <use id="zoomplus" xlink:href="#zoomPlus" x="17" y="9" onmousedown="handleZoom(evt,'in')"/>
  <use id="zoomminus" xlink:href="#zoomMin" x="42" y="9" onmousedown="handleZoom(evt,'out')"/>
  <use id="reset" xlink:href="#resetDef" x="30" y="36" onmousedown="handleReset()"/>
   <use id="arrowup" xlink:href="#arrowUp" x="0" y="0" onmousedown="handlePan(0,-1)"/>
  <use id="arrowright" xlink:href="#arrowRight" x="0" y="0" onmousedown="handlePan(1,0)"/>
  <use id="arrowdown" xlink:href="#arrowDown" x="0" y="0" onmousedown="handlePan(0,1)"/>
  <use id="arrowleft" xlink:href="#arrowLeft" x="0" y="0" onmousedown="handlePan(-1,0)"/>
</g>
<svg viewBox="0 0 15 15" width="100%" height="30px" preserveAspectRatio="xMaxYMin meet">
 <g id="arrow_out" transform="scale(0.3 0.3)">
  <a xlink:href="group__mod__gfdl__cloud__mp_ga4551eade22b554cea965dc3efbe63ce4_ga4551eade22b554cea965dc3efbe63ce4_icgraph_org.svg" target="_base">
   <rect id="button" ry="5" rx="5" y="6" x="6" height="38" width="38"
        fill="#f2f5e9" fill-opacity="0.5" stroke="#606060" stroke-width="1.0"/>
   <path id="arrow"
     d="M 11.500037,31.436501 C 11.940474,20.09759 22.043105,11.32322 32.158766,21.979434 L 37.068811,17.246167 C 37.068811,17.246167 37.088388,32 37.088388,32 L 22.160133,31.978069 C 22.160133,31.978069 26.997745,27.140456 26.997745,27.140456 C 18.528582,18.264221 13.291696,25.230495 11.500037,31.436501 z"
     style="fill:#404040;"/>
  </a>
 </g>
</svg>

<style type='text/css'>
<![CDATA[
[data-mouse-over-selected='false'] { opacity: 0.7; }
[data-mouse-over-selected='true']  { opacity: 1.0; }
]]>
</style>
<script type="application/ecmascript"><![CDATA[
document.addEventListener('DOMContentLoaded', (event) => {
  highlightEdges();
  highlightAdjacentNodes();
});
]]></script>
</svg>
