<?xml version="1.0" encoding="UTF-8" standalone="no"?>
<!DOCTYPE svg PUBLIC "-//W3C//DTD SVG 1.1//EN"
 "http://www.w3.org/Graphics/SVG/1.1/DTD/svg11.dtd">
<!-- Generated by graphviz version 14.1.2 (20260124.0452)
 -->
<!-- Title: gfdl_cloud_microphys_mod::terminal_fall Pages: 1 -->
<svg width="580pt" height="137pt"
 viewBox="0.00 0.00 580.00 137.00" xmlns="http://www.w3.org/2000/svg" xmlns:xlink="http://www.w3.org/1999/xlink">
<g id="graph0" class="graph" transform="scale(1 1) rotate(0) translate(4 132.5)">
<title>gfdl_cloud_microphys_mod::terminal_fall</title>
<!-- Node1 -->
<g id="Node000001" class="node">
<title>Node1</title>
<g id="a_Node000001"><a xlink:title="The subroutine &#39;terminal_fall&#39; computes terminal fall speed.">
<polygon fill="#999999" stroke="#666666" points="110.5,-79.5 0,-79.5 0,-49 110.5,-49 110.5,-79.5"/>
<text xml:space="preserve" text-anchor="start" x="8" y="-66" font-family="Source Sans Pro" font-size="10.00">gfdl_cloud_microphys</text>
<text xml:space="preserve" text-anchor="middle" x="55.25" y="-54.75" font-family="Source Sans Pro" font-size="10.00">_mod::terminal_fall</text>
</a>
</g>
</g>
<!-- Node2 -->
<g id="Node000002" class="node">
<title>Node2</title>
<g id="a_Node000002"><a xlink:href="group__mod__gfdl__cloud__mp_ga6888d7e95c34f76ecd432293eea9723f.html#ga6888d7e95c34f76ecd432293eea9723f" target="_top" xlink:title="The subroutine &#39;check_column&#39; checks if the water species is large enough to fall.">
<polygon fill="white" stroke="#666666" points="267.88,-128.5 157.38,-128.5 157.38,-98 267.88,-98 267.88,-128.5"/>
<text xml:space="preserve" text-anchor="start" x="165.38" y="-115" font-family="Source Sans Pro" font-size="10.00">gfdl_cloud_microphys</text>
<text xml:space="preserve" text-anchor="middle" x="212.62" y="-103.75" font-family="Source Sans Pro" font-size="10.00">_mod::check_column</text>
</a>
</g>
</g>
<!-- Node1&#45;&gt;Node2 -->
<g id="edge1_Node000001_Node000002" class="edge">
<title>Node1&#45;&gt;Node2</title>
<g id="a_edge1_Node000001_Node000002"><a xlink:title=" ">
<path fill="none" stroke="#63b8ff" d="M105.84,-79.89C120.2,-84.42 136.05,-89.42 151.01,-94.13"/>
<polygon fill="#63b8ff" stroke="#63b8ff" points="149.67,-97.38 160.26,-97.05 151.78,-90.71 149.67,-97.38"/>
</a>
</g>
</g>
<!-- Node3 -->
<g id="Node000003" class="node">
<title>Node3</title>
<g id="a_Node000003"><a xlink:href="group__mod__gfdl__cloud__mp_ga2f6f4139188eb18db6c84ac21f19f07b.html#ga2f6f4139188eb18db6c84ac21f19f07b" target="_top" xlink:title="The subroutine computes the time&#45;implicit monotonic fall scheme.">
<polygon fill="white" stroke="#666666" points="267.88,-79.5 157.38,-79.5 157.38,-49 267.88,-49 267.88,-79.5"/>
<text xml:space="preserve" text-anchor="start" x="165.38" y="-66" font-family="Source Sans Pro" font-size="10.00">gfdl_cloud_microphys</text>
<text xml:space="preserve" text-anchor="middle" x="212.62" y="-54.75" font-family="Source Sans Pro" font-size="10.00">_mod::implicit_fall</text>
</a>
</g>
</g>
<!-- Node1&#45;&gt;Node3 -->
<g id="edge2_Node000001_Node000003" class="edge">
<title>Node1&#45;&gt;Node3</title>
<g id="a_edge2_Node000001_Node000003"><a xlink:title=" ">
<path fill="none" stroke="#63b8ff" d="M110.59,-64.25C121.88,-64.25 133.9,-64.25 145.55,-64.25"/>
<polygon fill="#63b8ff" stroke="#63b8ff" points="145.54,-67.75 155.54,-64.25 145.54,-60.75 145.54,-67.75"/>
</a>
</g>
</g>
<!-- Node4 -->
<g id="Node000004" class="node">
<title>Node4</title>
<g id="a_Node000004"><a xlink:href="group__mod__gfdl__cloud__mp_gabfcb03d4ab831c5f0a879b75b2cf4e01.html#gabfcb03d4ab831c5f0a879b75b2cf4e01" target="_top" xlink:title="Lagrangian scheme.">
<polygon fill="white" stroke="#666666" points="278.75,-30.5 146.5,-30.5 146.5,0 278.75,0 278.75,-30.5"/>
<text xml:space="preserve" text-anchor="start" x="154.5" y="-17" font-family="Source Sans Pro" font-size="10.00">gfdl_cloud_microphys</text>
<text xml:space="preserve" text-anchor="middle" x="212.62" y="-5.75" font-family="Source Sans Pro" font-size="10.00">_mod::lagrangian_fall_ppm</text>
</a>
</g>
</g>
<!-- Node1&#45;&gt;Node4 -->
<g id="edge3_Node000001_Node000004" class="edge">
<title>Node1&#45;&gt;Node4</title>
<g id="a_edge3_Node000001_Node000004"><a xlink:title=" ">
<path fill="none" stroke="#63b8ff" d="M105.84,-48.61C120.2,-44.08 136.05,-39.08 151.01,-34.37"/>
<polygon fill="#63b8ff" stroke="#63b8ff" points="151.78,-37.79 160.26,-31.45 149.67,-31.12 151.78,-37.79"/>
</a>
</g>
</g>
<!-- Node5 -->
<g id="Node000005" class="node">
<title>Node5</title>
<g id="a_Node000005"><a xlink:href="group__mod__gfdl__cloud__mp_gaeaa05a4c1310e5a546cadd40f1c66c42.html#gaeaa05a4c1310e5a546cadd40f1c66c42" target="_top" xlink:title=" ">
<polygon fill="white" stroke="#666666" points="425.25,-30.5 314.75,-30.5 314.75,0 425.25,0 425.25,-30.5"/>
<text xml:space="preserve" text-anchor="start" x="322.75" y="-17" font-family="Source Sans Pro" font-size="10.00">gfdl_cloud_microphys</text>
<text xml:space="preserve" text-anchor="middle" x="370" y="-5.75" font-family="Source Sans Pro" font-size="10.00">_mod::cs_profile</text>
</a>
</g>
</g>
<!-- Node4&#45;&gt;Node5 -->
<g id="edge4_Node000004_Node000005" class="edge">
<title>Node4&#45;&gt;Node5</title>
<g id="a_edge4_Node000004_Node000005"><a xlink:title=" ">
<path fill="none" stroke="#63b8ff" d="M279.07,-15.25C286.98,-15.25 295.07,-15.25 302.99,-15.25"/>
<polygon fill="#63b8ff" stroke="#63b8ff" points="302.92,-18.75 312.92,-15.25 302.92,-11.75 302.92,-18.75"/>
</a>
</g>
</g>
<!-- Node6 -->
<g id="Node000006" class="node">
<title>Node6</title>
<g id="a_Node000006"><a xlink:href="group__mod__gfdl__cloud__mp_ga4551eade22b554cea965dc3efbe63ce4.html#ga4551eade22b554cea965dc3efbe63ce4" target="_top" xlink:title="This subroutine perform positive definite constraint.">
<polygon fill="white" stroke="#666666" points="571.75,-30.5 461.25,-30.5 461.25,0 571.75,0 571.75,-30.5"/>
<text xml:space="preserve" text-anchor="start" x="469.25" y="-17" font-family="Source Sans Pro" font-size="10.00">gfdl_cloud_microphys</text>
<text xml:space="preserve" text-anchor="middle" x="516.5" y="-5.75" font-family="Source Sans Pro" font-size="10.00">_mod::cs_limiters</text>
</a>
</g>
</g>
<!-- Node5&#45;&gt;Node6 -->
<g id="edge5_Node000005_Node000006" class="edge">
<title>Node5&#45;&gt;Node6</title>
<g id="a_edge5_Node000005_Node000006"><a xlink:title=" ">
<path fill="none" stroke="#63b8ff" d="M425.63,-15.25C433.36,-15.25 441.38,-15.25 449.3,-15.25"/>
<polygon fill="#63b8ff" stroke="#63b8ff" points="449.28,-18.75 459.28,-15.25 449.28,-11.75 449.28,-18.75"/>
</a>
</g>
</g>
</g>
</svg>
