<?xml version="1.0" encoding="UTF-8" standalone="no"?>
<!DOCTYPE svg PUBLIC "-//W3C//DTD SVG 1.1//EN"
 "http://www.w3.org/Graphics/SVG/1.1/DTD/svg11.dtd">
<!-- Generated by graphviz version 14.1.2 (20260124.0452)
 -->
<!-- Title: module_bl_mynn::qsat_blend Pages: 1 -->
<!--zoomable 200 -->

<svg id="main" version="1.1" xmlns="http://www.w3.org/2000/svg" xmlns:xlink="http://www.w3.org/1999/xlink" xml:space="preserve" onload="init(evt)">

<style type="text/css"><![CDATA[
.node, .edge {opacity: 0.7;}
.node.selected, .edge.selected {opacity: 1;}
.edge:hover path { stroke: red; }
.edge:hover polygon { stroke: red; fill: red; }
]]></style>

<defs>
  <circle id="rim" cx="0" cy="0" r="7"/>
  <circle id="rim2" cx="0" cy="0" r="3.5"/>
  <g id="zoomPlus">
    <use xlink:href="#rim" fill="#404040"><set attributeName="fill" to="#808080" begin="zoomplus.mouseover" end="zoomplus.mouseout"/></use>
    <path d="M-4,0h8M0,-4v8" fill="none" stroke="white" stroke-width="1.5" pointer-events="none"/>
  </g>
  <g id="zoomMin">
    <use xlink:href="#rim" fill="#404040"><set attributeName="fill" to="#808080" begin="zoomminus.mouseover" end="zoomminus.mouseout"/></use>
    <path d="M-4,0h8" fill="none" stroke="white" stroke-width="1.5" pointer-events="none"/>
  </g>
  <g id="arrowUp" transform="translate(30 24)">
    <use xlink:href="#rim"/>
    <path pointer-events="none" fill="none" stroke="white" stroke-width="1.5" d="M0,-3.0v7 M-2.5,-0.5L0,-3.0L2.5,-0.5"/>
  </g>
  <g id="arrowRight" transform="rotate(90) translate(36 -43)">
    <use xlink:href="#rim"/>
    <path pointer-events="none" fill="none" stroke="white" stroke-width="1.5" d="M0,-3.0v7 M-2.5,-0.5L0,-3.0L2.5,-0.5"/>
  </g>
  <g id="arrowDown" transform="rotate(180) translate(-30 -48)">
    <use xlink:href="#rim"/>
    <path pointer-events="none" fill="none" stroke="white" stroke-width="1.5" d="M0,-3.0v7 M-2.5,-0.5L0,-3.0L2.5,-0.5"/>
  </g>
  <g id="arrowLeft" transform="rotate(270) translate(-36 17)">
    <use xlink:href="#rim"/>
    <path pointer-events="none" fill="none" stroke="white" stroke-width="1.5" d="M0,-3.0v7 M-2.5,-0.5L0,-3.0L2.5,-0.5"/>
  </g>
  <g id="resetDef">
    <use xlink:href="#rim2" fill="#404040"><set attributeName="fill" to="#808080" begin="reset.mouseover" end="reset.mouseout"/></use>
  </g>
</defs>
<script type="application/ecmascript">
var viewWidth = 852;
var viewHeight = 200;
var sectionId = 'dynsection-1';
</script>
<script type="application/ecmascript" xlink:href="svg.min.js"/>
<svg id="graph" class="graph">
<g id="viewport">
<title>module_bl_mynn::qsat_blend</title>
<!-- Node1 -->
<g id="Node000001" class="node">
<title>Node1</title>
<g id="a_Node000001"><a xlink:title="This function extends function &quot;esat&quot; and returns a &quot;blended&quot; saturation mixing ratio....">
<polygon fill="#999999" stroke="#666666" points="843.5,-116.5 729.25,-116.5 729.25,-86 843.5,-86 843.5,-116.5"/>
<text xml:space="preserve" text-anchor="start" x="737.25" y="-103" font-family="Source Sans Pro" font-size="10.00">module_bl_mynn::qsat</text>
<text xml:space="preserve" text-anchor="middle" x="786.38" y="-91.75" font-family="Source Sans Pro" font-size="10.00">_blend</text>
</a>
</g>
</g>
<!-- Node1&#45;&gt;Node1 -->
<g id="edge12_Node000001_Node000001" class="edge">
<title>Node1&#45;&gt;Node1</title>
<g id="a_edge12_Node000001_Node000001"><a xlink:title=" ">
<path fill="none" stroke="#63b8ff" d="M817.11,-128.2C812.08,-131.97 801.84,-134.5 786.38,-134.5 758.1,-134.5 747.28,-126.06 753.9,-116.99"/>
<polygon fill="#63b8ff" stroke="#63b8ff" points="820.54,-128.9 818.61,-118.48 813.62,-127.83 820.54,-128.9"/>
</a>
</g>
</g>
<!-- Node2 -->
<g id="Node000002" class="node">
<title>Node2</title>
<g id="a_Node000002"><a xlink:href="group__gp__mynnedmf_ga8a29adb739751b21ffacddb8f24ac8ab.html#ga8a29adb739751b21ffacddb8f24ac8ab" target="_top" xlink:title="This subroutine.">
<polygon fill="white" stroke="#666666" points="693.25,-191.88 513,-191.88 513,-172.62 693.25,-172.62 693.25,-191.88"/>
<text xml:space="preserve" text-anchor="middle" x="603.12" y="-178.38" font-family="Source Sans Pro" font-size="10.00">module_bl_mynn::condensation_edmf</text>
</a>
</g>
</g>
<!-- Node1&#45;&gt;Node2 -->
<g id="edge1_Node000001_Node000002" class="edge">
<title>Node1&#45;&gt;Node2</title>
<g id="a_edge1_Node000001_Node000002"><a xlink:title=" ">
<path fill="none" stroke="#63b8ff" d="M754.94,-123.21C737.55,-134.94 714.95,-148.86 693.25,-158.25 680.16,-163.92 665.4,-168.54 651.72,-172.17"/>
<polygon fill="#63b8ff" stroke="#63b8ff" points="756.52,-126.37 762.78,-117.82 752.56,-120.61 756.52,-126.37"/>
</a>
</g>
</g>
<!-- Node4 -->
<g id="Node000004" class="node">
<title>Node4</title>
<g id="a_Node000004"><a xlink:href="group__gp__mynnedmf_ga1a32198222c028ebc56fe79f6872be53.html#ga1a32198222c028ebc56fe79f6872be53" target="_top" xlink:title="This subroutine is the Dynamic Multi&#45;Plume (DMP) Mass&#45;Flux Scheme.">
<polygon fill="white" stroke="#666666" points="476.25,-153.88 345.5,-153.88 345.5,-134.62 476.25,-134.62 476.25,-153.88"/>
<text xml:space="preserve" text-anchor="middle" x="410.88" y="-140.38" font-family="Source Sans Pro" font-size="10.00">module_bl_mynn::dmp_mf</text>
</a>
</g>
</g>
<!-- Node1&#45;&gt;Node4 -->
<g id="edge7_Node000001_Node000004" class="edge">
<title>Node1&#45;&gt;Node4</title>
<g id="a_edge7_Node000001_Node000004"><a xlink:title=" ">
<path fill="none" stroke="#63b8ff" d="M721,-119.65C711.75,-121.82 702.3,-123.78 693.25,-125.25 619.55,-137.23 533.81,-141.68 476.52,-143.32"/>
<polygon fill="#63b8ff" stroke="#63b8ff" points="721.8,-123.06 730.68,-117.28 720.14,-116.26 721.8,-123.06"/>
</a>
</g>
</g>
<!-- Node7 -->
<g id="Node000007" class="node">
<title>Node7</title>
<g id="a_Node000007"><a xlink:href="namespacemodule__bl__mynn_a48e02bb6bcacd2648525aae22648c48c.html#a48e02bb6bcacd2648525aae22648c48c" target="_top" xlink:title=" ">
<polygon fill="white" stroke="#666666" points="679.75,-116.5 526.5,-116.5 526.5,-86 679.75,-86 679.75,-116.5"/>
<text xml:space="preserve" text-anchor="start" x="534.5" y="-103" font-family="Source Sans Pro" font-size="10.00">module_bl_mynn::condensation</text>
<text xml:space="preserve" text-anchor="middle" x="603.12" y="-91.75" font-family="Source Sans Pro" font-size="10.00">_edmf_r</text>
</a>
</g>
</g>
<!-- Node1&#45;&gt;Node7 -->
<g id="edge6_Node000001_Node000007" class="edge">
<title>Node1&#45;&gt;Node7</title>
<g id="a_edge6_Node000001_Node000007"><a xlink:title=" ">
<path fill="none" stroke="#63b8ff" d="M717.53,-101.25C705.32,-101.25 692.52,-101.25 680.09,-101.25"/>
<polygon fill="#63b8ff" stroke="#63b8ff" points="717.51,-104.75 727.51,-101.25 717.51,-97.75 717.51,-104.75"/>
</a>
</g>
</g>
<!-- Node8 -->
<g id="Node000008" class="node">
<title>Node8</title>
<g id="a_Node000008"><a xlink:href="group__gp__mynnedmf_ga72e450860b06f1c3b6c7a9bbb0c94ce7.html#ga72e450860b06f1c3b6c7a9bbb0c94ce7" target="_top" xlink:title="This subroutine calculates the nonconvective component of the subgrid cloud fraction and mixing ratio...">
<polygon fill="white" stroke="#666666" points="469.5,-73.5 352.25,-73.5 352.25,-43 469.5,-43 469.5,-73.5"/>
<text xml:space="preserve" text-anchor="start" x="360.25" y="-60" font-family="Source Sans Pro" font-size="10.00">module_bl_mynn::mym</text>
<text xml:space="preserve" text-anchor="middle" x="410.88" y="-48.75" font-family="Source Sans Pro" font-size="10.00">_condensation</text>
</a>
</g>
</g>
<!-- Node1&#45;&gt;Node8 -->
<g id="edge8_Node000001_Node000008" class="edge">
<title>Node1&#45;&gt;Node8</title>
<g id="a_edge8_Node000001_Node000008"><a xlink:title=" ">
<path fill="none" stroke="#63b8ff" d="M721,-82.85C711.75,-80.68 702.3,-78.72 693.25,-77.25 616.65,-64.8 527.04,-60.48 469.9,-59"/>
<polygon fill="#63b8ff" stroke="#63b8ff" points="720.14,-86.24 730.68,-85.22 721.8,-79.44 720.14,-86.24"/>
</a>
</g>
</g>
<!-- Node9 -->
<g id="Node000009" class="node">
<title>Node9</title>
<g id="a_Node000009"><a xlink:href="group__gp__mynnedmf_gabd440b7b99df6a4736c2118fd96e3fd1.html#gabd440b7b99df6a4736c2118fd96e3fd1" target="_top" xlink:title="This subroutine solves for tendencies of U, V, , qv, qc, and qi.">
<polygon fill="white" stroke="#666666" points="662.88,-30.5 543.38,-30.5 543.38,0 662.88,0 662.88,-30.5"/>
<text xml:space="preserve" text-anchor="start" x="551.38" y="-17" font-family="Source Sans Pro" font-size="10.00">module_bl_mynn::mynn</text>
<text xml:space="preserve" text-anchor="middle" x="603.12" y="-5.75" font-family="Source Sans Pro" font-size="10.00">_tendencies</text>
</a>
</g>
</g>
<!-- Node1&#45;&gt;Node9 -->
<g id="edge10_Node000001_Node000009" class="edge">
<title>Node1&#45;&gt;Node9</title>
<g id="a_edge10_Node000001_Node000009"><a xlink:title=" ">
<path fill="none" stroke="#63b8ff" d="M754.39,-79.49C737,-67.94 714.56,-54.13 693.25,-44.25 682.47,-39.25 670.6,-34.75 659.12,-30.86"/>
<polygon fill="#63b8ff" stroke="#63b8ff" points="752,-82.09 762.25,-84.78 755.92,-76.29 752,-82.09"/>
</a>
</g>
</g>
<!-- Node3 -->
<g id="Node000003" class="node">
<title>Node3</title>
<g id="a_Node000003"><a xlink:href="namespacemodule__bl__mynn_a368a8a7b0a2166fb291fd875ba771968.html#a368a8a7b0a2166fb291fd875ba771968" target="_top" xlink:title=" ">
<polygon fill="white" stroke="#666666" points="477,-191.88 344.75,-191.88 344.75,-172.62 477,-172.62 477,-191.88"/>
<text xml:space="preserve" text-anchor="middle" x="410.88" y="-178.38" font-family="Source Sans Pro" font-size="10.00">module_bl_mynn::ddmf_jpl</text>
</a>
</g>
</g>
<!-- Node2&#45;&gt;Node3 -->
<g id="edge2_Node000002_Node000003" class="edge">
<title>Node2&#45;&gt;Node3</title>
<g id="a_edge2_Node000002_Node000003"><a xlink:title=" ">
<path fill="none" stroke="#63b8ff" d="M501.17,-182.25C493.11,-182.25 485.11,-182.25 477.4,-182.25"/>
<polygon fill="#63b8ff" stroke="#63b8ff" points="501.06,-185.75 511.06,-182.25 501.06,-178.75 501.06,-185.75"/>
</a>
</g>
</g>
<!-- Node2&#45;&gt;Node4 -->
<g id="edge3_Node000002_Node000004" class="edge">
<title>Node2&#45;&gt;Node4</title>
<g id="a_edge3_Node000002_Node000004"><a xlink:title=" ">
<path fill="none" stroke="#63b8ff" d="M540.66,-169.97C515.32,-164.91 486.32,-159.12 462.26,-154.31"/>
<polygon fill="#63b8ff" stroke="#63b8ff" points="539.66,-173.34 550.16,-171.87 541.04,-166.48 539.66,-173.34"/>
</a>
</g>
</g>
<!-- Node5 -->
<g id="Node000005" class="node">
<title>Node5</title>
<g id="a_Node000005"><a xlink:href="group__gp__mynnedmf_ga727e10ec7e7a73d34a7f50dadbda2b83.html#ga727e10ec7e7a73d34a7f50dadbda2b83" target="_top" xlink:title="This subroutine is the MYNN&#45;EDNF PBL driver routine,which encompassed the majority of the subroutines...">
<polygon fill="white" stroke="#666666" points="308.75,-73.5 189.25,-73.5 189.25,-43 308.75,-43 308.75,-73.5"/>
<text xml:space="preserve" text-anchor="start" x="197.25" y="-60" font-family="Source Sans Pro" font-size="10.00">module_bl_mynn::mynn</text>
<text xml:space="preserve" text-anchor="middle" x="249" y="-48.75" font-family="Source Sans Pro" font-size="10.00">_bl_driver</text>
</a>
</g>
</g>
<!-- Node4&#45;&gt;Node5 -->
<g id="edge4_Node000004_Node000005" class="edge">
<title>Node4&#45;&gt;Node5</title>
<g id="a_edge4_Node000004_Node000005"><a xlink:title=" ">
<path fill="none" stroke="#63b8ff" d="M381.35,-128.91C352.5,-113.39 308.12,-89.51 279.07,-73.89"/>
<polygon fill="#63b8ff" stroke="#63b8ff" points="379.42,-131.84 389.89,-133.5 382.74,-125.68 379.42,-131.84"/>
</a>
</g>
</g>
<!-- Node6 -->
<g id="Node000006" class="node">
<title>Node6</title>
<g id="a_Node000006"><a xlink:href="namespacemynnedmf__wrapper_aa6a54f8cc283d97e9c1d299ce2be79d3.html#aa6a54f8cc283d97e9c1d299ce2be79d3" target="_top" xlink:title=" ">
<polygon fill="white" stroke="#666666" points="153.25,-73.5 0,-73.5 0,-43 153.25,-43 153.25,-73.5"/>
<text xml:space="preserve" text-anchor="start" x="8" y="-60" font-family="Source Sans Pro" font-size="10.00">mynnedmf_wrapper::mynnedmf</text>
<text xml:space="preserve" text-anchor="middle" x="76.62" y="-48.75" font-family="Source Sans Pro" font-size="10.00">_wrapper_run</text>
</a>
</g>
</g>
<!-- Node5&#45;&gt;Node6 -->
<g id="edge5_Node000005_Node000006" class="edge">
<title>Node5&#45;&gt;Node6</title>
<g id="a_edge5_Node000005_Node000006"><a xlink:title=" ">
<path fill="none" stroke="#63b8ff" d="M177.54,-58.25C169.68,-58.25 161.66,-58.25 153.74,-58.25"/>
<polygon fill="#63b8ff" stroke="#63b8ff" points="177.38,-61.75 187.38,-58.25 177.38,-54.75 177.38,-61.75"/>
</a>
</g>
</g>
<!-- Node8&#45;&gt;Node5 -->
<g id="edge9_Node000008_Node000005" class="edge">
<title>Node8&#45;&gt;Node5</title>
<g id="a_edge9_Node000008_Node000005"><a xlink:title=" ">
<path fill="none" stroke="#63b8ff" d="M340.87,-58.25C330.33,-58.25 319.54,-58.25 309.25,-58.25"/>
<polygon fill="#63b8ff" stroke="#63b8ff" points="340.64,-61.75 350.64,-58.25 340.64,-54.75 340.64,-61.75"/>
</a>
</g>
</g>
<!-- Node9&#45;&gt;Node5 -->
<g id="edge11_Node000009_Node000005" class="edge">
<title>Node9&#45;&gt;Node5</title>
<g id="a_edge11_Node000009_Node000005"><a xlink:title=" ">
<path fill="none" stroke="#63b8ff" d="M531.58,-17.14C479.64,-19.34 407.45,-24.07 344.75,-34.25 331.85,-36.34 318.14,-39.35 305.27,-42.53"/>
<polygon fill="#63b8ff" stroke="#63b8ff" points="531.64,-20.65 541.49,-16.75 531.36,-13.65 531.64,-20.65"/>
</a>
</g>
</g>
</g>
</svg>

<g id="navigator" transform="translate(0 0)" fill="#404254">
  <rect fill="#f2f5e9" fill-opacity="0.5" stroke="#606060" stroke-width=".5" x="0" y="0" width="60" height="60"/>
  <use id="zoomplus" xlink:href="#zoomPlus" x="17" y="9" onmousedown="handleZoom(evt,'in')"/>
  <use id="zoomminus" xlink:href="#zoomMin" x="42" y="9" onmousedown="handleZoom(evt,'out')"/>
  <use id="reset" xlink:href="#resetDef" x="30" y="36" onmousedown="handleReset()"/>
   <use id="arrowup" xlink:href="#arrowUp" x="0" y="0" onmousedown="handlePan(0,-1)"/>
  <use id="arrowright" xlink:href="#arrowRight" x="0" y="0" onmousedown="handlePan(1,0)"/>
  <use id="arrowdown" xlink:href="#arrowDown" x="0" y="0" onmousedown="handlePan(0,1)"/>
  <use id="arrowleft" xlink:href="#arrowLeft" x="0" y="0" onmousedown="handlePan(-1,0)"/>
</g>
<svg viewBox="0 0 15 15" width="100%" height="30px" preserveAspectRatio="xMaxYMin meet">
 <g id="arrow_out" transform="scale(0.3 0.3)">
  <a xlink:href="group__gp__mynnedmf_ga41a4c80227342f73cd16d2ae814498d0_ga41a4c80227342f73cd16d2ae814498d0_icgraph_org.svg" target="_base">
   <rect id="button" ry="5" rx="5" y="6" x="6" height="38" width="38"
        fill="#f2f5e9" fill-opacity="0.5" stroke="#606060" stroke-width="1.0"/>
   <path id="arrow"
     d="M 11.500037,31.436501 C 11.940474,20.09759 22.043105,11.32322 32.158766,21.979434 L 37.068811,17.246167 C 37.068811,17.246167 37.088388,32 37.088388,32 L 22.160133,31.978069 C 22.160133,31.978069 26.997745,27.140456 26.997745,27.140456 C 18.528582,18.264221 13.291696,25.230495 11.500037,31.436501 z"
     style="fill:#404040;"/>
  </a>
 </g>
</svg>

<style type='text/css'>
<![CDATA[
[data-mouse-over-selected='false'] { opacity: 0.7; }
[data-mouse-over-selected='true']  { opacity: 1.0; }
]]>
</style>
<script type="application/ecmascript"><![CDATA[
document.addEventListener('DOMContentLoaded', (event) => {
  highlightEdges();
  highlightAdjacentNodes();
});
]]></script>
</svg>
