<?xml version="1.0" encoding="UTF-8" standalone="no"?>
<!DOCTYPE svg PUBLIC "-//W3C//DTD SVG 1.1//EN"
 "http://www.w3.org/Graphics/SVG/1.1/DTD/svg11.dtd">
<!-- Generated by graphviz version 14.1.2 (20260124.0452)
 -->
<!-- Title: frh2o Pages: 1 -->
<svg width="679pt" height="101pt"
 viewBox="0.00 0.00 679.00 101.00" xmlns="http://www.w3.org/2000/svg" xmlns:xlink="http://www.w3.org/1999/xlink">
<g id="graph0" class="graph" transform="scale(1 1) rotate(0) translate(4 97.25)">
<title>frh2o</title>
<!-- Node1 -->
<g id="Node000001" class="node">
<title>Node1</title>
<g id="a_Node000001"><a xlink:title="This subroutine calculates amount of supercooled liquid soil water content if temperature is below 27...">
<polygon fill="#999999" stroke="#666666" points="670.8,-56.25 633.05,-56.25 633.05,-37 670.8,-37 670.8,-56.25"/>
<text xml:space="preserve" text-anchor="middle" x="651.92" y="-42.75" font-family="Source Sans Pro" font-size="10.00">frh2o</text>
</a>
</g>
</g>
<!-- Node2 -->
<g id="Node000002" class="node">
<title>Node2</title>
<g id="a_Node000002"><a xlink:href="group___noah___l_s_m_ga1b241897d00ec3d66eabe9e959d0ce04.html#ga1b241897d00ec3d66eabe9e959d0ce04" target="_top" xlink:title="This subroutine calculates sink/source term of the termal diffusion equation.">
<polygon fill="white" stroke="#666666" points="597.05,-56.25 551.8,-56.25 551.8,-37 597.05,-37 597.05,-56.25"/>
<text xml:space="preserve" text-anchor="middle" x="574.42" y="-42.75" font-family="Source Sans Pro" font-size="10.00">snksrc</text>
</a>
</g>
</g>
<!-- Node1&#45;&gt;Node2 -->
<g id="edge1_Node000001_Node000002" class="edge">
<title>Node1&#45;&gt;Node2</title>
<g id="a_edge1_Node000001_Node000002"><a xlink:title=" ">
<path fill="none" stroke="#63b8ff" d="M621.15,-46.62C613.19,-46.62 604.74,-46.62 597.29,-46.62"/>
<polygon fill="#63b8ff" stroke="#63b8ff" points="621.14,-50.13 631.14,-46.63 621.13,-43.13 621.14,-50.13"/>
</a>
</g>
</g>
<!-- Node3 -->
<g id="Node000003" class="node">
<title>Node3</title>
<g id="a_Node000003"><a xlink:href="group___noah___l_s_m_gabb602c2b09396e2f94c9556259f5bae4.html#gabb602c2b09396e2f94c9556259f5bae4" target="_top" xlink:title="This subroutine calculates the right hand side of the time tendency term of the soil thermal diffusio...">
<polygon fill="white" stroke="#666666" points="515.8,-56.25 487,-56.25 487,-37 515.8,-37 515.8,-56.25"/>
<text xml:space="preserve" text-anchor="middle" x="501.4" y="-42.75" font-family="Source Sans Pro" font-size="10.00">hrt</text>
</a>
</g>
</g>
<!-- Node2&#45;&gt;Node3 -->
<g id="edge2_Node000002_Node000003" class="edge">
<title>Node2&#45;&gt;Node3</title>
<g id="a_edge2_Node000002_Node000003"><a xlink:title=" ">
<path fill="none" stroke="#63b8ff" d="M540.03,-46.62C531.53,-46.62 522.86,-46.62 515.99,-46.62"/>
<polygon fill="#63b8ff" stroke="#63b8ff" points="539.83,-50.13 549.83,-46.63 539.83,-43.13 539.83,-50.13"/>
</a>
</g>
</g>
<!-- Node4 -->
<g id="Node000004" class="node">
<title>Node4</title>
<g id="a_Node000004"><a xlink:href="group___noah___l_s_m_ga977daabf4ff68b28fc5ccd8796d815cd.html#ga977daabf4ff68b28fc5ccd8796d815cd" target="_top" xlink:title="This subroutine updates the temperature state of the soil column based on the thermal diffusion equat...">
<polygon fill="white" stroke="#666666" points="451,-56.25 414,-56.25 414,-37 451,-37 451,-56.25"/>
<text xml:space="preserve" text-anchor="middle" x="432.5" y="-42.75" font-family="Source Sans Pro" font-size="10.00">shflx</text>
</a>
</g>
</g>
<!-- Node3&#45;&gt;Node4 -->
<g id="edge3_Node000003_Node000004" class="edge">
<title>Node3&#45;&gt;Node4</title>
<g id="a_edge3_Node000003_Node000004"><a xlink:title=" ">
<path fill="none" stroke="#63b8ff" d="M475.17,-46.62C467.18,-46.62 458.51,-46.62 451.17,-46.62"/>
<polygon fill="#63b8ff" stroke="#63b8ff" points="475.02,-50.13 485.02,-46.63 475.02,-43.13 475.02,-50.13"/>
</a>
</g>
</g>
<!-- Node5 -->
<g id="Node000005" class="node">
<title>Node5</title>
<g id="a_Node000005"><a xlink:href="group___noah___l_s_m_ga92994e4737ecfd692a6704778558c9c2.html#ga92994e4737ecfd692a6704778558c9c2" target="_top" xlink:title="This subroutine calculates soil moisture and heat flux values and update soil moisture content and so...">
<polygon fill="white" stroke="#666666" points="342,-93.25 299.75,-93.25 299.75,-74 342,-74 342,-93.25"/>
<text xml:space="preserve" text-anchor="middle" x="320.88" y="-79.75" font-family="Source Sans Pro" font-size="10.00">nopac</text>
</a>
</g>
</g>
<!-- Node4&#45;&gt;Node5 -->
<g id="edge4_Node000004_Node000005" class="edge">
<title>Node4&#45;&gt;Node5</title>
<g id="a_edge4_Node000004_Node000005"><a xlink:title=" ">
<path fill="none" stroke="#63b8ff" d="M402.96,-56.94C394.91,-59.81 386.12,-62.88 378,-65.62 366.27,-69.59 353.09,-73.83 342.45,-77.19"/>
<polygon fill="#63b8ff" stroke="#63b8ff" points="404.05,-60.27 412.29,-53.61 401.69,-53.68 404.05,-60.27"/>
</a>
</g>
</g>
<!-- Node8 -->
<g id="Node000008" class="node">
<title>Node8</title>
<g id="a_Node000008"><a xlink:href="group__sfc__diag__mod_ga7e773c818d77462fd7acbd9b15baf909.html#ga7e773c818d77462fd7acbd9b15baf909" target="_top" xlink:title=" ">
<polygon fill="white" stroke="#666666" points="378,-56.25 263.75,-56.25 263.75,-37 378,-37 378,-56.25"/>
<text xml:space="preserve" text-anchor="middle" x="320.88" y="-42.75" font-family="Source Sans Pro" font-size="10.00">sfc_diag::sfc_diag_run</text>
</a>
</g>
</g>
<!-- Node4&#45;&gt;Node8 -->
<g id="edge7_Node000004_Node000008" class="edge">
<title>Node4&#45;&gt;Node8</title>
<g id="a_edge7_Node000004_Node000008"><a xlink:title=" ">
<path fill="none" stroke="#63b8ff" d="M402.56,-46.62C395.06,-46.62 386.72,-46.62 378.34,-46.62"/>
<polygon fill="#63b8ff" stroke="#63b8ff" points="402.37,-50.13 412.37,-46.63 402.37,-43.13 402.37,-50.13"/>
</a>
</g>
</g>
<!-- Node9 -->
<g id="Node000009" class="node">
<title>Node9</title>
<g id="a_Node000009"><a xlink:href="group___noah___l_s_m_gad65a889bf3f431ade2a312674671ab41.html#gad65a889bf3f431ade2a312674671ab41" target="_top" xlink:title="This subroutine calculates soil moisture and heat flux values and update soil moisture content and so...">
<polygon fill="white" stroke="#666666" points="344.62,-19.25 297.12,-19.25 297.12,0 344.62,0 344.62,-19.25"/>
<text xml:space="preserve" text-anchor="middle" x="320.88" y="-5.75" font-family="Source Sans Pro" font-size="10.00">snopac</text>
</a>
</g>
</g>
<!-- Node4&#45;&gt;Node9 -->
<g id="edge8_Node000004_Node000009" class="edge">
<title>Node4&#45;&gt;Node9</title>
<g id="a_edge8_Node000004_Node000009"><a xlink:title=" ">
<path fill="none" stroke="#63b8ff" d="M402.96,-36.31C394.91,-33.44 386.12,-30.37 378,-27.62 367.14,-23.96 355.04,-20.05 344.87,-16.82"/>
<polygon fill="#63b8ff" stroke="#63b8ff" points="401.69,-39.57 412.29,-39.64 404.05,-32.98 401.69,-39.57"/>
</a>
</g>
</g>
<!-- Node6 -->
<g id="Node000006" class="node">
<title>Node6</title>
<g id="a_Node000006"><a xlink:href="group___noah___l_s_m_ga36e98f3ac91f839b816fd167eab30901.html#ga36e98f3ac91f839b816fd167eab30901" target="_top" xlink:title="This is the entity of GFS Noah LSM model of physics subroutines. It is a soil/veg/snowpack land&#45;surfa...">
<polygon fill="white" stroke="#666666" points="227.75,-56.25 160.75,-56.25 160.75,-37 227.75,-37 227.75,-56.25"/>
<text xml:space="preserve" text-anchor="middle" x="194.25" y="-42.75" font-family="Source Sans Pro" font-size="10.00">sflx::gfssflx</text>
</a>
</g>
</g>
<!-- Node5&#45;&gt;Node6 -->
<g id="edge5_Node000005_Node000006" class="edge">
<title>Node5&#45;&gt;Node6</title>
<g id="a_edge5_Node000005_Node000006"><a xlink:title=" ">
<path fill="none" stroke="#63b8ff" d="M288.52,-74.32C270.06,-68.84 246.75,-61.92 228.05,-56.36"/>
<polygon fill="#63b8ff" stroke="#63b8ff" points="287.26,-77.59 297.84,-77.08 289.25,-70.88 287.26,-77.59"/>
</a>
</g>
</g>
<!-- Node7 -->
<g id="Node000007" class="node">
<title>Node7</title>
<g id="a_Node000007"><a xlink:href="group___noah___l_s_m_ga5d624f72a0da3ffcdf7a01fb9862e0e8.html#ga5d624f72a0da3ffcdf7a01fb9862e0e8" target="_top" xlink:title=" ">
<polygon fill="white" stroke="#666666" points="124.75,-56.25 0,-56.25 0,-37 124.75,-37 124.75,-56.25"/>
<text xml:space="preserve" text-anchor="middle" x="62.38" y="-42.75" font-family="Source Sans Pro" font-size="10.00">lsm_noah::lsm_noah_run</text>
</a>
</g>
</g>
<!-- Node6&#45;&gt;Node7 -->
<g id="edge6_Node000006_Node000007" class="edge">
<title>Node6&#45;&gt;Node7</title>
<g id="a_edge6_Node000006_Node000007"><a xlink:title=" ">
<path fill="none" stroke="#63b8ff" d="M149.18,-46.62C141.47,-46.62 133.32,-46.62 125.24,-46.62"/>
<polygon fill="#63b8ff" stroke="#63b8ff" points="148.96,-50.13 158.96,-46.63 148.96,-43.13 148.96,-50.13"/>
</a>
</g>
</g>
<!-- Node9&#45;&gt;Node6 -->
<g id="edge9_Node000009_Node000006" class="edge">
<title>Node9&#45;&gt;Node6</title>
<g id="a_edge9_Node000009_Node000006"><a xlink:title=" ">
<path fill="none" stroke="#63b8ff" d="M285.85,-19.73C267.89,-25.06 245.94,-31.58 228.14,-36.86"/>
<polygon fill="#63b8ff" stroke="#63b8ff" points="286.68,-23.13 295.28,-16.93 284.69,-16.42 286.68,-23.13"/>
</a>
</g>
</g>
</g>
</svg>
