<?xml version="1.0" encoding="UTF-8" standalone="no"?>
<!DOCTYPE svg PUBLIC "-//W3C//DTD SVG 1.1//EN"
 "http://www.w3.org/Graphics/SVG/1.1/DTD/svg11.dtd">
<!-- Generated by graphviz version 14.1.2 (20260124.0452)
 -->
<!-- Title: tdfcnd Pages: 1 -->
<svg width="603pt" height="120pt"
 viewBox="0.00 0.00 603.00 120.00" xmlns="http://www.w3.org/2000/svg" xmlns:xlink="http://www.w3.org/1999/xlink">
<g id="graph0" class="graph" transform="scale(1 1) rotate(0) translate(4 116.23)">
<title>tdfcnd</title>
<!-- Node1 -->
<g id="Node000001" class="node">
<title>Node1</title>
<g id="a_Node000001"><a xlink:title="This subroutine calculates thermal diffusivity and conductivity of the soil for a given point and tim...">
<polygon fill="#999999" stroke="#666666" points="594.8,-93.25 551.8,-93.25 551.8,-74 594.8,-74 594.8,-93.25"/>
<text xml:space="preserve" text-anchor="middle" x="573.3" y="-79.75" font-family="Source Sans Pro" font-size="10.00">tdfcnd</text>
</a>
</g>
</g>
<!-- Node2 -->
<g id="Node000002" class="node">
<title>Node2</title>
<g id="a_Node000002"><a xlink:href="group___noah___l_s_m_ga36e98f3ac91f839b816fd167eab30901.html#ga36e98f3ac91f839b816fd167eab30901" target="_top" xlink:title="This is the entity of GFS Noah LSM model of physics subroutines. It is a soil/veg/snowpack land&#45;surfa...">
<polygon fill="white" stroke="#666666" points="227.75,-93.25 160.75,-93.25 160.75,-74 227.75,-74 227.75,-93.25"/>
<text xml:space="preserve" text-anchor="middle" x="194.25" y="-79.75" font-family="Source Sans Pro" font-size="10.00">sflx::gfssflx</text>
</a>
</g>
</g>
<!-- Node1&#45;&gt;Node2 -->
<g id="edge1_Node000001_Node000002" class="edge">
<title>Node1&#45;&gt;Node2</title>
<g id="a_edge1_Node000001_Node000002"><a xlink:title=" ">
<path fill="none" stroke="#63b8ff" d="M540.24,-92.79C532.32,-94.71 523.8,-96.5 515.8,-97.62 404.85,-113.21 374.77,-117.74 263.75,-102.62 250.79,-100.86 236.82,-97.3 224.89,-93.73"/>
<polygon fill="#63b8ff" stroke="#63b8ff" points="541.04,-96.2 549.84,-90.3 539.28,-89.42 541.04,-96.2"/>
</a>
</g>
</g>
<!-- Node4 -->
<g id="Node000004" class="node">
<title>Node4</title>
<g id="a_Node000004"><a xlink:href="group___noah___l_s_m_gabb602c2b09396e2f94c9556259f5bae4.html#gabb602c2b09396e2f94c9556259f5bae4" target="_top" xlink:title="This subroutine calculates the right hand side of the time tendency term of the soil thermal diffusio...">
<polygon fill="white" stroke="#666666" points="515.8,-55.25 487,-55.25 487,-36 515.8,-36 515.8,-55.25"/>
<text xml:space="preserve" text-anchor="middle" x="501.4" y="-41.75" font-family="Source Sans Pro" font-size="10.00">hrt</text>
</a>
</g>
</g>
<!-- Node1&#45;&gt;Node4 -->
<g id="edge3_Node000001_Node000004" class="edge">
<title>Node1&#45;&gt;Node4</title>
<g id="a_edge3_Node000001_Node000004"><a xlink:title=" ">
<path fill="none" stroke="#63b8ff" d="M543.97,-68.22C534.4,-63.02 524.15,-57.45 516.23,-53.14"/>
<polygon fill="#63b8ff" stroke="#63b8ff" points="542.15,-71.22 552.6,-72.92 545.49,-65.07 542.15,-71.22"/>
</a>
</g>
</g>
<!-- Node6 -->
<g id="Node000006" class="node">
<title>Node6</title>
<g id="a_Node000006"><a xlink:href="group___noah___l_s_m_ga92994e4737ecfd692a6704778558c9c2.html#ga92994e4737ecfd692a6704778558c9c2" target="_top" xlink:title="This subroutine calculates soil moisture and heat flux values and update soil moisture content and so...">
<polygon fill="white" stroke="#666666" points="342,-93.25 299.75,-93.25 299.75,-74 342,-74 342,-93.25"/>
<text xml:space="preserve" text-anchor="middle" x="320.88" y="-79.75" font-family="Source Sans Pro" font-size="10.00">nopac</text>
</a>
</g>
</g>
<!-- Node1&#45;&gt;Node6 -->
<g id="edge10_Node000001_Node000006" class="edge">
<title>Node1&#45;&gt;Node6</title>
<g id="a_edge10_Node000001_Node000006"><a xlink:title=" ">
<path fill="none" stroke="#63b8ff" d="M540.1,-83.62C487.74,-83.62 385.64,-83.62 342.21,-83.62"/>
<polygon fill="#63b8ff" stroke="#63b8ff" points="539.87,-87.13 549.87,-83.63 539.87,-80.13 539.87,-87.13"/>
</a>
</g>
</g>
<!-- Node3 -->
<g id="Node000003" class="node">
<title>Node3</title>
<g id="a_Node000003"><a xlink:href="group___noah___l_s_m_ga5d624f72a0da3ffcdf7a01fb9862e0e8.html#ga5d624f72a0da3ffcdf7a01fb9862e0e8" target="_top" xlink:title=" ">
<polygon fill="white" stroke="#666666" points="124.75,-93.25 0,-93.25 0,-74 124.75,-74 124.75,-93.25"/>
<text xml:space="preserve" text-anchor="middle" x="62.38" y="-79.75" font-family="Source Sans Pro" font-size="10.00">lsm_noah::lsm_noah_run</text>
</a>
</g>
</g>
<!-- Node2&#45;&gt;Node3 -->
<g id="edge2_Node000002_Node000003" class="edge">
<title>Node2&#45;&gt;Node3</title>
<g id="a_edge2_Node000002_Node000003"><a xlink:title=" ">
<path fill="none" stroke="#63b8ff" d="M149.18,-83.62C141.47,-83.62 133.32,-83.62 125.24,-83.62"/>
<polygon fill="#63b8ff" stroke="#63b8ff" points="148.96,-87.13 158.96,-83.63 148.96,-80.13 148.96,-87.13"/>
</a>
</g>
</g>
<!-- Node5 -->
<g id="Node000005" class="node">
<title>Node5</title>
<g id="a_Node000005"><a xlink:href="group___noah___l_s_m_ga977daabf4ff68b28fc5ccd8796d815cd.html#ga977daabf4ff68b28fc5ccd8796d815cd" target="_top" xlink:title="This subroutine updates the temperature state of the soil column based on the thermal diffusion equat...">
<polygon fill="white" stroke="#666666" points="451,-55.25 414,-55.25 414,-36 451,-36 451,-55.25"/>
<text xml:space="preserve" text-anchor="middle" x="432.5" y="-41.75" font-family="Source Sans Pro" font-size="10.00">shflx</text>
</a>
</g>
</g>
<!-- Node4&#45;&gt;Node5 -->
<g id="edge4_Node000004_Node000005" class="edge">
<title>Node4&#45;&gt;Node5</title>
<g id="a_edge4_Node000004_Node000005"><a xlink:title=" ">
<path fill="none" stroke="#63b8ff" d="M475.17,-45.62C467.18,-45.62 458.51,-45.62 451.17,-45.62"/>
<polygon fill="#63b8ff" stroke="#63b8ff" points="475.02,-49.13 485.02,-45.63 475.02,-42.13 475.02,-49.13"/>
</a>
</g>
</g>
<!-- Node5&#45;&gt;Node6 -->
<g id="edge5_Node000005_Node000006" class="edge">
<title>Node5&#45;&gt;Node6</title>
<g id="a_edge5_Node000005_Node000006"><a xlink:title=" ">
<path fill="none" stroke="#63b8ff" d="M402.99,-56.57C394.94,-59.58 386.15,-62.8 378,-65.62 366.3,-69.68 353.12,-73.93 342.48,-77.27"/>
<polygon fill="#63b8ff" stroke="#63b8ff" points="404.21,-59.85 412.33,-53.04 401.74,-53.3 404.21,-59.85"/>
</a>
</g>
</g>
<!-- Node7 -->
<g id="Node000007" class="node">
<title>Node7</title>
<g id="a_Node000007"><a xlink:href="group__sfc__diag__mod_ga7e773c818d77462fd7acbd9b15baf909.html#ga7e773c818d77462fd7acbd9b15baf909" target="_top" xlink:title=" ">
<polygon fill="white" stroke="#666666" points="378,-56.25 263.75,-56.25 263.75,-37 378,-37 378,-56.25"/>
<text xml:space="preserve" text-anchor="middle" x="320.88" y="-42.75" font-family="Source Sans Pro" font-size="10.00">sfc_diag::sfc_diag_run</text>
</a>
</g>
</g>
<!-- Node5&#45;&gt;Node7 -->
<g id="edge7_Node000005_Node000007" class="edge">
<title>Node5&#45;&gt;Node7</title>
<g id="a_edge7_Node000005_Node000007"><a xlink:title=" ">
<path fill="none" stroke="#63b8ff" d="M402.56,-45.89C395.06,-45.96 386.72,-46.03 378.34,-46.11"/>
<polygon fill="#63b8ff" stroke="#63b8ff" points="402.41,-49.39 412.37,-45.8 402.34,-42.39 402.41,-49.39"/>
</a>
</g>
</g>
<!-- Node8 -->
<g id="Node000008" class="node">
<title>Node8</title>
<g id="a_Node000008"><a xlink:href="group___noah___l_s_m_gad65a889bf3f431ade2a312674671ab41.html#gad65a889bf3f431ade2a312674671ab41" target="_top" xlink:title="This subroutine calculates soil moisture and heat flux values and update soil moisture content and so...">
<polygon fill="white" stroke="#666666" points="344.62,-19.25 297.12,-19.25 297.12,0 344.62,0 344.62,-19.25"/>
<text xml:space="preserve" text-anchor="middle" x="320.88" y="-5.75" font-family="Source Sans Pro" font-size="10.00">snopac</text>
</a>
</g>
</g>
<!-- Node5&#45;&gt;Node8 -->
<g id="edge8_Node000005_Node000008" class="edge">
<title>Node5&#45;&gt;Node8</title>
<g id="a_edge8_Node000005_Node000008"><a xlink:title=" ">
<path fill="none" stroke="#63b8ff" d="M402.93,-35.93C394.87,-33.22 386.1,-30.29 378,-27.62 367.21,-24.08 355.22,-20.22 345.11,-17"/>
<polygon fill="#63b8ff" stroke="#63b8ff" points="401.66,-39.19 412.25,-39.08 403.9,-32.56 401.66,-39.19"/>
</a>
</g>
</g>
<!-- Node6&#45;&gt;Node2 -->
<g id="edge6_Node000006_Node000002" class="edge">
<title>Node6&#45;&gt;Node2</title>
<g id="a_edge6_Node000006_Node000002"><a xlink:title=" ">
<path fill="none" stroke="#63b8ff" d="M287.99,-83.62C269.62,-83.62 246.58,-83.62 228.05,-83.62"/>
<polygon fill="#63b8ff" stroke="#63b8ff" points="287.78,-87.13 297.78,-83.63 287.78,-80.13 287.78,-87.13"/>
</a>
</g>
</g>
<!-- Node8&#45;&gt;Node2 -->
<g id="edge9_Node000008_Node000002" class="edge">
<title>Node8&#45;&gt;Node2</title>
<g id="a_edge9_Node000008_Node000002"><a xlink:title=" ">
<path fill="none" stroke="#63b8ff" d="M285.7,-18.33C278.25,-20.84 270.56,-23.93 263.75,-27.62 240.54,-40.24 217.59,-61.18 205.04,-73.57"/>
<polygon fill="#63b8ff" stroke="#63b8ff" points="286.71,-21.68 295.24,-15.4 284.65,-14.99 286.71,-21.68"/>
</a>
</g>
</g>
</g>
</svg>
