<?xml version="1.0" encoding="UTF-8" standalone="no"?>
<!DOCTYPE svg PUBLIC "-//W3C//DTD SVG 1.1//EN"
 "http://www.w3.org/Graphics/SVG/1.1/DTD/svg11.dtd">
<!-- Generated by graphviz version 14.1.2 (20260124.0452)
 -->
<!-- Title: gfdl_cloud_microphys_mod::wqs1 Pages: 1 -->
<svg width="907pt" height="62pt"
 viewBox="0.00 0.00 907.00 62.00" xmlns="http://www.w3.org/2000/svg" xmlns:xlink="http://www.w3.org/1999/xlink">
<g id="graph0" class="graph" transform="scale(1 1) rotate(0) translate(4 58.12)">
<title>gfdl_cloud_microphys_mod::wqs1</title>
<!-- Node1 -->
<g id="Node000001" class="node">
<title>Node1</title>
<g id="a_Node000001"><a xlink:title="The function &#39;wqs1&#39; returns the saturation vapor pressure over pure liquid water for a given temperat...">
<polygon fill="#999999" stroke="#666666" points="899.25,-36.12 788.75,-36.12 788.75,-5.62 899.25,-5.62 899.25,-36.12"/>
<text xml:space="preserve" text-anchor="start" x="796.75" y="-22.62" font-family="Source Sans Pro" font-size="10.00">gfdl_cloud_microphys</text>
<text xml:space="preserve" text-anchor="middle" x="844" y="-11.38" font-family="Source Sans Pro" font-size="10.00">_mod::wqs1</text>
</a>
</g>
</g>
<!-- Node1&#45;&gt;Node1 -->
<g id="edge6_Node000001_Node000001" class="edge">
<title>Node1&#45;&gt;Node1</title>
<g id="a_edge6_Node000001_Node000001"><a xlink:title=" ">
<path fill="none" stroke="#63b8ff" d="M868.69,-47.83C864.66,-51.6 856.43,-54.12 844,-54.12 821.28,-54.12 812.58,-45.68 817.91,-36.61"/>
<polygon fill="#63b8ff" stroke="#63b8ff" points="872.14,-48.47 869.91,-38.11 865.19,-47.6 872.14,-48.47"/>
</a>
</g>
</g>
<!-- Node2 -->
<g id="Node000002" class="node">
<title>Node2</title>
<g id="a_Node000002"><a xlink:href="group__mod__gfdl__cloud__mp_gaec9761c5fe1374e1d8f8f18dec3b879c.html#gaec9761c5fe1374e1d8f8f18dec3b879c" target="_top" xlink:title="This subroutine calculates temperature sentive high vertical resolution processes.">
<polygon fill="white" stroke="#666666" points="752.75,-36.12 640.75,-36.12 640.75,-5.62 752.75,-5.62 752.75,-36.12"/>
<text xml:space="preserve" text-anchor="start" x="648.75" y="-22.62" font-family="Source Sans Pro" font-size="10.00">gfdl_cloud_microphys</text>
<text xml:space="preserve" text-anchor="middle" x="696.75" y="-11.38" font-family="Source Sans Pro" font-size="10.00">_mod::subgrid_z_proc</text>
</a>
</g>
</g>
<!-- Node1&#45;&gt;Node2 -->
<g id="edge1_Node000001_Node000002" class="edge">
<title>Node1&#45;&gt;Node2</title>
<g id="a_edge1_Node000001_Node000002"><a xlink:title=" ">
<path fill="none" stroke="#63b8ff" d="M777.2,-20.88C769.13,-20.88 760.94,-20.88 753.04,-20.88"/>
<polygon fill="#63b8ff" stroke="#63b8ff" points="776.99,-24.38 786.99,-20.88 776.99,-17.38 776.99,-24.38"/>
</a>
</g>
</g>
<!-- Node3 -->
<g id="Node000003" class="node">
<title>Node3</title>
<g id="a_Node000003"><a xlink:href="group__mod__gfdl__cloud__mp_ga6d4a8494f1530ef44e39c61be5d819fe.html#ga6d4a8494f1530ef44e39c61be5d819fe" target="_top" xlink:title="This subroutine includes cloud ice microphysics processes.">
<polygon fill="white" stroke="#666666" points="604.75,-36.12 494.25,-36.12 494.25,-5.62 604.75,-5.62 604.75,-36.12"/>
<text xml:space="preserve" text-anchor="start" x="502.25" y="-22.62" font-family="Source Sans Pro" font-size="10.00">gfdl_cloud_microphys</text>
<text xml:space="preserve" text-anchor="middle" x="549.5" y="-11.38" font-family="Source Sans Pro" font-size="10.00">_mod::icloud</text>
</a>
</g>
</g>
<!-- Node2&#45;&gt;Node3 -->
<g id="edge2_Node000002_Node000003" class="edge">
<title>Node2&#45;&gt;Node3</title>
<g id="a_edge2_Node000002_Node000003"><a xlink:title=" ">
<path fill="none" stroke="#63b8ff" d="M629.18,-20.88C621.15,-20.88 613.02,-20.88 605.19,-20.88"/>
<polygon fill="#63b8ff" stroke="#63b8ff" points="628.91,-24.38 638.91,-20.88 628.91,-17.38 628.91,-24.38"/>
</a>
</g>
</g>
<!-- Node4 -->
<g id="Node000004" class="node">
<title>Node4</title>
<g id="a_Node000004"><a xlink:href="group__mod__gfdl__cloud__mp_ga9a157f35f4472577a555978027d97c65.html#ga9a157f35f4472577a555978027d97c65" target="_top" xlink:title="GFDL cloud microphysics, major program, and is based on Lin et al.(1983) lin_et_al_1983 and Rutledge ...">
<polygon fill="white" stroke="#666666" points="458.25,-36.12 347.75,-36.12 347.75,-5.62 458.25,-5.62 458.25,-36.12"/>
<text xml:space="preserve" text-anchor="start" x="355.75" y="-22.62" font-family="Source Sans Pro" font-size="10.00">gfdl_cloud_microphys</text>
<text xml:space="preserve" text-anchor="middle" x="403" y="-11.38" font-family="Source Sans Pro" font-size="10.00">_mod::mpdrv</text>
</a>
</g>
</g>
<!-- Node3&#45;&gt;Node4 -->
<g id="edge3_Node000003_Node000004" class="edge">
<title>Node3&#45;&gt;Node4</title>
<g id="a_edge3_Node000003_Node000004"><a xlink:title=" ">
<path fill="none" stroke="#63b8ff" d="M482.38,-20.88C474.46,-20.88 466.44,-20.88 458.71,-20.88"/>
<polygon fill="#63b8ff" stroke="#63b8ff" points="482.36,-24.38 492.36,-20.88 482.36,-17.38 482.36,-24.38"/>
</a>
</g>
</g>
<!-- Node5 -->
<g id="Node000005" class="node">
<title>Node5</title>
<g id="a_Node000005"><a xlink:href="group__mod__gfdl__cloud__mp_gab96ce7bbe8889ca0845652ef6df3ea14.html#gab96ce7bbe8889ca0845652ef6df3ea14" target="_top" xlink:title="This subroutine is the driver of the GFDL cloud microphysics.">
<polygon fill="white" stroke="#666666" points="311.75,-41.75 171.25,-41.75 171.25,0 311.75,0 311.75,-41.75"/>
<text xml:space="preserve" text-anchor="start" x="179.25" y="-28.25" font-family="Source Sans Pro" font-size="10.00">gfdl_cloud_microphys</text>
<text xml:space="preserve" text-anchor="start" x="179.25" y="-17" font-family="Source Sans Pro" font-size="10.00">_mod::gfdl_cloud_microphys</text>
<text xml:space="preserve" text-anchor="middle" x="241.5" y="-5.75" font-family="Source Sans Pro" font-size="10.00">_mod_driver</text>
</a>
</g>
</g>
<!-- Node4&#45;&gt;Node5 -->
<g id="edge4_Node000004_Node000005" class="edge">
<title>Node4&#45;&gt;Node5</title>
<g id="a_edge4_Node000004_Node000005"><a xlink:title=" ">
<path fill="none" stroke="#63b8ff" d="M336.15,-20.88C328.25,-20.88 320.16,-20.88 312.21,-20.88"/>
<polygon fill="#63b8ff" stroke="#63b8ff" points="336.04,-24.38 346.04,-20.88 336.04,-17.38 336.04,-24.38"/>
</a>
</g>
</g>
<!-- Node6 -->
<g id="Node000006" class="node">
<title>Node6</title>
<g id="a_Node000006"><a xlink:href="namespacegfdl__cloud__microphys_a57379a8f2ca712404e049dc5438ca6ac.html#a57379a8f2ca712404e049dc5438ca6ac" target="_top" xlink:title=" ">
<polygon fill="white" stroke="#666666" points="135.25,-36.12 0,-36.12 0,-5.62 135.25,-5.62 135.25,-36.12"/>
<text xml:space="preserve" text-anchor="start" x="8" y="-22.62" font-family="Source Sans Pro" font-size="10.00">gfdl_cloud_microphys</text>
<text xml:space="preserve" text-anchor="middle" x="67.62" y="-11.38" font-family="Source Sans Pro" font-size="10.00">::gfdl_cloud_microphys_run</text>
</a>
</g>
</g>
<!-- Node5&#45;&gt;Node6 -->
<g id="edge5_Node000005_Node000006" class="edge">
<title>Node5&#45;&gt;Node6</title>
<g id="a_edge5_Node000005_Node000006"><a xlink:title=" ">
<path fill="none" stroke="#63b8ff" d="M159.71,-20.88C151.6,-20.88 143.44,-20.88 135.51,-20.88"/>
<polygon fill="#63b8ff" stroke="#63b8ff" points="159.57,-24.38 169.57,-20.88 159.57,-17.38 159.57,-24.38"/>
</a>
</g>
</g>
</g>
</svg>
