<?xml version="1.0" encoding="UTF-8" standalone="no"?>
<!DOCTYPE svg PUBLIC "-//W3C//DTD SVG 1.1//EN"
 "http://www.w3.org/Graphics/SVG/1.1/DTD/svg11.dtd">
<!-- Generated by graphviz version 14.1.2 (20260124.0452)
 -->
<!-- Title: lsm_noah::lsm_noah_run Pages: 1 -->
<svg width="900pt" height="644pt"
 viewBox="0.00 0.00 900.00 644.00" xmlns="http://www.w3.org/2000/svg" xmlns:xlink="http://www.w3.org/1999/xlink">
<g id="graph0" class="graph" transform="scale(1 1) rotate(0) translate(4 639.88)">
<title>lsm_noah::lsm_noah_run</title>
<!-- Node1 -->
<g id="Node000001" class="node">
<title>Node1</title>
<g id="a_Node000001"><a xlink:title=" ">
<polygon fill="#999999" stroke="#666666" points="124.75,-291.88 0,-291.88 0,-272.62 124.75,-272.62 124.75,-291.88"/>
<text xml:space="preserve" text-anchor="middle" x="62.38" y="-278.38" font-family="Source Sans Pro" font-size="10.00">lsm_noah::lsm_noah_run</text>
</a>
</g>
</g>
<!-- Node2 -->
<g id="Node000002" class="node">
<title>Node2</title>
<g id="a_Node000002"><a xlink:href="group___noah_m_p___l_s_m_ga9d5adb20aca5b72a7e126136088e20d1.html#ga9d5adb20aca5b72a7e126136088e20d1" target="_top" xlink:title="surface albedos. also fluxes (per unit incoming direct and diffuse radiation) reflected,...">
<polygon fill="white" stroke="#666666" points="516.25,-542.88 471.75,-542.88 471.75,-523.62 516.25,-523.62 516.25,-542.88"/>
<text xml:space="preserve" text-anchor="middle" x="494" y="-529.38" font-family="Source Sans Pro" font-size="10.00">albedo</text>
</a>
</g>
</g>
<!-- Node1&#45;&gt;Node2 -->
<g id="edge1_Node000001_Node000002" class="edge">
<title>Node1&#45;&gt;Node2</title>
<g id="a_edge1_Node000001_Node000002"><a xlink:title=" ">
<path fill="none" stroke="#63b8ff" d="M69.13,-292.18C92.2,-330.93 182.6,-472.42 301.25,-525.25 352.97,-548.28 420.51,-544.26 460.08,-538.96"/>
<polygon fill="#63b8ff" stroke="#63b8ff" points="460.53,-542.43 469.92,-537.52 459.52,-535.5 460.53,-542.43"/>
</a>
</g>
</g>
<!-- Node8 -->
<g id="Node000008" class="node">
<title>Node8</title>
<g id="a_Node000008"><a xlink:href="group___noah___l_s_m_ga36e98f3ac91f839b816fd167eab30901.html#ga36e98f3ac91f839b816fd167eab30901" target="_top" xlink:title="This is the entity of GFS Noah LSM model of physics subroutines. It is a soil/veg/snowpack land&#45;surfa...">
<polygon fill="white" stroke="#666666" points="246.5,-291.88 179.5,-291.88 179.5,-272.62 246.5,-272.62 246.5,-291.88"/>
<text xml:space="preserve" text-anchor="middle" x="213" y="-278.38" font-family="Source Sans Pro" font-size="10.00">sflx::gfssflx</text>
</a>
</g>
</g>
<!-- Node1&#45;&gt;Node8 -->
<g id="edge7_Node000001_Node000008" class="edge">
<title>Node1&#45;&gt;Node8</title>
<g id="a_edge7_Node000001_Node000008"><a xlink:title=" ">
<path fill="none" stroke="#63b8ff" d="M125.11,-282.25C139.43,-282.25 154.38,-282.25 167.76,-282.25"/>
<polygon fill="#63b8ff" stroke="#63b8ff" points="167.55,-285.75 177.55,-282.25 167.55,-278.75 167.55,-285.75"/>
</a>
</g>
</g>
<!-- Node39 -->
<g id="Node000039" class="node">
<title>Node39</title>
<g id="a_Node000039"><a xlink:href="group__gfs__sfcpert_ga6fcfce740aade0680404536c8c36cb7b.html#ga6fcfce740aade0680404536c8c36cb7b" target="_top" xlink:title="This subroutine computes the beta distribution value that matches the percentile from the random patt...">
<polygon fill="white" stroke="#666666" points="265.25,-142.5 160.75,-142.5 160.75,-112 265.25,-112 265.25,-142.5"/>
<text xml:space="preserve" text-anchor="start" x="168.75" y="-129" font-family="Source Sans Pro" font-size="10.00">surface_perturbation</text>
<text xml:space="preserve" text-anchor="middle" x="213" y="-117.75" font-family="Source Sans Pro" font-size="10.00">::ppfbet</text>
</a>
</g>
</g>
<!-- Node1&#45;&gt;Node39 -->
<g id="edge46_Node000001_Node000039" class="edge">
<title>Node1&#45;&gt;Node39</title>
<g id="a_edge46_Node000001_Node000039"><a xlink:title=" ">
<path fill="none" stroke="#63b8ff" d="M72.67,-272.55C95.75,-248.48 156.21,-185.44 189.39,-150.83"/>
<polygon fill="#63b8ff" stroke="#63b8ff" points="191.76,-153.42 196.15,-143.78 186.7,-148.57 191.76,-153.42"/>
</a>
</g>
</g>
<!-- Node3 -->
<g id="Node000003" class="node">
<title>Node3</title>
<g id="a_Node000003"><a xlink:href="group___noah_m_p___l_s_m_ga497b40d27709666f17da3e555f8628a1.html#ga497b40d27709666f17da3e555f8628a1" target="_top" xlink:title="ground surface albedo">
<polygon fill="white" stroke="#666666" points="651.5,-524.88 593.5,-524.88 593.5,-505.62 651.5,-505.62 651.5,-524.88"/>
<text xml:space="preserve" text-anchor="middle" x="622.5" y="-511.38" font-family="Source Sans Pro" font-size="10.00">groundalb</text>
</a>
</g>
</g>
<!-- Node2&#45;&gt;Node3 -->
<g id="edge2_Node000002_Node000003" class="edge">
<title>Node2&#45;&gt;Node3</title>
<g id="a_edge2_Node000002_Node000003"><a xlink:title=" ">
<path fill="none" stroke="#63b8ff" d="M516.75,-530.16C534.71,-527.6 560.67,-523.91 582.25,-520.83"/>
<polygon fill="#63b8ff" stroke="#63b8ff" points="582.49,-524.34 591.9,-519.46 581.5,-517.41 582.49,-524.34"/>
</a>
</g>
</g>
<!-- Node4 -->
<g id="Node000004" class="node">
<title>Node4</title>
<g id="a_Node000004"><a xlink:href="group___noah_m_p___l_s_m_ga748c587c5dc0a38a1793042e92952d43.html#ga748c587c5dc0a38a1793042e92952d43" target="_top" xlink:title=" ">
<polygon fill="white" stroke="#666666" points="652.62,-487.88 592.38,-487.88 592.38,-468.62 652.62,-468.62 652.62,-487.88"/>
<text xml:space="preserve" text-anchor="middle" x="622.5" y="-474.38" font-family="Source Sans Pro" font-size="10.00">snow_age</text>
</a>
</g>
</g>
<!-- Node2&#45;&gt;Node4 -->
<g id="edge3_Node000002_Node000004" class="edge">
<title>Node2&#45;&gt;Node4</title>
<g id="a_edge3_Node000002_Node000004"><a xlink:title=" ">
<path fill="none" stroke="#63b8ff" d="M516.75,-523.8C536.29,-515.3 565.31,-502.68 587.85,-492.88"/>
<polygon fill="#63b8ff" stroke="#63b8ff" points="589.16,-496.13 596.94,-488.93 586.37,-489.71 589.16,-496.13"/>
</a>
</g>
</g>
<!-- Node5 -->
<g id="Node000005" class="node">
<title>Node5</title>
<g id="a_Node000005"><a xlink:href="group___noah_m_p___l_s_m_ga238debe3053962b0b33a5e846e333701.html#ga238debe3053962b0b33a5e846e333701" target="_top" xlink:title="bats snow surface albedo">
<polygon fill="white" stroke="#666666" points="660.5,-635.88 584.5,-635.88 584.5,-616.62 660.5,-616.62 660.5,-635.88"/>
<text xml:space="preserve" text-anchor="middle" x="622.5" y="-622.38" font-family="Source Sans Pro" font-size="10.00">snowalb_bats</text>
</a>
</g>
</g>
<!-- Node2&#45;&gt;Node5 -->
<g id="edge4_Node000002_Node000005" class="edge">
<title>Node2&#45;&gt;Node5</title>
<g id="a_edge4_Node000002_Node000005"><a xlink:title=" ">
<path fill="none" stroke="#63b8ff" d="M504.73,-543.26C520.11,-558.67 551.48,-588.52 582.25,-608.25 583.67,-609.16 585.14,-610.05 586.65,-610.91"/>
<polygon fill="#63b8ff" stroke="#63b8ff" points="585.03,-614.02 595.52,-615.54 588.27,-607.81 585.03,-614.02"/>
</a>
</g>
</g>
<!-- Node6 -->
<g id="Node000006" class="node">
<title>Node6</title>
<g id="a_Node000006"><a xlink:href="group___noah_m_p___l_s_m_ga2ea2346edd6f426f30dcc99085def5cf.html#ga2ea2346edd6f426f30dcc99085def5cf" target="_top" xlink:title="class snow surface albedo">
<polygon fill="white" stroke="#666666" points="662.75,-598.88 582.25,-598.88 582.25,-579.62 662.75,-579.62 662.75,-598.88"/>
<text xml:space="preserve" text-anchor="middle" x="622.5" y="-585.38" font-family="Source Sans Pro" font-size="10.00">snowalb_class</text>
</a>
</g>
</g>
<!-- Node2&#45;&gt;Node6 -->
<g id="edge5_Node000002_Node000006" class="edge">
<title>Node2&#45;&gt;Node6</title>
<g id="a_edge5_Node000002_Node000006"><a xlink:title=" ">
<path fill="none" stroke="#63b8ff" d="M516.75,-542.88C536.42,-551.58 565.67,-564.54 588.27,-574.54"/>
<polygon fill="#63b8ff" stroke="#63b8ff" points="586.81,-577.72 597.37,-578.57 589.65,-571.32 586.81,-577.72"/>
</a>
</g>
</g>
<!-- Node7 -->
<g id="Node000007" class="node">
<title>Node7</title>
<g id="a_Node000007"><a xlink:href="group___noah_m_p___l_s_m_gaa737a61978bde4dc6363e11263999769.html#gaa737a61978bde4dc6363e11263999769" target="_top" xlink:title="use two&#45;stream approximation of Dickinson (1983) adv geophysics 25: 305&#45;353 and sellers (1985) int j ...">
<polygon fill="white" stroke="#666666" points="653.38,-561.88 591.62,-561.88 591.62,-542.62 653.38,-542.62 653.38,-561.88"/>
<text xml:space="preserve" text-anchor="middle" x="622.5" y="-548.38" font-family="Source Sans Pro" font-size="10.00">twostream</text>
</a>
</g>
</g>
<!-- Node2&#45;&gt;Node7 -->
<g id="edge6_Node000002_Node000007" class="edge">
<title>Node2&#45;&gt;Node7</title>
<g id="a_edge6_Node000002_Node000007"><a xlink:title=" ">
<path fill="none" stroke="#63b8ff" d="M516.75,-536.52C534.15,-539.13 559.06,-542.87 580.22,-546.05"/>
<polygon fill="#63b8ff" stroke="#63b8ff" points="579.62,-549.5 590.03,-547.52 580.66,-542.58 579.62,-549.5"/>
</a>
</g>
</g>
<!-- Node8&#45;&gt;Node2 -->
<g id="edge8_Node000008_Node000002" class="edge">
<title>Node8&#45;&gt;Node2</title>
<g id="a_edge8_Node000008_Node000002"><a xlink:title=" ">
<path fill="none" stroke="#63b8ff" d="M216.43,-292.11C223.96,-320.61 249.56,-404 301.25,-449.25 338.43,-481.8 360.56,-467.23 405.75,-487.25 426.37,-496.38 448.86,-508.29 465.84,-517.7"/>
<polygon fill="#63b8ff" stroke="#63b8ff" points="463.88,-520.62 474.32,-522.45 467.3,-514.51 463.88,-520.62"/>
</a>
</g>
</g>
<!-- Node9 -->
<g id="Node000009" class="node">
<title>Node9</title>
<g id="a_Node000009"><a xlink:href="group___noah___l_s_m_ga18a0f02e4a1a32b6cde35cbe67b09908.html#ga18a0f02e4a1a32b6cde35cbe67b09908" target="_top" xlink:title="This subroutine calculates albedo including snow effect (0 &#45;&gt; 1).">
<polygon fill="white" stroke="#666666" points="374.25,-365.88 332.75,-365.88 332.75,-346.62 374.25,-346.62 374.25,-365.88"/>
<text xml:space="preserve" text-anchor="middle" x="353.5" y="-352.38" font-family="Source Sans Pro" font-size="10.00">alcalc</text>
</a>
</g>
</g>
<!-- Node8&#45;&gt;Node9 -->
<g id="edge9_Node000008_Node000009" class="edge">
<title>Node8&#45;&gt;Node9</title>
<g id="a_edge9_Node000008_Node000009"><a xlink:title=" ">
<path fill="none" stroke="#63b8ff" d="M227.32,-292.21C243.95,-304.3 273.59,-324.75 301.25,-338.25 307.81,-341.45 315.09,-344.37 322.06,-346.87"/>
<polygon fill="#63b8ff" stroke="#63b8ff" points="320.57,-350.06 331.16,-349.97 322.82,-343.43 320.57,-350.06"/>
</a>
</g>
</g>
<!-- Node10 -->
<g id="Node000010" class="node">
<title>Node10</title>
<g id="a_Node000010"><a xlink:href="group___noah___l_s_m_gaa292bfa0bd38e58ab9389cb38e4d09c0.html#gaa292bfa0bd38e58ab9389cb38e4d09c0" target="_top" xlink:title="This subroutine calculates canopy resistance which depends on incoming solar radiation,...">
<polygon fill="white" stroke="#666666" points="376.12,-291.88 330.88,-291.88 330.88,-272.62 376.12,-272.62 376.12,-291.88"/>
<text xml:space="preserve" text-anchor="middle" x="353.5" y="-278.38" font-family="Source Sans Pro" font-size="10.00">canres</text>
</a>
</g>
</g>
<!-- Node8&#45;&gt;Node10 -->
<g id="edge11_Node000008_Node000010" class="edge">
<title>Node8&#45;&gt;Node10</title>
<g id="a_edge11_Node000008_Node000010"><a xlink:title=" ">
<path fill="none" stroke="#63b8ff" d="M246.82,-282.25C268.69,-282.25 297.33,-282.25 319.28,-282.25"/>
<polygon fill="#63b8ff" stroke="#63b8ff" points="319.19,-285.75 329.19,-282.25 319.19,-278.75 319.19,-285.75"/>
</a>
</g>
</g>
<!-- Node11 -->
<g id="Node000011" class="node">
<title>Node11</title>
<g id="a_Node000011"><a xlink:href="group___noah___l_s_m_ga028fc448a3afe77726222a337008ffa4.html#ga028fc448a3afe77726222a337008ffa4" target="_top" xlink:title="This subroutine calculates snow termal conductivity.">
<polygon fill="white" stroke="#666666" points="375.75,-254.88 331.25,-254.88 331.25,-235.62 375.75,-235.62 375.75,-254.88"/>
<text xml:space="preserve" text-anchor="middle" x="353.5" y="-241.38" font-family="Source Sans Pro" font-size="10.00">csnow</text>
</a>
</g>
</g>
<!-- Node8&#45;&gt;Node11 -->
<g id="edge12_Node000008_Node000011" class="edge">
<title>Node8&#45;&gt;Node11</title>
<g id="a_edge12_Node000008_Node000011"><a xlink:title=" ">
<path fill="none" stroke="#63b8ff" d="M246.82,-273.48C269.03,-267.55 298.22,-259.75 320.3,-253.85"/>
<polygon fill="#63b8ff" stroke="#63b8ff" points="320.9,-257.32 329.66,-251.35 319.09,-250.55 320.9,-257.32"/>
</a>
</g>
</g>
<!-- Node12 -->
<g id="Node000012" class="node">
<title>Node12</title>
<g id="a_Node000012"><a xlink:href="group___noah___l_s_m_ga92994e4737ecfd692a6704778558c9c2.html#ga92994e4737ecfd692a6704778558c9c2" target="_top" xlink:title="This subroutine calculates soil moisture and heat flux values and update soil moisture content and so...">
<polygon fill="white" stroke="#666666" points="374.62,-217.88 332.38,-217.88 332.38,-198.62 374.62,-198.62 374.62,-217.88"/>
<text xml:space="preserve" text-anchor="middle" x="353.5" y="-204.38" font-family="Source Sans Pro" font-size="10.00">nopac</text>
</a>
</g>
</g>
<!-- Node8&#45;&gt;Node12 -->
<g id="edge13_Node000008_Node000012" class="edge">
<title>Node8&#45;&gt;Node12</title>
<g id="a_edge13_Node000008_Node000012"><a xlink:title=" ">
<path fill="none" stroke="#63b8ff" d="M227.32,-272.29C243.95,-260.2 273.59,-239.75 301.25,-226.25 307.55,-223.18 314.51,-220.37 321.21,-217.93"/>
<polygon fill="#63b8ff" stroke="#63b8ff" points="322.34,-221.25 330.67,-214.7 320.08,-214.62 322.34,-221.25"/>
</a>
</g>
</g>
<!-- Node22 -->
<g id="Node000022" class="node">
<title>Node22</title>
<g id="a_Node000022"><a xlink:href="group___noah___l_s_m_ga8bc3154096e6364c5fcddf884c003bef.html#ga8bc3154096e6364c5fcddf884c003bef" target="_top" xlink:title="This subroutine calculates thermal diffusivity and conductivity of the soil for a given point and tim...">
<polygon fill="white" stroke="#666666" points="744.38,-154.88 701.38,-154.88 701.38,-135.62 744.38,-135.62 744.38,-154.88"/>
<text xml:space="preserve" text-anchor="middle" x="722.88" y="-141.38" font-family="Source Sans Pro" font-size="10.00">tdfcnd</text>
</a>
</g>
</g>
<!-- Node8&#45;&gt;Node22 -->
<g id="edge45_Node000008_Node000022" class="edge">
<title>Node8&#45;&gt;Node22</title>
<g id="a_edge45_Node000008_Node000022"><a xlink:title=" ">
<path fill="none" stroke="#63b8ff" d="M219.93,-272.23C232.24,-252.44 262.67,-208.62 301.25,-189.25 433.02,-123.09 616.89,-133.65 690.04,-141.28"/>
<polygon fill="#63b8ff" stroke="#63b8ff" points="689.37,-144.73 699.69,-142.35 690.14,-137.77 689.37,-144.73"/>
</a>
</g>
</g>
<!-- Node31 -->
<g id="Node000031" class="node">
<title>Node31</title>
<g id="a_Node000031"><a xlink:href="group___noah___l_s_m_ga25b90f8a8049eb17cc6cb6a3fecf3fdc.html#ga25b90f8a8049eb17cc6cb6a3fecf3fdc" target="_top" xlink:title="This subroutine calculates potential evaporation for the current point. various partial sums/products...">
<polygon fill="white" stroke="#666666" points="378.75,-141.88 328.25,-141.88 328.25,-122.62 378.75,-122.62 378.75,-141.88"/>
<text xml:space="preserve" text-anchor="middle" x="353.5" y="-128.38" font-family="Source Sans Pro" font-size="10.00">penman</text>
</a>
</g>
</g>
<!-- Node8&#45;&gt;Node31 -->
<g id="edge34_Node000008_Node000031" class="edge">
<title>Node8&#45;&gt;Node31</title>
<g id="a_edge34_Node000008_Node000031"><a xlink:title=" ">
<path fill="none" stroke="#63b8ff" d="M218.53,-272.43C229.61,-249.33 260.2,-190.94 301.25,-156.25 306.13,-152.13 311.83,-148.55 317.63,-145.51"/>
<polygon fill="#63b8ff" stroke="#63b8ff" points="319.09,-148.69 326.64,-141.26 316.1,-142.36 319.09,-148.69"/>
</a>
</g>
</g>
<!-- Node32 -->
<g id="Node000032" class="node">
<title>Node32</title>
<g id="a_Node000032"><a xlink:href="group___noah___l_s_m_ga1c19b4bae5de2a391c019b6778a58dad.html#ga1c19b4bae5de2a391c019b6778a58dad" target="_top" xlink:title="This subroutine internally sets default values or optionally read&#45;in via namelist i/o,...">
<polygon fill="white" stroke="#666666" points="376.5,-104.88 330.5,-104.88 330.5,-85.62 376.5,-85.62 376.5,-104.88"/>
<text xml:space="preserve" text-anchor="middle" x="353.5" y="-91.38" font-family="Source Sans Pro" font-size="10.00">redprm</text>
</a>
</g>
</g>
<!-- Node8&#45;&gt;Node32 -->
<g id="edge35_Node000008_Node000032" class="edge">
<title>Node8&#45;&gt;Node32</title>
<g id="a_edge35_Node000008_Node000032"><a xlink:title=" ">
<path fill="none" stroke="#63b8ff" d="M216.37,-272.25C223.74,-243.33 248.94,-158.76 301.25,-113.25 306.45,-108.73 312.85,-105.32 319.35,-102.76"/>
<polygon fill="#63b8ff" stroke="#63b8ff" points="320.33,-106.13 328.74,-99.68 318.14,-99.47 320.33,-106.13"/>
</a>
</g>
</g>
<!-- Node33 -->
<g id="Node000033" class="node">
<title>Node33</title>
<g id="a_Node000033"><a xlink:href="group___noah___l_s_m_gafdc2dc9815673befca7228be47616e41.html#gafdc2dc9815673befca7228be47616e41" target="_top" xlink:title="This subroutine calculates surface layer exchange coefficients via iterative process(see Chen et al....">
<polygon fill="white" stroke="#666666" points="373.5,-67.88 333.5,-67.88 333.5,-48.62 373.5,-48.62 373.5,-67.88"/>
<text xml:space="preserve" text-anchor="middle" x="353.5" y="-54.38" font-family="Source Sans Pro" font-size="10.00">sfcdif</text>
</a>
</g>
</g>
<!-- Node8&#45;&gt;Node33 -->
<g id="edge36_Node000008_Node000033" class="edge">
<title>Node8&#45;&gt;Node33</title>
<g id="a_edge36_Node000008_Node000033"><a xlink:title=" ">
<path fill="none" stroke="#63b8ff" d="M218.01,-272.16C234.09,-231.78 293.43,-83.59 301.25,-76.25 307.12,-70.74 314.77,-66.91 322.36,-64.24"/>
<polygon fill="#63b8ff" stroke="#63b8ff" points="323.13,-67.66 331.77,-61.53 321.19,-60.93 323.13,-67.66"/>
</a>
</g>
</g>
<!-- Node34 -->
<g id="Node000034" class="node">
<title>Node34</title>
<g id="a_Node000034"><a xlink:href="group___noah___l_s_m_gafca324f1a0f2bcca12116291bfc8ad68.html#gafca324f1a0f2bcca12116291bfc8ad68" target="_top" xlink:title="This subroutine calculates snow fraction (0&#45;&gt;1).">
<polygon fill="white" stroke="#666666" points="375,-515.88 332,-515.88 332,-496.62 375,-496.62 375,-515.88"/>
<text xml:space="preserve" text-anchor="middle" x="353.5" y="-502.38" font-family="Source Sans Pro" font-size="10.00">snfrac</text>
</a>
</g>
</g>
<!-- Node8&#45;&gt;Node34 -->
<g id="edge37_Node000008_Node000034" class="edge">
<title>Node8&#45;&gt;Node34</title>
<g id="a_edge37_Node000008_Node000034"><a xlink:title=" ">
<path fill="none" stroke="#63b8ff" d="M215.71,-291.94C221.72,-323.43 244.69,-424.17 301.25,-482.25 306.82,-487.97 314.02,-492.48 321.26,-495.97"/>
<polygon fill="#63b8ff" stroke="#63b8ff" points="319.73,-499.12 330.3,-499.78 322.45,-492.67 319.73,-499.12"/>
</a>
</g>
</g>
<!-- Node35 -->
<g id="Node000035" class="node">
<title>Node35</title>
<g id="a_Node000035"><a xlink:href="group___noah___l_s_m_gad65a889bf3f431ade2a312674671ab41.html#gad65a889bf3f431ade2a312674671ab41" target="_top" xlink:title="This subroutine calculates soil moisture and heat flux values and update soil moisture content and so...">
<polygon fill="white" stroke="#666666" points="377.25,-328.88 329.75,-328.88 329.75,-309.62 377.25,-309.62 377.25,-328.88"/>
<text xml:space="preserve" text-anchor="middle" x="353.5" y="-315.38" font-family="Source Sans Pro" font-size="10.00">snopac</text>
</a>
</g>
</g>
<!-- Node8&#45;&gt;Node35 -->
<g id="edge38_Node000008_Node000035" class="edge">
<title>Node8&#45;&gt;Node35</title>
<g id="a_edge38_Node000008_Node000035"><a xlink:title=" ">
<path fill="none" stroke="#63b8ff" d="M246.82,-291.02C268.39,-296.78 296.53,-304.3 318.36,-310.13"/>
<polygon fill="#63b8ff" stroke="#63b8ff" points="317.41,-313.5 327.98,-312.7 319.22,-306.74 317.41,-313.5"/>
</a>
</g>
</g>
<!-- Node37 -->
<g id="Node000037" class="node">
<title>Node37</title>
<g id="a_Node000037"><a xlink:href="group___noah___l_s_m_gab816dbe84c4db91178251b08553c6d02.html#gab816dbe84c4db91178251b08553c6d02" target="_top" xlink:title="This subroutine calculates snow depth and densitity to account for the new snowfall....">
<polygon fill="white" stroke="#666666" points="384.75,-439.88 322.25,-439.88 322.25,-420.62 384.75,-420.62 384.75,-439.88"/>
<text xml:space="preserve" text-anchor="middle" x="353.5" y="-426.38" font-family="Source Sans Pro" font-size="10.00">snow_new</text>
</a>
</g>
</g>
<!-- Node8&#45;&gt;Node37 -->
<g id="edge43_Node000008_Node000037" class="edge">
<title>Node8&#45;&gt;Node37</title>
<g id="a_edge43_Node000008_Node000037"><a xlink:title=" ">
<path fill="none" stroke="#63b8ff" d="M218.06,-292.32C228.32,-316.52 257.62,-378.47 301.25,-412.25 304.36,-414.66 307.83,-416.76 311.44,-418.6"/>
<polygon fill="#63b8ff" stroke="#63b8ff" points="309.9,-421.74 320.47,-422.47 312.66,-415.31 309.9,-421.74"/>
</a>
</g>
</g>
<!-- Node38 -->
<g id="Node000038" class="node">
<title>Node38</title>
<g id="a_Node000038"><a xlink:href="group___noah___l_s_m_ga95d889f436d70014fe640fa1b2420545.html#ga95d889f436d70014fe640fa1b2420545" target="_top" xlink:title="This subroutine calculates total roughness length over snow.">
<polygon fill="white" stroke="#666666" points="378.38,-402.88 328.62,-402.88 328.62,-383.62 378.38,-383.62 378.38,-402.88"/>
<text xml:space="preserve" text-anchor="middle" x="353.5" y="-389.38" font-family="Source Sans Pro" font-size="10.00">snowz0</text>
</a>
</g>
</g>
<!-- Node8&#45;&gt;Node38 -->
<g id="edge44_Node000008_Node000038" class="edge">
<title>Node8&#45;&gt;Node38</title>
<g id="a_edge44_Node000008_Node000038"><a xlink:title=" ">
<path fill="none" stroke="#63b8ff" d="M220.75,-292.14C234.04,-310.91 265.45,-351.92 301.25,-375.25 306.21,-378.48 311.82,-381.21 317.46,-383.49"/>
<polygon fill="#63b8ff" stroke="#63b8ff" points="316.16,-386.74 326.76,-386.82 318.52,-380.15 316.16,-386.74"/>
</a>
</g>
</g>
<!-- Node9&#45;&gt;Node2 -->
<g id="edge10_Node000009_Node000002" class="edge">
<title>Node9&#45;&gt;Node2</title>
<g id="a_edge10_Node000009_Node000002"><a xlink:title=" ">
<path fill="none" stroke="#63b8ff" d="M374.71,-359.77C384.92,-362.37 396.98,-366.81 405.75,-374.25 450.45,-412.16 476.28,-479 487.04,-512.66"/>
<polygon fill="#63b8ff" stroke="#63b8ff" points="483.62,-513.45 489.89,-522 490.32,-511.41 483.62,-513.45"/>
</a>
</g>
</g>
<!-- Node13 -->
<g id="Node000013" class="node">
<title>Node13</title>
<g id="a_Node000013"><a xlink:href="group___noah___l_s_m_ga4af741ecc120ddb0d7282f78df4136a5.html#ga4af741ecc120ddb0d7282f78df4136a5" target="_top" xlink:title="This subroutine calculates soil moisture flux. The soil moisture content (smc &#45; a per unit volume mea...">
<polygon fill="white" stroke="#666666" points="515.12,-328.88 472.88,-328.88 472.88,-309.62 515.12,-309.62 515.12,-328.88"/>
<text xml:space="preserve" text-anchor="middle" x="494" y="-315.38" font-family="Source Sans Pro" font-size="10.00">evapo</text>
</a>
</g>
</g>
<!-- Node12&#45;&gt;Node13 -->
<g id="edge14_Node000012_Node000013" class="edge">
<title>Node12&#45;&gt;Node13</title>
<g id="a_edge14_Node000012_Node000013"><a xlink:title=" ">
<path fill="none" stroke="#63b8ff" d="M375.07,-212.46C385.02,-215.21 396.73,-219.57 405.75,-226.25 427.47,-242.33 423.38,-255.43 441.75,-275.25 450.6,-284.8 461.41,-294.34 470.82,-302.08"/>
<polygon fill="#63b8ff" stroke="#63b8ff" points="468.46,-304.68 478.45,-308.21 472.85,-299.22 468.46,-304.68"/>
</a>
</g>
</g>
<!-- Node16 -->
<g id="Node000016" class="node">
<title>Node16</title>
<g id="a_Node000016"><a xlink:href="group___noah___l_s_m_ga977daabf4ff68b28fc5ccd8796d815cd.html#ga977daabf4ff68b28fc5ccd8796d815cd" target="_top" xlink:title="This subroutine updates the temperature state of the soil column based on the thermal diffusion equat...">
<polygon fill="white" stroke="#666666" points="512.5,-265.88 475.5,-265.88 475.5,-246.62 512.5,-246.62 512.5,-265.88"/>
<text xml:space="preserve" text-anchor="middle" x="494" y="-252.38" font-family="Source Sans Pro" font-size="10.00">shflx</text>
</a>
</g>
</g>
<!-- Node12&#45;&gt;Node16 -->
<g id="edge17_Node000012_Node000016" class="edge">
<title>Node12&#45;&gt;Node16</title>
<g id="a_edge17_Node000012_Node000016"><a xlink:title=" ">
<path fill="none" stroke="#63b8ff" d="M374.94,-215.33C398.64,-223.55 437.86,-237.14 464.54,-246.39"/>
<polygon fill="#63b8ff" stroke="#63b8ff" points="463.1,-249.59 473.69,-249.56 465.39,-242.98 463.1,-249.59"/>
</a>
</g>
</g>
<!-- Node12&#45;&gt;Node22 -->
<g id="edge33_Node000012_Node000022" class="edge">
<title>Node12&#45;&gt;Node22</title>
<g id="a_edge33_Node000012_Node000022"><a xlink:title=" ">
<path fill="none" stroke="#63b8ff" d="M375.11,-205.11C424.72,-197.48 554.72,-177.14 662.75,-157.25 671.63,-155.61 681.24,-153.72 690.07,-151.93"/>
<polygon fill="#63b8ff" stroke="#63b8ff" points="690.54,-155.4 699.63,-149.96 689.13,-148.55 690.54,-155.4"/>
</a>
</g>
</g>
<!-- Node27 -->
<g id="Node000027" class="node">
<title>Node27</title>
<g id="a_Node000027"><a xlink:href="group___noah___l_s_m_gafa3e5637e56746e2539ef2567836defa.html#gafa3e5637e56746e2539ef2567836defa" target="_top" xlink:title="This subroutine calculates soil moisture flux. The soil moisture content (smc &#45; a per unit vulume mea...">
<polygon fill="white" stroke="#666666" points="514,-365.88 474,-365.88 474,-346.62 514,-346.62 514,-365.88"/>
<text xml:space="preserve" text-anchor="middle" x="494" y="-352.38" font-family="Source Sans Pro" font-size="10.00">smflx</text>
</a>
</g>
</g>
<!-- Node12&#45;&gt;Node27 -->
<g id="edge28_Node000012_Node000027" class="edge">
<title>Node12&#45;&gt;Node27</title>
<g id="a_edge28_Node000012_Node000027"><a xlink:title=" ">
<path fill="none" stroke="#63b8ff" d="M375.07,-211.05C385.51,-213.46 397.66,-217.94 405.75,-226.25 442.22,-263.71 405.28,-300.79 441.75,-338.25 447.41,-344.06 455.05,-348 462.7,-350.67"/>
<polygon fill="#63b8ff" stroke="#63b8ff" points="461.66,-354.01 472.23,-353.33 463.54,-347.27 461.66,-354.01"/>
</a>
</g>
</g>
<!-- Node14 -->
<g id="Node000014" class="node">
<title>Node14</title>
<g id="a_Node000014"><a xlink:href="group___noah___l_s_m_gabf8ee2c002871d95bc356e2058f49a92.html#gabf8ee2c002871d95bc356e2058f49a92" target="_top" xlink:title="This subrtouine calculates direct soil evaporation.">
<polygon fill="white" stroke="#666666" points="643.62,-376.88 601.38,-376.88 601.38,-357.62 643.62,-357.62 643.62,-376.88"/>
<text xml:space="preserve" text-anchor="middle" x="622.5" y="-363.38" font-family="Source Sans Pro" font-size="10.00">devap</text>
</a>
</g>
</g>
<!-- Node13&#45;&gt;Node14 -->
<g id="edge15_Node000013_Node000014" class="edge">
<title>Node13&#45;&gt;Node14</title>
<g id="a_edge15_Node000013_Node000014"><a xlink:title=" ">
<path fill="none" stroke="#63b8ff" d="M515.52,-326.24C524.92,-329.5 536.18,-333.48 546.25,-337.25 561.01,-342.78 577.26,-349.22 590.88,-354.71"/>
<polygon fill="#63b8ff" stroke="#63b8ff" points="589.16,-357.79 599.75,-358.3 591.79,-351.3 589.16,-357.79"/>
</a>
</g>
</g>
<!-- Node15 -->
<g id="Node000015" class="node">
<title>Node15</title>
<g id="a_Node000015"><a xlink:href="group___noah___l_s_m_ga4bf7fbbf861a5c232da14ca6b74cdd4f.html#ga4bf7fbbf861a5c232da14ca6b74cdd4f" target="_top" xlink:title="This subroutine calculates transpiration for the veg class.">
<polygon fill="white" stroke="#666666" points="644,-339.88 601,-339.88 601,-320.62 644,-320.62 644,-339.88"/>
<text xml:space="preserve" text-anchor="middle" x="622.5" y="-326.38" font-family="Source Sans Pro" font-size="10.00">transp</text>
</a>
</g>
</g>
<!-- Node13&#45;&gt;Node15 -->
<g id="edge16_Node000013_Node000015" class="edge">
<title>Node13&#45;&gt;Node15</title>
<g id="a_edge16_Node000013_Node000015"><a xlink:title=" ">
<path fill="none" stroke="#63b8ff" d="M515.61,-321.04C535.64,-322.78 566.35,-325.45 589.55,-327.47"/>
<polygon fill="#63b8ff" stroke="#63b8ff" points="589.13,-330.95 599.4,-328.33 589.74,-323.97 589.13,-330.95"/>
</a>
</g>
</g>
<!-- Node17 -->
<g id="Node000017" class="node">
<title>Node17</title>
<g id="a_Node000017"><a xlink:href="group___noah___l_s_m_gabb602c2b09396e2f94c9556259f5bae4.html#gabb602c2b09396e2f94c9556259f5bae4" target="_top" xlink:title="This subroutine calculates the right hand side of the time tendency term of the soil thermal diffusio...">
<polygon fill="white" stroke="#666666" points="636.9,-228.88 608.1,-228.88 608.1,-209.62 636.9,-209.62 636.9,-228.88"/>
<text xml:space="preserve" text-anchor="middle" x="622.5" y="-215.38" font-family="Source Sans Pro" font-size="10.00">hrt</text>
</a>
</g>
</g>
<!-- Node16&#45;&gt;Node17 -->
<g id="edge18_Node000016_Node000017" class="edge">
<title>Node16&#45;&gt;Node17</title>
<g id="a_edge18_Node000016_Node000017"><a xlink:title=" ">
<path fill="none" stroke="#63b8ff" d="M512.86,-251.03C534.75,-244.62 571.97,-233.74 596.64,-226.52"/>
<polygon fill="#63b8ff" stroke="#63b8ff" points="597.56,-229.9 606.18,-223.73 595.59,-223.18 597.56,-229.9"/>
</a>
</g>
</g>
<!-- Node24 -->
<g id="Node000024" class="node">
<title>Node24</title>
<g id="a_Node000024"><a xlink:href="group___noah___l_s_m_ga32e89df3740f968f500900125ae9633d.html#ga32e89df3740f968f500900125ae9633d" target="_top" xlink:title="This subroutine calculates the right hand side of the time tendency term of the soil thermal diffusio...">
<polygon fill="white" stroke="#666666" points="642.5,-265.88 602.5,-265.88 602.5,-246.62 642.5,-246.62 642.5,-265.88"/>
<text xml:space="preserve" text-anchor="middle" x="622.5" y="-252.38" font-family="Source Sans Pro" font-size="10.00">hrtice</text>
</a>
</g>
</g>
<!-- Node16&#45;&gt;Node24 -->
<g id="edge25_Node000016_Node000024" class="edge">
<title>Node16&#45;&gt;Node24</title>
<g id="a_edge25_Node000016_Node000024"><a xlink:title=" ">
<path fill="none" stroke="#63b8ff" d="M512.86,-256.25C533.01,-256.25 566.18,-256.25 590.57,-256.25"/>
<polygon fill="#63b8ff" stroke="#63b8ff" points="590.56,-259.75 600.56,-256.25 590.56,-252.75 590.56,-259.75"/>
</a>
</g>
</g>
<!-- Node25 -->
<g id="Node000025" class="node">
<title>Node25</title>
<g id="a_Node000025"><a xlink:href="group___noah___l_s_m_gacb79bab20ee25c57918575949c15de73.html#gacb79bab20ee25c57918575949c15de73" target="_top" xlink:title="This subroutine calculates/updates the soil temperature field.">
<polygon fill="white" stroke="#666666" points="642.5,-302.88 602.5,-302.88 602.5,-283.62 642.5,-283.62 642.5,-302.88"/>
<text xml:space="preserve" text-anchor="middle" x="622.5" y="-289.38" font-family="Source Sans Pro" font-size="10.00">hstep</text>
</a>
</g>
</g>
<!-- Node16&#45;&gt;Node25 -->
<g id="edge26_Node000016_Node000025" class="edge">
<title>Node16&#45;&gt;Node25</title>
<g id="a_edge26_Node000016_Node000025"><a xlink:title=" ">
<path fill="none" stroke="#63b8ff" d="M512.86,-261.47C533.2,-267.42 566.78,-277.25 591.23,-284.4"/>
<polygon fill="#63b8ff" stroke="#63b8ff" points="590.04,-287.7 600.62,-287.14 592.01,-280.98 590.04,-287.7"/>
</a>
</g>
</g>
<!-- Node18 -->
<g id="Node000018" class="node">
<title>Node18</title>
<g id="a_Node000018"><a xlink:href="group___noah___l_s_m_ga1b241897d00ec3d66eabe9e959d0ce04.html#ga1b241897d00ec3d66eabe9e959d0ce04" target="_top" xlink:title="This subroutine calculates sink/source term of the termal diffusion equation.">
<polygon fill="white" stroke="#666666" points="745.5,-265.88 700.25,-265.88 700.25,-246.62 745.5,-246.62 745.5,-265.88"/>
<text xml:space="preserve" text-anchor="middle" x="722.88" y="-252.38" font-family="Source Sans Pro" font-size="10.00">snksrc</text>
</a>
</g>
</g>
<!-- Node17&#45;&gt;Node18 -->
<g id="edge19_Node000017_Node000018" class="edge">
<title>Node17&#45;&gt;Node18</title>
<g id="a_edge19_Node000017_Node000018"><a xlink:title=" ">
<path fill="none" stroke="#63b8ff" d="M637.18,-224.39C650.64,-229.46 671.71,-237.38 689.47,-244.06"/>
<polygon fill="#63b8ff" stroke="#63b8ff" points="687.99,-247.24 698.58,-247.49 690.45,-240.69 687.99,-247.24"/>
</a>
</g>
</g>
<!-- Node21 -->
<g id="Node000021" class="node">
<title>Node21</title>
<g id="a_Node000021"><a xlink:href="group___noah___l_s_m_ga8e248a6da8d1fd3c2e64b76f3bfbea50.html#ga8e248a6da8d1fd3c2e64b76f3bfbea50" target="_top" xlink:title="This subroutine calculates temperature on the boundary of the layer by interpolation of the middle la...">
<polygon fill="white" stroke="#666666" points="740.25,-228.88 705.5,-228.88 705.5,-209.62 740.25,-209.62 740.25,-228.88"/>
<text xml:space="preserve" text-anchor="middle" x="722.88" y="-215.38" font-family="Source Sans Pro" font-size="10.00">tbnd</text>
</a>
</g>
</g>
<!-- Node17&#45;&gt;Node21 -->
<g id="edge22_Node000017_Node000021" class="edge">
<title>Node17&#45;&gt;Node21</title>
<g id="a_edge22_Node000017_Node000021"><a xlink:title=" ">
<path fill="none" stroke="#63b8ff" d="M637.18,-219.25C651.73,-219.25 675.16,-219.25 693.69,-219.25"/>
<polygon fill="#63b8ff" stroke="#63b8ff" points="693.51,-222.75 703.51,-219.25 693.51,-215.75 693.51,-222.75"/>
</a>
</g>
</g>
<!-- Node17&#45;&gt;Node22 -->
<g id="edge23_Node000017_Node000022" class="edge">
<title>Node17&#45;&gt;Node22</title>
<g id="a_edge23_Node000017_Node000022"><a xlink:title=" ">
<path fill="none" stroke="#63b8ff" d="M637.33,-211.6C645.03,-207.15 654.66,-201.24 662.75,-195.25 679.95,-182.5 682.29,-176.94 698.75,-163.25 699.26,-162.82 699.78,-162.39 700.31,-161.96"/>
<polygon fill="#63b8ff" stroke="#63b8ff" points="702.21,-164.92 707.85,-155.95 697.85,-159.45 702.21,-164.92"/>
</a>
</g>
</g>
<!-- Node23 -->
<g id="Node000023" class="node">
<title>Node23</title>
<g id="a_Node000023"><a xlink:href="group___noah___l_s_m_gae50411efeb11ddeb8a0c53010745a95c.html#gae50411efeb11ddeb8a0c53010745a95c" target="_top" xlink:title="This subroutine calculates soil layer average temperature (tavg) in freezing/thawing layer using up,...">
<polygon fill="white" stroke="#666666" points="747,-191.88 698.75,-191.88 698.75,-172.62 747,-172.62 747,-191.88"/>
<text xml:space="preserve" text-anchor="middle" x="722.88" y="-178.38" font-family="Source Sans Pro" font-size="10.00">tmpavg</text>
</a>
</g>
</g>
<!-- Node17&#45;&gt;Node23 -->
<g id="edge24_Node000017_Node000023" class="edge">
<title>Node17&#45;&gt;Node23</title>
<g id="a_edge24_Node000017_Node000023"><a xlink:title=" ">
<path fill="none" stroke="#63b8ff" d="M637.18,-214.11C650.29,-209.17 670.62,-201.53 688.08,-194.96"/>
<polygon fill="#63b8ff" stroke="#63b8ff" points="688.94,-198.38 697.07,-191.58 686.47,-191.83 688.94,-198.38"/>
</a>
</g>
</g>
<!-- Node19 -->
<g id="Node000019" class="node">
<title>Node19</title>
<g id="a_Node000019"><a xlink:href="group___noah___l_s_m_ga7c0e713811400259a984b2153834e70c.html#ga7c0e713811400259a984b2153834e70c" target="_top" xlink:title="This subroutine calculates amount of supercooled liquid soil water content if temperature is below 27...">
<polygon fill="white" stroke="#666666" points="820.75,-265.88 783,-265.88 783,-246.62 820.75,-246.62 820.75,-265.88"/>
<text xml:space="preserve" text-anchor="middle" x="801.88" y="-252.38" font-family="Source Sans Pro" font-size="10.00">frh2o</text>
</a>
</g>
</g>
<!-- Node18&#45;&gt;Node19 -->
<g id="edge20_Node000018_Node000019" class="edge">
<title>Node18&#45;&gt;Node19</title>
<g id="a_edge20_Node000018_Node000019"><a xlink:title=" ">
<path fill="none" stroke="#63b8ff" d="M745.73,-256.25C753.65,-256.25 762.73,-256.25 771.21,-256.25"/>
<polygon fill="#63b8ff" stroke="#63b8ff" points="771.09,-259.75 781.09,-256.25 771.09,-252.75 771.09,-259.75"/>
</a>
</g>
</g>
<!-- Node20 -->
<g id="Node000020" class="node">
<title>Node20</title>
<g id="a_Node000020"><a xlink:href="group___noah_m_p___l_s_m_gace27cd3a7b4e23955e39e33bd344baae.html#gace27cd3a7b4e23955e39e33bd344baae" target="_top" xlink:title="check surface energy balance and water balance.">
<polygon fill="white" stroke="#666666" points="892.25,-265.88 856.75,-265.88 856.75,-246.62 892.25,-246.62 892.25,-265.88"/>
<text xml:space="preserve" text-anchor="middle" x="874.5" y="-252.38" font-family="Source Sans Pro" font-size="10.00">error</text>
</a>
</g>
</g>
<!-- Node19&#45;&gt;Node20 -->
<g id="edge21_Node000019_Node000020" class="edge">
<title>Node19&#45;&gt;Node20</title>
<g id="a_edge21_Node000019_Node000020"><a xlink:title=" ">
<path fill="none" stroke="#63b8ff" d="M821.06,-256.25C828.42,-256.25 837.09,-256.25 845.24,-256.25"/>
<polygon fill="#63b8ff" stroke="#63b8ff" points="845.07,-259.75 855.07,-256.25 845.07,-252.75 845.07,-259.75"/>
</a>
</g>
</g>
<!-- Node26 -->
<g id="Node000026" class="node">
<title>Node26</title>
<g id="a_Node000026"><a xlink:href="group___noah___l_s_m_ga3d7dabe1147278de865aa4691d5b2de0.html#ga3d7dabe1147278de865aa4691d5b2de0" target="_top" xlink:title="This subroutine inverts (solve) the tri&#45;diagonal matrix problem.">
<polygon fill="white" stroke="#666666" points="744.38,-357.88 701.38,-357.88 701.38,-338.62 744.38,-338.62 744.38,-357.88"/>
<text xml:space="preserve" text-anchor="middle" x="722.88" y="-344.38" font-family="Source Sans Pro" font-size="10.00">rosr12</text>
</a>
</g>
</g>
<!-- Node25&#45;&gt;Node26 -->
<g id="edge27_Node000025_Node000026" class="edge">
<title>Node25&#45;&gt;Node26</title>
<g id="a_edge27_Node000025_Node000026"><a xlink:title=" ">
<path fill="none" stroke="#63b8ff" d="M642.91,-301.55C649.31,-304.45 656.42,-307.83 662.75,-311.25 674.54,-317.61 687.19,-325.38 697.74,-332.16"/>
<polygon fill="#63b8ff" stroke="#63b8ff" points="695.57,-334.92 705.86,-337.45 699.39,-329.06 695.57,-334.92"/>
</a>
</g>
</g>
<!-- Node28 -->
<g id="Node000028" class="node">
<title>Node28</title>
<g id="a_Node000028"><a xlink:href="group___noah___l_s_m_gaf59c85cce3b10eaa0ffeb366de9d5304.html#gaf59c85cce3b10eaa0ffeb366de9d5304" target="_top" xlink:title="This subroutine calculates the right hand side of the time tendency term of the soil water diffusion ...">
<polygon fill="white" stroke="#666666" points="636.9,-450.88 608.1,-450.88 608.1,-431.62 636.9,-431.62 636.9,-450.88"/>
<text xml:space="preserve" text-anchor="middle" x="622.5" y="-437.38" font-family="Source Sans Pro" font-size="10.00">srt</text>
</a>
</g>
</g>
<!-- Node27&#45;&gt;Node28 -->
<g id="edge29_Node000027_Node000028" class="edge">
<title>Node27&#45;&gt;Node28</title>
<g id="a_edge29_Node000027_Node000028"><a xlink:title=" ">
<path fill="none" stroke="#63b8ff" d="M514.33,-360.12C524.53,-362.85 536.85,-367.29 546.25,-374.25 567.97,-390.33 561.3,-406.18 582.25,-423.25 586.74,-426.9 592.09,-429.99 597.37,-432.52"/>
<polygon fill="#63b8ff" stroke="#63b8ff" points="595.86,-435.68 606.43,-436.35 598.58,-429.23 595.86,-435.68"/>
</a>
</g>
</g>
<!-- Node30 -->
<g id="Node000030" class="node">
<title>Node30</title>
<g id="a_Node000030"><a xlink:href="group___noah___l_s_m_ga22b00b15c1b261126ec2d15719cb3aa4.html#ga22b00b15c1b261126ec2d15719cb3aa4" target="_top" xlink:title="This subroutine calculates/updates soil moisture content values and canopy moisture content values.">
<polygon fill="white" stroke="#666666" points="642.5,-413.88 602.5,-413.88 602.5,-394.62 642.5,-394.62 642.5,-413.88"/>
<text xml:space="preserve" text-anchor="middle" x="622.5" y="-400.38" font-family="Source Sans Pro" font-size="10.00">sstep</text>
</a>
</g>
</g>
<!-- Node27&#45;&gt;Node30 -->
<g id="edge31_Node000027_Node000030" class="edge">
<title>Node27&#45;&gt;Node30</title>
<g id="a_edge31_Node000027_Node000030"><a xlink:title=" ">
<path fill="none" stroke="#63b8ff" d="M514.05,-362.73C523.73,-366.08 535.65,-370.28 546.25,-374.25 561.32,-379.9 577.95,-386.49 591.73,-392.05"/>
<polygon fill="#63b8ff" stroke="#63b8ff" points="590.11,-395.17 600.69,-395.69 592.74,-388.69 590.11,-395.17"/>
</a>
</g>
</g>
<!-- Node29 -->
<g id="Node000029" class="node">
<title>Node29</title>
<g id="a_Node000029"><a xlink:href="group___noah___l_s_m_gabfc5ae94c847aa3351345e0e924302a1.html#gabfc5ae94c847aa3351345e0e924302a1" target="_top" xlink:title="This subroutine calculates soil water diffusivity and soil hydraulic conductivity.">
<polygon fill="white" stroke="#666666" points="746.62,-450.88 699.12,-450.88 699.12,-431.62 746.62,-431.62 746.62,-450.88"/>
<text xml:space="preserve" text-anchor="middle" x="722.88" y="-437.38" font-family="Source Sans Pro" font-size="10.00">wdfcnd</text>
</a>
</g>
</g>
<!-- Node28&#45;&gt;Node29 -->
<g id="edge30_Node000028_Node000029" class="edge">
<title>Node28&#45;&gt;Node29</title>
<g id="a_edge30_Node000028_Node000029"><a xlink:title=" ">
<path fill="none" stroke="#63b8ff" d="M637.18,-441.25C650.13,-441.25 670.12,-441.25 687.43,-441.25"/>
<polygon fill="#63b8ff" stroke="#63b8ff" points="687.35,-444.75 697.35,-441.25 687.35,-437.75 687.35,-444.75"/>
</a>
</g>
</g>
<!-- Node30&#45;&gt;Node26 -->
<g id="edge32_Node000030_Node000026" class="edge">
<title>Node30&#45;&gt;Node26</title>
<g id="a_edge32_Node000030_Node000026"><a xlink:title=" ">
<path fill="none" stroke="#63b8ff" d="M642.93,-395.99C649.34,-393.1 656.44,-389.7 662.75,-386.25 674.76,-379.68 687.59,-371.57 698.22,-364.54"/>
<polygon fill="#63b8ff" stroke="#63b8ff" points="700.04,-367.53 706.39,-359.05 696.14,-361.72 700.04,-367.53"/>
</a>
</g>
</g>
<!-- Node35&#45;&gt;Node13 -->
<g id="edge39_Node000035_Node000013" class="edge">
<title>Node35&#45;&gt;Node13</title>
<g id="a_edge39_Node000035_Node000013"><a xlink:title=" ">
<path fill="none" stroke="#63b8ff" d="M377.68,-319.25C400.55,-319.25 435.69,-319.25 461.16,-319.25"/>
<polygon fill="#63b8ff" stroke="#63b8ff" points="460.94,-322.75 470.94,-319.25 460.94,-315.75 460.94,-322.75"/>
</a>
</g>
</g>
<!-- Node35&#45;&gt;Node16 -->
<g id="edge40_Node000035_Node000016" class="edge">
<title>Node35&#45;&gt;Node16</title>
<g id="a_edge40_Node000035_Node000016"><a xlink:title=" ">
<path fill="none" stroke="#63b8ff" d="M377.72,-311.85C386.6,-308.83 396.74,-305.13 405.75,-301.25 426.23,-292.42 448.57,-280.86 465.51,-271.67"/>
<polygon fill="#63b8ff" stroke="#63b8ff" points="466.89,-274.91 473.98,-267.03 463.53,-268.77 466.89,-274.91"/>
</a>
</g>
</g>
<!-- Node35&#45;&gt;Node27 -->
<g id="edge41_Node000035_Node000027" class="edge">
<title>Node35&#45;&gt;Node27</title>
<g id="a_edge41_Node000035_Node000027"><a xlink:title=" ">
<path fill="none" stroke="#63b8ff" d="M377.68,-325.44C401.05,-331.69 437.24,-341.35 462.84,-348.19"/>
<polygon fill="#63b8ff" stroke="#63b8ff" points="461.74,-351.52 472.3,-350.72 463.55,-344.76 461.74,-351.52"/>
</a>
</g>
</g>
<!-- Node36 -->
<g id="Node000036" class="node">
<title>Node36</title>
<g id="a_Node000036"><a xlink:href="group___noah___l_s_m_gab5149f309f4e291435f75dd63d4a97ac.html#gab5149f309f4e291435f75dd63d4a97ac" target="_top" xlink:title="This subroutine calculates compaction of a snowpack under conditions of increasing snow density,...">
<polygon fill="white" stroke="#666666" points="524.12,-402.88 463.88,-402.88 463.88,-383.62 524.12,-383.62 524.12,-402.88"/>
<text xml:space="preserve" text-anchor="middle" x="494" y="-389.38" font-family="Source Sans Pro" font-size="10.00">snowpack</text>
</a>
</g>
</g>
<!-- Node35&#45;&gt;Node36 -->
<g id="edge42_Node000035_Node000036" class="edge">
<title>Node35&#45;&gt;Node36</title>
<g id="a_edge42_Node000035_Node000036"><a xlink:title=" ">
<path fill="none" stroke="#63b8ff" d="M377.51,-324.79C386.75,-327.64 397.2,-331.71 405.75,-337.25 425.27,-349.9 422.23,-362.6 441.75,-375.25 445.24,-377.51 449.05,-379.53 452.96,-381.32"/>
<polygon fill="#63b8ff" stroke="#63b8ff" points="451.43,-384.47 462.01,-384.97 454.05,-377.98 451.43,-384.47"/>
</a>
</g>
</g>
<!-- Node40 -->
<g id="Node000040" class="node">
<title>Node40</title>
<g id="a_Node000040"><a xlink:href="group__gfs__sfcpert_gabe7fa301a165300949c3ccc5ddcc1ce6.html#gabe7fa301a165300949c3ccc5ddcc1ce6" target="_top" xlink:title="This subroutine computes the value of the cumulative beta distribution at a single point x,...">
<polygon fill="white" stroke="#666666" points="405.75,-30.5 301.25,-30.5 301.25,0 405.75,0 405.75,-30.5"/>
<text xml:space="preserve" text-anchor="start" x="309.25" y="-17" font-family="Source Sans Pro" font-size="10.00">surface_perturbation</text>
<text xml:space="preserve" text-anchor="middle" x="353.5" y="-5.75" font-family="Source Sans Pro" font-size="10.00">::cdfbet</text>
</a>
</g>
</g>
<!-- Node39&#45;&gt;Node40 -->
<g id="edge47_Node000039_Node000040" class="edge">
<title>Node39&#45;&gt;Node40</title>
<g id="a_edge47_Node000039_Node000040"><a xlink:title=" ">
<path fill="none" stroke="#63b8ff" d="M226.52,-111.6C242.35,-92.59 271.18,-60.44 301.25,-39.25 302.58,-38.31 303.95,-37.4 305.36,-36.5"/>
<polygon fill="#63b8ff" stroke="#63b8ff" points="306.76,-39.74 313.65,-31.69 303.24,-33.68 306.76,-39.74"/>
</a>
</g>
</g>
<!-- Node41 -->
<g id="Node000041" class="node">
<title>Node41</title>
<g id="a_Node000041"><a xlink:href="group__gfs__sfcpert_ga6770814b5acc83b696eb7f1280fea117.html#ga6770814b5acc83b696eb7f1280fea117" target="_top" xlink:title="This subroutine computes the natural logarithm of the gamma distribution. Users can set the absolute ...">
<polygon fill="white" stroke="#666666" points="546.25,-30.5 441.75,-30.5 441.75,0 546.25,0 546.25,-30.5"/>
<text xml:space="preserve" text-anchor="start" x="449.75" y="-17" font-family="Source Sans Pro" font-size="10.00">surface_perturbation</text>
<text xml:space="preserve" text-anchor="middle" x="494" y="-5.75" font-family="Source Sans Pro" font-size="10.00">::gmln</text>
</a>
</g>
</g>
<!-- Node40&#45;&gt;Node41 -->
<g id="edge48_Node000040_Node000041" class="edge">
<title>Node40&#45;&gt;Node41</title>
<g id="a_edge48_Node000040_Node000041"><a xlink:title=" ">
<path fill="none" stroke="#63b8ff" d="M406.07,-15.25C413.91,-15.25 422.08,-15.25 430.13,-15.25"/>
<polygon fill="#63b8ff" stroke="#63b8ff" points="429.87,-18.75 439.87,-15.25 429.87,-11.75 429.87,-18.75"/>
</a>
</g>
</g>
</g>
</svg>
