<?xml version="1.0" encoding="UTF-8" standalone="no"?>
<!DOCTYPE svg PUBLIC "-//W3C//DTD SVG 1.1//EN"
 "http://www.w3.org/Graphics/SVG/1.1/DTD/svg11.dtd">
<!-- Generated by graphviz version 14.1.2 (20260124.0452)
 -->
<!-- Title: mp_nssl::mp_nssl_run Pages: 1 -->
<svg width="911pt" height="646pt"
 viewBox="0.00 0.00 911.00 646.00" xmlns="http://www.w3.org/2000/svg" xmlns:xlink="http://www.w3.org/1999/xlink">
<g id="graph0" class="graph" transform="scale(1 1) rotate(0) translate(4 641.5)">
<title>mp_nssl::mp_nssl_run</title>
<!-- Node1 -->
<g id="Node000001" class="node">
<title>Node1</title>
<g id="a_Node000001"><a xlink:title=" ">
<polygon fill="#999999" stroke="#666666" points="114.25,-282.88 0,-282.88 0,-263.62 114.25,-263.62 114.25,-282.88"/>
<text xml:space="preserve" text-anchor="middle" x="57.12" y="-269.38" font-family="Source Sans Pro" font-size="10.00">mp_nssl::mp_nssl_run</text>
</a>
</g>
</g>
<!-- Node2 -->
<g id="Node000002" class="node">
<title>Node2</title>
<g id="a_Node000002"><a xlink:href="group__mod__nsslmp_ga58002862f8b4adfd1329ee40abd421ba.html#ga58002862f8b4adfd1329ee40abd421ba" target="_top" xlink:title="Subroutine to calculate number concentrations from initial state that has only mixing ratio.">
<polygon fill="white" stroke="#666666" points="429.75,-414.5 308,-414.5 308,-384 429.75,-384 429.75,-414.5"/>
<text xml:space="preserve" text-anchor="start" x="316" y="-401" font-family="Source Sans Pro" font-size="10.00">module_mp_nssl_2mom</text>
<text xml:space="preserve" text-anchor="middle" x="368.88" y="-389.75" font-family="Source Sans Pro" font-size="10.00">::calcnfromq</text>
</a>
</g>
</g>
<!-- Node1&#45;&gt;Node2 -->
<g id="edge1_Node000001_Node000002" class="edge">
<title>Node1&#45;&gt;Node2</title>
<g id="a_edge1_Node000001_Node000002"><a xlink:title=" ">
<path fill="none" stroke="#63b8ff" d="M82.95,-283.35C134.12,-304.16 252.13,-352.17 319.12,-379.42"/>
<polygon fill="#63b8ff" stroke="#63b8ff" points="317.43,-382.51 328.01,-383.03 320.07,-376.02 317.43,-382.51"/>
</a>
</g>
</g>
<!-- Node3 -->
<g id="Node000003" class="node">
<title>Node3</title>
<g id="a_Node000003"><a xlink:href="group__mod__nsslmp_gaf719f942556bb1676739cbdff304e714.html#gaf719f942556bb1676739cbdff304e714" target="_top" xlink:title="Driver subroutine that copies state data to local 2D arrays for microphysics calls.">
<polygon fill="white" stroke="#666666" points="272,-267.5 150.25,-267.5 150.25,-237 272,-237 272,-267.5"/>
<text xml:space="preserve" text-anchor="start" x="158.25" y="-254" font-family="Source Sans Pro" font-size="10.00">module_mp_nssl_2mom</text>
<text xml:space="preserve" text-anchor="middle" x="211.12" y="-242.75" font-family="Source Sans Pro" font-size="10.00">::nssl_2mom_driver</text>
</a>
</g>
</g>
<!-- Node1&#45;&gt;Node3 -->
<g id="edge2_Node000001_Node000003" class="edge">
<title>Node1&#45;&gt;Node3</title>
<g id="a_edge2_Node000001_Node000003"><a xlink:title=" ">
<path fill="none" stroke="#63b8ff" d="M114.72,-265.43C122.53,-264.35 130.62,-263.23 138.65,-262.13"/>
<polygon fill="#63b8ff" stroke="#63b8ff" points="138.99,-265.61 148.41,-260.78 138.03,-258.68 138.99,-265.61"/>
</a>
</g>
</g>
<!-- Node3&#45;&gt;Node2 -->
<g id="edge7_Node000003_Node000002" class="edge">
<title>Node3&#45;&gt;Node2</title>
<g id="a_edge7_Node000003_Node000002"><a xlink:title=" ">
<path fill="none" stroke="#63b8ff" d="M223.72,-267.9C246.87,-298.99 297.49,-366.26 308,-374.25 309.71,-375.55 311.51,-376.8 313.36,-378"/>
<polygon fill="#63b8ff" stroke="#63b8ff" points="311.25,-380.82 321.67,-382.77 314.74,-374.75 311.25,-380.82"/>
</a>
</g>
</g>
<!-- Node4 -->
<g id="Node000004" class="node">
<title>Node4</title>
<g id="a_Node000004"><a xlink:href="group__mod__nsslmp_gadf6ddb9b5fc84c24f63ed57e17c2ca0d.html#gadf6ddb9b5fc84c24f63ed57e17c2ca0d" target="_top" xlink:title="Subroutine to calculate effective radii for use by radiation routines.">
<polygon fill="white" stroke="#666666" points="587.5,-30.5 465.75,-30.5 465.75,0 587.5,0 587.5,-30.5"/>
<text xml:space="preserve" text-anchor="start" x="473.75" y="-17" font-family="Source Sans Pro" font-size="10.00">module_mp_nssl_2mom</text>
<text xml:space="preserve" text-anchor="middle" x="526.62" y="-5.75" font-family="Source Sans Pro" font-size="10.00">::calc_eff_radius</text>
</a>
</g>
</g>
<!-- Node3&#45;&gt;Node4 -->
<g id="edge3_Node000003_Node000004" class="edge">
<title>Node3&#45;&gt;Node4</title>
<g id="a_edge3_Node000003_Node000004"><a xlink:title=" ">
<path fill="none" stroke="#63b8ff" d="M221.6,-236.7C236.87,-212.91 269.18,-167.59 308,-142.25 355.47,-111.27 385.19,-139.29 429.75,-104.25 454.19,-85.02 442.8,-65.24 465.75,-44.25 468.65,-41.6 471.84,-39.14 475.19,-36.87"/>
<polygon fill="#63b8ff" stroke="#63b8ff" points="476.9,-39.92 483.64,-31.74 473.27,-33.93 476.9,-39.92"/>
</a>
</g>
</g>
<!-- Node6 -->
<g id="Node000006" class="node">
<title>Node6</title>
<g id="a_Node000006"><a xlink:href="group__mod__nsslmp_ga0fea874028a2389ed8ccb75e4824077a.html#ga0fea874028a2389ed8ccb75e4824077a" target="_top" xlink:title="Subroutine to calculate number concentrations from convection parameterization rates that have only m...">
<polygon fill="white" stroke="#666666" points="429.75,-95.5 308,-95.5 308,-65 429.75,-65 429.75,-95.5"/>
<text xml:space="preserve" text-anchor="start" x="316" y="-82" font-family="Source Sans Pro" font-size="10.00">module_mp_nssl_2mom</text>
<text xml:space="preserve" text-anchor="middle" x="368.88" y="-70.75" font-family="Source Sans Pro" font-size="10.00">::calcnfromcuten</text>
</a>
</g>
</g>
<!-- Node3&#45;&gt;Node6 -->
<g id="edge6_Node000003_Node000006" class="edge">
<title>Node3&#45;&gt;Node6</title>
<g id="a_edge6_Node000003_Node000006"><a xlink:title=" ">
<path fill="none" stroke="#63b8ff" d="M219.2,-236.52C232.75,-207.87 264.91,-146.71 308,-109.25 311.15,-106.51 314.6,-103.97 318.21,-101.62"/>
<polygon fill="#63b8ff" stroke="#63b8ff" points="319.86,-104.71 326.71,-96.63 316.32,-98.67 319.86,-104.71"/>
</a>
</g>
</g>
<!-- Node7 -->
<g id="Node000007" class="node">
<title>Node7</title>
<g id="a_Node000007"><a xlink:href="group__mod__nsslmp_ga8a2d9c6519ecf9858ad38a0c2f5844de.html#ga8a2d9c6519ecf9858ad38a0c2f5844de" target="_top" xlink:title="Hail max size subroutine.">
<polygon fill="white" stroke="#666666" points="429.75,-365.5 308,-365.5 308,-335 429.75,-335 429.75,-365.5"/>
<text xml:space="preserve" text-anchor="start" x="316" y="-352" font-family="Source Sans Pro" font-size="10.00">module_mp_nssl_2mom</text>
<text xml:space="preserve" text-anchor="middle" x="368.88" y="-340.75" font-family="Source Sans Pro" font-size="10.00">::hailmaxd</text>
</a>
</g>
</g>
<!-- Node3&#45;&gt;Node7 -->
<g id="edge8_Node000003_Node000007" class="edge">
<title>Node3&#45;&gt;Node7</title>
<g id="a_edge8_Node000003_Node000007"><a xlink:title=" ">
<path fill="none" stroke="#63b8ff" d="M229.88,-268C248.42,-283.89 278.82,-308.42 308,-325.25 310.61,-326.75 313.33,-328.22 316.1,-329.63"/>
<polygon fill="#63b8ff" stroke="#63b8ff" points="314.41,-332.7 324.94,-333.87 317.43,-326.39 314.41,-332.7"/>
</a>
</g>
</g>
<!-- Node8 -->
<g id="Node000008" class="node">
<title>Node8</title>
<g id="a_Node000008"><a xlink:href="group__mod__nsslmp_ga5c0f9300bf6b78c4b9d5390e53e45b67.html#ga5c0f9300bf6b78c4b9d5390e53e45b67" target="_top" xlink:title="Main microphysical processes routine.">
<polygon fill="white" stroke="#666666" points="587.5,-281.5 465.75,-281.5 465.75,-251 587.5,-251 587.5,-281.5"/>
<text xml:space="preserve" text-anchor="start" x="473.75" y="-268" font-family="Source Sans Pro" font-size="10.00">module_mp_nssl_2mom</text>
<text xml:space="preserve" text-anchor="middle" x="526.62" y="-256.75" font-family="Source Sans Pro" font-size="10.00">::nssl_2mom_gs</text>
</a>
</g>
</g>
<!-- Node3&#45;&gt;Node8 -->
<g id="edge9_Node000003_Node000008" class="edge">
<title>Node3&#45;&gt;Node8</title>
<g id="a_edge9_Node000003_Node000008"><a xlink:title=" ">
<path fill="none" stroke="#63b8ff" d="M265.19,-236.51C279,-233.09 293.95,-229.98 308,-228.25 361.7,-221.63 376.6,-218.1 429.75,-228.25 439.84,-230.18 460.15,-238.01 479.49,-246.07"/>
<polygon fill="#63b8ff" stroke="#63b8ff" points="478.09,-249.28 488.66,-249.95 480.81,-242.83 478.09,-249.28"/>
</a>
</g>
</g>
<!-- Node19 -->
<g id="Node000019" class="node">
<title>Node19</title>
<g id="a_Node000019"><a xlink:href="group__mod__nsslmp_ga54ee18da58b1936e2dc345bd29b80f12.html#ga54ee18da58b1936e2dc345bd29b80f12" target="_top" xlink:title="Droplet nucleation routine. Explicit condensation/evaporation. Tiny mixing ratio cleanup.">
<polygon fill="white" stroke="#666666" points="429.75,-316.5 308,-316.5 308,-286 429.75,-286 429.75,-316.5"/>
<text xml:space="preserve" text-anchor="start" x="316" y="-303" font-family="Source Sans Pro" font-size="10.00">module_mp_nssl_2mom</text>
<text xml:space="preserve" text-anchor="middle" x="368.88" y="-291.75" font-family="Source Sans Pro" font-size="10.00">::nucond</text>
</a>
</g>
</g>
<!-- Node3&#45;&gt;Node19 -->
<g id="edge32_Node000003_Node000019" class="edge">
<title>Node3&#45;&gt;Node19</title>
<g id="a_edge32_Node000003_Node000019"><a xlink:title=" ">
<path fill="none" stroke="#63b8ff" d="M261.83,-267.89C276.23,-272.42 292.12,-277.42 307.11,-282.13"/>
<polygon fill="#63b8ff" stroke="#63b8ff" points="305.8,-285.39 316.39,-285.05 307.9,-278.71 305.8,-285.39"/>
</a>
</g>
</g>
<!-- Node21 -->
<g id="Node000021" class="node">
<title>Node21</title>
<g id="a_Node000021"><a xlink:href="group__mod__nsslmp_ga028b696f0860f5c6e6d9d062f404faf0.html#ga028b696f0860f5c6e6d9d062f404faf0" target="_top" xlink:title="Radar reflectivity calculation. Assumes ideal Rayleigh scattering.">
<polygon fill="white" stroke="#666666" points="429.75,-267.5 308,-267.5 308,-237 429.75,-237 429.75,-267.5"/>
<text xml:space="preserve" text-anchor="start" x="316" y="-254" font-family="Source Sans Pro" font-size="10.00">module_mp_nssl_2mom</text>
<text xml:space="preserve" text-anchor="middle" x="368.88" y="-242.75" font-family="Source Sans Pro" font-size="10.00">::radardd02</text>
</a>
</g>
</g>
<!-- Node3&#45;&gt;Node21 -->
<g id="edge34_Node000003_Node000021" class="edge">
<title>Node3&#45;&gt;Node21</title>
<g id="a_edge34_Node000003_Node000021"><a xlink:title=" ">
<path fill="none" stroke="#63b8ff" d="M272.34,-252.25C280.2,-252.25 288.3,-252.25 296.32,-252.25"/>
<polygon fill="#63b8ff" stroke="#63b8ff" points="296.05,-255.75 306.05,-252.25 296.05,-248.75 296.05,-255.75"/>
</a>
</g>
</g>
<!-- Node22 -->
<g id="Node000022" class="node">
<title>Node22</title>
<g id="a_Node000022"><a xlink:href="group__mod__nsslmp_gaa88ef817bac1d81c748fd32c9b9be6ea.html#gaa88ef817bac1d81c748fd32c9b9be6ea" target="_top" xlink:title="Sedimentation driver subroutine. Calls fallout column by column.">
<polygon fill="white" stroke="#666666" points="429.75,-181.5 308,-181.5 308,-151 429.75,-151 429.75,-181.5"/>
<text xml:space="preserve" text-anchor="start" x="316" y="-168" font-family="Source Sans Pro" font-size="10.00">module_mp_nssl_2mom</text>
<text xml:space="preserve" text-anchor="middle" x="368.88" y="-156.75" font-family="Source Sans Pro" font-size="10.00">::sediment1d</text>
</a>
</g>
</g>
<!-- Node3&#45;&gt;Node22 -->
<g id="edge35_Node000003_Node000022" class="edge">
<title>Node3&#45;&gt;Node22</title>
<g id="a_edge35_Node000003_Node000022"><a xlink:title=" ">
<path fill="none" stroke="#63b8ff" d="M237.02,-236.65C256.18,-224.85 283.45,-208.46 308,-195.25 313.28,-192.41 318.87,-189.53 324.44,-186.74"/>
<polygon fill="#63b8ff" stroke="#63b8ff" points="325.58,-190.08 333.01,-182.53 322.49,-183.8 325.58,-190.08"/>
</a>
</g>
</g>
<!-- Node5 -->
<g id="Node000005" class="node">
<title>Node5</title>
<g id="a_Node000005"><a xlink:href="group__mod__nsslmp_ga966c94b788d8e8958fff525003f48fd9.html#ga966c94b788d8e8958fff525003f48fd9" target="_top" xlink:title="Single&#45;precision complete gamma function.">
<polygon fill="white" stroke="#666666" points="903,-86.5 781.25,-86.5 781.25,-56 903,-56 903,-86.5"/>
<text xml:space="preserve" text-anchor="start" x="789.25" y="-73" font-family="Source Sans Pro" font-size="10.00">module_mp_nssl_2mom</text>
<text xml:space="preserve" text-anchor="middle" x="842.12" y="-61.75" font-family="Source Sans Pro" font-size="10.00">::gamma_sp</text>
</a>
</g>
</g>
<!-- Node4&#45;&gt;Node5 -->
<g id="edge4_Node000004_Node000005" class="edge">
<title>Node4&#45;&gt;Node5</title>
<g id="a_edge4_Node000004_Node000005"><a xlink:title=" ">
<path fill="none" stroke="#63b8ff" d="M587.67,-11.63C631.91,-10.5 693.17,-12.14 745.25,-25.25 766.35,-30.56 788.35,-40.73 805.94,-50.16"/>
<polygon fill="#63b8ff" stroke="#63b8ff" points="803.98,-53.08 814.42,-54.86 807.37,-46.95 803.98,-53.08"/>
</a>
</g>
</g>
<!-- Node5&#45;&gt;Node5 -->
<g id="edge5_Node000005_Node000005" class="edge">
<title>Node5&#45;&gt;Node5</title>
<g id="a_edge5_Node000005_Node000005"><a xlink:title=" ">
<path fill="none" stroke="#63b8ff" d="M814.17,-86.99C808.47,-96.06 817.78,-104.5 842.12,-104.5 855.44,-104.5 864.25,-101.97 868.58,-98.2"/>
<polygon fill="#63b8ff" stroke="#63b8ff" points="872.02,-98.86 869.88,-88.49 865.08,-97.93 872.02,-98.86"/>
</a>
</g>
</g>
<!-- Node8&#45;&gt;Node5 -->
<g id="edge22_Node000008_Node000005" class="edge">
<title>Node8&#45;&gt;Node5</title>
<g id="a_edge22_Node000008_Node000005"><a xlink:title=" ">
<path fill="none" stroke="#63b8ff" d="M574.02,-250.52C579.05,-247.38 583.71,-243.66 587.5,-239.25 626.05,-194.46 579.83,-151.06 623.5,-111.25 644.61,-92 714.67,-81.62 769.66,-76.29"/>
<polygon fill="#63b8ff" stroke="#63b8ff" points="769.65,-79.81 779.28,-75.4 769,-72.84 769.65,-79.81"/>
</a>
</g>
</g>
<!-- Node9 -->
<g id="Node000009" class="node">
<title>Node9</title>
<g id="a_Node000009"><a xlink:href="group__mod__nsslmp_gacfb4b38156737aa351dcc8dd1a3492c5.html#gacfb4b38156737aa351dcc8dd1a3492c5" target="_top" xlink:title="Function calculates collection coefficients following Siefert (2006).">
<polygon fill="white" stroke="#666666" points="745.25,-150.5 623.5,-150.5 623.5,-120 745.25,-120 745.25,-150.5"/>
<text xml:space="preserve" text-anchor="start" x="631.5" y="-137" font-family="Source Sans Pro" font-size="10.00">module_mp_nssl_2mom</text>
<text xml:space="preserve" text-anchor="middle" x="684.38" y="-125.75" font-family="Source Sans Pro" font-size="10.00">::delabk</text>
</a>
</g>
</g>
<!-- Node8&#45;&gt;Node9 -->
<g id="edge10_Node000008_Node000009" class="edge">
<title>Node8&#45;&gt;Node9</title>
<g id="a_edge10_Node000008_Node000009"><a xlink:title=" ">
<path fill="none" stroke="#63b8ff" d="M571.14,-250.53C577.01,-247.33 582.66,-243.59 587.5,-239.25 610.94,-218.24 602.26,-201.49 623.5,-178.25 630.46,-170.63 638.98,-163.55 647.38,-157.41"/>
<polygon fill="#63b8ff" stroke="#63b8ff" points="649.28,-160.36 655.49,-151.78 645.28,-154.61 649.28,-160.36"/>
</a>
</g>
</g>
<!-- Node10 -->
<g id="Node000010" class="node">
<title>Node10</title>
<g id="a_Node000010"><a xlink:href="group__mod__nsslmp_ga0dabeda97fcbc7690787bb712eb2c267.html#ga0dabeda97fcbc7690787bb712eb2c267" target="_top" xlink:title="Function calculates collection coefficients following Siefert (2006).">
<polygon fill="white" stroke="#666666" points="745.25,-619.5 623.5,-619.5 623.5,-589 745.25,-589 745.25,-619.5"/>
<text xml:space="preserve" text-anchor="start" x="631.5" y="-606" font-family="Source Sans Pro" font-size="10.00">module_mp_nssl_2mom</text>
<text xml:space="preserve" text-anchor="middle" x="684.38" y="-594.75" font-family="Source Sans Pro" font-size="10.00">::delbk</text>
</a>
</g>
</g>
<!-- Node8&#45;&gt;Node10 -->
<g id="edge12_Node000008_Node000010" class="edge">
<title>Node8&#45;&gt;Node10</title>
<g id="a_edge12_Node000008_Node000010"><a xlink:title=" ">
<path fill="none" stroke="#63b8ff" d="M577.75,-281.95C581.44,-284.59 584.77,-287.66 587.5,-291.25 665.55,-393.96 545.45,-476.54 623.5,-579.25 623.93,-579.81 624.37,-580.36 624.82,-580.89"/>
<polygon fill="#63b8ff" stroke="#63b8ff" points="622.38,-583.4 632.13,-587.53 627.08,-578.22 622.38,-583.4"/>
</a>
</g>
</g>
<!-- Node11 -->
<g id="Node000011" class="node">
<title>Node11</title>
<g id="a_Node000011"><a xlink:href="group__mod__nsslmp_ga6d0f1fb5cc9fda3d99aa187d63368fe9.html#ga6d0f1fb5cc9fda3d99aa187d63368fe9" target="_top" xlink:title="Function to interpolate from a table of incomplete gamma function values.">
<polygon fill="white" stroke="#666666" points="745.25,-552.5 623.5,-552.5 623.5,-522 745.25,-522 745.25,-552.5"/>
<text xml:space="preserve" text-anchor="start" x="631.5" y="-539" font-family="Source Sans Pro" font-size="10.00">module_mp_nssl_2mom</text>
<text xml:space="preserve" text-anchor="middle" x="684.38" y="-527.75" font-family="Source Sans Pro" font-size="10.00">::gaminterp</text>
</a>
</g>
</g>
<!-- Node8&#45;&gt;Node11 -->
<g id="edge14_Node000008_Node000011" class="edge">
<title>Node8&#45;&gt;Node11</title>
<g id="a_edge14_Node000008_Node000011"><a xlink:title=" ">
<path fill="none" stroke="#63b8ff" d="M577.33,-281.86C581.16,-284.52 584.64,-287.63 587.5,-291.25 649.17,-369.35 561.83,-434.15 623.5,-512.25 624.04,-512.93 624.6,-513.59 625.17,-514.23"/>
<polygon fill="#63b8ff" stroke="#63b8ff" points="622.69,-516.71 632.53,-520.64 627.29,-511.44 622.69,-516.71"/>
</a>
</g>
</g>
<!-- Node12 -->
<g id="Node000012" class="node">
<title>Node12</title>
<g id="a_Node000012"><a xlink:href="group__mod__nsslmp_gab0a066fab5da9d3bb15ed2a2722b47e6.html#gab0a066fab5da9d3bb15ed2a2722b47e6" target="_top" xlink:title="Function calculates Gamma(0.2,x)/Gamma[0.2] for 40 micro drops ( imurain == 3 ).">
<polygon fill="white" stroke="#666666" points="745.25,-418.5 623.5,-418.5 623.5,-388 745.25,-388 745.25,-418.5"/>
<text xml:space="preserve" text-anchor="start" x="631.5" y="-405" font-family="Source Sans Pro" font-size="10.00">module_mp_nssl_2mom</text>
<text xml:space="preserve" text-anchor="middle" x="684.38" y="-393.75" font-family="Source Sans Pro" font-size="10.00">::gaml02</text>
</a>
</g>
</g>
<!-- Node8&#45;&gt;Node12 -->
<g id="edge16_Node000008_Node000012" class="edge">
<title>Node8&#45;&gt;Node12</title>
<g id="a_edge16_Node000008_Node000012"><a xlink:title=" ">
<path fill="none" stroke="#63b8ff" d="M575.31,-281.89C579.75,-284.56 583.92,-287.66 587.5,-291.25 617.04,-320.89 593.96,-348.61 623.5,-378.25 624.51,-379.26 625.56,-380.23 626.65,-381.16"/>
<polygon fill="#63b8ff" stroke="#63b8ff" points="624.29,-383.78 634.46,-386.73 628.35,-378.08 624.29,-383.78"/>
</a>
</g>
</g>
<!-- Node13 -->
<g id="Node000013" class="node">
<title>Node13</title>
<g id="a_Node000013"><a xlink:href="group__mod__nsslmp_gac1cafe76bb3fb3c6188460773d4ad989.html#gac1cafe76bb3fb3c6188460773d4ad989" target="_top" xlink:title="Function calculates fraction of drops larger than 300 microns ( imurain == 3 ).">
<polygon fill="white" stroke="#666666" points="745.25,-351.5 623.5,-351.5 623.5,-321 745.25,-321 745.25,-351.5"/>
<text xml:space="preserve" text-anchor="start" x="631.5" y="-338" font-family="Source Sans Pro" font-size="10.00">module_mp_nssl_2mom</text>
<text xml:space="preserve" text-anchor="middle" x="684.38" y="-326.75" font-family="Source Sans Pro" font-size="10.00">::gaml02d300</text>
</a>
</g>
</g>
<!-- Node8&#45;&gt;Node13 -->
<g id="edge18_Node000008_Node000013" class="edge">
<title>Node8&#45;&gt;Node13</title>
<g id="a_edge18_Node000008_Node000013"><a xlink:title=" ">
<path fill="none" stroke="#63b8ff" d="M566.88,-281.9C573.81,-284.87 580.91,-288.06 587.5,-291.25 603.97,-299.23 607.03,-303.27 623.5,-311.25 626.79,-312.85 630.22,-314.44 633.68,-316.01"/>
<polygon fill="#63b8ff" stroke="#63b8ff" points="632.17,-319.17 642.74,-319.99 634.99,-312.76 632.17,-319.17"/>
</a>
</g>
</g>
<!-- Node14 -->
<g id="Node000014" class="node">
<title>Node14</title>
<g id="a_Node000014"><a xlink:href="group__mod__nsslmp_ga61f606380174ead05eccd18a0de55b54.html#ga61f606380174ead05eccd18a0de55b54" target="_top" xlink:title="Function calculates Gamma(0.2,x)/Gamma[0.2] for 500 micro drops ( imurain == 3 ).">
<polygon fill="white" stroke="#666666" points="745.25,-217.5 623.5,-217.5 623.5,-187 745.25,-187 745.25,-217.5"/>
<text xml:space="preserve" text-anchor="start" x="631.5" y="-204" font-family="Source Sans Pro" font-size="10.00">module_mp_nssl_2mom</text>
<text xml:space="preserve" text-anchor="middle" x="684.38" y="-192.75" font-family="Source Sans Pro" font-size="10.00">::gaml02d500</text>
</a>
</g>
</g>
<!-- Node8&#45;&gt;Node14 -->
<g id="edge20_Node000008_Node000014" class="edge">
<title>Node8&#45;&gt;Node14</title>
<g id="a_edge20_Node000008_Node000014"><a xlink:title=" ">
<path fill="none" stroke="#63b8ff" d="M565.73,-250.59C586.47,-242.07 612.35,-231.43 634.56,-222.31"/>
<polygon fill="#63b8ff" stroke="#63b8ff" points="635.81,-225.58 643.73,-218.54 633.15,-219.11 635.81,-225.58"/>
</a>
</g>
</g>
<!-- Node15 -->
<g id="Node000015" class="node">
<title>Node15</title>
<g id="a_Node000015"><a xlink:href="group__mod__nsslmp_gafc90cf2417f6132ce54c2cf378dd2098.html#gafc90cf2417f6132ce54c2cf378dd2098" target="_top" xlink:title="single&#45;precision incomplete gamma function (single precision args)">
<polygon fill="white" stroke="#666666" points="745.25,-284.5 623.5,-284.5 623.5,-254 745.25,-254 745.25,-284.5"/>
<text xml:space="preserve" text-anchor="start" x="631.5" y="-271" font-family="Source Sans Pro" font-size="10.00">module_mp_nssl_2mom</text>
<text xml:space="preserve" text-anchor="middle" x="684.38" y="-259.75" font-family="Source Sans Pro" font-size="10.00">::gamxinf</text>
</a>
</g>
</g>
<!-- Node8&#45;&gt;Node15 -->
<g id="edge23_Node000008_Node000015" class="edge">
<title>Node8&#45;&gt;Node15</title>
<g id="a_edge23_Node000008_Node000015"><a xlink:title=" ">
<path fill="none" stroke="#63b8ff" d="M587.84,-267.41C595.7,-267.56 603.8,-267.72 611.82,-267.87"/>
<polygon fill="#63b8ff" stroke="#63b8ff" points="611.48,-271.37 621.55,-268.06 611.62,-264.37 611.48,-271.37"/>
</a>
</g>
</g>
<!-- Node16 -->
<g id="Node000016" class="node">
<title>Node16</title>
<g id="a_Node000016"><a xlink:href="group__mod__nsslmp_gaaf4043a7ae72d6c12e0326a9d3c16dd0.html#gaaf4043a7ae72d6c12e0326a9d3c16dd0" target="_top" xlink:title="Double&#45;precision incomplete gamma function (single precision args).">
<polygon fill="white" stroke="#666666" points="745.25,-485.5 623.5,-485.5 623.5,-455 745.25,-455 745.25,-485.5"/>
<text xml:space="preserve" text-anchor="start" x="631.5" y="-472" font-family="Source Sans Pro" font-size="10.00">module_mp_nssl_2mom</text>
<text xml:space="preserve" text-anchor="middle" x="684.38" y="-460.75" font-family="Source Sans Pro" font-size="10.00">::gamxinfdp</text>
</a>
</g>
</g>
<!-- Node8&#45;&gt;Node16 -->
<g id="edge26_Node000008_Node000016" class="edge">
<title>Node8&#45;&gt;Node16</title>
<g id="a_edge26_Node000008_Node000016"><a xlink:title=" ">
<path fill="none" stroke="#63b8ff" d="M576.79,-281.88C580.78,-284.54 584.44,-287.64 587.5,-291.25 632.91,-344.9 578.09,-391.6 623.5,-445.25 624.17,-446.04 624.87,-446.81 625.59,-447.55"/>
<polygon fill="#63b8ff" stroke="#63b8ff" points="623.09,-450.02 633.04,-453.66 627.53,-444.61 623.09,-450.02"/>
</a>
</g>
</g>
<!-- Node18 -->
<g id="Node000018" class="node">
<title>Node18</title>
<g id="a_Node000018"><a xlink:href="group__mod__nsslmp_ga9df936b176c8bb5adfa0a7fee691e57c.html#ga9df936b176c8bb5adfa0a7fee691e57c" target="_top" xlink:title="Mean hydrometeor size and fall speed calculations.">
<polygon fill="white" stroke="#666666" points="745.25,-64.5 623.5,-64.5 623.5,-34 745.25,-34 745.25,-64.5"/>
<text xml:space="preserve" text-anchor="start" x="631.5" y="-51" font-family="Source Sans Pro" font-size="10.00">module_mp_nssl_2mom</text>
<text xml:space="preserve" text-anchor="middle" x="684.38" y="-39.75" font-family="Source Sans Pro" font-size="10.00">::setvtz</text>
</a>
</g>
</g>
<!-- Node8&#45;&gt;Node18 -->
<g id="edge30_Node000008_Node000018" class="edge">
<title>Node8&#45;&gt;Node18</title>
<g id="a_edge30_Node000008_Node000018"><a xlink:title=" ">
<path fill="none" stroke="#63b8ff" d="M574.55,-250.52C579.42,-247.39 583.9,-243.67 587.5,-239.25 633.81,-182.4 577.98,-135.73 623.5,-78.25 625.48,-75.75 627.74,-73.44 630.18,-71.33"/>
<polygon fill="#63b8ff" stroke="#63b8ff" points="631.84,-74.45 637.87,-65.74 627.72,-68.79 631.84,-74.45"/>
</a>
</g>
</g>
<!-- Node9&#45;&gt;Node9 -->
<g id="edge11_Node000009_Node000009" class="edge">
<title>Node9&#45;&gt;Node9</title>
<g id="a_edge11_Node000009_Node000009"><a xlink:title=" ">
<path fill="none" stroke="#63b8ff" d="M656.42,-150.99C650.72,-160.06 660.03,-168.5 684.38,-168.5 697.69,-168.5 706.5,-165.97 710.83,-162.2"/>
<polygon fill="#63b8ff" stroke="#63b8ff" points="714.27,-162.86 712.13,-152.49 707.33,-161.93 714.27,-162.86"/>
</a>
</g>
</g>
<!-- Node10&#45;&gt;Node10 -->
<g id="edge13_Node000010_Node000010" class="edge">
<title>Node10&#45;&gt;Node10</title>
<g id="a_edge13_Node000010_Node000010"><a xlink:title=" ">
<path fill="none" stroke="#63b8ff" d="M656.42,-619.99C650.72,-629.06 660.03,-637.5 684.38,-637.5 697.69,-637.5 706.5,-634.97 710.83,-631.2"/>
<polygon fill="#63b8ff" stroke="#63b8ff" points="714.27,-631.86 712.13,-621.49 707.33,-630.93 714.27,-631.86"/>
</a>
</g>
</g>
<!-- Node11&#45;&gt;Node11 -->
<g id="edge15_Node000011_Node000011" class="edge">
<title>Node11&#45;&gt;Node11</title>
<g id="a_edge15_Node000011_Node000011"><a xlink:title=" ">
<path fill="none" stroke="#63b8ff" d="M656.42,-552.99C650.72,-562.06 660.03,-570.5 684.38,-570.5 697.69,-570.5 706.5,-567.97 710.83,-564.2"/>
<polygon fill="#63b8ff" stroke="#63b8ff" points="714.27,-564.86 712.13,-554.49 707.33,-563.93 714.27,-564.86"/>
</a>
</g>
</g>
<!-- Node12&#45;&gt;Node12 -->
<g id="edge17_Node000012_Node000012" class="edge">
<title>Node12&#45;&gt;Node12</title>
<g id="a_edge17_Node000012_Node000012"><a xlink:title=" ">
<path fill="none" stroke="#63b8ff" d="M656.42,-418.99C650.72,-428.06 660.03,-436.5 684.38,-436.5 697.69,-436.5 706.5,-433.97 710.83,-430.2"/>
<polygon fill="#63b8ff" stroke="#63b8ff" points="714.27,-430.86 712.13,-420.49 707.33,-429.93 714.27,-430.86"/>
</a>
</g>
</g>
<!-- Node13&#45;&gt;Node13 -->
<g id="edge19_Node000013_Node000013" class="edge">
<title>Node13&#45;&gt;Node13</title>
<g id="a_edge19_Node000013_Node000013"><a xlink:title=" ">
<path fill="none" stroke="#63b8ff" d="M656.42,-351.99C650.72,-361.06 660.03,-369.5 684.38,-369.5 697.69,-369.5 706.5,-366.97 710.83,-363.2"/>
<polygon fill="#63b8ff" stroke="#63b8ff" points="714.27,-363.86 712.13,-353.49 707.33,-362.93 714.27,-363.86"/>
</a>
</g>
</g>
<!-- Node14&#45;&gt;Node14 -->
<g id="edge21_Node000014_Node000014" class="edge">
<title>Node14&#45;&gt;Node14</title>
<g id="a_edge21_Node000014_Node000014"><a xlink:title=" ">
<path fill="none" stroke="#63b8ff" d="M656.42,-217.99C650.72,-227.06 660.03,-235.5 684.38,-235.5 697.69,-235.5 706.5,-232.97 710.83,-229.2"/>
<polygon fill="#63b8ff" stroke="#63b8ff" points="714.27,-229.86 712.13,-219.49 707.33,-228.93 714.27,-229.86"/>
</a>
</g>
</g>
<!-- Node15&#45;&gt;Node5 -->
<g id="edge24_Node000015_Node000005" class="edge">
<title>Node15&#45;&gt;Node5</title>
<g id="a_edge24_Node000015_Node000005"><a xlink:title=" ">
<path fill="none" stroke="#63b8ff" d="M732.05,-253.53C736.79,-250.86 741.31,-247.78 745.25,-244.25 791.16,-203.15 819.81,-134.67 832.85,-97.39"/>
<polygon fill="#63b8ff" stroke="#63b8ff" points="836.03,-98.91 835.91,-88.32 829.39,-96.67 836.03,-98.91"/>
</a>
</g>
</g>
<!-- Node15&#45;&gt;Node15 -->
<g id="edge25_Node000015_Node000015" class="edge">
<title>Node15&#45;&gt;Node15</title>
<g id="a_edge25_Node000015_Node000015"><a xlink:title=" ">
<path fill="none" stroke="#63b8ff" d="M656.42,-284.99C650.72,-294.06 660.03,-302.5 684.38,-302.5 697.69,-302.5 706.5,-299.97 710.83,-296.2"/>
<polygon fill="#63b8ff" stroke="#63b8ff" points="714.27,-296.86 712.13,-286.49 707.33,-295.93 714.27,-296.86"/>
</a>
</g>
</g>
<!-- Node16&#45;&gt;Node16 -->
<g id="edge29_Node000016_Node000016" class="edge">
<title>Node16&#45;&gt;Node16</title>
<g id="a_edge29_Node000016_Node000016"><a xlink:title=" ">
<path fill="none" stroke="#63b8ff" d="M656.42,-485.99C650.72,-495.06 660.03,-503.5 684.38,-503.5 697.69,-503.5 706.5,-500.97 710.83,-497.2"/>
<polygon fill="#63b8ff" stroke="#63b8ff" points="714.27,-497.86 712.13,-487.49 707.33,-496.93 714.27,-497.86"/>
</a>
</g>
</g>
<!-- Node17 -->
<g id="Node000017" class="node">
<title>Node17</title>
<g id="a_Node000017"><a xlink:href="group__mod__nsslmp_ga316422c2efdacd1dbdc0c1418350eaf6.html#ga316422c2efdacd1dbdc0c1418350eaf6" target="_top" xlink:title="Douple&#45;precision complete gamma function (double precision argument).">
<polygon fill="white" stroke="#666666" points="903,-485.5 781.25,-485.5 781.25,-455 903,-455 903,-485.5"/>
<text xml:space="preserve" text-anchor="start" x="789.25" y="-472" font-family="Source Sans Pro" font-size="10.00">module_mp_nssl_2mom</text>
<text xml:space="preserve" text-anchor="middle" x="842.12" y="-460.75" font-family="Source Sans Pro" font-size="10.00">::gamma_dp</text>
</a>
</g>
</g>
<!-- Node16&#45;&gt;Node17 -->
<g id="edge27_Node000016_Node000017" class="edge">
<title>Node16&#45;&gt;Node17</title>
<g id="a_edge27_Node000016_Node000017"><a xlink:title=" ">
<path fill="none" stroke="#63b8ff" d="M745.59,-470.25C753.45,-470.25 761.55,-470.25 769.57,-470.25"/>
<polygon fill="#63b8ff" stroke="#63b8ff" points="769.3,-473.75 779.3,-470.25 769.3,-466.75 769.3,-473.75"/>
</a>
</g>
</g>
<!-- Node17&#45;&gt;Node17 -->
<g id="edge28_Node000017_Node000017" class="edge">
<title>Node17&#45;&gt;Node17</title>
<g id="a_edge28_Node000017_Node000017"><a xlink:title=" ">
<path fill="none" stroke="#63b8ff" d="M814.17,-485.99C808.47,-495.06 817.78,-503.5 842.12,-503.5 855.44,-503.5 864.25,-500.97 868.58,-497.2"/>
<polygon fill="#63b8ff" stroke="#63b8ff" points="872.02,-497.86 869.88,-487.49 865.08,-496.93 872.02,-497.86"/>
</a>
</g>
</g>
<!-- Node18&#45;&gt;Node5 -->
<g id="edge31_Node000018_Node000005" class="edge">
<title>Node18&#45;&gt;Node5</title>
<g id="a_edge31_Node000018_Node000005"><a xlink:title=" ">
<path fill="none" stroke="#63b8ff" d="M745.59,-57.76C753.45,-58.87 761.55,-60.01 769.57,-61.14"/>
<polygon fill="#63b8ff" stroke="#63b8ff" points="768.92,-64.59 779.31,-62.52 769.9,-57.65 768.92,-64.59"/>
</a>
</g>
</g>
<!-- Node20 -->
<g id="Node000020" class="node">
<title>Node20</title>
<g id="a_Node000020"><a xlink:href="group__mod__nsslmp_ga9508fcfd1b4336c24e0829c5398f250b.html#ga9508fcfd1b4336c24e0829c5398f250b" target="_top" xlink:title="Subroutine that returns the maximum possible condensation.">
<polygon fill="white" stroke="#666666" points="587.5,-330.5 465.75,-330.5 465.75,-300 587.5,-300 587.5,-330.5"/>
<text xml:space="preserve" text-anchor="start" x="473.75" y="-317" font-family="Source Sans Pro" font-size="10.00">module_mp_nssl_2mom</text>
<text xml:space="preserve" text-anchor="middle" x="526.62" y="-305.75" font-family="Source Sans Pro" font-size="10.00">::qvexcess</text>
</a>
</g>
</g>
<!-- Node19&#45;&gt;Node20 -->
<g id="edge33_Node000019_Node000020" class="edge">
<title>Node19&#45;&gt;Node20</title>
<g id="a_edge33_Node000019_Node000020"><a xlink:title=" ">
<path fill="none" stroke="#63b8ff" d="M430.09,-306.66C437.95,-307.37 446.05,-308.1 454.07,-308.82"/>
<polygon fill="#63b8ff" stroke="#63b8ff" points="453.53,-312.28 463.8,-309.69 454.16,-305.31 453.53,-312.28"/>
</a>
</g>
</g>
<!-- Node23 -->
<g id="Node000023" class="node">
<title>Node23</title>
<g id="a_Node000023"><a xlink:href="group__mod__nsslmp_ga0cb30e0249d14d780428d4d9bd829003.html#ga0cb30e0249d14d780428d4d9bd829003" target="_top" xlink:title="Subroutine to correct number concentration to prevent reflectivity growth.">
<polygon fill="white" stroke="#666666" points="587.5,-132.5 465.75,-132.5 465.75,-102 587.5,-102 587.5,-132.5"/>
<text xml:space="preserve" text-anchor="start" x="473.75" y="-119" font-family="Source Sans Pro" font-size="10.00">module_mp_nssl_2mom</text>
<text xml:space="preserve" text-anchor="middle" x="526.62" y="-107.75" font-family="Source Sans Pro" font-size="10.00">::calcnfromz1d</text>
</a>
</g>
</g>
<!-- Node22&#45;&gt;Node23 -->
<g id="edge36_Node000022_Node000023" class="edge">
<title>Node22&#45;&gt;Node23</title>
<g id="a_edge36_Node000022_Node000023"><a xlink:title=" ">
<path fill="none" stroke="#63b8ff" d="M419.58,-150.61C433.98,-146.08 449.87,-141.08 464.86,-136.37"/>
<polygon fill="#63b8ff" stroke="#63b8ff" points="465.65,-139.79 474.14,-133.45 463.55,-133.11 465.65,-139.79"/>
</a>
</g>
</g>
<!-- Node24 -->
<g id="Node000024" class="node">
<title>Node24</title>
<g id="a_Node000024"><a xlink:href="group__mod__nsslmp_ga416d221e65719addcd9254cf20e3c0eb.html#ga416d221e65719addcd9254cf20e3c0eb" target="_top" xlink:title="Calculates temporary reflectivity moment for adaptive size&#45;sorting limiter.">
<polygon fill="white" stroke="#666666" points="587.5,-83.5 465.75,-83.5 465.75,-53 587.5,-53 587.5,-83.5"/>
<text xml:space="preserve" text-anchor="start" x="473.75" y="-70" font-family="Source Sans Pro" font-size="10.00">module_mp_nssl_2mom</text>
<text xml:space="preserve" text-anchor="middle" x="526.62" y="-58.75" font-family="Source Sans Pro" font-size="10.00">::calczgr1d</text>
</a>
</g>
</g>
<!-- Node22&#45;&gt;Node24 -->
<g id="edge37_Node000022_Node000024" class="edge">
<title>Node22&#45;&gt;Node24</title>
<g id="a_edge37_Node000022_Node000024"><a xlink:title=" ">
<path fill="none" stroke="#63b8ff" d="M408.72,-150.5C416.05,-146.7 423.4,-142.26 429.75,-137.25 449.59,-121.6 445.49,-108.35 465.75,-93.25 467.51,-91.94 469.35,-90.68 471.25,-89.48"/>
<polygon fill="#63b8ff" stroke="#63b8ff" points="472.8,-92.62 479.79,-84.65 469.36,-86.52 472.8,-92.62"/>
</a>
</g>
</g>
<!-- Node25 -->
<g id="Node000025" class="node">
<title>Node25</title>
<g id="a_Node000025"><a xlink:href="group__mod__nsslmp_gae621d5fefce44abf9ff804cb6d0c5913.html#gae621d5fefce44abf9ff804cb6d0c5913" target="_top" xlink:title="Column sedimentation fallout subroutine.">
<polygon fill="white" stroke="#666666" points="587.5,-181.5 465.75,-181.5 465.75,-151 587.5,-151 587.5,-181.5"/>
<text xml:space="preserve" text-anchor="start" x="473.75" y="-168" font-family="Source Sans Pro" font-size="10.00">module_mp_nssl_2mom</text>
<text xml:space="preserve" text-anchor="middle" x="526.62" y="-156.75" font-family="Source Sans Pro" font-size="10.00">::fallout1d</text>
</a>
</g>
</g>
<!-- Node22&#45;&gt;Node25 -->
<g id="edge38_Node000022_Node000025" class="edge">
<title>Node22&#45;&gt;Node25</title>
<g id="a_edge38_Node000022_Node000025"><a xlink:title=" ">
<path fill="none" stroke="#63b8ff" d="M430.09,-166.25C437.95,-166.25 446.05,-166.25 454.07,-166.25"/>
<polygon fill="#63b8ff" stroke="#63b8ff" points="453.8,-169.75 463.8,-166.25 453.8,-162.75 453.8,-169.75"/>
</a>
</g>
</g>
<!-- Node26 -->
<g id="Node000026" class="node">
<title>Node26</title>
<g id="a_Node000026"><a xlink:href="group__mod__nsslmp_ga4ea70fd73f9b7e8dd2472e073f46ca5c.html#ga4ea70fd73f9b7e8dd2472e073f46ca5c" target="_top" xlink:title="Column&#45;wise front end to setvtz for sedimentation.">
<polygon fill="white" stroke="#666666" points="587.5,-230.5 465.75,-230.5 465.75,-200 587.5,-200 587.5,-230.5"/>
<text xml:space="preserve" text-anchor="start" x="473.75" y="-217" font-family="Source Sans Pro" font-size="10.00">module_mp_nssl_2mom</text>
<text xml:space="preserve" text-anchor="middle" x="526.62" y="-205.75" font-family="Source Sans Pro" font-size="10.00">::ziegfall1d</text>
</a>
</g>
</g>
<!-- Node22&#45;&gt;Node26 -->
<g id="edge39_Node000022_Node000026" class="edge">
<title>Node22&#45;&gt;Node26</title>
<g id="a_edge39_Node000022_Node000026"><a xlink:title=" ">
<path fill="none" stroke="#63b8ff" d="M419.58,-181.89C433.98,-186.42 449.87,-191.42 464.86,-196.13"/>
<polygon fill="#63b8ff" stroke="#63b8ff" points="463.55,-199.39 474.14,-199.05 465.65,-192.71 463.55,-199.39"/>
</a>
</g>
</g>
<!-- Node26&#45;&gt;Node18 -->
<g id="edge40_Node000026_Node000018" class="edge">
<title>Node26&#45;&gt;Node18</title>
<g id="a_edge40_Node000026_Node000018"><a xlink:title=" ">
<path fill="none" stroke="#63b8ff" d="M576.19,-199.54C580.36,-196.89 584.22,-193.82 587.5,-190.25 622.88,-151.75 589.21,-117.72 623.5,-78.25 625.67,-75.76 628.1,-73.46 630.7,-71.34"/>
<polygon fill="#63b8ff" stroke="#63b8ff" points="632.64,-74.26 638.88,-65.7 628.66,-68.5 632.64,-74.26"/>
</a>
</g>
</g>
</g>
</svg>
