<?xml version="1.0" encoding="UTF-8" standalone="no"?>
<!DOCTYPE svg PUBLIC "-//W3C//DTD SVG 1.1//EN"
 "http://www.w3.org/Graphics/SVG/1.1/DTD/svg11.dtd">
<!-- Generated by graphviz version 14.1.2 (20260124.0452)
 -->
<!-- Title: module_nst_water_prop::grv Pages: 1 -->
<svg width="288pt" height="45pt"
 viewBox="0.00 0.00 288.00 45.00" xmlns="http://www.w3.org/2000/svg" xmlns:xlink="http://www.w3.org/1999/xlink">
<g id="graph0" class="graph" transform="scale(1 1) rotate(0) translate(4 41.25)">
<title>module_nst_water_prop::grv</title>
<!-- Node1 -->
<g id="Node000001" class="node">
<title>Node1</title>
<g id="a_Node000001"><a xlink:title=" ">
<polygon fill="#999999" stroke="#666666" points="280.25,-19.25 141.25,-19.25 141.25,0 280.25,0 280.25,-19.25"/>
<text xml:space="preserve" text-anchor="middle" x="210.75" y="-5.75" font-family="Source Sans Pro" font-size="10.00">module_nst_water_prop::grv</text>
</a>
</g>
</g>
<!-- Node1&#45;&gt;Node1 -->
<g id="edge1_Node000001_Node000001" class="edge">
<title>Node1&#45;&gt;Node1</title>
<g id="a_edge1_Node000001_Node000001"><a xlink:title=" ">
<path fill="none" stroke="#63b8ff" d="M239.1,-30.32C235.84,-34.37 226.38,-37.25 210.75,-37.25 182.95,-37.25 174.7,-28.15 185.99,-19.54"/>
<polygon fill="#63b8ff" stroke="#63b8ff" points="242.47,-29.35 235.98,-20.97 235.83,-31.57 242.47,-29.35"/>
</a>
</g>
</g>
<!-- Node2 -->
<g id="Node000002" class="node">
<title>Node2</title>
<g id="a_Node000002"><a xlink:href="group__gfs__nst__main__mod_gac3a5be259ff62716070a38364d88cac4.html#gac3a5be259ff62716070a38364d88cac4" target="_top" xlink:title=" ">
<polygon fill="white" stroke="#666666" points="105.25,-19.25 0,-19.25 0,0 105.25,0 105.25,-19.25"/>
<text xml:space="preserve" text-anchor="middle" x="52.62" y="-5.75" font-family="Source Sans Pro" font-size="10.00">sfc_nst::sfc_nst_run</text>
</a>
</g>
</g>
<!-- Node1&#45;&gt;Node2 -->
<g id="edge2_Node000001_Node000002" class="edge">
<title>Node1&#45;&gt;Node2</title>
<g id="a_edge2_Node000001_Node000002"><a xlink:title=" ">
<path fill="none" stroke="#63b8ff" d="M129.3,-9.62C121.15,-9.62 113.03,-9.62 105.31,-9.62"/>
<polygon fill="#63b8ff" stroke="#63b8ff" points="129.3,-13.13 139.3,-9.63 129.3,-6.13 129.3,-13.13"/>
</a>
</g>
</g>
</g>
</svg>
