<?xml version="1.0" encoding="UTF-8" standalone="no"?>
<!DOCTYPE svg PUBLIC "-//W3C//DTD SVG 1.1//EN"
 "http://www.w3.org/Graphics/SVG/1.1/DTD/svg11.dtd">
<!-- Generated by graphviz version 14.1.2 (20260124.0452)
 -->
<!-- Title: module_sf_mynn::li_etal_2010 Pages: 1 -->
<svg width="668pt" height="125pt"
 viewBox="0.00 0.00 668.00 125.00" xmlns="http://www.w3.org/2000/svg" xmlns:xlink="http://www.w3.org/1999/xlink">
<g id="graph0" class="graph" transform="scale(1 1) rotate(0) translate(4 120.88)">
<title>module_sf_mynn::li_etal_2010</title>
<!-- Node1 -->
<g id="Node000001" class="node">
<title>Node1</title>
<g id="a_Node000001"><a xlink:title="This subroutine returns a more robust z/L that best matches the z/L from Hogstrom (1996) for unstable...">
<polygon fill="#999999" stroke="#666666" points="659.5,-61.88 558.75,-61.88 558.75,-31.38 659.5,-31.38 659.5,-61.88"/>
<text xml:space="preserve" text-anchor="start" x="566.75" y="-48.38" font-family="Source Sans Pro" font-size="10.00">module_sf_mynn::li</text>
<text xml:space="preserve" text-anchor="middle" x="609.12" y="-37.12" font-family="Source Sans Pro" font-size="10.00">_etal_2010</text>
</a>
</g>
</g>
<!-- Node2 -->
<g id="Node000002" class="node">
<title>Node2</title>
<g id="a_Node000002"><a xlink:href="group__mynn__sfc_ga51403acc4b5f2876fedbb82b29a2dc2e.html#ga51403acc4b5f2876fedbb82b29a2dc2e" target="_top" xlink:title="This subroutine calculates u*, z/L, and the exchange coefficients which are passed to subsequent sche...">
<polygon fill="white" stroke="#666666" points="522.75,-111.25 360.5,-111.25 360.5,-92 522.75,-92 522.75,-111.25"/>
<text xml:space="preserve" text-anchor="middle" x="441.62" y="-97.75" font-family="Source Sans Pro" font-size="10.00">module_sf_mynn::sfclay1d_mynn</text>
</a>
</g>
</g>
<!-- Node1&#45;&gt;Node2 -->
<g id="edge1_Node000001_Node000002" class="edge">
<title>Node1&#45;&gt;Node2</title>
<g id="a_edge1_Node000001_Node000002"><a xlink:title=" ">
<path fill="none" stroke="#63b8ff" d="M565.44,-66.99C551.99,-72.91 536.93,-79.01 522.75,-83.62 513.67,-86.58 503.85,-89.23 494.31,-91.52"/>
<polygon fill="#63b8ff" stroke="#63b8ff" points="566.77,-70.23 574.46,-62.95 563.91,-63.85 566.77,-70.23"/>
</a>
</g>
</g>
<!-- Node5 -->
<g id="Node000005" class="node">
<title>Node5</title>
<g id="a_Node000005"><a xlink:href="group__mynn__sfc_ga7dc700e2a42a18333d87dcc7ccabfaff.html#ga7dc700e2a42a18333d87dcc7ccabfaff" target="_top" xlink:title=" ">
<polygon fill="white" stroke="#666666" points="498.75,-56.25 384.5,-56.25 384.5,-37 498.75,-37 498.75,-56.25"/>
<text xml:space="preserve" text-anchor="middle" x="441.62" y="-42.75" font-family="Source Sans Pro" font-size="10.00">module_sf_mynn::zolri</text>
</a>
</g>
</g>
<!-- Node1&#45;&gt;Node5 -->
<g id="edge4_Node000001_Node000005" class="edge">
<title>Node1&#45;&gt;Node5</title>
<g id="a_edge4_Node000001_Node000005"><a xlink:title=" ">
<path fill="none" stroke="#63b8ff" d="M547.26,-46.62C531.55,-46.62 514.7,-46.62 499.21,-46.62"/>
<polygon fill="#63b8ff" stroke="#63b8ff" points="546.96,-50.13 556.96,-46.63 546.96,-43.13 546.96,-50.13"/>
</a>
</g>
</g>
<!-- Node6 -->
<g id="Node000006" class="node">
<title>Node6</title>
<g id="a_Node000006"><a xlink:href="namespacemodule__sf__mynn_ad99d17e1d30aa8eb9716e9519518eb9d.html#ad99d17e1d30aa8eb9716e9519518eb9d" target="_top" xlink:title=" ">
<polygon fill="white" stroke="#666666" points="501.38,-19.25 381.88,-19.25 381.88,0 501.38,0 501.38,-19.25"/>
<text xml:space="preserve" text-anchor="middle" x="441.62" y="-5.75" font-family="Source Sans Pro" font-size="10.00">module_sf_mynn::zolrib</text>
</a>
</g>
</g>
<!-- Node1&#45;&gt;Node6 -->
<g id="edge6_Node000001_Node000006" class="edge">
<title>Node1&#45;&gt;Node6</title>
<g id="a_edge6_Node000001_Node000006"><a xlink:title=" ">
<path fill="none" stroke="#63b8ff" d="M547.41,-33.05C527.67,-28.64 506.12,-23.82 487.73,-19.71"/>
<polygon fill="#63b8ff" stroke="#63b8ff" points="546.47,-36.43 556.99,-35.19 548,-29.6 546.47,-36.43"/>
</a>
</g>
</g>
<!-- Node3 -->
<g id="Node000003" class="node">
<title>Node3</title>
<g id="a_Node000003"><a xlink:href="group__mynn__sfc_gac0ece656c5688dd834becc8babfad72c.html#gac0ece656c5688dd834becc8babfad72c" target="_top" xlink:title="This subroutine.">
<polygon fill="white" stroke="#666666" points="324.5,-111.25 172.75,-111.25 172.75,-92 324.5,-92 324.5,-111.25"/>
<text xml:space="preserve" text-anchor="middle" x="248.62" y="-97.75" font-family="Source Sans Pro" font-size="10.00">module_sf_mynn::sfclay_mynn</text>
</a>
</g>
</g>
<!-- Node2&#45;&gt;Node3 -->
<g id="edge2_Node000002_Node000003" class="edge">
<title>Node2&#45;&gt;Node3</title>
<g id="a_edge2_Node000002_Node000003"><a xlink:title=" ">
<path fill="none" stroke="#63b8ff" d="M348.84,-101.62C340.79,-101.62 332.7,-101.62 324.8,-101.62"/>
<polygon fill="#63b8ff" stroke="#63b8ff" points="348.66,-105.13 358.66,-101.63 348.66,-98.13 348.66,-105.13"/>
</a>
</g>
</g>
<!-- Node4 -->
<g id="Node000004" class="node">
<title>Node4</title>
<g id="a_Node000004"><a xlink:href="group__mynn__sfc_gacc51d950a2377e011c8f110ff091c4d4.html#gacc51d950a2377e011c8f110ff091c4d4" target="_top" xlink:title=" ">
<polygon fill="white" stroke="#666666" points="136.75,-116.88 0,-116.88 0,-86.38 136.75,-86.38 136.75,-116.88"/>
<text xml:space="preserve" text-anchor="start" x="8" y="-103.38" font-family="Source Sans Pro" font-size="10.00">mynnsfc_wrapper::mynnsfc</text>
<text xml:space="preserve" text-anchor="middle" x="68.38" y="-92.12" font-family="Source Sans Pro" font-size="10.00">_wrapper_run</text>
</a>
</g>
</g>
<!-- Node3&#45;&gt;Node4 -->
<g id="edge3_Node000003_Node000004" class="edge">
<title>Node3&#45;&gt;Node4</title>
<g id="a_edge3_Node000003_Node000004"><a xlink:title=" ">
<path fill="none" stroke="#63b8ff" d="M160.99,-101.62C152.96,-101.62 144.91,-101.62 137.09,-101.62"/>
<polygon fill="#63b8ff" stroke="#63b8ff" points="160.78,-105.13 170.78,-101.63 160.78,-98.13 160.78,-105.13"/>
</a>
</g>
</g>
<!-- Node5&#45;&gt;Node5 -->
<g id="edge5_Node000005_Node000005" class="edge">
<title>Node5&#45;&gt;Node5</title>
<g id="a_edge5_Node000005_Node000005"><a xlink:title=" ">
<path fill="none" stroke="#63b8ff" d="M471.66,-67.32C468.2,-71.37 458.19,-74.25 441.62,-74.25 412.18,-74.25 403.44,-65.15 415.4,-56.54"/>
<polygon fill="#63b8ff" stroke="#63b8ff" points="474.99,-66.23 468.35,-57.97 468.39,-68.56 474.99,-66.23"/>
</a>
</g>
</g>
</g>
</svg>
