<?xml version="1.0" encoding="UTF-8" standalone="no"?>
<!DOCTYPE svg PUBLIC "-//W3C//DTD SVG 1.1//EN"
 "http://www.w3.org/Graphics/SVG/1.1/DTD/svg11.dtd">
<!-- Generated by graphviz version 14.1.2 (20260124.0452)
 -->
<!-- Title: gfdl_cloud_microphys_mod::linear_prof Pages: 1 -->
<svg width="759pt" height="88pt"
 viewBox="0.00 0.00 759.00 88.00" xmlns="http://www.w3.org/2000/svg" xmlns:xlink="http://www.w3.org/1999/xlink">
<g id="graph0" class="graph" transform="scale(1 1) rotate(0) translate(4 83.5)">
<title>gfdl_cloud_microphys_mod::linear_prof</title>
<!-- Node1 -->
<g id="Node000001" class="node">
<title>Node1</title>
<g id="a_Node000001"><a xlink:title="Definition of vertical subgrid variability used for cloud ice and cloud water autoconversion.">
<polygon fill="#999999" stroke="#666666" points="751.25,-54.5 640.75,-54.5 640.75,-24 751.25,-24 751.25,-54.5"/>
<text xml:space="preserve" text-anchor="start" x="648.75" y="-41" font-family="Source Sans Pro" font-size="10.00">gfdl_cloud_microphys</text>
<text xml:space="preserve" text-anchor="middle" x="696" y="-29.75" font-family="Source Sans Pro" font-size="10.00">_mod::linear_prof</text>
</a>
</g>
</g>
<!-- Node2 -->
<g id="Node000002" class="node">
<title>Node2</title>
<g id="a_Node000002"><a xlink:href="group__mod__gfdl__cloud__mp_ga6d4a8494f1530ef44e39c61be5d819fe.html#ga6d4a8494f1530ef44e39c61be5d819fe" target="_top" xlink:title="This subroutine includes cloud ice microphysics processes.">
<polygon fill="white" stroke="#666666" points="604.75,-79.5 494.25,-79.5 494.25,-49 604.75,-49 604.75,-79.5"/>
<text xml:space="preserve" text-anchor="start" x="502.25" y="-66" font-family="Source Sans Pro" font-size="10.00">gfdl_cloud_microphys</text>
<text xml:space="preserve" text-anchor="middle" x="549.5" y="-54.75" font-family="Source Sans Pro" font-size="10.00">_mod::icloud</text>
</a>
</g>
</g>
<!-- Node1&#45;&gt;Node2 -->
<g id="edge1_Node000001_Node000002" class="edge">
<title>Node1&#45;&gt;Node2</title>
<g id="a_edge1_Node000001_Node000002"><a xlink:title=" ">
<path fill="none" stroke="#63b8ff" d="M629.16,-50.64C621.15,-52.03 613.03,-53.43 605.21,-54.79"/>
<polygon fill="#63b8ff" stroke="#63b8ff" points="629.62,-54.11 638.88,-48.96 628.43,-47.22 629.62,-54.11"/>
</a>
</g>
</g>
<!-- Node6 -->
<g id="Node000006" class="node">
<title>Node6</title>
<g id="a_Node000006"><a xlink:href="group__mod__gfdl__cloud__mp_gacc8783950135d8875dbfe23ef5013c76.html#gacc8783950135d8875dbfe23ef5013c76" target="_top" xlink:title="This subroutine includes warm rain cloud microphysics.">
<polygon fill="white" stroke="#666666" points="604.75,-30.5 494.25,-30.5 494.25,0 604.75,0 604.75,-30.5"/>
<text xml:space="preserve" text-anchor="start" x="502.25" y="-17" font-family="Source Sans Pro" font-size="10.00">gfdl_cloud_microphys</text>
<text xml:space="preserve" text-anchor="middle" x="549.5" y="-5.75" font-family="Source Sans Pro" font-size="10.00">_mod::warm_rain</text>
</a>
</g>
</g>
<!-- Node1&#45;&gt;Node6 -->
<g id="edge5_Node000001_Node000006" class="edge">
<title>Node1&#45;&gt;Node6</title>
<g id="a_edge5_Node000001_Node000006"><a xlink:title=" ">
<path fill="none" stroke="#63b8ff" d="M629.16,-28.31C621.15,-26.98 613.03,-25.64 605.21,-24.34"/>
<polygon fill="#63b8ff" stroke="#63b8ff" points="628.44,-31.74 638.88,-29.93 629.59,-24.84 628.44,-31.74"/>
</a>
</g>
</g>
<!-- Node3 -->
<g id="Node000003" class="node">
<title>Node3</title>
<g id="a_Node000003"><a xlink:href="group__mod__gfdl__cloud__mp_ga9a157f35f4472577a555978027d97c65.html#ga9a157f35f4472577a555978027d97c65" target="_top" xlink:title="GFDL cloud microphysics, major program, and is based on Lin et al.(1983) lin_et_al_1983 and Rutledge ...">
<polygon fill="white" stroke="#666666" points="458.25,-54.5 347.75,-54.5 347.75,-24 458.25,-24 458.25,-54.5"/>
<text xml:space="preserve" text-anchor="start" x="355.75" y="-41" font-family="Source Sans Pro" font-size="10.00">gfdl_cloud_microphys</text>
<text xml:space="preserve" text-anchor="middle" x="403" y="-29.75" font-family="Source Sans Pro" font-size="10.00">_mod::mpdrv</text>
</a>
</g>
</g>
<!-- Node2&#45;&gt;Node3 -->
<g id="edge2_Node000002_Node000003" class="edge">
<title>Node2&#45;&gt;Node3</title>
<g id="a_edge2_Node000002_Node000003"><a xlink:title=" ">
<path fill="none" stroke="#63b8ff" d="M482.66,-52.86C474.65,-51.47 466.53,-50.07 458.71,-48.71"/>
<polygon fill="#63b8ff" stroke="#63b8ff" points="481.93,-56.28 492.38,-54.54 483.12,-49.39 481.93,-56.28"/>
</a>
</g>
</g>
<!-- Node4 -->
<g id="Node000004" class="node">
<title>Node4</title>
<g id="a_Node000004"><a xlink:href="group__mod__gfdl__cloud__mp_gab96ce7bbe8889ca0845652ef6df3ea14.html#gab96ce7bbe8889ca0845652ef6df3ea14" target="_top" xlink:title="This subroutine is the driver of the GFDL cloud microphysics.">
<polygon fill="white" stroke="#666666" points="311.75,-60.12 171.25,-60.12 171.25,-18.38 311.75,-18.38 311.75,-60.12"/>
<text xml:space="preserve" text-anchor="start" x="179.25" y="-46.62" font-family="Source Sans Pro" font-size="10.00">gfdl_cloud_microphys</text>
<text xml:space="preserve" text-anchor="start" x="179.25" y="-35.38" font-family="Source Sans Pro" font-size="10.00">_mod::gfdl_cloud_microphys</text>
<text xml:space="preserve" text-anchor="middle" x="241.5" y="-24.12" font-family="Source Sans Pro" font-size="10.00">_mod_driver</text>
</a>
</g>
</g>
<!-- Node3&#45;&gt;Node4 -->
<g id="edge3_Node000003_Node000004" class="edge">
<title>Node3&#45;&gt;Node4</title>
<g id="a_edge3_Node000003_Node000004"><a xlink:title=" ">
<path fill="none" stroke="#63b8ff" d="M336.15,-39.25C328.25,-39.25 320.16,-39.25 312.21,-39.25"/>
<polygon fill="#63b8ff" stroke="#63b8ff" points="336.04,-42.75 346.04,-39.25 336.04,-35.75 336.04,-42.75"/>
</a>
</g>
</g>
<!-- Node5 -->
<g id="Node000005" class="node">
<title>Node5</title>
<g id="a_Node000005"><a xlink:href="namespacegfdl__cloud__microphys_a57379a8f2ca712404e049dc5438ca6ac.html#a57379a8f2ca712404e049dc5438ca6ac" target="_top" xlink:title=" ">
<polygon fill="white" stroke="#666666" points="135.25,-54.5 0,-54.5 0,-24 135.25,-24 135.25,-54.5"/>
<text xml:space="preserve" text-anchor="start" x="8" y="-41" font-family="Source Sans Pro" font-size="10.00">gfdl_cloud_microphys</text>
<text xml:space="preserve" text-anchor="middle" x="67.62" y="-29.75" font-family="Source Sans Pro" font-size="10.00">::gfdl_cloud_microphys_run</text>
</a>
</g>
</g>
<!-- Node4&#45;&gt;Node5 -->
<g id="edge4_Node000004_Node000005" class="edge">
<title>Node4&#45;&gt;Node5</title>
<g id="a_edge4_Node000004_Node000005"><a xlink:title=" ">
<path fill="none" stroke="#63b8ff" d="M159.71,-39.25C151.6,-39.25 143.44,-39.25 135.51,-39.25"/>
<polygon fill="#63b8ff" stroke="#63b8ff" points="159.57,-42.75 169.57,-39.25 159.57,-35.75 159.57,-42.75"/>
</a>
</g>
</g>
<!-- Node6&#45;&gt;Node3 -->
<g id="edge6_Node000006_Node000003" class="edge">
<title>Node6&#45;&gt;Node3</title>
<g id="a_edge6_Node000006_Node000003"><a xlink:title=" ">
<path fill="none" stroke="#63b8ff" d="M482.66,-26.19C474.65,-27.52 466.53,-28.86 458.71,-30.16"/>
<polygon fill="#63b8ff" stroke="#63b8ff" points="483.09,-29.66 492.38,-24.57 481.94,-22.76 483.09,-29.66"/>
</a>
</g>
</g>
</g>
</svg>
