<?xml version="1.0" encoding="UTF-8" standalone="no"?>
<!DOCTYPE svg PUBLIC "-//W3C//DTD SVG 1.1//EN"
 "http://www.w3.org/Graphics/SVG/1.1/DTD/svg11.dtd">
<!-- Generated by graphviz version 14.1.2 (20260124.0452)
 -->
<!-- Title: rosr12 Pages: 1 -->
<!--zoomable 258 -->

<svg id="main" version="1.1" xmlns="http://www.w3.org/2000/svg" xmlns:xlink="http://www.w3.org/1999/xlink" xml:space="preserve" onload="init(evt)">

<style type="text/css"><![CDATA[
.node, .edge {opacity: 0.7;}
.node.selected, .edge.selected {opacity: 1;}
.edge:hover path { stroke: red; }
.edge:hover polygon { stroke: red; fill: red; }
]]></style>

<defs>
  <circle id="rim" cx="0" cy="0" r="7"/>
  <circle id="rim2" cx="0" cy="0" r="3.5"/>
  <g id="zoomPlus">
    <use xlink:href="#rim" fill="#404040"><set attributeName="fill" to="#808080" begin="zoomplus.mouseover" end="zoomplus.mouseout"/></use>
    <path d="M-4,0h8M0,-4v8" fill="none" stroke="white" stroke-width="1.5" pointer-events="none"/>
  </g>
  <g id="zoomMin">
    <use xlink:href="#rim" fill="#404040"><set attributeName="fill" to="#808080" begin="zoomminus.mouseover" end="zoomminus.mouseout"/></use>
    <path d="M-4,0h8" fill="none" stroke="white" stroke-width="1.5" pointer-events="none"/>
  </g>
  <g id="arrowUp" transform="translate(30 24)">
    <use xlink:href="#rim"/>
    <path pointer-events="none" fill="none" stroke="white" stroke-width="1.5" d="M0,-3.0v7 M-2.5,-0.5L0,-3.0L2.5,-0.5"/>
  </g>
  <g id="arrowRight" transform="rotate(90) translate(36 -43)">
    <use xlink:href="#rim"/>
    <path pointer-events="none" fill="none" stroke="white" stroke-width="1.5" d="M0,-3.0v7 M-2.5,-0.5L0,-3.0L2.5,-0.5"/>
  </g>
  <g id="arrowDown" transform="rotate(180) translate(-30 -48)">
    <use xlink:href="#rim"/>
    <path pointer-events="none" fill="none" stroke="white" stroke-width="1.5" d="M0,-3.0v7 M-2.5,-0.5L0,-3.0L2.5,-0.5"/>
  </g>
  <g id="arrowLeft" transform="rotate(270) translate(-36 17)">
    <use xlink:href="#rim"/>
    <path pointer-events="none" fill="none" stroke="white" stroke-width="1.5" d="M0,-3.0v7 M-2.5,-0.5L0,-3.0L2.5,-0.5"/>
  </g>
  <g id="resetDef">
    <use xlink:href="#rim2" fill="#404040"><set attributeName="fill" to="#808080" begin="reset.mouseover" end="reset.mouseout"/></use>
  </g>
</defs>
<script type="application/ecmascript">
var viewWidth = 612;
var viewHeight = 258;
var sectionId = 'dynsection-0';
</script>
<script type="application/ecmascript" xlink:href="svg.min.js"/>
<svg id="graph" class="graph">
<g id="viewport">
<title>rosr12</title>
<!-- Node1 -->
<g id="Node000001" class="node">
<title>Node1</title>
<g id="a_Node000001"><a xlink:title="solve the tri&#45;diagonal matrix equation">
<polygon fill="#999999" stroke="#666666" points="603.75,-193.88 560.75,-193.88 560.75,-174.62 603.75,-174.62 603.75,-193.88"/>
<text xml:space="preserve" text-anchor="middle" x="582.25" y="-180.38" font-family="Source Sans Pro" font-size="10.00">rosr12</text>
</a>
</g>
</g>
<!-- Node2 -->
<g id="Node000002" class="node">
<title>Node2</title>
<g id="a_Node000002"><a xlink:href="group___noah_m_p___l_s_m_ga1ee9e5d99d3e45d7647507959077328a.html#ga1ee9e5d99d3e45d7647507959077328a" target="_top" xlink:title="calculate/update the soil temperature fields.">
<polygon fill="white" stroke="#666666" points="524.75,-212.88 484.75,-212.88 484.75,-193.62 524.75,-193.62 524.75,-212.88"/>
<text xml:space="preserve" text-anchor="middle" x="504.75" y="-199.38" font-family="Source Sans Pro" font-size="10.00">hstep</text>
</a>
</g>
</g>
<!-- Node1&#45;&gt;Node2 -->
<g id="edge1_Node000001_Node000002" class="edge">
<title>Node1&#45;&gt;Node2</title>
<g id="a_edge1_Node000001_Node000002"><a xlink:title=" ">
<path fill="none" stroke="#63b8ff" d="M549.65,-192.2C541.3,-194.3 532.54,-196.51 525.06,-198.39"/>
<polygon fill="#63b8ff" stroke="#63b8ff" points="550.31,-195.65 559.15,-189.81 548.6,-188.86 550.31,-195.65"/>
</a>
</g>
</g>
<!-- Node9 -->
<g id="Node000009" class="node">
<title>Node9</title>
<g id="a_Node000009"><a xlink:href="group___noah_m_p___l_s_m_gae10b02d7df0104a84451abc57e0410fb.html#gae10b02d7df0104a84451abc57e0410fb" target="_top" xlink:title="calculate/update soil moisture content values.">
<polygon fill="white" stroke="#666666" points="524.75,-175.88 484.75,-175.88 484.75,-156.62 524.75,-156.62 524.75,-175.88"/>
<text xml:space="preserve" text-anchor="middle" x="504.75" y="-162.38" font-family="Source Sans Pro" font-size="10.00">sstep</text>
</a>
</g>
</g>
<!-- Node1&#45;&gt;Node9 -->
<g id="edge8_Node000001_Node000009" class="edge">
<title>Node1&#45;&gt;Node9</title>
<g id="a_edge8_Node000001_Node000009"><a xlink:title=" ">
<path fill="none" stroke="#63b8ff" d="M549.65,-176.72C541.3,-174.73 532.54,-172.64 525.06,-170.85"/>
<polygon fill="#63b8ff" stroke="#63b8ff" points="548.61,-180.07 559.15,-178.98 550.23,-173.26 548.61,-180.07"/>
</a>
</g>
</g>
<!-- Node3 -->
<g id="Node000003" class="node">
<title>Node3</title>
<g id="a_Node000003"><a xlink:href="group___noah_m_p___l_s_m_ga75765a418ab7cac83a29ee89bcc28da9.html#ga75765a418ab7cac83a29ee89bcc28da9" target="_top" xlink:title="compute snow (up to 3l) and soil (4l) temperature. note that snow temperatures during melting season ...">
<polygon fill="white" stroke="#666666" points="445,-212.88 397.5,-212.88 397.5,-193.62 445,-193.62 445,-212.88"/>
<text xml:space="preserve" text-anchor="middle" x="421.25" y="-199.38" font-family="Source Sans Pro" font-size="10.00">tsnosoi</text>
</a>
</g>
</g>
<!-- Node2&#45;&gt;Node3 -->
<g id="edge2_Node000002_Node000003" class="edge">
<title>Node2&#45;&gt;Node3</title>
<g id="a_edge2_Node000002_Node000003"><a xlink:title=" ">
<path fill="none" stroke="#63b8ff" d="M473.02,-203.25C463.89,-203.25 454.05,-203.25 445.49,-203.25"/>
<polygon fill="#63b8ff" stroke="#63b8ff" points="472.92,-206.75 482.92,-203.25 472.92,-199.75 472.92,-206.75"/>
</a>
</g>
</g>
<!-- Node4 -->
<g id="Node000004" class="node">
<title>Node4</title>
<g id="a_Node000004"><a xlink:href="group___noah_m_p___l_s_m_ga2698d46b5582d11d0d6fc78d49dd796c.html#ga2698d46b5582d11d0d6fc78d49dd796c" target="_top" xlink:title="We use different approaches to deal with subgrid features of radiation transfer and turbulent transfe...">
<polygon fill="white" stroke="#666666" points="357.75,-212.88 312.5,-212.88 312.5,-193.62 357.75,-193.62 357.75,-212.88"/>
<text xml:space="preserve" text-anchor="middle" x="335.12" y="-199.38" font-family="Source Sans Pro" font-size="10.00">energy</text>
</a>
</g>
</g>
<!-- Node3&#45;&gt;Node4 -->
<g id="edge3_Node000003_Node000004" class="edge">
<title>Node3&#45;&gt;Node4</title>
<g id="a_edge3_Node000003_Node000004"><a xlink:title=" ">
<path fill="none" stroke="#63b8ff" d="M385.86,-203.25C376.53,-203.25 366.67,-203.25 358.21,-203.25"/>
<polygon fill="#63b8ff" stroke="#63b8ff" points="385.75,-206.75 395.75,-203.25 385.75,-199.75 385.75,-206.75"/>
</a>
</g>
</g>
<!-- Node5 -->
<g id="Node000005" class="node">
<title>Node5</title>
<g id="a_Node000005"><a xlink:href="group___noah_m_p___l_s_m_gab480f7969dad27ce9e00e559f82c464e.html#gab480f7969dad27ce9e00e559f82c464e" target="_top" xlink:title=" ">
<polygon fill="white" stroke="#666666" points="233.38,-249.88 161.88,-249.88 161.88,-230.62 233.38,-230.62 233.38,-249.88"/>
<text xml:space="preserve" text-anchor="middle" x="197.62" y="-236.38" font-family="Source Sans Pro" font-size="10.00">noahmp_sflx</text>
</a>
</g>
</g>
<!-- Node4&#45;&gt;Node5 -->
<g id="edge4_Node000004_Node000005" class="edge">
<title>Node4&#45;&gt;Node5</title>
<g id="a_edge4_Node000004_Node000005"><a xlink:title=" ">
<path fill="none" stroke="#63b8ff" d="M301.23,-214.67C293.18,-217.3 284.57,-219.99 276.5,-222.25 262.6,-226.14 247.14,-229.84 233.69,-232.86"/>
<polygon fill="#63b8ff" stroke="#63b8ff" points="302.3,-218 310.67,-211.51 300.08,-211.37 302.3,-218"/>
</a>
</g>
</g>
<!-- Node7 -->
<g id="Node000007" class="node">
<title>Node7</title>
<g id="a_Node000007"><a xlink:href="group___s_a_m_fdeep_ga5e834dec0932a16a98b7d90fd69a9c70.html#ga5e834dec0932a16a98b7d90fd69a9c70" target="_top" xlink:title=" ">
<polygon fill="white" stroke="#666666" points="276.5,-212.88 118.75,-212.88 118.75,-193.62 276.5,-193.62 276.5,-212.88"/>
<text xml:space="preserve" text-anchor="middle" x="197.62" y="-199.38" font-family="Source Sans Pro" font-size="10.00">samfdeepcnv::samfdeepcnv_run</text>
</a>
</g>
</g>
<!-- Node4&#45;&gt;Node7 -->
<g id="edge6_Node000004_Node000007" class="edge">
<title>Node4&#45;&gt;Node7</title>
<g id="a_edge6_Node000004_Node000007"><a xlink:title=" ">
<path fill="none" stroke="#63b8ff" d="M300.79,-203.25C293.42,-203.25 285.3,-203.25 276.96,-203.25"/>
<polygon fill="#63b8ff" stroke="#63b8ff" points="300.54,-206.75 310.54,-203.25 300.54,-199.75 300.54,-206.75"/>
</a>
</g>
</g>
<!-- Node8 -->
<g id="Node000008" class="node">
<title>Node8</title>
<g id="a_Node000008"><a xlink:href="group___s_a_m_f__shal_gaf2534c328553470068a75a9aa56b7d56.html#gaf2534c328553470068a75a9aa56b7d56" target="_top" xlink:title=" ">
<polygon fill="white" stroke="#666666" points="273.5,-175.88 121.75,-175.88 121.75,-156.62 273.5,-156.62 273.5,-175.88"/>
<text xml:space="preserve" text-anchor="middle" x="197.62" y="-162.38" font-family="Source Sans Pro" font-size="10.00">samfshalcnv::samfshalcnv_run</text>
</a>
</g>
</g>
<!-- Node4&#45;&gt;Node8 -->
<g id="edge7_Node000004_Node000008" class="edge">
<title>Node4&#45;&gt;Node8</title>
<g id="a_edge7_Node000004_Node000008"><a xlink:title=" ">
<path fill="none" stroke="#63b8ff" d="M301.23,-191.83C293.18,-189.2 284.57,-186.51 276.5,-184.25 266.48,-181.45 255.64,-178.74 245.33,-176.31"/>
<polygon fill="#63b8ff" stroke="#63b8ff" points="300.08,-195.13 310.67,-194.99 302.3,-188.5 300.08,-195.13"/>
</a>
</g>
</g>
<!-- Node6 -->
<g id="Node000006" class="node">
<title>Node6</title>
<g id="a_Node000006"><a xlink:href="group___noah_m_p___l_s_m_ga0e44f72a92d8830344fecdb9fb65e6fb.html#ga0e44f72a92d8830344fecdb9fb65e6fb" target="_top" xlink:title="This subroutine is the main CCPP entry point for the NoahMP LSM.">
<polygon fill="white" stroke="#666666" points="82.75,-249.88 0,-249.88 0,-230.62 82.75,-230.62 82.75,-249.88"/>
<text xml:space="preserve" text-anchor="middle" x="41.38" y="-236.38" font-family="Source Sans Pro" font-size="10.00">noahmpdrv_run</text>
</a>
</g>
</g>
<!-- Node5&#45;&gt;Node6 -->
<g id="edge5_Node000005_Node000006" class="edge">
<title>Node5&#45;&gt;Node6</title>
<g id="a_edge5_Node000005_Node000006"><a xlink:title=" ">
<path fill="none" stroke="#63b8ff" d="M150.22,-240.25C128.9,-240.25 103.84,-240.25 83.25,-240.25"/>
<polygon fill="#63b8ff" stroke="#63b8ff" points="150.11,-243.75 160.11,-240.25 150.11,-236.75 150.11,-243.75"/>
</a>
</g>
</g>
<!-- Node10 -->
<g id="Node000010" class="node">
<title>Node10</title>
<g id="a_Node000010"><a xlink:href="group___noah_m_p___l_s_m_gadca44347d78a09297195f41298a47f8d.html#gadca44347d78a09297195f41298a47f8d" target="_top" xlink:title="calculate surface runoff and soil moisture.">
<polygon fill="white" stroke="#666666" points="448.75,-175.88 393.75,-175.88 393.75,-156.62 448.75,-156.62 448.75,-175.88"/>
<text xml:space="preserve" text-anchor="middle" x="421.25" y="-162.38" font-family="Source Sans Pro" font-size="10.00">soilwater</text>
</a>
</g>
</g>
<!-- Node9&#45;&gt;Node10 -->
<g id="edge9_Node000009_Node000010" class="edge">
<title>Node9&#45;&gt;Node10</title>
<g id="a_edge9_Node000009_Node000010"><a xlink:title=" ">
<path fill="none" stroke="#63b8ff" d="M473.07,-166.25C465.2,-166.25 456.8,-166.25 449.13,-166.25"/>
<polygon fill="#63b8ff" stroke="#63b8ff" points="472.92,-169.75 482.92,-166.25 472.92,-162.75 472.92,-169.75"/>
</a>
</g>
</g>
<!-- Node11 -->
<g id="Node000011" class="node">
<title>Node11</title>
<g id="a_Node000011"><a xlink:href="group___noah_m_p___l_s_m_ga2e84840f3ed90005f066340b388c03d6.html#ga2e84840f3ed90005f066340b388c03d6" target="_top" xlink:title="compute water budgets (water storages, et components, and runoff)">
<polygon fill="white" stroke="#666666" points="355.12,-175.88 315.12,-175.88 315.12,-156.62 355.12,-156.62 355.12,-175.88"/>
<text xml:space="preserve" text-anchor="middle" x="335.12" y="-162.38" font-family="Source Sans Pro" font-size="10.00">water</text>
</a>
</g>
</g>
<!-- Node10&#45;&gt;Node11 -->
<g id="edge10_Node000010_Node000011" class="edge">
<title>Node10&#45;&gt;Node11</title>
<g id="a_edge10_Node000010_Node000011"><a xlink:title=" ">
<path fill="none" stroke="#63b8ff" d="M382.16,-166.25C372.88,-166.25 363.34,-166.25 355.37,-166.25"/>
<polygon fill="#63b8ff" stroke="#63b8ff" points="382.12,-169.75 392.12,-166.25 382.12,-162.75 382.12,-169.75"/>
</a>
</g>
</g>
<!-- Node11&#45;&gt;Node5 -->
<g id="edge14_Node000011_Node000005" class="edge">
<title>Node11&#45;&gt;Node5</title>
<g id="a_edge14_Node000011_Node000005"><a xlink:title=" ">
<path fill="none" stroke="#63b8ff" d="M313.04,-183.75C312.86,-183.92 312.68,-184.08 312.5,-184.25 295.53,-200.16 296.69,-210.69 276.5,-222.25 263.49,-229.69 247.6,-234.06 233.57,-236.62"/>
<polygon fill="#63b8ff" stroke="#63b8ff" points="315.2,-186.5 320.42,-177.28 310.59,-181.24 315.2,-186.5"/>
</a>
</g>
</g>
<!-- Node11&#45;&gt;Node7 -->
<g id="edge15_Node000011_Node000007" class="edge">
<title>Node11&#45;&gt;Node7</title>
<g id="a_edge15_Node000011_Node000007"><a xlink:title=" ">
<path fill="none" stroke="#63b8ff" d="M304.17,-176.7C295.31,-179.64 285.56,-182.72 276.5,-185.25 266.48,-188.05 255.64,-190.76 245.33,-193.19"/>
<polygon fill="#63b8ff" stroke="#63b8ff" points="305,-180.12 313.36,-173.6 302.76,-173.48 305,-180.12"/>
</a>
</g>
</g>
<!-- Node11&#45;&gt;Node8 -->
<g id="edge16_Node000011_Node000008" class="edge">
<title>Node11&#45;&gt;Node8</title>
<g id="a_edge16_Node000011_Node000008"><a xlink:title=" ">
<path fill="none" stroke="#63b8ff" d="M303.4,-166.25C294.47,-166.25 284.3,-166.25 273.9,-166.25"/>
<polygon fill="#63b8ff" stroke="#63b8ff" points="303.2,-169.75 313.2,-166.25 303.2,-162.75 303.2,-169.75"/>
</a>
</g>
</g>
<!-- Node12 -->
<g id="Node000012" class="node">
<title>Node12</title>
<g id="a_Node000012"><a xlink:href="namespacegfdl__cloud__microphys__v3__mod_abff24ebeedbc1d30f155bfdf0b5b223d.html#abff24ebeedbc1d30f155bfdf0b5b223d" target="_top" xlink:title=" ">
<polygon fill="white" stroke="#666666" points="253.25,-138.5 142,-138.5 142,-108 253.25,-108 253.25,-138.5"/>
<text xml:space="preserve" text-anchor="start" x="150" y="-125" font-family="Source Sans Pro" font-size="10.00">gfdl_cloud_microphys</text>
<text xml:space="preserve" text-anchor="middle" x="197.62" y="-113.75" font-family="Source Sans Pro" font-size="10.00">_v3_mod::cld_sat_adj</text>
</a>
</g>
</g>
<!-- Node11&#45;&gt;Node12 -->
<g id="edge11_Node000011_Node000012" class="edge">
<title>Node11&#45;&gt;Node12</title>
<g id="a_edge11_Node000011_Node000012"><a xlink:title=" ">
<path fill="none" stroke="#63b8ff" d="M304.04,-156.21C295.18,-153.28 285.46,-150.11 276.5,-147.25 268.01,-144.54 258.98,-141.71 250.19,-138.99"/>
<polygon fill="#63b8ff" stroke="#63b8ff" points="302.65,-159.44 313.25,-159.26 304.86,-152.79 302.65,-159.44"/>
</a>
</g>
</g>
<!-- Node13 -->
<g id="Node000013" class="node">
<title>Node13</title>
<g id="a_Node000013"><a xlink:href="namespacegfdl__cloud__microphys__v3__mod_a230685a7af97f93f58eec3bf7a7040ba.html#a230685a7af97f93f58eec3bf7a7040ba" target="_top" xlink:title=" ">
<polygon fill="white" stroke="#666666" points="275.75,-90.12 119.5,-90.12 119.5,-48.38 275.75,-48.38 275.75,-90.12"/>
<text xml:space="preserve" text-anchor="start" x="127.5" y="-76.62" font-family="Source Sans Pro" font-size="10.00">gfdl_cloud_microphys</text>
<text xml:space="preserve" text-anchor="start" x="127.5" y="-65.38" font-family="Source Sans Pro" font-size="10.00">_v3_mod::gfdl_cloud_microphys</text>
<text xml:space="preserve" text-anchor="middle" x="197.62" y="-54.12" font-family="Source Sans Pro" font-size="10.00">_v3_mod_driver</text>
</a>
</g>
</g>
<!-- Node11&#45;&gt;Node13 -->
<g id="edge12_Node000011_Node000013" class="edge">
<title>Node11&#45;&gt;Node13</title>
<g id="a_edge12_Node000011_Node000013"><a xlink:title=" ">
<path fill="none" stroke="#63b8ff" d="M321.54,-146.99C311.03,-132.2 294.84,-112.18 276.5,-99.25 272,-96.08 267.12,-93.19 262.07,-90.56"/>
<polygon fill="#63b8ff" stroke="#63b8ff" points="318.48,-148.72 327.02,-155 324.26,-144.77 318.48,-148.72"/>
</a>
</g>
</g>
<!-- Node14 -->
<g id="Node000014" class="node">
<title>Node14</title>
<g id="a_Node000014"><a xlink:href="namespacegfdl__cloud__microphys__v3__mod_a371473ee4ccb0ae7f6d47141012b4af5.html#a371473ee4ccb0ae7f6d47141012b4af5" target="_top" xlink:title=" ">
<polygon fill="white" stroke="#666666" points="252.88,-30.5 142.38,-30.5 142.38,0 252.88,0 252.88,-30.5"/>
<text xml:space="preserve" text-anchor="start" x="150.38" y="-17" font-family="Source Sans Pro" font-size="10.00">gfdl_cloud_microphys</text>
<text xml:space="preserve" text-anchor="middle" x="197.62" y="-5.75" font-family="Source Sans Pro" font-size="10.00">_v3_mod::mtetw</text>
</a>
</g>
</g>
<!-- Node11&#45;&gt;Node14 -->
<g id="edge13_Node000011_Node000014" class="edge">
<title>Node11&#45;&gt;Node14</title>
<g id="a_edge13_Node000011_Node000014"><a xlink:title=" ">
<path fill="none" stroke="#63b8ff" d="M330.22,-145.44C323.87,-117.35 308.63,-67.54 276.5,-39.25 269.81,-33.36 261.7,-28.92 253.27,-25.56"/>
<polygon fill="#63b8ff" stroke="#63b8ff" points="326.72,-145.79 332.17,-154.87 333.57,-144.37 326.72,-145.79"/>
</a>
</g>
</g>
</g>
</svg>

<g id="navigator" transform="translate(0 0)" fill="#404254">
  <rect fill="#f2f5e9" fill-opacity="0.5" stroke="#606060" stroke-width=".5" x="0" y="0" width="60" height="60"/>
  <use id="zoomplus" xlink:href="#zoomPlus" x="17" y="9" onmousedown="handleZoom(evt,'in')"/>
  <use id="zoomminus" xlink:href="#zoomMin" x="42" y="9" onmousedown="handleZoom(evt,'out')"/>
  <use id="reset" xlink:href="#resetDef" x="30" y="36" onmousedown="handleReset()"/>
   <use id="arrowup" xlink:href="#arrowUp" x="0" y="0" onmousedown="handlePan(0,-1)"/>
  <use id="arrowright" xlink:href="#arrowRight" x="0" y="0" onmousedown="handlePan(1,0)"/>
  <use id="arrowdown" xlink:href="#arrowDown" x="0" y="0" onmousedown="handlePan(0,1)"/>
  <use id="arrowleft" xlink:href="#arrowLeft" x="0" y="0" onmousedown="handlePan(-1,0)"/>
</g>
<svg viewBox="0 0 15 15" width="100%" height="30px" preserveAspectRatio="xMaxYMin meet">
 <g id="arrow_out" transform="scale(0.3 0.3)">
  <a xlink:href="group___noah_m_p___l_s_m_ga7a305dbb6a9210b227ee310c71f30fd9_ga7a305dbb6a9210b227ee310c71f30fd9_icgraph_org.svg" target="_base">
   <rect id="button" ry="5" rx="5" y="6" x="6" height="38" width="38"
        fill="#f2f5e9" fill-opacity="0.5" stroke="#606060" stroke-width="1.0"/>
   <path id="arrow"
     d="M 11.500037,31.436501 C 11.940474,20.09759 22.043105,11.32322 32.158766,21.979434 L 37.068811,17.246167 C 37.068811,17.246167 37.088388,32 37.088388,32 L 22.160133,31.978069 C 22.160133,31.978069 26.997745,27.140456 26.997745,27.140456 C 18.528582,18.264221 13.291696,25.230495 11.500037,31.436501 z"
     style="fill:#404040;"/>
  </a>
 </g>
</svg>

<style type='text/css'>
<![CDATA[
[data-mouse-over-selected='false'] { opacity: 0.7; }
[data-mouse-over-selected='true']  { opacity: 1.0; }
]]>
</style>
<script type="application/ecmascript"><![CDATA[
document.addEventListener('DOMContentLoaded', (event) => {
  highlightEdges();
  highlightAdjacentNodes();
});
]]></script>
</svg>
