<?xml version="1.0" encoding="UTF-8" standalone="no"?>
<!DOCTYPE svg PUBLIC "-//W3C//DTD SVG 1.1//EN"
 "http://www.w3.org/Graphics/SVG/1.1/DTD/svg11.dtd">
<!-- Generated by graphviz version 14.1.2 (20260124.0452)
 -->
<!-- Title: snowpack Pages: 1 -->
<svg width="416pt" height="27pt"
 viewBox="0.00 0.00 416.00 27.00" xmlns="http://www.w3.org/2000/svg" xmlns:xlink="http://www.w3.org/1999/xlink">
<g id="graph0" class="graph" transform="scale(1 1) rotate(0) translate(4 23.25)">
<title>snowpack</title>
<!-- Node1 -->
<g id="Node000001" class="node">
<title>Node1</title>
<g id="a_Node000001"><a xlink:title="This subroutine calculates compaction of a snowpack under conditions of increasing snow density,...">
<polygon fill="#999999" stroke="#666666" points="407.5,-19.25 347.25,-19.25 347.25,0 407.5,0 407.5,-19.25"/>
<text xml:space="preserve" text-anchor="middle" x="377.38" y="-5.75" font-family="Source Sans Pro" font-size="10.00">snowpack</text>
</a>
</g>
</g>
<!-- Node2 -->
<g id="Node000002" class="node">
<title>Node2</title>
<g id="a_Node000002"><a xlink:href="group___noah___l_s_m_gad65a889bf3f431ade2a312674671ab41.html#gad65a889bf3f431ade2a312674671ab41" target="_top" xlink:title="This subroutine calculates soil moisture and heat flux values and update soil moisture content and so...">
<polygon fill="white" stroke="#666666" points="311.25,-19.25 263.75,-19.25 263.75,0 311.25,0 311.25,-19.25"/>
<text xml:space="preserve" text-anchor="middle" x="287.5" y="-5.75" font-family="Source Sans Pro" font-size="10.00">snopac</text>
</a>
</g>
</g>
<!-- Node1&#45;&gt;Node2 -->
<g id="edge1_Node000001_Node000002" class="edge">
<title>Node1&#45;&gt;Node2</title>
<g id="a_edge1_Node000001_Node000002"><a xlink:title=" ">
<path fill="none" stroke="#63b8ff" d="M335.63,-9.62C327.35,-9.62 318.92,-9.62 311.52,-9.62"/>
<polygon fill="#63b8ff" stroke="#63b8ff" points="335.6,-13.13 345.6,-9.63 335.6,-6.13 335.6,-13.13"/>
</a>
</g>
</g>
<!-- Node3 -->
<g id="Node000003" class="node">
<title>Node3</title>
<g id="a_Node000003"><a xlink:href="group___noah___l_s_m_ga36e98f3ac91f839b816fd167eab30901.html#ga36e98f3ac91f839b816fd167eab30901" target="_top" xlink:title="This is the entity of GFS Noah LSM model of physics subroutines. It is a soil/veg/snowpack land&#45;surfa...">
<polygon fill="white" stroke="#666666" points="227.75,-19.25 160.75,-19.25 160.75,0 227.75,0 227.75,-19.25"/>
<text xml:space="preserve" text-anchor="middle" x="194.25" y="-5.75" font-family="Source Sans Pro" font-size="10.00">sflx::gfssflx</text>
</a>
</g>
</g>
<!-- Node2&#45;&gt;Node3 -->
<g id="edge2_Node000002_Node000003" class="edge">
<title>Node2&#45;&gt;Node3</title>
<g id="a_edge2_Node000002_Node000003"><a xlink:title=" ">
<path fill="none" stroke="#63b8ff" d="M251.99,-9.62C244.1,-9.62 235.73,-9.62 227.92,-9.62"/>
<polygon fill="#63b8ff" stroke="#63b8ff" points="251.96,-13.13 261.96,-9.63 251.96,-6.13 251.96,-13.13"/>
</a>
</g>
</g>
<!-- Node4 -->
<g id="Node000004" class="node">
<title>Node4</title>
<g id="a_Node000004"><a xlink:href="group___noah___l_s_m_ga5d624f72a0da3ffcdf7a01fb9862e0e8.html#ga5d624f72a0da3ffcdf7a01fb9862e0e8" target="_top" xlink:title=" ">
<polygon fill="white" stroke="#666666" points="124.75,-19.25 0,-19.25 0,0 124.75,0 124.75,-19.25"/>
<text xml:space="preserve" text-anchor="middle" x="62.38" y="-5.75" font-family="Source Sans Pro" font-size="10.00">lsm_noah::lsm_noah_run</text>
</a>
</g>
</g>
<!-- Node3&#45;&gt;Node4 -->
<g id="edge3_Node000003_Node000004" class="edge">
<title>Node3&#45;&gt;Node4</title>
<g id="a_edge3_Node000003_Node000004"><a xlink:title=" ">
<path fill="none" stroke="#63b8ff" d="M149.18,-9.62C141.47,-9.62 133.32,-9.62 125.24,-9.62"/>
<polygon fill="#63b8ff" stroke="#63b8ff" points="148.96,-13.13 158.96,-9.63 148.96,-6.13 148.96,-13.13"/>
</a>
</g>
</g>
</g>
</svg>
