<?xml version="1.0" encoding="UTF-8" standalone="no"?>
<!DOCTYPE svg PUBLIC "-//W3C//DTD SVG 1.1//EN"
 "http://www.w3.org/Graphics/SVG/1.1/DTD/svg11.dtd">
<!-- Generated by graphviz version 14.1.2 (20260124.0452)
 -->
<!-- Title: module_sf_mynn::psi_init Pages: 1 -->
<svg width="288pt" height="526pt"
 viewBox="0.00 0.00 288.00 526.00" xmlns="http://www.w3.org/2000/svg" xmlns:xlink="http://www.w3.org/1999/xlink">
<g id="graph0" class="graph" transform="scale(1 1) rotate(0) translate(4 521.5)">
<title>module_sf_mynn::psi_init</title>
<!-- Node1 -->
<g id="Node000001" class="node">
<title>Node1</title>
<g id="a_Node000001"><a xlink:title=" ">
<polygon fill="#999999" stroke="#666666" points="127,-258.88 0,-258.88 0,-239.62 127,-239.62 127,-258.88"/>
<text xml:space="preserve" text-anchor="middle" x="63.5" y="-245.38" font-family="Source Sans Pro" font-size="10.00">module_sf_mynn::psi_init</text>
</a>
</g>
</g>
<!-- Node2 -->
<g id="Node000002" class="node">
<title>Node2</title>
<g id="a_Node000002"><a xlink:href="group__mynn__sfc_ga214373cdd64d666866d4c818b57a47ec.html#ga214373cdd64d666866d4c818b57a47ec" target="_top" xlink:title=" ">
<polygon fill="white" stroke="#666666" points="278.75,-499.5 164.5,-499.5 164.5,-469 278.75,-469 278.75,-499.5"/>
<text xml:space="preserve" text-anchor="start" x="172.5" y="-486" font-family="Source Sans Pro" font-size="10.00">module_sf_mynn::psih</text>
<text xml:space="preserve" text-anchor="middle" x="221.62" y="-474.75" font-family="Source Sans Pro" font-size="10.00">_stable_full</text>
</a>
</g>
</g>
<!-- Node1&#45;&gt;Node2 -->
<g id="edge1_Node000001_Node000002" class="edge">
<title>Node1&#45;&gt;Node2</title>
<g id="a_edge1_Node000001_Node000002"><a xlink:title=" ">
<path fill="none" stroke="#63b8ff" d="M66.49,-259.04C73.63,-291.81 100.89,-398.93 163,-459.25 164.03,-460.25 165.12,-461.22 166.24,-462.15"/>
<polygon fill="#63b8ff" stroke="#63b8ff" points="164.03,-464.88 174.23,-467.74 168.04,-459.14 164.03,-464.88"/>
</a>
</g>
</g>
<!-- Node3 -->
<g id="Node000003" class="node">
<title>Node3</title>
<g id="a_Node000003"><a xlink:href="group__mynn__sfc_ga2186e04d782df51218fbd03d31517fc8.html#ga2186e04d782df51218fbd03d31517fc8" target="_top" xlink:title=" ">
<polygon fill="white" stroke="#666666" points="278.75,-432.5 164.5,-432.5 164.5,-402 278.75,-402 278.75,-432.5"/>
<text xml:space="preserve" text-anchor="start" x="172.5" y="-419" font-family="Source Sans Pro" font-size="10.00">module_sf_mynn::psih</text>
<text xml:space="preserve" text-anchor="middle" x="221.62" y="-407.75" font-family="Source Sans Pro" font-size="10.00">_stable_full_gfs</text>
</a>
</g>
</g>
<!-- Node1&#45;&gt;Node3 -->
<g id="edge3_Node000001_Node000003" class="edge">
<title>Node1&#45;&gt;Node3</title>
<g id="a_edge3_Node000001_Node000003"><a xlink:title=" ">
<path fill="none" stroke="#63b8ff" d="M68.99,-259.34C80.82,-284.91 115.28,-352.99 163,-392.25 164.48,-393.46 166.02,-394.63 167.62,-395.75"/>
<polygon fill="#63b8ff" stroke="#63b8ff" points="165.57,-398.6 175.92,-400.84 169.22,-392.63 165.57,-398.6"/>
</a>
</g>
</g>
<!-- Node4 -->
<g id="Node000004" class="node">
<title>Node4</title>
<g id="a_Node000004"><a xlink:href="group__mynn__sfc_gae46cc20c17ea15f5c9f5610ab6942073.html#gae46cc20c17ea15f5c9f5610ab6942073" target="_top" xlink:title=" ">
<polygon fill="white" stroke="#666666" points="278.75,-365.5 164.5,-365.5 164.5,-335 278.75,-335 278.75,-365.5"/>
<text xml:space="preserve" text-anchor="start" x="172.5" y="-352" font-family="Source Sans Pro" font-size="10.00">module_sf_mynn::psih</text>
<text xml:space="preserve" text-anchor="middle" x="221.62" y="-340.75" font-family="Source Sans Pro" font-size="10.00">_unstable_full</text>
</a>
</g>
</g>
<!-- Node1&#45;&gt;Node4 -->
<g id="edge5_Node000001_Node000004" class="edge">
<title>Node1&#45;&gt;Node4</title>
<g id="a_edge5_Node000001_Node000004"><a xlink:title=" ">
<path fill="none" stroke="#63b8ff" d="M75.66,-259.36C93.25,-274.95 128.96,-305.16 163,-325.25 165.47,-326.71 168.03,-328.12 170.65,-329.5"/>
<polygon fill="#63b8ff" stroke="#63b8ff" points="169.05,-332.61 179.56,-333.9 172.15,-326.34 169.05,-332.61"/>
</a>
</g>
</g>
<!-- Node5 -->
<g id="Node000005" class="node">
<title>Node5</title>
<g id="a_Node000005"><a xlink:href="group__mynn__sfc_gaa556db3881e63c9fc578aafd1071e248.html#gaa556db3881e63c9fc578aafd1071e248" target="_top" xlink:title=" ">
<polygon fill="white" stroke="#666666" points="278.75,-298.5 164.5,-298.5 164.5,-268 278.75,-268 278.75,-298.5"/>
<text xml:space="preserve" text-anchor="start" x="172.5" y="-285" font-family="Source Sans Pro" font-size="10.00">module_sf_mynn::psih</text>
<text xml:space="preserve" text-anchor="middle" x="221.62" y="-273.75" font-family="Source Sans Pro" font-size="10.00">_unstable_full_gfs</text>
</a>
</g>
</g>
<!-- Node1&#45;&gt;Node5 -->
<g id="edge7_Node000001_Node000005" class="edge">
<title>Node1&#45;&gt;Node5</title>
<g id="a_edge7_Node000001_Node000005"><a xlink:title=" ">
<path fill="none" stroke="#63b8ff" d="M110.92,-259.36C124.11,-262.23 138.76,-265.42 152.93,-268.51"/>
<polygon fill="#63b8ff" stroke="#63b8ff" points="152.17,-271.93 162.69,-270.63 153.66,-265.09 152.17,-271.93"/>
</a>
</g>
</g>
<!-- Node6 -->
<g id="Node000006" class="node">
<title>Node6</title>
<g id="a_Node000006"><a xlink:href="group__mynn__sfc_gaaefd04628906b35b8ba54bbf62e6a78f.html#gaaefd04628906b35b8ba54bbf62e6a78f" target="_top" xlink:title=" ">
<polygon fill="white" stroke="#666666" points="280.25,-231.5 163,-231.5 163,-201 280.25,-201 280.25,-231.5"/>
<text xml:space="preserve" text-anchor="start" x="171" y="-218" font-family="Source Sans Pro" font-size="10.00">module_sf_mynn::psim</text>
<text xml:space="preserve" text-anchor="middle" x="221.62" y="-206.75" font-family="Source Sans Pro" font-size="10.00">_stable_full</text>
</a>
</g>
</g>
<!-- Node1&#45;&gt;Node6 -->
<g id="edge9_Node000001_Node000006" class="edge">
<title>Node1&#45;&gt;Node6</title>
<g id="a_edge9_Node000001_Node000006"><a xlink:title=" ">
<path fill="none" stroke="#63b8ff" d="M112.19,-239.17C124.66,-236.53 138.36,-233.64 151.69,-230.82"/>
<polygon fill="#63b8ff" stroke="#63b8ff" points="152.23,-234.28 161.29,-228.79 150.79,-227.43 152.23,-234.28"/>
</a>
</g>
</g>
<!-- Node7 -->
<g id="Node000007" class="node">
<title>Node7</title>
<g id="a_Node000007"><a xlink:href="group__mynn__sfc_ga12649bf97aa4974c23a7723c418907e0.html#ga12649bf97aa4974c23a7723c418907e0" target="_top" xlink:title=" ">
<polygon fill="white" stroke="#666666" points="280.25,-164.5 163,-164.5 163,-134 280.25,-134 280.25,-164.5"/>
<text xml:space="preserve" text-anchor="start" x="171" y="-151" font-family="Source Sans Pro" font-size="10.00">module_sf_mynn::psim</text>
<text xml:space="preserve" text-anchor="middle" x="221.62" y="-139.75" font-family="Source Sans Pro" font-size="10.00">_stable_full_gfs</text>
</a>
</g>
</g>
<!-- Node1&#45;&gt;Node7 -->
<g id="edge11_Node000001_Node000007" class="edge">
<title>Node1&#45;&gt;Node7</title>
<g id="a_edge11_Node000001_Node000007"><a xlink:title=" ">
<path fill="none" stroke="#63b8ff" d="M80.04,-239.3C104.82,-223.42 153.86,-192.01 186.95,-170.82"/>
<polygon fill="#63b8ff" stroke="#63b8ff" points="188.44,-174.02 194.97,-165.68 184.67,-168.13 188.44,-174.02"/>
</a>
</g>
</g>
<!-- Node8 -->
<g id="Node000008" class="node">
<title>Node8</title>
<g id="a_Node000008"><a xlink:href="group__mynn__sfc_gace0216359bf098fd5cc7fa7cb8b3b716.html#gace0216359bf098fd5cc7fa7cb8b3b716" target="_top" xlink:title=" ">
<polygon fill="white" stroke="#666666" points="280.25,-97.5 163,-97.5 163,-67 280.25,-67 280.25,-97.5"/>
<text xml:space="preserve" text-anchor="start" x="171" y="-84" font-family="Source Sans Pro" font-size="10.00">module_sf_mynn::psim</text>
<text xml:space="preserve" text-anchor="middle" x="221.62" y="-72.75" font-family="Source Sans Pro" font-size="10.00">_unstable_full</text>
</a>
</g>
</g>
<!-- Node1&#45;&gt;Node8 -->
<g id="edge13_Node000001_Node000008" class="edge">
<title>Node1&#45;&gt;Node8</title>
<g id="a_edge13_Node000001_Node000008"><a xlink:title=" ">
<path fill="none" stroke="#63b8ff" d="M71.14,-239.21C85.99,-217.14 123.73,-163.35 163,-125.25 170.49,-117.99 179.22,-110.88 187.6,-104.61"/>
<polygon fill="#63b8ff" stroke="#63b8ff" points="189.56,-107.52 195.59,-98.81 185.44,-101.85 189.56,-107.52"/>
</a>
</g>
</g>
<!-- Node9 -->
<g id="Node000009" class="node">
<title>Node9</title>
<g id="a_Node000009"><a xlink:href="group__mynn__sfc_ga8e88a4eb2ee98eb538da06f42215e8b7.html#ga8e88a4eb2ee98eb538da06f42215e8b7" target="_top" xlink:title=" ">
<polygon fill="white" stroke="#666666" points="280.25,-30.5 163,-30.5 163,0 280.25,0 280.25,-30.5"/>
<text xml:space="preserve" text-anchor="start" x="171" y="-17" font-family="Source Sans Pro" font-size="10.00">module_sf_mynn::psim</text>
<text xml:space="preserve" text-anchor="middle" x="221.62" y="-5.75" font-family="Source Sans Pro" font-size="10.00">_unstable_full_gfs</text>
</a>
</g>
</g>
<!-- Node1&#45;&gt;Node9 -->
<g id="edge15_Node000001_Node000009" class="edge">
<title>Node1&#45;&gt;Node9</title>
<g id="a_edge15_Node000001_Node000009"><a xlink:title=" ">
<path fill="none" stroke="#63b8ff" d="M67.84,-239.19C78.19,-209.12 112.11,-118.31 163,-58.25 169.44,-50.65 177.46,-43.61 185.45,-37.52"/>
<polygon fill="#63b8ff" stroke="#63b8ff" points="187.44,-40.41 193.5,-31.72 183.34,-34.73 187.44,-40.41"/>
</a>
</g>
</g>
<!-- Node2&#45;&gt;Node2 -->
<g id="edge2_Node000002_Node000002" class="edge">
<title>Node2&#45;&gt;Node2</title>
<g id="a_edge2_Node000002_Node000002"><a xlink:title=" ">
<path fill="none" stroke="#63b8ff" d="M193.61,-499.99C187.89,-509.06 197.23,-517.5 221.62,-517.5 234.97,-517.5 243.81,-514.97 248.14,-511.2"/>
<polygon fill="#63b8ff" stroke="#63b8ff" points="251.59,-511.86 249.44,-501.49 244.65,-510.93 251.59,-511.86"/>
</a>
</g>
</g>
<!-- Node3&#45;&gt;Node3 -->
<g id="edge4_Node000003_Node000003" class="edge">
<title>Node3&#45;&gt;Node3</title>
<g id="a_edge4_Node000003_Node000003"><a xlink:title=" ">
<path fill="none" stroke="#63b8ff" d="M193.61,-432.99C187.89,-442.06 197.23,-450.5 221.62,-450.5 234.97,-450.5 243.81,-447.97 248.14,-444.2"/>
<polygon fill="#63b8ff" stroke="#63b8ff" points="251.59,-444.86 249.44,-434.49 244.65,-443.93 251.59,-444.86"/>
</a>
</g>
</g>
<!-- Node4&#45;&gt;Node4 -->
<g id="edge6_Node000004_Node000004" class="edge">
<title>Node4&#45;&gt;Node4</title>
<g id="a_edge6_Node000004_Node000004"><a xlink:title=" ">
<path fill="none" stroke="#63b8ff" d="M193.61,-365.99C187.89,-375.06 197.23,-383.5 221.62,-383.5 234.97,-383.5 243.81,-380.97 248.14,-377.2"/>
<polygon fill="#63b8ff" stroke="#63b8ff" points="251.59,-377.86 249.44,-367.49 244.65,-376.93 251.59,-377.86"/>
</a>
</g>
</g>
<!-- Node5&#45;&gt;Node5 -->
<g id="edge8_Node000005_Node000005" class="edge">
<title>Node5&#45;&gt;Node5</title>
<g id="a_edge8_Node000005_Node000005"><a xlink:title=" ">
<path fill="none" stroke="#63b8ff" d="M193.61,-298.99C187.89,-308.06 197.23,-316.5 221.62,-316.5 234.97,-316.5 243.81,-313.97 248.14,-310.2"/>
<polygon fill="#63b8ff" stroke="#63b8ff" points="251.59,-310.86 249.44,-300.49 244.65,-309.93 251.59,-310.86"/>
</a>
</g>
</g>
<!-- Node6&#45;&gt;Node6 -->
<g id="edge10_Node000006_Node000006" class="edge">
<title>Node6&#45;&gt;Node6</title>
<g id="a_edge10_Node000006_Node000006"><a xlink:title=" ">
<path fill="none" stroke="#63b8ff" d="M193.61,-231.99C187.89,-241.06 197.23,-249.5 221.62,-249.5 234.97,-249.5 243.81,-246.97 248.14,-243.2"/>
<polygon fill="#63b8ff" stroke="#63b8ff" points="251.59,-243.86 249.44,-233.49 244.65,-242.93 251.59,-243.86"/>
</a>
</g>
</g>
<!-- Node7&#45;&gt;Node7 -->
<g id="edge12_Node000007_Node000007" class="edge">
<title>Node7&#45;&gt;Node7</title>
<g id="a_edge12_Node000007_Node000007"><a xlink:title=" ">
<path fill="none" stroke="#63b8ff" d="M193.61,-164.99C187.89,-174.06 197.23,-182.5 221.62,-182.5 234.97,-182.5 243.81,-179.97 248.14,-176.2"/>
<polygon fill="#63b8ff" stroke="#63b8ff" points="251.59,-176.86 249.44,-166.49 244.65,-175.93 251.59,-176.86"/>
</a>
</g>
</g>
<!-- Node8&#45;&gt;Node8 -->
<g id="edge14_Node000008_Node000008" class="edge">
<title>Node8&#45;&gt;Node8</title>
<g id="a_edge14_Node000008_Node000008"><a xlink:title=" ">
<path fill="none" stroke="#63b8ff" d="M193.61,-97.99C187.89,-107.06 197.23,-115.5 221.62,-115.5 234.97,-115.5 243.81,-112.97 248.14,-109.2"/>
<polygon fill="#63b8ff" stroke="#63b8ff" points="251.59,-109.86 249.44,-99.49 244.65,-108.93 251.59,-109.86"/>
</a>
</g>
</g>
<!-- Node9&#45;&gt;Node9 -->
<g id="edge16_Node000009_Node000009" class="edge">
<title>Node9&#45;&gt;Node9</title>
<g id="a_edge16_Node000009_Node000009"><a xlink:title=" ">
<path fill="none" stroke="#63b8ff" d="M193.61,-30.99C187.89,-40.06 197.23,-48.5 221.62,-48.5 234.97,-48.5 243.81,-45.97 248.14,-42.2"/>
<polygon fill="#63b8ff" stroke="#63b8ff" points="251.59,-42.86 249.44,-32.49 244.65,-41.93 251.59,-42.86"/>
</a>
</g>
</g>
</g>
</svg>
