<?xml version="1.0" encoding="UTF-8" standalone="no"?>
<!DOCTYPE svg PUBLIC "-//W3C//DTD SVG 1.1//EN"
 "http://www.w3.org/Graphics/SVG/1.1/DTD/svg11.dtd">
<!-- Generated by graphviz version 14.1.2 (20260124.0452)
 -->
<!-- Title: nst_module::dtl_reset Pages: 1 -->
<svg width="554pt" height="83pt"
 viewBox="0.00 0.00 554.00 83.00" xmlns="http://www.w3.org/2000/svg" xmlns:xlink="http://www.w3.org/1999/xlink">
<g id="graph0" class="graph" transform="scale(1 1) rotate(0) translate(4 79.25)">
<title>nst_module::dtl_reset</title>
<!-- Node1 -->
<g id="Node000001" class="node">
<title>Node1</title>
<g id="a_Node000001"><a xlink:title="This subroutine resets the value of xt,xs,xu,xv,xz,xtts,xzts.">
<polygon fill="#999999" stroke="#666666" points="545.5,-38.25 435.75,-38.25 435.75,-19 545.5,-19 545.5,-38.25"/>
<text xml:space="preserve" text-anchor="middle" x="490.62" y="-24.75" font-family="Source Sans Pro" font-size="10.00">nst_module::dtl_reset</text>
</a>
</g>
</g>
<!-- Node2 -->
<g id="Node000002" class="node">
<title>Node2</title>
<g id="a_Node000002"><a xlink:href="group__gfs__nst__main__mod_ga8a675addc5dc1e840b49bf2ceac1baf9.html#ga8a675addc5dc1e840b49bf2ceac1baf9" target="_top" xlink:title=" ">
<polygon fill="white" stroke="#666666" points="399.75,-75.25 281.75,-75.25 281.75,-56 399.75,-56 399.75,-75.25"/>
<text xml:space="preserve" text-anchor="middle" x="340.75" y="-61.75" font-family="Source Sans Pro" font-size="10.00">nst_module::dtm_onset</text>
</a>
</g>
</g>
<!-- Node1&#45;&gt;Node2 -->
<g id="edge1_Node000001_Node000002" class="edge">
<title>Node1&#45;&gt;Node2</title>
<g id="a_edge1_Node000001_Node000002"><a xlink:title=" ">
<path fill="none" stroke="#63b8ff" d="M438.1,-41.52C419.76,-46.11 399.38,-51.2 382.11,-55.53"/>
<polygon fill="#63b8ff" stroke="#63b8ff" points="438.9,-44.93 447.75,-39.1 437.2,-38.13 438.9,-44.93"/>
</a>
</g>
</g>
<!-- Node4 -->
<g id="Node000004" class="node">
<title>Node4</title>
<g id="a_Node000004"><a xlink:href="group__gfs__nst__main__mod_gac3a5be259ff62716070a38364d88cac4.html#gac3a5be259ff62716070a38364d88cac4" target="_top" xlink:title=" ">
<polygon fill="white" stroke="#666666" points="105.25,-19.25 0,-19.25 0,0 105.25,0 105.25,-19.25"/>
<text xml:space="preserve" text-anchor="middle" x="52.62" y="-5.75" font-family="Source Sans Pro" font-size="10.00">sfc_nst::sfc_nst_run</text>
</a>
</g>
</g>
<!-- Node1&#45;&gt;Node4 -->
<g id="edge6_Node000001_Node000004" class="edge">
<title>Node1&#45;&gt;Node4</title>
<g id="a_edge6_Node000001_Node000004"><a xlink:title=" ">
<path fill="none" stroke="#63b8ff" d="M439.53,-16.11C426.65,-13.42 412.75,-10.98 399.75,-9.62 295.91,1.23 173.58,-2.65 105.7,-6.26"/>
<polygon fill="#63b8ff" stroke="#63b8ff" points="438.54,-19.47 449.05,-18.19 440.03,-12.64 438.54,-19.47"/>
</a>
</g>
</g>
<!-- Node5 -->
<g id="Node000005" class="node">
<title>Node5</title>
<g id="a_Node000005"><a xlink:href="group__gfs__nst__main__mod_gaa63c73ffe0e4993cd939bfd283d31f8c.html#gaa63c73ffe0e4993cd939bfd283d31f8c" target="_top" xlink:title="This subroutine integrates one time step with modified Euler method.">
<polygon fill="white" stroke="#666666" points="391.5,-38.25 290,-38.25 290,-19 391.5,-19 391.5,-38.25"/>
<text xml:space="preserve" text-anchor="middle" x="340.75" y="-24.75" font-family="Source Sans Pro" font-size="10.00">nst_module::eulerm</text>
</a>
</g>
</g>
<!-- Node1&#45;&gt;Node5 -->
<g id="edge4_Node000001_Node000005" class="edge">
<title>Node1&#45;&gt;Node5</title>
<g id="a_edge4_Node000001_Node000005"><a xlink:title=" ">
<path fill="none" stroke="#63b8ff" d="M424.14,-28.62C413.2,-28.62 402.01,-28.62 391.55,-28.62"/>
<polygon fill="#63b8ff" stroke="#63b8ff" points="423.89,-32.13 433.89,-28.63 423.89,-25.13 423.89,-32.13"/>
</a>
</g>
</g>
<!-- Node3 -->
<g id="Node000003" class="node">
<title>Node3</title>
<g id="a_Node000003"><a xlink:href="group__gfs__nst__main__mod_ga5571223d5c5ae3121591f34a8d33223e.html#ga5571223d5c5ae3121591f34a8d33223e" target="_top" xlink:title="This subroutine contains the module of diurnal thermocline layer model.">
<polygon fill="white" stroke="#666666" points="245.75,-38.25 141.25,-38.25 141.25,-19 245.75,-19 245.75,-38.25"/>
<text xml:space="preserve" text-anchor="middle" x="193.5" y="-24.75" font-family="Source Sans Pro" font-size="10.00">nst_module::dtm_1p</text>
</a>
</g>
</g>
<!-- Node2&#45;&gt;Node3 -->
<g id="edge2_Node000002_Node000003" class="edge">
<title>Node2&#45;&gt;Node3</title>
<g id="a_edge2_Node000002_Node000003"><a xlink:title=" ">
<path fill="none" stroke="#63b8ff" d="M289.14,-52.73C271.12,-48.14 251.11,-43.05 234.14,-38.72"/>
<polygon fill="#63b8ff" stroke="#63b8ff" points="288.04,-56.06 298.59,-55.14 289.77,-49.28 288.04,-56.06"/>
</a>
</g>
</g>
<!-- Node3&#45;&gt;Node4 -->
<g id="edge3_Node000003_Node000004" class="edge">
<title>Node3&#45;&gt;Node4</title>
<g id="a_edge3_Node000003_Node000004"><a xlink:title=" ">
<path fill="none" stroke="#63b8ff" d="M129.5,-20.01C121.43,-18.9 113.24,-17.78 105.38,-16.71"/>
<polygon fill="#63b8ff" stroke="#63b8ff" points="128.91,-23.46 139.29,-21.34 129.86,-16.52 128.91,-23.46"/>
</a>
</g>
</g>
<!-- Node5&#45;&gt;Node3 -->
<g id="edge5_Node000005_Node000003" class="edge">
<title>Node5&#45;&gt;Node3</title>
<g id="a_edge5_Node000005_Node000003"><a xlink:title=" ">
<path fill="none" stroke="#63b8ff" d="M278.29,-28.62C267.56,-28.62 256.49,-28.62 246.06,-28.62"/>
<polygon fill="#63b8ff" stroke="#63b8ff" points="278.25,-32.13 288.25,-28.63 278.25,-25.13 278.25,-32.13"/>
</a>
</g>
</g>
</g>
</svg>
