<?xml version="1.0" encoding="UTF-8" standalone="no"?>
<!DOCTYPE svg PUBLIC "-//W3C//DTD SVG 1.1//EN"
 "http://www.w3.org/Graphics/SVG/1.1/DTD/svg11.dtd">
<!-- Generated by graphviz version 14.1.2 (20260124.0452)
 -->
<!-- Title: nst_module::dtl_reset Pages: 1 -->
<!--zoomable 83 -->

<svg id="main" version="1.1" xmlns="http://www.w3.org/2000/svg" xmlns:xlink="http://www.w3.org/1999/xlink" xml:space="preserve" onload="init(evt)">

<style type="text/css"><![CDATA[
.node, .edge {opacity: 0.7;}
.node.selected, .edge.selected {opacity: 1;}
.edge:hover path { stroke: red; }
.edge:hover polygon { stroke: red; fill: red; }
]]></style>

<defs>
  <circle id="rim" cx="0" cy="0" r="7"/>
  <circle id="rim2" cx="0" cy="0" r="3.5"/>
  <g id="zoomPlus">
    <use xlink:href="#rim" fill="#404040"><set attributeName="fill" to="#808080" begin="zoomplus.mouseover" end="zoomplus.mouseout"/></use>
    <path d="M-4,0h8M0,-4v8" fill="none" stroke="white" stroke-width="1.5" pointer-events="none"/>
  </g>
  <g id="zoomMin">
    <use xlink:href="#rim" fill="#404040"><set attributeName="fill" to="#808080" begin="zoomminus.mouseover" end="zoomminus.mouseout"/></use>
    <path d="M-4,0h8" fill="none" stroke="white" stroke-width="1.5" pointer-events="none"/>
  </g>
  <g id="arrowUp" transform="translate(30 24)">
    <use xlink:href="#rim"/>
    <path pointer-events="none" fill="none" stroke="white" stroke-width="1.5" d="M0,-3.0v7 M-2.5,-0.5L0,-3.0L2.5,-0.5"/>
  </g>
  <g id="arrowRight" transform="rotate(90) translate(36 -43)">
    <use xlink:href="#rim"/>
    <path pointer-events="none" fill="none" stroke="white" stroke-width="1.5" d="M0,-3.0v7 M-2.5,-0.5L0,-3.0L2.5,-0.5"/>
  </g>
  <g id="arrowDown" transform="rotate(180) translate(-30 -48)">
    <use xlink:href="#rim"/>
    <path pointer-events="none" fill="none" stroke="white" stroke-width="1.5" d="M0,-3.0v7 M-2.5,-0.5L0,-3.0L2.5,-0.5"/>
  </g>
  <g id="arrowLeft" transform="rotate(270) translate(-36 17)">
    <use xlink:href="#rim"/>
    <path pointer-events="none" fill="none" stroke="white" stroke-width="1.5" d="M0,-3.0v7 M-2.5,-0.5L0,-3.0L2.5,-0.5"/>
  </g>
  <g id="resetDef">
    <use xlink:href="#rim2" fill="#404040"><set attributeName="fill" to="#808080" begin="reset.mouseover" end="reset.mouseout"/></use>
  </g>
</defs>
<script type="application/ecmascript">
var viewWidth = 554;
var viewHeight = 83;
var sectionId = 'dynsection-0';
</script>
<script type="application/ecmascript" xlink:href="svg.min.js"/>
<svg id="graph" class="graph">
<g id="viewport">
<title>nst_module::dtl_reset</title>
<!-- Node1 -->
<g id="Node000001" class="node">
<title>Node1</title>
<g id="a_Node000001"><a xlink:title="This subroutine resets the value of xt,xs,xu,xv,xz,xtts,xzts.">
<polygon fill="#999999" stroke="#666666" points="545.5,-38.25 435.75,-38.25 435.75,-19 545.5,-19 545.5,-38.25"/>
<text xml:space="preserve" text-anchor="middle" x="490.62" y="-24.75" font-family="Source Sans Pro" font-size="10.00">nst_module::dtl_reset</text>
</a>
</g>
</g>
<!-- Node2 -->
<g id="Node000002" class="node">
<title>Node2</title>
<g id="a_Node000002"><a xlink:href="group__gfs__nst__main__mod_ga8a675addc5dc1e840b49bf2ceac1baf9.html#ga8a675addc5dc1e840b49bf2ceac1baf9" target="_top" xlink:title=" ">
<polygon fill="white" stroke="#666666" points="399.75,-75.25 281.75,-75.25 281.75,-56 399.75,-56 399.75,-75.25"/>
<text xml:space="preserve" text-anchor="middle" x="340.75" y="-61.75" font-family="Source Sans Pro" font-size="10.00">nst_module::dtm_onset</text>
</a>
</g>
</g>
<!-- Node1&#45;&gt;Node2 -->
<g id="edge1_Node000001_Node000002" class="edge">
<title>Node1&#45;&gt;Node2</title>
<g id="a_edge1_Node000001_Node000002"><a xlink:title=" ">
<path fill="none" stroke="#63b8ff" d="M438.1,-41.52C419.76,-46.11 399.38,-51.2 382.11,-55.53"/>
<polygon fill="#63b8ff" stroke="#63b8ff" points="438.9,-44.93 447.75,-39.1 437.2,-38.13 438.9,-44.93"/>
</a>
</g>
</g>
<!-- Node4 -->
<g id="Node000004" class="node">
<title>Node4</title>
<g id="a_Node000004"><a xlink:href="group__gfs__nst__main__mod_gac3a5be259ff62716070a38364d88cac4.html#gac3a5be259ff62716070a38364d88cac4" target="_top" xlink:title=" ">
<polygon fill="white" stroke="#666666" points="105.25,-19.25 0,-19.25 0,0 105.25,0 105.25,-19.25"/>
<text xml:space="preserve" text-anchor="middle" x="52.62" y="-5.75" font-family="Source Sans Pro" font-size="10.00">sfc_nst::sfc_nst_run</text>
</a>
</g>
</g>
<!-- Node1&#45;&gt;Node4 -->
<g id="edge6_Node000001_Node000004" class="edge">
<title>Node1&#45;&gt;Node4</title>
<g id="a_edge6_Node000001_Node000004"><a xlink:title=" ">
<path fill="none" stroke="#63b8ff" d="M439.53,-16.11C426.65,-13.42 412.75,-10.98 399.75,-9.62 295.91,1.23 173.58,-2.65 105.7,-6.26"/>
<polygon fill="#63b8ff" stroke="#63b8ff" points="438.54,-19.47 449.05,-18.19 440.03,-12.64 438.54,-19.47"/>
</a>
</g>
</g>
<!-- Node5 -->
<g id="Node000005" class="node">
<title>Node5</title>
<g id="a_Node000005"><a xlink:href="group__gfs__nst__main__mod_gaa63c73ffe0e4993cd939bfd283d31f8c.html#gaa63c73ffe0e4993cd939bfd283d31f8c" target="_top" xlink:title="This subroutine integrates one time step with modified Euler method.">
<polygon fill="white" stroke="#666666" points="391.5,-38.25 290,-38.25 290,-19 391.5,-19 391.5,-38.25"/>
<text xml:space="preserve" text-anchor="middle" x="340.75" y="-24.75" font-family="Source Sans Pro" font-size="10.00">nst_module::eulerm</text>
</a>
</g>
</g>
<!-- Node1&#45;&gt;Node5 -->
<g id="edge4_Node000001_Node000005" class="edge">
<title>Node1&#45;&gt;Node5</title>
<g id="a_edge4_Node000001_Node000005"><a xlink:title=" ">
<path fill="none" stroke="#63b8ff" d="M424.14,-28.62C413.2,-28.62 402.01,-28.62 391.55,-28.62"/>
<polygon fill="#63b8ff" stroke="#63b8ff" points="423.89,-32.13 433.89,-28.63 423.89,-25.13 423.89,-32.13"/>
</a>
</g>
</g>
<!-- Node3 -->
<g id="Node000003" class="node">
<title>Node3</title>
<g id="a_Node000003"><a xlink:href="group__gfs__nst__main__mod_ga5571223d5c5ae3121591f34a8d33223e.html#ga5571223d5c5ae3121591f34a8d33223e" target="_top" xlink:title="This subroutine contains the module of diurnal thermocline layer model.">
<polygon fill="white" stroke="#666666" points="245.75,-38.25 141.25,-38.25 141.25,-19 245.75,-19 245.75,-38.25"/>
<text xml:space="preserve" text-anchor="middle" x="193.5" y="-24.75" font-family="Source Sans Pro" font-size="10.00">nst_module::dtm_1p</text>
</a>
</g>
</g>
<!-- Node2&#45;&gt;Node3 -->
<g id="edge2_Node000002_Node000003" class="edge">
<title>Node2&#45;&gt;Node3</title>
<g id="a_edge2_Node000002_Node000003"><a xlink:title=" ">
<path fill="none" stroke="#63b8ff" d="M289.14,-52.73C271.12,-48.14 251.11,-43.05 234.14,-38.72"/>
<polygon fill="#63b8ff" stroke="#63b8ff" points="288.04,-56.06 298.59,-55.14 289.77,-49.28 288.04,-56.06"/>
</a>
</g>
</g>
<!-- Node3&#45;&gt;Node4 -->
<g id="edge3_Node000003_Node000004" class="edge">
<title>Node3&#45;&gt;Node4</title>
<g id="a_edge3_Node000003_Node000004"><a xlink:title=" ">
<path fill="none" stroke="#63b8ff" d="M129.5,-20.01C121.43,-18.9 113.24,-17.78 105.38,-16.71"/>
<polygon fill="#63b8ff" stroke="#63b8ff" points="128.91,-23.46 139.29,-21.34 129.86,-16.52 128.91,-23.46"/>
</a>
</g>
</g>
<!-- Node5&#45;&gt;Node3 -->
<g id="edge5_Node000005_Node000003" class="edge">
<title>Node5&#45;&gt;Node3</title>
<g id="a_edge5_Node000005_Node000003"><a xlink:title=" ">
<path fill="none" stroke="#63b8ff" d="M278.29,-28.62C267.56,-28.62 256.49,-28.62 246.06,-28.62"/>
<polygon fill="#63b8ff" stroke="#63b8ff" points="278.25,-32.13 288.25,-28.63 278.25,-25.13 278.25,-32.13"/>
</a>
</g>
</g>
</g>
</svg>

<g id="navigator" transform="translate(0 0)" fill="#404254">
  <rect fill="#f2f5e9" fill-opacity="0.5" stroke="#606060" stroke-width=".5" x="0" y="0" width="60" height="60"/>
  <use id="zoomplus" xlink:href="#zoomPlus" x="17" y="9" onmousedown="handleZoom(evt,'in')"/>
  <use id="zoomminus" xlink:href="#zoomMin" x="42" y="9" onmousedown="handleZoom(evt,'out')"/>
  <use id="reset" xlink:href="#resetDef" x="30" y="36" onmousedown="handleReset()"/>
   <use id="arrowup" xlink:href="#arrowUp" x="0" y="0" onmousedown="handlePan(0,-1)"/>
  <use id="arrowright" xlink:href="#arrowRight" x="0" y="0" onmousedown="handlePan(1,0)"/>
  <use id="arrowdown" xlink:href="#arrowDown" x="0" y="0" onmousedown="handlePan(0,1)"/>
  <use id="arrowleft" xlink:href="#arrowLeft" x="0" y="0" onmousedown="handlePan(-1,0)"/>
</g>
<svg viewBox="0 0 15 15" width="100%" height="30px" preserveAspectRatio="xMaxYMin meet">
 <g id="arrow_out" transform="scale(0.3 0.3)">
  <a xlink:href="group__gfs__nst__main__mod_ga7bd8d3987cfe757a5b0e3cdfd5baa26c_ga7bd8d3987cfe757a5b0e3cdfd5baa26c_icgraph_org.svg" target="_base">
   <rect id="button" ry="5" rx="5" y="6" x="6" height="38" width="38"
        fill="#f2f5e9" fill-opacity="0.5" stroke="#606060" stroke-width="1.0"/>
   <path id="arrow"
     d="M 11.500037,31.436501 C 11.940474,20.09759 22.043105,11.32322 32.158766,21.979434 L 37.068811,17.246167 C 37.068811,17.246167 37.088388,32 37.088388,32 L 22.160133,31.978069 C 22.160133,31.978069 26.997745,27.140456 26.997745,27.140456 C 18.528582,18.264221 13.291696,25.230495 11.500037,31.436501 z"
     style="fill:#404040;"/>
  </a>
 </g>
</svg>

<style type='text/css'>
<![CDATA[
[data-mouse-over-selected='false'] { opacity: 0.7; }
[data-mouse-over-selected='true']  { opacity: 1.0; }
]]>
</style>
<script type="application/ecmascript"><![CDATA[
document.addEventListener('DOMContentLoaded', (event) => {
  highlightEdges();
  highlightAdjacentNodes();
});
]]></script>
</svg>
