<?xml version="1.0" encoding="UTF-8" standalone="no"?>
<!DOCTYPE svg PUBLIC "-//W3C//DTD SVG 1.1//EN"
 "http://www.w3.org/Graphics/SVG/1.1/DTD/svg11.dtd">
<!-- Generated by graphviz version 14.1.2 (20260124.0452)
 -->
<!-- Title: water Pages: 1 -->
<svg width="439pt" height="343pt"
 viewBox="0.00 0.00 439.00 343.00" xmlns="http://www.w3.org/2000/svg" xmlns:xlink="http://www.w3.org/1999/xlink">
<g id="graph0" class="graph" transform="scale(1 1) rotate(0) translate(4 339.25)">
<title>water</title>
<!-- Node1 -->
<g id="Node000001" class="node">
<title>Node1</title>
<g id="a_Node000001"><a xlink:title="compute water budgets (water storages, et components, and runoff)">
<polygon fill="#999999" stroke="#666666" points="40,-261.25 0,-261.25 0,-242 40,-242 40,-261.25"/>
<text xml:space="preserve" text-anchor="middle" x="20" y="-247.75" font-family="Source Sans Pro" font-size="10.00">water</text>
</a>
</g>
</g>
<!-- Node2 -->
<g id="Node000002" class="node">
<title>Node2</title>
<g id="a_Node000002"><a xlink:href="group___noah_m_p___l_s_m_ga0f7c6c8dacb67eba3a21e7d4d3afc369.html#ga0f7c6c8dacb67eba3a21e7d4d3afc369" target="_top" xlink:title="canopy hydrology">
<polygon fill="white" stroke="#666666" points="150.88,-335.25 95.12,-335.25 95.12,-316 150.88,-316 150.88,-335.25"/>
<text xml:space="preserve" text-anchor="middle" x="123" y="-321.75" font-family="Source Sans Pro" font-size="10.00">canwater</text>
</a>
</g>
</g>
<!-- Node1&#45;&gt;Node2 -->
<g id="edge1_Node000001_Node000002" class="edge">
<title>Node1&#45;&gt;Node2</title>
<g id="a_edge1_Node000001_Node000002"><a xlink:title=" ">
<path fill="none" stroke="#63b8ff" d="M28.56,-261.58C38.34,-273.87 56.44,-294.71 76,-307.62 78.68,-309.4 81.57,-311.04 84.54,-312.54"/>
<polygon fill="#63b8ff" stroke="#63b8ff" points="82.85,-315.62 93.41,-316.54 85.73,-309.24 82.85,-315.62"/>
</a>
</g>
</g>
<!-- Node3 -->
<g id="Node000003" class="node">
<title>Node3</title>
<g id="a_Node000003"><a xlink:href="group___noah_m_p___l_s_m_ga6ce8861ff5926b6f3efb1e7d8c552de1.html#ga6ce8861ff5926b6f3efb1e7d8c552de1" target="_top" xlink:title=" ">
<polygon fill="white" stroke="#666666" points="157.62,-298.25 88.38,-298.25 88.38,-279 157.62,-279 157.62,-298.25"/>
<text xml:space="preserve" text-anchor="middle" x="123" y="-284.75" font-family="Source Sans Pro" font-size="10.00">groundwater</text>
</a>
</g>
</g>
<!-- Node1&#45;&gt;Node3 -->
<g id="edge2_Node000001_Node000003" class="edge">
<title>Node1&#45;&gt;Node3</title>
<g id="a_edge2_Node000001_Node000003"><a xlink:title=" ">
<path fill="none" stroke="#63b8ff" d="M40.47,-258.76C52.84,-263.29 69.25,-269.3 84.1,-274.74"/>
<polygon fill="#63b8ff" stroke="#63b8ff" points="82.55,-277.9 93.15,-278.06 84.96,-271.33 82.55,-277.9"/>
</a>
</g>
</g>
<!-- Node4 -->
<g id="Node000004" class="node">
<title>Node4</title>
<g id="a_Node000004"><a xlink:href="group___noah_m_p___l_s_m_ga027ec32eb5879830419538747eeb65a5.html#ga027ec32eb5879830419538747eeb65a5" target="_top" xlink:title="diagnoses water table depth and computes recharge when the water table is within the resolved soil la...">
<polygon fill="white" stroke="#666666" points="170,-261.25 76,-261.25 76,-242 170,-242 170,-261.25"/>
<text xml:space="preserve" text-anchor="middle" x="123" y="-247.75" font-family="Source Sans Pro" font-size="10.00">shallowwatertable</text>
</a>
</g>
</g>
<!-- Node1&#45;&gt;Node4 -->
<g id="edge3_Node000001_Node000004" class="edge">
<title>Node1&#45;&gt;Node4</title>
<g id="a_edge3_Node000001_Node000004"><a xlink:title=" ">
<path fill="none" stroke="#63b8ff" d="M40.47,-251.62C47.49,-251.62 55.81,-251.62 64.41,-251.62"/>
<polygon fill="#63b8ff" stroke="#63b8ff" points="64.27,-255.13 74.27,-251.63 64.27,-248.13 64.27,-255.13"/>
</a>
</g>
</g>
<!-- Node5 -->
<g id="Node000005" class="node">
<title>Node5</title>
<g id="a_Node000005"><a xlink:href="group___noah_m_p___l_s_m_ga8500bdb5fcc68e431512068da0d31cd5.html#ga8500bdb5fcc68e431512068da0d31cd5" target="_top" xlink:title=" ">
<polygon fill="white" stroke="#666666" points="154.62,-224.25 91.38,-224.25 91.38,-205 154.62,-205 154.62,-224.25"/>
<text xml:space="preserve" text-anchor="middle" x="123" y="-210.75" font-family="Source Sans Pro" font-size="10.00">snowwater</text>
</a>
</g>
</g>
<!-- Node1&#45;&gt;Node5 -->
<g id="edge4_Node000001_Node000005" class="edge">
<title>Node1&#45;&gt;Node5</title>
<g id="a_edge4_Node000001_Node000005"><a xlink:title=" ">
<path fill="none" stroke="#63b8ff" d="M40.47,-244.49C52.84,-239.96 69.25,-233.95 84.1,-228.51"/>
<polygon fill="#63b8ff" stroke="#63b8ff" points="84.96,-231.92 93.15,-225.19 82.55,-225.35 84.96,-231.92"/>
</a>
</g>
</g>
<!-- Node12 -->
<g id="Node000012" class="node">
<title>Node12</title>
<g id="a_Node000012"><a xlink:href="group___noah_m_p___l_s_m_gadca44347d78a09297195f41298a47f8d.html#gadca44347d78a09297195f41298a47f8d" target="_top" xlink:title="calculate surface runoff and soil moisture.">
<polygon fill="white" stroke="#666666" points="150.5,-93.25 95.5,-93.25 95.5,-74 150.5,-74 150.5,-93.25"/>
<text xml:space="preserve" text-anchor="middle" x="123" y="-79.75" font-family="Source Sans Pro" font-size="10.00">soilwater</text>
</a>
</g>
</g>
<!-- Node1&#45;&gt;Node12 -->
<g id="edge13_Node000001_Node000012" class="edge">
<title>Node1&#45;&gt;Node12</title>
<g id="a_edge13_Node000001_Node000012"><a xlink:title=" ">
<path fill="none" stroke="#63b8ff" d="M27.02,-241.62C43.33,-214.48 88.66,-139.09 110.26,-103.16"/>
<polygon fill="#63b8ff" stroke="#63b8ff" points="113.21,-105.04 115.36,-94.67 107.21,-101.43 113.21,-105.04"/>
</a>
</g>
</g>
<!-- Node6 -->
<g id="Node000006" class="node">
<title>Node6</title>
<g id="a_Node000006"><a xlink:href="group___noah_m_p___l_s_m_ga0d1a0707cf2a2a4fd14444b111a55048.html#ga0d1a0707cf2a2a4fd14444b111a55048" target="_top" xlink:title=" ">
<polygon fill="white" stroke="#666666" points="349.75,-206.25 297,-206.25 297,-187 349.75,-187 349.75,-206.25"/>
<text xml:space="preserve" text-anchor="middle" x="323.38" y="-192.75" font-family="Source Sans Pro" font-size="10.00">combine</text>
</a>
</g>
</g>
<!-- Node5&#45;&gt;Node6 -->
<g id="edge5_Node000005_Node000006" class="edge">
<title>Node5&#45;&gt;Node6</title>
<g id="a_edge5_Node000005_Node000006"><a xlink:title=" ">
<path fill="none" stroke="#63b8ff" d="M140.55,-204.62C156.62,-195.53 182.03,-182.78 206,-177.62 229.9,-172.48 236.83,-173.97 261,-177.62 269.17,-178.86 277.75,-180.97 285.82,-183.35"/>
<polygon fill="#63b8ff" stroke="#63b8ff" points="284.76,-186.69 295.35,-186.37 286.88,-180.01 284.76,-186.69"/>
</a>
</g>
</g>
<!-- Node8 -->
<g id="Node000008" class="node">
<title>Node8</title>
<g id="a_Node000008"><a xlink:href="group___noah_m_p___l_s_m_gabc66ddc0a33ac2d9fe3a1677febd1725.html#gabc66ddc0a33ac2d9fe3a1677febd1725" target="_top" xlink:title=" ">
<polygon fill="white" stroke="#666666" points="260.25,-319.25 206.75,-319.25 206.75,-300 260.25,-300 260.25,-319.25"/>
<text xml:space="preserve" text-anchor="middle" x="233.5" y="-305.75" font-family="Source Sans Pro" font-size="10.00">compact</text>
</a>
</g>
</g>
<!-- Node5&#45;&gt;Node8 -->
<g id="edge7_Node000005_Node000008" class="edge">
<title>Node5&#45;&gt;Node8</title>
<g id="a_edge7_Node000005_Node000008"><a xlink:title=" ">
<path fill="none" stroke="#63b8ff" d="M155.09,-223.82C160.38,-226.19 165.58,-229.09 170,-232.62 192.26,-250.39 187.31,-264.14 206,-285.62 207.89,-287.8 209.96,-289.97 212.09,-292.07"/>
<polygon fill="#63b8ff" stroke="#63b8ff" points="209.49,-294.43 219.2,-298.65 214.24,-289.29 209.49,-294.43"/>
</a>
</g>
</g>
<!-- Node9 -->
<g id="Node000009" class="node">
<title>Node9</title>
<g id="a_Node000009"><a xlink:href="group___noah_m_p___l_s_m_ga2a809bb1c3c3307616446d4f27d00d5c.html#ga2a809bb1c3c3307616446d4f27d00d5c" target="_top" xlink:title=" ">
<polygon fill="white" stroke="#666666" points="344.12,-262.25 302.62,-262.25 302.62,-243 344.12,-243 344.12,-262.25"/>
<text xml:space="preserve" text-anchor="middle" x="323.38" y="-248.75" font-family="Source Sans Pro" font-size="10.00">divide</text>
</a>
</g>
</g>
<!-- Node5&#45;&gt;Node9 -->
<g id="edge8_Node000005_Node000009" class="edge">
<title>Node5&#45;&gt;Node9</title>
<g id="a_edge8_Node000005_Node000009"><a xlink:title=" ">
<path fill="none" stroke="#63b8ff" d="M151.5,-224.69C157.65,-227.13 164.1,-229.85 170,-232.62 186.56,-240.42 188.28,-248.03 206,-252.62 234.11,-259.91 267.33,-259.01 291.07,-256.83"/>
<polygon fill="#63b8ff" stroke="#63b8ff" points="291.14,-260.34 300.72,-255.8 290.4,-253.38 291.14,-260.34"/>
</a>
</g>
</g>
<!-- Node10 -->
<g id="Node000010" class="node">
<title>Node10</title>
<g id="a_Node000010"><a xlink:href="group___noah_m_p___l_s_m_ga27b8403f2911888350b2ce246e3c6620.html#ga27b8403f2911888350b2ce246e3c6620" target="_top" xlink:title="snow depth and density to account for the new snowfall. new values of snow depth &amp; density returned.">
<polygon fill="white" stroke="#666666" points="259.5,-243.25 207.5,-243.25 207.5,-224 259.5,-224 259.5,-243.25"/>
<text xml:space="preserve" text-anchor="middle" x="233.5" y="-229.75" font-family="Source Sans Pro" font-size="10.00">snowfall</text>
</a>
</g>
</g>
<!-- Node5&#45;&gt;Node10 -->
<g id="edge10_Node000005_Node000010" class="edge">
<title>Node5&#45;&gt;Node10</title>
<g id="a_edge10_Node000005_Node000010"><a xlink:title=" ">
<path fill="none" stroke="#63b8ff" d="M155.09,-220.07C167.88,-222.31 182.78,-224.92 196.07,-227.25"/>
<polygon fill="#63b8ff" stroke="#63b8ff" points="195.3,-230.66 205.75,-228.94 196.51,-223.77 195.3,-230.66"/>
</a>
</g>
</g>
<!-- Node11 -->
<g id="Node000011" class="node">
<title>Node11</title>
<g id="a_Node000011"><a xlink:href="group___noah_m_p___l_s_m_gad5df8e19f96bc0e98560e5df8c49c0fa.html#gad5df8e19f96bc0e98560e5df8c49c0fa" target="_top" xlink:title="renew the mass of ice lens (snice) and liquid (snliq) of the surface snow layer resulting from sublim...">
<polygon fill="white" stroke="#666666" points="261,-206.25 206,-206.25 206,-187 261,-187 261,-206.25"/>
<text xml:space="preserve" text-anchor="middle" x="233.5" y="-192.75" font-family="Source Sans Pro" font-size="10.00">snowh2o</text>
</a>
</g>
</g>
<!-- Node5&#45;&gt;Node11 -->
<g id="edge11_Node000005_Node000011" class="edge">
<title>Node5&#45;&gt;Node11</title>
<g id="a_edge11_Node000005_Node000011"><a xlink:title=" ">
<path fill="none" stroke="#63b8ff" d="M155.09,-209.47C167.37,-207.43 181.59,-205.07 194.46,-202.94"/>
<polygon fill="#63b8ff" stroke="#63b8ff" points="195.03,-206.39 204.33,-201.3 193.89,-199.48 195.03,-206.39"/>
</a>
</g>
</g>
<!-- Node7 -->
<g id="Node000007" class="node">
<title>Node7</title>
<g id="a_Node000007"><a xlink:href="group___noah_m_p___l_s_m_ga4804d8de40f7ea8a8cf4ed6e22ff4aa0.html#ga4804d8de40f7ea8a8cf4ed6e22ff4aa0" target="_top" xlink:title=" ">
<polygon fill="white" stroke="#666666" points="431,-234.25 385.75,-234.25 385.75,-215 431,-215 431,-234.25"/>
<text xml:space="preserve" text-anchor="middle" x="408.38" y="-220.75" font-family="Source Sans Pro" font-size="10.00">combo</text>
</a>
</g>
</g>
<!-- Node6&#45;&gt;Node7 -->
<g id="edge6_Node000006_Node000007" class="edge">
<title>Node6&#45;&gt;Node7</title>
<g id="a_edge6_Node000006_Node000007"><a xlink:title=" ">
<path fill="none" stroke="#63b8ff" d="M350.18,-205.33C357.97,-207.96 366.62,-210.88 374.79,-213.63"/>
<polygon fill="#63b8ff" stroke="#63b8ff" points="373.47,-216.88 384.06,-216.76 375.71,-210.25 373.47,-216.88"/>
</a>
</g>
</g>
<!-- Node9&#45;&gt;Node7 -->
<g id="edge9_Node000009_Node000007" class="edge">
<title>Node9&#45;&gt;Node7</title>
<g id="a_edge9_Node000009_Node000007"><a xlink:title=" ">
<path fill="none" stroke="#63b8ff" d="M344.47,-245.85C353.56,-242.78 364.53,-239.08 374.76,-235.63"/>
<polygon fill="#63b8ff" stroke="#63b8ff" points="375.64,-239.03 383.99,-232.51 373.4,-232.39 375.64,-239.03"/>
</a>
</g>
</g>
<!-- Node11&#45;&gt;Node6 -->
<g id="edge12_Node000011_Node000006" class="edge">
<title>Node11&#45;&gt;Node6</title>
<g id="a_edge12_Node000011_Node000006"><a xlink:title=" ">
<path fill="none" stroke="#63b8ff" d="M261.34,-196.62C268.87,-196.62 277.19,-196.62 285.21,-196.62"/>
<polygon fill="#63b8ff" stroke="#63b8ff" points="285.09,-200.13 295.09,-196.63 285.09,-193.13 285.09,-200.13"/>
</a>
</g>
</g>
<!-- Node13 -->
<g id="Node000013" class="node">
<title>Node13</title>
<g id="a_Node000013"><a xlink:href="group___noah_m_p___l_s_m_ga33eceb1b8d3e8a38dec1ca21f811f13d.html#ga33eceb1b8d3e8a38dec1ca21f811f13d" target="_top" xlink:title="compute inflitration rate at soil surface and surface runoff">
<polygon fill="white" stroke="#666666" points="249,-93.25 218,-93.25 218,-74 249,-74 249,-93.25"/>
<text xml:space="preserve" text-anchor="middle" x="233.5" y="-79.75" font-family="Source Sans Pro" font-size="10.00">infil</text>
</a>
</g>
</g>
<!-- Node12&#45;&gt;Node13 -->
<g id="edge14_Node000012_Node000013" class="edge">
<title>Node12&#45;&gt;Node13</title>
<g id="a_edge14_Node000012_Node000013"><a xlink:title=" ">
<path fill="none" stroke="#63b8ff" d="M150.82,-83.62C167.79,-83.62 189.61,-83.62 206.43,-83.62"/>
<polygon fill="#63b8ff" stroke="#63b8ff" points="206.14,-87.13 216.14,-83.63 206.14,-80.13 206.14,-87.13"/>
</a>
</g>
</g>
<!-- Node15 -->
<g id="Node000015" class="node">
<title>Node15</title>
<g id="a_Node000015"><a xlink:href="group___noah_m_p___l_s_m_ga2825a3a5bbdeed71a7b6ea89ff9bce16.html#ga2825a3a5bbdeed71a7b6ea89ff9bce16" target="_top" xlink:title="calculate the right hand side of the time tendency term of the soil water diffusion equation....">
<polygon fill="white" stroke="#666666" points="247.9,-56.25 219.1,-56.25 219.1,-37 247.9,-37 247.9,-56.25"/>
<text xml:space="preserve" text-anchor="middle" x="233.5" y="-42.75" font-family="Source Sans Pro" font-size="10.00">srt</text>
</a>
</g>
</g>
<!-- Node12&#45;&gt;Node15 -->
<g id="edge16_Node000012_Node000015" class="edge">
<title>Node12&#45;&gt;Node15</title>
<g id="a_edge16_Node000012_Node000015"><a xlink:title=" ">
<path fill="none" stroke="#63b8ff" d="M150.82,-74.48C168.36,-68.5 191.09,-60.75 208.12,-54.94"/>
<polygon fill="#63b8ff" stroke="#63b8ff" points="209.09,-58.3 217.43,-51.76 206.83,-51.68 209.09,-58.3"/>
</a>
</g>
</g>
<!-- Node17 -->
<g id="Node000017" class="node">
<title>Node17</title>
<g id="a_Node000017"><a xlink:href="group___noah_m_p___l_s_m_gae10b02d7df0104a84451abc57e0410fb.html#gae10b02d7df0104a84451abc57e0410fb" target="_top" xlink:title="calculate/update soil moisture content values.">
<polygon fill="white" stroke="#666666" points="253.5,-19.25 213.5,-19.25 213.5,0 253.5,0 253.5,-19.25"/>
<text xml:space="preserve" text-anchor="middle" x="233.5" y="-5.75" font-family="Source Sans Pro" font-size="10.00">sstep</text>
</a>
</g>
</g>
<!-- Node12&#45;&gt;Node17 -->
<g id="edge19_Node000012_Node000017" class="edge">
<title>Node12&#45;&gt;Node17</title>
<g id="a_edge19_Node000012_Node000017"><a xlink:title=" ">
<path fill="none" stroke="#63b8ff" d="M138.51,-73.7C154.89,-62.5 182.35,-43.73 206,-27.62 206.71,-27.14 207.42,-26.66 208.15,-26.16"/>
<polygon fill="#63b8ff" stroke="#63b8ff" points="210.09,-29.08 216.39,-20.56 206.15,-23.29 210.09,-29.08"/>
</a>
</g>
</g>
<!-- Node19 -->
<g id="Node000019" class="node">
<title>Node19</title>
<g id="a_Node000019"><a xlink:href="group___noah_m_p___l_s_m_gadc2da87aeab4494d5234d18df3d223f7.html#gadc2da87aeab4494d5234d18df3d223f7" target="_top" xlink:title="calculate equilibrium water table depth (niu et al., 2005)">
<polygon fill="white" stroke="#666666" points="254.62,-130.25 212.38,-130.25 212.38,-111 254.62,-111 254.62,-130.25"/>
<text xml:space="preserve" text-anchor="middle" x="233.5" y="-116.75" font-family="Source Sans Pro" font-size="10.00">zwteq</text>
</a>
</g>
</g>
<!-- Node12&#45;&gt;Node19 -->
<g id="edge21_Node000012_Node000019" class="edge">
<title>Node12&#45;&gt;Node19</title>
<g id="a_edge21_Node000012_Node000019"><a xlink:title=" ">
<path fill="none" stroke="#63b8ff" d="M150.82,-92.77C166.22,-98.02 185.62,-104.64 201.65,-110.1"/>
<polygon fill="#63b8ff" stroke="#63b8ff" points="200.09,-113.27 210.68,-113.18 202.35,-106.64 200.09,-113.27"/>
</a>
</g>
</g>
<!-- Node14 -->
<g id="Node000014" class="node">
<title>Node14</title>
<g id="a_Node000014"><a xlink:href="group___noah_m_p___l_s_m_gaca325ee2efde047e6cd030ace7d5931f.html#gaca325ee2efde047e6cd030ace7d5931f" target="_top" xlink:title="calculate soil water diffusivity and soil hydraulic conductivity.">
<polygon fill="white" stroke="#666666" points="349.75,-93.25 297,-93.25 297,-74 349.75,-74 349.75,-93.25"/>
<text xml:space="preserve" text-anchor="middle" x="323.38" y="-79.75" font-family="Source Sans Pro" font-size="10.00">wdfcnd2</text>
</a>
</g>
</g>
<!-- Node13&#45;&gt;Node14 -->
<g id="edge15_Node000013_Node000014" class="edge">
<title>Node13&#45;&gt;Node14</title>
<g id="a_edge15_Node000013_Node000014"><a xlink:title=" ">
<path fill="none" stroke="#63b8ff" d="M249.41,-83.62C259.3,-83.62 272.76,-83.62 285.42,-83.62"/>
<polygon fill="#63b8ff" stroke="#63b8ff" points="285.19,-87.13 295.19,-83.63 285.19,-80.13 285.19,-87.13"/>
</a>
</g>
</g>
<!-- Node15&#45;&gt;Node14 -->
<g id="edge18_Node000015_Node000014" class="edge">
<title>Node15&#45;&gt;Node14</title>
<g id="a_edge18_Node000015_Node000014"><a xlink:title=" ">
<path fill="none" stroke="#63b8ff" d="M248.23,-52.41C258.92,-56.91 274.24,-63.36 288.19,-69.23"/>
<polygon fill="#63b8ff" stroke="#63b8ff" points="286.51,-72.32 297.08,-72.98 289.23,-65.87 286.51,-72.32"/>
</a>
</g>
</g>
<!-- Node16 -->
<g id="Node000016" class="node">
<title>Node16</title>
<g id="a_Node000016"><a xlink:href="group___noah_m_p___l_s_m_gaffab2571eaa0a1c94d971a5344c8a109.html#gaffab2571eaa0a1c94d971a5344c8a109" target="_top" xlink:title="calculate soil water diffusivity and soil hydraulic conductivity.">
<polygon fill="white" stroke="#666666" points="349.75,-56.25 297,-56.25 297,-37 349.75,-37 349.75,-56.25"/>
<text xml:space="preserve" text-anchor="middle" x="323.38" y="-42.75" font-family="Source Sans Pro" font-size="10.00">wdfcnd1</text>
</a>
</g>
</g>
<!-- Node15&#45;&gt;Node16 -->
<g id="edge17_Node000015_Node000016" class="edge">
<title>Node15&#45;&gt;Node16</title>
<g id="a_edge17_Node000015_Node000016"><a xlink:title=" ">
<path fill="none" stroke="#63b8ff" d="M248.23,-46.62C258.24,-46.62 272.29,-46.62 285.48,-46.62"/>
<polygon fill="#63b8ff" stroke="#63b8ff" points="285.21,-50.13 295.21,-46.63 285.21,-43.13 285.21,-50.13"/>
</a>
</g>
</g>
<!-- Node18 -->
<g id="Node000018" class="node">
<title>Node18</title>
<g id="a_Node000018"><a xlink:href="group___noah_m_p___l_s_m_ga7a305dbb6a9210b227ee310c71f30fd9.html#ga7a305dbb6a9210b227ee310c71f30fd9" target="_top" xlink:title="solve the tri&#45;diagonal matrix equation">
<polygon fill="white" stroke="#666666" points="344.88,-19.25 301.88,-19.25 301.88,0 344.88,0 344.88,-19.25"/>
<text xml:space="preserve" text-anchor="middle" x="323.38" y="-5.75" font-family="Source Sans Pro" font-size="10.00">rosr12</text>
</a>
</g>
</g>
<!-- Node17&#45;&gt;Node18 -->
<g id="edge20_Node000017_Node000018" class="edge">
<title>Node17&#45;&gt;Node18</title>
<g id="a_edge20_Node000017_Node000018"><a xlink:title=" ">
<path fill="none" stroke="#63b8ff" d="M253.57,-9.62C264.28,-9.62 277.93,-9.62 290.24,-9.62"/>
<polygon fill="#63b8ff" stroke="#63b8ff" points="289.99,-13.13 299.99,-9.63 289.99,-6.13 289.99,-13.13"/>
</a>
</g>
</g>
</g>
</svg>
