<?xml version="1.0" encoding="UTF-8" standalone="no"?>
<!DOCTYPE svg PUBLIC "-//W3C//DTD SVG 1.1//EN"
 "http://www.w3.org/Graphics/SVG/1.1/DTD/svg11.dtd">
<!-- Generated by graphviz version 14.1.2 (20260124.0452)
 -->
<!-- Title: module_radiation_clouds::progcld_thompson Pages: 1 -->
<svg width="609pt" height="222pt"
 viewBox="0.00 0.00 609.00 222.00" xmlns="http://www.w3.org/2000/svg" xmlns:xlink="http://www.w3.org/1999/xlink">
<g id="graph0" class="graph" transform="scale(1 1) rotate(0) translate(4 217.5)">
<title>module_radiation_clouds::progcld_thompson</title>
<!-- Node1 -->
<g id="Node000001" class="node">
<title>Node1</title>
<g id="a_Node000001"><a xlink:title="This subroutine added by G. Thompson specifically to account for explicit (microphysics&#45;produced) clo...">
<polygon fill="#999999" stroke="#666666" points="123.25,-130.5 0,-130.5 0,-100 123.25,-100 123.25,-130.5"/>
<text xml:space="preserve" text-anchor="start" x="8" y="-117" font-family="Source Sans Pro" font-size="10.00">module_radiation_clouds</text>
<text xml:space="preserve" text-anchor="middle" x="61.62" y="-105.75" font-family="Source Sans Pro" font-size="10.00">::progcld_thompson</text>
</a>
</g>
</g>
<!-- Node2 -->
<g id="Node000002" class="node">
<title>Node2</title>
<g id="a_Node000002"><a xlink:href="group__module__radiation__clouds_gae11bdd130c90bee7cff8741ec4504bce.html#gae11bdd130c90bee7cff8741ec4504bce" target="_top" xlink:title="Cloud fraction scheme by G. Thompson (NCAR&#45;RAL), not intended for combining with any cumulus or shall...">
<polygon fill="white" stroke="#666666" points="282.5,-130.5 159.25,-130.5 159.25,-100 282.5,-100 282.5,-130.5"/>
<text xml:space="preserve" text-anchor="start" x="167.25" y="-117" font-family="Source Sans Pro" font-size="10.00">module_radiation_clouds</text>
<text xml:space="preserve" text-anchor="middle" x="220.88" y="-105.75" font-family="Source Sans Pro" font-size="10.00">::cal_cldfra3</text>
</a>
</g>
</g>
<!-- Node1&#45;&gt;Node2 -->
<g id="edge1_Node000001_Node000002" class="edge">
<title>Node1&#45;&gt;Node2</title>
<g id="a_edge1_Node000001_Node000002"><a xlink:title=" ">
<path fill="none" stroke="#63b8ff" d="M123.42,-115.25C131.35,-115.25 139.54,-115.25 147.63,-115.25"/>
<polygon fill="#63b8ff" stroke="#63b8ff" points="147.47,-118.75 157.47,-115.25 147.47,-111.75 147.47,-118.75"/>
</a>
</g>
</g>
<!-- Node3 -->
<g id="Node000003" class="node">
<title>Node3</title>
<g id="a_Node000003"><a xlink:href="group__module__radiation__clouds_gab93b09ad19ec692f8efe39d050618efa.html#gab93b09ad19ec692f8efe39d050618efa" target="_top" xlink:title="Do not alter any grid&#45;explicitly resolved hydrometeors, rather only the supposed amounts due to the c...">
<polygon fill="white" stroke="#666666" points="441.75,-213.5 318.5,-213.5 318.5,-183 441.75,-183 441.75,-213.5"/>
<text xml:space="preserve" text-anchor="start" x="326.5" y="-200" font-family="Source Sans Pro" font-size="10.00">module_radiation_clouds</text>
<text xml:space="preserve" text-anchor="middle" x="380.12" y="-188.75" font-family="Source Sans Pro" font-size="10.00">::adjust_cloudfinal</text>
</a>
</g>
</g>
<!-- Node2&#45;&gt;Node3 -->
<g id="edge2_Node000002_Node000003" class="edge">
<title>Node2&#45;&gt;Node3</title>
<g id="a_edge2_Node000002_Node000003"><a xlink:title=" ">
<path fill="none" stroke="#63b8ff" d="M245.53,-130.81C264.76,-143.12 292.8,-160.33 318.5,-173.25 321.7,-174.86 325.04,-176.45 328.42,-178.01"/>
<polygon fill="#63b8ff" stroke="#63b8ff" points="326.69,-181.07 337.25,-181.93 329.53,-174.67 326.69,-181.07"/>
</a>
</g>
</g>
<!-- Node4 -->
<g id="Node000004" class="node">
<title>Node4</title>
<g id="a_Node000004"><a xlink:href="group__module__radiation__clouds_gaec7e19fe843ee220394496a5b4d2ceb1.html#gaec7e19fe843ee220394496a5b4d2ceb1" target="_top" xlink:title="From cloud fraction array, find clouds of multi&#45;level depth and compute a reasonable value of LWP or ...">
<polygon fill="white" stroke="#666666" points="441.75,-164.5 318.5,-164.5 318.5,-134 441.75,-134 441.75,-164.5"/>
<text xml:space="preserve" text-anchor="start" x="326.5" y="-151" font-family="Source Sans Pro" font-size="10.00">module_radiation_clouds</text>
<text xml:space="preserve" text-anchor="middle" x="380.12" y="-139.75" font-family="Source Sans Pro" font-size="10.00">::find_cloudlayers</text>
</a>
</g>
</g>
<!-- Node2&#45;&gt;Node4 -->
<g id="edge3_Node000002_Node000004" class="edge">
<title>Node2&#45;&gt;Node4</title>
<g id="a_edge3_Node000002_Node000004"><a xlink:title=" ">
<path fill="none" stroke="#63b8ff" d="M282.67,-128.4C290.69,-130.13 298.98,-131.92 307.16,-133.69"/>
<polygon fill="#63b8ff" stroke="#63b8ff" points="306.24,-137.07 316.75,-135.76 307.72,-130.23 306.24,-137.07"/>
</a>
</g>
</g>
<!-- Node7 -->
<g id="Node000007" class="node">
<title>Node7</title>
<g id="a_Node000007"><a xlink:href="group__aathompson_ga878bec15133532309ba3036cd2739510.html#ga878bec15133532309ba3036cd2739510" target="_top" xlink:title="THIS FUNCTION CALCULATES THE ICE SATURATION VAPOR MIXING RATIO AS A FUNCTION OF TEMPERATURE AND PRESS...">
<polygon fill="white" stroke="#666666" points="437.25,-97.5 323,-97.5 323,-67 437.25,-67 437.25,-97.5"/>
<text xml:space="preserve" text-anchor="start" x="331" y="-84" font-family="Source Sans Pro" font-size="10.00">module_mp_thompson</text>
<text xml:space="preserve" text-anchor="middle" x="380.12" y="-72.75" font-family="Source Sans Pro" font-size="10.00">::rsif</text>
</a>
</g>
</g>
<!-- Node2&#45;&gt;Node7 -->
<g id="edge6_Node000002_Node000007" class="edge">
<title>Node2&#45;&gt;Node7</title>
<g id="a_edge6_Node000002_Node000007"><a xlink:title=" ">
<path fill="none" stroke="#63b8ff" d="M282.67,-102.49C292.11,-100.51 301.92,-98.45 311.5,-96.44"/>
<polygon fill="#63b8ff" stroke="#63b8ff" points="312.06,-99.9 321.13,-94.42 310.62,-93.05 312.06,-99.9"/>
</a>
</g>
</g>
<!-- Node8 -->
<g id="Node000008" class="node">
<title>Node8</title>
<g id="a_Node000008"><a xlink:href="group__aathompson_ga9617073eff52abf98dd295c8cd83ef24.html#ga9617073eff52abf98dd295c8cd83ef24" target="_top" xlink:title="THIS FUNCTION CALCULATES THE LIQUID SATURATION VAPOR MIXING RATIO AS A FUNCTION OF TEMPERATURE AND PR...">
<polygon fill="white" stroke="#666666" points="437.25,-30.5 323,-30.5 323,0 437.25,0 437.25,-30.5"/>
<text xml:space="preserve" text-anchor="start" x="331" y="-17" font-family="Source Sans Pro" font-size="10.00">module_mp_thompson</text>
<text xml:space="preserve" text-anchor="middle" x="380.12" y="-5.75" font-family="Source Sans Pro" font-size="10.00">::rslf</text>
</a>
</g>
</g>
<!-- Node2&#45;&gt;Node8 -->
<g id="edge8_Node000002_Node000008" class="edge">
<title>Node2&#45;&gt;Node8</title>
<g id="a_edge8_Node000002_Node000008"><a xlink:title=" ">
<path fill="none" stroke="#63b8ff" d="M246.45,-99.62C272.91,-82.8 315.21,-55.9 344.92,-37"/>
<polygon fill="#63b8ff" stroke="#63b8ff" points="346.63,-40.06 353.19,-31.74 342.87,-34.15 346.63,-40.06"/>
</a>
</g>
</g>
<!-- Node5 -->
<g id="Node000005" class="node">
<title>Node5</title>
<g id="a_Node000005"><a xlink:href="group__module__radiation__clouds_ga8f57a217926f989ce3137a0011976f91.html#ga8f57a217926f989ce3137a0011976f91" target="_top" xlink:title=" ">
<polygon fill="white" stroke="#666666" points="601,-188.5 477.75,-188.5 477.75,-158 601,-158 601,-188.5"/>
<text xml:space="preserve" text-anchor="start" x="485.75" y="-175" font-family="Source Sans Pro" font-size="10.00">module_radiation_clouds</text>
<text xml:space="preserve" text-anchor="middle" x="539.38" y="-163.75" font-family="Source Sans Pro" font-size="10.00">::adjust_cloudh2o</text>
</a>
</g>
</g>
<!-- Node4&#45;&gt;Node5 -->
<g id="edge4_Node000004_Node000005" class="edge">
<title>Node4&#45;&gt;Node5</title>
<g id="a_edge4_Node000004_Node000005"><a xlink:title=" ">
<path fill="none" stroke="#63b8ff" d="M441.92,-158.53C449.85,-159.74 458.04,-160.99 466.13,-162.22"/>
<polygon fill="#63b8ff" stroke="#63b8ff" points="465.57,-165.68 475.98,-163.73 466.63,-158.76 465.57,-165.68"/>
</a>
</g>
</g>
<!-- Node6 -->
<g id="Node000006" class="node">
<title>Node6</title>
<g id="a_Node000006"><a xlink:href="group__module__radiation__clouds_ga4e4b598c8fc3fa1252be8d3b149ac5f0.html#ga4e4b598c8fc3fa1252be8d3b149ac5f0" target="_top" xlink:title=" ">
<polygon fill="white" stroke="#666666" points="601,-139.5 477.75,-139.5 477.75,-109 601,-109 601,-139.5"/>
<text xml:space="preserve" text-anchor="start" x="485.75" y="-126" font-family="Source Sans Pro" font-size="10.00">module_radiation_clouds</text>
<text xml:space="preserve" text-anchor="middle" x="539.38" y="-114.75" font-family="Source Sans Pro" font-size="10.00">::adjust_cloudice</text>
</a>
</g>
</g>
<!-- Node4&#45;&gt;Node6 -->
<g id="edge5_Node000004_Node000006" class="edge">
<title>Node4&#45;&gt;Node6</title>
<g id="a_edge5_Node000004_Node000006"><a xlink:title=" ">
<path fill="none" stroke="#63b8ff" d="M441.92,-139.58C449.85,-138.32 458.04,-137.02 466.13,-135.74"/>
<polygon fill="#63b8ff" stroke="#63b8ff" points="466.66,-139.2 475.99,-134.17 465.56,-132.28 466.66,-139.2"/>
</a>
</g>
</g>
<!-- Node7&#45;&gt;Node7 -->
<g id="edge7_Node000007_Node000007" class="edge">
<title>Node7&#45;&gt;Node7</title>
<g id="a_edge7_Node000007_Node000007"><a xlink:title=" ">
<path fill="none" stroke="#63b8ff" d="M351.91,-97.99C346.15,-107.06 355.55,-115.5 380.12,-115.5 393.56,-115.5 402.46,-112.97 406.83,-109.2"/>
<polygon fill="#63b8ff" stroke="#63b8ff" points="410.27,-109.86 408.14,-99.49 403.34,-108.93 410.27,-109.86"/>
</a>
</g>
</g>
<!-- Node8&#45;&gt;Node8 -->
<g id="edge9_Node000008_Node000008" class="edge">
<title>Node8&#45;&gt;Node8</title>
<g id="a_edge9_Node000008_Node000008"><a xlink:title=" ">
<path fill="none" stroke="#63b8ff" d="M351.91,-30.99C346.15,-40.06 355.55,-48.5 380.12,-48.5 393.56,-48.5 402.46,-45.97 406.83,-42.2"/>
<polygon fill="#63b8ff" stroke="#63b8ff" points="410.27,-42.86 408.14,-32.49 403.34,-41.93 410.27,-42.86"/>
</a>
</g>
</g>
</g>
</svg>
