<?xml version="1.0" encoding="UTF-8" standalone="no"?>
<!DOCTYPE svg PUBLIC "-//W3C//DTD SVG 1.1//EN"
 "http://www.w3.org/Graphics/SVG/1.1/DTD/svg11.dtd">
<!-- Generated by graphviz version 14.1.2 (20260124.0452)
 -->
<!-- Title: gfdl_cloud_microphys_mod::gfdl_cloud_microphys_mod_driver Pages: 1 -->
<!--zoomable 467 -->

<svg id="main" version="1.1" xmlns="http://www.w3.org/2000/svg" xmlns:xlink="http://www.w3.org/1999/xlink" xml:space="preserve" onload="init(evt)">

<style type="text/css"><![CDATA[
.node, .edge {opacity: 0.7;}
.node.selected, .edge.selected {opacity: 1;}
.edge:hover path { stroke: red; }
.edge:hover polygon { stroke: red; fill: red; }
]]></style>

<defs>
  <circle id="rim" cx="0" cy="0" r="7"/>
  <circle id="rim2" cx="0" cy="0" r="3.5"/>
  <g id="zoomPlus">
    <use xlink:href="#rim" fill="#404040"><set attributeName="fill" to="#808080" begin="zoomplus.mouseover" end="zoomplus.mouseout"/></use>
    <path d="M-4,0h8M0,-4v8" fill="none" stroke="white" stroke-width="1.5" pointer-events="none"/>
  </g>
  <g id="zoomMin">
    <use xlink:href="#rim" fill="#404040"><set attributeName="fill" to="#808080" begin="zoomminus.mouseover" end="zoomminus.mouseout"/></use>
    <path d="M-4,0h8" fill="none" stroke="white" stroke-width="1.5" pointer-events="none"/>
  </g>
  <g id="arrowUp" transform="translate(30 24)">
    <use xlink:href="#rim"/>
    <path pointer-events="none" fill="none" stroke="white" stroke-width="1.5" d="M0,-3.0v7 M-2.5,-0.5L0,-3.0L2.5,-0.5"/>
  </g>
  <g id="arrowRight" transform="rotate(90) translate(36 -43)">
    <use xlink:href="#rim"/>
    <path pointer-events="none" fill="none" stroke="white" stroke-width="1.5" d="M0,-3.0v7 M-2.5,-0.5L0,-3.0L2.5,-0.5"/>
  </g>
  <g id="arrowDown" transform="rotate(180) translate(-30 -48)">
    <use xlink:href="#rim"/>
    <path pointer-events="none" fill="none" stroke="white" stroke-width="1.5" d="M0,-3.0v7 M-2.5,-0.5L0,-3.0L2.5,-0.5"/>
  </g>
  <g id="arrowLeft" transform="rotate(270) translate(-36 17)">
    <use xlink:href="#rim"/>
    <path pointer-events="none" fill="none" stroke="white" stroke-width="1.5" d="M0,-3.0v7 M-2.5,-0.5L0,-3.0L2.5,-0.5"/>
  </g>
  <g id="resetDef">
    <use xlink:href="#rim2" fill="#404040"><set attributeName="fill" to="#808080" begin="reset.mouseover" end="reset.mouseout"/></use>
  </g>
</defs>
<script type="application/ecmascript">
var viewWidth = 903;
var viewHeight = 467;
var sectionId = 'dynsection-0';
</script>
<script type="application/ecmascript" xlink:href="svg.min.js"/>
<svg id="graph" class="graph">
<g id="viewport">
<title>gfdl_cloud_microphys_mod::gfdl_cloud_microphys_mod_driver</title>
<!-- Node1 -->
<g id="Node000001" class="node">
<title>Node1</title>
<g id="a_Node000001"><a xlink:title="This subroutine is the driver of the GFDL cloud microphysics.">
<polygon fill="#999999" stroke="#666666" points="140.5,-181.12 0,-181.12 0,-139.38 140.5,-139.38 140.5,-181.12"/>
<text xml:space="preserve" text-anchor="start" x="8" y="-167.62" font-family="Source Sans Pro" font-size="10.00">gfdl_cloud_microphys</text>
<text xml:space="preserve" text-anchor="start" x="8" y="-156.38" font-family="Source Sans Pro" font-size="10.00">_mod::gfdl_cloud_microphys</text>
<text xml:space="preserve" text-anchor="middle" x="70.25" y="-145.12" font-family="Source Sans Pro" font-size="10.00">_mod_driver</text>
</a>
</g>
</g>
<!-- Node2 -->
<g id="Node000002" class="node">
<title>Node2</title>
<g id="a_Node000002"><a xlink:href="group__mod__gfdl__cloud__mp_ga9a157f35f4472577a555978027d97c65.html#ga9a157f35f4472577a555978027d97c65" target="_top" xlink:title="GFDL cloud microphysics, major program, and is based on Lin et al.(1983) lin_et_al_1983 and Rutledge ...">
<polygon fill="white" stroke="#666666" points="287,-200.5 176.5,-200.5 176.5,-170 287,-170 287,-200.5"/>
<text xml:space="preserve" text-anchor="start" x="184.5" y="-187" font-family="Source Sans Pro" font-size="10.00">gfdl_cloud_microphys</text>
<text xml:space="preserve" text-anchor="middle" x="231.75" y="-175.75" font-family="Source Sans Pro" font-size="10.00">_mod::mpdrv</text>
</a>
</g>
</g>
<!-- Node1&#45;&gt;Node2 -->
<g id="edge1_Node000001_Node000002" class="edge">
<title>Node1&#45;&gt;Node2</title>
<g id="a_edge1_Node000001_Node000002"><a xlink:title=" ">
<path fill="none" stroke="#63b8ff" d="M140.75,-171.14C148.85,-172.41 157.09,-173.71 165.14,-174.97"/>
<polygon fill="#63b8ff" stroke="#63b8ff" points="164.43,-178.4 174.86,-176.49 165.52,-171.48 164.43,-178.4"/>
</a>
</g>
</g>
<!-- Node20 -->
<g id="Node000020" class="node">
<title>Node20</title>
<g id="a_Node000020"><a xlink:href="group__mod__gfdl__cloud__mp_ga225a9c1fcb87a537acc267db323d1c11.html#ga225a9c1fcb87a537acc267db323d1c11" target="_top" xlink:title="This subroutine calculates radar reflectivity.">
<polygon fill="white" stroke="#666666" points="287,-151.5 176.5,-151.5 176.5,-121 287,-121 287,-151.5"/>
<text xml:space="preserve" text-anchor="start" x="184.5" y="-138" font-family="Source Sans Pro" font-size="10.00">gfdl_cloud_microphys</text>
<text xml:space="preserve" text-anchor="middle" x="231.75" y="-126.75" font-family="Source Sans Pro" font-size="10.00">_mod::refl10cm_gfdl</text>
</a>
</g>
</g>
<!-- Node1&#45;&gt;Node20 -->
<g id="edge27_Node000001_Node000020" class="edge">
<title>Node1&#45;&gt;Node20</title>
<g id="a_edge27_Node000001_Node000020"><a xlink:title=" ">
<path fill="none" stroke="#63b8ff" d="M140.75,-149.79C148.85,-148.57 157.09,-147.33 165.14,-146.12"/>
<polygon fill="#63b8ff" stroke="#63b8ff" points="165.49,-149.61 174.85,-144.66 164.44,-142.69 165.49,-149.61"/>
</a>
</g>
</g>
<!-- Node3 -->
<g id="Node000003" class="node">
<title>Node3</title>
<g id="a_Node000003"><a xlink:href="group__mod__gfdl__cloud__mp_ga6833974ce0d83438376d15e3dc710721.html#ga6833974ce0d83438376d15e3dc710721" target="_top" xlink:title="The subroutine calculates vertical fall speed of snow/ice/graupel.">
<polygon fill="white" stroke="#666666" points="433.5,-348.5 323,-348.5 323,-318 433.5,-318 433.5,-348.5"/>
<text xml:space="preserve" text-anchor="start" x="331" y="-335" font-family="Source Sans Pro" font-size="10.00">gfdl_cloud_microphys</text>
<text xml:space="preserve" text-anchor="middle" x="378.25" y="-323.75" font-family="Source Sans Pro" font-size="10.00">_mod::fall_speed</text>
</a>
</g>
</g>
<!-- Node2&#45;&gt;Node3 -->
<g id="edge2_Node000002_Node000003" class="edge">
<title>Node2&#45;&gt;Node3</title>
<g id="a_edge2_Node000002_Node000003"><a xlink:title=" ">
<path fill="none" stroke="#63b8ff" d="M240.74,-200.82C254.49,-226.28 284.84,-277.09 323,-308.25 324.46,-309.45 325.99,-310.6 327.57,-311.7"/>
<polygon fill="#63b8ff" stroke="#63b8ff" points="325.41,-314.48 335.76,-316.78 329.1,-308.54 325.41,-314.48"/>
</a>
</g>
</g>
<!-- Node4 -->
<g id="Node000004" class="node">
<title>Node4</title>
<g id="a_Node000004"><a xlink:href="group__mod__gfdl__cloud__mp_ga6d4a8494f1530ef44e39c61be5d819fe.html#ga6d4a8494f1530ef44e39c61be5d819fe" target="_top" xlink:title="This subroutine includes cloud ice microphysics processes.">
<polygon fill="white" stroke="#666666" points="433.5,-299.5 323,-299.5 323,-269 433.5,-269 433.5,-299.5"/>
<text xml:space="preserve" text-anchor="start" x="331" y="-286" font-family="Source Sans Pro" font-size="10.00">gfdl_cloud_microphys</text>
<text xml:space="preserve" text-anchor="middle" x="378.25" y="-274.75" font-family="Source Sans Pro" font-size="10.00">_mod::icloud</text>
</a>
</g>
</g>
<!-- Node2&#45;&gt;Node4 -->
<g id="edge3_Node000002_Node000004" class="edge">
<title>Node2&#45;&gt;Node4</title>
<g id="a_edge3_Node000002_Node000004"><a xlink:title=" ">
<path fill="none" stroke="#63b8ff" d="M255.65,-200.94C279.74,-217.45 317.87,-243.57 345.01,-262.16"/>
<polygon fill="#63b8ff" stroke="#63b8ff" points="342.98,-265.02 353.21,-267.78 346.94,-259.24 342.98,-265.02"/>
</a>
</g>
</g>
<!-- Node10 -->
<g id="Node000010" class="node">
<title>Node10</title>
<g id="a_Node000010"><a xlink:href="group__mod__gfdl__cloud__mp_ga95934cf5da8077b833820fa000e4b351.html#ga95934cf5da8077b833820fa000e4b351" target="_top" xlink:title="The subroutine &#39;neg_adj&#39; fixes negative water species.">
<polygon fill="white" stroke="#666666" points="433.5,-79.5 323,-79.5 323,-49 433.5,-49 433.5,-79.5"/>
<text xml:space="preserve" text-anchor="start" x="331" y="-66" font-family="Source Sans Pro" font-size="10.00">gfdl_cloud_microphys</text>
<text xml:space="preserve" text-anchor="middle" x="378.25" y="-54.75" font-family="Source Sans Pro" font-size="10.00">_mod::neg_adj</text>
</a>
</g>
</g>
<!-- Node2&#45;&gt;Node10 -->
<g id="edge12_Node000002_Node000010" class="edge">
<title>Node2&#45;&gt;Node10</title>
<g id="a_edge12_Node000002_Node000010"><a xlink:title=" ">
<path fill="none" stroke="#63b8ff" d="M274.62,-169.56C279.09,-166.87 283.34,-163.78 287,-160.25 312.48,-135.71 297.52,-113.79 323,-89.25 324.03,-88.26 325.11,-87.3 326.22,-86.38"/>
<polygon fill="#63b8ff" stroke="#63b8ff" points="327.97,-89.42 334.14,-80.81 323.95,-83.7 327.97,-89.42"/>
</a>
</g>
</g>
<!-- Node11 -->
<g id="Node000011" class="node">
<title>Node11</title>
<g id="a_Node000011"><a xlink:href="group__mod__gfdl__cloud__mp_gae04747b6ac095f189c2e9b92a93f2256.html#gae04747b6ac095f189c2e9b92a93f2256" target="_top" xlink:title="This subroutine calculates sedimentation of heat.">
<polygon fill="white" stroke="#666666" points="590.88,-226.5 480.38,-226.5 480.38,-196 590.88,-196 590.88,-226.5"/>
<text xml:space="preserve" text-anchor="start" x="488.38" y="-213" font-family="Source Sans Pro" font-size="10.00">gfdl_cloud_microphys</text>
<text xml:space="preserve" text-anchor="middle" x="535.62" y="-201.75" font-family="Source Sans Pro" font-size="10.00">_mod::sedi_heat</text>
</a>
</g>
</g>
<!-- Node2&#45;&gt;Node11 -->
<g id="edge13_Node000002_Node000011" class="edge">
<title>Node2&#45;&gt;Node11</title>
<g id="a_edge13_Node000002_Node000011"><a xlink:title=" ">
<path fill="none" stroke="#63b8ff" d="M287.42,-189.96C338.41,-194.35 414.58,-200.91 468.87,-205.59"/>
<polygon fill="#63b8ff" stroke="#63b8ff" points="468.34,-209.05 478.6,-206.42 468.94,-202.08 468.34,-209.05"/>
</a>
</g>
</g>
<!-- Node12 -->
<g id="Node000012" class="node">
<title>Node12</title>
<g id="a_Node000012"><a xlink:href="group__mod__gfdl__cloud__mp_ga79e5f6ea8f5040ab16033081b9a64cb7.html#ga79e5f6ea8f5040ab16033081b9a64cb7" target="_top" xlink:title="The subroutine &#39;terminal_fall&#39; computes terminal fall speed.">
<polygon fill="white" stroke="#666666" points="433.5,-128.5 323,-128.5 323,-98 433.5,-98 433.5,-128.5"/>
<text xml:space="preserve" text-anchor="start" x="331" y="-115" font-family="Source Sans Pro" font-size="10.00">gfdl_cloud_microphys</text>
<text xml:space="preserve" text-anchor="middle" x="378.25" y="-103.75" font-family="Source Sans Pro" font-size="10.00">_mod::terminal_fall</text>
</a>
</g>
</g>
<!-- Node2&#45;&gt;Node12 -->
<g id="edge14_Node000002_Node000012" class="edge">
<title>Node2&#45;&gt;Node12</title>
<g id="a_edge14_Node000002_Node000012"><a xlink:title=" ">
<path fill="none" stroke="#63b8ff" d="M268.35,-169.57C274.63,-166.6 281.05,-163.42 287,-160.25 303.54,-151.42 306.46,-147.08 323,-138.25 325.69,-136.81 328.49,-135.37 331.32,-133.95"/>
<polygon fill="#63b8ff" stroke="#63b8ff" points="332.82,-137.12 340.29,-129.6 329.76,-130.82 332.82,-137.12"/>
</a>
</g>
</g>
<!-- Node18 -->
<g id="Node000018" class="node">
<title>Node18</title>
<g id="a_Node000018"><a xlink:href="group__mod__gfdl__cloud__mp_gacc8783950135d8875dbfe23ef5013c76.html#gacc8783950135d8875dbfe23ef5013c76" target="_top" xlink:title="This subroutine includes warm rain cloud microphysics.">
<polygon fill="white" stroke="#666666" points="433.5,-177.5 323,-177.5 323,-147 433.5,-147 433.5,-177.5"/>
<text xml:space="preserve" text-anchor="start" x="331" y="-164" font-family="Source Sans Pro" font-size="10.00">gfdl_cloud_microphys</text>
<text xml:space="preserve" text-anchor="middle" x="378.25" y="-152.75" font-family="Source Sans Pro" font-size="10.00">_mod::warm_rain</text>
</a>
</g>
</g>
<!-- Node2&#45;&gt;Node18 -->
<g id="edge20_Node000002_Node000018" class="edge">
<title>Node2&#45;&gt;Node18</title>
<g id="a_edge20_Node000002_Node000018"><a xlink:title=" ">
<path fill="none" stroke="#63b8ff" d="M287.38,-176.55C295.2,-175.31 303.32,-174.02 311.33,-172.74"/>
<polygon fill="#63b8ff" stroke="#63b8ff" points="311.72,-176.22 321.05,-171.2 310.62,-169.31 311.72,-176.22"/>
</a>
</g>
</g>
<!-- Node5 -->
<g id="Node000005" class="node">
<title>Node5</title>
<g id="a_Node000005"><a xlink:href="group__gfdlmp_ga0c6e8d13d0224e3b40bcbabdbab7f0ba.html#ga0c6e8d13d0224e3b40bcbabdbab7f0ba" target="_top" xlink:title="The function is an accretion function (Lin et al.(1983) lin_et_al_1983 ).">
<polygon fill="white" stroke="#666666" points="590.88,-440.5 480.38,-440.5 480.38,-410 590.88,-410 590.88,-440.5"/>
<text xml:space="preserve" text-anchor="start" x="488.38" y="-427" font-family="Source Sans Pro" font-size="10.00">gfdl_cloud_microphys</text>
<text xml:space="preserve" text-anchor="middle" x="535.62" y="-415.75" font-family="Source Sans Pro" font-size="10.00">_mod::acr3d</text>
</a>
</g>
</g>
<!-- Node4&#45;&gt;Node5 -->
<g id="edge4_Node000004_Node000005" class="edge">
<title>Node4&#45;&gt;Node5</title>
<g id="a_edge4_Node000004_Node000005"><a xlink:title=" ">
<path fill="none" stroke="#63b8ff" d="M421.99,-299.95C426.2,-302.63 430.15,-305.71 433.5,-309.25 463.4,-340.84 438.59,-369.65 469.5,-400.25 470.52,-401.26 471.58,-402.22 472.68,-403.15"/>
<polygon fill="#63b8ff" stroke="#63b8ff" points="470.33,-405.78 480.52,-408.68 474.36,-400.06 470.33,-405.78"/>
</a>
</g>
</g>
<!-- Node6 -->
<g id="Node000006" class="node">
<title>Node6</title>
<g id="a_Node000006"><a xlink:href="group__mod__gfdl__cloud__mp_ga60295ecd2dc7ed890e0c643d562862b6.html#ga60295ecd2dc7ed890e0c643d562862b6" target="_top" xlink:title="Definition of vertical subgrid variability used for cloud ice and cloud water autoconversion.">
<polygon fill="white" stroke="#666666" points="590.88,-275.5 480.38,-275.5 480.38,-245 590.88,-245 590.88,-275.5"/>
<text xml:space="preserve" text-anchor="start" x="488.38" y="-262" font-family="Source Sans Pro" font-size="10.00">gfdl_cloud_microphys</text>
<text xml:space="preserve" text-anchor="middle" x="535.62" y="-250.75" font-family="Source Sans Pro" font-size="10.00">_mod::linear_prof</text>
</a>
</g>
</g>
<!-- Node4&#45;&gt;Node6 -->
<g id="edge6_Node000004_Node000006" class="edge">
<title>Node4&#45;&gt;Node6</title>
<g id="a_edge6_Node000004_Node000006"><a xlink:title=" ">
<path fill="none" stroke="#63b8ff" d="M433.59,-275.86C445,-274.09 457.15,-272.22 468.92,-270.4"/>
<polygon fill="#63b8ff" stroke="#63b8ff" points="469.21,-273.9 478.55,-268.91 468.14,-266.98 469.21,-273.9"/>
</a>
</g>
</g>
<!-- Node7 -->
<g id="Node000007" class="node">
<title>Node7</title>
<g id="a_Node000007"><a xlink:href="group__gfdlmp_gad0c3fa84c0f00f8d0106a40b45d84925.html#gad0c3fa84c0f00f8d0106a40b45d84925" target="_top" xlink:title="Melting of snow function (Lin et al.(1983) lin_et_al_1983) note: psacw and psacr must be calc before ...">
<polygon fill="white" stroke="#666666" points="590.88,-373.5 480.38,-373.5 480.38,-343 590.88,-343 590.88,-373.5"/>
<text xml:space="preserve" text-anchor="start" x="488.38" y="-360" font-family="Source Sans Pro" font-size="10.00">gfdl_cloud_microphys</text>
<text xml:space="preserve" text-anchor="middle" x="535.62" y="-348.75" font-family="Source Sans Pro" font-size="10.00">_mod::smlt</text>
</a>
</g>
</g>
<!-- Node4&#45;&gt;Node7 -->
<g id="edge7_Node000004_Node000007" class="edge">
<title>Node4&#45;&gt;Node7</title>
<g id="a_edge7_Node000004_Node000007"><a xlink:title=" ">
<path fill="none" stroke="#63b8ff" d="M415.25,-299.88C421.42,-302.83 427.71,-306.01 433.5,-309.25 450.28,-318.64 452.42,-324.42 469.5,-333.25 472.73,-334.92 476.09,-336.54 479.52,-338.1"/>
<polygon fill="#63b8ff" stroke="#63b8ff" points="477.95,-341.24 488.52,-341.99 480.73,-334.81 477.95,-341.24"/>
</a>
</g>
</g>
<!-- Node8 -->
<g id="Node000008" class="node">
<title>Node8</title>
<g id="a_Node000008"><a xlink:href="group__mod__gfdl__cloud__mp_gaec9761c5fe1374e1d8f8f18dec3b879c.html#gaec9761c5fe1374e1d8f8f18dec3b879c" target="_top" xlink:title="This subroutine calculates temperature sentive high vertical resolution processes.">
<polygon fill="white" stroke="#666666" points="591.62,-324.5 479.62,-324.5 479.62,-294 591.62,-294 591.62,-324.5"/>
<text xml:space="preserve" text-anchor="start" x="487.62" y="-311" font-family="Source Sans Pro" font-size="10.00">gfdl_cloud_microphys</text>
<text xml:space="preserve" text-anchor="middle" x="535.62" y="-299.75" font-family="Source Sans Pro" font-size="10.00">_mod::subgrid_z_proc</text>
</a>
</g>
</g>
<!-- Node4&#45;&gt;Node8 -->
<g id="edge9_Node000004_Node000008" class="edge">
<title>Node4&#45;&gt;Node8</title>
<g id="a_edge9_Node000004_Node000008"><a xlink:title=" ">
<path fill="none" stroke="#63b8ff" d="M433.59,-292.99C444.68,-294.78 456.48,-296.68 467.94,-298.52"/>
<polygon fill="#63b8ff" stroke="#63b8ff" points="467.34,-301.97 477.77,-300.1 468.45,-295.06 467.34,-301.97"/>
</a>
</g>
</g>
<!-- Node5&#45;&gt;Node5 -->
<g id="edge5_Node000005_Node000005" class="edge">
<title>Node5&#45;&gt;Node5</title>
<g id="a_edge5_Node000005_Node000005"><a xlink:title=" ">
<path fill="none" stroke="#63b8ff" d="M507.74,-440.99C502.05,-450.06 511.34,-458.5 535.62,-458.5 548.9,-458.5 557.7,-455.97 562.02,-452.2"/>
<polygon fill="#63b8ff" stroke="#63b8ff" points="565.46,-452.86 563.31,-442.49 558.52,-451.94 565.46,-452.86"/>
</a>
</g>
</g>
<!-- Node7&#45;&gt;Node7 -->
<g id="edge8_Node000007_Node000007" class="edge">
<title>Node7&#45;&gt;Node7</title>
<g id="a_edge8_Node000007_Node000007"><a xlink:title=" ">
<path fill="none" stroke="#63b8ff" d="M507.74,-373.99C502.05,-383.06 511.34,-391.5 535.62,-391.5 548.9,-391.5 557.7,-388.97 562.02,-385.2"/>
<polygon fill="#63b8ff" stroke="#63b8ff" points="565.46,-385.86 563.31,-375.49 558.52,-384.94 565.46,-385.86"/>
</a>
</g>
</g>
<!-- Node9 -->
<g id="Node000009" class="node">
<title>Node9</title>
<g id="a_Node000009"><a xlink:href="group__mod__gfdl__cloud__mp_ga6dce09bb764ce09d571eb55783abcf48.html#ga6dce09bb764ce09d571eb55783abcf48" target="_top" xlink:title="The function &#39;wqs1&#39; returns the saturation vapor pressure over pure liquid water for a given temperat...">
<polygon fill="white" stroke="#666666" points="748.25,-324.5 637.75,-324.5 637.75,-294 748.25,-294 748.25,-324.5"/>
<text xml:space="preserve" text-anchor="start" x="645.75" y="-311" font-family="Source Sans Pro" font-size="10.00">gfdl_cloud_microphys</text>
<text xml:space="preserve" text-anchor="middle" x="693" y="-299.75" font-family="Source Sans Pro" font-size="10.00">_mod::wqs1</text>
</a>
</g>
</g>
<!-- Node8&#45;&gt;Node9 -->
<g id="edge10_Node000008_Node000009" class="edge">
<title>Node8&#45;&gt;Node9</title>
<g id="a_edge10_Node000008_Node000009"><a xlink:title=" ">
<path fill="none" stroke="#63b8ff" d="M591.84,-309.25C602.96,-309.25 614.76,-309.25 626.2,-309.25"/>
<polygon fill="#63b8ff" stroke="#63b8ff" points="625.97,-312.75 635.97,-309.25 625.97,-305.75 625.97,-312.75"/>
</a>
</g>
</g>
<!-- Node9&#45;&gt;Node9 -->
<g id="edge11_Node000009_Node000009" class="edge">
<title>Node9&#45;&gt;Node9</title>
<g id="a_edge11_Node000009_Node000009"><a xlink:title=" ">
<path fill="none" stroke="#63b8ff" d="M667.04,-324.99C661.74,-334.06 670.4,-342.5 693,-342.5 705.36,-342.5 713.55,-339.97 717.57,-336.2"/>
<polygon fill="#63b8ff" stroke="#63b8ff" points="721.02,-336.84 718.77,-326.49 714.07,-335.98 721.02,-336.84"/>
</a>
</g>
</g>
<!-- Node13 -->
<g id="Node000013" class="node">
<title>Node13</title>
<g id="a_Node000013"><a xlink:href="group__mod__gfdl__cloud__mp_ga6888d7e95c34f76ecd432293eea9723f.html#ga6888d7e95c34f76ecd432293eea9723f" target="_top" xlink:title="The subroutine &#39;check_column&#39; checks if the water species is large enough to fall.">
<polygon fill="white" stroke="#666666" points="590.88,-128.5 480.38,-128.5 480.38,-98 590.88,-98 590.88,-128.5"/>
<text xml:space="preserve" text-anchor="start" x="488.38" y="-115" font-family="Source Sans Pro" font-size="10.00">gfdl_cloud_microphys</text>
<text xml:space="preserve" text-anchor="middle" x="535.62" y="-103.75" font-family="Source Sans Pro" font-size="10.00">_mod::check_column</text>
</a>
</g>
</g>
<!-- Node12&#45;&gt;Node13 -->
<g id="edge15_Node000012_Node000013" class="edge">
<title>Node12&#45;&gt;Node13</title>
<g id="a_edge15_Node000012_Node000013"><a xlink:title=" ">
<path fill="none" stroke="#63b8ff" d="M433.59,-113.25C444.88,-113.25 456.9,-113.25 468.55,-113.25"/>
<polygon fill="#63b8ff" stroke="#63b8ff" points="468.54,-116.75 478.54,-113.25 468.54,-109.75 468.54,-116.75"/>
</a>
</g>
</g>
<!-- Node14 -->
<g id="Node000014" class="node">
<title>Node14</title>
<g id="a_Node000014"><a xlink:href="group__mod__gfdl__cloud__mp_ga2f6f4139188eb18db6c84ac21f19f07b.html#ga2f6f4139188eb18db6c84ac21f19f07b" target="_top" xlink:title="The subroutine computes the time&#45;implicit monotonic fall scheme.">
<polygon fill="white" stroke="#666666" points="590.88,-79.5 480.38,-79.5 480.38,-49 590.88,-49 590.88,-79.5"/>
<text xml:space="preserve" text-anchor="start" x="488.38" y="-66" font-family="Source Sans Pro" font-size="10.00">gfdl_cloud_microphys</text>
<text xml:space="preserve" text-anchor="middle" x="535.62" y="-54.75" font-family="Source Sans Pro" font-size="10.00">_mod::implicit_fall</text>
</a>
</g>
</g>
<!-- Node12&#45;&gt;Node14 -->
<g id="edge16_Node000012_Node000014" class="edge">
<title>Node12&#45;&gt;Node14</title>
<g id="a_edge16_Node000012_Node000014"><a xlink:title=" ">
<path fill="none" stroke="#63b8ff" d="M428.84,-97.61C443.2,-93.08 459.05,-88.08 474.01,-83.37"/>
<polygon fill="#63b8ff" stroke="#63b8ff" points="474.78,-86.79 483.26,-80.45 472.67,-80.12 474.78,-86.79"/>
</a>
</g>
</g>
<!-- Node15 -->
<g id="Node000015" class="node">
<title>Node15</title>
<g id="a_Node000015"><a xlink:href="group__mod__gfdl__cloud__mp_gabfcb03d4ab831c5f0a879b75b2cf4e01.html#gabfcb03d4ab831c5f0a879b75b2cf4e01" target="_top" xlink:title="Lagrangian scheme.">
<polygon fill="white" stroke="#666666" points="601.75,-30.5 469.5,-30.5 469.5,0 601.75,0 601.75,-30.5"/>
<text xml:space="preserve" text-anchor="start" x="477.5" y="-17" font-family="Source Sans Pro" font-size="10.00">gfdl_cloud_microphys</text>
<text xml:space="preserve" text-anchor="middle" x="535.62" y="-5.75" font-family="Source Sans Pro" font-size="10.00">_mod::lagrangian_fall_ppm</text>
</a>
</g>
</g>
<!-- Node12&#45;&gt;Node15 -->
<g id="edge17_Node000012_Node000015" class="edge">
<title>Node12&#45;&gt;Node15</title>
<g id="a_edge17_Node000012_Node000015"><a xlink:title=" ">
<path fill="none" stroke="#63b8ff" d="M419.42,-97.54C424.39,-94.8 429.22,-91.7 433.5,-88.25 454.24,-71.49 448.22,-56.32 469.5,-40.25 471.28,-38.91 473.13,-37.63 475.05,-36.42"/>
<polygon fill="#63b8ff" stroke="#63b8ff" points="476.69,-39.51 483.71,-31.58 473.27,-33.4 476.69,-39.51"/>
</a>
</g>
</g>
<!-- Node16 -->
<g id="Node000016" class="node">
<title>Node16</title>
<g id="a_Node000016"><a xlink:href="group__mod__gfdl__cloud__mp_gaeaa05a4c1310e5a546cadd40f1c66c42.html#gaeaa05a4c1310e5a546cadd40f1c66c42" target="_top" xlink:title=" ">
<polygon fill="white" stroke="#666666" points="748.25,-30.5 637.75,-30.5 637.75,0 748.25,0 748.25,-30.5"/>
<text xml:space="preserve" text-anchor="start" x="645.75" y="-17" font-family="Source Sans Pro" font-size="10.00">gfdl_cloud_microphys</text>
<text xml:space="preserve" text-anchor="middle" x="693" y="-5.75" font-family="Source Sans Pro" font-size="10.00">_mod::cs_profile</text>
</a>
</g>
</g>
<!-- Node15&#45;&gt;Node16 -->
<g id="edge18_Node000015_Node000016" class="edge">
<title>Node15&#45;&gt;Node16</title>
<g id="a_edge18_Node000015_Node000016"><a xlink:title=" ">
<path fill="none" stroke="#63b8ff" d="M602.07,-15.25C609.98,-15.25 618.07,-15.25 625.99,-15.25"/>
<polygon fill="#63b8ff" stroke="#63b8ff" points="625.92,-18.75 635.92,-15.25 625.92,-11.75 625.92,-18.75"/>
</a>
</g>
</g>
<!-- Node17 -->
<g id="Node000017" class="node">
<title>Node17</title>
<g id="a_Node000017"><a xlink:href="group__mod__gfdl__cloud__mp_ga4551eade22b554cea965dc3efbe63ce4.html#ga4551eade22b554cea965dc3efbe63ce4" target="_top" xlink:title="This subroutine perform positive definite constraint.">
<polygon fill="white" stroke="#666666" points="894.75,-30.5 784.25,-30.5 784.25,0 894.75,0 894.75,-30.5"/>
<text xml:space="preserve" text-anchor="start" x="792.25" y="-17" font-family="Source Sans Pro" font-size="10.00">gfdl_cloud_microphys</text>
<text xml:space="preserve" text-anchor="middle" x="839.5" y="-5.75" font-family="Source Sans Pro" font-size="10.00">_mod::cs_limiters</text>
</a>
</g>
</g>
<!-- Node16&#45;&gt;Node17 -->
<g id="edge19_Node000016_Node000017" class="edge">
<title>Node16&#45;&gt;Node17</title>
<g id="a_edge19_Node000016_Node000017"><a xlink:title=" ">
<path fill="none" stroke="#63b8ff" d="M748.63,-15.25C756.36,-15.25 764.38,-15.25 772.3,-15.25"/>
<polygon fill="#63b8ff" stroke="#63b8ff" points="772.28,-18.75 782.28,-15.25 772.28,-11.75 772.28,-18.75"/>
</a>
</g>
</g>
<!-- Node18&#45;&gt;Node6 -->
<g id="edge24_Node000018_Node000006" class="edge">
<title>Node18&#45;&gt;Node6</title>
<g id="a_edge24_Node000018_Node000006"><a xlink:title=" ">
<path fill="none" stroke="#63b8ff" d="M395.38,-177.95C412.59,-194.04 441.22,-218.93 469.5,-235.25 472.25,-236.84 475.13,-238.36 478.07,-239.82"/>
<polygon fill="#63b8ff" stroke="#63b8ff" points="476.32,-242.87 486.87,-243.89 479.26,-236.52 476.32,-242.87"/>
</a>
</g>
</g>
<!-- Node18&#45;&gt;Node11 -->
<g id="edge26_Node000018_Node000011" class="edge">
<title>Node18&#45;&gt;Node11</title>
<g id="a_edge26_Node000018_Node000011"><a xlink:title=" ">
<path fill="none" stroke="#63b8ff" d="M428.84,-177.89C443.2,-182.42 459.05,-187.42 474.01,-192.13"/>
<polygon fill="#63b8ff" stroke="#63b8ff" points="472.67,-195.38 483.26,-195.05 474.78,-188.71 472.67,-195.38"/>
</a>
</g>
</g>
<!-- Node18&#45;&gt;Node13 -->
<g id="edge21_Node000018_Node000013" class="edge">
<title>Node18&#45;&gt;Node13</title>
<g id="a_edge21_Node000018_Node000013"><a xlink:title=" ">
<path fill="none" stroke="#63b8ff" d="M428.84,-146.61C443.2,-142.08 459.05,-137.08 474.01,-132.37"/>
<polygon fill="#63b8ff" stroke="#63b8ff" points="474.78,-135.79 483.26,-129.45 472.67,-129.12 474.78,-135.79"/>
</a>
</g>
</g>
<!-- Node18&#45;&gt;Node14 -->
<g id="edge22_Node000018_Node000014" class="edge">
<title>Node18&#45;&gt;Node14</title>
<g id="a_edge22_Node000018_Node000014"><a xlink:title=" ">
<path fill="none" stroke="#63b8ff" d="M419.42,-146.54C424.39,-143.8 429.22,-140.7 433.5,-137.25 454.24,-120.49 448.22,-105.32 469.5,-89.25 471.28,-87.91 473.13,-86.63 475.05,-85.42"/>
<polygon fill="#63b8ff" stroke="#63b8ff" points="476.69,-88.51 483.71,-80.58 473.27,-82.4 476.69,-88.51"/>
</a>
</g>
</g>
<!-- Node18&#45;&gt;Node15 -->
<g id="edge23_Node000018_Node000015" class="edge">
<title>Node18&#45;&gt;Node15</title>
<g id="a_edge23_Node000018_Node000015"><a xlink:title=" ">
<path fill="none" stroke="#63b8ff" d="M422.06,-146.62C426.26,-143.93 430.19,-140.83 433.5,-137.25 464.75,-103.52 437.17,-72.95 469.5,-40.25 470.51,-39.23 471.56,-38.26 472.65,-37.32"/>
<polygon fill="#63b8ff" stroke="#63b8ff" points="474.34,-40.41 480.45,-31.75 470.28,-34.71 474.34,-40.41"/>
</a>
</g>
</g>
<!-- Node19 -->
<g id="Node000019" class="node">
<title>Node19</title>
<g id="a_Node000019"><a xlink:href="group__mod__gfdl__cloud__mp_ga6c69bf161f1301a1733d4cf1665d5b59.html#ga6c69bf161f1301a1733d4cf1665d5b59" target="_top" xlink:title="This subroutine calculates evaporation of rain and accretion of rain.">
<polygon fill="white" stroke="#666666" points="590.88,-177.5 480.38,-177.5 480.38,-147 590.88,-147 590.88,-177.5"/>
<text xml:space="preserve" text-anchor="start" x="488.38" y="-164" font-family="Source Sans Pro" font-size="10.00">gfdl_cloud_microphys</text>
<text xml:space="preserve" text-anchor="middle" x="535.62" y="-152.75" font-family="Source Sans Pro" font-size="10.00">_mod::revap_racc</text>
</a>
</g>
</g>
<!-- Node18&#45;&gt;Node19 -->
<g id="edge25_Node000018_Node000019" class="edge">
<title>Node18&#45;&gt;Node19</title>
<g id="a_edge25_Node000018_Node000019"><a xlink:title=" ">
<path fill="none" stroke="#63b8ff" d="M433.59,-162.25C444.88,-162.25 456.9,-162.25 468.55,-162.25"/>
<polygon fill="#63b8ff" stroke="#63b8ff" points="468.54,-165.75 478.54,-162.25 468.54,-158.75 468.54,-165.75"/>
</a>
</g>
</g>
</g>
</svg>

<g id="navigator" transform="translate(0 0)" fill="#404254">
  <rect fill="#f2f5e9" fill-opacity="0.5" stroke="#606060" stroke-width=".5" x="0" y="0" width="60" height="60"/>
  <use id="zoomplus" xlink:href="#zoomPlus" x="17" y="9" onmousedown="handleZoom(evt,'in')"/>
  <use id="zoomminus" xlink:href="#zoomMin" x="42" y="9" onmousedown="handleZoom(evt,'out')"/>
  <use id="reset" xlink:href="#resetDef" x="30" y="36" onmousedown="handleReset()"/>
   <use id="arrowup" xlink:href="#arrowUp" x="0" y="0" onmousedown="handlePan(0,-1)"/>
  <use id="arrowright" xlink:href="#arrowRight" x="0" y="0" onmousedown="handlePan(1,0)"/>
  <use id="arrowdown" xlink:href="#arrowDown" x="0" y="0" onmousedown="handlePan(0,1)"/>
  <use id="arrowleft" xlink:href="#arrowLeft" x="0" y="0" onmousedown="handlePan(-1,0)"/>
</g>
<svg viewBox="0 0 15 15" width="100%" height="30px" preserveAspectRatio="xMaxYMin meet">
 <g id="arrow_out" transform="scale(0.3 0.3)">
  <a xlink:href="group__mod__gfdl__cloud__mp_gab96ce7bbe8889ca0845652ef6df3ea14_gab96ce7bbe8889ca0845652ef6df3ea14_cgraph_org.svg" target="_base">
   <rect id="button" ry="5" rx="5" y="6" x="6" height="38" width="38"
        fill="#f2f5e9" fill-opacity="0.5" stroke="#606060" stroke-width="1.0"/>
   <path id="arrow"
     d="M 11.500037,31.436501 C 11.940474,20.09759 22.043105,11.32322 32.158766,21.979434 L 37.068811,17.246167 C 37.068811,17.246167 37.088388,32 37.088388,32 L 22.160133,31.978069 C 22.160133,31.978069 26.997745,27.140456 26.997745,27.140456 C 18.528582,18.264221 13.291696,25.230495 11.500037,31.436501 z"
     style="fill:#404040;"/>
  </a>
 </g>
</svg>

<style type='text/css'>
<![CDATA[
[data-mouse-over-selected='false'] { opacity: 0.7; }
[data-mouse-over-selected='true']  { opacity: 1.0; }
]]>
</style>
<script type="application/ecmascript"><![CDATA[
document.addEventListener('DOMContentLoaded', (event) => {
  highlightEdges();
  highlightAdjacentNodes();
});
]]></script>
</svg>
