<?xml version="1.0" encoding="UTF-8" standalone="no"?>
<!DOCTYPE svg PUBLIC "-//W3C//DTD SVG 1.1//EN"
 "http://www.w3.org/Graphics/SVG/1.1/DTD/svg11.dtd">
<!-- Generated by graphviz version 14.1.2 (20260124.0452)
 -->
<!-- Title: fv_sat_adj::fv_sat_adj_work Pages: 1 -->
<svg width="252pt" height="192pt"
 viewBox="0.00 0.00 252.00 192.00" xmlns="http://www.w3.org/2000/svg" xmlns:xlink="http://www.w3.org/1999/xlink">

<svg id="main" version="1.1" xmlns="http://www.w3.org/2000/svg" xmlns:xlink="http://www.w3.org/1999/xlink" xml:space="preserve">

<style type="text/css"><![CDATA[
.node, .edge {opacity: 0.7;}
.node.selected, .edge.selected {opacity: 1;}
.edge:hover path { stroke: red; }
.edge:hover polygon { stroke: red; fill: red; }
]]></style>
<script type="application/ecmascript" xlink:href="svg.min.js"/>
<svg id="graph" class="graph">
<g id="graph0" class="graph" transform="scale(1 1) rotate(0) translate(4 188.25)">
<title>fv_sat_adj::fv_sat_adj_work</title>
<!-- Node1 -->
<g id="Node000001" class="node">
<title>Node1</title>
<g id="a_Node000001"><a xlink:title="This subroutine includes the entity of the fast saturation adjustment processes.">
<polygon fill="#999999" stroke="#666666" points="94,-88.88 0,-88.88 0,-58.38 94,-58.38 94,-88.88"/>
<text xml:space="preserve" text-anchor="start" x="8" y="-75.38" font-family="Source Sans Pro" font-size="10.00">fv_sat_adj::fv_sat</text>
<text xml:space="preserve" text-anchor="middle" x="47" y="-64.12" font-family="Source Sans Pro" font-size="10.00">_adj_work</text>
</a>
</g>
</g>
<!-- Node2 -->
<g id="Node000002" class="node">
<title>Node2</title>
<g id="a_Node000002"><a xlink:href="group__fast__sat__adj_ga8a9236e352c26c8d4c97723fe6899c23.html#ga8a9236e352c26c8d4c97723fe6899c23" target="_top" xlink:title="the function &#39;wqs1&#39; computes the saturated specific humidity for table iii">
<polygon fill="white" stroke="#666666" points="229.62,-166.25 144.62,-166.25 144.62,-147 229.62,-147 229.62,-166.25"/>
<text xml:space="preserve" text-anchor="middle" x="187.12" y="-152.75" font-family="Source Sans Pro" font-size="10.00">fv_sat_adj::iqs1</text>
</a>
</g>
</g>
<!-- Node1&#45;&gt;Node2 -->
<g id="edge1_Node000001_Node000002" class="edge">
<title>Node1&#45;&gt;Node2</title>
<g id="a_edge1_Node000001_Node000002"><a xlink:title=" ">
<path fill="none" stroke="#63b8ff" d="M64.02,-89.24C79.7,-103.79 104.84,-125.19 130,-138.62 132.49,-139.95 135.09,-141.2 137.76,-142.38"/>
<polygon fill="#63b8ff" stroke="#63b8ff" points="136.23,-145.54 146.81,-145.98 138.81,-139.03 136.23,-145.54"/>
</a>
</g>
</g>
<!-- Node3 -->
<g id="Node000003" class="node">
<title>Node3</title>
<g id="a_Node000003"><a xlink:href="group__fast__sat__adj_ga7cc92967b3deea876f0bbd6a018c0892.html#ga7cc92967b3deea876f0bbd6a018c0892" target="_top" xlink:title="The function &#39;iqs2&#39; computes the gradient of saturated specific humidity for table iii.">
<polygon fill="white" stroke="#666666" points="229.62,-111.25 144.62,-111.25 144.62,-92 229.62,-92 229.62,-111.25"/>
<text xml:space="preserve" text-anchor="middle" x="187.12" y="-97.75" font-family="Source Sans Pro" font-size="10.00">fv_sat_adj::iqs2</text>
</a>
</g>
</g>
<!-- Node1&#45;&gt;Node3 -->
<g id="edge3_Node000001_Node000003" class="edge">
<title>Node1&#45;&gt;Node3</title>
<g id="a_edge3_Node000001_Node000003"><a xlink:title=" ">
<path fill="none" stroke="#63b8ff" d="M94.38,-83.03C106.86,-85.56 120.46,-88.31 133.28,-90.91"/>
<polygon fill="#63b8ff" stroke="#63b8ff" points="132.3,-94.29 142.8,-92.84 133.69,-87.43 132.3,-94.29"/>
</a>
</g>
</g>
<!-- Node4 -->
<g id="Node000004" class="node">
<title>Node4</title>
<g id="a_Node000004"><a xlink:href="group__fast__sat__adj_ga7b60bfcbc803552a7706e44e8c034232.html#ga7b60bfcbc803552a7706e44e8c034232" target="_top" xlink:title="the function &#39;wqs1&#39; computes the saturated specific humidity for table ii.">
<polygon fill="white" stroke="#666666" points="232.25,-56.25 142,-56.25 142,-37 232.25,-37 232.25,-56.25"/>
<text xml:space="preserve" text-anchor="middle" x="187.12" y="-42.75" font-family="Source Sans Pro" font-size="10.00">fv_sat_adj::wqs1</text>
</a>
</g>
</g>
<!-- Node1&#45;&gt;Node4 -->
<g id="edge5_Node000001_Node000004" class="edge">
<title>Node1&#45;&gt;Node4</title>
<g id="a_edge5_Node000001_Node000004"><a xlink:title=" ">
<path fill="none" stroke="#63b8ff" d="M94.38,-64.56C105.9,-62.31 118.37,-59.87 130.29,-57.54"/>
<polygon fill="#63b8ff" stroke="#63b8ff" points="130.88,-60.99 140.02,-55.64 129.54,-54.12 130.88,-60.99"/>
</a>
</g>
</g>
<!-- Node5 -->
<g id="Node000005" class="node">
<title>Node5</title>
<g id="a_Node000005"><a xlink:href="group__fast__sat__adj_gad59f9d1cbaeec7fbc540d16ef561f33a.html#gad59f9d1cbaeec7fbc540d16ef561f33a" target="_top" xlink:title="The function wqs2_vect computes the gradient of saturated specific humidity for table ii....">
<polygon fill="white" stroke="#666666" points="244.25,-19.25 130,-19.25 130,0 244.25,0 244.25,-19.25"/>
<text xml:space="preserve" text-anchor="middle" x="187.12" y="-5.75" font-family="Source Sans Pro" font-size="10.00">fv_sat_adj::wqs2_vect</text>
</a>
</g>
</g>
<!-- Node1&#45;&gt;Node5 -->
<g id="edge7_Node000001_Node000005" class="edge">
<title>Node1&#45;&gt;Node5</title>
<g id="a_edge7_Node000001_Node000005"><a xlink:title=" ">
<path fill="none" stroke="#63b8ff" d="M72.81,-57.98C88.74,-48.37 110.1,-36.29 130,-27.62 133.33,-26.17 136.82,-24.78 140.35,-23.45"/>
<polygon fill="#63b8ff" stroke="#63b8ff" points="141.3,-26.83 149.57,-20.2 138.97,-20.23 141.3,-26.83"/>
</a>
</g>
</g>
<!-- Node2&#45;&gt;Node2 -->
<g id="edge2_Node000002_Node000002" class="edge">
<title>Node2&#45;&gt;Node2</title>
<g id="a_edge2_Node000002_Node000002"><a xlink:title=" ">
<path fill="none" stroke="#63b8ff" d="M165.19,-166.54C155.18,-175.15 162.49,-184.25 187.12,-184.25 200.6,-184.25 208.89,-181.53 212,-177.65"/>
<polygon fill="#63b8ff" stroke="#63b8ff" points="215.39,-176.78 209.45,-168 208.62,-178.56 215.39,-176.78"/>
</a>
</g>
</g>
<!-- Node3&#45;&gt;Node3 -->
<g id="edge4_Node000003_Node000003" class="edge">
<title>Node3&#45;&gt;Node3</title>
<g id="a_edge4_Node000003_Node000003"><a xlink:title=" ">
<path fill="none" stroke="#63b8ff" d="M165.19,-111.54C155.18,-120.15 162.49,-129.25 187.12,-129.25 200.6,-129.25 208.89,-126.53 212,-122.65"/>
<polygon fill="#63b8ff" stroke="#63b8ff" points="215.39,-121.78 209.45,-113 208.62,-123.56 215.39,-121.78"/>
</a>
</g>
</g>
<!-- Node4&#45;&gt;Node4 -->
<g id="edge6_Node000004_Node000004" class="edge">
<title>Node4&#45;&gt;Node4</title>
<g id="a_edge6_Node000004_Node000004"><a xlink:title=" ">
<path fill="none" stroke="#63b8ff" d="M165.19,-56.54C155.18,-65.15 162.49,-74.25 187.12,-74.25 200.6,-74.25 208.89,-71.53 212,-67.65"/>
<polygon fill="#63b8ff" stroke="#63b8ff" points="215.39,-66.78 209.45,-58 208.62,-68.56 215.39,-66.78"/>
</a>
</g>
</g>
</g>
</svg>
</svg>

<style type='text/css'>
<![CDATA[
[data-mouse-over-selected='false'] { opacity: 0.7; }
[data-mouse-over-selected='true']  { opacity: 1.0; }
]]>
</style>
<script type="application/ecmascript"><![CDATA[
document.addEventListener('DOMContentLoaded', (event) => {
  highlightEdges();
  highlightAdjacentNodes();
});
]]></script>
</svg>
