<?xml version="1.0" encoding="UTF-8" standalone="no"?>
<!DOCTYPE svg PUBLIC "-//W3C//DTD SVG 1.1//EN"
 "http://www.w3.org/Graphics/SVG/1.1/DTD/svg11.dtd">
<!-- Generated by graphviz version 14.1.2 (20260124.0452)
 -->
<!-- Title: module_bl_mynn::esat_blend Pages: 1 -->
<svg width="634pt" height="78pt"
 viewBox="0.00 0.00 634.00 78.00" xmlns="http://www.w3.org/2000/svg" xmlns:xlink="http://www.w3.org/1999/xlink">
<g id="graph0" class="graph" transform="scale(1 1) rotate(0) translate(4 73.5)">
<title>module_bl_mynn::esat_blend</title>
<!-- Node1 -->
<g id="Node000001" class="node">
<title>Node1</title>
<g id="a_Node000001"><a xlink:title=" ">
<polygon fill="#999999" stroke="#666666" points="625.75,-51.5 511.5,-51.5 511.5,-21 625.75,-21 625.75,-51.5"/>
<text xml:space="preserve" text-anchor="start" x="519.5" y="-38" font-family="Source Sans Pro" font-size="10.00">module_bl_mynn::esat</text>
<text xml:space="preserve" text-anchor="middle" x="568.62" y="-26.75" font-family="Source Sans Pro" font-size="10.00">_blend</text>
</a>
</g>
</g>
<!-- Node1&#45;&gt;Node1 -->
<g id="edge4_Node000001_Node000001" class="edge">
<title>Node1&#45;&gt;Node1</title>
<g id="a_edge4_Node000001_Node000001"><a xlink:title=" ">
<path fill="none" stroke="#63b8ff" d="M595.21,-63.2C590.86,-66.97 582,-69.5 568.62,-69.5 544.17,-69.5 534.81,-61.06 540.54,-51.99"/>
<polygon fill="#63b8ff" stroke="#63b8ff" points="598.65,-63.86 596.51,-53.49 591.71,-62.93 598.65,-63.86"/>
</a>
</g>
</g>
<!-- Node2 -->
<g id="Node000002" class="node">
<title>Node2</title>
<g id="a_Node000002"><a xlink:href="group__gp__mynnedmf_ga1a32198222c028ebc56fe79f6872be53.html#ga1a32198222c028ebc56fe79f6872be53" target="_top" xlink:title="This subroutine is the Dynamic Multi&#45;Plume (DMP) Mass&#45;Flux Scheme.">
<polygon fill="white" stroke="#666666" points="475.5,-67.88 344.75,-67.88 344.75,-48.62 475.5,-48.62 475.5,-67.88"/>
<text xml:space="preserve" text-anchor="middle" x="410.12" y="-54.38" font-family="Source Sans Pro" font-size="10.00">module_bl_mynn::dmp_mf</text>
</a>
</g>
</g>
<!-- Node1&#45;&gt;Node2 -->
<g id="edge1_Node000001_Node000002" class="edge">
<title>Node1&#45;&gt;Node2</title>
<g id="a_edge1_Node000001_Node000002"><a xlink:title=" ">
<path fill="none" stroke="#63b8ff" d="M499.93,-45.77C491.92,-46.89 483.75,-48.04 475.78,-49.16"/>
<polygon fill="#63b8ff" stroke="#63b8ff" points="500.21,-49.26 509.63,-44.4 499.24,-42.33 500.21,-49.26"/>
</a>
</g>
</g>
<!-- Node5 -->
<g id="Node000005" class="node">
<title>Node5</title>
<g id="a_Node000005"><a xlink:href="group__gp__mynnedmf_ga72e450860b06f1c3b6c7a9bbb0c94ce7.html#ga72e450860b06f1c3b6c7a9bbb0c94ce7" target="_top" xlink:title="This subroutine calculates the nonconvective component of the subgrid cloud fraction and mixing ratio...">
<polygon fill="white" stroke="#666666" points="468.75,-30.5 351.5,-30.5 351.5,0 468.75,0 468.75,-30.5"/>
<text xml:space="preserve" text-anchor="start" x="359.5" y="-17" font-family="Source Sans Pro" font-size="10.00">module_bl_mynn::mym</text>
<text xml:space="preserve" text-anchor="middle" x="410.12" y="-5.75" font-family="Source Sans Pro" font-size="10.00">_condensation</text>
</a>
</g>
</g>
<!-- Node1&#45;&gt;Node5 -->
<g id="edge5_Node000001_Node000005" class="edge">
<title>Node1&#45;&gt;Node5</title>
<g id="a_edge5_Node000001_Node000005"><a xlink:title=" ">
<path fill="none" stroke="#63b8ff" d="M499.74,-27.14C489.54,-25.77 479.09,-24.37 469.12,-23.03"/>
<polygon fill="#63b8ff" stroke="#63b8ff" points="499.25,-30.61 509.62,-28.47 500.18,-23.67 499.25,-30.61"/>
</a>
</g>
</g>
<!-- Node3 -->
<g id="Node000003" class="node">
<title>Node3</title>
<g id="a_Node000003"><a xlink:href="group__gp__mynnedmf_ga727e10ec7e7a73d34a7f50dadbda2b83.html#ga727e10ec7e7a73d34a7f50dadbda2b83" target="_top" xlink:title="This subroutine is the MYNN&#45;EDNF PBL driver routine,which encompassed the majority of the subroutines...">
<polygon fill="white" stroke="#666666" points="308.75,-51.5 189.25,-51.5 189.25,-21 308.75,-21 308.75,-51.5"/>
<text xml:space="preserve" text-anchor="start" x="197.25" y="-38" font-family="Source Sans Pro" font-size="10.00">module_bl_mynn::mynn</text>
<text xml:space="preserve" text-anchor="middle" x="249" y="-26.75" font-family="Source Sans Pro" font-size="10.00">_bl_driver</text>
</a>
</g>
</g>
<!-- Node2&#45;&gt;Node3 -->
<g id="edge2_Node000002_Node000003" class="edge">
<title>Node2&#45;&gt;Node3</title>
<g id="a_edge2_Node000002_Node000003"><a xlink:title=" ">
<path fill="none" stroke="#63b8ff" d="M333.06,-47.73C324.98,-46.62 316.86,-45.49 309.03,-44.41"/>
<polygon fill="#63b8ff" stroke="#63b8ff" points="332.52,-51.19 342.9,-49.09 333.48,-44.26 332.52,-51.19"/>
</a>
</g>
</g>
<!-- Node4 -->
<g id="Node000004" class="node">
<title>Node4</title>
<g id="a_Node000004"><a xlink:href="namespacemynnedmf__wrapper_aa6a54f8cc283d97e9c1d299ce2be79d3.html#aa6a54f8cc283d97e9c1d299ce2be79d3" target="_top" xlink:title=" ">
<polygon fill="white" stroke="#666666" points="153.25,-51.5 0,-51.5 0,-21 153.25,-21 153.25,-51.5"/>
<text xml:space="preserve" text-anchor="start" x="8" y="-38" font-family="Source Sans Pro" font-size="10.00">mynnedmf_wrapper::mynnedmf</text>
<text xml:space="preserve" text-anchor="middle" x="76.62" y="-26.75" font-family="Source Sans Pro" font-size="10.00">_wrapper_run</text>
</a>
</g>
</g>
<!-- Node3&#45;&gt;Node4 -->
<g id="edge3_Node000003_Node000004" class="edge">
<title>Node3&#45;&gt;Node4</title>
<g id="a_edge3_Node000003_Node000004"><a xlink:title=" ">
<path fill="none" stroke="#63b8ff" d="M177.54,-36.25C169.68,-36.25 161.66,-36.25 153.74,-36.25"/>
<polygon fill="#63b8ff" stroke="#63b8ff" points="177.38,-39.75 187.38,-36.25 177.38,-32.75 177.38,-39.75"/>
</a>
</g>
</g>
<!-- Node5&#45;&gt;Node3 -->
<g id="edge6_Node000005_Node000003" class="edge">
<title>Node5&#45;&gt;Node3</title>
<g id="a_edge6_Node000005_Node000003"><a xlink:title=" ">
<path fill="none" stroke="#63b8ff" d="M339.83,-24.39C329.62,-25.74 319.17,-27.12 309.19,-28.44"/>
<polygon fill="#63b8ff" stroke="#63b8ff" points="340.27,-27.87 349.73,-23.09 339.35,-20.93 340.27,-27.87"/>
</a>
</g>
</g>
</g>
</svg>
