<?xml version="1.0" encoding="UTF-8" standalone="no"?>
<!DOCTYPE svg PUBLIC "-//W3C//DTD SVG 1.1//EN"
 "http://www.w3.org/Graphics/SVG/1.1/DTD/svg11.dtd">
<!-- Generated by graphviz version 14.1.2 (20260124.0452)
 -->
<!-- Title: mynnsfc_wrapper::mynnsfc_wrapper_run Pages: 1 -->
<!--zoomable 1008 -->

<svg id="main" version="1.1" xmlns="http://www.w3.org/2000/svg" xmlns:xlink="http://www.w3.org/1999/xlink" xml:space="preserve" onload="init(evt)">

<style type="text/css"><![CDATA[
.node, .edge {opacity: 0.7;}
.node.selected, .edge.selected {opacity: 1;}
.edge:hover path { stroke: red; }
.edge:hover polygon { stroke: red; fill: red; }
]]></style>

<defs>
  <circle id="rim" cx="0" cy="0" r="7"/>
  <circle id="rim2" cx="0" cy="0" r="3.5"/>
  <g id="zoomPlus">
    <use xlink:href="#rim" fill="#404040"><set attributeName="fill" to="#808080" begin="zoomplus.mouseover" end="zoomplus.mouseout"/></use>
    <path d="M-4,0h8M0,-4v8" fill="none" stroke="white" stroke-width="1.5" pointer-events="none"/>
  </g>
  <g id="zoomMin">
    <use xlink:href="#rim" fill="#404040"><set attributeName="fill" to="#808080" begin="zoomminus.mouseover" end="zoomminus.mouseout"/></use>
    <path d="M-4,0h8" fill="none" stroke="white" stroke-width="1.5" pointer-events="none"/>
  </g>
  <g id="arrowUp" transform="translate(30 24)">
    <use xlink:href="#rim"/>
    <path pointer-events="none" fill="none" stroke="white" stroke-width="1.5" d="M0,-3.0v7 M-2.5,-0.5L0,-3.0L2.5,-0.5"/>
  </g>
  <g id="arrowRight" transform="rotate(90) translate(36 -43)">
    <use xlink:href="#rim"/>
    <path pointer-events="none" fill="none" stroke="white" stroke-width="1.5" d="M0,-3.0v7 M-2.5,-0.5L0,-3.0L2.5,-0.5"/>
  </g>
  <g id="arrowDown" transform="rotate(180) translate(-30 -48)">
    <use xlink:href="#rim"/>
    <path pointer-events="none" fill="none" stroke="white" stroke-width="1.5" d="M0,-3.0v7 M-2.5,-0.5L0,-3.0L2.5,-0.5"/>
  </g>
  <g id="arrowLeft" transform="rotate(270) translate(-36 17)">
    <use xlink:href="#rim"/>
    <path pointer-events="none" fill="none" stroke="white" stroke-width="1.5" d="M0,-3.0v7 M-2.5,-0.5L0,-3.0L2.5,-0.5"/>
  </g>
  <g id="resetDef">
    <use xlink:href="#rim2" fill="#404040"><set attributeName="fill" to="#808080" begin="reset.mouseover" end="reset.mouseout"/></use>
  </g>
</defs>
<script type="application/ecmascript">
var viewWidth = 921;
var viewHeight = 1008;
var sectionId = 'dynsection-0';
</script>
<script type="application/ecmascript" xlink:href="svg.min.js"/>
<svg id="graph" class="graph">
<g id="viewport">
<title>mynnsfc_wrapper::mynnsfc_wrapper_run</title>
<!-- Node1 -->
<g id="Node000001" class="node">
<title>Node1</title>
<g id="a_Node000001"><a xlink:title=" ">
<polygon fill="#999999" stroke="#666666" points="136.75,-594.5 0,-594.5 0,-564 136.75,-564 136.75,-594.5"/>
<text xml:space="preserve" text-anchor="start" x="8" y="-581" font-family="Source Sans Pro" font-size="10.00">mynnsfc_wrapper::mynnsfc</text>
<text xml:space="preserve" text-anchor="middle" x="68.38" y="-569.75" font-family="Source Sans Pro" font-size="10.00">_wrapper_run</text>
</a>
</g>
</g>
<!-- Node2 -->
<g id="Node000002" class="node">
<title>Node2</title>
<g id="a_Node000002"><a xlink:href="group__mynn__sfc_gac0ece656c5688dd834becc8babfad72c.html#gac0ece656c5688dd834becc8babfad72c" target="_top" xlink:title="This subroutine.">
<polygon fill="white" stroke="#666666" points="324.5,-588.88 172.75,-588.88 172.75,-569.62 324.5,-569.62 324.5,-588.88"/>
<text xml:space="preserve" text-anchor="middle" x="248.62" y="-575.38" font-family="Source Sans Pro" font-size="10.00">module_sf_mynn::sfclay_mynn</text>
</a>
</g>
</g>
<!-- Node1&#45;&gt;Node2 -->
<g id="edge1_Node000001_Node000002" class="edge">
<title>Node1&#45;&gt;Node2</title>
<g id="a_edge1_Node000001_Node000002"><a xlink:title=" ">
<path fill="none" stroke="#63b8ff" d="M137.02,-579.25C144.85,-579.25 152.92,-579.25 160.96,-579.25"/>
<polygon fill="#63b8ff" stroke="#63b8ff" points="160.77,-582.75 170.77,-579.25 160.77,-575.75 160.77,-582.75"/>
</a>
</g>
</g>
<!-- Node3 -->
<g id="Node000003" class="node">
<title>Node3</title>
<g id="a_Node000003"><a xlink:href="group__mynn__sfc_ga51403acc4b5f2876fedbb82b29a2dc2e.html#ga51403acc4b5f2876fedbb82b29a2dc2e" target="_top" xlink:title="This subroutine calculates u*, z/L, and the exchange coefficients which are passed to subsequent sche...">
<polygon fill="white" stroke="#666666" points="522.75,-588.88 360.5,-588.88 360.5,-569.62 522.75,-569.62 522.75,-588.88"/>
<text xml:space="preserve" text-anchor="middle" x="441.62" y="-575.38" font-family="Source Sans Pro" font-size="10.00">module_sf_mynn::sfclay1d_mynn</text>
</a>
</g>
</g>
<!-- Node2&#45;&gt;Node3 -->
<g id="edge2_Node000002_Node000003" class="edge">
<title>Node2&#45;&gt;Node3</title>
<g id="a_edge2_Node000002_Node000003"><a xlink:title=" ">
<path fill="none" stroke="#63b8ff" d="M324.84,-579.25C332.72,-579.25 340.78,-579.25 348.82,-579.25"/>
<polygon fill="#63b8ff" stroke="#63b8ff" points="348.62,-582.75 358.62,-579.25 348.62,-575.75 348.62,-582.75"/>
</a>
</g>
</g>
<!-- Node4 -->
<g id="Node000004" class="node">
<title>Node4</title>
<g id="a_Node000004"><a xlink:href="group__mynn__sfc_ga4b25c539d21bd439596f5a9adba12a47.html#ga4b25c539d21bd439596f5a9adba12a47" target="_top" xlink:title="This is taken from Andreas (2002; J. of Hydromet) and Andreas et al. (2005; BLM).">
<polygon fill="white" stroke="#666666" points="724,-999.88 567,-999.88 567,-980.62 724,-980.62 724,-999.88"/>
<text xml:space="preserve" text-anchor="middle" x="645.5" y="-986.38" font-family="Source Sans Pro" font-size="10.00">module_sf_mynn::andreas_2002</text>
</a>
</g>
</g>
<!-- Node3&#45;&gt;Node4 -->
<g id="edge3_Node000003_Node000004" class="edge">
<title>Node3&#45;&gt;Node4</title>
<g id="a_edge3_Node000003_Node000004"><a xlink:title=" ">
<path fill="none" stroke="#63b8ff" d="M442.18,-589.35C440.55,-639.42 440.32,-862.98 558.75,-972.25 559.27,-972.73 559.81,-973.21 560.35,-973.67"/>
<polygon fill="#63b8ff" stroke="#63b8ff" points="558.37,-976.55 568.6,-979.31 562.33,-970.78 558.37,-976.55"/>
</a>
</g>
</g>
<!-- Node5 -->
<g id="Node000005" class="node">
<title>Node5</title>
<g id="a_Node000005"><a xlink:href="group__mynn__sfc_ga24752a5f2d97dbfa6653a4a2e09dd452.html#ga24752a5f2d97dbfa6653a4a2e09dd452" target="_top" xlink:title="This version of Charnock&#39;s relation employs a varying Charnock parameter, similar to COARE3....">
<polygon fill="white" stroke="#666666" points="726.62,-962.88 564.38,-962.88 564.38,-943.62 726.62,-943.62 726.62,-962.88"/>
<text xml:space="preserve" text-anchor="middle" x="645.5" y="-949.38" font-family="Source Sans Pro" font-size="10.00">module_sf_mynn::charnock_1955</text>
</a>
</g>
</g>
<!-- Node3&#45;&gt;Node5 -->
<g id="edge4_Node000003_Node000005" class="edge">
<title>Node3&#45;&gt;Node5</title>
<g id="a_edge4_Node000003_Node000005"><a xlink:title=" ">
<path fill="none" stroke="#63b8ff" d="M442.57,-589.3C442.87,-636.29 450.65,-836.26 558.75,-934.25 559.86,-935.26 561.02,-936.22 562.21,-937.13"/>
<polygon fill="#63b8ff" stroke="#63b8ff" points="560.34,-940.09 570.68,-942.43 564.06,-934.16 560.34,-940.09"/>
</a>
</g>
</g>
<!-- Node6 -->
<g id="Node000006" class="node">
<title>Node6</title>
<g id="a_Node000006"><a xlink:href="group__mynn__sfc_ga6f58970b26a345173a4b938ce79986a1.html#ga6f58970b26a345173a4b938ce79986a1" target="_top" xlink:title=" ">
<polygon fill="white" stroke="#666666" points="705.25,-925.5 585.75,-925.5 585.75,-895 705.25,-895 705.25,-925.5"/>
<text xml:space="preserve" text-anchor="start" x="593.75" y="-912" font-family="Source Sans Pro" font-size="10.00">module_sf_mynn::davis</text>
<text xml:space="preserve" text-anchor="middle" x="645.5" y="-900.75" font-family="Source Sans Pro" font-size="10.00">_etal_2008</text>
</a>
</g>
</g>
<!-- Node3&#45;&gt;Node6 -->
<g id="edge5_Node000003_Node000006" class="edge">
<title>Node3&#45;&gt;Node6</title>
<g id="a_edge5_Node000003_Node000006"><a xlink:title=" ">
<path fill="none" stroke="#63b8ff" d="M443.3,-589.19C446.73,-631.64 465.89,-799.45 558.75,-885.25 563.57,-889.7 569.13,-893.36 575.06,-896.37"/>
<polygon fill="#63b8ff" stroke="#63b8ff" points="573.38,-899.46 583.95,-900.25 576.18,-893.04 573.38,-899.46"/>
</a>
</g>
</g>
<!-- Node7 -->
<g id="Node000007" class="node">
<title>Node7</title>
<g id="a_Node000007"><a xlink:href="group__mynn__sfc_gae5186e30771524f661b8506fcc83f7a8.html#gae5186e30771524f661b8506fcc83f7a8" target="_top" xlink:title="This version of Charnock&#39;s relation employs a varying Charnock parameter, taken from COARE 3....">
<polygon fill="white" stroke="#666666" points="706.75,-876.5 584.25,-876.5 584.25,-846 706.75,-846 706.75,-876.5"/>
<text xml:space="preserve" text-anchor="start" x="592.25" y="-863" font-family="Source Sans Pro" font-size="10.00">module_sf_mynn::edson</text>
<text xml:space="preserve" text-anchor="middle" x="645.5" y="-851.75" font-family="Source Sans Pro" font-size="10.00">_etal_2013</text>
</a>
</g>
</g>
<!-- Node3&#45;&gt;Node7 -->
<g id="edge6_Node000003_Node000007" class="edge">
<title>Node3&#45;&gt;Node7</title>
<g id="a_edge6_Node000003_Node000007"><a xlink:title=" ">
<path fill="none" stroke="#63b8ff" d="M444.09,-589.14C450.24,-627.22 477.6,-765.79 558.75,-836.25 563.17,-840.09 568.16,-843.34 573.44,-846.1"/>
<polygon fill="#63b8ff" stroke="#63b8ff" points="571.97,-849.27 582.53,-850.18 574.84,-842.89 571.97,-849.27"/>
</a>
</g>
</g>
<!-- Node8 -->
<g id="Node000008" class="node">
<title>Node8</title>
<g id="a_Node000008"><a xlink:href="group__mynn__sfc_gafae928cdee7c24f2ec11f10708193792.html#gafae928cdee7c24f2ec11f10708193792" target="_top" xlink:title="This formulation for thermal and moisture roughness length (Zt and Zq) as a function of the roughness...">
<polygon fill="white" stroke="#666666" points="705.25,-827.5 585.75,-827.5 585.75,-797 705.25,-797 705.25,-827.5"/>
<text xml:space="preserve" text-anchor="start" x="593.75" y="-814" font-family="Source Sans Pro" font-size="10.00">module_sf_mynn::fairall</text>
<text xml:space="preserve" text-anchor="middle" x="645.5" y="-802.75" font-family="Source Sans Pro" font-size="10.00">_etal_2003</text>
</a>
</g>
</g>
<!-- Node3&#45;&gt;Node8 -->
<g id="edge7_Node000003_Node000008" class="edge">
<title>Node3&#45;&gt;Node8</title>
<g id="a_edge7_Node000003_Node000008"><a xlink:title=" ">
<path fill="none" stroke="#63b8ff" d="M445.25,-589.28C454.56,-622.79 489.2,-731.85 558.75,-787.25 563.8,-791.27 569.48,-794.65 575.44,-797.48"/>
<polygon fill="#63b8ff" stroke="#63b8ff" points="573.72,-800.56 584.3,-801.17 576.41,-794.09 573.72,-800.56"/>
</a>
</g>
</g>
<!-- Node9 -->
<g id="Node000009" class="node">
<title>Node9</title>
<g id="a_Node000009"><a xlink:href="group__mynn__sfc_ga4b9bb922e616c8c76bf1f117db9bdd4b.html#ga4b9bb922e616c8c76bf1f117db9bdd4b" target="_top" xlink:title="This formulation for thermal and moisture roughness length (Zt and Zq) as a function of the roughness...">
<polygon fill="white" stroke="#666666" points="705.25,-778.5 585.75,-778.5 585.75,-748 705.25,-748 705.25,-778.5"/>
<text xml:space="preserve" text-anchor="start" x="593.75" y="-765" font-family="Source Sans Pro" font-size="10.00">module_sf_mynn::fairall</text>
<text xml:space="preserve" text-anchor="middle" x="645.5" y="-753.75" font-family="Source Sans Pro" font-size="10.00">_etal_2014</text>
</a>
</g>
</g>
<!-- Node3&#45;&gt;Node9 -->
<g id="edge8_Node000003_Node000009" class="edge">
<title>Node3&#45;&gt;Node9</title>
<g id="a_edge8_Node000003_Node000009"><a xlink:title=" ">
<path fill="none" stroke="#63b8ff" d="M446.98,-589.31C459.73,-617.56 499.87,-698.28 558.75,-739.25 563.75,-742.73 569.23,-745.7 574.94,-748.25"/>
<polygon fill="#63b8ff" stroke="#63b8ff" points="573.41,-751.4 584,-751.82 575.98,-744.89 573.41,-751.4"/>
</a>
</g>
</g>
<!-- Node10 -->
<g id="Node000010" class="node">
<title>Node10</title>
<g id="a_Node000010"><a xlink:href="group__mynn__sfc_gabcddba37d2f63570c5487a832d6d0808.html#gabcddba37d2f63570c5487a832d6d0808" target="_top" xlink:title="This formulation for the thermal and moisture roughness lengths (Zt and Zq) relates them to Z0 via th...">
<polygon fill="white" stroke="#666666" points="720.62,-729.88 570.38,-729.88 570.38,-710.62 720.62,-710.62 720.62,-729.88"/>
<text xml:space="preserve" text-anchor="middle" x="645.5" y="-716.38" font-family="Source Sans Pro" font-size="10.00">module_sf_mynn::garratt_1992</text>
</a>
</g>
</g>
<!-- Node3&#45;&gt;Node10 -->
<g id="edge9_Node000003_Node000010" class="edge">
<title>Node3&#45;&gt;Node10</title>
<g id="a_edge9_Node000003_Node000010"><a xlink:title=" ">
<path fill="none" stroke="#63b8ff" d="M449.08,-589.37C464.75,-613.04 507.32,-672.21 558.75,-701.25 561.94,-703.05 565.28,-704.68 568.72,-706.15"/>
<polygon fill="#63b8ff" stroke="#63b8ff" points="567.28,-709.35 577.87,-709.6 569.74,-702.8 567.28,-709.35"/>
</a>
</g>
</g>
<!-- Node11 -->
<g id="Node000011" class="node">
<title>Node11</title>
<g id="a_Node000011"><a xlink:href="group__mynn__sfc_ga8132bf9ce581779f82f4118e8a275013.html#ga8132bf9ce581779f82f4118e8a275013" target="_top" xlink:title=" ">
<polygon fill="white" stroke="#666666" points="700.38,-692.5 590.62,-692.5 590.62,-662 700.38,-662 700.38,-692.5"/>
<text xml:space="preserve" text-anchor="start" x="598.62" y="-679" font-family="Source Sans Pro" font-size="10.00">module_sf_mynn::gfs</text>
<text xml:space="preserve" text-anchor="middle" x="645.5" y="-667.75" font-family="Source Sans Pro" font-size="10.00">_z0_lnd</text>
</a>
</g>
</g>
<!-- Node3&#45;&gt;Node11 -->
<g id="edge10_Node000003_Node000011" class="edge">
<title>Node3&#45;&gt;Node11</title>
<g id="a_edge10_Node000003_Node000011"><a xlink:title=" ">
<path fill="none" stroke="#63b8ff" d="M455.87,-589.31C476.74,-604.76 519,-634.38 558.75,-652.25 565.4,-655.24 572.5,-657.98 579.67,-660.45"/>
<polygon fill="#63b8ff" stroke="#63b8ff" points="578.13,-663.63 588.72,-663.41 580.3,-656.97 578.13,-663.63"/>
</a>
</g>
</g>
<!-- Node12 -->
<g id="Node000012" class="node">
<title>Node12</title>
<g id="a_Node000012"><a xlink:href="group__mynn__sfc_gaaa5898e1b7cca87a6682f85defb5c2e9.html#gaaa5898e1b7cca87a6682f85defb5c2e9" target="_top" xlink:title=" ">
<polygon fill="white" stroke="#666666" points="700.38,-643.5 590.62,-643.5 590.62,-613 700.38,-613 700.38,-643.5"/>
<text xml:space="preserve" text-anchor="start" x="598.62" y="-630" font-family="Source Sans Pro" font-size="10.00">module_sf_mynn::gfs</text>
<text xml:space="preserve" text-anchor="middle" x="645.5" y="-618.75" font-family="Source Sans Pro" font-size="10.00">_z0_wat</text>
</a>
</g>
</g>
<!-- Node3&#45;&gt;Node12 -->
<g id="edge11_Node000003_Node000012" class="edge">
<title>Node3&#45;&gt;Node12</title>
<g id="a_edge11_Node000003_Node000012"><a xlink:title=" ">
<path fill="none" stroke="#63b8ff" d="M483.96,-589.28C511.41,-595.95 548.02,-604.83 579.35,-612.44"/>
<polygon fill="#63b8ff" stroke="#63b8ff" points="578.17,-615.75 588.71,-614.71 579.82,-608.95 578.17,-615.75"/>
</a>
</g>
</g>
<!-- Node15 -->
<g id="Node000015" class="node">
<title>Node15</title>
<g id="a_Node000015"><a xlink:href="group__mynn__sfc_gaf86498f1d153a9a81a209266b298268f.html#gaf86498f1d153a9a81a209266b298268f" target="_top" xlink:title=" ">
<polygon fill="white" stroke="#666666" points="700.38,-594.5 590.62,-594.5 590.62,-564 700.38,-564 700.38,-594.5"/>
<text xml:space="preserve" text-anchor="start" x="598.62" y="-581" font-family="Source Sans Pro" font-size="10.00">module_sf_mynn::gfs</text>
<text xml:space="preserve" text-anchor="middle" x="645.5" y="-569.75" font-family="Source Sans Pro" font-size="10.00">_zt_lnd</text>
</a>
</g>
</g>
<!-- Node3&#45;&gt;Node15 -->
<g id="edge14_Node000003_Node000015" class="edge">
<title>Node3&#45;&gt;Node15</title>
<g id="a_edge14_Node000003_Node000015"><a xlink:title=" ">
<path fill="none" stroke="#63b8ff" d="M522.99,-579.25C541.48,-579.25 560.93,-579.25 578.72,-579.25"/>
<polygon fill="#63b8ff" stroke="#63b8ff" points="578.63,-582.75 588.63,-579.25 578.63,-575.75 578.63,-582.75"/>
</a>
</g>
</g>
<!-- Node16 -->
<g id="Node000016" class="node">
<title>Node16</title>
<g id="a_Node000016"><a xlink:href="group__mynn__sfc_ga16135fde36dbe926afe4a8883ded1d1d.html#ga16135fde36dbe926afe4a8883ded1d1d" target="_top" xlink:title=" ">
<polygon fill="white" stroke="#666666" points="700.38,-545.5 590.62,-545.5 590.62,-515 700.38,-515 700.38,-545.5"/>
<text xml:space="preserve" text-anchor="start" x="598.62" y="-532" font-family="Source Sans Pro" font-size="10.00">module_sf_mynn::gfs</text>
<text xml:space="preserve" text-anchor="middle" x="645.5" y="-520.75" font-family="Source Sans Pro" font-size="10.00">_zt_wat</text>
</a>
</g>
</g>
<!-- Node3&#45;&gt;Node16 -->
<g id="edge15_Node000003_Node000016" class="edge">
<title>Node3&#45;&gt;Node16</title>
<g id="a_edge15_Node000003_Node000016"><a xlink:title=" ">
<path fill="none" stroke="#63b8ff" d="M483.96,-569.22C511.41,-562.55 548.02,-553.67 579.35,-546.06"/>
<polygon fill="#63b8ff" stroke="#63b8ff" points="579.82,-549.55 588.71,-543.79 578.17,-542.75 579.82,-549.55"/>
</a>
</g>
</g>
<!-- Node19 -->
<g id="Node000019" class="node">
<title>Node19</title>
<g id="a_Node000019"><a xlink:href="group__mynn__sfc_ga313671969a16aee828efb31d353b213c.html#ga313671969a16aee828efb31d353b213c" target="_top" xlink:title="This subroutine returns a more robust z/L that best matches the z/L from Hogstrom (1996) for unstable...">
<polygon fill="white" stroke="#666666" points="695.88,-496.5 595.12,-496.5 595.12,-466 695.88,-466 695.88,-496.5"/>
<text xml:space="preserve" text-anchor="start" x="603.12" y="-483" font-family="Source Sans Pro" font-size="10.00">module_sf_mynn::li</text>
<text xml:space="preserve" text-anchor="middle" x="645.5" y="-471.75" font-family="Source Sans Pro" font-size="10.00">_etal_2010</text>
</a>
</g>
</g>
<!-- Node3&#45;&gt;Node19 -->
<g id="edge18_Node000003_Node000019" class="edge">
<title>Node3&#45;&gt;Node19</title>
<g id="a_edge18_Node000003_Node000019"><a xlink:title=" ">
<path fill="none" stroke="#63b8ff" d="M455.87,-569.19C476.74,-553.74 519,-524.12 558.75,-506.25 566.71,-502.67 575.31,-499.46 583.88,-496.63"/>
<polygon fill="#63b8ff" stroke="#63b8ff" points="584.74,-500.03 593.24,-493.69 582.65,-493.35 584.74,-500.03"/>
</a>
</g>
</g>
<!-- Node20 -->
<g id="Node000020" class="node">
<title>Node20</title>
<g id="a_Node000020"><a xlink:href="group__mynn__sfc_ga2a33b37b24c6050511f00967992ece58.html#ga2a33b37b24c6050511f00967992ece58" target="_top" xlink:title=" ">
<polygon fill="white" stroke="#666666" points="702.62,-429.5 588.38,-429.5 588.38,-399 702.62,-399 702.62,-429.5"/>
<text xml:space="preserve" text-anchor="start" x="596.38" y="-416" font-family="Source Sans Pro" font-size="10.00">module_sf_mynn::psih</text>
<text xml:space="preserve" text-anchor="middle" x="645.5" y="-404.75" font-family="Source Sans Pro" font-size="10.00">_stable</text>
</a>
</g>
</g>
<!-- Node3&#45;&gt;Node20 -->
<g id="edge19_Node000003_Node000020" class="edge">
<title>Node3&#45;&gt;Node20</title>
<g id="a_edge19_Node000003_Node000020"><a xlink:title=" ">
<path fill="none" stroke="#63b8ff" d="M450.12,-569.29C467.31,-546.94 511.75,-492.06 558.75,-457.25 570.26,-448.73 583.72,-441.08 596.51,-434.67"/>
<polygon fill="#63b8ff" stroke="#63b8ff" points="597.73,-437.97 605.22,-430.47 594.69,-431.67 597.73,-437.97"/>
</a>
</g>
</g>
<!-- Node23 -->
<g id="Node000023" class="node">
<title>Node23</title>
<g id="a_Node000023"><a xlink:href="group__mynn__sfc_ga6e10bc7bd36fcdbf2b555f49396c9eec.html#ga6e10bc7bd36fcdbf2b555f49396c9eec" target="_top" xlink:title=" ">
<polygon fill="white" stroke="#666666" points="702.62,-362.5 588.38,-362.5 588.38,-332 702.62,-332 702.62,-362.5"/>
<text xml:space="preserve" text-anchor="start" x="596.38" y="-349" font-family="Source Sans Pro" font-size="10.00">module_sf_mynn::psih</text>
<text xml:space="preserve" text-anchor="middle" x="645.5" y="-337.75" font-family="Source Sans Pro" font-size="10.00">_unstable</text>
</a>
</g>
</g>
<!-- Node3&#45;&gt;Node23 -->
<g id="edge25_Node000003_Node000023" class="edge">
<title>Node3&#45;&gt;Node23</title>
<g id="a_edge25_Node000003_Node000023"><a xlink:title=" ">
<path fill="none" stroke="#63b8ff" d="M446.41,-569.31C458.43,-538.84 498.59,-445.44 558.75,-390.25 568.34,-381.46 580.06,-374.02 591.72,-367.94"/>
<polygon fill="#63b8ff" stroke="#63b8ff" points="593.1,-371.16 600.53,-363.61 590.01,-364.88 593.1,-371.16"/>
</a>
</g>
</g>
<!-- Node26 -->
<g id="Node000026" class="node">
<title>Node26</title>
<g id="a_Node000026"><a xlink:href="group__mynn__sfc_ga454633ed81c49d8e9468a102612e38d1.html#ga454633ed81c49d8e9468a102612e38d1" target="_top" xlink:title="look&#45;up table functions &#45; or, if beyond &#45;10 &lt; z/L &lt; 10, recalculate">
<polygon fill="white" stroke="#666666" points="704.12,-295.5 586.88,-295.5 586.88,-265 704.12,-265 704.12,-295.5"/>
<text xml:space="preserve" text-anchor="start" x="594.88" y="-282" font-family="Source Sans Pro" font-size="10.00">module_sf_mynn::psim</text>
<text xml:space="preserve" text-anchor="middle" x="645.5" y="-270.75" font-family="Source Sans Pro" font-size="10.00">_stable</text>
</a>
</g>
</g>
<!-- Node3&#45;&gt;Node26 -->
<g id="edge31_Node000003_Node000026" class="edge">
<title>Node3&#45;&gt;Node26</title>
<g id="a_edge31_Node000003_Node000026"><a xlink:title=" ">
<path fill="none" stroke="#63b8ff" d="M444.61,-569.33C452.5,-532.26 484.83,-400.11 558.75,-323.25 567.32,-314.34 578.14,-306.97 589.17,-301.02"/>
<polygon fill="#63b8ff" stroke="#63b8ff" points="590.59,-304.22 597.96,-296.61 587.45,-297.96 590.59,-304.22"/>
</a>
</g>
</g>
<!-- Node29 -->
<g id="Node000029" class="node">
<title>Node29</title>
<g id="a_Node000029"><a xlink:href="group__mynn__sfc_ga885118af5fa22eb8e00039c531ddd8db.html#ga885118af5fa22eb8e00039c531ddd8db" target="_top" xlink:title=" ">
<polygon fill="white" stroke="#666666" points="704.12,-228.5 586.88,-228.5 586.88,-198 704.12,-198 704.12,-228.5"/>
<text xml:space="preserve" text-anchor="start" x="594.88" y="-215" font-family="Source Sans Pro" font-size="10.00">module_sf_mynn::psim</text>
<text xml:space="preserve" text-anchor="middle" x="645.5" y="-203.75" font-family="Source Sans Pro" font-size="10.00">_unstable</text>
</a>
</g>
</g>
<!-- Node3&#45;&gt;Node29 -->
<g id="edge37_Node000003_Node000029" class="edge">
<title>Node3&#45;&gt;Node29</title>
<g id="a_edge37_Node000003_Node000029"><a xlink:title=" ">
<path fill="none" stroke="#63b8ff" d="M443.55,-569.2C448,-526.21 470.77,-355.44 558.75,-256.25 566.71,-247.28 576.97,-239.95 587.61,-234.06"/>
<polygon fill="#63b8ff" stroke="#63b8ff" points="589.2,-237.18 596.52,-229.52 586.02,-230.94 589.2,-237.18"/>
</a>
</g>
</g>
<!-- Node32 -->
<g id="Node000032" class="node">
<title>Node32</title>
<g id="a_Node000032"><a xlink:href="group__mynn__sfc_ga9ab0b939197c07ac6ef3cae7acee13a5.html#ga9ab0b939197c07ac6ef3cae7acee13a5" target="_top" xlink:title="This formulation for roughness length was designed account for. wave steepness.">
<polygon fill="white" stroke="#666666" points="705.62,-179.5 585.38,-179.5 585.38,-149 705.62,-149 705.62,-179.5"/>
<text xml:space="preserve" text-anchor="start" x="593.38" y="-166" font-family="Source Sans Pro" font-size="10.00">module_sf_mynn::taylor</text>
<text xml:space="preserve" text-anchor="middle" x="645.5" y="-154.75" font-family="Source Sans Pro" font-size="10.00">_yelland_2001</text>
</a>
</g>
</g>
<!-- Node3&#45;&gt;Node32 -->
<g id="edge43_Node000003_Node000032" class="edge">
<title>Node3&#45;&gt;Node32</title>
<g id="a_edge43_Node000003_Node000032"><a xlink:title=" ">
<path fill="none" stroke="#63b8ff" d="M442.38,-569.4C441.7,-520.55 445.28,-302.07 558.75,-189.25 563.4,-184.63 568.85,-180.85 574.72,-177.76"/>
<polygon fill="#63b8ff" stroke="#63b8ff" points="575.83,-181.1 583.52,-173.82 572.97,-174.71 575.83,-181.1"/>
</a>
</g>
</g>
<!-- Node33 -->
<g id="Node000033" class="node">
<title>Node33</title>
<g id="a_Node000033"><a xlink:href="group__mynn__sfc_ga259ab52e1c191830559f851230ca17d9.html#ga259ab52e1c191830559f851230ca17d9" target="_top" xlink:title="This is a modified version of Yang et al (2002 QJRMS, 2008 JAMC) and Chen et al (2010,...">
<polygon fill="white" stroke="#666666" points="717.25,-130.88 573.75,-130.88 573.75,-111.62 717.25,-111.62 717.25,-130.88"/>
<text xml:space="preserve" text-anchor="middle" x="645.5" y="-117.38" font-family="Source Sans Pro" font-size="10.00">module_sf_mynn::yang_2008</text>
</a>
</g>
</g>
<!-- Node3&#45;&gt;Node33 -->
<g id="edge44_Node000003_Node000033" class="edge">
<title>Node3&#45;&gt;Node33</title>
<g id="a_edge44_Node000003_Node000033"><a xlink:title=" ">
<path fill="none" stroke="#63b8ff" d="M443.85,-569.31C451.37,-510.01 493.07,-203.32 558.75,-140.25 560.36,-138.71 562.06,-137.28 563.85,-135.95"/>
<polygon fill="#63b8ff" stroke="#63b8ff" points="565.33,-139.15 572.07,-130.97 561.7,-133.16 565.33,-139.15"/>
</a>
</g>
</g>
<!-- Node34 -->
<g id="Node000034" class="node">
<title>Node34</title>
<g id="a_Node000034"><a xlink:href="group__mynn__sfc_gac8b632de4cd0fcd7e8dfa9a943edaec4.html#gac8b632de4cd0fcd7e8dfa9a943edaec4" target="_top" xlink:title="This subroutine returns the thermal and moisture roughness lengths from Zilitinkevich (1995) and Zili...">
<polygon fill="white" stroke="#666666" points="732.25,-93.88 558.75,-93.88 558.75,-74.62 732.25,-74.62 732.25,-93.88"/>
<text xml:space="preserve" text-anchor="middle" x="645.5" y="-80.38" font-family="Source Sans Pro" font-size="10.00">module_sf_mynn::zilitinkevich_1995</text>
</a>
</g>
</g>
<!-- Node3&#45;&gt;Node34 -->
<g id="edge45_Node000003_Node000034" class="edge">
<title>Node3&#45;&gt;Node34</title>
<g id="a_edge45_Node000003_Node000034"><a xlink:title=" ">
<path fill="none" stroke="#63b8ff" d="M443.62,-569.27C450.06,-506.9 487.73,-171.04 558.75,-102.25 559.15,-101.87 559.55,-101.49 559.96,-101.12"/>
<polygon fill="#63b8ff" stroke="#63b8ff" points="562,-103.96 568.05,-95.26 557.9,-98.29 562,-103.96"/>
</a>
</g>
</g>
<!-- Node13 -->
<g id="Node000013" class="node">
<title>Node13</title>
<g id="a_Node000013"><a xlink:href="group__mynn__sfc_gaeb3eb0de61ef2d256cf8b8c53cd99d79.html#gaeb3eb0de61ef2d256cf8b8c53cd99d79" target="_top" xlink:title="add fitted z0,zt curves for hurricane application (used in HWRF/HMON) Weiguo Wang,...">
<polygon fill="white" stroke="#666666" points="912.5,-671.88 768.25,-671.88 768.25,-652.62 912.5,-652.62 912.5,-671.88"/>
<text xml:space="preserve" text-anchor="middle" x="840.38" y="-658.38" font-family="Source Sans Pro" font-size="10.00">module_sf_mynn::znot_m_v6</text>
</a>
</g>
</g>
<!-- Node12&#45;&gt;Node13 -->
<g id="edge12_Node000012_Node000013" class="edge">
<title>Node12&#45;&gt;Node13</title>
<g id="a_edge12_Node000012_Node000013"><a xlink:title=" ">
<path fill="none" stroke="#63b8ff" d="M700.74,-637.81C722.57,-641.66 748,-646.14 771.07,-650.21"/>
<polygon fill="#63b8ff" stroke="#63b8ff" points="770.23,-653.62 780.69,-651.9 771.45,-646.72 770.23,-653.62"/>
</a>
</g>
</g>
<!-- Node14 -->
<g id="Node000014" class="node">
<title>Node14</title>
<g id="a_Node000014"><a xlink:href="group__mynn__sfc_ga784c4ee38a178b60dc3b77cb975d01fc.html#ga784c4ee38a178b60dc3b77cb975d01fc" target="_top" xlink:title="Calculate areodynamical roughness over water with input 10&#45;m wind For low&#45;to&#45;moderate winds,...">
<polygon fill="white" stroke="#666666" points="912.5,-634.88 768.25,-634.88 768.25,-615.62 912.5,-615.62 912.5,-634.88"/>
<text xml:space="preserve" text-anchor="middle" x="840.38" y="-621.38" font-family="Source Sans Pro" font-size="10.00">module_sf_mynn::znot_m_v7</text>
</a>
</g>
</g>
<!-- Node12&#45;&gt;Node14 -->
<g id="edge13_Node000012_Node000014" class="edge">
<title>Node12&#45;&gt;Node14</title>
<g id="a_edge13_Node000012_Node000014"><a xlink:title=" ">
<path fill="none" stroke="#63b8ff" d="M700.74,-627.41C718.08,-627.14 737.68,-626.83 756.57,-626.54"/>
<polygon fill="#63b8ff" stroke="#63b8ff" points="756.44,-630.04 766.38,-626.39 756.33,-623.04 756.44,-630.04"/>
</a>
</g>
</g>
<!-- Node17 -->
<g id="Node000017" class="node">
<title>Node17</title>
<g id="a_Node000017"><a xlink:href="group__mynn__sfc_ga88ef473ba576cf88e7848dc3734c11c8.html#ga88ef473ba576cf88e7848dc3734c11c8" target="_top" xlink:title="Calculate scalar roughness over water with input 10&#45;m wind For low&#45;to&#45;moderate winds,...">
<polygon fill="white" stroke="#666666" points="909.88,-591.88 770.88,-591.88 770.88,-572.62 909.88,-572.62 909.88,-591.88"/>
<text xml:space="preserve" text-anchor="middle" x="840.38" y="-578.38" font-family="Source Sans Pro" font-size="10.00">module_sf_mynn::znot_t_v6</text>
</a>
</g>
</g>
<!-- Node16&#45;&gt;Node17 -->
<g id="edge16_Node000016_Node000017" class="edge">
<title>Node16&#45;&gt;Node17</title>
<g id="a_edge16_Node000016_Node000017"><a xlink:title=" ">
<path fill="none" stroke="#63b8ff" d="M700.67,-545.68C721.73,-551.6 746.09,-558.35 768.25,-564.25 774.56,-565.93 781.19,-567.66 787.77,-569.35"/>
<polygon fill="#63b8ff" stroke="#63b8ff" points="786.69,-572.68 797.24,-571.77 788.42,-565.9 786.69,-572.68"/>
</a>
</g>
</g>
<!-- Node18 -->
<g id="Node000018" class="node">
<title>Node18</title>
<g id="a_Node000018"><a xlink:href="group__mynn__sfc_ga13aa942a8049528849034aa65d68de58.html#ga13aa942a8049528849034aa65d68de58" target="_top" xlink:title="Calculate scalar roughness over water with input 10&#45;m wind For low&#45;to&#45;moderate winds,...">
<polygon fill="white" stroke="#666666" points="909.88,-554.88 770.88,-554.88 770.88,-535.62 909.88,-535.62 909.88,-554.88"/>
<text xml:space="preserve" text-anchor="middle" x="840.38" y="-541.38" font-family="Source Sans Pro" font-size="10.00">module_sf_mynn::znot_t_v7</text>
</a>
</g>
</g>
<!-- Node16&#45;&gt;Node18 -->
<g id="edge17_Node000016_Node000018" class="edge">
<title>Node16&#45;&gt;Node18</title>
<g id="a_edge17_Node000016_Node000018"><a xlink:title=" ">
<path fill="none" stroke="#63b8ff" d="M700.74,-534.47C718.81,-535.87 739.34,-537.47 758.96,-539"/>
<polygon fill="#63b8ff" stroke="#63b8ff" points="758.63,-542.48 768.87,-539.77 759.18,-535.5 758.63,-542.48"/>
</a>
</g>
</g>
<!-- Node20&#45;&gt;Node20 -->
<g id="edge20_Node000020_Node000020" class="edge">
<title>Node20&#45;&gt;Node20</title>
<g id="a_edge20_Node000020_Node000020"><a xlink:title=" ">
<path fill="none" stroke="#63b8ff" d="M610.97,-429.99C603.92,-439.06 615.43,-447.5 645.5,-447.5 661.94,-447.5 672.84,-444.97 678.18,-441.2"/>
<polygon fill="#63b8ff" stroke="#63b8ff" points="681.61,-441.92 679.79,-431.48 674.7,-440.78 681.61,-441.92"/>
</a>
</g>
</g>
<!-- Node21 -->
<g id="Node000021" class="node">
<title>Node21</title>
<g id="a_Node000021"><a xlink:href="group__mynn__sfc_ga214373cdd64d666866d4c818b57a47ec.html#ga214373cdd64d666866d4c818b57a47ec" target="_top" xlink:title=" ">
<polygon fill="white" stroke="#666666" points="897.5,-499.5 783.25,-499.5 783.25,-469 897.5,-469 897.5,-499.5"/>
<text xml:space="preserve" text-anchor="start" x="791.25" y="-486" font-family="Source Sans Pro" font-size="10.00">module_sf_mynn::psih</text>
<text xml:space="preserve" text-anchor="middle" x="840.38" y="-474.75" font-family="Source Sans Pro" font-size="10.00">_stable_full</text>
</a>
</g>
</g>
<!-- Node20&#45;&gt;Node21 -->
<g id="edge21_Node000020_Node000021" class="edge">
<title>Node20&#45;&gt;Node21</title>
<g id="a_edge21_Node000020_Node000021"><a xlink:title=" ">
<path fill="none" stroke="#63b8ff" d="M688.42,-429.93C711.87,-438.66 741.65,-449.66 768.25,-459.25 773.29,-461.07 778.55,-462.95 783.81,-464.82"/>
<polygon fill="#63b8ff" stroke="#63b8ff" points="782.54,-468.08 793.14,-468.12 784.88,-461.48 782.54,-468.08"/>
</a>
</g>
</g>
<!-- Node22 -->
<g id="Node000022" class="node">
<title>Node22</title>
<g id="a_Node000022"><a xlink:href="group__mynn__sfc_ga2186e04d782df51218fbd03d31517fc8.html#ga2186e04d782df51218fbd03d31517fc8" target="_top" xlink:title=" ">
<polygon fill="white" stroke="#666666" points="897.5,-432.5 783.25,-432.5 783.25,-402 897.5,-402 897.5,-432.5"/>
<text xml:space="preserve" text-anchor="start" x="791.25" y="-419" font-family="Source Sans Pro" font-size="10.00">module_sf_mynn::psih</text>
<text xml:space="preserve" text-anchor="middle" x="840.38" y="-407.75" font-family="Source Sans Pro" font-size="10.00">_stable_full_gfs</text>
</a>
</g>
</g>
<!-- Node20&#45;&gt;Node22 -->
<g id="edge23_Node000020_Node000022" class="edge">
<title>Node20&#45;&gt;Node22</title>
<g id="a_edge23_Node000020_Node000022"><a xlink:title=" ">
<path fill="none" stroke="#63b8ff" d="M703.07,-415.13C724.46,-415.46 749.03,-415.84 771.36,-416.19"/>
<polygon fill="#63b8ff" stroke="#63b8ff" points="771.24,-419.69 781.3,-416.35 771.35,-412.69 771.24,-419.69"/>
</a>
</g>
</g>
<!-- Node21&#45;&gt;Node21 -->
<g id="edge22_Node000021_Node000021" class="edge">
<title>Node21&#45;&gt;Node21</title>
<g id="a_edge22_Node000021_Node000021"><a xlink:title=" ">
<path fill="none" stroke="#63b8ff" d="M805.84,-499.99C798.8,-509.06 810.31,-517.5 840.38,-517.5 856.82,-517.5 867.71,-514.97 873.06,-511.2"/>
<polygon fill="#63b8ff" stroke="#63b8ff" points="876.49,-511.92 874.66,-501.48 869.58,-510.78 876.49,-511.92"/>
</a>
</g>
</g>
<!-- Node22&#45;&gt;Node22 -->
<g id="edge24_Node000022_Node000022" class="edge">
<title>Node22&#45;&gt;Node22</title>
<g id="a_edge24_Node000022_Node000022"><a xlink:title=" ">
<path fill="none" stroke="#63b8ff" d="M805.84,-432.99C798.8,-442.06 810.31,-450.5 840.38,-450.5 856.82,-450.5 867.71,-447.97 873.06,-444.2"/>
<polygon fill="#63b8ff" stroke="#63b8ff" points="876.49,-444.92 874.66,-434.48 869.58,-443.78 876.49,-444.92"/>
</a>
</g>
</g>
<!-- Node23&#45;&gt;Node23 -->
<g id="edge26_Node000023_Node000023" class="edge">
<title>Node23&#45;&gt;Node23</title>
<g id="a_edge26_Node000023_Node000023"><a xlink:title=" ">
<path fill="none" stroke="#63b8ff" d="M610.97,-362.99C603.92,-372.06 615.43,-380.5 645.5,-380.5 661.94,-380.5 672.84,-377.97 678.18,-374.2"/>
<polygon fill="#63b8ff" stroke="#63b8ff" points="681.61,-374.92 679.79,-364.48 674.7,-373.78 681.61,-374.92"/>
</a>
</g>
</g>
<!-- Node24 -->
<g id="Node000024" class="node">
<title>Node24</title>
<g id="a_Node000024"><a xlink:href="group__mynn__sfc_gae46cc20c17ea15f5c9f5610ab6942073.html#gae46cc20c17ea15f5c9f5610ab6942073" target="_top" xlink:title=" ">
<polygon fill="white" stroke="#666666" points="897.5,-365.5 783.25,-365.5 783.25,-335 897.5,-335 897.5,-365.5"/>
<text xml:space="preserve" text-anchor="start" x="791.25" y="-352" font-family="Source Sans Pro" font-size="10.00">module_sf_mynn::psih</text>
<text xml:space="preserve" text-anchor="middle" x="840.38" y="-340.75" font-family="Source Sans Pro" font-size="10.00">_unstable_full</text>
</a>
</g>
</g>
<!-- Node23&#45;&gt;Node24 -->
<g id="edge27_Node000023_Node000024" class="edge">
<title>Node23&#45;&gt;Node24</title>
<g id="a_edge27_Node000023_Node000024"><a xlink:title=" ">
<path fill="none" stroke="#63b8ff" d="M703.07,-348.13C724.46,-348.46 749.03,-348.84 771.36,-349.19"/>
<polygon fill="#63b8ff" stroke="#63b8ff" points="771.24,-352.69 781.3,-349.35 771.35,-345.69 771.24,-352.69"/>
</a>
</g>
</g>
<!-- Node25 -->
<g id="Node000025" class="node">
<title>Node25</title>
<g id="a_Node000025"><a xlink:href="group__mynn__sfc_gaa556db3881e63c9fc578aafd1071e248.html#gaa556db3881e63c9fc578aafd1071e248" target="_top" xlink:title=" ">
<polygon fill="white" stroke="#666666" points="897.5,-298.5 783.25,-298.5 783.25,-268 897.5,-268 897.5,-298.5"/>
<text xml:space="preserve" text-anchor="start" x="791.25" y="-285" font-family="Source Sans Pro" font-size="10.00">module_sf_mynn::psih</text>
<text xml:space="preserve" text-anchor="middle" x="840.38" y="-273.75" font-family="Source Sans Pro" font-size="10.00">_unstable_full_gfs</text>
</a>
</g>
</g>
<!-- Node23&#45;&gt;Node25 -->
<g id="edge29_Node000023_Node000025" class="edge">
<title>Node23&#45;&gt;Node25</title>
<g id="a_edge29_Node000023_Node000025"><a xlink:title=" ">
<path fill="none" stroke="#63b8ff" d="M702.48,-331.5C712.43,-328.54 722.67,-325.39 732.25,-322.25 750.4,-316.31 770.08,-309.31 787.57,-302.89"/>
<polygon fill="#63b8ff" stroke="#63b8ff" points="788.55,-306.25 796.71,-299.5 786.12,-299.69 788.55,-306.25"/>
</a>
</g>
</g>
<!-- Node24&#45;&gt;Node24 -->
<g id="edge28_Node000024_Node000024" class="edge">
<title>Node24&#45;&gt;Node24</title>
<g id="a_edge28_Node000024_Node000024"><a xlink:title=" ">
<path fill="none" stroke="#63b8ff" d="M805.84,-365.99C798.8,-375.06 810.31,-383.5 840.38,-383.5 856.82,-383.5 867.71,-380.97 873.06,-377.2"/>
<polygon fill="#63b8ff" stroke="#63b8ff" points="876.49,-377.92 874.66,-367.48 869.58,-376.78 876.49,-377.92"/>
</a>
</g>
</g>
<!-- Node25&#45;&gt;Node25 -->
<g id="edge30_Node000025_Node000025" class="edge">
<title>Node25&#45;&gt;Node25</title>
<g id="a_edge30_Node000025_Node000025"><a xlink:title=" ">
<path fill="none" stroke="#63b8ff" d="M805.84,-298.99C798.8,-308.06 810.31,-316.5 840.38,-316.5 856.82,-316.5 867.71,-313.97 873.06,-310.2"/>
<polygon fill="#63b8ff" stroke="#63b8ff" points="876.49,-310.92 874.66,-300.48 869.58,-309.78 876.49,-310.92"/>
</a>
</g>
</g>
<!-- Node26&#45;&gt;Node26 -->
<g id="edge32_Node000026_Node000026" class="edge">
<title>Node26&#45;&gt;Node26</title>
<g id="a_edge32_Node000026_Node000026"><a xlink:title=" ">
<path fill="none" stroke="#63b8ff" d="M610.97,-295.99C603.92,-305.06 615.43,-313.5 645.5,-313.5 661.94,-313.5 672.84,-310.97 678.18,-307.2"/>
<polygon fill="#63b8ff" stroke="#63b8ff" points="681.61,-307.92 679.79,-297.48 674.7,-306.78 681.61,-307.92"/>
</a>
</g>
</g>
<!-- Node27 -->
<g id="Node000027" class="node">
<title>Node27</title>
<g id="a_Node000027"><a xlink:href="group__mynn__sfc_gaaefd04628906b35b8ba54bbf62e6a78f.html#gaaefd04628906b35b8ba54bbf62e6a78f" target="_top" xlink:title=" ">
<polygon fill="white" stroke="#666666" points="899,-231.5 781.75,-231.5 781.75,-201 899,-201 899,-231.5"/>
<text xml:space="preserve" text-anchor="start" x="789.75" y="-218" font-family="Source Sans Pro" font-size="10.00">module_sf_mynn::psim</text>
<text xml:space="preserve" text-anchor="middle" x="840.38" y="-206.75" font-family="Source Sans Pro" font-size="10.00">_stable_full</text>
</a>
</g>
</g>
<!-- Node26&#45;&gt;Node27 -->
<g id="edge33_Node000026_Node000027" class="edge">
<title>Node26&#45;&gt;Node27</title>
<g id="a_edge33_Node000026_Node000027"><a xlink:title=" ">
<path fill="none" stroke="#63b8ff" d="M702.48,-264.5C712.43,-261.54 722.67,-258.39 732.25,-255.25 750.4,-249.31 770.08,-242.31 787.57,-235.89"/>
<polygon fill="#63b8ff" stroke="#63b8ff" points="788.55,-239.25 796.71,-232.5 786.12,-232.69 788.55,-239.25"/>
</a>
</g>
</g>
<!-- Node28 -->
<g id="Node000028" class="node">
<title>Node28</title>
<g id="a_Node000028"><a xlink:href="group__mynn__sfc_ga12649bf97aa4974c23a7723c418907e0.html#ga12649bf97aa4974c23a7723c418907e0" target="_top" xlink:title=" ">
<polygon fill="white" stroke="#666666" points="899,-164.5 781.75,-164.5 781.75,-134 899,-134 899,-164.5"/>
<text xml:space="preserve" text-anchor="start" x="789.75" y="-151" font-family="Source Sans Pro" font-size="10.00">module_sf_mynn::psim</text>
<text xml:space="preserve" text-anchor="middle" x="840.38" y="-139.75" font-family="Source Sans Pro" font-size="10.00">_stable_full_gfs</text>
</a>
</g>
</g>
<!-- Node26&#45;&gt;Node28 -->
<g id="edge35_Node000026_Node000028" class="edge">
<title>Node26&#45;&gt;Node28</title>
<g id="a_edge35_Node000026_Node000028"><a xlink:title=" ">
<path fill="none" stroke="#63b8ff" d="M704.36,-270.01C714.33,-266.46 724.09,-261.68 732.25,-255.25 757.57,-235.28 745.73,-215.33 768.25,-192.25 776.26,-184.04 786.16,-176.78 795.99,-170.68"/>
<polygon fill="#63b8ff" stroke="#63b8ff" points="797.57,-173.81 804.43,-165.73 794.03,-167.77 797.57,-173.81"/>
</a>
</g>
</g>
<!-- Node27&#45;&gt;Node27 -->
<g id="edge34_Node000027_Node000027" class="edge">
<title>Node27&#45;&gt;Node27</title>
<g id="a_edge34_Node000027_Node000027"><a xlink:title=" ">
<path fill="none" stroke="#63b8ff" d="M805.84,-231.99C798.8,-241.06 810.31,-249.5 840.38,-249.5 856.82,-249.5 867.71,-246.97 873.06,-243.2"/>
<polygon fill="#63b8ff" stroke="#63b8ff" points="876.49,-243.92 874.66,-233.48 869.58,-242.78 876.49,-243.92"/>
</a>
</g>
</g>
<!-- Node28&#45;&gt;Node28 -->
<g id="edge36_Node000028_Node000028" class="edge">
<title>Node28&#45;&gt;Node28</title>
<g id="a_edge36_Node000028_Node000028"><a xlink:title=" ">
<path fill="none" stroke="#63b8ff" d="M805.84,-164.99C798.8,-174.06 810.31,-182.5 840.38,-182.5 856.82,-182.5 867.71,-179.97 873.06,-176.2"/>
<polygon fill="#63b8ff" stroke="#63b8ff" points="876.49,-176.92 874.66,-166.48 869.58,-175.78 876.49,-176.92"/>
</a>
</g>
</g>
<!-- Node29&#45;&gt;Node29 -->
<g id="edge38_Node000029_Node000029" class="edge">
<title>Node29&#45;&gt;Node29</title>
<g id="a_edge38_Node000029_Node000029"><a xlink:title=" ">
<path fill="none" stroke="#63b8ff" d="M610.97,-228.99C603.92,-238.06 615.43,-246.5 645.5,-246.5 661.94,-246.5 672.84,-243.97 678.18,-240.2"/>
<polygon fill="#63b8ff" stroke="#63b8ff" points="681.61,-240.92 679.79,-230.48 674.7,-239.78 681.61,-240.92"/>
</a>
</g>
</g>
<!-- Node30 -->
<g id="Node000030" class="node">
<title>Node30</title>
<g id="a_Node000030"><a xlink:href="group__mynn__sfc_gace0216359bf098fd5cc7fa7cb8b3b716.html#gace0216359bf098fd5cc7fa7cb8b3b716" target="_top" xlink:title=" ">
<polygon fill="white" stroke="#666666" points="899,-97.5 781.75,-97.5 781.75,-67 899,-67 899,-97.5"/>
<text xml:space="preserve" text-anchor="start" x="789.75" y="-84" font-family="Source Sans Pro" font-size="10.00">module_sf_mynn::psim</text>
<text xml:space="preserve" text-anchor="middle" x="840.38" y="-72.75" font-family="Source Sans Pro" font-size="10.00">_unstable_full</text>
</a>
</g>
</g>
<!-- Node29&#45;&gt;Node30 -->
<g id="edge39_Node000029_Node000030" class="edge">
<title>Node29&#45;&gt;Node30</title>
<g id="a_edge39_Node000029_Node000030"><a xlink:title=" ">
<path fill="none" stroke="#63b8ff" d="M704.36,-203.01C714.33,-199.46 724.09,-194.68 732.25,-188.25 757.57,-168.28 745.73,-148.33 768.25,-125.25 776.26,-117.04 786.16,-109.78 795.99,-103.68"/>
<polygon fill="#63b8ff" stroke="#63b8ff" points="797.57,-106.81 804.43,-98.73 794.03,-100.77 797.57,-106.81"/>
</a>
</g>
</g>
<!-- Node31 -->
<g id="Node000031" class="node">
<title>Node31</title>
<g id="a_Node000031"><a xlink:href="group__mynn__sfc_ga8e88a4eb2ee98eb538da06f42215e8b7.html#ga8e88a4eb2ee98eb538da06f42215e8b7" target="_top" xlink:title=" ">
<polygon fill="white" stroke="#666666" points="899,-30.5 781.75,-30.5 781.75,0 899,0 899,-30.5"/>
<text xml:space="preserve" text-anchor="start" x="789.75" y="-17" font-family="Source Sans Pro" font-size="10.00">module_sf_mynn::psim</text>
<text xml:space="preserve" text-anchor="middle" x="840.38" y="-5.75" font-family="Source Sans Pro" font-size="10.00">_unstable_full_gfs</text>
</a>
</g>
</g>
<!-- Node29&#45;&gt;Node31 -->
<g id="edge41_Node000029_Node000031" class="edge">
<title>Node29&#45;&gt;Node31</title>
<g id="a_edge41_Node000029_Node000031"><a xlink:title=" ">
<path fill="none" stroke="#63b8ff" d="M704.45,-205.07C714.76,-201.35 724.63,-195.98 732.25,-188.25 774.35,-145.57 732.04,-106.03 768.25,-58.25 774.65,-49.81 783.23,-42.67 792.22,-36.78"/>
<polygon fill="#63b8ff" stroke="#63b8ff" points="793.97,-39.81 800.74,-31.66 790.37,-33.81 793.97,-39.81"/>
</a>
</g>
</g>
<!-- Node30&#45;&gt;Node30 -->
<g id="edge40_Node000030_Node000030" class="edge">
<title>Node30&#45;&gt;Node30</title>
<g id="a_edge40_Node000030_Node000030"><a xlink:title=" ">
<path fill="none" stroke="#63b8ff" d="M805.84,-97.99C798.8,-107.06 810.31,-115.5 840.38,-115.5 856.82,-115.5 867.71,-112.97 873.06,-109.2"/>
<polygon fill="#63b8ff" stroke="#63b8ff" points="876.49,-109.92 874.66,-99.48 869.58,-108.78 876.49,-109.92"/>
</a>
</g>
</g>
<!-- Node31&#45;&gt;Node31 -->
<g id="edge42_Node000031_Node000031" class="edge">
<title>Node31&#45;&gt;Node31</title>
<g id="a_edge42_Node000031_Node000031"><a xlink:title=" ">
<path fill="none" stroke="#63b8ff" d="M805.84,-30.99C798.8,-40.06 810.31,-48.5 840.38,-48.5 856.82,-48.5 867.71,-45.97 873.06,-42.2"/>
<polygon fill="#63b8ff" stroke="#63b8ff" points="876.49,-42.92 874.66,-32.48 869.58,-41.78 876.49,-42.92"/>
</a>
</g>
</g>
</g>
</svg>

<g id="navigator" transform="translate(0 0)" fill="#404254">
  <rect fill="#f2f5e9" fill-opacity="0.5" stroke="#606060" stroke-width=".5" x="0" y="0" width="60" height="60"/>
  <use id="zoomplus" xlink:href="#zoomPlus" x="17" y="9" onmousedown="handleZoom(evt,'in')"/>
  <use id="zoomminus" xlink:href="#zoomMin" x="42" y="9" onmousedown="handleZoom(evt,'out')"/>
  <use id="reset" xlink:href="#resetDef" x="30" y="36" onmousedown="handleReset()"/>
   <use id="arrowup" xlink:href="#arrowUp" x="0" y="0" onmousedown="handlePan(0,-1)"/>
  <use id="arrowright" xlink:href="#arrowRight" x="0" y="0" onmousedown="handlePan(1,0)"/>
  <use id="arrowdown" xlink:href="#arrowDown" x="0" y="0" onmousedown="handlePan(0,1)"/>
  <use id="arrowleft" xlink:href="#arrowLeft" x="0" y="0" onmousedown="handlePan(-1,0)"/>
</g>
<svg viewBox="0 0 15 15" width="100%" height="30px" preserveAspectRatio="xMaxYMin meet">
 <g id="arrow_out" transform="scale(0.3 0.3)">
  <a xlink:href="group__mynn__sfc_gacc51d950a2377e011c8f110ff091c4d4_gacc51d950a2377e011c8f110ff091c4d4_cgraph_org.svg" target="_base">
   <rect id="button" ry="5" rx="5" y="6" x="6" height="38" width="38"
        fill="#f2f5e9" fill-opacity="0.5" stroke="#606060" stroke-width="1.0"/>
   <path id="arrow"
     d="M 11.500037,31.436501 C 11.940474,20.09759 22.043105,11.32322 32.158766,21.979434 L 37.068811,17.246167 C 37.068811,17.246167 37.088388,32 37.088388,32 L 22.160133,31.978069 C 22.160133,31.978069 26.997745,27.140456 26.997745,27.140456 C 18.528582,18.264221 13.291696,25.230495 11.500037,31.436501 z"
     style="fill:#404040;"/>
  </a>
 </g>
</svg>

<style type='text/css'>
<![CDATA[
[data-mouse-over-selected='false'] { opacity: 0.7; }
[data-mouse-over-selected='true']  { opacity: 1.0; }
]]>
</style>
<script type="application/ecmascript"><![CDATA[
document.addEventListener('DOMContentLoaded', (event) => {
  highlightEdges();
  highlightAdjacentNodes();
});
]]></script>
</svg>
