<?xml version="1.0" encoding="UTF-8" standalone="no"?>
<!DOCTYPE svg PUBLIC "-//W3C//DTD SVG 1.1//EN"
 "http://www.w3.org/Graphics/SVG/1.1/DTD/svg11.dtd">
<!-- Generated by graphviz version 14.1.2 (20260124.0452)
 -->
<!-- Title: taugb03 Pages: 1 -->
<svg width="335pt" height="27pt"
 viewBox="0.00 0.00 335.00 27.00" xmlns="http://www.w3.org/2000/svg" xmlns:xlink="http://www.w3.org/1999/xlink">
<g id="graph0" class="graph" transform="scale(1 1) rotate(0) translate(4 23.25)">
<title>taugb03</title>
<!-- Node1 -->
<g id="Node000001" class="node">
<title>Node1</title>
<g id="a_Node000001"><a xlink:title="Band 3: 500&#45;630 cm&#45;1 (low key &#45; h2o,co2; low minor &#45; n2o); (high key &#45; h2o,co2; high minor &#45; n2o).">
<polygon fill="#999999" stroke="#666666" points="327,-19.25 276.5,-19.25 276.5,0 327,0 327,-19.25"/>
<text xml:space="preserve" text-anchor="middle" x="301.75" y="-5.75" font-family="Source Sans Pro" font-size="10.00">taugb03</text>
</a>
</g>
</g>
<!-- Node2 -->
<g id="Node000002" class="node">
<title>Node2</title>
<g id="a_Node000002"><a xlink:href="group__module__radlw__main_ga7a5cbc99583212a0bd0d5f7b87ab1769.html#ga7a5cbc99583212a0bd0d5f7b87ab1769" target="_top" xlink:title="This subroutine contains optical depths developed for the rapid radiative transfer model.">
<polygon fill="white" stroke="#666666" points="240.5,-19.25 151.75,-19.25 151.75,0 240.5,0 240.5,-19.25"/>
<text xml:space="preserve" text-anchor="middle" x="196.12" y="-5.75" font-family="Source Sans Pro" font-size="10.00">rrtmg_lw::taumol</text>
</a>
</g>
</g>
<!-- Node1&#45;&gt;Node2 -->
<g id="edge1_Node000001_Node000002" class="edge">
<title>Node1&#45;&gt;Node2</title>
<g id="a_edge1_Node000001_Node000002"><a xlink:title=" ">
<path fill="none" stroke="#63b8ff" d="M264.69,-9.62C257.04,-9.62 248.88,-9.62 240.98,-9.62"/>
<polygon fill="#63b8ff" stroke="#63b8ff" points="264.68,-13.13 274.68,-9.63 264.68,-6.13 264.68,-13.13"/>
</a>
</g>
</g>
<!-- Node3 -->
<g id="Node000003" class="node">
<title>Node3</title>
<g id="a_Node000003"><a xlink:href="group__module__radlw__main_gaeb3fc1ab18633529cb7c6446e2cc2df9.html#gaeb3fc1ab18633529cb7c6446e2cc2df9" target="_top" xlink:title=" ">
<polygon fill="white" stroke="#666666" points="115.75,-19.25 0,-19.25 0,0 115.75,0 115.75,-19.25"/>
<text xml:space="preserve" text-anchor="middle" x="57.88" y="-5.75" font-family="Source Sans Pro" font-size="10.00">rrtmg_lw::rrtmg_lw_run</text>
</a>
</g>
</g>
<!-- Node2&#45;&gt;Node3 -->
<g id="edge2_Node000002_Node000003" class="edge">
<title>Node2&#45;&gt;Node3</title>
<g id="a_edge2_Node000002_Node000003"><a xlink:title=" ">
<path fill="none" stroke="#63b8ff" d="M139.96,-9.62C132.1,-9.62 123.99,-9.62 116.09,-9.62"/>
<polygon fill="#63b8ff" stroke="#63b8ff" points="139.75,-13.13 149.75,-9.63 139.75,-6.13 139.75,-13.13"/>
</a>
</g>
</g>
</g>
</svg>
