<?xml version="1.0" encoding="UTF-8" standalone="no"?>
<!DOCTYPE svg PUBLIC "-//W3C//DTD SVG 1.1//EN"
 "http://www.w3.org/Graphics/SVG/1.1/DTD/svg11.dtd">
<!-- Generated by graphviz version 14.1.2 (20260124.0452)
 -->
<!-- Title: module_mp_thompson::thompson_init Pages: 1 -->
<!--zoomable 408 -->

<svg id="main" version="1.1" xmlns="http://www.w3.org/2000/svg" xmlns:xlink="http://www.w3.org/1999/xlink" xml:space="preserve" onload="init(evt)">

<style type="text/css"><![CDATA[
.node, .edge {opacity: 0.7;}
.node.selected, .edge.selected {opacity: 1;}
.edge:hover path { stroke: red; }
.edge:hover polygon { stroke: red; fill: red; }
]]></style>

<defs>
  <circle id="rim" cx="0" cy="0" r="7"/>
  <circle id="rim2" cx="0" cy="0" r="3.5"/>
  <g id="zoomPlus">
    <use xlink:href="#rim" fill="#404040"><set attributeName="fill" to="#808080" begin="zoomplus.mouseover" end="zoomplus.mouseout"/></use>
    <path d="M-4,0h8M0,-4v8" fill="none" stroke="white" stroke-width="1.5" pointer-events="none"/>
  </g>
  <g id="zoomMin">
    <use xlink:href="#rim" fill="#404040"><set attributeName="fill" to="#808080" begin="zoomminus.mouseover" end="zoomminus.mouseout"/></use>
    <path d="M-4,0h8" fill="none" stroke="white" stroke-width="1.5" pointer-events="none"/>
  </g>
  <g id="arrowUp" transform="translate(30 24)">
    <use xlink:href="#rim"/>
    <path pointer-events="none" fill="none" stroke="white" stroke-width="1.5" d="M0,-3.0v7 M-2.5,-0.5L0,-3.0L2.5,-0.5"/>
  </g>
  <g id="arrowRight" transform="rotate(90) translate(36 -43)">
    <use xlink:href="#rim"/>
    <path pointer-events="none" fill="none" stroke="white" stroke-width="1.5" d="M0,-3.0v7 M-2.5,-0.5L0,-3.0L2.5,-0.5"/>
  </g>
  <g id="arrowDown" transform="rotate(180) translate(-30 -48)">
    <use xlink:href="#rim"/>
    <path pointer-events="none" fill="none" stroke="white" stroke-width="1.5" d="M0,-3.0v7 M-2.5,-0.5L0,-3.0L2.5,-0.5"/>
  </g>
  <g id="arrowLeft" transform="rotate(270) translate(-36 17)">
    <use xlink:href="#rim"/>
    <path pointer-events="none" fill="none" stroke="white" stroke-width="1.5" d="M0,-3.0v7 M-2.5,-0.5L0,-3.0L2.5,-0.5"/>
  </g>
  <g id="resetDef">
    <use xlink:href="#rim2" fill="#404040"><set attributeName="fill" to="#808080" begin="reset.mouseover" end="reset.mouseout"/></use>
  </g>
</defs>
<script type="application/ecmascript">
var viewWidth = 743;
var viewHeight = 408;
var sectionId = 'dynsection-0';
</script>
<script type="application/ecmascript" xlink:href="svg.min.js"/>
<svg id="graph" class="graph">
<g id="viewport">
<title>module_mp_thompson::thompson_init</title>
<!-- Node1 -->
<g id="Node000001" class="node">
<title>Node1</title>
<g id="a_Node000001"><a xlink:title="This subroutine calculates simplified cloud species equations and create lookup tables in Thomspson s...">
<polygon fill="#999999" stroke="#666666" points="114.25,-204.22 0,-204.22 0,-173.72 114.25,-173.72 114.25,-204.22"/>
<text xml:space="preserve" text-anchor="start" x="8" y="-190.72" font-family="Source Sans Pro" font-size="10.00">module_mp_thompson</text>
<text xml:space="preserve" text-anchor="middle" x="57.12" y="-179.47" font-family="Source Sans Pro" font-size="10.00">::thompson_init</text>
</a>
</g>
</g>
<!-- Node2 -->
<g id="Node000002" class="node">
<title>Node2</title>
<g id="a_Node000002"><a xlink:href="group__aathompson_ga34268e7843bcf03d55653da295c51c0c.html#ga34268e7843bcf03d55653da295c51c0c" target="_top" xlink:title="This is a literal adaptation of Bigg (1954) probability of drops of a particular volume freezing....">
<polygon fill="white" stroke="#666666" points="264.5,-400.22 150.25,-400.22 150.25,-369.72 264.5,-369.72 264.5,-400.22"/>
<text xml:space="preserve" text-anchor="start" x="158.25" y="-386.72" font-family="Source Sans Pro" font-size="10.00">module_mp_thompson</text>
<text xml:space="preserve" text-anchor="middle" x="207.38" y="-375.47" font-family="Source Sans Pro" font-size="10.00">::freezeh2o</text>
</a>
</g>
</g>
<!-- Node1&#45;&gt;Node2 -->
<g id="edge1_Node000001_Node000002" class="edge">
<title>Node1&#45;&gt;Node2</title>
<g id="a_edge1_Node000001_Node000002"><a xlink:title=" ">
<path fill="none" stroke="#63b8ff" d="M62.63,-204.33C72.96,-237.1 101.3,-314.56 150.25,-359.97 151.45,-361.08 152.7,-362.15 154,-363.17"/>
<polygon fill="#63b8ff" stroke="#63b8ff" points="151.65,-365.8 161.89,-368.49 155.56,-360 151.65,-365.8"/>
</a>
</g>
</g>
<!-- Node3 -->
<g id="Node000003" class="node">
<title>Node3</title>
<g id="a_Node000003"><a xlink:href="group__aathompson_ga38c4bc57c8dd450c76cc65b1991cf23d.html#ga38c4bc57c8dd450c76cc65b1991cf23d" target="_top" xlink:title="Cloud ice converting to snow since portion greater than min snow size. Given cloud ice content (kg/m*...">
<polygon fill="white" stroke="#666666" points="264.5,-351.22 150.25,-351.22 150.25,-320.72 264.5,-320.72 264.5,-351.22"/>
<text xml:space="preserve" text-anchor="start" x="158.25" y="-337.72" font-family="Source Sans Pro" font-size="10.00">module_mp_thompson</text>
<text xml:space="preserve" text-anchor="middle" x="207.38" y="-326.47" font-family="Source Sans Pro" font-size="10.00">::qi_aut_qs</text>
</a>
</g>
</g>
<!-- Node1&#45;&gt;Node3 -->
<g id="edge2_Node000001_Node000003" class="edge">
<title>Node1&#45;&gt;Node3</title>
<g id="a_edge2_Node000001_Node000003"><a xlink:title=" ">
<path fill="none" stroke="#63b8ff" d="M66.35,-204.46C80.48,-229.77 111.6,-280.26 150.25,-310.97 151.77,-312.18 153.36,-313.34 155,-314.46"/>
<polygon fill="#63b8ff" stroke="#63b8ff" points="153.15,-317.43 163.52,-319.6 156.76,-311.44 153.15,-317.43"/>
</a>
</g>
</g>
<!-- Node8 -->
<g id="Node000008" class="node">
<title>Node8</title>
<g id="a_Node000008"><a xlink:href="group__aathompson_gac898e25fc9f98509e6110b13be2a0f47.html#gac898e25fc9f98509e6110b13be2a0f47" target="_top" xlink:title="Rain collecting graupel (and inverse). Explicit CE integration.">
<polygon fill="white" stroke="#666666" points="264.5,-302.22 150.25,-302.22 150.25,-271.72 264.5,-271.72 264.5,-302.22"/>
<text xml:space="preserve" text-anchor="start" x="158.25" y="-288.72" font-family="Source Sans Pro" font-size="10.00">module_mp_thompson</text>
<text xml:space="preserve" text-anchor="middle" x="207.38" y="-277.47" font-family="Source Sans Pro" font-size="10.00">::qr_acr_qg</text>
</a>
</g>
</g>
<!-- Node1&#45;&gt;Node8 -->
<g id="edge10_Node000001_Node000008" class="edge">
<title>Node1&#45;&gt;Node8</title>
<g id="a_edge10_Node000001_Node000008"><a xlink:title=" ">
<path fill="none" stroke="#63b8ff" d="M75.16,-204.64C92.96,-220.47 122.15,-244.95 150.25,-261.97 152.65,-263.42 155.14,-264.84 157.69,-266.21"/>
<polygon fill="#63b8ff" stroke="#63b8ff" points="155.83,-269.19 166.33,-270.59 158.99,-262.95 155.83,-269.19"/>
</a>
</g>
</g>
<!-- Node9 -->
<g id="Node000009" class="node">
<title>Node9</title>
<g id="a_Node000009"><a xlink:href="group__aathompson_gabcd924082fb7889d94345fcd108bc7ae.html#gabcd924082fb7889d94345fcd108bc7ae" target="_top" xlink:title="Rain collecting snow (and inverse). Explicit CE integration.">
<polygon fill="white" stroke="#666666" points="264.5,-253.22 150.25,-253.22 150.25,-222.72 264.5,-222.72 264.5,-253.22"/>
<text xml:space="preserve" text-anchor="start" x="158.25" y="-239.72" font-family="Source Sans Pro" font-size="10.00">module_mp_thompson</text>
<text xml:space="preserve" text-anchor="middle" x="207.38" y="-228.47" font-family="Source Sans Pro" font-size="10.00">::qr_acr_qs</text>
</a>
</g>
</g>
<!-- Node1&#45;&gt;Node9 -->
<g id="edge11_Node000001_Node000009" class="edge">
<title>Node1&#45;&gt;Node9</title>
<g id="a_edge11_Node000001_Node000009"><a xlink:title=" ">
<path fill="none" stroke="#63b8ff" d="M105.44,-204.61C119.01,-209.1 133.97,-214.04 148.12,-218.72"/>
<polygon fill="#63b8ff" stroke="#63b8ff" points="146.72,-221.94 157.31,-221.75 148.91,-215.29 146.72,-221.94"/>
</a>
</g>
</g>
<!-- Node10 -->
<g id="Node000010" class="node">
<title>Node10</title>
<g id="a_Node000010"><a xlink:href="group__aathompson_ga895d527bfbacc127a0fc6248f392b782.html#ga895d527bfbacc127a0fc6248f392b782" target="_top" xlink:title="Fill the table of CCN activation data created from parcel model run by Trude Eidhammer with inputs of...">
<polygon fill="white" stroke="#666666" points="264.5,-204.22 150.25,-204.22 150.25,-173.72 264.5,-173.72 264.5,-204.22"/>
<text xml:space="preserve" text-anchor="start" x="158.25" y="-190.72" font-family="Source Sans Pro" font-size="10.00">module_mp_thompson</text>
<text xml:space="preserve" text-anchor="middle" x="207.38" y="-179.47" font-family="Source Sans Pro" font-size="10.00">::table_ccnact</text>
</a>
</g>
</g>
<!-- Node1&#45;&gt;Node10 -->
<g id="edge12_Node000001_Node000010" class="edge">
<title>Node1&#45;&gt;Node10</title>
<g id="a_edge12_Node000001_Node000010"><a xlink:title=" ">
<path fill="none" stroke="#63b8ff" d="M114.59,-188.97C122.49,-188.97 130.67,-188.97 138.75,-188.97"/>
<polygon fill="#63b8ff" stroke="#63b8ff" points="138.55,-192.47 148.55,-188.97 138.55,-185.47 138.55,-192.47"/>
</a>
</g>
</g>
<!-- Node11 -->
<g id="Node000011" class="node">
<title>Node11</title>
<g id="a_Node000011"><a xlink:href="group__aathompson_gac5a7433b5bd00387f9fd1e9aa9356dc4.html#gac5a7433b5bd00387f9fd1e9aa9356dc4" target="_top" xlink:title="Integrate rain size distribution from zero to D&#45;star to compute the number of drops smaller than D&#45;st...">
<polygon fill="white" stroke="#666666" points="264.5,-155.22 150.25,-155.22 150.25,-124.72 264.5,-124.72 264.5,-155.22"/>
<text xml:space="preserve" text-anchor="start" x="158.25" y="-141.72" font-family="Source Sans Pro" font-size="10.00">module_mp_thompson</text>
<text xml:space="preserve" text-anchor="middle" x="207.38" y="-130.47" font-family="Source Sans Pro" font-size="10.00">::table_dropevap</text>
</a>
</g>
</g>
<!-- Node1&#45;&gt;Node11 -->
<g id="edge13_Node000001_Node000011" class="edge">
<title>Node1&#45;&gt;Node11</title>
<g id="a_edge13_Node000001_Node000011"><a xlink:title=" ">
<path fill="none" stroke="#63b8ff" d="M105.44,-173.33C119.01,-168.85 133.97,-163.9 148.12,-159.23"/>
<polygon fill="#63b8ff" stroke="#63b8ff" points="148.91,-162.65 157.31,-156.19 146.72,-156 148.91,-162.65"/>
</a>
</g>
</g>
<!-- Node12 -->
<g id="Node000012" class="node">
<title>Node12</title>
<g id="a_Node000012"><a xlink:href="group__aathompson_gaafc69c30a2dad10d06a05f1b7239926c.html#gaafc69c30a2dad10d06a05f1b7239926c" target="_top" xlink:title="Variable collision efficiency for rain collecting cloud water using method of Beard and Grover,...">
<polygon fill="white" stroke="#666666" points="264.5,-106.22 150.25,-106.22 150.25,-75.72 264.5,-75.72 264.5,-106.22"/>
<text xml:space="preserve" text-anchor="start" x="158.25" y="-92.72" font-family="Source Sans Pro" font-size="10.00">module_mp_thompson</text>
<text xml:space="preserve" text-anchor="middle" x="207.38" y="-81.47" font-family="Source Sans Pro" font-size="10.00">::table_efrw</text>
</a>
</g>
</g>
<!-- Node1&#45;&gt;Node12 -->
<g id="edge14_Node000001_Node000012" class="edge">
<title>Node1&#45;&gt;Node12</title>
<g id="a_edge14_Node000001_Node000012"><a xlink:title=" ">
<path fill="none" stroke="#63b8ff" d="M75.16,-173.3C92.96,-157.48 122.15,-132.99 150.25,-115.97 152.65,-114.52 155.14,-113.1 157.69,-111.73"/>
<polygon fill="#63b8ff" stroke="#63b8ff" points="158.99,-114.99 166.33,-107.35 155.83,-108.75 158.99,-114.99"/>
</a>
</g>
</g>
<!-- Node13 -->
<g id="Node000013" class="node">
<title>Node13</title>
<g id="a_Node000013"><a xlink:href="group__aathompson_gab74dffc6baa178d41426700bfd1a08c6.html#gab74dffc6baa178d41426700bfd1a08c6" target="_top" xlink:title="Variable collision efficiency for snow collecting cloud water using method of Wang and Ji,...">
<polygon fill="white" stroke="#666666" points="264.5,-57.22 150.25,-57.22 150.25,-26.72 264.5,-26.72 264.5,-57.22"/>
<text xml:space="preserve" text-anchor="start" x="158.25" y="-43.72" font-family="Source Sans Pro" font-size="10.00">module_mp_thompson</text>
<text xml:space="preserve" text-anchor="middle" x="207.38" y="-32.47" font-family="Source Sans Pro" font-size="10.00">::table_efsw</text>
</a>
</g>
</g>
<!-- Node1&#45;&gt;Node13 -->
<g id="edge15_Node000001_Node000013" class="edge">
<title>Node1&#45;&gt;Node13</title>
<g id="a_edge15_Node000001_Node000013"><a xlink:title=" ">
<path fill="none" stroke="#63b8ff" d="M66.35,-173.48C80.48,-148.17 111.6,-97.69 150.25,-66.97 151.77,-65.76 153.36,-64.6 155,-63.48"/>
<polygon fill="#63b8ff" stroke="#63b8ff" points="156.76,-66.5 163.52,-58.35 153.15,-60.51 156.76,-66.5"/>
</a>
</g>
</g>
<!-- Node14 -->
<g id="Node000014" class="node">
<title>Node14</title>
<g id="a_Node000014"><a xlink:href="group__aathompson_ga8a455cb4e751f42fa53a31bb47649767.html#ga8a455cb4e751f42fa53a31bb47649767" target="_top" xlink:title=" ">
<polygon fill="white" stroke="#666666" points="414.75,-139.22 300.5,-139.22 300.5,-108.72 414.75,-108.72 414.75,-139.22"/>
<text xml:space="preserve" text-anchor="start" x="308.5" y="-125.72" font-family="Source Sans Pro" font-size="10.00">module_mp_thompson</text>
<text xml:space="preserve" text-anchor="middle" x="357.62" y="-114.47" font-family="Source Sans Pro" font-size="10.00">::wgamma</text>
</a>
</g>
</g>
<!-- Node1&#45;&gt;Node14 -->
<g id="edge16_Node000001_Node000014" class="edge">
<title>Node1&#45;&gt;Node14</title>
<g id="a_edge16_Node000001_Node000014"><a xlink:title=" ">
<path fill="none" stroke="#63b8ff" d="M61.05,-173.23C68.57,-137.89 92.2,-52.63 150.25,-17.97 193.85,8.06 218.3,3.09 264.5,-17.97 300.57,-34.41 327.99,-72.73 343.19,-98.5"/>
<polygon fill="#63b8ff" stroke="#63b8ff" points="340.05,-100.06 348.02,-107.03 346.14,-96.61 340.05,-100.06"/>
</a>
</g>
</g>
<!-- Node4 -->
<g id="Node000004" class="node">
<title>Node4</title>
<g id="a_Node000004"><a xlink:href="group__aathompson_ga5126f9b7d52cd4d3e7b072907abb4257.html#ga5126f9b7d52cd4d3e7b072907abb4257" target="_top" xlink:title=" ">
<polygon fill="white" stroke="#666666" points="414.75,-319.22 300.5,-319.22 300.5,-288.72 414.75,-288.72 414.75,-319.22"/>
<text xml:space="preserve" text-anchor="start" x="308.5" y="-305.72" font-family="Source Sans Pro" font-size="10.00">module_mp_thompson</text>
<text xml:space="preserve" text-anchor="middle" x="357.62" y="-294.47" font-family="Source Sans Pro" font-size="10.00">::gammp</text>
</a>
</g>
</g>
<!-- Node3&#45;&gt;Node4 -->
<g id="edge3_Node000003_Node000004" class="edge">
<title>Node3&#45;&gt;Node4</title>
<g id="a_edge3_Node000003_Node000004"><a xlink:title=" ">
<path fill="none" stroke="#63b8ff" d="M264.84,-323.78C272.83,-322.06 281.11,-320.27 289.28,-318.51"/>
<polygon fill="#63b8ff" stroke="#63b8ff" points="289.8,-321.98 298.83,-316.45 288.32,-315.13 289.8,-321.98"/>
</a>
</g>
</g>
<!-- Node4&#45;&gt;Node4 -->
<g id="edge4_Node000004_Node000004" class="edge">
<title>Node4&#45;&gt;Node4</title>
<g id="a_edge4_Node000004_Node000004"><a xlink:title=" ">
<path fill="none" stroke="#63b8ff" d="M331,-319.71C325.57,-328.78 334.44,-337.22 357.62,-337.22 370.3,-337.22 378.7,-334.7 382.82,-330.92"/>
<polygon fill="#63b8ff" stroke="#63b8ff" points="386.27,-331.57 384.06,-321.21 379.32,-330.69 386.27,-331.57"/>
</a>
</g>
</g>
<!-- Node5 -->
<g id="Node000005" class="node">
<title>Node5</title>
<g id="a_Node000005"><a xlink:href="group__aathompson_ga409e17891d433b3214f570828a824255.html#ga409e17891d433b3214f570828a824255" target="_top" xlink:title="Returns the incomplete gamma function q(a,x) evaluated by its continued fraction representation as ga...">
<polygon fill="white" stroke="#666666" points="584.5,-313.6 450.75,-313.6 450.75,-294.35 584.5,-294.35 584.5,-313.6"/>
<text xml:space="preserve" text-anchor="middle" x="517.62" y="-300.1" font-family="Source Sans Pro" font-size="10.00">module_mp_thompson::gcf</text>
</a>
</g>
</g>
<!-- Node4&#45;&gt;Node5 -->
<g id="edge5_Node000004_Node000005" class="edge">
<title>Node4&#45;&gt;Node5</title>
<g id="a_edge5_Node000004_Node000005"><a xlink:title=" ">
<path fill="none" stroke="#63b8ff" d="M415.22,-303.97C422.98,-303.97 431.06,-303.97 439.12,-303.97"/>
<polygon fill="#63b8ff" stroke="#63b8ff" points="438.95,-307.47 448.95,-303.97 438.95,-300.47 438.95,-307.47"/>
</a>
</g>
</g>
<!-- Node7 -->
<g id="Node000007" class="node">
<title>Node7</title>
<g id="a_Node000007"><a xlink:href="group__aathompson_ga28690a3c274459f6eb11ab59d0ae5a44.html#ga28690a3c274459f6eb11ab59d0ae5a44" target="_top" xlink:title="Returns the incomplete gamma function p(a,x) evaluated by its series representation as gamser.">
<polygon fill="white" stroke="#666666" points="574.75,-276.22 460.5,-276.22 460.5,-245.72 574.75,-245.72 574.75,-276.22"/>
<text xml:space="preserve" text-anchor="start" x="468.5" y="-262.72" font-family="Source Sans Pro" font-size="10.00">module_mp_thompson</text>
<text xml:space="preserve" text-anchor="middle" x="517.62" y="-251.47" font-family="Source Sans Pro" font-size="10.00">::gser</text>
</a>
</g>
</g>
<!-- Node4&#45;&gt;Node7 -->
<g id="edge8_Node000004_Node000007" class="edge">
<title>Node4&#45;&gt;Node7</title>
<g id="a_edge8_Node000004_Node000007"><a xlink:title=" ">
<path fill="none" stroke="#63b8ff" d="M415.22,-288.57C426.29,-285.55 438,-282.37 449.38,-279.27"/>
<polygon fill="#63b8ff" stroke="#63b8ff" points="449.97,-282.74 458.7,-276.74 448.13,-275.98 449.97,-282.74"/>
</a>
</g>
</g>
<!-- Node6 -->
<g id="Node000006" class="node">
<title>Node6</title>
<g id="a_Node000006"><a xlink:href="group__aathompson_gad2946a6deeab8b049fcd554d930f35c9.html#gad2946a6deeab8b049fcd554d930f35c9" target="_top" xlink:title="Returns the value ln(gamma(xx)) for xx &gt; 0.">
<polygon fill="white" stroke="#666666" points="734.75,-276.22 620.5,-276.22 620.5,-245.72 734.75,-245.72 734.75,-276.22"/>
<text xml:space="preserve" text-anchor="start" x="628.5" y="-262.72" font-family="Source Sans Pro" font-size="10.00">module_mp_thompson</text>
<text xml:space="preserve" text-anchor="middle" x="677.62" y="-251.47" font-family="Source Sans Pro" font-size="10.00">::gammln</text>
</a>
</g>
</g>
<!-- Node5&#45;&gt;Node6 -->
<g id="edge6_Node000005_Node000006" class="edge">
<title>Node5&#45;&gt;Node6</title>
<g id="a_edge6_Node000005_Node000006"><a xlink:title=" ">
<path fill="none" stroke="#63b8ff" d="M555.67,-293.89C571.61,-289.55 590.75,-284.34 609.06,-279.36"/>
<polygon fill="#63b8ff" stroke="#63b8ff" points="609.82,-282.78 618.55,-276.78 607.99,-276.02 609.82,-282.78"/>
</a>
</g>
</g>
<!-- Node6&#45;&gt;Node6 -->
<g id="edge7_Node000006_Node000006" class="edge">
<title>Node6&#45;&gt;Node6</title>
<g id="a_edge7_Node000006_Node000006"><a xlink:title=" ">
<path fill="none" stroke="#63b8ff" d="M649.27,-276.71C643.49,-285.78 652.94,-294.22 677.62,-294.22 691.13,-294.22 700.07,-291.7 704.46,-287.92"/>
<polygon fill="#63b8ff" stroke="#63b8ff" points="707.9,-288.59 705.77,-278.21 700.96,-287.65 707.9,-288.59"/>
</a>
</g>
</g>
<!-- Node7&#45;&gt;Node6 -->
<g id="edge9_Node000007_Node000006" class="edge">
<title>Node7&#45;&gt;Node6</title>
<g id="a_edge9_Node000007_Node000006"><a xlink:title=" ">
<path fill="none" stroke="#63b8ff" d="M575.22,-260.97C586.06,-260.97 597.52,-260.97 608.68,-260.97"/>
<polygon fill="#63b8ff" stroke="#63b8ff" points="608.65,-264.47 618.65,-260.97 608.65,-257.47 608.65,-264.47"/>
</a>
</g>
</g>
<!-- Node14&#45;&gt;Node6 -->
<g id="edge17_Node000014_Node000006" class="edge">
<title>Node14&#45;&gt;Node6</title>
<g id="a_edge17_Node000014_Node000006"><a xlink:title=" ">
<path fill="none" stroke="#63b8ff" d="M395.1,-139.69C453.06,-164.65 566.11,-213.36 629.9,-240.84"/>
<polygon fill="#63b8ff" stroke="#63b8ff" points="628.12,-243.89 638.69,-244.63 630.89,-237.46 628.12,-243.89"/>
</a>
</g>
</g>
<!-- Node14&#45;&gt;Node14 -->
<g id="edge18_Node000014_Node000014" class="edge">
<title>Node14&#45;&gt;Node14</title>
<g id="a_edge18_Node000014_Node000014"><a xlink:title=" ">
<path fill="none" stroke="#63b8ff" d="M331,-139.71C325.57,-148.78 334.44,-157.22 357.62,-157.22 370.3,-157.22 378.7,-154.7 382.82,-150.92"/>
<polygon fill="#63b8ff" stroke="#63b8ff" points="386.27,-151.57 384.06,-141.21 379.32,-150.69 386.27,-151.57"/>
</a>
</g>
</g>
</g>
</svg>

<g id="navigator" transform="translate(0 0)" fill="#404254">
  <rect fill="#f2f5e9" fill-opacity="0.5" stroke="#606060" stroke-width=".5" x="0" y="0" width="60" height="60"/>
  <use id="zoomplus" xlink:href="#zoomPlus" x="17" y="9" onmousedown="handleZoom(evt,'in')"/>
  <use id="zoomminus" xlink:href="#zoomMin" x="42" y="9" onmousedown="handleZoom(evt,'out')"/>
  <use id="reset" xlink:href="#resetDef" x="30" y="36" onmousedown="handleReset()"/>
   <use id="arrowup" xlink:href="#arrowUp" x="0" y="0" onmousedown="handlePan(0,-1)"/>
  <use id="arrowright" xlink:href="#arrowRight" x="0" y="0" onmousedown="handlePan(1,0)"/>
  <use id="arrowdown" xlink:href="#arrowDown" x="0" y="0" onmousedown="handlePan(0,1)"/>
  <use id="arrowleft" xlink:href="#arrowLeft" x="0" y="0" onmousedown="handlePan(-1,0)"/>
</g>
<svg viewBox="0 0 15 15" width="100%" height="30px" preserveAspectRatio="xMaxYMin meet">
 <g id="arrow_out" transform="scale(0.3 0.3)">
  <a xlink:href="group__aathompson_ga913721b93920f568db16540ff0dac1e9_ga913721b93920f568db16540ff0dac1e9_cgraph_org.svg" target="_base">
   <rect id="button" ry="5" rx="5" y="6" x="6" height="38" width="38"
        fill="#f2f5e9" fill-opacity="0.5" stroke="#606060" stroke-width="1.0"/>
   <path id="arrow"
     d="M 11.500037,31.436501 C 11.940474,20.09759 22.043105,11.32322 32.158766,21.979434 L 37.068811,17.246167 C 37.068811,17.246167 37.088388,32 37.088388,32 L 22.160133,31.978069 C 22.160133,31.978069 26.997745,27.140456 26.997745,27.140456 C 18.528582,18.264221 13.291696,25.230495 11.500037,31.436501 z"
     style="fill:#404040;"/>
  </a>
 </g>
</svg>

<style type='text/css'>
<![CDATA[
[data-mouse-over-selected='false'] { opacity: 0.7; }
[data-mouse-over-selected='true']  { opacity: 1.0; }
]]>
</style>
<script type="application/ecmascript"><![CDATA[
document.addEventListener('DOMContentLoaded', (event) => {
  highlightEdges();
  highlightAdjacentNodes();
});
]]></script>
</svg>
