<?xml version="1.0" encoding="UTF-8" standalone="no"?>
<!DOCTYPE svg PUBLIC "-//W3C//DTD SVG 1.1//EN"
 "http://www.w3.org/Graphics/SVG/1.1/DTD/svg11.dtd">
<!-- Generated by graphviz version 14.1.2 (20260124.0452)
 -->
<!-- Title: module_bl_mynn::tridiag2 Pages: 1 -->
<svg width="635pt" height="88pt"
 viewBox="0.00 0.00 635.00 88.00" xmlns="http://www.w3.org/2000/svg" xmlns:xlink="http://www.w3.org/1999/xlink">
<g id="graph0" class="graph" transform="scale(1 1) rotate(0) translate(4 83.5)">
<title>module_bl_mynn::tridiag2</title>
<!-- Node1 -->
<g id="Node000001" class="node">
<title>Node1</title>
<g id="a_Node000001"><a xlink:title=" ">
<polygon fill="#999999" stroke="#666666" points="627.25,-48.88 500.25,-48.88 500.25,-29.62 627.25,-29.62 627.25,-48.88"/>
<text xml:space="preserve" text-anchor="middle" x="563.75" y="-35.38" font-family="Source Sans Pro" font-size="10.00">module_bl_mynn::tridiag2</text>
</a>
</g>
</g>
<!-- Node2 -->
<g id="Node000002" class="node">
<title>Node2</title>
<g id="a_Node000002"><a xlink:href="group__gp__mynnedmf_gaf3104a808121c8c051204a21f55957cc.html#gaf3104a808121c8c051204a21f55957cc" target="_top" xlink:title="This subroutine predicts the turbulent quantities at the next step.">
<polygon fill="white" stroke="#666666" points="463.12,-79.5 345.88,-79.5 345.88,-49 463.12,-49 463.12,-79.5"/>
<text xml:space="preserve" text-anchor="start" x="353.88" y="-66" font-family="Source Sans Pro" font-size="10.00">module_bl_mynn::mym</text>
<text xml:space="preserve" text-anchor="middle" x="404.5" y="-54.75" font-family="Source Sans Pro" font-size="10.00">_predict</text>
</a>
</g>
</g>
<!-- Node1&#45;&gt;Node2 -->
<g id="edge1_Node000001_Node000002" class="edge">
<title>Node1&#45;&gt;Node2</title>
<g id="a_edge1_Node000001_Node000002"><a xlink:title=" ">
<path fill="none" stroke="#63b8ff" d="M489,-50.98C480.46,-52.33 471.84,-53.7 463.55,-55.02"/>
<polygon fill="#63b8ff" stroke="#63b8ff" points="489.33,-54.47 498.65,-49.44 488.23,-47.55 489.33,-54.47"/>
</a>
</g>
</g>
<!-- Node5 -->
<g id="Node000005" class="node">
<title>Node5</title>
<g id="a_Node000005"><a xlink:href="group__gp__mynnedmf_gabd440b7b99df6a4736c2118fd96e3fd1.html#gabd440b7b99df6a4736c2118fd96e3fd1" target="_top" xlink:title="This subroutine solves for tendencies of U, V, , qv, qc, and qi.">
<polygon fill="white" stroke="#666666" points="464.25,-30.5 344.75,-30.5 344.75,0 464.25,0 464.25,-30.5"/>
<text xml:space="preserve" text-anchor="start" x="352.75" y="-17" font-family="Source Sans Pro" font-size="10.00">module_bl_mynn::mynn</text>
<text xml:space="preserve" text-anchor="middle" x="404.5" y="-5.75" font-family="Source Sans Pro" font-size="10.00">_tendencies</text>
</a>
</g>
</g>
<!-- Node1&#45;&gt;Node5 -->
<g id="edge4_Node000001_Node000005" class="edge">
<title>Node1&#45;&gt;Node5</title>
<g id="a_edge4_Node000001_Node000005"><a xlink:title=" ">
<path fill="none" stroke="#63b8ff" d="M489.04,-28C480.83,-26.75 472.55,-25.48 464.56,-24.26"/>
<polygon fill="#63b8ff" stroke="#63b8ff" points="488.24,-31.42 498.65,-29.47 489.3,-24.5 488.24,-31.42"/>
</a>
</g>
</g>
<!-- Node3 -->
<g id="Node000003" class="node">
<title>Node3</title>
<g id="a_Node000003"><a xlink:href="group__gp__mynnedmf_ga727e10ec7e7a73d34a7f50dadbda2b83.html#ga727e10ec7e7a73d34a7f50dadbda2b83" target="_top" xlink:title="This subroutine is the MYNN&#45;EDNF PBL driver routine,which encompassed the majority of the subroutines...">
<polygon fill="white" stroke="#666666" points="308.75,-54.5 189.25,-54.5 189.25,-24 308.75,-24 308.75,-54.5"/>
<text xml:space="preserve" text-anchor="start" x="197.25" y="-41" font-family="Source Sans Pro" font-size="10.00">module_bl_mynn::mynn</text>
<text xml:space="preserve" text-anchor="middle" x="249" y="-29.75" font-family="Source Sans Pro" font-size="10.00">_bl_driver</text>
</a>
</g>
</g>
<!-- Node2&#45;&gt;Node3 -->
<g id="edge2_Node000002_Node000003" class="edge">
<title>Node2&#45;&gt;Node3</title>
<g id="a_edge2_Node000002_Node000003"><a xlink:title=" ">
<path fill="none" stroke="#63b8ff" d="M334.18,-52.96C325.81,-51.6 317.33,-50.22 309.13,-48.88"/>
<polygon fill="#63b8ff" stroke="#63b8ff" points="333.54,-56.4 343.97,-54.56 334.67,-49.49 333.54,-56.4"/>
</a>
</g>
</g>
<!-- Node4 -->
<g id="Node000004" class="node">
<title>Node4</title>
<g id="a_Node000004"><a xlink:href="namespacemynnedmf__wrapper_aa6a54f8cc283d97e9c1d299ce2be79d3.html#aa6a54f8cc283d97e9c1d299ce2be79d3" target="_top" xlink:title=" ">
<polygon fill="white" stroke="#666666" points="153.25,-54.5 0,-54.5 0,-24 153.25,-24 153.25,-54.5"/>
<text xml:space="preserve" text-anchor="start" x="8" y="-41" font-family="Source Sans Pro" font-size="10.00">mynnedmf_wrapper::mynnedmf</text>
<text xml:space="preserve" text-anchor="middle" x="76.62" y="-29.75" font-family="Source Sans Pro" font-size="10.00">_wrapper_run</text>
</a>
</g>
</g>
<!-- Node3&#45;&gt;Node4 -->
<g id="edge3_Node000003_Node000004" class="edge">
<title>Node3&#45;&gt;Node4</title>
<g id="a_edge3_Node000003_Node000004"><a xlink:title=" ">
<path fill="none" stroke="#63b8ff" d="M177.54,-39.25C169.68,-39.25 161.66,-39.25 153.74,-39.25"/>
<polygon fill="#63b8ff" stroke="#63b8ff" points="177.38,-42.75 187.38,-39.25 177.38,-35.75 177.38,-42.75"/>
</a>
</g>
</g>
<!-- Node5&#45;&gt;Node3 -->
<g id="edge5_Node000005_Node000003" class="edge">
<title>Node5&#45;&gt;Node3</title>
<g id="a_edge5_Node000005_Node000003"><a xlink:title=" ">
<path fill="none" stroke="#63b8ff" d="M333.24,-26.24C325.14,-27.5 316.94,-28.78 309,-30.02"/>
<polygon fill="#63b8ff" stroke="#63b8ff" points="333.76,-29.7 343.1,-24.69 332.68,-22.78 333.76,-29.7"/>
</a>
</g>
</g>
</g>
</svg>
