<?xml version="1.0" encoding="UTF-8" standalone="no"?>
<!DOCTYPE svg PUBLIC "-//W3C//DTD SVG 1.1//EN"
 "http://www.w3.org/Graphics/SVG/1.1/DTD/svg11.dtd">
<!-- Generated by graphviz version 14.1.2 (20260124.0452)
 -->
<!-- Title: module_mp_thompson::qi_aut_qs Pages: 1 -->
<!--zoomable 78 -->

<svg id="main" version="1.1" xmlns="http://www.w3.org/2000/svg" xmlns:xlink="http://www.w3.org/1999/xlink" xml:space="preserve" onload="init(evt)">

<style type="text/css"><![CDATA[
.node, .edge {opacity: 0.7;}
.node.selected, .edge.selected {opacity: 1;}
.edge:hover path { stroke: red; }
.edge:hover polygon { stroke: red; fill: red; }
]]></style>

<defs>
  <circle id="rim" cx="0" cy="0" r="7"/>
  <circle id="rim2" cx="0" cy="0" r="3.5"/>
  <g id="zoomPlus">
    <use xlink:href="#rim" fill="#404040"><set attributeName="fill" to="#808080" begin="zoomplus.mouseover" end="zoomplus.mouseout"/></use>
    <path d="M-4,0h8M0,-4v8" fill="none" stroke="white" stroke-width="1.5" pointer-events="none"/>
  </g>
  <g id="zoomMin">
    <use xlink:href="#rim" fill="#404040"><set attributeName="fill" to="#808080" begin="zoomminus.mouseover" end="zoomminus.mouseout"/></use>
    <path d="M-4,0h8" fill="none" stroke="white" stroke-width="1.5" pointer-events="none"/>
  </g>
  <g id="arrowUp" transform="translate(30 24)">
    <use xlink:href="#rim"/>
    <path pointer-events="none" fill="none" stroke="white" stroke-width="1.5" d="M0,-3.0v7 M-2.5,-0.5L0,-3.0L2.5,-0.5"/>
  </g>
  <g id="arrowRight" transform="rotate(90) translate(36 -43)">
    <use xlink:href="#rim"/>
    <path pointer-events="none" fill="none" stroke="white" stroke-width="1.5" d="M0,-3.0v7 M-2.5,-0.5L0,-3.0L2.5,-0.5"/>
  </g>
  <g id="arrowDown" transform="rotate(180) translate(-30 -48)">
    <use xlink:href="#rim"/>
    <path pointer-events="none" fill="none" stroke="white" stroke-width="1.5" d="M0,-3.0v7 M-2.5,-0.5L0,-3.0L2.5,-0.5"/>
  </g>
  <g id="arrowLeft" transform="rotate(270) translate(-36 17)">
    <use xlink:href="#rim"/>
    <path pointer-events="none" fill="none" stroke="white" stroke-width="1.5" d="M0,-3.0v7 M-2.5,-0.5L0,-3.0L2.5,-0.5"/>
  </g>
  <g id="resetDef">
    <use xlink:href="#rim2" fill="#404040"><set attributeName="fill" to="#808080" begin="reset.mouseover" end="reset.mouseout"/></use>
  </g>
</defs>
<script type="application/ecmascript">
var viewWidth = 593;
var viewHeight = 78;
var sectionId = 'dynsection-0';
</script>
<script type="application/ecmascript" xlink:href="svg.min.js"/>
<svg id="graph" class="graph">
<g id="viewport">
<title>module_mp_thompson::qi_aut_qs</title>
<!-- Node1 -->
<g id="Node000001" class="node">
<title>Node1</title>
<g id="a_Node000001"><a xlink:title="Cloud ice converting to snow since portion greater than min snow size. Given cloud ice content (kg/m*...">
<polygon fill="#999999" stroke="#666666" points="114.25,-51.5 0,-51.5 0,-21 114.25,-21 114.25,-51.5"/>
<text xml:space="preserve" text-anchor="start" x="8" y="-38" font-family="Source Sans Pro" font-size="10.00">module_mp_thompson</text>
<text xml:space="preserve" text-anchor="middle" x="57.12" y="-26.75" font-family="Source Sans Pro" font-size="10.00">::qi_aut_qs</text>
</a>
</g>
</g>
<!-- Node2 -->
<g id="Node000002" class="node">
<title>Node2</title>
<g id="a_Node000002"><a xlink:href="group__aathompson_ga5126f9b7d52cd4d3e7b072907abb4257.html#ga5126f9b7d52cd4d3e7b072907abb4257" target="_top" xlink:title=" ">
<polygon fill="white" stroke="#666666" points="264.5,-51.5 150.25,-51.5 150.25,-21 264.5,-21 264.5,-51.5"/>
<text xml:space="preserve" text-anchor="start" x="158.25" y="-38" font-family="Source Sans Pro" font-size="10.00">module_mp_thompson</text>
<text xml:space="preserve" text-anchor="middle" x="207.38" y="-26.75" font-family="Source Sans Pro" font-size="10.00">::gammp</text>
</a>
</g>
</g>
<!-- Node1&#45;&gt;Node2 -->
<g id="edge1_Node000001_Node000002" class="edge">
<title>Node1&#45;&gt;Node2</title>
<g id="a_edge1_Node000001_Node000002"><a xlink:title=" ">
<path fill="none" stroke="#63b8ff" d="M114.59,-36.25C122.49,-36.25 130.67,-36.25 138.75,-36.25"/>
<polygon fill="#63b8ff" stroke="#63b8ff" points="138.55,-39.75 148.55,-36.25 138.55,-32.75 138.55,-39.75"/>
</a>
</g>
</g>
<!-- Node2&#45;&gt;Node2 -->
<g id="edge2_Node000002_Node000002" class="edge">
<title>Node2&#45;&gt;Node2</title>
<g id="a_edge2_Node000002_Node000002"><a xlink:title=" ">
<path fill="none" stroke="#63b8ff" d="M180.75,-51.99C175.32,-61.06 184.19,-69.5 207.38,-69.5 220.05,-69.5 228.45,-66.97 232.57,-63.2"/>
<polygon fill="#63b8ff" stroke="#63b8ff" points="236.02,-63.85 233.81,-53.49 229.07,-62.97 236.02,-63.85"/>
</a>
</g>
</g>
<!-- Node3 -->
<g id="Node000003" class="node">
<title>Node3</title>
<g id="a_Node000003"><a xlink:href="group__aathompson_ga409e17891d433b3214f570828a824255.html#ga409e17891d433b3214f570828a824255" target="_top" xlink:title="Returns the incomplete gamma function q(a,x) evaluated by its continued fraction representation as ga...">
<polygon fill="white" stroke="#666666" points="434.25,-67.88 300.5,-67.88 300.5,-48.62 434.25,-48.62 434.25,-67.88"/>
<text xml:space="preserve" text-anchor="middle" x="367.38" y="-54.38" font-family="Source Sans Pro" font-size="10.00">module_mp_thompson::gcf</text>
</a>
</g>
</g>
<!-- Node2&#45;&gt;Node3 -->
<g id="edge3_Node000002_Node000003" class="edge">
<title>Node2&#45;&gt;Node3</title>
<g id="a_edge3_Node000002_Node000003"><a xlink:title=" ">
<path fill="none" stroke="#63b8ff" d="M264.97,-44.13C272.73,-45.21 280.81,-46.34 288.87,-47.46"/>
<polygon fill="#63b8ff" stroke="#63b8ff" points="288.33,-50.92 298.71,-48.83 289.29,-43.98 288.33,-50.92"/>
</a>
</g>
</g>
<!-- Node5 -->
<g id="Node000005" class="node">
<title>Node5</title>
<g id="a_Node000005"><a xlink:href="group__aathompson_ga28690a3c274459f6eb11ab59d0ae5a44.html#ga28690a3c274459f6eb11ab59d0ae5a44" target="_top" xlink:title="Returns the incomplete gamma function p(a,x) evaluated by its series representation as gamser.">
<polygon fill="white" stroke="#666666" points="424.5,-30.5 310.25,-30.5 310.25,0 424.5,0 424.5,-30.5"/>
<text xml:space="preserve" text-anchor="start" x="318.25" y="-17" font-family="Source Sans Pro" font-size="10.00">module_mp_thompson</text>
<text xml:space="preserve" text-anchor="middle" x="367.38" y="-5.75" font-family="Source Sans Pro" font-size="10.00">::gser</text>
</a>
</g>
</g>
<!-- Node2&#45;&gt;Node5 -->
<g id="edge6_Node000002_Node000005" class="edge">
<title>Node2&#45;&gt;Node5</title>
<g id="a_edge6_Node000002_Node000005"><a xlink:title=" ">
<path fill="none" stroke="#63b8ff" d="M264.97,-28.73C275.93,-27.27 287.51,-25.73 298.78,-24.23"/>
<polygon fill="#63b8ff" stroke="#63b8ff" points="298.96,-27.74 308.41,-22.95 298.04,-20.8 298.96,-27.74"/>
</a>
</g>
</g>
<!-- Node4 -->
<g id="Node000004" class="node">
<title>Node4</title>
<g id="a_Node000004"><a xlink:href="group__aathompson_gad2946a6deeab8b049fcd554d930f35c9.html#gad2946a6deeab8b049fcd554d930f35c9" target="_top" xlink:title="Returns the value ln(gamma(xx)) for xx &gt; 0.">
<polygon fill="white" stroke="#666666" points="584.5,-51.5 470.25,-51.5 470.25,-21 584.5,-21 584.5,-51.5"/>
<text xml:space="preserve" text-anchor="start" x="478.25" y="-38" font-family="Source Sans Pro" font-size="10.00">module_mp_thompson</text>
<text xml:space="preserve" text-anchor="middle" x="527.38" y="-26.75" font-family="Source Sans Pro" font-size="10.00">::gammln</text>
</a>
</g>
</g>
<!-- Node3&#45;&gt;Node4 -->
<g id="edge4_Node000003_Node000004" class="edge">
<title>Node3&#45;&gt;Node4</title>
<g id="a_edge4_Node000003_Node000004"><a xlink:title=" ">
<path fill="none" stroke="#63b8ff" d="M434.47,-49.05C442.51,-47.93 450.74,-46.78 458.81,-45.66"/>
<polygon fill="#63b8ff" stroke="#63b8ff" points="459.15,-49.14 468.57,-44.3 458.19,-42.21 459.15,-49.14"/>
</a>
</g>
</g>
<!-- Node4&#45;&gt;Node4 -->
<g id="edge5_Node000004_Node000004" class="edge">
<title>Node4&#45;&gt;Node4</title>
<g id="a_edge5_Node000004_Node000004"><a xlink:title=" ">
<path fill="none" stroke="#63b8ff" d="M499.02,-51.99C493.24,-61.06 502.69,-69.5 527.38,-69.5 540.88,-69.5 549.82,-66.97 554.21,-63.2"/>
<polygon fill="#63b8ff" stroke="#63b8ff" points="557.65,-63.87 555.52,-53.49 550.71,-62.93 557.65,-63.87"/>
</a>
</g>
</g>
<!-- Node5&#45;&gt;Node4 -->
<g id="edge7_Node000005_Node000004" class="edge">
<title>Node5&#45;&gt;Node4</title>
<g id="a_edge7_Node000005_Node000004"><a xlink:title=" ">
<path fill="none" stroke="#63b8ff" d="M424.97,-22.77C435.93,-24.23 447.51,-25.77 458.78,-27.27"/>
<polygon fill="#63b8ff" stroke="#63b8ff" points="458.04,-30.7 468.41,-28.55 458.96,-23.76 458.04,-30.7"/>
</a>
</g>
</g>
</g>
</svg>

<g id="navigator" transform="translate(0 0)" fill="#404254">
  <rect fill="#f2f5e9" fill-opacity="0.5" stroke="#606060" stroke-width=".5" x="0" y="0" width="60" height="60"/>
  <use id="zoomplus" xlink:href="#zoomPlus" x="17" y="9" onmousedown="handleZoom(evt,'in')"/>
  <use id="zoomminus" xlink:href="#zoomMin" x="42" y="9" onmousedown="handleZoom(evt,'out')"/>
  <use id="reset" xlink:href="#resetDef" x="30" y="36" onmousedown="handleReset()"/>
   <use id="arrowup" xlink:href="#arrowUp" x="0" y="0" onmousedown="handlePan(0,-1)"/>
  <use id="arrowright" xlink:href="#arrowRight" x="0" y="0" onmousedown="handlePan(1,0)"/>
  <use id="arrowdown" xlink:href="#arrowDown" x="0" y="0" onmousedown="handlePan(0,1)"/>
  <use id="arrowleft" xlink:href="#arrowLeft" x="0" y="0" onmousedown="handlePan(-1,0)"/>
</g>
<svg viewBox="0 0 15 15" width="100%" height="30px" preserveAspectRatio="xMaxYMin meet">
 <g id="arrow_out" transform="scale(0.3 0.3)">
  <a xlink:href="group__aathompson_ga38c4bc57c8dd450c76cc65b1991cf23d_ga38c4bc57c8dd450c76cc65b1991cf23d_cgraph_org.svg" target="_base">
   <rect id="button" ry="5" rx="5" y="6" x="6" height="38" width="38"
        fill="#f2f5e9" fill-opacity="0.5" stroke="#606060" stroke-width="1.0"/>
   <path id="arrow"
     d="M 11.500037,31.436501 C 11.940474,20.09759 22.043105,11.32322 32.158766,21.979434 L 37.068811,17.246167 C 37.068811,17.246167 37.088388,32 37.088388,32 L 22.160133,31.978069 C 22.160133,31.978069 26.997745,27.140456 26.997745,27.140456 C 18.528582,18.264221 13.291696,25.230495 11.500037,31.436501 z"
     style="fill:#404040;"/>
  </a>
 </g>
</svg>

<style type='text/css'>
<![CDATA[
[data-mouse-over-selected='false'] { opacity: 0.7; }
[data-mouse-over-selected='true']  { opacity: 1.0; }
]]>
</style>
<script type="application/ecmascript"><![CDATA[
document.addEventListener('DOMContentLoaded', (event) => {
  highlightEdges();
  highlightAdjacentNodes();
});
]]></script>
</svg>
