<?xml version="1.0" encoding="UTF-8" standalone="no"?>
<!DOCTYPE svg PUBLIC "-//W3C//DTD SVG 1.1//EN"
 "http://www.w3.org/Graphics/SVG/1.1/DTD/svg11.dtd">
<!-- Generated by graphviz version 14.1.2 (20260124.0452)
 -->
<!-- Title: module_sf_ruclsm::sfctmp Pages: 1 -->
<svg width="662pt" height="241pt"
 viewBox="0.00 0.00 662.00 241.00" xmlns="http://www.w3.org/2000/svg" xmlns:xlink="http://www.w3.org/1999/xlink">
<g id="graph0" class="graph" transform="scale(1 1) rotate(0) translate(4 237.25)">
<title>module_sf_ruclsm::sfctmp</title>
<!-- Node1 -->
<g id="Node000001" class="node">
<title>Node1</title>
<g id="a_Node000001"><a xlink:title="This subroutine solves energy and moisture budgets.">
<polygon fill="#999999" stroke="#666666" points="131.5,-149.25 0,-149.25 0,-130 131.5,-130 131.5,-149.25"/>
<text xml:space="preserve" text-anchor="middle" x="65.75" y="-135.75" font-family="Source Sans Pro" font-size="10.00">module_sf_ruclsm::sfctmp</text>
</a>
</g>
</g>
<!-- Node2 -->
<g id="Node000002" class="node">
<title>Node2</title>
<g id="a_Node000002"><a xlink:href="group__lsm__ruc__group_ga272369b99aa473b1f4faed9fd3fe17fe.html#ga272369b99aa473b1f4faed9fd3fe17fe" target="_top" xlink:title="This subroutine is called for sea ice without accumulated snow on its surface. it solves heat diffusi...">
<polygon fill="white" stroke="#666666" points="297.12,-233.25 177.62,-233.25 177.62,-214 297.12,-214 297.12,-233.25"/>
<text xml:space="preserve" text-anchor="middle" x="237.38" y="-219.75" font-family="Source Sans Pro" font-size="10.00">module_sf_ruclsm::sice</text>
</a>
</g>
</g>
<!-- Node1&#45;&gt;Node2 -->
<g id="edge1_Node000001_Node000002" class="edge">
<title>Node1&#45;&gt;Node2</title>
<g id="a_edge1_Node000001_Node000002"><a xlink:title=" ">
<path fill="none" stroke="#63b8ff" d="M86.38,-149.72C106.64,-160.1 139.19,-176.68 167.5,-190.62 179.7,-196.64 193.19,-203.13 204.96,-208.75"/>
<polygon fill="#63b8ff" stroke="#63b8ff" points="203.32,-211.84 213.85,-212.98 206.33,-205.52 203.32,-211.84"/>
</a>
</g>
</g>
<!-- Node4 -->
<g id="Node000004" class="node">
<title>Node4</title>
<g id="a_Node000004"><a xlink:href="group__lsm__ruc__group_ga59cfce62a9e7a8c642e767ea7548b7c9.html#ga59cfce62a9e7a8c642e767ea7548b7c9" target="_top" xlink:title="This subroutine is called for sea ice with accumulated snow on its surface. It solves energy budget o...">
<polygon fill="white" stroke="#666666" points="496.5,-204.25 343.25,-204.25 343.25,-185 496.5,-185 496.5,-204.25"/>
<text xml:space="preserve" text-anchor="middle" x="419.88" y="-190.75" font-family="Source Sans Pro" font-size="10.00">module_sf_ruclsm::snowseaice</text>
</a>
</g>
</g>
<!-- Node1&#45;&gt;Node4 -->
<g id="edge3_Node000001_Node000004" class="edge">
<title>Node1&#45;&gt;Node4</title>
<g id="a_edge3_Node000001_Node000004"><a xlink:title=" ">
<path fill="none" stroke="#63b8ff" d="M131.34,-149.71C191.08,-159.05 279.93,-172.92 343.03,-182.78"/>
<polygon fill="#63b8ff" stroke="#63b8ff" points="342.19,-186.19 352.61,-184.27 343.27,-179.27 342.19,-186.19"/>
</a>
</g>
</g>
<!-- Node6 -->
<g id="Node000006" class="node">
<title>Node6</title>
<g id="a_Node000006"><a xlink:href="group__lsm__ruc__group_gaecd085e0caf317dfb807e576fd426dec.html#gaecd085e0caf317dfb807e576fd426dec" target="_top" xlink:title="This subroutine is called for snow covered areas of land. It solves energy and moisture budgets on th...">
<polygon fill="white" stroke="#666666" points="307.25,-93.25 167.5,-93.25 167.5,-74 307.25,-74 307.25,-93.25"/>
<text xml:space="preserve" text-anchor="middle" x="237.38" y="-79.75" font-family="Source Sans Pro" font-size="10.00">module_sf_ruclsm::snowsoil</text>
</a>
</g>
</g>
<!-- Node1&#45;&gt;Node6 -->
<g id="edge7_Node000001_Node000006" class="edge">
<title>Node1&#45;&gt;Node6</title>
<g id="a_edge7_Node000001_Node000006"><a xlink:title=" ">
<path fill="none" stroke="#63b8ff" d="M91.34,-129.52C111.58,-121.41 141.14,-110.02 167.5,-101.62 172.88,-99.91 178.54,-98.24 184.2,-96.64"/>
<polygon fill="#63b8ff" stroke="#63b8ff" points="184.84,-100.09 193.56,-94.08 182.99,-93.34 184.84,-100.09"/>
</a>
</g>
</g>
<!-- Node11 -->
<g id="Node000011" class="node">
<title>Node11</title>
<g id="a_Node000011"><a xlink:href="group__lsm__ruc__group_gaec10146a1f142cfc8ec2126fa1d54702.html#gaec10146a1f142cfc8ec2126fa1d54702" target="_top" xlink:title="This subroutine calculates energy and moisture budget for vegetated surfaces without snow,...">
<polygon fill="white" stroke="#666666" points="295.62,-130.25 179.12,-130.25 179.12,-111 295.62,-111 295.62,-130.25"/>
<text xml:space="preserve" text-anchor="middle" x="237.38" y="-116.75" font-family="Source Sans Pro" font-size="10.00">module_sf_ruclsm::soil</text>
</a>
</g>
</g>
<!-- Node1&#45;&gt;Node11 -->
<g id="edge14_Node000001_Node000011" class="edge">
<title>Node1&#45;&gt;Node11</title>
<g id="a_edge14_Node000001_Node000011"><a xlink:title=" ">
<path fill="none" stroke="#63b8ff" d="M131.85,-132.33C143.53,-131.02 155.74,-129.66 167.52,-128.34"/>
<polygon fill="#63b8ff" stroke="#63b8ff" points="167.61,-131.85 177.16,-127.26 166.83,-124.89 167.61,-131.85"/>
</a>
</g>
</g>
<!-- Node3 -->
<g id="Node000003" class="node">
<title>Node3</title>
<g id="a_Node000003"><a xlink:href="group__lsm__ruc__group_ga03c426be3516bfb046dfd57c1b89dbbe.html#ga03c426be3516bfb046dfd57c1b89dbbe" target="_top" xlink:title="This subroutine finds the solution of energy budget at the surface from the pre&#45;computed table of sat...">
<polygon fill="white" stroke="#666666" points="654.25,-185.25 532.5,-185.25 532.5,-166 654.25,-166 654.25,-185.25"/>
<text xml:space="preserve" text-anchor="middle" x="593.38" y="-171.75" font-family="Source Sans Pro" font-size="10.00">module_sf_ruclsm::vilka</text>
</a>
</g>
</g>
<!-- Node2&#45;&gt;Node3 -->
<g id="edge2_Node000002_Node000003" class="edge">
<title>Node2&#45;&gt;Node3</title>
<g id="a_edge2_Node000002_Node000003"><a xlink:title=" ">
<path fill="none" stroke="#63b8ff" d="M297.5,-226.95C350.28,-228.6 429.36,-227.8 496.5,-213.62 519.38,-208.79 543.88,-199 562.38,-190.56"/>
<polygon fill="#63b8ff" stroke="#63b8ff" points="563.86,-193.74 571.42,-186.32 560.88,-187.4 563.86,-193.74"/>
</a>
</g>
</g>
<!-- Node4&#45;&gt;Node3 -->
<g id="edge6_Node000004_Node000003" class="edge">
<title>Node4&#45;&gt;Node3</title>
<g id="a_edge6_Node000004_Node000003"><a xlink:title=" ">
<path fill="none" stroke="#63b8ff" d="M496.6,-186.24C504.71,-185.34 512.94,-184.43 521,-183.53"/>
<polygon fill="#63b8ff" stroke="#63b8ff" points="521.19,-187.03 530.74,-182.45 520.42,-180.08 521.19,-187.03"/>
</a>
</g>
</g>
<!-- Node5 -->
<g id="Node000005" class="node">
<title>Node5</title>
<g id="a_Node000005"><a xlink:href="group__lsm__ruc__group_ga0892c4c726f23c4e4c8317efd197c208.html#ga0892c4c726f23c4e4c8317efd197c208" target="_top" xlink:title="This function computes water vapor mixing ratio at saturation from the precomputed table and a given ...">
<polygon fill="white" stroke="#666666" points="652,-84.25 534.75,-84.25 534.75,-65 652,-65 652,-84.25"/>
<text xml:space="preserve" text-anchor="middle" x="593.38" y="-70.75" font-family="Source Sans Pro" font-size="10.00">module_sf_ruclsm::qsn</text>
</a>
</g>
</g>
<!-- Node4&#45;&gt;Node5 -->
<g id="edge4_Node000004_Node000005" class="edge">
<title>Node4&#45;&gt;Node5</title>
<g id="a_edge4_Node000004_Node000005"><a xlink:title=" ">
<path fill="none" stroke="#63b8ff" d="M478.81,-184.58C484.99,-182.42 491.01,-179.8 496.5,-176.62 532.59,-155.72 563.38,-117.01 579.75,-93.76"/>
<polygon fill="#63b8ff" stroke="#63b8ff" points="582.43,-96.04 585.19,-85.81 576.66,-92.08 582.43,-96.04"/>
</a>
</g>
</g>
<!-- Node5&#45;&gt;Node5 -->
<g id="edge5_Node000005_Node000005" class="edge">
<title>Node5&#45;&gt;Node5</title>
<g id="a_edge5_Node000005_Node000005"><a xlink:title=" ">
<path fill="none" stroke="#63b8ff" d="M566.21,-84.54C553.82,-93.15 562.88,-102.25 593.38,-102.25 610.53,-102.25 620.9,-99.37 624.49,-95.32"/>
<polygon fill="#63b8ff" stroke="#63b8ff" points="627.78,-94.15 621.06,-85.96 621.21,-96.55 627.78,-94.15"/>
</a>
</g>
</g>
<!-- Node7 -->
<g id="Node000007" class="node">
<title>Node7</title>
<g id="a_Node000007"><a xlink:href="group__lsm__ruc__group_ga204e4de9df89836cdda1dca1ee66d86c.html#ga204e4de9df89836cdda1dca1ee66d86c" target="_top" xlink:title="This subroutine solves energy bugdget equation and heat diffusion equation to obtain snow and soil te...">
<polygon fill="white" stroke="#666666" points="493.12,-19.25 346.62,-19.25 346.62,0 493.12,0 493.12,-19.25"/>
<text xml:space="preserve" text-anchor="middle" x="419.88" y="-5.75" font-family="Source Sans Pro" font-size="10.00">module_sf_ruclsm::snowtemp</text>
</a>
</g>
</g>
<!-- Node6&#45;&gt;Node7 -->
<g id="edge8_Node000006_Node000007" class="edge">
<title>Node6&#45;&gt;Node7</title>
<g id="a_edge8_Node000006_Node000007"><a xlink:title=" ">
<path fill="none" stroke="#63b8ff" d="M254.12,-73.56C274.12,-61.16 310.05,-40.2 343.25,-27.62 347.92,-25.86 352.82,-24.22 357.79,-22.72"/>
<polygon fill="#63b8ff" stroke="#63b8ff" points="358.56,-26.14 367.24,-20.06 356.67,-19.4 358.56,-26.14"/>
</a>
</g>
</g>
<!-- Node8 -->
<g id="Node000008" class="node">
<title>Node8</title>
<g id="a_Node000008"><a xlink:href="group__lsm__ruc__group_ga278c9faad6ab598b60a3bf8c562e5a8a.html#ga278c9faad6ab598b60a3bf8c562e5a8a" target="_top" xlink:title="This subroutine solves moisture budget and computes soil moisture and surface and sub&#45;surface runoffs...">
<polygon fill="white" stroke="#666666" points="490.12,-130.25 349.62,-130.25 349.62,-111 490.12,-111 490.12,-130.25"/>
<text xml:space="preserve" text-anchor="middle" x="419.88" y="-116.75" font-family="Source Sans Pro" font-size="10.00">module_sf_ruclsm::soilmoist</text>
</a>
</g>
</g>
<!-- Node6&#45;&gt;Node8 -->
<g id="edge11_Node000006_Node000008" class="edge">
<title>Node6&#45;&gt;Node8</title>
<g id="a_edge11_Node000006_Node000008"><a xlink:title=" ">
<path fill="none" stroke="#63b8ff" d="M287.7,-93.74C309.58,-98.22 335.55,-103.54 358.57,-108.26"/>
<polygon fill="#63b8ff" stroke="#63b8ff" points="357.63,-111.64 368.13,-110.22 359.04,-104.79 357.63,-111.64"/>
</a>
</g>
</g>
<!-- Node9 -->
<g id="Node000009" class="node">
<title>Node9</title>
<g id="a_Node000009"><a xlink:href="group__lsm__ruc__group_ga53ef8a1d870ab8dab2cc31f456c6b3a5.html#ga53ef8a1d870ab8dab2cc31f456c6b3a5" target="_top" xlink:title="This subroutine computes thermal diffusivity, and diffusional and hydraulic condeuctivities in soil.">
<polygon fill="white" stroke="#666666" points="487.5,-93.25 352.25,-93.25 352.25,-74 487.5,-74 487.5,-93.25"/>
<text xml:space="preserve" text-anchor="middle" x="419.88" y="-79.75" font-family="Source Sans Pro" font-size="10.00">module_sf_ruclsm::soilprop</text>
</a>
</g>
</g>
<!-- Node6&#45;&gt;Node9 -->
<g id="edge12_Node000006_Node000009" class="edge">
<title>Node6&#45;&gt;Node9</title>
<g id="a_edge12_Node000006_Node000009"><a xlink:title=" ">
<path fill="none" stroke="#63b8ff" d="M307.64,-83.62C318.42,-83.62 329.61,-83.62 340.57,-83.62"/>
<polygon fill="#63b8ff" stroke="#63b8ff" points="340.36,-87.13 350.36,-83.63 340.36,-80.13 340.36,-87.13"/>
</a>
</g>
</g>
<!-- Node10 -->
<g id="Node000010" class="node">
<title>Node10</title>
<g id="a_Node000010"><a xlink:href="group__lsm__ruc__group_ga360e53dc48f6b38b3536375605199e96.html#ga360e53dc48f6b38b3536375605199e96" target="_top" xlink:title="This subroutine solves the transpiration function (EQs. 18,19 in Smirnova et al.(1997) smirnova_1997)...">
<polygon fill="white" stroke="#666666" points="483,-56.25 356.75,-56.25 356.75,-37 483,-37 483,-56.25"/>
<text xml:space="preserve" text-anchor="middle" x="419.88" y="-42.75" font-family="Source Sans Pro" font-size="10.00">module_sf_ruclsm::transf</text>
</a>
</g>
</g>
<!-- Node6&#45;&gt;Node10 -->
<g id="edge13_Node000006_Node000010" class="edge">
<title>Node6&#45;&gt;Node10</title>
<g id="a_edge13_Node000006_Node000010"><a xlink:title=" ">
<path fill="none" stroke="#63b8ff" d="M287.7,-73.51C309.58,-69.03 335.55,-63.71 358.57,-58.99"/>
<polygon fill="#63b8ff" stroke="#63b8ff" points="359.04,-62.46 368.13,-57.03 357.63,-55.61 359.04,-62.46"/>
</a>
</g>
</g>
<!-- Node7&#45;&gt;Node3 -->
<g id="edge10_Node000007_Node000003" class="edge">
<title>Node7&#45;&gt;Node3</title>
<g id="a_edge10_Node000007_Node000003"><a xlink:title=" ">
<path fill="none" stroke="#63b8ff" d="M484.2,-19.72C488.62,-21.89 492.78,-24.5 496.5,-27.62 527.57,-53.78 510.29,-77.62 532.5,-111.62 543.86,-129.01 560.12,-146.06 572.84,-158.18"/>
<polygon fill="#63b8ff" stroke="#63b8ff" points="570.15,-160.45 579.86,-164.69 574.91,-155.32 570.15,-160.45"/>
</a>
</g>
</g>
<!-- Node7&#45;&gt;Node5 -->
<g id="edge9_Node000007_Node000005" class="edge">
<title>Node7&#45;&gt;Node5</title>
<g id="a_edge9_Node000007_Node000005"><a xlink:title=" ">
<path fill="none" stroke="#63b8ff" d="M470.16,-19.68C479.03,-21.96 488.12,-24.61 496.5,-27.62 520.38,-36.2 546.14,-49.04 564.94,-59.14"/>
<polygon fill="#63b8ff" stroke="#63b8ff" points="563.09,-62.12 573.54,-63.84 566.44,-55.97 563.09,-62.12"/>
</a>
</g>
</g>
<!-- Node11&#45;&gt;Node8 -->
<g id="edge15_Node000011_Node000008" class="edge">
<title>Node11&#45;&gt;Node8</title>
<g id="a_edge15_Node000011_Node000008"><a xlink:title=" ">
<path fill="none" stroke="#63b8ff" d="M295.98,-120.62C309.33,-120.62 323.79,-120.62 337.93,-120.62"/>
<polygon fill="#63b8ff" stroke="#63b8ff" points="337.67,-124.13 347.67,-120.63 337.67,-117.13 337.67,-124.13"/>
</a>
</g>
</g>
<!-- Node11&#45;&gt;Node9 -->
<g id="edge16_Node000011_Node000009" class="edge">
<title>Node11&#45;&gt;Node9</title>
<g id="a_edge16_Node000011_Node000009"><a xlink:title=" ">
<path fill="none" stroke="#63b8ff" d="M287.7,-110.51C309.58,-106.03 335.55,-100.71 358.57,-95.99"/>
<polygon fill="#63b8ff" stroke="#63b8ff" points="359.04,-99.46 368.13,-94.03 357.63,-92.61 359.04,-99.46"/>
</a>
</g>
</g>
<!-- Node11&#45;&gt;Node10 -->
<g id="edge19_Node000011_Node000010" class="edge">
<title>Node11&#45;&gt;Node10</title>
<g id="a_edge19_Node000011_Node000010"><a xlink:title=" ">
<path fill="none" stroke="#63b8ff" d="M290.06,-110.53C296.06,-108.37 301.93,-105.77 307.25,-102.62 327.28,-90.78 323.1,-76.25 343.25,-64.62 345.57,-63.29 347.98,-62.05 350.46,-60.9"/>
<polygon fill="#63b8ff" stroke="#63b8ff" points="351.57,-64.23 359.54,-57.26 348.96,-57.74 351.57,-64.23"/>
</a>
</g>
</g>
<!-- Node12 -->
<g id="Node000012" class="node">
<title>Node12</title>
<g id="a_Node000012"><a xlink:href="group__lsm__ruc__group_gafc7d78906732947d1ac00ca46d7e8147.html#gafc7d78906732947d1ac00ca46d7e8147" target="_top" xlink:title="This subroutine solves energy budget equation and heat diffusion equation.">
<polygon fill="white" stroke="#666666" points="489,-167.25 350.75,-167.25 350.75,-148 489,-148 489,-167.25"/>
<text xml:space="preserve" text-anchor="middle" x="419.88" y="-153.75" font-family="Source Sans Pro" font-size="10.00">module_sf_ruclsm::soiltemp</text>
</a>
</g>
</g>
<!-- Node11&#45;&gt;Node12 -->
<g id="edge17_Node000011_Node000012" class="edge">
<title>Node11&#45;&gt;Node12</title>
<g id="a_edge17_Node000011_Node000012"><a xlink:title=" ">
<path fill="none" stroke="#63b8ff" d="M287.7,-130.74C309.58,-135.22 335.55,-140.54 358.57,-145.26"/>
<polygon fill="#63b8ff" stroke="#63b8ff" points="357.63,-148.64 368.13,-147.22 359.04,-141.79 357.63,-148.64"/>
</a>
</g>
</g>
<!-- Node12&#45;&gt;Node3 -->
<g id="edge18_Node000012_Node000003" class="edge">
<title>Node12&#45;&gt;Node3</title>
<g id="a_edge18_Node000012_Node000003"><a xlink:title=" ">
<path fill="none" stroke="#63b8ff" d="M489.15,-164.79C499.58,-165.89 510.36,-167.02 520.86,-168.12"/>
<polygon fill="#63b8ff" stroke="#63b8ff" points="520.28,-171.58 530.59,-169.14 521.01,-164.62 520.28,-171.58"/>
</a>
</g>
</g>
</g>
</svg>
