<?xml version="1.0" encoding="UTF-8" standalone="no"?>
<!DOCTYPE svg PUBLIC "-//W3C//DTD SVG 1.1//EN"
 "http://www.w3.org/Graphics/SVG/1.1/DTD/svg11.dtd">
<!-- Generated by graphviz version 14.1.2 (20260124.0452)
 -->
<!-- Title: cu_gf_deep::cu_gf_deep_run Pages: 1 -->
<svg width="653pt" height="889pt"
 viewBox="0.00 0.00 653.00 889.00" xmlns="http://www.w3.org/2000/svg" xmlns:xlink="http://www.w3.org/1999/xlink">
<g id="graph0" class="graph" transform="scale(1 1) rotate(0) translate(4 885.25)">
<title>cu_gf_deep::cu_gf_deep_run</title>
<!-- Node1 -->
<g id="Node000001" class="node">
<title>Node1</title>
<g id="a_Node000001"><a xlink:title="Driver for the deep or congestus GF routine.">
<polygon fill="#999999" stroke="#666666" points="141.25,-473.25 0,-473.25 0,-454 141.25,-454 141.25,-473.25"/>
<text xml:space="preserve" text-anchor="middle" x="70.62" y="-459.75" font-family="Source Sans Pro" font-size="10.00">cu_gf_deep::cu_gf_deep_run</text>
</a>
</g>
</g>
<!-- Node2 -->
<g id="Node000002" class="node">
<title>Node2</title>
<g id="a_Node000002"><a xlink:href="group__cu__gf__deep__group_gaebe39ce8c6cd4488372362eecfe00ee0.html#gaebe39ce8c6cd4488372362eecfe00ee0" target="_top" xlink:title="Calculates strength of downdraft based on windshear and/or aerosol content.">
<polygon fill="white" stroke="#666666" points="304.62,-881.25 182.12,-881.25 182.12,-862 304.62,-862 304.62,-881.25"/>
<text xml:space="preserve" text-anchor="middle" x="243.38" y="-867.75" font-family="Source Sans Pro" font-size="10.00">cu_gf_deep::cup_dd_edt</text>
</a>
</g>
</g>
<!-- Node1&#45;&gt;Node2 -->
<g id="edge1_Node000001_Node000002" class="edge">
<title>Node1&#45;&gt;Node2</title>
<g id="a_edge1_Node000001_Node000002"><a xlink:title=" ">
<path fill="none" stroke="#63b8ff" d="M72.98,-473.42C80.72,-528.13 121,-795.31 177.25,-852.62 178.14,-853.53 179.06,-854.39 180.03,-855.21"/>
<polygon fill="#63b8ff" stroke="#63b8ff" points="178,-858.06 188.25,-860.72 181.89,-852.25 178,-858.06"/>
</a>
</g>
</g>
<!-- Node3 -->
<g id="Node000003" class="node">
<title>Node3</title>
<g id="a_Node000003"><a xlink:href="group__cu__gf__deep__group_ga000f41a8ebc36623b1e3b6c71d904632.html#ga000f41a8ebc36623b1e3b6c71d904632" target="_top" xlink:title="Calcultes moisture properties of downdrafts.">
<polygon fill="white" stroke="#666666" points="295.25,-843.88 191.5,-843.88 191.5,-813.38 295.25,-813.38 295.25,-843.88"/>
<text xml:space="preserve" text-anchor="start" x="199.5" y="-830.38" font-family="Source Sans Pro" font-size="10.00">cu_gf_deep::cup_dd</text>
<text xml:space="preserve" text-anchor="middle" x="243.38" y="-819.12" font-family="Source Sans Pro" font-size="10.00">_moisture</text>
</a>
</g>
</g>
<!-- Node1&#45;&gt;Node3 -->
<g id="edge2_Node000001_Node000003" class="edge">
<title>Node1&#45;&gt;Node3</title>
<g id="a_edge2_Node000001_Node000003"><a xlink:title=" ">
<path fill="none" stroke="#63b8ff" d="M71.68,-473.56C72.49,-518.37 81.7,-703.91 177.25,-804.62 178.62,-806.07 180.08,-807.42 181.62,-808.7"/>
<polygon fill="#63b8ff" stroke="#63b8ff" points="179.65,-811.59 189.89,-814.3 183.57,-805.8 179.65,-811.59"/>
</a>
</g>
</g>
<!-- Node4 -->
<g id="Node000004" class="node">
<title>Node4</title>
<g id="a_Node000004"><a xlink:href="group__cu__gf__deep__group_gabf84026a03bf21d4ba4eaa77efa11d93.html#gabf84026a03bf21d4ba4eaa77efa11d93" target="_top" xlink:title="Calculates environmental moist static energy, saturation moist static energy, heights,...">
<polygon fill="white" stroke="#666666" points="297.88,-795.25 188.88,-795.25 188.88,-776 297.88,-776 297.88,-795.25"/>
<text xml:space="preserve" text-anchor="middle" x="243.38" y="-781.75" font-family="Source Sans Pro" font-size="10.00">cu_gf_deep::cup_env</text>
</a>
</g>
</g>
<!-- Node1&#45;&gt;Node4 -->
<g id="edge3_Node000001_Node000004" class="edge">
<title>Node1&#45;&gt;Node4</title>
<g id="a_edge3_Node000001_Node000004"><a xlink:title=" ">
<path fill="none" stroke="#63b8ff" d="M71.92,-473.51C73.72,-515.73 86.55,-682.61 177.25,-767.62 177.89,-768.23 178.55,-768.81 179.23,-769.37"/>
<polygon fill="#63b8ff" stroke="#63b8ff" points="177.28,-772.28 187.57,-774.83 181.12,-766.42 177.28,-772.28"/>
</a>
</g>
</g>
<!-- Node6 -->
<g id="Node000006" class="node">
<title>Node6</title>
<g id="a_Node000006"><a xlink:href="group__cu__gf__deep__group_ga56111f64554b06083c77b1bec308b6ea.html#ga56111f64554b06083c77b1bec308b6ea" target="_top" xlink:title="Calculates environmental values on cloud levels.">
<polygon fill="white" stroke="#666666" points="309.5,-758.25 177.25,-758.25 177.25,-739 309.5,-739 309.5,-758.25"/>
<text xml:space="preserve" text-anchor="middle" x="243.38" y="-744.75" font-family="Source Sans Pro" font-size="10.00">cu_gf_deep::cup_env_clev</text>
</a>
</g>
</g>
<!-- Node1&#45;&gt;Node6 -->
<g id="edge6_Node000001_Node000006" class="edge">
<title>Node1&#45;&gt;Node6</title>
<g id="a_edge6_Node000001_Node000006"><a xlink:title=" ">
<path fill="none" stroke="#63b8ff" d="M72.51,-473.56C76.5,-512.48 96.4,-656.05 177.25,-729.62 178.5,-730.76 179.82,-731.84 181.19,-732.84"/>
<polygon fill="#63b8ff" stroke="#63b8ff" points="179.21,-735.74 189.59,-737.83 182.78,-729.72 179.21,-735.74"/>
</a>
</g>
</g>
<!-- Node7 -->
<g id="Node000007" class="node">
<title>Node7</title>
<g id="a_Node000007"><a xlink:href="group__cu__gf__deep__group_gabf30a4d89f48c3dff7256bbedff097fe.html#gabf30a4d89f48c3dff7256bbedff097fe" target="_top" xlink:title="Calculates an ensemble of closures and the resulting ensemble average to determine cloud base mass&#45;fl...">
<polygon fill="white" stroke="#666666" points="304.62,-720.88 182.12,-720.88 182.12,-690.38 304.62,-690.38 304.62,-720.88"/>
<text xml:space="preserve" text-anchor="start" x="190.12" y="-707.38" font-family="Source Sans Pro" font-size="10.00">cu_gf_deep::cup_forcing</text>
<text xml:space="preserve" text-anchor="middle" x="243.38" y="-696.12" font-family="Source Sans Pro" font-size="10.00">_ens_3d</text>
</a>
</g>
</g>
<!-- Node1&#45;&gt;Node7 -->
<g id="edge7_Node000001_Node000007" class="edge">
<title>Node1&#45;&gt;Node7</title>
<g id="a_edge7_Node000001_Node000007"><a xlink:title=" ">
<path fill="none" stroke="#63b8ff" d="M73.63,-473.46C81.02,-507.36 109.94,-620.62 177.25,-681.62 178.01,-682.32 178.79,-682.99 179.6,-683.64"/>
<polygon fill="#63b8ff" stroke="#63b8ff" points="177.34,-686.34 187.58,-689.08 181.29,-680.55 177.34,-686.34"/>
</a>
</g>
</g>
<!-- Node8 -->
<g id="Node000008" class="node">
<title>Node8</title>
<g id="a_Node000008"><a xlink:href="group__cu__gf__deep__group_ga0a1b26105b052b8c66d7eb99a64c032e.html#ga0a1b26105b052b8c66d7eb99a64c032e" target="_top" xlink:title="Calculates the level of convective cloud base.">
<polygon fill="white" stroke="#666666" points="303.12,-672.25 183.62,-672.25 183.62,-653 303.12,-653 303.12,-672.25"/>
<text xml:space="preserve" text-anchor="middle" x="243.38" y="-658.75" font-family="Source Sans Pro" font-size="10.00">cu_gf_deep::cup_kbcon</text>
</a>
</g>
</g>
<!-- Node1&#45;&gt;Node8 -->
<g id="edge8_Node000001_Node000008" class="edge">
<title>Node1&#45;&gt;Node8</title>
<g id="a_edge8_Node000001_Node000008"><a xlink:title=" ">
<path fill="none" stroke="#63b8ff" d="M74.92,-473.53C85.2,-502.98 119.52,-590.94 177.25,-638.62 181.67,-642.27 186.69,-645.39 191.94,-648.06"/>
<polygon fill="#63b8ff" stroke="#63b8ff" points="190.27,-651.15 200.83,-652.02 193.12,-644.75 190.27,-651.15"/>
</a>
</g>
</g>
<!-- Node9 -->
<g id="Node000009" class="node">
<title>Node9</title>
<g id="a_Node000009"><a xlink:href="group__cu__gf__deep__group_ga1c93354ade8bedf132cb748238d59ff1.html#ga1c93354ade8bedf132cb748238d59ff1" target="_top" xlink:title="Calculates the average value of a variable at the updraft originating level.">
<polygon fill="white" stroke="#666666" points="475.5,-634.25 345.5,-634.25 345.5,-615 475.5,-615 475.5,-634.25"/>
<text xml:space="preserve" text-anchor="middle" x="410.5" y="-620.75" font-family="Source Sans Pro" font-size="10.00">cu_gf_deep::get_cloud_bc</text>
</a>
</g>
</g>
<!-- Node1&#45;&gt;Node9 -->
<g id="edge18_Node000001_Node000009" class="edge">
<title>Node1&#45;&gt;Node9</title>
<g id="a_edge18_Node000001_Node000009"><a xlink:title=" ">
<path fill="none" stroke="#63b8ff" d="M75.48,-473.46C86.56,-500.26 121.36,-574.63 177.25,-605.62 224.66,-631.92 286.07,-635.89 333.84,-633.71"/>
<polygon fill="#63b8ff" stroke="#63b8ff" points="333.76,-637.22 343.54,-633.16 333.36,-630.23 333.76,-637.22"/>
</a>
</g>
</g>
<!-- Node10 -->
<g id="Node000010" class="node">
<title>Node10</title>
<g id="a_Node000010"><a xlink:href="group__cu__gf__deep__group_ga72f5f742d6336b136978702e0140cfb5.html#ga72f5f742d6336b136978702e0140cfb5" target="_top" xlink:title="Calculates the level at which the maximum value in an array occurs.">
<polygon fill="white" stroke="#666666" points="305.75,-596.25 181,-596.25 181,-577 305.75,-577 305.75,-596.25"/>
<text xml:space="preserve" text-anchor="middle" x="243.38" y="-582.75" font-family="Source Sans Pro" font-size="10.00">cu_gf_deep::cup_maximi</text>
</a>
</g>
</g>
<!-- Node1&#45;&gt;Node10 -->
<g id="edge10_Node000001_Node000010" class="edge">
<title>Node1&#45;&gt;Node10</title>
<g id="a_edge10_Node000001_Node000010"><a xlink:title=" ">
<path fill="none" stroke="#63b8ff" d="M78.85,-473.71C94.4,-494.66 133.2,-543.05 177.25,-568.62 179.43,-569.89 181.71,-571.08 184.05,-572.18"/>
<polygon fill="#63b8ff" stroke="#63b8ff" points="182.63,-575.38 193.21,-575.93 185.29,-568.9 182.63,-575.38"/>
</a>
</g>
</g>
<!-- Node11 -->
<g id="Node000011" class="node">
<title>Node11</title>
<g id="a_Node000011"><a xlink:href="group__cu__gf__deep__group_gadce84bec635baa56686cb533dbc1e456.html#gadce84bec635baa56686cb533dbc1e456" target="_top" xlink:title="Calculates the level at which the minimum value in an array occurs.">
<polygon fill="white" stroke="#666666" points="304.25,-559.25 182.5,-559.25 182.5,-540 304.25,-540 304.25,-559.25"/>
<text xml:space="preserve" text-anchor="middle" x="243.38" y="-545.75" font-family="Source Sans Pro" font-size="10.00">cu_gf_deep::cup_minimi</text>
</a>
</g>
</g>
<!-- Node1&#45;&gt;Node11 -->
<g id="edge11_Node000001_Node000011" class="edge">
<title>Node1&#45;&gt;Node11</title>
<g id="a_edge11_Node000001_Node000011"><a xlink:title=" ">
<path fill="none" stroke="#63b8ff" d="M84.61,-473.58C103.88,-487.94 141.63,-514.52 177.25,-530.62 181.54,-532.56 186.07,-534.36 190.67,-536.01"/>
<polygon fill="#63b8ff" stroke="#63b8ff" points="189.41,-539.28 200,-539.12 191.62,-532.64 189.41,-539.28"/>
</a>
</g>
</g>
<!-- Node12 -->
<g id="Node000012" class="node">
<title>Node12</title>
<g id="a_Node000012"><a xlink:href="group__cu__gf__deep__group_ga0406c0b79f9eb26b5ba45605ee51b75d.html#ga0406c0b79f9eb26b5ba45605ee51b75d" target="_top" xlink:title="This subroutine calculates final output fields including physical tendencies, precipitation,...">
<polygon fill="white" stroke="#666666" points="303.5,-521.88 183.25,-521.88 183.25,-491.38 303.5,-491.38 303.5,-521.88"/>
<text xml:space="preserve" text-anchor="start" x="191.25" y="-508.38" font-family="Source Sans Pro" font-size="10.00">cu_gf_deep::cup_output</text>
<text xml:space="preserve" text-anchor="middle" x="243.38" y="-497.12" font-family="Source Sans Pro" font-size="10.00">_ens_3d</text>
</a>
</g>
</g>
<!-- Node1&#45;&gt;Node12 -->
<g id="edge12_Node000001_Node000012" class="edge">
<title>Node1&#45;&gt;Node12</title>
<g id="a_edge12_Node000001_Node000012"><a xlink:title=" ">
<path fill="none" stroke="#63b8ff" d="M111.66,-473.71C129.62,-478.23 151.36,-483.7 171.91,-488.88"/>
<polygon fill="#63b8ff" stroke="#63b8ff" points="170.82,-492.22 181.38,-491.26 172.53,-485.43 170.82,-492.22"/>
</a>
</g>
</g>
<!-- Node13 -->
<g id="Node000013" class="node">
<title>Node13</title>
<g id="a_Node000013"><a xlink:href="group__cu__gf__deep__group_ga5b68f3b33a94b5a23df8c21759ffb320.html#ga5b68f3b33a94b5a23df8c21759ffb320" target="_top" xlink:title="Calculates the cloud work functions for updrafts.">
<polygon fill="white" stroke="#666666" points="305.75,-473.25 181,-473.25 181,-454 305.75,-454 305.75,-473.25"/>
<text xml:space="preserve" text-anchor="middle" x="243.38" y="-459.75" font-family="Source Sans Pro" font-size="10.00">cu_gf_deep::cup_up_aa0</text>
</a>
</g>
</g>
<!-- Node1&#45;&gt;Node13 -->
<g id="edge13_Node000001_Node000013" class="edge">
<title>Node1&#45;&gt;Node13</title>
<g id="a_edge13_Node000001_Node000013"><a xlink:title=" ">
<path fill="none" stroke="#63b8ff" d="M141.57,-463.62C150.7,-463.62 160.07,-463.62 169.25,-463.62"/>
<polygon fill="#63b8ff" stroke="#63b8ff" points="169.23,-467.13 179.23,-463.63 169.23,-460.13 169.23,-467.13"/>
</a>
</g>
</g>
<!-- Node14 -->
<g id="Node000014" class="node">
<title>Node14</title>
<g id="a_Node000014"><a xlink:href="group__cu__gf__deep__group_ga5042afe10f07540454330ed4a77a5992.html#ga5042afe10f07540454330ed4a77a5992" target="_top" xlink:title="Calculates the cloud work function based on boundary layer forcing.">
<polygon fill="white" stroke="#666666" points="295.25,-435.88 191.5,-435.88 191.5,-405.38 295.25,-405.38 295.25,-435.88"/>
<text xml:space="preserve" text-anchor="start" x="199.5" y="-422.38" font-family="Source Sans Pro" font-size="10.00">cu_gf_deep::cup_up</text>
<text xml:space="preserve" text-anchor="middle" x="243.38" y="-411.12" font-family="Source Sans Pro" font-size="10.00">_aa1bl</text>
</a>
</g>
</g>
<!-- Node1&#45;&gt;Node14 -->
<g id="edge14_Node000001_Node000014" class="edge">
<title>Node1&#45;&gt;Node14</title>
<g id="a_edge14_Node000001_Node000014"><a xlink:title=" ">
<path fill="none" stroke="#63b8ff" d="M111.66,-453.54C132.07,-448.4 157.36,-442.03 180.24,-436.27"/>
<polygon fill="#63b8ff" stroke="#63b8ff" points="180.93,-439.71 189.78,-433.87 179.22,-432.92 180.93,-439.71"/>
</a>
</g>
</g>
<!-- Node15 -->
<g id="Node000015" class="node">
<title>Node15</title>
<g id="a_Node000015"><a xlink:href="group__cu__gf__deep__group_ga956dc9e34d290057e2cf6fb86ec7ea7b.html#ga956dc9e34d290057e2cf6fb86ec7ea7b" target="_top" xlink:title="Calculates moisture properties of the updraft.">
<polygon fill="white" stroke="#666666" points="295.25,-386.88 191.5,-386.88 191.5,-356.38 295.25,-356.38 295.25,-386.88"/>
<text xml:space="preserve" text-anchor="start" x="199.5" y="-373.38" font-family="Source Sans Pro" font-size="10.00">cu_gf_deep::cup_up</text>
<text xml:space="preserve" text-anchor="middle" x="243.38" y="-362.12" font-family="Source Sans Pro" font-size="10.00">_moisture</text>
</a>
</g>
</g>
<!-- Node1&#45;&gt;Node15 -->
<g id="edge15_Node000001_Node000015" class="edge">
<title>Node1&#45;&gt;Node15</title>
<g id="a_edge15_Node000001_Node000015"><a xlink:title=" ">
<path fill="none" stroke="#63b8ff" d="M85.45,-453.59C105.14,-439.6 142.72,-413.99 177.25,-396.62 180.55,-394.97 183.99,-393.35 187.48,-391.78"/>
<polygon fill="#63b8ff" stroke="#63b8ff" points="188.85,-395 196.68,-387.86 186.11,-388.57 188.85,-395"/>
</a>
</g>
</g>
<!-- Node16 -->
<g id="Node000016" class="node">
<title>Node16</title>
<g id="a_Node000016"><a xlink:href="group__cu__gf__deep__group_ga0e5723e9155e2a883630bbdbf1ada794.html#ga0e5723e9155e2a883630bbdbf1ada794" target="_top" xlink:title="Calculates tracer fluxes due to subsidence, only up&#45;stream differencing is currently used but flux co...">
<polygon fill="white" stroke="#666666" points="293,-338.25 193.75,-338.25 193.75,-319 293,-319 293,-338.25"/>
<text xml:space="preserve" text-anchor="middle" x="243.38" y="-324.75" font-family="Source Sans Pro" font-size="10.00">cu_gf_deep::fct1d3</text>
</a>
</g>
</g>
<!-- Node1&#45;&gt;Node16 -->
<g id="edge17_Node000001_Node000016" class="edge">
<title>Node1&#45;&gt;Node16</title>
<g id="a_edge17_Node000001_Node000016"><a xlink:title=" ">
<path fill="none" stroke="#63b8ff" d="M77.94,-453.54C92.56,-431.05 131.04,-376.47 177.25,-347.62 179.97,-345.93 182.84,-344.38 185.81,-342.96"/>
<polygon fill="#63b8ff" stroke="#63b8ff" points="186.88,-346.31 194.77,-339.23 184.19,-339.85 186.88,-346.31"/>
</a>
</g>
</g>
<!-- Node17 -->
<g id="Node000017" class="node">
<title>Node17</title>
<g id="a_Node000017"><a xlink:href="group__cu__gf__deep__group_ga05c3c7ba138f383b801c11f6022521fc.html#ga05c3c7ba138f383b801c11f6022521fc" target="_top" xlink:title="Finds temperature inversions using the first and second derivative of temperature.">
<polygon fill="white" stroke="#666666" points="308.38,-300.88 178.38,-300.88 178.38,-270.38 308.38,-270.38 308.38,-300.88"/>
<text xml:space="preserve" text-anchor="start" x="186.38" y="-287.38" font-family="Source Sans Pro" font-size="10.00">cu_gf_deep::get_inversion</text>
<text xml:space="preserve" text-anchor="middle" x="243.38" y="-276.12" font-family="Source Sans Pro" font-size="10.00">_layers</text>
</a>
</g>
</g>
<!-- Node1&#45;&gt;Node17 -->
<g id="edge19_Node000001_Node000017" class="edge">
<title>Node1&#45;&gt;Node17</title>
<g id="a_edge19_Node000001_Node000017"><a xlink:title=" ">
<path fill="none" stroke="#63b8ff" d="M75.76,-453.78C87.56,-426.82 124.03,-351.04 177.25,-309.62 178.4,-308.73 179.59,-307.87 180.8,-307.03"/>
<polygon fill="#63b8ff" stroke="#63b8ff" points="182.51,-310.09 189.33,-301.98 178.95,-304.06 182.51,-310.09"/>
</a>
</g>
</g>
<!-- Node18 -->
<g id="Node000018" class="node">
<title>Node18</title>
<g id="a_Node000018"><a xlink:href="group__cu__gf__deep__group_ga3e83c3a033d897332227dcf1820cce9c.html#ga3e83c3a033d897332227dcf1820cce9c" target="_top" xlink:title="Calculates mass entranment and detrainment rates.">
<polygon fill="white" stroke="#666666" points="302,-251.88 184.75,-251.88 184.75,-221.38 302,-221.38 302,-251.88"/>
<text xml:space="preserve" text-anchor="start" x="192.75" y="-238.38" font-family="Source Sans Pro" font-size="10.00">cu_gf_deep::get_lateral</text>
<text xml:space="preserve" text-anchor="middle" x="243.38" y="-227.12" font-family="Source Sans Pro" font-size="10.00">_massflux</text>
</a>
</g>
</g>
<!-- Node1&#45;&gt;Node18 -->
<g id="edge20_Node000001_Node000018" class="edge">
<title>Node1&#45;&gt;Node18</title>
<g id="a_edge20_Node000001_Node000018"><a xlink:title=" ">
<path fill="none" stroke="#63b8ff" d="M74.12,-453.65C82.69,-421.27 114.02,-317.96 177.25,-261.62 178.49,-260.52 179.79,-259.46 181.13,-258.44"/>
<polygon fill="#63b8ff" stroke="#63b8ff" points="182.77,-261.55 189.27,-253.19 178.97,-255.67 182.77,-261.55"/>
</a>
</g>
</g>
<!-- Node19 -->
<g id="Node000019" class="node">
<title>Node19</title>
<g id="a_Node000019"><a xlink:href="group__cu__gf__deep__group_gad0ef609f904a0f485a7e516fcdf1ec91.html#gad0ef609f904a0f485a7e516fcdf1ec91" target="_top" xlink:title="Calculates the melting profile.">
<polygon fill="white" stroke="#666666" points="304.62,-202.88 182.12,-202.88 182.12,-172.38 304.62,-172.38 304.62,-202.88"/>
<text xml:space="preserve" text-anchor="start" x="190.12" y="-189.38" font-family="Source Sans Pro" font-size="10.00">cu_gf_deep::get_melting</text>
<text xml:space="preserve" text-anchor="middle" x="243.38" y="-178.12" font-family="Source Sans Pro" font-size="10.00">_profile</text>
</a>
</g>
</g>
<!-- Node1&#45;&gt;Node19 -->
<g id="edge21_Node000001_Node000019" class="edge">
<title>Node1&#45;&gt;Node19</title>
<g id="a_edge21_Node000001_Node000019"><a xlink:title=" ">
<path fill="none" stroke="#63b8ff" d="M72.98,-453.67C78.57,-416.53 103.05,-284.5 177.25,-212.62 178.3,-211.61 179.4,-210.63 180.54,-209.69"/>
<polygon fill="#63b8ff" stroke="#63b8ff" points="182.42,-212.64 188.67,-204.08 178.45,-206.88 182.42,-212.64"/>
</a>
</g>
</g>
<!-- Node20 -->
<g id="Node000020" class="node">
<title>Node20</title>
<g id="a_Node000020"><a xlink:href="group__cu__gf__deep__group_ga437990517241b0b03f21daf6e08e68d1.html#ga437990517241b0b03f21daf6e08e68d1" target="_top" xlink:title="Calculates the partition between cloud water and cloud ice.">
<polygon fill="white" stroke="#666666" points="306.12,-153.88 180.62,-153.88 180.62,-123.38 306.12,-123.38 306.12,-153.88"/>
<text xml:space="preserve" text-anchor="start" x="188.62" y="-140.38" font-family="Source Sans Pro" font-size="10.00">cu_gf_deep::get_partition</text>
<text xml:space="preserve" text-anchor="middle" x="243.38" y="-129.12" font-family="Source Sans Pro" font-size="10.00">_liq_ice</text>
</a>
</g>
</g>
<!-- Node1&#45;&gt;Node20 -->
<g id="edge22_Node000001_Node000020" class="edge">
<title>Node1&#45;&gt;Node20</title>
<g id="a_edge22_Node000001_Node000020"><a xlink:title=" ">
<path fill="none" stroke="#63b8ff" d="M72.22,-453.53C75.19,-411.85 91.99,-251.31 177.25,-163.62 178.12,-162.74 179.02,-161.88 179.95,-161.05"/>
<polygon fill="#63b8ff" stroke="#63b8ff" points="181.83,-164 187.83,-155.27 177.7,-158.36 181.83,-164"/>
</a>
</g>
</g>
<!-- Node21 -->
<g id="Node000021" class="node">
<title>Node21</title>
<g id="a_Node000021"><a xlink:href="group__cu__gf__deep__group_ga0ea82b4d199c9b93aa5200682dda3685.html#ga0ea82b4d199c9b93aa5200682dda3685" target="_top" xlink:title="Calculates a normalized mass&#45;flux profile for updrafts and downdrafts using the beta function.">
<polygon fill="white" stroke="#666666" points="461.25,-67.88 359.75,-67.88 359.75,-37.38 461.25,-37.38 461.25,-67.88"/>
<text xml:space="preserve" text-anchor="start" x="367.75" y="-54.38" font-family="Source Sans Pro" font-size="10.00">cu_gf_deep::get_zu</text>
<text xml:space="preserve" text-anchor="middle" x="410.5" y="-43.12" font-family="Source Sans Pro" font-size="10.00">_zd_pdf_fim</text>
</a>
</g>
</g>
<!-- Node1&#45;&gt;Node21 -->
<g id="edge23_Node000001_Node000021" class="edge">
<title>Node1&#45;&gt;Node21</title>
<g id="a_edge23_Node000001_Node000021"><a xlink:title=" ">
<path fill="none" stroke="#63b8ff" d="M71.39,-453.56C70.88,-407.34 75.11,-213.45 177.25,-114.62 183.55,-108.53 281.77,-83.69 348.44,-67.37"/>
<polygon fill="#63b8ff" stroke="#63b8ff" points="348.9,-70.85 357.79,-65.08 347.24,-64.05 348.9,-70.85"/>
</a>
</g>
</g>
<!-- Node23 -->
<g id="Node000023" class="node">
<title>Node23</title>
<g id="a_Node000023"><a xlink:href="group__cu__gf__deep__group_gae5806e6d015ae59ce8780ab7d0f3bf12.html#gae5806e6d015ae59ce8780ab7d0f3bf12" target="_top" xlink:title="Calculates rain evaporation below cloud base.">
<polygon fill="white" stroke="#666666" points="300.5,-67.88 186.25,-67.88 186.25,-37.38 300.5,-37.38 300.5,-67.88"/>
<text xml:space="preserve" text-anchor="start" x="194.25" y="-54.38" font-family="Source Sans Pro" font-size="10.00">cu_gf_deep::rain_evap</text>
<text xml:space="preserve" text-anchor="middle" x="243.38" y="-43.12" font-family="Source Sans Pro" font-size="10.00">_below_cloudbase</text>
</a>
</g>
</g>
<!-- Node1&#45;&gt;Node23 -->
<g id="edge26_Node000001_Node000023" class="edge">
<title>Node1&#45;&gt;Node23</title>
<g id="a_edge26_Node000001_Node000023"><a xlink:title=" ">
<path fill="none" stroke="#63b8ff" d="M71.45,-453.66C71.17,-406.04 76.01,-199.21 177.25,-81.62 179.41,-79.12 181.82,-76.82 184.42,-74.71"/>
<polygon fill="#63b8ff" stroke="#63b8ff" points="186.32,-77.65 192.59,-69.12 182.37,-71.88 186.32,-77.65"/>
</a>
</g>
</g>
<!-- Node24 -->
<g id="Node000024" class="node">
<title>Node24</title>
<g id="a_Node000024"><a xlink:href="group__cu__gf__deep__group_ga7ab8f34f0c857d59f7c9b44e7126e83b.html#ga7ab8f34f0c857d59f7c9b44e7126e83b" target="_top" xlink:title="Driver for the normalized mass&#45;flux routine.">
<polygon fill="white" stroke="#666666" points="307.62,-19.25 179.12,-19.25 179.12,0 307.62,0 307.62,-19.25"/>
<text xml:space="preserve" text-anchor="middle" x="243.38" y="-5.75" font-family="Source Sans Pro" font-size="10.00">cu_gf_deep::rates_up_pdf</text>
</a>
</g>
</g>
<!-- Node1&#45;&gt;Node24 -->
<g id="edge27_Node000001_Node000024" class="edge">
<title>Node1&#45;&gt;Node24</title>
<g id="a_edge27_Node000001_Node000024"><a xlink:title=" ">
<path fill="none" stroke="#63b8ff" d="M72.68,-453.85C79.14,-395.49 115.24,-93.53 177.25,-28.62 178.12,-27.71 179.04,-26.84 179.99,-26.01"/>
<polygon fill="#63b8ff" stroke="#63b8ff" points="181.87,-28.97 188.16,-20.44 177.92,-23.18 181.87,-28.97"/>
</a>
</g>
</g>
<!-- Node5 -->
<g id="Node000005" class="node">
<title>Node5</title>
<g id="a_Node000005"><a xlink:href="group__cu__gf__deep__group_ga67f0d8a404e9280703043abc833c487c.html#ga67f0d8a404e9280703043abc833c487c" target="_top" xlink:title="Calculates saturation vapor pressure.">
<polygon fill="white" stroke="#666666" points="461.25,-795.25 359.75,-795.25 359.75,-776 461.25,-776 461.25,-795.25"/>
<text xml:space="preserve" text-anchor="middle" x="410.5" y="-781.75" font-family="Source Sans Pro" font-size="10.00">cu_gf_deep::satvap</text>
</a>
</g>
</g>
<!-- Node4&#45;&gt;Node5 -->
<g id="edge4_Node000004_Node000005" class="edge">
<title>Node4&#45;&gt;Node5</title>
<g id="a_edge4_Node000004_Node000005"><a xlink:title=" ">
<path fill="none" stroke="#63b8ff" d="M297.99,-785.62C314.05,-785.62 331.8,-785.62 348.31,-785.62"/>
<polygon fill="#63b8ff" stroke="#63b8ff" points="348,-789.13 358,-785.63 348,-782.13 348,-789.13"/>
</a>
</g>
</g>
<!-- Node5&#45;&gt;Node5 -->
<g id="edge5_Node000005_Node000005" class="edge">
<title>Node5&#45;&gt;Node5</title>
<g id="a_edge5_Node000005_Node000005"><a xlink:title=" ">
<path fill="none" stroke="#63b8ff" d="M384.34,-795.54C372.4,-804.15 381.12,-813.25 410.5,-813.25 427.02,-813.25 437.01,-810.37 440.47,-806.32"/>
<polygon fill="#63b8ff" stroke="#63b8ff" points="443.8,-805.23 437.17,-796.97 437.19,-807.56 443.8,-805.23"/>
</a>
</g>
</g>
<!-- Node8&#45;&gt;Node9 -->
<g id="edge9_Node000008_Node000009" class="edge">
<title>Node8&#45;&gt;Node9</title>
<g id="a_edge9_Node000008_Node000009"><a xlink:title=" ">
<path fill="none" stroke="#63b8ff" d="M288.19,-652.54C308.61,-647.84 333.13,-642.2 354.75,-637.22"/>
<polygon fill="#63b8ff" stroke="#63b8ff" points="355.33,-640.68 364.29,-635.03 353.76,-633.86 355.33,-640.68"/>
</a>
</g>
</g>
<!-- Node15&#45;&gt;Node9 -->
<g id="edge16_Node000015_Node000009" class="edge">
<title>Node15&#45;&gt;Node9</title>
<g id="a_edge16_Node000015_Node000009"><a xlink:title=" ">
<path fill="none" stroke="#63b8ff" d="M295.49,-386.55C300.58,-389.37 305.38,-392.7 309.5,-396.62 371.26,-455.56 397.25,-559.27 405.9,-603.58"/>
<polygon fill="#63b8ff" stroke="#63b8ff" points="402.45,-604.18 407.7,-613.38 409.33,-602.91 402.45,-604.18"/>
</a>
</g>
</g>
<!-- Node22 -->
<g id="Node000022" class="node">
<title>Node22</title>
<g id="a_Node000022"><a xlink:href="group__cu__gf__deep__group_ga8c1bcf8ed725e281ff0c09744d46b27c.html#ga8c1bcf8ed725e281ff0c09744d46b27c" target="_top" xlink:title=" ">
<polygon fill="white" stroke="#666666" points="644.5,-62.25 511.5,-62.25 511.5,-43 644.5,-43 644.5,-62.25"/>
<text xml:space="preserve" text-anchor="middle" x="578" y="-48.75" font-family="Source Sans Pro" font-size="10.00">cu_gf_deep::my_maxloc1d</text>
</a>
</g>
</g>
<!-- Node21&#45;&gt;Node22 -->
<g id="edge24_Node000021_Node000022" class="edge">
<title>Node21&#45;&gt;Node22</title>
<g id="a_edge24_Node000021_Node000022"><a xlink:title=" ">
<path fill="none" stroke="#63b8ff" d="M461.6,-52.62C473.67,-52.62 486.84,-52.62 499.83,-52.62"/>
<polygon fill="#63b8ff" stroke="#63b8ff" points="499.65,-56.13 509.65,-52.63 499.65,-49.13 499.65,-56.13"/>
</a>
</g>
</g>
<!-- Node22&#45;&gt;Node22 -->
<g id="edge25_Node000022_Node000022" class="edge">
<title>Node22&#45;&gt;Node22</title>
<g id="a_edge25_Node000022_Node000022"><a xlink:title=" ">
<path fill="none" stroke="#63b8ff" d="M551.78,-62.54C539.82,-71.15 548.56,-80.25 578,-80.25 594.56,-80.25 604.57,-77.37 608.03,-73.32"/>
<polygon fill="#63b8ff" stroke="#63b8ff" points="611.36,-72.23 604.73,-63.97 604.76,-74.56 611.36,-72.23"/>
</a>
</g>
</g>
<!-- Node24&#45;&gt;Node21 -->
<g id="edge28_Node000024_Node000021" class="edge">
<title>Node24&#45;&gt;Node21</title>
<g id="a_edge28_Node000024_Node000021"><a xlink:title=" ">
<path fill="none" stroke="#63b8ff" d="M283.09,-19.71C302.58,-24.78 326.66,-31.05 348.56,-36.76"/>
<polygon fill="#63b8ff" stroke="#63b8ff" points="347.42,-40.07 357.98,-39.21 349.18,-33.3 347.42,-40.07"/>
</a>
</g>
</g>
</g>
</svg>
