<?xml version="1.0" encoding="UTF-8" standalone="no"?>
<!DOCTYPE svg PUBLIC "-//W3C//DTD SVG 1.1//EN"
 "http://www.w3.org/Graphics/SVG/1.1/DTD/svg11.dtd">
<!-- Generated by graphviz version 14.1.2 (20260124.0452)
 -->
<!-- Title: yang_2008 Pages: 1 -->
<svg width="785pt" height="188pt"
 viewBox="0.00 0.00 785.00 188.00" xmlns="http://www.w3.org/2000/svg" xmlns:xlink="http://www.w3.org/1999/xlink">
<g id="graph0" class="graph" transform="scale(1 1) rotate(0) translate(4 183.88)">
<title>yang_2008</title>
<!-- Node1 -->
<g id="Node000001" class="node">
<title>Node1</title>
<g id="a_Node000001"><a xlink:title="this is a modified version of yang et al (2002 qjrms, 2008 jamc) and chen et al (2010,...">
<polygon fill="#999999" stroke="#666666" points="777,-86.88 713.75,-86.88 713.75,-67.62 777,-67.62 777,-86.88"/>
<text xml:space="preserve" text-anchor="middle" x="745.38" y="-73.38" font-family="Source Sans Pro" font-size="10.00">yang_2008</text>
</a>
</g>
</g>
<!-- Node2 -->
<g id="Node000002" class="node">
<title>Node2</title>
<g id="a_Node000002"><a xlink:href="group___noah_m_p___l_s_m_ga4a88258da12057ced7c9dc5760b53d13.html#ga4a88258da12057ced7c9dc5760b53d13" target="_top" xlink:title=" ">
<polygon fill="white" stroke="#666666" points="677.75,-86.88 632.5,-86.88 632.5,-67.62 677.75,-67.62 677.75,-86.88"/>
<text xml:space="preserve" text-anchor="middle" x="655.12" y="-73.38" font-family="Source Sans Pro" font-size="10.00">sfcdif4</text>
</a>
</g>
</g>
<!-- Node1&#45;&gt;Node2 -->
<g id="edge1_Node000001_Node000002" class="edge">
<title>Node1&#45;&gt;Node2</title>
<g id="a_edge1_Node000001_Node000002"><a xlink:title=" ">
<path fill="none" stroke="#63b8ff" d="M702.04,-77.25C693.8,-77.25 685.47,-77.25 678.22,-77.25"/>
<polygon fill="#63b8ff" stroke="#63b8ff" points="702,-80.75 712,-77.25 702,-73.75 702,-80.75"/>
</a>
</g>
</g>
<!-- Node3 -->
<g id="Node000003" class="node">
<title>Node3</title>
<g id="a_Node000003"><a xlink:href="group___noah_m_p___l_s_m_gaeb5a9f0cae890fa73e0e17f9b4be30c2.html#gaeb5a9f0cae890fa73e0e17f9b4be30c2" target="_top" xlink:title="use newton&#45;raphson iteration to solve ground (tg) temperature that balances the surface energy budget...">
<polygon fill="white" stroke="#666666" points="562.38,-142.88 506.62,-142.88 506.62,-123.62 562.38,-123.62 562.38,-142.88"/>
<text xml:space="preserve" text-anchor="middle" x="534.5" y="-129.38" font-family="Source Sans Pro" font-size="10.00">bare_flux</text>
</a>
</g>
</g>
<!-- Node2&#45;&gt;Node3 -->
<g id="edge2_Node000002_Node000003" class="edge">
<title>Node2&#45;&gt;Node3</title>
<g id="a_edge2_Node000002_Node000003"><a xlink:title=" ">
<path fill="none" stroke="#63b8ff" d="M632.36,-93.81C621.94,-101.16 609.02,-109.43 596.5,-115.25 585.89,-120.18 573.6,-124.12 562.85,-127.03"/>
<polygon fill="#63b8ff" stroke="#63b8ff" points="634.25,-96.77 640.28,-88.06 630.13,-91.11 634.25,-96.77"/>
</a>
</g>
</g>
<!-- Node6 -->
<g id="Node000006" class="node">
<title>Node6</title>
<g id="a_Node000006"><a xlink:href="group___noah_m_p___l_s_m_ga0e44f72a92d8830344fecdb9fb65e6fb.html#ga0e44f72a92d8830344fecdb9fb65e6fb" target="_top" xlink:title="This subroutine is the main CCPP entry point for the NoahMP LSM.">
<polygon fill="white" stroke="#666666" points="82.75,-123.88 0,-123.88 0,-104.62 82.75,-104.62 82.75,-123.88"/>
<text xml:space="preserve" text-anchor="middle" x="41.38" y="-110.38" font-family="Source Sans Pro" font-size="10.00">noahmpdrv_run</text>
</a>
</g>
</g>
<!-- Node2&#45;&gt;Node6 -->
<g id="edge11_Node000002_Node000006" class="edge">
<title>Node2&#45;&gt;Node6</title>
<g id="a_edge11_Node000002_Node000006"><a xlink:title=" ">
<path fill="none" stroke="#63b8ff" d="M620.83,-72.16C535.81,-60.24 304.37,-34.66 118.75,-77.25 96.2,-82.42 72.59,-95.17 57.69,-104.25"/>
<polygon fill="#63b8ff" stroke="#63b8ff" points="620.16,-75.6 630.56,-73.56 621.16,-68.67 620.16,-75.6"/>
</a>
</g>
</g>
<!-- Node9 -->
<g id="Node000009" class="node">
<title>Node9</title>
<g id="a_Node000009"><a xlink:href="group___noah_m_p___l_s_m_gaf512c10513f75c077220936b2ca74c42.html#gaf512c10513f75c077220936b2ca74c42" target="_top" xlink:title="use newton&#45;raphson iteration to solve ground (tg) temperature that balances the surface energy budget...">
<polygon fill="white" stroke="#666666" points="596.5,-30.5 472.5,-30.5 472.5,0 596.5,0 596.5,-30.5"/>
<text xml:space="preserve" text-anchor="start" x="480.5" y="-17" font-family="Source Sans Pro" font-size="10.00">noahmp_glacier_routines</text>
<text xml:space="preserve" text-anchor="middle" x="534.5" y="-5.75" font-family="Source Sans Pro" font-size="10.00">::glacier_flux</text>
</a>
</g>
</g>
<!-- Node2&#45;&gt;Node9 -->
<g id="edge8_Node000002_Node000009" class="edge">
<title>Node2&#45;&gt;Node9</title>
<g id="a_edge8_Node000002_Node000009"><a xlink:title=" ">
<path fill="none" stroke="#63b8ff" d="M627.78,-61.6C618.04,-55.96 606.85,-49.67 596.5,-44.25 587.88,-39.74 578.43,-35.1 569.61,-30.9"/>
<polygon fill="#63b8ff" stroke="#63b8ff" points="625.96,-64.59 636.36,-66.62 629.49,-58.55 625.96,-64.59"/>
</a>
</g>
</g>
<!-- Node12 -->
<g id="Node000012" class="node">
<title>Node12</title>
<g id="a_Node000012"><a xlink:href="group___noah_m_p___l_s_m_gadf2b2287685bf9c610afdb949c1c6cdb.html#gadf2b2287685bf9c610afdb949c1c6cdb" target="_top" xlink:title="use newton&#45;raphson iteration to solve for vegetation (tv) and ground (tg) temperatures that balance t...">
<polygon fill="white" stroke="#666666" points="563.5,-105.88 505.5,-105.88 505.5,-86.62 563.5,-86.62 563.5,-105.88"/>
<text xml:space="preserve" text-anchor="middle" x="534.5" y="-92.38" font-family="Source Sans Pro" font-size="10.00">vege_flux</text>
</a>
</g>
</g>
<!-- Node2&#45;&gt;Node12 -->
<g id="edge12_Node000002_Node000012" class="edge">
<title>Node2&#45;&gt;Node12</title>
<g id="a_edge12_Node000002_Node000012"><a xlink:title=" ">
<path fill="none" stroke="#63b8ff" d="M620.92,-82.57C602.91,-85.45 580.88,-88.98 563.71,-91.73"/>
<polygon fill="#63b8ff" stroke="#63b8ff" points="621.28,-86.06 630.6,-81.02 620.17,-79.14 621.28,-86.06"/>
</a>
</g>
</g>
<!-- Node4 -->
<g id="Node000004" class="node">
<title>Node4</title>
<g id="a_Node000004"><a xlink:href="group___noah_m_p___l_s_m_ga2698d46b5582d11d0d6fc78d49dd796c.html#ga2698d46b5582d11d0d6fc78d49dd796c" target="_top" xlink:title="We use different approaches to deal with subgrid features of radiation transfer and turbulent transfe...">
<polygon fill="white" stroke="#666666" points="397.12,-142.88 351.88,-142.88 351.88,-123.62 397.12,-123.62 397.12,-142.88"/>
<text xml:space="preserve" text-anchor="middle" x="374.5" y="-129.38" font-family="Source Sans Pro" font-size="10.00">energy</text>
</a>
</g>
</g>
<!-- Node3&#45;&gt;Node4 -->
<g id="edge3_Node000003_Node000004" class="edge">
<title>Node3&#45;&gt;Node4</title>
<g id="a_edge3_Node000003_Node000004"><a xlink:title=" ">
<path fill="none" stroke="#63b8ff" d="M495.17,-133.25C464.45,-133.25 422.44,-133.25 397.23,-133.25"/>
<polygon fill="#63b8ff" stroke="#63b8ff" points="494.83,-136.75 504.83,-133.25 494.83,-129.75 494.83,-136.75"/>
</a>
</g>
</g>
<!-- Node5 -->
<g id="Node000005" class="node">
<title>Node5</title>
<g id="a_Node000005"><a xlink:href="group___noah_m_p___l_s_m_gab480f7969dad27ce9e00e559f82c464e.html#gab480f7969dad27ce9e00e559f82c464e" target="_top" xlink:title=" ">
<polygon fill="white" stroke="#666666" points="233.38,-179.88 161.88,-179.88 161.88,-160.62 233.38,-160.62 233.38,-179.88"/>
<text xml:space="preserve" text-anchor="middle" x="197.62" y="-166.38" font-family="Source Sans Pro" font-size="10.00">noahmp_sflx</text>
</a>
</g>
</g>
<!-- Node4&#45;&gt;Node5 -->
<g id="edge4_Node000004_Node000005" class="edge">
<title>Node4&#45;&gt;Node5</title>
<g id="a_edge4_Node000004_Node000005"><a xlink:title=" ">
<path fill="none" stroke="#63b8ff" d="M340.81,-140.17C310.31,-146.62 264.96,-156.22 233.71,-162.83"/>
<polygon fill="#63b8ff" stroke="#63b8ff" points="341.17,-143.67 350.22,-138.17 339.72,-136.82 341.17,-143.67"/>
</a>
</g>
</g>
<!-- Node7 -->
<g id="Node000007" class="node">
<title>Node7</title>
<g id="a_Node000007"><a xlink:href="group___s_a_m_fdeep_ga5e834dec0932a16a98b7d90fd69a9c70.html#ga5e834dec0932a16a98b7d90fd69a9c70" target="_top" xlink:title=" ">
<polygon fill="white" stroke="#666666" points="276.5,-142.88 118.75,-142.88 118.75,-123.62 276.5,-123.62 276.5,-142.88"/>
<text xml:space="preserve" text-anchor="middle" x="197.62" y="-129.38" font-family="Source Sans Pro" font-size="10.00">samfdeepcnv::samfdeepcnv_run</text>
</a>
</g>
</g>
<!-- Node4&#45;&gt;Node7 -->
<g id="edge6_Node000004_Node000007" class="edge">
<title>Node4&#45;&gt;Node7</title>
<g id="a_edge6_Node000004_Node000007"><a xlink:title=" ">
<path fill="none" stroke="#63b8ff" d="M340.35,-133.25C322.27,-133.25 299.07,-133.25 276.7,-133.25"/>
<polygon fill="#63b8ff" stroke="#63b8ff" points="340.19,-136.75 350.19,-133.25 340.19,-129.75 340.19,-136.75"/>
</a>
</g>
</g>
<!-- Node8 -->
<g id="Node000008" class="node">
<title>Node8</title>
<g id="a_Node000008"><a xlink:href="group___s_a_m_f__shal_gaf2534c328553470068a75a9aa56b7d56.html#gaf2534c328553470068a75a9aa56b7d56" target="_top" xlink:title=" ">
<polygon fill="white" stroke="#666666" points="273.5,-105.88 121.75,-105.88 121.75,-86.62 273.5,-86.62 273.5,-105.88"/>
<text xml:space="preserve" text-anchor="middle" x="197.62" y="-92.38" font-family="Source Sans Pro" font-size="10.00">samfshalcnv::samfshalcnv_run</text>
</a>
</g>
</g>
<!-- Node4&#45;&gt;Node8 -->
<g id="edge7_Node000004_Node000008" class="edge">
<title>Node4&#45;&gt;Node8</title>
<g id="a_edge7_Node000004_Node000008"><a xlink:title=" ">
<path fill="none" stroke="#63b8ff" d="M340.72,-126.31C314.17,-120.7 276.39,-112.7 246.47,-106.37"/>
<polygon fill="#63b8ff" stroke="#63b8ff" points="339.72,-129.68 350.22,-128.33 341.17,-122.83 339.72,-129.68"/>
</a>
</g>
</g>
<!-- Node5&#45;&gt;Node6 -->
<g id="edge5_Node000005_Node000006" class="edge">
<title>Node5&#45;&gt;Node6</title>
<g id="a_edge5_Node000005_Node000006"><a xlink:title=" ">
<path fill="none" stroke="#63b8ff" d="M150.44,-161.46C139.89,-158.93 128.82,-155.86 118.75,-152.25 97.7,-144.7 74.91,-132.84 59.76,-124.37"/>
<polygon fill="#63b8ff" stroke="#63b8ff" points="149.62,-164.86 160.14,-163.65 151.16,-158.03 149.62,-164.86"/>
</a>
</g>
</g>
<!-- Node10 -->
<g id="Node000010" class="node">
<title>Node10</title>
<g id="a_Node000010"><a xlink:href="group___noah_m_p___l_s_m_ga93dd9aedd32004c8cf2c88c222073c6a.html#ga93dd9aedd32004c8cf2c88c222073c6a" target="_top" xlink:title="Compute energy budget (momentum &amp; energy fluxes and phase changes).">
<polygon fill="white" stroke="#666666" points="436.5,-30.5 312.5,-30.5 312.5,0 436.5,0 436.5,-30.5"/>
<text xml:space="preserve" text-anchor="start" x="320.5" y="-17" font-family="Source Sans Pro" font-size="10.00">noahmp_glacier_routines</text>
<text xml:space="preserve" text-anchor="middle" x="374.5" y="-5.75" font-family="Source Sans Pro" font-size="10.00">::energy_glacier</text>
</a>
</g>
</g>
<!-- Node9&#45;&gt;Node10 -->
<g id="edge9_Node000009_Node000010" class="edge">
<title>Node9&#45;&gt;Node10</title>
<g id="a_edge9_Node000009_Node000010"><a xlink:title=" ">
<path fill="none" stroke="#63b8ff" d="M461.1,-15.25C453.03,-15.25 444.86,-15.25 436.95,-15.25"/>
<polygon fill="#63b8ff" stroke="#63b8ff" points="460.9,-18.75 470.9,-15.25 460.9,-11.75 460.9,-18.75"/>
</a>
</g>
</g>
<!-- Node11 -->
<g id="Node000011" class="node">
<title>Node11</title>
<g id="a_Node000011"><a xlink:href="group___noah_m_p___l_s_m_ga86c69e134a41160e0c6f06bfb3a654a6.html#ga86c69e134a41160e0c6f06bfb3a654a6" target="_top" xlink:title=" ">
<polygon fill="white" stroke="#666666" points="259.62,-30.5 135.62,-30.5 135.62,0 259.62,0 259.62,-30.5"/>
<text xml:space="preserve" text-anchor="start" x="143.62" y="-17" font-family="Source Sans Pro" font-size="10.00">noahmp_glacier_routines</text>
<text xml:space="preserve" text-anchor="middle" x="197.62" y="-5.75" font-family="Source Sans Pro" font-size="10.00">::noahmp_glacier</text>
</a>
</g>
</g>
<!-- Node10&#45;&gt;Node11 -->
<g id="edge10_Node000010_Node000011" class="edge">
<title>Node10&#45;&gt;Node11</title>
<g id="a_edge10_Node000010_Node000011"><a xlink:title=" ">
<path fill="none" stroke="#63b8ff" d="M301.04,-15.25C287.42,-15.25 273.3,-15.25 260.05,-15.25"/>
<polygon fill="#63b8ff" stroke="#63b8ff" points="300.82,-18.75 310.82,-15.25 300.82,-11.75 300.82,-18.75"/>
</a>
</g>
</g>
<!-- Node12&#45;&gt;Node4 -->
<g id="edge13_Node000012_Node000004" class="edge">
<title>Node12&#45;&gt;Node4</title>
<g id="a_edge13_Node000012_Node000004"><a xlink:title=" ">
<path fill="none" stroke="#63b8ff" d="M494.12,-105.47C463.56,-112.63 422.34,-122.28 397.4,-128.12"/>
<polygon fill="#63b8ff" stroke="#63b8ff" points="494.84,-108.9 503.78,-103.21 493.24,-102.08 494.84,-108.9"/>
</a>
</g>
</g>
</g>
</svg>
