<?xml version="1.0" encoding="UTF-8" standalone="no"?>
<!DOCTYPE svg PUBLIC "-//W3C//DTD SVG 1.1//EN"
 "http://www.w3.org/Graphics/SVG/1.1/DTD/svg11.dtd">
<!-- Generated by graphviz version 14.1.2 (20260124.0452)
 -->
<!-- Title: thermalz0 Pages: 1 -->
<svg width="555pt" height="103pt"
 viewBox="0.00 0.00 555.00 103.00" xmlns="http://www.w3.org/2000/svg" xmlns:xlink="http://www.w3.org/1999/xlink">
<g id="graph0" class="graph" transform="scale(1 1) rotate(0) translate(4 99.25)">
<title>thermalz0</title>
<!-- Node1 -->
<g id="Node000001" class="node">
<title>Node1</title>
<g id="a_Node000001"><a xlink:title=" ">
<polygon fill="#999999" stroke="#666666" points="546.5,-57.25 487.75,-57.25 487.75,-38 546.5,-38 546.5,-57.25"/>
<text xml:space="preserve" text-anchor="middle" x="517.12" y="-43.75" font-family="Source Sans Pro" font-size="10.00">thermalz0</text>
</a>
</g>
</g>
<!-- Node2 -->
<g id="Node000002" class="node">
<title>Node2</title>
<g id="a_Node000002"><a xlink:href="group___noah_m_p___l_s_m_gaeb5a9f0cae890fa73e0e17f9b4be30c2.html#gaeb5a9f0cae890fa73e0e17f9b4be30c2" target="_top" xlink:title="use newton&#45;raphson iteration to solve ground (tg) temperature that balances the surface energy budget...">
<polygon fill="white" stroke="#666666" points="450.62,-95.25 394.88,-95.25 394.88,-76 450.62,-76 450.62,-95.25"/>
<text xml:space="preserve" text-anchor="middle" x="422.75" y="-81.75" font-family="Source Sans Pro" font-size="10.00">bare_flux</text>
</a>
</g>
</g>
<!-- Node1&#45;&gt;Node2 -->
<g id="edge1_Node000001_Node000002" class="edge">
<title>Node1&#45;&gt;Node2</title>
<g id="a_edge1_Node000001_Node000002"><a xlink:title=" ">
<path fill="none" stroke="#63b8ff" d="M481.25,-61.97C470.23,-66.5 458.3,-71.41 448.18,-75.58"/>
<polygon fill="#63b8ff" stroke="#63b8ff" points="482.54,-65.23 490.45,-58.18 479.88,-58.75 482.54,-65.23"/>
</a>
</g>
</g>
<!-- Node3 -->
<g id="Node000003" class="node">
<title>Node3</title>
<g id="a_Node000003"><a xlink:href="group___noah_m_p___l_s_m_ga2698d46b5582d11d0d6fc78d49dd796c.html#ga2698d46b5582d11d0d6fc78d49dd796c" target="_top" xlink:title="We use different approaches to deal with subgrid features of radiation transfer and turbulent transfe...">
<polygon fill="white" stroke="#666666" points="357.75,-57.25 312.5,-57.25 312.5,-38 357.75,-38 357.75,-57.25"/>
<text xml:space="preserve" text-anchor="middle" x="335.12" y="-43.75" font-family="Source Sans Pro" font-size="10.00">energy</text>
</a>
</g>
</g>
<!-- Node1&#45;&gt;Node3 -->
<g id="edge7_Node000001_Node000003" class="edge">
<title>Node1&#45;&gt;Node3</title>
<g id="a_edge7_Node000001_Node000003"><a xlink:title=" ">
<path fill="none" stroke="#63b8ff" d="M476.39,-47.62C439.96,-47.62 387.34,-47.62 358,-47.62"/>
<polygon fill="#63b8ff" stroke="#63b8ff" points="476.09,-51.13 486.09,-47.63 476.09,-44.13 476.09,-51.13"/>
</a>
</g>
</g>
<!-- Node8 -->
<g id="Node000008" class="node">
<title>Node8</title>
<g id="a_Node000008"><a xlink:href="group___noah_m_p___l_s_m_gadf2b2287685bf9c610afdb949c1c6cdb.html#gadf2b2287685bf9c610afdb949c1c6cdb" target="_top" xlink:title="use newton&#45;raphson iteration to solve for vegetation (tv) and ground (tg) temperatures that balance t...">
<polygon fill="white" stroke="#666666" points="451.75,-19.25 393.75,-19.25 393.75,0 451.75,0 451.75,-19.25"/>
<text xml:space="preserve" text-anchor="middle" x="422.75" y="-5.75" font-family="Source Sans Pro" font-size="10.00">vege_flux</text>
</a>
</g>
</g>
<!-- Node1&#45;&gt;Node8 -->
<g id="edge8_Node000001_Node000008" class="edge">
<title>Node1&#45;&gt;Node8</title>
<g id="a_edge8_Node000001_Node000008"><a xlink:title=" ">
<path fill="none" stroke="#63b8ff" d="M481.25,-33.28C470.23,-28.75 458.3,-23.84 448.18,-19.67"/>
<polygon fill="#63b8ff" stroke="#63b8ff" points="479.88,-36.5 490.45,-37.07 482.54,-30.02 479.88,-36.5"/>
</a>
</g>
</g>
<!-- Node2&#45;&gt;Node3 -->
<g id="edge2_Node000002_Node000003" class="edge">
<title>Node2&#45;&gt;Node3</title>
<g id="a_edge2_Node000002_Node000003"><a xlink:title=" ">
<path fill="none" stroke="#63b8ff" d="M388.93,-71.06C378.64,-66.49 367.54,-61.56 358.18,-57.41"/>
<polygon fill="#63b8ff" stroke="#63b8ff" points="387.31,-74.17 397.87,-75.03 390.15,-67.77 387.31,-74.17"/>
</a>
</g>
</g>
<!-- Node4 -->
<g id="Node000004" class="node">
<title>Node4</title>
<g id="a_Node000004"><a xlink:href="group___noah_m_p___l_s_m_gab480f7969dad27ce9e00e559f82c464e.html#gab480f7969dad27ce9e00e559f82c464e" target="_top" xlink:title=" ">
<polygon fill="white" stroke="#666666" points="233.38,-94.25 161.88,-94.25 161.88,-75 233.38,-75 233.38,-94.25"/>
<text xml:space="preserve" text-anchor="middle" x="197.62" y="-80.75" font-family="Source Sans Pro" font-size="10.00">noahmp_sflx</text>
</a>
</g>
</g>
<!-- Node3&#45;&gt;Node4 -->
<g id="edge3_Node000003_Node000004" class="edge">
<title>Node3&#45;&gt;Node4</title>
<g id="a_edge3_Node000003_Node000004"><a xlink:title=" ">
<path fill="none" stroke="#63b8ff" d="M301.23,-59.05C293.18,-61.68 284.57,-64.37 276.5,-66.62 262.6,-70.51 247.14,-74.21 233.69,-77.24"/>
<polygon fill="#63b8ff" stroke="#63b8ff" points="302.3,-62.38 310.67,-55.89 300.08,-55.74 302.3,-62.38"/>
</a>
</g>
</g>
<!-- Node6 -->
<g id="Node000006" class="node">
<title>Node6</title>
<g id="a_Node000006"><a xlink:href="group___s_a_m_fdeep_ga5e834dec0932a16a98b7d90fd69a9c70.html#ga5e834dec0932a16a98b7d90fd69a9c70" target="_top" xlink:title=" ">
<polygon fill="white" stroke="#666666" points="276.5,-57.25 118.75,-57.25 118.75,-38 276.5,-38 276.5,-57.25"/>
<text xml:space="preserve" text-anchor="middle" x="197.62" y="-43.75" font-family="Source Sans Pro" font-size="10.00">samfdeepcnv::samfdeepcnv_run</text>
</a>
</g>
</g>
<!-- Node3&#45;&gt;Node6 -->
<g id="edge5_Node000003_Node000006" class="edge">
<title>Node3&#45;&gt;Node6</title>
<g id="a_edge5_Node000003_Node000006"><a xlink:title=" ">
<path fill="none" stroke="#63b8ff" d="M300.79,-47.62C293.42,-47.62 285.3,-47.62 276.96,-47.62"/>
<polygon fill="#63b8ff" stroke="#63b8ff" points="300.54,-51.13 310.54,-47.63 300.54,-44.13 300.54,-51.13"/>
</a>
</g>
</g>
<!-- Node7 -->
<g id="Node000007" class="node">
<title>Node7</title>
<g id="a_Node000007"><a xlink:href="group___s_a_m_f__shal_gaf2534c328553470068a75a9aa56b7d56.html#gaf2534c328553470068a75a9aa56b7d56" target="_top" xlink:title=" ">
<polygon fill="white" stroke="#666666" points="273.5,-20.25 121.75,-20.25 121.75,-1 273.5,-1 273.5,-20.25"/>
<text xml:space="preserve" text-anchor="middle" x="197.62" y="-6.75" font-family="Source Sans Pro" font-size="10.00">samfshalcnv::samfshalcnv_run</text>
</a>
</g>
</g>
<!-- Node3&#45;&gt;Node7 -->
<g id="edge6_Node000003_Node000007" class="edge">
<title>Node3&#45;&gt;Node7</title>
<g id="a_edge6_Node000003_Node000007"><a xlink:title=" ">
<path fill="none" stroke="#63b8ff" d="M301.23,-36.2C293.18,-33.57 284.57,-30.88 276.5,-28.62 266.48,-25.82 255.64,-23.11 245.33,-20.69"/>
<polygon fill="#63b8ff" stroke="#63b8ff" points="300.08,-39.51 310.67,-39.36 302.3,-32.87 300.08,-39.51"/>
</a>
</g>
</g>
<!-- Node5 -->
<g id="Node000005" class="node">
<title>Node5</title>
<g id="a_Node000005"><a xlink:href="group___noah_m_p___l_s_m_ga0e44f72a92d8830344fecdb9fb65e6fb.html#ga0e44f72a92d8830344fecdb9fb65e6fb" target="_top" xlink:title="This subroutine is the main CCPP entry point for the NoahMP LSM.">
<polygon fill="white" stroke="#666666" points="82.75,-94.25 0,-94.25 0,-75 82.75,-75 82.75,-94.25"/>
<text xml:space="preserve" text-anchor="middle" x="41.38" y="-80.75" font-family="Source Sans Pro" font-size="10.00">noahmpdrv_run</text>
</a>
</g>
</g>
<!-- Node4&#45;&gt;Node5 -->
<g id="edge4_Node000004_Node000005" class="edge">
<title>Node4&#45;&gt;Node5</title>
<g id="a_edge4_Node000004_Node000005"><a xlink:title=" ">
<path fill="none" stroke="#63b8ff" d="M150.22,-84.62C128.9,-84.62 103.84,-84.62 83.25,-84.62"/>
<polygon fill="#63b8ff" stroke="#63b8ff" points="150.11,-88.13 160.11,-84.63 150.11,-81.13 150.11,-88.13"/>
</a>
</g>
</g>
<!-- Node8&#45;&gt;Node3 -->
<g id="edge9_Node000008_Node000003" class="edge">
<title>Node8&#45;&gt;Node3</title>
<g id="a_edge9_Node000008_Node000003"><a xlink:title=" ">
<path fill="none" stroke="#63b8ff" d="M388.93,-24.19C378.64,-28.76 367.54,-33.69 358.18,-37.84"/>
<polygon fill="#63b8ff" stroke="#63b8ff" points="390.15,-27.48 397.87,-20.22 387.31,-21.08 390.15,-27.48"/>
</a>
</g>
</g>
</g>
</svg>
