<?xml version="1.0" encoding="UTF-8" standalone="no"?>
<!DOCTYPE svg PUBLIC "-//W3C//DTD SVG 1.1//EN"
 "http://www.w3.org/Graphics/SVG/1.1/DTD/svg11.dtd">
<!-- Generated by graphviz version 14.1.2 (20260124.0452)
 -->
<!-- Title: module_mp_nssl_2mom::nssl_2mom_init Pages: 1 -->
<svg width="445pt" height="362pt"
 viewBox="0.00 0.00 445.00 362.00" xmlns="http://www.w3.org/2000/svg" xmlns:xlink="http://www.w3.org/1999/xlink">

<svg id="main" version="1.1" xmlns="http://www.w3.org/2000/svg" xmlns:xlink="http://www.w3.org/1999/xlink" xml:space="preserve">

<style type="text/css"><![CDATA[
.node, .edge {opacity: 0.7;}
.node.selected, .edge.selected {opacity: 1;}
.edge:hover path { stroke: red; }
.edge:hover polygon { stroke: red; fill: red; }
]]></style>
<script type="application/ecmascript" xlink:href="svg.min.js"/>
<svg id="graph" class="graph">
<g id="graph0" class="graph" transform="scale(1 1) rotate(0) translate(4 357.5)">
<title>module_mp_nssl_2mom::nssl_2mom_init</title>
<!-- Node1 -->
<g id="Node000001" class="node">
<title>Node1</title>
<g id="a_Node000001"><a xlink:title="NSSL MP setup routine (sets local options and array indices).">
<polygon fill="#999999" stroke="#666666" points="121.75,-194.5 0,-194.5 0,-164 121.75,-164 121.75,-194.5"/>
<text xml:space="preserve" text-anchor="start" x="8" y="-181" font-family="Source Sans Pro" font-size="10.00">module_mp_nssl_2mom</text>
<text xml:space="preserve" text-anchor="middle" x="60.88" y="-169.75" font-family="Source Sans Pro" font-size="10.00">::nssl_2mom_init</text>
</a>
</g>
</g>
<!-- Node2 -->
<g id="Node000002" class="node">
<title>Node2</title>
<g id="a_Node000002"><a xlink:href="group__mod__nsslmp_gacfb4b38156737aa351dcc8dd1a3492c5.html#gacfb4b38156737aa351dcc8dd1a3492c5" target="_top" xlink:title="Function calculates collection coefficients following Siefert (2006).">
<polygon fill="white" stroke="#666666" points="279.5,-335.5 157.75,-335.5 157.75,-305 279.5,-305 279.5,-335.5"/>
<text xml:space="preserve" text-anchor="start" x="165.75" y="-322" font-family="Source Sans Pro" font-size="10.00">module_mp_nssl_2mom</text>
<text xml:space="preserve" text-anchor="middle" x="218.62" y="-310.75" font-family="Source Sans Pro" font-size="10.00">::delabk</text>
</a>
</g>
</g>
<!-- Node1&#45;&gt;Node2 -->
<g id="edge1_Node000001_Node000002" class="edge">
<title>Node1&#45;&gt;Node2</title>
<g id="a_edge1_Node000001_Node000002"><a xlink:title=" ">
<path fill="none" stroke="#63b8ff" d="M71.2,-194.82C86.5,-219.22 119.13,-266.62 157.75,-295.25 159.51,-296.56 161.36,-297.81 163.26,-299.01"/>
<polygon fill="#63b8ff" stroke="#63b8ff" points="161.37,-301.97 171.8,-303.83 164.81,-295.87 161.37,-301.97"/>
</a>
</g>
</g>
<!-- Node3 -->
<g id="Node000003" class="node">
<title>Node3</title>
<g id="a_Node000003"><a xlink:href="group__mod__nsslmp_ga0dabeda97fcbc7690787bb712eb2c267.html#ga0dabeda97fcbc7690787bb712eb2c267" target="_top" xlink:title="Function calculates collection coefficients following Siefert (2006).">
<polygon fill="white" stroke="#666666" points="279.5,-268.5 157.75,-268.5 157.75,-238 279.5,-238 279.5,-268.5"/>
<text xml:space="preserve" text-anchor="start" x="165.75" y="-255" font-family="Source Sans Pro" font-size="10.00">module_mp_nssl_2mom</text>
<text xml:space="preserve" text-anchor="middle" x="218.62" y="-243.75" font-family="Source Sans Pro" font-size="10.00">::delbk</text>
</a>
</g>
</g>
<!-- Node1&#45;&gt;Node3 -->
<g id="edge3_Node000001_Node000003" class="edge">
<title>Node1&#45;&gt;Node3</title>
<g id="a_edge3_Node000001_Node000003"><a xlink:title=" ">
<path fill="none" stroke="#63b8ff" d="M94.91,-194.94C118.03,-205.93 149.17,-220.72 174.29,-232.66"/>
<polygon fill="#63b8ff" stroke="#63b8ff" points="172.74,-235.8 183.27,-236.93 175.74,-229.48 172.74,-235.8"/>
</a>
</g>
</g>
<!-- Node4 -->
<g id="Node000004" class="node">
<title>Node4</title>
<g id="a_Node000004"><a xlink:href="group__mod__nsslmp_ga316422c2efdacd1dbdc0c1418350eaf6.html#ga316422c2efdacd1dbdc0c1418350eaf6" target="_top" xlink:title="Douple&#45;precision complete gamma function (double precision argument).">
<polygon fill="white" stroke="#666666" points="437.25,-164.5 315.5,-164.5 315.5,-134 437.25,-134 437.25,-164.5"/>
<text xml:space="preserve" text-anchor="start" x="323.5" y="-151" font-family="Source Sans Pro" font-size="10.00">module_mp_nssl_2mom</text>
<text xml:space="preserve" text-anchor="middle" x="376.38" y="-139.75" font-family="Source Sans Pro" font-size="10.00">::gamma_dp</text>
</a>
</g>
</g>
<!-- Node1&#45;&gt;Node4 -->
<g id="edge5_Node000001_Node000004" class="edge">
<title>Node1&#45;&gt;Node4</title>
<g id="a_edge5_Node000001_Node000004"><a xlink:title=" ">
<path fill="none" stroke="#63b8ff" d="M122.09,-190.89C166.13,-197.4 227.09,-202.23 279.5,-191.25 299.53,-187.05 320.49,-178.42 337.69,-170.07"/>
<polygon fill="#63b8ff" stroke="#63b8ff" points="339.16,-173.25 346.52,-165.62 336.01,-166.99 339.16,-173.25"/>
</a>
</g>
</g>
<!-- Node5 -->
<g id="Node000005" class="node">
<title>Node5</title>
<g id="a_Node000005"><a xlink:href="group__mod__nsslmp_ga4769e7fe84d08e5a07e8f9ea56914762.html#ga4769e7fe84d08e5a07e8f9ea56914762" target="_top" xlink:title="Douple&#45;precision complete gamma function (single precision input).">
<polygon fill="white" stroke="#666666" points="279.5,-164.5 157.75,-164.5 157.75,-134 279.5,-134 279.5,-164.5"/>
<text xml:space="preserve" text-anchor="start" x="165.75" y="-151" font-family="Source Sans Pro" font-size="10.00">module_mp_nssl_2mom</text>
<text xml:space="preserve" text-anchor="middle" x="218.62" y="-139.75" font-family="Source Sans Pro" font-size="10.00">::gamma_dpr</text>
</a>
</g>
</g>
<!-- Node1&#45;&gt;Node5 -->
<g id="edge7_Node000001_Node000005" class="edge">
<title>Node1&#45;&gt;Node5</title>
<g id="a_edge7_Node000001_Node000005"><a xlink:title=" ">
<path fill="none" stroke="#63b8ff" d="M122.09,-167.65C129.95,-166.14 138.05,-164.58 146.07,-163.03"/>
<polygon fill="#63b8ff" stroke="#63b8ff" points="146.67,-166.48 155.83,-161.15 145.34,-159.61 146.67,-166.48"/>
</a>
</g>
</g>
<!-- Node6 -->
<g id="Node000006" class="node">
<title>Node6</title>
<g id="a_Node000006"><a xlink:href="group__mod__nsslmp_ga966c94b788d8e8958fff525003f48fd9.html#ga966c94b788d8e8958fff525003f48fd9" target="_top" xlink:title="Single&#45;precision complete gamma function.">
<polygon fill="white" stroke="#666666" points="279.5,-97.5 157.75,-97.5 157.75,-67 279.5,-67 279.5,-97.5"/>
<text xml:space="preserve" text-anchor="start" x="165.75" y="-84" font-family="Source Sans Pro" font-size="10.00">module_mp_nssl_2mom</text>
<text xml:space="preserve" text-anchor="middle" x="218.62" y="-72.75" font-family="Source Sans Pro" font-size="10.00">::gamma_sp</text>
</a>
</g>
</g>
<!-- Node1&#45;&gt;Node6 -->
<g id="edge10_Node000001_Node000006" class="edge">
<title>Node1&#45;&gt;Node6</title>
<g id="a_edge10_Node000001_Node000006"><a xlink:title=" ">
<path fill="none" stroke="#63b8ff" d="M86.9,-163.67C112.82,-147.52 153.54,-122.16 182.64,-104.04"/>
<polygon fill="#63b8ff" stroke="#63b8ff" points="184.48,-107.01 191.12,-98.76 180.78,-101.07 184.48,-107.01"/>
</a>
</g>
</g>
<!-- Node7 -->
<g id="Node000007" class="node">
<title>Node7</title>
<g id="a_Node000007"><a xlink:href="group__mod__nsslmp_gaaf4043a7ae72d6c12e0326a9d3c16dd0.html#gaaf4043a7ae72d6c12e0326a9d3c16dd0" target="_top" xlink:title="Double&#45;precision incomplete gamma function (single precision args).">
<polygon fill="white" stroke="#666666" points="279.5,-30.5 157.75,-30.5 157.75,0 279.5,0 279.5,-30.5"/>
<text xml:space="preserve" text-anchor="start" x="165.75" y="-17" font-family="Source Sans Pro" font-size="10.00">module_mp_nssl_2mom</text>
<text xml:space="preserve" text-anchor="middle" x="218.62" y="-5.75" font-family="Source Sans Pro" font-size="10.00">::gamxinfdp</text>
</a>
</g>
</g>
<!-- Node1&#45;&gt;Node7 -->
<g id="edge12_Node000001_Node000007" class="edge">
<title>Node1&#45;&gt;Node7</title>
<g id="a_edge12_Node000001_Node000007"><a xlink:title=" ">
<path fill="none" stroke="#63b8ff" d="M72.16,-163.6C88.52,-139.39 122.26,-92.1 157.75,-58.25 165.5,-50.85 174.59,-43.7 183.31,-37.41"/>
<polygon fill="#63b8ff" stroke="#63b8ff" points="185.1,-40.43 191.3,-31.83 181.1,-34.69 185.1,-40.43"/>
</a>
</g>
</g>
<!-- Node2&#45;&gt;Node2 -->
<g id="edge2_Node000002_Node000002" class="edge">
<title>Node2&#45;&gt;Node2</title>
<g id="a_edge2_Node000002_Node000002"><a xlink:title=" ">
<path fill="none" stroke="#63b8ff" d="M190.67,-335.99C184.97,-345.06 194.28,-353.5 218.62,-353.5 231.94,-353.5 240.75,-350.97 245.08,-347.2"/>
<polygon fill="#63b8ff" stroke="#63b8ff" points="248.52,-347.86 246.38,-337.49 241.58,-346.93 248.52,-347.86"/>
</a>
</g>
</g>
<!-- Node3&#45;&gt;Node3 -->
<g id="edge4_Node000003_Node000003" class="edge">
<title>Node3&#45;&gt;Node3</title>
<g id="a_edge4_Node000003_Node000003"><a xlink:title=" ">
<path fill="none" stroke="#63b8ff" d="M190.67,-268.99C184.97,-278.06 194.28,-286.5 218.62,-286.5 231.94,-286.5 240.75,-283.97 245.08,-280.2"/>
<polygon fill="#63b8ff" stroke="#63b8ff" points="248.52,-280.86 246.38,-270.49 241.58,-279.93 248.52,-280.86"/>
</a>
</g>
</g>
<!-- Node4&#45;&gt;Node4 -->
<g id="edge6_Node000004_Node000004" class="edge">
<title>Node4&#45;&gt;Node4</title>
<g id="a_edge6_Node000004_Node000004"><a xlink:title=" ">
<path fill="none" stroke="#63b8ff" d="M348.42,-164.99C342.72,-174.06 352.03,-182.5 376.38,-182.5 389.69,-182.5 398.5,-179.97 402.83,-176.2"/>
<polygon fill="#63b8ff" stroke="#63b8ff" points="406.27,-176.86 404.13,-166.49 399.33,-175.93 406.27,-176.86"/>
</a>
</g>
</g>
<!-- Node5&#45;&gt;Node4 -->
<g id="edge8_Node000005_Node000004" class="edge">
<title>Node5&#45;&gt;Node4</title>
<g id="a_edge8_Node000005_Node000004"><a xlink:title=" ">
<path fill="none" stroke="#63b8ff" d="M279.84,-149.25C287.7,-149.25 295.8,-149.25 303.82,-149.25"/>
<polygon fill="#63b8ff" stroke="#63b8ff" points="303.55,-152.75 313.55,-149.25 303.55,-145.75 303.55,-152.75"/>
</a>
</g>
</g>
<!-- Node5&#45;&gt;Node5 -->
<g id="edge9_Node000005_Node000005" class="edge">
<title>Node5&#45;&gt;Node5</title>
<g id="a_edge9_Node000005_Node000005"><a xlink:title=" ">
<path fill="none" stroke="#63b8ff" d="M190.67,-164.99C184.97,-174.06 194.28,-182.5 218.62,-182.5 231.94,-182.5 240.75,-179.97 245.08,-176.2"/>
<polygon fill="#63b8ff" stroke="#63b8ff" points="248.52,-176.86 246.38,-166.49 241.58,-175.93 248.52,-176.86"/>
</a>
</g>
</g>
<!-- Node6&#45;&gt;Node6 -->
<g id="edge11_Node000006_Node000006" class="edge">
<title>Node6&#45;&gt;Node6</title>
<g id="a_edge11_Node000006_Node000006"><a xlink:title=" ">
<path fill="none" stroke="#63b8ff" d="M190.67,-97.99C184.97,-107.06 194.28,-115.5 218.62,-115.5 231.94,-115.5 240.75,-112.97 245.08,-109.2"/>
<polygon fill="#63b8ff" stroke="#63b8ff" points="248.52,-109.86 246.38,-99.49 241.58,-108.93 248.52,-109.86"/>
</a>
</g>
</g>
<!-- Node7&#45;&gt;Node4 -->
<g id="edge13_Node000007_Node000004" class="edge">
<title>Node7&#45;&gt;Node4</title>
<g id="a_edge13_Node000007_Node000004"><a xlink:title=" ">
<path fill="none" stroke="#63b8ff" d="M242.92,-30.87C254.23,-38.74 267.86,-48.62 279.5,-58.25 305.57,-79.81 333.41,-106.72 352.33,-125.66"/>
<polygon fill="#63b8ff" stroke="#63b8ff" points="349.77,-128.05 359.3,-132.68 354.74,-123.12 349.77,-128.05"/>
</a>
</g>
</g>
<!-- Node7&#45;&gt;Node7 -->
<g id="edge14_Node000007_Node000007" class="edge">
<title>Node7&#45;&gt;Node7</title>
<g id="a_edge14_Node000007_Node000007"><a xlink:title=" ">
<path fill="none" stroke="#63b8ff" d="M190.67,-30.99C184.97,-40.06 194.28,-48.5 218.62,-48.5 231.94,-48.5 240.75,-45.97 245.08,-42.2"/>
<polygon fill="#63b8ff" stroke="#63b8ff" points="248.52,-42.86 246.38,-32.49 241.58,-41.93 248.52,-42.86"/>
</a>
</g>
</g>
</g>
</svg>
</svg>

<style type='text/css'>
<![CDATA[
[data-mouse-over-selected='false'] { opacity: 0.7; }
[data-mouse-over-selected='true']  { opacity: 1.0; }
]]>
</style>
<script type="application/ecmascript"><![CDATA[
document.addEventListener('DOMContentLoaded', (event) => {
  highlightEdges();
  highlightAdjacentNodes();
});
]]></script>
</svg>
