<?xml version="1.0" encoding="UTF-8" standalone="no"?>
<!DOCTYPE svg PUBLIC "-//W3C//DTD SVG 1.1//EN"
 "http://www.w3.org/Graphics/SVG/1.1/DTD/svg11.dtd">
<!-- Generated by graphviz version 14.1.2 (20260124.0452)
 -->
<!-- Title: module_sf_ruclsm::soilprop Pages: 1 -->
<svg width="799pt" height="65pt"
 viewBox="0.00 0.00 799.00 65.00" xmlns="http://www.w3.org/2000/svg" xmlns:xlink="http://www.w3.org/1999/xlink">
<g id="graph0" class="graph" transform="scale(1 1) rotate(0) translate(4 61.25)">
<title>module_sf_ruclsm::soilprop</title>
<!-- Node1 -->
<g id="Node000001" class="node">
<title>Node1</title>
<g id="a_Node000001"><a xlink:title="This subroutine computes thermal diffusivity, and diffusional and hydraulic condeuctivities in soil.">
<polygon fill="#999999" stroke="#666666" points="791,-38.25 655.75,-38.25 655.75,-19 791,-19 791,-38.25"/>
<text xml:space="preserve" text-anchor="middle" x="723.38" y="-24.75" font-family="Source Sans Pro" font-size="10.00">module_sf_ruclsm::soilprop</text>
</a>
</g>
</g>
<!-- Node2 -->
<g id="Node000002" class="node">
<title>Node2</title>
<g id="a_Node000002"><a xlink:href="group__lsm__ruc__group_gaecd085e0caf317dfb807e576fd426dec.html#gaecd085e0caf317dfb807e576fd426dec" target="_top" xlink:title="This subroutine is called for snow covered areas of land. It solves energy and moisture budgets on th...">
<polygon fill="white" stroke="#666666" points="619.75,-57.25 480,-57.25 480,-38 619.75,-38 619.75,-57.25"/>
<text xml:space="preserve" text-anchor="middle" x="549.88" y="-43.75" font-family="Source Sans Pro" font-size="10.00">module_sf_ruclsm::snowsoil</text>
</a>
</g>
</g>
<!-- Node1&#45;&gt;Node2 -->
<g id="edge1_Node000001_Node000002" class="edge">
<title>Node1&#45;&gt;Node2</title>
<g id="a_edge1_Node000001_Node000002"><a xlink:title=" ">
<path fill="none" stroke="#63b8ff" d="M644.25,-37.28C636.17,-38.18 628,-39.08 620.04,-39.96"/>
<polygon fill="#63b8ff" stroke="#63b8ff" points="644.52,-40.77 654.07,-36.19 643.75,-33.81 644.52,-40.77"/>
</a>
</g>
</g>
<!-- Node6 -->
<g id="Node000006" class="node">
<title>Node6</title>
<g id="a_Node000006"><a xlink:href="group__lsm__ruc__group_gaec10146a1f142cfc8ec2126fa1d54702.html#gaec10146a1f142cfc8ec2126fa1d54702" target="_top" xlink:title="This subroutine calculates energy and moisture budget for vegetated surfaces without snow,...">
<polygon fill="white" stroke="#666666" points="608.12,-20.25 491.62,-20.25 491.62,-1 608.12,-1 608.12,-20.25"/>
<text xml:space="preserve" text-anchor="middle" x="549.88" y="-6.75" font-family="Source Sans Pro" font-size="10.00">module_sf_ruclsm::soil</text>
</a>
</g>
</g>
<!-- Node1&#45;&gt;Node6 -->
<g id="edge6_Node000001_Node000006" class="edge">
<title>Node1&#45;&gt;Node6</title>
<g id="a_edge6_Node000001_Node000006"><a xlink:title=" ">
<path fill="none" stroke="#63b8ff" d="M644.18,-20.42C632.2,-19.16 620.01,-17.88 608.58,-16.68"/>
<polygon fill="#63b8ff" stroke="#63b8ff" points="643.76,-23.89 654.07,-21.46 644.49,-16.93 643.76,-23.89"/>
</a>
</g>
</g>
<!-- Node3 -->
<g id="Node000003" class="node">
<title>Node3</title>
<g id="a_Node000003"><a xlink:href="group__lsm__ruc__group_gad9dd50472f87539dfaccb42d5495f831.html#gad9dd50472f87539dfaccb42d5495f831" target="_top" xlink:title="This subroutine solves energy and moisture budgets.">
<polygon fill="white" stroke="#666666" points="444,-38.25 312.5,-38.25 312.5,-19 444,-19 444,-38.25"/>
<text xml:space="preserve" text-anchor="middle" x="378.25" y="-24.75" font-family="Source Sans Pro" font-size="10.00">module_sf_ruclsm::sfctmp</text>
</a>
</g>
</g>
<!-- Node2&#45;&gt;Node3 -->
<g id="edge2_Node000002_Node000003" class="edge">
<title>Node2&#45;&gt;Node3</title>
<g id="a_edge2_Node000002_Node000003"><a xlink:title=" ">
<path fill="none" stroke="#63b8ff" d="M468.5,-38.62C460.41,-37.72 452.25,-36.8 444.35,-35.92"/>
<polygon fill="#63b8ff" stroke="#63b8ff" points="468.05,-42.09 478.38,-39.73 468.83,-35.14 468.05,-42.09"/>
</a>
</g>
</g>
<!-- Node4 -->
<g id="Node000004" class="node">
<title>Node4</title>
<g id="a_Node000004"><a xlink:href="namespacelsm__ruc_affabfffd45a10349230af3cd4fc7cdeb.html#affabfffd45a10349230af3cd4fc7cdeb" target="_top" xlink:title=" ">
<polygon fill="white" stroke="#666666" points="109.75,-38.25 0,-38.25 0,-19 109.75,-19 109.75,-38.25"/>
<text xml:space="preserve" text-anchor="middle" x="54.88" y="-24.75" font-family="Source Sans Pro" font-size="10.00">lsm_ruc::lsm_ruc_run</text>
</a>
</g>
</g>
<!-- Node3&#45;&gt;Node4 -->
<g id="edge3_Node000003_Node000004" class="edge">
<title>Node3&#45;&gt;Node4</title>
<g id="a_edge3_Node000003_Node000004"><a xlink:title=" ">
<path fill="none" stroke="#63b8ff" d="M300.77,-28.62C242.05,-28.62 162.44,-28.62 110.14,-28.62"/>
<polygon fill="#63b8ff" stroke="#63b8ff" points="300.7,-32.13 310.7,-28.63 300.7,-25.13 300.7,-32.13"/>
</a>
</g>
</g>
<!-- Node5 -->
<g id="Node000005" class="node">
<title>Node5</title>
<g id="a_Node000005"><a xlink:href="group__lsm__ruc__group_ga919051c947b9bd7272399d4b681ba2a8.html#ga919051c947b9bd7272399d4b681ba2a8" target="_top" xlink:title="The RUN LSM model is described in Smirnova et al.(1997) smirnova_1997 and Smirnova et al....">
<polygon fill="white" stroke="#666666" points="276.5,-19.25 145.75,-19.25 145.75,0 276.5,0 276.5,-19.25"/>
<text xml:space="preserve" text-anchor="middle" x="211.12" y="-5.75" font-family="Source Sans Pro" font-size="10.00">module_sf_ruclsm::lsmruc</text>
</a>
</g>
</g>
<!-- Node3&#45;&gt;Node5 -->
<g id="edge4_Node000003_Node000005" class="edge">
<title>Node3&#45;&gt;Node5</title>
<g id="a_edge4_Node000003_Node000005"><a xlink:title=" ">
<path fill="none" stroke="#63b8ff" d="M301.14,-19.87C293.07,-18.94 284.92,-18 277,-17.09"/>
<polygon fill="#63b8ff" stroke="#63b8ff" points="300.62,-23.33 310.96,-21 301.42,-16.38 300.62,-23.33"/>
</a>
</g>
</g>
<!-- Node5&#45;&gt;Node4 -->
<g id="edge5_Node000005_Node000004" class="edge">
<title>Node5&#45;&gt;Node4</title>
<g id="a_edge5_Node000005_Node000004"><a xlink:title=" ">
<path fill="none" stroke="#63b8ff" d="M134.37,-18.96C126.1,-19.97 117.81,-21 109.88,-21.97"/>
<polygon fill="#63b8ff" stroke="#63b8ff" points="134.6,-22.45 144.1,-17.76 133.75,-15.51 134.6,-22.45"/>
</a>
</g>
</g>
<!-- Node6&#45;&gt;Node3 -->
<g id="edge7_Node000006_Node000003" class="edge">
<title>Node6&#45;&gt;Node3</title>
<g id="a_edge7_Node000006_Node000003"><a xlink:title=" ">
<path fill="none" stroke="#63b8ff" d="M480.22,-17.91C468.33,-19.17 456,-20.48 444.21,-21.73"/>
<polygon fill="#63b8ff" stroke="#63b8ff" points="480.37,-21.41 489.94,-16.88 479.63,-14.45 480.37,-21.41"/>
</a>
</g>
</g>
</g>
</svg>
