<?xml version="1.0" encoding="UTF-8" standalone="no"?>
<!DOCTYPE svg PUBLIC "-//W3C//DTD SVG 1.1//EN"
 "http://www.w3.org/Graphics/SVG/1.1/DTD/svg11.dtd">
<!-- Generated by graphviz version 14.1.2 (20260124.0452)
 -->
<!-- Title: gfdl_cloud_microphys_mod::sedi_heat Pages: 1 -->
<svg width="759pt" height="65pt"
 viewBox="0.00 0.00 759.00 65.00" xmlns="http://www.w3.org/2000/svg" xmlns:xlink="http://www.w3.org/1999/xlink">
<g id="graph0" class="graph" transform="scale(1 1) rotate(0) translate(4 61.12)">
<title>gfdl_cloud_microphys_mod::sedi_heat</title>
<!-- Node1 -->
<g id="Node000001" class="node">
<title>Node1</title>
<g id="a_Node000001"><a xlink:title="This subroutine calculates sedimentation of heat.">
<polygon fill="#999999" stroke="#666666" points="751.25,-51.5 640.75,-51.5 640.75,-21 751.25,-21 751.25,-51.5"/>
<text xml:space="preserve" text-anchor="start" x="648.75" y="-38" font-family="Source Sans Pro" font-size="10.00">gfdl_cloud_microphys</text>
<text xml:space="preserve" text-anchor="middle" x="696" y="-26.75" font-family="Source Sans Pro" font-size="10.00">_mod::sedi_heat</text>
</a>
</g>
</g>
<!-- Node2 -->
<g id="Node000002" class="node">
<title>Node2</title>
<g id="a_Node000002"><a xlink:href="group__mod__gfdl__cloud__mp_ga9a157f35f4472577a555978027d97c65.html#ga9a157f35f4472577a555978027d97c65" target="_top" xlink:title="GFDL cloud microphysics, major program, and is based on Lin et al.(1983) lin_et_al_1983 and Rutledge ...">
<polygon fill="white" stroke="#666666" points="458.25,-51.5 347.75,-51.5 347.75,-21 458.25,-21 458.25,-51.5"/>
<text xml:space="preserve" text-anchor="start" x="355.75" y="-38" font-family="Source Sans Pro" font-size="10.00">gfdl_cloud_microphys</text>
<text xml:space="preserve" text-anchor="middle" x="403" y="-26.75" font-family="Source Sans Pro" font-size="10.00">_mod::mpdrv</text>
</a>
</g>
</g>
<!-- Node1&#45;&gt;Node2 -->
<g id="edge1_Node000001_Node000002" class="edge">
<title>Node1&#45;&gt;Node2</title>
<g id="a_edge1_Node000001_Node000002"><a xlink:title=" ">
<path fill="none" stroke="#63b8ff" d="M629.1,-38.69C620.9,-38.92 612.63,-39.12 604.75,-39.25 555.65,-40.07 543.35,-40.07 494.25,-39.25 482.65,-39.06 470.22,-38.73 458.4,-38.35"/>
<polygon fill="#63b8ff" stroke="#63b8ff" points="629.2,-42.19 639.09,-38.4 628.99,-35.2 629.2,-42.19"/>
</a>
</g>
</g>
<!-- Node5 -->
<g id="Node000005" class="node">
<title>Node5</title>
<g id="a_Node000005"><a xlink:href="group__mod__gfdl__cloud__mp_gacc8783950135d8875dbfe23ef5013c76.html#gacc8783950135d8875dbfe23ef5013c76" target="_top" xlink:title="This subroutine includes warm rain cloud microphysics.">
<polygon fill="white" stroke="#666666" points="604.75,-30.5 494.25,-30.5 494.25,0 604.75,0 604.75,-30.5"/>
<text xml:space="preserve" text-anchor="start" x="502.25" y="-17" font-family="Source Sans Pro" font-size="10.00">gfdl_cloud_microphys</text>
<text xml:space="preserve" text-anchor="middle" x="549.5" y="-5.75" font-family="Source Sans Pro" font-size="10.00">_mod::warm_rain</text>
</a>
</g>
</g>
<!-- Node1&#45;&gt;Node5 -->
<g id="edge4_Node000001_Node000005" class="edge">
<title>Node1&#45;&gt;Node5</title>
<g id="a_edge4_Node000001_Node000005"><a xlink:title=" ">
<path fill="none" stroke="#63b8ff" d="M629.16,-26.68C621.15,-25.52 613.03,-24.34 605.21,-23.2"/>
<polygon fill="#63b8ff" stroke="#63b8ff" points="628.47,-30.12 638.87,-28.09 629.48,-23.19 628.47,-30.12"/>
</a>
</g>
</g>
<!-- Node3 -->
<g id="Node000003" class="node">
<title>Node3</title>
<g id="a_Node000003"><a xlink:href="group__mod__gfdl__cloud__mp_gab96ce7bbe8889ca0845652ef6df3ea14.html#gab96ce7bbe8889ca0845652ef6df3ea14" target="_top" xlink:title="This subroutine is the driver of the GFDL cloud microphysics.">
<polygon fill="white" stroke="#666666" points="311.75,-57.12 171.25,-57.12 171.25,-15.38 311.75,-15.38 311.75,-57.12"/>
<text xml:space="preserve" text-anchor="start" x="179.25" y="-43.62" font-family="Source Sans Pro" font-size="10.00">gfdl_cloud_microphys</text>
<text xml:space="preserve" text-anchor="start" x="179.25" y="-32.38" font-family="Source Sans Pro" font-size="10.00">_mod::gfdl_cloud_microphys</text>
<text xml:space="preserve" text-anchor="middle" x="241.5" y="-21.12" font-family="Source Sans Pro" font-size="10.00">_mod_driver</text>
</a>
</g>
</g>
<!-- Node2&#45;&gt;Node3 -->
<g id="edge2_Node000002_Node000003" class="edge">
<title>Node2&#45;&gt;Node3</title>
<g id="a_edge2_Node000002_Node000003"><a xlink:title=" ">
<path fill="none" stroke="#63b8ff" d="M336.15,-36.25C328.25,-36.25 320.16,-36.25 312.21,-36.25"/>
<polygon fill="#63b8ff" stroke="#63b8ff" points="336.04,-39.75 346.04,-36.25 336.04,-32.75 336.04,-39.75"/>
</a>
</g>
</g>
<!-- Node4 -->
<g id="Node000004" class="node">
<title>Node4</title>
<g id="a_Node000004"><a xlink:href="namespacegfdl__cloud__microphys_a57379a8f2ca712404e049dc5438ca6ac.html#a57379a8f2ca712404e049dc5438ca6ac" target="_top" xlink:title=" ">
<polygon fill="white" stroke="#666666" points="135.25,-51.5 0,-51.5 0,-21 135.25,-21 135.25,-51.5"/>
<text xml:space="preserve" text-anchor="start" x="8" y="-38" font-family="Source Sans Pro" font-size="10.00">gfdl_cloud_microphys</text>
<text xml:space="preserve" text-anchor="middle" x="67.62" y="-26.75" font-family="Source Sans Pro" font-size="10.00">::gfdl_cloud_microphys_run</text>
</a>
</g>
</g>
<!-- Node3&#45;&gt;Node4 -->
<g id="edge3_Node000003_Node000004" class="edge">
<title>Node3&#45;&gt;Node4</title>
<g id="a_edge3_Node000003_Node000004"><a xlink:title=" ">
<path fill="none" stroke="#63b8ff" d="M159.71,-36.25C151.6,-36.25 143.44,-36.25 135.51,-36.25"/>
<polygon fill="#63b8ff" stroke="#63b8ff" points="159.57,-39.75 169.57,-36.25 159.57,-32.75 159.57,-39.75"/>
</a>
</g>
</g>
<!-- Node5&#45;&gt;Node2 -->
<g id="edge5_Node000005_Node000002" class="edge">
<title>Node5&#45;&gt;Node2</title>
<g id="a_edge5_Node000005_Node000002"><a xlink:title=" ">
<path fill="none" stroke="#63b8ff" d="M482.66,-24.82C474.65,-25.98 466.53,-27.16 458.71,-28.3"/>
<polygon fill="#63b8ff" stroke="#63b8ff" points="482.98,-28.31 492.37,-23.41 481.97,-21.38 482.98,-28.31"/>
</a>
</g>
</g>
</g>
</svg>
