<?xml version="1.0" encoding="UTF-8" standalone="no"?>
<!DOCTYPE svg PUBLIC "-//W3C//DTD SVG 1.1//EN"
 "http://www.w3.org/Graphics/SVG/1.1/DTD/svg11.dtd">
<!-- Generated by graphviz version 14.1.2 (20260124.0452)
 -->
<!-- Title: snksrc Pages: 1 -->
<svg width="199pt" height="27pt"
 viewBox="0.00 0.00 199.00 27.00" xmlns="http://www.w3.org/2000/svg" xmlns:xlink="http://www.w3.org/1999/xlink">
<g id="graph0" class="graph" transform="scale(1 1) rotate(0) translate(4 23.25)">
<title>snksrc</title>
<!-- Node1 -->
<g id="Node000001" class="node">
<title>Node1</title>
<g id="a_Node000001"><a xlink:title="This subroutine calculates sink/source term of the termal diffusion equation.">
<polygon fill="#999999" stroke="#666666" points="45.25,-19.25 0,-19.25 0,0 45.25,0 45.25,-19.25"/>
<text xml:space="preserve" text-anchor="middle" x="22.62" y="-5.75" font-family="Source Sans Pro" font-size="10.00">snksrc</text>
</a>
</g>
</g>
<!-- Node2 -->
<g id="Node000002" class="node">
<title>Node2</title>
<g id="a_Node000002"><a xlink:href="group___noah___l_s_m_ga7c0e713811400259a984b2153834e70c.html#ga7c0e713811400259a984b2153834e70c" target="_top" xlink:title="This subroutine calculates amount of supercooled liquid soil water content if temperature is below 27...">
<polygon fill="white" stroke="#666666" points="119,-19.25 81.25,-19.25 81.25,0 119,0 119,-19.25"/>
<text xml:space="preserve" text-anchor="middle" x="100.12" y="-5.75" font-family="Source Sans Pro" font-size="10.00">frh2o</text>
</a>
</g>
</g>
<!-- Node1&#45;&gt;Node2 -->
<g id="edge1_Node000001_Node000002" class="edge">
<title>Node1&#45;&gt;Node2</title>
<g id="a_edge1_Node000001_Node000002"><a xlink:title=" ">
<path fill="none" stroke="#63b8ff" d="M45.46,-9.62C53.07,-9.62 61.73,-9.62 69.85,-9.62"/>
<polygon fill="#63b8ff" stroke="#63b8ff" points="69.64,-13.13 79.64,-9.63 69.64,-6.13 69.64,-13.13"/>
</a>
</g>
</g>
<!-- Node3 -->
<g id="Node000003" class="node">
<title>Node3</title>
<g id="a_Node000003"><a xlink:href="group___noah_m_p___l_s_m_gace27cd3a7b4e23955e39e33bd344baae.html#gace27cd3a7b4e23955e39e33bd344baae" target="_top" xlink:title="check surface energy balance and water balance.">
<polygon fill="white" stroke="#666666" points="190.5,-19.25 155,-19.25 155,0 190.5,0 190.5,-19.25"/>
<text xml:space="preserve" text-anchor="middle" x="172.75" y="-5.75" font-family="Source Sans Pro" font-size="10.00">error</text>
</a>
</g>
</g>
<!-- Node2&#45;&gt;Node3 -->
<g id="edge2_Node000002_Node000003" class="edge">
<title>Node2&#45;&gt;Node3</title>
<g id="a_edge2_Node000002_Node000003"><a xlink:title=" ">
<path fill="none" stroke="#63b8ff" d="M119.31,-9.62C126.67,-9.62 135.34,-9.62 143.49,-9.62"/>
<polygon fill="#63b8ff" stroke="#63b8ff" points="143.32,-13.13 153.32,-9.63 143.32,-6.13 143.32,-13.13"/>
</a>
</g>
</g>
</g>
</svg>
