<?xml version="1.0" encoding="UTF-8" standalone="no"?>
<!DOCTYPE svg PUBLIC "-//W3C//DTD SVG 1.1//EN"
 "http://www.w3.org/Graphics/SVG/1.1/DTD/svg11.dtd">
<!-- Generated by graphviz version 14.1.2 (20260124.0452)
 -->
<!-- Title: module_mp_thompson::mp_thompson Pages: 1 -->
<svg width="287pt" height="441pt"
 viewBox="0.00 0.00 287.00 441.00" xmlns="http://www.w3.org/2000/svg" xmlns:xlink="http://www.w3.org/1999/xlink">
<g id="graph0" class="graph" transform="scale(1 1) rotate(0) translate(4 436.5)">
<title>module_mp_thompson::mp_thompson</title>
<!-- Node1 -->
<g id="Node000001" class="node">
<title>Node1</title>
<g id="a_Node000001"><a xlink:title="This subroutine computes the moisture tendencies of water vapor, cloud droplets, rain,...">
<polygon fill="#999999" stroke="#666666" points="114.25,-231.5 0,-231.5 0,-201 114.25,-201 114.25,-231.5"/>
<text xml:space="preserve" text-anchor="start" x="8" y="-218" font-family="Source Sans Pro" font-size="10.00">module_mp_thompson</text>
<text xml:space="preserve" text-anchor="middle" x="57.12" y="-206.75" font-family="Source Sans Pro" font-size="10.00">::mp_thompson</text>
</a>
</g>
</g>
<!-- Node2 -->
<g id="Node000002" class="node">
<title>Node2</title>
<g id="a_Node000002"><a xlink:href="group__aathompson_ga8e30975d5245b6397a02e7f147013753.html#ga8e30975d5245b6397a02e7f147013753" target="_top" xlink:title="Retrieve fraction of CCN that gets activated given the model temp, vertical velocity,...">
<polygon fill="white" stroke="#666666" points="271.62,-414.5 157.38,-414.5 157.38,-384 271.62,-384 271.62,-414.5"/>
<text xml:space="preserve" text-anchor="start" x="165.38" y="-401" font-family="Source Sans Pro" font-size="10.00">module_mp_thompson</text>
<text xml:space="preserve" text-anchor="middle" x="214.5" y="-389.75" font-family="Source Sans Pro" font-size="10.00">::activ_ncloud</text>
</a>
</g>
</g>
<!-- Node1&#45;&gt;Node2 -->
<g id="edge1_Node000001_Node000002" class="edge">
<title>Node1&#45;&gt;Node2</title>
<g id="a_edge1_Node000001_Node000002"><a xlink:title=" ">
<path fill="none" stroke="#63b8ff" d="M63.15,-231.54C74.12,-262.62 103.04,-333.7 150.25,-374.25 151.54,-375.36 152.88,-376.42 154.27,-377.43"/>
<polygon fill="#63b8ff" stroke="#63b8ff" points="152.35,-380.36 162.68,-382.72 156.07,-374.44 152.35,-380.36"/>
</a>
</g>
</g>
<!-- Node3 -->
<g id="Node000003" class="node">
<title>Node3</title>
<g id="a_Node000003"><a xlink:href="group__aathompson_ga75c72a524f02f1a180d4c23dc93399fa.html#ga75c72a524f02f1a180d4c23dc93399fa" target="_top" xlink:title="Function to compute collision efficiency of collector species (rain, snow, graupel) of aerosols....">
<polygon fill="white" stroke="#666666" points="271.62,-347.5 157.38,-347.5 157.38,-317 271.62,-317 271.62,-347.5"/>
<text xml:space="preserve" text-anchor="start" x="165.38" y="-334" font-family="Source Sans Pro" font-size="10.00">module_mp_thompson</text>
<text xml:space="preserve" text-anchor="middle" x="214.5" y="-322.75" font-family="Source Sans Pro" font-size="10.00">::eff_aero</text>
</a>
</g>
</g>
<!-- Node1&#45;&gt;Node3 -->
<g id="edge3_Node000001_Node000003" class="edge">
<title>Node1&#45;&gt;Node3</title>
<g id="a_edge3_Node000001_Node000003"><a xlink:title=" ">
<path fill="none" stroke="#63b8ff" d="M70.34,-231.7C86.7,-251.52 117.48,-285.88 150.25,-307.25 152.5,-308.72 154.86,-310.12 157.27,-311.47"/>
<polygon fill="#63b8ff" stroke="#63b8ff" points="155.63,-314.56 166.13,-315.94 158.78,-308.31 155.63,-314.56"/>
</a>
</g>
</g>
<!-- Node4 -->
<g id="Node000004" class="node">
<title>Node4</title>
<g id="a_Node000004"><a xlink:href="group__aathompson_gaf4b385f219715062e0f6f631a906a593.html#gaf4b385f219715062e0f6f631a906a593" target="_top" xlink:title="Calculates graupel size distribution parameters.">
<polygon fill="white" stroke="#666666" points="278.75,-298.5 150.25,-298.5 150.25,-268 278.75,-268 278.75,-298.5"/>
<text xml:space="preserve" text-anchor="start" x="158.25" y="-285" font-family="Source Sans Pro" font-size="10.00">module_mp_thompson</text>
<text xml:space="preserve" text-anchor="middle" x="214.5" y="-273.75" font-family="Source Sans Pro" font-size="10.00">::graupel_psd_parameters</text>
</a>
</g>
</g>
<!-- Node1&#45;&gt;Node4 -->
<g id="edge5_Node000001_Node000004" class="edge">
<title>Node1&#45;&gt;Node4</title>
<g id="a_edge5_Node000001_Node000004"><a xlink:title=" ">
<path fill="none" stroke="#63b8ff" d="M91.2,-231.83C108.67,-239.93 130.52,-249.86 150.25,-258.25 154.23,-259.94 158.37,-261.66 162.54,-263.37"/>
<polygon fill="#63b8ff" stroke="#63b8ff" points="160.9,-266.48 171.48,-266.99 163.52,-259.99 160.9,-266.48"/>
</a>
</g>
</g>
<!-- Node5 -->
<g id="Node000005" class="node">
<title>Node5</title>
<g id="a_Node000005"><a xlink:href="group__aathompson_ga52feed1483f3aa63a2a8d01a21489c1b.html#ga52feed1483f3aa63a2a8d01a21489c1b" target="_top" xlink:title=" ">
<polygon fill="white" stroke="#666666" points="271.62,-231.5 157.38,-231.5 157.38,-201 271.62,-201 271.62,-231.5"/>
<text xml:space="preserve" text-anchor="start" x="165.38" y="-218" font-family="Source Sans Pro" font-size="10.00">module_mp_thompson</text>
<text xml:space="preserve" text-anchor="middle" x="214.5" y="-206.75" font-family="Source Sans Pro" font-size="10.00">::icedemott</text>
</a>
</g>
</g>
<!-- Node1&#45;&gt;Node5 -->
<g id="edge6_Node000001_Node000005" class="edge">
<title>Node1&#45;&gt;Node5</title>
<g id="a_edge6_Node000001_Node000005"><a xlink:title=" ">
<path fill="none" stroke="#63b8ff" d="M114.66,-216.25C124.68,-216.25 135.21,-216.25 145.52,-216.25"/>
<polygon fill="#63b8ff" stroke="#63b8ff" points="145.5,-219.75 155.5,-216.25 145.5,-212.75 145.5,-219.75"/>
</a>
</g>
</g>
<!-- Node6 -->
<g id="Node000006" class="node">
<title>Node6</title>
<g id="a_Node000006"><a xlink:href="group__aathompson_gaea254a035f560f75d83530673a997d32.html#gaea254a035f560f75d83530673a997d32" target="_top" xlink:title="Newer research since Koop et al (2001) suggests that the freezing rate should be lower than original ...">
<polygon fill="white" stroke="#666666" points="271.62,-164.5 157.38,-164.5 157.38,-134 271.62,-134 271.62,-164.5"/>
<text xml:space="preserve" text-anchor="start" x="165.38" y="-151" font-family="Source Sans Pro" font-size="10.00">module_mp_thompson</text>
<text xml:space="preserve" text-anchor="middle" x="214.5" y="-139.75" font-family="Source Sans Pro" font-size="10.00">::icekoop</text>
</a>
</g>
</g>
<!-- Node1&#45;&gt;Node6 -->
<g id="edge8_Node000001_Node000006" class="edge">
<title>Node1&#45;&gt;Node6</title>
<g id="a_edge8_Node000001_Node000006"><a xlink:title=" ">
<path fill="none" stroke="#63b8ff" d="M94.55,-200.54C116.1,-191.25 143.61,-179.39 166.75,-169.41"/>
<polygon fill="#63b8ff" stroke="#63b8ff" points="167.84,-172.75 175.64,-165.58 165.07,-166.32 167.84,-172.75"/>
</a>
</g>
</g>
<!-- Node7 -->
<g id="Node000007" class="node">
<title>Node7</title>
<g id="a_Node000007"><a xlink:href="group__aathompson_ga878bec15133532309ba3036cd2739510.html#ga878bec15133532309ba3036cd2739510" target="_top" xlink:title="THIS FUNCTION CALCULATES THE ICE SATURATION VAPOR MIXING RATIO AS A FUNCTION OF TEMPERATURE AND PRESS...">
<polygon fill="white" stroke="#666666" points="271.62,-97.5 157.38,-97.5 157.38,-67 271.62,-67 271.62,-97.5"/>
<text xml:space="preserve" text-anchor="start" x="165.38" y="-84" font-family="Source Sans Pro" font-size="10.00">module_mp_thompson</text>
<text xml:space="preserve" text-anchor="middle" x="214.5" y="-72.75" font-family="Source Sans Pro" font-size="10.00">::rsif</text>
</a>
</g>
</g>
<!-- Node1&#45;&gt;Node7 -->
<g id="edge10_Node000001_Node000007" class="edge">
<title>Node1&#45;&gt;Node7</title>
<g id="a_edge10_Node000001_Node000007"><a xlink:title=" ">
<path fill="none" stroke="#63b8ff" d="M72.34,-200.56C89.79,-181.69 120.73,-149.52 150.25,-125.25 159.08,-117.99 169.12,-110.75 178.57,-104.34"/>
<polygon fill="#63b8ff" stroke="#63b8ff" points="180.47,-107.28 186.85,-98.83 176.59,-101.45 180.47,-107.28"/>
</a>
</g>
</g>
<!-- Node8 -->
<g id="Node000008" class="node">
<title>Node8</title>
<g id="a_Node000008"><a xlink:href="group__aathompson_ga9617073eff52abf98dd295c8cd83ef24.html#ga9617073eff52abf98dd295c8cd83ef24" target="_top" xlink:title="THIS FUNCTION CALCULATES THE LIQUID SATURATION VAPOR MIXING RATIO AS A FUNCTION OF TEMPERATURE AND PR...">
<polygon fill="white" stroke="#666666" points="271.62,-30.5 157.38,-30.5 157.38,0 271.62,0 271.62,-30.5"/>
<text xml:space="preserve" text-anchor="start" x="165.38" y="-17" font-family="Source Sans Pro" font-size="10.00">module_mp_thompson</text>
<text xml:space="preserve" text-anchor="middle" x="214.5" y="-5.75" font-family="Source Sans Pro" font-size="10.00">::rslf</text>
</a>
</g>
</g>
<!-- Node1&#45;&gt;Node8 -->
<g id="edge12_Node000001_Node000008" class="edge">
<title>Node1&#45;&gt;Node8</title>
<g id="a_edge12_Node000001_Node000008"><a xlink:title=" ">
<path fill="none" stroke="#63b8ff" d="M64.32,-200.86C76.99,-170.8 108.22,-103.29 150.25,-58.25 157.57,-50.41 166.57,-43.23 175.45,-37.09"/>
<polygon fill="#63b8ff" stroke="#63b8ff" points="177.27,-40.08 183.71,-31.67 173.43,-34.23 177.27,-40.08"/>
</a>
</g>
</g>
<!-- Node2&#45;&gt;Node2 -->
<g id="edge2_Node000002_Node000002" class="edge">
<title>Node2&#45;&gt;Node2</title>
<g id="a_edge2_Node000002_Node000002"><a xlink:title=" ">
<path fill="none" stroke="#63b8ff" d="M186.61,-414.99C180.92,-424.06 190.22,-432.5 214.5,-432.5 227.78,-432.5 236.58,-429.97 240.89,-426.2"/>
<polygon fill="#63b8ff" stroke="#63b8ff" points="244.34,-426.86 242.19,-416.49 237.4,-425.94 244.34,-426.86"/>
</a>
</g>
</g>
<!-- Node3&#45;&gt;Node3 -->
<g id="edge4_Node000003_Node000003" class="edge">
<title>Node3&#45;&gt;Node3</title>
<g id="a_edge4_Node000003_Node000003"><a xlink:title=" ">
<path fill="none" stroke="#63b8ff" d="M186.61,-347.99C180.92,-357.06 190.22,-365.5 214.5,-365.5 227.78,-365.5 236.58,-362.97 240.89,-359.2"/>
<polygon fill="#63b8ff" stroke="#63b8ff" points="244.34,-359.86 242.19,-349.49 237.4,-358.94 244.34,-359.86"/>
</a>
</g>
</g>
<!-- Node5&#45;&gt;Node5 -->
<g id="edge7_Node000005_Node000005" class="edge">
<title>Node5&#45;&gt;Node5</title>
<g id="a_edge7_Node000005_Node000005"><a xlink:title=" ">
<path fill="none" stroke="#63b8ff" d="M186.61,-231.99C180.92,-241.06 190.22,-249.5 214.5,-249.5 227.78,-249.5 236.58,-246.97 240.89,-243.2"/>
<polygon fill="#63b8ff" stroke="#63b8ff" points="244.34,-243.86 242.19,-233.49 237.4,-242.94 244.34,-243.86"/>
</a>
</g>
</g>
<!-- Node6&#45;&gt;Node6 -->
<g id="edge9_Node000006_Node000006" class="edge">
<title>Node6&#45;&gt;Node6</title>
<g id="a_edge9_Node000006_Node000006"><a xlink:title=" ">
<path fill="none" stroke="#63b8ff" d="M186.61,-164.99C180.92,-174.06 190.22,-182.5 214.5,-182.5 227.78,-182.5 236.58,-179.97 240.89,-176.2"/>
<polygon fill="#63b8ff" stroke="#63b8ff" points="244.34,-176.86 242.19,-166.49 237.4,-175.94 244.34,-176.86"/>
</a>
</g>
</g>
<!-- Node7&#45;&gt;Node7 -->
<g id="edge11_Node000007_Node000007" class="edge">
<title>Node7&#45;&gt;Node7</title>
<g id="a_edge11_Node000007_Node000007"><a xlink:title=" ">
<path fill="none" stroke="#63b8ff" d="M186.61,-97.99C180.92,-107.06 190.22,-115.5 214.5,-115.5 227.78,-115.5 236.58,-112.97 240.89,-109.2"/>
<polygon fill="#63b8ff" stroke="#63b8ff" points="244.34,-109.86 242.19,-99.49 237.4,-108.94 244.34,-109.86"/>
</a>
</g>
</g>
<!-- Node8&#45;&gt;Node8 -->
<g id="edge13_Node000008_Node000008" class="edge">
<title>Node8&#45;&gt;Node8</title>
<g id="a_edge13_Node000008_Node000008"><a xlink:title=" ">
<path fill="none" stroke="#63b8ff" d="M186.61,-30.99C180.92,-40.06 190.22,-48.5 214.5,-48.5 227.78,-48.5 236.58,-45.97 240.89,-42.2"/>
<polygon fill="#63b8ff" stroke="#63b8ff" points="244.34,-42.86 242.19,-32.49 237.4,-41.94 244.34,-42.86"/>
</a>
</g>
</g>
</g>
</svg>
