<?xml version="1.0" encoding="UTF-8" standalone="no"?>
<!DOCTYPE svg PUBLIC "-//W3C//DTD SVG 1.1//EN"
 "http://www.w3.org/Graphics/SVG/1.1/DTD/svg11.dtd">
<!-- Generated by graphviz version 14.1.2 (20260124.0452)
 -->
<!-- Title: sfcdif4 Pages: 1 -->
<svg width="183pt" height="175pt"
 viewBox="0.00 0.00 183.00 175.00" xmlns="http://www.w3.org/2000/svg" xmlns:xlink="http://www.w3.org/1999/xlink">

<svg id="main" version="1.1" xmlns="http://www.w3.org/2000/svg" xmlns:xlink="http://www.w3.org/1999/xlink" xml:space="preserve">

<style type="text/css"><![CDATA[
.node, .edge {opacity: 0.7;}
.node.selected, .edge.selected {opacity: 1;}
.edge:hover path { stroke: red; }
.edge:hover polygon { stroke: red; fill: red; }
]]></style>
<script type="application/ecmascript" xlink:href="svg.min.js"/>
<svg id="graph" class="graph">
<g id="graph0" class="graph" transform="scale(1 1) rotate(0) translate(4 171.25)">
<title>sfcdif4</title>
<!-- Node1 -->
<g id="Node000001" class="node">
<title>Node1</title>
<g id="a_Node000001"><a xlink:title=" ">
<polygon fill="#999999" stroke="#666666" points="45.25,-93.25 0,-93.25 0,-74 45.25,-74 45.25,-93.25"/>
<text xml:space="preserve" text-anchor="middle" x="22.62" y="-79.75" font-family="Source Sans Pro" font-size="10.00">sfcdif4</text>
</a>
</g>
</g>
<!-- Node2 -->
<g id="Node000002" class="node">
<title>Node2</title>
<g id="a_Node000002"><a xlink:href="group__mynn__sfc_gab8e348eef161b16bada8841a900501c2.html#gab8e348eef161b16bada8841a900501c2" target="_top" xlink:title="this is taken from andreas (2002; j. of hydromet) and andreas et al. (2005; blm).">
<polygon fill="white" stroke="#666666" points="166.25,-167.25 89.5,-167.25 89.5,-148 166.25,-148 166.25,-167.25"/>
<text xml:space="preserve" text-anchor="middle" x="127.88" y="-153.75" font-family="Source Sans Pro" font-size="10.00">andreas_2002</text>
</a>
</g>
</g>
<!-- Node1&#45;&gt;Node2 -->
<g id="edge1_Node000001_Node000002" class="edge">
<title>Node1&#45;&gt;Node2</title>
<g id="a_edge1_Node000001_Node000002"><a xlink:title=" ">
<path fill="none" stroke="#63b8ff" d="M31.66,-93.55C42.01,-105.8 61.09,-126.61 81.25,-139.62 82.87,-140.67 84.57,-141.68 86.31,-142.64"/>
<polygon fill="#63b8ff" stroke="#63b8ff" points="84.7,-145.75 95.22,-146.97 87.76,-139.45 84.7,-145.75"/>
</a>
</g>
</g>
<!-- Node3 -->
<g id="Node000003" class="node">
<title>Node3</title>
<g id="a_Node000003"><a xlink:href="group___noah_m_p___l_s_m_ga88dbf6bdf1a8097e27b06ddfce89516c.html#ga88dbf6bdf1a8097e27b06ddfce89516c" target="_top" xlink:title="data. the formula for land uses a constant ratio (z_0/7.4) taken from garratt (1992).">
<polygon fill="white" stroke="#666666" points="162.88,-130.25 92.88,-130.25 92.88,-111 162.88,-111 162.88,-130.25"/>
<text xml:space="preserve" text-anchor="middle" x="127.88" y="-116.75" font-family="Source Sans Pro" font-size="10.00">garratt_1992</text>
</a>
</g>
</g>
<!-- Node1&#45;&gt;Node3 -->
<g id="edge2_Node000001_Node000003" class="edge">
<title>Node1&#45;&gt;Node3</title>
<g id="a_edge2_Node000001_Node000003"><a xlink:title=" ">
<path fill="none" stroke="#63b8ff" d="M45.52,-91.47C57.88,-95.9 73.69,-101.57 88.08,-106.72"/>
<polygon fill="#63b8ff" stroke="#63b8ff" points="86.7,-109.95 97.3,-110.03 89.06,-103.36 86.7,-109.95"/>
</a>
</g>
</g>
<!-- Node4 -->
<g id="Node000004" class="node">
<title>Node4</title>
<g id="a_Node000004"><a xlink:href="group__mynn__sfc_ga7bbe8445bfcae5adad4fed82a0ecbaee.html#ga7bbe8445bfcae5adad4fed82a0ecbaee" target="_top" xlink:title="this subroutine returns a more robust z/l that best matches the z/l from hogstrom (1996) for unstable...">
<polygon fill="white" stroke="#666666" points="161.75,-93.25 94,-93.25 94,-74 161.75,-74 161.75,-93.25"/>
<text xml:space="preserve" text-anchor="middle" x="127.88" y="-79.75" font-family="Source Sans Pro" font-size="10.00">li_etal_2010</text>
</a>
</g>
</g>
<!-- Node1&#45;&gt;Node4 -->
<g id="edge3_Node000001_Node000004" class="edge">
<title>Node1&#45;&gt;Node4</title>
<g id="a_edge3_Node000001_Node000004"><a xlink:title=" ">
<path fill="none" stroke="#63b8ff" d="M45.52,-83.62C56.22,-83.62 69.5,-83.62 82.2,-83.62"/>
<polygon fill="#63b8ff" stroke="#63b8ff" points="82.11,-87.13 92.11,-83.63 82.11,-80.13 82.11,-87.13"/>
</a>
</g>
</g>
<!-- Node5 -->
<g id="Node000005" class="node">
<title>Node5</title>
<g id="a_Node000005"><a xlink:href="group__mynn__sfc_ga25595438cdc181cd5e5e05aa45486a69.html#ga25595438cdc181cd5e5e05aa45486a69" target="_top" xlink:title="this is a modified version of yang et al (2002 qjrms, 2008 jamc) and chen et al (2010,...">
<polygon fill="white" stroke="#666666" points="159.5,-56.25 96.25,-56.25 96.25,-37 159.5,-37 159.5,-56.25"/>
<text xml:space="preserve" text-anchor="middle" x="127.88" y="-42.75" font-family="Source Sans Pro" font-size="10.00">yang_2008</text>
</a>
</g>
</g>
<!-- Node1&#45;&gt;Node5 -->
<g id="edge4_Node000001_Node000005" class="edge">
<title>Node1&#45;&gt;Node5</title>
<g id="a_edge4_Node000001_Node000005"><a xlink:title=" ">
<path fill="none" stroke="#63b8ff" d="M45.52,-75.78C57.88,-71.35 73.69,-65.68 88.08,-60.53"/>
<polygon fill="#63b8ff" stroke="#63b8ff" points="89.06,-63.89 97.3,-57.22 86.7,-57.3 89.06,-63.89"/>
</a>
</g>
</g>
<!-- Node6 -->
<g id="Node000006" class="node">
<title>Node6</title>
<g id="a_Node000006"><a xlink:href="group___noah_m_p___l_s_m_gaa1453a4f904aa171ea91510f464824b3.html#gaa1453a4f904aa171ea91510f464824b3" target="_top" xlink:title=" ">
<polygon fill="white" stroke="#666666" points="174.5,-19.25 81.25,-19.25 81.25,0 174.5,0 174.5,-19.25"/>
<text xml:space="preserve" text-anchor="middle" x="127.88" y="-5.75" font-family="Source Sans Pro" font-size="10.00">zilitinkevich_1995</text>
</a>
</g>
</g>
<!-- Node1&#45;&gt;Node6 -->
<g id="edge5_Node000001_Node000006" class="edge">
<title>Node1&#45;&gt;Node6</title>
<g id="a_edge5_Node000001_Node000006"><a xlink:title=" ">
<path fill="none" stroke="#63b8ff" d="M31.66,-73.7C42.01,-61.45 61.09,-40.64 81.25,-27.62 82.87,-26.58 84.57,-25.57 86.31,-24.61"/>
<polygon fill="#63b8ff" stroke="#63b8ff" points="87.76,-27.8 95.22,-20.28 84.7,-21.5 87.76,-27.8"/>
</a>
</g>
</g>
</g>
</svg>
</svg>

<style type='text/css'>
<![CDATA[
[data-mouse-over-selected='false'] { opacity: 0.7; }
[data-mouse-over-selected='true']  { opacity: 1.0; }
]]>
</style>
<script type="application/ecmascript"><![CDATA[
document.addEventListener('DOMContentLoaded', (event) => {
  highlightEdges();
  highlightAdjacentNodes();
});
]]></script>
</svg>
