<?xml version="1.0" encoding="UTF-8" standalone="no"?>
<!DOCTYPE svg PUBLIC "-//W3C//DTD SVG 1.1//EN"
 "http://www.w3.org/Graphics/SVG/1.1/DTD/svg11.dtd">
<!-- Generated by graphviz version 14.1.2 (20260124.0452)
 -->
<!-- Title: module_sf_mynn::zolri2 Pages: 1 -->
<!--zoomable 526 -->

<svg id="main" version="1.1" xmlns="http://www.w3.org/2000/svg" xmlns:xlink="http://www.w3.org/1999/xlink" xml:space="preserve" onload="init(evt)">

<style type="text/css"><![CDATA[
.node, .edge {opacity: 0.7;}
.node.selected, .edge.selected {opacity: 1;}
.edge:hover path { stroke: red; }
.edge:hover polygon { stroke: red; fill: red; }
]]></style>

<defs>
  <circle id="rim" cx="0" cy="0" r="7"/>
  <circle id="rim2" cx="0" cy="0" r="3.5"/>
  <g id="zoomPlus">
    <use xlink:href="#rim" fill="#404040"><set attributeName="fill" to="#808080" begin="zoomplus.mouseover" end="zoomplus.mouseout"/></use>
    <path d="M-4,0h8M0,-4v8" fill="none" stroke="white" stroke-width="1.5" pointer-events="none"/>
  </g>
  <g id="zoomMin">
    <use xlink:href="#rim" fill="#404040"><set attributeName="fill" to="#808080" begin="zoomminus.mouseover" end="zoomminus.mouseout"/></use>
    <path d="M-4,0h8" fill="none" stroke="white" stroke-width="1.5" pointer-events="none"/>
  </g>
  <g id="arrowUp" transform="translate(30 24)">
    <use xlink:href="#rim"/>
    <path pointer-events="none" fill="none" stroke="white" stroke-width="1.5" d="M0,-3.0v7 M-2.5,-0.5L0,-3.0L2.5,-0.5"/>
  </g>
  <g id="arrowRight" transform="rotate(90) translate(36 -43)">
    <use xlink:href="#rim"/>
    <path pointer-events="none" fill="none" stroke="white" stroke-width="1.5" d="M0,-3.0v7 M-2.5,-0.5L0,-3.0L2.5,-0.5"/>
  </g>
  <g id="arrowDown" transform="rotate(180) translate(-30 -48)">
    <use xlink:href="#rim"/>
    <path pointer-events="none" fill="none" stroke="white" stroke-width="1.5" d="M0,-3.0v7 M-2.5,-0.5L0,-3.0L2.5,-0.5"/>
  </g>
  <g id="arrowLeft" transform="rotate(270) translate(-36 17)">
    <use xlink:href="#rim"/>
    <path pointer-events="none" fill="none" stroke="white" stroke-width="1.5" d="M0,-3.0v7 M-2.5,-0.5L0,-3.0L2.5,-0.5"/>
  </g>
  <g id="resetDef">
    <use xlink:href="#rim2" fill="#404040"><set attributeName="fill" to="#808080" begin="reset.mouseover" end="reset.mouseout"/></use>
  </g>
</defs>
<script type="application/ecmascript">
var viewWidth = 434;
var viewHeight = 526;
var sectionId = 'dynsection-0';
</script>
<script type="application/ecmascript" xlink:href="svg.min.js"/>
<svg id="graph" class="graph">
<g id="viewport">
<title>module_sf_mynn::zolri2</title>
<!-- Node1 -->
<g id="Node000001" class="node">
<title>Node1</title>
<g id="a_Node000001"><a xlink:title=" ">
<polygon fill="#999999" stroke="#666666" points="119.5,-258.88 0,-258.88 0,-239.62 119.5,-239.62 119.5,-258.88"/>
<text xml:space="preserve" text-anchor="middle" x="59.75" y="-245.38" font-family="Source Sans Pro" font-size="10.00">module_sf_mynn::zolri2</text>
</a>
</g>
</g>
<!-- Node2 -->
<g id="Node000002" class="node">
<title>Node2</title>
<g id="a_Node000002"><a xlink:href="group__mynn__sfc_ga2a33b37b24c6050511f00967992ece58.html#ga2a33b37b24c6050511f00967992ece58" target="_top" xlink:title=" ">
<polygon fill="white" stroke="#666666" points="271.25,-432.5 157,-432.5 157,-402 271.25,-402 271.25,-432.5"/>
<text xml:space="preserve" text-anchor="start" x="165" y="-419" font-family="Source Sans Pro" font-size="10.00">module_sf_mynn::psih</text>
<text xml:space="preserve" text-anchor="middle" x="214.12" y="-407.75" font-family="Source Sans Pro" font-size="10.00">_stable</text>
</a>
</g>
</g>
<!-- Node1&#45;&gt;Node2 -->
<g id="edge1_Node000001_Node000002" class="edge">
<title>Node1&#45;&gt;Node2</title>
<g id="a_edge1_Node000001_Node000002"><a xlink:title=" ">
<path fill="none" stroke="#63b8ff" d="M69.83,-259.26C93.49,-285.35 157.6,-356.03 191.47,-393.38"/>
<polygon fill="#63b8ff" stroke="#63b8ff" points="188.67,-395.5 197.98,-400.56 193.86,-390.8 188.67,-395.5"/>
</a>
</g>
</g>
<!-- Node5 -->
<g id="Node000005" class="node">
<title>Node5</title>
<g id="a_Node000005"><a xlink:href="group__mynn__sfc_ga6e10bc7bd36fcdbf2b555f49396c9eec.html#ga6e10bc7bd36fcdbf2b555f49396c9eec" target="_top" xlink:title=" ">
<polygon fill="white" stroke="#666666" points="271.25,-298.5 157,-298.5 157,-268 271.25,-268 271.25,-298.5"/>
<text xml:space="preserve" text-anchor="start" x="165" y="-285" font-family="Source Sans Pro" font-size="10.00">module_sf_mynn::psih</text>
<text xml:space="preserve" text-anchor="middle" x="214.12" y="-273.75" font-family="Source Sans Pro" font-size="10.00">_unstable</text>
</a>
</g>
</g>
<!-- Node1&#45;&gt;Node5 -->
<g id="edge7_Node000001_Node000005" class="edge">
<title>Node1&#45;&gt;Node5</title>
<g id="a_edge7_Node000001_Node000005"><a xlink:title=" ">
<path fill="none" stroke="#63b8ff" d="M106.05,-259.36C118.46,-262.13 132.18,-265.19 145.54,-268.17"/>
<polygon fill="#63b8ff" stroke="#63b8ff" points="144.65,-271.56 155.17,-270.32 146.17,-264.72 144.65,-271.56"/>
</a>
</g>
</g>
<!-- Node8 -->
<g id="Node000008" class="node">
<title>Node8</title>
<g id="a_Node000008"><a xlink:href="group__mynn__sfc_ga454633ed81c49d8e9468a102612e38d1.html#ga454633ed81c49d8e9468a102612e38d1" target="_top" xlink:title="look&#45;up table functions &#45; or, if beyond &#45;10 &lt; z/L &lt; 10, recalculate">
<polygon fill="white" stroke="#666666" points="272.75,-231.5 155.5,-231.5 155.5,-201 272.75,-201 272.75,-231.5"/>
<text xml:space="preserve" text-anchor="start" x="163.5" y="-218" font-family="Source Sans Pro" font-size="10.00">module_sf_mynn::psim</text>
<text xml:space="preserve" text-anchor="middle" x="214.12" y="-206.75" font-family="Source Sans Pro" font-size="10.00">_stable</text>
</a>
</g>
</g>
<!-- Node1&#45;&gt;Node8 -->
<g id="edge13_Node000001_Node000008" class="edge">
<title>Node1&#45;&gt;Node8</title>
<g id="a_edge13_Node000001_Node000008"><a xlink:title=" ">
<path fill="none" stroke="#63b8ff" d="M107.3,-239.17C118.82,-236.67 131.42,-233.95 143.77,-231.27"/>
<polygon fill="#63b8ff" stroke="#63b8ff" points="144.5,-234.69 153.54,-229.16 143.02,-227.85 144.5,-234.69"/>
</a>
</g>
</g>
<!-- Node11 -->
<g id="Node000011" class="node">
<title>Node11</title>
<g id="a_Node000011"><a xlink:href="group__mynn__sfc_ga885118af5fa22eb8e00039c531ddd8db.html#ga885118af5fa22eb8e00039c531ddd8db" target="_top" xlink:title=" ">
<polygon fill="white" stroke="#666666" points="272.75,-97.5 155.5,-97.5 155.5,-67 272.75,-67 272.75,-97.5"/>
<text xml:space="preserve" text-anchor="start" x="163.5" y="-84" font-family="Source Sans Pro" font-size="10.00">module_sf_mynn::psim</text>
<text xml:space="preserve" text-anchor="middle" x="214.12" y="-72.75" font-family="Source Sans Pro" font-size="10.00">_unstable</text>
</a>
</g>
</g>
<!-- Node1&#45;&gt;Node11 -->
<g id="edge19_Node000001_Node000011" class="edge">
<title>Node1&#45;&gt;Node11</title>
<g id="a_edge19_Node000001_Node000011"><a xlink:title=" ">
<path fill="none" stroke="#63b8ff" d="M69.83,-239.3C93.43,-213.43 157.28,-143.46 191.22,-106.26"/>
<polygon fill="#63b8ff" stroke="#63b8ff" points="193.59,-108.85 197.75,-99.1 188.42,-104.13 193.59,-108.85"/>
</a>
</g>
</g>
<!-- Node2&#45;&gt;Node2 -->
<g id="edge2_Node000002_Node000002" class="edge">
<title>Node2&#45;&gt;Node2</title>
<g id="a_edge2_Node000002_Node000002"><a xlink:title=" ">
<path fill="none" stroke="#63b8ff" d="M186.97,-432.99C181.43,-442.06 190.48,-450.5 214.12,-450.5 227.06,-450.5 235.62,-447.97 239.83,-444.2"/>
<polygon fill="#63b8ff" stroke="#63b8ff" points="243.27,-444.85 241.09,-434.49 236.33,-443.95 243.27,-444.85"/>
</a>
</g>
</g>
<!-- Node3 -->
<g id="Node000003" class="node">
<title>Node3</title>
<g id="a_Node000003"><a xlink:href="group__mynn__sfc_ga214373cdd64d666866d4c818b57a47ec.html#ga214373cdd64d666866d4c818b57a47ec" target="_top" xlink:title=" ">
<polygon fill="white" stroke="#666666" points="424.5,-499.5 310.25,-499.5 310.25,-469 424.5,-469 424.5,-499.5"/>
<text xml:space="preserve" text-anchor="start" x="318.25" y="-486" font-family="Source Sans Pro" font-size="10.00">module_sf_mynn::psih</text>
<text xml:space="preserve" text-anchor="middle" x="367.38" y="-474.75" font-family="Source Sans Pro" font-size="10.00">_stable_full</text>
</a>
</g>
</g>
<!-- Node2&#45;&gt;Node3 -->
<g id="edge3_Node000002_Node000003" class="edge">
<title>Node2&#45;&gt;Node3</title>
<g id="a_edge3_Node000002_Node000003"><a xlink:title=" ">
<path fill="none" stroke="#63b8ff" d="M249.76,-432.91C267.4,-440.85 289.19,-450.62 308.75,-459.25 312.3,-460.82 315.98,-462.43 319.67,-464.05"/>
<polygon fill="#63b8ff" stroke="#63b8ff" points="318.12,-467.19 328.68,-467.98 320.92,-460.77 318.12,-467.19"/>
</a>
</g>
</g>
<!-- Node4 -->
<g id="Node000004" class="node">
<title>Node4</title>
<g id="a_Node000004"><a xlink:href="group__mynn__sfc_ga2186e04d782df51218fbd03d31517fc8.html#ga2186e04d782df51218fbd03d31517fc8" target="_top" xlink:title=" ">
<polygon fill="white" stroke="#666666" points="424.5,-432.5 310.25,-432.5 310.25,-402 424.5,-402 424.5,-432.5"/>
<text xml:space="preserve" text-anchor="start" x="318.25" y="-419" font-family="Source Sans Pro" font-size="10.00">module_sf_mynn::psih</text>
<text xml:space="preserve" text-anchor="middle" x="367.38" y="-407.75" font-family="Source Sans Pro" font-size="10.00">_stable_full_gfs</text>
</a>
</g>
</g>
<!-- Node2&#45;&gt;Node4 -->
<g id="edge5_Node000002_Node000004" class="edge">
<title>Node2&#45;&gt;Node4</title>
<g id="a_edge5_Node000002_Node000004"><a xlink:title=" ">
<path fill="none" stroke="#63b8ff" d="M271.44,-417.25C280.24,-417.25 289.42,-417.25 298.44,-417.25"/>
<polygon fill="#63b8ff" stroke="#63b8ff" points="298.24,-420.75 308.24,-417.25 298.24,-413.75 298.24,-420.75"/>
</a>
</g>
</g>
<!-- Node3&#45;&gt;Node3 -->
<g id="edge4_Node000003_Node000003" class="edge">
<title>Node3&#45;&gt;Node3</title>
<g id="a_edge4_Node000003_Node000003"><a xlink:title=" ">
<path fill="none" stroke="#63b8ff" d="M340.22,-499.99C334.68,-509.06 343.73,-517.5 367.38,-517.5 380.31,-517.5 388.87,-514.97 393.08,-511.2"/>
<polygon fill="#63b8ff" stroke="#63b8ff" points="396.52,-511.85 394.34,-501.49 389.58,-510.95 396.52,-511.85"/>
</a>
</g>
</g>
<!-- Node4&#45;&gt;Node4 -->
<g id="edge6_Node000004_Node000004" class="edge">
<title>Node4&#45;&gt;Node4</title>
<g id="a_edge6_Node000004_Node000004"><a xlink:title=" ">
<path fill="none" stroke="#63b8ff" d="M340.22,-432.99C334.68,-442.06 343.73,-450.5 367.38,-450.5 380.31,-450.5 388.87,-447.97 393.08,-444.2"/>
<polygon fill="#63b8ff" stroke="#63b8ff" points="396.52,-444.85 394.34,-434.49 389.58,-443.95 396.52,-444.85"/>
</a>
</g>
</g>
<!-- Node5&#45;&gt;Node5 -->
<g id="edge8_Node000005_Node000005" class="edge">
<title>Node5&#45;&gt;Node5</title>
<g id="a_edge8_Node000005_Node000005"><a xlink:title=" ">
<path fill="none" stroke="#63b8ff" d="M186.97,-298.99C181.43,-308.06 190.48,-316.5 214.12,-316.5 227.06,-316.5 235.62,-313.97 239.83,-310.2"/>
<polygon fill="#63b8ff" stroke="#63b8ff" points="243.27,-310.85 241.09,-300.49 236.33,-309.95 243.27,-310.85"/>
</a>
</g>
</g>
<!-- Node6 -->
<g id="Node000006" class="node">
<title>Node6</title>
<g id="a_Node000006"><a xlink:href="group__mynn__sfc_gae46cc20c17ea15f5c9f5610ab6942073.html#gae46cc20c17ea15f5c9f5610ab6942073" target="_top" xlink:title=" ">
<polygon fill="white" stroke="#666666" points="424.5,-365.5 310.25,-365.5 310.25,-335 424.5,-335 424.5,-365.5"/>
<text xml:space="preserve" text-anchor="start" x="318.25" y="-352" font-family="Source Sans Pro" font-size="10.00">module_sf_mynn::psih</text>
<text xml:space="preserve" text-anchor="middle" x="367.38" y="-340.75" font-family="Source Sans Pro" font-size="10.00">_unstable_full</text>
</a>
</g>
</g>
<!-- Node5&#45;&gt;Node6 -->
<g id="edge9_Node000005_Node000006" class="edge">
<title>Node5&#45;&gt;Node6</title>
<g id="a_edge9_Node000005_Node000006"><a xlink:title=" ">
<path fill="none" stroke="#63b8ff" d="M249.76,-298.91C267.4,-306.85 289.19,-316.62 308.75,-325.25 312.3,-326.82 315.98,-328.43 319.67,-330.05"/>
<polygon fill="#63b8ff" stroke="#63b8ff" points="318.12,-333.19 328.68,-333.98 320.92,-326.77 318.12,-333.19"/>
</a>
</g>
</g>
<!-- Node7 -->
<g id="Node000007" class="node">
<title>Node7</title>
<g id="a_Node000007"><a xlink:href="group__mynn__sfc_gaa556db3881e63c9fc578aafd1071e248.html#gaa556db3881e63c9fc578aafd1071e248" target="_top" xlink:title=" ">
<polygon fill="white" stroke="#666666" points="424.5,-298.5 310.25,-298.5 310.25,-268 424.5,-268 424.5,-298.5"/>
<text xml:space="preserve" text-anchor="start" x="318.25" y="-285" font-family="Source Sans Pro" font-size="10.00">module_sf_mynn::psih</text>
<text xml:space="preserve" text-anchor="middle" x="367.38" y="-273.75" font-family="Source Sans Pro" font-size="10.00">_unstable_full_gfs</text>
</a>
</g>
</g>
<!-- Node5&#45;&gt;Node7 -->
<g id="edge11_Node000005_Node000007" class="edge">
<title>Node5&#45;&gt;Node7</title>
<g id="a_edge11_Node000005_Node000007"><a xlink:title=" ">
<path fill="none" stroke="#63b8ff" d="M271.44,-283.25C280.24,-283.25 289.42,-283.25 298.44,-283.25"/>
<polygon fill="#63b8ff" stroke="#63b8ff" points="298.24,-286.75 308.24,-283.25 298.24,-279.75 298.24,-286.75"/>
</a>
</g>
</g>
<!-- Node6&#45;&gt;Node6 -->
<g id="edge10_Node000006_Node000006" class="edge">
<title>Node6&#45;&gt;Node6</title>
<g id="a_edge10_Node000006_Node000006"><a xlink:title=" ">
<path fill="none" stroke="#63b8ff" d="M340.22,-365.99C334.68,-375.06 343.73,-383.5 367.38,-383.5 380.31,-383.5 388.87,-380.97 393.08,-377.2"/>
<polygon fill="#63b8ff" stroke="#63b8ff" points="396.52,-377.85 394.34,-367.49 389.58,-376.95 396.52,-377.85"/>
</a>
</g>
</g>
<!-- Node7&#45;&gt;Node7 -->
<g id="edge12_Node000007_Node000007" class="edge">
<title>Node7&#45;&gt;Node7</title>
<g id="a_edge12_Node000007_Node000007"><a xlink:title=" ">
<path fill="none" stroke="#63b8ff" d="M340.22,-298.99C334.68,-308.06 343.73,-316.5 367.38,-316.5 380.31,-316.5 388.87,-313.97 393.08,-310.2"/>
<polygon fill="#63b8ff" stroke="#63b8ff" points="396.52,-310.85 394.34,-300.49 389.58,-309.95 396.52,-310.85"/>
</a>
</g>
</g>
<!-- Node8&#45;&gt;Node8 -->
<g id="edge14_Node000008_Node000008" class="edge">
<title>Node8&#45;&gt;Node8</title>
<g id="a_edge14_Node000008_Node000008"><a xlink:title=" ">
<path fill="none" stroke="#63b8ff" d="M186.97,-231.99C181.43,-241.06 190.48,-249.5 214.12,-249.5 227.06,-249.5 235.62,-246.97 239.83,-243.2"/>
<polygon fill="#63b8ff" stroke="#63b8ff" points="243.27,-243.85 241.09,-233.49 236.33,-242.95 243.27,-243.85"/>
</a>
</g>
</g>
<!-- Node9 -->
<g id="Node000009" class="node">
<title>Node9</title>
<g id="a_Node000009"><a xlink:href="group__mynn__sfc_gaaefd04628906b35b8ba54bbf62e6a78f.html#gaaefd04628906b35b8ba54bbf62e6a78f" target="_top" xlink:title=" ">
<polygon fill="white" stroke="#666666" points="426,-231.5 308.75,-231.5 308.75,-201 426,-201 426,-231.5"/>
<text xml:space="preserve" text-anchor="start" x="316.75" y="-218" font-family="Source Sans Pro" font-size="10.00">module_sf_mynn::psim</text>
<text xml:space="preserve" text-anchor="middle" x="367.38" y="-206.75" font-family="Source Sans Pro" font-size="10.00">_stable_full</text>
</a>
</g>
</g>
<!-- Node8&#45;&gt;Node9 -->
<g id="edge15_Node000008_Node000009" class="edge">
<title>Node8&#45;&gt;Node9</title>
<g id="a_edge15_Node000008_Node000009"><a xlink:title=" ">
<path fill="none" stroke="#63b8ff" d="M273.17,-216.25C281.1,-216.25 289.3,-216.25 297.39,-216.25"/>
<polygon fill="#63b8ff" stroke="#63b8ff" points="297.22,-219.75 307.22,-216.25 297.22,-212.75 297.22,-219.75"/>
</a>
</g>
</g>
<!-- Node10 -->
<g id="Node000010" class="node">
<title>Node10</title>
<g id="a_Node000010"><a xlink:href="group__mynn__sfc_ga12649bf97aa4974c23a7723c418907e0.html#ga12649bf97aa4974c23a7723c418907e0" target="_top" xlink:title=" ">
<polygon fill="white" stroke="#666666" points="426,-164.5 308.75,-164.5 308.75,-134 426,-134 426,-164.5"/>
<text xml:space="preserve" text-anchor="start" x="316.75" y="-151" font-family="Source Sans Pro" font-size="10.00">module_sf_mynn::psim</text>
<text xml:space="preserve" text-anchor="middle" x="367.38" y="-139.75" font-family="Source Sans Pro" font-size="10.00">_stable_full_gfs</text>
</a>
</g>
</g>
<!-- Node8&#45;&gt;Node10 -->
<g id="edge17_Node000008_Node000010" class="edge">
<title>Node8&#45;&gt;Node10</title>
<g id="a_edge17_Node000008_Node000010"><a xlink:title=" ">
<path fill="none" stroke="#63b8ff" d="M250.59,-200.54C271.47,-191.29 298.1,-179.49 320.56,-169.55"/>
<polygon fill="#63b8ff" stroke="#63b8ff" points="321.76,-172.84 329.49,-165.59 318.93,-166.44 321.76,-172.84"/>
</a>
</g>
</g>
<!-- Node9&#45;&gt;Node9 -->
<g id="edge16_Node000009_Node000009" class="edge">
<title>Node9&#45;&gt;Node9</title>
<g id="a_edge16_Node000009_Node000009"><a xlink:title=" ">
<path fill="none" stroke="#63b8ff" d="M340.22,-231.99C334.68,-241.06 343.73,-249.5 367.38,-249.5 380.31,-249.5 388.87,-246.97 393.08,-243.2"/>
<polygon fill="#63b8ff" stroke="#63b8ff" points="396.52,-243.85 394.34,-233.49 389.58,-242.95 396.52,-243.85"/>
</a>
</g>
</g>
<!-- Node10&#45;&gt;Node10 -->
<g id="edge18_Node000010_Node000010" class="edge">
<title>Node10&#45;&gt;Node10</title>
<g id="a_edge18_Node000010_Node000010"><a xlink:title=" ">
<path fill="none" stroke="#63b8ff" d="M340.22,-164.99C334.68,-174.06 343.73,-182.5 367.38,-182.5 380.31,-182.5 388.87,-179.97 393.08,-176.2"/>
<polygon fill="#63b8ff" stroke="#63b8ff" points="396.52,-176.85 394.34,-166.49 389.58,-175.95 396.52,-176.85"/>
</a>
</g>
</g>
<!-- Node11&#45;&gt;Node11 -->
<g id="edge20_Node000011_Node000011" class="edge">
<title>Node11&#45;&gt;Node11</title>
<g id="a_edge20_Node000011_Node000011"><a xlink:title=" ">
<path fill="none" stroke="#63b8ff" d="M186.97,-97.99C181.43,-107.06 190.48,-115.5 214.12,-115.5 227.06,-115.5 235.62,-112.97 239.83,-109.2"/>
<polygon fill="#63b8ff" stroke="#63b8ff" points="243.27,-109.85 241.09,-99.49 236.33,-108.95 243.27,-109.85"/>
</a>
</g>
</g>
<!-- Node12 -->
<g id="Node000012" class="node">
<title>Node12</title>
<g id="a_Node000012"><a xlink:href="group__mynn__sfc_gace0216359bf098fd5cc7fa7cb8b3b716.html#gace0216359bf098fd5cc7fa7cb8b3b716" target="_top" xlink:title=" ">
<polygon fill="white" stroke="#666666" points="426,-97.5 308.75,-97.5 308.75,-67 426,-67 426,-97.5"/>
<text xml:space="preserve" text-anchor="start" x="316.75" y="-84" font-family="Source Sans Pro" font-size="10.00">module_sf_mynn::psim</text>
<text xml:space="preserve" text-anchor="middle" x="367.38" y="-72.75" font-family="Source Sans Pro" font-size="10.00">_unstable_full</text>
</a>
</g>
</g>
<!-- Node11&#45;&gt;Node12 -->
<g id="edge21_Node000011_Node000012" class="edge">
<title>Node11&#45;&gt;Node12</title>
<g id="a_edge21_Node000011_Node000012"><a xlink:title=" ">
<path fill="none" stroke="#63b8ff" d="M273.17,-82.25C281.1,-82.25 289.3,-82.25 297.39,-82.25"/>
<polygon fill="#63b8ff" stroke="#63b8ff" points="297.22,-85.75 307.22,-82.25 297.22,-78.75 297.22,-85.75"/>
</a>
</g>
</g>
<!-- Node13 -->
<g id="Node000013" class="node">
<title>Node13</title>
<g id="a_Node000013"><a xlink:href="group__mynn__sfc_ga8e88a4eb2ee98eb538da06f42215e8b7.html#ga8e88a4eb2ee98eb538da06f42215e8b7" target="_top" xlink:title=" ">
<polygon fill="white" stroke="#666666" points="426,-30.5 308.75,-30.5 308.75,0 426,0 426,-30.5"/>
<text xml:space="preserve" text-anchor="start" x="316.75" y="-17" font-family="Source Sans Pro" font-size="10.00">module_sf_mynn::psim</text>
<text xml:space="preserve" text-anchor="middle" x="367.38" y="-5.75" font-family="Source Sans Pro" font-size="10.00">_unstable_full_gfs</text>
</a>
</g>
</g>
<!-- Node11&#45;&gt;Node13 -->
<g id="edge23_Node000011_Node000013" class="edge">
<title>Node11&#45;&gt;Node13</title>
<g id="a_edge23_Node000011_Node000013"><a xlink:title=" ">
<path fill="none" stroke="#63b8ff" d="M250.59,-66.54C271.47,-57.29 298.1,-45.49 320.56,-35.55"/>
<polygon fill="#63b8ff" stroke="#63b8ff" points="321.76,-38.84 329.49,-31.59 318.93,-32.44 321.76,-38.84"/>
</a>
</g>
</g>
<!-- Node12&#45;&gt;Node12 -->
<g id="edge22_Node000012_Node000012" class="edge">
<title>Node12&#45;&gt;Node12</title>
<g id="a_edge22_Node000012_Node000012"><a xlink:title=" ">
<path fill="none" stroke="#63b8ff" d="M340.22,-97.99C334.68,-107.06 343.73,-115.5 367.38,-115.5 380.31,-115.5 388.87,-112.97 393.08,-109.2"/>
<polygon fill="#63b8ff" stroke="#63b8ff" points="396.52,-109.85 394.34,-99.49 389.58,-108.95 396.52,-109.85"/>
</a>
</g>
</g>
<!-- Node13&#45;&gt;Node13 -->
<g id="edge24_Node000013_Node000013" class="edge">
<title>Node13&#45;&gt;Node13</title>
<g id="a_edge24_Node000013_Node000013"><a xlink:title=" ">
<path fill="none" stroke="#63b8ff" d="M340.22,-30.99C334.68,-40.06 343.73,-48.5 367.38,-48.5 380.31,-48.5 388.87,-45.97 393.08,-42.2"/>
<polygon fill="#63b8ff" stroke="#63b8ff" points="396.52,-42.85 394.34,-32.49 389.58,-41.95 396.52,-42.85"/>
</a>
</g>
</g>
</g>
</svg>

<g id="navigator" transform="translate(0 0)" fill="#404254">
  <rect fill="#f2f5e9" fill-opacity="0.5" stroke="#606060" stroke-width=".5" x="0" y="0" width="60" height="60"/>
  <use id="zoomplus" xlink:href="#zoomPlus" x="17" y="9" onmousedown="handleZoom(evt,'in')"/>
  <use id="zoomminus" xlink:href="#zoomMin" x="42" y="9" onmousedown="handleZoom(evt,'out')"/>
  <use id="reset" xlink:href="#resetDef" x="30" y="36" onmousedown="handleReset()"/>
   <use id="arrowup" xlink:href="#arrowUp" x="0" y="0" onmousedown="handlePan(0,-1)"/>
  <use id="arrowright" xlink:href="#arrowRight" x="0" y="0" onmousedown="handlePan(1,0)"/>
  <use id="arrowdown" xlink:href="#arrowDown" x="0" y="0" onmousedown="handlePan(0,1)"/>
  <use id="arrowleft" xlink:href="#arrowLeft" x="0" y="0" onmousedown="handlePan(-1,0)"/>
</g>
<svg viewBox="0 0 15 15" width="100%" height="30px" preserveAspectRatio="xMaxYMin meet">
 <g id="arrow_out" transform="scale(0.3 0.3)">
  <a xlink:href="namespacemodule__sf__mynn_a90fd8579b051a294a6626abe29d7b108_a90fd8579b051a294a6626abe29d7b108_cgraph_org.svg" target="_base">
   <rect id="button" ry="5" rx="5" y="6" x="6" height="38" width="38"
        fill="#f2f5e9" fill-opacity="0.5" stroke="#606060" stroke-width="1.0"/>
   <path id="arrow"
     d="M 11.500037,31.436501 C 11.940474,20.09759 22.043105,11.32322 32.158766,21.979434 L 37.068811,17.246167 C 37.068811,17.246167 37.088388,32 37.088388,32 L 22.160133,31.978069 C 22.160133,31.978069 26.997745,27.140456 26.997745,27.140456 C 18.528582,18.264221 13.291696,25.230495 11.500037,31.436501 z"
     style="fill:#404040;"/>
  </a>
 </g>
</svg>

<style type='text/css'>
<![CDATA[
[data-mouse-over-selected='false'] { opacity: 0.7; }
[data-mouse-over-selected='true']  { opacity: 1.0; }
]]>
</style>
<script type="application/ecmascript"><![CDATA[
document.addEventListener('DOMContentLoaded', (event) => {
  highlightEdges();
  highlightAdjacentNodes();
});
]]></script>
</svg>
