<?xml version="1.0" encoding="UTF-8" standalone="no"?>
<!DOCTYPE svg PUBLIC "-//W3C//DTD SVG 1.1//EN"
 "http://www.w3.org/Graphics/SVG/1.1/DTD/svg11.dtd">
<!-- Generated by graphviz version 14.1.2 (20260124.0452)
 -->
<!-- Title: lsm_ruc::lsm_ruc_init Pages: 1 -->
<svg width="448pt" height="180pt"
 viewBox="0.00 0.00 448.00 180.00" xmlns="http://www.w3.org/2000/svg" xmlns:xlink="http://www.w3.org/1999/xlink">

<svg id="main" version="1.1" xmlns="http://www.w3.org/2000/svg" xmlns:xlink="http://www.w3.org/1999/xlink" xml:space="preserve">

<style type="text/css"><![CDATA[
.node, .edge {opacity: 0.7;}
.node.selected, .edge.selected {opacity: 1;}
.edge:hover path { stroke: red; }
.edge:hover polygon { stroke: red; fill: red; }
]]></style>
<script type="application/ecmascript" xlink:href="svg.min.js"/>
<svg id="graph" class="graph">
<g id="graph0" class="graph" transform="scale(1 1) rotate(0) translate(4 175.5)">
<title>lsm_ruc::lsm_ruc_init</title>
<!-- Node1 -->
<g id="Node000001" class="node">
<title>Node1</title>
<g id="a_Node000001"><a xlink:title="This subroutine calls set_soilveg_ruc() to specify vegetation and soil parameters for a given soil an...">
<polygon fill="#999999" stroke="#666666" points="109,-85.88 0,-85.88 0,-66.62 109,-66.62 109,-85.88"/>
<text xml:space="preserve" text-anchor="middle" x="54.5" y="-72.38" font-family="Source Sans Pro" font-size="10.00">lsm_ruc::lsm_ruc_init</text>
</a>
</g>
</g>
<!-- Node2 -->
<g id="Node000002" class="node">
<title>Node2</title>
<g id="a_Node000002"><a xlink:href="group__lsm__ruc__group_ga15873463266b145214019f55f10ae79c.html#ga15873463266b145214019f55f10ae79c" target="_top" xlink:title="This subroutine defines level depth in soil and thickness of soil layers RUC LSM.">
<polygon fill="white" stroke="#666666" points="255.12,-171.5 149.88,-171.5 149.88,-141 255.12,-141 255.12,-171.5"/>
<text xml:space="preserve" text-anchor="start" x="157.88" y="-158" font-family="Source Sans Pro" font-size="10.00">module_soil_pre::init</text>
<text xml:space="preserve" text-anchor="middle" x="202.5" y="-146.75" font-family="Source Sans Pro" font-size="10.00">_soil_depth_3</text>
</a>
</g>
</g>
<!-- Node1&#45;&gt;Node2 -->
<g id="edge1_Node000001_Node000002" class="edge">
<title>Node1&#45;&gt;Node2</title>
<g id="a_edge1_Node000001_Node000002"><a xlink:title=" ">
<path fill="none" stroke="#63b8ff" d="M69.97,-86.3C87.32,-98.12 117.53,-117.94 145,-132.25 147.23,-133.41 149.52,-134.56 151.86,-135.69"/>
<polygon fill="#63b8ff" stroke="#63b8ff" points="150.31,-138.83 160.85,-139.88 153.26,-132.49 150.31,-138.83"/>
</a>
</g>
</g>
<!-- Node3 -->
<g id="Node000003" class="node">
<title>Node3</title>
<g id="a_Node000003"><a xlink:href="group__lsm__ruc__group_ga62018adea7e0870cfadb6377991c29e1.html#ga62018adea7e0870cfadb6377991c29e1" target="_top" xlink:title="This function calculates the liquid saturation vapor mixing ratio as a function of temperature and pr...">
<polygon fill="white" stroke="#666666" points="260,-104.88 145,-104.88 145,-85.62 260,-85.62 260,-104.88"/>
<text xml:space="preserve" text-anchor="middle" x="202.5" y="-91.38" font-family="Source Sans Pro" font-size="10.00">module_sf_ruclsm::rslf</text>
</a>
</g>
</g>
<!-- Node1&#45;&gt;Node3 -->
<g id="edge2_Node000001_Node000003" class="edge">
<title>Node1&#45;&gt;Node3</title>
<g id="a_edge2_Node000001_Node000003"><a xlink:title=" ">
<path fill="none" stroke="#63b8ff" d="M109.45,-83.27C117.29,-84.29 125.45,-85.35 133.52,-86.4"/>
<polygon fill="#63b8ff" stroke="#63b8ff" points="132.97,-89.86 143.33,-87.68 133.87,-82.92 132.97,-89.86"/>
</a>
</g>
</g>
<!-- Node4 -->
<g id="Node000004" class="node">
<title>Node4</title>
<g id="a_Node000004"><a xlink:href="group__lsm__ruc__group_ga090ebcc488308069c9c8189a4f430c51.html#ga090ebcc488308069c9c8189a4f430c51" target="_top" xlink:title="This subroutine contains RUC LSM initialization.">
<polygon fill="white" stroke="#666666" points="243.88,-67.88 161.12,-67.88 161.12,-48.62 243.88,-48.62 243.88,-67.88"/>
<text xml:space="preserve" text-anchor="middle" x="202.5" y="-54.38" font-family="Source Sans Pro" font-size="10.00">lsm_ruc::rucinit</text>
</a>
</g>
</g>
<!-- Node1&#45;&gt;Node4 -->
<g id="edge4_Node000001_Node000004" class="edge">
<title>Node1&#45;&gt;Node4</title>
<g id="a_edge4_Node000001_Node000004"><a xlink:title=" ">
<path fill="none" stroke="#63b8ff" d="M109.45,-69.6C122.64,-67.97 136.73,-66.24 149.81,-64.62"/>
<polygon fill="#63b8ff" stroke="#63b8ff" points="150.01,-68.12 159.51,-63.43 149.15,-61.18 150.01,-68.12"/>
</a>
</g>
</g>
<!-- Node7 -->
<g id="Node000007" class="node">
<title>Node7</title>
<g id="a_Node000007"><a xlink:href="group__lsm__ruc__group_gaeffc92b793d4d67ee72b20d7757f5add.html#gaeffc92b793d4d67ee72b20d7757f5add" target="_top" xlink:title="This subroutine specifies vegetation and soil parameters for a given soil and land&#45;use classification...">
<polygon fill="white" stroke="#666666" points="256.62,-30.5 148.38,-30.5 148.38,0 256.62,0 256.62,-30.5"/>
<text xml:space="preserve" text-anchor="start" x="156.38" y="-17" font-family="Source Sans Pro" font-size="10.00">set_soilveg_ruc_mod</text>
<text xml:space="preserve" text-anchor="middle" x="202.5" y="-5.75" font-family="Source Sans Pro" font-size="10.00">::set_soilveg_ruc</text>
</a>
</g>
</g>
<!-- Node1&#45;&gt;Node7 -->
<g id="edge7_Node000001_Node000007" class="edge">
<title>Node1&#45;&gt;Node7</title>
<g id="a_edge7_Node000001_Node000007"><a xlink:title=" ">
<path fill="none" stroke="#63b8ff" d="M79.61,-66.18C99.66,-57.8 128.83,-45.61 153.61,-35.26"/>
<polygon fill="#63b8ff" stroke="#63b8ff" points="154.64,-38.62 162.52,-31.54 151.94,-32.16 154.64,-38.62"/>
</a>
</g>
</g>
<!-- Node3&#45;&gt;Node3 -->
<g id="edge3_Node000003_Node000003" class="edge">
<title>Node3&#45;&gt;Node3</title>
<g id="a_edge3_Node000003_Node000003"><a xlink:title=" ">
<path fill="none" stroke="#63b8ff" d="M179.33,-105.16C168.76,-113.77 176.48,-122.88 202.5,-122.88 217.13,-122.88 225.98,-119.99 229.04,-115.94"/>
<polygon fill="#63b8ff" stroke="#63b8ff" points="232.44,-115.11 226.12,-106.61 225.76,-117.2 232.44,-115.11"/>
</a>
</g>
</g>
<!-- Node5 -->
<g id="Node000005" class="node">
<title>Node5</title>
<g id="a_Node000005"><a xlink:href="group__lsm__ruc__group_ga68f217ddc721bf28c875d23ece3c9f9a.html#ga68f217ddc721bf28c875d23ece3c9f9a" target="_top" xlink:title="This subroutine initializes soil moisture and temperature at RUC vertical levels from the Noah layers...">
<polygon fill="white" stroke="#666666" points="420.38,-94.5 315.12,-94.5 315.12,-64 420.38,-64 420.38,-94.5"/>
<text xml:space="preserve" text-anchor="start" x="323.12" y="-81" font-family="Source Sans Pro" font-size="10.00">module_soil_pre::init</text>
<text xml:space="preserve" text-anchor="middle" x="367.75" y="-69.75" font-family="Source Sans Pro" font-size="10.00">_soil_3_real</text>
</a>
</g>
</g>
<!-- Node4&#45;&gt;Node5 -->
<g id="edge5_Node000004_Node000005" class="edge">
<title>Node4&#45;&gt;Node5</title>
<g id="a_edge5_Node000004_Node000005"><a xlink:title=" ">
<path fill="none" stroke="#63b8ff" d="M244.27,-63.5C262.2,-65.8 283.67,-68.56 303.58,-71.12"/>
<polygon fill="#63b8ff" stroke="#63b8ff" points="302.91,-74.57 313.27,-72.37 303.8,-67.62 302.91,-74.57"/>
</a>
</g>
</g>
<!-- Node6 -->
<g id="Node000006" class="node">
<title>Node6</title>
<g id="a_Node000006"><a xlink:href="group__lsm__ruc__group_ga13cd472fb690d70bac3635f45bcb739c.html#ga13cd472fb690d70bac3635f45bcb739c" target="_top" xlink:title="This subroutine computes liquid and forezen soil moisture from the total soil moisture,...">
<polygon fill="white" stroke="#666666" points="439.5,-45.88 296,-45.88 296,-26.62 439.5,-26.62 439.5,-45.88"/>
<text xml:space="preserve" text-anchor="middle" x="367.75" y="-32.38" font-family="Source Sans Pro" font-size="10.00">module_sf_ruclsm::ruclsminit</text>
</a>
</g>
</g>
<!-- Node4&#45;&gt;Node6 -->
<g id="edge6_Node000004_Node000006" class="edge">
<title>Node4&#45;&gt;Node6</title>
<g id="a_edge6_Node000004_Node000006"><a xlink:title=" ">
<path fill="none" stroke="#63b8ff" d="M244.27,-52.76C256.57,-51.1 270.53,-49.22 284.52,-47.33"/>
<polygon fill="#63b8ff" stroke="#63b8ff" points="284.76,-50.83 294.21,-46.03 283.83,-43.89 284.76,-50.83"/>
</a>
</g>
</g>
</g>
</svg>
</svg>

<style type='text/css'>
<![CDATA[
[data-mouse-over-selected='false'] { opacity: 0.7; }
[data-mouse-over-selected='true']  { opacity: 1.0; }
]]>
</style>
<script type="application/ecmascript"><![CDATA[
document.addEventListener('DOMContentLoaded', (event) => {
  highlightEdges();
  highlightAdjacentNodes();
});
]]></script>
</svg>
