<?xml version="1.0" encoding="UTF-8" standalone="no"?>
<!DOCTYPE svg PUBLIC "-//W3C//DTD SVG 1.1//EN"
 "http://www.w3.org/Graphics/SVG/1.1/DTD/svg11.dtd">
<!-- Generated by graphviz version 14.1.2 (20260124.0452)
 -->
<!-- Title: module_radlw_parameters::proflw_type Pages: 1 -->
<svg width="130pt" height="115pt"
 viewBox="0.00 0.00 130.00 115.00" xmlns="http://www.w3.org/2000/svg" xmlns:xlink="http://www.w3.org/1999/xlink">
<g id="graph0" class="graph" transform="scale(1 1) rotate(0) translate(4 110.75)">
<title>module_radlw_parameters::proflw_type</title>
<!-- Node1 -->
<g id="Node000001" class="node">
<title>Node1</title>
<g id="a_Node000001"><a xlink:title="define type construct for optional radiation flux profiles">
<polygon fill="#999999" stroke="none" points="122,-106.75 0,-106.75 0,0 122,0 122,-106.75"/>
<text xml:space="preserve" text-anchor="start" x="4" y="-93.25" font-family="Source Sans Pro" font-size="10.00">module_radlw_parameters</text>
<text xml:space="preserve" text-anchor="start" x="32.88" y="-82" font-family="Source Sans Pro" font-size="10.00">::proflw_type</text>
<text xml:space="preserve" text-anchor="start" x="24" y="-66.75" font-family="Source Sans Pro" font-size="10.00">+</text>
<text xml:space="preserve" text-anchor="start" x="54" y="-66.75" font-family="Source Sans Pro" font-size="10.00">upfxc</text>
<text xml:space="preserve" text-anchor="start" x="24" y="-51.5" font-family="Source Sans Pro" font-size="10.00">+</text>
<text xml:space="preserve" text-anchor="start" x="54" y="-51.5" font-family="Source Sans Pro" font-size="10.00">dnfxc</text>
<text xml:space="preserve" text-anchor="start" x="24" y="-36.25" font-family="Source Sans Pro" font-size="10.00">+</text>
<text xml:space="preserve" text-anchor="start" x="54" y="-36.25" font-family="Source Sans Pro" font-size="10.00">upfx0</text>
<text xml:space="preserve" text-anchor="start" x="24" y="-21" font-family="Source Sans Pro" font-size="10.00">+</text>
<text xml:space="preserve" text-anchor="start" x="54" y="-21" font-family="Source Sans Pro" font-size="10.00">dnfx0</text>
<text xml:space="preserve" text-anchor="start" x="59.5" y="-5.75" font-family="Source Sans Pro" font-size="10.00"> </text>
<polygon fill="#666666" stroke="#666666" points="0,-78.25 0,-78.25 122,-78.25 122,-78.25 0,-78.25"/>
<polygon fill="#666666" stroke="#666666" points="0,-17.25 0,-17.25 52,-17.25 52,-17.25 0,-17.25"/>
<polygon fill="#666666" stroke="#666666" points="52,-17.25 52,-17.25 122,-17.25 122,-17.25 52,-17.25"/>
<polygon fill="none" stroke="#666666" points="0,0 0,-106.75 122,-106.75 122,0 0,0"/>
</a>
</g>
</g>
</g>
</svg>
