<?xml version="1.0" encoding="UTF-8" standalone="no"?>
<!DOCTYPE svg PUBLIC "-//W3C//DTD SVG 1.1//EN"
 "http://www.w3.org/Graphics/SVG/1.1/DTD/svg11.dtd">
<!-- Generated by graphviz version 14.1.2 (20260124.0452)
 -->
<!-- Title: rosr12 Pages: 1 -->
<!--zoomable 101 -->

<svg id="main" version="1.1" xmlns="http://www.w3.org/2000/svg" xmlns:xlink="http://www.w3.org/1999/xlink" xml:space="preserve" onload="init(evt)">

<style type="text/css"><![CDATA[
.node, .edge {opacity: 0.7;}
.node.selected, .edge.selected {opacity: 1;}
.edge:hover path { stroke: red; }
.edge:hover polygon { stroke: red; fill: red; }
]]></style>

<defs>
  <circle id="rim" cx="0" cy="0" r="7"/>
  <circle id="rim2" cx="0" cy="0" r="3.5"/>
  <g id="zoomPlus">
    <use xlink:href="#rim" fill="#404040"><set attributeName="fill" to="#808080" begin="zoomplus.mouseover" end="zoomplus.mouseout"/></use>
    <path d="M-4,0h8M0,-4v8" fill="none" stroke="white" stroke-width="1.5" pointer-events="none"/>
  </g>
  <g id="zoomMin">
    <use xlink:href="#rim" fill="#404040"><set attributeName="fill" to="#808080" begin="zoomminus.mouseover" end="zoomminus.mouseout"/></use>
    <path d="M-4,0h8" fill="none" stroke="white" stroke-width="1.5" pointer-events="none"/>
  </g>
  <g id="arrowUp" transform="translate(30 24)">
    <use xlink:href="#rim"/>
    <path pointer-events="none" fill="none" stroke="white" stroke-width="1.5" d="M0,-3.0v7 M-2.5,-0.5L0,-3.0L2.5,-0.5"/>
  </g>
  <g id="arrowRight" transform="rotate(90) translate(36 -43)">
    <use xlink:href="#rim"/>
    <path pointer-events="none" fill="none" stroke="white" stroke-width="1.5" d="M0,-3.0v7 M-2.5,-0.5L0,-3.0L2.5,-0.5"/>
  </g>
  <g id="arrowDown" transform="rotate(180) translate(-30 -48)">
    <use xlink:href="#rim"/>
    <path pointer-events="none" fill="none" stroke="white" stroke-width="1.5" d="M0,-3.0v7 M-2.5,-0.5L0,-3.0L2.5,-0.5"/>
  </g>
  <g id="arrowLeft" transform="rotate(270) translate(-36 17)">
    <use xlink:href="#rim"/>
    <path pointer-events="none" fill="none" stroke="white" stroke-width="1.5" d="M0,-3.0v7 M-2.5,-0.5L0,-3.0L2.5,-0.5"/>
  </g>
  <g id="resetDef">
    <use xlink:href="#rim2" fill="#404040"><set attributeName="fill" to="#808080" begin="reset.mouseover" end="reset.mouseout"/></use>
  </g>
</defs>
<script type="application/ecmascript">
var viewWidth = 617;
var viewHeight = 101;
var sectionId = 'dynsection-0';
</script>
<script type="application/ecmascript" xlink:href="svg.min.js"/>
<svg id="graph" class="graph">
<g id="viewport">
<title>rosr12</title>
<!-- Node1 -->
<g id="Node000001" class="node">
<title>Node1</title>
<g id="a_Node000001"><a xlink:title="This subroutine inverts (solve) the tri&#45;diagonal matrix problem.">
<polygon fill="#999999" stroke="#666666" points="609,-74.25 566,-74.25 566,-55 609,-55 609,-74.25"/>
<text xml:space="preserve" text-anchor="middle" x="587.5" y="-60.75" font-family="Source Sans Pro" font-size="10.00">rosr12</text>
</a>
</g>
</g>
<!-- Node2 -->
<g id="Node000002" class="node">
<title>Node2</title>
<g id="a_Node000002"><a xlink:href="group___noah___l_s_m_gacb79bab20ee25c57918575949c15de73.html#gacb79bab20ee25c57918575949c15de73" target="_top" xlink:title="This subroutine calculates/updates the soil temperature field.">
<polygon fill="white" stroke="#666666" points="530,-56.25 490,-56.25 490,-37 530,-37 530,-56.25"/>
<text xml:space="preserve" text-anchor="middle" x="510" y="-42.75" font-family="Source Sans Pro" font-size="10.00">hstep</text>
</a>
</g>
</g>
<!-- Node1&#45;&gt;Node2 -->
<g id="edge1_Node000001_Node000002" class="edge">
<title>Node1&#45;&gt;Node2</title>
<g id="a_edge1_Node000001_Node000002"><a xlink:title=" ">
<path fill="none" stroke="#63b8ff" d="M554.9,-57.09C546.55,-55.1 537.79,-53.01 530.31,-51.23"/>
<polygon fill="#63b8ff" stroke="#63b8ff" points="553.86,-60.44 564.4,-59.36 555.48,-53.63 553.86,-60.44"/>
</a>
</g>
</g>
<!-- Node9 -->
<g id="Node000009" class="node">
<title>Node9</title>
<g id="a_Node000009"><a xlink:href="group___noah___l_s_m_ga22b00b15c1b261126ec2d15719cb3aa4.html#ga22b00b15c1b261126ec2d15719cb3aa4" target="_top" xlink:title="This subroutine calculates/updates soil moisture content values and canopy moisture content values.">
<polygon fill="white" stroke="#666666" points="530,-93.25 490,-93.25 490,-74 530,-74 530,-93.25"/>
<text xml:space="preserve" text-anchor="middle" x="510" y="-79.75" font-family="Source Sans Pro" font-size="10.00">sstep</text>
</a>
</g>
</g>
<!-- Node1&#45;&gt;Node9 -->
<g id="edge9_Node000001_Node000009" class="edge">
<title>Node1&#45;&gt;Node9</title>
<g id="a_edge9_Node000001_Node000009"><a xlink:title=" ">
<path fill="none" stroke="#63b8ff" d="M554.9,-72.58C546.55,-74.68 537.79,-76.88 530.31,-78.77"/>
<polygon fill="#63b8ff" stroke="#63b8ff" points="555.56,-76.02 564.4,-70.19 553.85,-69.23 555.56,-76.02"/>
</a>
</g>
</g>
<!-- Node3 -->
<g id="Node000003" class="node">
<title>Node3</title>
<g id="a_Node000003"><a xlink:href="group___noah___l_s_m_ga977daabf4ff68b28fc5ccd8796d815cd.html#ga977daabf4ff68b28fc5ccd8796d815cd" target="_top" xlink:title="This subroutine updates the temperature state of the soil column based on the thermal diffusion equat...">
<polygon fill="white" stroke="#666666" points="452.5,-56.25 415.5,-56.25 415.5,-37 452.5,-37 452.5,-56.25"/>
<text xml:space="preserve" text-anchor="middle" x="434" y="-42.75" font-family="Source Sans Pro" font-size="10.00">shflx</text>
</a>
</g>
</g>
<!-- Node2&#45;&gt;Node3 -->
<g id="edge2_Node000002_Node000003" class="edge">
<title>Node2&#45;&gt;Node3</title>
<g id="a_edge2_Node000002_Node000003"><a xlink:title=" ">
<path fill="none" stroke="#63b8ff" d="M478.22,-46.62C469.55,-46.62 460.42,-46.62 452.79,-46.62"/>
<polygon fill="#63b8ff" stroke="#63b8ff" points="478.04,-50.13 488.04,-46.63 478.04,-43.13 478.04,-50.13"/>
</a>
</g>
</g>
<!-- Node4 -->
<g id="Node000004" class="node">
<title>Node4</title>
<g id="a_Node000004"><a xlink:href="group___noah___l_s_m_ga92994e4737ecfd692a6704778558c9c2.html#ga92994e4737ecfd692a6704778558c9c2" target="_top" xlink:title="This subroutine calculates soil moisture and heat flux values and update soil moisture content and so...">
<polygon fill="white" stroke="#666666" points="342,-93.25 299.75,-93.25 299.75,-74 342,-74 342,-93.25"/>
<text xml:space="preserve" text-anchor="middle" x="320.88" y="-79.75" font-family="Source Sans Pro" font-size="10.00">nopac</text>
</a>
</g>
</g>
<!-- Node3&#45;&gt;Node4 -->
<g id="edge3_Node000003_Node000004" class="edge">
<title>Node3&#45;&gt;Node4</title>
<g id="a_edge3_Node000003_Node000004"><a xlink:title=" ">
<path fill="none" stroke="#63b8ff" d="M404.61,-56.57C396.07,-59.52 386.66,-62.74 378,-65.62 366.25,-69.54 353.07,-73.77 342.44,-77.15"/>
<polygon fill="#63b8ff" stroke="#63b8ff" points="405.47,-59.97 413.77,-53.38 403.18,-53.36 405.47,-59.97"/>
</a>
</g>
</g>
<!-- Node7 -->
<g id="Node000007" class="node">
<title>Node7</title>
<g id="a_Node000007"><a xlink:href="group__sfc__diag__mod_ga7e773c818d77462fd7acbd9b15baf909.html#ga7e773c818d77462fd7acbd9b15baf909" target="_top" xlink:title=" ">
<polygon fill="white" stroke="#666666" points="378,-19.25 263.75,-19.25 263.75,0 378,0 378,-19.25"/>
<text xml:space="preserve" text-anchor="middle" x="320.88" y="-5.75" font-family="Source Sans Pro" font-size="10.00">sfc_diag::sfc_diag_run</text>
</a>
</g>
</g>
<!-- Node3&#45;&gt;Node7 -->
<g id="edge6_Node000003_Node000007" class="edge">
<title>Node3&#45;&gt;Node7</title>
<g id="a_edge6_Node000003_Node000007"><a xlink:title=" ">
<path fill="none" stroke="#63b8ff" d="M404.61,-36.68C396.07,-33.73 386.66,-30.51 378,-27.62 370.14,-25.01 361.63,-22.24 353.67,-19.69"/>
<polygon fill="#63b8ff" stroke="#63b8ff" points="403.18,-39.89 413.77,-39.87 405.47,-33.28 403.18,-39.89"/>
</a>
</g>
</g>
<!-- Node8 -->
<g id="Node000008" class="node">
<title>Node8</title>
<g id="a_Node000008"><a xlink:href="group___noah___l_s_m_gad65a889bf3f431ade2a312674671ab41.html#gad65a889bf3f431ade2a312674671ab41" target="_top" xlink:title="This subroutine calculates soil moisture and heat flux values and update soil moisture content and so...">
<polygon fill="white" stroke="#666666" points="344.62,-56.25 297.12,-56.25 297.12,-37 344.62,-37 344.62,-56.25"/>
<text xml:space="preserve" text-anchor="middle" x="320.88" y="-42.75" font-family="Source Sans Pro" font-size="10.00">snopac</text>
</a>
</g>
</g>
<!-- Node3&#45;&gt;Node8 -->
<g id="edge7_Node000003_Node000008" class="edge">
<title>Node3&#45;&gt;Node8</title>
<g id="a_edge7_Node000003_Node000008"><a xlink:title=" ">
<path fill="none" stroke="#63b8ff" d="M403.67,-46.62C385.36,-46.62 362.12,-46.62 345.09,-46.62"/>
<polygon fill="#63b8ff" stroke="#63b8ff" points="403.63,-50.13 413.63,-46.63 403.63,-43.13 403.63,-50.13"/>
</a>
</g>
</g>
<!-- Node5 -->
<g id="Node000005" class="node">
<title>Node5</title>
<g id="a_Node000005"><a xlink:href="group___noah___l_s_m_ga36e98f3ac91f839b816fd167eab30901.html#ga36e98f3ac91f839b816fd167eab30901" target="_top" xlink:title="This is the entity of GFS Noah LSM model of physics subroutines. It is a soil/veg/snowpack land&#45;surfa...">
<polygon fill="white" stroke="#666666" points="227.75,-74.25 160.75,-74.25 160.75,-55 227.75,-55 227.75,-74.25"/>
<text xml:space="preserve" text-anchor="middle" x="194.25" y="-60.75" font-family="Source Sans Pro" font-size="10.00">sflx::gfssflx</text>
</a>
</g>
</g>
<!-- Node4&#45;&gt;Node5 -->
<g id="edge4_Node000004_Node000005" class="edge">
<title>Node4&#45;&gt;Node5</title>
<g id="a_edge4_Node000004_Node000005"><a xlink:title=" ">
<path fill="none" stroke="#63b8ff" d="M287.99,-78.76C269.62,-75.96 246.58,-72.45 228.05,-69.63"/>
<polygon fill="#63b8ff" stroke="#63b8ff" points="287.39,-82.21 297.8,-80.26 288.44,-75.29 287.39,-82.21"/>
</a>
</g>
</g>
<!-- Node6 -->
<g id="Node000006" class="node">
<title>Node6</title>
<g id="a_Node000006"><a xlink:href="group___noah___l_s_m_ga5d624f72a0da3ffcdf7a01fb9862e0e8.html#ga5d624f72a0da3ffcdf7a01fb9862e0e8" target="_top" xlink:title=" ">
<polygon fill="white" stroke="#666666" points="124.75,-74.25 0,-74.25 0,-55 124.75,-55 124.75,-74.25"/>
<text xml:space="preserve" text-anchor="middle" x="62.38" y="-60.75" font-family="Source Sans Pro" font-size="10.00">lsm_noah::lsm_noah_run</text>
</a>
</g>
</g>
<!-- Node5&#45;&gt;Node6 -->
<g id="edge5_Node000005_Node000006" class="edge">
<title>Node5&#45;&gt;Node6</title>
<g id="a_edge5_Node000005_Node000006"><a xlink:title=" ">
<path fill="none" stroke="#63b8ff" d="M149.18,-64.62C141.47,-64.62 133.32,-64.62 125.24,-64.62"/>
<polygon fill="#63b8ff" stroke="#63b8ff" points="148.96,-68.13 158.96,-64.63 148.96,-61.13 148.96,-68.13"/>
</a>
</g>
</g>
<!-- Node8&#45;&gt;Node5 -->
<g id="edge8_Node000008_Node000005" class="edge">
<title>Node8&#45;&gt;Node5</title>
<g id="a_edge8_Node000008_Node000005"><a xlink:title=" ">
<path fill="none" stroke="#63b8ff" d="M285.34,-51.61C267.47,-54.19 245.77,-57.33 228.14,-59.87"/>
<polygon fill="#63b8ff" stroke="#63b8ff" points="285.83,-55.08 295.23,-50.18 284.83,-48.15 285.83,-55.08"/>
</a>
</g>
</g>
<!-- Node10 -->
<g id="Node000010" class="node">
<title>Node10</title>
<g id="a_Node000010"><a xlink:href="group___noah___l_s_m_gafa3e5637e56746e2539ef2567836defa.html#gafa3e5637e56746e2539ef2567836defa" target="_top" xlink:title="This subroutine calculates soil moisture flux. The soil moisture content (smc &#45; a per unit vulume mea...">
<polygon fill="white" stroke="#666666" points="454,-93.25 414,-93.25 414,-74 454,-74 454,-93.25"/>
<text xml:space="preserve" text-anchor="middle" x="434" y="-79.75" font-family="Source Sans Pro" font-size="10.00">smflx</text>
</a>
</g>
</g>
<!-- Node9&#45;&gt;Node10 -->
<g id="edge10_Node000009_Node000010" class="edge">
<title>Node9&#45;&gt;Node10</title>
<g id="a_edge10_Node000009_Node000010"><a xlink:title=" ">
<path fill="none" stroke="#63b8ff" d="M478.19,-83.62C470.1,-83.62 461.61,-83.62 454.31,-83.62"/>
<polygon fill="#63b8ff" stroke="#63b8ff" points="478.04,-87.13 488.04,-83.63 478.04,-80.13 478.04,-87.13"/>
</a>
</g>
</g>
<!-- Node10&#45;&gt;Node4 -->
<g id="edge11_Node000010_Node000004" class="edge">
<title>Node10&#45;&gt;Node4</title>
<g id="a_edge11_Node000010_Node000004"><a xlink:title=" ">
<path fill="none" stroke="#63b8ff" d="M402.17,-83.62C383.01,-83.62 358.91,-83.62 342.14,-83.62"/>
<polygon fill="#63b8ff" stroke="#63b8ff" points="402.13,-87.13 412.13,-83.63 402.13,-80.13 402.13,-87.13"/>
</a>
</g>
</g>
<!-- Node10&#45;&gt;Node8 -->
<g id="edge12_Node000010_Node000008" class="edge">
<title>Node10&#45;&gt;Node8</title>
<g id="a_edge12_Node000010_Node000008"><a xlink:title=" ">
<path fill="none" stroke="#63b8ff" d="M402.86,-73.08C394.8,-70.29 386.08,-67.32 378,-64.62 367.22,-61.04 355.24,-57.18 345.12,-53.95"/>
<polygon fill="#63b8ff" stroke="#63b8ff" points="401.67,-76.37 412.26,-76.34 403.96,-69.76 401.67,-76.37"/>
</a>
</g>
</g>
</g>
</svg>

<g id="navigator" transform="translate(0 0)" fill="#404254">
  <rect fill="#f2f5e9" fill-opacity="0.5" stroke="#606060" stroke-width=".5" x="0" y="0" width="60" height="60"/>
  <use id="zoomplus" xlink:href="#zoomPlus" x="17" y="9" onmousedown="handleZoom(evt,'in')"/>
  <use id="zoomminus" xlink:href="#zoomMin" x="42" y="9" onmousedown="handleZoom(evt,'out')"/>
  <use id="reset" xlink:href="#resetDef" x="30" y="36" onmousedown="handleReset()"/>
   <use id="arrowup" xlink:href="#arrowUp" x="0" y="0" onmousedown="handlePan(0,-1)"/>
  <use id="arrowright" xlink:href="#arrowRight" x="0" y="0" onmousedown="handlePan(1,0)"/>
  <use id="arrowdown" xlink:href="#arrowDown" x="0" y="0" onmousedown="handlePan(0,1)"/>
  <use id="arrowleft" xlink:href="#arrowLeft" x="0" y="0" onmousedown="handlePan(-1,0)"/>
</g>
<svg viewBox="0 0 15 15" width="100%" height="30px" preserveAspectRatio="xMaxYMin meet">
 <g id="arrow_out" transform="scale(0.3 0.3)">
  <a xlink:href="group___noah___l_s_m_ga3d7dabe1147278de865aa4691d5b2de0_ga3d7dabe1147278de865aa4691d5b2de0_icgraph_org.svg" target="_base">
   <rect id="button" ry="5" rx="5" y="6" x="6" height="38" width="38"
        fill="#f2f5e9" fill-opacity="0.5" stroke="#606060" stroke-width="1.0"/>
   <path id="arrow"
     d="M 11.500037,31.436501 C 11.940474,20.09759 22.043105,11.32322 32.158766,21.979434 L 37.068811,17.246167 C 37.068811,17.246167 37.088388,32 37.088388,32 L 22.160133,31.978069 C 22.160133,31.978069 26.997745,27.140456 26.997745,27.140456 C 18.528582,18.264221 13.291696,25.230495 11.500037,31.436501 z"
     style="fill:#404040;"/>
  </a>
 </g>
</svg>

<style type='text/css'>
<![CDATA[
[data-mouse-over-selected='false'] { opacity: 0.7; }
[data-mouse-over-selected='true']  { opacity: 1.0; }
]]>
</style>
<script type="application/ecmascript"><![CDATA[
document.addEventListener('DOMContentLoaded', (event) => {
  highlightEdges();
  highlightAdjacentNodes();
});
]]></script>
</svg>
