<?xml version="1.0" encoding="UTF-8" standalone="no"?>
<!DOCTYPE svg PUBLIC "-//W3C//DTD SVG 1.1//EN"
 "http://www.w3.org/Graphics/SVG/1.1/DTD/svg11.dtd">
<!-- Generated by graphviz version 14.1.2 (20260124.0452)
 -->
<!-- Title: gfdl_cloud_microphys_mod::gfdl_cloud_microphys_mod_init Pages: 1 -->
<!--zoomable 186 -->

<svg id="main" version="1.1" xmlns="http://www.w3.org/2000/svg" xmlns:xlink="http://www.w3.org/1999/xlink" xml:space="preserve" onload="init(evt)">

<style type="text/css"><![CDATA[
.node, .edge {opacity: 0.7;}
.node.selected, .edge.selected {opacity: 1;}
.edge:hover path { stroke: red; }
.edge:hover polygon { stroke: red; fill: red; }
]]></style>

<defs>
  <circle id="rim" cx="0" cy="0" r="7"/>
  <circle id="rim2" cx="0" cy="0" r="3.5"/>
  <g id="zoomPlus">
    <use xlink:href="#rim" fill="#404040"><set attributeName="fill" to="#808080" begin="zoomplus.mouseover" end="zoomplus.mouseout"/></use>
    <path d="M-4,0h8M0,-4v8" fill="none" stroke="white" stroke-width="1.5" pointer-events="none"/>
  </g>
  <g id="zoomMin">
    <use xlink:href="#rim" fill="#404040"><set attributeName="fill" to="#808080" begin="zoomminus.mouseover" end="zoomminus.mouseout"/></use>
    <path d="M-4,0h8" fill="none" stroke="white" stroke-width="1.5" pointer-events="none"/>
  </g>
  <g id="arrowUp" transform="translate(30 24)">
    <use xlink:href="#rim"/>
    <path pointer-events="none" fill="none" stroke="white" stroke-width="1.5" d="M0,-3.0v7 M-2.5,-0.5L0,-3.0L2.5,-0.5"/>
  </g>
  <g id="arrowRight" transform="rotate(90) translate(36 -43)">
    <use xlink:href="#rim"/>
    <path pointer-events="none" fill="none" stroke="white" stroke-width="1.5" d="M0,-3.0v7 M-2.5,-0.5L0,-3.0L2.5,-0.5"/>
  </g>
  <g id="arrowDown" transform="rotate(180) translate(-30 -48)">
    <use xlink:href="#rim"/>
    <path pointer-events="none" fill="none" stroke="white" stroke-width="1.5" d="M0,-3.0v7 M-2.5,-0.5L0,-3.0L2.5,-0.5"/>
  </g>
  <g id="arrowLeft" transform="rotate(270) translate(-36 17)">
    <use xlink:href="#rim"/>
    <path pointer-events="none" fill="none" stroke="white" stroke-width="1.5" d="M0,-3.0v7 M-2.5,-0.5L0,-3.0L2.5,-0.5"/>
  </g>
  <g id="resetDef">
    <use xlink:href="#rim2" fill="#404040"><set attributeName="fill" to="#808080" begin="reset.mouseover" end="reset.mouseout"/></use>
  </g>
</defs>
<script type="application/ecmascript">
var viewWidth = 588;
var viewHeight = 186;
var sectionId = 'dynsection-0';
</script>
<script type="application/ecmascript" xlink:href="svg.min.js"/>
<svg id="graph" class="graph">
<g id="viewport">
<title>gfdl_cloud_microphys_mod::gfdl_cloud_microphys_mod_init</title>
<!-- Node1 -->
<g id="Node000001" class="node">
<title>Node1</title>
<g id="a_Node000001"><a xlink:title="The subroutine &#39;gfdl_cloud_microphys_init&#39; initializes the GFDL cloud microphysics.">
<polygon fill="#999999" stroke="#666666" points="140.5,-84.12 0,-84.12 0,-42.38 140.5,-42.38 140.5,-84.12"/>
<text xml:space="preserve" text-anchor="start" x="8" y="-70.62" font-family="Source Sans Pro" font-size="10.00">gfdl_cloud_microphys</text>
<text xml:space="preserve" text-anchor="start" x="8" y="-59.38" font-family="Source Sans Pro" font-size="10.00">_mod::gfdl_cloud_microphys</text>
<text xml:space="preserve" text-anchor="middle" x="70.25" y="-48.12" font-family="Source Sans Pro" font-size="10.00">_mod_init</text>
</a>
</g>
</g>
<!-- Node2 -->
<g id="Node000002" class="node">
<title>Node2</title>
<g id="a_Node000002"><a xlink:href="group__mod__gfdl__cloud__mp_gae73658e16d99bd2fd887547ba13c0489.html#gae73658e16d99bd2fd887547ba13c0489" target="_top" xlink:title="The subroutine &#39;setup_con&#39; sets up constants and calls &#39;qsmith_init&#39;.">
<polygon fill="white" stroke="#666666" points="287,-103.5 176.5,-103.5 176.5,-73 287,-73 287,-103.5"/>
<text xml:space="preserve" text-anchor="start" x="184.5" y="-90" font-family="Source Sans Pro" font-size="10.00">gfdl_cloud_microphys</text>
<text xml:space="preserve" text-anchor="middle" x="231.75" y="-78.75" font-family="Source Sans Pro" font-size="10.00">_mod::setup_con</text>
</a>
</g>
</g>
<!-- Node1&#45;&gt;Node2 -->
<g id="edge1_Node000001_Node000002" class="edge">
<title>Node1&#45;&gt;Node2</title>
<g id="a_edge1_Node000001_Node000002"><a xlink:title=" ">
<path fill="none" stroke="#63b8ff" d="M140.75,-74.14C148.85,-75.41 157.09,-76.71 165.14,-77.97"/>
<polygon fill="#63b8ff" stroke="#63b8ff" points="164.43,-81.4 174.86,-79.49 165.52,-74.48 164.43,-81.4"/>
</a>
</g>
</g>
<!-- Node8 -->
<g id="Node000008" class="node">
<title>Node8</title>
<g id="a_Node000008"><a xlink:href="group__mod__gfdl__cloud__mp_ga9b7449b48c0d7ba5eab0eba122908d51.html#ga9b7449b48c0d7ba5eab0eba122908d51" target="_top" xlink:title="The subroutine sets up gfdl cloud microphysics parameters.">
<polygon fill="white" stroke="#666666" points="287,-54.5 176.5,-54.5 176.5,-24 287,-24 287,-54.5"/>
<text xml:space="preserve" text-anchor="start" x="184.5" y="-41" font-family="Source Sans Pro" font-size="10.00">gfdl_cloud_microphys</text>
<text xml:space="preserve" text-anchor="middle" x="231.75" y="-29.75" font-family="Source Sans Pro" font-size="10.00">_mod::setupm</text>
</a>
</g>
</g>
<!-- Node1&#45;&gt;Node8 -->
<g id="edge7_Node000001_Node000008" class="edge">
<title>Node1&#45;&gt;Node8</title>
<g id="a_edge7_Node000001_Node000008"><a xlink:title=" ">
<path fill="none" stroke="#63b8ff" d="M140.75,-52.79C148.85,-51.57 157.09,-50.33 165.14,-49.12"/>
<polygon fill="#63b8ff" stroke="#63b8ff" points="165.49,-52.61 174.85,-47.66 164.44,-45.69 165.49,-52.61"/>
</a>
</g>
</g>
<!-- Node3 -->
<g id="Node000003" class="node">
<title>Node3</title>
<g id="a_Node000003"><a xlink:href="group__mod__gfdl__cloud__mp_gac22a96714d2fdfba424e9b29c460874e.html#gac22a96714d2fdfba424e9b29c460874e" target="_top" xlink:title="The subroutine &#39;qsmith_init&#39; initializes lookup tables for saturation water vapor pressure for the fo...">
<polygon fill="white" stroke="#666666" points="433.5,-103.5 323,-103.5 323,-73 433.5,-73 433.5,-103.5"/>
<text xml:space="preserve" text-anchor="start" x="331" y="-90" font-family="Source Sans Pro" font-size="10.00">gfdl_cloud_microphys</text>
<text xml:space="preserve" text-anchor="middle" x="378.25" y="-78.75" font-family="Source Sans Pro" font-size="10.00">_mod::qsmith_init</text>
</a>
</g>
</g>
<!-- Node2&#45;&gt;Node3 -->
<g id="edge2_Node000002_Node000003" class="edge">
<title>Node2&#45;&gt;Node3</title>
<g id="a_edge2_Node000002_Node000003"><a xlink:title=" ">
<path fill="none" stroke="#63b8ff" d="M287.38,-88.25C295.11,-88.25 303.13,-88.25 311.05,-88.25"/>
<polygon fill="#63b8ff" stroke="#63b8ff" points="311.03,-91.75 321.03,-88.25 311.03,-84.75 311.03,-91.75"/>
</a>
</g>
</g>
<!-- Node4 -->
<g id="Node000004" class="node">
<title>Node4</title>
<g id="a_Node000004"><a xlink:href="group__mod__gfdl__cloud__mp_ga18d5c58ee290deae68744c2bec32c4c5.html#ga18d5c58ee290deae68744c2bec32c4c5" target="_top" xlink:title="saturation water vapor pressure table i">
<polygon fill="white" stroke="#666666" points="580,-177.5 469.5,-177.5 469.5,-147 580,-147 580,-177.5"/>
<text xml:space="preserve" text-anchor="start" x="477.5" y="-164" font-family="Source Sans Pro" font-size="10.00">gfdl_cloud_microphys</text>
<text xml:space="preserve" text-anchor="middle" x="524.75" y="-152.75" font-family="Source Sans Pro" font-size="10.00">_mod::qs_table</text>
</a>
</g>
</g>
<!-- Node3&#45;&gt;Node4 -->
<g id="edge3_Node000003_Node000004" class="edge">
<title>Node3&#45;&gt;Node4</title>
<g id="a_edge3_Node000003_Node000004"><a xlink:title=" ">
<path fill="none" stroke="#63b8ff" d="M407.05,-103.96C424.77,-113.81 448.3,-126.63 469.5,-137.25 472.41,-138.71 475.43,-140.19 478.47,-141.66"/>
<polygon fill="#63b8ff" stroke="#63b8ff" points="476.96,-144.81 487.49,-145.93 479.96,-138.49 476.96,-144.81"/>
</a>
</g>
</g>
<!-- Node5 -->
<g id="Node000005" class="node">
<title>Node5</title>
<g id="a_Node000005"><a xlink:href="group__mod__gfdl__cloud__mp_ga60322d5daf9ba9251ef2ed8c43d44fd2.html#ga60322d5daf9ba9251ef2ed8c43d44fd2" target="_top" xlink:title="saturation water vapor pressure table iii">
<polygon fill="white" stroke="#666666" points="580,-128.5 469.5,-128.5 469.5,-98 580,-98 580,-128.5"/>
<text xml:space="preserve" text-anchor="start" x="477.5" y="-115" font-family="Source Sans Pro" font-size="10.00">gfdl_cloud_microphys</text>
<text xml:space="preserve" text-anchor="middle" x="524.75" y="-103.75" font-family="Source Sans Pro" font-size="10.00">_mod::qs_table2</text>
</a>
</g>
</g>
<!-- Node3&#45;&gt;Node5 -->
<g id="edge4_Node000003_Node000005" class="edge">
<title>Node3&#45;&gt;Node5</title>
<g id="a_edge4_Node000003_Node000005"><a xlink:title=" ">
<path fill="none" stroke="#63b8ff" d="M433.88,-97.7C441.7,-99.05 449.82,-100.46 457.83,-101.84"/>
<polygon fill="#63b8ff" stroke="#63b8ff" points="457.1,-105.27 467.55,-103.53 458.3,-98.37 457.1,-105.27"/>
</a>
</g>
</g>
<!-- Node6 -->
<g id="Node000006" class="node">
<title>Node6</title>
<g id="a_Node000006"><a xlink:href="group__mod__gfdl__cloud__mp_ga21d253eb6564b469a272e71bbd227e6d.html#ga21d253eb6564b469a272e71bbd227e6d" target="_top" xlink:title="saturation water vapor pressure table iv">
<polygon fill="white" stroke="#666666" points="580,-79.5 469.5,-79.5 469.5,-49 580,-49 580,-79.5"/>
<text xml:space="preserve" text-anchor="start" x="477.5" y="-66" font-family="Source Sans Pro" font-size="10.00">gfdl_cloud_microphys</text>
<text xml:space="preserve" text-anchor="middle" x="524.75" y="-54.75" font-family="Source Sans Pro" font-size="10.00">_mod::qs_table3</text>
</a>
</g>
</g>
<!-- Node3&#45;&gt;Node6 -->
<g id="edge5_Node000003_Node000006" class="edge">
<title>Node3&#45;&gt;Node6</title>
<g id="a_edge5_Node000003_Node000006"><a xlink:title=" ">
<path fill="none" stroke="#63b8ff" d="M433.88,-79.18C441.7,-77.88 449.82,-76.53 457.83,-75.2"/>
<polygon fill="#63b8ff" stroke="#63b8ff" points="458.26,-78.68 467.55,-73.58 457.11,-71.77 458.26,-78.68"/>
</a>
</g>
</g>
<!-- Node7 -->
<g id="Node000007" class="node">
<title>Node7</title>
<g id="a_Node000007"><a xlink:href="group__mod__gfdl__cloud__mp_gad400136557e150361b753efa60a42d71.html#gad400136557e150361b753efa60a42d71" target="_top" xlink:title="saturation water vapor pressure table ii">
<polygon fill="white" stroke="#666666" points="580,-30.5 469.5,-30.5 469.5,0 580,0 580,-30.5"/>
<text xml:space="preserve" text-anchor="start" x="477.5" y="-17" font-family="Source Sans Pro" font-size="10.00">gfdl_cloud_microphys</text>
<text xml:space="preserve" text-anchor="middle" x="524.75" y="-5.75" font-family="Source Sans Pro" font-size="10.00">_mod::qs_tablew</text>
</a>
</g>
</g>
<!-- Node3&#45;&gt;Node7 -->
<g id="edge6_Node000003_Node000007" class="edge">
<title>Node3&#45;&gt;Node7</title>
<g id="a_edge6_Node000003_Node000007"><a xlink:title=" ">
<path fill="none" stroke="#63b8ff" d="M407.49,-72.7C425.17,-63.09 448.51,-50.66 469.5,-40.25 472.42,-38.8 475.44,-37.34 478.49,-35.87"/>
<polygon fill="#63b8ff" stroke="#63b8ff" points="479.97,-39.04 487.51,-31.61 476.98,-32.72 479.97,-39.04"/>
</a>
</g>
</g>
</g>
</svg>

<g id="navigator" transform="translate(0 0)" fill="#404254">
  <rect fill="#f2f5e9" fill-opacity="0.5" stroke="#606060" stroke-width=".5" x="0" y="0" width="60" height="60"/>
  <use id="zoomplus" xlink:href="#zoomPlus" x="17" y="9" onmousedown="handleZoom(evt,'in')"/>
  <use id="zoomminus" xlink:href="#zoomMin" x="42" y="9" onmousedown="handleZoom(evt,'out')"/>
  <use id="reset" xlink:href="#resetDef" x="30" y="36" onmousedown="handleReset()"/>
   <use id="arrowup" xlink:href="#arrowUp" x="0" y="0" onmousedown="handlePan(0,-1)"/>
  <use id="arrowright" xlink:href="#arrowRight" x="0" y="0" onmousedown="handlePan(1,0)"/>
  <use id="arrowdown" xlink:href="#arrowDown" x="0" y="0" onmousedown="handlePan(0,1)"/>
  <use id="arrowleft" xlink:href="#arrowLeft" x="0" y="0" onmousedown="handlePan(-1,0)"/>
</g>
<svg viewBox="0 0 15 15" width="100%" height="30px" preserveAspectRatio="xMaxYMin meet">
 <g id="arrow_out" transform="scale(0.3 0.3)">
  <a xlink:href="group__mod__gfdl__cloud__mp_gacb9663cee42bc7d8c26e24ea3a400212_gacb9663cee42bc7d8c26e24ea3a400212_cgraph_org.svg" target="_base">
   <rect id="button" ry="5" rx="5" y="6" x="6" height="38" width="38"
        fill="#f2f5e9" fill-opacity="0.5" stroke="#606060" stroke-width="1.0"/>
   <path id="arrow"
     d="M 11.500037,31.436501 C 11.940474,20.09759 22.043105,11.32322 32.158766,21.979434 L 37.068811,17.246167 C 37.068811,17.246167 37.088388,32 37.088388,32 L 22.160133,31.978069 C 22.160133,31.978069 26.997745,27.140456 26.997745,27.140456 C 18.528582,18.264221 13.291696,25.230495 11.500037,31.436501 z"
     style="fill:#404040;"/>
  </a>
 </g>
</svg>

<style type='text/css'>
<![CDATA[
[data-mouse-over-selected='false'] { opacity: 0.7; }
[data-mouse-over-selected='true']  { opacity: 1.0; }
]]>
</style>
<script type="application/ecmascript"><![CDATA[
document.addEventListener('DOMContentLoaded', (event) => {
  highlightEdges();
  highlightAdjacentNodes();
});
]]></script>
</svg>
