<?xml version="1.0" encoding="UTF-8" standalone="no"?>
<!DOCTYPE svg PUBLIC "-//W3C//DTD SVG 1.1//EN"
 "http://www.w3.org/Graphics/SVG/1.1/DTD/svg11.dtd">
<!-- Generated by graphviz version 14.1.2 (20260124.0452)
 -->
<!-- Title: noahmp_glacier_routines::combo_glacier Pages: 1 -->
<svg width="932pt" height="125pt"
 viewBox="0.00 0.00 932.00 125.00" xmlns="http://www.w3.org/2000/svg" xmlns:xlink="http://www.w3.org/1999/xlink">
<g id="graph0" class="graph" transform="scale(1 1) rotate(0) translate(4 120.5)">
<title>noahmp_glacier_routines::combo_glacier</title>
<!-- Node1 -->
<g id="Node000001" class="node">
<title>Node1</title>
<g id="a_Node000001"><a xlink:title=" ">
<polygon fill="#999999" stroke="#666666" points="924,-51.5 800,-51.5 800,-21 924,-21 924,-51.5"/>
<text xml:space="preserve" text-anchor="start" x="808" y="-38" font-family="Source Sans Pro" font-size="10.00">noahmp_glacier_routines</text>
<text xml:space="preserve" text-anchor="middle" x="862" y="-26.75" font-family="Source Sans Pro" font-size="10.00">::combo_glacier</text>
</a>
</g>
</g>
<!-- Node2 -->
<g id="Node000002" class="node">
<title>Node2</title>
<g id="a_Node000002"><a xlink:href="group___noah_m_p___l_s_m_ga70ce0369bd8ba21d6ab56fa001a20be8.html#ga70ce0369bd8ba21d6ab56fa001a20be8" target="_top" xlink:title=" ">
<polygon fill="white" stroke="#666666" points="764,-73.5 640,-73.5 640,-43 764,-43 764,-73.5"/>
<text xml:space="preserve" text-anchor="start" x="648" y="-60" font-family="Source Sans Pro" font-size="10.00">noahmp_glacier_routines</text>
<text xml:space="preserve" text-anchor="middle" x="702" y="-48.75" font-family="Source Sans Pro" font-size="10.00">::combine_glacier</text>
</a>
</g>
</g>
<!-- Node1&#45;&gt;Node2 -->
<g id="edge1_Node000001_Node000002" class="edge">
<title>Node1&#45;&gt;Node2</title>
<g id="a_edge1_Node000001_Node000002"><a xlink:title=" ">
<path fill="none" stroke="#63b8ff" d="M788.6,-46.33C780.53,-47.46 772.36,-48.59 764.45,-49.69"/>
<polygon fill="#63b8ff" stroke="#63b8ff" points="788.99,-49.81 798.41,-44.96 788.03,-42.88 788.99,-49.81"/>
</a>
</g>
</g>
<!-- Node7 -->
<g id="Node000007" class="node">
<title>Node7</title>
<g id="a_Node000007"><a xlink:href="group___noah_m_p___l_s_m_ga7d14a54053fc9c70ea7705754d594a92.html#ga7d14a54053fc9c70ea7705754d594a92" target="_top" xlink:title=" ">
<polygon fill="white" stroke="#666666" points="604,-30.5 480,-30.5 480,0 604,0 604,-30.5"/>
<text xml:space="preserve" text-anchor="start" x="488" y="-17" font-family="Source Sans Pro" font-size="10.00">noahmp_glacier_routines</text>
<text xml:space="preserve" text-anchor="middle" x="542" y="-5.75" font-family="Source Sans Pro" font-size="10.00">::divide_glacier</text>
</a>
</g>
</g>
<!-- Node1&#45;&gt;Node7 -->
<g id="edge7_Node000001_Node000007" class="edge">
<title>Node1&#45;&gt;Node7</title>
<g id="a_edge7_Node000001_Node000007"><a xlink:title=" ">
<path fill="none" stroke="#63b8ff" d="M788.5,-31.46C732.9,-27.79 657.02,-22.78 604.4,-19.3"/>
<polygon fill="#63b8ff" stroke="#63b8ff" points="787.97,-34.93 798.18,-32.1 788.43,-27.95 787.97,-34.93"/>
</a>
</g>
</g>
<!-- Node3 -->
<g id="Node000003" class="node">
<title>Node3</title>
<g id="a_Node000003"><a xlink:href="group___noah_m_p___l_s_m_ga3b426a088b2f2e94145bc4cea265cc61.html#ga3b426a088b2f2e94145bc4cea265cc61" target="_top" xlink:title=" ">
<polygon fill="white" stroke="#666666" points="604,-116.5 480,-116.5 480,-86 604,-86 604,-116.5"/>
<text xml:space="preserve" text-anchor="start" x="488" y="-103" font-family="Source Sans Pro" font-size="10.00">noahmp_glacier_routines</text>
<text xml:space="preserve" text-anchor="middle" x="542" y="-91.75" font-family="Source Sans Pro" font-size="10.00">::snowh2o_glacier</text>
</a>
</g>
</g>
<!-- Node2&#45;&gt;Node3 -->
<g id="edge2_Node000002_Node000003" class="edge">
<title>Node2&#45;&gt;Node3</title>
<g id="a_edge2_Node000002_Node000003"><a xlink:title=" ">
<path fill="none" stroke="#63b8ff" d="M632.57,-76.87C621.95,-79.76 611.07,-82.73 600.71,-85.54"/>
<polygon fill="#63b8ff" stroke="#63b8ff" points="633.32,-80.3 642.05,-74.29 631.48,-73.54 633.32,-80.3"/>
</a>
</g>
</g>
<!-- Node4 -->
<g id="Node000004" class="node">
<title>Node4</title>
<g id="a_Node000004"><a xlink:href="group___noah_m_p___l_s_m_ga7e56aa2916d87208019c88446904b04b.html#ga7e56aa2916d87208019c88446904b04b" target="_top" xlink:title=" ">
<polygon fill="white" stroke="#666666" points="444,-73.5 320,-73.5 320,-43 444,-43 444,-73.5"/>
<text xml:space="preserve" text-anchor="start" x="328" y="-60" font-family="Source Sans Pro" font-size="10.00">noahmp_glacier_routines</text>
<text xml:space="preserve" text-anchor="middle" x="382" y="-48.75" font-family="Source Sans Pro" font-size="10.00">::snowwater_glacier</text>
</a>
</g>
</g>
<!-- Node2&#45;&gt;Node4 -->
<g id="edge6_Node000002_Node000004" class="edge">
<title>Node2&#45;&gt;Node4</title>
<g id="a_edge6_Node000002_Node000004"><a xlink:title=" ">
<path fill="none" stroke="#63b8ff" d="M628.5,-58.25C572.9,-58.25 497.02,-58.25 444.4,-58.25"/>
<polygon fill="#63b8ff" stroke="#63b8ff" points="628.17,-61.75 638.17,-58.25 628.17,-54.75 628.17,-61.75"/>
</a>
</g>
</g>
<!-- Node3&#45;&gt;Node4 -->
<g id="edge3_Node000003_Node000004" class="edge">
<title>Node3&#45;&gt;Node4</title>
<g id="a_edge3_Node000003_Node000004"><a xlink:title=" ">
<path fill="none" stroke="#63b8ff" d="M472.57,-82.63C461.95,-79.74 451.07,-76.77 440.71,-73.96"/>
<polygon fill="#63b8ff" stroke="#63b8ff" points="471.48,-85.96 482.05,-85.21 473.32,-79.2 471.48,-85.96"/>
</a>
</g>
</g>
<!-- Node5 -->
<g id="Node000005" class="node">
<title>Node5</title>
<g id="a_Node000005"><a xlink:href="group___noah_m_p___l_s_m_ga7f8fc6fe269c4c0666edaf50859bfbce.html#ga7f8fc6fe269c4c0666edaf50859bfbce" target="_top" xlink:title=" ">
<polygon fill="white" stroke="#666666" points="284,-73.5 160,-73.5 160,-43 284,-43 284,-73.5"/>
<text xml:space="preserve" text-anchor="start" x="168" y="-60" font-family="Source Sans Pro" font-size="10.00">noahmp_glacier_routines</text>
<text xml:space="preserve" text-anchor="middle" x="222" y="-48.75" font-family="Source Sans Pro" font-size="10.00">::water_glacier</text>
</a>
</g>
</g>
<!-- Node4&#45;&gt;Node5 -->
<g id="edge4_Node000004_Node000005" class="edge">
<title>Node4&#45;&gt;Node5</title>
<g id="a_edge4_Node000004_Node000005"><a xlink:title=" ">
<path fill="none" stroke="#63b8ff" d="M308.6,-58.25C300.53,-58.25 292.36,-58.25 284.45,-58.25"/>
<polygon fill="#63b8ff" stroke="#63b8ff" points="308.4,-61.75 318.4,-58.25 308.4,-54.75 308.4,-61.75"/>
</a>
</g>
</g>
<!-- Node6 -->
<g id="Node000006" class="node">
<title>Node6</title>
<g id="a_Node000006"><a xlink:href="group___noah_m_p___l_s_m_ga86c69e134a41160e0c6f06bfb3a654a6.html#ga86c69e134a41160e0c6f06bfb3a654a6" target="_top" xlink:title=" ">
<polygon fill="white" stroke="#666666" points="124,-73.5 0,-73.5 0,-43 124,-43 124,-73.5"/>
<text xml:space="preserve" text-anchor="start" x="8" y="-60" font-family="Source Sans Pro" font-size="10.00">noahmp_glacier_routines</text>
<text xml:space="preserve" text-anchor="middle" x="62" y="-48.75" font-family="Source Sans Pro" font-size="10.00">::noahmp_glacier</text>
</a>
</g>
</g>
<!-- Node5&#45;&gt;Node6 -->
<g id="edge5_Node000005_Node000006" class="edge">
<title>Node5&#45;&gt;Node6</title>
<g id="a_edge5_Node000005_Node000006"><a xlink:title=" ">
<path fill="none" stroke="#63b8ff" d="M148.6,-58.25C140.53,-58.25 132.36,-58.25 124.45,-58.25"/>
<polygon fill="#63b8ff" stroke="#63b8ff" points="148.4,-61.75 158.4,-58.25 148.4,-54.75 148.4,-61.75"/>
</a>
</g>
</g>
<!-- Node7&#45;&gt;Node4 -->
<g id="edge8_Node000007_Node000004" class="edge">
<title>Node7&#45;&gt;Node4</title>
<g id="a_edge8_Node000007_Node000004"><a xlink:title=" ">
<path fill="none" stroke="#63b8ff" d="M472.57,-33.87C461.95,-36.76 451.07,-39.73 440.71,-42.54"/>
<polygon fill="#63b8ff" stroke="#63b8ff" points="473.32,-37.3 482.05,-31.29 471.48,-30.54 473.32,-37.3"/>
</a>
</g>
</g>
</g>
</svg>
