<?xml version="1.0" encoding="UTF-8" standalone="no"?>
<!DOCTYPE svg PUBLIC "-//W3C//DTD SVG 1.1//EN"
 "http://www.w3.org/Graphics/SVG/1.1/DTD/svg11.dtd">
<!-- Generated by graphviz version 14.1.2 (20260124.0452)
 -->
<!-- Title: phenology Pages: 1 -->
<svg width="295pt" height="27pt"
 viewBox="0.00 0.00 295.00 27.00" xmlns="http://www.w3.org/2000/svg" xmlns:xlink="http://www.w3.org/1999/xlink">
<g id="graph0" class="graph" transform="scale(1 1) rotate(0) translate(4 23.25)">
<title>phenology</title>
<!-- Node1 -->
<g id="Node000001" class="node">
<title>Node1</title>
<g id="a_Node000001"><a xlink:title="vegetation phenology considering vegetation canopy being buried by snow and evolution in time.">
<polygon fill="#999999" stroke="#666666" points="286.5,-19.25 226.25,-19.25 226.25,0 286.5,0 286.5,-19.25"/>
<text xml:space="preserve" text-anchor="middle" x="256.38" y="-5.75" font-family="Source Sans Pro" font-size="10.00">phenology</text>
</a>
</g>
</g>
<!-- Node2 -->
<g id="Node000002" class="node">
<title>Node2</title>
<g id="a_Node000002"><a xlink:href="group___noah_m_p___l_s_m_gab480f7969dad27ce9e00e559f82c464e.html#gab480f7969dad27ce9e00e559f82c464e" target="_top" xlink:title=" ">
<polygon fill="white" stroke="#666666" points="190.25,-19.25 118.75,-19.25 118.75,0 190.25,0 190.25,-19.25"/>
<text xml:space="preserve" text-anchor="middle" x="154.5" y="-5.75" font-family="Source Sans Pro" font-size="10.00">noahmp_sflx</text>
</a>
</g>
</g>
<!-- Node1&#45;&gt;Node2 -->
<g id="edge1_Node000001_Node000002" class="edge">
<title>Node1&#45;&gt;Node2</title>
<g id="a_edge1_Node000001_Node000002"><a xlink:title=" ">
<path fill="none" stroke="#63b8ff" d="M214.65,-9.62C206.71,-9.62 198.45,-9.62 190.71,-9.62"/>
<polygon fill="#63b8ff" stroke="#63b8ff" points="214.44,-13.13 224.44,-9.63 214.44,-6.13 214.44,-13.13"/>
</a>
</g>
</g>
<!-- Node3 -->
<g id="Node000003" class="node">
<title>Node3</title>
<g id="a_Node000003"><a xlink:href="group___noah_m_p___l_s_m_ga0e44f72a92d8830344fecdb9fb65e6fb.html#ga0e44f72a92d8830344fecdb9fb65e6fb" target="_top" xlink:title="This subroutine is the main CCPP entry point for the NoahMP LSM.">
<polygon fill="white" stroke="#666666" points="82.75,-19.25 0,-19.25 0,0 82.75,0 82.75,-19.25"/>
<text xml:space="preserve" text-anchor="middle" x="41.38" y="-5.75" font-family="Source Sans Pro" font-size="10.00">noahmpdrv_run</text>
</a>
</g>
</g>
<!-- Node2&#45;&gt;Node3 -->
<g id="edge2_Node000002_Node000003" class="edge">
<title>Node2&#45;&gt;Node3</title>
<g id="a_edge2_Node000002_Node000003"><a xlink:title=" ">
<path fill="none" stroke="#63b8ff" d="M106.99,-9.62C99.06,-9.62 90.88,-9.62 83.12,-9.62"/>
<polygon fill="#63b8ff" stroke="#63b8ff" points="106.83,-13.13 116.83,-9.63 106.83,-6.13 106.83,-13.13"/>
</a>
</g>
</g>
</g>
</svg>
