<?xml version="1.0" encoding="UTF-8" standalone="no"?>
<!DOCTYPE svg PUBLIC "-//W3C//DTD SVG 1.1//EN"
 "http://www.w3.org/Graphics/SVG/1.1/DTD/svg11.dtd">
<!-- Generated by graphviz version 14.1.2 (20260124.0452)
 -->
<!-- Title: module_bl_mynn::dmp_mf Pages: 1 -->
<svg width="505pt" height="204pt"
 viewBox="0.00 0.00 505.00 204.00" xmlns="http://www.w3.org/2000/svg" xmlns:xlink="http://www.w3.org/1999/xlink">
<g id="graph0" class="graph" transform="scale(1 1) rotate(0) translate(4 199.5)">
<title>module_bl_mynn::dmp_mf</title>
<!-- Node1 -->
<g id="Node000001" class="node">
<title>Node1</title>
<g id="a_Node000001"><a xlink:title="This subroutine is the Dynamic Multi&#45;Plume (DMP) Mass&#45;Flux Scheme.">
<polygon fill="#999999" stroke="#666666" points="130.75,-121.88 0,-121.88 0,-102.62 130.75,-102.62 130.75,-121.88"/>
<text xml:space="preserve" text-anchor="middle" x="65.38" y="-108.38" font-family="Source Sans Pro" font-size="10.00">module_bl_mynn::dmp_mf</text>
</a>
</g>
</g>
<!-- Node2 -->
<g id="Node000002" class="node">
<title>Node2</title>
<g id="a_Node000002"><a xlink:href="group__gp__mynnedmf_ga8a29adb739751b21ffacddb8f24ac8ab.html#ga8a29adb739751b21ffacddb8f24ac8ab" target="_top" xlink:title="This subroutine.">
<polygon fill="white" stroke="#666666" points="347,-190.88 166.75,-190.88 166.75,-171.62 347,-171.62 347,-190.88"/>
<text xml:space="preserve" text-anchor="middle" x="256.88" y="-177.38" font-family="Source Sans Pro" font-size="10.00">module_bl_mynn::condensation_edmf</text>
</a>
</g>
</g>
<!-- Node1&#45;&gt;Node2 -->
<g id="edge1_Node000001_Node000002" class="edge">
<title>Node1&#45;&gt;Node2</title>
<g id="a_edge1_Node000001_Node000002"><a xlink:title=" ">
<path fill="none" stroke="#63b8ff" d="M86.37,-122.35C106.35,-132.17 138.15,-147.06 166.75,-157.25 177.96,-161.24 190.17,-164.94 201.85,-168.18"/>
<polygon fill="#63b8ff" stroke="#63b8ff" points="200.81,-171.52 211.38,-170.74 202.63,-164.76 200.81,-171.52"/>
</a>
</g>
</g>
<!-- Node3 -->
<g id="Node000003" class="node">
<title>Node3</title>
<g id="a_Node000003"><a xlink:href="group__gp__mynnedmf_ga41a4c80227342f73cd16d2ae814498d0.html#ga41a4c80227342f73cd16d2ae814498d0" target="_top" xlink:title="This function extends function &quot;esat&quot; and returns a &quot;blended&quot; saturation mixing ratio....">
<polygon fill="white" stroke="#666666" points="497.25,-177.5 383,-177.5 383,-147 497.25,-147 497.25,-177.5"/>
<text xml:space="preserve" text-anchor="start" x="391" y="-164" font-family="Source Sans Pro" font-size="10.00">module_bl_mynn::qsat</text>
<text xml:space="preserve" text-anchor="middle" x="440.12" y="-152.75" font-family="Source Sans Pro" font-size="10.00">_blend</text>
</a>
</g>
</g>
<!-- Node1&#45;&gt;Node3 -->
<g id="edge6_Node000001_Node000003" class="edge">
<title>Node1&#45;&gt;Node3</title>
<g id="a_edge6_Node000001_Node000003"><a xlink:title=" ">
<path fill="none" stroke="#63b8ff" d="M130.88,-120.9C198.19,-129.93 303.26,-144.02 371.65,-153.2"/>
<polygon fill="#63b8ff" stroke="#63b8ff" points="370.84,-156.62 381.22,-154.48 371.77,-149.68 370.84,-156.62"/>
</a>
</g>
</g>
<!-- Node4 -->
<g id="Node000004" class="node">
<title>Node4</title>
<g id="a_Node000004"><a xlink:href="group__gp__mynnedmf_gae8047a4c3a14e775edc08c08caf43d80.html#gae8047a4c3a14e775edc08c08caf43d80" target="_top" xlink:title=" ">
<polygon fill="white" stroke="#666666" points="314,-97.5 199.75,-97.5 199.75,-67 314,-67 314,-97.5"/>
<text xml:space="preserve" text-anchor="start" x="207.75" y="-84" font-family="Source Sans Pro" font-size="10.00">module_bl_mynn::esat</text>
<text xml:space="preserve" text-anchor="middle" x="256.88" y="-72.75" font-family="Source Sans Pro" font-size="10.00">_blend</text>
</a>
</g>
</g>
<!-- Node1&#45;&gt;Node4 -->
<g id="edge4_Node000001_Node000004" class="edge">
<title>Node1&#45;&gt;Node4</title>
<g id="a_edge4_Node000001_Node000004"><a xlink:title=" ">
<path fill="none" stroke="#63b8ff" d="M130.27,-102.14C148.86,-99.19 169.24,-95.97 188.07,-92.99"/>
<polygon fill="#63b8ff" stroke="#63b8ff" points="188.43,-96.47 197.76,-91.45 187.33,-89.56 188.43,-96.47"/>
</a>
</g>
</g>
<!-- Node5 -->
<g id="Node000005" class="node">
<title>Node5</title>
<g id="a_Node000005"><a xlink:href="group__gp__mynnedmf_gaa969fd37a058f1244a944268798075e7.html#gaa969fd37a058f1244a944268798075e7" target="_top" xlink:title="This function interpolates the latent heats of vaporization and sublimation into a single,...">
<polygon fill="white" stroke="#666666" points="308.38,-30.5 205.38,-30.5 205.38,0 308.38,0 308.38,-30.5"/>
<text xml:space="preserve" text-anchor="start" x="213.38" y="-17" font-family="Source Sans Pro" font-size="10.00">module_bl_mynn::xl</text>
<text xml:space="preserve" text-anchor="middle" x="256.88" y="-5.75" font-family="Source Sans Pro" font-size="10.00">_blend</text>
</a>
</g>
</g>
<!-- Node1&#45;&gt;Node5 -->
<g id="edge7_Node000001_Node000005" class="edge">
<title>Node1&#45;&gt;Node5</title>
<g id="a_edge7_Node000001_Node000005"><a xlink:title=" ">
<path fill="none" stroke="#63b8ff" d="M84.38,-102.25C104.37,-91.23 137.66,-73.08 166.75,-58.25 181.53,-50.71 197.84,-42.75 212.42,-35.74"/>
<polygon fill="#63b8ff" stroke="#63b8ff" points="213.81,-38.96 221.32,-31.49 210.79,-32.64 213.81,-38.96"/>
</a>
</g>
</g>
<!-- Node2&#45;&gt;Node3 -->
<g id="edge2_Node000002_Node000003" class="edge">
<title>Node2&#45;&gt;Node3</title>
<g id="a_edge2_Node000002_Node000003"><a xlink:title=" ">
<path fill="none" stroke="#63b8ff" d="M347.44,-171.86C355.47,-171.02 363.51,-170.18 371.31,-169.36"/>
<polygon fill="#63b8ff" stroke="#63b8ff" points="371.45,-172.86 381.03,-168.34 370.72,-165.9 371.45,-172.86"/>
</a>
</g>
</g>
<!-- Node3&#45;&gt;Node3 -->
<g id="edge3_Node000003_Node000003" class="edge">
<title>Node3&#45;&gt;Node3</title>
<g id="a_edge3_Node000003_Node000003"><a xlink:title=" ">
<path fill="none" stroke="#63b8ff" d="M407.65,-177.99C401.03,-187.06 411.85,-195.5 440.12,-195.5 455.59,-195.5 465.83,-192.97 470.86,-189.2"/>
<polygon fill="#63b8ff" stroke="#63b8ff" points="474.29,-189.9 472.36,-179.48 467.37,-188.83 474.29,-189.9"/>
</a>
</g>
</g>
<!-- Node4&#45;&gt;Node4 -->
<g id="edge5_Node000004_Node000004" class="edge">
<title>Node4&#45;&gt;Node4</title>
<g id="a_edge5_Node000004_Node000004"><a xlink:title=" ">
<path fill="none" stroke="#63b8ff" d="M224.4,-97.99C217.78,-107.06 228.6,-115.5 256.88,-115.5 272.34,-115.5 282.58,-112.97 287.61,-109.2"/>
<polygon fill="#63b8ff" stroke="#63b8ff" points="291.04,-109.9 289.11,-99.48 284.12,-108.83 291.04,-109.9"/>
</a>
</g>
</g>
<!-- Node5&#45;&gt;Node5 -->
<g id="edge8_Node000005_Node000005" class="edge">
<title>Node5&#45;&gt;Node5</title>
<g id="a_edge8_Node000005_Node000005"><a xlink:title=" ">
<path fill="none" stroke="#63b8ff" d="M224.4,-30.99C217.78,-40.06 228.6,-48.5 256.88,-48.5 272.34,-48.5 282.58,-45.97 287.61,-42.2"/>
<polygon fill="#63b8ff" stroke="#63b8ff" points="291.04,-42.9 289.11,-32.48 284.12,-41.83 291.04,-42.9"/>
</a>
</g>
</g>
</g>
</svg>
