<?xml version="1.0" encoding="UTF-8" standalone="no"?>
<!DOCTYPE svg PUBLIC "-//W3C//DTD SVG 1.1//EN"
 "http://www.w3.org/Graphics/SVG/1.1/DTD/svg11.dtd">
<!-- Generated by graphviz version 14.1.2 (20260124.0452)
 -->
<!-- Title: snowfall Pages: 1 -->
<!--zoomable 297 -->

<svg id="main" version="1.1" xmlns="http://www.w3.org/2000/svg" xmlns:xlink="http://www.w3.org/1999/xlink" xml:space="preserve" onload="init(evt)">

<style type="text/css"><![CDATA[
.node, .edge {opacity: 0.7;}
.node.selected, .edge.selected {opacity: 1;}
.edge:hover path { stroke: red; }
.edge:hover polygon { stroke: red; fill: red; }
]]></style>

<defs>
  <circle id="rim" cx="0" cy="0" r="7"/>
  <circle id="rim2" cx="0" cy="0" r="3.5"/>
  <g id="zoomPlus">
    <use xlink:href="#rim" fill="#404040"><set attributeName="fill" to="#808080" begin="zoomplus.mouseover" end="zoomplus.mouseout"/></use>
    <path d="M-4,0h8M0,-4v8" fill="none" stroke="white" stroke-width="1.5" pointer-events="none"/>
  </g>
  <g id="zoomMin">
    <use xlink:href="#rim" fill="#404040"><set attributeName="fill" to="#808080" begin="zoomminus.mouseover" end="zoomminus.mouseout"/></use>
    <path d="M-4,0h8" fill="none" stroke="white" stroke-width="1.5" pointer-events="none"/>
  </g>
  <g id="arrowUp" transform="translate(30 24)">
    <use xlink:href="#rim"/>
    <path pointer-events="none" fill="none" stroke="white" stroke-width="1.5" d="M0,-3.0v7 M-2.5,-0.5L0,-3.0L2.5,-0.5"/>
  </g>
  <g id="arrowRight" transform="rotate(90) translate(36 -43)">
    <use xlink:href="#rim"/>
    <path pointer-events="none" fill="none" stroke="white" stroke-width="1.5" d="M0,-3.0v7 M-2.5,-0.5L0,-3.0L2.5,-0.5"/>
  </g>
  <g id="arrowDown" transform="rotate(180) translate(-30 -48)">
    <use xlink:href="#rim"/>
    <path pointer-events="none" fill="none" stroke="white" stroke-width="1.5" d="M0,-3.0v7 M-2.5,-0.5L0,-3.0L2.5,-0.5"/>
  </g>
  <g id="arrowLeft" transform="rotate(270) translate(-36 17)">
    <use xlink:href="#rim"/>
    <path pointer-events="none" fill="none" stroke="white" stroke-width="1.5" d="M0,-3.0v7 M-2.5,-0.5L0,-3.0L2.5,-0.5"/>
  </g>
  <g id="resetDef">
    <use xlink:href="#rim2" fill="#404040"><set attributeName="fill" to="#808080" begin="reset.mouseover" end="reset.mouseout"/></use>
  </g>
</defs>
<script type="application/ecmascript">
var viewWidth = 647;
var viewHeight = 297;
var sectionId = 'dynsection-0';
</script>
<script type="application/ecmascript" xlink:href="svg.min.js"/>
<svg id="graph" class="graph">
<g id="viewport">
<title>snowfall</title>
<!-- Node1 -->
<g id="Node000001" class="node">
<title>Node1</title>
<g id="a_Node000001"><a xlink:title="snow depth and density to account for the new snowfall. new values of snow depth &amp; density returned.">
<polygon fill="#999999" stroke="#666666" points="638.75,-230.25 586.75,-230.25 586.75,-211 638.75,-211 638.75,-230.25"/>
<text xml:space="preserve" text-anchor="middle" x="612.75" y="-216.75" font-family="Source Sans Pro" font-size="10.00">snowfall</text>
</a>
</g>
</g>
<!-- Node2 -->
<g id="Node000002" class="node">
<title>Node2</title>
<g id="a_Node000002"><a xlink:href="group___noah_m_p___l_s_m_ga0e44f72a92d8830344fecdb9fb65e6fb.html#ga0e44f72a92d8830344fecdb9fb65e6fb" target="_top" xlink:title="This subroutine is the main CCPP entry point for the NoahMP LSM.">
<polygon fill="white" stroke="#666666" points="82.75,-190.25 0,-190.25 0,-171 82.75,-171 82.75,-190.25"/>
<text xml:space="preserve" text-anchor="middle" x="41.38" y="-176.75" font-family="Source Sans Pro" font-size="10.00">noahmpdrv_run</text>
</a>
</g>
</g>
<!-- Node1&#45;&gt;Node2 -->
<g id="edge1_Node000001_Node000002" class="edge">
<title>Node1&#45;&gt;Node2</title>
<g id="a_edge1_Node000001_Node000002"><a xlink:title=" ">
<path fill="none" stroke="#63b8ff" d="M575.6,-234.28C491.55,-263.78 278.01,-325.58 118.75,-258.62 85.55,-244.67 59.56,-208.46 48.37,-190.72"/>
<polygon fill="#63b8ff" stroke="#63b8ff" points="576.69,-237.61 584.93,-230.95 574.33,-231.02 576.69,-237.61"/>
</a>
</g>
</g>
<!-- Node3 -->
<g id="Node000003" class="node">
<title>Node3</title>
<g id="a_Node000003"><a xlink:href="group___noah_m_p___l_s_m_ga8500bdb5fcc68e431512068da0d31cd5.html#ga8500bdb5fcc68e431512068da0d31cd5" target="_top" xlink:title=" ">
<polygon fill="white" stroke="#666666" points="550.75,-211.25 487.5,-211.25 487.5,-192 550.75,-192 550.75,-211.25"/>
<text xml:space="preserve" text-anchor="middle" x="519.12" y="-197.75" font-family="Source Sans Pro" font-size="10.00">snowwater</text>
</a>
</g>
</g>
<!-- Node1&#45;&gt;Node3 -->
<g id="edge2_Node000001_Node000003" class="edge">
<title>Node1&#45;&gt;Node3</title>
<g id="a_edge2_Node000001_Node000003"><a xlink:title=" ">
<path fill="none" stroke="#63b8ff" d="M575.61,-213.13C567.48,-211.44 558.91,-209.67 551.02,-208.03"/>
<polygon fill="#63b8ff" stroke="#63b8ff" points="574.73,-216.52 585.23,-215.13 576.15,-209.67 574.73,-216.52"/>
</a>
</g>
</g>
<!-- Node4 -->
<g id="Node000004" class="node">
<title>Node4</title>
<g id="a_Node000004"><a xlink:href="namespaceclm__lake_a8880c2394213f41e2e8303f2fa89ed61.html#a8880c2394213f41e2e8303f2fa89ed61" target="_top" xlink:title="Calculation of Shallow Lake Hydrology. Full hydrology of snow layers is done. However,...">
<polygon fill="white" stroke="#666666" points="451.5,-211.25 312.5,-211.25 312.5,-192 451.5,-192 451.5,-211.25"/>
<text xml:space="preserve" text-anchor="middle" x="382" y="-197.75" font-family="Source Sans Pro" font-size="10.00">clm_lake::shallakehydrology</text>
</a>
</g>
</g>
<!-- Node3&#45;&gt;Node4 -->
<g id="edge3_Node000003_Node000004" class="edge">
<title>Node3&#45;&gt;Node4</title>
<g id="a_edge3_Node000003_Node000004"><a xlink:title=" ">
<path fill="none" stroke="#63b8ff" d="M475.66,-201.62C468.06,-201.62 459.96,-201.62 451.84,-201.62"/>
<polygon fill="#63b8ff" stroke="#63b8ff" points="475.61,-205.13 485.61,-201.63 475.61,-198.13 475.61,-205.13"/>
</a>
</g>
</g>
<!-- Node5 -->
<g id="Node000005" class="node">
<title>Node5</title>
<g id="a_Node000005"><a xlink:href="group___noah_m_p___l_s_m_ga2e84840f3ed90005f066340b388c03d6.html#ga2e84840f3ed90005f066340b388c03d6" target="_top" xlink:title="compute water budgets (water storages, et components, and runoff)">
<polygon fill="white" stroke="#666666" points="402,-136.25 362,-136.25 362,-117 402,-117 402,-136.25"/>
<text xml:space="preserve" text-anchor="middle" x="382" y="-122.75" font-family="Source Sans Pro" font-size="10.00">water</text>
</a>
</g>
</g>
<!-- Node3&#45;&gt;Node5 -->
<g id="edge4_Node000003_Node000005" class="edge">
<title>Node3&#45;&gt;Node5</title>
<g id="a_edge4_Node000003_Node000005"><a xlink:title=" ">
<path fill="none" stroke="#63b8ff" d="M489.97,-186C463.19,-171.13 423.69,-149.21 400.93,-136.58"/>
<polygon fill="#63b8ff" stroke="#63b8ff" points="488.14,-188.98 498.58,-190.78 491.53,-182.86 488.14,-188.98"/>
</a>
</g>
</g>
<!-- Node6 -->
<g id="Node000006" class="node">
<title>Node6</title>
<g id="a_Node000006"><a xlink:href="namespacegfdl__cloud__microphys__v3__mod_abff24ebeedbc1d30f155bfdf0b5b223d.html#abff24ebeedbc1d30f155bfdf0b5b223d" target="_top" xlink:title=" ">
<polygon fill="white" stroke="#666666" points="253.25,-249.88 142,-249.88 142,-219.38 253.25,-219.38 253.25,-249.88"/>
<text xml:space="preserve" text-anchor="start" x="150" y="-236.38" font-family="Source Sans Pro" font-size="10.00">gfdl_cloud_microphys</text>
<text xml:space="preserve" text-anchor="middle" x="197.62" y="-225.12" font-family="Source Sans Pro" font-size="10.00">_v3_mod::cld_sat_adj</text>
</a>
</g>
</g>
<!-- Node5&#45;&gt;Node6 -->
<g id="edge5_Node000005_Node000006" class="edge">
<title>Node5&#45;&gt;Node6</title>
<g id="a_edge5_Node000005_Node000006"><a xlink:title=" ">
<path fill="none" stroke="#63b8ff" d="M360.29,-143.6C331.17,-167.43 281.14,-208.16 276.5,-210.62 269.38,-214.41 261.57,-217.69 253.73,-220.52"/>
<polygon fill="#63b8ff" stroke="#63b8ff" points="362.23,-146.54 367.75,-137.49 357.8,-141.12 362.23,-146.54"/>
</a>
</g>
</g>
<!-- Node7 -->
<g id="Node000007" class="node">
<title>Node7</title>
<g id="a_Node000007"><a xlink:href="namespacegfdl__cloud__microphys__v3__mod_a230685a7af97f93f58eec3bf7a7040ba.html#a230685a7af97f93f58eec3bf7a7040ba" target="_top" xlink:title=" ">
<polygon fill="white" stroke="#666666" points="275.75,-201.5 119.5,-201.5 119.5,-159.75 275.75,-159.75 275.75,-201.5"/>
<text xml:space="preserve" text-anchor="start" x="127.5" y="-188" font-family="Source Sans Pro" font-size="10.00">gfdl_cloud_microphys</text>
<text xml:space="preserve" text-anchor="start" x="127.5" y="-176.75" font-family="Source Sans Pro" font-size="10.00">_v3_mod::gfdl_cloud_microphys</text>
<text xml:space="preserve" text-anchor="middle" x="197.62" y="-165.5" font-family="Source Sans Pro" font-size="10.00">_v3_mod_driver</text>
</a>
</g>
</g>
<!-- Node5&#45;&gt;Node7 -->
<g id="edge6_Node000005_Node000007" class="edge">
<title>Node5&#45;&gt;Node7</title>
<g id="a_edge6_Node000005_Node000007"><a xlink:title=" ">
<path fill="none" stroke="#63b8ff" d="M350.95,-135.52C329.09,-142 298.54,-151.04 270.54,-159.33"/>
<polygon fill="#63b8ff" stroke="#63b8ff" points="351.78,-138.93 360.38,-132.73 349.79,-132.21 351.78,-138.93"/>
</a>
</g>
</g>
<!-- Node8 -->
<g id="Node000008" class="node">
<title>Node8</title>
<g id="a_Node000008"><a xlink:href="namespacegfdl__cloud__microphys__v3__mod_a371473ee4ccb0ae7f6d47141012b4af5.html#a371473ee4ccb0ae7f6d47141012b4af5" target="_top" xlink:title=" ">
<polygon fill="white" stroke="#666666" points="252.88,-141.88 142.38,-141.88 142.38,-111.38 252.88,-111.38 252.88,-141.88"/>
<text xml:space="preserve" text-anchor="start" x="150.38" y="-128.38" font-family="Source Sans Pro" font-size="10.00">gfdl_cloud_microphys</text>
<text xml:space="preserve" text-anchor="middle" x="197.62" y="-117.12" font-family="Source Sans Pro" font-size="10.00">_v3_mod::mtetw</text>
</a>
</g>
</g>
<!-- Node5&#45;&gt;Node8 -->
<g id="edge7_Node000005_Node000008" class="edge">
<title>Node5&#45;&gt;Node8</title>
<g id="a_edge7_Node000005_Node000008"><a xlink:title=" ">
<path fill="none" stroke="#63b8ff" d="M350.6,-126.62C324.06,-126.62 284.92,-126.62 253.01,-126.62"/>
<polygon fill="#63b8ff" stroke="#63b8ff" points="350.31,-130.13 360.31,-126.63 350.31,-123.13 350.31,-130.13"/>
</a>
</g>
</g>
<!-- Node9 -->
<g id="Node000009" class="node">
<title>Node9</title>
<g id="a_Node000009"><a xlink:href="group___noah_m_p___l_s_m_gab480f7969dad27ce9e00e559f82c464e.html#gab480f7969dad27ce9e00e559f82c464e" target="_top" xlink:title=" ">
<polygon fill="white" stroke="#666666" points="233.38,-93.25 161.88,-93.25 161.88,-74 233.38,-74 233.38,-93.25"/>
<text xml:space="preserve" text-anchor="middle" x="197.62" y="-79.75" font-family="Source Sans Pro" font-size="10.00">noahmp_sflx</text>
</a>
</g>
</g>
<!-- Node5&#45;&gt;Node9 -->
<g id="edge8_Node000005_Node000009" class="edge">
<title>Node5&#45;&gt;Node9</title>
<g id="a_edge8_Node000005_Node000009"><a xlink:title=" ">
<path fill="none" stroke="#63b8ff" d="M350.88,-119.52C318.68,-111.93 267.68,-99.91 233.7,-91.89"/>
<polygon fill="#63b8ff" stroke="#63b8ff" points="349.82,-122.87 360.35,-121.76 351.42,-116.06 349.82,-122.87"/>
</a>
</g>
</g>
<!-- Node10 -->
<g id="Node000010" class="node">
<title>Node10</title>
<g id="a_Node000010"><a xlink:href="group___s_a_m_fdeep_ga5e834dec0932a16a98b7d90fd69a9c70.html#ga5e834dec0932a16a98b7d90fd69a9c70" target="_top" xlink:title=" ">
<polygon fill="white" stroke="#666666" points="276.5,-56.25 118.75,-56.25 118.75,-37 276.5,-37 276.5,-56.25"/>
<text xml:space="preserve" text-anchor="middle" x="197.62" y="-42.75" font-family="Source Sans Pro" font-size="10.00">samfdeepcnv::samfdeepcnv_run</text>
</a>
</g>
</g>
<!-- Node5&#45;&gt;Node10 -->
<g id="edge10_Node000005_Node000010" class="edge">
<title>Node5&#45;&gt;Node10</title>
<g id="a_edge10_Node000005_Node000010"><a xlink:title=" ">
<path fill="none" stroke="#63b8ff" d="M357.77,-109.99C337.28,-96.03 306.15,-76.51 276.5,-64.62 268.77,-61.53 260.39,-58.89 252.08,-56.67"/>
<polygon fill="#63b8ff" stroke="#63b8ff" points="355.73,-112.83 365.95,-115.66 359.73,-107.08 355.73,-112.83"/>
</a>
</g>
</g>
<!-- Node11 -->
<g id="Node000011" class="node">
<title>Node11</title>
<g id="a_Node000011"><a xlink:href="group___s_a_m_f__shal_gaf2534c328553470068a75a9aa56b7d56.html#gaf2534c328553470068a75a9aa56b7d56" target="_top" xlink:title=" ">
<polygon fill="white" stroke="#666666" points="273.5,-19.25 121.75,-19.25 121.75,0 273.5,0 273.5,-19.25"/>
<text xml:space="preserve" text-anchor="middle" x="197.62" y="-5.75" font-family="Source Sans Pro" font-size="10.00">samfshalcnv::samfshalcnv_run</text>
</a>
</g>
</g>
<!-- Node5&#45;&gt;Node11 -->
<g id="edge11_Node000005_Node000011" class="edge">
<title>Node5&#45;&gt;Node11</title>
<g id="a_edge11_Node000005_Node000011"><a xlink:title=" ">
<path fill="none" stroke="#63b8ff" d="M366.46,-107.71C348.02,-85.11 314.09,-47.81 276.5,-27.62 270.63,-24.47 264.23,-21.87 257.69,-19.72"/>
<polygon fill="#63b8ff" stroke="#63b8ff" points="363.68,-109.84 372.64,-115.49 369.16,-105.49 363.68,-109.84"/>
</a>
</g>
</g>
<!-- Node9&#45;&gt;Node2 -->
<g id="edge9_Node000009_Node000002" class="edge">
<title>Node9&#45;&gt;Node2</title>
<g id="a_edge9_Node000009_Node000002"><a xlink:title=" ">
<path fill="none" stroke="#63b8ff" d="M150.59,-90.39C139.7,-93.18 128.44,-97.11 118.75,-102.62 87.95,-120.16 61.4,-153.7 49.32,-170.5"/>
<polygon fill="#63b8ff" stroke="#63b8ff" points="151.27,-93.83 160.26,-88.21 149.73,-87 151.27,-93.83"/>
</a>
</g>
</g>
</g>
</svg>

<g id="navigator" transform="translate(0 0)" fill="#404254">
  <rect fill="#f2f5e9" fill-opacity="0.5" stroke="#606060" stroke-width=".5" x="0" y="0" width="60" height="60"/>
  <use id="zoomplus" xlink:href="#zoomPlus" x="17" y="9" onmousedown="handleZoom(evt,'in')"/>
  <use id="zoomminus" xlink:href="#zoomMin" x="42" y="9" onmousedown="handleZoom(evt,'out')"/>
  <use id="reset" xlink:href="#resetDef" x="30" y="36" onmousedown="handleReset()"/>
   <use id="arrowup" xlink:href="#arrowUp" x="0" y="0" onmousedown="handlePan(0,-1)"/>
  <use id="arrowright" xlink:href="#arrowRight" x="0" y="0" onmousedown="handlePan(1,0)"/>
  <use id="arrowdown" xlink:href="#arrowDown" x="0" y="0" onmousedown="handlePan(0,1)"/>
  <use id="arrowleft" xlink:href="#arrowLeft" x="0" y="0" onmousedown="handlePan(-1,0)"/>
</g>
<svg viewBox="0 0 15 15" width="100%" height="30px" preserveAspectRatio="xMaxYMin meet">
 <g id="arrow_out" transform="scale(0.3 0.3)">
  <a xlink:href="group___noah_m_p___l_s_m_ga27b8403f2911888350b2ce246e3c6620_ga27b8403f2911888350b2ce246e3c6620_icgraph_org.svg" target="_base">
   <rect id="button" ry="5" rx="5" y="6" x="6" height="38" width="38"
        fill="#f2f5e9" fill-opacity="0.5" stroke="#606060" stroke-width="1.0"/>
   <path id="arrow"
     d="M 11.500037,31.436501 C 11.940474,20.09759 22.043105,11.32322 32.158766,21.979434 L 37.068811,17.246167 C 37.068811,17.246167 37.088388,32 37.088388,32 L 22.160133,31.978069 C 22.160133,31.978069 26.997745,27.140456 26.997745,27.140456 C 18.528582,18.264221 13.291696,25.230495 11.500037,31.436501 z"
     style="fill:#404040;"/>
  </a>
 </g>
</svg>

<style type='text/css'>
<![CDATA[
[data-mouse-over-selected='false'] { opacity: 0.7; }
[data-mouse-over-selected='true']  { opacity: 1.0; }
]]>
</style>
<script type="application/ecmascript"><![CDATA[
document.addEventListener('DOMContentLoaded', (event) => {
  highlightEdges();
  highlightAdjacentNodes();
});
]]></script>
</svg>
