<?xml version="1.0" encoding="UTF-8" standalone="no"?>
<!DOCTYPE svg PUBLIC "-//W3C//DTD SVG 1.1//EN"
 "http://www.w3.org/Graphics/SVG/1.1/DTD/svg11.dtd">
<!-- Generated by graphviz version 14.1.2 (20260124.0452)
 -->
<!-- Title: albedo Pages: 1 -->
<svg width="628pt" height="301pt"
 viewBox="0.00 0.00 628.00 301.00" xmlns="http://www.w3.org/2000/svg" xmlns:xlink="http://www.w3.org/1999/xlink">
<g id="graph0" class="graph" transform="scale(1 1) rotate(0) translate(4 297.25)">
<title>albedo</title>
<!-- Node1 -->
<g id="Node000001" class="node">
<title>Node1</title>
<g id="a_Node000001"><a xlink:title="surface albedos. also fluxes (per unit incoming direct and diffuse radiation) reflected,...">
<polygon fill="#999999" stroke="#666666" points="620,-179.25 575.5,-179.25 575.5,-160 620,-160 620,-179.25"/>
<text xml:space="preserve" text-anchor="middle" x="597.75" y="-165.75" font-family="Source Sans Pro" font-size="10.00">albedo</text>
</a>
</g>
</g>
<!-- Node2 -->
<g id="Node000002" class="node">
<title>Node2</title>
<g id="a_Node000002"><a xlink:href="group___noah___l_s_m_ga18a0f02e4a1a32b6cde35cbe67b09908.html#ga18a0f02e4a1a32b6cde35cbe67b09908" target="_top" xlink:title="This subroutine calculates albedo including snow effect (0 &#45;&gt; 1).">
<polygon fill="white" stroke="#666666" points="498.25,-293.25 456.75,-293.25 456.75,-274 498.25,-274 498.25,-293.25"/>
<text xml:space="preserve" text-anchor="middle" x="477.5" y="-279.75" font-family="Source Sans Pro" font-size="10.00">alcalc</text>
</a>
</g>
</g>
<!-- Node1&#45;&gt;Node2 -->
<g id="edge1_Node000001_Node000002" class="edge">
<title>Node1&#45;&gt;Node2</title>
<g id="a_edge1_Node000001_Node000002"><a xlink:title=" ">
<path fill="none" stroke="#63b8ff" d="M588.22,-190.28C578.94,-210.46 562.31,-240.81 539.5,-259.62 527.65,-269.4 511.33,-275.54 498.56,-279.16"/>
<polygon fill="#63b8ff" stroke="#63b8ff" points="591.43,-191.68 592.22,-181.12 585.01,-188.88 591.43,-191.68"/>
</a>
</g>
</g>
<!-- Node3 -->
<g id="Node000003" class="node">
<title>Node3</title>
<g id="a_Node000003"><a xlink:href="group___noah___l_s_m_ga36e98f3ac91f839b816fd167eab30901.html#ga36e98f3ac91f839b816fd167eab30901" target="_top" xlink:title="This is the entity of GFS Noah LSM model of physics subroutines. It is a soil/veg/snowpack land&#45;surfa...">
<polygon fill="white" stroke="#666666" points="379.5,-255.25 312.5,-255.25 312.5,-236 379.5,-236 379.5,-255.25"/>
<text xml:space="preserve" text-anchor="middle" x="346" y="-241.75" font-family="Source Sans Pro" font-size="10.00">sflx::gfssflx</text>
</a>
</g>
</g>
<!-- Node1&#45;&gt;Node3 -->
<g id="edge5_Node000001_Node000003" class="edge">
<title>Node1&#45;&gt;Node3</title>
<g id="a_edge5_Node000001_Node000003"><a xlink:title=" ">
<path fill="none" stroke="#63b8ff" d="M581.68,-188.24C571.15,-199.86 556.06,-214.02 539.5,-221.62 487.47,-245.53 419.66,-248.27 379.96,-247.41"/>
<polygon fill="#63b8ff" stroke="#63b8ff" points="584.23,-190.64 588.09,-180.78 578.92,-186.08 584.23,-190.64"/>
</a>
</g>
</g>
<!-- Node4 -->
<g id="Node000004" class="node">
<title>Node4</title>
<g id="a_Node000004"><a xlink:href="group___noah___l_s_m_ga5d624f72a0da3ffcdf7a01fb9862e0e8.html#ga5d624f72a0da3ffcdf7a01fb9862e0e8" target="_top" xlink:title=" ">
<polygon fill="white" stroke="#666666" points="260,-236.25 135.25,-236.25 135.25,-217 260,-217 260,-236.25"/>
<text xml:space="preserve" text-anchor="middle" x="197.62" y="-222.75" font-family="Source Sans Pro" font-size="10.00">lsm_noah::lsm_noah_run</text>
</a>
</g>
</g>
<!-- Node1&#45;&gt;Node4 -->
<g id="edge6_Node000001_Node000004" class="edge">
<title>Node1&#45;&gt;Node4</title>
<g id="a_edge6_Node000001_Node000004"><a xlink:title=" ">
<path fill="none" stroke="#63b8ff" d="M564.24,-181.72C556.24,-184.33 547.63,-186.84 539.5,-188.62 443.24,-209.72 328.97,-219.42 260.21,-223.64"/>
<polygon fill="#63b8ff" stroke="#63b8ff" points="565.27,-185.07 573.6,-178.52 563,-178.45 565.27,-185.07"/>
</a>
</g>
</g>
<!-- Node5 -->
<g id="Node000005" class="node">
<title>Node5</title>
<g id="a_Node000005"><a xlink:href="namespaceclm__lake_a45370a45ff94cf5dc347a180920eb69a.html#a45370a45ff94cf5dc347a180920eb69a" target="_top" xlink:title=" ">
<polygon fill="white" stroke="#666666" points="536.88,-179.25 418.12,-179.25 418.12,-160 536.88,-160 536.88,-179.25"/>
<text xml:space="preserve" text-anchor="middle" x="477.5" y="-165.75" font-family="Source Sans Pro" font-size="10.00">clm_lake::clm_lake_run</text>
</a>
</g>
</g>
<!-- Node1&#45;&gt;Node5 -->
<g id="edge4_Node000001_Node000005" class="edge">
<title>Node1&#45;&gt;Node5</title>
<g id="a_edge4_Node000001_Node000005"><a xlink:title=" ">
<path fill="none" stroke="#63b8ff" d="M563.69,-169.62C555.45,-169.62 546.36,-169.62 537.29,-169.62"/>
<polygon fill="#63b8ff" stroke="#63b8ff" points="563.55,-173.13 573.55,-169.63 563.55,-166.13 563.55,-173.13"/>
</a>
</g>
</g>
<!-- Node6 -->
<g id="Node000006" class="node">
<title>Node6</title>
<g id="a_Node000006"><a xlink:href="group___noah_m_p___l_s_m_ga86c69e134a41160e0c6f06bfb3a654a6.html#ga86c69e134a41160e0c6f06bfb3a654a6" target="_top" xlink:title=" ">
<polygon fill="white" stroke="#666666" points="539.5,-141.88 415.5,-141.88 415.5,-111.38 539.5,-111.38 539.5,-141.88"/>
<text xml:space="preserve" text-anchor="start" x="423.5" y="-128.38" font-family="Source Sans Pro" font-size="10.00">noahmp_glacier_routines</text>
<text xml:space="preserve" text-anchor="middle" x="477.5" y="-117.12" font-family="Source Sans Pro" font-size="10.00">::noahmp_glacier</text>
</a>
</g>
</g>
<!-- Node1&#45;&gt;Node6 -->
<g id="edge7_Node000001_Node000006" class="edge">
<title>Node1&#45;&gt;Node6</title>
<g id="a_edge7_Node000001_Node000006"><a xlink:title=" ">
<path fill="none" stroke="#63b8ff" d="M564.56,-157.92C551.33,-153.11 535.8,-147.46 521.61,-142.3"/>
<polygon fill="#63b8ff" stroke="#63b8ff" points="563.04,-161.09 573.64,-161.22 565.44,-154.51 563.04,-161.09"/>
</a>
</g>
</g>
<!-- Node7 -->
<g id="Node000007" class="node">
<title>Node7</title>
<g id="a_Node000007"><a xlink:href="group___noah_m_p___l_s_m_gab480f7969dad27ce9e00e559f82c464e.html#gab480f7969dad27ce9e00e559f82c464e" target="_top" xlink:title=" ">
<polygon fill="white" stroke="#666666" points="233.38,-93.25 161.88,-93.25 161.88,-74 233.38,-74 233.38,-93.25"/>
<text xml:space="preserve" text-anchor="middle" x="197.62" y="-79.75" font-family="Source Sans Pro" font-size="10.00">noahmp_sflx</text>
</a>
</g>
</g>
<!-- Node1&#45;&gt;Node7 -->
<g id="edge8_Node000001_Node000007" class="edge">
<title>Node1&#45;&gt;Node7</title>
<g id="a_edge8_Node000001_Node000007"><a xlink:title=" ">
<path fill="none" stroke="#63b8ff" d="M585.91,-149.76C576.08,-133.92 560,-112.77 539.5,-102.62 438.04,-52.4 298.23,-66.54 233.77,-76.96"/>
<polygon fill="#63b8ff" stroke="#63b8ff" points="582.87,-151.49 590.94,-158.36 588.92,-147.96 582.87,-151.49"/>
</a>
</g>
</g>
<!-- Node9 -->
<g id="Node000009" class="node">
<title>Node9</title>
<g id="a_Node000009"><a xlink:href="group___noah_m_p___l_s_m_gaaa3073947247829ad606eea763d888f8.html#gaaa3073947247829ad606eea763d888f8" target="_top" xlink:title="Calculate solar radiation: absorbed &amp; reflected by the ground and canopy.">
<polygon fill="white" stroke="#666666" points="503.88,-55.25 451.12,-55.25 451.12,-36 503.88,-36 503.88,-55.25"/>
<text xml:space="preserve" text-anchor="middle" x="477.5" y="-41.75" font-family="Source Sans Pro" font-size="10.00">radiation</text>
</a>
</g>
</g>
<!-- Node1&#45;&gt;Node9 -->
<g id="edge10_Node000001_Node000009" class="edge">
<title>Node1&#45;&gt;Node9</title>
<g id="a_edge10_Node000001_Node000009"><a xlink:title=" ">
<path fill="none" stroke="#63b8ff" d="M589.7,-149C581.09,-126.64 564.52,-91.25 539.5,-69.62 529.51,-60.99 516.05,-55.25 504.32,-51.56"/>
<polygon fill="#63b8ff" stroke="#63b8ff" points="586.35,-150.02 593.06,-158.22 592.93,-147.63 586.35,-150.02"/>
</a>
</g>
</g>
<!-- Node2&#45;&gt;Node3 -->
<g id="edge2_Node000002_Node000003" class="edge">
<title>Node2&#45;&gt;Node3</title>
<g id="a_edge2_Node000002_Node000003"><a xlink:title=" ">
<path fill="none" stroke="#63b8ff" d="M445.38,-274.49C425.61,-268.69 400.04,-261.19 379.93,-255.29"/>
<polygon fill="#63b8ff" stroke="#63b8ff" points="444.23,-277.8 454.81,-277.26 446.2,-271.09 444.23,-277.8"/>
</a>
</g>
</g>
<!-- Node3&#45;&gt;Node4 -->
<g id="edge3_Node000003_Node000004" class="edge">
<title>Node3&#45;&gt;Node4</title>
<g id="a_edge3_Node000003_Node000004"><a xlink:title=" ">
<path fill="none" stroke="#63b8ff" d="M300.92,-239.9C288.2,-238.25 274.08,-236.42 260.49,-234.66"/>
<polygon fill="#63b8ff" stroke="#63b8ff" points="300.28,-243.35 310.65,-241.17 301.18,-236.41 300.28,-243.35"/>
</a>
</g>
</g>
<!-- Node8 -->
<g id="Node000008" class="node">
<title>Node8</title>
<g id="a_Node000008"><a xlink:href="group___noah_m_p___l_s_m_ga0e44f72a92d8830344fecdb9fb65e6fb.html#ga0e44f72a92d8830344fecdb9fb65e6fb" target="_top" xlink:title="This subroutine is the main CCPP entry point for the NoahMP LSM.">
<polygon fill="white" stroke="#666666" points="82.75,-93.25 0,-93.25 0,-74 82.75,-74 82.75,-93.25"/>
<text xml:space="preserve" text-anchor="middle" x="41.38" y="-79.75" font-family="Source Sans Pro" font-size="10.00">noahmpdrv_run</text>
</a>
</g>
</g>
<!-- Node7&#45;&gt;Node8 -->
<g id="edge9_Node000007_Node000008" class="edge">
<title>Node7&#45;&gt;Node8</title>
<g id="a_edge9_Node000007_Node000008"><a xlink:title=" ">
<path fill="none" stroke="#63b8ff" d="M150.22,-83.62C128.9,-83.62 103.84,-83.62 83.25,-83.62"/>
<polygon fill="#63b8ff" stroke="#63b8ff" points="150.11,-87.13 160.11,-83.63 150.11,-80.13 150.11,-87.13"/>
</a>
</g>
</g>
<!-- Node10 -->
<g id="Node000010" class="node">
<title>Node10</title>
<g id="a_Node000010"><a xlink:href="group___noah_m_p___l_s_m_ga2698d46b5582d11d0d6fc78d49dd796c.html#ga2698d46b5582d11d0d6fc78d49dd796c" target="_top" xlink:title="We use different approaches to deal with subgrid features of radiation transfer and turbulent transfe...">
<polygon fill="white" stroke="#666666" points="368.62,-55.25 323.38,-55.25 323.38,-36 368.62,-36 368.62,-55.25"/>
<text xml:space="preserve" text-anchor="middle" x="346" y="-41.75" font-family="Source Sans Pro" font-size="10.00">energy</text>
</a>
</g>
</g>
<!-- Node9&#45;&gt;Node10 -->
<g id="edge11_Node000009_Node000010" class="edge">
<title>Node9&#45;&gt;Node10</title>
<g id="a_edge11_Node000009_Node000010"><a xlink:title=" ">
<path fill="none" stroke="#63b8ff" d="M439.61,-45.62C416.84,-45.62 388.4,-45.62 369.08,-45.62"/>
<polygon fill="#63b8ff" stroke="#63b8ff" points="439.4,-49.13 449.4,-45.63 439.4,-42.13 439.4,-49.13"/>
</a>
</g>
</g>
<!-- Node10&#45;&gt;Node7 -->
<g id="edge12_Node000010_Node000007" class="edge">
<title>Node10&#45;&gt;Node7</title>
<g id="a_edge12_Node000010_Node000007"><a xlink:title=" ">
<path fill="none" stroke="#63b8ff" d="M312.18,-55.62C300.91,-58.94 288.19,-62.57 276.5,-65.62 262.54,-69.27 247.07,-72.93 233.62,-75.98"/>
<polygon fill="#63b8ff" stroke="#63b8ff" points="312.84,-59.07 321.43,-52.86 310.84,-52.37 312.84,-59.07"/>
</a>
</g>
</g>
<!-- Node11 -->
<g id="Node000011" class="node">
<title>Node11</title>
<g id="a_Node000011"><a xlink:href="group___s_a_m_fdeep_ga5e834dec0932a16a98b7d90fd69a9c70.html#ga5e834dec0932a16a98b7d90fd69a9c70" target="_top" xlink:title=" ">
<polygon fill="white" stroke="#666666" points="276.5,-56.25 118.75,-56.25 118.75,-37 276.5,-37 276.5,-56.25"/>
<text xml:space="preserve" text-anchor="middle" x="197.62" y="-42.75" font-family="Source Sans Pro" font-size="10.00">samfdeepcnv::samfdeepcnv_run</text>
</a>
</g>
</g>
<!-- Node10&#45;&gt;Node11 -->
<g id="edge13_Node000010_Node000011" class="edge">
<title>Node10&#45;&gt;Node11</title>
<g id="a_edge13_Node000010_Node000011"><a xlink:title=" ">
<path fill="none" stroke="#63b8ff" d="M311.91,-45.85C301.34,-45.92 289.15,-46.01 276.77,-46.09"/>
<polygon fill="#63b8ff" stroke="#63b8ff" points="311.6,-49.35 321.57,-45.79 311.55,-42.35 311.6,-49.35"/>
</a>
</g>
</g>
<!-- Node12 -->
<g id="Node000012" class="node">
<title>Node12</title>
<g id="a_Node000012"><a xlink:href="group___s_a_m_f__shal_gaf2534c328553470068a75a9aa56b7d56.html#gaf2534c328553470068a75a9aa56b7d56" target="_top" xlink:title=" ">
<polygon fill="white" stroke="#666666" points="273.5,-19.25 121.75,-19.25 121.75,0 273.5,0 273.5,-19.25"/>
<text xml:space="preserve" text-anchor="middle" x="197.62" y="-5.75" font-family="Source Sans Pro" font-size="10.00">samfshalcnv::samfshalcnv_run</text>
</a>
</g>
</g>
<!-- Node10&#45;&gt;Node12 -->
<g id="edge14_Node000010_Node000012" class="edge">
<title>Node10&#45;&gt;Node12</title>
<g id="a_edge14_Node000010_Node000012"><a xlink:title=" ">
<path fill="none" stroke="#63b8ff" d="M312.03,-36.75C300.78,-33.78 288.11,-30.49 276.5,-27.62 265.72,-24.96 254.08,-22.21 243.16,-19.68"/>
<polygon fill="#63b8ff" stroke="#63b8ff" points="311.11,-40.13 321.68,-39.31 312.91,-33.36 311.11,-40.13"/>
</a>
</g>
</g>
</g>
</svg>
