<?xml version="1.0" encoding="UTF-8" standalone="no"?>
<!DOCTYPE svg PUBLIC "-//W3C//DTD SVG 1.1//EN"
 "http://www.w3.org/Graphics/SVG/1.1/DTD/svg11.dtd">
<!-- Generated by graphviz version 14.1.2 (20260124.0452)
 -->
<!-- Title: module_sf_ruclsm::soil Pages: 1 -->
<svg width="459pt" height="138pt"
 viewBox="0.00 0.00 459.00 138.00" xmlns="http://www.w3.org/2000/svg" xmlns:xlink="http://www.w3.org/1999/xlink">
<g id="graph0" class="graph" transform="scale(1 1) rotate(0) translate(4 134.25)">
<title>module_sf_ruclsm::soil</title>
<!-- Node1 -->
<g id="Node000001" class="node">
<title>Node1</title>
<g id="a_Node000001"><a xlink:title="This subroutine calculates energy and moisture budget for vegetated surfaces without snow,...">
<polygon fill="#999999" stroke="#666666" points="116.5,-74.25 0,-74.25 0,-55 116.5,-55 116.5,-74.25"/>
<text xml:space="preserve" text-anchor="middle" x="58.25" y="-60.75" font-family="Source Sans Pro" font-size="10.00">module_sf_ruclsm::soil</text>
</a>
</g>
</g>
<!-- Node2 -->
<g id="Node000002" class="node">
<title>Node2</title>
<g id="a_Node000002"><a xlink:href="group__lsm__ruc__group_ga278c9faad6ab598b60a3bf8c562e5a8a.html#ga278c9faad6ab598b60a3bf8c562e5a8a" target="_top" xlink:title="This subroutine solves moisture budget and computes soil moisture and surface and sub&#45;surface runoffs...">
<polygon fill="white" stroke="#666666" points="293,-130.25 152.5,-130.25 152.5,-111 293,-111 293,-130.25"/>
<text xml:space="preserve" text-anchor="middle" x="222.75" y="-116.75" font-family="Source Sans Pro" font-size="10.00">module_sf_ruclsm::soilmoist</text>
</a>
</g>
</g>
<!-- Node1&#45;&gt;Node2 -->
<g id="edge1_Node000001_Node000002" class="edge">
<title>Node1&#45;&gt;Node2</title>
<g id="a_edge1_Node000001_Node000002"><a xlink:title=" ">
<path fill="none" stroke="#63b8ff" d="M81.55,-74.69C100.25,-82.89 127.78,-94.42 152.5,-102.62 157.61,-104.32 162.97,-105.96 168.36,-107.51"/>
<polygon fill="#63b8ff" stroke="#63b8ff" points="167.34,-110.86 177.92,-110.16 169.21,-104.12 167.34,-110.86"/>
</a>
</g>
</g>
<!-- Node3 -->
<g id="Node000003" class="node">
<title>Node3</title>
<g id="a_Node000003"><a xlink:href="group__lsm__ruc__group_ga53ef8a1d870ab8dab2cc31f456c6b3a5.html#ga53ef8a1d870ab8dab2cc31f456c6b3a5" target="_top" xlink:title="This subroutine computes thermal diffusivity, and diffusional and hydraulic condeuctivities in soil.">
<polygon fill="white" stroke="#666666" points="290.38,-93.25 155.12,-93.25 155.12,-74 290.38,-74 290.38,-93.25"/>
<text xml:space="preserve" text-anchor="middle" x="222.75" y="-79.75" font-family="Source Sans Pro" font-size="10.00">module_sf_ruclsm::soilprop</text>
</a>
</g>
</g>
<!-- Node1&#45;&gt;Node3 -->
<g id="edge2_Node000001_Node000003" class="edge">
<title>Node1&#45;&gt;Node3</title>
<g id="a_edge2_Node000001_Node000003"><a xlink:title=" ">
<path fill="none" stroke="#63b8ff" d="M117,-71.38C125.59,-72.38 134.57,-73.43 143.5,-74.48"/>
<polygon fill="#63b8ff" stroke="#63b8ff" points="142.92,-77.93 153.25,-75.62 143.73,-70.98 142.92,-77.93"/>
</a>
</g>
</g>
<!-- Node4 -->
<g id="Node000004" class="node">
<title>Node4</title>
<g id="a_Node000004"><a xlink:href="group__lsm__ruc__group_gafc7d78906732947d1ac00ca46d7e8147.html#gafc7d78906732947d1ac00ca46d7e8147" target="_top" xlink:title="This subroutine solves energy budget equation and heat diffusion equation.">
<polygon fill="white" stroke="#666666" points="291.88,-56.25 153.62,-56.25 153.62,-37 291.88,-37 291.88,-56.25"/>
<text xml:space="preserve" text-anchor="middle" x="222.75" y="-42.75" font-family="Source Sans Pro" font-size="10.00">module_sf_ruclsm::soiltemp</text>
</a>
</g>
</g>
<!-- Node1&#45;&gt;Node4 -->
<g id="edge3_Node000001_Node000004" class="edge">
<title>Node1&#45;&gt;Node4</title>
<g id="a_edge3_Node000001_Node000004"><a xlink:title=" ">
<path fill="none" stroke="#63b8ff" d="M117,-58.23C125.09,-57.33 133.52,-56.4 141.93,-55.47"/>
<polygon fill="#63b8ff" stroke="#63b8ff" points="142.29,-58.95 151.85,-54.37 141.52,-51.99 142.29,-58.95"/>
</a>
</g>
</g>
<!-- Node6 -->
<g id="Node000006" class="node">
<title>Node6</title>
<g id="a_Node000006"><a xlink:href="group__lsm__ruc__group_ga360e53dc48f6b38b3536375605199e96.html#ga360e53dc48f6b38b3536375605199e96" target="_top" xlink:title="This subroutine solves the transpiration function (EQs. 18,19 in Smirnova et al.(1997) smirnova_1997)...">
<polygon fill="white" stroke="#666666" points="285.88,-19.25 159.62,-19.25 159.62,0 285.88,0 285.88,-19.25"/>
<text xml:space="preserve" text-anchor="middle" x="222.75" y="-5.75" font-family="Source Sans Pro" font-size="10.00">module_sf_ruclsm::transf</text>
</a>
</g>
</g>
<!-- Node1&#45;&gt;Node6 -->
<g id="edge5_Node000001_Node000006" class="edge">
<title>Node1&#45;&gt;Node6</title>
<g id="a_edge5_Node000001_Node000006"><a xlink:title=" ">
<path fill="none" stroke="#63b8ff" d="M82.33,-54.54C101.03,-46.6 128.16,-35.58 152.5,-27.62 157.62,-25.95 162.99,-24.33 168.38,-22.79"/>
<polygon fill="#63b8ff" stroke="#63b8ff" points="169.23,-26.18 177.94,-20.15 167.36,-19.44 169.23,-26.18"/>
</a>
</g>
</g>
<!-- Node5 -->
<g id="Node000005" class="node">
<title>Node5</title>
<g id="a_Node000005"><a xlink:href="group__lsm__ruc__group_ga03c426be3516bfb046dfd57c1b89dbbe.html#ga03c426be3516bfb046dfd57c1b89dbbe" target="_top" xlink:title="This subroutine finds the solution of energy budget at the surface from the pre&#45;computed table of sat...">
<polygon fill="white" stroke="#666666" points="450.75,-56.25 329,-56.25 329,-37 450.75,-37 450.75,-56.25"/>
<text xml:space="preserve" text-anchor="middle" x="389.88" y="-42.75" font-family="Source Sans Pro" font-size="10.00">module_sf_ruclsm::vilka</text>
</a>
</g>
</g>
<!-- Node4&#45;&gt;Node5 -->
<g id="edge4_Node000004_Node000005" class="edge">
<title>Node4&#45;&gt;Node5</title>
<g id="a_edge4_Node000004_Node000005"><a xlink:title=" ">
<path fill="none" stroke="#63b8ff" d="M292.34,-46.62C300.53,-46.62 308.91,-46.62 317.15,-46.62"/>
<polygon fill="#63b8ff" stroke="#63b8ff" points="317.14,-50.13 327.14,-46.63 317.14,-43.13 317.14,-50.13"/>
</a>
</g>
</g>
</g>
</svg>
