<?xml version="1.0" encoding="UTF-8" standalone="no"?>
<!DOCTYPE svg PUBLIC "-//W3C//DTD SVG 1.1//EN"
 "http://www.w3.org/Graphics/SVG/1.1/DTD/svg11.dtd">
<!-- Generated by graphviz version 14.1.2 (20260124.0452)
 -->
<!-- Title: gfdl_cloud_microphys_mod::mpdrv Pages: 1 -->
<!--zoomable 467 -->

<svg id="main" version="1.1" xmlns="http://www.w3.org/2000/svg" xmlns:xlink="http://www.w3.org/1999/xlink" xml:space="preserve" onload="init(evt)">

<style type="text/css"><![CDATA[
.node, .edge {opacity: 0.7;}
.node.selected, .edge.selected {opacity: 1;}
.edge:hover path { stroke: red; }
.edge:hover polygon { stroke: red; fill: red; }
]]></style>

<defs>
  <circle id="rim" cx="0" cy="0" r="7"/>
  <circle id="rim2" cx="0" cy="0" r="3.5"/>
  <g id="zoomPlus">
    <use xlink:href="#rim" fill="#404040"><set attributeName="fill" to="#808080" begin="zoomplus.mouseover" end="zoomplus.mouseout"/></use>
    <path d="M-4,0h8M0,-4v8" fill="none" stroke="white" stroke-width="1.5" pointer-events="none"/>
  </g>
  <g id="zoomMin">
    <use xlink:href="#rim" fill="#404040"><set attributeName="fill" to="#808080" begin="zoomminus.mouseover" end="zoomminus.mouseout"/></use>
    <path d="M-4,0h8" fill="none" stroke="white" stroke-width="1.5" pointer-events="none"/>
  </g>
  <g id="arrowUp" transform="translate(30 24)">
    <use xlink:href="#rim"/>
    <path pointer-events="none" fill="none" stroke="white" stroke-width="1.5" d="M0,-3.0v7 M-2.5,-0.5L0,-3.0L2.5,-0.5"/>
  </g>
  <g id="arrowRight" transform="rotate(90) translate(36 -43)">
    <use xlink:href="#rim"/>
    <path pointer-events="none" fill="none" stroke="white" stroke-width="1.5" d="M0,-3.0v7 M-2.5,-0.5L0,-3.0L2.5,-0.5"/>
  </g>
  <g id="arrowDown" transform="rotate(180) translate(-30 -48)">
    <use xlink:href="#rim"/>
    <path pointer-events="none" fill="none" stroke="white" stroke-width="1.5" d="M0,-3.0v7 M-2.5,-0.5L0,-3.0L2.5,-0.5"/>
  </g>
  <g id="arrowLeft" transform="rotate(270) translate(-36 17)">
    <use xlink:href="#rim"/>
    <path pointer-events="none" fill="none" stroke="white" stroke-width="1.5" d="M0,-3.0v7 M-2.5,-0.5L0,-3.0L2.5,-0.5"/>
  </g>
  <g id="resetDef">
    <use xlink:href="#rim2" fill="#404040"><set attributeName="fill" to="#808080" begin="reset.mouseover" end="reset.mouseout"/></use>
  </g>
</defs>
<script type="application/ecmascript">
var viewWidth = 726;
var viewHeight = 467;
var sectionId = 'dynsection-0';
</script>
<script type="application/ecmascript" xlink:href="svg.min.js"/>
<svg id="graph" class="graph">
<g id="viewport">
<title>gfdl_cloud_microphys_mod::mpdrv</title>
<!-- Node1 -->
<g id="Node000001" class="node">
<title>Node1</title>
<g id="a_Node000001"><a xlink:title="GFDL cloud microphysics, major program, and is based on Lin et al.(1983) lin_et_al_1983 and Rutledge ...">
<polygon fill="#999999" stroke="#666666" points="110.5,-201.5 0,-201.5 0,-171 110.5,-171 110.5,-201.5"/>
<text xml:space="preserve" text-anchor="start" x="8" y="-188" font-family="Source Sans Pro" font-size="10.00">gfdl_cloud_microphys</text>
<text xml:space="preserve" text-anchor="middle" x="55.25" y="-176.75" font-family="Source Sans Pro" font-size="10.00">_mod::mpdrv</text>
</a>
</g>
</g>
<!-- Node2 -->
<g id="Node000002" class="node">
<title>Node2</title>
<g id="a_Node000002"><a xlink:href="group__mod__gfdl__cloud__mp_ga6833974ce0d83438376d15e3dc710721.html#ga6833974ce0d83438376d15e3dc710721" target="_top" xlink:title="The subroutine calculates vertical fall speed of snow/ice/graupel.">
<polygon fill="white" stroke="#666666" points="257,-348.5 146.5,-348.5 146.5,-318 257,-318 257,-348.5"/>
<text xml:space="preserve" text-anchor="start" x="154.5" y="-335" font-family="Source Sans Pro" font-size="10.00">gfdl_cloud_microphys</text>
<text xml:space="preserve" text-anchor="middle" x="201.75" y="-323.75" font-family="Source Sans Pro" font-size="10.00">_mod::fall_speed</text>
</a>
</g>
</g>
<!-- Node1&#45;&gt;Node2 -->
<g id="edge1_Node000001_Node000002" class="edge">
<title>Node1&#45;&gt;Node2</title>
<g id="a_edge1_Node000001_Node000002"><a xlink:title=" ">
<path fill="none" stroke="#63b8ff" d="M64.28,-201.69C78.07,-226.94 108.48,-277.33 146.5,-308.25 147.97,-309.44 149.5,-310.59 151.08,-311.7"/>
<polygon fill="#63b8ff" stroke="#63b8ff" points="148.92,-314.48 159.27,-316.77 152.61,-308.53 148.92,-314.48"/>
</a>
</g>
</g>
<!-- Node3 -->
<g id="Node000003" class="node">
<title>Node3</title>
<g id="a_Node000003"><a xlink:href="group__mod__gfdl__cloud__mp_ga6d4a8494f1530ef44e39c61be5d819fe.html#ga6d4a8494f1530ef44e39c61be5d819fe" target="_top" xlink:title="This subroutine includes cloud ice microphysics processes.">
<polygon fill="white" stroke="#666666" points="257,-299.5 146.5,-299.5 146.5,-269 257,-269 257,-299.5"/>
<text xml:space="preserve" text-anchor="start" x="154.5" y="-286" font-family="Source Sans Pro" font-size="10.00">gfdl_cloud_microphys</text>
<text xml:space="preserve" text-anchor="middle" x="201.75" y="-274.75" font-family="Source Sans Pro" font-size="10.00">_mod::icloud</text>
</a>
</g>
</g>
<!-- Node1&#45;&gt;Node3 -->
<g id="edge2_Node000001_Node000003" class="edge">
<title>Node1&#45;&gt;Node3</title>
<g id="a_edge2_Node000001_Node000003"><a xlink:title=" ">
<path fill="none" stroke="#63b8ff" d="M79.47,-202C103.48,-218.28 141.18,-243.85 168.18,-262.16"/>
<polygon fill="#63b8ff" stroke="#63b8ff" points="166.1,-264.98 176.34,-267.69 170.03,-259.18 166.1,-264.98"/>
</a>
</g>
</g>
<!-- Node9 -->
<g id="Node000009" class="node">
<title>Node9</title>
<g id="a_Node000009"><a xlink:href="group__mod__gfdl__cloud__mp_ga95934cf5da8077b833820fa000e4b351.html#ga95934cf5da8077b833820fa000e4b351" target="_top" xlink:title="The subroutine &#39;neg_adj&#39; fixes negative water species.">
<polygon fill="white" stroke="#666666" points="257,-79.5 146.5,-79.5 146.5,-49 257,-49 257,-79.5"/>
<text xml:space="preserve" text-anchor="start" x="154.5" y="-66" font-family="Source Sans Pro" font-size="10.00">gfdl_cloud_microphys</text>
<text xml:space="preserve" text-anchor="middle" x="201.75" y="-54.75" font-family="Source Sans Pro" font-size="10.00">_mod::neg_adj</text>
</a>
</g>
</g>
<!-- Node1&#45;&gt;Node9 -->
<g id="edge11_Node000001_Node000009" class="edge">
<title>Node1&#45;&gt;Node9</title>
<g id="a_edge11_Node000001_Node000009"><a xlink:title=" ">
<path fill="none" stroke="#63b8ff" d="M67.57,-170.71C83.35,-149.94 113.71,-112.99 146.5,-89.25 148.26,-87.97 150.1,-86.74 151.99,-85.54"/>
<polygon fill="#63b8ff" stroke="#63b8ff" points="153.51,-88.71 160.45,-80.7 150.03,-82.63 153.51,-88.71"/>
</a>
</g>
</g>
<!-- Node10 -->
<g id="Node000010" class="node">
<title>Node10</title>
<g id="a_Node000010"><a xlink:href="group__mod__gfdl__cloud__mp_gae04747b6ac095f189c2e9b92a93f2256.html#gae04747b6ac095f189c2e9b92a93f2256" target="_top" xlink:title="This subroutine calculates sedimentation of heat.">
<polygon fill="white" stroke="#666666" points="414.38,-226.5 303.88,-226.5 303.88,-196 414.38,-196 414.38,-226.5"/>
<text xml:space="preserve" text-anchor="start" x="311.88" y="-213" font-family="Source Sans Pro" font-size="10.00">gfdl_cloud_microphys</text>
<text xml:space="preserve" text-anchor="middle" x="359.12" y="-201.75" font-family="Source Sans Pro" font-size="10.00">_mod::sedi_heat</text>
</a>
</g>
</g>
<!-- Node1&#45;&gt;Node10 -->
<g id="edge12_Node000001_Node000010" class="edge">
<title>Node1&#45;&gt;Node10</title>
<g id="a_edge12_Node000001_Node000010"><a xlink:title=" ">
<path fill="none" stroke="#63b8ff" d="M110.92,-190.78C161.91,-195 238.08,-201.31 292.37,-205.8"/>
<polygon fill="#63b8ff" stroke="#63b8ff" points="291.85,-209.27 302.1,-206.61 292.42,-202.3 291.85,-209.27"/>
</a>
</g>
</g>
<!-- Node11 -->
<g id="Node000011" class="node">
<title>Node11</title>
<g id="a_Node000011"><a xlink:href="group__mod__gfdl__cloud__mp_ga79e5f6ea8f5040ab16033081b9a64cb7.html#ga79e5f6ea8f5040ab16033081b9a64cb7" target="_top" xlink:title="The subroutine &#39;terminal_fall&#39; computes terminal fall speed.">
<polygon fill="white" stroke="#666666" points="257,-128.5 146.5,-128.5 146.5,-98 257,-98 257,-128.5"/>
<text xml:space="preserve" text-anchor="start" x="154.5" y="-115" font-family="Source Sans Pro" font-size="10.00">gfdl_cloud_microphys</text>
<text xml:space="preserve" text-anchor="middle" x="201.75" y="-103.75" font-family="Source Sans Pro" font-size="10.00">_mod::terminal_fall</text>
</a>
</g>
</g>
<!-- Node1&#45;&gt;Node11 -->
<g id="edge13_Node000001_Node000011" class="edge">
<title>Node1&#45;&gt;Node11</title>
<g id="a_edge13_Node000001_Node000011"><a xlink:title=" ">
<path fill="none" stroke="#63b8ff" d="M84.49,-170.7C102.17,-161.09 125.51,-148.66 146.5,-138.25 149.42,-136.8 152.44,-135.34 155.49,-133.87"/>
<polygon fill="#63b8ff" stroke="#63b8ff" points="156.97,-137.04 164.51,-129.61 153.98,-130.72 156.97,-137.04"/>
</a>
</g>
</g>
<!-- Node17 -->
<g id="Node000017" class="node">
<title>Node17</title>
<g id="a_Node000017"><a xlink:href="group__mod__gfdl__cloud__mp_gacc8783950135d8875dbfe23ef5013c76.html#gacc8783950135d8875dbfe23ef5013c76" target="_top" xlink:title="This subroutine includes warm rain cloud microphysics.">
<polygon fill="white" stroke="#666666" points="257,-177.5 146.5,-177.5 146.5,-147 257,-147 257,-177.5"/>
<text xml:space="preserve" text-anchor="start" x="154.5" y="-164" font-family="Source Sans Pro" font-size="10.00">gfdl_cloud_microphys</text>
<text xml:space="preserve" text-anchor="middle" x="201.75" y="-152.75" font-family="Source Sans Pro" font-size="10.00">_mod::warm_rain</text>
</a>
</g>
</g>
<!-- Node1&#45;&gt;Node17 -->
<g id="edge19_Node000001_Node000017" class="edge">
<title>Node1&#45;&gt;Node17</title>
<g id="a_edge19_Node000001_Node000017"><a xlink:title=" ">
<path fill="none" stroke="#63b8ff" d="M110.88,-177.18C118.7,-175.88 126.82,-174.53 134.83,-173.2"/>
<polygon fill="#63b8ff" stroke="#63b8ff" points="135.26,-176.68 144.55,-171.58 134.11,-169.77 135.26,-176.68"/>
</a>
</g>
</g>
<!-- Node4 -->
<g id="Node000004" class="node">
<title>Node4</title>
<g id="a_Node000004"><a xlink:href="group__gfdlmp_ga0c6e8d13d0224e3b40bcbabdbab7f0ba.html#ga0c6e8d13d0224e3b40bcbabdbab7f0ba" target="_top" xlink:title="The function is an accretion function (Lin et al.(1983) lin_et_al_1983 ).">
<polygon fill="white" stroke="#666666" points="414.38,-440.5 303.88,-440.5 303.88,-410 414.38,-410 414.38,-440.5"/>
<text xml:space="preserve" text-anchor="start" x="311.88" y="-427" font-family="Source Sans Pro" font-size="10.00">gfdl_cloud_microphys</text>
<text xml:space="preserve" text-anchor="middle" x="359.12" y="-415.75" font-family="Source Sans Pro" font-size="10.00">_mod::acr3d</text>
</a>
</g>
</g>
<!-- Node3&#45;&gt;Node4 -->
<g id="edge3_Node000003_Node000004" class="edge">
<title>Node3&#45;&gt;Node4</title>
<g id="a_edge3_Node000003_Node000004"><a xlink:title=" ">
<path fill="none" stroke="#63b8ff" d="M245.49,-299.95C249.7,-302.63 253.65,-305.71 257,-309.25 286.9,-340.84 262.09,-369.65 293,-400.25 294.02,-401.26 295.08,-402.22 296.18,-403.15"/>
<polygon fill="#63b8ff" stroke="#63b8ff" points="293.83,-405.78 304.02,-408.68 297.86,-400.06 293.83,-405.78"/>
</a>
</g>
</g>
<!-- Node5 -->
<g id="Node000005" class="node">
<title>Node5</title>
<g id="a_Node000005"><a xlink:href="group__mod__gfdl__cloud__mp_ga60295ecd2dc7ed890e0c643d562862b6.html#ga60295ecd2dc7ed890e0c643d562862b6" target="_top" xlink:title="Definition of vertical subgrid variability used for cloud ice and cloud water autoconversion.">
<polygon fill="white" stroke="#666666" points="414.38,-275.5 303.88,-275.5 303.88,-245 414.38,-245 414.38,-275.5"/>
<text xml:space="preserve" text-anchor="start" x="311.88" y="-262" font-family="Source Sans Pro" font-size="10.00">gfdl_cloud_microphys</text>
<text xml:space="preserve" text-anchor="middle" x="359.12" y="-250.75" font-family="Source Sans Pro" font-size="10.00">_mod::linear_prof</text>
</a>
</g>
</g>
<!-- Node3&#45;&gt;Node5 -->
<g id="edge5_Node000003_Node000005" class="edge">
<title>Node3&#45;&gt;Node5</title>
<g id="a_edge5_Node000003_Node000005"><a xlink:title=" ">
<path fill="none" stroke="#63b8ff" d="M257.09,-275.86C268.5,-274.09 280.65,-272.22 292.42,-270.4"/>
<polygon fill="#63b8ff" stroke="#63b8ff" points="292.71,-273.9 302.05,-268.91 291.64,-266.98 292.71,-273.9"/>
</a>
</g>
</g>
<!-- Node6 -->
<g id="Node000006" class="node">
<title>Node6</title>
<g id="a_Node000006"><a xlink:href="group__gfdlmp_gad0c3fa84c0f00f8d0106a40b45d84925.html#gad0c3fa84c0f00f8d0106a40b45d84925" target="_top" xlink:title="Melting of snow function (Lin et al.(1983) lin_et_al_1983) note: psacw and psacr must be calc before ...">
<polygon fill="white" stroke="#666666" points="414.38,-373.5 303.88,-373.5 303.88,-343 414.38,-343 414.38,-373.5"/>
<text xml:space="preserve" text-anchor="start" x="311.88" y="-360" font-family="Source Sans Pro" font-size="10.00">gfdl_cloud_microphys</text>
<text xml:space="preserve" text-anchor="middle" x="359.12" y="-348.75" font-family="Source Sans Pro" font-size="10.00">_mod::smlt</text>
</a>
</g>
</g>
<!-- Node3&#45;&gt;Node6 -->
<g id="edge6_Node000003_Node000006" class="edge">
<title>Node3&#45;&gt;Node6</title>
<g id="a_edge6_Node000003_Node000006"><a xlink:title=" ">
<path fill="none" stroke="#63b8ff" d="M238.75,-299.88C244.92,-302.83 251.21,-306.01 257,-309.25 273.78,-318.64 275.92,-324.42 293,-333.25 296.23,-334.92 299.59,-336.54 303.02,-338.1"/>
<polygon fill="#63b8ff" stroke="#63b8ff" points="301.45,-341.24 312.02,-341.99 304.23,-334.81 301.45,-341.24"/>
</a>
</g>
</g>
<!-- Node7 -->
<g id="Node000007" class="node">
<title>Node7</title>
<g id="a_Node000007"><a xlink:href="group__mod__gfdl__cloud__mp_gaec9761c5fe1374e1d8f8f18dec3b879c.html#gaec9761c5fe1374e1d8f8f18dec3b879c" target="_top" xlink:title="This subroutine calculates temperature sentive high vertical resolution processes.">
<polygon fill="white" stroke="#666666" points="415.12,-324.5 303.12,-324.5 303.12,-294 415.12,-294 415.12,-324.5"/>
<text xml:space="preserve" text-anchor="start" x="311.12" y="-311" font-family="Source Sans Pro" font-size="10.00">gfdl_cloud_microphys</text>
<text xml:space="preserve" text-anchor="middle" x="359.12" y="-299.75" font-family="Source Sans Pro" font-size="10.00">_mod::subgrid_z_proc</text>
</a>
</g>
</g>
<!-- Node3&#45;&gt;Node7 -->
<g id="edge8_Node000003_Node000007" class="edge">
<title>Node3&#45;&gt;Node7</title>
<g id="a_edge8_Node000003_Node000007"><a xlink:title=" ">
<path fill="none" stroke="#63b8ff" d="M257.09,-292.99C268.18,-294.78 279.98,-296.68 291.44,-298.52"/>
<polygon fill="#63b8ff" stroke="#63b8ff" points="290.84,-301.97 301.27,-300.1 291.95,-295.06 290.84,-301.97"/>
</a>
</g>
</g>
<!-- Node4&#45;&gt;Node4 -->
<g id="edge4_Node000004_Node000004" class="edge">
<title>Node4&#45;&gt;Node4</title>
<g id="a_edge4_Node000004_Node000004"><a xlink:title=" ">
<path fill="none" stroke="#63b8ff" d="M331.24,-440.99C325.55,-450.06 334.84,-458.5 359.12,-458.5 372.4,-458.5 381.2,-455.97 385.52,-452.2"/>
<polygon fill="#63b8ff" stroke="#63b8ff" points="388.96,-452.86 386.81,-442.49 382.02,-451.94 388.96,-452.86"/>
</a>
</g>
</g>
<!-- Node6&#45;&gt;Node6 -->
<g id="edge7_Node000006_Node000006" class="edge">
<title>Node6&#45;&gt;Node6</title>
<g id="a_edge7_Node000006_Node000006"><a xlink:title=" ">
<path fill="none" stroke="#63b8ff" d="M331.24,-373.99C325.55,-383.06 334.84,-391.5 359.12,-391.5 372.4,-391.5 381.2,-388.97 385.52,-385.2"/>
<polygon fill="#63b8ff" stroke="#63b8ff" points="388.96,-385.86 386.81,-375.49 382.02,-384.94 388.96,-385.86"/>
</a>
</g>
</g>
<!-- Node8 -->
<g id="Node000008" class="node">
<title>Node8</title>
<g id="a_Node000008"><a xlink:href="group__mod__gfdl__cloud__mp_ga6dce09bb764ce09d571eb55783abcf48.html#ga6dce09bb764ce09d571eb55783abcf48" target="_top" xlink:title="The function &#39;wqs1&#39; returns the saturation vapor pressure over pure liquid water for a given temperat...">
<polygon fill="white" stroke="#666666" points="571.75,-324.5 461.25,-324.5 461.25,-294 571.75,-294 571.75,-324.5"/>
<text xml:space="preserve" text-anchor="start" x="469.25" y="-311" font-family="Source Sans Pro" font-size="10.00">gfdl_cloud_microphys</text>
<text xml:space="preserve" text-anchor="middle" x="516.5" y="-299.75" font-family="Source Sans Pro" font-size="10.00">_mod::wqs1</text>
</a>
</g>
</g>
<!-- Node7&#45;&gt;Node8 -->
<g id="edge9_Node000007_Node000008" class="edge">
<title>Node7&#45;&gt;Node8</title>
<g id="a_edge9_Node000007_Node000008"><a xlink:title=" ">
<path fill="none" stroke="#63b8ff" d="M415.34,-309.25C426.46,-309.25 438.26,-309.25 449.7,-309.25"/>
<polygon fill="#63b8ff" stroke="#63b8ff" points="449.47,-312.75 459.47,-309.25 449.47,-305.75 449.47,-312.75"/>
</a>
</g>
</g>
<!-- Node8&#45;&gt;Node8 -->
<g id="edge10_Node000008_Node000008" class="edge">
<title>Node8&#45;&gt;Node8</title>
<g id="a_edge10_Node000008_Node000008"><a xlink:title=" ">
<path fill="none" stroke="#63b8ff" d="M490.54,-324.99C485.24,-334.06 493.9,-342.5 516.5,-342.5 528.86,-342.5 537.05,-339.97 541.07,-336.2"/>
<polygon fill="#63b8ff" stroke="#63b8ff" points="544.52,-336.84 542.27,-326.49 537.57,-335.98 544.52,-336.84"/>
</a>
</g>
</g>
<!-- Node12 -->
<g id="Node000012" class="node">
<title>Node12</title>
<g id="a_Node000012"><a xlink:href="group__mod__gfdl__cloud__mp_ga6888d7e95c34f76ecd432293eea9723f.html#ga6888d7e95c34f76ecd432293eea9723f" target="_top" xlink:title="The subroutine &#39;check_column&#39; checks if the water species is large enough to fall.">
<polygon fill="white" stroke="#666666" points="414.38,-128.5 303.88,-128.5 303.88,-98 414.38,-98 414.38,-128.5"/>
<text xml:space="preserve" text-anchor="start" x="311.88" y="-115" font-family="Source Sans Pro" font-size="10.00">gfdl_cloud_microphys</text>
<text xml:space="preserve" text-anchor="middle" x="359.12" y="-103.75" font-family="Source Sans Pro" font-size="10.00">_mod::check_column</text>
</a>
</g>
</g>
<!-- Node11&#45;&gt;Node12 -->
<g id="edge14_Node000011_Node000012" class="edge">
<title>Node11&#45;&gt;Node12</title>
<g id="a_edge14_Node000011_Node000012"><a xlink:title=" ">
<path fill="none" stroke="#63b8ff" d="M257.09,-113.25C268.38,-113.25 280.4,-113.25 292.05,-113.25"/>
<polygon fill="#63b8ff" stroke="#63b8ff" points="292.04,-116.75 302.04,-113.25 292.04,-109.75 292.04,-116.75"/>
</a>
</g>
</g>
<!-- Node13 -->
<g id="Node000013" class="node">
<title>Node13</title>
<g id="a_Node000013"><a xlink:href="group__mod__gfdl__cloud__mp_ga2f6f4139188eb18db6c84ac21f19f07b.html#ga2f6f4139188eb18db6c84ac21f19f07b" target="_top" xlink:title="The subroutine computes the time&#45;implicit monotonic fall scheme.">
<polygon fill="white" stroke="#666666" points="414.38,-79.5 303.88,-79.5 303.88,-49 414.38,-49 414.38,-79.5"/>
<text xml:space="preserve" text-anchor="start" x="311.88" y="-66" font-family="Source Sans Pro" font-size="10.00">gfdl_cloud_microphys</text>
<text xml:space="preserve" text-anchor="middle" x="359.12" y="-54.75" font-family="Source Sans Pro" font-size="10.00">_mod::implicit_fall</text>
</a>
</g>
</g>
<!-- Node11&#45;&gt;Node13 -->
<g id="edge15_Node000011_Node000013" class="edge">
<title>Node11&#45;&gt;Node13</title>
<g id="a_edge15_Node000011_Node000013"><a xlink:title=" ">
<path fill="none" stroke="#63b8ff" d="M252.34,-97.61C266.7,-93.08 282.55,-88.08 297.51,-83.37"/>
<polygon fill="#63b8ff" stroke="#63b8ff" points="298.28,-86.79 306.76,-80.45 296.17,-80.12 298.28,-86.79"/>
</a>
</g>
</g>
<!-- Node14 -->
<g id="Node000014" class="node">
<title>Node14</title>
<g id="a_Node000014"><a xlink:href="group__mod__gfdl__cloud__mp_gabfcb03d4ab831c5f0a879b75b2cf4e01.html#gabfcb03d4ab831c5f0a879b75b2cf4e01" target="_top" xlink:title="Lagrangian scheme.">
<polygon fill="white" stroke="#666666" points="425.25,-30.5 293,-30.5 293,0 425.25,0 425.25,-30.5"/>
<text xml:space="preserve" text-anchor="start" x="301" y="-17" font-family="Source Sans Pro" font-size="10.00">gfdl_cloud_microphys</text>
<text xml:space="preserve" text-anchor="middle" x="359.12" y="-5.75" font-family="Source Sans Pro" font-size="10.00">_mod::lagrangian_fall_ppm</text>
</a>
</g>
</g>
<!-- Node11&#45;&gt;Node14 -->
<g id="edge16_Node000011_Node000014" class="edge">
<title>Node11&#45;&gt;Node14</title>
<g id="a_edge16_Node000011_Node000014"><a xlink:title=" ">
<path fill="none" stroke="#63b8ff" d="M242.92,-97.54C247.89,-94.8 252.72,-91.7 257,-88.25 277.74,-71.49 271.72,-56.32 293,-40.25 294.78,-38.91 296.63,-37.63 298.55,-36.42"/>
<polygon fill="#63b8ff" stroke="#63b8ff" points="300.19,-39.51 307.21,-31.58 296.77,-33.4 300.19,-39.51"/>
</a>
</g>
</g>
<!-- Node15 -->
<g id="Node000015" class="node">
<title>Node15</title>
<g id="a_Node000015"><a xlink:href="group__mod__gfdl__cloud__mp_gaeaa05a4c1310e5a546cadd40f1c66c42.html#gaeaa05a4c1310e5a546cadd40f1c66c42" target="_top" xlink:title=" ">
<polygon fill="white" stroke="#666666" points="571.75,-30.5 461.25,-30.5 461.25,0 571.75,0 571.75,-30.5"/>
<text xml:space="preserve" text-anchor="start" x="469.25" y="-17" font-family="Source Sans Pro" font-size="10.00">gfdl_cloud_microphys</text>
<text xml:space="preserve" text-anchor="middle" x="516.5" y="-5.75" font-family="Source Sans Pro" font-size="10.00">_mod::cs_profile</text>
</a>
</g>
</g>
<!-- Node14&#45;&gt;Node15 -->
<g id="edge17_Node000014_Node000015" class="edge">
<title>Node14&#45;&gt;Node15</title>
<g id="a_edge17_Node000014_Node000015"><a xlink:title=" ">
<path fill="none" stroke="#63b8ff" d="M425.57,-15.25C433.48,-15.25 441.57,-15.25 449.49,-15.25"/>
<polygon fill="#63b8ff" stroke="#63b8ff" points="449.42,-18.75 459.42,-15.25 449.42,-11.75 449.42,-18.75"/>
</a>
</g>
</g>
<!-- Node16 -->
<g id="Node000016" class="node">
<title>Node16</title>
<g id="a_Node000016"><a xlink:href="group__mod__gfdl__cloud__mp_ga4551eade22b554cea965dc3efbe63ce4.html#ga4551eade22b554cea965dc3efbe63ce4" target="_top" xlink:title="This subroutine perform positive definite constraint.">
<polygon fill="white" stroke="#666666" points="718.25,-30.5 607.75,-30.5 607.75,0 718.25,0 718.25,-30.5"/>
<text xml:space="preserve" text-anchor="start" x="615.75" y="-17" font-family="Source Sans Pro" font-size="10.00">gfdl_cloud_microphys</text>
<text xml:space="preserve" text-anchor="middle" x="663" y="-5.75" font-family="Source Sans Pro" font-size="10.00">_mod::cs_limiters</text>
</a>
</g>
</g>
<!-- Node15&#45;&gt;Node16 -->
<g id="edge18_Node000015_Node000016" class="edge">
<title>Node15&#45;&gt;Node16</title>
<g id="a_edge18_Node000015_Node000016"><a xlink:title=" ">
<path fill="none" stroke="#63b8ff" d="M572.13,-15.25C579.86,-15.25 587.88,-15.25 595.8,-15.25"/>
<polygon fill="#63b8ff" stroke="#63b8ff" points="595.78,-18.75 605.78,-15.25 595.78,-11.75 595.78,-18.75"/>
</a>
</g>
</g>
<!-- Node17&#45;&gt;Node5 -->
<g id="edge23_Node000017_Node000005" class="edge">
<title>Node17&#45;&gt;Node5</title>
<g id="a_edge23_Node000017_Node000005"><a xlink:title=" ">
<path fill="none" stroke="#63b8ff" d="M218.88,-177.95C236.09,-194.04 264.72,-218.93 293,-235.25 295.75,-236.84 298.63,-238.36 301.57,-239.82"/>
<polygon fill="#63b8ff" stroke="#63b8ff" points="299.82,-242.87 310.37,-243.89 302.76,-236.52 299.82,-242.87"/>
</a>
</g>
</g>
<!-- Node17&#45;&gt;Node10 -->
<g id="edge25_Node000017_Node000010" class="edge">
<title>Node17&#45;&gt;Node10</title>
<g id="a_edge25_Node000017_Node000010"><a xlink:title=" ">
<path fill="none" stroke="#63b8ff" d="M252.34,-177.89C266.7,-182.42 282.55,-187.42 297.51,-192.13"/>
<polygon fill="#63b8ff" stroke="#63b8ff" points="296.17,-195.38 306.76,-195.05 298.28,-188.71 296.17,-195.38"/>
</a>
</g>
</g>
<!-- Node17&#45;&gt;Node12 -->
<g id="edge20_Node000017_Node000012" class="edge">
<title>Node17&#45;&gt;Node12</title>
<g id="a_edge20_Node000017_Node000012"><a xlink:title=" ">
<path fill="none" stroke="#63b8ff" d="M252.34,-146.61C266.7,-142.08 282.55,-137.08 297.51,-132.37"/>
<polygon fill="#63b8ff" stroke="#63b8ff" points="298.28,-135.79 306.76,-129.45 296.17,-129.12 298.28,-135.79"/>
</a>
</g>
</g>
<!-- Node17&#45;&gt;Node13 -->
<g id="edge21_Node000017_Node000013" class="edge">
<title>Node17&#45;&gt;Node13</title>
<g id="a_edge21_Node000017_Node000013"><a xlink:title=" ">
<path fill="none" stroke="#63b8ff" d="M242.92,-146.54C247.89,-143.8 252.72,-140.7 257,-137.25 277.74,-120.49 271.72,-105.32 293,-89.25 294.78,-87.91 296.63,-86.63 298.55,-85.42"/>
<polygon fill="#63b8ff" stroke="#63b8ff" points="300.19,-88.51 307.21,-80.58 296.77,-82.4 300.19,-88.51"/>
</a>
</g>
</g>
<!-- Node17&#45;&gt;Node14 -->
<g id="edge22_Node000017_Node000014" class="edge">
<title>Node17&#45;&gt;Node14</title>
<g id="a_edge22_Node000017_Node000014"><a xlink:title=" ">
<path fill="none" stroke="#63b8ff" d="M245.56,-146.62C249.76,-143.93 253.69,-140.83 257,-137.25 288.25,-103.52 260.67,-72.95 293,-40.25 294.01,-39.23 295.06,-38.26 296.15,-37.32"/>
<polygon fill="#63b8ff" stroke="#63b8ff" points="297.84,-40.41 303.95,-31.75 293.78,-34.71 297.84,-40.41"/>
</a>
</g>
</g>
<!-- Node18 -->
<g id="Node000018" class="node">
<title>Node18</title>
<g id="a_Node000018"><a xlink:href="group__mod__gfdl__cloud__mp_ga6c69bf161f1301a1733d4cf1665d5b59.html#ga6c69bf161f1301a1733d4cf1665d5b59" target="_top" xlink:title="This subroutine calculates evaporation of rain and accretion of rain.">
<polygon fill="white" stroke="#666666" points="414.38,-177.5 303.88,-177.5 303.88,-147 414.38,-147 414.38,-177.5"/>
<text xml:space="preserve" text-anchor="start" x="311.88" y="-164" font-family="Source Sans Pro" font-size="10.00">gfdl_cloud_microphys</text>
<text xml:space="preserve" text-anchor="middle" x="359.12" y="-152.75" font-family="Source Sans Pro" font-size="10.00">_mod::revap_racc</text>
</a>
</g>
</g>
<!-- Node17&#45;&gt;Node18 -->
<g id="edge24_Node000017_Node000018" class="edge">
<title>Node17&#45;&gt;Node18</title>
<g id="a_edge24_Node000017_Node000018"><a xlink:title=" ">
<path fill="none" stroke="#63b8ff" d="M257.09,-162.25C268.38,-162.25 280.4,-162.25 292.05,-162.25"/>
<polygon fill="#63b8ff" stroke="#63b8ff" points="292.04,-165.75 302.04,-162.25 292.04,-158.75 292.04,-165.75"/>
</a>
</g>
</g>
</g>
</svg>

<g id="navigator" transform="translate(0 0)" fill="#404254">
  <rect fill="#f2f5e9" fill-opacity="0.5" stroke="#606060" stroke-width=".5" x="0" y="0" width="60" height="60"/>
  <use id="zoomplus" xlink:href="#zoomPlus" x="17" y="9" onmousedown="handleZoom(evt,'in')"/>
  <use id="zoomminus" xlink:href="#zoomMin" x="42" y="9" onmousedown="handleZoom(evt,'out')"/>
  <use id="reset" xlink:href="#resetDef" x="30" y="36" onmousedown="handleReset()"/>
   <use id="arrowup" xlink:href="#arrowUp" x="0" y="0" onmousedown="handlePan(0,-1)"/>
  <use id="arrowright" xlink:href="#arrowRight" x="0" y="0" onmousedown="handlePan(1,0)"/>
  <use id="arrowdown" xlink:href="#arrowDown" x="0" y="0" onmousedown="handlePan(0,1)"/>
  <use id="arrowleft" xlink:href="#arrowLeft" x="0" y="0" onmousedown="handlePan(-1,0)"/>
</g>
<svg viewBox="0 0 15 15" width="100%" height="30px" preserveAspectRatio="xMaxYMin meet">
 <g id="arrow_out" transform="scale(0.3 0.3)">
  <a xlink:href="group__mod__gfdl__cloud__mp_ga9a157f35f4472577a555978027d97c65_ga9a157f35f4472577a555978027d97c65_cgraph_org.svg" target="_base">
   <rect id="button" ry="5" rx="5" y="6" x="6" height="38" width="38"
        fill="#f2f5e9" fill-opacity="0.5" stroke="#606060" stroke-width="1.0"/>
   <path id="arrow"
     d="M 11.500037,31.436501 C 11.940474,20.09759 22.043105,11.32322 32.158766,21.979434 L 37.068811,17.246167 C 37.068811,17.246167 37.088388,32 37.088388,32 L 22.160133,31.978069 C 22.160133,31.978069 26.997745,27.140456 26.997745,27.140456 C 18.528582,18.264221 13.291696,25.230495 11.500037,31.436501 z"
     style="fill:#404040;"/>
  </a>
 </g>
</svg>

<style type='text/css'>
<![CDATA[
[data-mouse-over-selected='false'] { opacity: 0.7; }
[data-mouse-over-selected='true']  { opacity: 1.0; }
]]>
</style>
<script type="application/ecmascript"><![CDATA[
document.addEventListener('DOMContentLoaded', (event) => {
  highlightEdges();
  highlightAdjacentNodes();
});
]]></script>
</svg>
