<?xml version="1.0" encoding="UTF-8" standalone="no"?>
<!DOCTYPE svg PUBLIC "-//W3C//DTD SVG 1.1//EN"
 "http://www.w3.org/Graphics/SVG/1.1/DTD/svg11.dtd">
<!-- Generated by graphviz version 14.1.2 (20260124.0452)
 -->
<!-- Title: module_sf_mynn::psih_stable Pages: 1 -->
<svg width="273pt" height="124pt"
 viewBox="0.00 0.00 273.00 124.00" xmlns="http://www.w3.org/2000/svg" xmlns:xlink="http://www.w3.org/1999/xlink">

<svg id="main" version="1.1" xmlns="http://www.w3.org/2000/svg" xmlns:xlink="http://www.w3.org/1999/xlink" xml:space="preserve">

<style type="text/css"><![CDATA[
.node, .edge {opacity: 0.7;}
.node.selected, .edge.selected {opacity: 1;}
.edge:hover path { stroke: red; }
.edge:hover polygon { stroke: red; fill: red; }
]]></style>
<script type="application/ecmascript" xlink:href="svg.min.js"/>
<svg id="graph" class="graph">
<g id="graph0" class="graph" transform="scale(1 1) rotate(0) translate(4 119.5)">
<title>module_sf_mynn::psih_stable</title>
<!-- Node1 -->
<g id="Node000001" class="node">
<title>Node1</title>
<g id="a_Node000001"><a xlink:title=" ">
<polygon fill="#999999" stroke="#666666" points="114.25,-63.5 0,-63.5 0,-33 114.25,-33 114.25,-63.5"/>
<text xml:space="preserve" text-anchor="start" x="8" y="-50" font-family="Source Sans Pro" font-size="10.00">module_sf_mynn::psih</text>
<text xml:space="preserve" text-anchor="middle" x="57.12" y="-38.75" font-family="Source Sans Pro" font-size="10.00">_stable</text>
</a>
</g>
</g>
<!-- Node1&#45;&gt;Node1 -->
<g id="edge1_Node000001_Node000001" class="edge">
<title>Node1&#45;&gt;Node1</title>
<g id="a_edge1_Node000001_Node000001"><a xlink:title=" ">
<path fill="none" stroke="#63b8ff" d="M30.5,-63.99C25.07,-73.06 33.94,-81.5 57.12,-81.5 69.8,-81.5 78.2,-78.97 82.32,-75.2"/>
<polygon fill="#63b8ff" stroke="#63b8ff" points="85.77,-75.85 83.56,-65.49 78.82,-74.97 85.77,-75.85"/>
</a>
</g>
</g>
<!-- Node2 -->
<g id="Node000002" class="node">
<title>Node2</title>
<g id="a_Node000002"><a xlink:href="group__mynn__sfc_ga214373cdd64d666866d4c818b57a47ec.html#ga214373cdd64d666866d4c818b57a47ec" target="_top" xlink:title=" ">
<polygon fill="white" stroke="#666666" points="264.5,-97.5 150.25,-97.5 150.25,-67 264.5,-67 264.5,-97.5"/>
<text xml:space="preserve" text-anchor="start" x="158.25" y="-84" font-family="Source Sans Pro" font-size="10.00">module_sf_mynn::psih</text>
<text xml:space="preserve" text-anchor="middle" x="207.38" y="-72.75" font-family="Source Sans Pro" font-size="10.00">_stable_full</text>
</a>
</g>
</g>
<!-- Node1&#45;&gt;Node2 -->
<g id="edge2_Node000001_Node000002" class="edge">
<title>Node1&#45;&gt;Node2</title>
<g id="a_edge2_Node000001_Node000002"><a xlink:title=" ">
<path fill="none" stroke="#63b8ff" d="M114.59,-61.2C122.58,-63.03 130.86,-64.93 139.03,-66.8"/>
<polygon fill="#63b8ff" stroke="#63b8ff" points="138.06,-70.17 148.59,-69 139.62,-63.35 138.06,-70.17"/>
</a>
</g>
</g>
<!-- Node3 -->
<g id="Node000003" class="node">
<title>Node3</title>
<g id="a_Node000003"><a xlink:href="group__mynn__sfc_ga2186e04d782df51218fbd03d31517fc8.html#ga2186e04d782df51218fbd03d31517fc8" target="_top" xlink:title=" ">
<polygon fill="white" stroke="#666666" points="264.5,-30.5 150.25,-30.5 150.25,0 264.5,0 264.5,-30.5"/>
<text xml:space="preserve" text-anchor="start" x="158.25" y="-17" font-family="Source Sans Pro" font-size="10.00">module_sf_mynn::psih</text>
<text xml:space="preserve" text-anchor="middle" x="207.38" y="-5.75" font-family="Source Sans Pro" font-size="10.00">_stable_full_gfs</text>
</a>
</g>
</g>
<!-- Node1&#45;&gt;Node3 -->
<g id="edge4_Node000001_Node000003" class="edge">
<title>Node1&#45;&gt;Node3</title>
<g id="a_edge4_Node000001_Node000003"><a xlink:title=" ">
<path fill="none" stroke="#63b8ff" d="M114.59,-35.68C122.58,-33.9 130.86,-32.06 139.03,-30.24"/>
<polygon fill="#63b8ff" stroke="#63b8ff" points="139.58,-33.7 148.58,-28.11 138.06,-26.87 139.58,-33.7"/>
</a>
</g>
</g>
<!-- Node2&#45;&gt;Node2 -->
<g id="edge3_Node000002_Node000002" class="edge">
<title>Node2&#45;&gt;Node2</title>
<g id="a_edge3_Node000002_Node000002"><a xlink:title=" ">
<path fill="none" stroke="#63b8ff" d="M180.75,-97.99C175.32,-107.06 184.19,-115.5 207.38,-115.5 220.05,-115.5 228.45,-112.97 232.57,-109.2"/>
<polygon fill="#63b8ff" stroke="#63b8ff" points="236.02,-109.85 233.81,-99.49 229.07,-108.97 236.02,-109.85"/>
</a>
</g>
</g>
<!-- Node3&#45;&gt;Node3 -->
<g id="edge5_Node000003_Node000003" class="edge">
<title>Node3&#45;&gt;Node3</title>
<g id="a_edge5_Node000003_Node000003"><a xlink:title=" ">
<path fill="none" stroke="#63b8ff" d="M180.75,-30.99C175.32,-40.06 184.19,-48.5 207.38,-48.5 220.05,-48.5 228.45,-45.97 232.57,-42.2"/>
<polygon fill="#63b8ff" stroke="#63b8ff" points="236.02,-42.85 233.81,-32.49 229.07,-41.97 236.02,-42.85"/>
</a>
</g>
</g>
</g>
</svg>
</svg>

<style type='text/css'>
<![CDATA[
[data-mouse-over-selected='false'] { opacity: 0.7; }
[data-mouse-over-selected='true']  { opacity: 1.0; }
]]>
</style>
<script type="application/ecmascript"><![CDATA[
document.addEventListener('DOMContentLoaded', (event) => {
  highlightEdges();
  highlightAdjacentNodes();
});
]]></script>
</svg>
