<?xml version="1.0" encoding="UTF-8" standalone="no"?>
<!DOCTYPE svg PUBLIC "-//W3C//DTD SVG 1.1//EN"
 "http://www.w3.org/Graphics/SVG/1.1/DTD/svg11.dtd">
<!-- Generated by graphviz version 14.1.2 (20260124.0452)
 -->
<!-- Title: module_sf_ruclsm::snowtemp Pages: 1 -->
<!--zoomable 46 -->

<svg id="main" version="1.1" xmlns="http://www.w3.org/2000/svg" xmlns:xlink="http://www.w3.org/1999/xlink" xml:space="preserve" onload="init(evt)">

<style type="text/css"><![CDATA[
.node, .edge {opacity: 0.7;}
.node.selected, .edge.selected {opacity: 1;}
.edge:hover path { stroke: red; }
.edge:hover polygon { stroke: red; fill: red; }
]]></style>

<defs>
  <circle id="rim" cx="0" cy="0" r="7"/>
  <circle id="rim2" cx="0" cy="0" r="3.5"/>
  <g id="zoomPlus">
    <use xlink:href="#rim" fill="#404040"><set attributeName="fill" to="#808080" begin="zoomplus.mouseover" end="zoomplus.mouseout"/></use>
    <path d="M-4,0h8M0,-4v8" fill="none" stroke="white" stroke-width="1.5" pointer-events="none"/>
  </g>
  <g id="zoomMin">
    <use xlink:href="#rim" fill="#404040"><set attributeName="fill" to="#808080" begin="zoomminus.mouseover" end="zoomminus.mouseout"/></use>
    <path d="M-4,0h8" fill="none" stroke="white" stroke-width="1.5" pointer-events="none"/>
  </g>
  <g id="arrowUp" transform="translate(30 24)">
    <use xlink:href="#rim"/>
    <path pointer-events="none" fill="none" stroke="white" stroke-width="1.5" d="M0,-3.0v7 M-2.5,-0.5L0,-3.0L2.5,-0.5"/>
  </g>
  <g id="arrowRight" transform="rotate(90) translate(36 -43)">
    <use xlink:href="#rim"/>
    <path pointer-events="none" fill="none" stroke="white" stroke-width="1.5" d="M0,-3.0v7 M-2.5,-0.5L0,-3.0L2.5,-0.5"/>
  </g>
  <g id="arrowDown" transform="rotate(180) translate(-30 -48)">
    <use xlink:href="#rim"/>
    <path pointer-events="none" fill="none" stroke="white" stroke-width="1.5" d="M0,-3.0v7 M-2.5,-0.5L0,-3.0L2.5,-0.5"/>
  </g>
  <g id="arrowLeft" transform="rotate(270) translate(-36 17)">
    <use xlink:href="#rim"/>
    <path pointer-events="none" fill="none" stroke="white" stroke-width="1.5" d="M0,-3.0v7 M-2.5,-0.5L0,-3.0L2.5,-0.5"/>
  </g>
  <g id="resetDef">
    <use xlink:href="#rim2" fill="#404040"><set attributeName="fill" to="#808080" begin="reset.mouseover" end="reset.mouseout"/></use>
  </g>
</defs>
<script type="application/ecmascript">
var viewWidth = 810;
var viewHeight = 46;
var sectionId = 'dynsection-1';
</script>
<script type="application/ecmascript" xlink:href="svg.min.js"/>
<svg id="graph" class="graph">
<g id="viewport">
<title>module_sf_ruclsm::snowtemp</title>
<!-- Node1 -->
<g id="Node000001" class="node">
<title>Node1</title>
<g id="a_Node000001"><a xlink:title="This subroutine solves energy bugdget equation and heat diffusion equation to obtain snow and soil te...">
<polygon fill="#999999" stroke="#666666" points="802.25,-38.25 655.75,-38.25 655.75,-19 802.25,-19 802.25,-38.25"/>
<text xml:space="preserve" text-anchor="middle" x="729" y="-24.75" font-family="Source Sans Pro" font-size="10.00">module_sf_ruclsm::snowtemp</text>
</a>
</g>
</g>
<!-- Node2 -->
<g id="Node000002" class="node">
<title>Node2</title>
<g id="a_Node000002"><a xlink:href="group__lsm__ruc__group_gaecd085e0caf317dfb807e576fd426dec.html#gaecd085e0caf317dfb807e576fd426dec" target="_top" xlink:title="This subroutine is called for snow covered areas of land. It solves energy and moisture budgets on th...">
<polygon fill="white" stroke="#666666" points="619.75,-38.25 480,-38.25 480,-19 619.75,-19 619.75,-38.25"/>
<text xml:space="preserve" text-anchor="middle" x="549.88" y="-24.75" font-family="Source Sans Pro" font-size="10.00">module_sf_ruclsm::snowsoil</text>
</a>
</g>
</g>
<!-- Node1&#45;&gt;Node2 -->
<g id="edge1_Node000001_Node000002" class="edge">
<title>Node1&#45;&gt;Node2</title>
<g id="a_edge1_Node000001_Node000002"><a xlink:title=" ">
<path fill="none" stroke="#63b8ff" d="M644.16,-28.62C636.13,-28.62 628.04,-28.62 620.17,-28.62"/>
<polygon fill="#63b8ff" stroke="#63b8ff" points="643.93,-32.13 653.93,-28.63 643.93,-25.13 643.93,-32.13"/>
</a>
</g>
</g>
<!-- Node3 -->
<g id="Node000003" class="node">
<title>Node3</title>
<g id="a_Node000003"><a xlink:href="group__lsm__ruc__group_gad9dd50472f87539dfaccb42d5495f831.html#gad9dd50472f87539dfaccb42d5495f831" target="_top" xlink:title="This subroutine solves energy and moisture budgets.">
<polygon fill="white" stroke="#666666" points="444,-38.25 312.5,-38.25 312.5,-19 444,-19 444,-38.25"/>
<text xml:space="preserve" text-anchor="middle" x="378.25" y="-24.75" font-family="Source Sans Pro" font-size="10.00">module_sf_ruclsm::sfctmp</text>
</a>
</g>
</g>
<!-- Node2&#45;&gt;Node3 -->
<g id="edge2_Node000002_Node000003" class="edge">
<title>Node2&#45;&gt;Node3</title>
<g id="a_edge2_Node000002_Node000003"><a xlink:title=" ">
<path fill="none" stroke="#63b8ff" d="M468.5,-28.62C460.41,-28.62 452.25,-28.62 444.35,-28.62"/>
<polygon fill="#63b8ff" stroke="#63b8ff" points="468.37,-32.13 478.37,-28.63 468.37,-25.13 468.37,-32.13"/>
</a>
</g>
</g>
<!-- Node4 -->
<g id="Node000004" class="node">
<title>Node4</title>
<g id="a_Node000004"><a xlink:href="namespacelsm__ruc_affabfffd45a10349230af3cd4fc7cdeb.html#affabfffd45a10349230af3cd4fc7cdeb" target="_top" xlink:title=" ">
<polygon fill="white" stroke="#666666" points="109.75,-38.25 0,-38.25 0,-19 109.75,-19 109.75,-38.25"/>
<text xml:space="preserve" text-anchor="middle" x="54.88" y="-24.75" font-family="Source Sans Pro" font-size="10.00">lsm_ruc::lsm_ruc_run</text>
</a>
</g>
</g>
<!-- Node3&#45;&gt;Node4 -->
<g id="edge3_Node000003_Node000004" class="edge">
<title>Node3&#45;&gt;Node4</title>
<g id="a_edge3_Node000003_Node000004"><a xlink:title=" ">
<path fill="none" stroke="#63b8ff" d="M300.77,-28.62C242.05,-28.62 162.44,-28.62 110.14,-28.62"/>
<polygon fill="#63b8ff" stroke="#63b8ff" points="300.7,-32.13 310.7,-28.63 300.7,-25.13 300.7,-32.13"/>
</a>
</g>
</g>
<!-- Node5 -->
<g id="Node000005" class="node">
<title>Node5</title>
<g id="a_Node000005"><a xlink:href="group__lsm__ruc__group_ga919051c947b9bd7272399d4b681ba2a8.html#ga919051c947b9bd7272399d4b681ba2a8" target="_top" xlink:title="The RUN LSM model is described in Smirnova et al.(1997) smirnova_1997 and Smirnova et al....">
<polygon fill="white" stroke="#666666" points="276.5,-19.25 145.75,-19.25 145.75,0 276.5,0 276.5,-19.25"/>
<text xml:space="preserve" text-anchor="middle" x="211.12" y="-5.75" font-family="Source Sans Pro" font-size="10.00">module_sf_ruclsm::lsmruc</text>
</a>
</g>
</g>
<!-- Node3&#45;&gt;Node5 -->
<g id="edge4_Node000003_Node000005" class="edge">
<title>Node3&#45;&gt;Node5</title>
<g id="a_edge4_Node000003_Node000005"><a xlink:title=" ">
<path fill="none" stroke="#63b8ff" d="M301.14,-19.87C293.07,-18.94 284.92,-18 277,-17.09"/>
<polygon fill="#63b8ff" stroke="#63b8ff" points="300.62,-23.33 310.96,-21 301.42,-16.38 300.62,-23.33"/>
</a>
</g>
</g>
<!-- Node5&#45;&gt;Node4 -->
<g id="edge5_Node000005_Node000004" class="edge">
<title>Node5&#45;&gt;Node4</title>
<g id="a_edge5_Node000005_Node000004"><a xlink:title=" ">
<path fill="none" stroke="#63b8ff" d="M134.37,-18.96C126.1,-19.97 117.81,-21 109.88,-21.97"/>
<polygon fill="#63b8ff" stroke="#63b8ff" points="134.6,-22.45 144.1,-17.76 133.75,-15.51 134.6,-22.45"/>
</a>
</g>
</g>
</g>
</svg>

<g id="navigator" transform="translate(0 0)" fill="#404254">
  <rect fill="#f2f5e9" fill-opacity="0.5" stroke="#606060" stroke-width=".5" x="0" y="0" width="60" height="60"/>
  <use id="zoomplus" xlink:href="#zoomPlus" x="17" y="9" onmousedown="handleZoom(evt,'in')"/>
  <use id="zoomminus" xlink:href="#zoomMin" x="42" y="9" onmousedown="handleZoom(evt,'out')"/>
  <use id="reset" xlink:href="#resetDef" x="30" y="36" onmousedown="handleReset()"/>
   <use id="arrowup" xlink:href="#arrowUp" x="0" y="0" onmousedown="handlePan(0,-1)"/>
  <use id="arrowright" xlink:href="#arrowRight" x="0" y="0" onmousedown="handlePan(1,0)"/>
  <use id="arrowdown" xlink:href="#arrowDown" x="0" y="0" onmousedown="handlePan(0,1)"/>
  <use id="arrowleft" xlink:href="#arrowLeft" x="0" y="0" onmousedown="handlePan(-1,0)"/>
</g>
<svg viewBox="0 0 15 15" width="100%" height="30px" preserveAspectRatio="xMaxYMin meet">
 <g id="arrow_out" transform="scale(0.3 0.3)">
  <a xlink:href="group__lsm__ruc__group_ga204e4de9df89836cdda1dca1ee66d86c_ga204e4de9df89836cdda1dca1ee66d86c_icgraph_org.svg" target="_base">
   <rect id="button" ry="5" rx="5" y="6" x="6" height="38" width="38"
        fill="#f2f5e9" fill-opacity="0.5" stroke="#606060" stroke-width="1.0"/>
   <path id="arrow"
     d="M 11.500037,31.436501 C 11.940474,20.09759 22.043105,11.32322 32.158766,21.979434 L 37.068811,17.246167 C 37.068811,17.246167 37.088388,32 37.088388,32 L 22.160133,31.978069 C 22.160133,31.978069 26.997745,27.140456 26.997745,27.140456 C 18.528582,18.264221 13.291696,25.230495 11.500037,31.436501 z"
     style="fill:#404040;"/>
  </a>
 </g>
</svg>

<style type='text/css'>
<![CDATA[
[data-mouse-over-selected='false'] { opacity: 0.7; }
[data-mouse-over-selected='true']  { opacity: 1.0; }
]]>
</style>
<script type="application/ecmascript"><![CDATA[
document.addEventListener('DOMContentLoaded', (event) => {
  highlightEdges();
  highlightAdjacentNodes();
});
]]></script>
</svg>
