<?xml version="1.0" encoding="UTF-8" standalone="no"?>
<!DOCTYPE svg PUBLIC "-//W3C//DTD SVG 1.1//EN"
 "http://www.w3.org/Graphics/SVG/1.1/DTD/svg11.dtd">
<!-- Generated by graphviz version 14.1.2 (20260124.0452)
 -->
<!-- Title: shflx Pages: 1 -->
<svg width="351pt" height="175pt"
 viewBox="0.00 0.00 351.00 175.00" xmlns="http://www.w3.org/2000/svg" xmlns:xlink="http://www.w3.org/1999/xlink">
<g id="graph0" class="graph" transform="scale(1 1) rotate(0) translate(4 171.25)">
<title>shflx</title>
<!-- Node1 -->
<g id="Node000001" class="node">
<title>Node1</title>
<g id="a_Node000001"><a xlink:title="This subroutine updates the temperature state of the soil column based on the thermal diffusion equat...">
<polygon fill="#999999" stroke="#666666" points="37,-56.25 0,-56.25 0,-37 37,-37 37,-56.25"/>
<text xml:space="preserve" text-anchor="middle" x="18.5" y="-42.75" font-family="Source Sans Pro" font-size="10.00">shflx</text>
</a>
</g>
</g>
<!-- Node2 -->
<g id="Node000002" class="node">
<title>Node2</title>
<g id="a_Node000002"><a xlink:href="group___noah___l_s_m_gabb602c2b09396e2f94c9556259f5bae4.html#gabb602c2b09396e2f94c9556259f5bae4" target="_top" xlink:title="This subroutine calculates the right hand side of the time tendency term of the soil thermal diffusio...">
<polygon fill="white" stroke="#666666" points="107.4,-93.25 78.6,-93.25 78.6,-74 107.4,-74 107.4,-93.25"/>
<text xml:space="preserve" text-anchor="middle" x="93" y="-79.75" font-family="Source Sans Pro" font-size="10.00">hrt</text>
</a>
</g>
</g>
<!-- Node1&#45;&gt;Node2 -->
<g id="edge1_Node000001_Node000002" class="edge">
<title>Node1&#45;&gt;Node2</title>
<g id="a_edge1_Node000001_Node000002"><a xlink:title=" ">
<path fill="none" stroke="#63b8ff" d="M37.42,-55.77C46.66,-60.49 58.05,-66.3 68.04,-71.4"/>
<polygon fill="#63b8ff" stroke="#63b8ff" points="66.3,-74.44 76.8,-75.87 69.48,-68.2 66.3,-74.44"/>
</a>
</g>
</g>
<!-- Node9 -->
<g id="Node000009" class="node">
<title>Node9</title>
<g id="a_Node000009"><a xlink:href="group___noah___l_s_m_ga32e89df3740f968f500900125ae9633d.html#ga32e89df3740f968f500900125ae9633d" target="_top" xlink:title="This subroutine calculates the right hand side of the time tendency term of the soil thermal diffusio...">
<polygon fill="white" stroke="#666666" points="113,-56.25 73,-56.25 73,-37 113,-37 113,-56.25"/>
<text xml:space="preserve" text-anchor="middle" x="93" y="-42.75" font-family="Source Sans Pro" font-size="10.00">hrtice</text>
</a>
</g>
</g>
<!-- Node1&#45;&gt;Node9 -->
<g id="edge8_Node000001_Node000009" class="edge">
<title>Node1&#45;&gt;Node9</title>
<g id="a_edge8_Node000001_Node000009"><a xlink:title=" ">
<path fill="none" stroke="#63b8ff" d="M37.42,-46.62C44.58,-46.62 53.03,-46.62 61.11,-46.62"/>
<polygon fill="#63b8ff" stroke="#63b8ff" points="60.99,-50.13 70.99,-46.63 60.99,-43.13 60.99,-50.13"/>
</a>
</g>
</g>
<!-- Node10 -->
<g id="Node000010" class="node">
<title>Node10</title>
<g id="a_Node000010"><a xlink:href="group___noah___l_s_m_gacb79bab20ee25c57918575949c15de73.html#gacb79bab20ee25c57918575949c15de73" target="_top" xlink:title="This subroutine calculates/updates the soil temperature field.">
<polygon fill="white" stroke="#666666" points="113,-19.25 73,-19.25 73,0 113,0 113,-19.25"/>
<text xml:space="preserve" text-anchor="middle" x="93" y="-5.75" font-family="Source Sans Pro" font-size="10.00">hstep</text>
</a>
</g>
</g>
<!-- Node1&#45;&gt;Node10 -->
<g id="edge9_Node000001_Node000010" class="edge">
<title>Node1&#45;&gt;Node10</title>
<g id="a_edge9_Node000001_Node000010"><a xlink:title=" ">
<path fill="none" stroke="#63b8ff" d="M37.42,-37.48C44.99,-33.61 54.01,-29.01 62.52,-24.67"/>
<polygon fill="#63b8ff" stroke="#63b8ff" points="63.84,-27.93 71.16,-20.26 60.66,-21.69 63.84,-27.93"/>
</a>
</g>
</g>
<!-- Node3 -->
<g id="Node000003" class="node">
<title>Node3</title>
<g id="a_Node000003"><a xlink:href="group___noah___l_s_m_ga1b241897d00ec3d66eabe9e959d0ce04.html#ga1b241897d00ec3d66eabe9e959d0ce04" target="_top" xlink:title="This subroutine calculates sink/source term of the termal diffusion equation.">
<polygon fill="white" stroke="#666666" points="195.75,-167.25 150.5,-167.25 150.5,-148 195.75,-148 195.75,-167.25"/>
<text xml:space="preserve" text-anchor="middle" x="173.12" y="-153.75" font-family="Source Sans Pro" font-size="10.00">snksrc</text>
</a>
</g>
</g>
<!-- Node2&#45;&gt;Node3 -->
<g id="edge2_Node000002_Node000003" class="edge">
<title>Node2&#45;&gt;Node3</title>
<g id="a_edge2_Node000002_Node000003"><a xlink:title=" ">
<path fill="none" stroke="#63b8ff" d="M102.97,-93.53C113.56,-105.04 131.91,-124.39 149,-139.62 149.28,-139.88 149.57,-140.13 149.86,-140.39"/>
<polygon fill="#63b8ff" stroke="#63b8ff" points="147.56,-143.02 157.5,-146.68 152.01,-137.62 147.56,-143.02"/>
</a>
</g>
</g>
<!-- Node6 -->
<g id="Node000006" class="node">
<title>Node6</title>
<g id="a_Node000006"><a xlink:href="group___noah___l_s_m_ga8e248a6da8d1fd3c2e64b76f3bfbea50.html#ga8e248a6da8d1fd3c2e64b76f3bfbea50" target="_top" xlink:title="This subroutine calculates temperature on the boundary of the layer by interpolation of the middle la...">
<polygon fill="white" stroke="#666666" points="190.5,-130.25 155.75,-130.25 155.75,-111 190.5,-111 190.5,-130.25"/>
<text xml:space="preserve" text-anchor="middle" x="173.12" y="-116.75" font-family="Source Sans Pro" font-size="10.00">tbnd</text>
</a>
</g>
</g>
<!-- Node2&#45;&gt;Node6 -->
<g id="edge5_Node000002_Node000006" class="edge">
<title>Node2&#45;&gt;Node6</title>
<g id="a_edge5_Node000002_Node000006"><a xlink:title=" ">
<path fill="none" stroke="#63b8ff" d="M107.61,-90.07C117.99,-94.99 132.62,-101.92 145.33,-107.93"/>
<polygon fill="#63b8ff" stroke="#63b8ff" points="143.51,-110.95 154.05,-112.06 146.51,-104.62 143.51,-110.95"/>
</a>
</g>
</g>
<!-- Node7 -->
<g id="Node000007" class="node">
<title>Node7</title>
<g id="a_Node000007"><a xlink:href="group___noah___l_s_m_ga8bc3154096e6364c5fcddf884c003bef.html#ga8bc3154096e6364c5fcddf884c003bef" target="_top" xlink:title="This subroutine calculates thermal diffusivity and conductivity of the soil for a given point and tim...">
<polygon fill="white" stroke="#666666" points="194.62,-93.25 151.62,-93.25 151.62,-74 194.62,-74 194.62,-93.25"/>
<text xml:space="preserve" text-anchor="middle" x="173.12" y="-79.75" font-family="Source Sans Pro" font-size="10.00">tdfcnd</text>
</a>
</g>
</g>
<!-- Node2&#45;&gt;Node7 -->
<g id="edge6_Node000002_Node000007" class="edge">
<title>Node2&#45;&gt;Node7</title>
<g id="a_edge6_Node000002_Node000007"><a xlink:title=" ">
<path fill="none" stroke="#63b8ff" d="M107.61,-83.62C116.56,-83.62 128.68,-83.62 140,-83.62"/>
<polygon fill="#63b8ff" stroke="#63b8ff" points="139.82,-87.13 149.82,-83.63 139.82,-80.13 139.82,-87.13"/>
</a>
</g>
</g>
<!-- Node8 -->
<g id="Node000008" class="node">
<title>Node8</title>
<g id="a_Node000008"><a xlink:href="group___noah___l_s_m_gae50411efeb11ddeb8a0c53010745a95c.html#gae50411efeb11ddeb8a0c53010745a95c" target="_top" xlink:title="This subroutine calculates soil layer average temperature (tavg) in freezing/thawing layer using up,...">
<polygon fill="white" stroke="#666666" points="197.25,-56.25 149,-56.25 149,-37 197.25,-37 197.25,-56.25"/>
<text xml:space="preserve" text-anchor="middle" x="173.12" y="-42.75" font-family="Source Sans Pro" font-size="10.00">tmpavg</text>
</a>
</g>
</g>
<!-- Node2&#45;&gt;Node8 -->
<g id="edge7_Node000002_Node000008" class="edge">
<title>Node2&#45;&gt;Node8</title>
<g id="a_edge7_Node000002_Node000008"><a xlink:title=" ">
<path fill="none" stroke="#63b8ff" d="M107.61,-77.18C116.78,-72.84 129.27,-66.92 140.81,-61.45"/>
<polygon fill="#63b8ff" stroke="#63b8ff" points="142.12,-64.71 149.66,-57.26 139.12,-58.38 142.12,-64.71"/>
</a>
</g>
</g>
<!-- Node4 -->
<g id="Node000004" class="node">
<title>Node4</title>
<g id="a_Node000004"><a xlink:href="group___noah___l_s_m_ga7c0e713811400259a984b2153834e70c.html#ga7c0e713811400259a984b2153834e70c" target="_top" xlink:title="This subroutine calculates amount of supercooled liquid soil water content if temperature is below 27...">
<polygon fill="white" stroke="#666666" points="271,-167.25 233.25,-167.25 233.25,-148 271,-148 271,-167.25"/>
<text xml:space="preserve" text-anchor="middle" x="252.12" y="-153.75" font-family="Source Sans Pro" font-size="10.00">frh2o</text>
</a>
</g>
</g>
<!-- Node3&#45;&gt;Node4 -->
<g id="edge3_Node000003_Node000004" class="edge">
<title>Node3&#45;&gt;Node4</title>
<g id="a_edge3_Node000003_Node000004"><a xlink:title=" ">
<path fill="none" stroke="#63b8ff" d="M195.98,-157.62C203.9,-157.62 212.98,-157.62 221.46,-157.62"/>
<polygon fill="#63b8ff" stroke="#63b8ff" points="221.34,-161.13 231.34,-157.63 221.34,-154.13 221.34,-161.13"/>
</a>
</g>
</g>
<!-- Node5 -->
<g id="Node000005" class="node">
<title>Node5</title>
<g id="a_Node000005"><a xlink:href="group___noah_m_p___l_s_m_gace27cd3a7b4e23955e39e33bd344baae.html#gace27cd3a7b4e23955e39e33bd344baae" target="_top" xlink:title="check surface energy balance and water balance.">
<polygon fill="white" stroke="#666666" points="342.5,-167.25 307,-167.25 307,-148 342.5,-148 342.5,-167.25"/>
<text xml:space="preserve" text-anchor="middle" x="324.75" y="-153.75" font-family="Source Sans Pro" font-size="10.00">error</text>
</a>
</g>
</g>
<!-- Node4&#45;&gt;Node5 -->
<g id="edge4_Node000004_Node000005" class="edge">
<title>Node4&#45;&gt;Node5</title>
<g id="a_edge4_Node000004_Node000005"><a xlink:title=" ">
<path fill="none" stroke="#63b8ff" d="M271.31,-157.62C278.67,-157.62 287.34,-157.62 295.49,-157.62"/>
<polygon fill="#63b8ff" stroke="#63b8ff" points="295.32,-161.13 305.32,-157.63 295.32,-154.13 295.32,-161.13"/>
</a>
</g>
</g>
<!-- Node11 -->
<g id="Node000011" class="node">
<title>Node11</title>
<g id="a_Node000011"><a xlink:href="group___noah___l_s_m_ga3d7dabe1147278de865aa4691d5b2de0.html#ga3d7dabe1147278de865aa4691d5b2de0" target="_top" xlink:title="This subroutine inverts (solve) the tri&#45;diagonal matrix problem.">
<polygon fill="white" stroke="#666666" points="194.62,-19.25 151.62,-19.25 151.62,0 194.62,0 194.62,-19.25"/>
<text xml:space="preserve" text-anchor="middle" x="173.12" y="-5.75" font-family="Source Sans Pro" font-size="10.00">rosr12</text>
</a>
</g>
</g>
<!-- Node10&#45;&gt;Node11 -->
<g id="edge10_Node000010_Node000011" class="edge">
<title>Node10&#45;&gt;Node11</title>
<g id="a_edge10_Node000010_Node000011"><a xlink:title=" ">
<path fill="none" stroke="#63b8ff" d="M113.31,-9.62C121.35,-9.62 130.91,-9.62 139.96,-9.62"/>
<polygon fill="#63b8ff" stroke="#63b8ff" points="139.88,-13.13 149.88,-9.63 139.88,-6.13 139.88,-13.13"/>
</a>
</g>
</g>
</g>
</svg>
