<?xml version="1.0" encoding="UTF-8" standalone="no"?>
<!DOCTYPE svg PUBLIC "-//W3C//DTD SVG 1.1//EN"
 "http://www.w3.org/Graphics/SVG/1.1/DTD/svg11.dtd">
<!-- Generated by graphviz version 14.1.2 (20260124.0452)
 -->
<!-- Title: cu_gf_deep::get_zu_zd_pdf_fim Pages: 1 -->
<!--zoomable 64 -->

<svg id="main" version="1.1" xmlns="http://www.w3.org/2000/svg" xmlns:xlink="http://www.w3.org/1999/xlink" xml:space="preserve" onload="init(evt)">

<style type="text/css"><![CDATA[
.node, .edge {opacity: 0.7;}
.node.selected, .edge.selected {opacity: 1;}
.edge:hover path { stroke: red; }
.edge:hover polygon { stroke: red; fill: red; }
]]></style>

<defs>
  <circle id="rim" cx="0" cy="0" r="7"/>
  <circle id="rim2" cx="0" cy="0" r="3.5"/>
  <g id="zoomPlus">
    <use xlink:href="#rim" fill="#404040"><set attributeName="fill" to="#808080" begin="zoomplus.mouseover" end="zoomplus.mouseout"/></use>
    <path d="M-4,0h8M0,-4v8" fill="none" stroke="white" stroke-width="1.5" pointer-events="none"/>
  </g>
  <g id="zoomMin">
    <use xlink:href="#rim" fill="#404040"><set attributeName="fill" to="#808080" begin="zoomminus.mouseover" end="zoomminus.mouseout"/></use>
    <path d="M-4,0h8" fill="none" stroke="white" stroke-width="1.5" pointer-events="none"/>
  </g>
  <g id="arrowUp" transform="translate(30 24)">
    <use xlink:href="#rim"/>
    <path pointer-events="none" fill="none" stroke="white" stroke-width="1.5" d="M0,-3.0v7 M-2.5,-0.5L0,-3.0L2.5,-0.5"/>
  </g>
  <g id="arrowRight" transform="rotate(90) translate(36 -43)">
    <use xlink:href="#rim"/>
    <path pointer-events="none" fill="none" stroke="white" stroke-width="1.5" d="M0,-3.0v7 M-2.5,-0.5L0,-3.0L2.5,-0.5"/>
  </g>
  <g id="arrowDown" transform="rotate(180) translate(-30 -48)">
    <use xlink:href="#rim"/>
    <path pointer-events="none" fill="none" stroke="white" stroke-width="1.5" d="M0,-3.0v7 M-2.5,-0.5L0,-3.0L2.5,-0.5"/>
  </g>
  <g id="arrowLeft" transform="rotate(270) translate(-36 17)">
    <use xlink:href="#rim"/>
    <path pointer-events="none" fill="none" stroke="white" stroke-width="1.5" d="M0,-3.0v7 M-2.5,-0.5L0,-3.0L2.5,-0.5"/>
  </g>
  <g id="resetDef">
    <use xlink:href="#rim2" fill="#404040"><set attributeName="fill" to="#808080" begin="reset.mouseover" end="reset.mouseout"/></use>
  </g>
</defs>
<script type="application/ecmascript">
var viewWidth = 587;
var viewHeight = 64;
var sectionId = 'dynsection-1';
</script>
<script type="application/ecmascript" xlink:href="svg.min.js"/>
<svg id="graph" class="graph">
<g id="viewport">
<title>cu_gf_deep::get_zu_zd_pdf_fim</title>
<!-- Node1 -->
<g id="Node000001" class="node">
<title>Node1</title>
<g id="a_Node000001"><a xlink:title="Calculates a normalized mass&#45;flux profile for updrafts and downdrafts using the beta function.">
<polygon fill="#999999" stroke="#666666" points="578.5,-43.88 477,-43.88 477,-13.37 578.5,-13.37 578.5,-43.88"/>
<text xml:space="preserve" text-anchor="start" x="485" y="-30.38" font-family="Source Sans Pro" font-size="10.00">cu_gf_deep::get_zu</text>
<text xml:space="preserve" text-anchor="middle" x="527.75" y="-19.12" font-family="Source Sans Pro" font-size="10.00">_zd_pdf_fim</text>
</a>
</g>
</g>
<!-- Node2 -->
<g id="Node000002" class="node">
<title>Node2</title>
<g id="a_Node000002"><a xlink:href="group__cu__gf__deep__group_ga6fb15c7cf491936bd0b501eb4a7c3147.html#ga6fb15c7cf491936bd0b501eb4a7c3147" target="_top" xlink:title="Driver for the deep or congestus GF routine.">
<polygon fill="white" stroke="#666666" points="276.5,-56.25 135.25,-56.25 135.25,-37 276.5,-37 276.5,-56.25"/>
<text xml:space="preserve" text-anchor="middle" x="205.88" y="-42.75" font-family="Source Sans Pro" font-size="10.00">cu_gf_deep::cu_gf_deep_run</text>
</a>
</g>
</g>
<!-- Node1&#45;&gt;Node2 -->
<g id="edge1_Node000001_Node000002" class="edge">
<title>Node1&#45;&gt;Node2</title>
<g id="a_edge1_Node000001_Node000002"><a xlink:title=" ">
<path fill="none" stroke="#63b8ff" d="M465.33,-32.08C411.49,-35.11 333.25,-39.51 276.97,-42.68"/>
<polygon fill="#63b8ff" stroke="#63b8ff" points="465.47,-35.58 475.26,-31.52 465.08,-28.59 465.47,-35.58"/>
</a>
</g>
</g>
<!-- Node4 -->
<g id="Node000004" class="node">
<title>Node4</title>
<g id="a_Node000004"><a xlink:href="group__cu__gf__deep__group_ga7ab8f34f0c857d59f7c9b44e7126e83b.html#ga7ab8f34f0c857d59f7c9b44e7126e83b" target="_top" xlink:title="Driver for the normalized mass&#45;flux routine.">
<polygon fill="white" stroke="#666666" points="441,-19.25 312.5,-19.25 312.5,0 441,0 441,-19.25"/>
<text xml:space="preserve" text-anchor="middle" x="376.75" y="-5.75" font-family="Source Sans Pro" font-size="10.00">cu_gf_deep::rates_up_pdf</text>
</a>
</g>
</g>
<!-- Node1&#45;&gt;Node4 -->
<g id="edge3_Node000001_Node000004" class="edge">
<title>Node1&#45;&gt;Node4</title>
<g id="a_edge3_Node000001_Node000004"><a xlink:title=" ">
<path fill="none" stroke="#63b8ff" d="M465.34,-20.79C457.44,-19.79 449.34,-18.75 441.41,-17.74"/>
<polygon fill="#63b8ff" stroke="#63b8ff" points="464.86,-24.26 475.22,-22.05 465.74,-17.32 464.86,-24.26"/>
</a>
</g>
</g>
<!-- Node3 -->
<g id="Node000003" class="node">
<title>Node3</title>
<g id="a_Node000003"><a xlink:href="group__cu__gf__group_ga5d2242a3e3ed78e40c6b81ee2538801b.html#ga5d2242a3e3ed78e40c6b81ee2538801b" target="_top" xlink:title="This is the Grell&#45;Freitas convection scheme driver module.">
<polygon fill="white" stroke="#666666" points="99.25,-42.88 0,-42.88 0,-12.37 99.25,-12.37 99.25,-42.88"/>
<text xml:space="preserve" text-anchor="start" x="8" y="-29.38" font-family="Source Sans Pro" font-size="10.00">cu_gf_driver::cu_gf</text>
<text xml:space="preserve" text-anchor="middle" x="49.62" y="-18.12" font-family="Source Sans Pro" font-size="10.00">_driver_run</text>
</a>
</g>
</g>
<!-- Node2&#45;&gt;Node3 -->
<g id="edge2_Node000002_Node000003" class="edge">
<title>Node2&#45;&gt;Node3</title>
<g id="a_edge2_Node000002_Node000003"><a xlink:title=" ">
<path fill="none" stroke="#63b8ff" d="M123.73,-36.63C115.49,-35.61 107.3,-34.61 99.56,-33.65"/>
<polygon fill="#63b8ff" stroke="#63b8ff" points="123.12,-40.08 133.47,-37.83 123.97,-33.13 123.12,-40.08"/>
</a>
</g>
</g>
<!-- Node4&#45;&gt;Node2 -->
<g id="edge4_Node000004_Node000002" class="edge">
<title>Node4&#45;&gt;Node2</title>
<g id="a_edge4_Node000004_Node000002"><a xlink:title=" ">
<path fill="none" stroke="#63b8ff" d="M318.39,-22.19C297.06,-26.87 273.16,-32.1 252.97,-36.53"/>
<polygon fill="#63b8ff" stroke="#63b8ff" points="319.11,-25.62 328.13,-20.06 317.61,-18.78 319.11,-25.62"/>
</a>
</g>
</g>
<!-- Node5 -->
<g id="Node000005" class="node">
<title>Node5</title>
<g id="a_Node000005"><a xlink:href="group__cu__gf__sh__group_gac3f853aacccfdee63bf9a5e64611683f.html#gac3f853aacccfdee63bf9a5e64611683f" target="_top" xlink:title=" ">
<polygon fill="white" stroke="#666666" points="266,-19.25 145.75,-19.25 145.75,0 266,0 266,-19.25"/>
<text xml:space="preserve" text-anchor="middle" x="205.88" y="-5.75" font-family="Source Sans Pro" font-size="10.00">cu_gf_sh::cu_gf_sh_run</text>
</a>
</g>
</g>
<!-- Node4&#45;&gt;Node5 -->
<g id="edge5_Node000004_Node000005" class="edge">
<title>Node4&#45;&gt;Node5</title>
<g id="a_edge5_Node000004_Node000005"><a xlink:title=" ">
<path fill="none" stroke="#63b8ff" d="M300.94,-9.62C289.38,-9.62 277.57,-9.62 266.4,-9.62"/>
<polygon fill="#63b8ff" stroke="#63b8ff" points="300.87,-13.13 310.87,-9.63 300.87,-6.13 300.87,-13.13"/>
</a>
</g>
</g>
<!-- Node5&#45;&gt;Node3 -->
<g id="edge6_Node000005_Node000003" class="edge">
<title>Node5&#45;&gt;Node3</title>
<g id="a_edge6_Node000005_Node000003"><a xlink:title=" ">
<path fill="none" stroke="#63b8ff" d="M134.43,-17.85C122.59,-19.23 110.54,-20.63 99.4,-21.93"/>
<polygon fill="#63b8ff" stroke="#63b8ff" points="134.65,-21.34 144.18,-16.71 133.84,-14.39 134.65,-21.34"/>
</a>
</g>
</g>
</g>
</svg>

<g id="navigator" transform="translate(0 0)" fill="#404254">
  <rect fill="#f2f5e9" fill-opacity="0.5" stroke="#606060" stroke-width=".5" x="0" y="0" width="60" height="60"/>
  <use id="zoomplus" xlink:href="#zoomPlus" x="17" y="9" onmousedown="handleZoom(evt,'in')"/>
  <use id="zoomminus" xlink:href="#zoomMin" x="42" y="9" onmousedown="handleZoom(evt,'out')"/>
  <use id="reset" xlink:href="#resetDef" x="30" y="36" onmousedown="handleReset()"/>
   <use id="arrowup" xlink:href="#arrowUp" x="0" y="0" onmousedown="handlePan(0,-1)"/>
  <use id="arrowright" xlink:href="#arrowRight" x="0" y="0" onmousedown="handlePan(1,0)"/>
  <use id="arrowdown" xlink:href="#arrowDown" x="0" y="0" onmousedown="handlePan(0,1)"/>
  <use id="arrowleft" xlink:href="#arrowLeft" x="0" y="0" onmousedown="handlePan(-1,0)"/>
</g>
<svg viewBox="0 0 15 15" width="100%" height="30px" preserveAspectRatio="xMaxYMin meet">
 <g id="arrow_out" transform="scale(0.3 0.3)">
  <a xlink:href="group__cu__gf__deep__group_ga0ea82b4d199c9b93aa5200682dda3685_ga0ea82b4d199c9b93aa5200682dda3685_icgraph_org.svg" target="_base">
   <rect id="button" ry="5" rx="5" y="6" x="6" height="38" width="38"
        fill="#f2f5e9" fill-opacity="0.5" stroke="#606060" stroke-width="1.0"/>
   <path id="arrow"
     d="M 11.500037,31.436501 C 11.940474,20.09759 22.043105,11.32322 32.158766,21.979434 L 37.068811,17.246167 C 37.068811,17.246167 37.088388,32 37.088388,32 L 22.160133,31.978069 C 22.160133,31.978069 26.997745,27.140456 26.997745,27.140456 C 18.528582,18.264221 13.291696,25.230495 11.500037,31.436501 z"
     style="fill:#404040;"/>
  </a>
 </g>
</svg>

<style type='text/css'>
<![CDATA[
[data-mouse-over-selected='false'] { opacity: 0.7; }
[data-mouse-over-selected='true']  { opacity: 1.0; }
]]>
</style>
<script type="application/ecmascript"><![CDATA[
document.addEventListener('DOMContentLoaded', (event) => {
  highlightEdges();
  highlightAdjacentNodes();
});
]]></script>
</svg>
