<?xml version="1.0" encoding="UTF-8" standalone="no"?>
<!DOCTYPE svg PUBLIC "-//W3C//DTD SVG 1.1//EN"
 "http://www.w3.org/Graphics/SVG/1.1/DTD/svg11.dtd">
<!-- Generated by graphviz version 14.1.2 (20260124.0452)
 -->
<!-- Title: module_radiation_clouds::cloud_fraction_mass_flx_1 Pages: 1 -->
<svg width="465pt" height="88pt"
 viewBox="0.00 0.00 465.00 88.00" xmlns="http://www.w3.org/2000/svg" xmlns:xlink="http://www.w3.org/1999/xlink">
<g id="graph0" class="graph" transform="scale(1 1) rotate(0) translate(4 83.5)">
<title>module_radiation_clouds::cloud_fraction_mass_flx_1</title>
<!-- Node1 -->
<g id="Node000001" class="node">
<title>Node1</title>
<g id="a_Node000001"><a xlink:title=" ">
<polygon fill="#999999" stroke="#666666" points="456.75,-54.5 318.5,-54.5 318.5,-24 456.75,-24 456.75,-54.5"/>
<text xml:space="preserve" text-anchor="start" x="326.5" y="-41" font-family="Source Sans Pro" font-size="10.00">module_radiation_clouds</text>
<text xml:space="preserve" text-anchor="middle" x="387.62" y="-29.75" font-family="Source Sans Pro" font-size="10.00">::cloud_fraction_mass_flx_1</text>
</a>
</g>
</g>
<!-- Node2 -->
<g id="Node000002" class="node">
<title>Node2</title>
<g id="a_Node000002"><a xlink:href="group__module__radiation__clouds_ga9f1d337794ba446156ed48d61fefb76d.html#ga9f1d337794ba446156ed48d61fefb76d" target="_top" xlink:title="This subroutine computes cloud related quantities using Ferrier&#45;Aligo cloud microphysics scheme.">
<polygon fill="white" stroke="#666666" points="282.5,-79.5 159.25,-79.5 159.25,-49 282.5,-49 282.5,-79.5"/>
<text xml:space="preserve" text-anchor="start" x="167.25" y="-66" font-family="Source Sans Pro" font-size="10.00">module_radiation_clouds</text>
<text xml:space="preserve" text-anchor="middle" x="220.88" y="-54.75" font-family="Source Sans Pro" font-size="10.00">::progcld_fer_hires</text>
</a>
</g>
</g>
<!-- Node1&#45;&gt;Node2 -->
<g id="edge1_Node000001_Node000002" class="edge">
<title>Node1&#45;&gt;Node2</title>
<g id="a_edge1_Node000001_Node000002"><a xlink:title=" ">
<path fill="none" stroke="#63b8ff" d="M306.89,-51.35C298.86,-52.57 290.79,-53.79 283,-54.97"/>
<polygon fill="#63b8ff" stroke="#63b8ff" points="307.33,-54.82 316.69,-49.86 306.28,-47.9 307.33,-54.82"/>
</a>
</g>
</g>
<!-- Node4 -->
<g id="Node000004" class="node">
<title>Node4</title>
<g id="a_Node000004"><a xlink:href="group__module__radiation__clouds_gac51e562082d901e15a3fb3a4dc7c7aad.html#gac51e562082d901e15a3fb3a4dc7c7aad" target="_top" xlink:title="This subroutine computes cloud related quantities using zhao/moorthi&#39;s prognostic cloud microphysics ...">
<polygon fill="white" stroke="#666666" points="282.5,-30.5 159.25,-30.5 159.25,0 282.5,0 282.5,-30.5"/>
<text xml:space="preserve" text-anchor="start" x="167.25" y="-17" font-family="Source Sans Pro" font-size="10.00">module_radiation_clouds</text>
<text xml:space="preserve" text-anchor="middle" x="220.88" y="-5.75" font-family="Source Sans Pro" font-size="10.00">::progcld_zhao_carr</text>
</a>
</g>
</g>
<!-- Node1&#45;&gt;Node4 -->
<g id="edge3_Node000001_Node000004" class="edge">
<title>Node1&#45;&gt;Node4</title>
<g id="a_edge3_Node000001_Node000004"><a xlink:title=" ">
<path fill="none" stroke="#63b8ff" d="M306.89,-27.63C298.86,-26.46 290.79,-25.29 283,-24.15"/>
<polygon fill="#63b8ff" stroke="#63b8ff" points="306.29,-31.08 316.69,-29.06 307.3,-24.16 306.29,-31.08"/>
</a>
</g>
</g>
<!-- Node3 -->
<g id="Node000003" class="node">
<title>Node3</title>
<g id="a_Node000003"><a xlink:href="group__module__radiation__clouds_gade0c4ffb0276ff706253a39568a88a67.html#gade0c4ffb0276ff706253a39568a88a67" target="_top" xlink:title="Subroutine radiation_clouds_prop computes cloud related quantities for different cloud microphysics s...">
<polygon fill="white" stroke="#666666" points="123.25,-54.5 0,-54.5 0,-24 123.25,-24 123.25,-54.5"/>
<text xml:space="preserve" text-anchor="start" x="8" y="-41" font-family="Source Sans Pro" font-size="10.00">module_radiation_clouds</text>
<text xml:space="preserve" text-anchor="middle" x="61.62" y="-29.75" font-family="Source Sans Pro" font-size="10.00">::radiation_clouds_prop</text>
</a>
</g>
</g>
<!-- Node2&#45;&gt;Node3 -->
<g id="edge2_Node000002_Node000003" class="edge">
<title>Node2&#45;&gt;Node3</title>
<g id="a_edge2_Node000002_Node000003"><a xlink:title=" ">
<path fill="none" stroke="#63b8ff" d="M147.73,-52.78C139.64,-51.49 131.45,-50.19 123.52,-48.93"/>
<polygon fill="#63b8ff" stroke="#63b8ff" points="147.16,-56.23 157.58,-54.35 148.26,-49.32 147.16,-56.23"/>
</a>
</g>
</g>
<!-- Node4&#45;&gt;Node3 -->
<g id="edge4_Node000004_Node000003" class="edge">
<title>Node4&#45;&gt;Node3</title>
<g id="a_edge4_Node000004_Node000003"><a xlink:title=" ">
<path fill="none" stroke="#63b8ff" d="M147.73,-26.26C139.64,-27.5 131.45,-28.75 123.52,-29.96"/>
<polygon fill="#63b8ff" stroke="#63b8ff" points="148.22,-29.73 157.58,-24.76 147.17,-22.81 148.22,-29.73"/>
</a>
</g>
</g>
</g>
</svg>
