<?xml version="1.0" encoding="UTF-8" standalone="no"?>
<!DOCTYPE svg PUBLIC "-//W3C//DTD SVG 1.1//EN"
 "http://www.w3.org/Graphics/SVG/1.1/DTD/svg11.dtd">
<!-- Generated by graphviz version 14.1.2 (20260124.0452)
 -->
<!-- Title: gfdl_cloud_microphys_mod::cs_profile Pages: 1 -->
<svg width="928pt" height="88pt"
 viewBox="0.00 0.00 928.00 88.00" xmlns="http://www.w3.org/2000/svg" xmlns:xlink="http://www.w3.org/1999/xlink">
<g id="graph0" class="graph" transform="scale(1 1) rotate(0) translate(4 83.5)">
<title>gfdl_cloud_microphys_mod::cs_profile</title>
<!-- Node1 -->
<g id="Node000001" class="node">
<title>Node1</title>
<g id="a_Node000001"><a xlink:title=" ">
<polygon fill="#999999" stroke="#666666" points="919.5,-54.5 809,-54.5 809,-24 919.5,-24 919.5,-54.5"/>
<text xml:space="preserve" text-anchor="start" x="817" y="-41" font-family="Source Sans Pro" font-size="10.00">gfdl_cloud_microphys</text>
<text xml:space="preserve" text-anchor="middle" x="864.25" y="-29.75" font-family="Source Sans Pro" font-size="10.00">_mod::cs_profile</text>
</a>
</g>
</g>
<!-- Node2 -->
<g id="Node000002" class="node">
<title>Node2</title>
<g id="a_Node000002"><a xlink:href="group__mod__gfdl__cloud__mp_gabfcb03d4ab831c5f0a879b75b2cf4e01.html#gabfcb03d4ab831c5f0a879b75b2cf4e01" target="_top" xlink:title="Lagrangian scheme.">
<polygon fill="white" stroke="#666666" points="773,-54.5 640.75,-54.5 640.75,-24 773,-24 773,-54.5"/>
<text xml:space="preserve" text-anchor="start" x="648.75" y="-41" font-family="Source Sans Pro" font-size="10.00">gfdl_cloud_microphys</text>
<text xml:space="preserve" text-anchor="middle" x="706.88" y="-29.75" font-family="Source Sans Pro" font-size="10.00">_mod::lagrangian_fall_ppm</text>
</a>
</g>
</g>
<!-- Node1&#45;&gt;Node2 -->
<g id="edge1_Node000001_Node000002" class="edge">
<title>Node1&#45;&gt;Node2</title>
<g id="a_edge1_Node000001_Node000002"><a xlink:title=" ">
<path fill="none" stroke="#63b8ff" d="M797.42,-39.25C789.47,-39.25 781.35,-39.25 773.41,-39.25"/>
<polygon fill="#63b8ff" stroke="#63b8ff" points="797.39,-42.75 807.39,-39.25 797.39,-35.75 797.39,-42.75"/>
</a>
</g>
</g>
<!-- Node3 -->
<g id="Node000003" class="node">
<title>Node3</title>
<g id="a_Node000003"><a xlink:href="group__mod__gfdl__cloud__mp_ga79e5f6ea8f5040ab16033081b9a64cb7.html#ga79e5f6ea8f5040ab16033081b9a64cb7" target="_top" xlink:title="The subroutine &#39;terminal_fall&#39; computes terminal fall speed.">
<polygon fill="white" stroke="#666666" points="604.75,-79.5 494.25,-79.5 494.25,-49 604.75,-49 604.75,-79.5"/>
<text xml:space="preserve" text-anchor="start" x="502.25" y="-66" font-family="Source Sans Pro" font-size="10.00">gfdl_cloud_microphys</text>
<text xml:space="preserve" text-anchor="middle" x="549.5" y="-54.75" font-family="Source Sans Pro" font-size="10.00">_mod::terminal_fall</text>
</a>
</g>
</g>
<!-- Node2&#45;&gt;Node3 -->
<g id="edge2_Node000002_Node000003" class="edge">
<title>Node2&#45;&gt;Node3</title>
<g id="a_edge2_Node000002_Node000003"><a xlink:title=" ">
<path fill="none" stroke="#63b8ff" d="M629.31,-51.57C621.13,-52.89 612.92,-54.21 605.07,-55.47"/>
<polygon fill="#63b8ff" stroke="#63b8ff" points="629.62,-55.06 638.94,-50.02 628.51,-48.15 629.62,-55.06"/>
</a>
</g>
</g>
<!-- Node7 -->
<g id="Node000007" class="node">
<title>Node7</title>
<g id="a_Node000007"><a xlink:href="group__mod__gfdl__cloud__mp_gacc8783950135d8875dbfe23ef5013c76.html#gacc8783950135d8875dbfe23ef5013c76" target="_top" xlink:title="This subroutine includes warm rain cloud microphysics.">
<polygon fill="white" stroke="#666666" points="604.75,-30.5 494.25,-30.5 494.25,0 604.75,0 604.75,-30.5"/>
<text xml:space="preserve" text-anchor="start" x="502.25" y="-17" font-family="Source Sans Pro" font-size="10.00">gfdl_cloud_microphys</text>
<text xml:space="preserve" text-anchor="middle" x="549.5" y="-5.75" font-family="Source Sans Pro" font-size="10.00">_mod::warm_rain</text>
</a>
</g>
</g>
<!-- Node2&#45;&gt;Node7 -->
<g id="edge6_Node000002_Node000007" class="edge">
<title>Node2&#45;&gt;Node7</title>
<g id="a_edge6_Node000002_Node000007"><a xlink:title=" ">
<path fill="none" stroke="#63b8ff" d="M629.31,-27.42C621.13,-26.16 612.92,-24.89 605.07,-23.68"/>
<polygon fill="#63b8ff" stroke="#63b8ff" points="628.52,-30.84 638.94,-28.91 629.59,-23.92 628.52,-30.84"/>
</a>
</g>
</g>
<!-- Node4 -->
<g id="Node000004" class="node">
<title>Node4</title>
<g id="a_Node000004"><a xlink:href="group__mod__gfdl__cloud__mp_ga9a157f35f4472577a555978027d97c65.html#ga9a157f35f4472577a555978027d97c65" target="_top" xlink:title="GFDL cloud microphysics, major program, and is based on Lin et al.(1983) lin_et_al_1983 and Rutledge ...">
<polygon fill="white" stroke="#666666" points="458.25,-54.5 347.75,-54.5 347.75,-24 458.25,-24 458.25,-54.5"/>
<text xml:space="preserve" text-anchor="start" x="355.75" y="-41" font-family="Source Sans Pro" font-size="10.00">gfdl_cloud_microphys</text>
<text xml:space="preserve" text-anchor="middle" x="403" y="-29.75" font-family="Source Sans Pro" font-size="10.00">_mod::mpdrv</text>
</a>
</g>
</g>
<!-- Node3&#45;&gt;Node4 -->
<g id="edge3_Node000003_Node000004" class="edge">
<title>Node3&#45;&gt;Node4</title>
<g id="a_edge3_Node000003_Node000004"><a xlink:title=" ">
<path fill="none" stroke="#63b8ff" d="M482.66,-52.86C474.65,-51.47 466.53,-50.07 458.71,-48.71"/>
<polygon fill="#63b8ff" stroke="#63b8ff" points="481.93,-56.28 492.38,-54.54 483.12,-49.39 481.93,-56.28"/>
</a>
</g>
</g>
<!-- Node5 -->
<g id="Node000005" class="node">
<title>Node5</title>
<g id="a_Node000005"><a xlink:href="group__mod__gfdl__cloud__mp_gab96ce7bbe8889ca0845652ef6df3ea14.html#gab96ce7bbe8889ca0845652ef6df3ea14" target="_top" xlink:title="This subroutine is the driver of the GFDL cloud microphysics.">
<polygon fill="white" stroke="#666666" points="311.75,-60.12 171.25,-60.12 171.25,-18.38 311.75,-18.38 311.75,-60.12"/>
<text xml:space="preserve" text-anchor="start" x="179.25" y="-46.62" font-family="Source Sans Pro" font-size="10.00">gfdl_cloud_microphys</text>
<text xml:space="preserve" text-anchor="start" x="179.25" y="-35.38" font-family="Source Sans Pro" font-size="10.00">_mod::gfdl_cloud_microphys</text>
<text xml:space="preserve" text-anchor="middle" x="241.5" y="-24.12" font-family="Source Sans Pro" font-size="10.00">_mod_driver</text>
</a>
</g>
</g>
<!-- Node4&#45;&gt;Node5 -->
<g id="edge4_Node000004_Node000005" class="edge">
<title>Node4&#45;&gt;Node5</title>
<g id="a_edge4_Node000004_Node000005"><a xlink:title=" ">
<path fill="none" stroke="#63b8ff" d="M336.15,-39.25C328.25,-39.25 320.16,-39.25 312.21,-39.25"/>
<polygon fill="#63b8ff" stroke="#63b8ff" points="336.04,-42.75 346.04,-39.25 336.04,-35.75 336.04,-42.75"/>
</a>
</g>
</g>
<!-- Node6 -->
<g id="Node000006" class="node">
<title>Node6</title>
<g id="a_Node000006"><a xlink:href="namespacegfdl__cloud__microphys_a57379a8f2ca712404e049dc5438ca6ac.html#a57379a8f2ca712404e049dc5438ca6ac" target="_top" xlink:title=" ">
<polygon fill="white" stroke="#666666" points="135.25,-54.5 0,-54.5 0,-24 135.25,-24 135.25,-54.5"/>
<text xml:space="preserve" text-anchor="start" x="8" y="-41" font-family="Source Sans Pro" font-size="10.00">gfdl_cloud_microphys</text>
<text xml:space="preserve" text-anchor="middle" x="67.62" y="-29.75" font-family="Source Sans Pro" font-size="10.00">::gfdl_cloud_microphys_run</text>
</a>
</g>
</g>
<!-- Node5&#45;&gt;Node6 -->
<g id="edge5_Node000005_Node000006" class="edge">
<title>Node5&#45;&gt;Node6</title>
<g id="a_edge5_Node000005_Node000006"><a xlink:title=" ">
<path fill="none" stroke="#63b8ff" d="M159.71,-39.25C151.6,-39.25 143.44,-39.25 135.51,-39.25"/>
<polygon fill="#63b8ff" stroke="#63b8ff" points="159.57,-42.75 169.57,-39.25 159.57,-35.75 159.57,-42.75"/>
</a>
</g>
</g>
<!-- Node7&#45;&gt;Node4 -->
<g id="edge7_Node000007_Node000004" class="edge">
<title>Node7&#45;&gt;Node4</title>
<g id="a_edge7_Node000007_Node000004"><a xlink:title=" ">
<path fill="none" stroke="#63b8ff" d="M482.66,-26.19C474.65,-27.52 466.53,-28.86 458.71,-30.16"/>
<polygon fill="#63b8ff" stroke="#63b8ff" points="483.09,-29.66 492.38,-24.57 481.94,-22.76 483.09,-29.66"/>
</a>
</g>
</g>
</g>
</svg>
