<?xml version="1.0" encoding="UTF-8" standalone="no"?>
<!DOCTYPE svg PUBLIC "-//W3C//DTD SVG 1.1//EN"
 "http://www.w3.org/Graphics/SVG/1.1/DTD/svg11.dtd">
<!-- Generated by graphviz version 14.1.2 (20260124.0452)
 -->
<!-- Title: cu_gf_deep::fct1d3 Pages: 1 -->
<svg width="420pt" height="52pt"
 viewBox="0.00 0.00 420.00 52.00" xmlns="http://www.w3.org/2000/svg" xmlns:xlink="http://www.w3.org/1999/xlink">
<g id="graph0" class="graph" transform="scale(1 1) rotate(0) translate(4 47.88)">
<title>cu_gf_deep::fct1d3</title>
<!-- Node1 -->
<g id="Node000001" class="node">
<title>Node1</title>
<g id="a_Node000001"><a xlink:title="Calculates tracer fluxes due to subsidence, only up&#45;stream differencing is currently used but flux co...">
<polygon fill="#999999" stroke="#666666" points="411.75,-24.88 312.5,-24.88 312.5,-5.63 411.75,-5.63 411.75,-24.88"/>
<text xml:space="preserve" text-anchor="middle" x="362.12" y="-11.38" font-family="Source Sans Pro" font-size="10.00">cu_gf_deep::fct1d3</text>
</a>
</g>
</g>
<!-- Node2 -->
<g id="Node000002" class="node">
<title>Node2</title>
<g id="a_Node000002"><a xlink:href="group__cu__gf__deep__group_ga6fb15c7cf491936bd0b501eb4a7c3147.html#ga6fb15c7cf491936bd0b501eb4a7c3147" target="_top" xlink:title="Driver for the deep or congestus GF routine.">
<polygon fill="white" stroke="#666666" points="276.5,-43.88 135.25,-43.88 135.25,-24.62 276.5,-24.62 276.5,-43.88"/>
<text xml:space="preserve" text-anchor="middle" x="205.88" y="-30.38" font-family="Source Sans Pro" font-size="10.00">cu_gf_deep::cu_gf_deep_run</text>
</a>
</g>
</g>
<!-- Node1&#45;&gt;Node2 -->
<g id="edge1_Node000001_Node000002" class="edge">
<title>Node1&#45;&gt;Node2</title>
<g id="a_edge1_Node000001_Node000002"><a xlink:title=" ">
<path fill="none" stroke="#63b8ff" d="M300.94,-22.66C293.02,-23.64 284.84,-24.65 276.78,-25.64"/>
<polygon fill="#63b8ff" stroke="#63b8ff" points="301.32,-26.14 310.82,-21.45 300.46,-19.2 301.32,-26.14"/>
</a>
</g>
</g>
<!-- Node3 -->
<g id="Node000003" class="node">
<title>Node3</title>
<g id="a_Node000003"><a xlink:href="group__cu__gf__group_ga5d2242a3e3ed78e40c6b81ee2538801b.html#ga5d2242a3e3ed78e40c6b81ee2538801b" target="_top" xlink:title="This is the Grell&#45;Freitas convection scheme driver module.">
<polygon fill="white" stroke="#666666" points="99.25,-30.5 0,-30.5 0,0 99.25,0 99.25,-30.5"/>
<text xml:space="preserve" text-anchor="start" x="8" y="-17" font-family="Source Sans Pro" font-size="10.00">cu_gf_driver::cu_gf</text>
<text xml:space="preserve" text-anchor="middle" x="49.62" y="-5.75" font-family="Source Sans Pro" font-size="10.00">_driver_run</text>
</a>
</g>
</g>
<!-- Node1&#45;&gt;Node3 -->
<g id="edge3_Node000001_Node000003" class="edge">
<title>Node1&#45;&gt;Node3</title>
<g id="a_edge3_Node000001_Node000003"><a xlink:title=" ">
<path fill="none" stroke="#63b8ff" d="M300.95,-15.25C242.31,-15.25 154.24,-15.25 99.71,-15.25"/>
<polygon fill="#63b8ff" stroke="#63b8ff" points="300.75,-18.75 310.75,-15.25 300.75,-11.75 300.75,-18.75"/>
</a>
</g>
</g>
<!-- Node2&#45;&gt;Node3 -->
<g id="edge2_Node000002_Node000003" class="edge">
<title>Node2&#45;&gt;Node3</title>
<g id="a_edge2_Node000002_Node000003"><a xlink:title=" ">
<path fill="none" stroke="#63b8ff" d="M123.73,-24.25C115.49,-23.24 107.3,-22.23 99.56,-21.28"/>
<polygon fill="#63b8ff" stroke="#63b8ff" points="123.12,-27.71 133.47,-25.45 123.97,-20.76 123.12,-27.71"/>
</a>
</g>
</g>
</g>
</svg>
