<?xml version="1.0" encoding="UTF-8" standalone="no"?>
<!DOCTYPE svg PUBLIC "-//W3C//DTD SVG 1.1//EN"
 "http://www.w3.org/Graphics/SVG/1.1/DTD/svg11.dtd">
<!-- Generated by graphviz version 14.1.2 (20260124.0452)
 -->
<!-- Title: rrtmg_sw::taumol Pages: 1 -->
<!--zoomable 508 -->

<svg id="main" version="1.1" xmlns="http://www.w3.org/2000/svg" xmlns:xlink="http://www.w3.org/1999/xlink" xml:space="preserve" onload="init(evt)">

<style type="text/css"><![CDATA[
.node, .edge {opacity: 0.7;}
.node.selected, .edge.selected {opacity: 1;}
.edge:hover path { stroke: red; }
.edge:hover polygon { stroke: red; fill: red; }
]]></style>

<defs>
  <circle id="rim" cx="0" cy="0" r="7"/>
  <circle id="rim2" cx="0" cy="0" r="3.5"/>
  <g id="zoomPlus">
    <use xlink:href="#rim" fill="#404040"><set attributeName="fill" to="#808080" begin="zoomplus.mouseover" end="zoomplus.mouseout"/></use>
    <path d="M-4,0h8M0,-4v8" fill="none" stroke="white" stroke-width="1.5" pointer-events="none"/>
  </g>
  <g id="zoomMin">
    <use xlink:href="#rim" fill="#404040"><set attributeName="fill" to="#808080" begin="zoomminus.mouseover" end="zoomminus.mouseout"/></use>
    <path d="M-4,0h8" fill="none" stroke="white" stroke-width="1.5" pointer-events="none"/>
  </g>
  <g id="arrowUp" transform="translate(30 24)">
    <use xlink:href="#rim"/>
    <path pointer-events="none" fill="none" stroke="white" stroke-width="1.5" d="M0,-3.0v7 M-2.5,-0.5L0,-3.0L2.5,-0.5"/>
  </g>
  <g id="arrowRight" transform="rotate(90) translate(36 -43)">
    <use xlink:href="#rim"/>
    <path pointer-events="none" fill="none" stroke="white" stroke-width="1.5" d="M0,-3.0v7 M-2.5,-0.5L0,-3.0L2.5,-0.5"/>
  </g>
  <g id="arrowDown" transform="rotate(180) translate(-30 -48)">
    <use xlink:href="#rim"/>
    <path pointer-events="none" fill="none" stroke="white" stroke-width="1.5" d="M0,-3.0v7 M-2.5,-0.5L0,-3.0L2.5,-0.5"/>
  </g>
  <g id="arrowLeft" transform="rotate(270) translate(-36 17)">
    <use xlink:href="#rim"/>
    <path pointer-events="none" fill="none" stroke="white" stroke-width="1.5" d="M0,-3.0v7 M-2.5,-0.5L0,-3.0L2.5,-0.5"/>
  </g>
  <g id="resetDef">
    <use xlink:href="#rim2" fill="#404040"><set attributeName="fill" to="#808080" begin="reset.mouseover" end="reset.mouseout"/></use>
  </g>
</defs>
<script type="application/ecmascript">
var viewWidth = 192;
var viewHeight = 508;
var sectionId = 'dynsection-0';
</script>
<script type="application/ecmascript" xlink:href="svg.min.js"/>
<svg id="graph" class="graph">
<g id="viewport">
<title>rrtmg_sw::taumol</title>
<!-- Node1 -->
<g id="Node000001" class="node">
<title>Node1</title>
<g id="a_Node000001"><a xlink:title="This subroutine calculates optical depths for gaseous absorption and rayleigh scattering &#160;&#160;subroutine...">
<polygon fill="#999999" stroke="#666666" points="91.75,-259.25 0,-259.25 0,-240 91.75,-240 91.75,-259.25"/>
<text xml:space="preserve" text-anchor="middle" x="45.88" y="-245.75" font-family="Source Sans Pro" font-size="10.00">rrtmg_sw::taumol</text>
</a>
</g>
</g>
<!-- Node2 -->
<g id="Node000002" class="node">
<title>Node2</title>
<g id="a_Node000002"><a xlink:href="group__module__radsw__main_ga8702f5f6285ff1a5cbfad740545fffb6.html#ga8702f5f6285ff1a5cbfad740545fffb6" target="_top" xlink:title="The subroutine computes the optical depth in band 16: 2600&#45;3250 cm&#45;1 (low &#45; h2o,ch4; high &#45; ch4).">
<polygon fill="white" stroke="#666666" points="183.5,-500.25 127.75,-500.25 127.75,-481 183.5,-481 183.5,-500.25"/>
<text xml:space="preserve" text-anchor="middle" x="155.62" y="-486.75" font-family="Source Sans Pro" font-size="10.00">taumol16</text>
</a>
</g>
</g>
<!-- Node1&#45;&gt;Node2 -->
<g id="edge1_Node000001_Node000002" class="edge">
<title>Node1&#45;&gt;Node2</title>
<g id="a_edge1_Node000001_Node000002"><a xlink:title=" ">
<path fill="none" stroke="#63b8ff" d="M48.23,-259.59C53.22,-293 73.16,-402.91 127.75,-472.62 127.82,-472.72 127.9,-472.81 127.97,-472.91"/>
<polygon fill="#63b8ff" stroke="#63b8ff" points="125.44,-475.33 135.13,-479.59 130.21,-470.21 125.44,-475.33"/>
</a>
</g>
</g>
<!-- Node3 -->
<g id="Node000003" class="node">
<title>Node3</title>
<g id="a_Node000003"><a xlink:href="group__module__radsw__main_gae46d1c061726bcde426caadd80b1fd80.html#gae46d1c061726bcde426caadd80b1fd80" target="_top" xlink:title="The subroutine computes the optical depth in band 17: 3250&#45;4000 cm&#45;1 (low &#45; h2o,co2; high &#45; h2o,...">
<polygon fill="white" stroke="#666666" points="183.5,-463.25 127.75,-463.25 127.75,-444 183.5,-444 183.5,-463.25"/>
<text xml:space="preserve" text-anchor="middle" x="155.62" y="-449.75" font-family="Source Sans Pro" font-size="10.00">taumol17</text>
</a>
</g>
</g>
<!-- Node1&#45;&gt;Node3 -->
<g id="edge2_Node000001_Node000003" class="edge">
<title>Node1&#45;&gt;Node3</title>
<g id="a_edge2_Node000001_Node000003"><a xlink:title=" ">
<path fill="none" stroke="#63b8ff" d="M49.08,-259.56C56.07,-289.21 80.15,-378.58 127.75,-435.62 127.83,-435.72 127.9,-435.81 127.98,-435.9"/>
<polygon fill="#63b8ff" stroke="#63b8ff" points="125.5,-438.38 135.27,-442.49 130.2,-433.19 125.5,-438.38"/>
</a>
</g>
</g>
<!-- Node4 -->
<g id="Node000004" class="node">
<title>Node4</title>
<g id="a_Node000004"><a xlink:href="group__module__radsw__main_ga06f6f2b0ef60df93c267a667a2e1aa36.html#ga06f6f2b0ef60df93c267a667a2e1aa36" target="_top" xlink:title="The subroutine computes the optical depth in band 18: 4000&#45;4650 cm&#45;1 (low &#45; h2o,ch4; high &#45; ch4).">
<polygon fill="white" stroke="#666666" points="183.5,-426.25 127.75,-426.25 127.75,-407 183.5,-407 183.5,-426.25"/>
<text xml:space="preserve" text-anchor="middle" x="155.62" y="-412.75" font-family="Source Sans Pro" font-size="10.00">taumol18</text>
</a>
</g>
</g>
<!-- Node1&#45;&gt;Node4 -->
<g id="edge3_Node000001_Node000004" class="edge">
<title>Node1&#45;&gt;Node4</title>
<g id="a_edge3_Node000001_Node000004"><a xlink:title=" ">
<path fill="none" stroke="#63b8ff" d="M50.39,-259.7C59.7,-285.31 87.11,-354.03 127.75,-398.62 127.92,-398.81 128.08,-398.99 128.25,-399.17"/>
<polygon fill="#63b8ff" stroke="#63b8ff" points="125.84,-401.71 135.72,-405.55 130.39,-396.39 125.84,-401.71"/>
</a>
</g>
</g>
<!-- Node5 -->
<g id="Node000005" class="node">
<title>Node5</title>
<g id="a_Node000005"><a xlink:href="group__module__radsw__main_ga776a0d78fda9f4fd0f1153b55be597df.html#ga776a0d78fda9f4fd0f1153b55be597df" target="_top" xlink:title="The subroutine computes the optical depth in band 19: 4650&#45;5150 cm&#45;1 (low &#45; h2o,co2; high &#45; co2).">
<polygon fill="white" stroke="#666666" points="183.5,-389.25 127.75,-389.25 127.75,-370 183.5,-370 183.5,-389.25"/>
<text xml:space="preserve" text-anchor="middle" x="155.62" y="-375.75" font-family="Source Sans Pro" font-size="10.00">taumol19</text>
</a>
</g>
</g>
<!-- Node1&#45;&gt;Node5 -->
<g id="edge4_Node000001_Node000005" class="edge">
<title>Node1&#45;&gt;Node5</title>
<g id="a_edge4_Node000001_Node000005"><a xlink:title=" ">
<path fill="none" stroke="#63b8ff" d="M52.37,-259.5C64.19,-280.18 93.76,-328.81 127.75,-361.62 128.12,-361.99 128.51,-362.34 128.89,-362.7"/>
<polygon fill="#63b8ff" stroke="#63b8ff" points="126.51,-365.28 136.53,-368.71 130.84,-359.77 126.51,-365.28"/>
</a>
</g>
</g>
<!-- Node6 -->
<g id="Node000006" class="node">
<title>Node6</title>
<g id="a_Node000006"><a xlink:href="group__module__radsw__main_ga6eb9a29728a986ea6b15240adebd4a0c.html#ga6eb9a29728a986ea6b15240adebd4a0c" target="_top" xlink:title="The subroutine computes the optical depth in band 20: 5150&#45;6150 cm&#45;1 (low &#45; h2o; high &#45; h2o).">
<polygon fill="white" stroke="#666666" points="183.5,-352.25 127.75,-352.25 127.75,-333 183.5,-333 183.5,-352.25"/>
<text xml:space="preserve" text-anchor="middle" x="155.62" y="-338.75" font-family="Source Sans Pro" font-size="10.00">taumol20</text>
</a>
</g>
</g>
<!-- Node1&#45;&gt;Node6 -->
<g id="edge5_Node000001_Node000006" class="edge">
<title>Node1&#45;&gt;Node6</title>
<g id="a_edge5_Node000001_Node000006"><a xlink:title=" ">
<path fill="none" stroke="#63b8ff" d="M56.39,-259.38C71.07,-274.22 100.41,-303.01 127.75,-324.62 128.29,-325.05 128.83,-325.47 129.39,-325.9"/>
<polygon fill="#63b8ff" stroke="#63b8ff" points="127.3,-328.71 137.47,-331.68 131.37,-323.01 127.3,-328.71"/>
</a>
</g>
</g>
<!-- Node7 -->
<g id="Node000007" class="node">
<title>Node7</title>
<g id="a_Node000007"><a xlink:href="group__module__radsw__main_ga54619c48147f35da2d7855dc488c0ff4.html#ga54619c48147f35da2d7855dc488c0ff4" target="_top" xlink:title="The subroutine computes the optical depth in band 21: 6150&#45;7700 cm&#45;1 (low &#45; h2o,co2; high &#45; h2o,...">
<polygon fill="white" stroke="#666666" points="183.5,-315.25 127.75,-315.25 127.75,-296 183.5,-296 183.5,-315.25"/>
<text xml:space="preserve" text-anchor="middle" x="155.62" y="-301.75" font-family="Source Sans Pro" font-size="10.00">taumol21</text>
</a>
</g>
</g>
<!-- Node1&#45;&gt;Node7 -->
<g id="edge6_Node000001_Node000007" class="edge">
<title>Node1&#45;&gt;Node7</title>
<g id="a_edge6_Node000001_Node000007"><a xlink:title=" ">
<path fill="none" stroke="#63b8ff" d="M66.14,-259.64C82.51,-268.14 106.27,-280.49 125.05,-290.25"/>
<polygon fill="#63b8ff" stroke="#63b8ff" points="123.33,-293.31 133.82,-294.81 126.56,-287.1 123.33,-293.31"/>
</a>
</g>
</g>
<!-- Node8 -->
<g id="Node000008" class="node">
<title>Node8</title>
<g id="a_Node000008"><a xlink:href="group__module__radsw__main_ga3b5392346eee35eb13a2a54175b6338b.html#ga3b5392346eee35eb13a2a54175b6338b" target="_top" xlink:title="The subroutine computes the optical depth in band 22: 7700&#45;8050 cm&#45;1 (low &#45; h2o,o2; high &#45; o2).">
<polygon fill="white" stroke="#666666" points="183.5,-278.25 127.75,-278.25 127.75,-259 183.5,-259 183.5,-278.25"/>
<text xml:space="preserve" text-anchor="middle" x="155.62" y="-264.75" font-family="Source Sans Pro" font-size="10.00">taumol22</text>
</a>
</g>
</g>
<!-- Node1&#45;&gt;Node8 -->
<g id="edge7_Node000001_Node000008" class="edge">
<title>Node1&#45;&gt;Node8</title>
<g id="a_edge7_Node000001_Node000008"><a xlink:title=" ">
<path fill="none" stroke="#63b8ff" d="M91.95,-257.57C100.01,-258.99 108.33,-260.46 116.19,-261.85"/>
<polygon fill="#63b8ff" stroke="#63b8ff" points="115.31,-265.25 125.77,-263.54 116.53,-258.35 115.31,-265.25"/>
</a>
</g>
</g>
<!-- Node9 -->
<g id="Node000009" class="node">
<title>Node9</title>
<g id="a_Node000009"><a xlink:href="group__module__radsw__main_gadf5d73763c80ec079b72dda7d74cba94.html#gadf5d73763c80ec079b72dda7d74cba94" target="_top" xlink:title="The subroutine computes the optical depth in band 23: 8050&#45;12850 cm&#45;1 (low &#45; h2o; high &#45; nothing).">
<polygon fill="white" stroke="#666666" points="183.5,-241.25 127.75,-241.25 127.75,-222 183.5,-222 183.5,-241.25"/>
<text xml:space="preserve" text-anchor="middle" x="155.62" y="-227.75" font-family="Source Sans Pro" font-size="10.00">taumol23</text>
</a>
</g>
</g>
<!-- Node1&#45;&gt;Node9 -->
<g id="edge8_Node000001_Node000009" class="edge">
<title>Node1&#45;&gt;Node9</title>
<g id="a_edge8_Node000001_Node000009"><a xlink:title=" ">
<path fill="none" stroke="#63b8ff" d="M91.95,-242.1C99.91,-240.77 108.14,-239.39 115.91,-238.09"/>
<polygon fill="#63b8ff" stroke="#63b8ff" points="116.48,-241.55 125.77,-236.45 115.33,-234.64 116.48,-241.55"/>
</a>
</g>
</g>
<!-- Node10 -->
<g id="Node000010" class="node">
<title>Node10</title>
<g id="a_Node000010"><a xlink:href="group__module__radsw__main_gae0abf1a08aa5d6ca14bfea83d0603716.html#gae0abf1a08aa5d6ca14bfea83d0603716" target="_top" xlink:title="The subroutine computes the optical depth in band 24: 12850&#45;16000 cm&#45;1 (low &#45; h2o,...">
<polygon fill="white" stroke="#666666" points="183.5,-204.25 127.75,-204.25 127.75,-185 183.5,-185 183.5,-204.25"/>
<text xml:space="preserve" text-anchor="middle" x="155.62" y="-190.75" font-family="Source Sans Pro" font-size="10.00">taumol24</text>
</a>
</g>
</g>
<!-- Node1&#45;&gt;Node10 -->
<g id="edge9_Node000001_Node000010" class="edge">
<title>Node1&#45;&gt;Node10</title>
<g id="a_edge9_Node000001_Node000010"><a xlink:title=" ">
<path fill="none" stroke="#63b8ff" d="M66.64,-239.54C82.97,-231.2 106.4,-219.24 124.97,-209.76"/>
<polygon fill="#63b8ff" stroke="#63b8ff" points="126.32,-213 133.64,-205.34 123.14,-206.77 126.32,-213"/>
</a>
</g>
</g>
<!-- Node11 -->
<g id="Node000011" class="node">
<title>Node11</title>
<g id="a_Node000011"><a xlink:href="group__module__radsw__main_ga21b72d6de9247eccb20de836ea76cf7a.html#ga21b72d6de9247eccb20de836ea76cf7a" target="_top" xlink:title="The subroutine computes the optical depth in band 25: 16000&#45;22650 cm&#45;1 (low &#45; h2o; high &#45; nothing).">
<polygon fill="white" stroke="#666666" points="183.5,-167.25 127.75,-167.25 127.75,-148 183.5,-148 183.5,-167.25"/>
<text xml:space="preserve" text-anchor="middle" x="155.62" y="-153.75" font-family="Source Sans Pro" font-size="10.00">taumol25</text>
</a>
</g>
</g>
<!-- Node1&#45;&gt;Node11 -->
<g id="edge10_Node000001_Node000011" class="edge">
<title>Node1&#45;&gt;Node11</title>
<g id="a_edge10_Node000001_Node000011"><a xlink:title=" ">
<path fill="none" stroke="#63b8ff" d="M56.9,-239.52C71.77,-224.77 100.81,-196.78 127.75,-175.62 128.29,-175.2 128.84,-174.78 129.39,-174.36"/>
<polygon fill="#63b8ff" stroke="#63b8ff" points="131.37,-177.24 137.48,-168.59 127.31,-171.55 131.37,-177.24"/>
</a>
</g>
</g>
<!-- Node12 -->
<g id="Node000012" class="node">
<title>Node12</title>
<g id="a_Node000012"><a xlink:href="group__module__radsw__main_ga20261640145a5d10e091ef3c67763175.html#ga20261640145a5d10e091ef3c67763175" target="_top" xlink:title="The subroutine computes the optical depth in band 26: 22650&#45;29000 cm&#45;1 (low &#45; nothing; high &#45; nothing...">
<polygon fill="white" stroke="#666666" points="183.5,-130.25 127.75,-130.25 127.75,-111 183.5,-111 183.5,-130.25"/>
<text xml:space="preserve" text-anchor="middle" x="155.62" y="-116.75" font-family="Source Sans Pro" font-size="10.00">taumol26</text>
</a>
</g>
</g>
<!-- Node1&#45;&gt;Node12 -->
<g id="edge11_Node000001_Node000012" class="edge">
<title>Node1&#45;&gt;Node12</title>
<g id="a_edge11_Node000001_Node000012"><a xlink:title=" ">
<path fill="none" stroke="#63b8ff" d="M52.57,-239.53C64.55,-218.87 94.06,-171.01 127.75,-138.62 128.12,-138.27 128.51,-137.91 128.9,-137.55"/>
<polygon fill="#63b8ff" stroke="#63b8ff" points="130.84,-140.48 136.54,-131.55 126.51,-134.97 130.84,-140.48"/>
</a>
</g>
</g>
<!-- Node13 -->
<g id="Node000013" class="node">
<title>Node13</title>
<g id="a_Node000013"><a xlink:href="group__module__radsw__main_ga7d2cea6cc0cfde853d25a14ba0efcca2.html#ga7d2cea6cc0cfde853d25a14ba0efcca2" target="_top" xlink:title="The subroutine computes the optical depth in band 27: 29000&#45;38000 cm&#45;1 (low &#45; o3; high &#45; o3).">
<polygon fill="white" stroke="#666666" points="183.5,-93.25 127.75,-93.25 127.75,-74 183.5,-74 183.5,-93.25"/>
<text xml:space="preserve" text-anchor="middle" x="155.62" y="-79.75" font-family="Source Sans Pro" font-size="10.00">taumol27</text>
</a>
</g>
</g>
<!-- Node1&#45;&gt;Node13 -->
<g id="edge12_Node000001_Node000013" class="edge">
<title>Node1&#45;&gt;Node13</title>
<g id="a_edge12_Node000001_Node000013"><a xlink:title=" ">
<path fill="none" stroke="#63b8ff" d="M50.4,-239.62C59.76,-214.19 87.26,-145.94 127.75,-101.62 127.92,-101.44 128.08,-101.26 128.25,-101.08"/>
<polygon fill="#63b8ff" stroke="#63b8ff" points="130.39,-103.86 135.73,-94.71 125.85,-98.54 130.39,-103.86"/>
</a>
</g>
</g>
<!-- Node14 -->
<g id="Node000014" class="node">
<title>Node14</title>
<g id="a_Node000014"><a xlink:href="group__module__radsw__main_ga2113c76707f43cf91fe5926ab69d1b8b.html#ga2113c76707f43cf91fe5926ab69d1b8b" target="_top" xlink:title="The subroutine computes the optical depth in band 28: 38000&#45;50000 cm&#45;1 (low &#45; o3,o2; high &#45; o3,...">
<polygon fill="white" stroke="#666666" points="183.5,-56.25 127.75,-56.25 127.75,-37 183.5,-37 183.5,-56.25"/>
<text xml:space="preserve" text-anchor="middle" x="155.62" y="-42.75" font-family="Source Sans Pro" font-size="10.00">taumol28</text>
</a>
</g>
</g>
<!-- Node1&#45;&gt;Node14 -->
<g id="edge13_Node000001_Node000014" class="edge">
<title>Node1&#45;&gt;Node14</title>
<g id="a_edge13_Node000001_Node000014"><a xlink:title=" ">
<path fill="none" stroke="#63b8ff" d="M49.1,-239.75C56.13,-210.25 80.31,-121.37 127.75,-64.62 127.83,-64.53 127.9,-64.44 127.98,-64.35"/>
<polygon fill="#63b8ff" stroke="#63b8ff" points="130.2,-67.07 135.27,-57.76 125.5,-61.87 130.2,-67.07"/>
</a>
</g>
</g>
<!-- Node15 -->
<g id="Node000015" class="node">
<title>Node15</title>
<g id="a_Node000015"><a xlink:href="group__module__radsw__main_ga08e2db10432d07392f29a49bc5b5c640.html#ga08e2db10432d07392f29a49bc5b5c640" target="_top" xlink:title="The subroutine computes the optical depth in band 29: 820&#45;2600 cm&#45;1 (low &#45; h2o; high &#45; co2).">
<polygon fill="white" stroke="#666666" points="183.5,-19.25 127.75,-19.25 127.75,0 183.5,0 183.5,-19.25"/>
<text xml:space="preserve" text-anchor="middle" x="155.62" y="-5.75" font-family="Source Sans Pro" font-size="10.00">taumol29</text>
</a>
</g>
</g>
<!-- Node1&#45;&gt;Node15 -->
<g id="edge14_Node000001_Node000015" class="edge">
<title>Node1&#45;&gt;Node15</title>
<g id="a_edge14_Node000001_Node000015"><a xlink:title=" ">
<path fill="none" stroke="#63b8ff" d="M48.25,-239.71C53.27,-206.44 73.33,-97.02 127.75,-27.62 127.82,-27.53 127.9,-27.44 127.97,-27.34"/>
<polygon fill="#63b8ff" stroke="#63b8ff" points="130.21,-30.04 135.14,-20.66 125.44,-24.92 130.21,-30.04"/>
</a>
</g>
</g>
</g>
</svg>

<g id="navigator" transform="translate(0 0)" fill="#404254">
  <rect fill="#f2f5e9" fill-opacity="0.5" stroke="#606060" stroke-width=".5" x="0" y="0" width="60" height="60"/>
  <use id="zoomplus" xlink:href="#zoomPlus" x="17" y="9" onmousedown="handleZoom(evt,'in')"/>
  <use id="zoomminus" xlink:href="#zoomMin" x="42" y="9" onmousedown="handleZoom(evt,'out')"/>
  <use id="reset" xlink:href="#resetDef" x="30" y="36" onmousedown="handleReset()"/>
   <use id="arrowup" xlink:href="#arrowUp" x="0" y="0" onmousedown="handlePan(0,-1)"/>
  <use id="arrowright" xlink:href="#arrowRight" x="0" y="0" onmousedown="handlePan(1,0)"/>
  <use id="arrowdown" xlink:href="#arrowDown" x="0" y="0" onmousedown="handlePan(0,1)"/>
  <use id="arrowleft" xlink:href="#arrowLeft" x="0" y="0" onmousedown="handlePan(-1,0)"/>
</g>
<svg viewBox="0 0 15 15" width="100%" height="30px" preserveAspectRatio="xMaxYMin meet">
 <g id="arrow_out" transform="scale(0.3 0.3)">
  <a xlink:href="group__module__radsw__main_gac639d33a4e94f0183aedd3d43943d52d_gac639d33a4e94f0183aedd3d43943d52d_cgraph_org.svg" target="_base">
   <rect id="button" ry="5" rx="5" y="6" x="6" height="38" width="38"
        fill="#f2f5e9" fill-opacity="0.5" stroke="#606060" stroke-width="1.0"/>
   <path id="arrow"
     d="M 11.500037,31.436501 C 11.940474,20.09759 22.043105,11.32322 32.158766,21.979434 L 37.068811,17.246167 C 37.068811,17.246167 37.088388,32 37.088388,32 L 22.160133,31.978069 C 22.160133,31.978069 26.997745,27.140456 26.997745,27.140456 C 18.528582,18.264221 13.291696,25.230495 11.500037,31.436501 z"
     style="fill:#404040;"/>
  </a>
 </g>
</svg>

<style type='text/css'>
<![CDATA[
[data-mouse-over-selected='false'] { opacity: 0.7; }
[data-mouse-over-selected='true']  { opacity: 1.0; }
]]>
</style>
<script type="application/ecmascript"><![CDATA[
document.addEventListener('DOMContentLoaded', (event) => {
  highlightEdges();
  highlightAdjacentNodes();
});
]]></script>
</svg>
