<?xml version="1.0" encoding="UTF-8" standalone="no"?>
<!DOCTYPE svg PUBLIC "-//W3C//DTD SVG 1.1//EN"
 "http://www.w3.org/Graphics/SVG/1.1/DTD/svg11.dtd">
<!-- Generated by graphviz version 14.1.2 (20260124.0452)
 -->
<!-- Title: module_mp_nssl_2mom::sediment1d Pages: 1 -->
<!--zoomable 186 -->

<svg id="main" version="1.1" xmlns="http://www.w3.org/2000/svg" xmlns:xlink="http://www.w3.org/1999/xlink" xml:space="preserve" onload="init(evt)">

<style type="text/css"><![CDATA[
.node, .edge {opacity: 0.7;}
.node.selected, .edge.selected {opacity: 1;}
.edge:hover path { stroke: red; }
.edge:hover polygon { stroke: red; fill: red; }
]]></style>

<defs>
  <circle id="rim" cx="0" cy="0" r="7"/>
  <circle id="rim2" cx="0" cy="0" r="3.5"/>
  <g id="zoomPlus">
    <use xlink:href="#rim" fill="#404040"><set attributeName="fill" to="#808080" begin="zoomplus.mouseover" end="zoomplus.mouseout"/></use>
    <path d="M-4,0h8M0,-4v8" fill="none" stroke="white" stroke-width="1.5" pointer-events="none"/>
  </g>
  <g id="zoomMin">
    <use xlink:href="#rim" fill="#404040"><set attributeName="fill" to="#808080" begin="zoomminus.mouseover" end="zoomminus.mouseout"/></use>
    <path d="M-4,0h8" fill="none" stroke="white" stroke-width="1.5" pointer-events="none"/>
  </g>
  <g id="arrowUp" transform="translate(30 24)">
    <use xlink:href="#rim"/>
    <path pointer-events="none" fill="none" stroke="white" stroke-width="1.5" d="M0,-3.0v7 M-2.5,-0.5L0,-3.0L2.5,-0.5"/>
  </g>
  <g id="arrowRight" transform="rotate(90) translate(36 -43)">
    <use xlink:href="#rim"/>
    <path pointer-events="none" fill="none" stroke="white" stroke-width="1.5" d="M0,-3.0v7 M-2.5,-0.5L0,-3.0L2.5,-0.5"/>
  </g>
  <g id="arrowDown" transform="rotate(180) translate(-30 -48)">
    <use xlink:href="#rim"/>
    <path pointer-events="none" fill="none" stroke="white" stroke-width="1.5" d="M0,-3.0v7 M-2.5,-0.5L0,-3.0L2.5,-0.5"/>
  </g>
  <g id="arrowLeft" transform="rotate(270) translate(-36 17)">
    <use xlink:href="#rim"/>
    <path pointer-events="none" fill="none" stroke="white" stroke-width="1.5" d="M0,-3.0v7 M-2.5,-0.5L0,-3.0L2.5,-0.5"/>
  </g>
  <g id="resetDef">
    <use xlink:href="#rim2" fill="#404040"><set attributeName="fill" to="#808080" begin="reset.mouseover" end="reset.mouseout"/></use>
  </g>
</defs>
<script type="application/ecmascript">
var viewWidth = 603;
var viewHeight = 186;
var sectionId = 'dynsection-0';
</script>
<script type="application/ecmascript" xlink:href="svg.min.js"/>
<svg id="graph" class="graph">
<g id="viewport">
<title>module_mp_nssl_2mom::sediment1d</title>
<!-- Node1 -->
<g id="Node000001" class="node">
<title>Node1</title>
<g id="a_Node000001"><a xlink:title="Sedimentation driver subroutine. Calls fallout column by column.">
<polygon fill="#999999" stroke="#666666" points="121.75,-103.5 0,-103.5 0,-73 121.75,-73 121.75,-103.5"/>
<text xml:space="preserve" text-anchor="start" x="8" y="-90" font-family="Source Sans Pro" font-size="10.00">module_mp_nssl_2mom</text>
<text xml:space="preserve" text-anchor="middle" x="60.88" y="-78.75" font-family="Source Sans Pro" font-size="10.00">::sediment1d</text>
</a>
</g>
</g>
<!-- Node2 -->
<g id="Node000002" class="node">
<title>Node2</title>
<g id="a_Node000002"><a xlink:href="group__mod__nsslmp_ga0cb30e0249d14d780428d4d9bd829003.html#ga0cb30e0249d14d780428d4d9bd829003" target="_top" xlink:title="Subroutine to correct number concentration to prevent reflectivity growth.">
<polygon fill="white" stroke="#666666" points="279.5,-177.5 157.75,-177.5 157.75,-147 279.5,-147 279.5,-177.5"/>
<text xml:space="preserve" text-anchor="start" x="165.75" y="-164" font-family="Source Sans Pro" font-size="10.00">module_mp_nssl_2mom</text>
<text xml:space="preserve" text-anchor="middle" x="218.62" y="-152.75" font-family="Source Sans Pro" font-size="10.00">::calcnfromz1d</text>
</a>
</g>
</g>
<!-- Node1&#45;&gt;Node2 -->
<g id="edge1_Node000001_Node000002" class="edge">
<title>Node1&#45;&gt;Node2</title>
<g id="a_edge1_Node000001_Node000002"><a xlink:title=" ">
<path fill="none" stroke="#63b8ff" d="M90.96,-103.85C109.82,-113.79 135.02,-126.72 157.75,-137.25 161.23,-138.86 164.84,-140.49 168.49,-142.09"/>
<polygon fill="#63b8ff" stroke="#63b8ff" points="166.83,-145.19 177.39,-145.94 169.6,-138.76 166.83,-145.19"/>
</a>
</g>
</g>
<!-- Node3 -->
<g id="Node000003" class="node">
<title>Node3</title>
<g id="a_Node000003"><a xlink:href="group__mod__nsslmp_ga416d221e65719addcd9254cf20e3c0eb.html#ga416d221e65719addcd9254cf20e3c0eb" target="_top" xlink:title="Calculates temporary reflectivity moment for adaptive size&#45;sorting limiter.">
<polygon fill="white" stroke="#666666" points="279.5,-128.5 157.75,-128.5 157.75,-98 279.5,-98 279.5,-128.5"/>
<text xml:space="preserve" text-anchor="start" x="165.75" y="-115" font-family="Source Sans Pro" font-size="10.00">module_mp_nssl_2mom</text>
<text xml:space="preserve" text-anchor="middle" x="218.62" y="-103.75" font-family="Source Sans Pro" font-size="10.00">::calczgr1d</text>
</a>
</g>
</g>
<!-- Node1&#45;&gt;Node3 -->
<g id="edge2_Node000001_Node000003" class="edge">
<title>Node1&#45;&gt;Node3</title>
<g id="a_edge2_Node000001_Node000003"><a xlink:title=" ">
<path fill="none" stroke="#63b8ff" d="M122.09,-97.92C129.95,-99.18 138.05,-100.48 146.07,-101.76"/>
<polygon fill="#63b8ff" stroke="#63b8ff" points="145.39,-105.2 155.82,-103.33 146.5,-98.29 145.39,-105.2"/>
</a>
</g>
</g>
<!-- Node4 -->
<g id="Node000004" class="node">
<title>Node4</title>
<g id="a_Node000004"><a xlink:href="group__mod__nsslmp_gae621d5fefce44abf9ff804cb6d0c5913.html#gae621d5fefce44abf9ff804cb6d0c5913" target="_top" xlink:title="Column sedimentation fallout subroutine.">
<polygon fill="white" stroke="#666666" points="279.5,-79.5 157.75,-79.5 157.75,-49 279.5,-49 279.5,-79.5"/>
<text xml:space="preserve" text-anchor="start" x="165.75" y="-66" font-family="Source Sans Pro" font-size="10.00">module_mp_nssl_2mom</text>
<text xml:space="preserve" text-anchor="middle" x="218.62" y="-54.75" font-family="Source Sans Pro" font-size="10.00">::fallout1d</text>
</a>
</g>
</g>
<!-- Node1&#45;&gt;Node4 -->
<g id="edge3_Node000001_Node000004" class="edge">
<title>Node1&#45;&gt;Node4</title>
<g id="a_edge3_Node000001_Node000004"><a xlink:title=" ">
<path fill="none" stroke="#63b8ff" d="M122.09,-78.97C129.95,-77.76 138.05,-76.51 146.07,-75.28"/>
<polygon fill="#63b8ff" stroke="#63b8ff" points="146.47,-78.76 155.82,-73.77 145.4,-71.84 146.47,-78.76"/>
</a>
</g>
</g>
<!-- Node5 -->
<g id="Node000005" class="node">
<title>Node5</title>
<g id="a_Node000005"><a xlink:href="group__mod__nsslmp_ga4ea70fd73f9b7e8dd2472e073f46ca5c.html#ga4ea70fd73f9b7e8dd2472e073f46ca5c" target="_top" xlink:title="Column&#45;wise front end to setvtz for sedimentation.">
<polygon fill="white" stroke="#666666" points="279.5,-30.5 157.75,-30.5 157.75,0 279.5,0 279.5,-30.5"/>
<text xml:space="preserve" text-anchor="start" x="165.75" y="-17" font-family="Source Sans Pro" font-size="10.00">module_mp_nssl_2mom</text>
<text xml:space="preserve" text-anchor="middle" x="218.62" y="-5.75" font-family="Source Sans Pro" font-size="10.00">::ziegfall1d</text>
</a>
</g>
</g>
<!-- Node1&#45;&gt;Node5 -->
<g id="edge4_Node000001_Node000005" class="edge">
<title>Node1&#45;&gt;Node5</title>
<g id="a_edge4_Node000001_Node000005"><a xlink:title=" ">
<path fill="none" stroke="#63b8ff" d="M91.84,-72.58C110.62,-62.93 135.41,-50.49 157.75,-40.25 161.29,-38.63 164.96,-36.99 168.67,-35.37"/>
<polygon fill="#63b8ff" stroke="#63b8ff" points="169.93,-38.63 177.74,-31.46 167.17,-32.2 169.93,-38.63"/>
</a>
</g>
</g>
<!-- Node6 -->
<g id="Node000006" class="node">
<title>Node6</title>
<g id="a_Node000006"><a xlink:href="group__mod__nsslmp_ga9df936b176c8bb5adfa0a7fee691e57c.html#ga9df936b176c8bb5adfa0a7fee691e57c" target="_top" xlink:title="Mean hydrometeor size and fall speed calculations.">
<polygon fill="white" stroke="#666666" points="437.25,-30.5 315.5,-30.5 315.5,0 437.25,0 437.25,-30.5"/>
<text xml:space="preserve" text-anchor="start" x="323.5" y="-17" font-family="Source Sans Pro" font-size="10.00">module_mp_nssl_2mom</text>
<text xml:space="preserve" text-anchor="middle" x="376.38" y="-5.75" font-family="Source Sans Pro" font-size="10.00">::setvtz</text>
</a>
</g>
</g>
<!-- Node5&#45;&gt;Node6 -->
<g id="edge5_Node000005_Node000006" class="edge">
<title>Node5&#45;&gt;Node6</title>
<g id="a_edge5_Node000005_Node000006"><a xlink:title=" ">
<path fill="none" stroke="#63b8ff" d="M279.84,-15.25C287.7,-15.25 295.8,-15.25 303.82,-15.25"/>
<polygon fill="#63b8ff" stroke="#63b8ff" points="303.55,-18.75 313.55,-15.25 303.55,-11.75 303.55,-18.75"/>
</a>
</g>
</g>
<!-- Node7 -->
<g id="Node000007" class="node">
<title>Node7</title>
<g id="a_Node000007"><a xlink:href="group__mod__nsslmp_ga966c94b788d8e8958fff525003f48fd9.html#ga966c94b788d8e8958fff525003f48fd9" target="_top" xlink:title="Single&#45;precision complete gamma function.">
<polygon fill="white" stroke="#666666" points="595,-30.5 473.25,-30.5 473.25,0 595,0 595,-30.5"/>
<text xml:space="preserve" text-anchor="start" x="481.25" y="-17" font-family="Source Sans Pro" font-size="10.00">module_mp_nssl_2mom</text>
<text xml:space="preserve" text-anchor="middle" x="534.12" y="-5.75" font-family="Source Sans Pro" font-size="10.00">::gamma_sp</text>
</a>
</g>
</g>
<!-- Node6&#45;&gt;Node7 -->
<g id="edge6_Node000006_Node000007" class="edge">
<title>Node6&#45;&gt;Node7</title>
<g id="a_edge6_Node000006_Node000007"><a xlink:title=" ">
<path fill="none" stroke="#63b8ff" d="M437.59,-15.25C445.45,-15.25 453.55,-15.25 461.57,-15.25"/>
<polygon fill="#63b8ff" stroke="#63b8ff" points="461.3,-18.75 471.3,-15.25 461.3,-11.75 461.3,-18.75"/>
</a>
</g>
</g>
<!-- Node7&#45;&gt;Node7 -->
<g id="edge7_Node000007_Node000007" class="edge">
<title>Node7&#45;&gt;Node7</title>
<g id="a_edge7_Node000007_Node000007"><a xlink:title=" ">
<path fill="none" stroke="#63b8ff" d="M506.17,-30.99C500.47,-40.06 509.78,-48.5 534.12,-48.5 547.44,-48.5 556.25,-45.97 560.58,-42.2"/>
<polygon fill="#63b8ff" stroke="#63b8ff" points="564.02,-42.86 561.88,-32.49 557.08,-41.93 564.02,-42.86"/>
</a>
</g>
</g>
</g>
</svg>

<g id="navigator" transform="translate(0 0)" fill="#404254">
  <rect fill="#f2f5e9" fill-opacity="0.5" stroke="#606060" stroke-width=".5" x="0" y="0" width="60" height="60"/>
  <use id="zoomplus" xlink:href="#zoomPlus" x="17" y="9" onmousedown="handleZoom(evt,'in')"/>
  <use id="zoomminus" xlink:href="#zoomMin" x="42" y="9" onmousedown="handleZoom(evt,'out')"/>
  <use id="reset" xlink:href="#resetDef" x="30" y="36" onmousedown="handleReset()"/>
   <use id="arrowup" xlink:href="#arrowUp" x="0" y="0" onmousedown="handlePan(0,-1)"/>
  <use id="arrowright" xlink:href="#arrowRight" x="0" y="0" onmousedown="handlePan(1,0)"/>
  <use id="arrowdown" xlink:href="#arrowDown" x="0" y="0" onmousedown="handlePan(0,1)"/>
  <use id="arrowleft" xlink:href="#arrowLeft" x="0" y="0" onmousedown="handlePan(-1,0)"/>
</g>
<svg viewBox="0 0 15 15" width="100%" height="30px" preserveAspectRatio="xMaxYMin meet">
 <g id="arrow_out" transform="scale(0.3 0.3)">
  <a xlink:href="group__mod__nsslmp_gaa88ef817bac1d81c748fd32c9b9be6ea_gaa88ef817bac1d81c748fd32c9b9be6ea_cgraph_org.svg" target="_base">
   <rect id="button" ry="5" rx="5" y="6" x="6" height="38" width="38"
        fill="#f2f5e9" fill-opacity="0.5" stroke="#606060" stroke-width="1.0"/>
   <path id="arrow"
     d="M 11.500037,31.436501 C 11.940474,20.09759 22.043105,11.32322 32.158766,21.979434 L 37.068811,17.246167 C 37.068811,17.246167 37.088388,32 37.088388,32 L 22.160133,31.978069 C 22.160133,31.978069 26.997745,27.140456 26.997745,27.140456 C 18.528582,18.264221 13.291696,25.230495 11.500037,31.436501 z"
     style="fill:#404040;"/>
  </a>
 </g>
</svg>

<style type='text/css'>
<![CDATA[
[data-mouse-over-selected='false'] { opacity: 0.7; }
[data-mouse-over-selected='true']  { opacity: 1.0; }
]]>
</style>
<script type="application/ecmascript"><![CDATA[
document.addEventListener('DOMContentLoaded', (event) => {
  highlightEdges();
  highlightAdjacentNodes();
});
]]></script>
</svg>
