<?xml version="1.0" encoding="UTF-8" standalone="no"?>
<!DOCTYPE svg PUBLIC "-//W3C//DTD SVG 1.1//EN"
 "http://www.w3.org/Graphics/SVG/1.1/DTD/svg11.dtd">
<!-- Generated by graphviz version 14.1.2 (20260124.0452)
 -->
<!-- Title: module_bl_mynn::boulac_length Pages: 1 -->
<svg width="783pt" height="88pt"
 viewBox="0.00 0.00 783.00 88.00" xmlns="http://www.w3.org/2000/svg" xmlns:xlink="http://www.w3.org/1999/xlink">
<g id="graph0" class="graph" transform="scale(1 1) rotate(0) translate(4 83.5)">
<title>module_bl_mynn::boulac_length</title>
<!-- Node1 -->
<g id="Node000001" class="node">
<title>Node1</title>
<g id="a_Node000001"><a xlink:title="This subroutine was taken from the BouLac scheme in WRF&#45;ARW and modified for integration into the MYN...">
<polygon fill="#999999" stroke="#666666" points="775.25,-54.5 651.25,-54.5 651.25,-24 775.25,-24 775.25,-54.5"/>
<text xml:space="preserve" text-anchor="start" x="659.25" y="-41" font-family="Source Sans Pro" font-size="10.00">module_bl_mynn::boulac</text>
<text xml:space="preserve" text-anchor="middle" x="713.25" y="-29.75" font-family="Source Sans Pro" font-size="10.00">_length</text>
</a>
</g>
</g>
<!-- Node2 -->
<g id="Node000002" class="node">
<title>Node2</title>
<g id="a_Node000002"><a xlink:href="group__gp__mynnedmf_ga31475b966d06e7a87123bc895999cbfd.html#ga31475b966d06e7a87123bc895999cbfd" target="_top" xlink:title="This subroutine calculates the mixing lengths.">
<polygon fill="white" stroke="#666666" points="615.25,-54.5 498,-54.5 498,-24 615.25,-24 615.25,-54.5"/>
<text xml:space="preserve" text-anchor="start" x="506" y="-41" font-family="Source Sans Pro" font-size="10.00">module_bl_mynn::mym</text>
<text xml:space="preserve" text-anchor="middle" x="556.62" y="-29.75" font-family="Source Sans Pro" font-size="10.00">_length</text>
</a>
</g>
</g>
<!-- Node1&#45;&gt;Node2 -->
<g id="edge1_Node000001_Node000002" class="edge">
<title>Node1&#45;&gt;Node2</title>
<g id="a_edge1_Node000001_Node000002"><a xlink:title=" ">
<path fill="none" stroke="#63b8ff" d="M639.74,-39.25C631.62,-39.25 623.42,-39.25 615.52,-39.25"/>
<polygon fill="#63b8ff" stroke="#63b8ff" points="639.62,-42.75 649.62,-39.25 639.62,-35.75 639.62,-42.75"/>
</a>
</g>
</g>
<!-- Node3 -->
<g id="Node000003" class="node">
<title>Node3</title>
<g id="a_Node000003"><a xlink:href="group__gp__mynnedmf_ga97717283bfde857ef86fb46f37063824.html#ga97717283bfde857ef86fb46f37063824" target="_top" xlink:title="This subroutine initializes the mixing length, TKE, , , and .">
<polygon fill="white" stroke="#666666" points="462,-79.5 344.75,-79.5 344.75,-49 462,-49 462,-79.5"/>
<text xml:space="preserve" text-anchor="start" x="352.75" y="-66" font-family="Source Sans Pro" font-size="10.00">module_bl_mynn::mym</text>
<text xml:space="preserve" text-anchor="middle" x="403.38" y="-54.75" font-family="Source Sans Pro" font-size="10.00">_initialize</text>
</a>
</g>
</g>
<!-- Node2&#45;&gt;Node3 -->
<g id="edge2_Node000002_Node000003" class="edge">
<title>Node2&#45;&gt;Node3</title>
<g id="a_edge2_Node000002_Node000003"><a xlink:title=" ">
<path fill="none" stroke="#63b8ff" d="M486.23,-50.72C478.13,-52.06 469.93,-53.41 462.01,-54.72"/>
<polygon fill="#63b8ff" stroke="#63b8ff" points="486.79,-54.17 496.09,-49.09 485.65,-47.27 486.79,-54.17"/>
</a>
</g>
</g>
<!-- Node6 -->
<g id="Node000006" class="node">
<title>Node6</title>
<g id="a_Node000006"><a xlink:href="group__gp__mynnedmf_ga017b6066d332a8612fa00f2713db57fa.html#ga017b6066d332a8612fa00f2713db57fa" target="_top" xlink:title="This subroutine calculates the vertical diffusivity coefficients and the production terms for the tur...">
<polygon fill="white" stroke="#666666" points="462,-30.5 344.75,-30.5 344.75,0 462,0 462,-30.5"/>
<text xml:space="preserve" text-anchor="start" x="352.75" y="-17" font-family="Source Sans Pro" font-size="10.00">module_bl_mynn::mym</text>
<text xml:space="preserve" text-anchor="middle" x="403.38" y="-5.75" font-family="Source Sans Pro" font-size="10.00">_turbulence</text>
</a>
</g>
</g>
<!-- Node2&#45;&gt;Node6 -->
<g id="edge5_Node000002_Node000006" class="edge">
<title>Node2&#45;&gt;Node6</title>
<g id="a_edge5_Node000002_Node000006"><a xlink:title=" ">
<path fill="none" stroke="#63b8ff" d="M486.23,-28.24C478.13,-26.95 469.93,-25.65 462.01,-24.4"/>
<polygon fill="#63b8ff" stroke="#63b8ff" points="485.66,-31.69 496.09,-29.8 486.76,-24.78 485.66,-31.69"/>
</a>
</g>
</g>
<!-- Node4 -->
<g id="Node000004" class="node">
<title>Node4</title>
<g id="a_Node000004"><a xlink:href="group__gp__mynnedmf_ga727e10ec7e7a73d34a7f50dadbda2b83.html#ga727e10ec7e7a73d34a7f50dadbda2b83" target="_top" xlink:title="This subroutine is the MYNN&#45;EDNF PBL driver routine,which encompassed the majority of the subroutines...">
<polygon fill="white" stroke="#666666" points="308.75,-54.5 189.25,-54.5 189.25,-24 308.75,-24 308.75,-54.5"/>
<text xml:space="preserve" text-anchor="start" x="197.25" y="-41" font-family="Source Sans Pro" font-size="10.00">module_bl_mynn::mynn</text>
<text xml:space="preserve" text-anchor="middle" x="249" y="-29.75" font-family="Source Sans Pro" font-size="10.00">_bl_driver</text>
</a>
</g>
</g>
<!-- Node3&#45;&gt;Node4 -->
<g id="edge3_Node000003_Node000004" class="edge">
<title>Node3&#45;&gt;Node4</title>
<g id="a_edge3_Node000003_Node000004"><a xlink:title=" ">
<path fill="none" stroke="#63b8ff" d="M333.12,-52.89C325.11,-51.57 317,-50.24 309.14,-48.95"/>
<polygon fill="#63b8ff" stroke="#63b8ff" points="332.41,-56.32 342.84,-54.48 333.54,-49.41 332.41,-56.32"/>
</a>
</g>
</g>
<!-- Node5 -->
<g id="Node000005" class="node">
<title>Node5</title>
<g id="a_Node000005"><a xlink:href="namespacemynnedmf__wrapper_aa6a54f8cc283d97e9c1d299ce2be79d3.html#aa6a54f8cc283d97e9c1d299ce2be79d3" target="_top" xlink:title=" ">
<polygon fill="white" stroke="#666666" points="153.25,-54.5 0,-54.5 0,-24 153.25,-24 153.25,-54.5"/>
<text xml:space="preserve" text-anchor="start" x="8" y="-41" font-family="Source Sans Pro" font-size="10.00">mynnedmf_wrapper::mynnedmf</text>
<text xml:space="preserve" text-anchor="middle" x="76.62" y="-29.75" font-family="Source Sans Pro" font-size="10.00">_wrapper_run</text>
</a>
</g>
</g>
<!-- Node4&#45;&gt;Node5 -->
<g id="edge4_Node000004_Node000005" class="edge">
<title>Node4&#45;&gt;Node5</title>
<g id="a_edge4_Node000004_Node000005"><a xlink:title=" ">
<path fill="none" stroke="#63b8ff" d="M177.54,-39.25C169.68,-39.25 161.66,-39.25 153.74,-39.25"/>
<polygon fill="#63b8ff" stroke="#63b8ff" points="177.38,-42.75 187.38,-39.25 177.38,-35.75 177.38,-42.75"/>
</a>
</g>
</g>
<!-- Node6&#45;&gt;Node4 -->
<g id="edge6_Node000006_Node000004" class="edge">
<title>Node6&#45;&gt;Node4</title>
<g id="a_edge6_Node000006_Node000004"><a xlink:title=" ">
<path fill="none" stroke="#63b8ff" d="M333.12,-26.16C325.11,-27.42 317,-28.7 309.14,-29.93"/>
<polygon fill="#63b8ff" stroke="#63b8ff" points="333.51,-29.64 342.84,-24.63 332.42,-22.73 333.51,-29.64"/>
</a>
</g>
</g>
</g>
</svg>
