<?xml version="1.0" encoding="UTF-8" standalone="no"?>
<!DOCTYPE svg PUBLIC "-//W3C//DTD SVG 1.1//EN"
 "http://www.w3.org/Graphics/SVG/1.1/DTD/svg11.dtd">
<!-- Generated by graphviz version 14.1.2 (20260124.0452)
 -->
<!-- Title: module_radiation_clouds::radiation_clouds_prop Pages: 1 -->
<svg width="793pt" height="384pt"
 viewBox="0.00 0.00 793.00 384.00" xmlns="http://www.w3.org/2000/svg" xmlns:xlink="http://www.w3.org/1999/xlink">
<g id="graph0" class="graph" transform="scale(1 1) rotate(0) translate(4 379.5)">
<title>module_radiation_clouds::radiation_clouds_prop</title>
<!-- Node1 -->
<g id="Node000001" class="node">
<title>Node1</title>
<g id="a_Node000001"><a xlink:title="Subroutine radiation_clouds_prop computes cloud related quantities for different cloud microphysics s...">
<polygon fill="#999999" stroke="#666666" points="123.25,-203.5 0,-203.5 0,-173 123.25,-173 123.25,-203.5"/>
<text xml:space="preserve" text-anchor="start" x="8" y="-190" font-family="Source Sans Pro" font-size="10.00">module_radiation_clouds</text>
<text xml:space="preserve" text-anchor="middle" x="61.62" y="-178.75" font-family="Source Sans Pro" font-size="10.00">::radiation_clouds_prop</text>
</a>
</g>
</g>
<!-- Node2 -->
<g id="Node000002" class="node">
<title>Node2</title>
<g id="a_Node000002"><a xlink:href="group__module__radiation__clouds_ga60bbaf4450625fd7c91d1d2c750f37af.html#ga60bbaf4450625fd7c91d1d2c750f37af" target="_top" xlink:title="This subroutine computes high, mid, low, total, and boundary cloud fractions and cloud top/bottom lay...">
<polygon fill="white" stroke="#666666" points="287.38,-375.5 164.12,-375.5 164.12,-345 287.38,-345 287.38,-375.5"/>
<text xml:space="preserve" text-anchor="start" x="172.12" y="-362" font-family="Source Sans Pro" font-size="10.00">module_radiation_clouds</text>
<text xml:space="preserve" text-anchor="middle" x="225.75" y="-350.75" font-family="Source Sans Pro" font-size="10.00">::gethml</text>
</a>
</g>
</g>
<!-- Node1&#45;&gt;Node2 -->
<g id="edge1_Node000001_Node000002" class="edge">
<title>Node1&#45;&gt;Node2</title>
<g id="a_edge1_Node000001_Node000002"><a xlink:title=" ">
<path fill="none" stroke="#63b8ff" d="M68.95,-203.87C81.72,-233.53 113.3,-298.33 159.25,-335.25 160.92,-336.59 162.67,-337.87 164.49,-339.08"/>
<polygon fill="#63b8ff" stroke="#63b8ff" points="162.27,-341.84 172.67,-343.87 165.81,-335.8 162.27,-341.84"/>
</a>
</g>
</g>
<!-- Node3 -->
<g id="Node000003" class="node">
<title>Node3</title>
<g id="a_Node000003"><a xlink:href="group__module__radiation__clouds_ga9f1d337794ba446156ed48d61fefb76d.html#ga9f1d337794ba446156ed48d61fefb76d" target="_top" xlink:title="This subroutine computes cloud related quantities using Ferrier&#45;Aligo cloud microphysics scheme.">
<polygon fill="white" stroke="#666666" points="287.38,-326.5 164.12,-326.5 164.12,-296 287.38,-296 287.38,-326.5"/>
<text xml:space="preserve" text-anchor="start" x="172.12" y="-313" font-family="Source Sans Pro" font-size="10.00">module_radiation_clouds</text>
<text xml:space="preserve" text-anchor="middle" x="225.75" y="-301.75" font-family="Source Sans Pro" font-size="10.00">::progcld_fer_hires</text>
</a>
</g>
</g>
<!-- Node1&#45;&gt;Node3 -->
<g id="edge2_Node000001_Node000003" class="edge">
<title>Node1&#45;&gt;Node3</title>
<g id="a_edge2_Node000001_Node000003"><a xlink:title=" ">
<path fill="none" stroke="#63b8ff" d="M74.43,-203.88C91.21,-225.13 123.84,-263.13 159.25,-286.25 161.49,-287.71 163.82,-289.1 166.22,-290.43"/>
<polygon fill="#63b8ff" stroke="#63b8ff" points="164.49,-293.48 175,-294.84 167.63,-287.23 164.49,-293.48"/>
</a>
</g>
</g>
<!-- Node6 -->
<g id="Node000006" class="node">
<title>Node6</title>
<g id="a_Node000006"><a xlink:href="group__module__radiation__clouds_ga71d94b4a5abebc762e0590cc632c1b85.html#ga71d94b4a5abebc762e0590cc632c1b85" target="_top" xlink:title="This subroutine computes cloud related quantities using GFDL Lin MP prognostic cloud microphysics sch...">
<polygon fill="white" stroke="#666666" points="287.38,-179.5 164.12,-179.5 164.12,-149 287.38,-149 287.38,-179.5"/>
<text xml:space="preserve" text-anchor="start" x="172.12" y="-166" font-family="Source Sans Pro" font-size="10.00">module_radiation_clouds</text>
<text xml:space="preserve" text-anchor="middle" x="225.75" y="-154.75" font-family="Source Sans Pro" font-size="10.00">::progcld_gfdl_lin</text>
</a>
</g>
</g>
<!-- Node1&#45;&gt;Node6 -->
<g id="edge5_Node000001_Node000006" class="edge">
<title>Node1&#45;&gt;Node6</title>
<g id="a_edge5_Node000001_Node000006"><a xlink:title=" ">
<path fill="none" stroke="#63b8ff" d="M123.46,-179.25C132.95,-177.84 142.84,-176.38 152.55,-174.94"/>
<polygon fill="#63b8ff" stroke="#63b8ff" points="152.97,-178.41 162.35,-173.49 151.95,-171.49 152.97,-178.41"/>
</a>
</g>
</g>
<!-- Node7 -->
<g id="Node000007" class="node">
<title>Node7</title>
<g id="a_Node000007"><a xlink:href="group__module__radiation__clouds_ga0f8f599f3b125b66e0784e053208ae8f.html#ga0f8f599f3b125b66e0784e053208ae8f" target="_top" xlink:title="This subroutine added by G. Thompson specifically to account for explicit (microphysics&#45;produced) clo...">
<polygon fill="white" stroke="#666666" points="287.38,-130.5 164.12,-130.5 164.12,-100 287.38,-100 287.38,-130.5"/>
<text xml:space="preserve" text-anchor="start" x="172.12" y="-117" font-family="Source Sans Pro" font-size="10.00">module_radiation_clouds</text>
<text xml:space="preserve" text-anchor="middle" x="225.75" y="-105.75" font-family="Source Sans Pro" font-size="10.00">::progcld_thompson</text>
</a>
</g>
</g>
<!-- Node1&#45;&gt;Node7 -->
<g id="edge6_Node000001_Node000007" class="edge">
<title>Node1&#45;&gt;Node7</title>
<g id="a_edge6_Node000001_Node000007"><a xlink:title=" ">
<path fill="none" stroke="#63b8ff" d="M92.3,-172.58C111.24,-162.81 136.43,-150.24 159.25,-140.25 163.21,-138.51 167.34,-136.78 171.5,-135.08"/>
<polygon fill="#63b8ff" stroke="#63b8ff" points="172.48,-138.45 180.47,-131.49 169.89,-131.95 172.48,-138.45"/>
</a>
</g>
</g>
<!-- Node15 -->
<g id="Node000015" class="node">
<title>Node15</title>
<g id="a_Node000015"><a xlink:href="group__module__radiation__clouds_ga21b5982de59b5f60a24abe33946f40d0.html#ga21b5982de59b5f60a24abe33946f40d0" target="_top" xlink:title="This subroutine is used by Thompson/WSM6/NSSL cloud microphysics (EMC).">
<polygon fill="white" stroke="#666666" points="292.25,-228.5 159.25,-228.5 159.25,-198 292.25,-198 292.25,-228.5"/>
<text xml:space="preserve" text-anchor="start" x="167.25" y="-215" font-family="Source Sans Pro" font-size="10.00">module_radiation_clouds</text>
<text xml:space="preserve" text-anchor="middle" x="225.75" y="-203.75" font-family="Source Sans Pro" font-size="10.00">::progcld_thompson_wsm6</text>
</a>
</g>
</g>
<!-- Node1&#45;&gt;Node15 -->
<g id="edge16_Node000001_Node000015" class="edge">
<title>Node1&#45;&gt;Node15</title>
<g id="a_edge16_Node000001_Node000015"><a xlink:title=" ">
<path fill="none" stroke="#63b8ff" d="M123.46,-197.63C131.42,-198.86 139.67,-200.13 147.86,-201.39"/>
<polygon fill="#63b8ff" stroke="#63b8ff" points="147.05,-204.81 157.47,-202.87 148.12,-197.89 147.05,-204.81"/>
</a>
</g>
</g>
<!-- Node17 -->
<g id="Node000017" class="node">
<title>Node17</title>
<g id="a_Node000017"><a xlink:href="group__module__radiation__clouds_gac51e562082d901e15a3fb3a4dc7c7aad.html#gac51e562082d901e15a3fb3a4dc7c7aad" target="_top" xlink:title="This subroutine computes cloud related quantities using zhao/moorthi&#39;s prognostic cloud microphysics ...">
<polygon fill="white" stroke="#666666" points="287.38,-277.5 164.12,-277.5 164.12,-247 287.38,-247 287.38,-277.5"/>
<text xml:space="preserve" text-anchor="start" x="172.12" y="-264" font-family="Source Sans Pro" font-size="10.00">module_radiation_clouds</text>
<text xml:space="preserve" text-anchor="middle" x="225.75" y="-252.75" font-family="Source Sans Pro" font-size="10.00">::progcld_zhao_carr</text>
</a>
</g>
</g>
<!-- Node1&#45;&gt;Node17 -->
<g id="edge19_Node000001_Node000017" class="edge">
<title>Node1&#45;&gt;Node17</title>
<g id="a_edge19_Node000001_Node000017"><a xlink:title=" ">
<path fill="none" stroke="#63b8ff" d="M91.42,-203.85C110.43,-213.9 136.03,-226.97 159.25,-237.25 163.21,-239 167.33,-240.75 171.49,-242.46"/>
<polygon fill="#63b8ff" stroke="#63b8ff" points="169.86,-245.58 180.45,-246.05 172.47,-239.08 169.86,-245.58"/>
</a>
</g>
</g>
<!-- Node18 -->
<g id="Node000018" class="node">
<title>Node18</title>
<g id="a_Node000018"><a xlink:href="group__module__radiation__clouds_ga65efc917e61be764d81f3b550111f8fb.html#ga65efc917e61be764d81f3b550111f8fb" target="_top" xlink:title="This subroutine computes cloud related quantities using zhao/moorthi&#39;s prognostic cloud microphysics ...">
<polygon fill="white" stroke="#666666" points="287.38,-81.5 164.12,-81.5 164.12,-51 287.38,-51 287.38,-81.5"/>
<text xml:space="preserve" text-anchor="start" x="172.12" y="-68" font-family="Source Sans Pro" font-size="10.00">module_radiation_clouds</text>
<text xml:space="preserve" text-anchor="middle" x="225.75" y="-56.75" font-family="Source Sans Pro" font-size="10.00">::progcld_zhao_carr_pdf</text>
</a>
</g>
</g>
<!-- Node1&#45;&gt;Node18 -->
<g id="edge22_Node000001_Node000018" class="edge">
<title>Node1&#45;&gt;Node18</title>
<g id="a_edge22_Node000001_Node000018"><a xlink:title=" ">
<path fill="none" stroke="#63b8ff" d="M74.47,-172.79C91.28,-151.76 123.97,-114.16 159.25,-91.25 161.62,-89.71 164.09,-88.25 166.64,-86.86"/>
<polygon fill="#63b8ff" stroke="#63b8ff" points="167.96,-90.11 175.36,-82.52 164.85,-83.84 167.96,-90.11"/>
</a>
</g>
</g>
<!-- Node19 -->
<g id="Node000019" class="node">
<title>Node19</title>
<g id="a_Node000019"><a xlink:href="group__module__radiation__clouds_gaca12447bedda24f61315dc19c5634997.html#gaca12447bedda24f61315dc19c5634997" target="_top" xlink:title="This subroutine computes cloud related quantities using for unified cloud microphysics scheme.">
<polygon fill="white" stroke="#666666" points="287.38,-32.5 164.12,-32.5 164.12,-2 287.38,-2 287.38,-32.5"/>
<text xml:space="preserve" text-anchor="start" x="172.12" y="-19" font-family="Source Sans Pro" font-size="10.00">module_radiation_clouds</text>
<text xml:space="preserve" text-anchor="middle" x="225.75" y="-7.75" font-family="Source Sans Pro" font-size="10.00">::progclduni</text>
</a>
</g>
</g>
<!-- Node1&#45;&gt;Node19 -->
<g id="edge23_Node000001_Node000019" class="edge">
<title>Node1&#45;&gt;Node19</title>
<g id="a_edge23_Node000001_Node000019"><a xlink:title=" ">
<path fill="none" stroke="#63b8ff" d="M68.98,-172.74C81.8,-143.28 113.47,-78.93 159.25,-42.25 160.92,-40.91 162.68,-39.63 164.49,-38.42"/>
<polygon fill="#63b8ff" stroke="#63b8ff" points="165.81,-41.71 172.68,-33.64 162.28,-35.66 165.81,-41.71"/>
</a>
</g>
</g>
<!-- Node4 -->
<g id="Node000004" class="node">
<title>Node4</title>
<g id="a_Node000004"><a xlink:href="group__module__radiation__clouds_gadaa9a2fee11ea7c86ecd2cb3e0d0f74c.html#gadaa9a2fee11ea7c86ecd2cb3e0d0f74c" target="_top" xlink:title=" ">
<polygon fill="white" stroke="#666666" points="466.5,-326.5 328.25,-326.5 328.25,-296 466.5,-296 466.5,-326.5"/>
<text xml:space="preserve" text-anchor="start" x="336.25" y="-313" font-family="Source Sans Pro" font-size="10.00">module_radiation_clouds</text>
<text xml:space="preserve" text-anchor="middle" x="397.38" y="-301.75" font-family="Source Sans Pro" font-size="10.00">::cloud_fraction_mass_flx_1</text>
</a>
</g>
</g>
<!-- Node3&#45;&gt;Node4 -->
<g id="edge3_Node000003_Node000004" class="edge">
<title>Node3&#45;&gt;Node4</title>
<g id="a_edge3_Node000003_Node000004"><a xlink:title=" ">
<path fill="none" stroke="#63b8ff" d="M287.51,-311.25C296.94,-311.25 306.8,-311.25 316.57,-311.25"/>
<polygon fill="#63b8ff" stroke="#63b8ff" points="316.46,-314.75 326.46,-311.25 316.46,-307.75 316.46,-314.75"/>
</a>
</g>
</g>
<!-- Node5 -->
<g id="Node000005" class="node">
<title>Node5</title>
<g id="a_Node000005"><a xlink:href="group__module__radiation__clouds_ga129e187852f814d10ade63be99965415.html#ga129e187852f814d10ade63be99965415" target="_top" xlink:title="This subroutine computes the Xu&#45;Randall cloud fraction scheme.">
<polygon fill="white" stroke="#666666" points="460.88,-277.5 333.88,-277.5 333.88,-247 460.88,-247 460.88,-277.5"/>
<text xml:space="preserve" text-anchor="start" x="341.88" y="-264" font-family="Source Sans Pro" font-size="10.00">module_radiation_clouds</text>
<text xml:space="preserve" text-anchor="middle" x="397.38" y="-252.75" font-family="Source Sans Pro" font-size="10.00">::cloud_fraction_xurandall</text>
</a>
</g>
</g>
<!-- Node3&#45;&gt;Node5 -->
<g id="edge4_Node000003_Node000005" class="edge">
<title>Node3&#45;&gt;Node5</title>
<g id="a_edge4_Node000003_Node000005"><a xlink:title=" ">
<path fill="none" stroke="#63b8ff" d="M280.89,-295.61C296.87,-290.99 314.54,-285.89 331.15,-281.09"/>
<polygon fill="#63b8ff" stroke="#63b8ff" points="331.79,-284.55 340.43,-278.41 329.85,-277.83 331.79,-284.55"/>
</a>
</g>
</g>
<!-- Node8 -->
<g id="Node000008" class="node">
<title>Node8</title>
<g id="a_Node000008"><a xlink:href="group__module__radiation__clouds_gae11bdd130c90bee7cff8741ec4504bce.html#gae11bdd130c90bee7cff8741ec4504bce" target="_top" xlink:title="Cloud fraction scheme by G. Thompson (NCAR&#45;RAL), not intended for combining with any cumulus or shall...">
<polygon fill="white" stroke="#666666" points="459,-130.5 335.75,-130.5 335.75,-100 459,-100 459,-130.5"/>
<text xml:space="preserve" text-anchor="start" x="343.75" y="-117" font-family="Source Sans Pro" font-size="10.00">module_radiation_clouds</text>
<text xml:space="preserve" text-anchor="middle" x="397.38" y="-105.75" font-family="Source Sans Pro" font-size="10.00">::cal_cldfra3</text>
</a>
</g>
</g>
<!-- Node7&#45;&gt;Node8 -->
<g id="edge7_Node000007_Node000008" class="edge">
<title>Node7&#45;&gt;Node8</title>
<g id="a_edge7_Node000007_Node000008"><a xlink:title=" ">
<path fill="none" stroke="#63b8ff" d="M287.51,-115.25C299.32,-115.25 311.82,-115.25 323.96,-115.25"/>
<polygon fill="#63b8ff" stroke="#63b8ff" points="323.96,-118.75 333.96,-115.25 323.96,-111.75 323.96,-118.75"/>
</a>
</g>
</g>
<!-- Node9 -->
<g id="Node000009" class="node">
<title>Node9</title>
<g id="a_Node000009"><a xlink:href="group__module__radiation__clouds_gab93b09ad19ec692f8efe39d050618efa.html#gab93b09ad19ec692f8efe39d050618efa" target="_top" xlink:title="Do not alter any grid&#45;explicitly resolved hydrometeors, rather only the supposed amounts due to the c...">
<polygon fill="white" stroke="#666666" points="625.75,-213.5 502.5,-213.5 502.5,-183 625.75,-183 625.75,-213.5"/>
<text xml:space="preserve" text-anchor="start" x="510.5" y="-200" font-family="Source Sans Pro" font-size="10.00">module_radiation_clouds</text>
<text xml:space="preserve" text-anchor="middle" x="564.12" y="-188.75" font-family="Source Sans Pro" font-size="10.00">::adjust_cloudfinal</text>
</a>
</g>
</g>
<!-- Node8&#45;&gt;Node9 -->
<g id="edge8_Node000008_Node000009" class="edge">
<title>Node8&#45;&gt;Node9</title>
<g id="a_edge8_Node000008_Node000009"><a xlink:title=" ">
<path fill="none" stroke="#63b8ff" d="M424.46,-130.9C445.25,-143.1 475.29,-160.12 502.5,-173.25 505.78,-174.83 509.19,-176.41 512.64,-177.96"/>
<polygon fill="#63b8ff" stroke="#63b8ff" points="511.09,-181.1 521.66,-181.9 513.89,-174.69 511.09,-181.1"/>
</a>
</g>
</g>
<!-- Node10 -->
<g id="Node000010" class="node">
<title>Node10</title>
<g id="a_Node000010"><a xlink:href="group__module__radiation__clouds_gaec7e19fe843ee220394496a5b4d2ceb1.html#gaec7e19fe843ee220394496a5b4d2ceb1" target="_top" xlink:title="From cloud fraction array, find clouds of multi&#45;level depth and compute a reasonable value of LWP or ...">
<polygon fill="white" stroke="#666666" points="625.75,-164.5 502.5,-164.5 502.5,-134 625.75,-134 625.75,-164.5"/>
<text xml:space="preserve" text-anchor="start" x="510.5" y="-151" font-family="Source Sans Pro" font-size="10.00">module_radiation_clouds</text>
<text xml:space="preserve" text-anchor="middle" x="564.12" y="-139.75" font-family="Source Sans Pro" font-size="10.00">::find_cloudlayers</text>
</a>
</g>
</g>
<!-- Node8&#45;&gt;Node10 -->
<g id="edge9_Node000008_Node000010" class="edge">
<title>Node8&#45;&gt;Node10</title>
<g id="a_edge9_Node000008_Node000010"><a xlink:title=" ">
<path fill="none" stroke="#63b8ff" d="M459.25,-127.81C469.66,-129.96 480.56,-132.21 491.23,-134.41"/>
<polygon fill="#63b8ff" stroke="#63b8ff" points="490.24,-137.78 500.74,-136.38 491.65,-130.93 490.24,-137.78"/>
</a>
</g>
</g>
<!-- Node13 -->
<g id="Node000013" class="node">
<title>Node13</title>
<g id="a_Node000013"><a xlink:href="group__aathompson_ga878bec15133532309ba3036cd2739510.html#ga878bec15133532309ba3036cd2739510" target="_top" xlink:title="THIS FUNCTION CALCULATES THE ICE SATURATION VAPOR MIXING RATIO AS A FUNCTION OF TEMPERATURE AND PRESS...">
<polygon fill="white" stroke="#666666" points="621.25,-97.5 507,-97.5 507,-67 621.25,-67 621.25,-97.5"/>
<text xml:space="preserve" text-anchor="start" x="515" y="-84" font-family="Source Sans Pro" font-size="10.00">module_mp_thompson</text>
<text xml:space="preserve" text-anchor="middle" x="564.12" y="-72.75" font-family="Source Sans Pro" font-size="10.00">::rsif</text>
</a>
</g>
</g>
<!-- Node8&#45;&gt;Node13 -->
<g id="edge12_Node000008_Node000013" class="edge">
<title>Node8&#45;&gt;Node13</title>
<g id="a_edge12_Node000008_Node000013"><a xlink:title=" ">
<path fill="none" stroke="#63b8ff" d="M459.25,-103.06C470.99,-100.7 483.36,-98.23 495.3,-95.84"/>
<polygon fill="#63b8ff" stroke="#63b8ff" points="495.99,-99.27 505.11,-93.87 494.61,-92.4 495.99,-99.27"/>
</a>
</g>
</g>
<!-- Node14 -->
<g id="Node000014" class="node">
<title>Node14</title>
<g id="a_Node000014"><a xlink:href="group__aathompson_ga9617073eff52abf98dd295c8cd83ef24.html#ga9617073eff52abf98dd295c8cd83ef24" target="_top" xlink:title="THIS FUNCTION CALCULATES THE LIQUID SATURATION VAPOR MIXING RATIO AS A FUNCTION OF TEMPERATURE AND PR...">
<polygon fill="white" stroke="#666666" points="621.25,-30.5 507,-30.5 507,0 621.25,0 621.25,-30.5"/>
<text xml:space="preserve" text-anchor="start" x="515" y="-17" font-family="Source Sans Pro" font-size="10.00">module_mp_thompson</text>
<text xml:space="preserve" text-anchor="middle" x="564.12" y="-5.75" font-family="Source Sans Pro" font-size="10.00">::rslf</text>
</a>
</g>
</g>
<!-- Node8&#45;&gt;Node14 -->
<g id="edge14_Node000008_Node000014" class="edge">
<title>Node8&#45;&gt;Node14</title>
<g id="a_edge14_Node000008_Node000014"><a xlink:title=" ">
<path fill="none" stroke="#63b8ff" d="M424.12,-99.62C451.96,-82.72 496.55,-55.66 527.69,-36.76"/>
<polygon fill="#63b8ff" stroke="#63b8ff" points="529.27,-39.9 536,-31.72 525.63,-33.91 529.27,-39.9"/>
</a>
</g>
</g>
<!-- Node11 -->
<g id="Node000011" class="node">
<title>Node11</title>
<g id="a_Node000011"><a xlink:href="group__module__radiation__clouds_ga8f57a217926f989ce3137a0011976f91.html#ga8f57a217926f989ce3137a0011976f91" target="_top" xlink:title=" ">
<polygon fill="white" stroke="#666666" points="785,-188.5 661.75,-188.5 661.75,-158 785,-158 785,-188.5"/>
<text xml:space="preserve" text-anchor="start" x="669.75" y="-175" font-family="Source Sans Pro" font-size="10.00">module_radiation_clouds</text>
<text xml:space="preserve" text-anchor="middle" x="723.38" y="-163.75" font-family="Source Sans Pro" font-size="10.00">::adjust_cloudh2o</text>
</a>
</g>
</g>
<!-- Node10&#45;&gt;Node11 -->
<g id="edge10_Node000010_Node000011" class="edge">
<title>Node10&#45;&gt;Node11</title>
<g id="a_edge10_Node000010_Node000011"><a xlink:title=" ">
<path fill="none" stroke="#63b8ff" d="M625.92,-158.53C633.85,-159.74 642.04,-160.99 650.13,-162.22"/>
<polygon fill="#63b8ff" stroke="#63b8ff" points="649.57,-165.68 659.98,-163.73 650.63,-158.76 649.57,-165.68"/>
</a>
</g>
</g>
<!-- Node12 -->
<g id="Node000012" class="node">
<title>Node12</title>
<g id="a_Node000012"><a xlink:href="group__module__radiation__clouds_ga4e4b598c8fc3fa1252be8d3b149ac5f0.html#ga4e4b598c8fc3fa1252be8d3b149ac5f0" target="_top" xlink:title=" ">
<polygon fill="white" stroke="#666666" points="785,-139.5 661.75,-139.5 661.75,-109 785,-109 785,-139.5"/>
<text xml:space="preserve" text-anchor="start" x="669.75" y="-126" font-family="Source Sans Pro" font-size="10.00">module_radiation_clouds</text>
<text xml:space="preserve" text-anchor="middle" x="723.38" y="-114.75" font-family="Source Sans Pro" font-size="10.00">::adjust_cloudice</text>
</a>
</g>
</g>
<!-- Node10&#45;&gt;Node12 -->
<g id="edge11_Node000010_Node000012" class="edge">
<title>Node10&#45;&gt;Node12</title>
<g id="a_edge11_Node000010_Node000012"><a xlink:title=" ">
<path fill="none" stroke="#63b8ff" d="M625.92,-139.58C633.85,-138.32 642.04,-137.02 650.13,-135.74"/>
<polygon fill="#63b8ff" stroke="#63b8ff" points="650.66,-139.2 659.99,-134.17 649.56,-132.28 650.66,-139.2"/>
</a>
</g>
</g>
<!-- Node13&#45;&gt;Node13 -->
<g id="edge13_Node000013_Node000013" class="edge">
<title>Node13&#45;&gt;Node13</title>
<g id="a_edge13_Node000013_Node000013"><a xlink:title=" ">
<path fill="none" stroke="#63b8ff" d="M535.91,-97.99C530.15,-107.06 539.55,-115.5 564.12,-115.5 577.56,-115.5 586.46,-112.97 590.83,-109.2"/>
<polygon fill="#63b8ff" stroke="#63b8ff" points="594.27,-109.86 592.14,-99.49 587.34,-108.93 594.27,-109.86"/>
</a>
</g>
</g>
<!-- Node14&#45;&gt;Node14 -->
<g id="edge15_Node000014_Node000014" class="edge">
<title>Node14&#45;&gt;Node14</title>
<g id="a_edge15_Node000014_Node000014"><a xlink:title=" ">
<path fill="none" stroke="#63b8ff" d="M535.91,-30.99C530.15,-40.06 539.55,-48.5 564.12,-48.5 577.56,-48.5 586.46,-45.97 590.83,-42.2"/>
<polygon fill="#63b8ff" stroke="#63b8ff" points="594.27,-42.86 592.14,-32.49 587.34,-41.93 594.27,-42.86"/>
</a>
</g>
</g>
<!-- Node15&#45;&gt;Node5 -->
<g id="edge18_Node000015_Node000005" class="edge">
<title>Node15&#45;&gt;Node5</title>
<g id="a_edge18_Node000015_Node000005"><a xlink:title=" ">
<path fill="none" stroke="#63b8ff" d="M280.89,-228.89C296.87,-233.51 314.54,-238.61 331.15,-243.41"/>
<polygon fill="#63b8ff" stroke="#63b8ff" points="329.85,-246.67 340.43,-246.09 331.79,-239.95 329.85,-246.67"/>
</a>
</g>
</g>
<!-- Node16 -->
<g id="Node000016" class="node">
<title>Node16</title>
<g id="a_Node000016"><a xlink:href="group__module__radiation__clouds_ga5b1ca159be8718cc359845b4a62da2c9.html#ga5b1ca159be8718cc359845b4a62da2c9" target="_top" xlink:title=" ">
<polygon fill="white" stroke="#666666" points="466.5,-228.5 328.25,-228.5 328.25,-198 466.5,-198 466.5,-228.5"/>
<text xml:space="preserve" text-anchor="start" x="336.25" y="-215" font-family="Source Sans Pro" font-size="10.00">module_radiation_clouds</text>
<text xml:space="preserve" text-anchor="middle" x="397.38" y="-203.75" font-family="Source Sans Pro" font-size="10.00">::cloud_fraction_mass_flx_2</text>
</a>
</g>
</g>
<!-- Node15&#45;&gt;Node16 -->
<g id="edge17_Node000015_Node000016" class="edge">
<title>Node15&#45;&gt;Node16</title>
<g id="a_edge17_Node000015_Node000016"><a xlink:title=" ">
<path fill="none" stroke="#63b8ff" d="M292.33,-213.25C300.25,-213.25 308.41,-213.25 316.51,-213.25"/>
<polygon fill="#63b8ff" stroke="#63b8ff" points="316.37,-216.75 326.37,-213.25 316.37,-209.75 316.37,-216.75"/>
</a>
</g>
</g>
<!-- Node17&#45;&gt;Node4 -->
<g id="edge20_Node000017_Node000004" class="edge">
<title>Node17&#45;&gt;Node4</title>
<g id="a_edge20_Node000017_Node000004"><a xlink:title=" ">
<path fill="none" stroke="#63b8ff" d="M280.89,-277.89C296.87,-282.51 314.54,-287.61 331.15,-292.41"/>
<polygon fill="#63b8ff" stroke="#63b8ff" points="329.85,-295.67 340.43,-295.09 331.79,-288.95 329.85,-295.67"/>
</a>
</g>
</g>
<!-- Node17&#45;&gt;Node5 -->
<g id="edge21_Node000017_Node000005" class="edge">
<title>Node17&#45;&gt;Node5</title>
<g id="a_edge21_Node000017_Node000005"><a xlink:title=" ">
<path fill="none" stroke="#63b8ff" d="M287.51,-262.25C298.7,-262.25 310.51,-262.25 322.05,-262.25"/>
<polygon fill="#63b8ff" stroke="#63b8ff" points="321.95,-265.75 331.95,-262.25 321.95,-258.75 321.95,-265.75"/>
</a>
</g>
</g>
</g>
</svg>
