<?xml version="1.0" encoding="UTF-8" standalone="no"?>
<!DOCTYPE svg PUBLIC "-//W3C//DTD SVG 1.1//EN"
 "http://www.w3.org/Graphics/SVG/1.1/DTD/svg11.dtd">
<!-- Generated by graphviz version 14.1.2 (20260124.0452)
 -->
<!-- Title: module_mp_nssl_2mom::gamma_dp Pages: 1 -->
<svg width="753pt" height="161pt"
 viewBox="0.00 0.00 753.00 161.00" xmlns="http://www.w3.org/2000/svg" xmlns:xlink="http://www.w3.org/1999/xlink">
<g id="graph0" class="graph" transform="scale(1 1) rotate(0) translate(4 156.5)">
<title>module_mp_nssl_2mom::gamma_dp</title>
<!-- Node1 -->
<g id="Node000001" class="node">
<title>Node1</title>
<g id="a_Node000001"><a xlink:title="Douple&#45;precision complete gamma function (double precision argument).">
<polygon fill="#999999" stroke="#666666" points="745.25,-91.5 623.5,-91.5 623.5,-61 745.25,-61 745.25,-91.5"/>
<text xml:space="preserve" text-anchor="start" x="631.5" y="-78" font-family="Source Sans Pro" font-size="10.00">module_mp_nssl_2mom</text>
<text xml:space="preserve" text-anchor="middle" x="684.38" y="-66.75" font-family="Source Sans Pro" font-size="10.00">::gamma_dp</text>
</a>
</g>
</g>
<!-- Node1&#45;&gt;Node1 -->
<g id="edge1_Node000001_Node000001" class="edge">
<title>Node1&#45;&gt;Node1</title>
<g id="a_edge1_Node000001_Node000001"><a xlink:title=" ">
<path fill="none" stroke="#63b8ff" d="M710.83,-103.2C706.5,-106.97 697.69,-109.5 684.38,-109.5 660.03,-109.5 650.72,-101.06 656.42,-91.99"/>
<polygon fill="#63b8ff" stroke="#63b8ff" points="714.27,-103.86 712.13,-93.49 707.33,-102.93 714.27,-103.86"/>
</a>
</g>
</g>
<!-- Node2 -->
<g id="Node000002" class="node">
<title>Node2</title>
<g id="a_Node000002"><a xlink:href="group__mod__nsslmp_ga4769e7fe84d08e5a07e8f9ea56914762.html#ga4769e7fe84d08e5a07e8f9ea56914762" target="_top" xlink:title="Douple&#45;precision complete gamma function (single precision input).">
<polygon fill="white" stroke="#666666" points="587.5,-134.5 465.75,-134.5 465.75,-104 587.5,-104 587.5,-134.5"/>
<text xml:space="preserve" text-anchor="start" x="473.75" y="-121" font-family="Source Sans Pro" font-size="10.00">module_mp_nssl_2mom</text>
<text xml:space="preserve" text-anchor="middle" x="526.62" y="-109.75" font-family="Source Sans Pro" font-size="10.00">::gamma_dpr</text>
</a>
</g>
</g>
<!-- Node1&#45;&gt;Node2 -->
<g id="edge2_Node000001_Node000002" class="edge">
<title>Node1&#45;&gt;Node2</title>
<g id="a_edge2_Node000001_Node000002"><a xlink:title=" ">
<path fill="none" stroke="#63b8ff" d="M615.92,-94.87C605.45,-97.76 594.72,-100.73 584.51,-103.54"/>
<polygon fill="#63b8ff" stroke="#63b8ff" points="616.54,-98.33 625.25,-92.3 614.68,-91.59 616.54,-98.33"/>
</a>
</g>
</g>
<!-- Node3 -->
<g id="Node000003" class="node">
<title>Node3</title>
<g id="a_Node000003"><a xlink:href="group__mod__nsslmp_gaa9669dfecb88fa29ceefb152f3a24b9e.html#gaa9669dfecb88fa29ceefb152f3a24b9e" target="_top" xlink:title="NSSL MP setup routine (sets local options and array indices).">
<polygon fill="white" stroke="#666666" points="429.75,-91.5 308,-91.5 308,-61 429.75,-61 429.75,-91.5"/>
<text xml:space="preserve" text-anchor="start" x="316" y="-78" font-family="Source Sans Pro" font-size="10.00">module_mp_nssl_2mom</text>
<text xml:space="preserve" text-anchor="middle" x="368.88" y="-66.75" font-family="Source Sans Pro" font-size="10.00">::nssl_2mom_init</text>
</a>
</g>
</g>
<!-- Node1&#45;&gt;Node3 -->
<g id="edge12_Node000001_Node000003" class="edge">
<title>Node1&#45;&gt;Node3</title>
<g id="a_edge12_Node000001_Node000003"><a xlink:title=" ">
<path fill="none" stroke="#63b8ff" d="M611.9,-76.25C556.95,-76.25 481.9,-76.25 430.01,-76.25"/>
<polygon fill="#63b8ff" stroke="#63b8ff" points="611.79,-79.75 621.79,-76.25 611.79,-72.75 611.79,-79.75"/>
</a>
</g>
</g>
<!-- Node5 -->
<g id="Node000005" class="node">
<title>Node5</title>
<g id="a_Node000005"><a xlink:href="group__mod__nsslmp_gaaf4043a7ae72d6c12e0326a9d3c16dd0.html#gaaf4043a7ae72d6c12e0326a9d3c16dd0" target="_top" xlink:title="Double&#45;precision incomplete gamma function (single precision args).">
<polygon fill="white" stroke="#666666" points="587.5,-30.5 465.75,-30.5 465.75,0 587.5,0 587.5,-30.5"/>
<text xml:space="preserve" text-anchor="start" x="473.75" y="-17" font-family="Source Sans Pro" font-size="10.00">module_mp_nssl_2mom</text>
<text xml:space="preserve" text-anchor="middle" x="526.62" y="-5.75" font-family="Source Sans Pro" font-size="10.00">::gamxinfdp</text>
</a>
</g>
</g>
<!-- Node1&#45;&gt;Node5 -->
<g id="edge6_Node000001_Node000005" class="edge">
<title>Node1&#45;&gt;Node5</title>
<g id="a_edge6_Node000001_Node000005"><a xlink:title=" ">
<path fill="none" stroke="#63b8ff" d="M632.56,-56.35C611.48,-48.09 587.38,-38.65 567.6,-30.91"/>
<polygon fill="#63b8ff" stroke="#63b8ff" points="631.27,-59.6 641.86,-59.99 633.82,-53.08 631.27,-59.6"/>
</a>
</g>
</g>
<!-- Node2&#45;&gt;Node2 -->
<g id="edge3_Node000002_Node000002" class="edge">
<title>Node2&#45;&gt;Node2</title>
<g id="a_edge3_Node000002_Node000002"><a xlink:title=" ">
<path fill="none" stroke="#63b8ff" d="M553.08,-146.2C548.75,-149.97 539.94,-152.5 526.62,-152.5 502.28,-152.5 492.97,-144.06 498.67,-134.99"/>
<polygon fill="#63b8ff" stroke="#63b8ff" points="556.52,-146.86 554.38,-136.49 549.58,-145.93 556.52,-146.86"/>
</a>
</g>
</g>
<!-- Node2&#45;&gt;Node3 -->
<g id="edge4_Node000002_Node000003" class="edge">
<title>Node2&#45;&gt;Node3</title>
<g id="a_edge4_Node000002_Node000003"><a xlink:title=" ">
<path fill="none" stroke="#63b8ff" d="M458.17,-100.63C447.7,-97.74 436.97,-94.77 426.76,-91.96"/>
<polygon fill="#63b8ff" stroke="#63b8ff" points="456.93,-103.91 467.5,-103.2 458.79,-97.17 456.93,-103.91"/>
</a>
</g>
</g>
<!-- Node4 -->
<g id="Node000004" class="node">
<title>Node4</title>
<g id="a_Node000004"><a xlink:href="group__nsslmp_ga5b91dc9cad0a4fb77651aeeaacc40854.html#ga5b91dc9cad0a4fb77651aeeaacc40854" target="_top" xlink:title="This subroutine is a wrapper around the nssl_2mom_init().">
<polygon fill="white" stroke="#666666" points="267.88,-85.88 154.38,-85.88 154.38,-66.62 267.88,-66.62 267.88,-85.88"/>
<text xml:space="preserve" text-anchor="middle" x="211.12" y="-72.38" font-family="Source Sans Pro" font-size="10.00">mp_nssl::mp_nssl_init</text>
</a>
</g>
</g>
<!-- Node3&#45;&gt;Node4 -->
<g id="edge5_Node000003_Node000004" class="edge">
<title>Node3&#45;&gt;Node4</title>
<g id="a_edge5_Node000003_Node000004"><a xlink:title=" ">
<path fill="none" stroke="#63b8ff" d="M296.31,-76.25C286.93,-76.25 277.43,-76.25 268.35,-76.25"/>
<polygon fill="#63b8ff" stroke="#63b8ff" points="296.14,-79.75 306.14,-76.25 296.14,-72.75 296.14,-79.75"/>
</a>
</g>
</g>
<!-- Node5&#45;&gt;Node3 -->
<g id="edge11_Node000005_Node000003" class="edge">
<title>Node5&#45;&gt;Node3</title>
<g id="a_edge11_Node000005_Node000003"><a xlink:title=" ">
<path fill="none" stroke="#63b8ff" d="M474.81,-35.15C453.73,-43.41 429.63,-52.85 409.85,-60.59"/>
<polygon fill="#63b8ff" stroke="#63b8ff" points="476.07,-38.42 484.11,-31.51 473.52,-31.9 476.07,-38.42"/>
</a>
</g>
</g>
<!-- Node5&#45;&gt;Node5 -->
<g id="edge7_Node000005_Node000005" class="edge">
<title>Node5&#45;&gt;Node5</title>
<g id="a_edge7_Node000005_Node000005"><a xlink:title=" ">
<path fill="none" stroke="#63b8ff" d="M553.08,-42.2C548.75,-45.97 539.94,-48.5 526.62,-48.5 502.28,-48.5 492.97,-40.06 498.67,-30.99"/>
<polygon fill="#63b8ff" stroke="#63b8ff" points="556.52,-42.86 554.38,-32.49 549.58,-41.93 556.52,-42.86"/>
</a>
</g>
</g>
<!-- Node6 -->
<g id="Node000006" class="node">
<title>Node6</title>
<g id="a_Node000006"><a xlink:href="group__mod__nsslmp_ga5c0f9300bf6b78c4b9d5390e53e45b67.html#ga5c0f9300bf6b78c4b9d5390e53e45b67" target="_top" xlink:title="Main microphysical processes routine.">
<polygon fill="white" stroke="#666666" points="429.75,-30.5 308,-30.5 308,0 429.75,0 429.75,-30.5"/>
<text xml:space="preserve" text-anchor="start" x="316" y="-17" font-family="Source Sans Pro" font-size="10.00">module_mp_nssl_2mom</text>
<text xml:space="preserve" text-anchor="middle" x="368.88" y="-5.75" font-family="Source Sans Pro" font-size="10.00">::nssl_2mom_gs</text>
</a>
</g>
</g>
<!-- Node5&#45;&gt;Node6 -->
<g id="edge8_Node000005_Node000006" class="edge">
<title>Node5&#45;&gt;Node6</title>
<g id="a_edge8_Node000005_Node000006"><a xlink:title=" ">
<path fill="none" stroke="#63b8ff" d="M454.17,-15.25C446.15,-15.25 438.05,-15.25 430.19,-15.25"/>
<polygon fill="#63b8ff" stroke="#63b8ff" points="453.89,-18.75 463.89,-15.25 453.89,-11.75 453.89,-18.75"/>
</a>
</g>
</g>
<!-- Node7 -->
<g id="Node000007" class="node">
<title>Node7</title>
<g id="a_Node000007"><a xlink:href="group__mod__nsslmp_gaf719f942556bb1676739cbdff304e714.html#gaf719f942556bb1676739cbdff304e714" target="_top" xlink:title="Driver subroutine that copies state data to local 2D arrays for microphysics calls.">
<polygon fill="white" stroke="#666666" points="272,-30.5 150.25,-30.5 150.25,0 272,0 272,-30.5"/>
<text xml:space="preserve" text-anchor="start" x="158.25" y="-17" font-family="Source Sans Pro" font-size="10.00">module_mp_nssl_2mom</text>
<text xml:space="preserve" text-anchor="middle" x="211.12" y="-5.75" font-family="Source Sans Pro" font-size="10.00">::nssl_2mom_driver</text>
</a>
</g>
</g>
<!-- Node6&#45;&gt;Node7 -->
<g id="edge9_Node000006_Node000007" class="edge">
<title>Node6&#45;&gt;Node7</title>
<g id="a_edge9_Node000006_Node000007"><a xlink:title=" ">
<path fill="none" stroke="#63b8ff" d="M296.42,-15.25C288.4,-15.25 280.3,-15.25 272.44,-15.25"/>
<polygon fill="#63b8ff" stroke="#63b8ff" points="296.14,-18.75 306.14,-15.25 296.14,-11.75 296.14,-18.75"/>
</a>
</g>
</g>
<!-- Node8 -->
<g id="Node000008" class="node">
<title>Node8</title>
<g id="a_Node000008"><a xlink:href="group__nsslmp_gab213e8268947d3497e02437e7634b614.html#gab213e8268947d3497e02437e7634b614" target="_top" xlink:title=" ">
<polygon fill="white" stroke="#666666" points="114.25,-24.88 0,-24.88 0,-5.63 114.25,-5.63 114.25,-24.88"/>
<text xml:space="preserve" text-anchor="middle" x="57.13" y="-11.38" font-family="Source Sans Pro" font-size="10.00">mp_nssl::mp_nssl_run</text>
</a>
</g>
</g>
<!-- Node7&#45;&gt;Node8 -->
<g id="edge10_Node000007_Node000008" class="edge">
<title>Node7&#45;&gt;Node8</title>
<g id="a_edge10_Node000007_Node000008"><a xlink:title=" ">
<path fill="none" stroke="#63b8ff" d="M138.6,-15.25C130.44,-15.25 122.22,-15.25 114.3,-15.25"/>
<polygon fill="#63b8ff" stroke="#63b8ff" points="138.54,-18.75 148.54,-15.25 138.54,-11.75 138.54,-18.75"/>
</a>
</g>
</g>
</g>
</svg>
