<?xml version="1.0" encoding="UTF-8" standalone="no"?>
<!DOCTYPE svg PUBLIC "-//W3C//DTD SVG 1.1//EN"
 "http://www.w3.org/Graphics/SVG/1.1/DTD/svg11.dtd">
<!-- Generated by graphviz version 14.1.2 (20260124.0452)
 -->
<!-- Title: gfdl_cloud_microphys_mod::qsmith_init Pages: 1 -->
<svg width="265pt" height="186pt"
 viewBox="0.00 0.00 265.00 186.00" xmlns="http://www.w3.org/2000/svg" xmlns:xlink="http://www.w3.org/1999/xlink">
<g id="graph0" class="graph" transform="scale(1 1) rotate(0) translate(4 181.5)">
<title>gfdl_cloud_microphys_mod::qsmith_init</title>
<!-- Node1 -->
<g id="Node000001" class="node">
<title>Node1</title>
<g id="a_Node000001"><a xlink:title="The subroutine &#39;qsmith_init&#39; initializes lookup tables for saturation water vapor pressure for the fo...">
<polygon fill="#999999" stroke="#666666" points="110.5,-103.5 0,-103.5 0,-73 110.5,-73 110.5,-103.5"/>
<text xml:space="preserve" text-anchor="start" x="8" y="-90" font-family="Source Sans Pro" font-size="10.00">gfdl_cloud_microphys</text>
<text xml:space="preserve" text-anchor="middle" x="55.25" y="-78.75" font-family="Source Sans Pro" font-size="10.00">_mod::qsmith_init</text>
</a>
</g>
</g>
<!-- Node2 -->
<g id="Node000002" class="node">
<title>Node2</title>
<g id="a_Node000002"><a xlink:href="group__mod__gfdl__cloud__mp_ga18d5c58ee290deae68744c2bec32c4c5.html#ga18d5c58ee290deae68744c2bec32c4c5" target="_top" xlink:title="saturation water vapor pressure table i">
<polygon fill="white" stroke="#666666" points="257,-177.5 146.5,-177.5 146.5,-147 257,-147 257,-177.5"/>
<text xml:space="preserve" text-anchor="start" x="154.5" y="-164" font-family="Source Sans Pro" font-size="10.00">gfdl_cloud_microphys</text>
<text xml:space="preserve" text-anchor="middle" x="201.75" y="-152.75" font-family="Source Sans Pro" font-size="10.00">_mod::qs_table</text>
</a>
</g>
</g>
<!-- Node1&#45;&gt;Node2 -->
<g id="edge1_Node000001_Node000002" class="edge">
<title>Node1&#45;&gt;Node2</title>
<g id="a_edge1_Node000001_Node000002"><a xlink:title=" ">
<path fill="none" stroke="#63b8ff" d="M84.05,-103.96C101.77,-113.81 125.3,-126.63 146.5,-137.25 149.41,-138.71 152.43,-140.19 155.47,-141.66"/>
<polygon fill="#63b8ff" stroke="#63b8ff" points="153.96,-144.81 164.49,-145.93 156.96,-138.49 153.96,-144.81"/>
</a>
</g>
</g>
<!-- Node3 -->
<g id="Node000003" class="node">
<title>Node3</title>
<g id="a_Node000003"><a xlink:href="group__mod__gfdl__cloud__mp_ga60322d5daf9ba9251ef2ed8c43d44fd2.html#ga60322d5daf9ba9251ef2ed8c43d44fd2" target="_top" xlink:title="saturation water vapor pressure table iii">
<polygon fill="white" stroke="#666666" points="257,-128.5 146.5,-128.5 146.5,-98 257,-98 257,-128.5"/>
<text xml:space="preserve" text-anchor="start" x="154.5" y="-115" font-family="Source Sans Pro" font-size="10.00">gfdl_cloud_microphys</text>
<text xml:space="preserve" text-anchor="middle" x="201.75" y="-103.75" font-family="Source Sans Pro" font-size="10.00">_mod::qs_table2</text>
</a>
</g>
</g>
<!-- Node1&#45;&gt;Node3 -->
<g id="edge2_Node000001_Node000003" class="edge">
<title>Node1&#45;&gt;Node3</title>
<g id="a_edge2_Node000001_Node000003"><a xlink:title=" ">
<path fill="none" stroke="#63b8ff" d="M110.88,-97.7C118.7,-99.05 126.82,-100.46 134.83,-101.84"/>
<polygon fill="#63b8ff" stroke="#63b8ff" points="134.1,-105.27 144.55,-103.53 135.3,-98.37 134.1,-105.27"/>
</a>
</g>
</g>
<!-- Node4 -->
<g id="Node000004" class="node">
<title>Node4</title>
<g id="a_Node000004"><a xlink:href="group__mod__gfdl__cloud__mp_ga21d253eb6564b469a272e71bbd227e6d.html#ga21d253eb6564b469a272e71bbd227e6d" target="_top" xlink:title="saturation water vapor pressure table iv">
<polygon fill="white" stroke="#666666" points="257,-79.5 146.5,-79.5 146.5,-49 257,-49 257,-79.5"/>
<text xml:space="preserve" text-anchor="start" x="154.5" y="-66" font-family="Source Sans Pro" font-size="10.00">gfdl_cloud_microphys</text>
<text xml:space="preserve" text-anchor="middle" x="201.75" y="-54.75" font-family="Source Sans Pro" font-size="10.00">_mod::qs_table3</text>
</a>
</g>
</g>
<!-- Node1&#45;&gt;Node4 -->
<g id="edge3_Node000001_Node000004" class="edge">
<title>Node1&#45;&gt;Node4</title>
<g id="a_edge3_Node000001_Node000004"><a xlink:title=" ">
<path fill="none" stroke="#63b8ff" d="M110.88,-79.18C118.7,-77.88 126.82,-76.53 134.83,-75.2"/>
<polygon fill="#63b8ff" stroke="#63b8ff" points="135.26,-78.68 144.55,-73.58 134.11,-71.77 135.26,-78.68"/>
</a>
</g>
</g>
<!-- Node5 -->
<g id="Node000005" class="node">
<title>Node5</title>
<g id="a_Node000005"><a xlink:href="group__mod__gfdl__cloud__mp_gad400136557e150361b753efa60a42d71.html#gad400136557e150361b753efa60a42d71" target="_top" xlink:title="saturation water vapor pressure table ii">
<polygon fill="white" stroke="#666666" points="257,-30.5 146.5,-30.5 146.5,0 257,0 257,-30.5"/>
<text xml:space="preserve" text-anchor="start" x="154.5" y="-17" font-family="Source Sans Pro" font-size="10.00">gfdl_cloud_microphys</text>
<text xml:space="preserve" text-anchor="middle" x="201.75" y="-5.75" font-family="Source Sans Pro" font-size="10.00">_mod::qs_tablew</text>
</a>
</g>
</g>
<!-- Node1&#45;&gt;Node5 -->
<g id="edge4_Node000001_Node000005" class="edge">
<title>Node1&#45;&gt;Node5</title>
<g id="a_edge4_Node000001_Node000005"><a xlink:title=" ">
<path fill="none" stroke="#63b8ff" d="M84.49,-72.7C102.17,-63.09 125.51,-50.66 146.5,-40.25 149.42,-38.8 152.44,-37.34 155.49,-35.87"/>
<polygon fill="#63b8ff" stroke="#63b8ff" points="156.97,-39.04 164.51,-31.61 153.98,-32.72 156.97,-39.04"/>
</a>
</g>
</g>
</g>
</svg>
