<?xml version="1.0" encoding="UTF-8" standalone="no"?>
<!DOCTYPE svg PUBLIC "-//W3C//DTD SVG 1.1//EN"
 "http://www.w3.org/Graphics/SVG/1.1/DTD/svg11.dtd">
<!-- Generated by graphviz version 14.1.2 (20260124.0452)
 -->
<!-- Title: psi_init Pages: 1 -->
<svg width="318pt" height="163pt"
 viewBox="0.00 0.00 318.00 163.00" xmlns="http://www.w3.org/2000/svg" xmlns:xlink="http://www.w3.org/1999/xlink">
<g id="graph0" class="graph" transform="scale(1 1) rotate(0) translate(4 159.25)">
<title>psi_init</title>
<!-- Node1 -->
<g id="Node000001" class="node">
<title>Node1</title>
<g id="a_Node000001"><a xlink:title=" ">
<polygon fill="#999999" stroke="#666666" points="46.75,-66.25 0,-66.25 0,-47 46.75,-47 46.75,-66.25"/>
<text xml:space="preserve" text-anchor="middle" x="23.38" y="-52.75" font-family="Source Sans Pro" font-size="10.00">psi_init</text>
</a>
</g>
</g>
<!-- Node2 -->
<g id="Node000002" class="node">
<title>Node2</title>
<g id="a_Node000002"><a xlink:href="group__mynn__sfc_ga381ef2e5dcc86392a5e0912234fa8eee.html#ga381ef2e5dcc86392a5e0912234fa8eee" target="_top" xlink:title=" ">
<polygon fill="white" stroke="#666666" points="303,-137.25 219.5,-137.25 219.5,-118 303,-118 303,-137.25"/>
<text xml:space="preserve" text-anchor="middle" x="261.25" y="-123.75" font-family="Source Sans Pro" font-size="10.00">psih_stable_full</text>
</a>
</g>
</g>
<!-- Node1&#45;&gt;Node2 -->
<g id="edge1_Node000001_Node000002" class="edge">
<title>Node1&#45;&gt;Node2</title>
<g id="a_edge1_Node000001_Node000002"><a xlink:title=" ">
<path fill="none" stroke="#63b8ff" d="M31.32,-66.63C41.08,-79.79 60.23,-102.45 82.75,-112.62 122.04,-130.38 171.18,-133.25 207.78,-132.17"/>
<polygon fill="#63b8ff" stroke="#63b8ff" points="207.84,-135.67 217.69,-131.76 207.55,-128.68 207.84,-135.67"/>
</a>
</g>
</g>
<!-- Node3 -->
<g id="Node000003" class="node">
<title>Node3</title>
<g id="a_Node000003"><a xlink:href="group__mynn__sfc_gaeb753808f2ff0e0954f848137dc4b51d.html#gaeb753808f2ff0e0954f848137dc4b51d" target="_top" xlink:title=" ">
<polygon fill="white" stroke="#666666" points="176.75,-85.25 82.75,-85.25 82.75,-66 176.75,-66 176.75,-85.25"/>
<text xml:space="preserve" text-anchor="middle" x="129.75" y="-71.75" font-family="Source Sans Pro" font-size="10.00">psih_unstable_full</text>
</a>
</g>
</g>
<!-- Node1&#45;&gt;Node3 -->
<g id="edge3_Node000001_Node000003" class="edge">
<title>Node1&#45;&gt;Node3</title>
<g id="a_edge3_Node000001_Node000003"><a xlink:title=" ">
<path fill="none" stroke="#63b8ff" d="M47.02,-60.75C54.28,-62.07 62.67,-63.6 71.25,-65.16"/>
<polygon fill="#63b8ff" stroke="#63b8ff" points="70.61,-68.6 81.07,-66.95 71.86,-61.71 70.61,-68.6"/>
</a>
</g>
</g>
<!-- Node4 -->
<g id="Node000004" class="node">
<title>Node4</title>
<g id="a_Node000004"><a xlink:href="group__mynn__sfc_ga81004abe9ba55cfcae3d491e5711e235.html#ga81004abe9ba55cfcae3d491e5711e235" target="_top" xlink:title=" ">
<polygon fill="white" stroke="#666666" points="304.5,-79.25 218,-79.25 218,-60 304.5,-60 304.5,-79.25"/>
<text xml:space="preserve" text-anchor="middle" x="261.25" y="-65.75" font-family="Source Sans Pro" font-size="10.00">psim_stable_full</text>
</a>
</g>
</g>
<!-- Node1&#45;&gt;Node4 -->
<g id="edge10_Node000001_Node000004" class="edge">
<title>Node1&#45;&gt;Node4</title>
<g id="a_edge10_Node000001_Node000004"><a xlink:title=" ">
<path fill="none" stroke="#63b8ff" d="M47.13,-55.53C76.96,-54.35 130.86,-53.07 176.75,-56.62 186.42,-57.37 196.67,-58.6 206.55,-60.01"/>
<polygon fill="#63b8ff" stroke="#63b8ff" points="206.01,-63.47 216.42,-61.51 207.06,-56.55 206.01,-63.47"/>
</a>
</g>
</g>
<!-- Node5 -->
<g id="Node000005" class="node">
<title>Node5</title>
<g id="a_Node000005"><a xlink:href="group__mynn__sfc_ga549207c176216c3344d8565fc6d484e1.html#ga549207c176216c3344d8565fc6d484e1" target="_top" xlink:title=" ">
<polygon fill="white" stroke="#666666" points="309.75,-19.25 212.75,-19.25 212.75,0 309.75,0 309.75,-19.25"/>
<text xml:space="preserve" text-anchor="middle" x="261.25" y="-5.75" font-family="Source Sans Pro" font-size="10.00">psim_unstable_full</text>
</a>
</g>
</g>
<!-- Node1&#45;&gt;Node5 -->
<g id="edge11_Node000001_Node000005" class="edge">
<title>Node1&#45;&gt;Node5</title>
<g id="a_edge11_Node000001_Node000005"><a xlink:title=" ">
<path fill="none" stroke="#63b8ff" d="M46.99,-52.12C82.26,-45.09 151.5,-31.29 201.53,-21.32"/>
<polygon fill="#63b8ff" stroke="#63b8ff" points="201.93,-24.82 211.05,-19.43 200.56,-17.95 201.93,-24.82"/>
</a>
</g>
</g>
<!-- Node2&#45;&gt;Node2 -->
<g id="edge2_Node000002_Node000002" class="edge">
<title>Node2&#45;&gt;Node2</title>
<g id="a_edge2_Node000002_Node000002"><a xlink:title=" ">
<path fill="none" stroke="#63b8ff" d="M240.66,-137.54C231.27,-146.15 238.13,-155.25 261.25,-155.25 273.89,-155.25 281.67,-152.53 284.59,-148.65"/>
<polygon fill="#63b8ff" stroke="#63b8ff" points="288,-147.87 282.2,-139.01 281.21,-149.56 288,-147.87"/>
</a>
</g>
</g>
<!-- Node3&#45;&gt;Node2 -->
<g id="edge4_Node000003_Node000002" class="edge">
<title>Node3&#45;&gt;Node2</title>
<g id="a_edge4_Node000003_Node000002"><a xlink:title=" ">
<path fill="none" stroke="#63b8ff" d="M155.72,-85.65C175.34,-93.53 202.91,-104.6 224.81,-113.39"/>
<polygon fill="#63b8ff" stroke="#63b8ff" points="223.37,-116.59 233.95,-117.07 225.98,-110.09 223.37,-116.59"/>
</a>
</g>
</g>
<!-- Node3&#45;&gt;Node3 -->
<g id="edge5_Node000003_Node000003" class="edge">
<title>Node3&#45;&gt;Node3</title>
<g id="a_edge5_Node000003_Node000003"><a xlink:title=" ">
<path fill="none" stroke="#63b8ff" d="M113.1,-85.54C105.5,-94.15 111.05,-103.25 129.75,-103.25 139.98,-103.25 146.27,-100.53 148.63,-96.65"/>
<polygon fill="#63b8ff" stroke="#63b8ff" points="152.1,-96.14 146.7,-87.02 145.23,-97.51 152.1,-96.14"/>
</a>
</g>
</g>
<!-- Node3&#45;&gt;Node4 -->
<g id="edge6_Node000003_Node000004" class="edge">
<title>Node3&#45;&gt;Node4</title>
<g id="a_edge6_Node000003_Node000004"><a xlink:title=" ">
<path fill="none" stroke="#63b8ff" d="M177.14,-73.48C186.63,-73.04 196.7,-72.57 206.43,-72.12"/>
<polygon fill="#63b8ff" stroke="#63b8ff" points="206.3,-75.63 216.13,-71.67 205.97,-68.64 206.3,-75.63"/>
</a>
</g>
</g>
<!-- Node3&#45;&gt;Node5 -->
<g id="edge8_Node000003_Node000005" class="edge">
<title>Node3&#45;&gt;Node5</title>
<g id="a_edge8_Node000003_Node000005"><a xlink:title=" ">
<path fill="none" stroke="#63b8ff" d="M150.42,-65.6C171.62,-54.8 205.63,-37.46 230.19,-24.95"/>
<polygon fill="#63b8ff" stroke="#63b8ff" points="231.73,-28.09 239.05,-20.43 228.55,-21.85 231.73,-28.09"/>
</a>
</g>
</g>
<!-- Node4&#45;&gt;Node4 -->
<g id="edge7_Node000004_Node000004" class="edge">
<title>Node4&#45;&gt;Node4</title>
<g id="a_edge7_Node000004_Node000004"><a xlink:title=" ">
<path fill="none" stroke="#63b8ff" d="M240.66,-79.54C231.27,-88.15 238.13,-97.25 261.25,-97.25 273.89,-97.25 281.67,-94.53 284.59,-90.65"/>
<polygon fill="#63b8ff" stroke="#63b8ff" points="288,-89.87 282.2,-81.01 281.21,-91.56 288,-89.87"/>
</a>
</g>
</g>
<!-- Node5&#45;&gt;Node5 -->
<g id="edge9_Node000005_Node000005" class="edge">
<title>Node5&#45;&gt;Node5</title>
<g id="a_edge9_Node000005_Node000005"><a xlink:title=" ">
<path fill="none" stroke="#63b8ff" d="M240.66,-19.54C231.27,-28.15 238.13,-37.25 261.25,-37.25 273.89,-37.25 281.67,-34.53 284.59,-30.65"/>
<polygon fill="#63b8ff" stroke="#63b8ff" points="288,-29.87 282.2,-21.01 281.21,-31.56 288,-29.87"/>
</a>
</g>
</g>
</g>
</svg>
