<?xml version="1.0" encoding="UTF-8" standalone="no"?>
<!DOCTYPE svg PUBLIC "-//W3C//DTD SVG 1.1//EN"
 "http://www.w3.org/Graphics/SVG/1.1/DTD/svg11.dtd">
<!-- Generated by graphviz version 14.1.2 (20260124.0452)
 -->
<!-- Title: gfdl_cloud_microphys_mod::gfdl_cloud_microphys_mod_init Pages: 1 -->
<svg width="588pt" height="186pt"
 viewBox="0.00 0.00 588.00 186.00" xmlns="http://www.w3.org/2000/svg" xmlns:xlink="http://www.w3.org/1999/xlink">
<g id="graph0" class="graph" transform="scale(1 1) rotate(0) translate(4 181.5)">
<title>gfdl_cloud_microphys_mod::gfdl_cloud_microphys_mod_init</title>
<!-- Node1 -->
<g id="Node000001" class="node">
<title>Node1</title>
<g id="a_Node000001"><a xlink:title="The subroutine &#39;gfdl_cloud_microphys_init&#39; initializes the GFDL cloud microphysics.">
<polygon fill="#999999" stroke="#666666" points="140.5,-84.12 0,-84.12 0,-42.38 140.5,-42.38 140.5,-84.12"/>
<text xml:space="preserve" text-anchor="start" x="8" y="-70.62" font-family="Source Sans Pro" font-size="10.00">gfdl_cloud_microphys</text>
<text xml:space="preserve" text-anchor="start" x="8" y="-59.38" font-family="Source Sans Pro" font-size="10.00">_mod::gfdl_cloud_microphys</text>
<text xml:space="preserve" text-anchor="middle" x="70.25" y="-48.12" font-family="Source Sans Pro" font-size="10.00">_mod_init</text>
</a>
</g>
</g>
<!-- Node2 -->
<g id="Node000002" class="node">
<title>Node2</title>
<g id="a_Node000002"><a xlink:href="group__mod__gfdl__cloud__mp_gae73658e16d99bd2fd887547ba13c0489.html#gae73658e16d99bd2fd887547ba13c0489" target="_top" xlink:title="The subroutine &#39;setup_con&#39; sets up constants and calls &#39;qsmith_init&#39;.">
<polygon fill="white" stroke="#666666" points="287,-103.5 176.5,-103.5 176.5,-73 287,-73 287,-103.5"/>
<text xml:space="preserve" text-anchor="start" x="184.5" y="-90" font-family="Source Sans Pro" font-size="10.00">gfdl_cloud_microphys</text>
<text xml:space="preserve" text-anchor="middle" x="231.75" y="-78.75" font-family="Source Sans Pro" font-size="10.00">_mod::setup_con</text>
</a>
</g>
</g>
<!-- Node1&#45;&gt;Node2 -->
<g id="edge1_Node000001_Node000002" class="edge">
<title>Node1&#45;&gt;Node2</title>
<g id="a_edge1_Node000001_Node000002"><a xlink:title=" ">
<path fill="none" stroke="#63b8ff" d="M140.75,-74.14C148.85,-75.41 157.09,-76.71 165.14,-77.97"/>
<polygon fill="#63b8ff" stroke="#63b8ff" points="164.43,-81.4 174.86,-79.49 165.52,-74.48 164.43,-81.4"/>
</a>
</g>
</g>
<!-- Node8 -->
<g id="Node000008" class="node">
<title>Node8</title>
<g id="a_Node000008"><a xlink:href="group__mod__gfdl__cloud__mp_ga9b7449b48c0d7ba5eab0eba122908d51.html#ga9b7449b48c0d7ba5eab0eba122908d51" target="_top" xlink:title="The subroutine sets up gfdl cloud microphysics parameters.">
<polygon fill="white" stroke="#666666" points="287,-54.5 176.5,-54.5 176.5,-24 287,-24 287,-54.5"/>
<text xml:space="preserve" text-anchor="start" x="184.5" y="-41" font-family="Source Sans Pro" font-size="10.00">gfdl_cloud_microphys</text>
<text xml:space="preserve" text-anchor="middle" x="231.75" y="-29.75" font-family="Source Sans Pro" font-size="10.00">_mod::setupm</text>
</a>
</g>
</g>
<!-- Node1&#45;&gt;Node8 -->
<g id="edge7_Node000001_Node000008" class="edge">
<title>Node1&#45;&gt;Node8</title>
<g id="a_edge7_Node000001_Node000008"><a xlink:title=" ">
<path fill="none" stroke="#63b8ff" d="M140.75,-52.79C148.85,-51.57 157.09,-50.33 165.14,-49.12"/>
<polygon fill="#63b8ff" stroke="#63b8ff" points="165.49,-52.61 174.85,-47.66 164.44,-45.69 165.49,-52.61"/>
</a>
</g>
</g>
<!-- Node3 -->
<g id="Node000003" class="node">
<title>Node3</title>
<g id="a_Node000003"><a xlink:href="group__mod__gfdl__cloud__mp_gac22a96714d2fdfba424e9b29c460874e.html#gac22a96714d2fdfba424e9b29c460874e" target="_top" xlink:title="The subroutine &#39;qsmith_init&#39; initializes lookup tables for saturation water vapor pressure for the fo...">
<polygon fill="white" stroke="#666666" points="433.5,-103.5 323,-103.5 323,-73 433.5,-73 433.5,-103.5"/>
<text xml:space="preserve" text-anchor="start" x="331" y="-90" font-family="Source Sans Pro" font-size="10.00">gfdl_cloud_microphys</text>
<text xml:space="preserve" text-anchor="middle" x="378.25" y="-78.75" font-family="Source Sans Pro" font-size="10.00">_mod::qsmith_init</text>
</a>
</g>
</g>
<!-- Node2&#45;&gt;Node3 -->
<g id="edge2_Node000002_Node000003" class="edge">
<title>Node2&#45;&gt;Node3</title>
<g id="a_edge2_Node000002_Node000003"><a xlink:title=" ">
<path fill="none" stroke="#63b8ff" d="M287.38,-88.25C295.11,-88.25 303.13,-88.25 311.05,-88.25"/>
<polygon fill="#63b8ff" stroke="#63b8ff" points="311.03,-91.75 321.03,-88.25 311.03,-84.75 311.03,-91.75"/>
</a>
</g>
</g>
<!-- Node4 -->
<g id="Node000004" class="node">
<title>Node4</title>
<g id="a_Node000004"><a xlink:href="group__mod__gfdl__cloud__mp_ga18d5c58ee290deae68744c2bec32c4c5.html#ga18d5c58ee290deae68744c2bec32c4c5" target="_top" xlink:title="saturation water vapor pressure table i">
<polygon fill="white" stroke="#666666" points="580,-177.5 469.5,-177.5 469.5,-147 580,-147 580,-177.5"/>
<text xml:space="preserve" text-anchor="start" x="477.5" y="-164" font-family="Source Sans Pro" font-size="10.00">gfdl_cloud_microphys</text>
<text xml:space="preserve" text-anchor="middle" x="524.75" y="-152.75" font-family="Source Sans Pro" font-size="10.00">_mod::qs_table</text>
</a>
</g>
</g>
<!-- Node3&#45;&gt;Node4 -->
<g id="edge3_Node000003_Node000004" class="edge">
<title>Node3&#45;&gt;Node4</title>
<g id="a_edge3_Node000003_Node000004"><a xlink:title=" ">
<path fill="none" stroke="#63b8ff" d="M407.05,-103.96C424.77,-113.81 448.3,-126.63 469.5,-137.25 472.41,-138.71 475.43,-140.19 478.47,-141.66"/>
<polygon fill="#63b8ff" stroke="#63b8ff" points="476.96,-144.81 487.49,-145.93 479.96,-138.49 476.96,-144.81"/>
</a>
</g>
</g>
<!-- Node5 -->
<g id="Node000005" class="node">
<title>Node5</title>
<g id="a_Node000005"><a xlink:href="group__mod__gfdl__cloud__mp_ga60322d5daf9ba9251ef2ed8c43d44fd2.html#ga60322d5daf9ba9251ef2ed8c43d44fd2" target="_top" xlink:title="saturation water vapor pressure table iii">
<polygon fill="white" stroke="#666666" points="580,-128.5 469.5,-128.5 469.5,-98 580,-98 580,-128.5"/>
<text xml:space="preserve" text-anchor="start" x="477.5" y="-115" font-family="Source Sans Pro" font-size="10.00">gfdl_cloud_microphys</text>
<text xml:space="preserve" text-anchor="middle" x="524.75" y="-103.75" font-family="Source Sans Pro" font-size="10.00">_mod::qs_table2</text>
</a>
</g>
</g>
<!-- Node3&#45;&gt;Node5 -->
<g id="edge4_Node000003_Node000005" class="edge">
<title>Node3&#45;&gt;Node5</title>
<g id="a_edge4_Node000003_Node000005"><a xlink:title=" ">
<path fill="none" stroke="#63b8ff" d="M433.88,-97.7C441.7,-99.05 449.82,-100.46 457.83,-101.84"/>
<polygon fill="#63b8ff" stroke="#63b8ff" points="457.1,-105.27 467.55,-103.53 458.3,-98.37 457.1,-105.27"/>
</a>
</g>
</g>
<!-- Node6 -->
<g id="Node000006" class="node">
<title>Node6</title>
<g id="a_Node000006"><a xlink:href="group__mod__gfdl__cloud__mp_ga21d253eb6564b469a272e71bbd227e6d.html#ga21d253eb6564b469a272e71bbd227e6d" target="_top" xlink:title="saturation water vapor pressure table iv">
<polygon fill="white" stroke="#666666" points="580,-79.5 469.5,-79.5 469.5,-49 580,-49 580,-79.5"/>
<text xml:space="preserve" text-anchor="start" x="477.5" y="-66" font-family="Source Sans Pro" font-size="10.00">gfdl_cloud_microphys</text>
<text xml:space="preserve" text-anchor="middle" x="524.75" y="-54.75" font-family="Source Sans Pro" font-size="10.00">_mod::qs_table3</text>
</a>
</g>
</g>
<!-- Node3&#45;&gt;Node6 -->
<g id="edge5_Node000003_Node000006" class="edge">
<title>Node3&#45;&gt;Node6</title>
<g id="a_edge5_Node000003_Node000006"><a xlink:title=" ">
<path fill="none" stroke="#63b8ff" d="M433.88,-79.18C441.7,-77.88 449.82,-76.53 457.83,-75.2"/>
<polygon fill="#63b8ff" stroke="#63b8ff" points="458.26,-78.68 467.55,-73.58 457.11,-71.77 458.26,-78.68"/>
</a>
</g>
</g>
<!-- Node7 -->
<g id="Node000007" class="node">
<title>Node7</title>
<g id="a_Node000007"><a xlink:href="group__mod__gfdl__cloud__mp_gad400136557e150361b753efa60a42d71.html#gad400136557e150361b753efa60a42d71" target="_top" xlink:title="saturation water vapor pressure table ii">
<polygon fill="white" stroke="#666666" points="580,-30.5 469.5,-30.5 469.5,0 580,0 580,-30.5"/>
<text xml:space="preserve" text-anchor="start" x="477.5" y="-17" font-family="Source Sans Pro" font-size="10.00">gfdl_cloud_microphys</text>
<text xml:space="preserve" text-anchor="middle" x="524.75" y="-5.75" font-family="Source Sans Pro" font-size="10.00">_mod::qs_tablew</text>
</a>
</g>
</g>
<!-- Node3&#45;&gt;Node7 -->
<g id="edge6_Node000003_Node000007" class="edge">
<title>Node3&#45;&gt;Node7</title>
<g id="a_edge6_Node000003_Node000007"><a xlink:title=" ">
<path fill="none" stroke="#63b8ff" d="M407.49,-72.7C425.17,-63.09 448.51,-50.66 469.5,-40.25 472.42,-38.8 475.44,-37.34 478.49,-35.87"/>
<polygon fill="#63b8ff" stroke="#63b8ff" points="479.97,-39.04 487.51,-31.61 476.98,-32.72 479.97,-39.04"/>
</a>
</g>
</g>
</g>
</svg>
