<?xml version="1.0" encoding="UTF-8" standalone="no"?>
<!DOCTYPE svg PUBLIC "-//W3C//DTD SVG 1.1//EN"
 "http://www.w3.org/Graphics/SVG/1.1/DTD/svg11.dtd">
<!-- Generated by graphviz version 14.1.2 (20260124.0452)
 -->
<!-- Title: noahmp_glacier_routines::snowwater_glacier Pages: 1 -->
<svg width="612pt" height="198pt"
 viewBox="0.00 0.00 612.00 198.00" xmlns="http://www.w3.org/2000/svg" xmlns:xlink="http://www.w3.org/1999/xlink">
<g id="graph0" class="graph" transform="scale(1 1) rotate(0) translate(4 193.5)">
<title>noahmp_glacier_routines::snowwater_glacier</title>
<!-- Node1 -->
<g id="Node000001" class="node">
<title>Node1</title>
<g id="a_Node000001"><a xlink:title=" ">
<polygon fill="#999999" stroke="#666666" points="124,-97.5 0,-97.5 0,-67 124,-67 124,-97.5"/>
<text xml:space="preserve" text-anchor="start" x="8" y="-84" font-family="Source Sans Pro" font-size="10.00">noahmp_glacier_routines</text>
<text xml:space="preserve" text-anchor="middle" x="62" y="-72.75" font-family="Source Sans Pro" font-size="10.00">::snowwater_glacier</text>
</a>
</g>
</g>
<!-- Node2 -->
<g id="Node000002" class="node">
<title>Node2</title>
<g id="a_Node000002"><a xlink:href="group___noah_m_p___l_s_m_ga70ce0369bd8ba21d6ab56fa001a20be8.html#ga70ce0369bd8ba21d6ab56fa001a20be8" target="_top" xlink:title=" ">
<polygon fill="white" stroke="#666666" points="444,-97.5 320,-97.5 320,-67 444,-67 444,-97.5"/>
<text xml:space="preserve" text-anchor="start" x="328" y="-84" font-family="Source Sans Pro" font-size="10.00">noahmp_glacier_routines</text>
<text xml:space="preserve" text-anchor="middle" x="382" y="-72.75" font-family="Source Sans Pro" font-size="10.00">::combine_glacier</text>
</a>
</g>
</g>
<!-- Node1&#45;&gt;Node2 -->
<g id="edge1_Node000001_Node000002" class="edge">
<title>Node1&#45;&gt;Node2</title>
<g id="a_edge1_Node000001_Node000002"><a xlink:title=" ">
<path fill="none" stroke="#63b8ff" d="M124.31,-82.25C176.91,-82.25 252.79,-82.25 308.41,-82.25"/>
<polygon fill="#63b8ff" stroke="#63b8ff" points="308.09,-85.75 318.09,-82.25 308.09,-78.75 308.09,-85.75"/>
</a>
</g>
</g>
<!-- Node4 -->
<g id="Node000004" class="node">
<title>Node4</title>
<g id="a_Node000004"><a xlink:href="group___noah_m_p___l_s_m_ga5c2db6763c56bf372eef6bdc07ede3cc.html#ga5c2db6763c56bf372eef6bdc07ede3cc" target="_top" xlink:title=" ">
<polygon fill="white" stroke="#666666" points="284,-140.5 160,-140.5 160,-110 284,-110 284,-140.5"/>
<text xml:space="preserve" text-anchor="start" x="168" y="-127" font-family="Source Sans Pro" font-size="10.00">noahmp_glacier_routines</text>
<text xml:space="preserve" text-anchor="middle" x="222" y="-115.75" font-family="Source Sans Pro" font-size="10.00">::compact_glacier</text>
</a>
</g>
</g>
<!-- Node1&#45;&gt;Node4 -->
<g id="edge3_Node000001_Node000004" class="edge">
<title>Node1&#45;&gt;Node4</title>
<g id="a_edge3_Node000001_Node000004"><a xlink:title=" ">
<path fill="none" stroke="#63b8ff" d="M120.49,-97.9C130.84,-100.71 141.72,-103.67 152.34,-106.56"/>
<polygon fill="#63b8ff" stroke="#63b8ff" points="151.26,-109.9 161.83,-109.15 153.1,-103.14 151.26,-109.9"/>
</a>
</g>
</g>
<!-- Node5 -->
<g id="Node000005" class="node">
<title>Node5</title>
<g id="a_Node000005"><a xlink:href="group___noah_m_p___l_s_m_ga7d14a54053fc9c70ea7705754d594a92.html#ga7d14a54053fc9c70ea7705754d594a92" target="_top" xlink:title=" ">
<polygon fill="white" stroke="#666666" points="444,-30.5 320,-30.5 320,0 444,0 444,-30.5"/>
<text xml:space="preserve" text-anchor="start" x="328" y="-17" font-family="Source Sans Pro" font-size="10.00">noahmp_glacier_routines</text>
<text xml:space="preserve" text-anchor="middle" x="382" y="-5.75" font-family="Source Sans Pro" font-size="10.00">::divide_glacier</text>
</a>
</g>
</g>
<!-- Node1&#45;&gt;Node5 -->
<g id="edge4_Node000001_Node000005" class="edge">
<title>Node1&#45;&gt;Node5</title>
<g id="a_edge4_Node000001_Node000005"><a xlink:title=" ">
<path fill="none" stroke="#63b8ff" d="M78.84,-66.68C96.78,-50.23 127.76,-25.3 160,-15.25 208.02,-0.28 264.81,-0.64 308.79,-4.56"/>
<polygon fill="#63b8ff" stroke="#63b8ff" points="308.18,-8.01 318.47,-5.51 308.86,-1.05 308.18,-8.01"/>
</a>
</g>
</g>
<!-- Node6 -->
<g id="Node000006" class="node">
<title>Node6</title>
<g id="a_Node000006"><a xlink:href="group___noah_m_p___l_s_m_ga8017d043aecaf401ec7e591c3c558161.html#ga8017d043aecaf401ec7e591c3c558161" target="_top" xlink:title=" ">
<polygon fill="white" stroke="#666666" points="284,-54.5 160,-54.5 160,-24 284,-24 284,-54.5"/>
<text xml:space="preserve" text-anchor="start" x="168" y="-41" font-family="Source Sans Pro" font-size="10.00">noahmp_glacier_routines</text>
<text xml:space="preserve" text-anchor="middle" x="222" y="-29.75" font-family="Source Sans Pro" font-size="10.00">::snowfall_glacier</text>
</a>
</g>
</g>
<!-- Node1&#45;&gt;Node6 -->
<g id="edge6_Node000001_Node000006" class="edge">
<title>Node1&#45;&gt;Node6</title>
<g id="a_edge6_Node000001_Node000006"><a xlink:title=" ">
<path fill="none" stroke="#63b8ff" d="M120.49,-66.6C130.84,-63.79 141.72,-60.83 152.34,-57.94"/>
<polygon fill="#63b8ff" stroke="#63b8ff" points="153.1,-61.36 161.83,-55.35 151.26,-54.6 153.1,-61.36"/>
</a>
</g>
</g>
<!-- Node7 -->
<g id="Node000007" class="node">
<title>Node7</title>
<g id="a_Node000007"><a xlink:href="group___noah_m_p___l_s_m_ga3b426a088b2f2e94145bc4cea265cc61.html#ga3b426a088b2f2e94145bc4cea265cc61" target="_top" xlink:title=" ">
<polygon fill="white" stroke="#666666" points="284,-189.5 160,-189.5 160,-159 284,-159 284,-189.5"/>
<text xml:space="preserve" text-anchor="start" x="168" y="-176" font-family="Source Sans Pro" font-size="10.00">noahmp_glacier_routines</text>
<text xml:space="preserve" text-anchor="middle" x="222" y="-164.75" font-family="Source Sans Pro" font-size="10.00">::snowh2o_glacier</text>
</a>
</g>
</g>
<!-- Node1&#45;&gt;Node7 -->
<g id="edge7_Node000001_Node000007" class="edge">
<title>Node1&#45;&gt;Node7</title>
<g id="a_edge7_Node000001_Node000007"><a xlink:title=" ">
<path fill="none" stroke="#63b8ff" d="M82.99,-97.97C102.05,-112.48 131.93,-134.03 160,-149.25 162.97,-150.86 166.07,-152.43 169.23,-153.96"/>
<polygon fill="#63b8ff" stroke="#63b8ff" points="167.5,-157.01 178.05,-157.99 170.41,-150.65 167.5,-157.01"/>
</a>
</g>
</g>
<!-- Node3 -->
<g id="Node000003" class="node">
<title>Node3</title>
<g id="a_Node000003"><a xlink:href="group___noah_m_p___l_s_m_ga2725fe77ae7f78845a85c7c379e3ed2e.html#ga2725fe77ae7f78845a85c7c379e3ed2e" target="_top" xlink:title=" ">
<polygon fill="white" stroke="#666666" points="604,-54.5 480,-54.5 480,-24 604,-24 604,-54.5"/>
<text xml:space="preserve" text-anchor="start" x="488" y="-41" font-family="Source Sans Pro" font-size="10.00">noahmp_glacier_routines</text>
<text xml:space="preserve" text-anchor="middle" x="542" y="-29.75" font-family="Source Sans Pro" font-size="10.00">::combo_glacier</text>
</a>
</g>
</g>
<!-- Node2&#45;&gt;Node3 -->
<g id="edge2_Node000002_Node000003" class="edge">
<title>Node2&#45;&gt;Node3</title>
<g id="a_edge2_Node000002_Node000003"><a xlink:title=" ">
<path fill="none" stroke="#63b8ff" d="M440.49,-66.6C450.84,-63.79 461.72,-60.83 472.34,-57.94"/>
<polygon fill="#63b8ff" stroke="#63b8ff" points="473.1,-61.36 481.83,-55.35 471.26,-54.6 473.1,-61.36"/>
</a>
</g>
</g>
<!-- Node5&#45;&gt;Node3 -->
<g id="edge5_Node000005_Node000003" class="edge">
<title>Node5&#45;&gt;Node3</title>
<g id="a_edge5_Node000005_Node000003"><a xlink:title=" ">
<path fill="none" stroke="#63b8ff" d="M444.09,-24.53C452,-25.73 460.16,-26.97 468.23,-28.2"/>
<polygon fill="#63b8ff" stroke="#63b8ff" points="467.65,-31.65 478.06,-29.69 468.7,-24.73 467.65,-31.65"/>
</a>
</g>
</g>
<!-- Node7&#45;&gt;Node2 -->
<g id="edge8_Node000007_Node000002" class="edge">
<title>Node7&#45;&gt;Node2</title>
<g id="a_edge8_Node000007_Node000002"><a xlink:title=" ">
<path fill="none" stroke="#63b8ff" d="M264.58,-158.62C271.19,-155.74 277.86,-152.58 284,-149.25 307.9,-136.29 333.12,-118.74 351.85,-104.85"/>
<polygon fill="#63b8ff" stroke="#63b8ff" points="353.91,-107.68 359.8,-98.88 349.7,-102.09 353.91,-107.68"/>
</a>
</g>
</g>
</g>
</svg>
