<?xml version="1.0" encoding="UTF-8" standalone="no"?>
<!DOCTYPE svg PUBLIC "-//W3C//DTD SVG 1.1//EN"
 "http://www.w3.org/Graphics/SVG/1.1/DTD/svg11.dtd">
<!-- Generated by graphviz version 14.1.2 (20260124.0452)
 -->
<!-- Title: soilwater Pages: 1 -->
<svg width="230pt" height="138pt"
 viewBox="0.00 0.00 230.00 138.00" xmlns="http://www.w3.org/2000/svg" xmlns:xlink="http://www.w3.org/1999/xlink">
<g id="graph0" class="graph" transform="scale(1 1) rotate(0) translate(4 134.25)">
<title>soilwater</title>
<!-- Node1 -->
<g id="Node000001" class="node">
<title>Node1</title>
<g id="a_Node000001"><a xlink:title="calculate surface runoff and soil moisture.">
<polygon fill="#999999" stroke="#666666" points="55,-74.25 0,-74.25 0,-55 55,-55 55,-74.25"/>
<text xml:space="preserve" text-anchor="middle" x="27.5" y="-60.75" font-family="Source Sans Pro" font-size="10.00">soilwater</text>
</a>
</g>
</g>
<!-- Node2 -->
<g id="Node000002" class="node">
<title>Node2</title>
<g id="a_Node000002"><a xlink:href="group___noah_m_p___l_s_m_ga33eceb1b8d3e8a38dec1ca21f811f13d.html#ga33eceb1b8d3e8a38dec1ca21f811f13d" target="_top" xlink:title="compute inflitration rate at soil surface and surface runoff">
<polygon fill="white" stroke="#666666" points="127.62,-130.25 96.62,-130.25 96.62,-111 127.62,-111 127.62,-130.25"/>
<text xml:space="preserve" text-anchor="middle" x="112.12" y="-116.75" font-family="Source Sans Pro" font-size="10.00">infil</text>
</a>
</g>
</g>
<!-- Node1&#45;&gt;Node2 -->
<g id="edge1_Node000001_Node000002" class="edge">
<title>Node1&#45;&gt;Node2</title>
<g id="a_edge1_Node000001_Node000002"><a xlink:title=" ">
<path fill="none" stroke="#63b8ff" d="M43.27,-74.64C55.42,-82.87 72.87,-94.69 87.03,-104.29"/>
<polygon fill="#63b8ff" stroke="#63b8ff" points="84.71,-106.95 94.95,-109.66 88.64,-101.15 84.71,-106.95"/>
</a>
</g>
</g>
<!-- Node4 -->
<g id="Node000004" class="node">
<title>Node4</title>
<g id="a_Node000004"><a xlink:href="group___noah_m_p___l_s_m_ga2825a3a5bbdeed71a7b6ea89ff9bce16.html#ga2825a3a5bbdeed71a7b6ea89ff9bce16" target="_top" xlink:title="calculate the right hand side of the time tendency term of the soil water diffusion equation....">
<polygon fill="white" stroke="#666666" points="126.53,-93.25 97.72,-93.25 97.72,-74 126.53,-74 126.53,-93.25"/>
<text xml:space="preserve" text-anchor="middle" x="112.12" y="-79.75" font-family="Source Sans Pro" font-size="10.00">srt</text>
</a>
</g>
</g>
<!-- Node1&#45;&gt;Node4 -->
<g id="edge3_Node000001_Node000004" class="edge">
<title>Node1&#45;&gt;Node4</title>
<g id="a_edge3_Node000001_Node000004"><a xlink:title=" ">
<path fill="none" stroke="#63b8ff" d="M55.1,-70.74C65.16,-73.06 76.56,-75.68 86.44,-77.95"/>
<polygon fill="#63b8ff" stroke="#63b8ff" points="85.54,-81.33 96.07,-80.16 87.11,-74.51 85.54,-81.33"/>
</a>
</g>
</g>
<!-- Node6 -->
<g id="Node000006" class="node">
<title>Node6</title>
<g id="a_Node000006"><a xlink:href="group___noah_m_p___l_s_m_gae10b02d7df0104a84451abc57e0410fb.html#gae10b02d7df0104a84451abc57e0410fb" target="_top" xlink:title="calculate/update soil moisture content values.">
<polygon fill="white" stroke="#666666" points="132.12,-56.25 92.12,-56.25 92.12,-37 132.12,-37 132.12,-56.25"/>
<text xml:space="preserve" text-anchor="middle" x="112.12" y="-42.75" font-family="Source Sans Pro" font-size="10.00">sstep</text>
</a>
</g>
</g>
<!-- Node1&#45;&gt;Node6 -->
<g id="edge6_Node000001_Node000006" class="edge">
<title>Node1&#45;&gt;Node6</title>
<g id="a_edge6_Node000001_Node000006"><a xlink:title=" ">
<path fill="none" stroke="#63b8ff" d="M55.1,-58.83C63.18,-57.07 72.12,-55.12 80.45,-53.31"/>
<polygon fill="#63b8ff" stroke="#63b8ff" points="81.15,-56.74 90.17,-51.19 79.66,-49.9 81.15,-56.74"/>
</a>
</g>
</g>
<!-- Node8 -->
<g id="Node000008" class="node">
<title>Node8</title>
<g id="a_Node000008"><a xlink:href="group___noah_m_p___l_s_m_gadc2da87aeab4494d5234d18df3d223f7.html#gadc2da87aeab4494d5234d18df3d223f7" target="_top" xlink:title="calculate equilibrium water table depth (niu et al., 2005)">
<polygon fill="white" stroke="#666666" points="133.25,-19.25 91,-19.25 91,0 133.25,0 133.25,-19.25"/>
<text xml:space="preserve" text-anchor="middle" x="112.12" y="-5.75" font-family="Source Sans Pro" font-size="10.00">zwteq</text>
</a>
</g>
</g>
<!-- Node1&#45;&gt;Node8 -->
<g id="edge8_Node000001_Node000008" class="edge">
<title>Node1&#45;&gt;Node8</title>
<g id="a_edge8_Node000001_Node000008"><a xlink:title=" ">
<path fill="none" stroke="#63b8ff" d="M43.65,-54.54C55.65,-46.55 72.65,-35.24 86.58,-25.96"/>
<polygon fill="#63b8ff" stroke="#63b8ff" points="88.42,-28.94 94.81,-20.49 84.54,-23.12 88.42,-28.94"/>
</a>
</g>
</g>
<!-- Node3 -->
<g id="Node000003" class="node">
<title>Node3</title>
<g id="a_Node000003"><a xlink:href="group___noah_m_p___l_s_m_gaca325ee2efde047e6cd030ace7d5931f.html#gaca325ee2efde047e6cd030ace7d5931f" target="_top" xlink:title="calculate soil water diffusivity and soil hydraulic conductivity.">
<polygon fill="white" stroke="#666666" points="222,-130.25 169.25,-130.25 169.25,-111 222,-111 222,-130.25"/>
<text xml:space="preserve" text-anchor="middle" x="195.62" y="-116.75" font-family="Source Sans Pro" font-size="10.00">wdfcnd2</text>
</a>
</g>
</g>
<!-- Node2&#45;&gt;Node3 -->
<g id="edge2_Node000002_Node000003" class="edge">
<title>Node2&#45;&gt;Node3</title>
<g id="a_edge2_Node000002_Node000003"><a xlink:title=" ">
<path fill="none" stroke="#63b8ff" d="M128.07,-120.62C136.35,-120.62 147.05,-120.62 157.43,-120.62"/>
<polygon fill="#63b8ff" stroke="#63b8ff" points="157.37,-124.13 167.37,-120.63 157.37,-117.13 157.37,-124.13"/>
</a>
</g>
</g>
<!-- Node4&#45;&gt;Node3 -->
<g id="edge5_Node000004_Node000003" class="edge">
<title>Node4&#45;&gt;Node3</title>
<g id="a_edge5_Node000004_Node000003"><a xlink:title=" ">
<path fill="none" stroke="#63b8ff" d="M126.95,-89.9C136.57,-94.27 149.83,-100.29 162.05,-105.84"/>
<polygon fill="#63b8ff" stroke="#63b8ff" points="160.49,-108.97 171.04,-109.92 163.38,-102.6 160.49,-108.97"/>
</a>
</g>
</g>
<!-- Node5 -->
<g id="Node000005" class="node">
<title>Node5</title>
<g id="a_Node000005"><a xlink:href="group___noah_m_p___l_s_m_gaffab2571eaa0a1c94d971a5344c8a109.html#gaffab2571eaa0a1c94d971a5344c8a109" target="_top" xlink:title="calculate soil water diffusivity and soil hydraulic conductivity.">
<polygon fill="white" stroke="#666666" points="222,-93.25 169.25,-93.25 169.25,-74 222,-74 222,-93.25"/>
<text xml:space="preserve" text-anchor="middle" x="195.62" y="-79.75" font-family="Source Sans Pro" font-size="10.00">wdfcnd1</text>
</a>
</g>
</g>
<!-- Node4&#45;&gt;Node5 -->
<g id="edge4_Node000004_Node000005" class="edge">
<title>Node4&#45;&gt;Node5</title>
<g id="a_edge4_Node000004_Node000005"><a xlink:title=" ">
<path fill="none" stroke="#63b8ff" d="M126.95,-83.62C135.35,-83.62 146.53,-83.62 157.36,-83.62"/>
<polygon fill="#63b8ff" stroke="#63b8ff" points="157.33,-87.13 167.33,-83.63 157.33,-80.13 157.33,-87.13"/>
</a>
</g>
</g>
<!-- Node7 -->
<g id="Node000007" class="node">
<title>Node7</title>
<g id="a_Node000007"><a xlink:href="group___noah_m_p___l_s_m_ga7a305dbb6a9210b227ee310c71f30fd9.html#ga7a305dbb6a9210b227ee310c71f30fd9" target="_top" xlink:title="solve the tri&#45;diagonal matrix equation">
<polygon fill="white" stroke="#666666" points="217.12,-56.25 174.12,-56.25 174.12,-37 217.12,-37 217.12,-56.25"/>
<text xml:space="preserve" text-anchor="middle" x="195.62" y="-42.75" font-family="Source Sans Pro" font-size="10.00">rosr12</text>
</a>
</g>
</g>
<!-- Node6&#45;&gt;Node7 -->
<g id="edge7_Node000006_Node000007" class="edge">
<title>Node6&#45;&gt;Node7</title>
<g id="a_edge7_Node000006_Node000007"><a xlink:title=" ">
<path fill="none" stroke="#63b8ff" d="M132.44,-46.62C141.37,-46.62 152.22,-46.62 162.35,-46.62"/>
<polygon fill="#63b8ff" stroke="#63b8ff" points="162.22,-50.13 172.22,-46.63 162.22,-43.13 162.22,-50.13"/>
</a>
</g>
</g>
</g>
</svg>
