<?xml version="1.0" encoding="UTF-8" standalone="no"?>
<!DOCTYPE svg PUBLIC "-//W3C//DTD SVG 1.1//EN"
 "http://www.w3.org/Graphics/SVG/1.1/DTD/svg11.dtd">
<!-- Generated by graphviz version 14.1.2 (20260124.0452)
 -->
<!-- Title: module_mp_nssl_2mom::setvtz Pages: 1 -->
<svg width="753pt" height="88pt"
 viewBox="0.00 0.00 753.00 88.00" xmlns="http://www.w3.org/2000/svg" xmlns:xlink="http://www.w3.org/1999/xlink">
<g id="graph0" class="graph" transform="scale(1 1) rotate(0) translate(4 83.5)">
<title>module_mp_nssl_2mom::setvtz</title>
<!-- Node1 -->
<g id="Node000001" class="node">
<title>Node1</title>
<g id="a_Node000001"><a xlink:title="Mean hydrometeor size and fall speed calculations.">
<polygon fill="#999999" stroke="#666666" points="745.25,-54.5 623.5,-54.5 623.5,-24 745.25,-24 745.25,-54.5"/>
<text xml:space="preserve" text-anchor="start" x="631.5" y="-41" font-family="Source Sans Pro" font-size="10.00">module_mp_nssl_2mom</text>
<text xml:space="preserve" text-anchor="middle" x="684.38" y="-29.75" font-family="Source Sans Pro" font-size="10.00">::setvtz</text>
</a>
</g>
</g>
<!-- Node2 -->
<g id="Node000002" class="node">
<title>Node2</title>
<g id="a_Node000002"><a xlink:href="group__mod__nsslmp_ga5c0f9300bf6b78c4b9d5390e53e45b67.html#ga5c0f9300bf6b78c4b9d5390e53e45b67" target="_top" xlink:title="Main microphysical processes routine.">
<polygon fill="white" stroke="#666666" points="429.75,-79.5 308,-79.5 308,-49 429.75,-49 429.75,-79.5"/>
<text xml:space="preserve" text-anchor="start" x="316" y="-66" font-family="Source Sans Pro" font-size="10.00">module_mp_nssl_2mom</text>
<text xml:space="preserve" text-anchor="middle" x="368.88" y="-54.75" font-family="Source Sans Pro" font-size="10.00">::nssl_2mom_gs</text>
</a>
</g>
</g>
<!-- Node1&#45;&gt;Node2 -->
<g id="edge1_Node000001_Node000002" class="edge">
<title>Node1&#45;&gt;Node2</title>
<g id="a_edge1_Node000001_Node000002"><a xlink:title=" ">
<path fill="none" stroke="#63b8ff" d="M611.9,-44.95C556.95,-49.33 481.9,-55.32 430.01,-59.45"/>
<polygon fill="#63b8ff" stroke="#63b8ff" points="612.1,-48.44 621.79,-44.16 611.54,-41.47 612.1,-48.44"/>
</a>
</g>
</g>
<!-- Node5 -->
<g id="Node000005" class="node">
<title>Node5</title>
<g id="a_Node000005"><a xlink:href="group__mod__nsslmp_ga4ea70fd73f9b7e8dd2472e073f46ca5c.html#ga4ea70fd73f9b7e8dd2472e073f46ca5c" target="_top" xlink:title="Column&#45;wise front end to setvtz for sedimentation.">
<polygon fill="white" stroke="#666666" points="587.5,-33.5 465.75,-33.5 465.75,-3 587.5,-3 587.5,-33.5"/>
<text xml:space="preserve" text-anchor="start" x="473.75" y="-20" font-family="Source Sans Pro" font-size="10.00">module_mp_nssl_2mom</text>
<text xml:space="preserve" text-anchor="middle" x="526.62" y="-8.75" font-family="Source Sans Pro" font-size="10.00">::ziegfall1d</text>
</a>
</g>
</g>
<!-- Node1&#45;&gt;Node5 -->
<g id="edge4_Node000001_Node000005" class="edge">
<title>Node1&#45;&gt;Node5</title>
<g id="a_edge4_Node000001_Node000005"><a xlink:title=" ">
<path fill="none" stroke="#63b8ff" d="M611.92,-29.62C603.9,-28.53 595.8,-27.44 587.94,-26.38"/>
<polygon fill="#63b8ff" stroke="#63b8ff" points="611.28,-33.06 621.66,-30.93 612.22,-26.12 611.28,-33.06"/>
</a>
</g>
</g>
<!-- Node3 -->
<g id="Node000003" class="node">
<title>Node3</title>
<g id="a_Node000003"><a xlink:href="group__mod__nsslmp_gaf719f942556bb1676739cbdff304e714.html#gaf719f942556bb1676739cbdff304e714" target="_top" xlink:title="Driver subroutine that copies state data to local 2D arrays for microphysics calls.">
<polygon fill="white" stroke="#666666" points="272,-54.5 150.25,-54.5 150.25,-24 272,-24 272,-54.5"/>
<text xml:space="preserve" text-anchor="start" x="158.25" y="-41" font-family="Source Sans Pro" font-size="10.00">module_mp_nssl_2mom</text>
<text xml:space="preserve" text-anchor="middle" x="211.12" y="-29.75" font-family="Source Sans Pro" font-size="10.00">::nssl_2mom_driver</text>
</a>
</g>
</g>
<!-- Node2&#45;&gt;Node3 -->
<g id="edge2_Node000002_Node000003" class="edge">
<title>Node2&#45;&gt;Node3</title>
<g id="a_edge2_Node000002_Node000003"><a xlink:title=" ">
<path fill="none" stroke="#63b8ff" d="M296.42,-52.78C288.4,-51.49 280.3,-50.19 272.44,-48.93"/>
<polygon fill="#63b8ff" stroke="#63b8ff" points="295.74,-56.22 306.16,-54.34 296.84,-49.3 295.74,-56.22"/>
</a>
</g>
</g>
<!-- Node4 -->
<g id="Node000004" class="node">
<title>Node4</title>
<g id="a_Node000004"><a xlink:href="group__nsslmp_gab213e8268947d3497e02437e7634b614.html#gab213e8268947d3497e02437e7634b614" target="_top" xlink:title=" ">
<polygon fill="white" stroke="#666666" points="114.25,-48.88 0,-48.88 0,-29.62 114.25,-29.62 114.25,-48.88"/>
<text xml:space="preserve" text-anchor="middle" x="57.13" y="-35.38" font-family="Source Sans Pro" font-size="10.00">mp_nssl::mp_nssl_run</text>
</a>
</g>
</g>
<!-- Node3&#45;&gt;Node4 -->
<g id="edge3_Node000003_Node000004" class="edge">
<title>Node3&#45;&gt;Node4</title>
<g id="a_edge3_Node000003_Node000004"><a xlink:title=" ">
<path fill="none" stroke="#63b8ff" d="M138.6,-39.25C130.44,-39.25 122.22,-39.25 114.3,-39.25"/>
<polygon fill="#63b8ff" stroke="#63b8ff" points="138.54,-42.75 148.54,-39.25 138.54,-35.75 138.54,-42.75"/>
</a>
</g>
</g>
<!-- Node6 -->
<g id="Node000006" class="node">
<title>Node6</title>
<g id="a_Node000006"><a xlink:href="group__mod__nsslmp_gaa88ef817bac1d81c748fd32c9b9be6ea.html#gaa88ef817bac1d81c748fd32c9b9be6ea" target="_top" xlink:title="Sedimentation driver subroutine. Calls fallout column by column.">
<polygon fill="white" stroke="#666666" points="429.75,-30.5 308,-30.5 308,0 429.75,0 429.75,-30.5"/>
<text xml:space="preserve" text-anchor="start" x="316" y="-17" font-family="Source Sans Pro" font-size="10.00">module_mp_nssl_2mom</text>
<text xml:space="preserve" text-anchor="middle" x="368.88" y="-5.75" font-family="Source Sans Pro" font-size="10.00">::sediment1d</text>
</a>
</g>
</g>
<!-- Node5&#45;&gt;Node6 -->
<g id="edge5_Node000005_Node000006" class="edge">
<title>Node5&#45;&gt;Node6</title>
<g id="a_edge5_Node000005_Node000006"><a xlink:title=" ">
<path fill="none" stroke="#63b8ff" d="M454.17,-16.87C446.15,-16.72 438.05,-16.56 430.19,-16.41"/>
<polygon fill="#63b8ff" stroke="#63b8ff" points="453.83,-20.37 463.89,-17.06 453.96,-13.37 453.83,-20.37"/>
</a>
</g>
</g>
<!-- Node6&#45;&gt;Node3 -->
<g id="edge6_Node000006_Node000003" class="edge">
<title>Node6&#45;&gt;Node3</title>
<g id="a_edge6_Node000006_Node000003"><a xlink:title=" ">
<path fill="none" stroke="#63b8ff" d="M296.42,-26.26C288.4,-27.5 280.3,-28.75 272.44,-29.96"/>
<polygon fill="#63b8ff" stroke="#63b8ff" points="296.81,-29.74 306.16,-24.76 295.75,-22.82 296.81,-29.74"/>
</a>
</g>
</g>
</g>
</svg>
