<?xml version="1.0" encoding="UTF-8" standalone="no"?>
<!DOCTYPE svg PUBLIC "-//W3C//DTD SVG 1.1//EN"
 "http://www.w3.org/Graphics/SVG/1.1/DTD/svg11.dtd">
<!-- Generated by graphviz version 14.1.2 (20260124.0452)
 -->
<!-- Title: module_sf_mynn::sfclay_mynn Pages: 1 -->
<svg width="748pt" height="1008pt"
 viewBox="0.00 0.00 748.00 1008.00" xmlns="http://www.w3.org/2000/svg" xmlns:xlink="http://www.w3.org/1999/xlink">
<g id="graph0" class="graph" transform="scale(1 1) rotate(0) translate(4 1003.88)">
<title>module_sf_mynn::sfclay_mynn</title>
<!-- Node1 -->
<g id="Node000001" class="node">
<title>Node1</title>
<g id="a_Node000001"><a xlink:title="This subroutine.">
<polygon fill="#999999" stroke="#666666" points="151.75,-588.88 0,-588.88 0,-569.62 151.75,-569.62 151.75,-588.88"/>
<text xml:space="preserve" text-anchor="middle" x="75.88" y="-575.38" font-family="Source Sans Pro" font-size="10.00">module_sf_mynn::sfclay_mynn</text>
</a>
</g>
</g>
<!-- Node2 -->
<g id="Node000002" class="node">
<title>Node2</title>
<g id="a_Node000002"><a xlink:href="group__mynn__sfc_ga51403acc4b5f2876fedbb82b29a2dc2e.html#ga51403acc4b5f2876fedbb82b29a2dc2e" target="_top" xlink:title="This subroutine calculates u*, z/L, and the exchange coefficients which are passed to subsequent sche...">
<polygon fill="white" stroke="#666666" points="350,-588.88 187.75,-588.88 187.75,-569.62 350,-569.62 350,-588.88"/>
<text xml:space="preserve" text-anchor="middle" x="268.88" y="-575.38" font-family="Source Sans Pro" font-size="10.00">module_sf_mynn::sfclay1d_mynn</text>
</a>
</g>
</g>
<!-- Node1&#45;&gt;Node2 -->
<g id="edge1_Node000001_Node000002" class="edge">
<title>Node1&#45;&gt;Node2</title>
<g id="a_edge1_Node000001_Node000002"><a xlink:title=" ">
<path fill="none" stroke="#63b8ff" d="M152.09,-579.25C159.97,-579.25 168.03,-579.25 176.07,-579.25"/>
<polygon fill="#63b8ff" stroke="#63b8ff" points="175.87,-582.75 185.87,-579.25 175.87,-575.75 175.87,-582.75"/>
</a>
</g>
</g>
<!-- Node3 -->
<g id="Node000003" class="node">
<title>Node3</title>
<g id="a_Node000003"><a xlink:href="group__mynn__sfc_ga4b25c539d21bd439596f5a9adba12a47.html#ga4b25c539d21bd439596f5a9adba12a47" target="_top" xlink:title="This is taken from Andreas (2002; J. of Hydromet) and Andreas et al. (2005; BLM).">
<polygon fill="white" stroke="#666666" points="551.25,-999.88 394.25,-999.88 394.25,-980.62 551.25,-980.62 551.25,-999.88"/>
<text xml:space="preserve" text-anchor="middle" x="472.75" y="-986.38" font-family="Source Sans Pro" font-size="10.00">module_sf_mynn::andreas_2002</text>
</a>
</g>
</g>
<!-- Node2&#45;&gt;Node3 -->
<g id="edge2_Node000002_Node000003" class="edge">
<title>Node2&#45;&gt;Node3</title>
<g id="a_edge2_Node000002_Node000003"><a xlink:title=" ">
<path fill="none" stroke="#63b8ff" d="M269.43,-589.35C267.8,-639.42 267.57,-862.98 386,-972.25 386.52,-972.73 387.06,-973.21 387.6,-973.67"/>
<polygon fill="#63b8ff" stroke="#63b8ff" points="385.62,-976.55 395.85,-979.31 389.58,-970.78 385.62,-976.55"/>
</a>
</g>
</g>
<!-- Node4 -->
<g id="Node000004" class="node">
<title>Node4</title>
<g id="a_Node000004"><a xlink:href="group__mynn__sfc_ga24752a5f2d97dbfa6653a4a2e09dd452.html#ga24752a5f2d97dbfa6653a4a2e09dd452" target="_top" xlink:title="This version of Charnock&#39;s relation employs a varying Charnock parameter, similar to COARE3....">
<polygon fill="white" stroke="#666666" points="553.88,-962.88 391.62,-962.88 391.62,-943.62 553.88,-943.62 553.88,-962.88"/>
<text xml:space="preserve" text-anchor="middle" x="472.75" y="-949.38" font-family="Source Sans Pro" font-size="10.00">module_sf_mynn::charnock_1955</text>
</a>
</g>
</g>
<!-- Node2&#45;&gt;Node4 -->
<g id="edge3_Node000002_Node000004" class="edge">
<title>Node2&#45;&gt;Node4</title>
<g id="a_edge3_Node000002_Node000004"><a xlink:title=" ">
<path fill="none" stroke="#63b8ff" d="M269.82,-589.3C270.12,-636.29 277.9,-836.26 386,-934.25 387.11,-935.26 388.27,-936.22 389.46,-937.13"/>
<polygon fill="#63b8ff" stroke="#63b8ff" points="387.59,-940.09 397.93,-942.43 391.31,-934.16 387.59,-940.09"/>
</a>
</g>
</g>
<!-- Node5 -->
<g id="Node000005" class="node">
<title>Node5</title>
<g id="a_Node000005"><a xlink:href="group__mynn__sfc_ga6f58970b26a345173a4b938ce79986a1.html#ga6f58970b26a345173a4b938ce79986a1" target="_top" xlink:title=" ">
<polygon fill="white" stroke="#666666" points="532.5,-925.5 413,-925.5 413,-895 532.5,-895 532.5,-925.5"/>
<text xml:space="preserve" text-anchor="start" x="421" y="-912" font-family="Source Sans Pro" font-size="10.00">module_sf_mynn::davis</text>
<text xml:space="preserve" text-anchor="middle" x="472.75" y="-900.75" font-family="Source Sans Pro" font-size="10.00">_etal_2008</text>
</a>
</g>
</g>
<!-- Node2&#45;&gt;Node5 -->
<g id="edge4_Node000002_Node000005" class="edge">
<title>Node2&#45;&gt;Node5</title>
<g id="a_edge4_Node000002_Node000005"><a xlink:title=" ">
<path fill="none" stroke="#63b8ff" d="M270.55,-589.19C273.98,-631.64 293.14,-799.45 386,-885.25 390.82,-889.7 396.38,-893.36 402.31,-896.37"/>
<polygon fill="#63b8ff" stroke="#63b8ff" points="400.63,-899.46 411.2,-900.25 403.43,-893.04 400.63,-899.46"/>
</a>
</g>
</g>
<!-- Node6 -->
<g id="Node000006" class="node">
<title>Node6</title>
<g id="a_Node000006"><a xlink:href="group__mynn__sfc_gae5186e30771524f661b8506fcc83f7a8.html#gae5186e30771524f661b8506fcc83f7a8" target="_top" xlink:title="This version of Charnock&#39;s relation employs a varying Charnock parameter, taken from COARE 3....">
<polygon fill="white" stroke="#666666" points="534,-876.5 411.5,-876.5 411.5,-846 534,-846 534,-876.5"/>
<text xml:space="preserve" text-anchor="start" x="419.5" y="-863" font-family="Source Sans Pro" font-size="10.00">module_sf_mynn::edson</text>
<text xml:space="preserve" text-anchor="middle" x="472.75" y="-851.75" font-family="Source Sans Pro" font-size="10.00">_etal_2013</text>
</a>
</g>
</g>
<!-- Node2&#45;&gt;Node6 -->
<g id="edge5_Node000002_Node000006" class="edge">
<title>Node2&#45;&gt;Node6</title>
<g id="a_edge5_Node000002_Node000006"><a xlink:title=" ">
<path fill="none" stroke="#63b8ff" d="M271.34,-589.14C277.49,-627.22 304.85,-765.79 386,-836.25 390.42,-840.09 395.41,-843.34 400.69,-846.1"/>
<polygon fill="#63b8ff" stroke="#63b8ff" points="399.22,-849.27 409.78,-850.18 402.09,-842.89 399.22,-849.27"/>
</a>
</g>
</g>
<!-- Node7 -->
<g id="Node000007" class="node">
<title>Node7</title>
<g id="a_Node000007"><a xlink:href="group__mynn__sfc_gafae928cdee7c24f2ec11f10708193792.html#gafae928cdee7c24f2ec11f10708193792" target="_top" xlink:title="This formulation for thermal and moisture roughness length (Zt and Zq) as a function of the roughness...">
<polygon fill="white" stroke="#666666" points="532.5,-827.5 413,-827.5 413,-797 532.5,-797 532.5,-827.5"/>
<text xml:space="preserve" text-anchor="start" x="421" y="-814" font-family="Source Sans Pro" font-size="10.00">module_sf_mynn::fairall</text>
<text xml:space="preserve" text-anchor="middle" x="472.75" y="-802.75" font-family="Source Sans Pro" font-size="10.00">_etal_2003</text>
</a>
</g>
</g>
<!-- Node2&#45;&gt;Node7 -->
<g id="edge6_Node000002_Node000007" class="edge">
<title>Node2&#45;&gt;Node7</title>
<g id="a_edge6_Node000002_Node000007"><a xlink:title=" ">
<path fill="none" stroke="#63b8ff" d="M272.5,-589.28C281.81,-622.79 316.45,-731.85 386,-787.25 391.05,-791.27 396.73,-794.65 402.69,-797.48"/>
<polygon fill="#63b8ff" stroke="#63b8ff" points="400.97,-800.56 411.55,-801.17 403.66,-794.09 400.97,-800.56"/>
</a>
</g>
</g>
<!-- Node8 -->
<g id="Node000008" class="node">
<title>Node8</title>
<g id="a_Node000008"><a xlink:href="group__mynn__sfc_ga4b9bb922e616c8c76bf1f117db9bdd4b.html#ga4b9bb922e616c8c76bf1f117db9bdd4b" target="_top" xlink:title="This formulation for thermal and moisture roughness length (Zt and Zq) as a function of the roughness...">
<polygon fill="white" stroke="#666666" points="532.5,-778.5 413,-778.5 413,-748 532.5,-748 532.5,-778.5"/>
<text xml:space="preserve" text-anchor="start" x="421" y="-765" font-family="Source Sans Pro" font-size="10.00">module_sf_mynn::fairall</text>
<text xml:space="preserve" text-anchor="middle" x="472.75" y="-753.75" font-family="Source Sans Pro" font-size="10.00">_etal_2014</text>
</a>
</g>
</g>
<!-- Node2&#45;&gt;Node8 -->
<g id="edge7_Node000002_Node000008" class="edge">
<title>Node2&#45;&gt;Node8</title>
<g id="a_edge7_Node000002_Node000008"><a xlink:title=" ">
<path fill="none" stroke="#63b8ff" d="M274.23,-589.31C286.98,-617.56 327.12,-698.28 386,-739.25 391,-742.73 396.48,-745.7 402.19,-748.25"/>
<polygon fill="#63b8ff" stroke="#63b8ff" points="400.66,-751.4 411.25,-751.82 403.23,-744.89 400.66,-751.4"/>
</a>
</g>
</g>
<!-- Node9 -->
<g id="Node000009" class="node">
<title>Node9</title>
<g id="a_Node000009"><a xlink:href="group__mynn__sfc_gabcddba37d2f63570c5487a832d6d0808.html#gabcddba37d2f63570c5487a832d6d0808" target="_top" xlink:title="This formulation for the thermal and moisture roughness lengths (Zt and Zq) relates them to Z0 via th...">
<polygon fill="white" stroke="#666666" points="547.88,-729.88 397.62,-729.88 397.62,-710.62 547.88,-710.62 547.88,-729.88"/>
<text xml:space="preserve" text-anchor="middle" x="472.75" y="-716.38" font-family="Source Sans Pro" font-size="10.00">module_sf_mynn::garratt_1992</text>
</a>
</g>
</g>
<!-- Node2&#45;&gt;Node9 -->
<g id="edge8_Node000002_Node000009" class="edge">
<title>Node2&#45;&gt;Node9</title>
<g id="a_edge8_Node000002_Node000009"><a xlink:title=" ">
<path fill="none" stroke="#63b8ff" d="M276.33,-589.37C292,-613.04 334.57,-672.21 386,-701.25 389.19,-703.05 392.53,-704.68 395.97,-706.15"/>
<polygon fill="#63b8ff" stroke="#63b8ff" points="394.53,-709.35 405.12,-709.6 396.99,-702.8 394.53,-709.35"/>
</a>
</g>
</g>
<!-- Node10 -->
<g id="Node000010" class="node">
<title>Node10</title>
<g id="a_Node000010"><a xlink:href="group__mynn__sfc_ga8132bf9ce581779f82f4118e8a275013.html#ga8132bf9ce581779f82f4118e8a275013" target="_top" xlink:title=" ">
<polygon fill="white" stroke="#666666" points="527.62,-692.5 417.88,-692.5 417.88,-662 527.62,-662 527.62,-692.5"/>
<text xml:space="preserve" text-anchor="start" x="425.88" y="-679" font-family="Source Sans Pro" font-size="10.00">module_sf_mynn::gfs</text>
<text xml:space="preserve" text-anchor="middle" x="472.75" y="-667.75" font-family="Source Sans Pro" font-size="10.00">_z0_lnd</text>
</a>
</g>
</g>
<!-- Node2&#45;&gt;Node10 -->
<g id="edge9_Node000002_Node000010" class="edge">
<title>Node2&#45;&gt;Node10</title>
<g id="a_edge9_Node000002_Node000010"><a xlink:title=" ">
<path fill="none" stroke="#63b8ff" d="M283.12,-589.31C303.99,-604.76 346.25,-634.38 386,-652.25 392.65,-655.24 399.75,-657.98 406.92,-660.45"/>
<polygon fill="#63b8ff" stroke="#63b8ff" points="405.38,-663.63 415.97,-663.41 407.55,-656.97 405.38,-663.63"/>
</a>
</g>
</g>
<!-- Node11 -->
<g id="Node000011" class="node">
<title>Node11</title>
<g id="a_Node000011"><a xlink:href="group__mynn__sfc_gaaa5898e1b7cca87a6682f85defb5c2e9.html#gaaa5898e1b7cca87a6682f85defb5c2e9" target="_top" xlink:title=" ">
<polygon fill="white" stroke="#666666" points="527.62,-643.5 417.88,-643.5 417.88,-613 527.62,-613 527.62,-643.5"/>
<text xml:space="preserve" text-anchor="start" x="425.88" y="-630" font-family="Source Sans Pro" font-size="10.00">module_sf_mynn::gfs</text>
<text xml:space="preserve" text-anchor="middle" x="472.75" y="-618.75" font-family="Source Sans Pro" font-size="10.00">_z0_wat</text>
</a>
</g>
</g>
<!-- Node2&#45;&gt;Node11 -->
<g id="edge10_Node000002_Node000011" class="edge">
<title>Node2&#45;&gt;Node11</title>
<g id="a_edge10_Node000002_Node000011"><a xlink:title=" ">
<path fill="none" stroke="#63b8ff" d="M311.21,-589.28C338.66,-595.95 375.27,-604.83 406.6,-612.44"/>
<polygon fill="#63b8ff" stroke="#63b8ff" points="405.42,-615.75 415.96,-614.71 407.07,-608.95 405.42,-615.75"/>
</a>
</g>
</g>
<!-- Node14 -->
<g id="Node000014" class="node">
<title>Node14</title>
<g id="a_Node000014"><a xlink:href="group__mynn__sfc_gaf86498f1d153a9a81a209266b298268f.html#gaf86498f1d153a9a81a209266b298268f" target="_top" xlink:title=" ">
<polygon fill="white" stroke="#666666" points="527.62,-594.5 417.88,-594.5 417.88,-564 527.62,-564 527.62,-594.5"/>
<text xml:space="preserve" text-anchor="start" x="425.88" y="-581" font-family="Source Sans Pro" font-size="10.00">module_sf_mynn::gfs</text>
<text xml:space="preserve" text-anchor="middle" x="472.75" y="-569.75" font-family="Source Sans Pro" font-size="10.00">_zt_lnd</text>
</a>
</g>
</g>
<!-- Node2&#45;&gt;Node14 -->
<g id="edge13_Node000002_Node000014" class="edge">
<title>Node2&#45;&gt;Node14</title>
<g id="a_edge13_Node000002_Node000014"><a xlink:title=" ">
<path fill="none" stroke="#63b8ff" d="M350.24,-579.25C368.73,-579.25 388.18,-579.25 405.97,-579.25"/>
<polygon fill="#63b8ff" stroke="#63b8ff" points="405.88,-582.75 415.88,-579.25 405.88,-575.75 405.88,-582.75"/>
</a>
</g>
</g>
<!-- Node15 -->
<g id="Node000015" class="node">
<title>Node15</title>
<g id="a_Node000015"><a xlink:href="group__mynn__sfc_ga16135fde36dbe926afe4a8883ded1d1d.html#ga16135fde36dbe926afe4a8883ded1d1d" target="_top" xlink:title=" ">
<polygon fill="white" stroke="#666666" points="527.62,-545.5 417.88,-545.5 417.88,-515 527.62,-515 527.62,-545.5"/>
<text xml:space="preserve" text-anchor="start" x="425.88" y="-532" font-family="Source Sans Pro" font-size="10.00">module_sf_mynn::gfs</text>
<text xml:space="preserve" text-anchor="middle" x="472.75" y="-520.75" font-family="Source Sans Pro" font-size="10.00">_zt_wat</text>
</a>
</g>
</g>
<!-- Node2&#45;&gt;Node15 -->
<g id="edge14_Node000002_Node000015" class="edge">
<title>Node2&#45;&gt;Node15</title>
<g id="a_edge14_Node000002_Node000015"><a xlink:title=" ">
<path fill="none" stroke="#63b8ff" d="M311.21,-569.22C338.66,-562.55 375.27,-553.67 406.6,-546.06"/>
<polygon fill="#63b8ff" stroke="#63b8ff" points="407.07,-549.55 415.96,-543.79 405.42,-542.75 407.07,-549.55"/>
</a>
</g>
</g>
<!-- Node18 -->
<g id="Node000018" class="node">
<title>Node18</title>
<g id="a_Node000018"><a xlink:href="group__mynn__sfc_ga313671969a16aee828efb31d353b213c.html#ga313671969a16aee828efb31d353b213c" target="_top" xlink:title="This subroutine returns a more robust z/L that best matches the z/L from Hogstrom (1996) for unstable...">
<polygon fill="white" stroke="#666666" points="523.12,-496.5 422.38,-496.5 422.38,-466 523.12,-466 523.12,-496.5"/>
<text xml:space="preserve" text-anchor="start" x="430.38" y="-483" font-family="Source Sans Pro" font-size="10.00">module_sf_mynn::li</text>
<text xml:space="preserve" text-anchor="middle" x="472.75" y="-471.75" font-family="Source Sans Pro" font-size="10.00">_etal_2010</text>
</a>
</g>
</g>
<!-- Node2&#45;&gt;Node18 -->
<g id="edge17_Node000002_Node000018" class="edge">
<title>Node2&#45;&gt;Node18</title>
<g id="a_edge17_Node000002_Node000018"><a xlink:title=" ">
<path fill="none" stroke="#63b8ff" d="M283.12,-569.19C303.99,-553.74 346.25,-524.12 386,-506.25 393.96,-502.67 402.56,-499.46 411.13,-496.63"/>
<polygon fill="#63b8ff" stroke="#63b8ff" points="411.99,-500.03 420.49,-493.69 409.9,-493.35 411.99,-500.03"/>
</a>
</g>
</g>
<!-- Node19 -->
<g id="Node000019" class="node">
<title>Node19</title>
<g id="a_Node000019"><a xlink:href="group__mynn__sfc_ga2a33b37b24c6050511f00967992ece58.html#ga2a33b37b24c6050511f00967992ece58" target="_top" xlink:title=" ">
<polygon fill="white" stroke="#666666" points="529.88,-429.5 415.62,-429.5 415.62,-399 529.88,-399 529.88,-429.5"/>
<text xml:space="preserve" text-anchor="start" x="423.62" y="-416" font-family="Source Sans Pro" font-size="10.00">module_sf_mynn::psih</text>
<text xml:space="preserve" text-anchor="middle" x="472.75" y="-404.75" font-family="Source Sans Pro" font-size="10.00">_stable</text>
</a>
</g>
</g>
<!-- Node2&#45;&gt;Node19 -->
<g id="edge18_Node000002_Node000019" class="edge">
<title>Node2&#45;&gt;Node19</title>
<g id="a_edge18_Node000002_Node000019"><a xlink:title=" ">
<path fill="none" stroke="#63b8ff" d="M277.37,-569.29C294.56,-546.94 339,-492.06 386,-457.25 397.51,-448.73 410.97,-441.08 423.76,-434.67"/>
<polygon fill="#63b8ff" stroke="#63b8ff" points="424.98,-437.97 432.47,-430.47 421.94,-431.67 424.98,-437.97"/>
</a>
</g>
</g>
<!-- Node22 -->
<g id="Node000022" class="node">
<title>Node22</title>
<g id="a_Node000022"><a xlink:href="group__mynn__sfc_ga6e10bc7bd36fcdbf2b555f49396c9eec.html#ga6e10bc7bd36fcdbf2b555f49396c9eec" target="_top" xlink:title=" ">
<polygon fill="white" stroke="#666666" points="529.88,-362.5 415.62,-362.5 415.62,-332 529.88,-332 529.88,-362.5"/>
<text xml:space="preserve" text-anchor="start" x="423.62" y="-349" font-family="Source Sans Pro" font-size="10.00">module_sf_mynn::psih</text>
<text xml:space="preserve" text-anchor="middle" x="472.75" y="-337.75" font-family="Source Sans Pro" font-size="10.00">_unstable</text>
</a>
</g>
</g>
<!-- Node2&#45;&gt;Node22 -->
<g id="edge24_Node000002_Node000022" class="edge">
<title>Node2&#45;&gt;Node22</title>
<g id="a_edge24_Node000002_Node000022"><a xlink:title=" ">
<path fill="none" stroke="#63b8ff" d="M273.66,-569.31C285.68,-538.84 325.84,-445.44 386,-390.25 395.59,-381.46 407.31,-374.02 418.97,-367.94"/>
<polygon fill="#63b8ff" stroke="#63b8ff" points="420.35,-371.16 427.78,-363.61 417.26,-364.88 420.35,-371.16"/>
</a>
</g>
</g>
<!-- Node25 -->
<g id="Node000025" class="node">
<title>Node25</title>
<g id="a_Node000025"><a xlink:href="group__mynn__sfc_ga454633ed81c49d8e9468a102612e38d1.html#ga454633ed81c49d8e9468a102612e38d1" target="_top" xlink:title="look&#45;up table functions &#45; or, if beyond &#45;10 &lt; z/L &lt; 10, recalculate">
<polygon fill="white" stroke="#666666" points="531.38,-295.5 414.12,-295.5 414.12,-265 531.38,-265 531.38,-295.5"/>
<text xml:space="preserve" text-anchor="start" x="422.12" y="-282" font-family="Source Sans Pro" font-size="10.00">module_sf_mynn::psim</text>
<text xml:space="preserve" text-anchor="middle" x="472.75" y="-270.75" font-family="Source Sans Pro" font-size="10.00">_stable</text>
</a>
</g>
</g>
<!-- Node2&#45;&gt;Node25 -->
<g id="edge30_Node000002_Node000025" class="edge">
<title>Node2&#45;&gt;Node25</title>
<g id="a_edge30_Node000002_Node000025"><a xlink:title=" ">
<path fill="none" stroke="#63b8ff" d="M271.86,-569.33C279.75,-532.26 312.08,-400.11 386,-323.25 394.57,-314.34 405.39,-306.97 416.42,-301.02"/>
<polygon fill="#63b8ff" stroke="#63b8ff" points="417.84,-304.22 425.21,-296.61 414.7,-297.96 417.84,-304.22"/>
</a>
</g>
</g>
<!-- Node28 -->
<g id="Node000028" class="node">
<title>Node28</title>
<g id="a_Node000028"><a xlink:href="group__mynn__sfc_ga885118af5fa22eb8e00039c531ddd8db.html#ga885118af5fa22eb8e00039c531ddd8db" target="_top" xlink:title=" ">
<polygon fill="white" stroke="#666666" points="531.38,-228.5 414.12,-228.5 414.12,-198 531.38,-198 531.38,-228.5"/>
<text xml:space="preserve" text-anchor="start" x="422.12" y="-215" font-family="Source Sans Pro" font-size="10.00">module_sf_mynn::psim</text>
<text xml:space="preserve" text-anchor="middle" x="472.75" y="-203.75" font-family="Source Sans Pro" font-size="10.00">_unstable</text>
</a>
</g>
</g>
<!-- Node2&#45;&gt;Node28 -->
<g id="edge36_Node000002_Node000028" class="edge">
<title>Node2&#45;&gt;Node28</title>
<g id="a_edge36_Node000002_Node000028"><a xlink:title=" ">
<path fill="none" stroke="#63b8ff" d="M270.8,-569.2C275.25,-526.21 298.02,-355.44 386,-256.25 393.96,-247.28 404.22,-239.95 414.86,-234.06"/>
<polygon fill="#63b8ff" stroke="#63b8ff" points="416.45,-237.18 423.77,-229.52 413.27,-230.94 416.45,-237.18"/>
</a>
</g>
</g>
<!-- Node31 -->
<g id="Node000031" class="node">
<title>Node31</title>
<g id="a_Node000031"><a xlink:href="group__mynn__sfc_ga9ab0b939197c07ac6ef3cae7acee13a5.html#ga9ab0b939197c07ac6ef3cae7acee13a5" target="_top" xlink:title="This formulation for roughness length was designed account for. wave steepness.">
<polygon fill="white" stroke="#666666" points="532.88,-179.5 412.62,-179.5 412.62,-149 532.88,-149 532.88,-179.5"/>
<text xml:space="preserve" text-anchor="start" x="420.62" y="-166" font-family="Source Sans Pro" font-size="10.00">module_sf_mynn::taylor</text>
<text xml:space="preserve" text-anchor="middle" x="472.75" y="-154.75" font-family="Source Sans Pro" font-size="10.00">_yelland_2001</text>
</a>
</g>
</g>
<!-- Node2&#45;&gt;Node31 -->
<g id="edge42_Node000002_Node000031" class="edge">
<title>Node2&#45;&gt;Node31</title>
<g id="a_edge42_Node000002_Node000031"><a xlink:title=" ">
<path fill="none" stroke="#63b8ff" d="M269.63,-569.4C268.95,-520.55 272.53,-302.07 386,-189.25 390.65,-184.63 396.1,-180.85 401.97,-177.76"/>
<polygon fill="#63b8ff" stroke="#63b8ff" points="403.08,-181.1 410.77,-173.82 400.22,-174.71 403.08,-181.1"/>
</a>
</g>
</g>
<!-- Node32 -->
<g id="Node000032" class="node">
<title>Node32</title>
<g id="a_Node000032"><a xlink:href="group__mynn__sfc_ga259ab52e1c191830559f851230ca17d9.html#ga259ab52e1c191830559f851230ca17d9" target="_top" xlink:title="This is a modified version of Yang et al (2002 QJRMS, 2008 JAMC) and Chen et al (2010,...">
<polygon fill="white" stroke="#666666" points="544.5,-130.88 401,-130.88 401,-111.62 544.5,-111.62 544.5,-130.88"/>
<text xml:space="preserve" text-anchor="middle" x="472.75" y="-117.38" font-family="Source Sans Pro" font-size="10.00">module_sf_mynn::yang_2008</text>
</a>
</g>
</g>
<!-- Node2&#45;&gt;Node32 -->
<g id="edge43_Node000002_Node000032" class="edge">
<title>Node2&#45;&gt;Node32</title>
<g id="a_edge43_Node000002_Node000032"><a xlink:title=" ">
<path fill="none" stroke="#63b8ff" d="M271.1,-569.31C278.62,-510.01 320.32,-203.32 386,-140.25 387.61,-138.71 389.31,-137.28 391.1,-135.95"/>
<polygon fill="#63b8ff" stroke="#63b8ff" points="392.58,-139.15 399.32,-130.97 388.95,-133.16 392.58,-139.15"/>
</a>
</g>
</g>
<!-- Node33 -->
<g id="Node000033" class="node">
<title>Node33</title>
<g id="a_Node000033"><a xlink:href="group__mynn__sfc_gac8b632de4cd0fcd7e8dfa9a943edaec4.html#gac8b632de4cd0fcd7e8dfa9a943edaec4" target="_top" xlink:title="This subroutine returns the thermal and moisture roughness lengths from Zilitinkevich (1995) and Zili...">
<polygon fill="white" stroke="#666666" points="559.5,-93.88 386,-93.88 386,-74.62 559.5,-74.62 559.5,-93.88"/>
<text xml:space="preserve" text-anchor="middle" x="472.75" y="-80.38" font-family="Source Sans Pro" font-size="10.00">module_sf_mynn::zilitinkevich_1995</text>
</a>
</g>
</g>
<!-- Node2&#45;&gt;Node33 -->
<g id="edge44_Node000002_Node000033" class="edge">
<title>Node2&#45;&gt;Node33</title>
<g id="a_edge44_Node000002_Node000033"><a xlink:title=" ">
<path fill="none" stroke="#63b8ff" d="M270.87,-569.27C277.31,-506.9 314.98,-171.04 386,-102.25 386.4,-101.87 386.8,-101.49 387.21,-101.12"/>
<polygon fill="#63b8ff" stroke="#63b8ff" points="389.25,-103.96 395.3,-95.26 385.15,-98.29 389.25,-103.96"/>
</a>
</g>
</g>
<!-- Node12 -->
<g id="Node000012" class="node">
<title>Node12</title>
<g id="a_Node000012"><a xlink:href="group__mynn__sfc_gaeb3eb0de61ef2d256cf8b8c53cd99d79.html#gaeb3eb0de61ef2d256cf8b8c53cd99d79" target="_top" xlink:title="add fitted z0,zt curves for hurricane application (used in HWRF/HMON) Weiguo Wang,...">
<polygon fill="white" stroke="#666666" points="739.75,-671.88 595.5,-671.88 595.5,-652.62 739.75,-652.62 739.75,-671.88"/>
<text xml:space="preserve" text-anchor="middle" x="667.62" y="-658.38" font-family="Source Sans Pro" font-size="10.00">module_sf_mynn::znot_m_v6</text>
</a>
</g>
</g>
<!-- Node11&#45;&gt;Node12 -->
<g id="edge11_Node000011_Node000012" class="edge">
<title>Node11&#45;&gt;Node12</title>
<g id="a_edge11_Node000011_Node000012"><a xlink:title=" ">
<path fill="none" stroke="#63b8ff" d="M527.99,-637.81C549.82,-641.66 575.25,-646.14 598.32,-650.21"/>
<polygon fill="#63b8ff" stroke="#63b8ff" points="597.48,-653.62 607.94,-651.9 598.7,-646.72 597.48,-653.62"/>
</a>
</g>
</g>
<!-- Node13 -->
<g id="Node000013" class="node">
<title>Node13</title>
<g id="a_Node000013"><a xlink:href="group__mynn__sfc_ga784c4ee38a178b60dc3b77cb975d01fc.html#ga784c4ee38a178b60dc3b77cb975d01fc" target="_top" xlink:title="Calculate areodynamical roughness over water with input 10&#45;m wind For low&#45;to&#45;moderate winds,...">
<polygon fill="white" stroke="#666666" points="739.75,-634.88 595.5,-634.88 595.5,-615.62 739.75,-615.62 739.75,-634.88"/>
<text xml:space="preserve" text-anchor="middle" x="667.62" y="-621.38" font-family="Source Sans Pro" font-size="10.00">module_sf_mynn::znot_m_v7</text>
</a>
</g>
</g>
<!-- Node11&#45;&gt;Node13 -->
<g id="edge12_Node000011_Node000013" class="edge">
<title>Node11&#45;&gt;Node13</title>
<g id="a_edge12_Node000011_Node000013"><a xlink:title=" ">
<path fill="none" stroke="#63b8ff" d="M527.99,-627.41C545.33,-627.14 564.93,-626.83 583.82,-626.54"/>
<polygon fill="#63b8ff" stroke="#63b8ff" points="583.69,-630.04 593.63,-626.39 583.58,-623.04 583.69,-630.04"/>
</a>
</g>
</g>
<!-- Node16 -->
<g id="Node000016" class="node">
<title>Node16</title>
<g id="a_Node000016"><a xlink:href="group__mynn__sfc_ga88ef473ba576cf88e7848dc3734c11c8.html#ga88ef473ba576cf88e7848dc3734c11c8" target="_top" xlink:title="Calculate scalar roughness over water with input 10&#45;m wind For low&#45;to&#45;moderate winds,...">
<polygon fill="white" stroke="#666666" points="737.12,-591.88 598.12,-591.88 598.12,-572.62 737.12,-572.62 737.12,-591.88"/>
<text xml:space="preserve" text-anchor="middle" x="667.62" y="-578.38" font-family="Source Sans Pro" font-size="10.00">module_sf_mynn::znot_t_v6</text>
</a>
</g>
</g>
<!-- Node15&#45;&gt;Node16 -->
<g id="edge15_Node000015_Node000016" class="edge">
<title>Node15&#45;&gt;Node16</title>
<g id="a_edge15_Node000015_Node000016"><a xlink:title=" ">
<path fill="none" stroke="#63b8ff" d="M527.92,-545.68C548.98,-551.6 573.34,-558.35 595.5,-564.25 601.81,-565.93 608.44,-567.66 615.02,-569.35"/>
<polygon fill="#63b8ff" stroke="#63b8ff" points="613.94,-572.68 624.49,-571.77 615.67,-565.9 613.94,-572.68"/>
</a>
</g>
</g>
<!-- Node17 -->
<g id="Node000017" class="node">
<title>Node17</title>
<g id="a_Node000017"><a xlink:href="group__mynn__sfc_ga13aa942a8049528849034aa65d68de58.html#ga13aa942a8049528849034aa65d68de58" target="_top" xlink:title="Calculate scalar roughness over water with input 10&#45;m wind For low&#45;to&#45;moderate winds,...">
<polygon fill="white" stroke="#666666" points="737.12,-554.88 598.12,-554.88 598.12,-535.62 737.12,-535.62 737.12,-554.88"/>
<text xml:space="preserve" text-anchor="middle" x="667.62" y="-541.38" font-family="Source Sans Pro" font-size="10.00">module_sf_mynn::znot_t_v7</text>
</a>
</g>
</g>
<!-- Node15&#45;&gt;Node17 -->
<g id="edge16_Node000015_Node000017" class="edge">
<title>Node15&#45;&gt;Node17</title>
<g id="a_edge16_Node000015_Node000017"><a xlink:title=" ">
<path fill="none" stroke="#63b8ff" d="M527.99,-534.47C546.06,-535.87 566.59,-537.47 586.21,-539"/>
<polygon fill="#63b8ff" stroke="#63b8ff" points="585.88,-542.48 596.12,-539.77 586.43,-535.5 585.88,-542.48"/>
</a>
</g>
</g>
<!-- Node19&#45;&gt;Node19 -->
<g id="edge19_Node000019_Node000019" class="edge">
<title>Node19&#45;&gt;Node19</title>
<g id="a_edge19_Node000019_Node000019"><a xlink:title=" ">
<path fill="none" stroke="#63b8ff" d="M438.22,-429.99C431.17,-439.06 442.68,-447.5 472.75,-447.5 489.19,-447.5 500.09,-444.97 505.43,-441.2"/>
<polygon fill="#63b8ff" stroke="#63b8ff" points="508.86,-441.92 507.04,-431.48 501.95,-440.78 508.86,-441.92"/>
</a>
</g>
</g>
<!-- Node20 -->
<g id="Node000020" class="node">
<title>Node20</title>
<g id="a_Node000020"><a xlink:href="group__mynn__sfc_ga214373cdd64d666866d4c818b57a47ec.html#ga214373cdd64d666866d4c818b57a47ec" target="_top" xlink:title=" ">
<polygon fill="white" stroke="#666666" points="724.75,-499.5 610.5,-499.5 610.5,-469 724.75,-469 724.75,-499.5"/>
<text xml:space="preserve" text-anchor="start" x="618.5" y="-486" font-family="Source Sans Pro" font-size="10.00">module_sf_mynn::psih</text>
<text xml:space="preserve" text-anchor="middle" x="667.62" y="-474.75" font-family="Source Sans Pro" font-size="10.00">_stable_full</text>
</a>
</g>
</g>
<!-- Node19&#45;&gt;Node20 -->
<g id="edge20_Node000019_Node000020" class="edge">
<title>Node19&#45;&gt;Node20</title>
<g id="a_edge20_Node000019_Node000020"><a xlink:title=" ">
<path fill="none" stroke="#63b8ff" d="M515.67,-429.93C539.12,-438.66 568.9,-449.66 595.5,-459.25 600.54,-461.07 605.8,-462.95 611.06,-464.82"/>
<polygon fill="#63b8ff" stroke="#63b8ff" points="609.79,-468.08 620.39,-468.12 612.13,-461.48 609.79,-468.08"/>
</a>
</g>
</g>
<!-- Node21 -->
<g id="Node000021" class="node">
<title>Node21</title>
<g id="a_Node000021"><a xlink:href="group__mynn__sfc_ga2186e04d782df51218fbd03d31517fc8.html#ga2186e04d782df51218fbd03d31517fc8" target="_top" xlink:title=" ">
<polygon fill="white" stroke="#666666" points="724.75,-432.5 610.5,-432.5 610.5,-402 724.75,-402 724.75,-432.5"/>
<text xml:space="preserve" text-anchor="start" x="618.5" y="-419" font-family="Source Sans Pro" font-size="10.00">module_sf_mynn::psih</text>
<text xml:space="preserve" text-anchor="middle" x="667.62" y="-407.75" font-family="Source Sans Pro" font-size="10.00">_stable_full_gfs</text>
</a>
</g>
</g>
<!-- Node19&#45;&gt;Node21 -->
<g id="edge22_Node000019_Node000021" class="edge">
<title>Node19&#45;&gt;Node21</title>
<g id="a_edge22_Node000019_Node000021"><a xlink:title=" ">
<path fill="none" stroke="#63b8ff" d="M530.32,-415.13C551.71,-415.46 576.28,-415.84 598.61,-416.19"/>
<polygon fill="#63b8ff" stroke="#63b8ff" points="598.49,-419.69 608.55,-416.35 598.6,-412.69 598.49,-419.69"/>
</a>
</g>
</g>
<!-- Node20&#45;&gt;Node20 -->
<g id="edge21_Node000020_Node000020" class="edge">
<title>Node20&#45;&gt;Node20</title>
<g id="a_edge21_Node000020_Node000020"><a xlink:title=" ">
<path fill="none" stroke="#63b8ff" d="M633.09,-499.99C626.05,-509.06 637.56,-517.5 667.62,-517.5 684.07,-517.5 694.96,-514.97 700.31,-511.2"/>
<polygon fill="#63b8ff" stroke="#63b8ff" points="703.74,-511.92 701.91,-501.48 696.83,-510.78 703.74,-511.92"/>
</a>
</g>
</g>
<!-- Node21&#45;&gt;Node21 -->
<g id="edge23_Node000021_Node000021" class="edge">
<title>Node21&#45;&gt;Node21</title>
<g id="a_edge23_Node000021_Node000021"><a xlink:title=" ">
<path fill="none" stroke="#63b8ff" d="M633.09,-432.99C626.05,-442.06 637.56,-450.5 667.62,-450.5 684.07,-450.5 694.96,-447.97 700.31,-444.2"/>
<polygon fill="#63b8ff" stroke="#63b8ff" points="703.74,-444.92 701.91,-434.48 696.83,-443.78 703.74,-444.92"/>
</a>
</g>
</g>
<!-- Node22&#45;&gt;Node22 -->
<g id="edge25_Node000022_Node000022" class="edge">
<title>Node22&#45;&gt;Node22</title>
<g id="a_edge25_Node000022_Node000022"><a xlink:title=" ">
<path fill="none" stroke="#63b8ff" d="M438.22,-362.99C431.17,-372.06 442.68,-380.5 472.75,-380.5 489.19,-380.5 500.09,-377.97 505.43,-374.2"/>
<polygon fill="#63b8ff" stroke="#63b8ff" points="508.86,-374.92 507.04,-364.48 501.95,-373.78 508.86,-374.92"/>
</a>
</g>
</g>
<!-- Node23 -->
<g id="Node000023" class="node">
<title>Node23</title>
<g id="a_Node000023"><a xlink:href="group__mynn__sfc_gae46cc20c17ea15f5c9f5610ab6942073.html#gae46cc20c17ea15f5c9f5610ab6942073" target="_top" xlink:title=" ">
<polygon fill="white" stroke="#666666" points="724.75,-365.5 610.5,-365.5 610.5,-335 724.75,-335 724.75,-365.5"/>
<text xml:space="preserve" text-anchor="start" x="618.5" y="-352" font-family="Source Sans Pro" font-size="10.00">module_sf_mynn::psih</text>
<text xml:space="preserve" text-anchor="middle" x="667.62" y="-340.75" font-family="Source Sans Pro" font-size="10.00">_unstable_full</text>
</a>
</g>
</g>
<!-- Node22&#45;&gt;Node23 -->
<g id="edge26_Node000022_Node000023" class="edge">
<title>Node22&#45;&gt;Node23</title>
<g id="a_edge26_Node000022_Node000023"><a xlink:title=" ">
<path fill="none" stroke="#63b8ff" d="M530.32,-348.13C551.71,-348.46 576.28,-348.84 598.61,-349.19"/>
<polygon fill="#63b8ff" stroke="#63b8ff" points="598.49,-352.69 608.55,-349.35 598.6,-345.69 598.49,-352.69"/>
</a>
</g>
</g>
<!-- Node24 -->
<g id="Node000024" class="node">
<title>Node24</title>
<g id="a_Node000024"><a xlink:href="group__mynn__sfc_gaa556db3881e63c9fc578aafd1071e248.html#gaa556db3881e63c9fc578aafd1071e248" target="_top" xlink:title=" ">
<polygon fill="white" stroke="#666666" points="724.75,-298.5 610.5,-298.5 610.5,-268 724.75,-268 724.75,-298.5"/>
<text xml:space="preserve" text-anchor="start" x="618.5" y="-285" font-family="Source Sans Pro" font-size="10.00">module_sf_mynn::psih</text>
<text xml:space="preserve" text-anchor="middle" x="667.62" y="-273.75" font-family="Source Sans Pro" font-size="10.00">_unstable_full_gfs</text>
</a>
</g>
</g>
<!-- Node22&#45;&gt;Node24 -->
<g id="edge28_Node000022_Node000024" class="edge">
<title>Node22&#45;&gt;Node24</title>
<g id="a_edge28_Node000022_Node000024"><a xlink:title=" ">
<path fill="none" stroke="#63b8ff" d="M529.73,-331.5C539.68,-328.54 549.92,-325.39 559.5,-322.25 577.65,-316.31 597.33,-309.31 614.82,-302.89"/>
<polygon fill="#63b8ff" stroke="#63b8ff" points="615.8,-306.25 623.96,-299.5 613.37,-299.69 615.8,-306.25"/>
</a>
</g>
</g>
<!-- Node23&#45;&gt;Node23 -->
<g id="edge27_Node000023_Node000023" class="edge">
<title>Node23&#45;&gt;Node23</title>
<g id="a_edge27_Node000023_Node000023"><a xlink:title=" ">
<path fill="none" stroke="#63b8ff" d="M633.09,-365.99C626.05,-375.06 637.56,-383.5 667.62,-383.5 684.07,-383.5 694.96,-380.97 700.31,-377.2"/>
<polygon fill="#63b8ff" stroke="#63b8ff" points="703.74,-377.92 701.91,-367.48 696.83,-376.78 703.74,-377.92"/>
</a>
</g>
</g>
<!-- Node24&#45;&gt;Node24 -->
<g id="edge29_Node000024_Node000024" class="edge">
<title>Node24&#45;&gt;Node24</title>
<g id="a_edge29_Node000024_Node000024"><a xlink:title=" ">
<path fill="none" stroke="#63b8ff" d="M633.09,-298.99C626.05,-308.06 637.56,-316.5 667.62,-316.5 684.07,-316.5 694.96,-313.97 700.31,-310.2"/>
<polygon fill="#63b8ff" stroke="#63b8ff" points="703.74,-310.92 701.91,-300.48 696.83,-309.78 703.74,-310.92"/>
</a>
</g>
</g>
<!-- Node25&#45;&gt;Node25 -->
<g id="edge31_Node000025_Node000025" class="edge">
<title>Node25&#45;&gt;Node25</title>
<g id="a_edge31_Node000025_Node000025"><a xlink:title=" ">
<path fill="none" stroke="#63b8ff" d="M438.22,-295.99C431.17,-305.06 442.68,-313.5 472.75,-313.5 489.19,-313.5 500.09,-310.97 505.43,-307.2"/>
<polygon fill="#63b8ff" stroke="#63b8ff" points="508.86,-307.92 507.04,-297.48 501.95,-306.78 508.86,-307.92"/>
</a>
</g>
</g>
<!-- Node26 -->
<g id="Node000026" class="node">
<title>Node26</title>
<g id="a_Node000026"><a xlink:href="group__mynn__sfc_gaaefd04628906b35b8ba54bbf62e6a78f.html#gaaefd04628906b35b8ba54bbf62e6a78f" target="_top" xlink:title=" ">
<polygon fill="white" stroke="#666666" points="726.25,-231.5 609,-231.5 609,-201 726.25,-201 726.25,-231.5"/>
<text xml:space="preserve" text-anchor="start" x="617" y="-218" font-family="Source Sans Pro" font-size="10.00">module_sf_mynn::psim</text>
<text xml:space="preserve" text-anchor="middle" x="667.62" y="-206.75" font-family="Source Sans Pro" font-size="10.00">_stable_full</text>
</a>
</g>
</g>
<!-- Node25&#45;&gt;Node26 -->
<g id="edge32_Node000025_Node000026" class="edge">
<title>Node25&#45;&gt;Node26</title>
<g id="a_edge32_Node000025_Node000026"><a xlink:title=" ">
<path fill="none" stroke="#63b8ff" d="M529.73,-264.5C539.68,-261.54 549.92,-258.39 559.5,-255.25 577.65,-249.31 597.33,-242.31 614.82,-235.89"/>
<polygon fill="#63b8ff" stroke="#63b8ff" points="615.8,-239.25 623.96,-232.5 613.37,-232.69 615.8,-239.25"/>
</a>
</g>
</g>
<!-- Node27 -->
<g id="Node000027" class="node">
<title>Node27</title>
<g id="a_Node000027"><a xlink:href="group__mynn__sfc_ga12649bf97aa4974c23a7723c418907e0.html#ga12649bf97aa4974c23a7723c418907e0" target="_top" xlink:title=" ">
<polygon fill="white" stroke="#666666" points="726.25,-164.5 609,-164.5 609,-134 726.25,-134 726.25,-164.5"/>
<text xml:space="preserve" text-anchor="start" x="617" y="-151" font-family="Source Sans Pro" font-size="10.00">module_sf_mynn::psim</text>
<text xml:space="preserve" text-anchor="middle" x="667.62" y="-139.75" font-family="Source Sans Pro" font-size="10.00">_stable_full_gfs</text>
</a>
</g>
</g>
<!-- Node25&#45;&gt;Node27 -->
<g id="edge34_Node000025_Node000027" class="edge">
<title>Node25&#45;&gt;Node27</title>
<g id="a_edge34_Node000025_Node000027"><a xlink:title=" ">
<path fill="none" stroke="#63b8ff" d="M531.61,-270.01C541.58,-266.46 551.34,-261.68 559.5,-255.25 584.82,-235.28 572.98,-215.33 595.5,-192.25 603.51,-184.04 613.41,-176.78 623.24,-170.68"/>
<polygon fill="#63b8ff" stroke="#63b8ff" points="624.82,-173.81 631.68,-165.73 621.28,-167.77 624.82,-173.81"/>
</a>
</g>
</g>
<!-- Node26&#45;&gt;Node26 -->
<g id="edge33_Node000026_Node000026" class="edge">
<title>Node26&#45;&gt;Node26</title>
<g id="a_edge33_Node000026_Node000026"><a xlink:title=" ">
<path fill="none" stroke="#63b8ff" d="M633.09,-231.99C626.05,-241.06 637.56,-249.5 667.62,-249.5 684.07,-249.5 694.96,-246.97 700.31,-243.2"/>
<polygon fill="#63b8ff" stroke="#63b8ff" points="703.74,-243.92 701.91,-233.48 696.83,-242.78 703.74,-243.92"/>
</a>
</g>
</g>
<!-- Node27&#45;&gt;Node27 -->
<g id="edge35_Node000027_Node000027" class="edge">
<title>Node27&#45;&gt;Node27</title>
<g id="a_edge35_Node000027_Node000027"><a xlink:title=" ">
<path fill="none" stroke="#63b8ff" d="M633.09,-164.99C626.05,-174.06 637.56,-182.5 667.62,-182.5 684.07,-182.5 694.96,-179.97 700.31,-176.2"/>
<polygon fill="#63b8ff" stroke="#63b8ff" points="703.74,-176.92 701.91,-166.48 696.83,-175.78 703.74,-176.92"/>
</a>
</g>
</g>
<!-- Node28&#45;&gt;Node28 -->
<g id="edge37_Node000028_Node000028" class="edge">
<title>Node28&#45;&gt;Node28</title>
<g id="a_edge37_Node000028_Node000028"><a xlink:title=" ">
<path fill="none" stroke="#63b8ff" d="M438.22,-228.99C431.17,-238.06 442.68,-246.5 472.75,-246.5 489.19,-246.5 500.09,-243.97 505.43,-240.2"/>
<polygon fill="#63b8ff" stroke="#63b8ff" points="508.86,-240.92 507.04,-230.48 501.95,-239.78 508.86,-240.92"/>
</a>
</g>
</g>
<!-- Node29 -->
<g id="Node000029" class="node">
<title>Node29</title>
<g id="a_Node000029"><a xlink:href="group__mynn__sfc_gace0216359bf098fd5cc7fa7cb8b3b716.html#gace0216359bf098fd5cc7fa7cb8b3b716" target="_top" xlink:title=" ">
<polygon fill="white" stroke="#666666" points="726.25,-97.5 609,-97.5 609,-67 726.25,-67 726.25,-97.5"/>
<text xml:space="preserve" text-anchor="start" x="617" y="-84" font-family="Source Sans Pro" font-size="10.00">module_sf_mynn::psim</text>
<text xml:space="preserve" text-anchor="middle" x="667.62" y="-72.75" font-family="Source Sans Pro" font-size="10.00">_unstable_full</text>
</a>
</g>
</g>
<!-- Node28&#45;&gt;Node29 -->
<g id="edge38_Node000028_Node000029" class="edge">
<title>Node28&#45;&gt;Node29</title>
<g id="a_edge38_Node000028_Node000029"><a xlink:title=" ">
<path fill="none" stroke="#63b8ff" d="M531.61,-203.01C541.58,-199.46 551.34,-194.68 559.5,-188.25 584.82,-168.28 572.98,-148.33 595.5,-125.25 603.51,-117.04 613.41,-109.78 623.24,-103.68"/>
<polygon fill="#63b8ff" stroke="#63b8ff" points="624.82,-106.81 631.68,-98.73 621.28,-100.77 624.82,-106.81"/>
</a>
</g>
</g>
<!-- Node30 -->
<g id="Node000030" class="node">
<title>Node30</title>
<g id="a_Node000030"><a xlink:href="group__mynn__sfc_ga8e88a4eb2ee98eb538da06f42215e8b7.html#ga8e88a4eb2ee98eb538da06f42215e8b7" target="_top" xlink:title=" ">
<polygon fill="white" stroke="#666666" points="726.25,-30.5 609,-30.5 609,0 726.25,0 726.25,-30.5"/>
<text xml:space="preserve" text-anchor="start" x="617" y="-17" font-family="Source Sans Pro" font-size="10.00">module_sf_mynn::psim</text>
<text xml:space="preserve" text-anchor="middle" x="667.62" y="-5.75" font-family="Source Sans Pro" font-size="10.00">_unstable_full_gfs</text>
</a>
</g>
</g>
<!-- Node28&#45;&gt;Node30 -->
<g id="edge40_Node000028_Node000030" class="edge">
<title>Node28&#45;&gt;Node30</title>
<g id="a_edge40_Node000028_Node000030"><a xlink:title=" ">
<path fill="none" stroke="#63b8ff" d="M531.7,-205.07C542.01,-201.35 551.88,-195.98 559.5,-188.25 601.6,-145.57 559.29,-106.03 595.5,-58.25 601.9,-49.81 610.48,-42.67 619.47,-36.78"/>
<polygon fill="#63b8ff" stroke="#63b8ff" points="621.22,-39.81 627.99,-31.66 617.62,-33.81 621.22,-39.81"/>
</a>
</g>
</g>
<!-- Node29&#45;&gt;Node29 -->
<g id="edge39_Node000029_Node000029" class="edge">
<title>Node29&#45;&gt;Node29</title>
<g id="a_edge39_Node000029_Node000029"><a xlink:title=" ">
<path fill="none" stroke="#63b8ff" d="M633.09,-97.99C626.05,-107.06 637.56,-115.5 667.62,-115.5 684.07,-115.5 694.96,-112.97 700.31,-109.2"/>
<polygon fill="#63b8ff" stroke="#63b8ff" points="703.74,-109.92 701.91,-99.48 696.83,-108.78 703.74,-109.92"/>
</a>
</g>
</g>
<!-- Node30&#45;&gt;Node30 -->
<g id="edge41_Node000030_Node000030" class="edge">
<title>Node30&#45;&gt;Node30</title>
<g id="a_edge41_Node000030_Node000030"><a xlink:title=" ">
<path fill="none" stroke="#63b8ff" d="M633.09,-30.99C626.05,-40.06 637.56,-48.5 667.62,-48.5 684.07,-48.5 694.96,-45.97 700.31,-42.2"/>
<polygon fill="#63b8ff" stroke="#63b8ff" points="703.74,-42.92 701.91,-32.48 696.83,-41.78 703.74,-42.92"/>
</a>
</g>
</g>
</g>
</svg>
