<?xml version="1.0" encoding="UTF-8" standalone="no"?>
<!DOCTYPE svg PUBLIC "-//W3C//DTD SVG 1.1//EN"
 "http://www.w3.org/Graphics/SVG/1.1/DTD/svg11.dtd">
<!-- Generated by graphviz version 14.1.2 (20260124.0452)
 -->
<!-- Title: snow_age Pages: 1 -->
<svg width="724pt" height="332pt"
 viewBox="0.00 0.00 724.00 332.00" xmlns="http://www.w3.org/2000/svg" xmlns:xlink="http://www.w3.org/1999/xlink">
<g id="graph0" class="graph" transform="scale(1 1) rotate(0) translate(4 327.54)">
<title>snow_age</title>
<!-- Node1 -->
<g id="Node000001" class="node">
<title>Node1</title>
<g id="a_Node000001"><a xlink:title=" ">
<polygon fill="#999999" stroke="#666666" points="716.25,-88.54 656,-88.54 656,-69.29 716.25,-69.29 716.25,-88.54"/>
<text xml:space="preserve" text-anchor="middle" x="686.12" y="-75.04" font-family="Source Sans Pro" font-size="10.00">snow_age</text>
</a>
</g>
</g>
<!-- Node2 -->
<g id="Node000002" class="node">
<title>Node2</title>
<g id="a_Node000002"><a xlink:href="group___noah_m_p___l_s_m_ga9d5adb20aca5b72a7e126136088e20d1.html#ga9d5adb20aca5b72a7e126136088e20d1" target="_top" xlink:title="surface albedos. also fluxes (per unit incoming direct and diffuse radiation) reflected,...">
<polygon fill="white" stroke="#666666" points="620,-187.54 575.5,-187.54 575.5,-168.29 620,-168.29 620,-187.54"/>
<text xml:space="preserve" text-anchor="middle" x="597.75" y="-174.04" font-family="Source Sans Pro" font-size="10.00">albedo</text>
</a>
</g>
</g>
<!-- Node1&#45;&gt;Node2 -->
<g id="edge1_Node000001_Node000002" class="edge">
<title>Node1&#45;&gt;Node2</title>
<g id="a_edge1_Node000001_Node000002"><a xlink:title=" ">
<path fill="none" stroke="#63b8ff" d="M669.03,-97.36C650.87,-118.17 622,-151.26 607.57,-167.81"/>
<polygon fill="#63b8ff" stroke="#63b8ff" points="671.6,-99.75 675.53,-89.91 666.32,-95.15 671.6,-99.75"/>
</a>
</g>
</g>
<!-- Node9 -->
<g id="Node000009" class="node">
<title>Node9</title>
<g id="a_Node000009"><a xlink:href="group___noah_m_p___l_s_m_ga0e44f72a92d8830344fecdb9fb65e6fb.html#ga0e44f72a92d8830344fecdb9fb65e6fb" target="_top" xlink:title="This subroutine is the main CCPP entry point for the NoahMP LSM.">
<polygon fill="white" stroke="#666666" points="82.75,-67.54 0,-67.54 0,-48.29 82.75,-48.29 82.75,-67.54"/>
<text xml:space="preserve" text-anchor="middle" x="41.38" y="-54.04" font-family="Source Sans Pro" font-size="10.00">noahmpdrv_run</text>
</a>
</g>
</g>
<!-- Node1&#45;&gt;Node9 -->
<g id="edge16_Node000001_Node000009" class="edge">
<title>Node1&#45;&gt;Node9</title>
<g id="a_edge16_Node000001_Node000009"><a xlink:title=" ">
<path fill="none" stroke="#63b8ff" d="M660.14,-62.96C622.38,-40.4 547.78,-1.92 478.5,-1.92 478.5,-1.92 478.5,-1.92 345,-1.92 244.09,-1.92 216.07,5.75 118.75,-20.92 96.87,-26.91 73.67,-39.08 58.67,-47.83"/>
<polygon fill="#63b8ff" stroke="#63b8ff" points="658.14,-65.83 668.49,-68.06 661.79,-59.86 658.14,-65.83"/>
</a>
</g>
</g>
<!-- Node3 -->
<g id="Node000003" class="node">
<title>Node3</title>
<g id="a_Node000003"><a xlink:href="group___noah___l_s_m_ga18a0f02e4a1a32b6cde35cbe67b09908.html#ga18a0f02e4a1a32b6cde35cbe67b09908" target="_top" xlink:title="This subroutine calculates albedo including snow effect (0 &#45;&gt; 1).">
<polygon fill="white" stroke="#666666" points="498.25,-323.54 456.75,-323.54 456.75,-304.29 498.25,-304.29 498.25,-323.54"/>
<text xml:space="preserve" text-anchor="middle" x="477.5" y="-310.04" font-family="Source Sans Pro" font-size="10.00">alcalc</text>
</a>
</g>
</g>
<!-- Node2&#45;&gt;Node3 -->
<g id="edge2_Node000002_Node000003" class="edge">
<title>Node2&#45;&gt;Node3</title>
<g id="a_edge2_Node000002_Node000003"><a xlink:title=" ">
<path fill="none" stroke="#63b8ff" d="M591.05,-198.8C583.27,-223.66 567.04,-264.94 539.5,-289.92 528.03,-300.31 511.54,-306.44 498.59,-309.89"/>
<polygon fill="#63b8ff" stroke="#63b8ff" points="594.41,-199.79 593.86,-189.21 587.69,-197.82 594.41,-199.79"/>
</a>
</g>
</g>
<!-- Node4 -->
<g id="Node000004" class="node">
<title>Node4</title>
<g id="a_Node000004"><a xlink:href="group___noah___l_s_m_ga36e98f3ac91f839b816fd167eab30901.html#ga36e98f3ac91f839b816fd167eab30901" target="_top" xlink:title="This is the entity of GFS Noah LSM model of physics subroutines. It is a soil/veg/snowpack land&#45;surfa...">
<polygon fill="white" stroke="#666666" points="379.5,-285.54 312.5,-285.54 312.5,-266.29 379.5,-266.29 379.5,-285.54"/>
<text xml:space="preserve" text-anchor="middle" x="346" y="-272.04" font-family="Source Sans Pro" font-size="10.00">sflx::gfssflx</text>
</a>
</g>
</g>
<!-- Node2&#45;&gt;Node4 -->
<g id="edge6_Node000002_Node000004" class="edge">
<title>Node2&#45;&gt;Node4</title>
<g id="a_edge6_Node000002_Node000004"><a xlink:title=" ">
<path fill="none" stroke="#63b8ff" d="M587.24,-197.61C577.72,-214.99 561.35,-239.46 539.5,-251.92 489.32,-280.53 419.98,-281.57 379.67,-279.15"/>
<polygon fill="#63b8ff" stroke="#63b8ff" points="590.09,-199.7 591.57,-189.21 583.87,-196.49 590.09,-199.7"/>
</a>
</g>
</g>
<!-- Node5 -->
<g id="Node000005" class="node">
<title>Node5</title>
<g id="a_Node000005"><a xlink:href="group___noah___l_s_m_ga5d624f72a0da3ffcdf7a01fb9862e0e8.html#ga5d624f72a0da3ffcdf7a01fb9862e0e8" target="_top" xlink:title=" ">
<polygon fill="white" stroke="#666666" points="260,-266.54 135.25,-266.54 135.25,-247.29 260,-247.29 260,-266.54"/>
<text xml:space="preserve" text-anchor="middle" x="197.62" y="-253.04" font-family="Source Sans Pro" font-size="10.00">lsm_noah::lsm_noah_run</text>
</a>
</g>
</g>
<!-- Node2&#45;&gt;Node5 -->
<g id="edge7_Node000002_Node000005" class="edge">
<title>Node2&#45;&gt;Node5</title>
<g id="a_edge7_Node000002_Node000005"><a xlink:title=" ">
<path fill="none" stroke="#63b8ff" d="M577.69,-195.36C567.19,-203.94 553.48,-213.55 539.5,-218.92 490.02,-237.9 344.55,-248.85 260.5,-253.77"/>
<polygon fill="#63b8ff" stroke="#63b8ff" points="579.88,-198.09 585.19,-188.92 575.32,-192.78 579.88,-198.09"/>
</a>
</g>
</g>
<!-- Node6 -->
<g id="Node000006" class="node">
<title>Node6</title>
<g id="a_Node000006"><a xlink:href="namespaceclm__lake_a45370a45ff94cf5dc347a180920eb69a.html#a45370a45ff94cf5dc347a180920eb69a" target="_top" xlink:title=" ">
<polygon fill="white" stroke="#666666" points="536.88,-209.54 418.12,-209.54 418.12,-190.29 536.88,-190.29 536.88,-209.54"/>
<text xml:space="preserve" text-anchor="middle" x="477.5" y="-196.04" font-family="Source Sans Pro" font-size="10.00">clm_lake::clm_lake_run</text>
</a>
</g>
</g>
<!-- Node2&#45;&gt;Node6 -->
<g id="edge5_Node000002_Node000006" class="edge">
<title>Node2&#45;&gt;Node6</title>
<g id="a_edge5_Node000002_Node000006"><a xlink:title=" ">
<path fill="none" stroke="#63b8ff" d="M563.94,-184.02C554.26,-185.82 543.41,-187.84 532.76,-189.82"/>
<polygon fill="#63b8ff" stroke="#63b8ff" points="564.38,-187.5 573.57,-182.23 563.1,-180.62 564.38,-187.5"/>
</a>
</g>
</g>
<!-- Node7 -->
<g id="Node000007" class="node">
<title>Node7</title>
<g id="a_Node000007"><a xlink:href="group___noah_m_p___l_s_m_ga86c69e134a41160e0c6f06bfb3a654a6.html#ga86c69e134a41160e0c6f06bfb3a654a6" target="_top" xlink:title=" ">
<polygon fill="white" stroke="#666666" points="539.5,-172.17 415.5,-172.17 415.5,-141.67 539.5,-141.67 539.5,-172.17"/>
<text xml:space="preserve" text-anchor="start" x="423.5" y="-158.67" font-family="Source Sans Pro" font-size="10.00">noahmp_glacier_routines</text>
<text xml:space="preserve" text-anchor="middle" x="477.5" y="-147.42" font-family="Source Sans Pro" font-size="10.00">::noahmp_glacier</text>
</a>
</g>
</g>
<!-- Node2&#45;&gt;Node7 -->
<g id="edge8_Node000002_Node000007" class="edge">
<title>Node2&#45;&gt;Node7</title>
<g id="a_edge8_Node000002_Node000007"><a xlink:title=" ">
<path fill="none" stroke="#63b8ff" d="M563.9,-172.08C556.36,-170.74 548.11,-169.28 539.8,-167.8"/>
<polygon fill="#63b8ff" stroke="#63b8ff" points="563.11,-175.5 573.57,-173.8 564.34,-168.61 563.11,-175.5"/>
</a>
</g>
</g>
<!-- Node8 -->
<g id="Node000008" class="node">
<title>Node8</title>
<g id="a_Node000008"><a xlink:href="group___noah_m_p___l_s_m_gab480f7969dad27ce9e00e559f82c464e.html#gab480f7969dad27ce9e00e559f82c464e" target="_top" xlink:title=" ">
<polygon fill="white" stroke="#666666" points="233.38,-123.54 161.88,-123.54 161.88,-104.29 233.38,-104.29 233.38,-123.54"/>
<text xml:space="preserve" text-anchor="middle" x="197.62" y="-110.04" font-family="Source Sans Pro" font-size="10.00">noahmp_sflx</text>
</a>
</g>
</g>
<!-- Node2&#45;&gt;Node8 -->
<g id="edge9_Node000002_Node000008" class="edge">
<title>Node2&#45;&gt;Node8</title>
<g id="a_edge9_Node000002_Node000008"><a xlink:title=" ">
<path fill="none" stroke="#63b8ff" d="M579.89,-160.09C569.33,-150.18 554.84,-138.71 539.5,-132.92 433.86,-93.04 296.69,-101.99 233.4,-109.18"/>
<polygon fill="#63b8ff" stroke="#63b8ff" points="577.13,-162.28 586.7,-166.83 582.05,-157.3 577.13,-162.28"/>
</a>
</g>
</g>
<!-- Node10 -->
<g id="Node000010" class="node">
<title>Node10</title>
<g id="a_Node000010"><a xlink:href="group___noah_m_p___l_s_m_gaaa3073947247829ad606eea763d888f8.html#gaaa3073947247829ad606eea763d888f8" target="_top" xlink:title="Calculate solar radiation: absorbed &amp; reflected by the ground and canopy.">
<polygon fill="white" stroke="#666666" points="503.88,-85.54 451.12,-85.54 451.12,-66.29 503.88,-66.29 503.88,-85.54"/>
<text xml:space="preserve" text-anchor="middle" x="477.5" y="-72.04" font-family="Source Sans Pro" font-size="10.00">radiation</text>
</a>
</g>
</g>
<!-- Node2&#45;&gt;Node10 -->
<g id="edge11_Node000002_Node000010" class="edge">
<title>Node2&#45;&gt;Node10</title>
<g id="a_edge11_Node000002_Node000010"><a xlink:title=" ">
<path fill="none" stroke="#63b8ff" d="M586.49,-158.16C576.56,-140.73 560,-115.7 539.5,-99.92 529.13,-91.93 515.77,-86.28 504.19,-82.47"/>
<polygon fill="#63b8ff" stroke="#63b8ff" points="583.21,-159.46 591.08,-166.56 589.36,-156.1 583.21,-159.46"/>
</a>
</g>
</g>
<!-- Node3&#45;&gt;Node4 -->
<g id="edge3_Node000003_Node000004" class="edge">
<title>Node3&#45;&gt;Node4</title>
<g id="a_edge3_Node000003_Node000004"><a xlink:title=" ">
<path fill="none" stroke="#63b8ff" d="M445.38,-304.78C425.61,-298.98 400.04,-291.48 379.93,-285.58"/>
<polygon fill="#63b8ff" stroke="#63b8ff" points="444.23,-308.1 454.81,-307.55 446.2,-301.38 444.23,-308.1"/>
</a>
</g>
</g>
<!-- Node4&#45;&gt;Node5 -->
<g id="edge4_Node000004_Node000005" class="edge">
<title>Node4&#45;&gt;Node5</title>
<g id="a_edge4_Node000004_Node000005"><a xlink:title=" ">
<path fill="none" stroke="#63b8ff" d="M300.92,-270.2C288.2,-268.54 274.08,-266.71 260.49,-264.95"/>
<polygon fill="#63b8ff" stroke="#63b8ff" points="300.28,-273.64 310.65,-271.46 301.18,-266.7 300.28,-273.64"/>
</a>
</g>
</g>
<!-- Node8&#45;&gt;Node9 -->
<g id="edge10_Node000008_Node000009" class="edge">
<title>Node8&#45;&gt;Node9</title>
<g id="a_edge10_Node000008_Node000009"><a xlink:title=" ">
<path fill="none" stroke="#63b8ff" d="M150.44,-105.13C139.89,-102.6 128.82,-99.53 118.75,-95.92 97.7,-88.37 74.91,-76.5 59.76,-68.04"/>
<polygon fill="#63b8ff" stroke="#63b8ff" points="149.62,-108.53 160.14,-107.32 151.16,-101.7 149.62,-108.53"/>
</a>
</g>
</g>
<!-- Node11 -->
<g id="Node000011" class="node">
<title>Node11</title>
<g id="a_Node000011"><a xlink:href="group___noah_m_p___l_s_m_ga2698d46b5582d11d0d6fc78d49dd796c.html#ga2698d46b5582d11d0d6fc78d49dd796c" target="_top" xlink:title="We use different approaches to deal with subgrid features of radiation transfer and turbulent transfe...">
<polygon fill="white" stroke="#666666" points="368.62,-85.54 323.38,-85.54 323.38,-66.29 368.62,-66.29 368.62,-85.54"/>
<text xml:space="preserve" text-anchor="middle" x="346" y="-72.04" font-family="Source Sans Pro" font-size="10.00">energy</text>
</a>
</g>
</g>
<!-- Node10&#45;&gt;Node11 -->
<g id="edge12_Node000010_Node000011" class="edge">
<title>Node10&#45;&gt;Node11</title>
<g id="a_edge12_Node000010_Node000011"><a xlink:title=" ">
<path fill="none" stroke="#63b8ff" d="M439.61,-75.92C416.84,-75.92 388.4,-75.92 369.08,-75.92"/>
<polygon fill="#63b8ff" stroke="#63b8ff" points="439.4,-79.42 449.4,-75.92 439.4,-72.42 439.4,-79.42"/>
</a>
</g>
</g>
<!-- Node11&#45;&gt;Node8 -->
<g id="edge13_Node000011_Node000008" class="edge">
<title>Node11&#45;&gt;Node8</title>
<g id="a_edge13_Node000011_Node000008"><a xlink:title=" ">
<path fill="none" stroke="#63b8ff" d="M312.18,-85.91C300.91,-89.23 288.19,-92.86 276.5,-95.92 262.54,-99.57 247.07,-103.22 233.62,-106.27"/>
<polygon fill="#63b8ff" stroke="#63b8ff" points="312.84,-89.37 321.43,-83.16 310.84,-82.66 312.84,-89.37"/>
</a>
</g>
</g>
<!-- Node12 -->
<g id="Node000012" class="node">
<title>Node12</title>
<g id="a_Node000012"><a xlink:href="group___s_a_m_fdeep_ga5e834dec0932a16a98b7d90fd69a9c70.html#ga5e834dec0932a16a98b7d90fd69a9c70" target="_top" xlink:title=" ">
<polygon fill="white" stroke="#666666" points="276.5,-86.54 118.75,-86.54 118.75,-67.29 276.5,-67.29 276.5,-86.54"/>
<text xml:space="preserve" text-anchor="middle" x="197.62" y="-73.04" font-family="Source Sans Pro" font-size="10.00">samfdeepcnv::samfdeepcnv_run</text>
</a>
</g>
</g>
<!-- Node11&#45;&gt;Node12 -->
<g id="edge14_Node000011_Node000012" class="edge">
<title>Node11&#45;&gt;Node12</title>
<g id="a_edge14_Node000011_Node000012"><a xlink:title=" ">
<path fill="none" stroke="#63b8ff" d="M311.91,-76.14C301.34,-76.22 289.15,-76.3 276.77,-76.38"/>
<polygon fill="#63b8ff" stroke="#63b8ff" points="311.6,-79.65 321.57,-76.08 311.55,-72.65 311.6,-79.65"/>
</a>
</g>
</g>
<!-- Node13 -->
<g id="Node000013" class="node">
<title>Node13</title>
<g id="a_Node000013"><a xlink:href="group___s_a_m_f__shal_gaf2534c328553470068a75a9aa56b7d56.html#gaf2534c328553470068a75a9aa56b7d56" target="_top" xlink:title=" ">
<polygon fill="white" stroke="#666666" points="273.5,-49.54 121.75,-49.54 121.75,-30.29 273.5,-30.29 273.5,-49.54"/>
<text xml:space="preserve" text-anchor="middle" x="197.62" y="-36.04" font-family="Source Sans Pro" font-size="10.00">samfshalcnv::samfshalcnv_run</text>
</a>
</g>
</g>
<!-- Node11&#45;&gt;Node13 -->
<g id="edge15_Node000011_Node000013" class="edge">
<title>Node11&#45;&gt;Node13</title>
<g id="a_edge15_Node000011_Node000013"><a xlink:title=" ">
<path fill="none" stroke="#63b8ff" d="M312.03,-67.04C300.78,-64.07 288.11,-60.78 276.5,-57.92 265.72,-55.26 254.08,-52.5 243.16,-49.97"/>
<polygon fill="#63b8ff" stroke="#63b8ff" points="311.11,-70.42 321.68,-69.61 312.91,-63.65 311.11,-70.42"/>
</a>
</g>
</g>
</g>
</svg>
