<?xml version="1.0" encoding="UTF-8" standalone="no"?>
<!DOCTYPE svg PUBLIC "-//W3C//DTD SVG 1.1//EN"
 "http://www.w3.org/Graphics/SVG/1.1/DTD/svg11.dtd">
<!-- Generated by graphviz version 14.1.2 (20260124.0452)
 -->
<!-- Title: cu_gf_deep::rates_up_pdf Pages: 1 -->
<svg width="443pt" height="51pt"
 viewBox="0.00 0.00 443.00 51.00" xmlns="http://www.w3.org/2000/svg" xmlns:xlink="http://www.w3.org/1999/xlink">
<g id="graph0" class="graph" transform="scale(1 1) rotate(0) translate(4 46.88)">
<title>cu_gf_deep::rates_up_pdf</title>
<!-- Node1 -->
<g id="Node000001" class="node">
<title>Node1</title>
<g id="a_Node000001"><a xlink:title="Driver for the normalized mass&#45;flux routine.">
<polygon fill="#999999" stroke="#666666" points="128.5,-24.88 0,-24.88 0,-5.63 128.5,-5.63 128.5,-24.88"/>
<text xml:space="preserve" text-anchor="middle" x="64.25" y="-11.38" font-family="Source Sans Pro" font-size="10.00">cu_gf_deep::rates_up_pdf</text>
</a>
</g>
</g>
<!-- Node2 -->
<g id="Node000002" class="node">
<title>Node2</title>
<g id="a_Node000002"><a xlink:href="group__cu__gf__deep__group_ga0ea82b4d199c9b93aa5200682dda3685.html#ga0ea82b4d199c9b93aa5200682dda3685" target="_top" xlink:title="Calculates a normalized mass&#45;flux profile for updrafts and downdrafts using the beta function.">
<polygon fill="white" stroke="#666666" points="266,-30.5 164.5,-30.5 164.5,0 266,0 266,-30.5"/>
<text xml:space="preserve" text-anchor="start" x="172.5" y="-17" font-family="Source Sans Pro" font-size="10.00">cu_gf_deep::get_zu</text>
<text xml:space="preserve" text-anchor="middle" x="215.25" y="-5.75" font-family="Source Sans Pro" font-size="10.00">_zd_pdf_fim</text>
</a>
</g>
</g>
<!-- Node1&#45;&gt;Node2 -->
<g id="edge1_Node000001_Node000002" class="edge">
<title>Node1&#45;&gt;Node2</title>
<g id="a_edge1_Node000001_Node000002"><a xlink:title=" ">
<path fill="none" stroke="#63b8ff" d="M128.87,-15.25C136.84,-15.25 144.98,-15.25 152.92,-15.25"/>
<polygon fill="#63b8ff" stroke="#63b8ff" points="152.84,-18.75 162.84,-15.25 152.84,-11.75 152.84,-18.75"/>
</a>
</g>
</g>
<!-- Node3 -->
<g id="Node000003" class="node">
<title>Node3</title>
<g id="a_Node000003"><a xlink:href="group__cu__gf__deep__group_ga8c1bcf8ed725e281ff0c09744d46b27c.html#ga8c1bcf8ed725e281ff0c09744d46b27c" target="_top" xlink:title=" ">
<polygon fill="white" stroke="#666666" points="435,-24.88 302,-24.88 302,-5.63 435,-5.63 435,-24.88"/>
<text xml:space="preserve" text-anchor="middle" x="368.5" y="-11.38" font-family="Source Sans Pro" font-size="10.00">cu_gf_deep::my_maxloc1d</text>
</a>
</g>
</g>
<!-- Node2&#45;&gt;Node3 -->
<g id="edge2_Node000002_Node000003" class="edge">
<title>Node2&#45;&gt;Node3</title>
<g id="a_edge2_Node000002_Node000003"><a xlink:title=" ">
<path fill="none" stroke="#63b8ff" d="M266.19,-15.25C273.91,-15.25 282.04,-15.25 290.19,-15.25"/>
<polygon fill="#63b8ff" stroke="#63b8ff" points="290.18,-18.75 300.18,-15.25 290.18,-11.75 290.18,-18.75"/>
</a>
</g>
</g>
<!-- Node3&#45;&gt;Node3 -->
<g id="edge3_Node000003_Node000003" class="edge">
<title>Node3&#45;&gt;Node3</title>
<g id="a_edge3_Node000003_Node000003"><a xlink:title=" ">
<path fill="none" stroke="#63b8ff" d="M344.51,-25.16C333.56,-33.77 341.56,-42.88 368.5,-42.88 383.65,-42.88 392.81,-39.99 395.98,-35.94"/>
<polygon fill="#63b8ff" stroke="#63b8ff" points="399.37,-35.04 392.96,-26.6 392.71,-37.19 399.37,-35.04"/>
</a>
</g>
</g>
</g>
</svg>
