<?xml version="1.0" encoding="UTF-8" standalone="no"?>
<!DOCTYPE svg PUBLIC "-//W3C//DTD SVG 1.1//EN"
 "http://www.w3.org/Graphics/SVG/1.1/DTD/svg11.dtd">
<!-- Generated by graphviz version 14.1.2 (20260124.0452)
 -->
<!-- Title: gfdl_cloud_microphys_mod::icloud Pages: 1 -->
<svg width="413pt" height="222pt"
 viewBox="0.00 0.00 413.00 222.00" xmlns="http://www.w3.org/2000/svg" xmlns:xlink="http://www.w3.org/1999/xlink">
<g id="graph0" class="graph" transform="scale(1 1) rotate(0) translate(4 217.5)">
<title>gfdl_cloud_microphys_mod::icloud</title>
<!-- Node1 -->
<g id="Node000001" class="node">
<title>Node1</title>
<g id="a_Node000001"><a xlink:title="This subroutine includes cloud ice microphysics processes.">
<polygon fill="#999999" stroke="#666666" points="110.5,-112.5 0,-112.5 0,-82 110.5,-82 110.5,-112.5"/>
<text xml:space="preserve" text-anchor="start" x="8" y="-99" font-family="Source Sans Pro" font-size="10.00">gfdl_cloud_microphys</text>
<text xml:space="preserve" text-anchor="middle" x="55.25" y="-87.75" font-family="Source Sans Pro" font-size="10.00">_mod::icloud</text>
</a>
</g>
</g>
<!-- Node2 -->
<g id="Node000002" class="node">
<title>Node2</title>
<g id="a_Node000002"><a xlink:href="group__gfdlmp_ga0c6e8d13d0224e3b40bcbabdbab7f0ba.html#ga0c6e8d13d0224e3b40bcbabdbab7f0ba" target="_top" xlink:title="The function is an accretion function (Lin et al.(1983) lin_et_al_1983 ).">
<polygon fill="white" stroke="#666666" points="257.75,-195.5 147.25,-195.5 147.25,-165 257.75,-165 257.75,-195.5"/>
<text xml:space="preserve" text-anchor="start" x="155.25" y="-182" font-family="Source Sans Pro" font-size="10.00">gfdl_cloud_microphys</text>
<text xml:space="preserve" text-anchor="middle" x="202.5" y="-170.75" font-family="Source Sans Pro" font-size="10.00">_mod::acr3d</text>
</a>
</g>
</g>
<!-- Node1&#45;&gt;Node2 -->
<g id="edge1_Node000001_Node000002" class="edge">
<title>Node1&#45;&gt;Node2</title>
<g id="a_edge1_Node000001_Node000002"><a xlink:title=" ">
<path fill="none" stroke="#63b8ff" d="M78.69,-112.97C96.63,-125.2 122.62,-142.24 146.5,-155.25 149.17,-156.71 151.94,-158.15 154.76,-159.57"/>
<polygon fill="#63b8ff" stroke="#63b8ff" points="153.16,-162.69 163.68,-163.91 156.22,-156.39 153.16,-162.69"/>
</a>
</g>
</g>
<!-- Node3 -->
<g id="Node000003" class="node">
<title>Node3</title>
<g id="a_Node000003"><a xlink:href="group__mod__gfdl__cloud__mp_ga60295ecd2dc7ed890e0c643d562862b6.html#ga60295ecd2dc7ed890e0c643d562862b6" target="_top" xlink:title="Definition of vertical subgrid variability used for cloud ice and cloud water autoconversion.">
<polygon fill="white" stroke="#666666" points="257.75,-146.5 147.25,-146.5 147.25,-116 257.75,-116 257.75,-146.5"/>
<text xml:space="preserve" text-anchor="start" x="155.25" y="-133" font-family="Source Sans Pro" font-size="10.00">gfdl_cloud_microphys</text>
<text xml:space="preserve" text-anchor="middle" x="202.5" y="-121.75" font-family="Source Sans Pro" font-size="10.00">_mod::linear_prof</text>
</a>
</g>
</g>
<!-- Node1&#45;&gt;Node3 -->
<g id="edge3_Node000001_Node000003" class="edge">
<title>Node1&#45;&gt;Node3</title>
<g id="a_edge3_Node000001_Node000003"><a xlink:title=" ">
<path fill="none" stroke="#63b8ff" d="M110.75,-110.01C119.03,-111.95 127.65,-113.96 136.14,-115.95"/>
<polygon fill="#63b8ff" stroke="#63b8ff" points="135.17,-119.32 145.7,-118.19 136.77,-112.5 135.17,-119.32"/>
</a>
</g>
</g>
<!-- Node4 -->
<g id="Node000004" class="node">
<title>Node4</title>
<g id="a_Node000004"><a xlink:href="group__gfdlmp_gad0c3fa84c0f00f8d0106a40b45d84925.html#gad0c3fa84c0f00f8d0106a40b45d84925" target="_top" xlink:title="Melting of snow function (Lin et al.(1983) lin_et_al_1983) note: psacw and psacr must be calc before ...">
<polygon fill="white" stroke="#666666" points="257.75,-79.5 147.25,-79.5 147.25,-49 257.75,-49 257.75,-79.5"/>
<text xml:space="preserve" text-anchor="start" x="155.25" y="-66" font-family="Source Sans Pro" font-size="10.00">gfdl_cloud_microphys</text>
<text xml:space="preserve" text-anchor="middle" x="202.5" y="-54.75" font-family="Source Sans Pro" font-size="10.00">_mod::smlt</text>
</a>
</g>
</g>
<!-- Node1&#45;&gt;Node4 -->
<g id="edge4_Node000001_Node000004" class="edge">
<title>Node1&#45;&gt;Node4</title>
<g id="a_edge4_Node000001_Node000004"><a xlink:title=" ">
<path fill="none" stroke="#63b8ff" d="M110.75,-84.87C119.03,-82.99 127.65,-81.03 136.14,-79.1"/>
<polygon fill="#63b8ff" stroke="#63b8ff" points="136.73,-82.56 145.7,-76.93 135.18,-75.73 136.73,-82.56"/>
</a>
</g>
</g>
<!-- Node5 -->
<g id="Node000005" class="node">
<title>Node5</title>
<g id="a_Node000005"><a xlink:href="group__mod__gfdl__cloud__mp_gaec9761c5fe1374e1d8f8f18dec3b879c.html#gaec9761c5fe1374e1d8f8f18dec3b879c" target="_top" xlink:title="This subroutine calculates temperature sentive high vertical resolution processes.">
<polygon fill="white" stroke="#666666" points="258.5,-30.5 146.5,-30.5 146.5,0 258.5,0 258.5,-30.5"/>
<text xml:space="preserve" text-anchor="start" x="154.5" y="-17" font-family="Source Sans Pro" font-size="10.00">gfdl_cloud_microphys</text>
<text xml:space="preserve" text-anchor="middle" x="202.5" y="-5.75" font-family="Source Sans Pro" font-size="10.00">_mod::subgrid_z_proc</text>
</a>
</g>
</g>
<!-- Node1&#45;&gt;Node5 -->
<g id="edge6_Node000001_Node000005" class="edge">
<title>Node1&#45;&gt;Node5</title>
<g id="a_edge6_Node000001_Node000005"><a xlink:title=" ">
<path fill="none" stroke="#63b8ff" d="M79.1,-81.59C97.04,-69.61 122.85,-53.01 146.5,-40.25 149.18,-38.81 151.95,-37.37 154.77,-35.95"/>
<polygon fill="#63b8ff" stroke="#63b8ff" points="156.23,-39.14 163.7,-31.62 153.17,-32.84 156.23,-39.14"/>
</a>
</g>
</g>
<!-- Node2&#45;&gt;Node2 -->
<g id="edge2_Node000002_Node000002" class="edge">
<title>Node2&#45;&gt;Node2</title>
<g id="a_edge2_Node000002_Node000002"><a xlink:title=" ">
<path fill="none" stroke="#63b8ff" d="M176.41,-195.99C171.08,-205.06 179.78,-213.5 202.5,-213.5 214.93,-213.5 223.16,-210.97 227.19,-207.2"/>
<polygon fill="#63b8ff" stroke="#63b8ff" points="230.64,-207.84 228.41,-197.49 223.69,-206.98 230.64,-207.84"/>
</a>
</g>
</g>
<!-- Node4&#45;&gt;Node4 -->
<g id="edge5_Node000004_Node000004" class="edge">
<title>Node4&#45;&gt;Node4</title>
<g id="a_edge5_Node000004_Node000004"><a xlink:title=" ">
<path fill="none" stroke="#63b8ff" d="M176.41,-79.99C171.08,-89.06 179.78,-97.5 202.5,-97.5 214.93,-97.5 223.16,-94.97 227.19,-91.2"/>
<polygon fill="#63b8ff" stroke="#63b8ff" points="230.64,-91.84 228.41,-81.49 223.69,-90.98 230.64,-91.84"/>
</a>
</g>
</g>
<!-- Node6 -->
<g id="Node000006" class="node">
<title>Node6</title>
<g id="a_Node000006"><a xlink:href="group__mod__gfdl__cloud__mp_ga6dce09bb764ce09d571eb55783abcf48.html#ga6dce09bb764ce09d571eb55783abcf48" target="_top" xlink:title="The function &#39;wqs1&#39; returns the saturation vapor pressure over pure liquid water for a given temperat...">
<polygon fill="white" stroke="#666666" points="405,-30.5 294.5,-30.5 294.5,0 405,0 405,-30.5"/>
<text xml:space="preserve" text-anchor="start" x="302.5" y="-17" font-family="Source Sans Pro" font-size="10.00">gfdl_cloud_microphys</text>
<text xml:space="preserve" text-anchor="middle" x="349.75" y="-5.75" font-family="Source Sans Pro" font-size="10.00">_mod::wqs1</text>
</a>
</g>
</g>
<!-- Node5&#45;&gt;Node6 -->
<g id="edge7_Node000005_Node000006" class="edge">
<title>Node5&#45;&gt;Node6</title>
<g id="a_edge7_Node000005_Node000006"><a xlink:title=" ">
<path fill="none" stroke="#63b8ff" d="M258.83,-15.25C266.58,-15.25 274.62,-15.25 282.55,-15.25"/>
<polygon fill="#63b8ff" stroke="#63b8ff" points="282.54,-18.75 292.54,-15.25 282.54,-11.75 282.54,-18.75"/>
</a>
</g>
</g>
<!-- Node6&#45;&gt;Node6 -->
<g id="edge8_Node000006_Node000006" class="edge">
<title>Node6&#45;&gt;Node6</title>
<g id="a_edge8_Node000006_Node000006"><a xlink:title=" ">
<path fill="none" stroke="#63b8ff" d="M323.66,-30.99C318.33,-40.06 327.03,-48.5 349.75,-48.5 362.18,-48.5 370.41,-45.97 374.44,-42.2"/>
<polygon fill="#63b8ff" stroke="#63b8ff" points="377.89,-42.84 375.66,-32.49 370.94,-41.98 377.89,-42.84"/>
</a>
</g>
</g>
</g>
</svg>
