<?xml version="1.0" encoding="UTF-8" standalone="no"?>
<!DOCTYPE svg PUBLIC "-//W3C//DTD SVG 1.1//EN"
 "http://www.w3.org/Graphics/SVG/1.1/DTD/svg11.dtd">
<!-- Generated by graphviz version 14.1.2 (20260124.0452)
 -->
<!-- Title: module_bl_mynn::mynn_tendencies Pages: 1 -->
<svg width="291pt" height="94pt"
 viewBox="0.00 0.00 291.00 94.00" xmlns="http://www.w3.org/2000/svg" xmlns:xlink="http://www.w3.org/1999/xlink">
<g id="graph0" class="graph" transform="scale(1 1) rotate(0) translate(4 89.88)">
<title>module_bl_mynn::mynn_tendencies</title>
<!-- Node1 -->
<g id="Node000001" class="node">
<title>Node1</title>
<g id="a_Node000001"><a xlink:title="This subroutine solves for tendencies of U, V, , qv, qc, and qi.">
<polygon fill="#999999" stroke="#666666" points="119.5,-45.88 0,-45.88 0,-15.37 119.5,-15.37 119.5,-45.88"/>
<text xml:space="preserve" text-anchor="start" x="8" y="-32.38" font-family="Source Sans Pro" font-size="10.00">module_bl_mynn::mynn</text>
<text xml:space="preserve" text-anchor="middle" x="59.75" y="-21.12" font-family="Source Sans Pro" font-size="10.00">_tendencies</text>
</a>
</g>
</g>
<!-- Node2 -->
<g id="Node000002" class="node">
<title>Node2</title>
<g id="a_Node000002"><a xlink:href="group__gp__mynnedmf_ga41a4c80227342f73cd16d2ae814498d0.html#ga41a4c80227342f73cd16d2ae814498d0" target="_top" xlink:title="This function extends function &quot;esat&quot; and returns a &quot;blended&quot; saturation mixing ratio....">
<polygon fill="white" stroke="#666666" points="276.12,-67.88 161.88,-67.88 161.88,-37.38 276.12,-37.38 276.12,-67.88"/>
<text xml:space="preserve" text-anchor="start" x="169.88" y="-54.38" font-family="Source Sans Pro" font-size="10.00">module_bl_mynn::qsat</text>
<text xml:space="preserve" text-anchor="middle" x="219" y="-43.12" font-family="Source Sans Pro" font-size="10.00">_blend</text>
</a>
</g>
</g>
<!-- Node1&#45;&gt;Node2 -->
<g id="edge1_Node000001_Node000002" class="edge">
<title>Node1&#45;&gt;Node2</title>
<g id="a_edge1_Node000001_Node000002"><a xlink:title=" ">
<path fill="none" stroke="#63b8ff" d="M119.75,-38.88C129.69,-40.27 140.08,-41.72 150.22,-43.14"/>
<polygon fill="#63b8ff" stroke="#63b8ff" points="149.65,-46.6 160.03,-44.52 150.62,-39.66 149.65,-46.6"/>
</a>
</g>
</g>
<!-- Node3 -->
<g id="Node000003" class="node">
<title>Node3</title>
<g id="a_Node000003"><a xlink:href="group__gp__mynnedmf_ga4fa1805b4144393074c41831e22f9cf4.html#ga4fa1805b4144393074c41831e22f9cf4" target="_top" xlink:title=" ">
<polygon fill="white" stroke="#666666" points="282.5,-19.25 155.5,-19.25 155.5,0 282.5,0 282.5,-19.25"/>
<text xml:space="preserve" text-anchor="middle" x="219" y="-5.75" font-family="Source Sans Pro" font-size="10.00">module_bl_mynn::tridiag2</text>
</a>
</g>
</g>
<!-- Node1&#45;&gt;Node3 -->
<g id="edge3_Node000001_Node000003" class="edge">
<title>Node1&#45;&gt;Node3</title>
<g id="a_edge3_Node000001_Node000003"><a xlink:title=" ">
<path fill="none" stroke="#63b8ff" d="M119.75,-22.75C127.63,-21.69 135.79,-20.6 143.88,-19.52"/>
<polygon fill="#63b8ff" stroke="#63b8ff" points="144.3,-23 153.75,-18.21 143.37,-16.06 144.3,-23"/>
</a>
</g>
</g>
<!-- Node2&#45;&gt;Node2 -->
<g id="edge2_Node000002_Node000002" class="edge">
<title>Node2&#45;&gt;Node2</title>
<g id="a_edge2_Node000002_Node000002"><a xlink:title=" ">
<path fill="none" stroke="#63b8ff" d="M190.78,-68.36C185.02,-77.43 194.43,-85.88 219,-85.88 232.44,-85.88 241.34,-83.35 245.71,-79.58"/>
<polygon fill="#63b8ff" stroke="#63b8ff" points="249.15,-80.24 247.02,-69.86 242.21,-79.3 249.15,-80.24"/>
</a>
</g>
</g>
</g>
</svg>
