<?xml version="1.0" encoding="UTF-8" standalone="no"?>
<!DOCTYPE svg PUBLIC "-//W3C//DTD SVG 1.1//EN"
 "http://www.w3.org/Graphics/SVG/1.1/DTD/svg11.dtd">
<!-- Generated by graphviz version 14.1.2 (20260124.0452)
 -->
<!-- Title: zolri Pages: 1 -->
<svg width="146pt" height="45pt"
 viewBox="0.00 0.00 146.00 45.00" xmlns="http://www.w3.org/2000/svg" xmlns:xlink="http://www.w3.org/1999/xlink">
<g id="graph0" class="graph" transform="scale(1 1) rotate(0) translate(4 41.25)">
<title>zolri</title>
<!-- Node1 -->
<g id="Node000001" class="node">
<title>Node1</title>
<g id="a_Node000001"><a xlink:title=" ">
<polygon fill="#999999" stroke="#666666" points="34,-19.25 0,-19.25 0,0 34,0 34,-19.25"/>
<text xml:space="preserve" text-anchor="middle" x="17" y="-5.75" font-family="Source Sans Pro" font-size="10.00">zolri</text>
</a>
</g>
</g>
<!-- Node1&#45;&gt;Node1 -->
<g id="edge2_Node000001_Node000001" class="edge">
<title>Node1&#45;&gt;Node1</title>
<g id="a_edge2_Node000001_Node000001"><a xlink:title=" ">
<path fill="none" stroke="#63b8ff" d="M3.4,-19.54C-2.8,-28.15 1.73,-37.25 17,-37.25 25.35,-37.25 30.49,-34.53 32.42,-30.65"/>
<polygon fill="#63b8ff" stroke="#63b8ff" points="35.92,-30.33 30.85,-21.03 29.01,-31.47 35.92,-30.33"/>
</a>
</g>
</g>
<!-- Node2 -->
<g id="Node000002" class="node">
<title>Node2</title>
<g id="a_Node000002"><a xlink:href="group__mynn__sfc_ga7bbe8445bfcae5adad4fed82a0ecbaee.html#ga7bbe8445bfcae5adad4fed82a0ecbaee" target="_top" xlink:title="this subroutine returns a more robust z/l that best matches the z/l from hogstrom (1996) for unstable...">
<polygon fill="white" stroke="#666666" points="137.75,-19.25 70,-19.25 70,0 137.75,0 137.75,-19.25"/>
<text xml:space="preserve" text-anchor="middle" x="103.88" y="-5.75" font-family="Source Sans Pro" font-size="10.00">li_etal_2010</text>
</a>
</g>
</g>
<!-- Node1&#45;&gt;Node2 -->
<g id="edge1_Node000001_Node000002" class="edge">
<title>Node1&#45;&gt;Node2</title>
<g id="a_edge1_Node000001_Node000002"><a xlink:title=" ">
<path fill="none" stroke="#63b8ff" d="M34.36,-9.62C41.33,-9.62 49.83,-9.62 58.44,-9.62"/>
<polygon fill="#63b8ff" stroke="#63b8ff" points="58.18,-13.13 68.18,-9.63 58.18,-6.13 58.18,-13.13"/>
</a>
</g>
</g>
</g>
</svg>
