<?xml version="1.0" encoding="UTF-8" standalone="no"?>
<!DOCTYPE svg PUBLIC "-//W3C//DTD SVG 1.1//EN"
 "http://www.w3.org/Graphics/SVG/1.1/DTD/svg11.dtd">
<!-- Generated by graphviz version 14.1.2 (20260124.0452)
 -->
<!-- Title: fv_sat_adj::wqs1 Pages: 1 -->
<svg width="358pt" height="51pt"
 viewBox="0.00 0.00 358.00 51.00" xmlns="http://www.w3.org/2000/svg" xmlns:xlink="http://www.w3.org/1999/xlink">
<g id="graph0" class="graph" transform="scale(1 1) rotate(0) translate(4 46.88)">
<title>fv_sat_adj::wqs1</title>
<!-- Node1 -->
<g id="Node000001" class="node">
<title>Node1</title>
<g id="a_Node000001"><a xlink:title="the function &#39;wqs1&#39; computes the saturated specific humidity for table ii.">
<polygon fill="#999999" stroke="#666666" points="350.25,-24.88 260,-24.88 260,-5.63 350.25,-5.63 350.25,-24.88"/>
<text xml:space="preserve" text-anchor="middle" x="305.12" y="-11.38" font-family="Source Sans Pro" font-size="10.00">fv_sat_adj::wqs1</text>
</a>
</g>
</g>
<!-- Node1&#45;&gt;Node1 -->
<g id="edge3_Node000001_Node000001" class="edge">
<title>Node1&#45;&gt;Node1</title>
<g id="a_edge3_Node000001_Node000001"><a xlink:title=" ">
<path fill="none" stroke="#63b8ff" d="M327.87,-36.28C325.02,-40.15 317.44,-42.88 305.12,-42.88 282.6,-42.88 275.92,-33.77 285.07,-25.16"/>
<polygon fill="#63b8ff" stroke="#63b8ff" points="331.29,-35.53 325.54,-26.63 324.48,-37.18 331.29,-35.53"/>
</a>
</g>
</g>
<!-- Node2 -->
<g id="Node000002" class="node">
<title>Node2</title>
<g id="a_Node000002"><a xlink:href="group__fast__sat__adj_ga87dc9f08821c6033c56775614f2c392a.html#ga87dc9f08821c6033c56775614f2c392a" target="_top" xlink:title="This subroutine includes the entity of the fast saturation adjustment processes.">
<polygon fill="white" stroke="#666666" points="224,-30.5 130,-30.5 130,0 224,0 224,-30.5"/>
<text xml:space="preserve" text-anchor="start" x="138" y="-17" font-family="Source Sans Pro" font-size="10.00">fv_sat_adj::fv_sat</text>
<text xml:space="preserve" text-anchor="middle" x="177" y="-5.75" font-family="Source Sans Pro" font-size="10.00">_adj_work</text>
</a>
</g>
</g>
<!-- Node1&#45;&gt;Node2 -->
<g id="edge1_Node000001_Node000002" class="edge">
<title>Node1&#45;&gt;Node2</title>
<g id="a_edge1_Node000001_Node000002"><a xlink:title=" ">
<path fill="none" stroke="#63b8ff" d="M248.4,-15.25C240.31,-15.25 232.07,-15.25 224.2,-15.25"/>
<polygon fill="#63b8ff" stroke="#63b8ff" points="248.14,-18.75 258.14,-15.25 248.14,-11.75 248.14,-18.75"/>
</a>
</g>
</g>
<!-- Node3 -->
<g id="Node000003" class="node">
<title>Node3</title>
<g id="a_Node000003"><a xlink:href="group__fast__sat__adj_gaf76a10f6469a0a009a0dec6cbea26c9d.html#gaf76a10f6469a0a009a0dec6cbea26c9d" target="_top" xlink:title=" ">
<polygon fill="white" stroke="#666666" points="94,-30.5 0,-30.5 0,0 94,0 94,-30.5"/>
<text xml:space="preserve" text-anchor="start" x="8" y="-17" font-family="Source Sans Pro" font-size="10.00">fv_sat_adj::fv_sat</text>
<text xml:space="preserve" text-anchor="middle" x="47" y="-5.75" font-family="Source Sans Pro" font-size="10.00">_adj_run</text>
</a>
</g>
</g>
<!-- Node2&#45;&gt;Node3 -->
<g id="edge2_Node000002_Node000003" class="edge">
<title>Node2&#45;&gt;Node3</title>
<g id="a_edge2_Node000002_Node000003"><a xlink:title=" ">
<path fill="none" stroke="#63b8ff" d="M118.44,-15.25C110.3,-15.25 102.03,-15.25 94.14,-15.25"/>
<polygon fill="#63b8ff" stroke="#63b8ff" points="118.28,-18.75 128.28,-15.25 118.28,-11.75 118.28,-18.75"/>
</a>
</g>
</g>
</g>
</svg>
