<?xml version="1.0" encoding="UTF-8" standalone="no"?>
<!DOCTYPE svg PUBLIC "-//W3C//DTD SVG 1.1//EN"
 "http://www.w3.org/Graphics/SVG/1.1/DTD/svg11.dtd">
<!-- Generated by graphviz version 14.1.2 (20260124.0452)
 -->
<!-- Title: radiation Pages: 1 -->
<svg width="258pt" height="175pt"
 viewBox="0.00 0.00 258.00 175.00" xmlns="http://www.w3.org/2000/svg" xmlns:xlink="http://www.w3.org/1999/xlink">
<g id="graph0" class="graph" transform="scale(1 1) rotate(0) translate(4 171.25)">
<title>radiation</title>
<!-- Node1 -->
<g id="Node000001" class="node">
<title>Node1</title>
<g id="a_Node000001"><a xlink:title="Calculate solar radiation: absorbed &amp; reflected by the ground and canopy.">
<polygon fill="#999999" stroke="#666666" points="52.75,-74.25 0,-74.25 0,-55 52.75,-55 52.75,-74.25"/>
<text xml:space="preserve" text-anchor="middle" x="26.38" y="-60.75" font-family="Source Sans Pro" font-size="10.00">radiation</text>
</a>
</g>
</g>
<!-- Node2 -->
<g id="Node000002" class="node">
<title>Node2</title>
<g id="a_Node000002"><a xlink:href="group___noah_m_p___l_s_m_ga9d5adb20aca5b72a7e126136088e20d1.html#ga9d5adb20aca5b72a7e126136088e20d1" target="_top" xlink:title="surface albedos. also fluxes (per unit incoming direct and diffuse radiation) reflected,...">
<polygon fill="white" stroke="#666666" points="133.25,-93.25 88.75,-93.25 88.75,-74 133.25,-74 133.25,-93.25"/>
<text xml:space="preserve" text-anchor="middle" x="111" y="-79.75" font-family="Source Sans Pro" font-size="10.00">albedo</text>
</a>
</g>
</g>
<!-- Node1&#45;&gt;Node2 -->
<g id="edge1_Node000001_Node000002" class="edge">
<title>Node1&#45;&gt;Node2</title>
<g id="a_edge1_Node000001_Node000002"><a xlink:title=" ">
<path fill="none" stroke="#63b8ff" d="M53.07,-70.53C60.79,-72.31 69.38,-74.28 77.48,-76.15"/>
<polygon fill="#63b8ff" stroke="#63b8ff" points="76.49,-79.51 87.02,-78.34 78.06,-72.69 76.49,-79.51"/>
</a>
</g>
</g>
<!-- Node8 -->
<g id="Node000008" class="node">
<title>Node8</title>
<g id="a_Node000008"><a xlink:href="group___noah_m_p___l_s_m_ga04d44126dfc46d383150a1525f46dbcc.html#ga04d44126dfc46d383150a1525f46dbcc" target="_top" xlink:title="surface raditiation">
<polygon fill="white" stroke="#666666" points="132.5,-56.25 89.5,-56.25 89.5,-37 132.5,-37 132.5,-56.25"/>
<text xml:space="preserve" text-anchor="middle" x="111" y="-42.75" font-family="Source Sans Pro" font-size="10.00">surrad</text>
</a>
</g>
</g>
<!-- Node1&#45;&gt;Node8 -->
<g id="edge7_Node000001_Node000008" class="edge">
<title>Node1&#45;&gt;Node8</title>
<g id="a_edge7_Node000001_Node000008"><a xlink:title=" ">
<path fill="none" stroke="#63b8ff" d="M53.07,-59.03C60.92,-57.32 69.66,-55.41 77.89,-53.62"/>
<polygon fill="#63b8ff" stroke="#63b8ff" points="78.53,-57.06 87.55,-51.51 77.04,-50.22 78.53,-57.06"/>
</a>
</g>
</g>
<!-- Node3 -->
<g id="Node000003" class="node">
<title>Node3</title>
<g id="a_Node000003"><a xlink:href="group___noah_m_p___l_s_m_ga497b40d27709666f17da3e555f8628a1.html#ga497b40d27709666f17da3e555f8628a1" target="_top" xlink:title="ground surface albedo">
<polygon fill="white" stroke="#666666" points="238.5,-167.25 180.5,-167.25 180.5,-148 238.5,-148 238.5,-167.25"/>
<text xml:space="preserve" text-anchor="middle" x="209.5" y="-153.75" font-family="Source Sans Pro" font-size="10.00">groundalb</text>
</a>
</g>
</g>
<!-- Node2&#45;&gt;Node3 -->
<g id="edge2_Node000002_Node000003" class="edge">
<title>Node2&#45;&gt;Node3</title>
<g id="a_edge2_Node000002_Node000003"><a xlink:title=" ">
<path fill="none" stroke="#63b8ff" d="M120.08,-93.38C130.47,-105.46 149.54,-126.08 169.25,-139.62 170.6,-140.55 172.01,-141.46 173.45,-142.33"/>
<polygon fill="#63b8ff" stroke="#63b8ff" points="171.5,-145.25 181.97,-146.92 174.82,-139.09 171.5,-145.25"/>
</a>
</g>
</g>
<!-- Node4 -->
<g id="Node000004" class="node">
<title>Node4</title>
<g id="a_Node000004"><a xlink:href="group___noah_m_p___l_s_m_ga748c587c5dc0a38a1793042e92952d43.html#ga748c587c5dc0a38a1793042e92952d43" target="_top" xlink:title=" ">
<polygon fill="white" stroke="#666666" points="239.62,-130.25 179.38,-130.25 179.38,-111 239.62,-111 239.62,-130.25"/>
<text xml:space="preserve" text-anchor="middle" x="209.5" y="-116.75" font-family="Source Sans Pro" font-size="10.00">snow_age</text>
</a>
</g>
</g>
<!-- Node2&#45;&gt;Node4 -->
<g id="edge3_Node000002_Node000004" class="edge">
<title>Node2&#45;&gt;Node4</title>
<g id="a_edge3_Node000002_Node000004"><a xlink:title=" ">
<path fill="none" stroke="#63b8ff" d="M133.42,-91.84C144.7,-96.16 158.84,-101.59 171.81,-106.56"/>
<polygon fill="#63b8ff" stroke="#63b8ff" points="170.33,-109.74 180.92,-110.05 172.83,-103.2 170.33,-109.74"/>
</a>
</g>
</g>
<!-- Node5 -->
<g id="Node000005" class="node">
<title>Node5</title>
<g id="a_Node000005"><a xlink:href="group___noah_m_p___l_s_m_ga238debe3053962b0b33a5e846e333701.html#ga238debe3053962b0b33a5e846e333701" target="_top" xlink:title="bats snow surface albedo">
<polygon fill="white" stroke="#666666" points="247.5,-93.25 171.5,-93.25 171.5,-74 247.5,-74 247.5,-93.25"/>
<text xml:space="preserve" text-anchor="middle" x="209.5" y="-79.75" font-family="Source Sans Pro" font-size="10.00">snowalb_bats</text>
</a>
</g>
</g>
<!-- Node2&#45;&gt;Node5 -->
<g id="edge4_Node000002_Node000005" class="edge">
<title>Node2&#45;&gt;Node5</title>
<g id="a_edge4_Node000002_Node000005"><a xlink:title=" ">
<path fill="none" stroke="#63b8ff" d="M133.42,-83.62C141.31,-83.62 150.61,-83.62 159.93,-83.62"/>
<polygon fill="#63b8ff" stroke="#63b8ff" points="159.69,-87.13 169.69,-83.63 159.69,-80.13 159.69,-87.13"/>
</a>
</g>
</g>
<!-- Node6 -->
<g id="Node000006" class="node">
<title>Node6</title>
<g id="a_Node000006"><a xlink:href="group___noah_m_p___l_s_m_ga2ea2346edd6f426f30dcc99085def5cf.html#ga2ea2346edd6f426f30dcc99085def5cf" target="_top" xlink:title="class snow surface albedo">
<polygon fill="white" stroke="#666666" points="249.75,-56.25 169.25,-56.25 169.25,-37 249.75,-37 249.75,-56.25"/>
<text xml:space="preserve" text-anchor="middle" x="209.5" y="-42.75" font-family="Source Sans Pro" font-size="10.00">snowalb_class</text>
</a>
</g>
</g>
<!-- Node2&#45;&gt;Node6 -->
<g id="edge5_Node000002_Node000006" class="edge">
<title>Node2&#45;&gt;Node6</title>
<g id="a_edge5_Node000002_Node000006"><a xlink:title=" ">
<path fill="none" stroke="#63b8ff" d="M133.42,-75.41C144.7,-71.09 158.84,-65.66 171.81,-60.69"/>
<polygon fill="#63b8ff" stroke="#63b8ff" points="172.83,-64.05 180.92,-57.2 170.33,-57.51 172.83,-64.05"/>
</a>
</g>
</g>
<!-- Node7 -->
<g id="Node000007" class="node">
<title>Node7</title>
<g id="a_Node000007"><a xlink:href="group___noah_m_p___l_s_m_gaa737a61978bde4dc6363e11263999769.html#gaa737a61978bde4dc6363e11263999769" target="_top" xlink:title="use two&#45;stream approximation of Dickinson (1983) adv geophysics 25: 305&#45;353 and sellers (1985) int j ...">
<polygon fill="white" stroke="#666666" points="240.38,-19.25 178.62,-19.25 178.62,0 240.38,0 240.38,-19.25"/>
<text xml:space="preserve" text-anchor="middle" x="209.5" y="-5.75" font-family="Source Sans Pro" font-size="10.00">twostream</text>
</a>
</g>
</g>
<!-- Node2&#45;&gt;Node7 -->
<g id="edge6_Node000002_Node000007" class="edge">
<title>Node2&#45;&gt;Node7</title>
<g id="a_edge6_Node000002_Node000007"><a xlink:title=" ">
<path fill="none" stroke="#63b8ff" d="M124.34,-73.57C127.31,-71.04 130.44,-68.28 133.25,-65.62 150.15,-49.64 150.33,-41.17 169.25,-27.62 170.42,-26.79 171.63,-25.98 172.87,-25.2"/>
<polygon fill="#63b8ff" stroke="#63b8ff" points="174.42,-28.34 181.47,-20.42 171.03,-22.21 174.42,-28.34"/>
</a>
</g>
</g>
</g>
</svg>
