<?xml version="1.0" encoding="UTF-8" standalone="no"?>
<!DOCTYPE svg PUBLIC "-//W3C//DTD SVG 1.1//EN"
 "http://www.w3.org/Graphics/SVG/1.1/DTD/svg11.dtd">
<!-- Generated by graphviz version 14.1.2 (20260124.0452)
 -->
<!-- Title: energy Pages: 1 -->
<svg width="387pt" height="582pt"
 viewBox="0.00 0.00 387.00 582.00" xmlns="http://www.w3.org/2000/svg" xmlns:xlink="http://www.w3.org/1999/xlink">
<g id="graph0" class="graph" transform="scale(1 1) rotate(0) translate(4 578.25)">
<title>energy</title>
<!-- Node1 -->
<g id="Node000001" class="node">
<title>Node1</title>
<g id="a_Node000001"><a xlink:title="We use different approaches to deal with subgrid features of radiation transfer and turbulent transfe...">
<polygon fill="#999999" stroke="#666666" points="45.25,-241.25 0,-241.25 0,-222 45.25,-222 45.25,-241.25"/>
<text xml:space="preserve" text-anchor="middle" x="22.62" y="-227.75" font-family="Source Sans Pro" font-size="10.00">energy</text>
</a>
</g>
</g>
<!-- Node2 -->
<g id="Node000002" class="node">
<title>Node2</title>
<g id="a_Node000002"><a xlink:href="group___noah_m_p___l_s_m_gaeb5a9f0cae890fa73e0e17f9b4be30c2.html#gaeb5a9f0cae890fa73e0e17f9b4be30c2" target="_top" xlink:title="use newton&#45;raphson iteration to solve ground (tg) temperature that balances the surface energy budget...">
<polygon fill="white" stroke="#666666" points="146,-463.25 90.25,-463.25 90.25,-444 146,-444 146,-463.25"/>
<text xml:space="preserve" text-anchor="middle" x="118.12" y="-449.75" font-family="Source Sans Pro" font-size="10.00">bare_flux</text>
</a>
</g>
</g>
<!-- Node1&#45;&gt;Node2 -->
<g id="edge1_Node000001_Node000002" class="edge">
<title>Node1&#45;&gt;Node2</title>
<g id="a_edge1_Node000001_Node000002"><a xlink:title=" ">
<path fill="none" stroke="#63b8ff" d="M25.04,-241.51C29.51,-270.31 45.17,-355.89 81.25,-416.62 85.43,-423.65 91.19,-430.38 96.88,-436.12"/>
<polygon fill="#63b8ff" stroke="#63b8ff" points="94.19,-438.4 103.86,-442.71 98.99,-433.31 94.19,-438.4"/>
</a>
</g>
</g>
<!-- Node13 -->
<g id="Node000013" class="node">
<title>Node13</title>
<g id="a_Node000013"><a xlink:href="group___noah_m_p___l_s_m_gae2fa81a8d36349faf818400ee46c6357.html#gae2fa81a8d36349faf818400ee46c6357" target="_top" xlink:title=" ">
<polygon fill="white" stroke="#666666" points="249.75,-315.25 191,-315.25 191,-296 249.75,-296 249.75,-315.25"/>
<text xml:space="preserve" text-anchor="middle" x="220.38" y="-301.75" font-family="Source Sans Pro" font-size="10.00">thermalz0</text>
</a>
</g>
</g>
<!-- Node1&#45;&gt;Node13 -->
<g id="edge24_Node000001_Node000013" class="edge">
<title>Node1&#45;&gt;Node13</title>
<g id="a_edge24_Node000001_Node000013"><a xlink:title=" ">
<path fill="none" stroke="#63b8ff" d="M45.7,-239.97C78.78,-252.48 141.64,-276.24 181.97,-291.49"/>
<polygon fill="#63b8ff" stroke="#63b8ff" points="180.7,-294.75 191.29,-295.01 183.18,-288.2 180.7,-294.75"/>
</a>
</g>
</g>
<!-- Node14 -->
<g id="Node000014" class="node">
<title>Node14</title>
<g id="a_Node000014"><a xlink:href="group___noah_m_p___l_s_m_ga224e81e192ae0cf37b2b8b52cd19ee82.html#ga224e81e192ae0cf37b2b8b52cd19ee82" target="_top" xlink:title="melting/freezing of snow water and soil water">
<polygon fill="white" stroke="#666666" points="155,-241.25 81.25,-241.25 81.25,-222 155,-222 155,-241.25"/>
<text xml:space="preserve" text-anchor="middle" x="118.12" y="-227.75" font-family="Source Sans Pro" font-size="10.00">phasechange</text>
</a>
</g>
</g>
<!-- Node1&#45;&gt;Node14 -->
<g id="edge13_Node000001_Node000014" class="edge">
<title>Node1&#45;&gt;Node14</title>
<g id="a_edge13_Node000001_Node000014"><a xlink:title=" ">
<path fill="none" stroke="#63b8ff" d="M45.31,-231.62C52.58,-231.62 61,-231.62 69.45,-231.62"/>
<polygon fill="#63b8ff" stroke="#63b8ff" points="69.4,-235.13 79.4,-231.63 69.39,-228.13 69.4,-235.13"/>
</a>
</g>
</g>
<!-- Node17 -->
<g id="Node000017" class="node">
<title>Node17</title>
<g id="a_Node000017"><a xlink:href="group___noah_m_p___l_s_m_gaaa3073947247829ad606eea763d888f8.html#gaaa3073947247829ad606eea763d888f8" target="_top" xlink:title="Calculate solar radiation: absorbed &amp; reflected by the ground and canopy.">
<polygon fill="white" stroke="#666666" points="144.5,-204.25 91.75,-204.25 91.75,-185 144.5,-185 144.5,-204.25"/>
<text xml:space="preserve" text-anchor="middle" x="118.12" y="-190.75" font-family="Source Sans Pro" font-size="10.00">radiation</text>
</a>
</g>
</g>
<!-- Node1&#45;&gt;Node17 -->
<g id="edge16_Node000001_Node000017" class="edge">
<title>Node1&#45;&gt;Node17</title>
<g id="a_edge16_Node000001_Node000017"><a xlink:title=" ">
<path fill="none" stroke="#63b8ff" d="M45.31,-223.04C55.88,-218.86 68.89,-213.71 80.91,-208.96"/>
<polygon fill="#63b8ff" stroke="#63b8ff" points="82.16,-212.23 90.17,-205.29 79.58,-205.72 82.16,-212.23"/>
</a>
</g>
</g>
<!-- Node25 -->
<g id="Node000025" class="node">
<title>Node25</title>
<g id="a_Node000025"><a xlink:href="group___noah_m_p___l_s_m_gaad69cb985ab68c251907ca0480ee917f.html#gaad69cb985ab68c251907ca0480ee917f" target="_top" xlink:title=" ">
<polygon fill="white" stroke="#666666" points="150.5,-130.25 85.75,-130.25 85.75,-111 150.5,-111 150.5,-130.25"/>
<text xml:space="preserve" text-anchor="middle" x="118.12" y="-116.75" font-family="Source Sans Pro" font-size="10.00">thermoprop</text>
</a>
</g>
</g>
<!-- Node1&#45;&gt;Node25 -->
<g id="edge25_Node000001_Node000025" class="edge">
<title>Node1&#45;&gt;Node25</title>
<g id="a_edge25_Node000001_Node000025"><a xlink:title=" ">
<path fill="none" stroke="#63b8ff" d="M31.92,-221.77C47.48,-203.31 81.26,-163.21 101.3,-139.42"/>
<polygon fill="#63b8ff" stroke="#63b8ff" points="103.97,-141.67 107.74,-131.77 98.62,-137.16 103.97,-141.67"/>
</a>
</g>
</g>
<!-- Node28 -->
<g id="Node000028" class="node">
<title>Node28</title>
<g id="a_Node000028"><a xlink:href="group___noah_m_p___l_s_m_ga75765a418ab7cac83a29ee89bcc28da9.html#ga75765a418ab7cac83a29ee89bcc28da9" target="_top" xlink:title="compute snow (up to 3l) and soil (4l) temperature. note that snow temperatures during melting season ...">
<polygon fill="white" stroke="#666666" points="141.88,-56.25 94.38,-56.25 94.38,-37 141.88,-37 141.88,-56.25"/>
<text xml:space="preserve" text-anchor="middle" x="118.12" y="-42.75" font-family="Source Sans Pro" font-size="10.00">tsnosoi</text>
</a>
</g>
</g>
<!-- Node1&#45;&gt;Node28 -->
<g id="edge28_Node000001_Node000028" class="edge">
<title>Node1&#45;&gt;Node28</title>
<g id="a_edge28_Node000001_Node000028"><a xlink:title=" ">
<path fill="none" stroke="#63b8ff" d="M27.44,-221.58C35.99,-199.4 57.8,-144.8 81.25,-101.62 87.94,-89.3 96.49,-76.13 103.56,-65.76"/>
<polygon fill="#63b8ff" stroke="#63b8ff" points="106.32,-67.92 109.15,-57.71 100.57,-63.92 106.32,-67.92"/>
</a>
</g>
</g>
<!-- Node32 -->
<g id="Node000032" class="node">
<title>Node32</title>
<g id="a_Node000032"><a xlink:href="group___noah_m_p___l_s_m_gadf2b2287685bf9c610afdb949c1c6cdb.html#gadf2b2287685bf9c610afdb949c1c6cdb" target="_top" xlink:title="use newton&#45;raphson iteration to solve for vegetation (tv) and ground (tg) temperatures that balance t...">
<polygon fill="white" stroke="#666666" points="147.12,-407.25 89.12,-407.25 89.12,-388 147.12,-388 147.12,-407.25"/>
<text xml:space="preserve" text-anchor="middle" x="118.12" y="-393.75" font-family="Source Sans Pro" font-size="10.00">vege_flux</text>
</a>
</g>
</g>
<!-- Node1&#45;&gt;Node32 -->
<g id="edge32_Node000001_Node000032" class="edge">
<title>Node1&#45;&gt;Node32</title>
<g id="a_edge32_Node000001_Node000032"><a xlink:title=" ">
<path fill="none" stroke="#63b8ff" d="M29.19,-241.51C44.23,-268.21 85.86,-342.12 105.97,-377.82"/>
<polygon fill="#63b8ff" stroke="#63b8ff" points="102.77,-379.27 110.72,-386.26 108.87,-375.83 102.77,-379.27"/>
</a>
</g>
</g>
<!-- Node3 -->
<g id="Node000003" class="node">
<title>Node3</title>
<g id="a_Node000003"><a xlink:href="group___noah_m_p___l_s_m_gaecaebf370302a4553aafbf34e22f68c7.html#gaecaebf370302a4553aafbf34e22f68c7" target="_top" xlink:title="use polynomials to calculate saturation vapor pressure and derivative with respect to temperature: ov...">
<polygon fill="white" stroke="#666666" points="237.75,-426.25 203,-426.25 203,-407 237.75,-407 237.75,-426.25"/>
<text xml:space="preserve" text-anchor="middle" x="220.38" y="-412.75" font-family="Source Sans Pro" font-size="10.00">esat</text>
</a>
</g>
</g>
<!-- Node2&#45;&gt;Node3 -->
<g id="edge2_Node000002_Node000003" class="edge">
<title>Node2&#45;&gt;Node3</title>
<g id="a_edge2_Node000002_Node000003"><a xlink:title=" ">
<path fill="none" stroke="#63b8ff" d="M146.25,-443.61C160.44,-438.38 177.76,-431.98 191.98,-426.74"/>
<polygon fill="#63b8ff" stroke="#63b8ff" points="193.02,-430.08 201.19,-423.34 190.59,-423.52 193.02,-430.08"/>
</a>
</g>
</g>
<!-- Node4 -->
<g id="Node000004" class="node">
<title>Node4</title>
<g id="a_Node000004"><a xlink:href="group___noah_m_p___l_s_m_ga4e76a9ee20e3ff7f36f761ffdc781690.html#ga4e76a9ee20e3ff7f36f761ffdc781690" target="_top" xlink:title="compute surface drag coefficient cm for momentum and ch for heat.">
<polygon fill="white" stroke="#666666" points="243,-574.25 197.75,-574.25 197.75,-555 243,-555 243,-574.25"/>
<text xml:space="preserve" text-anchor="middle" x="220.38" y="-560.75" font-family="Source Sans Pro" font-size="10.00">sfcdif1</text>
</a>
</g>
</g>
<!-- Node2&#45;&gt;Node4 -->
<g id="edge3_Node000002_Node000004" class="edge">
<title>Node2&#45;&gt;Node4</title>
<g id="a_edge3_Node000002_Node000004"><a xlink:title=" ">
<path fill="none" stroke="#63b8ff" d="M125.1,-463.49C136.36,-481.52 162.19,-520.37 191,-546.62 191.5,-547.08 192.01,-547.53 192.53,-547.97"/>
<polygon fill="#63b8ff" stroke="#63b8ff" points="190.25,-550.64 200.36,-553.78 194.41,-545.01 190.25,-550.64"/>
</a>
</g>
</g>
<!-- Node5 -->
<g id="Node000005" class="node">
<title>Node5</title>
<g id="a_Node000005"><a xlink:href="group___noah_m_p___l_s_m_ga8a86a91a2b7884f8fcd1d32a0edc405e.html#ga8a86a91a2b7884f8fcd1d32a0edc405e" target="_top" xlink:title="calculate surface layer exchange coefficients via iteractive process (Chen et al. 1997,...">
<polygon fill="white" stroke="#666666" points="243,-537.25 197.75,-537.25 197.75,-518 243,-518 243,-537.25"/>
<text xml:space="preserve" text-anchor="middle" x="220.38" y="-523.75" font-family="Source Sans Pro" font-size="10.00">sfcdif2</text>
</a>
</g>
</g>
<!-- Node2&#45;&gt;Node5 -->
<g id="edge4_Node000002_Node000005" class="edge">
<title>Node2&#45;&gt;Node5</title>
<g id="a_edge4_Node000002_Node000005"><a xlink:title=" ">
<path fill="none" stroke="#63b8ff" d="M131.31,-463.71C145.4,-475.22 169.4,-494.41 191,-509.62 191.83,-510.21 192.69,-510.8 193.55,-511.4"/>
<polygon fill="#63b8ff" stroke="#63b8ff" points="191.45,-514.2 201.73,-516.78 195.3,-508.36 191.45,-514.2"/>
</a>
</g>
</g>
<!-- Node6 -->
<g id="Node000006" class="node">
<title>Node6</title>
<g id="a_Node000006"><a xlink:href="group___noah_m_p___l_s_m_ga5894e4162657666340f3bd83f4b6263d.html#ga5894e4162657666340f3bd83f4b6263d" target="_top" xlink:title="compute surface drag coefficient cm for momentum and ch for heat.">
<polygon fill="white" stroke="#666666" points="243,-500.25 197.75,-500.25 197.75,-481 243,-481 243,-500.25"/>
<text xml:space="preserve" text-anchor="middle" x="220.38" y="-486.75" font-family="Source Sans Pro" font-size="10.00">sfcdif3</text>
</a>
</g>
</g>
<!-- Node2&#45;&gt;Node6 -->
<g id="edge5_Node000002_Node000006" class="edge">
<title>Node2&#45;&gt;Node6</title>
<g id="a_edge5_Node000002_Node000006"><a xlink:title=" ">
<path fill="none" stroke="#63b8ff" d="M146.25,-463.64C158.76,-468.25 173.7,-473.77 186.81,-478.6"/>
<polygon fill="#63b8ff" stroke="#63b8ff" points="185.28,-481.77 195.87,-481.95 187.7,-475.2 185.28,-481.77"/>
</a>
</g>
</g>
<!-- Node7 -->
<g id="Node000007" class="node">
<title>Node7</title>
<g id="a_Node000007"><a xlink:href="group___noah_m_p___l_s_m_ga4a88258da12057ced7c9dc5760b53d13.html#ga4a88258da12057ced7c9dc5760b53d13" target="_top" xlink:title=" ">
<polygon fill="white" stroke="#666666" points="243,-463.25 197.75,-463.25 197.75,-444 243,-444 243,-463.25"/>
<text xml:space="preserve" text-anchor="middle" x="220.38" y="-449.75" font-family="Source Sans Pro" font-size="10.00">sfcdif4</text>
</a>
</g>
</g>
<!-- Node2&#45;&gt;Node7 -->
<g id="edge6_Node000002_Node000007" class="edge">
<title>Node2&#45;&gt;Node7</title>
<g id="a_edge6_Node000002_Node000007"><a xlink:title=" ">
<path fill="none" stroke="#63b8ff" d="M146.25,-453.62C158.51,-453.62 173.1,-453.62 186.02,-453.62"/>
<polygon fill="#63b8ff" stroke="#63b8ff" points="185.78,-457.13 195.78,-453.63 185.78,-450.13 185.78,-457.13"/>
</a>
</g>
</g>
<!-- Node2&#45;&gt;Node13 -->
<g id="edge12_Node000002_Node000013" class="edge">
<title>Node2&#45;&gt;Node13</title>
<g id="a_edge12_Node000002_Node000013"><a xlink:title=" ">
<path fill="none" stroke="#63b8ff" d="M131.06,-443.61C138.72,-436.67 148.44,-426.87 155,-416.62 178.9,-379.3 162.88,-357.88 191,-323.62 191.08,-323.53 191.15,-323.44 191.23,-323.35"/>
<polygon fill="#63b8ff" stroke="#63b8ff" points="193.49,-326.03 198.6,-316.75 188.81,-320.81 193.49,-326.03"/>
</a>
</g>
</g>
<!-- Node8 -->
<g id="Node000008" class="node">
<title>Node8</title>
<g id="a_Node000008"><a xlink:href="group__mynn__sfc_gab8e348eef161b16bada8841a900501c2.html#gab8e348eef161b16bada8841a900501c2" target="_top" xlink:title="this is taken from andreas (2002; j. of hydromet) and andreas et al. (2005; blm).">
<polygon fill="white" stroke="#666666" points="370.75,-407.25 294,-407.25 294,-388 370.75,-388 370.75,-407.25"/>
<text xml:space="preserve" text-anchor="middle" x="332.38" y="-393.75" font-family="Source Sans Pro" font-size="10.00">andreas_2002</text>
</a>
</g>
</g>
<!-- Node7&#45;&gt;Node8 -->
<g id="edge7_Node000007_Node000008" class="edge">
<title>Node7&#45;&gt;Node8</title>
<g id="a_edge7_Node000007_Node000008"><a xlink:title=" ">
<path fill="none" stroke="#63b8ff" d="M237.81,-443.52C253.61,-433.89 276.42,-420.18 285.75,-415.62 288.29,-414.38 290.95,-413.16 293.64,-411.97"/>
<polygon fill="#63b8ff" stroke="#63b8ff" points="294.79,-415.28 302.65,-408.18 292.08,-408.83 294.79,-415.28"/>
</a>
</g>
</g>
<!-- Node9 -->
<g id="Node000009" class="node">
<title>Node9</title>
<g id="a_Node000009"><a xlink:href="group___noah_m_p___l_s_m_ga88dbf6bdf1a8097e27b06ddfce89516c.html#ga88dbf6bdf1a8097e27b06ddfce89516c" target="_top" xlink:title="data. the formula for land uses a constant ratio (z_0/7.4) taken from garratt (1992).">
<polygon fill="white" stroke="#666666" points="367.38,-555.25 297.38,-555.25 297.38,-536 367.38,-536 367.38,-555.25"/>
<text xml:space="preserve" text-anchor="middle" x="332.38" y="-541.75" font-family="Source Sans Pro" font-size="10.00">garratt_1992</text>
</a>
</g>
</g>
<!-- Node7&#45;&gt;Node9 -->
<g id="edge8_Node000007_Node000009" class="edge">
<title>Node7&#45;&gt;Node9</title>
<g id="a_edge8_Node000007_Node000009"><a xlink:title=" ">
<path fill="none" stroke="#63b8ff" d="M239.66,-463.57C243.22,-465.94 246.77,-468.66 249.75,-471.62 270.73,-492.48 262.89,-508.85 285.75,-527.62 286.7,-528.41 287.7,-529.16 288.72,-529.88"/>
<polygon fill="#63b8ff" stroke="#63b8ff" points="286.85,-532.85 297.26,-534.84 290.37,-526.79 286.85,-532.85"/>
</a>
</g>
</g>
<!-- Node10 -->
<g id="Node000010" class="node">
<title>Node10</title>
<g id="a_Node000010"><a xlink:href="group__mynn__sfc_ga7bbe8445bfcae5adad4fed82a0ecbaee.html#ga7bbe8445bfcae5adad4fed82a0ecbaee" target="_top" xlink:title="this subroutine returns a more robust z/l that best matches the z/l from hogstrom (1996) for unstable...">
<polygon fill="white" stroke="#666666" points="366.25,-518.25 298.5,-518.25 298.5,-499 366.25,-499 366.25,-518.25"/>
<text xml:space="preserve" text-anchor="middle" x="332.38" y="-504.75" font-family="Source Sans Pro" font-size="10.00">li_etal_2010</text>
</a>
</g>
</g>
<!-- Node7&#45;&gt;Node10 -->
<g id="edge9_Node000007_Node000010" class="edge">
<title>Node7&#45;&gt;Node10</title>
<g id="a_edge9_Node000007_Node000010"><a xlink:title=" ">
<path fill="none" stroke="#63b8ff" d="M237.43,-463.73C250.24,-471.57 268.79,-482.46 285.75,-490.62 288.3,-491.85 290.96,-493.07 293.65,-494.25"/>
<polygon fill="#63b8ff" stroke="#63b8ff" points="292.1,-497.39 302.68,-498.02 294.8,-490.93 292.1,-497.39"/>
</a>
</g>
</g>
<!-- Node11 -->
<g id="Node000011" class="node">
<title>Node11</title>
<g id="a_Node000011"><a xlink:href="group__mynn__sfc_ga25595438cdc181cd5e5e05aa45486a69.html#ga25595438cdc181cd5e5e05aa45486a69" target="_top" xlink:title="this is a modified version of yang et al (2002 qjrms, 2008 jamc) and chen et al (2010,...">
<polygon fill="white" stroke="#666666" points="364,-481.25 300.75,-481.25 300.75,-462 364,-462 364,-481.25"/>
<text xml:space="preserve" text-anchor="middle" x="332.38" y="-467.75" font-family="Source Sans Pro" font-size="10.00">yang_2008</text>
</a>
</g>
</g>
<!-- Node7&#45;&gt;Node11 -->
<g id="edge10_Node000007_Node000011" class="edge">
<title>Node7&#45;&gt;Node11</title>
<g id="a_edge10_Node000007_Node000011"><a xlink:title=" ">
<path fill="none" stroke="#63b8ff" d="M243.37,-457.22C256.49,-459.37 273.58,-462.17 289.21,-464.72"/>
<polygon fill="#63b8ff" stroke="#63b8ff" points="288.32,-468.13 298.76,-466.29 289.45,-461.22 288.32,-468.13"/>
</a>
</g>
</g>
<!-- Node12 -->
<g id="Node000012" class="node">
<title>Node12</title>
<g id="a_Node000012"><a xlink:href="group___noah_m_p___l_s_m_gaa1453a4f904aa171ea91510f464824b3.html#gaa1453a4f904aa171ea91510f464824b3" target="_top" xlink:title=" ">
<polygon fill="white" stroke="#666666" points="379,-444.25 285.75,-444.25 285.75,-425 379,-425 379,-444.25"/>
<text xml:space="preserve" text-anchor="middle" x="332.38" y="-430.75" font-family="Source Sans Pro" font-size="10.00">zilitinkevich_1995</text>
</a>
</g>
</g>
<!-- Node7&#45;&gt;Node12 -->
<g id="edge11_Node000007_Node000012" class="edge">
<title>Node7&#45;&gt;Node12</title>
<g id="a_edge11_Node000007_Node000012"><a xlink:title=" ">
<path fill="none" stroke="#63b8ff" d="M243.37,-449.83C252.31,-448.28 263.08,-446.42 273.99,-444.54"/>
<polygon fill="#63b8ff" stroke="#63b8ff" points="274.57,-447.99 283.83,-442.84 273.38,-441.09 274.57,-447.99"/>
</a>
</g>
</g>
<!-- Node15 -->
<g id="Node000015" class="node">
<title>Node15</title>
<g id="a_Node000015"><a xlink:href="group___noah_m_p___l_s_m_ga3828ee66b8dbae34856cd229066adeb8.html#ga3828ee66b8dbae34856cd229066adeb8" target="_top" xlink:title="calculate amount of supercooled liquid soil water content if temperature is below 273....">
<polygon fill="white" stroke="#666666" points="239.25,-241.25 201.5,-241.25 201.5,-222 239.25,-222 239.25,-241.25"/>
<text xml:space="preserve" text-anchor="middle" x="220.38" y="-227.75" font-family="Source Sans Pro" font-size="10.00">frh2o</text>
</a>
</g>
</g>
<!-- Node14&#45;&gt;Node15 -->
<g id="edge14_Node000014_Node000015" class="edge">
<title>Node14&#45;&gt;Node15</title>
<g id="a_edge14_Node000014_Node000015"><a xlink:title=" ">
<path fill="none" stroke="#63b8ff" d="M155.32,-231.62C166.65,-231.62 179.01,-231.62 189.82,-231.62"/>
<polygon fill="#63b8ff" stroke="#63b8ff" points="189.72,-235.13 199.72,-231.63 189.72,-228.13 189.72,-235.13"/>
</a>
</g>
</g>
<!-- Node16 -->
<g id="Node000016" class="node">
<title>Node16</title>
<g id="a_Node000016"><a xlink:href="group___noah_m_p___l_s_m_gace27cd3a7b4e23955e39e33bd344baae.html#gace27cd3a7b4e23955e39e33bd344baae" target="_top" xlink:title="check surface energy balance and water balance.">
<polygon fill="white" stroke="#666666" points="350.12,-296.25 314.62,-296.25 314.62,-277 350.12,-277 350.12,-296.25"/>
<text xml:space="preserve" text-anchor="middle" x="332.38" y="-282.75" font-family="Source Sans Pro" font-size="10.00">error</text>
</a>
</g>
</g>
<!-- Node15&#45;&gt;Node16 -->
<g id="edge15_Node000015_Node000016" class="edge">
<title>Node15&#45;&gt;Node16</title>
<g id="a_edge15_Node000015_Node000016"><a xlink:title=" ">
<path fill="none" stroke="#63b8ff" d="M237.43,-241.73C250.24,-249.57 268.79,-260.46 285.75,-268.62 291.5,-271.4 297.8,-274.09 303.83,-276.51"/>
<polygon fill="#63b8ff" stroke="#63b8ff" points="302.22,-279.64 312.81,-279.99 304.75,-273.11 302.22,-279.64"/>
</a>
</g>
</g>
<!-- Node18 -->
<g id="Node000018" class="node">
<title>Node18</title>
<g id="a_Node000018"><a xlink:href="group___noah_m_p___l_s_m_ga9d5adb20aca5b72a7e126136088e20d1.html#ga9d5adb20aca5b72a7e126136088e20d1" target="_top" xlink:title="surface albedos. also fluxes (per unit incoming direct and diffuse radiation) reflected,...">
<polygon fill="white" stroke="#666666" points="242.62,-204.25 198.12,-204.25 198.12,-185 242.62,-185 242.62,-204.25"/>
<text xml:space="preserve" text-anchor="middle" x="220.38" y="-190.75" font-family="Source Sans Pro" font-size="10.00">albedo</text>
</a>
</g>
</g>
<!-- Node17&#45;&gt;Node18 -->
<g id="edge17_Node000017_Node000018" class="edge">
<title>Node17&#45;&gt;Node18</title>
<g id="a_edge17_Node000017_Node000018"><a xlink:title=" ">
<path fill="none" stroke="#63b8ff" d="M144.94,-194.62C157.6,-194.62 172.98,-194.62 186.46,-194.62"/>
<polygon fill="#63b8ff" stroke="#63b8ff" points="186.2,-198.13 196.2,-194.63 186.2,-191.13 186.2,-198.13"/>
</a>
</g>
</g>
<!-- Node24 -->
<g id="Node000024" class="node">
<title>Node24</title>
<g id="a_Node000024"><a xlink:href="group___noah_m_p___l_s_m_ga04d44126dfc46d383150a1525f46dbcc.html#ga04d44126dfc46d383150a1525f46dbcc" target="_top" xlink:title="surface raditiation">
<polygon fill="white" stroke="#666666" points="241.88,-167.25 198.88,-167.25 198.88,-148 241.88,-148 241.88,-167.25"/>
<text xml:space="preserve" text-anchor="middle" x="220.38" y="-153.75" font-family="Source Sans Pro" font-size="10.00">surrad</text>
</a>
</g>
</g>
<!-- Node17&#45;&gt;Node24 -->
<g id="edge23_Node000017_Node000024" class="edge">
<title>Node17&#45;&gt;Node24</title>
<g id="a_edge23_Node000017_Node000024"><a xlink:title=" ">
<path fill="none" stroke="#63b8ff" d="M144.94,-185.1C158.13,-180.23 174.27,-174.27 188.15,-169.15"/>
<polygon fill="#63b8ff" stroke="#63b8ff" points="189.1,-172.53 197.27,-165.78 186.68,-165.96 189.1,-172.53"/>
</a>
</g>
</g>
<!-- Node19 -->
<g id="Node000019" class="node">
<title>Node19</title>
<g id="a_Node000019"><a xlink:href="group___noah_m_p___l_s_m_ga497b40d27709666f17da3e555f8628a1.html#ga497b40d27709666f17da3e555f8628a1" target="_top" xlink:title="ground surface albedo">
<polygon fill="white" stroke="#666666" points="361.38,-111.25 303.38,-111.25 303.38,-92 361.38,-92 361.38,-111.25"/>
<text xml:space="preserve" text-anchor="middle" x="332.38" y="-97.75" font-family="Source Sans Pro" font-size="10.00">groundalb</text>
</a>
</g>
</g>
<!-- Node18&#45;&gt;Node19 -->
<g id="edge18_Node000018_Node000019" class="edge">
<title>Node18&#45;&gt;Node19</title>
<g id="a_edge18_Node000018_Node000019"><a xlink:title=" ">
<path fill="none" stroke="#63b8ff" d="M239.98,-184.5C243.44,-182.17 246.87,-179.52 249.75,-176.62 270.92,-155.42 262.67,-138.74 285.75,-119.62 287.99,-117.77 290.44,-116.09 293.01,-114.57"/>
<polygon fill="#63b8ff" stroke="#63b8ff" points="294.53,-117.73 301.94,-110.16 291.42,-111.45 294.53,-117.73"/>
</a>
</g>
</g>
<!-- Node20 -->
<g id="Node000020" class="node">
<title>Node20</title>
<g id="a_Node000020"><a xlink:href="group___noah_m_p___l_s_m_ga748c587c5dc0a38a1793042e92952d43.html#ga748c587c5dc0a38a1793042e92952d43" target="_top" xlink:title=" ">
<polygon fill="white" stroke="#666666" points="362.5,-259.25 302.25,-259.25 302.25,-240 362.5,-240 362.5,-259.25"/>
<text xml:space="preserve" text-anchor="middle" x="332.38" y="-245.75" font-family="Source Sans Pro" font-size="10.00">snow_age</text>
</a>
</g>
</g>
<!-- Node18&#45;&gt;Node20 -->
<g id="edge19_Node000018_Node000020" class="edge">
<title>Node18&#45;&gt;Node20</title>
<g id="a_edge19_Node000018_Node000020"><a xlink:title=" ">
<path fill="none" stroke="#63b8ff" d="M237.43,-204.73C250.24,-212.57 268.79,-223.46 285.75,-231.62 288.3,-232.85 290.96,-234.07 293.65,-235.25"/>
<polygon fill="#63b8ff" stroke="#63b8ff" points="292.1,-238.39 302.68,-239.02 294.8,-231.93 292.1,-238.39"/>
</a>
</g>
</g>
<!-- Node21 -->
<g id="Node000021" class="node">
<title>Node21</title>
<g id="a_Node000021"><a xlink:href="group___noah_m_p___l_s_m_ga238debe3053962b0b33a5e846e333701.html#ga238debe3053962b0b33a5e846e333701" target="_top" xlink:title="bats snow surface albedo">
<polygon fill="white" stroke="#666666" points="370.38,-222.25 294.38,-222.25 294.38,-203 370.38,-203 370.38,-222.25"/>
<text xml:space="preserve" text-anchor="middle" x="332.38" y="-208.75" font-family="Source Sans Pro" font-size="10.00">snowalb_bats</text>
</a>
</g>
</g>
<!-- Node18&#45;&gt;Node21 -->
<g id="edge20_Node000018_Node000021" class="edge">
<title>Node18&#45;&gt;Node21</title>
<g id="a_edge20_Node000018_Node000021"><a xlink:title=" ">
<path fill="none" stroke="#63b8ff" d="M243.11,-198.18C254.57,-200.06 269.12,-202.44 283.08,-204.72"/>
<polygon fill="#63b8ff" stroke="#63b8ff" points="282.16,-208.12 292.59,-206.28 283.29,-201.21 282.16,-208.12"/>
</a>
</g>
</g>
<!-- Node22 -->
<g id="Node000022" class="node">
<title>Node22</title>
<g id="a_Node000022"><a xlink:href="group___noah_m_p___l_s_m_ga2ea2346edd6f426f30dcc99085def5cf.html#ga2ea2346edd6f426f30dcc99085def5cf" target="_top" xlink:title="class snow surface albedo">
<polygon fill="white" stroke="#666666" points="372.62,-185.25 292.12,-185.25 292.12,-166 372.62,-166 372.62,-185.25"/>
<text xml:space="preserve" text-anchor="middle" x="332.38" y="-171.75" font-family="Source Sans Pro" font-size="10.00">snowalb_class</text>
</a>
</g>
</g>
<!-- Node18&#45;&gt;Node22 -->
<g id="edge21_Node000018_Node000022" class="edge">
<title>Node18&#45;&gt;Node22</title>
<g id="a_edge21_Node000018_Node000022"><a xlink:title=" ">
<path fill="none" stroke="#63b8ff" d="M243.11,-190.87C253.97,-189 267.6,-186.64 280.88,-184.35"/>
<polygon fill="#63b8ff" stroke="#63b8ff" points="281.13,-187.86 290.39,-182.7 279.94,-180.96 281.13,-187.86"/>
</a>
</g>
</g>
<!-- Node23 -->
<g id="Node000023" class="node">
<title>Node23</title>
<g id="a_Node000023"><a xlink:href="group___noah_m_p___l_s_m_gaa737a61978bde4dc6363e11263999769.html#gaa737a61978bde4dc6363e11263999769" target="_top" xlink:title="use two&#45;stream approximation of Dickinson (1983) adv geophysics 25: 305&#45;353 and sellers (1985) int j ...">
<polygon fill="white" stroke="#666666" points="363.25,-148.25 301.5,-148.25 301.5,-129 363.25,-129 363.25,-148.25"/>
<text xml:space="preserve" text-anchor="middle" x="332.38" y="-134.75" font-family="Source Sans Pro" font-size="10.00">twostream</text>
</a>
</g>
</g>
<!-- Node18&#45;&gt;Node23 -->
<g id="edge22_Node000018_Node000023" class="edge">
<title>Node18&#45;&gt;Node23</title>
<g id="a_edge22_Node000018_Node000023"><a xlink:title=" ">
<path fill="none" stroke="#63b8ff" d="M237.81,-184.52C253.61,-174.89 276.42,-161.18 285.75,-156.62 288.29,-155.38 290.95,-154.16 293.64,-152.97"/>
<polygon fill="#63b8ff" stroke="#63b8ff" points="294.79,-156.28 302.65,-149.18 292.08,-149.83 294.79,-156.28"/>
</a>
</g>
</g>
<!-- Node26 -->
<g id="Node000026" class="node">
<title>Node26</title>
<g id="a_Node000026"><a xlink:href="group___noah_m_p___l_s_m_gaa026774816274ad1b9a02c5d0826aaea.html#gaa026774816274ad1b9a02c5d0826aaea" target="_top" xlink:title="snow bulk density,volumetric capacity, and thermal conductivity">
<polygon fill="white" stroke="#666666" points="242.62,-130.25 198.12,-130.25 198.12,-111 242.62,-111 242.62,-130.25"/>
<text xml:space="preserve" text-anchor="middle" x="220.38" y="-116.75" font-family="Source Sans Pro" font-size="10.00">csnow</text>
</a>
</g>
</g>
<!-- Node25&#45;&gt;Node26 -->
<g id="edge26_Node000025_Node000026" class="edge">
<title>Node25&#45;&gt;Node26</title>
<g id="a_edge26_Node000025_Node000026"><a xlink:title=" ">
<path fill="none" stroke="#63b8ff" d="M150.84,-120.62C162.17,-120.62 174.95,-120.62 186.38,-120.62"/>
<polygon fill="#63b8ff" stroke="#63b8ff" points="186.17,-124.13 196.17,-120.63 186.17,-117.13 186.17,-124.13"/>
</a>
</g>
</g>
<!-- Node27 -->
<g id="Node000027" class="node">
<title>Node27</title>
<g id="a_Node000027"><a xlink:href="group___noah_m_p___l_s_m_ga97cc7d00fd0fbc9628decbee58dcd8a9.html#ga97cc7d00fd0fbc9628decbee58dcd8a9" target="_top" xlink:title="calculate thermal diffusivity and conductivity of the soil. peters&#45;lidard approach (peters&#45;lidard et ...">
<polygon fill="white" stroke="#666666" points="241.88,-93.25 198.88,-93.25 198.88,-74 241.88,-74 241.88,-93.25"/>
<text xml:space="preserve" text-anchor="middle" x="220.38" y="-79.75" font-family="Source Sans Pro" font-size="10.00">tdfcnd</text>
</a>
</g>
</g>
<!-- Node25&#45;&gt;Node27 -->
<g id="edge27_Node000025_Node000027" class="edge">
<title>Node25&#45;&gt;Node27</title>
<g id="a_edge27_Node000025_Node000027"><a xlink:title=" ">
<path fill="none" stroke="#63b8ff" d="M146.52,-110.51C159.38,-105.77 174.78,-100.08 188.1,-95.17"/>
<polygon fill="#63b8ff" stroke="#63b8ff" points="189.1,-98.53 197.27,-91.78 186.68,-91.96 189.1,-98.53"/>
</a>
</g>
</g>
<!-- Node29 -->
<g id="Node000029" class="node">
<title>Node29</title>
<g id="a_Node000029"><a xlink:href="group___noah_m_p___l_s_m_ga676e00f810d3c10c628b878fd7d2c728.html#ga676e00f810d3c10c628b878fd7d2c728" target="_top" xlink:title="calculate the right hand side of the time tendency term of the soil thermal diffusion equation....">
<polygon fill="white" stroke="#666666" points="234.78,-56.25 205.97,-56.25 205.97,-37 234.78,-37 234.78,-56.25"/>
<text xml:space="preserve" text-anchor="middle" x="220.38" y="-42.75" font-family="Source Sans Pro" font-size="10.00">hrt</text>
</a>
</g>
</g>
<!-- Node28&#45;&gt;Node29 -->
<g id="edge29_Node000028_Node000029" class="edge">
<title>Node28&#45;&gt;Node29</title>
<g id="a_edge29_Node000028_Node000029"><a xlink:title=" ">
<path fill="none" stroke="#63b8ff" d="M141.87,-46.62C157.53,-46.62 178.31,-46.62 194.42,-46.62"/>
<polygon fill="#63b8ff" stroke="#63b8ff" points="194.15,-50.13 204.15,-46.63 194.15,-43.13 194.15,-50.13"/>
</a>
</g>
</g>
<!-- Node30 -->
<g id="Node000030" class="node">
<title>Node30</title>
<g id="a_Node000030"><a xlink:href="group___noah_m_p___l_s_m_ga1ee9e5d99d3e45d7647507959077328a.html#ga1ee9e5d99d3e45d7647507959077328a" target="_top" xlink:title="calculate/update the soil temperature fields.">
<polygon fill="white" stroke="#666666" points="240.38,-19.25 200.38,-19.25 200.38,0 240.38,0 240.38,-19.25"/>
<text xml:space="preserve" text-anchor="middle" x="220.38" y="-5.75" font-family="Source Sans Pro" font-size="10.00">hstep</text>
</a>
</g>
</g>
<!-- Node28&#45;&gt;Node30 -->
<g id="edge30_Node000028_Node000030" class="edge">
<title>Node28&#45;&gt;Node30</title>
<g id="a_edge30_Node000028_Node000030"><a xlink:title=" ">
<path fill="none" stroke="#63b8ff" d="M141.87,-38.23C156.01,-33.01 174.32,-26.25 189.6,-20.61"/>
<polygon fill="#63b8ff" stroke="#63b8ff" points="190.5,-24.01 198.67,-17.27 188.08,-17.45 190.5,-24.01"/>
</a>
</g>
</g>
<!-- Node31 -->
<g id="Node000031" class="node">
<title>Node31</title>
<g id="a_Node000031"><a xlink:href="group___noah_m_p___l_s_m_ga7a305dbb6a9210b227ee310c71f30fd9.html#ga7a305dbb6a9210b227ee310c71f30fd9" target="_top" xlink:title="solve the tri&#45;diagonal matrix equation">
<polygon fill="white" stroke="#666666" points="353.88,-19.25 310.88,-19.25 310.88,0 353.88,0 353.88,-19.25"/>
<text xml:space="preserve" text-anchor="middle" x="332.38" y="-5.75" font-family="Source Sans Pro" font-size="10.00">rosr12</text>
</a>
</g>
</g>
<!-- Node30&#45;&gt;Node31 -->
<g id="edge31_Node000030_Node000031" class="edge">
<title>Node30&#45;&gt;Node31</title>
<g id="a_edge31_Node000030_Node000031"><a xlink:title=" ">
<path fill="none" stroke="#63b8ff" d="M240.79,-9.62C256.95,-9.62 280.31,-9.62 299.25,-9.62"/>
<polygon fill="#63b8ff" stroke="#63b8ff" points="299.15,-13.13 309.15,-9.63 299.15,-6.13 299.15,-13.13"/>
</a>
</g>
</g>
<!-- Node32&#45;&gt;Node3 -->
<g id="edge35_Node000032_Node000003" class="edge">
<title>Node32&#45;&gt;Node3</title>
<g id="a_edge35_Node000032_Node000003"><a xlink:title=" ">
<path fill="none" stroke="#63b8ff" d="M147.58,-403.02C161.37,-405.63 177.87,-408.76 191.57,-411.36"/>
<polygon fill="#63b8ff" stroke="#63b8ff" points="190.79,-414.77 201.27,-413.19 192.1,-407.89 190.79,-414.77"/>
</a>
</g>
</g>
<!-- Node32&#45;&gt;Node4 -->
<g id="edge37_Node000032_Node000004" class="edge">
<title>Node32&#45;&gt;Node4</title>
<g id="a_edge37_Node000032_Node000004"><a xlink:title=" ">
<path fill="none" stroke="#63b8ff" d="M131.26,-407.52C139.01,-414.4 148.74,-424.19 155,-434.62 181.9,-479.46 159.02,-505.26 191,-546.62 191.07,-546.72 191.15,-546.82 191.22,-546.91"/>
<polygon fill="#63b8ff" stroke="#63b8ff" points="188.75,-549.39 198.47,-553.6 193.5,-544.25 188.75,-549.39"/>
</a>
</g>
</g>
<!-- Node32&#45;&gt;Node5 -->
<g id="edge38_Node000032_Node000005" class="edge">
<title>Node32&#45;&gt;Node5</title>
<g id="a_edge38_Node000032_Node000005"><a xlink:title=" ">
<path fill="none" stroke="#63b8ff" d="M130.46,-407.51C138.07,-414.54 147.94,-424.5 155,-434.62 176.14,-464.96 166.44,-481.99 191,-509.62 191.16,-509.81 191.33,-509.99 191.5,-510.18"/>
<polygon fill="#63b8ff" stroke="#63b8ff" points="189.16,-512.78 199.05,-516.58 193.69,-507.44 189.16,-512.78"/>
</a>
</g>
</g>
<!-- Node32&#45;&gt;Node6 -->
<g id="edge39_Node000032_Node000006" class="edge">
<title>Node32&#45;&gt;Node6</title>
<g id="a_edge39_Node000032_Node000006"><a xlink:title=" ">
<path fill="none" stroke="#63b8ff" d="M128.9,-407.65C136.13,-415.07 146.21,-425.45 155,-434.62 171.1,-451.42 173.04,-457.84 191,-472.62 191.64,-473.15 192.3,-473.68 192.97,-474.2"/>
<polygon fill="#63b8ff" stroke="#63b8ff" points="190.66,-476.86 200.86,-479.75 194.69,-471.13 190.66,-476.86"/>
</a>
</g>
</g>
<!-- Node32&#45;&gt;Node7 -->
<g id="edge40_Node000032_Node000007" class="edge">
<title>Node32&#45;&gt;Node7</title>
<g id="a_edge40_Node000032_Node000007"><a xlink:title=" ">
<path fill="none" stroke="#63b8ff" d="M137.05,-407.64C152.21,-416.1 174.18,-428.38 191.62,-438.12"/>
<polygon fill="#63b8ff" stroke="#63b8ff" points="189.51,-440.95 199.95,-442.77 192.92,-434.84 189.51,-440.95"/>
</a>
</g>
</g>
<!-- Node32&#45;&gt;Node13 -->
<g id="edge42_Node000032_Node000013" class="edge">
<title>Node32&#45;&gt;Node13</title>
<g id="a_edge42_Node000032_Node000013"><a xlink:title=" ">
<path fill="none" stroke="#63b8ff" d="M127.33,-387.8C140.05,-372.91 165.71,-344.19 191,-323.62 191.65,-323.1 192.31,-322.58 192.98,-322.06"/>
<polygon fill="#63b8ff" stroke="#63b8ff" points="194.7,-325.13 200.88,-316.53 190.68,-319.4 194.7,-325.13"/>
</a>
</g>
</g>
<!-- Node33 -->
<g id="Node000033" class="node">
<title>Node33</title>
<g id="a_Node000033"><a xlink:href="group___noah_m_p___l_s_m_gaefd89a05ffdebdf90a566066a5704afb.html#gaefd89a05ffdebdf90a566066a5704afb" target="_top" xlink:title="calculate canopy resistance which depends on incoming solar radiation, air temperature,...">
<polygon fill="white" stroke="#666666" points="243,-389.25 197.75,-389.25 197.75,-370 243,-370 243,-389.25"/>
<text xml:space="preserve" text-anchor="middle" x="220.38" y="-375.75" font-family="Source Sans Pro" font-size="10.00">canres</text>
</a>
</g>
</g>
<!-- Node32&#45;&gt;Node33 -->
<g id="edge33_Node000032_Node000033" class="edge">
<title>Node32&#45;&gt;Node33</title>
<g id="a_edge33_Node000032_Node000033"><a xlink:title=" ">
<path fill="none" stroke="#63b8ff" d="M147.58,-392.52C159.73,-390.33 173.97,-387.78 186.56,-385.52"/>
<polygon fill="#63b8ff" stroke="#63b8ff" points="186.83,-389.03 196.05,-383.81 185.59,-382.14 186.83,-389.03"/>
</a>
</g>
</g>
<!-- Node35 -->
<g id="Node000035" class="node">
<title>Node35</title>
<g id="a_Node000035"><a xlink:href="group___noah_m_p___l_s_m_gacbfc8b3400751a5ca499cdb11faf7444.html#gacbfc8b3400751a5ca499cdb11faf7444" target="_top" xlink:title="compute under&#45;canopy aerodynamic resistance rag and leaf boundary layer resistance rb.">
<polygon fill="white" stroke="#666666" points="239.25,-352.25 201.5,-352.25 201.5,-333 239.25,-333 239.25,-352.25"/>
<text xml:space="preserve" text-anchor="middle" x="220.38" y="-338.75" font-family="Source Sans Pro" font-size="10.00">ragrb</text>
</a>
</g>
</g>
<!-- Node32&#45;&gt;Node35 -->
<g id="edge36_Node000032_Node000035" class="edge">
<title>Node32&#45;&gt;Node35</title>
<g id="a_edge36_Node000032_Node000035"><a xlink:title=" ">
<path fill="none" stroke="#63b8ff" d="M137.51,-387.54C152.49,-379.32 173.9,-367.58 191.06,-358.16"/>
<polygon fill="#63b8ff" stroke="#63b8ff" points="192.69,-361.26 199.78,-353.38 189.33,-355.12 192.69,-361.26"/>
</a>
</g>
</g>
<!-- Node36 -->
<g id="Node000036" class="node">
<title>Node36</title>
<g id="a_Node000036"><a xlink:href="group___noah_m_p___l_s_m_gaeb7ee3e6405cb5d9bbec7126ee2e7772.html#gaeb7ee3e6405cb5d9bbec7126ee2e7772" target="_top" xlink:title=" ">
<polygon fill="white" stroke="#666666" points="246,-278.25 194.75,-278.25 194.75,-259 246,-259 246,-278.25"/>
<text xml:space="preserve" text-anchor="middle" x="220.38" y="-264.75" font-family="Source Sans Pro" font-size="10.00">stomata</text>
</a>
</g>
</g>
<!-- Node32&#45;&gt;Node36 -->
<g id="edge41_Node000032_Node000036" class="edge">
<title>Node32&#45;&gt;Node36</title>
<g id="a_edge41_Node000032_Node000036"><a xlink:title=" ">
<path fill="none" stroke="#63b8ff" d="M123.7,-387.73C133.63,-367.03 158.87,-318.46 191,-286.62 191.37,-286.26 191.75,-285.89 192.14,-285.53"/>
<polygon fill="#63b8ff" stroke="#63b8ff" points="194.15,-288.4 199.9,-279.5 189.86,-282.87 194.15,-288.4"/>
</a>
</g>
</g>
<!-- Node34 -->
<g id="Node000034" class="node">
<title>Node34</title>
<g id="a_Node000034"><a xlink:href="group___noah_m_p___l_s_m_gaa0c1d53715638ac0451a47dd559b22ae.html#gaa0c1d53715638ac0451a47dd559b22ae" target="_top" xlink:title=" ">
<polygon fill="white" stroke="#666666" points="356.12,-370.25 308.62,-370.25 308.62,-351 356.12,-351 356.12,-370.25"/>
<text xml:space="preserve" text-anchor="middle" x="332.38" y="-356.75" font-family="Source Sans Pro" font-size="10.00">calhum</text>
</a>
</g>
</g>
<!-- Node33&#45;&gt;Node34 -->
<g id="edge34_Node000033_Node000034" class="edge">
<title>Node33&#45;&gt;Node34</title>
<g id="a_edge34_Node000033_Node000034"><a xlink:title=" ">
<path fill="none" stroke="#63b8ff" d="M243.37,-375.83C258.73,-373.17 279.53,-369.58 297.05,-366.55"/>
<polygon fill="#63b8ff" stroke="#63b8ff" points="297.53,-370.02 306.79,-364.87 296.34,-363.13 297.53,-370.02"/>
</a>
</g>
</g>
</g>
</svg>
