<?xml version="1.0" encoding="UTF-8" standalone="no"?>
<!DOCTYPE svg PUBLIC "-//W3C//DTD SVG 1.1//EN"
 "http://www.w3.org/Graphics/SVG/1.1/DTD/svg11.dtd">
<!-- Generated by graphviz version 14.1.2 (20260124.0452)
 -->
<!-- Title: module_mp_nssl_2mom::delbk Pages: 1 -->
<svg width="596pt" height="88pt"
 viewBox="0.00 0.00 596.00 88.00" xmlns="http://www.w3.org/2000/svg" xmlns:xlink="http://www.w3.org/1999/xlink">
<g id="graph0" class="graph" transform="scale(1 1) rotate(0) translate(4 83.5)">
<title>module_mp_nssl_2mom::delbk</title>
<!-- Node1 -->
<g id="Node000001" class="node">
<title>Node1</title>
<g id="a_Node000001"><a xlink:title="Function calculates collection coefficients following Siefert (2006).">
<polygon fill="#999999" stroke="#666666" points="587.5,-54.5 465.75,-54.5 465.75,-24 587.5,-24 587.5,-54.5"/>
<text xml:space="preserve" text-anchor="start" x="473.75" y="-41" font-family="Source Sans Pro" font-size="10.00">module_mp_nssl_2mom</text>
<text xml:space="preserve" text-anchor="middle" x="526.62" y="-29.75" font-family="Source Sans Pro" font-size="10.00">::delbk</text>
</a>
</g>
</g>
<!-- Node1&#45;&gt;Node1 -->
<g id="edge1_Node000001_Node000001" class="edge">
<title>Node1&#45;&gt;Node1</title>
<g id="a_edge1_Node000001_Node000001"><a xlink:title=" ">
<path fill="none" stroke="#63b8ff" d="M553.08,-66.2C548.75,-69.97 539.94,-72.5 526.62,-72.5 502.28,-72.5 492.97,-64.06 498.67,-54.99"/>
<polygon fill="#63b8ff" stroke="#63b8ff" points="556.52,-66.86 554.38,-56.49 549.58,-65.93 556.52,-66.86"/>
</a>
</g>
</g>
<!-- Node2 -->
<g id="Node000002" class="node">
<title>Node2</title>
<g id="a_Node000002"><a xlink:href="group__mod__nsslmp_ga5c0f9300bf6b78c4b9d5390e53e45b67.html#ga5c0f9300bf6b78c4b9d5390e53e45b67" target="_top" xlink:title="Main microphysical processes routine.">
<polygon fill="white" stroke="#666666" points="429.75,-79.5 308,-79.5 308,-49 429.75,-49 429.75,-79.5"/>
<text xml:space="preserve" text-anchor="start" x="316" y="-66" font-family="Source Sans Pro" font-size="10.00">module_mp_nssl_2mom</text>
<text xml:space="preserve" text-anchor="middle" x="368.88" y="-54.75" font-family="Source Sans Pro" font-size="10.00">::nssl_2mom_gs</text>
</a>
</g>
</g>
<!-- Node1&#45;&gt;Node2 -->
<g id="edge2_Node000001_Node000002" class="edge">
<title>Node1&#45;&gt;Node2</title>
<g id="a_edge2_Node000001_Node000002"><a xlink:title=" ">
<path fill="none" stroke="#63b8ff" d="M454.17,-50.72C446.15,-52.01 438.05,-53.31 430.19,-54.57"/>
<polygon fill="#63b8ff" stroke="#63b8ff" points="454.59,-54.2 463.91,-49.16 453.49,-47.28 454.59,-54.2"/>
</a>
</g>
</g>
<!-- Node5 -->
<g id="Node000005" class="node">
<title>Node5</title>
<g id="a_Node000005"><a xlink:href="group__mod__nsslmp_gaa9669dfecb88fa29ceefb152f3a24b9e.html#gaa9669dfecb88fa29ceefb152f3a24b9e" target="_top" xlink:title="NSSL MP setup routine (sets local options and array indices).">
<polygon fill="white" stroke="#666666" points="429.75,-30.5 308,-30.5 308,0 429.75,0 429.75,-30.5"/>
<text xml:space="preserve" text-anchor="start" x="316" y="-17" font-family="Source Sans Pro" font-size="10.00">module_mp_nssl_2mom</text>
<text xml:space="preserve" text-anchor="middle" x="368.88" y="-5.75" font-family="Source Sans Pro" font-size="10.00">::nssl_2mom_init</text>
</a>
</g>
</g>
<!-- Node1&#45;&gt;Node5 -->
<g id="edge5_Node000001_Node000005" class="edge">
<title>Node1&#45;&gt;Node5</title>
<g id="a_edge5_Node000001_Node000005"><a xlink:title=" ">
<path fill="none" stroke="#63b8ff" d="M454.17,-28.24C446.15,-27 438.05,-25.75 430.19,-24.54"/>
<polygon fill="#63b8ff" stroke="#63b8ff" points="453.5,-31.68 463.91,-29.74 454.56,-24.76 453.5,-31.68"/>
</a>
</g>
</g>
<!-- Node3 -->
<g id="Node000003" class="node">
<title>Node3</title>
<g id="a_Node000003"><a xlink:href="group__mod__nsslmp_gaf719f942556bb1676739cbdff304e714.html#gaf719f942556bb1676739cbdff304e714" target="_top" xlink:title="Driver subroutine that copies state data to local 2D arrays for microphysics calls.">
<polygon fill="white" stroke="#666666" points="272,-79.5 150.25,-79.5 150.25,-49 272,-49 272,-79.5"/>
<text xml:space="preserve" text-anchor="start" x="158.25" y="-66" font-family="Source Sans Pro" font-size="10.00">module_mp_nssl_2mom</text>
<text xml:space="preserve" text-anchor="middle" x="211.12" y="-54.75" font-family="Source Sans Pro" font-size="10.00">::nssl_2mom_driver</text>
</a>
</g>
</g>
<!-- Node2&#45;&gt;Node3 -->
<g id="edge3_Node000002_Node000003" class="edge">
<title>Node2&#45;&gt;Node3</title>
<g id="a_edge3_Node000002_Node000003"><a xlink:title=" ">
<path fill="none" stroke="#63b8ff" d="M296.42,-64.25C288.4,-64.25 280.3,-64.25 272.44,-64.25"/>
<polygon fill="#63b8ff" stroke="#63b8ff" points="296.14,-67.75 306.14,-64.25 296.14,-60.75 296.14,-67.75"/>
</a>
</g>
</g>
<!-- Node4 -->
<g id="Node000004" class="node">
<title>Node4</title>
<g id="a_Node000004"><a xlink:href="group__nsslmp_gab213e8268947d3497e02437e7634b614.html#gab213e8268947d3497e02437e7634b614" target="_top" xlink:title=" ">
<polygon fill="white" stroke="#666666" points="114.25,-73.88 0,-73.88 0,-54.62 114.25,-54.62 114.25,-73.88"/>
<text xml:space="preserve" text-anchor="middle" x="57.13" y="-60.38" font-family="Source Sans Pro" font-size="10.00">mp_nssl::mp_nssl_run</text>
</a>
</g>
</g>
<!-- Node3&#45;&gt;Node4 -->
<g id="edge4_Node000003_Node000004" class="edge">
<title>Node3&#45;&gt;Node4</title>
<g id="a_edge4_Node000003_Node000004"><a xlink:title=" ">
<path fill="none" stroke="#63b8ff" d="M138.6,-64.25C130.44,-64.25 122.22,-64.25 114.3,-64.25"/>
<polygon fill="#63b8ff" stroke="#63b8ff" points="138.54,-67.75 148.54,-64.25 138.54,-60.75 138.54,-67.75"/>
</a>
</g>
</g>
<!-- Node6 -->
<g id="Node000006" class="node">
<title>Node6</title>
<g id="a_Node000006"><a xlink:href="group__nsslmp_ga5b91dc9cad0a4fb77651aeeaacc40854.html#ga5b91dc9cad0a4fb77651aeeaacc40854" target="_top" xlink:title="This subroutine is a wrapper around the nssl_2mom_init().">
<polygon fill="white" stroke="#666666" points="267.88,-24.88 154.38,-24.88 154.38,-5.63 267.88,-5.63 267.88,-24.88"/>
<text xml:space="preserve" text-anchor="middle" x="211.12" y="-11.38" font-family="Source Sans Pro" font-size="10.00">mp_nssl::mp_nssl_init</text>
</a>
</g>
</g>
<!-- Node5&#45;&gt;Node6 -->
<g id="edge6_Node000005_Node000006" class="edge">
<title>Node5&#45;&gt;Node6</title>
<g id="a_edge6_Node000005_Node000006"><a xlink:title=" ">
<path fill="none" stroke="#63b8ff" d="M296.31,-15.25C286.93,-15.25 277.43,-15.25 268.35,-15.25"/>
<polygon fill="#63b8ff" stroke="#63b8ff" points="296.14,-18.75 306.14,-15.25 296.14,-11.75 296.14,-18.75"/>
</a>
</g>
</g>
</g>
</svg>
