<?xml version="1.0" encoding="UTF-8" standalone="no"?>
<!DOCTYPE svg PUBLIC "-//W3C//DTD SVG 1.1//EN"
 "http://www.w3.org/Graphics/SVG/1.1/DTD/svg11.dtd">
<!-- Generated by graphviz version 14.1.2 (20260124.0452)
 -->
<!-- Title: sfc_diag::sfc_diag_run Pages: 1 -->
<svg width="501pt" height="175pt"
 viewBox="0.00 0.00 501.00 175.00" xmlns="http://www.w3.org/2000/svg" xmlns:xlink="http://www.w3.org/1999/xlink">
<g id="graph0" class="graph" transform="scale(1 1) rotate(0) translate(4 171.25)">
<title>sfc_diag::sfc_diag_run</title>
<!-- Node1 -->
<g id="Node000001" class="node">
<title>Node1</title>
<g id="a_Node000001"><a xlink:title=" ">
<polygon fill="#999999" stroke="#666666" points="114.25,-56.25 0,-56.25 0,-37 114.25,-37 114.25,-56.25"/>
<text xml:space="preserve" text-anchor="middle" x="57.12" y="-42.75" font-family="Source Sans Pro" font-size="10.00">sfc_diag::sfc_diag_run</text>
</a>
</g>
</g>
<!-- Node2 -->
<g id="Node000002" class="node">
<title>Node2</title>
<g id="a_Node000002"><a xlink:href="group___noah___l_s_m_ga977daabf4ff68b28fc5ccd8796d815cd.html#ga977daabf4ff68b28fc5ccd8796d815cd" target="_top" xlink:title="This subroutine updates the temperature state of the soil column based on the thermal diffusion equat...">
<polygon fill="white" stroke="#666666" points="187.25,-56.25 150.25,-56.25 150.25,-37 187.25,-37 187.25,-56.25"/>
<text xml:space="preserve" text-anchor="middle" x="168.75" y="-42.75" font-family="Source Sans Pro" font-size="10.00">shflx</text>
</a>
</g>
</g>
<!-- Node1&#45;&gt;Node2 -->
<g id="edge1_Node000001_Node000002" class="edge">
<title>Node1&#45;&gt;Node2</title>
<g id="a_edge1_Node000001_Node000002"><a xlink:title=" ">
<path fill="none" stroke="#63b8ff" d="M114.54,-46.62C122.84,-46.62 131.1,-46.62 138.54,-46.62"/>
<polygon fill="#63b8ff" stroke="#63b8ff" points="138.29,-50.13 148.29,-46.63 138.29,-43.13 138.29,-50.13"/>
</a>
</g>
</g>
<!-- Node3 -->
<g id="Node000003" class="node">
<title>Node3</title>
<g id="a_Node000003"><a xlink:href="group___noah___l_s_m_gabb602c2b09396e2f94c9556259f5bae4.html#gabb602c2b09396e2f94c9556259f5bae4" target="_top" xlink:title="This subroutine calculates the right hand side of the time tendency term of the soil thermal diffusio...">
<polygon fill="white" stroke="#666666" points="257.65,-93.25 228.85,-93.25 228.85,-74 257.65,-74 257.65,-93.25"/>
<text xml:space="preserve" text-anchor="middle" x="243.25" y="-79.75" font-family="Source Sans Pro" font-size="10.00">hrt</text>
</a>
</g>
</g>
<!-- Node2&#45;&gt;Node3 -->
<g id="edge2_Node000002_Node000003" class="edge">
<title>Node2&#45;&gt;Node3</title>
<g id="a_edge2_Node000002_Node000003"><a xlink:title=" ">
<path fill="none" stroke="#63b8ff" d="M187.67,-55.77C196.91,-60.49 208.3,-66.3 218.29,-71.4"/>
<polygon fill="#63b8ff" stroke="#63b8ff" points="216.55,-74.44 227.05,-75.87 219.73,-68.2 216.55,-74.44"/>
</a>
</g>
</g>
<!-- Node10 -->
<g id="Node000010" class="node">
<title>Node10</title>
<g id="a_Node000010"><a xlink:href="group___noah___l_s_m_ga32e89df3740f968f500900125ae9633d.html#ga32e89df3740f968f500900125ae9633d" target="_top" xlink:title="This subroutine calculates the right hand side of the time tendency term of the soil thermal diffusio...">
<polygon fill="white" stroke="#666666" points="263.25,-56.25 223.25,-56.25 223.25,-37 263.25,-37 263.25,-56.25"/>
<text xml:space="preserve" text-anchor="middle" x="243.25" y="-42.75" font-family="Source Sans Pro" font-size="10.00">hrtice</text>
</a>
</g>
</g>
<!-- Node2&#45;&gt;Node10 -->
<g id="edge9_Node000002_Node000010" class="edge">
<title>Node2&#45;&gt;Node10</title>
<g id="a_edge9_Node000002_Node000010"><a xlink:title=" ">
<path fill="none" stroke="#63b8ff" d="M187.67,-46.62C194.83,-46.62 203.28,-46.62 211.36,-46.62"/>
<polygon fill="#63b8ff" stroke="#63b8ff" points="211.24,-50.13 221.24,-46.63 211.24,-43.13 211.24,-50.13"/>
</a>
</g>
</g>
<!-- Node11 -->
<g id="Node000011" class="node">
<title>Node11</title>
<g id="a_Node000011"><a xlink:href="group___noah___l_s_m_gacb79bab20ee25c57918575949c15de73.html#gacb79bab20ee25c57918575949c15de73" target="_top" xlink:title="This subroutine calculates/updates the soil temperature field.">
<polygon fill="white" stroke="#666666" points="263.25,-19.25 223.25,-19.25 223.25,0 263.25,0 263.25,-19.25"/>
<text xml:space="preserve" text-anchor="middle" x="243.25" y="-5.75" font-family="Source Sans Pro" font-size="10.00">hstep</text>
</a>
</g>
</g>
<!-- Node2&#45;&gt;Node11 -->
<g id="edge10_Node000002_Node000011" class="edge">
<title>Node2&#45;&gt;Node11</title>
<g id="a_edge10_Node000002_Node000011"><a xlink:title=" ">
<path fill="none" stroke="#63b8ff" d="M187.67,-37.48C195.24,-33.61 204.26,-29.01 212.77,-24.67"/>
<polygon fill="#63b8ff" stroke="#63b8ff" points="214.09,-27.93 221.41,-20.26 210.91,-21.69 214.09,-27.93"/>
</a>
</g>
</g>
<!-- Node4 -->
<g id="Node000004" class="node">
<title>Node4</title>
<g id="a_Node000004"><a xlink:href="group___noah___l_s_m_ga1b241897d00ec3d66eabe9e959d0ce04.html#ga1b241897d00ec3d66eabe9e959d0ce04" target="_top" xlink:title="This subroutine calculates sink/source term of the termal diffusion equation.">
<polygon fill="white" stroke="#666666" points="346,-167.25 300.75,-167.25 300.75,-148 346,-148 346,-167.25"/>
<text xml:space="preserve" text-anchor="middle" x="323.38" y="-153.75" font-family="Source Sans Pro" font-size="10.00">snksrc</text>
</a>
</g>
</g>
<!-- Node3&#45;&gt;Node4 -->
<g id="edge3_Node000003_Node000004" class="edge">
<title>Node3&#45;&gt;Node4</title>
<g id="a_edge3_Node000003_Node000004"><a xlink:title=" ">
<path fill="none" stroke="#63b8ff" d="M253.22,-93.53C263.81,-105.04 282.16,-124.39 299.25,-139.62 299.53,-139.88 299.82,-140.13 300.11,-140.39"/>
<polygon fill="#63b8ff" stroke="#63b8ff" points="297.81,-143.02 307.75,-146.68 302.26,-137.62 297.81,-143.02"/>
</a>
</g>
</g>
<!-- Node7 -->
<g id="Node000007" class="node">
<title>Node7</title>
<g id="a_Node000007"><a xlink:href="group___noah___l_s_m_ga8e248a6da8d1fd3c2e64b76f3bfbea50.html#ga8e248a6da8d1fd3c2e64b76f3bfbea50" target="_top" xlink:title="This subroutine calculates temperature on the boundary of the layer by interpolation of the middle la...">
<polygon fill="white" stroke="#666666" points="340.75,-130.25 306,-130.25 306,-111 340.75,-111 340.75,-130.25"/>
<text xml:space="preserve" text-anchor="middle" x="323.38" y="-116.75" font-family="Source Sans Pro" font-size="10.00">tbnd</text>
</a>
</g>
</g>
<!-- Node3&#45;&gt;Node7 -->
<g id="edge6_Node000003_Node000007" class="edge">
<title>Node3&#45;&gt;Node7</title>
<g id="a_edge6_Node000003_Node000007"><a xlink:title=" ">
<path fill="none" stroke="#63b8ff" d="M257.86,-90.07C268.24,-94.99 282.87,-101.92 295.58,-107.93"/>
<polygon fill="#63b8ff" stroke="#63b8ff" points="293.76,-110.95 304.3,-112.06 296.76,-104.62 293.76,-110.95"/>
</a>
</g>
</g>
<!-- Node8 -->
<g id="Node000008" class="node">
<title>Node8</title>
<g id="a_Node000008"><a xlink:href="group___noah___l_s_m_ga8bc3154096e6364c5fcddf884c003bef.html#ga8bc3154096e6364c5fcddf884c003bef" target="_top" xlink:title="This subroutine calculates thermal diffusivity and conductivity of the soil for a given point and tim...">
<polygon fill="white" stroke="#666666" points="344.88,-93.25 301.88,-93.25 301.88,-74 344.88,-74 344.88,-93.25"/>
<text xml:space="preserve" text-anchor="middle" x="323.38" y="-79.75" font-family="Source Sans Pro" font-size="10.00">tdfcnd</text>
</a>
</g>
</g>
<!-- Node3&#45;&gt;Node8 -->
<g id="edge7_Node000003_Node000008" class="edge">
<title>Node3&#45;&gt;Node8</title>
<g id="a_edge7_Node000003_Node000008"><a xlink:title=" ">
<path fill="none" stroke="#63b8ff" d="M257.86,-83.62C266.81,-83.62 278.93,-83.62 290.25,-83.62"/>
<polygon fill="#63b8ff" stroke="#63b8ff" points="290.07,-87.13 300.07,-83.63 290.07,-80.13 290.07,-87.13"/>
</a>
</g>
</g>
<!-- Node9 -->
<g id="Node000009" class="node">
<title>Node9</title>
<g id="a_Node000009"><a xlink:href="group___noah___l_s_m_gae50411efeb11ddeb8a0c53010745a95c.html#gae50411efeb11ddeb8a0c53010745a95c" target="_top" xlink:title="This subroutine calculates soil layer average temperature (tavg) in freezing/thawing layer using up,...">
<polygon fill="white" stroke="#666666" points="347.5,-56.25 299.25,-56.25 299.25,-37 347.5,-37 347.5,-56.25"/>
<text xml:space="preserve" text-anchor="middle" x="323.38" y="-42.75" font-family="Source Sans Pro" font-size="10.00">tmpavg</text>
</a>
</g>
</g>
<!-- Node3&#45;&gt;Node9 -->
<g id="edge8_Node000003_Node000009" class="edge">
<title>Node3&#45;&gt;Node9</title>
<g id="a_edge8_Node000003_Node000009"><a xlink:title=" ">
<path fill="none" stroke="#63b8ff" d="M257.86,-77.18C267.03,-72.84 279.52,-66.92 291.06,-61.45"/>
<polygon fill="#63b8ff" stroke="#63b8ff" points="292.37,-64.71 299.91,-57.26 289.37,-58.38 292.37,-64.71"/>
</a>
</g>
</g>
<!-- Node5 -->
<g id="Node000005" class="node">
<title>Node5</title>
<g id="a_Node000005"><a xlink:href="group___noah___l_s_m_ga7c0e713811400259a984b2153834e70c.html#ga7c0e713811400259a984b2153834e70c" target="_top" xlink:title="This subroutine calculates amount of supercooled liquid soil water content if temperature is below 27...">
<polygon fill="white" stroke="#666666" points="421.25,-167.25 383.5,-167.25 383.5,-148 421.25,-148 421.25,-167.25"/>
<text xml:space="preserve" text-anchor="middle" x="402.38" y="-153.75" font-family="Source Sans Pro" font-size="10.00">frh2o</text>
</a>
</g>
</g>
<!-- Node4&#45;&gt;Node5 -->
<g id="edge4_Node000004_Node000005" class="edge">
<title>Node4&#45;&gt;Node5</title>
<g id="a_edge4_Node000004_Node000005"><a xlink:title=" ">
<path fill="none" stroke="#63b8ff" d="M346.23,-157.62C354.15,-157.62 363.23,-157.62 371.71,-157.62"/>
<polygon fill="#63b8ff" stroke="#63b8ff" points="371.59,-161.13 381.59,-157.63 371.59,-154.13 371.59,-161.13"/>
</a>
</g>
</g>
<!-- Node6 -->
<g id="Node000006" class="node">
<title>Node6</title>
<g id="a_Node000006"><a xlink:href="group___noah_m_p___l_s_m_gace27cd3a7b4e23955e39e33bd344baae.html#gace27cd3a7b4e23955e39e33bd344baae" target="_top" xlink:title="check surface energy balance and water balance.">
<polygon fill="white" stroke="#666666" points="492.75,-167.25 457.25,-167.25 457.25,-148 492.75,-148 492.75,-167.25"/>
<text xml:space="preserve" text-anchor="middle" x="475" y="-153.75" font-family="Source Sans Pro" font-size="10.00">error</text>
</a>
</g>
</g>
<!-- Node5&#45;&gt;Node6 -->
<g id="edge5_Node000005_Node000006" class="edge">
<title>Node5&#45;&gt;Node6</title>
<g id="a_edge5_Node000005_Node000006"><a xlink:title=" ">
<path fill="none" stroke="#63b8ff" d="M421.56,-157.62C428.92,-157.62 437.59,-157.62 445.74,-157.62"/>
<polygon fill="#63b8ff" stroke="#63b8ff" points="445.57,-161.13 455.57,-157.63 445.57,-154.13 445.57,-161.13"/>
</a>
</g>
</g>
<!-- Node12 -->
<g id="Node000012" class="node">
<title>Node12</title>
<g id="a_Node000012"><a xlink:href="group___noah___l_s_m_ga3d7dabe1147278de865aa4691d5b2de0.html#ga3d7dabe1147278de865aa4691d5b2de0" target="_top" xlink:title="This subroutine inverts (solve) the tri&#45;diagonal matrix problem.">
<polygon fill="white" stroke="#666666" points="344.88,-19.25 301.88,-19.25 301.88,0 344.88,0 344.88,-19.25"/>
<text xml:space="preserve" text-anchor="middle" x="323.38" y="-5.75" font-family="Source Sans Pro" font-size="10.00">rosr12</text>
</a>
</g>
</g>
<!-- Node11&#45;&gt;Node12 -->
<g id="edge11_Node000011_Node000012" class="edge">
<title>Node11&#45;&gt;Node12</title>
<g id="a_edge11_Node000011_Node000012"><a xlink:title=" ">
<path fill="none" stroke="#63b8ff" d="M263.56,-9.62C271.6,-9.62 281.16,-9.62 290.21,-9.62"/>
<polygon fill="#63b8ff" stroke="#63b8ff" points="290.13,-13.13 300.13,-9.63 290.13,-6.13 290.13,-13.13"/>
</a>
</g>
</g>
</g>
</svg>
