<?xml version="1.0" encoding="UTF-8" standalone="no"?>
<!DOCTYPE svg PUBLIC "-//W3C//DTD SVG 1.1//EN"
 "http://www.w3.org/Graphics/SVG/1.1/DTD/svg11.dtd">
<!-- Generated by graphviz version 14.1.2 (20260124.0452)
 -->
<!-- Title: module_sf_mynn::zolri Pages: 1 -->
<svg width="259pt" height="51pt"
 viewBox="0.00 0.00 259.00 51.00" xmlns="http://www.w3.org/2000/svg" xmlns:xlink="http://www.w3.org/1999/xlink">
<g id="graph0" class="graph" transform="scale(1 1) rotate(0) translate(4 46.88)">
<title>module_sf_mynn::zolri</title>
<!-- Node1 -->
<g id="Node000001" class="node">
<title>Node1</title>
<g id="a_Node000001"><a xlink:title=" ">
<polygon fill="#999999" stroke="#666666" points="114.25,-24.88 0,-24.88 0,-5.63 114.25,-5.63 114.25,-24.88"/>
<text xml:space="preserve" text-anchor="middle" x="57.12" y="-11.38" font-family="Source Sans Pro" font-size="10.00">module_sf_mynn::zolri</text>
</a>
</g>
</g>
<!-- Node1&#45;&gt;Node1 -->
<g id="edge2_Node000001_Node000001" class="edge">
<title>Node1&#45;&gt;Node1</title>
<g id="a_edge2_Node000001_Node000001"><a xlink:title=" ">
<path fill="none" stroke="#63b8ff" d="M34.66,-25.16C24.41,-33.77 31.9,-42.88 57.12,-42.88 70.92,-42.88 79.41,-40.15 82.6,-36.28"/>
<polygon fill="#63b8ff" stroke="#63b8ff" points="85.97,-35.36 79.99,-26.62 79.22,-37.19 85.97,-35.36"/>
</a>
</g>
</g>
<!-- Node2 -->
<g id="Node000002" class="node">
<title>Node2</title>
<g id="a_Node000002"><a xlink:href="group__mynn__sfc_ga313671969a16aee828efb31d353b213c.html#ga313671969a16aee828efb31d353b213c" target="_top" xlink:title="This subroutine returns a more robust z/L that best matches the z/L from Hogstrom (1996) for unstable...">
<polygon fill="white" stroke="#666666" points="251,-30.5 150.25,-30.5 150.25,0 251,0 251,-30.5"/>
<text xml:space="preserve" text-anchor="start" x="158.25" y="-17" font-family="Source Sans Pro" font-size="10.00">module_sf_mynn::li</text>
<text xml:space="preserve" text-anchor="middle" x="200.62" y="-5.75" font-family="Source Sans Pro" font-size="10.00">_etal_2010</text>
</a>
</g>
</g>
<!-- Node1&#45;&gt;Node2 -->
<g id="edge1_Node000001_Node000002" class="edge">
<title>Node1&#45;&gt;Node2</title>
<g id="a_edge1_Node000001_Node000002"><a xlink:title=" ">
<path fill="none" stroke="#63b8ff" d="M114.46,-15.25C122.33,-15.25 130.45,-15.25 138.4,-15.25"/>
<polygon fill="#63b8ff" stroke="#63b8ff" points="138.38,-18.75 148.38,-15.25 138.38,-11.75 138.38,-18.75"/>
</a>
</g>
</g>
</g>
</svg>
