<?xml version="1.0" encoding="UTF-8" standalone="no"?>
<!DOCTYPE svg PUBLIC "-//W3C//DTD SVG 1.1//EN"
 "http://www.w3.org/Graphics/SVG/1.1/DTD/svg11.dtd">
<!-- Generated by graphviz version 14.1.2 (20260124.0452)
 -->
<!-- Title: srt Pages: 1 -->
<!--zoomable 258 -->

<svg id="main" version="1.1" xmlns="http://www.w3.org/2000/svg" xmlns:xlink="http://www.w3.org/1999/xlink" xml:space="preserve" onload="init(evt)">

<style type="text/css"><![CDATA[
.node, .edge {opacity: 0.7;}
.node.selected, .edge.selected {opacity: 1;}
.edge:hover path { stroke: red; }
.edge:hover polygon { stroke: red; fill: red; }
]]></style>

<defs>
  <circle id="rim" cx="0" cy="0" r="7"/>
  <circle id="rim2" cx="0" cy="0" r="3.5"/>
  <g id="zoomPlus">
    <use xlink:href="#rim" fill="#404040"><set attributeName="fill" to="#808080" begin="zoomplus.mouseover" end="zoomplus.mouseout"/></use>
    <path d="M-4,0h8M0,-4v8" fill="none" stroke="white" stroke-width="1.5" pointer-events="none"/>
  </g>
  <g id="zoomMin">
    <use xlink:href="#rim" fill="#404040"><set attributeName="fill" to="#808080" begin="zoomminus.mouseover" end="zoomminus.mouseout"/></use>
    <path d="M-4,0h8" fill="none" stroke="white" stroke-width="1.5" pointer-events="none"/>
  </g>
  <g id="arrowUp" transform="translate(30 24)">
    <use xlink:href="#rim"/>
    <path pointer-events="none" fill="none" stroke="white" stroke-width="1.5" d="M0,-3.0v7 M-2.5,-0.5L0,-3.0L2.5,-0.5"/>
  </g>
  <g id="arrowRight" transform="rotate(90) translate(36 -43)">
    <use xlink:href="#rim"/>
    <path pointer-events="none" fill="none" stroke="white" stroke-width="1.5" d="M0,-3.0v7 M-2.5,-0.5L0,-3.0L2.5,-0.5"/>
  </g>
  <g id="arrowDown" transform="rotate(180) translate(-30 -48)">
    <use xlink:href="#rim"/>
    <path pointer-events="none" fill="none" stroke="white" stroke-width="1.5" d="M0,-3.0v7 M-2.5,-0.5L0,-3.0L2.5,-0.5"/>
  </g>
  <g id="arrowLeft" transform="rotate(270) translate(-36 17)">
    <use xlink:href="#rim"/>
    <path pointer-events="none" fill="none" stroke="white" stroke-width="1.5" d="M0,-3.0v7 M-2.5,-0.5L0,-3.0L2.5,-0.5"/>
  </g>
  <g id="resetDef">
    <use xlink:href="#rim2" fill="#404040"><set attributeName="fill" to="#808080" begin="reset.mouseover" end="reset.mouseout"/></use>
  </g>
</defs>
<script type="application/ecmascript">
var viewWidth = 516;
var viewHeight = 258;
var sectionId = 'dynsection-1';
</script>
<script type="application/ecmascript" xlink:href="svg.min.js"/>
<svg id="graph" class="graph">
<g id="viewport">
<title>srt</title>
<!-- Node1 -->
<g id="Node000001" class="node">
<title>Node1</title>
<g id="a_Node000001"><a xlink:title="calculate the right hand side of the time tendency term of the soil water diffusion equation....">
<polygon fill="#999999" stroke="#666666" points="508.3,-114.25 479.5,-114.25 479.5,-95 508.3,-95 508.3,-114.25"/>
<text xml:space="preserve" text-anchor="middle" x="493.9" y="-100.75" font-family="Source Sans Pro" font-size="10.00">srt</text>
</a>
</g>
</g>
<!-- Node2 -->
<g id="Node000002" class="node">
<title>Node2</title>
<g id="a_Node000002"><a xlink:href="group___noah_m_p___l_s_m_gadca44347d78a09297195f41298a47f8d.html#gadca44347d78a09297195f41298a47f8d" target="_top" xlink:title="calculate surface runoff and soil moisture.">
<polygon fill="white" stroke="#666666" points="443.5,-114.25 388.5,-114.25 388.5,-95 443.5,-95 443.5,-114.25"/>
<text xml:space="preserve" text-anchor="middle" x="416" y="-100.75" font-family="Source Sans Pro" font-size="10.00">soilwater</text>
</a>
</g>
</g>
<!-- Node1&#45;&gt;Node2 -->
<g id="edge1_Node000001_Node000002" class="edge">
<title>Node1&#45;&gt;Node2</title>
<g id="a_edge1_Node000001_Node000002"><a xlink:title=" ">
<path fill="none" stroke="#63b8ff" d="M467.82,-104.62C460.18,-104.62 451.74,-104.62 443.97,-104.62"/>
<polygon fill="#63b8ff" stroke="#63b8ff" points="467.82,-108.13 477.82,-104.63 467.82,-101.13 467.82,-108.13"/>
</a>
</g>
</g>
<!-- Node3 -->
<g id="Node000003" class="node">
<title>Node3</title>
<g id="a_Node000003"><a xlink:href="group___noah_m_p___l_s_m_ga2e84840f3ed90005f066340b388c03d6.html#ga2e84840f3ed90005f066340b388c03d6" target="_top" xlink:title="compute water budgets (water storages, et components, and runoff)">
<polygon fill="white" stroke="#666666" points="352.5,-114.25 312.5,-114.25 312.5,-95 352.5,-95 352.5,-114.25"/>
<text xml:space="preserve" text-anchor="middle" x="332.5" y="-100.75" font-family="Source Sans Pro" font-size="10.00">water</text>
</a>
</g>
</g>
<!-- Node2&#45;&gt;Node3 -->
<g id="edge2_Node000002_Node000003" class="edge">
<title>Node2&#45;&gt;Node3</title>
<g id="a_edge2_Node000002_Node000003"><a xlink:title=" ">
<path fill="none" stroke="#63b8ff" d="M377.06,-104.62C368.64,-104.62 360.05,-104.62 352.75,-104.62"/>
<polygon fill="#63b8ff" stroke="#63b8ff" points="376.8,-108.13 386.8,-104.63 376.8,-101.13 376.8,-108.13"/>
</a>
</g>
</g>
<!-- Node4 -->
<g id="Node000004" class="node">
<title>Node4</title>
<g id="a_Node000004"><a xlink:href="namespacegfdl__cloud__microphys__v3__mod_abff24ebeedbc1d30f155bfdf0b5b223d.html#abff24ebeedbc1d30f155bfdf0b5b223d" target="_top" xlink:title=" ">
<polygon fill="white" stroke="#666666" points="253.25,-249.88 142,-249.88 142,-219.38 253.25,-219.38 253.25,-249.88"/>
<text xml:space="preserve" text-anchor="start" x="150" y="-236.38" font-family="Source Sans Pro" font-size="10.00">gfdl_cloud_microphys</text>
<text xml:space="preserve" text-anchor="middle" x="197.62" y="-225.12" font-family="Source Sans Pro" font-size="10.00">_v3_mod::cld_sat_adj</text>
</a>
</g>
</g>
<!-- Node3&#45;&gt;Node4 -->
<g id="edge3_Node000003_Node000004" class="edge">
<title>Node3&#45;&gt;Node4</title>
<g id="a_edge3_Node000003_Node000004"><a xlink:title=" ">
<path fill="none" stroke="#63b8ff" d="M326.03,-125.42C318.68,-149.35 303.34,-188.22 276.5,-210.62 269.77,-216.25 261.73,-220.55 253.41,-223.85"/>
<polygon fill="#63b8ff" stroke="#63b8ff" points="329.37,-126.46 328.75,-115.89 322.64,-124.54 329.37,-126.46"/>
</a>
</g>
</g>
<!-- Node5 -->
<g id="Node000005" class="node">
<title>Node5</title>
<g id="a_Node000005"><a xlink:href="namespacegfdl__cloud__microphys__v3__mod_a230685a7af97f93f58eec3bf7a7040ba.html#a230685a7af97f93f58eec3bf7a7040ba" target="_top" xlink:title=" ">
<polygon fill="white" stroke="#666666" points="275.75,-201.5 119.5,-201.5 119.5,-159.75 275.75,-159.75 275.75,-201.5"/>
<text xml:space="preserve" text-anchor="start" x="127.5" y="-188" font-family="Source Sans Pro" font-size="10.00">gfdl_cloud_microphys</text>
<text xml:space="preserve" text-anchor="start" x="127.5" y="-176.75" font-family="Source Sans Pro" font-size="10.00">_v3_mod::gfdl_cloud_microphys</text>
<text xml:space="preserve" text-anchor="middle" x="197.62" y="-165.5" font-family="Source Sans Pro" font-size="10.00">_v3_mod_driver</text>
</a>
</g>
</g>
<!-- Node3&#45;&gt;Node5 -->
<g id="edge4_Node000003_Node000005" class="edge">
<title>Node3&#45;&gt;Node5</title>
<g id="a_edge4_Node000003_Node000005"><a xlink:title=" ">
<path fill="none" stroke="#63b8ff" d="M313.64,-122.17C303.4,-131.53 289.94,-142.71 276.5,-150.62 271.26,-153.71 265.64,-156.59 259.91,-159.25"/>
<polygon fill="#63b8ff" stroke="#63b8ff" points="315.75,-124.98 320.63,-115.58 310.95,-119.89 315.75,-124.98"/>
</a>
</g>
</g>
<!-- Node6 -->
<g id="Node000006" class="node">
<title>Node6</title>
<g id="a_Node000006"><a xlink:href="namespacegfdl__cloud__microphys__v3__mod_a371473ee4ccb0ae7f6d47141012b4af5.html#a371473ee4ccb0ae7f6d47141012b4af5" target="_top" xlink:title=" ">
<polygon fill="white" stroke="#666666" points="252.88,-141.88 142.38,-141.88 142.38,-111.38 252.88,-111.38 252.88,-141.88"/>
<text xml:space="preserve" text-anchor="start" x="150.38" y="-128.38" font-family="Source Sans Pro" font-size="10.00">gfdl_cloud_microphys</text>
<text xml:space="preserve" text-anchor="middle" x="197.62" y="-117.12" font-family="Source Sans Pro" font-size="10.00">_v3_mod::mtetw</text>
</a>
</g>
</g>
<!-- Node3&#45;&gt;Node6 -->
<g id="edge5_Node000003_Node000006" class="edge">
<title>Node3&#45;&gt;Node6</title>
<g id="a_edge5_Node000003_Node000006"><a xlink:title=" ">
<path fill="none" stroke="#63b8ff" d="M301.1,-109.66C286.94,-112 269.63,-114.87 253.3,-117.57"/>
<polygon fill="#63b8ff" stroke="#63b8ff" points="301.39,-113.16 310.69,-108.07 300.25,-106.25 301.39,-113.16"/>
</a>
</g>
</g>
<!-- Node7 -->
<g id="Node000007" class="node">
<title>Node7</title>
<g id="a_Node000007"><a xlink:href="group___noah_m_p___l_s_m_gab480f7969dad27ce9e00e559f82c464e.html#gab480f7969dad27ce9e00e559f82c464e" target="_top" xlink:title=" ">
<polygon fill="white" stroke="#666666" points="233.38,-93.25 161.88,-93.25 161.88,-74 233.38,-74 233.38,-93.25"/>
<text xml:space="preserve" text-anchor="middle" x="197.62" y="-79.75" font-family="Source Sans Pro" font-size="10.00">noahmp_sflx</text>
</a>
</g>
</g>
<!-- Node3&#45;&gt;Node7 -->
<g id="edge6_Node000003_Node000007" class="edge">
<title>Node3&#45;&gt;Node7</title>
<g id="a_edge6_Node000003_Node000007"><a xlink:title=" ">
<path fill="none" stroke="#63b8ff" d="M300.89,-99.79C280.84,-96.62 254.59,-92.47 233.7,-89.17"/>
<polygon fill="#63b8ff" stroke="#63b8ff" points="300.26,-103.23 310.68,-101.34 301.35,-96.32 300.26,-103.23"/>
</a>
</g>
</g>
<!-- Node9 -->
<g id="Node000009" class="node">
<title>Node9</title>
<g id="a_Node000009"><a xlink:href="group___s_a_m_fdeep_ga5e834dec0932a16a98b7d90fd69a9c70.html#ga5e834dec0932a16a98b7d90fd69a9c70" target="_top" xlink:title=" ">
<polygon fill="white" stroke="#666666" points="276.5,-56.25 118.75,-56.25 118.75,-37 276.5,-37 276.5,-56.25"/>
<text xml:space="preserve" text-anchor="middle" x="197.62" y="-42.75" font-family="Source Sans Pro" font-size="10.00">samfdeepcnv::samfdeepcnv_run</text>
</a>
</g>
</g>
<!-- Node3&#45;&gt;Node9 -->
<g id="edge8_Node000003_Node000009" class="edge">
<title>Node3&#45;&gt;Node9</title>
<g id="a_edge8_Node000003_Node000009"><a xlink:title=" ">
<path fill="none" stroke="#63b8ff" d="M311.89,-87.37C301.9,-79.39 289.2,-70.42 276.5,-64.62 269.56,-61.46 262,-58.82 254.42,-56.63"/>
<polygon fill="#63b8ff" stroke="#63b8ff" points="309.46,-89.9 319.39,-93.61 313.94,-84.53 309.46,-89.9"/>
</a>
</g>
</g>
<!-- Node10 -->
<g id="Node000010" class="node">
<title>Node10</title>
<g id="a_Node000010"><a xlink:href="group___s_a_m_f__shal_gaf2534c328553470068a75a9aa56b7d56.html#gaf2534c328553470068a75a9aa56b7d56" target="_top" xlink:title=" ">
<polygon fill="white" stroke="#666666" points="273.5,-19.25 121.75,-19.25 121.75,0 273.5,0 273.5,-19.25"/>
<text xml:space="preserve" text-anchor="middle" x="197.62" y="-5.75" font-family="Source Sans Pro" font-size="10.00">samfshalcnv::samfshalcnv_run</text>
</a>
</g>
</g>
<!-- Node3&#45;&gt;Node10 -->
<g id="edge9_Node000003_Node000010" class="edge">
<title>Node3&#45;&gt;Node10</title>
<g id="a_edge9_Node000003_Node000010"><a xlink:title=" ">
<path fill="none" stroke="#63b8ff" d="M322.31,-84.43C313.19,-66.73 297.56,-41.69 276.5,-27.62 271.77,-24.47 266.56,-21.86 261.14,-19.7"/>
<polygon fill="#63b8ff" stroke="#63b8ff" points="319.06,-85.75 326.57,-93.22 325.35,-82.69 319.06,-85.75"/>
</a>
</g>
</g>
<!-- Node8 -->
<g id="Node000008" class="node">
<title>Node8</title>
<g id="a_Node000008"><a xlink:href="group___noah_m_p___l_s_m_ga0e44f72a92d8830344fecdb9fb65e6fb.html#ga0e44f72a92d8830344fecdb9fb65e6fb" target="_top" xlink:title="This subroutine is the main CCPP entry point for the NoahMP LSM.">
<polygon fill="white" stroke="#666666" points="82.75,-93.25 0,-93.25 0,-74 82.75,-74 82.75,-93.25"/>
<text xml:space="preserve" text-anchor="middle" x="41.38" y="-79.75" font-family="Source Sans Pro" font-size="10.00">noahmpdrv_run</text>
</a>
</g>
</g>
<!-- Node7&#45;&gt;Node8 -->
<g id="edge7_Node000007_Node000008" class="edge">
<title>Node7&#45;&gt;Node8</title>
<g id="a_edge7_Node000007_Node000008"><a xlink:title=" ">
<path fill="none" stroke="#63b8ff" d="M150.22,-83.62C128.9,-83.62 103.84,-83.62 83.25,-83.62"/>
<polygon fill="#63b8ff" stroke="#63b8ff" points="150.11,-87.13 160.11,-83.63 150.11,-80.13 150.11,-87.13"/>
</a>
</g>
</g>
</g>
</svg>

<g id="navigator" transform="translate(0 0)" fill="#404254">
  <rect fill="#f2f5e9" fill-opacity="0.5" stroke="#606060" stroke-width=".5" x="0" y="0" width="60" height="60"/>
  <use id="zoomplus" xlink:href="#zoomPlus" x="17" y="9" onmousedown="handleZoom(evt,'in')"/>
  <use id="zoomminus" xlink:href="#zoomMin" x="42" y="9" onmousedown="handleZoom(evt,'out')"/>
  <use id="reset" xlink:href="#resetDef" x="30" y="36" onmousedown="handleReset()"/>
   <use id="arrowup" xlink:href="#arrowUp" x="0" y="0" onmousedown="handlePan(0,-1)"/>
  <use id="arrowright" xlink:href="#arrowRight" x="0" y="0" onmousedown="handlePan(1,0)"/>
  <use id="arrowdown" xlink:href="#arrowDown" x="0" y="0" onmousedown="handlePan(0,1)"/>
  <use id="arrowleft" xlink:href="#arrowLeft" x="0" y="0" onmousedown="handlePan(-1,0)"/>
</g>
<svg viewBox="0 0 15 15" width="100%" height="30px" preserveAspectRatio="xMaxYMin meet">
 <g id="arrow_out" transform="scale(0.3 0.3)">
  <a xlink:href="group___noah_m_p___l_s_m_ga2825a3a5bbdeed71a7b6ea89ff9bce16_ga2825a3a5bbdeed71a7b6ea89ff9bce16_icgraph_org.svg" target="_base">
   <rect id="button" ry="5" rx="5" y="6" x="6" height="38" width="38"
        fill="#f2f5e9" fill-opacity="0.5" stroke="#606060" stroke-width="1.0"/>
   <path id="arrow"
     d="M 11.500037,31.436501 C 11.940474,20.09759 22.043105,11.32322 32.158766,21.979434 L 37.068811,17.246167 C 37.068811,17.246167 37.088388,32 37.088388,32 L 22.160133,31.978069 C 22.160133,31.978069 26.997745,27.140456 26.997745,27.140456 C 18.528582,18.264221 13.291696,25.230495 11.500037,31.436501 z"
     style="fill:#404040;"/>
  </a>
 </g>
</svg>

<style type='text/css'>
<![CDATA[
[data-mouse-over-selected='false'] { opacity: 0.7; }
[data-mouse-over-selected='true']  { opacity: 1.0; }
]]>
</style>
<script type="application/ecmascript"><![CDATA[
document.addEventListener('DOMContentLoaded', (event) => {
  highlightEdges();
  highlightAdjacentNodes();
});
]]></script>
</svg>
