<?xml version="1.0" encoding="UTF-8" standalone="no"?>
<!DOCTYPE svg PUBLIC "-//W3C//DTD SVG 1.1//EN"
 "http://www.w3.org/Graphics/SVG/1.1/DTD/svg11.dtd">
<!-- Generated by graphviz version 14.1.2 (20260124.0452)
 -->
<!-- Title: mersenne_twister::random_number Pages: 1 -->
<svg width="132pt" height="100pt"
 viewBox="0.00 0.00 132.00 100.00" xmlns="http://www.w3.org/2000/svg" xmlns:xlink="http://www.w3.org/1999/xlink">
<g id="graph0" class="graph" transform="scale(1 1) rotate(0) translate(4 95.5)">
<title>mersenne_twister::random_number</title>
<!-- Node1 -->
<g id="Node000001" class="node">
<title>Node1</title>
<g id="a_Node000001"><a xlink:title=" ">
<polygon fill="#999999" stroke="none" points="123.5,-91.5 0,-91.5 0,0 123.5,0 123.5,-91.5"/>
<text xml:space="preserve" text-anchor="start" x="4" y="-78" font-family="Source Sans Pro" font-size="10.00">mersenne_twister::random</text>
<text xml:space="preserve" text-anchor="start" x="43" y="-66.75" font-family="Source Sans Pro" font-size="10.00">_number</text>
<text xml:space="preserve" text-anchor="start" x="60.25" y="-51.5" font-family="Source Sans Pro" font-size="10.00"> </text>
<text xml:space="preserve" text-anchor="start" x="8.81" y="-36.25" font-family="Source Sans Pro" font-size="10.00">+</text>
<text xml:space="preserve" text-anchor="start" x="23.62" y="-36.25" font-family="Source Sans Pro" font-size="10.00">random_number_i()</text>
<text xml:space="preserve" text-anchor="start" x="8.81" y="-21" font-family="Source Sans Pro" font-size="10.00">+</text>
<text xml:space="preserve" text-anchor="start" x="23.62" y="-21" font-family="Source Sans Pro" font-size="10.00">random_number_s()</text>
<text xml:space="preserve" text-anchor="start" x="8.81" y="-5.75" font-family="Source Sans Pro" font-size="10.00">+</text>
<text xml:space="preserve" text-anchor="start" x="23.62" y="-5.75" font-family="Source Sans Pro" font-size="10.00">random_number_t()</text>
<polygon fill="#666666" stroke="#666666" points="0,-63 0,-63 123.5,-63 123.5,-63 0,-63"/>
<polygon fill="#666666" stroke="#666666" points="0,-47.75 0,-47.75 123.5,-47.75 123.5,-47.75 0,-47.75"/>
<polygon fill="none" stroke="#666666" points="0,0 0,-91.5 123.5,-91.5 123.5,0 0,0"/>
</a>
</g>
</g>
</g>
</svg>
