<?xml version="1.0" encoding="UTF-8" standalone="no"?>
<!DOCTYPE svg PUBLIC "-//W3C//DTD SVG 1.1//EN"
 "http://www.w3.org/Graphics/SVG/1.1/DTD/svg11.dtd">
<!-- Generated by graphviz version 14.1.2 (20260124.0452)
 -->
<!-- Title: gfdl_cloud_microphys::gfdl_cloud_microphys_run Pages: 1 -->
<svg width="1074pt" height="467pt"
 viewBox="0.00 0.00 1074.00 467.00" xmlns="http://www.w3.org/2000/svg" xmlns:xlink="http://www.w3.org/1999/xlink">
<g id="graph0" class="graph" transform="scale(1 1) rotate(0) translate(4 462.5)">
<title>gfdl_cloud_microphys::gfdl_cloud_microphys_run</title>
<!-- Node1 -->
<g id="Node000001" class="node">
<title>Node1</title>
<g id="a_Node000001"><a xlink:title=" ">
<polygon fill="#999999" stroke="#666666" points="135.25,-202.5 0,-202.5 0,-172 135.25,-172 135.25,-202.5"/>
<text xml:space="preserve" text-anchor="start" x="8" y="-189" font-family="Source Sans Pro" font-size="10.00">gfdl_cloud_microphys</text>
<text xml:space="preserve" text-anchor="middle" x="67.62" y="-177.75" font-family="Source Sans Pro" font-size="10.00">::gfdl_cloud_microphys_run</text>
</a>
</g>
</g>
<!-- Node2 -->
<g id="Node000002" class="node">
<title>Node2</title>
<g id="a_Node000002"><a xlink:href="group__mod__gfdl__cloud__mp_ga41eef6d7073ac6722450667b8394cf13.html#ga41eef6d7073ac6722450667b8394cf13" target="_top" xlink:title="The subroutine &#39;cloud_diagnosis&#39; diagnoses the radius of cloud species.">
<polygon fill="white" stroke="#666666" points="299.38,-229.5 183.62,-229.5 183.62,-199 299.38,-199 299.38,-229.5"/>
<text xml:space="preserve" text-anchor="start" x="191.62" y="-216" font-family="Source Sans Pro" font-size="10.00">gfdl_cloud_microphys</text>
<text xml:space="preserve" text-anchor="middle" x="241.5" y="-204.75" font-family="Source Sans Pro" font-size="10.00">_mod::cloud_diagnosis</text>
</a>
</g>
</g>
<!-- Node1&#45;&gt;Node2 -->
<g id="edge1_Node000001_Node000002" class="edge">
<title>Node1&#45;&gt;Node2</title>
<g id="a_edge1_Node000001_Node000002"><a xlink:title=" ">
<path fill="none" stroke="#63b8ff" d="M135.57,-197.77C147.5,-199.64 159.94,-201.59 171.91,-203.48"/>
<polygon fill="#63b8ff" stroke="#63b8ff" points="171.3,-206.92 181.72,-205.02 172.39,-200.01 171.3,-206.92"/>
</a>
</g>
</g>
<!-- Node3 -->
<g id="Node000003" class="node">
<title>Node3</title>
<g id="a_Node000003"><a xlink:href="group__mod__gfdl__cloud__mp_gab96ce7bbe8889ca0845652ef6df3ea14.html#gab96ce7bbe8889ca0845652ef6df3ea14" target="_top" xlink:title="This subroutine is the driver of the GFDL cloud microphysics.">
<polygon fill="white" stroke="#666666" points="311.75,-181.12 171.25,-181.12 171.25,-139.38 311.75,-139.38 311.75,-181.12"/>
<text xml:space="preserve" text-anchor="start" x="179.25" y="-167.62" font-family="Source Sans Pro" font-size="10.00">gfdl_cloud_microphys</text>
<text xml:space="preserve" text-anchor="start" x="179.25" y="-156.38" font-family="Source Sans Pro" font-size="10.00">_mod::gfdl_cloud_microphys</text>
<text xml:space="preserve" text-anchor="middle" x="241.5" y="-145.12" font-family="Source Sans Pro" font-size="10.00">_mod_driver</text>
</a>
</g>
</g>
<!-- Node1&#45;&gt;Node3 -->
<g id="edge2_Node000001_Node000003" class="edge">
<title>Node1&#45;&gt;Node3</title>
<g id="a_edge2_Node000001_Node000003"><a xlink:title=" ">
<path fill="none" stroke="#63b8ff" d="M135.57,-176.73C143.45,-175.5 151.55,-174.22 159.6,-172.96"/>
<polygon fill="#63b8ff" stroke="#63b8ff" points="160.07,-176.43 169.41,-171.42 158.99,-169.51 160.07,-176.43"/>
</a>
</g>
</g>
<!-- Node4 -->
<g id="Node000004" class="node">
<title>Node4</title>
<g id="a_Node000004"><a xlink:href="group__mod__gfdl__cloud__mp_ga9a157f35f4472577a555978027d97c65.html#ga9a157f35f4472577a555978027d97c65" target="_top" xlink:title="GFDL cloud microphysics, major program, and is based on Lin et al.(1983) lin_et_al_1983 and Rutledge ...">
<polygon fill="white" stroke="#666666" points="458.25,-200.5 347.75,-200.5 347.75,-170 458.25,-170 458.25,-200.5"/>
<text xml:space="preserve" text-anchor="start" x="355.75" y="-187" font-family="Source Sans Pro" font-size="10.00">gfdl_cloud_microphys</text>
<text xml:space="preserve" text-anchor="middle" x="403" y="-175.75" font-family="Source Sans Pro" font-size="10.00">_mod::mpdrv</text>
</a>
</g>
</g>
<!-- Node3&#45;&gt;Node4 -->
<g id="edge3_Node000003_Node000004" class="edge">
<title>Node3&#45;&gt;Node4</title>
<g id="a_edge3_Node000003_Node000004"><a xlink:title=" ">
<path fill="none" stroke="#63b8ff" d="M312,-171.14C320.1,-172.41 328.34,-173.71 336.39,-174.97"/>
<polygon fill="#63b8ff" stroke="#63b8ff" points="335.68,-178.4 346.11,-176.49 336.77,-171.48 335.68,-178.4"/>
</a>
</g>
</g>
<!-- Node22 -->
<g id="Node000022" class="node">
<title>Node22</title>
<g id="a_Node000022"><a xlink:href="group__mod__gfdl__cloud__mp_ga225a9c1fcb87a537acc267db323d1c11.html#ga225a9c1fcb87a537acc267db323d1c11" target="_top" xlink:title="This subroutine calculates radar reflectivity.">
<polygon fill="white" stroke="#666666" points="458.25,-151.5 347.75,-151.5 347.75,-121 458.25,-121 458.25,-151.5"/>
<text xml:space="preserve" text-anchor="start" x="355.75" y="-138" font-family="Source Sans Pro" font-size="10.00">gfdl_cloud_microphys</text>
<text xml:space="preserve" text-anchor="middle" x="403" y="-126.75" font-family="Source Sans Pro" font-size="10.00">_mod::refl10cm_gfdl</text>
</a>
</g>
</g>
<!-- Node3&#45;&gt;Node22 -->
<g id="edge29_Node000003_Node000022" class="edge">
<title>Node3&#45;&gt;Node22</title>
<g id="a_edge29_Node000003_Node000022"><a xlink:title=" ">
<path fill="none" stroke="#63b8ff" d="M312,-149.79C320.1,-148.57 328.34,-147.33 336.39,-146.12"/>
<polygon fill="#63b8ff" stroke="#63b8ff" points="336.74,-149.61 346.1,-144.66 335.69,-142.69 336.74,-149.61"/>
</a>
</g>
</g>
<!-- Node5 -->
<g id="Node000005" class="node">
<title>Node5</title>
<g id="a_Node000005"><a xlink:href="group__mod__gfdl__cloud__mp_ga6833974ce0d83438376d15e3dc710721.html#ga6833974ce0d83438376d15e3dc710721" target="_top" xlink:title="The subroutine calculates vertical fall speed of snow/ice/graupel.">
<polygon fill="white" stroke="#666666" points="604.75,-348.5 494.25,-348.5 494.25,-318 604.75,-318 604.75,-348.5"/>
<text xml:space="preserve" text-anchor="start" x="502.25" y="-335" font-family="Source Sans Pro" font-size="10.00">gfdl_cloud_microphys</text>
<text xml:space="preserve" text-anchor="middle" x="549.5" y="-323.75" font-family="Source Sans Pro" font-size="10.00">_mod::fall_speed</text>
</a>
</g>
</g>
<!-- Node4&#45;&gt;Node5 -->
<g id="edge4_Node000004_Node000005" class="edge">
<title>Node4&#45;&gt;Node5</title>
<g id="a_edge4_Node000004_Node000005"><a xlink:title=" ">
<path fill="none" stroke="#63b8ff" d="M411.99,-200.82C425.74,-226.28 456.09,-277.09 494.25,-308.25 495.71,-309.45 497.24,-310.6 498.82,-311.7"/>
<polygon fill="#63b8ff" stroke="#63b8ff" points="496.66,-314.48 507.01,-316.78 500.35,-308.54 496.66,-314.48"/>
</a>
</g>
</g>
<!-- Node6 -->
<g id="Node000006" class="node">
<title>Node6</title>
<g id="a_Node000006"><a xlink:href="group__mod__gfdl__cloud__mp_ga6d4a8494f1530ef44e39c61be5d819fe.html#ga6d4a8494f1530ef44e39c61be5d819fe" target="_top" xlink:title="This subroutine includes cloud ice microphysics processes.">
<polygon fill="white" stroke="#666666" points="604.75,-299.5 494.25,-299.5 494.25,-269 604.75,-269 604.75,-299.5"/>
<text xml:space="preserve" text-anchor="start" x="502.25" y="-286" font-family="Source Sans Pro" font-size="10.00">gfdl_cloud_microphys</text>
<text xml:space="preserve" text-anchor="middle" x="549.5" y="-274.75" font-family="Source Sans Pro" font-size="10.00">_mod::icloud</text>
</a>
</g>
</g>
<!-- Node4&#45;&gt;Node6 -->
<g id="edge5_Node000004_Node000006" class="edge">
<title>Node4&#45;&gt;Node6</title>
<g id="a_edge5_Node000004_Node000006"><a xlink:title=" ">
<path fill="none" stroke="#63b8ff" d="M426.9,-200.94C450.99,-217.45 489.12,-243.57 516.26,-262.16"/>
<polygon fill="#63b8ff" stroke="#63b8ff" points="514.23,-265.02 524.46,-267.78 518.19,-259.24 514.23,-265.02"/>
</a>
</g>
</g>
<!-- Node12 -->
<g id="Node000012" class="node">
<title>Node12</title>
<g id="a_Node000012"><a xlink:href="group__mod__gfdl__cloud__mp_ga95934cf5da8077b833820fa000e4b351.html#ga95934cf5da8077b833820fa000e4b351" target="_top" xlink:title="The subroutine &#39;neg_adj&#39; fixes negative water species.">
<polygon fill="white" stroke="#666666" points="604.75,-79.5 494.25,-79.5 494.25,-49 604.75,-49 604.75,-79.5"/>
<text xml:space="preserve" text-anchor="start" x="502.25" y="-66" font-family="Source Sans Pro" font-size="10.00">gfdl_cloud_microphys</text>
<text xml:space="preserve" text-anchor="middle" x="549.5" y="-54.75" font-family="Source Sans Pro" font-size="10.00">_mod::neg_adj</text>
</a>
</g>
</g>
<!-- Node4&#45;&gt;Node12 -->
<g id="edge14_Node000004_Node000012" class="edge">
<title>Node4&#45;&gt;Node12</title>
<g id="a_edge14_Node000004_Node000012"><a xlink:title=" ">
<path fill="none" stroke="#63b8ff" d="M445.87,-169.56C450.34,-166.87 454.59,-163.78 458.25,-160.25 483.73,-135.71 468.77,-113.79 494.25,-89.25 495.28,-88.26 496.36,-87.3 497.47,-86.38"/>
<polygon fill="#63b8ff" stroke="#63b8ff" points="499.22,-89.42 505.39,-80.81 495.2,-83.7 499.22,-89.42"/>
</a>
</g>
</g>
<!-- Node13 -->
<g id="Node000013" class="node">
<title>Node13</title>
<g id="a_Node000013"><a xlink:href="group__mod__gfdl__cloud__mp_gae04747b6ac095f189c2e9b92a93f2256.html#gae04747b6ac095f189c2e9b92a93f2256" target="_top" xlink:title="This subroutine calculates sedimentation of heat.">
<polygon fill="white" stroke="#666666" points="762.12,-226.5 651.62,-226.5 651.62,-196 762.12,-196 762.12,-226.5"/>
<text xml:space="preserve" text-anchor="start" x="659.62" y="-213" font-family="Source Sans Pro" font-size="10.00">gfdl_cloud_microphys</text>
<text xml:space="preserve" text-anchor="middle" x="706.88" y="-201.75" font-family="Source Sans Pro" font-size="10.00">_mod::sedi_heat</text>
</a>
</g>
</g>
<!-- Node4&#45;&gt;Node13 -->
<g id="edge15_Node000004_Node000013" class="edge">
<title>Node4&#45;&gt;Node13</title>
<g id="a_edge15_Node000004_Node000013"><a xlink:title=" ">
<path fill="none" stroke="#63b8ff" d="M458.67,-189.96C509.66,-194.35 585.83,-200.91 640.12,-205.59"/>
<polygon fill="#63b8ff" stroke="#63b8ff" points="639.59,-209.05 649.85,-206.42 640.19,-202.08 639.59,-209.05"/>
</a>
</g>
</g>
<!-- Node14 -->
<g id="Node000014" class="node">
<title>Node14</title>
<g id="a_Node000014"><a xlink:href="group__mod__gfdl__cloud__mp_ga79e5f6ea8f5040ab16033081b9a64cb7.html#ga79e5f6ea8f5040ab16033081b9a64cb7" target="_top" xlink:title="The subroutine &#39;terminal_fall&#39; computes terminal fall speed.">
<polygon fill="white" stroke="#666666" points="604.75,-128.5 494.25,-128.5 494.25,-98 604.75,-98 604.75,-128.5"/>
<text xml:space="preserve" text-anchor="start" x="502.25" y="-115" font-family="Source Sans Pro" font-size="10.00">gfdl_cloud_microphys</text>
<text xml:space="preserve" text-anchor="middle" x="549.5" y="-103.75" font-family="Source Sans Pro" font-size="10.00">_mod::terminal_fall</text>
</a>
</g>
</g>
<!-- Node4&#45;&gt;Node14 -->
<g id="edge16_Node000004_Node000014" class="edge">
<title>Node4&#45;&gt;Node14</title>
<g id="a_edge16_Node000004_Node000014"><a xlink:title=" ">
<path fill="none" stroke="#63b8ff" d="M439.6,-169.57C445.88,-166.6 452.3,-163.42 458.25,-160.25 474.79,-151.42 477.71,-147.08 494.25,-138.25 496.94,-136.81 499.74,-135.37 502.57,-133.95"/>
<polygon fill="#63b8ff" stroke="#63b8ff" points="504.07,-137.12 511.54,-129.6 501.01,-130.82 504.07,-137.12"/>
</a>
</g>
</g>
<!-- Node20 -->
<g id="Node000020" class="node">
<title>Node20</title>
<g id="a_Node000020"><a xlink:href="group__mod__gfdl__cloud__mp_gacc8783950135d8875dbfe23ef5013c76.html#gacc8783950135d8875dbfe23ef5013c76" target="_top" xlink:title="This subroutine includes warm rain cloud microphysics.">
<polygon fill="white" stroke="#666666" points="604.75,-177.5 494.25,-177.5 494.25,-147 604.75,-147 604.75,-177.5"/>
<text xml:space="preserve" text-anchor="start" x="502.25" y="-164" font-family="Source Sans Pro" font-size="10.00">gfdl_cloud_microphys</text>
<text xml:space="preserve" text-anchor="middle" x="549.5" y="-152.75" font-family="Source Sans Pro" font-size="10.00">_mod::warm_rain</text>
</a>
</g>
</g>
<!-- Node4&#45;&gt;Node20 -->
<g id="edge22_Node000004_Node000020" class="edge">
<title>Node4&#45;&gt;Node20</title>
<g id="a_edge22_Node000004_Node000020"><a xlink:title=" ">
<path fill="none" stroke="#63b8ff" d="M458.63,-176.55C466.45,-175.31 474.57,-174.02 482.58,-172.74"/>
<polygon fill="#63b8ff" stroke="#63b8ff" points="482.97,-176.22 492.3,-171.2 481.87,-169.31 482.97,-176.22"/>
</a>
</g>
</g>
<!-- Node7 -->
<g id="Node000007" class="node">
<title>Node7</title>
<g id="a_Node000007"><a xlink:href="group__gfdlmp_ga0c6e8d13d0224e3b40bcbabdbab7f0ba.html#ga0c6e8d13d0224e3b40bcbabdbab7f0ba" target="_top" xlink:title="The function is an accretion function (Lin et al.(1983) lin_et_al_1983 ).">
<polygon fill="white" stroke="#666666" points="762.12,-440.5 651.62,-440.5 651.62,-410 762.12,-410 762.12,-440.5"/>
<text xml:space="preserve" text-anchor="start" x="659.62" y="-427" font-family="Source Sans Pro" font-size="10.00">gfdl_cloud_microphys</text>
<text xml:space="preserve" text-anchor="middle" x="706.88" y="-415.75" font-family="Source Sans Pro" font-size="10.00">_mod::acr3d</text>
</a>
</g>
</g>
<!-- Node6&#45;&gt;Node7 -->
<g id="edge6_Node000006_Node000007" class="edge">
<title>Node6&#45;&gt;Node7</title>
<g id="a_edge6_Node000006_Node000007"><a xlink:title=" ">
<path fill="none" stroke="#63b8ff" d="M593.24,-299.95C597.45,-302.63 601.4,-305.71 604.75,-309.25 634.65,-340.84 609.84,-369.65 640.75,-400.25 641.77,-401.26 642.83,-402.22 643.93,-403.15"/>
<polygon fill="#63b8ff" stroke="#63b8ff" points="641.58,-405.78 651.77,-408.68 645.61,-400.06 641.58,-405.78"/>
</a>
</g>
</g>
<!-- Node8 -->
<g id="Node000008" class="node">
<title>Node8</title>
<g id="a_Node000008"><a xlink:href="group__mod__gfdl__cloud__mp_ga60295ecd2dc7ed890e0c643d562862b6.html#ga60295ecd2dc7ed890e0c643d562862b6" target="_top" xlink:title="Definition of vertical subgrid variability used for cloud ice and cloud water autoconversion.">
<polygon fill="white" stroke="#666666" points="762.12,-275.5 651.62,-275.5 651.62,-245 762.12,-245 762.12,-275.5"/>
<text xml:space="preserve" text-anchor="start" x="659.62" y="-262" font-family="Source Sans Pro" font-size="10.00">gfdl_cloud_microphys</text>
<text xml:space="preserve" text-anchor="middle" x="706.88" y="-250.75" font-family="Source Sans Pro" font-size="10.00">_mod::linear_prof</text>
</a>
</g>
</g>
<!-- Node6&#45;&gt;Node8 -->
<g id="edge8_Node000006_Node000008" class="edge">
<title>Node6&#45;&gt;Node8</title>
<g id="a_edge8_Node000006_Node000008"><a xlink:title=" ">
<path fill="none" stroke="#63b8ff" d="M604.84,-275.86C616.25,-274.09 628.4,-272.22 640.17,-270.4"/>
<polygon fill="#63b8ff" stroke="#63b8ff" points="640.46,-273.9 649.8,-268.91 639.39,-266.98 640.46,-273.9"/>
</a>
</g>
</g>
<!-- Node9 -->
<g id="Node000009" class="node">
<title>Node9</title>
<g id="a_Node000009"><a xlink:href="group__gfdlmp_gad0c3fa84c0f00f8d0106a40b45d84925.html#gad0c3fa84c0f00f8d0106a40b45d84925" target="_top" xlink:title="Melting of snow function (Lin et al.(1983) lin_et_al_1983) note: psacw and psacr must be calc before ...">
<polygon fill="white" stroke="#666666" points="762.12,-373.5 651.62,-373.5 651.62,-343 762.12,-343 762.12,-373.5"/>
<text xml:space="preserve" text-anchor="start" x="659.62" y="-360" font-family="Source Sans Pro" font-size="10.00">gfdl_cloud_microphys</text>
<text xml:space="preserve" text-anchor="middle" x="706.88" y="-348.75" font-family="Source Sans Pro" font-size="10.00">_mod::smlt</text>
</a>
</g>
</g>
<!-- Node6&#45;&gt;Node9 -->
<g id="edge9_Node000006_Node000009" class="edge">
<title>Node6&#45;&gt;Node9</title>
<g id="a_edge9_Node000006_Node000009"><a xlink:title=" ">
<path fill="none" stroke="#63b8ff" d="M586.5,-299.88C592.67,-302.83 598.96,-306.01 604.75,-309.25 621.53,-318.64 623.67,-324.42 640.75,-333.25 643.98,-334.92 647.34,-336.54 650.77,-338.1"/>
<polygon fill="#63b8ff" stroke="#63b8ff" points="649.2,-341.24 659.77,-341.99 651.98,-334.81 649.2,-341.24"/>
</a>
</g>
</g>
<!-- Node10 -->
<g id="Node000010" class="node">
<title>Node10</title>
<g id="a_Node000010"><a xlink:href="group__mod__gfdl__cloud__mp_gaec9761c5fe1374e1d8f8f18dec3b879c.html#gaec9761c5fe1374e1d8f8f18dec3b879c" target="_top" xlink:title="This subroutine calculates temperature sentive high vertical resolution processes.">
<polygon fill="white" stroke="#666666" points="762.88,-324.5 650.88,-324.5 650.88,-294 762.88,-294 762.88,-324.5"/>
<text xml:space="preserve" text-anchor="start" x="658.88" y="-311" font-family="Source Sans Pro" font-size="10.00">gfdl_cloud_microphys</text>
<text xml:space="preserve" text-anchor="middle" x="706.88" y="-299.75" font-family="Source Sans Pro" font-size="10.00">_mod::subgrid_z_proc</text>
</a>
</g>
</g>
<!-- Node6&#45;&gt;Node10 -->
<g id="edge11_Node000006_Node000010" class="edge">
<title>Node6&#45;&gt;Node10</title>
<g id="a_edge11_Node000006_Node000010"><a xlink:title=" ">
<path fill="none" stroke="#63b8ff" d="M604.84,-292.99C615.93,-294.78 627.73,-296.68 639.19,-298.52"/>
<polygon fill="#63b8ff" stroke="#63b8ff" points="638.59,-301.97 649.02,-300.1 639.7,-295.06 638.59,-301.97"/>
</a>
</g>
</g>
<!-- Node7&#45;&gt;Node7 -->
<g id="edge7_Node000007_Node000007" class="edge">
<title>Node7&#45;&gt;Node7</title>
<g id="a_edge7_Node000007_Node000007"><a xlink:title=" ">
<path fill="none" stroke="#63b8ff" d="M678.99,-440.99C673.3,-450.06 682.59,-458.5 706.88,-458.5 720.15,-458.5 728.95,-455.97 733.27,-452.2"/>
<polygon fill="#63b8ff" stroke="#63b8ff" points="736.71,-452.86 734.56,-442.49 729.77,-451.94 736.71,-452.86"/>
</a>
</g>
</g>
<!-- Node9&#45;&gt;Node9 -->
<g id="edge10_Node000009_Node000009" class="edge">
<title>Node9&#45;&gt;Node9</title>
<g id="a_edge10_Node000009_Node000009"><a xlink:title=" ">
<path fill="none" stroke="#63b8ff" d="M678.99,-373.99C673.3,-383.06 682.59,-391.5 706.88,-391.5 720.15,-391.5 728.95,-388.97 733.27,-385.2"/>
<polygon fill="#63b8ff" stroke="#63b8ff" points="736.71,-385.86 734.56,-375.49 729.77,-384.94 736.71,-385.86"/>
</a>
</g>
</g>
<!-- Node11 -->
<g id="Node000011" class="node">
<title>Node11</title>
<g id="a_Node000011"><a xlink:href="group__mod__gfdl__cloud__mp_ga6dce09bb764ce09d571eb55783abcf48.html#ga6dce09bb764ce09d571eb55783abcf48" target="_top" xlink:title="The function &#39;wqs1&#39; returns the saturation vapor pressure over pure liquid water for a given temperat...">
<polygon fill="white" stroke="#666666" points="919.5,-324.5 809,-324.5 809,-294 919.5,-294 919.5,-324.5"/>
<text xml:space="preserve" text-anchor="start" x="817" y="-311" font-family="Source Sans Pro" font-size="10.00">gfdl_cloud_microphys</text>
<text xml:space="preserve" text-anchor="middle" x="864.25" y="-299.75" font-family="Source Sans Pro" font-size="10.00">_mod::wqs1</text>
</a>
</g>
</g>
<!-- Node10&#45;&gt;Node11 -->
<g id="edge12_Node000010_Node000011" class="edge">
<title>Node10&#45;&gt;Node11</title>
<g id="a_edge12_Node000010_Node000011"><a xlink:title=" ">
<path fill="none" stroke="#63b8ff" d="M763.09,-309.25C774.21,-309.25 786.01,-309.25 797.45,-309.25"/>
<polygon fill="#63b8ff" stroke="#63b8ff" points="797.22,-312.75 807.22,-309.25 797.22,-305.75 797.22,-312.75"/>
</a>
</g>
</g>
<!-- Node11&#45;&gt;Node11 -->
<g id="edge13_Node000011_Node000011" class="edge">
<title>Node11&#45;&gt;Node11</title>
<g id="a_edge13_Node000011_Node000011"><a xlink:title=" ">
<path fill="none" stroke="#63b8ff" d="M838.29,-324.99C832.99,-334.06 841.65,-342.5 864.25,-342.5 876.61,-342.5 884.8,-339.97 888.82,-336.2"/>
<polygon fill="#63b8ff" stroke="#63b8ff" points="892.27,-336.84 890.02,-326.49 885.32,-335.98 892.27,-336.84"/>
</a>
</g>
</g>
<!-- Node15 -->
<g id="Node000015" class="node">
<title>Node15</title>
<g id="a_Node000015"><a xlink:href="group__mod__gfdl__cloud__mp_ga6888d7e95c34f76ecd432293eea9723f.html#ga6888d7e95c34f76ecd432293eea9723f" target="_top" xlink:title="The subroutine &#39;check_column&#39; checks if the water species is large enough to fall.">
<polygon fill="white" stroke="#666666" points="762.12,-128.5 651.62,-128.5 651.62,-98 762.12,-98 762.12,-128.5"/>
<text xml:space="preserve" text-anchor="start" x="659.62" y="-115" font-family="Source Sans Pro" font-size="10.00">gfdl_cloud_microphys</text>
<text xml:space="preserve" text-anchor="middle" x="706.88" y="-103.75" font-family="Source Sans Pro" font-size="10.00">_mod::check_column</text>
</a>
</g>
</g>
<!-- Node14&#45;&gt;Node15 -->
<g id="edge17_Node000014_Node000015" class="edge">
<title>Node14&#45;&gt;Node15</title>
<g id="a_edge17_Node000014_Node000015"><a xlink:title=" ">
<path fill="none" stroke="#63b8ff" d="M604.84,-113.25C616.13,-113.25 628.15,-113.25 639.8,-113.25"/>
<polygon fill="#63b8ff" stroke="#63b8ff" points="639.79,-116.75 649.79,-113.25 639.79,-109.75 639.79,-116.75"/>
</a>
</g>
</g>
<!-- Node16 -->
<g id="Node000016" class="node">
<title>Node16</title>
<g id="a_Node000016"><a xlink:href="group__mod__gfdl__cloud__mp_ga2f6f4139188eb18db6c84ac21f19f07b.html#ga2f6f4139188eb18db6c84ac21f19f07b" target="_top" xlink:title="The subroutine computes the time&#45;implicit monotonic fall scheme.">
<polygon fill="white" stroke="#666666" points="762.12,-79.5 651.62,-79.5 651.62,-49 762.12,-49 762.12,-79.5"/>
<text xml:space="preserve" text-anchor="start" x="659.62" y="-66" font-family="Source Sans Pro" font-size="10.00">gfdl_cloud_microphys</text>
<text xml:space="preserve" text-anchor="middle" x="706.88" y="-54.75" font-family="Source Sans Pro" font-size="10.00">_mod::implicit_fall</text>
</a>
</g>
</g>
<!-- Node14&#45;&gt;Node16 -->
<g id="edge18_Node000014_Node000016" class="edge">
<title>Node14&#45;&gt;Node16</title>
<g id="a_edge18_Node000014_Node000016"><a xlink:title=" ">
<path fill="none" stroke="#63b8ff" d="M600.09,-97.61C614.45,-93.08 630.3,-88.08 645.26,-83.37"/>
<polygon fill="#63b8ff" stroke="#63b8ff" points="646.03,-86.79 654.51,-80.45 643.92,-80.12 646.03,-86.79"/>
</a>
</g>
</g>
<!-- Node17 -->
<g id="Node000017" class="node">
<title>Node17</title>
<g id="a_Node000017"><a xlink:href="group__mod__gfdl__cloud__mp_gabfcb03d4ab831c5f0a879b75b2cf4e01.html#gabfcb03d4ab831c5f0a879b75b2cf4e01" target="_top" xlink:title="Lagrangian scheme.">
<polygon fill="white" stroke="#666666" points="773,-30.5 640.75,-30.5 640.75,0 773,0 773,-30.5"/>
<text xml:space="preserve" text-anchor="start" x="648.75" y="-17" font-family="Source Sans Pro" font-size="10.00">gfdl_cloud_microphys</text>
<text xml:space="preserve" text-anchor="middle" x="706.88" y="-5.75" font-family="Source Sans Pro" font-size="10.00">_mod::lagrangian_fall_ppm</text>
</a>
</g>
</g>
<!-- Node14&#45;&gt;Node17 -->
<g id="edge19_Node000014_Node000017" class="edge">
<title>Node14&#45;&gt;Node17</title>
<g id="a_edge19_Node000014_Node000017"><a xlink:title=" ">
<path fill="none" stroke="#63b8ff" d="M590.67,-97.54C595.64,-94.8 600.47,-91.7 604.75,-88.25 625.49,-71.49 619.47,-56.32 640.75,-40.25 642.53,-38.91 644.38,-37.63 646.3,-36.42"/>
<polygon fill="#63b8ff" stroke="#63b8ff" points="647.94,-39.51 654.96,-31.58 644.52,-33.4 647.94,-39.51"/>
</a>
</g>
</g>
<!-- Node18 -->
<g id="Node000018" class="node">
<title>Node18</title>
<g id="a_Node000018"><a xlink:href="group__mod__gfdl__cloud__mp_gaeaa05a4c1310e5a546cadd40f1c66c42.html#gaeaa05a4c1310e5a546cadd40f1c66c42" target="_top" xlink:title=" ">
<polygon fill="white" stroke="#666666" points="919.5,-30.5 809,-30.5 809,0 919.5,0 919.5,-30.5"/>
<text xml:space="preserve" text-anchor="start" x="817" y="-17" font-family="Source Sans Pro" font-size="10.00">gfdl_cloud_microphys</text>
<text xml:space="preserve" text-anchor="middle" x="864.25" y="-5.75" font-family="Source Sans Pro" font-size="10.00">_mod::cs_profile</text>
</a>
</g>
</g>
<!-- Node17&#45;&gt;Node18 -->
<g id="edge20_Node000017_Node000018" class="edge">
<title>Node17&#45;&gt;Node18</title>
<g id="a_edge20_Node000017_Node000018"><a xlink:title=" ">
<path fill="none" stroke="#63b8ff" d="M773.32,-15.25C781.23,-15.25 789.32,-15.25 797.24,-15.25"/>
<polygon fill="#63b8ff" stroke="#63b8ff" points="797.17,-18.75 807.17,-15.25 797.17,-11.75 797.17,-18.75"/>
</a>
</g>
</g>
<!-- Node19 -->
<g id="Node000019" class="node">
<title>Node19</title>
<g id="a_Node000019"><a xlink:href="group__mod__gfdl__cloud__mp_ga4551eade22b554cea965dc3efbe63ce4.html#ga4551eade22b554cea965dc3efbe63ce4" target="_top" xlink:title="This subroutine perform positive definite constraint.">
<polygon fill="white" stroke="#666666" points="1066,-30.5 955.5,-30.5 955.5,0 1066,0 1066,-30.5"/>
<text xml:space="preserve" text-anchor="start" x="963.5" y="-17" font-family="Source Sans Pro" font-size="10.00">gfdl_cloud_microphys</text>
<text xml:space="preserve" text-anchor="middle" x="1010.75" y="-5.75" font-family="Source Sans Pro" font-size="10.00">_mod::cs_limiters</text>
</a>
</g>
</g>
<!-- Node18&#45;&gt;Node19 -->
<g id="edge21_Node000018_Node000019" class="edge">
<title>Node18&#45;&gt;Node19</title>
<g id="a_edge21_Node000018_Node000019"><a xlink:title=" ">
<path fill="none" stroke="#63b8ff" d="M919.88,-15.25C927.61,-15.25 935.63,-15.25 943.55,-15.25"/>
<polygon fill="#63b8ff" stroke="#63b8ff" points="943.53,-18.75 953.53,-15.25 943.53,-11.75 943.53,-18.75"/>
</a>
</g>
</g>
<!-- Node20&#45;&gt;Node8 -->
<g id="edge26_Node000020_Node000008" class="edge">
<title>Node20&#45;&gt;Node8</title>
<g id="a_edge26_Node000020_Node000008"><a xlink:title=" ">
<path fill="none" stroke="#63b8ff" d="M566.63,-177.95C583.84,-194.04 612.47,-218.93 640.75,-235.25 643.5,-236.84 646.38,-238.36 649.32,-239.82"/>
<polygon fill="#63b8ff" stroke="#63b8ff" points="647.57,-242.87 658.12,-243.89 650.51,-236.52 647.57,-242.87"/>
</a>
</g>
</g>
<!-- Node20&#45;&gt;Node13 -->
<g id="edge28_Node000020_Node000013" class="edge">
<title>Node20&#45;&gt;Node13</title>
<g id="a_edge28_Node000020_Node000013"><a xlink:title=" ">
<path fill="none" stroke="#63b8ff" d="M600.09,-177.89C614.45,-182.42 630.3,-187.42 645.26,-192.13"/>
<polygon fill="#63b8ff" stroke="#63b8ff" points="643.92,-195.38 654.51,-195.05 646.03,-188.71 643.92,-195.38"/>
</a>
</g>
</g>
<!-- Node20&#45;&gt;Node15 -->
<g id="edge23_Node000020_Node000015" class="edge">
<title>Node20&#45;&gt;Node15</title>
<g id="a_edge23_Node000020_Node000015"><a xlink:title=" ">
<path fill="none" stroke="#63b8ff" d="M600.09,-146.61C614.45,-142.08 630.3,-137.08 645.26,-132.37"/>
<polygon fill="#63b8ff" stroke="#63b8ff" points="646.03,-135.79 654.51,-129.45 643.92,-129.12 646.03,-135.79"/>
</a>
</g>
</g>
<!-- Node20&#45;&gt;Node16 -->
<g id="edge24_Node000020_Node000016" class="edge">
<title>Node20&#45;&gt;Node16</title>
<g id="a_edge24_Node000020_Node000016"><a xlink:title=" ">
<path fill="none" stroke="#63b8ff" d="M590.67,-146.54C595.64,-143.8 600.47,-140.7 604.75,-137.25 625.49,-120.49 619.47,-105.32 640.75,-89.25 642.53,-87.91 644.38,-86.63 646.3,-85.42"/>
<polygon fill="#63b8ff" stroke="#63b8ff" points="647.94,-88.51 654.96,-80.58 644.52,-82.4 647.94,-88.51"/>
</a>
</g>
</g>
<!-- Node20&#45;&gt;Node17 -->
<g id="edge25_Node000020_Node000017" class="edge">
<title>Node20&#45;&gt;Node17</title>
<g id="a_edge25_Node000020_Node000017"><a xlink:title=" ">
<path fill="none" stroke="#63b8ff" d="M593.31,-146.62C597.51,-143.93 601.44,-140.83 604.75,-137.25 636,-103.52 608.42,-72.95 640.75,-40.25 641.76,-39.23 642.81,-38.26 643.9,-37.32"/>
<polygon fill="#63b8ff" stroke="#63b8ff" points="645.59,-40.41 651.7,-31.75 641.53,-34.71 645.59,-40.41"/>
</a>
</g>
</g>
<!-- Node21 -->
<g id="Node000021" class="node">
<title>Node21</title>
<g id="a_Node000021"><a xlink:href="group__mod__gfdl__cloud__mp_ga6c69bf161f1301a1733d4cf1665d5b59.html#ga6c69bf161f1301a1733d4cf1665d5b59" target="_top" xlink:title="This subroutine calculates evaporation of rain and accretion of rain.">
<polygon fill="white" stroke="#666666" points="762.12,-177.5 651.62,-177.5 651.62,-147 762.12,-147 762.12,-177.5"/>
<text xml:space="preserve" text-anchor="start" x="659.62" y="-164" font-family="Source Sans Pro" font-size="10.00">gfdl_cloud_microphys</text>
<text xml:space="preserve" text-anchor="middle" x="706.88" y="-152.75" font-family="Source Sans Pro" font-size="10.00">_mod::revap_racc</text>
</a>
</g>
</g>
<!-- Node20&#45;&gt;Node21 -->
<g id="edge27_Node000020_Node000021" class="edge">
<title>Node20&#45;&gt;Node21</title>
<g id="a_edge27_Node000020_Node000021"><a xlink:title=" ">
<path fill="none" stroke="#63b8ff" d="M604.84,-162.25C616.13,-162.25 628.15,-162.25 639.8,-162.25"/>
<polygon fill="#63b8ff" stroke="#63b8ff" points="639.79,-165.75 649.79,-162.25 639.79,-158.75 639.79,-165.75"/>
</a>
</g>
</g>
</g>
</svg>
