<?xml version="1.0" encoding="UTF-8" standalone="no"?>
<!DOCTYPE svg PUBLIC "-//W3C//DTD SVG 1.1//EN"
 "http://www.w3.org/Graphics/SVG/1.1/DTD/svg11.dtd">
<!-- Generated by graphviz version 14.1.2 (20260124.0452)
 -->
<!-- Title: mynnedmf_wrapper::mynnedmf_wrapper_run Pages: 1 -->
<svg width="861pt" height="502pt"
 viewBox="0.00 0.00 861.00 502.00" xmlns="http://www.w3.org/2000/svg" xmlns:xlink="http://www.w3.org/1999/xlink">
<g id="graph0" class="graph" transform="scale(1 1) rotate(0) translate(4 497.88)">
<title>mynnedmf_wrapper::mynnedmf_wrapper_run</title>
<!-- Node1 -->
<g id="Node000001" class="node">
<title>Node1</title>
<g id="a_Node000001"><a xlink:title=" ">
<polygon fill="#999999" stroke="#666666" points="153.25,-192.5 0,-192.5 0,-162 153.25,-162 153.25,-192.5"/>
<text xml:space="preserve" text-anchor="start" x="8" y="-179" font-family="Source Sans Pro" font-size="10.00">mynnedmf_wrapper::mynnedmf</text>
<text xml:space="preserve" text-anchor="middle" x="76.62" y="-167.75" font-family="Source Sans Pro" font-size="10.00">_wrapper_run</text>
</a>
</g>
</g>
<!-- Node2 -->
<g id="Node000002" class="node">
<title>Node2</title>
<g id="a_Node000002"><a xlink:href="group__gp__mynnedmf_ga727e10ec7e7a73d34a7f50dadbda2b83.html#ga727e10ec7e7a73d34a7f50dadbda2b83" target="_top" xlink:title="This subroutine is the MYNN&#45;EDNF PBL driver routine,which encompassed the majority of the subroutines...">
<polygon fill="white" stroke="#666666" points="308.75,-192.5 189.25,-192.5 189.25,-162 308.75,-162 308.75,-192.5"/>
<text xml:space="preserve" text-anchor="start" x="197.25" y="-179" font-family="Source Sans Pro" font-size="10.00">module_bl_mynn::mynn</text>
<text xml:space="preserve" text-anchor="middle" x="249" y="-167.75" font-family="Source Sans Pro" font-size="10.00">_bl_driver</text>
</a>
</g>
</g>
<!-- Node1&#45;&gt;Node2 -->
<g id="edge1_Node000001_Node000002" class="edge">
<title>Node1&#45;&gt;Node2</title>
<g id="a_edge1_Node000001_Node000002"><a xlink:title=" ">
<path fill="none" stroke="#63b8ff" d="M153.35,-177.25C161.35,-177.25 169.46,-177.25 177.4,-177.25"/>
<polygon fill="#63b8ff" stroke="#63b8ff" points="177.36,-180.75 187.36,-177.25 177.36,-173.75 177.36,-180.75"/>
</a>
</g>
</g>
<!-- Node3 -->
<g id="Node000003" class="node">
<title>Node3</title>
<g id="a_Node000003"><a xlink:href="group__gp__mynnedmf_ga1a32198222c028ebc56fe79f6872be53.html#ga1a32198222c028ebc56fe79f6872be53" target="_top" xlink:title="This subroutine is the Dynamic Multi&#45;Plume (DMP) Mass&#45;Flux Scheme.">
<polygon fill="white" stroke="#666666" points="476.25,-394.88 345.5,-394.88 345.5,-375.62 476.25,-375.62 476.25,-394.88"/>
<text xml:space="preserve" text-anchor="middle" x="410.88" y="-381.38" font-family="Source Sans Pro" font-size="10.00">module_bl_mynn::dmp_mf</text>
</a>
</g>
</g>
<!-- Node2&#45;&gt;Node3 -->
<g id="edge2_Node000002_Node000003" class="edge">
<title>Node2&#45;&gt;Node3</title>
<g id="a_edge2_Node000002_Node000003"><a xlink:title=" ">
<path fill="none" stroke="#63b8ff" d="M257.33,-192.92C271.53,-222.26 304.9,-286.65 344.75,-332.25 356.67,-345.9 372.37,-358.79 385.37,-368.44"/>
<polygon fill="#63b8ff" stroke="#63b8ff" points="383.29,-371.25 393.45,-374.26 387.38,-365.57 383.29,-371.25"/>
</a>
</g>
</g>
<!-- Node8 -->
<g id="Node000008" class="node">
<title>Node8</title>
<g id="a_Node000008"><a xlink:href="group__gp__mynnedmf_ga0dc8b774b082b37c5f048db5f209ad12.html#ga0dc8b774b082b37c5f048db5f209ad12" target="_top" xlink:title="This subroutine calculates hybrid diagnotic boundary&#45;layer height (PBLH).">
<polygon fill="white" stroke="#666666" points="477,-165.88 344.75,-165.88 344.75,-146.62 477,-146.62 477,-165.88"/>
<text xml:space="preserve" text-anchor="middle" x="410.88" y="-152.38" font-family="Source Sans Pro" font-size="10.00">module_bl_mynn::get_pblh</text>
</a>
</g>
</g>
<!-- Node2&#45;&gt;Node8 -->
<g id="edge11_Node000002_Node000008" class="edge">
<title>Node2&#45;&gt;Node8</title>
<g id="a_edge11_Node000002_Node000008"><a xlink:title=" ">
<path fill="none" stroke="#63b8ff" d="M309.08,-169.49C316.88,-168.47 324.96,-167.4 333,-166.35"/>
<polygon fill="#63b8ff" stroke="#63b8ff" points="333.35,-169.83 342.81,-165.06 332.44,-162.89 333.35,-169.83"/>
</a>
</g>
</g>
<!-- Node9 -->
<g id="Node000009" class="node">
<title>Node9</title>
<g id="a_Node000009"><a xlink:href="group__gp__mynnedmf_ga72e450860b06f1c3b6c7a9bbb0c94ce7.html#ga72e450860b06f1c3b6c7a9bbb0c94ce7" target="_top" xlink:title="This subroutine calculates the nonconvective component of the subgrid cloud fraction and mixing ratio...">
<polygon fill="white" stroke="#666666" points="469.5,-323.5 352.25,-323.5 352.25,-293 469.5,-293 469.5,-323.5"/>
<text xml:space="preserve" text-anchor="start" x="360.25" y="-310" font-family="Source Sans Pro" font-size="10.00">module_bl_mynn::mym</text>
<text xml:space="preserve" text-anchor="middle" x="410.88" y="-298.75" font-family="Source Sans Pro" font-size="10.00">_condensation</text>
</a>
</g>
</g>
<!-- Node2&#45;&gt;Node9 -->
<g id="edge12_Node000002_Node000009" class="edge">
<title>Node2&#45;&gt;Node9</title>
<g id="a_edge12_Node000002_Node000009"><a xlink:title=" ">
<path fill="none" stroke="#63b8ff" d="M262.97,-192.74C280.24,-212.73 312.38,-247.86 344.75,-272.25 351.71,-277.49 359.52,-282.47 367.25,-286.96"/>
<polygon fill="#63b8ff" stroke="#63b8ff" points="365.54,-290.01 375.97,-291.83 368.95,-283.9 365.54,-290.01"/>
</a>
</g>
</g>
<!-- Node10 -->
<g id="Node000010" class="node">
<title>Node10</title>
<g id="a_Node000010"><a xlink:href="group__gp__mynnedmf_ga97717283bfde857ef86fb46f37063824.html#ga97717283bfde857ef86fb46f37063824" target="_top" xlink:title="This subroutine initializes the mixing length, TKE, , , and .">
<polygon fill="white" stroke="#666666" points="469.5,-128.5 352.25,-128.5 352.25,-98 469.5,-98 469.5,-128.5"/>
<text xml:space="preserve" text-anchor="start" x="360.25" y="-115" font-family="Source Sans Pro" font-size="10.00">module_bl_mynn::mym</text>
<text xml:space="preserve" text-anchor="middle" x="410.88" y="-103.75" font-family="Source Sans Pro" font-size="10.00">_initialize</text>
</a>
</g>
</g>
<!-- Node2&#45;&gt;Node10 -->
<g id="edge16_Node000002_Node000010" class="edge">
<title>Node2&#45;&gt;Node10</title>
<g id="a_edge16_Node000002_Node000010"><a xlink:title=" ">
<path fill="none" stroke="#63b8ff" d="M285.83,-161.66C303.49,-154.1 325.15,-144.99 344.75,-137.25 348.33,-135.83 352.04,-134.4 355.77,-132.97"/>
<polygon fill="#63b8ff" stroke="#63b8ff" points="356.8,-136.32 364.91,-129.51 354.32,-129.78 356.8,-136.32"/>
</a>
</g>
</g>
<!-- Node14 -->
<g id="Node000014" class="node">
<title>Node14</title>
<g id="a_Node000014"><a xlink:href="group__gp__mynnedmf_gaf3104a808121c8c051204a21f55957cc.html#gaf3104a808121c8c051204a21f55957cc" target="_top" xlink:title="This subroutine predicts the turbulent quantities at the next step.">
<polygon fill="white" stroke="#666666" points="469.5,-214.5 352.25,-214.5 352.25,-184 469.5,-184 469.5,-214.5"/>
<text xml:space="preserve" text-anchor="start" x="360.25" y="-201" font-family="Source Sans Pro" font-size="10.00">module_bl_mynn::mym</text>
<text xml:space="preserve" text-anchor="middle" x="410.88" y="-189.75" font-family="Source Sans Pro" font-size="10.00">_predict</text>
</a>
</g>
</g>
<!-- Node2&#45;&gt;Node14 -->
<g id="edge20_Node000002_Node000014" class="edge">
<title>Node2&#45;&gt;Node14</title>
<g id="a_edge20_Node000002_Node000014"><a xlink:title=" ">
<path fill="none" stroke="#63b8ff" d="M309.08,-185.38C319.33,-186.79 330.08,-188.27 340.58,-189.71"/>
<polygon fill="#63b8ff" stroke="#63b8ff" points="339.96,-193.16 350.34,-191.06 340.91,-186.23 339.96,-193.16"/>
</a>
</g>
</g>
<!-- Node16 -->
<g id="Node000016" class="node">
<title>Node16</title>
<g id="a_Node000016"><a xlink:href="group__gp__mynnedmf_ga017b6066d332a8612fa00f2713db57fa.html#ga017b6066d332a8612fa00f2713db57fa" target="_top" xlink:title="This subroutine calculates the vertical diffusivity coefficients and the production terms for the tur...">
<polygon fill="white" stroke="#666666" points="469.5,-79.5 352.25,-79.5 352.25,-49 469.5,-49 469.5,-79.5"/>
<text xml:space="preserve" text-anchor="start" x="360.25" y="-66" font-family="Source Sans Pro" font-size="10.00">module_bl_mynn::mym</text>
<text xml:space="preserve" text-anchor="middle" x="410.88" y="-54.75" font-family="Source Sans Pro" font-size="10.00">_turbulence</text>
</a>
</g>
</g>
<!-- Node2&#45;&gt;Node16 -->
<g id="edge22_Node000002_Node000016" class="edge">
<title>Node2&#45;&gt;Node16</title>
<g id="a_edge22_Node000002_Node000016"><a xlink:title=" ">
<path fill="none" stroke="#63b8ff" d="M263.33,-161.64C280.48,-142.38 311.98,-109.68 344.75,-89.25 347.18,-87.74 349.71,-86.29 352.31,-84.91"/>
<polygon fill="#63b8ff" stroke="#63b8ff" points="353.76,-88.1 361.23,-80.58 350.7,-81.8 353.76,-88.1"/>
</a>
</g>
</g>
<!-- Node17 -->
<g id="Node000017" class="node">
<title>Node17</title>
<g id="a_Node000017"><a xlink:href="group__gp__mynnedmf_gabd440b7b99df6a4736c2118fd96e3fd1.html#gabd440b7b99df6a4736c2118fd96e3fd1" target="_top" xlink:title="This subroutine solves for tendencies of U, V, , qv, qc, and qi.">
<polygon fill="white" stroke="#666666" points="470.62,-263.5 351.12,-263.5 351.12,-233 470.62,-233 470.62,-263.5"/>
<text xml:space="preserve" text-anchor="start" x="359.12" y="-250" font-family="Source Sans Pro" font-size="10.00">module_bl_mynn::mynn</text>
<text xml:space="preserve" text-anchor="middle" x="410.88" y="-238.75" font-family="Source Sans Pro" font-size="10.00">_tendencies</text>
</a>
</g>
</g>
<!-- Node2&#45;&gt;Node17 -->
<g id="edge25_Node000002_Node000017" class="edge">
<title>Node2&#45;&gt;Node17</title>
<g id="a_edge25_Node000002_Node000017"><a xlink:title=" ">
<path fill="none" stroke="#63b8ff" d="M280.42,-192.84C298.85,-202.08 322.94,-213.79 344.75,-223.25 348.76,-224.99 352.93,-226.74 357.15,-228.45"/>
<polygon fill="#63b8ff" stroke="#63b8ff" points="355.63,-231.62 366.22,-232.07 358.23,-225.11 355.63,-231.62"/>
</a>
</g>
</g>
<!-- Node18 -->
<g id="Node000018" class="node">
<title>Node18</title>
<g id="a_Node000018"><a xlink:href="group__gp__mynnedmf_gaf8eee736ba0e92dd2fe1f97755b3b3fb.html#gaf8eee736ba0e92dd2fe1f97755b3b3fb" target="_top" xlink:title=" ">
<polygon fill="white" stroke="#666666" points="474.75,-30.5 347,-30.5 347,0 474.75,0 474.75,-30.5"/>
<text xml:space="preserve" text-anchor="start" x="355" y="-17" font-family="Source Sans Pro" font-size="10.00">module_bl_mynn::retrieve</text>
<text xml:space="preserve" text-anchor="middle" x="410.88" y="-5.75" font-family="Source Sans Pro" font-size="10.00">_exchange_coeffs</text>
</a>
</g>
</g>
<!-- Node2&#45;&gt;Node18 -->
<g id="edge28_Node000002_Node000018" class="edge">
<title>Node2&#45;&gt;Node18</title>
<g id="a_edge28_Node000002_Node000018"><a xlink:title=" ">
<path fill="none" stroke="#63b8ff" d="M256.82,-161.84C269.95,-133.84 301.32,-74.38 344.75,-40.25 346.29,-39.04 347.89,-37.88 349.55,-36.78"/>
<polygon fill="#63b8ff" stroke="#63b8ff" points="351.29,-39.82 358.17,-31.76 347.77,-33.77 351.29,-39.82"/>
</a>
</g>
</g>
<!-- Node4 -->
<g id="Node000004" class="node">
<title>Node4</title>
<g id="a_Node000004"><a xlink:href="group__gp__mynnedmf_ga8a29adb739751b21ffacddb8f24ac8ab.html#ga8a29adb739751b21ffacddb8f24ac8ab" target="_top" xlink:title="This subroutine.">
<polygon fill="white" stroke="#666666" points="693.25,-493.88 513,-493.88 513,-474.62 693.25,-474.62 693.25,-493.88"/>
<text xml:space="preserve" text-anchor="middle" x="603.12" y="-480.38" font-family="Source Sans Pro" font-size="10.00">module_bl_mynn::condensation_edmf</text>
</a>
</g>
</g>
<!-- Node3&#45;&gt;Node4 -->
<g id="edge3_Node000003_Node000004" class="edge">
<title>Node3&#45;&gt;Node4</title>
<g id="a_edge3_Node000003_Node000004"><a xlink:title=" ">
<path fill="none" stroke="#63b8ff" d="M422.5,-395.29C440,-411.31 476.6,-442.64 513,-460.25 521.8,-464.51 531.48,-468.1 541.1,-471.1"/>
<polygon fill="#63b8ff" stroke="#63b8ff" points="539.87,-474.39 550.45,-473.82 541.82,-467.67 539.87,-474.39"/>
</a>
</g>
</g>
<!-- Node5 -->
<g id="Node000005" class="node">
<title>Node5</title>
<g id="a_Node000005"><a xlink:href="group__gp__mynnedmf_ga41a4c80227342f73cd16d2ae814498d0.html#ga41a4c80227342f73cd16d2ae814498d0" target="_top" xlink:title="This function extends function &quot;esat&quot; and returns a &quot;blended&quot; saturation mixing ratio....">
<polygon fill="white" stroke="#666666" points="848.38,-375.5 734.12,-375.5 734.12,-345 848.38,-345 848.38,-375.5"/>
<text xml:space="preserve" text-anchor="start" x="742.12" y="-362" font-family="Source Sans Pro" font-size="10.00">module_bl_mynn::qsat</text>
<text xml:space="preserve" text-anchor="middle" x="791.25" y="-350.75" font-family="Source Sans Pro" font-size="10.00">_blend</text>
</a>
</g>
</g>
<!-- Node3&#45;&gt;Node5 -->
<g id="edge8_Node000003_Node000005" class="edge">
<title>Node3&#45;&gt;Node5</title>
<g id="a_edge8_Node000003_Node000005"><a xlink:title=" ">
<path fill="none" stroke="#63b8ff" d="M429.82,-395.26C449.52,-405.63 482.42,-421.15 513,-427.25 591.56,-442.92 616.77,-451.1 693.25,-427.25 720.83,-418.65 747.49,-399.17 765.85,-383.41"/>
<polygon fill="#63b8ff" stroke="#63b8ff" points="768.12,-386.08 773.28,-376.82 763.48,-380.84 768.12,-386.08"/>
</a>
</g>
</g>
<!-- Node6 -->
<g id="Node000006" class="node">
<title>Node6</title>
<g id="a_Node000006"><a xlink:href="group__gp__mynnedmf_gae8047a4c3a14e775edc08c08caf43d80.html#gae8047a4c3a14e775edc08c08caf43d80" target="_top" xlink:title=" ">
<polygon fill="white" stroke="#666666" points="660.25,-333.5 546,-333.5 546,-303 660.25,-303 660.25,-333.5"/>
<text xml:space="preserve" text-anchor="start" x="554" y="-320" font-family="Source Sans Pro" font-size="10.00">module_bl_mynn::esat</text>
<text xml:space="preserve" text-anchor="middle" x="603.12" y="-308.75" font-family="Source Sans Pro" font-size="10.00">_blend</text>
</a>
</g>
</g>
<!-- Node3&#45;&gt;Node6 -->
<g id="edge6_Node000003_Node000006" class="edge">
<title>Node3&#45;&gt;Node6</title>
<g id="a_edge6_Node000003_Node000006"><a xlink:title=" ">
<path fill="none" stroke="#63b8ff" d="M440.36,-375.22C468.45,-365.33 512.11,-349.95 547,-337.66"/>
<polygon fill="#63b8ff" stroke="#63b8ff" points="547.82,-341.08 556.09,-334.46 545.5,-334.48 547.82,-341.08"/>
</a>
</g>
</g>
<!-- Node7 -->
<g id="Node000007" class="node">
<title>Node7</title>
<g id="a_Node000007"><a xlink:href="group__gp__mynnedmf_gaa969fd37a058f1244a944268798075e7.html#gaa969fd37a058f1244a944268798075e7" target="_top" xlink:title="This function interpolates the latent heats of vaporization and sublimation into a single,...">
<polygon fill="white" stroke="#666666" points="654.62,-400.5 551.62,-400.5 551.62,-370 654.62,-370 654.62,-400.5"/>
<text xml:space="preserve" text-anchor="start" x="559.62" y="-387" font-family="Source Sans Pro" font-size="10.00">module_bl_mynn::xl</text>
<text xml:space="preserve" text-anchor="middle" x="603.12" y="-375.75" font-family="Source Sans Pro" font-size="10.00">_blend</text>
</a>
</g>
</g>
<!-- Node3&#45;&gt;Node7 -->
<g id="edge9_Node000003_Node000007" class="edge">
<title>Node3&#45;&gt;Node7</title>
<g id="a_edge9_Node000003_Node000007"><a xlink:title=" ">
<path fill="none" stroke="#63b8ff" d="M476.55,-385.25C497,-385.25 519.54,-385.25 539.82,-385.25"/>
<polygon fill="#63b8ff" stroke="#63b8ff" points="539.63,-388.75 549.63,-385.25 539.63,-381.75 539.63,-388.75"/>
</a>
</g>
</g>
<!-- Node4&#45;&gt;Node5 -->
<g id="edge4_Node000004_Node000005" class="edge">
<title>Node4&#45;&gt;Node5</title>
<g id="a_edge4_Node000004_Node000005"><a xlink:title=" ">
<path fill="none" stroke="#63b8ff" d="M659.72,-474.22C671.27,-470.81 683.03,-466.26 693.25,-460.25 725.9,-441.04 754.91,-407.9 772.51,-385.07"/>
<polygon fill="#63b8ff" stroke="#63b8ff" points="775.21,-387.3 778.42,-377.2 769.62,-383.09 775.21,-387.3"/>
</a>
</g>
</g>
<!-- Node5&#45;&gt;Node5 -->
<g id="edge5_Node000005_Node000005" class="edge">
<title>Node5&#45;&gt;Node5</title>
<g id="a_edge5_Node000005_Node000005"><a xlink:title=" ">
<path fill="none" stroke="#63b8ff" d="M757.91,-375.99C751.11,-385.06 762.22,-393.5 791.25,-393.5 807.12,-393.5 817.64,-390.97 822.8,-387.2"/>
<polygon fill="#63b8ff" stroke="#63b8ff" points="826.23,-387.91 824.35,-377.48 819.32,-386.81 826.23,-387.91"/>
</a>
</g>
</g>
<!-- Node6&#45;&gt;Node6 -->
<g id="edge7_Node000006_Node000006" class="edge">
<title>Node6&#45;&gt;Node6</title>
<g id="a_edge7_Node000006_Node000006"><a xlink:title=" ">
<path fill="none" stroke="#63b8ff" d="M569.79,-333.99C562.99,-343.06 574.1,-351.5 603.12,-351.5 619,-351.5 629.52,-348.97 634.67,-345.2"/>
<polygon fill="#63b8ff" stroke="#63b8ff" points="638.11,-345.91 636.22,-335.48 631.19,-344.81 638.11,-345.91"/>
</a>
</g>
</g>
<!-- Node7&#45;&gt;Node7 -->
<g id="edge10_Node000007_Node000007" class="edge">
<title>Node7&#45;&gt;Node7</title>
<g id="a_edge10_Node000007_Node000007"><a xlink:title=" ">
<path fill="none" stroke="#63b8ff" d="M569.79,-400.99C562.99,-410.06 574.1,-418.5 603.12,-418.5 619,-418.5 629.52,-415.97 634.67,-412.2"/>
<polygon fill="#63b8ff" stroke="#63b8ff" points="638.11,-412.91 636.22,-402.48 631.19,-411.81 638.11,-412.91"/>
</a>
</g>
</g>
<!-- Node9&#45;&gt;Node5 -->
<g id="edge14_Node000009_Node000005" class="edge">
<title>Node9&#45;&gt;Node5</title>
<g id="a_edge14_Node000009_Node000005"><a xlink:title=" ">
<path fill="none" stroke="#63b8ff" d="M469.9,-293.99C527.81,-282.38 618.69,-271.29 693.25,-294.25 720.56,-302.66 747.07,-321.67 765.45,-337.14"/>
<polygon fill="#63b8ff" stroke="#63b8ff" points="763.06,-339.7 772.9,-343.62 767.65,-334.42 763.06,-339.7"/>
</a>
</g>
</g>
<!-- Node9&#45;&gt;Node6 -->
<g id="edge13_Node000009_Node000006" class="edge">
<title>Node9&#45;&gt;Node6</title>
<g id="a_edge13_Node000009_Node000006"><a xlink:title=" ">
<path fill="none" stroke="#63b8ff" d="M469.99,-311.3C490.27,-312.37 513.22,-313.58 534.23,-314.68"/>
<polygon fill="#63b8ff" stroke="#63b8ff" points="533.99,-318.17 544.16,-315.2 534.36,-311.18 533.99,-318.17"/>
</a>
</g>
</g>
<!-- Node9&#45;&gt;Node7 -->
<g id="edge15_Node000009_Node000007" class="edge">
<title>Node9&#45;&gt;Node7</title>
<g id="a_edge15_Node000009_Node000007"><a xlink:title=" ">
<path fill="none" stroke="#63b8ff" d="M438.65,-323.91C458.65,-335.12 486.91,-350 513,-360.25 521.82,-363.71 531.3,-366.91 540.67,-369.77"/>
<polygon fill="#63b8ff" stroke="#63b8ff" points="539.54,-373.09 550.12,-372.55 541.52,-366.37 539.54,-373.09"/>
</a>
</g>
</g>
<!-- Node11 -->
<g id="Node000011" class="node">
<title>Node11</title>
<g id="a_Node000011"><a xlink:href="group__gp__mynnedmf_ga31475b966d06e7a87123bc895999cbfd.html#ga31475b966d06e7a87123bc895999cbfd" target="_top" xlink:title="This subroutine calculates the mixing lengths.">
<polygon fill="white" stroke="#666666" points="661.75,-79.5 544.5,-79.5 544.5,-49 661.75,-49 661.75,-79.5"/>
<text xml:space="preserve" text-anchor="start" x="552.5" y="-66" font-family="Source Sans Pro" font-size="10.00">module_bl_mynn::mym</text>
<text xml:space="preserve" text-anchor="middle" x="603.12" y="-54.75" font-family="Source Sans Pro" font-size="10.00">_length</text>
</a>
</g>
</g>
<!-- Node10&#45;&gt;Node11 -->
<g id="edge17_Node000010_Node000011" class="edge">
<title>Node10&#45;&gt;Node11</title>
<g id="a_edge17_Node000010_Node000011"><a xlink:title=" ">
<path fill="none" stroke="#63b8ff" d="M469.99,-98.28C489.91,-93.15 512.38,-87.36 533.08,-82.03"/>
<polygon fill="#63b8ff" stroke="#63b8ff" points="533.76,-85.47 542.57,-79.59 532.02,-78.69 533.76,-85.47"/>
</a>
</g>
</g>
<!-- Node13 -->
<g id="Node000013" class="node">
<title>Node13</title>
<g id="a_Node000013"><a xlink:href="group__gp__mynnedmf_ga3d26bde7e00169d4fc2be40b6d685ff5.html#ga3d26bde7e00169d4fc2be40b6d685ff5" target="_top" xlink:title="This subroutine calculates the level 2, non&#45;dimensional wind shear &#160;and vertical temperature gradient...">
<polygon fill="white" stroke="#666666" points="661.75,-128.5 544.5,-128.5 544.5,-98 661.75,-98 661.75,-128.5"/>
<text xml:space="preserve" text-anchor="start" x="552.5" y="-115" font-family="Source Sans Pro" font-size="10.00">module_bl_mynn::mym</text>
<text xml:space="preserve" text-anchor="middle" x="603.12" y="-103.75" font-family="Source Sans Pro" font-size="10.00">_level2</text>
</a>
</g>
</g>
<!-- Node10&#45;&gt;Node13 -->
<g id="edge19_Node000010_Node000013" class="edge">
<title>Node10&#45;&gt;Node13</title>
<g id="a_edge19_Node000010_Node000013"><a xlink:title=" ">
<path fill="none" stroke="#63b8ff" d="M469.99,-113.25C489.81,-113.25 512.18,-113.25 532.79,-113.25"/>
<polygon fill="#63b8ff" stroke="#63b8ff" points="532.52,-116.75 542.52,-113.25 532.52,-109.75 532.52,-116.75"/>
</a>
</g>
</g>
<!-- Node12 -->
<g id="Node000012" class="node">
<title>Node12</title>
<g id="a_Node000012"><a xlink:href="group__gp__mynnedmf_gab2842ad87c88dcd589ebfb585862cd56.html#gab2842ad87c88dcd589ebfb585862cd56" target="_top" xlink:title="This subroutine was taken from the BouLac scheme in WRF&#45;ARW and modified for integration into the MYN...">
<polygon fill="white" stroke="#666666" points="853.25,-79.5 729.25,-79.5 729.25,-49 853.25,-49 853.25,-79.5"/>
<text xml:space="preserve" text-anchor="start" x="737.25" y="-66" font-family="Source Sans Pro" font-size="10.00">module_bl_mynn::boulac</text>
<text xml:space="preserve" text-anchor="middle" x="791.25" y="-54.75" font-family="Source Sans Pro" font-size="10.00">_length</text>
</a>
</g>
</g>
<!-- Node11&#45;&gt;Node12 -->
<g id="edge18_Node000011_Node000012" class="edge">
<title>Node11&#45;&gt;Node12</title>
<g id="a_edge18_Node000011_Node000012"><a xlink:title=" ">
<path fill="none" stroke="#63b8ff" d="M662,-64.25C679.58,-64.25 699.13,-64.25 717.57,-64.25"/>
<polygon fill="#63b8ff" stroke="#63b8ff" points="717.36,-67.75 727.35,-64.25 717.35,-60.75 717.36,-67.75"/>
</a>
</g>
</g>
<!-- Node15 -->
<g id="Node000015" class="node">
<title>Node15</title>
<g id="a_Node000015"><a xlink:href="group__gp__mynnedmf_ga4fa1805b4144393074c41831e22f9cf4.html#ga4fa1805b4144393074c41831e22f9cf4" target="_top" xlink:title=" ">
<polygon fill="white" stroke="#666666" points="666.62,-208.88 539.62,-208.88 539.62,-189.62 666.62,-189.62 666.62,-208.88"/>
<text xml:space="preserve" text-anchor="middle" x="603.12" y="-195.38" font-family="Source Sans Pro" font-size="10.00">module_bl_mynn::tridiag2</text>
</a>
</g>
</g>
<!-- Node14&#45;&gt;Node15 -->
<g id="edge21_Node000014_Node000015" class="edge">
<title>Node14&#45;&gt;Node15</title>
<g id="a_edge21_Node000014_Node000015"><a xlink:title=" ">
<path fill="none" stroke="#63b8ff" d="M469.99,-199.25C488.27,-199.25 508.7,-199.25 527.93,-199.25"/>
<polygon fill="#63b8ff" stroke="#63b8ff" points="527.89,-202.75 537.89,-199.25 527.89,-195.75 527.89,-202.75"/>
</a>
</g>
</g>
<!-- Node16&#45;&gt;Node11 -->
<g id="edge23_Node000016_Node000011" class="edge">
<title>Node16&#45;&gt;Node11</title>
<g id="a_edge23_Node000016_Node000011"><a xlink:title=" ">
<path fill="none" stroke="#63b8ff" d="M469.99,-64.25C489.81,-64.25 512.18,-64.25 532.79,-64.25"/>
<polygon fill="#63b8ff" stroke="#63b8ff" points="532.52,-67.75 542.52,-64.25 532.52,-60.75 532.52,-67.75"/>
</a>
</g>
</g>
<!-- Node16&#45;&gt;Node13 -->
<g id="edge24_Node000016_Node000013" class="edge">
<title>Node16&#45;&gt;Node13</title>
<g id="a_edge24_Node000016_Node000013"><a xlink:title=" ">
<path fill="none" stroke="#63b8ff" d="M469.99,-79.22C489.91,-84.35 512.38,-90.14 533.08,-95.47"/>
<polygon fill="#63b8ff" stroke="#63b8ff" points="532.02,-98.81 542.57,-97.91 533.76,-92.03 532.02,-98.81"/>
</a>
</g>
</g>
<!-- Node17&#45;&gt;Node5 -->
<g id="edge26_Node000017_Node000005" class="edge">
<title>Node17&#45;&gt;Node5</title>
<g id="a_edge26_Node000017_Node000005"><a xlink:title=" ">
<path fill="none" stroke="#63b8ff" d="M470.99,-244.34C529.75,-242.71 621.27,-246.37 693.25,-277.25 723.81,-290.36 751.86,-316.61 769.85,-336.09"/>
<polygon fill="#63b8ff" stroke="#63b8ff" points="767.1,-338.26 776.37,-343.37 772.31,-333.59 767.1,-338.26"/>
</a>
</g>
</g>
<!-- Node17&#45;&gt;Node15 -->
<g id="edge27_Node000017_Node000015" class="edge">
<title>Node17&#45;&gt;Node15</title>
<g id="a_edge27_Node000017_Node000015"><a xlink:title=" ">
<path fill="none" stroke="#63b8ff" d="M471.03,-233.01C496.95,-226.34 527.04,-218.59 551.86,-212.2"/>
<polygon fill="#63b8ff" stroke="#63b8ff" points="552.58,-215.63 561.39,-209.74 550.83,-208.85 552.58,-215.63"/>
</a>
</g>
</g>
</g>
</svg>
