<?xml version="1.0" encoding="UTF-8" standalone="no"?>
<!DOCTYPE svg PUBLIC "-//W3C//DTD SVG 1.1//EN"
 "http://www.w3.org/Graphics/SVG/1.1/DTD/svg11.dtd">
<!-- Generated by graphviz version 14.1.2 (20260124.0452)
 -->
<!-- Title: gfdl_cloud_microphys::gfdl_cloud_microphys_init Pages: 1 -->
<svg width="759pt" height="186pt"
 viewBox="0.00 0.00 759.00 186.00" xmlns="http://www.w3.org/2000/svg" xmlns:xlink="http://www.w3.org/1999/xlink">
<g id="graph0" class="graph" transform="scale(1 1) rotate(0) translate(4 181.5)">
<title>gfdl_cloud_microphys::gfdl_cloud_microphys_init</title>
<!-- Node1 -->
<g id="Node000001" class="node">
<title>Node1</title>
<g id="a_Node000001"><a xlink:title="The subroutine initializes the GFDL cloud microphysics.">
<polygon fill="#999999" stroke="#666666" points="134.5,-78.5 0,-78.5 0,-48 134.5,-48 134.5,-78.5"/>
<text xml:space="preserve" text-anchor="start" x="8" y="-65" font-family="Source Sans Pro" font-size="10.00">gfdl_cloud_microphys</text>
<text xml:space="preserve" text-anchor="middle" x="67.25" y="-53.75" font-family="Source Sans Pro" font-size="10.00">::gfdl_cloud_microphys_init</text>
</a>
</g>
</g>
<!-- Node2 -->
<g id="Node000002" class="node">
<title>Node2</title>
<g id="a_Node000002"><a xlink:href="group__mod__gfdl__cloud__mp_gacb9663cee42bc7d8c26e24ea3a400212.html#gacb9663cee42bc7d8c26e24ea3a400212" target="_top" xlink:title="The subroutine &#39;gfdl_cloud_microphys_init&#39; initializes the GFDL cloud microphysics.">
<polygon fill="white" stroke="#666666" points="311,-84.12 170.5,-84.12 170.5,-42.38 311,-42.38 311,-84.12"/>
<text xml:space="preserve" text-anchor="start" x="178.5" y="-70.62" font-family="Source Sans Pro" font-size="10.00">gfdl_cloud_microphys</text>
<text xml:space="preserve" text-anchor="start" x="178.5" y="-59.38" font-family="Source Sans Pro" font-size="10.00">_mod::gfdl_cloud_microphys</text>
<text xml:space="preserve" text-anchor="middle" x="240.75" y="-48.12" font-family="Source Sans Pro" font-size="10.00">_mod_init</text>
</a>
</g>
</g>
<!-- Node1&#45;&gt;Node2 -->
<g id="edge1_Node000001_Node000002" class="edge">
<title>Node1&#45;&gt;Node2</title>
<g id="a_edge1_Node000001_Node000002"><a xlink:title=" ">
<path fill="none" stroke="#63b8ff" d="M134.56,-63.25C142.5,-63.25 150.68,-63.25 158.8,-63.25"/>
<polygon fill="#63b8ff" stroke="#63b8ff" points="158.7,-66.75 168.7,-63.25 158.7,-59.75 158.7,-66.75"/>
</a>
</g>
</g>
<!-- Node3 -->
<g id="Node000003" class="node">
<title>Node3</title>
<g id="a_Node000003"><a xlink:href="group__mod__gfdl__cloud__mp_gae73658e16d99bd2fd887547ba13c0489.html#gae73658e16d99bd2fd887547ba13c0489" target="_top" xlink:title="The subroutine &#39;setup_con&#39; sets up constants and calls &#39;qsmith_init&#39;.">
<polygon fill="white" stroke="#666666" points="457.5,-103.5 347,-103.5 347,-73 457.5,-73 457.5,-103.5"/>
<text xml:space="preserve" text-anchor="start" x="355" y="-90" font-family="Source Sans Pro" font-size="10.00">gfdl_cloud_microphys</text>
<text xml:space="preserve" text-anchor="middle" x="402.25" y="-78.75" font-family="Source Sans Pro" font-size="10.00">_mod::setup_con</text>
</a>
</g>
</g>
<!-- Node2&#45;&gt;Node3 -->
<g id="edge2_Node000002_Node000003" class="edge">
<title>Node2&#45;&gt;Node3</title>
<g id="a_edge2_Node000002_Node000003"><a xlink:title=" ">
<path fill="none" stroke="#63b8ff" d="M311.25,-74.14C319.35,-75.41 327.59,-76.71 335.64,-77.97"/>
<polygon fill="#63b8ff" stroke="#63b8ff" points="334.93,-81.4 345.36,-79.49 336.02,-74.48 334.93,-81.4"/>
</a>
</g>
</g>
<!-- Node9 -->
<g id="Node000009" class="node">
<title>Node9</title>
<g id="a_Node000009"><a xlink:href="group__mod__gfdl__cloud__mp_ga9b7449b48c0d7ba5eab0eba122908d51.html#ga9b7449b48c0d7ba5eab0eba122908d51" target="_top" xlink:title="The subroutine sets up gfdl cloud microphysics parameters.">
<polygon fill="white" stroke="#666666" points="457.5,-54.5 347,-54.5 347,-24 457.5,-24 457.5,-54.5"/>
<text xml:space="preserve" text-anchor="start" x="355" y="-41" font-family="Source Sans Pro" font-size="10.00">gfdl_cloud_microphys</text>
<text xml:space="preserve" text-anchor="middle" x="402.25" y="-29.75" font-family="Source Sans Pro" font-size="10.00">_mod::setupm</text>
</a>
</g>
</g>
<!-- Node2&#45;&gt;Node9 -->
<g id="edge8_Node000002_Node000009" class="edge">
<title>Node2&#45;&gt;Node9</title>
<g id="a_edge8_Node000002_Node000009"><a xlink:title=" ">
<path fill="none" stroke="#63b8ff" d="M311.25,-52.79C319.35,-51.57 327.59,-50.33 335.64,-49.12"/>
<polygon fill="#63b8ff" stroke="#63b8ff" points="335.99,-52.61 345.35,-47.66 334.94,-45.69 335.99,-52.61"/>
</a>
</g>
</g>
<!-- Node4 -->
<g id="Node000004" class="node">
<title>Node4</title>
<g id="a_Node000004"><a xlink:href="group__mod__gfdl__cloud__mp_gac22a96714d2fdfba424e9b29c460874e.html#gac22a96714d2fdfba424e9b29c460874e" target="_top" xlink:title="The subroutine &#39;qsmith_init&#39; initializes lookup tables for saturation water vapor pressure for the fo...">
<polygon fill="white" stroke="#666666" points="604,-103.5 493.5,-103.5 493.5,-73 604,-73 604,-103.5"/>
<text xml:space="preserve" text-anchor="start" x="501.5" y="-90" font-family="Source Sans Pro" font-size="10.00">gfdl_cloud_microphys</text>
<text xml:space="preserve" text-anchor="middle" x="548.75" y="-78.75" font-family="Source Sans Pro" font-size="10.00">_mod::qsmith_init</text>
</a>
</g>
</g>
<!-- Node3&#45;&gt;Node4 -->
<g id="edge3_Node000003_Node000004" class="edge">
<title>Node3&#45;&gt;Node4</title>
<g id="a_edge3_Node000003_Node000004"><a xlink:title=" ">
<path fill="none" stroke="#63b8ff" d="M457.88,-88.25C465.61,-88.25 473.63,-88.25 481.55,-88.25"/>
<polygon fill="#63b8ff" stroke="#63b8ff" points="481.53,-91.75 491.53,-88.25 481.53,-84.75 481.53,-91.75"/>
</a>
</g>
</g>
<!-- Node5 -->
<g id="Node000005" class="node">
<title>Node5</title>
<g id="a_Node000005"><a xlink:href="group__mod__gfdl__cloud__mp_ga18d5c58ee290deae68744c2bec32c4c5.html#ga18d5c58ee290deae68744c2bec32c4c5" target="_top" xlink:title="saturation water vapor pressure table i">
<polygon fill="white" stroke="#666666" points="750.5,-177.5 640,-177.5 640,-147 750.5,-147 750.5,-177.5"/>
<text xml:space="preserve" text-anchor="start" x="648" y="-164" font-family="Source Sans Pro" font-size="10.00">gfdl_cloud_microphys</text>
<text xml:space="preserve" text-anchor="middle" x="695.25" y="-152.75" font-family="Source Sans Pro" font-size="10.00">_mod::qs_table</text>
</a>
</g>
</g>
<!-- Node4&#45;&gt;Node5 -->
<g id="edge4_Node000004_Node000005" class="edge">
<title>Node4&#45;&gt;Node5</title>
<g id="a_edge4_Node000004_Node000005"><a xlink:title=" ">
<path fill="none" stroke="#63b8ff" d="M577.55,-103.96C595.27,-113.81 618.8,-126.63 640,-137.25 642.91,-138.71 645.93,-140.19 648.97,-141.66"/>
<polygon fill="#63b8ff" stroke="#63b8ff" points="647.46,-144.81 657.99,-145.93 650.46,-138.49 647.46,-144.81"/>
</a>
</g>
</g>
<!-- Node6 -->
<g id="Node000006" class="node">
<title>Node6</title>
<g id="a_Node000006"><a xlink:href="group__mod__gfdl__cloud__mp_ga60322d5daf9ba9251ef2ed8c43d44fd2.html#ga60322d5daf9ba9251ef2ed8c43d44fd2" target="_top" xlink:title="saturation water vapor pressure table iii">
<polygon fill="white" stroke="#666666" points="750.5,-128.5 640,-128.5 640,-98 750.5,-98 750.5,-128.5"/>
<text xml:space="preserve" text-anchor="start" x="648" y="-115" font-family="Source Sans Pro" font-size="10.00">gfdl_cloud_microphys</text>
<text xml:space="preserve" text-anchor="middle" x="695.25" y="-103.75" font-family="Source Sans Pro" font-size="10.00">_mod::qs_table2</text>
</a>
</g>
</g>
<!-- Node4&#45;&gt;Node6 -->
<g id="edge5_Node000004_Node000006" class="edge">
<title>Node4&#45;&gt;Node6</title>
<g id="a_edge5_Node000004_Node000006"><a xlink:title=" ">
<path fill="none" stroke="#63b8ff" d="M604.38,-97.7C612.2,-99.05 620.32,-100.46 628.33,-101.84"/>
<polygon fill="#63b8ff" stroke="#63b8ff" points="627.6,-105.27 638.05,-103.53 628.8,-98.37 627.6,-105.27"/>
</a>
</g>
</g>
<!-- Node7 -->
<g id="Node000007" class="node">
<title>Node7</title>
<g id="a_Node000007"><a xlink:href="group__mod__gfdl__cloud__mp_ga21d253eb6564b469a272e71bbd227e6d.html#ga21d253eb6564b469a272e71bbd227e6d" target="_top" xlink:title="saturation water vapor pressure table iv">
<polygon fill="white" stroke="#666666" points="750.5,-79.5 640,-79.5 640,-49 750.5,-49 750.5,-79.5"/>
<text xml:space="preserve" text-anchor="start" x="648" y="-66" font-family="Source Sans Pro" font-size="10.00">gfdl_cloud_microphys</text>
<text xml:space="preserve" text-anchor="middle" x="695.25" y="-54.75" font-family="Source Sans Pro" font-size="10.00">_mod::qs_table3</text>
</a>
</g>
</g>
<!-- Node4&#45;&gt;Node7 -->
<g id="edge6_Node000004_Node000007" class="edge">
<title>Node4&#45;&gt;Node7</title>
<g id="a_edge6_Node000004_Node000007"><a xlink:title=" ">
<path fill="none" stroke="#63b8ff" d="M604.38,-79.18C612.2,-77.88 620.32,-76.53 628.33,-75.2"/>
<polygon fill="#63b8ff" stroke="#63b8ff" points="628.76,-78.68 638.05,-73.58 627.61,-71.77 628.76,-78.68"/>
</a>
</g>
</g>
<!-- Node8 -->
<g id="Node000008" class="node">
<title>Node8</title>
<g id="a_Node000008"><a xlink:href="group__mod__gfdl__cloud__mp_gad400136557e150361b753efa60a42d71.html#gad400136557e150361b753efa60a42d71" target="_top" xlink:title="saturation water vapor pressure table ii">
<polygon fill="white" stroke="#666666" points="750.5,-30.5 640,-30.5 640,0 750.5,0 750.5,-30.5"/>
<text xml:space="preserve" text-anchor="start" x="648" y="-17" font-family="Source Sans Pro" font-size="10.00">gfdl_cloud_microphys</text>
<text xml:space="preserve" text-anchor="middle" x="695.25" y="-5.75" font-family="Source Sans Pro" font-size="10.00">_mod::qs_tablew</text>
</a>
</g>
</g>
<!-- Node4&#45;&gt;Node8 -->
<g id="edge7_Node000004_Node000008" class="edge">
<title>Node4&#45;&gt;Node8</title>
<g id="a_edge7_Node000004_Node000008"><a xlink:title=" ">
<path fill="none" stroke="#63b8ff" d="M577.99,-72.7C595.67,-63.09 619.01,-50.66 640,-40.25 642.92,-38.8 645.94,-37.34 648.99,-35.87"/>
<polygon fill="#63b8ff" stroke="#63b8ff" points="650.47,-39.04 658.01,-31.61 647.48,-32.72 650.47,-39.04"/>
</a>
</g>
</g>
</g>
</svg>
