<?xml version="1.0" encoding="UTF-8" standalone="no"?>
<!DOCTYPE svg PUBLIC "-//W3C//DTD SVG 1.1//EN"
 "http://www.w3.org/Graphics/SVG/1.1/DTD/svg11.dtd">
<!-- Generated by graphviz version 14.1.2 (20260124.0452)
 -->
<!-- Title: module_sf_mynn::zolrib Pages: 1 -->
<svg width="434pt" height="526pt"
 viewBox="0.00 0.00 434.00 526.00" xmlns="http://www.w3.org/2000/svg" xmlns:xlink="http://www.w3.org/1999/xlink">
<g id="graph0" class="graph" transform="scale(1 1) rotate(0) translate(4 521.5)">
<title>module_sf_mynn::zolrib</title>
<!-- Node1 -->
<g id="Node000001" class="node">
<title>Node1</title>
<g id="a_Node000001"><a xlink:title=" ">
<polygon fill="#999999" stroke="#666666" points="119.5,-309.88 0,-309.88 0,-290.62 119.5,-290.62 119.5,-309.88"/>
<text xml:space="preserve" text-anchor="middle" x="59.75" y="-296.38" font-family="Source Sans Pro" font-size="10.00">module_sf_mynn::zolrib</text>
</a>
</g>
</g>
<!-- Node2 -->
<g id="Node000002" class="node">
<title>Node2</title>
<g id="a_Node000002"><a xlink:href="group__mynn__sfc_ga313671969a16aee828efb31d353b213c.html#ga313671969a16aee828efb31d353b213c" target="_top" xlink:title="This subroutine returns a more robust z/L that best matches the z/L from Hogstrom (1996) for unstable...">
<polygon fill="white" stroke="#666666" points="264.5,-482.5 163.75,-482.5 163.75,-452 264.5,-452 264.5,-482.5"/>
<text xml:space="preserve" text-anchor="start" x="171.75" y="-469" font-family="Source Sans Pro" font-size="10.00">module_sf_mynn::li</text>
<text xml:space="preserve" text-anchor="middle" x="214.12" y="-457.75" font-family="Source Sans Pro" font-size="10.00">_etal_2010</text>
</a>
</g>
</g>
<!-- Node1&#45;&gt;Node2 -->
<g id="edge1_Node000001_Node000002" class="edge">
<title>Node1&#45;&gt;Node2</title>
<g id="a_edge1_Node000001_Node000002"><a xlink:title=" ">
<path fill="none" stroke="#63b8ff" d="M64.98,-310.27C76.16,-335.67 108.87,-403.3 155.5,-442.25 156.94,-443.45 158.44,-444.6 160,-445.71"/>
<polygon fill="#63b8ff" stroke="#63b8ff" points="157.74,-448.43 168.08,-450.73 161.43,-442.48 157.74,-448.43"/>
</a>
</g>
</g>
<!-- Node3 -->
<g id="Node000003" class="node">
<title>Node3</title>
<g id="a_Node000003"><a xlink:href="group__mynn__sfc_ga2a33b37b24c6050511f00967992ece58.html#ga2a33b37b24c6050511f00967992ece58" target="_top" xlink:title=" ">
<polygon fill="white" stroke="#666666" points="271.25,-415.5 157,-415.5 157,-385 271.25,-385 271.25,-415.5"/>
<text xml:space="preserve" text-anchor="start" x="165" y="-402" font-family="Source Sans Pro" font-size="10.00">module_sf_mynn::psih</text>
<text xml:space="preserve" text-anchor="middle" x="214.12" y="-390.75" font-family="Source Sans Pro" font-size="10.00">_stable</text>
</a>
</g>
</g>
<!-- Node1&#45;&gt;Node3 -->
<g id="edge2_Node000001_Node000003" class="edge">
<title>Node1&#45;&gt;Node3</title>
<g id="a_edge2_Node000001_Node000003"><a xlink:title=" ">
<path fill="none" stroke="#63b8ff" d="M75.92,-310.2C100,-326.01 147.55,-357.22 179.85,-378.41"/>
<polygon fill="#63b8ff" stroke="#63b8ff" points="177.79,-381.25 188.07,-383.81 181.63,-375.39 177.79,-381.25"/>
</a>
</g>
</g>
<!-- Node6 -->
<g id="Node000006" class="node">
<title>Node6</title>
<g id="a_Node000006"><a xlink:href="group__mynn__sfc_ga6e10bc7bd36fcdbf2b555f49396c9eec.html#ga6e10bc7bd36fcdbf2b555f49396c9eec" target="_top" xlink:title=" ">
<polygon fill="white" stroke="#666666" points="271.25,-315.5 157,-315.5 157,-285 271.25,-285 271.25,-315.5"/>
<text xml:space="preserve" text-anchor="start" x="165" y="-302" font-family="Source Sans Pro" font-size="10.00">module_sf_mynn::psih</text>
<text xml:space="preserve" text-anchor="middle" x="214.12" y="-290.75" font-family="Source Sans Pro" font-size="10.00">_unstable</text>
</a>
</g>
</g>
<!-- Node1&#45;&gt;Node6 -->
<g id="edge8_Node000001_Node000006" class="edge">
<title>Node1&#45;&gt;Node6</title>
<g id="a_edge8_Node000001_Node000006"><a xlink:title=" ">
<path fill="none" stroke="#63b8ff" d="M119.66,-300.25C128.16,-300.25 136.97,-300.25 145.62,-300.25"/>
<polygon fill="#63b8ff" stroke="#63b8ff" points="145.36,-303.75 155.36,-300.25 145.36,-296.75 145.36,-303.75"/>
</a>
</g>
</g>
<!-- Node9 -->
<g id="Node000009" class="node">
<title>Node9</title>
<g id="a_Node000009"><a xlink:href="group__mynn__sfc_ga454633ed81c49d8e9468a102612e38d1.html#ga454633ed81c49d8e9468a102612e38d1" target="_top" xlink:title="look&#45;up table functions &#45; or, if beyond &#45;10 &lt; z/L &lt; 10, recalculate">
<polygon fill="white" stroke="#666666" points="272.75,-231.5 155.5,-231.5 155.5,-201 272.75,-201 272.75,-231.5"/>
<text xml:space="preserve" text-anchor="start" x="163.5" y="-218" font-family="Source Sans Pro" font-size="10.00">module_sf_mynn::psim</text>
<text xml:space="preserve" text-anchor="middle" x="214.12" y="-206.75" font-family="Source Sans Pro" font-size="10.00">_stable</text>
</a>
</g>
</g>
<!-- Node1&#45;&gt;Node9 -->
<g id="edge14_Node000001_Node000009" class="edge">
<title>Node1&#45;&gt;Node9</title>
<g id="a_edge14_Node000001_Node000009"><a xlink:title=" ">
<path fill="none" stroke="#63b8ff" d="M78.83,-290.28C102.34,-277.32 144.04,-254.34 174.75,-237.4"/>
<polygon fill="#63b8ff" stroke="#63b8ff" points="176.31,-240.54 183.38,-232.65 172.93,-234.41 176.31,-240.54"/>
</a>
</g>
</g>
<!-- Node12 -->
<g id="Node000012" class="node">
<title>Node12</title>
<g id="a_Node000012"><a xlink:href="group__mynn__sfc_ga885118af5fa22eb8e00039c531ddd8db.html#ga885118af5fa22eb8e00039c531ddd8db" target="_top" xlink:title=" ">
<polygon fill="white" stroke="#666666" points="272.75,-97.5 155.5,-97.5 155.5,-67 272.75,-67 272.75,-97.5"/>
<text xml:space="preserve" text-anchor="start" x="163.5" y="-84" font-family="Source Sans Pro" font-size="10.00">module_sf_mynn::psim</text>
<text xml:space="preserve" text-anchor="middle" x="214.12" y="-72.75" font-family="Source Sans Pro" font-size="10.00">_unstable</text>
</a>
</g>
</g>
<!-- Node1&#45;&gt;Node12 -->
<g id="edge20_Node000001_Node000012" class="edge">
<title>Node1&#45;&gt;Node12</title>
<g id="a_edge20_Node000001_Node000012"><a xlink:title=" ">
<path fill="none" stroke="#63b8ff" d="M67.69,-290.32C90.3,-257.97 162.29,-154.97 195.74,-107.13"/>
<polygon fill="#63b8ff" stroke="#63b8ff" points="198.53,-109.24 201.39,-99.04 192.79,-105.23 198.53,-109.24"/>
</a>
</g>
</g>
<!-- Node3&#45;&gt;Node3 -->
<g id="edge3_Node000003_Node000003" class="edge">
<title>Node3&#45;&gt;Node3</title>
<g id="a_edge3_Node000003_Node000003"><a xlink:title=" ">
<path fill="none" stroke="#63b8ff" d="M186.97,-415.99C181.43,-425.06 190.48,-433.5 214.12,-433.5 227.06,-433.5 235.62,-430.97 239.83,-427.2"/>
<polygon fill="#63b8ff" stroke="#63b8ff" points="243.27,-427.85 241.09,-417.49 236.33,-426.95 243.27,-427.85"/>
</a>
</g>
</g>
<!-- Node4 -->
<g id="Node000004" class="node">
<title>Node4</title>
<g id="a_Node000004"><a xlink:href="group__mynn__sfc_ga214373cdd64d666866d4c818b57a47ec.html#ga214373cdd64d666866d4c818b57a47ec" target="_top" xlink:title=" ">
<polygon fill="white" stroke="#666666" points="424.5,-499.5 310.25,-499.5 310.25,-469 424.5,-469 424.5,-499.5"/>
<text xml:space="preserve" text-anchor="start" x="318.25" y="-486" font-family="Source Sans Pro" font-size="10.00">module_sf_mynn::psih</text>
<text xml:space="preserve" text-anchor="middle" x="367.38" y="-474.75" font-family="Source Sans Pro" font-size="10.00">_stable_full</text>
</a>
</g>
</g>
<!-- Node3&#45;&gt;Node4 -->
<g id="edge4_Node000003_Node000004" class="edge">
<title>Node3&#45;&gt;Node4</title>
<g id="a_edge4_Node000003_Node000004"><a xlink:title=" ">
<path fill="none" stroke="#63b8ff" d="M237.63,-415.8C256.24,-428.33 283.61,-445.97 308.75,-459.25 311.6,-460.75 314.56,-462.24 317.56,-463.7"/>
<polygon fill="#63b8ff" stroke="#63b8ff" points="315.95,-466.81 326.49,-467.88 318.91,-460.47 315.95,-466.81"/>
</a>
</g>
</g>
<!-- Node5 -->
<g id="Node000005" class="node">
<title>Node5</title>
<g id="a_Node000005"><a xlink:href="group__mynn__sfc_ga2186e04d782df51218fbd03d31517fc8.html#ga2186e04d782df51218fbd03d31517fc8" target="_top" xlink:title=" ">
<polygon fill="white" stroke="#666666" points="424.5,-432.5 310.25,-432.5 310.25,-402 424.5,-402 424.5,-432.5"/>
<text xml:space="preserve" text-anchor="start" x="318.25" y="-419" font-family="Source Sans Pro" font-size="10.00">module_sf_mynn::psih</text>
<text xml:space="preserve" text-anchor="middle" x="367.38" y="-407.75" font-family="Source Sans Pro" font-size="10.00">_stable_full_gfs</text>
</a>
</g>
</g>
<!-- Node3&#45;&gt;Node5 -->
<g id="edge6_Node000003_Node000005" class="edge">
<title>Node3&#45;&gt;Node5</title>
<g id="a_edge6_Node000003_Node000005"><a xlink:title=" ">
<path fill="none" stroke="#63b8ff" d="M271.44,-406.58C280.24,-407.57 289.42,-408.6 298.44,-409.61"/>
<polygon fill="#63b8ff" stroke="#63b8ff" points="297.92,-413.08 308.25,-410.72 298.71,-406.12 297.92,-413.08"/>
</a>
</g>
</g>
<!-- Node4&#45;&gt;Node4 -->
<g id="edge5_Node000004_Node000004" class="edge">
<title>Node4&#45;&gt;Node4</title>
<g id="a_edge5_Node000004_Node000004"><a xlink:title=" ">
<path fill="none" stroke="#63b8ff" d="M340.22,-499.99C334.68,-509.06 343.73,-517.5 367.38,-517.5 380.31,-517.5 388.87,-514.97 393.08,-511.2"/>
<polygon fill="#63b8ff" stroke="#63b8ff" points="396.52,-511.85 394.34,-501.49 389.58,-510.95 396.52,-511.85"/>
</a>
</g>
</g>
<!-- Node5&#45;&gt;Node5 -->
<g id="edge7_Node000005_Node000005" class="edge">
<title>Node5&#45;&gt;Node5</title>
<g id="a_edge7_Node000005_Node000005"><a xlink:title=" ">
<path fill="none" stroke="#63b8ff" d="M340.22,-432.99C334.68,-442.06 343.73,-450.5 367.38,-450.5 380.31,-450.5 388.87,-447.97 393.08,-444.2"/>
<polygon fill="#63b8ff" stroke="#63b8ff" points="396.52,-444.85 394.34,-434.49 389.58,-443.95 396.52,-444.85"/>
</a>
</g>
</g>
<!-- Node6&#45;&gt;Node6 -->
<g id="edge9_Node000006_Node000006" class="edge">
<title>Node6&#45;&gt;Node6</title>
<g id="a_edge9_Node000006_Node000006"><a xlink:title=" ">
<path fill="none" stroke="#63b8ff" d="M186.97,-315.99C181.43,-325.06 190.48,-333.5 214.12,-333.5 227.06,-333.5 235.62,-330.97 239.83,-327.2"/>
<polygon fill="#63b8ff" stroke="#63b8ff" points="243.27,-327.85 241.09,-317.49 236.33,-326.95 243.27,-327.85"/>
</a>
</g>
</g>
<!-- Node7 -->
<g id="Node000007" class="node">
<title>Node7</title>
<g id="a_Node000007"><a xlink:href="group__mynn__sfc_gae46cc20c17ea15f5c9f5610ab6942073.html#gae46cc20c17ea15f5c9f5610ab6942073" target="_top" xlink:title=" ">
<polygon fill="white" stroke="#666666" points="424.5,-365.5 310.25,-365.5 310.25,-335 424.5,-335 424.5,-365.5"/>
<text xml:space="preserve" text-anchor="start" x="318.25" y="-352" font-family="Source Sans Pro" font-size="10.00">module_sf_mynn::psih</text>
<text xml:space="preserve" text-anchor="middle" x="367.38" y="-340.75" font-family="Source Sans Pro" font-size="10.00">_unstable_full</text>
</a>
</g>
</g>
<!-- Node6&#45;&gt;Node7 -->
<g id="edge10_Node000006_Node000007" class="edge">
<title>Node6&#45;&gt;Node7</title>
<g id="a_edge10_Node000006_Node000007"><a xlink:title=" ">
<path fill="none" stroke="#63b8ff" d="M262.57,-315.93C277,-320.7 293.03,-326 308.08,-330.98"/>
<polygon fill="#63b8ff" stroke="#63b8ff" points="306.81,-334.25 317.4,-334.06 309.01,-327.6 306.81,-334.25"/>
</a>
</g>
</g>
<!-- Node8 -->
<g id="Node000008" class="node">
<title>Node8</title>
<g id="a_Node000008"><a xlink:href="group__mynn__sfc_gaa556db3881e63c9fc578aafd1071e248.html#gaa556db3881e63c9fc578aafd1071e248" target="_top" xlink:title=" ">
<polygon fill="white" stroke="#666666" points="424.5,-298.5 310.25,-298.5 310.25,-268 424.5,-268 424.5,-298.5"/>
<text xml:space="preserve" text-anchor="start" x="318.25" y="-285" font-family="Source Sans Pro" font-size="10.00">module_sf_mynn::psih</text>
<text xml:space="preserve" text-anchor="middle" x="367.38" y="-273.75" font-family="Source Sans Pro" font-size="10.00">_unstable_full_gfs</text>
</a>
</g>
</g>
<!-- Node6&#45;&gt;Node8 -->
<g id="edge12_Node000006_Node000008" class="edge">
<title>Node6&#45;&gt;Node8</title>
<g id="a_edge12_Node000006_Node000008"><a xlink:title=" ">
<path fill="none" stroke="#63b8ff" d="M271.44,-293.92C280.24,-292.93 289.42,-291.9 298.44,-290.89"/>
<polygon fill="#63b8ff" stroke="#63b8ff" points="298.71,-294.38 308.25,-289.78 297.92,-287.42 298.71,-294.38"/>
</a>
</g>
</g>
<!-- Node7&#45;&gt;Node7 -->
<g id="edge11_Node000007_Node000007" class="edge">
<title>Node7&#45;&gt;Node7</title>
<g id="a_edge11_Node000007_Node000007"><a xlink:title=" ">
<path fill="none" stroke="#63b8ff" d="M340.22,-365.99C334.68,-375.06 343.73,-383.5 367.38,-383.5 380.31,-383.5 388.87,-380.97 393.08,-377.2"/>
<polygon fill="#63b8ff" stroke="#63b8ff" points="396.52,-377.85 394.34,-367.49 389.58,-376.95 396.52,-377.85"/>
</a>
</g>
</g>
<!-- Node8&#45;&gt;Node8 -->
<g id="edge13_Node000008_Node000008" class="edge">
<title>Node8&#45;&gt;Node8</title>
<g id="a_edge13_Node000008_Node000008"><a xlink:title=" ">
<path fill="none" stroke="#63b8ff" d="M340.22,-298.99C334.68,-308.06 343.73,-316.5 367.38,-316.5 380.31,-316.5 388.87,-313.97 393.08,-310.2"/>
<polygon fill="#63b8ff" stroke="#63b8ff" points="396.52,-310.85 394.34,-300.49 389.58,-309.95 396.52,-310.85"/>
</a>
</g>
</g>
<!-- Node9&#45;&gt;Node9 -->
<g id="edge15_Node000009_Node000009" class="edge">
<title>Node9&#45;&gt;Node9</title>
<g id="a_edge15_Node000009_Node000009"><a xlink:title=" ">
<path fill="none" stroke="#63b8ff" d="M186.97,-231.99C181.43,-241.06 190.48,-249.5 214.12,-249.5 227.06,-249.5 235.62,-246.97 239.83,-243.2"/>
<polygon fill="#63b8ff" stroke="#63b8ff" points="243.27,-243.85 241.09,-233.49 236.33,-242.95 243.27,-243.85"/>
</a>
</g>
</g>
<!-- Node10 -->
<g id="Node000010" class="node">
<title>Node10</title>
<g id="a_Node000010"><a xlink:href="group__mynn__sfc_gaaefd04628906b35b8ba54bbf62e6a78f.html#gaaefd04628906b35b8ba54bbf62e6a78f" target="_top" xlink:title=" ">
<polygon fill="white" stroke="#666666" points="426,-231.5 308.75,-231.5 308.75,-201 426,-201 426,-231.5"/>
<text xml:space="preserve" text-anchor="start" x="316.75" y="-218" font-family="Source Sans Pro" font-size="10.00">module_sf_mynn::psim</text>
<text xml:space="preserve" text-anchor="middle" x="367.38" y="-206.75" font-family="Source Sans Pro" font-size="10.00">_stable_full</text>
</a>
</g>
</g>
<!-- Node9&#45;&gt;Node10 -->
<g id="edge16_Node000009_Node000010" class="edge">
<title>Node9&#45;&gt;Node10</title>
<g id="a_edge16_Node000009_Node000010"><a xlink:title=" ">
<path fill="none" stroke="#63b8ff" d="M273.17,-216.25C281.1,-216.25 289.3,-216.25 297.39,-216.25"/>
<polygon fill="#63b8ff" stroke="#63b8ff" points="297.22,-219.75 307.22,-216.25 297.22,-212.75 297.22,-219.75"/>
</a>
</g>
</g>
<!-- Node11 -->
<g id="Node000011" class="node">
<title>Node11</title>
<g id="a_Node000011"><a xlink:href="group__mynn__sfc_ga12649bf97aa4974c23a7723c418907e0.html#ga12649bf97aa4974c23a7723c418907e0" target="_top" xlink:title=" ">
<polygon fill="white" stroke="#666666" points="426,-164.5 308.75,-164.5 308.75,-134 426,-134 426,-164.5"/>
<text xml:space="preserve" text-anchor="start" x="316.75" y="-151" font-family="Source Sans Pro" font-size="10.00">module_sf_mynn::psim</text>
<text xml:space="preserve" text-anchor="middle" x="367.38" y="-139.75" font-family="Source Sans Pro" font-size="10.00">_stable_full_gfs</text>
</a>
</g>
</g>
<!-- Node9&#45;&gt;Node11 -->
<g id="edge18_Node000009_Node000011" class="edge">
<title>Node9&#45;&gt;Node11</title>
<g id="a_edge18_Node000009_Node000011"><a xlink:title=" ">
<path fill="none" stroke="#63b8ff" d="M250.59,-200.54C271.47,-191.29 298.1,-179.49 320.56,-169.55"/>
<polygon fill="#63b8ff" stroke="#63b8ff" points="321.76,-172.84 329.49,-165.59 318.93,-166.44 321.76,-172.84"/>
</a>
</g>
</g>
<!-- Node10&#45;&gt;Node10 -->
<g id="edge17_Node000010_Node000010" class="edge">
<title>Node10&#45;&gt;Node10</title>
<g id="a_edge17_Node000010_Node000010"><a xlink:title=" ">
<path fill="none" stroke="#63b8ff" d="M340.22,-231.99C334.68,-241.06 343.73,-249.5 367.38,-249.5 380.31,-249.5 388.87,-246.97 393.08,-243.2"/>
<polygon fill="#63b8ff" stroke="#63b8ff" points="396.52,-243.85 394.34,-233.49 389.58,-242.95 396.52,-243.85"/>
</a>
</g>
</g>
<!-- Node11&#45;&gt;Node11 -->
<g id="edge19_Node000011_Node000011" class="edge">
<title>Node11&#45;&gt;Node11</title>
<g id="a_edge19_Node000011_Node000011"><a xlink:title=" ">
<path fill="none" stroke="#63b8ff" d="M340.22,-164.99C334.68,-174.06 343.73,-182.5 367.38,-182.5 380.31,-182.5 388.87,-179.97 393.08,-176.2"/>
<polygon fill="#63b8ff" stroke="#63b8ff" points="396.52,-176.85 394.34,-166.49 389.58,-175.95 396.52,-176.85"/>
</a>
</g>
</g>
<!-- Node12&#45;&gt;Node12 -->
<g id="edge21_Node000012_Node000012" class="edge">
<title>Node12&#45;&gt;Node12</title>
<g id="a_edge21_Node000012_Node000012"><a xlink:title=" ">
<path fill="none" stroke="#63b8ff" d="M186.97,-97.99C181.43,-107.06 190.48,-115.5 214.12,-115.5 227.06,-115.5 235.62,-112.97 239.83,-109.2"/>
<polygon fill="#63b8ff" stroke="#63b8ff" points="243.27,-109.85 241.09,-99.49 236.33,-108.95 243.27,-109.85"/>
</a>
</g>
</g>
<!-- Node13 -->
<g id="Node000013" class="node">
<title>Node13</title>
<g id="a_Node000013"><a xlink:href="group__mynn__sfc_gace0216359bf098fd5cc7fa7cb8b3b716.html#gace0216359bf098fd5cc7fa7cb8b3b716" target="_top" xlink:title=" ">
<polygon fill="white" stroke="#666666" points="426,-97.5 308.75,-97.5 308.75,-67 426,-67 426,-97.5"/>
<text xml:space="preserve" text-anchor="start" x="316.75" y="-84" font-family="Source Sans Pro" font-size="10.00">module_sf_mynn::psim</text>
<text xml:space="preserve" text-anchor="middle" x="367.38" y="-72.75" font-family="Source Sans Pro" font-size="10.00">_unstable_full</text>
</a>
</g>
</g>
<!-- Node12&#45;&gt;Node13 -->
<g id="edge22_Node000012_Node000013" class="edge">
<title>Node12&#45;&gt;Node13</title>
<g id="a_edge22_Node000012_Node000013"><a xlink:title=" ">
<path fill="none" stroke="#63b8ff" d="M273.17,-82.25C281.1,-82.25 289.3,-82.25 297.39,-82.25"/>
<polygon fill="#63b8ff" stroke="#63b8ff" points="297.22,-85.75 307.22,-82.25 297.22,-78.75 297.22,-85.75"/>
</a>
</g>
</g>
<!-- Node14 -->
<g id="Node000014" class="node">
<title>Node14</title>
<g id="a_Node000014"><a xlink:href="group__mynn__sfc_ga8e88a4eb2ee98eb538da06f42215e8b7.html#ga8e88a4eb2ee98eb538da06f42215e8b7" target="_top" xlink:title=" ">
<polygon fill="white" stroke="#666666" points="426,-30.5 308.75,-30.5 308.75,0 426,0 426,-30.5"/>
<text xml:space="preserve" text-anchor="start" x="316.75" y="-17" font-family="Source Sans Pro" font-size="10.00">module_sf_mynn::psim</text>
<text xml:space="preserve" text-anchor="middle" x="367.38" y="-5.75" font-family="Source Sans Pro" font-size="10.00">_unstable_full_gfs</text>
</a>
</g>
</g>
<!-- Node12&#45;&gt;Node14 -->
<g id="edge24_Node000012_Node000014" class="edge">
<title>Node12&#45;&gt;Node14</title>
<g id="a_edge24_Node000012_Node000014"><a xlink:title=" ">
<path fill="none" stroke="#63b8ff" d="M250.59,-66.54C271.47,-57.29 298.1,-45.49 320.56,-35.55"/>
<polygon fill="#63b8ff" stroke="#63b8ff" points="321.76,-38.84 329.49,-31.59 318.93,-32.44 321.76,-38.84"/>
</a>
</g>
</g>
<!-- Node13&#45;&gt;Node13 -->
<g id="edge23_Node000013_Node000013" class="edge">
<title>Node13&#45;&gt;Node13</title>
<g id="a_edge23_Node000013_Node000013"><a xlink:title=" ">
<path fill="none" stroke="#63b8ff" d="M340.22,-97.99C334.68,-107.06 343.73,-115.5 367.38,-115.5 380.31,-115.5 388.87,-112.97 393.08,-109.2"/>
<polygon fill="#63b8ff" stroke="#63b8ff" points="396.52,-109.85 394.34,-99.49 389.58,-108.95 396.52,-109.85"/>
</a>
</g>
</g>
<!-- Node14&#45;&gt;Node14 -->
<g id="edge25_Node000014_Node000014" class="edge">
<title>Node14&#45;&gt;Node14</title>
<g id="a_edge25_Node000014_Node000014"><a xlink:title=" ">
<path fill="none" stroke="#63b8ff" d="M340.22,-30.99C334.68,-40.06 343.73,-48.5 367.38,-48.5 380.31,-48.5 388.87,-45.97 393.08,-42.2"/>
<polygon fill="#63b8ff" stroke="#63b8ff" points="396.52,-42.85 394.34,-32.49 389.58,-41.95 396.52,-42.85"/>
</a>
</g>
</g>
</g>
</svg>
