<?xml version="1.0" encoding="UTF-8" standalone="no"?>
<!DOCTYPE svg PUBLIC "-//W3C//DTD SVG 1.1//EN"
 "http://www.w3.org/Graphics/SVG/1.1/DTD/svg11.dtd">
<!-- Generated by graphviz version 14.1.2 (20260124.0452)
 -->
<!-- Title: module_bl_mynn::condensation_edmf_r Pages: 1 -->
<svg width="312pt" height="57pt"
 viewBox="0.00 0.00 312.00 57.00" xmlns="http://www.w3.org/2000/svg" xmlns:xlink="http://www.w3.org/1999/xlink">
<g id="graph0" class="graph" transform="scale(1 1) rotate(0) translate(4 52.5)">
<title>module_bl_mynn::condensation_edmf_r</title>
<!-- Node1 -->
<g id="Node000001" class="node">
<title>Node1</title>
<g id="a_Node000001"><a xlink:title=" ">
<polygon fill="#999999" stroke="#666666" points="153.25,-30.5 0,-30.5 0,0 153.25,0 153.25,-30.5"/>
<text xml:space="preserve" text-anchor="start" x="8" y="-17" font-family="Source Sans Pro" font-size="10.00">module_bl_mynn::condensation</text>
<text xml:space="preserve" text-anchor="middle" x="76.62" y="-5.75" font-family="Source Sans Pro" font-size="10.00">_edmf_r</text>
</a>
</g>
</g>
<!-- Node2 -->
<g id="Node000002" class="node">
<title>Node2</title>
<g id="a_Node000002"><a xlink:href="group__gp__mynnedmf_ga41a4c80227342f73cd16d2ae814498d0.html#ga41a4c80227342f73cd16d2ae814498d0" target="_top" xlink:title="This function extends function &quot;esat&quot; and returns a &quot;blended&quot; saturation mixing ratio....">
<polygon fill="white" stroke="#666666" points="303.5,-30.5 189.25,-30.5 189.25,0 303.5,0 303.5,-30.5"/>
<text xml:space="preserve" text-anchor="start" x="197.25" y="-17" font-family="Source Sans Pro" font-size="10.00">module_bl_mynn::qsat</text>
<text xml:space="preserve" text-anchor="middle" x="246.38" y="-5.75" font-family="Source Sans Pro" font-size="10.00">_blend</text>
</a>
</g>
</g>
<!-- Node1&#45;&gt;Node2 -->
<g id="edge1_Node000001_Node000002" class="edge">
<title>Node1&#45;&gt;Node2</title>
<g id="a_edge1_Node000001_Node000002"><a xlink:title=" ">
<path fill="none" stroke="#63b8ff" d="M153.65,-15.25C161.68,-15.25 169.82,-15.25 177.75,-15.25"/>
<polygon fill="#63b8ff" stroke="#63b8ff" points="177.68,-18.75 187.68,-15.25 177.68,-11.75 177.68,-18.75"/>
</a>
</g>
</g>
<!-- Node2&#45;&gt;Node2 -->
<g id="edge2_Node000002_Node000002" class="edge">
<title>Node2&#45;&gt;Node2</title>
<g id="a_edge2_Node000002_Node000002"><a xlink:title=" ">
<path fill="none" stroke="#63b8ff" d="M216.3,-30.99C210.16,-40.06 220.18,-48.5 246.38,-48.5 260.7,-48.5 270.19,-45.97 274.84,-42.2"/>
<polygon fill="#63b8ff" stroke="#63b8ff" points="278.28,-42.88 276.24,-32.48 271.35,-41.88 278.28,-42.88"/>
</a>
</g>
</g>
</g>
</svg>
