<?xml version="1.0" encoding="UTF-8" standalone="no"?>
<!DOCTYPE svg PUBLIC "-//W3C//DTD SVG 1.1//EN"
 "http://www.w3.org/Graphics/SVG/1.1/DTD/svg11.dtd">
<!-- Generated by graphviz version 14.1.2 (20260124.0452)
 -->
<!-- Title: mp_thompson::mp_thompson_init Pages: 1 -->
<!--zoomable 445 -->

<svg id="main" version="1.1" xmlns="http://www.w3.org/2000/svg" xmlns:xlink="http://www.w3.org/1999/xlink" xml:space="preserve" onload="init(evt)">

<style type="text/css"><![CDATA[
.node, .edge {opacity: 0.7;}
.node.selected, .edge.selected {opacity: 1;}
.edge:hover path { stroke: red; }
.edge:hover polygon { stroke: red; fill: red; }
]]></style>

<defs>
  <circle id="rim" cx="0" cy="0" r="7"/>
  <circle id="rim2" cx="0" cy="0" r="3.5"/>
  <g id="zoomPlus">
    <use xlink:href="#rim" fill="#404040"><set attributeName="fill" to="#808080" begin="zoomplus.mouseover" end="zoomplus.mouseout"/></use>
    <path d="M-4,0h8M0,-4v8" fill="none" stroke="white" stroke-width="1.5" pointer-events="none"/>
  </g>
  <g id="zoomMin">
    <use xlink:href="#rim" fill="#404040"><set attributeName="fill" to="#808080" begin="zoomminus.mouseover" end="zoomminus.mouseout"/></use>
    <path d="M-4,0h8" fill="none" stroke="white" stroke-width="1.5" pointer-events="none"/>
  </g>
  <g id="arrowUp" transform="translate(30 24)">
    <use xlink:href="#rim"/>
    <path pointer-events="none" fill="none" stroke="white" stroke-width="1.5" d="M0,-3.0v7 M-2.5,-0.5L0,-3.0L2.5,-0.5"/>
  </g>
  <g id="arrowRight" transform="rotate(90) translate(36 -43)">
    <use xlink:href="#rim"/>
    <path pointer-events="none" fill="none" stroke="white" stroke-width="1.5" d="M0,-3.0v7 M-2.5,-0.5L0,-3.0L2.5,-0.5"/>
  </g>
  <g id="arrowDown" transform="rotate(180) translate(-30 -48)">
    <use xlink:href="#rim"/>
    <path pointer-events="none" fill="none" stroke="white" stroke-width="1.5" d="M0,-3.0v7 M-2.5,-0.5L0,-3.0L2.5,-0.5"/>
  </g>
  <g id="arrowLeft" transform="rotate(270) translate(-36 17)">
    <use xlink:href="#rim"/>
    <path pointer-events="none" fill="none" stroke="white" stroke-width="1.5" d="M0,-3.0v7 M-2.5,-0.5L0,-3.0L2.5,-0.5"/>
  </g>
  <g id="resetDef">
    <use xlink:href="#rim2" fill="#404040"><set attributeName="fill" to="#808080" begin="reset.mouseover" end="reset.mouseout"/></use>
  </g>
</defs>
<script type="application/ecmascript">
var viewWidth = 979;
var viewHeight = 445;
var sectionId = 'dynsection-0';
</script>
<script type="application/ecmascript" xlink:href="svg.min.js"/>
<svg id="graph" class="graph">
<g id="viewport">
<title>mp_thompson::mp_thompson_init</title>
<!-- Node1 -->
<g id="Node000001" class="node">
<title>Node1</title>
<g id="a_Node000001"><a xlink:title="This subroutine is a wrapper around the actual thompson_init().">
<polygon fill="#999999" stroke="#666666" points="163,-290.81 0,-290.81 0,-271.56 163,-271.56 163,-290.81"/>
<text xml:space="preserve" text-anchor="middle" x="81.5" y="-277.31" font-family="Source Sans Pro" font-size="10.00">mp_thompson::mp_thompson_init</text>
</a>
</g>
</g>
<!-- Node2 -->
<g id="Node000002" class="node">
<title>Node2</title>
<g id="a_Node000002"><a xlink:href="group__aathompson_gabadc55a2eccf9a0fabe07a0dc44a5ae7.html#gabadc55a2eccf9a0fabe07a0dc44a5ae7" target="_top" xlink:title=" ">
<polygon fill="white" stroke="#666666" points="350.75,-419.06 199,-419.06 199,-377.31 350.75,-377.31 350.75,-419.06"/>
<text xml:space="preserve" text-anchor="start" x="207" y="-405.56" font-family="Source Sans Pro" font-size="10.00">module_mp_thompson</text>
<text xml:space="preserve" text-anchor="start" x="207" y="-394.31" font-family="Source Sans Pro" font-size="10.00">_make_number_concentrations</text>
<text xml:space="preserve" text-anchor="middle" x="274.88" y="-383.06" font-family="Source Sans Pro" font-size="10.00">::make_dropletnumber</text>
</a>
</g>
</g>
<!-- Node1&#45;&gt;Node2 -->
<g id="edge1_Node000001_Node000002" class="edge">
<title>Node1&#45;&gt;Node2</title>
<g id="a_edge1_Node000001_Node000002"><a xlink:title=" ">
<path fill="none" stroke="#63b8ff" d="M93.71,-291.15C113.72,-308.55 157.39,-344.85 199,-368.19 201.32,-369.49 203.71,-370.76 206.14,-372"/>
<polygon fill="#63b8ff" stroke="#63b8ff" points="204.44,-375.07 214.97,-376.27 207.48,-368.77 204.44,-375.07"/>
</a>
</g>
</g>
<!-- Node3 -->
<g id="Node000003" class="node">
<title>Node3</title>
<g id="a_Node000003"><a xlink:href="group__aathompson_gae08f6576724b2eb553528c40ce5ee494.html#gae08f6576724b2eb553528c40ce5ee494" target="_top" xlink:title="Table of lookup values of radiative effective radius of ice crystals as a function of Temperature fro...">
<polygon fill="white" stroke="#666666" points="350.75,-341.06 199,-341.06 199,-299.31 350.75,-299.31 350.75,-341.06"/>
<text xml:space="preserve" text-anchor="start" x="207" y="-327.56" font-family="Source Sans Pro" font-size="10.00">module_mp_thompson</text>
<text xml:space="preserve" text-anchor="start" x="207" y="-316.31" font-family="Source Sans Pro" font-size="10.00">_make_number_concentrations</text>
<text xml:space="preserve" text-anchor="middle" x="274.88" y="-305.06" font-family="Source Sans Pro" font-size="10.00">::make_icenumber</text>
</a>
</g>
</g>
<!-- Node1&#45;&gt;Node3 -->
<g id="edge3_Node000001_Node000003" class="edge">
<title>Node1&#45;&gt;Node3</title>
<g id="a_edge3_Node000001_Node000003"><a xlink:title=" ">
<path fill="none" stroke="#63b8ff" d="M131.78,-291.23C148.82,-294.7 168.44,-298.7 187.56,-302.6"/>
<polygon fill="#63b8ff" stroke="#63b8ff" points="186.76,-306.01 197.25,-304.57 188.15,-299.15 186.76,-306.01"/>
</a>
</g>
</g>
<!-- Node4 -->
<g id="Node000004" class="node">
<title>Node4</title>
<g id="a_Node000004"><a xlink:href="group__aathompson_ga7c3bd9f7fe2f451e14dfdb0c548aea59.html#ga7c3bd9f7fe2f451e14dfdb0c548aea59" target="_top" xlink:title=" ">
<polygon fill="white" stroke="#666666" points="350.75,-263.06 199,-263.06 199,-221.31 350.75,-221.31 350.75,-263.06"/>
<text xml:space="preserve" text-anchor="start" x="207" y="-249.56" font-family="Source Sans Pro" font-size="10.00">module_mp_thompson</text>
<text xml:space="preserve" text-anchor="start" x="207" y="-238.31" font-family="Source Sans Pro" font-size="10.00">_make_number_concentrations</text>
<text xml:space="preserve" text-anchor="middle" x="274.88" y="-227.06" font-family="Source Sans Pro" font-size="10.00">::make_rainnumber</text>
</a>
</g>
</g>
<!-- Node1&#45;&gt;Node4 -->
<g id="edge5_Node000001_Node000004" class="edge">
<title>Node1&#45;&gt;Node4</title>
<g id="a_edge5_Node000001_Node000004"><a xlink:title=" ">
<path fill="none" stroke="#63b8ff" d="M131.78,-271.14C148.82,-267.67 168.44,-263.67 187.56,-259.78"/>
<polygon fill="#63b8ff" stroke="#63b8ff" points="188.15,-263.23 197.25,-257.8 186.76,-256.37 188.15,-263.23"/>
</a>
</g>
</g>
<!-- Node5 -->
<g id="Node000005" class="node">
<title>Node5</title>
<g id="a_Node000005"><a xlink:href="group__aathompson_ga913721b93920f568db16540ff0dac1e9.html#ga913721b93920f568db16540ff0dac1e9" target="_top" xlink:title="This subroutine calculates simplified cloud species equations and create lookup tables in Thomspson s...">
<polygon fill="white" stroke="#666666" points="332,-203.44 217.75,-203.44 217.75,-172.94 332,-172.94 332,-203.44"/>
<text xml:space="preserve" text-anchor="start" x="225.75" y="-189.94" font-family="Source Sans Pro" font-size="10.00">module_mp_thompson</text>
<text xml:space="preserve" text-anchor="middle" x="274.88" y="-178.69" font-family="Source Sans Pro" font-size="10.00">::thompson_init</text>
</a>
</g>
</g>
<!-- Node1&#45;&gt;Node5 -->
<g id="edge7_Node000001_Node000005" class="edge">
<title>Node1&#45;&gt;Node5</title>
<g id="a_edge7_Node000001_Node000005"><a xlink:title=" ">
<path fill="none" stroke="#63b8ff" d="M97,-271.14C118.49,-256.6 160.41,-229.54 199,-212.19 202.3,-210.71 205.72,-209.27 209.2,-207.89"/>
<polygon fill="#63b8ff" stroke="#63b8ff" points="210.2,-211.26 218.33,-204.46 207.74,-204.7 210.2,-211.26"/>
</a>
</g>
</g>
<!-- Node2&#45;&gt;Node2 -->
<g id="edge2_Node000002_Node000002" class="edge">
<title>Node2&#45;&gt;Node2</title>
<g id="a_edge2_Node000002_Node000002"><a xlink:title=" ">
<path fill="none" stroke="#63b8ff" d="M243.68,-419.38C240.71,-428.86 251.11,-437.06 274.88,-437.06 288.61,-437.06 297.89,-434.32 302.69,-430.18"/>
<polygon fill="#63b8ff" stroke="#63b8ff" points="305.97,-431.42 305.62,-420.83 299.29,-429.32 305.97,-431.42"/>
</a>
</g>
</g>
<!-- Node3&#45;&gt;Node3 -->
<g id="edge4_Node000003_Node000003" class="edge">
<title>Node3&#45;&gt;Node3</title>
<g id="a_edge4_Node000003_Node000003"><a xlink:title=" ">
<path fill="none" stroke="#63b8ff" d="M243.68,-341.38C240.71,-350.86 251.11,-359.06 274.88,-359.06 288.61,-359.06 297.89,-356.32 302.69,-352.18"/>
<polygon fill="#63b8ff" stroke="#63b8ff" points="305.97,-353.42 305.62,-342.83 299.29,-351.32 305.97,-353.42"/>
</a>
</g>
</g>
<!-- Node4&#45;&gt;Node4 -->
<g id="edge6_Node000004_Node000004" class="edge">
<title>Node4&#45;&gt;Node4</title>
<g id="a_edge6_Node000004_Node000004"><a xlink:title=" ">
<path fill="none" stroke="#63b8ff" d="M243.68,-263.38C240.71,-272.86 251.11,-281.06 274.88,-281.06 288.61,-281.06 297.89,-278.32 302.69,-274.18"/>
<polygon fill="#63b8ff" stroke="#63b8ff" points="305.97,-275.42 305.62,-264.83 299.29,-273.32 305.97,-275.42"/>
</a>
</g>
</g>
<!-- Node6 -->
<g id="Node000006" class="node">
<title>Node6</title>
<g id="a_Node000006"><a xlink:href="group__aathompson_ga34268e7843bcf03d55653da295c51c0c.html#ga34268e7843bcf03d55653da295c51c0c" target="_top" xlink:title="This is a literal adaptation of Bigg (1954) probability of drops of a particular volume freezing....">
<polygon fill="white" stroke="#666666" points="501,-399.44 386.75,-399.44 386.75,-368.94 501,-368.94 501,-399.44"/>
<text xml:space="preserve" text-anchor="start" x="394.75" y="-385.94" font-family="Source Sans Pro" font-size="10.00">module_mp_thompson</text>
<text xml:space="preserve" text-anchor="middle" x="443.88" y="-374.69" font-family="Source Sans Pro" font-size="10.00">::freezeh2o</text>
</a>
</g>
</g>
<!-- Node5&#45;&gt;Node6 -->
<g id="edge8_Node000005_Node000006" class="edge">
<title>Node5&#45;&gt;Node6</title>
<g id="a_edge8_Node000005_Node000006"><a xlink:title=" ">
<path fill="none" stroke="#63b8ff" d="M332.4,-199.19C339.25,-202.46 345.63,-206.7 350.75,-212.19 396.62,-261.39 343.63,-307.57 386.75,-359.19 387.41,-359.98 388.1,-360.74 388.81,-361.48"/>
<polygon fill="#63b8ff" stroke="#63b8ff" points="386.25,-363.9 396.18,-367.59 390.72,-358.52 386.25,-363.9"/>
</a>
</g>
</g>
<!-- Node7 -->
<g id="Node000007" class="node">
<title>Node7</title>
<g id="a_Node000007"><a xlink:href="group__aathompson_ga38c4bc57c8dd450c76cc65b1991cf23d.html#ga38c4bc57c8dd450c76cc65b1991cf23d" target="_top" xlink:title="Cloud ice converting to snow since portion greater than min snow size. Given cloud ice content (kg/m*...">
<polygon fill="white" stroke="#666666" points="501,-350.44 386.75,-350.44 386.75,-319.94 501,-319.94 501,-350.44"/>
<text xml:space="preserve" text-anchor="start" x="394.75" y="-336.94" font-family="Source Sans Pro" font-size="10.00">module_mp_thompson</text>
<text xml:space="preserve" text-anchor="middle" x="443.88" y="-325.69" font-family="Source Sans Pro" font-size="10.00">::qi_aut_qs</text>
</a>
</g>
</g>
<!-- Node5&#45;&gt;Node7 -->
<g id="edge9_Node000005_Node000007" class="edge">
<title>Node5&#45;&gt;Node7</title>
<g id="a_edge9_Node000005_Node000007"><a xlink:title=" ">
<path fill="none" stroke="#63b8ff" d="M332.22,-199.91C339.02,-203.07 345.43,-207.09 350.75,-212.19 384.24,-244.31 355.06,-276.3 386.75,-310.19 387.59,-311.08 388.46,-311.95 389.37,-312.79"/>
<polygon fill="#63b8ff" stroke="#63b8ff" points="387.01,-315.39 397.09,-318.64 391.24,-309.81 387.01,-315.39"/>
</a>
</g>
</g>
<!-- Node12 -->
<g id="Node000012" class="node">
<title>Node12</title>
<g id="a_Node000012"><a xlink:href="group__aathompson_gac898e25fc9f98509e6110b13be2a0f47.html#gac898e25fc9f98509e6110b13be2a0f47" target="_top" xlink:title="Rain collecting graupel (and inverse). Explicit CE integration.">
<polygon fill="white" stroke="#666666" points="501,-301.44 386.75,-301.44 386.75,-270.94 501,-270.94 501,-301.44"/>
<text xml:space="preserve" text-anchor="start" x="394.75" y="-287.94" font-family="Source Sans Pro" font-size="10.00">module_mp_thompson</text>
<text xml:space="preserve" text-anchor="middle" x="443.88" y="-276.69" font-family="Source Sans Pro" font-size="10.00">::qr_acr_qg</text>
</a>
</g>
</g>
<!-- Node5&#45;&gt;Node12 -->
<g id="edge17_Node000005_Node000012" class="edge">
<title>Node5&#45;&gt;Node12</title>
<g id="a_edge17_Node000005_Node000012"><a xlink:title=" ">
<path fill="none" stroke="#63b8ff" d="M332.15,-201.89C338.73,-204.72 345.1,-208.12 350.75,-212.19 372.69,-227.97 365.71,-244.24 386.75,-261.19 388.23,-262.38 389.79,-263.54 391.39,-264.64"/>
<polygon fill="#63b8ff" stroke="#63b8ff" points="389.33,-267.49 399.69,-269.7 392.98,-261.51 389.33,-267.49"/>
</a>
</g>
</g>
<!-- Node13 -->
<g id="Node000013" class="node">
<title>Node13</title>
<g id="a_Node000013"><a xlink:href="group__aathompson_gabcd924082fb7889d94345fcd108bc7ae.html#gabcd924082fb7889d94345fcd108bc7ae" target="_top" xlink:title="Rain collecting snow (and inverse). Explicit CE integration.">
<polygon fill="white" stroke="#666666" points="501,-252.44 386.75,-252.44 386.75,-221.94 501,-221.94 501,-252.44"/>
<text xml:space="preserve" text-anchor="start" x="394.75" y="-238.94" font-family="Source Sans Pro" font-size="10.00">module_mp_thompson</text>
<text xml:space="preserve" text-anchor="middle" x="443.88" y="-227.69" font-family="Source Sans Pro" font-size="10.00">::qr_acr_qs</text>
</a>
</g>
</g>
<!-- Node5&#45;&gt;Node13 -->
<g id="edge18_Node000005_Node000013" class="edge">
<title>Node5&#45;&gt;Node13</title>
<g id="a_edge18_Node000005_Node000013"><a xlink:title=" ">
<path fill="none" stroke="#63b8ff" d="M329.17,-203.83C344.76,-208.4 361.98,-213.45 378.19,-218.21"/>
<polygon fill="#63b8ff" stroke="#63b8ff" points="377.19,-221.56 387.77,-221.02 379.16,-214.85 377.19,-221.56"/>
</a>
</g>
</g>
<!-- Node14 -->
<g id="Node000014" class="node">
<title>Node14</title>
<g id="a_Node000014"><a xlink:href="group__aathompson_ga895d527bfbacc127a0fc6248f392b782.html#ga895d527bfbacc127a0fc6248f392b782" target="_top" xlink:title="Fill the table of CCN activation data created from parcel model run by Trude Eidhammer with inputs of...">
<polygon fill="white" stroke="#666666" points="501,-203.44 386.75,-203.44 386.75,-172.94 501,-172.94 501,-203.44"/>
<text xml:space="preserve" text-anchor="start" x="394.75" y="-189.94" font-family="Source Sans Pro" font-size="10.00">module_mp_thompson</text>
<text xml:space="preserve" text-anchor="middle" x="443.88" y="-178.69" font-family="Source Sans Pro" font-size="10.00">::table_ccnact</text>
</a>
</g>
</g>
<!-- Node5&#45;&gt;Node14 -->
<g id="edge19_Node000005_Node000014" class="edge">
<title>Node5&#45;&gt;Node14</title>
<g id="a_edge19_Node000005_Node000014"><a xlink:title=" ">
<path fill="none" stroke="#63b8ff" d="M332.41,-188.19C346.15,-188.19 360.98,-188.19 375.18,-188.19"/>
<polygon fill="#63b8ff" stroke="#63b8ff" points="374.88,-191.69 384.88,-188.19 374.88,-184.69 374.88,-191.69"/>
</a>
</g>
</g>
<!-- Node15 -->
<g id="Node000015" class="node">
<title>Node15</title>
<g id="a_Node000015"><a xlink:href="group__aathompson_gac5a7433b5bd00387f9fd1e9aa9356dc4.html#gac5a7433b5bd00387f9fd1e9aa9356dc4" target="_top" xlink:title="Integrate rain size distribution from zero to D&#45;star to compute the number of drops smaller than D&#45;st...">
<polygon fill="white" stroke="#666666" points="501,-154.44 386.75,-154.44 386.75,-123.94 501,-123.94 501,-154.44"/>
<text xml:space="preserve" text-anchor="start" x="394.75" y="-140.94" font-family="Source Sans Pro" font-size="10.00">module_mp_thompson</text>
<text xml:space="preserve" text-anchor="middle" x="443.88" y="-129.69" font-family="Source Sans Pro" font-size="10.00">::table_dropevap</text>
</a>
</g>
</g>
<!-- Node5&#45;&gt;Node15 -->
<g id="edge20_Node000005_Node000015" class="edge">
<title>Node5&#45;&gt;Node15</title>
<g id="a_edge20_Node000005_Node000015"><a xlink:title=" ">
<path fill="none" stroke="#63b8ff" d="M329.17,-172.55C344.76,-167.98 361.98,-162.93 378.19,-158.17"/>
<polygon fill="#63b8ff" stroke="#63b8ff" points="379.16,-161.53 387.77,-155.36 377.19,-154.81 379.16,-161.53"/>
</a>
</g>
</g>
<!-- Node16 -->
<g id="Node000016" class="node">
<title>Node16</title>
<g id="a_Node000016"><a xlink:href="group__aathompson_gaafc69c30a2dad10d06a05f1b7239926c.html#gaafc69c30a2dad10d06a05f1b7239926c" target="_top" xlink:title="Variable collision efficiency for rain collecting cloud water using method of Beard and Grover,...">
<polygon fill="white" stroke="#666666" points="501,-105.44 386.75,-105.44 386.75,-74.94 501,-74.94 501,-105.44"/>
<text xml:space="preserve" text-anchor="start" x="394.75" y="-91.94" font-family="Source Sans Pro" font-size="10.00">module_mp_thompson</text>
<text xml:space="preserve" text-anchor="middle" x="443.88" y="-80.69" font-family="Source Sans Pro" font-size="10.00">::table_efrw</text>
</a>
</g>
</g>
<!-- Node5&#45;&gt;Node16 -->
<g id="edge21_Node000005_Node000016" class="edge">
<title>Node5&#45;&gt;Node16</title>
<g id="a_edge21_Node000005_Node000016"><a xlink:title=" ">
<path fill="none" stroke="#63b8ff" d="M297.31,-172.56C319.18,-156.98 354.4,-132.89 386.75,-115.19 389.42,-113.73 392.19,-112.28 395.01,-110.86"/>
<polygon fill="#63b8ff" stroke="#63b8ff" points="396.48,-114.04 403.96,-106.55 393.44,-107.74 396.48,-114.04"/>
</a>
</g>
</g>
<!-- Node17 -->
<g id="Node000017" class="node">
<title>Node17</title>
<g id="a_Node000017"><a xlink:href="group__aathompson_gab74dffc6baa178d41426700bfd1a08c6.html#gab74dffc6baa178d41426700bfd1a08c6" target="_top" xlink:title="Variable collision efficiency for snow collecting cloud water using method of Wang and Ji,...">
<polygon fill="white" stroke="#666666" points="501,-56.44 386.75,-56.44 386.75,-25.94 501,-25.94 501,-56.44"/>
<text xml:space="preserve" text-anchor="start" x="394.75" y="-42.94" font-family="Source Sans Pro" font-size="10.00">module_mp_thompson</text>
<text xml:space="preserve" text-anchor="middle" x="443.88" y="-31.69" font-family="Source Sans Pro" font-size="10.00">::table_efsw</text>
</a>
</g>
</g>
<!-- Node5&#45;&gt;Node17 -->
<g id="edge22_Node000005_Node000017" class="edge">
<title>Node5&#45;&gt;Node17</title>
<g id="a_edge22_Node000005_Node000017"><a xlink:title=" ">
<path fill="none" stroke="#63b8ff" d="M286.54,-172.81C304.63,-147.65 343.61,-97.38 386.75,-66.19 388.53,-64.9 390.39,-63.66 392.31,-62.46"/>
<polygon fill="#63b8ff" stroke="#63b8ff" points="393.9,-65.58 400.88,-57.61 390.46,-59.48 393.9,-65.58"/>
</a>
</g>
</g>
<!-- Node18 -->
<g id="Node000018" class="node">
<title>Node18</title>
<g id="a_Node000018"><a xlink:href="group__aathompson_ga8a455cb4e751f42fa53a31bb47649767.html#ga8a455cb4e751f42fa53a31bb47649767" target="_top" xlink:title=" ">
<polygon fill="white" stroke="#666666" points="651.25,-138.44 537,-138.44 537,-107.94 651.25,-107.94 651.25,-138.44"/>
<text xml:space="preserve" text-anchor="start" x="545" y="-124.94" font-family="Source Sans Pro" font-size="10.00">module_mp_thompson</text>
<text xml:space="preserve" text-anchor="middle" x="594.12" y="-113.69" font-family="Source Sans Pro" font-size="10.00">::wgamma</text>
</a>
</g>
</g>
<!-- Node5&#45;&gt;Node18 -->
<g id="edge23_Node000005_Node000018" class="edge">
<title>Node5&#45;&gt;Node18</title>
<g id="a_edge23_Node000005_Node000018"><a xlink:title=" ">
<path fill="none" stroke="#63b8ff" d="M280.38,-172.6C291.55,-137.2 324.26,-51.15 386.75,-17.19 431.37,7.06 454.8,3.87 501,-17.19 537.07,-33.63 564.49,-71.95 579.69,-97.72"/>
<polygon fill="#63b8ff" stroke="#63b8ff" points="576.55,-99.27 584.52,-106.25 582.64,-95.82 576.55,-99.27"/>
</a>
</g>
</g>
<!-- Node8 -->
<g id="Node000008" class="node">
<title>Node8</title>
<g id="a_Node000008"><a xlink:href="group__aathompson_ga5126f9b7d52cd4d3e7b072907abb4257.html#ga5126f9b7d52cd4d3e7b072907abb4257" target="_top" xlink:title=" ">
<polygon fill="white" stroke="#666666" points="651.25,-318.44 537,-318.44 537,-287.94 651.25,-287.94 651.25,-318.44"/>
<text xml:space="preserve" text-anchor="start" x="545" y="-304.94" font-family="Source Sans Pro" font-size="10.00">module_mp_thompson</text>
<text xml:space="preserve" text-anchor="middle" x="594.12" y="-293.69" font-family="Source Sans Pro" font-size="10.00">::gammp</text>
</a>
</g>
</g>
<!-- Node7&#45;&gt;Node8 -->
<g id="edge10_Node000007_Node000008" class="edge">
<title>Node7&#45;&gt;Node8</title>
<g id="a_edge10_Node000007_Node000008"><a xlink:title=" ">
<path fill="none" stroke="#63b8ff" d="M501.34,-323C509.33,-321.27 517.61,-319.49 525.78,-317.72"/>
<polygon fill="#63b8ff" stroke="#63b8ff" points="526.3,-321.19 535.33,-315.66 524.82,-314.35 526.3,-321.19"/>
</a>
</g>
</g>
<!-- Node8&#45;&gt;Node8 -->
<g id="edge11_Node000008_Node000008" class="edge">
<title>Node8&#45;&gt;Node8</title>
<g id="a_edge11_Node000008_Node000008"><a xlink:title=" ">
<path fill="none" stroke="#63b8ff" d="M567.5,-318.92C562.07,-327.99 570.94,-336.44 594.12,-336.44 606.8,-336.44 615.2,-333.91 619.32,-330.14"/>
<polygon fill="#63b8ff" stroke="#63b8ff" points="622.77,-330.79 620.56,-320.43 615.82,-329.9 622.77,-330.79"/>
</a>
</g>
</g>
<!-- Node9 -->
<g id="Node000009" class="node">
<title>Node9</title>
<g id="a_Node000009"><a xlink:href="group__aathompson_ga409e17891d433b3214f570828a824255.html#ga409e17891d433b3214f570828a824255" target="_top" xlink:title="Returns the incomplete gamma function q(a,x) evaluated by its continued fraction representation as ga...">
<polygon fill="white" stroke="#666666" points="821,-312.81 687.25,-312.81 687.25,-293.56 821,-293.56 821,-312.81"/>
<text xml:space="preserve" text-anchor="middle" x="754.12" y="-299.31" font-family="Source Sans Pro" font-size="10.00">module_mp_thompson::gcf</text>
</a>
</g>
</g>
<!-- Node8&#45;&gt;Node9 -->
<g id="edge12_Node000008_Node000009" class="edge">
<title>Node8&#45;&gt;Node9</title>
<g id="a_edge12_Node000008_Node000009"><a xlink:title=" ">
<path fill="none" stroke="#63b8ff" d="M651.72,-303.19C659.48,-303.19 667.56,-303.19 675.62,-303.19"/>
<polygon fill="#63b8ff" stroke="#63b8ff" points="675.45,-306.69 685.45,-303.19 675.45,-299.69 675.45,-306.69"/>
</a>
</g>
</g>
<!-- Node11 -->
<g id="Node000011" class="node">
<title>Node11</title>
<g id="a_Node000011"><a xlink:href="group__aathompson_ga28690a3c274459f6eb11ab59d0ae5a44.html#ga28690a3c274459f6eb11ab59d0ae5a44" target="_top" xlink:title="Returns the incomplete gamma function p(a,x) evaluated by its series representation as gamser.">
<polygon fill="white" stroke="#666666" points="811.25,-275.44 697,-275.44 697,-244.94 811.25,-244.94 811.25,-275.44"/>
<text xml:space="preserve" text-anchor="start" x="705" y="-261.94" font-family="Source Sans Pro" font-size="10.00">module_mp_thompson</text>
<text xml:space="preserve" text-anchor="middle" x="754.12" y="-250.69" font-family="Source Sans Pro" font-size="10.00">::gser</text>
</a>
</g>
</g>
<!-- Node8&#45;&gt;Node11 -->
<g id="edge15_Node000008_Node000011" class="edge">
<title>Node8&#45;&gt;Node11</title>
<g id="a_edge15_Node000008_Node000011"><a xlink:title=" ">
<path fill="none" stroke="#63b8ff" d="M651.72,-287.79C662.79,-284.77 674.5,-281.59 685.88,-278.49"/>
<polygon fill="#63b8ff" stroke="#63b8ff" points="686.47,-281.96 695.2,-275.95 684.63,-275.2 686.47,-281.96"/>
</a>
</g>
</g>
<!-- Node10 -->
<g id="Node000010" class="node">
<title>Node10</title>
<g id="a_Node000010"><a xlink:href="group__aathompson_gad2946a6deeab8b049fcd554d930f35c9.html#gad2946a6deeab8b049fcd554d930f35c9" target="_top" xlink:title="Returns the value ln(gamma(xx)) for xx &gt; 0.">
<polygon fill="white" stroke="#666666" points="971.25,-275.44 857,-275.44 857,-244.94 971.25,-244.94 971.25,-275.44"/>
<text xml:space="preserve" text-anchor="start" x="865" y="-261.94" font-family="Source Sans Pro" font-size="10.00">module_mp_thompson</text>
<text xml:space="preserve" text-anchor="middle" x="914.12" y="-250.69" font-family="Source Sans Pro" font-size="10.00">::gammln</text>
</a>
</g>
</g>
<!-- Node9&#45;&gt;Node10 -->
<g id="edge13_Node000009_Node000010" class="edge">
<title>Node9&#45;&gt;Node10</title>
<g id="a_edge13_Node000009_Node000010"><a xlink:title=" ">
<path fill="none" stroke="#63b8ff" d="M792.17,-293.11C808.11,-288.77 827.25,-283.56 845.56,-278.58"/>
<polygon fill="#63b8ff" stroke="#63b8ff" points="846.32,-282 855.05,-275.99 844.49,-275.24 846.32,-282"/>
</a>
</g>
</g>
<!-- Node10&#45;&gt;Node10 -->
<g id="edge14_Node000010_Node000010" class="edge">
<title>Node10&#45;&gt;Node10</title>
<g id="a_edge14_Node000010_Node000010"><a xlink:title=" ">
<path fill="none" stroke="#63b8ff" d="M885.77,-275.92C879.99,-284.99 889.44,-293.44 914.12,-293.44 927.63,-293.44 936.57,-290.91 940.96,-287.14"/>
<polygon fill="#63b8ff" stroke="#63b8ff" points="944.4,-287.8 942.27,-277.42 937.46,-286.86 944.4,-287.8"/>
</a>
</g>
</g>
<!-- Node11&#45;&gt;Node10 -->
<g id="edge16_Node000011_Node000010" class="edge">
<title>Node11&#45;&gt;Node10</title>
<g id="a_edge16_Node000011_Node000010"><a xlink:title=" ">
<path fill="none" stroke="#63b8ff" d="M811.72,-260.19C822.56,-260.19 834.02,-260.19 845.18,-260.19"/>
<polygon fill="#63b8ff" stroke="#63b8ff" points="845.15,-263.69 855.15,-260.19 845.15,-256.69 845.15,-263.69"/>
</a>
</g>
</g>
<!-- Node18&#45;&gt;Node10 -->
<g id="edge24_Node000018_Node000010" class="edge">
<title>Node18&#45;&gt;Node10</title>
<g id="a_edge24_Node000018_Node000010"><a xlink:title=" ">
<path fill="none" stroke="#63b8ff" d="M631.6,-138.9C689.56,-163.87 802.61,-212.57 866.4,-240.06"/>
<polygon fill="#63b8ff" stroke="#63b8ff" points="864.62,-243.1 875.19,-243.85 867.39,-236.68 864.62,-243.1"/>
</a>
</g>
</g>
<!-- Node18&#45;&gt;Node18 -->
<g id="edge25_Node000018_Node000018" class="edge">
<title>Node18&#45;&gt;Node18</title>
<g id="a_edge25_Node000018_Node000018"><a xlink:title=" ">
<path fill="none" stroke="#63b8ff" d="M567.5,-138.92C562.07,-147.99 570.94,-156.44 594.12,-156.44 606.8,-156.44 615.2,-153.91 619.32,-150.14"/>
<polygon fill="#63b8ff" stroke="#63b8ff" points="622.77,-150.79 620.56,-140.43 615.82,-149.9 622.77,-150.79"/>
</a>
</g>
</g>
</g>
</svg>

<g id="navigator" transform="translate(0 0)" fill="#404254">
  <rect fill="#f2f5e9" fill-opacity="0.5" stroke="#606060" stroke-width=".5" x="0" y="0" width="60" height="60"/>
  <use id="zoomplus" xlink:href="#zoomPlus" x="17" y="9" onmousedown="handleZoom(evt,'in')"/>
  <use id="zoomminus" xlink:href="#zoomMin" x="42" y="9" onmousedown="handleZoom(evt,'out')"/>
  <use id="reset" xlink:href="#resetDef" x="30" y="36" onmousedown="handleReset()"/>
   <use id="arrowup" xlink:href="#arrowUp" x="0" y="0" onmousedown="handlePan(0,-1)"/>
  <use id="arrowright" xlink:href="#arrowRight" x="0" y="0" onmousedown="handlePan(1,0)"/>
  <use id="arrowdown" xlink:href="#arrowDown" x="0" y="0" onmousedown="handlePan(0,1)"/>
  <use id="arrowleft" xlink:href="#arrowLeft" x="0" y="0" onmousedown="handlePan(-1,0)"/>
</g>
<svg viewBox="0 0 15 15" width="100%" height="30px" preserveAspectRatio="xMaxYMin meet">
 <g id="arrow_out" transform="scale(0.3 0.3)">
  <a xlink:href="namespacemp__thompson_abcad8fa6c118cf2ac1922e451d7ae174_abcad8fa6c118cf2ac1922e451d7ae174_cgraph_org.svg" target="_base">
   <rect id="button" ry="5" rx="5" y="6" x="6" height="38" width="38"
        fill="#f2f5e9" fill-opacity="0.5" stroke="#606060" stroke-width="1.0"/>
   <path id="arrow"
     d="M 11.500037,31.436501 C 11.940474,20.09759 22.043105,11.32322 32.158766,21.979434 L 37.068811,17.246167 C 37.068811,17.246167 37.088388,32 37.088388,32 L 22.160133,31.978069 C 22.160133,31.978069 26.997745,27.140456 26.997745,27.140456 C 18.528582,18.264221 13.291696,25.230495 11.500037,31.436501 z"
     style="fill:#404040;"/>
  </a>
 </g>
</svg>

<style type='text/css'>
<![CDATA[
[data-mouse-over-selected='false'] { opacity: 0.7; }
[data-mouse-over-selected='true']  { opacity: 1.0; }
]]>
</style>
<script type="application/ecmascript"><![CDATA[
document.addEventListener('DOMContentLoaded', (event) => {
  highlightEdges();
  highlightAdjacentNodes();
});
]]></script>
</svg>
