<?xml version="1.0" encoding="UTF-8" standalone="no"?>
<!DOCTYPE svg PUBLIC "-//W3C//DTD SVG 1.1//EN"
 "http://www.w3.org/Graphics/SVG/1.1/DTD/svg11.dtd">
<!-- Generated by graphviz version 14.1.2 (20260124.0452)
 -->
<!-- Title: mersenne_twister::random_stat Pages: 1 -->
<svg width="153pt" height="104pt"
 viewBox="0.00 0.00 153.00 104.00" xmlns="http://www.w3.org/2000/svg" xmlns:xlink="http://www.w3.org/1999/xlink">
<g id="graph0" class="graph" transform="scale(1 1) rotate(0) translate(4 99.5)">
<title>mersenne_twister::random_stat</title>
<!-- Node1 -->
<g id="Node000001" class="node">
<title>Node1</title>
<g id="a_Node000001"><a xlink:title="Generator state.">
<polygon fill="#999999" stroke="none" points="145.25,-95.5 0,-95.5 0,0 145.25,0 145.25,-95.5"/>
<text xml:space="preserve" text-anchor="start" x="4" y="-82" font-family="Source Sans Pro" font-size="10.00">mersenne_twister::random_stat</text>
<text xml:space="preserve" text-anchor="start" x="31.12" y="-66.75" font-family="Source Sans Pro" font-size="10.00">+</text>
<text xml:space="preserve" text-anchor="start" x="68.25" y="-66.75" font-family="Source Sans Pro" font-size="10.00">mt</text>
<text xml:space="preserve" text-anchor="start" x="31.12" y="-51.5" font-family="Source Sans Pro" font-size="10.00">+</text>
<text xml:space="preserve" text-anchor="start" x="68.25" y="-51.5" font-family="Source Sans Pro" font-size="10.00">iset</text>
<text xml:space="preserve" text-anchor="start" x="31.12" y="-36.25" font-family="Source Sans Pro" font-size="10.00">+</text>
<text xml:space="preserve" text-anchor="start" x="68.25" y="-36.25" font-family="Source Sans Pro" font-size="10.00">gset</text>
<text xml:space="preserve" text-anchor="start" x="32.62" y="-21" font-family="Source Sans Pro" font-size="10.00">&#45;</text>
<text xml:space="preserve" text-anchor="start" x="68.25" y="-21" font-family="Source Sans Pro" font-size="10.00">mti</text>
<text xml:space="preserve" text-anchor="start" x="71.12" y="-5.75" font-family="Source Sans Pro" font-size="10.00"> </text>
<polygon fill="#666666" stroke="#666666" points="0,-78.25 0,-78.25 145.25,-78.25 145.25,-78.25 0,-78.25"/>
<polygon fill="#666666" stroke="#666666" points="0,-17.25 0,-17.25 66.25,-17.25 66.25,-17.25 0,-17.25"/>
<polygon fill="#666666" stroke="#666666" points="66.25,-17.25 66.25,-17.25 145.25,-17.25 145.25,-17.25 66.25,-17.25"/>
<polygon fill="none" stroke="#666666" points="0,0 0,-95.5 145.25,-95.5 145.25,0 0,0"/>
</a>
</g>
</g>
</g>
</svg>
