<?xml version="1.0" encoding="UTF-8" standalone="no"?>
<!DOCTYPE svg PUBLIC "-//W3C//DTD SVG 1.1//EN"
 "http://www.w3.org/Graphics/SVG/1.1/DTD/svg11.dtd">
<!-- Generated by graphviz version 14.1.2 (20260124.0452)
 -->
<!-- Title: sfc_diff::sfc_diff_run Pages: 1 -->
<svg width="252pt" height="175pt"
 viewBox="0.00 0.00 252.00 175.00" xmlns="http://www.w3.org/2000/svg" xmlns:xlink="http://www.w3.org/1999/xlink">

<svg id="main" version="1.1" xmlns="http://www.w3.org/2000/svg" xmlns:xlink="http://www.w3.org/1999/xlink" xml:space="preserve">

<style type="text/css"><![CDATA[
.node, .edge {opacity: 0.7;}
.node.selected, .edge.selected {opacity: 1;}
.edge:hover path { stroke: red; }
.edge:hover polygon { stroke: red; fill: red; }
]]></style>
<script type="application/ecmascript" xlink:href="svg.min.js"/>
<svg id="graph" class="graph">
<g id="graph0" class="graph" transform="scale(1 1) rotate(0) translate(4 171.25)">
<title>sfc_diff::sfc_diff_run</title>
<!-- Node1 -->
<g id="Node000001" class="node">
<title>Node1</title>
<g id="a_Node000001"><a xlink:title=" ">
<polygon fill="#999999" stroke="#666666" points="105.25,-93.25 0,-93.25 0,-74 105.25,-74 105.25,-93.25"/>
<text xml:space="preserve" text-anchor="middle" x="52.62" y="-79.75" font-family="Source Sans Pro" font-size="10.00">sfc_diff::sfc_diff_run</text>
</a>
</g>
</g>
<!-- Node2 -->
<g id="Node000002" class="node">
<title>Node2</title>
<g id="a_Node000002"><a xlink:href="group___g_f_s__diff__main_gab286fa55ff48bff296b75dd2b6dc4e79.html#gab286fa55ff48bff296b75dd2b6dc4e79" target="_top" xlink:title=" ">
<polygon fill="white" stroke="#666666" points="236.38,-167.25 148.38,-167.25 148.38,-148 236.38,-148 236.38,-167.25"/>
<text xml:space="preserve" text-anchor="middle" x="192.38" y="-153.75" font-family="Source Sans Pro" font-size="10.00">sfc_diff::stability</text>
</a>
</g>
</g>
<!-- Node1&#45;&gt;Node2 -->
<g id="edge1_Node000001_Node000002" class="edge">
<title>Node1&#45;&gt;Node2</title>
<g id="a_edge1_Node000001_Node000002"><a xlink:title=" ">
<path fill="none" stroke="#63b8ff" d="M67.03,-93.54C83.75,-105.6 113.54,-126.01 141.25,-139.62 143.83,-140.89 146.52,-142.12 149.26,-143.29"/>
<polygon fill="#63b8ff" stroke="#63b8ff" points="147.92,-146.52 158.5,-146.98 150.52,-140.02 147.92,-146.52"/>
</a>
</g>
</g>
<!-- Node3 -->
<g id="Node000003" class="node">
<title>Node3</title>
<g id="a_Node000003"><a xlink:href="group___g_f_s__diff__main_ga699273090ce209aa668bd430196c084c.html#ga699273090ce209aa668bd430196c084c" target="_top" xlink:title="add fitted z0,zt curves for hurricane application (used in HWRF/HMON) Weiguo Wang,...">
<polygon fill="white" stroke="#666666" points="243.5,-130.25 141.25,-130.25 141.25,-111 243.5,-111 243.5,-130.25"/>
<text xml:space="preserve" text-anchor="middle" x="192.38" y="-116.75" font-family="Source Sans Pro" font-size="10.00">sfc_diff::znot_m_v6</text>
</a>
</g>
</g>
<!-- Node1&#45;&gt;Node3 -->
<g id="edge2_Node000001_Node000003" class="edge">
<title>Node1&#45;&gt;Node3</title>
<g id="a_edge2_Node000001_Node000003"><a xlink:title=" ">
<path fill="none" stroke="#63b8ff" d="M91.27,-93.74C107.21,-98.02 125.99,-103.06 142.95,-107.62"/>
<polygon fill="#63b8ff" stroke="#63b8ff" points="141.75,-110.92 152.32,-110.13 143.57,-104.16 141.75,-110.92"/>
</a>
</g>
</g>
<!-- Node4 -->
<g id="Node000004" class="node">
<title>Node4</title>
<g id="a_Node000004"><a xlink:href="group___g_f_s__diff__main_ga0a96b398c6aa2c0e4ce2d57ec1bafa2c.html#ga0a96b398c6aa2c0e4ce2d57ec1bafa2c" target="_top" xlink:title="Calculate areodynamical roughness over water with input 10&#45;m wind For low&#45;to&#45;moderate winds,...">
<polygon fill="white" stroke="#666666" points="243.5,-93.25 141.25,-93.25 141.25,-74 243.5,-74 243.5,-93.25"/>
<text xml:space="preserve" text-anchor="middle" x="192.38" y="-79.75" font-family="Source Sans Pro" font-size="10.00">sfc_diff::znot_m_v7</text>
</a>
</g>
</g>
<!-- Node1&#45;&gt;Node4 -->
<g id="edge3_Node000001_Node000004" class="edge">
<title>Node1&#45;&gt;Node4</title>
<g id="a_edge3_Node000001_Node000004"><a xlink:title=" ">
<path fill="none" stroke="#63b8ff" d="M105.7,-83.62C113.57,-83.62 121.76,-83.62 129.8,-83.62"/>
<polygon fill="#63b8ff" stroke="#63b8ff" points="129.53,-87.13 139.53,-83.63 129.53,-80.13 129.53,-87.13"/>
</a>
</g>
</g>
<!-- Node5 -->
<g id="Node000005" class="node">
<title>Node5</title>
<g id="a_Node000005"><a xlink:href="group___g_f_s__diff__main_ga8cc020626ffbda304a8f62ec0275ef73.html#ga8cc020626ffbda304a8f62ec0275ef73" target="_top" xlink:title="Calculate scalar roughness over water with input 10&#45;m wind For low&#45;to&#45;moderate winds,...">
<polygon fill="white" stroke="#666666" points="240.88,-56.25 143.88,-56.25 143.88,-37 240.88,-37 240.88,-56.25"/>
<text xml:space="preserve" text-anchor="middle" x="192.38" y="-42.75" font-family="Source Sans Pro" font-size="10.00">sfc_diff::znot_t_v6</text>
</a>
</g>
</g>
<!-- Node1&#45;&gt;Node5 -->
<g id="edge4_Node000001_Node000005" class="edge">
<title>Node1&#45;&gt;Node5</title>
<g id="a_edge4_Node000001_Node000005"><a xlink:title=" ">
<path fill="none" stroke="#63b8ff" d="M91.27,-73.51C107.21,-69.23 125.99,-64.19 142.95,-59.63"/>
<polygon fill="#63b8ff" stroke="#63b8ff" points="143.57,-63.09 152.32,-57.12 141.75,-56.33 143.57,-63.09"/>
</a>
</g>
</g>
<!-- Node6 -->
<g id="Node000006" class="node">
<title>Node6</title>
<g id="a_Node000006"><a xlink:href="group___g_f_s__diff__main_ga0be679dd34720d161a76d042be84eea9.html#ga0be679dd34720d161a76d042be84eea9" target="_top" xlink:title="Calculate scalar roughness over water with input 10&#45;m wind For low&#45;to&#45;moderate winds,...">
<polygon fill="white" stroke="#666666" points="240.88,-19.25 143.88,-19.25 143.88,0 240.88,0 240.88,-19.25"/>
<text xml:space="preserve" text-anchor="middle" x="192.38" y="-5.75" font-family="Source Sans Pro" font-size="10.00">sfc_diff::znot_t_v7</text>
</a>
</g>
</g>
<!-- Node1&#45;&gt;Node6 -->
<g id="edge5_Node000001_Node000006" class="edge">
<title>Node1&#45;&gt;Node6</title>
<g id="a_edge5_Node000001_Node000006"><a xlink:title=" ">
<path fill="none" stroke="#63b8ff" d="M67.03,-73.71C83.75,-61.65 113.54,-41.24 141.25,-27.62 143.83,-26.36 146.52,-25.13 149.26,-23.96"/>
<polygon fill="#63b8ff" stroke="#63b8ff" points="150.52,-27.23 158.5,-20.27 147.92,-20.73 150.52,-27.23"/>
</a>
</g>
</g>
</g>
</svg>
</svg>

<style type='text/css'>
<![CDATA[
[data-mouse-over-selected='false'] { opacity: 0.7; }
[data-mouse-over-selected='true']  { opacity: 1.0; }
]]>
</style>
<script type="application/ecmascript"><![CDATA[
document.addEventListener('DOMContentLoaded', (event) => {
  highlightEdges();
  highlightAdjacentNodes();
});
]]></script>
</svg>
