<?xml version="1.0" encoding="UTF-8" standalone="no"?>
<!DOCTYPE svg PUBLIC "-//W3C//DTD SVG 1.1//EN"
 "http://www.w3.org/Graphics/SVG/1.1/DTD/svg11.dtd">
<!-- Generated by graphviz version 14.1.2 (20260124.0452)
 -->
<!-- Title: psim_unstable_full Pages: 1 -->
<svg width="436pt" height="73pt"
 viewBox="0.00 0.00 436.00 73.00" xmlns="http://www.w3.org/2000/svg" xmlns:xlink="http://www.w3.org/1999/xlink">
<g id="graph0" class="graph" transform="scale(1 1) rotate(0) translate(4 69.25)">
<title>psim_unstable_full</title>
<!-- Node1 -->
<g id="Node000001" class="node">
<title>Node1</title>
<g id="a_Node000001"><a xlink:title=" ">
<polygon fill="#999999" stroke="#666666" points="427.75,-47.25 330.75,-47.25 330.75,-28 427.75,-28 427.75,-47.25"/>
<text xml:space="preserve" text-anchor="middle" x="379.25" y="-33.75" font-family="Source Sans Pro" font-size="10.00">psim_unstable_full</text>
</a>
</g>
</g>
<!-- Node1&#45;&gt;Node1 -->
<g id="edge6_Node000001_Node000001" class="edge">
<title>Node1&#45;&gt;Node1</title>
<g id="a_edge6_Node000001_Node000001"><a xlink:title=" ">
<path fill="none" stroke="#63b8ff" d="M402.59,-58.65C399.67,-62.53 391.89,-65.25 379.25,-65.25 356.13,-65.25 349.27,-56.15 358.66,-47.54"/>
<polygon fill="#63b8ff" stroke="#63b8ff" points="406,-57.87 400.2,-49.01 399.21,-59.56 406,-57.87"/>
</a>
</g>
</g>
<!-- Node2 -->
<g id="Node000002" class="node">
<title>Node2</title>
<g id="a_Node000002"><a xlink:href="group___noah_m_p___l_s_m_ga33794c1f89d40a55548dfc108f2b3324.html#ga33794c1f89d40a55548dfc108f2b3324" target="_top" xlink:title=" ">
<polygon fill="white" stroke="#666666" points="164.75,-47.25 118,-47.25 118,-28 164.75,-28 164.75,-47.25"/>
<text xml:space="preserve" text-anchor="middle" x="141.38" y="-33.75" font-family="Source Sans Pro" font-size="10.00">psi_init</text>
</a>
</g>
</g>
<!-- Node1&#45;&gt;Node2 -->
<g id="edge1_Node000001_Node000002" class="edge">
<title>Node1&#45;&gt;Node2</title>
<g id="a_edge1_Node000001_Node000002"><a xlink:title=" ">
<path fill="none" stroke="#63b8ff" d="M319.18,-44.79C310.99,-45.55 302.67,-46.2 294.75,-46.62 253.03,-48.87 242.41,-49.82 200.75,-46.62 188.89,-45.72 175.79,-43.78 165.01,-41.94"/>
<polygon fill="#63b8ff" stroke="#63b8ff" points="319.52,-48.27 329.13,-43.8 318.83,-41.31 319.52,-48.27"/>
</a>
</g>
</g>
<!-- Node4 -->
<g id="Node000004" class="node">
<title>Node4</title>
<g id="a_Node000004"><a xlink:href="group__mynn__sfc_gaeb753808f2ff0e0954f848137dc4b51d.html#gaeb753808f2ff0e0954f848137dc4b51d" target="_top" xlink:title=" ">
<polygon fill="white" stroke="#666666" points="294.75,-19.25 200.75,-19.25 200.75,0 294.75,0 294.75,-19.25"/>
<text xml:space="preserve" text-anchor="middle" x="247.75" y="-5.75" font-family="Source Sans Pro" font-size="10.00">psih_unstable_full</text>
</a>
</g>
</g>
<!-- Node1&#45;&gt;Node4 -->
<g id="edge3_Node000001_Node000004" class="edge">
<title>Node1&#45;&gt;Node4</title>
<g id="a_edge3_Node000001_Node000004"><a xlink:title=" ">
<path fill="none" stroke="#63b8ff" d="M320.44,-25.13C311.92,-23.28 303.24,-21.41 295,-19.62"/>
<polygon fill="#63b8ff" stroke="#63b8ff" points="319.5,-28.5 330.02,-27.2 320.98,-21.66 319.5,-28.5"/>
</a>
</g>
</g>
<!-- Node3 -->
<g id="Node000003" class="node">
<title>Node3</title>
<g id="a_Node000003"><a xlink:href="group___noah_m_p___l_s_m_ga60b53486170b242b8233505746dc95a7.html#ga60b53486170b242b8233505746dc95a7" target="_top" xlink:title="This subroutine is called during the CCPP initialization phase and calls set_soilveg() to initialize ...">
<polygon fill="white" stroke="#666666" points="82,-47.25 0,-47.25 0,-28 82,-28 82,-47.25"/>
<text xml:space="preserve" text-anchor="middle" x="41" y="-33.75" font-family="Source Sans Pro" font-size="10.00">noahmpdrv_init</text>
</a>
</g>
</g>
<!-- Node2&#45;&gt;Node3 -->
<g id="edge2_Node000002_Node000003" class="edge">
<title>Node2&#45;&gt;Node3</title>
<g id="a_edge2_Node000002_Node000003"><a xlink:title=" ">
<path fill="none" stroke="#63b8ff" d="M106.11,-37.62C98.47,-37.62 90.3,-37.62 82.44,-37.62"/>
<polygon fill="#63b8ff" stroke="#63b8ff" points="106.05,-41.13 116.04,-37.63 106.04,-34.13 106.05,-41.13"/>
</a>
</g>
</g>
<!-- Node4&#45;&gt;Node2 -->
<g id="edge4_Node000004_Node000002" class="edge">
<title>Node4&#45;&gt;Node2</title>
<g id="a_edge4_Node000004_Node000002"><a xlink:title=" ">
<path fill="none" stroke="#63b8ff" d="M198.16,-22.66C186.62,-25.75 174.86,-28.91 165.12,-31.52"/>
<polygon fill="#63b8ff" stroke="#63b8ff" points="198.85,-26.1 207.61,-20.13 197.04,-19.34 198.85,-26.1"/>
</a>
</g>
</g>
<!-- Node4&#45;&gt;Node4 -->
<g id="edge5_Node000004_Node000004" class="edge">
<title>Node4&#45;&gt;Node4</title>
<g id="a_edge5_Node000004_Node000004"><a xlink:title=" ">
<path fill="none" stroke="#63b8ff" d="M266.63,-30.65C264.27,-34.53 257.98,-37.25 247.75,-37.25 229.05,-37.25 223.5,-28.15 231.1,-19.54"/>
<polygon fill="#63b8ff" stroke="#63b8ff" points="270.1,-30.14 264.7,-21.02 263.23,-31.51 270.1,-30.14"/>
</a>
</g>
</g>
</g>
</svg>
