<?xml version="1.0" encoding="UTF-8" standalone="no"?>
<!DOCTYPE svg PUBLIC "-//W3C//DTD SVG 1.1//EN"
 "http://www.w3.org/Graphics/SVG/1.1/DTD/svg11.dtd">
<!-- Generated by graphviz version 14.1.2 (20260124.0452)
 -->
<!-- Title: rrtmg_lw::taumol Pages: 1 -->
<svg width="183pt" height="582pt"
 viewBox="0.00 0.00 183.00 582.00" xmlns="http://www.w3.org/2000/svg" xmlns:xlink="http://www.w3.org/1999/xlink">
<g id="graph0" class="graph" transform="scale(1 1) rotate(0) translate(4 578.25)">
<title>rrtmg_lw::taumol</title>
<!-- Node1 -->
<g id="Node000001" class="node">
<title>Node1</title>
<g id="a_Node000001"><a xlink:title="This subroutine contains optical depths developed for the rapid radiative transfer model.">
<polygon fill="#999999" stroke="#666666" points="88.75,-296.25 0,-296.25 0,-277 88.75,-277 88.75,-296.25"/>
<text xml:space="preserve" text-anchor="middle" x="44.38" y="-282.75" font-family="Source Sans Pro" font-size="10.00">rrtmg_lw::taumol</text>
</a>
</g>
</g>
<!-- Node2 -->
<g id="Node000002" class="node">
<title>Node2</title>
<g id="a_Node000002"><a xlink:href="group__module__radlw__main_ga001d1bcd17533f7f920f859ff9a4e60f.html#ga001d1bcd17533f7f920f859ff9a4e60f" target="_top" xlink:title="band 1: 10&#45;350 cm&#45;1 (low key &#45; h2o; low minor &#45; n2); (high key &#45; h2o; high minor &#45; n2)">
<polygon fill="white" stroke="#666666" points="175.25,-574.25 124.75,-574.25 124.75,-555 175.25,-555 175.25,-574.25"/>
<text xml:space="preserve" text-anchor="middle" x="150" y="-560.75" font-family="Source Sans Pro" font-size="10.00">taugb01</text>
</a>
</g>
</g>
<!-- Node1&#45;&gt;Node2 -->
<g id="edge1_Node000001_Node000002" class="edge">
<title>Node1&#45;&gt;Node2</title>
<g id="a_edge1_Node000001_Node000002"><a xlink:title=" ">
<path fill="none" stroke="#63b8ff" d="M46.18,-296.55C49.59,-333.12 65.45,-462.55 124.75,-546.62 124.82,-546.72 124.89,-546.82 124.96,-546.91"/>
<polygon fill="#63b8ff" stroke="#63b8ff" points="122.23,-549.13 131.74,-553.8 127.21,-544.22 122.23,-549.13"/>
</a>
</g>
</g>
<!-- Node3 -->
<g id="Node000003" class="node">
<title>Node3</title>
<g id="a_Node000003"><a xlink:href="group__module__radlw__main_ga926415cb51870dda9a90883e01a2ee38.html#ga926415cb51870dda9a90883e01a2ee38" target="_top" xlink:title="Band 2: 350&#45;500 cm&#45;1 (low key &#45; h2o; high key &#45; h2o).">
<polygon fill="white" stroke="#666666" points="175.25,-537.25 124.75,-537.25 124.75,-518 175.25,-518 175.25,-537.25"/>
<text xml:space="preserve" text-anchor="middle" x="150" y="-523.75" font-family="Source Sans Pro" font-size="10.00">taugb02</text>
</a>
</g>
</g>
<!-- Node1&#45;&gt;Node3 -->
<g id="edge2_Node000001_Node000003" class="edge">
<title>Node1&#45;&gt;Node3</title>
<g id="a_edge2_Node000001_Node000003"><a xlink:title=" ">
<path fill="none" stroke="#63b8ff" d="M46.79,-296.49C51.74,-328.36 70.71,-430.62 126.09,-508.69"/>
<polygon fill="#63b8ff" stroke="#63b8ff" points="123.01,-510.41 131.76,-516.38 128.64,-506.25 123.01,-510.41"/>
</a>
</g>
</g>
<!-- Node4 -->
<g id="Node000004" class="node">
<title>Node4</title>
<g id="a_Node000004"><a xlink:href="group__module__radlw__main_ga45e39b507d1fc031c80d9c7f06905d4a.html#ga45e39b507d1fc031c80d9c7f06905d4a" target="_top" xlink:title="Band 3: 500&#45;630 cm&#45;1 (low key &#45; h2o,co2; low minor &#45; n2o); (high key &#45; h2o,co2; high minor &#45; n2o).">
<polygon fill="white" stroke="#666666" points="175.25,-500.25 124.75,-500.25 124.75,-481 175.25,-481 175.25,-500.25"/>
<text xml:space="preserve" text-anchor="middle" x="150" y="-486.75" font-family="Source Sans Pro" font-size="10.00">taugb03</text>
</a>
</g>
</g>
<!-- Node1&#45;&gt;Node4 -->
<g id="edge3_Node000001_Node000004" class="edge">
<title>Node1&#45;&gt;Node4</title>
<g id="a_edge3_Node000001_Node000004"><a xlink:title=" ">
<path fill="none" stroke="#63b8ff" d="M47.62,-296.45C54.7,-325.82 78.87,-414.46 124.75,-472.62 124.82,-472.72 124.9,-472.81 124.97,-472.9"/>
<polygon fill="#63b8ff" stroke="#63b8ff" points="122.33,-475.22 131.96,-479.64 127.19,-470.18 122.33,-475.22"/>
</a>
</g>
</g>
<!-- Node5 -->
<g id="Node000005" class="node">
<title>Node5</title>
<g id="a_Node000005"><a xlink:href="group__module__radlw__main_gae69174bcf1a87dc7a5baffac69797d07.html#gae69174bcf1a87dc7a5baffac69797d07" target="_top" xlink:title="Band 4: 630&#45;700 cm&#45;1 (low key &#45; h2o,co2; high key &#45; o3,co2).">
<polygon fill="white" stroke="#666666" points="175.25,-463.25 124.75,-463.25 124.75,-444 175.25,-444 175.25,-463.25"/>
<text xml:space="preserve" text-anchor="middle" x="150" y="-449.75" font-family="Source Sans Pro" font-size="10.00">taugb04</text>
</a>
</g>
</g>
<!-- Node1&#45;&gt;Node5 -->
<g id="edge4_Node000001_Node000005" class="edge">
<title>Node1&#45;&gt;Node5</title>
<g id="a_edge4_Node000001_Node000005"><a xlink:title=" ">
<path fill="none" stroke="#63b8ff" d="M48.9,-296.59C58.23,-321.94 85.55,-390.09 124.75,-435.62 124.83,-435.71 124.9,-435.8 124.98,-435.89"/>
<polygon fill="#63b8ff" stroke="#63b8ff" points="122.41,-438.28 132.13,-442.5 127.16,-433.14 122.41,-438.28"/>
</a>
</g>
</g>
<!-- Node6 -->
<g id="Node000006" class="node">
<title>Node6</title>
<g id="a_Node000006"><a xlink:href="group__module__radlw__main_ga92653ffcd20ff247a00eaf3339cba6df.html#ga92653ffcd20ff247a00eaf3339cba6df" target="_top" xlink:title="Band 5: 700&#45;820 cm&#45;1 (low key &#45; h2o,co2; low minor &#45; o3, ccl4) (high key &#45; o3,co2).">
<polygon fill="white" stroke="#666666" points="175.25,-426.25 124.75,-426.25 124.75,-407 175.25,-407 175.25,-426.25"/>
<text xml:space="preserve" text-anchor="middle" x="150" y="-412.75" font-family="Source Sans Pro" font-size="10.00">taugb05</text>
</a>
</g>
</g>
<!-- Node1&#45;&gt;Node6 -->
<g id="edge5_Node000001_Node000006" class="edge">
<title>Node1&#45;&gt;Node6</title>
<g id="a_edge5_Node000001_Node000006"><a xlink:title=" ">
<path fill="none" stroke="#63b8ff" d="M51.03,-296.7C62.91,-317.32 92.09,-365.23 124.75,-398.62 125.01,-398.89 125.28,-399.16 125.55,-399.42"/>
<polygon fill="#63b8ff" stroke="#63b8ff" points="123,-401.85 132.87,-405.68 127.54,-396.53 123,-401.85"/>
</a>
</g>
</g>
<!-- Node7 -->
<g id="Node000007" class="node">
<title>Node7</title>
<g id="a_Node000007"><a xlink:href="group__module__radlw__main_ga7190d415614aa35deefacff1041d4719.html#ga7190d415614aa35deefacff1041d4719" target="_top" xlink:title="Band 6: 820&#45;980 cm&#45;1 (low key &#45; h2o; low minor &#45; co2) (high key &#45; none; high minor &#45; cfc11,...">
<polygon fill="white" stroke="#666666" points="175.25,-389.25 124.75,-389.25 124.75,-370 175.25,-370 175.25,-389.25"/>
<text xml:space="preserve" text-anchor="middle" x="150" y="-375.75" font-family="Source Sans Pro" font-size="10.00">taugb06</text>
</a>
</g>
</g>
<!-- Node1&#45;&gt;Node7 -->
<g id="edge6_Node000001_Node000007" class="edge">
<title>Node1&#45;&gt;Node7</title>
<g id="a_edge6_Node000001_Node000007"><a xlink:title=" ">
<path fill="none" stroke="#63b8ff" d="M55.29,-296.73C69.98,-311.53 98.6,-339.7 124.75,-361.62 125.15,-361.96 125.56,-362.3 125.97,-362.64"/>
<polygon fill="#63b8ff" stroke="#63b8ff" points="123.7,-365.3 133.74,-368.69 128,-359.78 123.7,-365.3"/>
</a>
</g>
</g>
<!-- Node8 -->
<g id="Node000008" class="node">
<title>Node8</title>
<g id="a_Node000008"><a xlink:href="group__module__radlw__main_ga2208d86ae0712a0ca426bbe96de825bc.html#ga2208d86ae0712a0ca426bbe96de825bc" target="_top" xlink:title="Band 7: 980&#45;1080 cm&#45;1 (low key &#45; h2o,o3; low minor &#45; co2) (high key &#45; o3; high minor &#45; co2).">
<polygon fill="white" stroke="#666666" points="175.25,-352.25 124.75,-352.25 124.75,-333 175.25,-333 175.25,-352.25"/>
<text xml:space="preserve" text-anchor="middle" x="150" y="-338.75" font-family="Source Sans Pro" font-size="10.00">taugb07</text>
</a>
</g>
</g>
<!-- Node1&#45;&gt;Node8 -->
<g id="edge7_Node000001_Node000008" class="edge">
<title>Node1&#45;&gt;Node8</title>
<g id="a_edge7_Node000001_Node000008"><a xlink:title=" ">
<path fill="none" stroke="#63b8ff" d="M63.9,-296.64C79.57,-305.1 102.29,-317.38 120.31,-327.12"/>
<polygon fill="#63b8ff" stroke="#63b8ff" points="118.49,-330.12 128.95,-331.79 121.82,-323.96 118.49,-330.12"/>
</a>
</g>
</g>
<!-- Node9 -->
<g id="Node000009" class="node">
<title>Node9</title>
<g id="a_Node000009"><a xlink:href="group__module__radlw__main_ga1447d5bda5b521d27171e61881684183.html#ga1447d5bda5b521d27171e61881684183" target="_top" xlink:title="Band 8: 1080&#45;1180 cm&#45;1 (low key &#45; h2o; low minor &#45; co2,o3,n2o) (high key &#45; o3; high minor &#45; co2,...">
<polygon fill="white" stroke="#666666" points="175.25,-315.25 124.75,-315.25 124.75,-296 175.25,-296 175.25,-315.25"/>
<text xml:space="preserve" text-anchor="middle" x="150" y="-301.75" font-family="Source Sans Pro" font-size="10.00">taugb08</text>
</a>
</g>
</g>
<!-- Node1&#45;&gt;Node9 -->
<g id="edge8_Node000001_Node000009" class="edge">
<title>Node1&#45;&gt;Node9</title>
<g id="a_edge8_Node000001_Node000009"><a xlink:title=" ">
<path fill="none" stroke="#63b8ff" d="M89.02,-294.63C97.03,-296.1 105.3,-297.61 113.05,-299.03"/>
<polygon fill="#63b8ff" stroke="#63b8ff" points="112.35,-302.46 122.82,-300.83 113.62,-295.58 112.35,-302.46"/>
</a>
</g>
</g>
<!-- Node10 -->
<g id="Node000010" class="node">
<title>Node10</title>
<g id="a_Node000010"><a xlink:href="group__module__radlw__main_ga889abbaaa2d421c0c3dc820e2004414d.html#ga889abbaaa2d421c0c3dc820e2004414d" target="_top" xlink:title="Band 9: 1180&#45;1390 cm&#45;1 (low key &#45; h2o,ch4; low minor &#45; n2o) (high key &#45; ch4; high minor &#45; n2o).">
<polygon fill="white" stroke="#666666" points="175.25,-278.25 124.75,-278.25 124.75,-259 175.25,-259 175.25,-278.25"/>
<text xml:space="preserve" text-anchor="middle" x="150" y="-264.75" font-family="Source Sans Pro" font-size="10.00">taugb09</text>
</a>
</g>
</g>
<!-- Node1&#45;&gt;Node10 -->
<g id="edge9_Node000001_Node000010" class="edge">
<title>Node1&#45;&gt;Node10</title>
<g id="a_edge9_Node000001_Node000010"><a xlink:title=" ">
<path fill="none" stroke="#63b8ff" d="M89.02,-279.04C97.03,-277.65 105.3,-276.22 113.05,-274.87"/>
<polygon fill="#63b8ff" stroke="#63b8ff" points="113.57,-278.33 122.82,-273.17 112.37,-271.44 113.57,-278.33"/>
</a>
</g>
</g>
<!-- Node11 -->
<g id="Node000011" class="node">
<title>Node11</title>
<g id="a_Node000011"><a xlink:href="group__module__radlw__main_ga74c1cb8390daff1e5ce5e863c50b7873.html#ga74c1cb8390daff1e5ce5e863c50b7873" target="_top" xlink:title="Band 10: 1390&#45;1480 cm&#45;1 (low key &#45; h2o; high key &#45; h2o).">
<polygon fill="white" stroke="#666666" points="175.25,-241.25 124.75,-241.25 124.75,-222 175.25,-222 175.25,-241.25"/>
<text xml:space="preserve" text-anchor="middle" x="150" y="-227.75" font-family="Source Sans Pro" font-size="10.00">taugb10</text>
</a>
</g>
</g>
<!-- Node1&#45;&gt;Node11 -->
<g id="edge10_Node000001_Node000011" class="edge">
<title>Node1&#45;&gt;Node11</title>
<g id="a_edge10_Node000001_Node000011"><a xlink:title=" ">
<path fill="none" stroke="#63b8ff" d="M64.38,-276.54C79.94,-268.28 102.2,-256.47 119.98,-247.03"/>
<polygon fill="#63b8ff" stroke="#63b8ff" points="121.59,-250.14 128.78,-242.36 118.3,-243.96 121.59,-250.14"/>
</a>
</g>
</g>
<!-- Node12 -->
<g id="Node000012" class="node">
<title>Node12</title>
<g id="a_Node000012"><a xlink:href="group__module__radlw__main_ga573fd5b3580d6bbf5bfa2f01ee547034.html#ga573fd5b3580d6bbf5bfa2f01ee547034" target="_top" xlink:title="Band 11: 1480&#45;1800 cm&#45;1 (low &#45; h2o; low minor &#45; o2) (high key &#45; h2o; high minor &#45; o2).">
<polygon fill="white" stroke="#666666" points="175.25,-204.25 124.75,-204.25 124.75,-185 175.25,-185 175.25,-204.25"/>
<text xml:space="preserve" text-anchor="middle" x="150" y="-190.75" font-family="Source Sans Pro" font-size="10.00">taugb11</text>
</a>
</g>
</g>
<!-- Node1&#45;&gt;Node12 -->
<g id="edge11_Node000001_Node000012" class="edge">
<title>Node1&#45;&gt;Node12</title>
<g id="a_edge11_Node000001_Node000012"><a xlink:title=" ">
<path fill="none" stroke="#63b8ff" d="M55.32,-276.67C70.04,-262.1 98.69,-234.33 124.75,-212.62 125.15,-212.29 125.56,-211.95 125.97,-211.62"/>
<polygon fill="#63b8ff" stroke="#63b8ff" points="128,-214.47 133.75,-205.57 123.71,-208.95 128,-214.47"/>
</a>
</g>
</g>
<!-- Node13 -->
<g id="Node000013" class="node">
<title>Node13</title>
<g id="a_Node000013"><a xlink:href="group__module__radlw__main_gae56eaa9e3b897ca235d4d6b271cc1e47.html#gae56eaa9e3b897ca235d4d6b271cc1e47" target="_top" xlink:title="Band 12: 1800&#45;2080 cm&#45;1 (low &#45; h2o,co2; high &#45; nothing).">
<polygon fill="white" stroke="#666666" points="175.25,-167.25 124.75,-167.25 124.75,-148 175.25,-148 175.25,-167.25"/>
<text xml:space="preserve" text-anchor="middle" x="150" y="-153.75" font-family="Source Sans Pro" font-size="10.00">taugb12</text>
</a>
</g>
</g>
<!-- Node1&#45;&gt;Node13 -->
<g id="edge12_Node000001_Node000013" class="edge">
<title>Node1&#45;&gt;Node13</title>
<g id="a_edge12_Node000001_Node000013"><a xlink:title=" ">
<path fill="none" stroke="#63b8ff" d="M51.05,-276.65C62.97,-256.22 92.21,-208.75 124.75,-175.62 125.01,-175.36 125.28,-175.09 125.55,-174.83"/>
<polygon fill="#63b8ff" stroke="#63b8ff" points="127.54,-177.73 132.88,-168.57 123,-172.4 127.54,-177.73"/>
</a>
</g>
</g>
<!-- Node14 -->
<g id="Node000014" class="node">
<title>Node14</title>
<g id="a_Node000014"><a xlink:href="group__module__radlw__main_ga2ac7254d2dcff516e8e44b8b679302c0.html#ga2ac7254d2dcff516e8e44b8b679302c0" target="_top" xlink:title="Band 13: 2080&#45;2250 cm&#45;1 (low key&#45;h2o,n2o; high minor&#45;o3 minor).">
<polygon fill="white" stroke="#666666" points="175.25,-130.25 124.75,-130.25 124.75,-111 175.25,-111 175.25,-130.25"/>
<text xml:space="preserve" text-anchor="middle" x="150" y="-116.75" font-family="Source Sans Pro" font-size="10.00">taugb13</text>
</a>
</g>
</g>
<!-- Node1&#45;&gt;Node14 -->
<g id="edge13_Node000001_Node000014" class="edge">
<title>Node1&#45;&gt;Node14</title>
<g id="a_edge13_Node000001_Node000014"><a xlink:title=" ">
<path fill="none" stroke="#63b8ff" d="M48.92,-276.73C58.29,-251.56 85.69,-183.86 124.75,-138.62 124.83,-138.54 124.9,-138.45 124.98,-138.36"/>
<polygon fill="#63b8ff" stroke="#63b8ff" points="127.16,-141.11 132.14,-131.75 122.42,-135.96 127.16,-141.11"/>
</a>
</g>
</g>
<!-- Node15 -->
<g id="Node000015" class="node">
<title>Node15</title>
<g id="a_Node000015"><a xlink:href="group__module__radlw__main_ga26140cbe1a3d6119b56cf5c2d539670e.html#ga26140cbe1a3d6119b56cf5c2d539670e" target="_top" xlink:title="Band 14: 2250&#45;2380 cm&#45;1 (low &#45; co2; high &#45; co2).">
<polygon fill="white" stroke="#666666" points="175.25,-93.25 124.75,-93.25 124.75,-74 175.25,-74 175.25,-93.25"/>
<text xml:space="preserve" text-anchor="middle" x="150" y="-79.75" font-family="Source Sans Pro" font-size="10.00">taugb14</text>
</a>
</g>
</g>
<!-- Node1&#45;&gt;Node15 -->
<g id="edge14_Node000001_Node000015" class="edge">
<title>Node1&#45;&gt;Node15</title>
<g id="a_edge14_Node000001_Node000015"><a xlink:title=" ">
<path fill="none" stroke="#63b8ff" d="M47.63,-276.85C54.75,-247.64 79.03,-159.48 124.75,-101.62 124.82,-101.53 124.9,-101.44 124.97,-101.35"/>
<polygon fill="#63b8ff" stroke="#63b8ff" points="127.19,-104.07 131.96,-94.61 122.33,-99.03 127.19,-104.07"/>
</a>
</g>
</g>
<!-- Node16 -->
<g id="Node000016" class="node">
<title>Node16</title>
<g id="a_Node000016"><a xlink:href="group__module__radlw__main_ga93b5c0ae0525697ffffb6228581a301c.html#ga93b5c0ae0525697ffffb6228581a301c" target="_top" xlink:title="Band 15: 2380&#45;2600 cm&#45;1 (low &#45; n2o,co2; low minor &#45; n2) (high &#45; nothing).">
<polygon fill="white" stroke="#666666" points="175.25,-56.25 124.75,-56.25 124.75,-37 175.25,-37 175.25,-56.25"/>
<text xml:space="preserve" text-anchor="middle" x="150" y="-42.75" font-family="Source Sans Pro" font-size="10.00">taugb15</text>
</a>
</g>
</g>
<!-- Node1&#45;&gt;Node16 -->
<g id="edge15_Node000001_Node000016" class="edge">
<title>Node1&#45;&gt;Node16</title>
<g id="a_edge15_Node000001_Node000016"><a xlink:title=" ">
<path fill="none" stroke="#63b8ff" d="M46.8,-276.81C51.79,-245.08 70.86,-143.28 126.11,-65.53"/>
<polygon fill="#63b8ff" stroke="#63b8ff" points="128.64,-68 131.76,-57.87 123.01,-63.84 128.64,-68"/>
</a>
</g>
</g>
<!-- Node17 -->
<g id="Node000017" class="node">
<title>Node17</title>
<g id="a_Node000017"><a xlink:href="group__module__radlw__main_ga942ce0031745cd1b3b4ebc3915970554.html#ga942ce0031745cd1b3b4ebc3915970554" target="_top" xlink:title="Band 16: 2600&#45;3250 cm&#45;1 (low key&#45; h2o,ch4; high key &#45; ch4).">
<polygon fill="white" stroke="#666666" points="175.25,-19.25 124.75,-19.25 124.75,0 175.25,0 175.25,-19.25"/>
<text xml:space="preserve" text-anchor="middle" x="150" y="-5.75" font-family="Source Sans Pro" font-size="10.00">taugb16</text>
</a>
</g>
</g>
<!-- Node1&#45;&gt;Node17 -->
<g id="edge16_Node000001_Node000017" class="edge">
<title>Node1&#45;&gt;Node17</title>
<g id="a_edge16_Node000001_Node000017"><a xlink:title=" ">
<path fill="none" stroke="#63b8ff" d="M46.19,-276.73C49.63,-240.3 65.61,-111.37 124.75,-27.62 124.82,-27.53 124.89,-27.43 124.96,-27.34"/>
<polygon fill="#63b8ff" stroke="#63b8ff" points="127.21,-30.03 131.74,-20.45 122.23,-25.12 127.21,-30.03"/>
</a>
</g>
</g>
</g>
</svg>
