<?xml version="1.0" encoding="UTF-8" standalone="no"?>
<!DOCTYPE svg PUBLIC "-//W3C//DTD SVG 1.1//EN"
 "http://www.w3.org/Graphics/SVG/1.1/DTD/svg11.dtd">
<!-- Generated by graphviz version 14.1.2 (20260124.0452)
 -->
<!-- Title: module_bl_mynn::mym_condensation Pages: 1 -->
<svg width="276pt" height="191pt"
 viewBox="0.00 0.00 276.00 191.00" xmlns="http://www.w3.org/2000/svg" xmlns:xlink="http://www.w3.org/1999/xlink">

<svg id="main" version="1.1" xmlns="http://www.w3.org/2000/svg" xmlns:xlink="http://www.w3.org/1999/xlink" xml:space="preserve">

<style type="text/css"><![CDATA[
.node, .edge {opacity: 0.7;}
.node.selected, .edge.selected {opacity: 1;}
.edge:hover path { stroke: red; }
.edge:hover polygon { stroke: red; fill: red; }
]]></style>
<script type="application/ecmascript" xlink:href="svg.min.js"/>
<svg id="graph" class="graph">
<g id="graph0" class="graph" transform="scale(1 1) rotate(0) translate(4 186.5)">
<title>module_bl_mynn::mym_condensation</title>
<!-- Node1 -->
<g id="Node000001" class="node">
<title>Node1</title>
<g id="a_Node000001"><a xlink:title="This subroutine calculates the nonconvective component of the subgrid cloud fraction and mixing ratio...">
<polygon fill="#999999" stroke="#666666" points="117.25,-97.5 0,-97.5 0,-67 117.25,-67 117.25,-97.5"/>
<text xml:space="preserve" text-anchor="start" x="8" y="-84" font-family="Source Sans Pro" font-size="10.00">module_bl_mynn::mym</text>
<text xml:space="preserve" text-anchor="middle" x="58.62" y="-72.75" font-family="Source Sans Pro" font-size="10.00">_condensation</text>
</a>
</g>
</g>
<!-- Node2 -->
<g id="Node000002" class="node">
<title>Node2</title>
<g id="a_Node000002"><a xlink:href="group__gp__mynnedmf_gae8047a4c3a14e775edc08c08caf43d80.html#gae8047a4c3a14e775edc08c08caf43d80" target="_top" xlink:title=" ">
<polygon fill="white" stroke="#666666" points="267.5,-164.5 153.25,-164.5 153.25,-134 267.5,-134 267.5,-164.5"/>
<text xml:space="preserve" text-anchor="start" x="161.25" y="-151" font-family="Source Sans Pro" font-size="10.00">module_bl_mynn::esat</text>
<text xml:space="preserve" text-anchor="middle" x="210.38" y="-139.75" font-family="Source Sans Pro" font-size="10.00">_blend</text>
</a>
</g>
</g>
<!-- Node1&#45;&gt;Node2 -->
<g id="edge1_Node000001_Node000002" class="edge">
<title>Node1&#45;&gt;Node2</title>
<g id="a_edge1_Node000001_Node000002"><a xlink:title=" ">
<path fill="none" stroke="#63b8ff" d="M94.3,-97.83C111.94,-105.75 133.73,-115.53 153.25,-124.25 156.61,-125.75 160.08,-127.3 163.58,-128.86"/>
<polygon fill="#63b8ff" stroke="#63b8ff" points="162.1,-132.04 172.66,-132.91 164.95,-125.64 162.1,-132.04"/>
</a>
</g>
</g>
<!-- Node3 -->
<g id="Node000003" class="node">
<title>Node3</title>
<g id="a_Node000003"><a xlink:href="group__gp__mynnedmf_ga41a4c80227342f73cd16d2ae814498d0.html#ga41a4c80227342f73cd16d2ae814498d0" target="_top" xlink:title="This function extends function &quot;esat&quot; and returns a &quot;blended&quot; saturation mixing ratio....">
<polygon fill="white" stroke="#666666" points="267.5,-97.5 153.25,-97.5 153.25,-67 267.5,-67 267.5,-97.5"/>
<text xml:space="preserve" text-anchor="start" x="161.25" y="-84" font-family="Source Sans Pro" font-size="10.00">module_bl_mynn::qsat</text>
<text xml:space="preserve" text-anchor="middle" x="210.38" y="-72.75" font-family="Source Sans Pro" font-size="10.00">_blend</text>
</a>
</g>
</g>
<!-- Node1&#45;&gt;Node3 -->
<g id="edge3_Node000001_Node000003" class="edge">
<title>Node1&#45;&gt;Node3</title>
<g id="a_edge3_Node000001_Node000003"><a xlink:title=" ">
<path fill="none" stroke="#63b8ff" d="M117.52,-82.25C125.47,-82.25 133.68,-82.25 141.78,-82.25"/>
<polygon fill="#63b8ff" stroke="#63b8ff" points="141.6,-85.75 151.6,-82.25 141.6,-78.75 141.6,-85.75"/>
</a>
</g>
</g>
<!-- Node4 -->
<g id="Node000004" class="node">
<title>Node4</title>
<g id="a_Node000004"><a xlink:href="group__gp__mynnedmf_gaa969fd37a058f1244a944268798075e7.html#gaa969fd37a058f1244a944268798075e7" target="_top" xlink:title="This function interpolates the latent heats of vaporization and sublimation into a single,...">
<polygon fill="white" stroke="#666666" points="261.88,-30.5 158.88,-30.5 158.88,0 261.88,0 261.88,-30.5"/>
<text xml:space="preserve" text-anchor="start" x="166.88" y="-17" font-family="Source Sans Pro" font-size="10.00">module_bl_mynn::xl</text>
<text xml:space="preserve" text-anchor="middle" x="210.38" y="-5.75" font-family="Source Sans Pro" font-size="10.00">_blend</text>
</a>
</g>
</g>
<!-- Node1&#45;&gt;Node4 -->
<g id="edge5_Node000001_Node000004" class="edge">
<title>Node1&#45;&gt;Node4</title>
<g id="a_edge5_Node000001_Node000004"><a xlink:title=" ">
<path fill="none" stroke="#63b8ff" d="M94.73,-66.54C115.41,-57.29 141.78,-45.49 164.01,-35.55"/>
<polygon fill="#63b8ff" stroke="#63b8ff" points="165.15,-38.87 172.84,-31.59 162.29,-32.48 165.15,-38.87"/>
</a>
</g>
</g>
<!-- Node2&#45;&gt;Node2 -->
<g id="edge2_Node000002_Node000002" class="edge">
<title>Node2&#45;&gt;Node2</title>
<g id="a_edge2_Node000002_Node000002"><a xlink:title=" ">
<path fill="none" stroke="#63b8ff" d="M183.48,-164.99C178,-174.06 186.96,-182.5 210.38,-182.5 223.18,-182.5 231.66,-179.97 235.82,-176.2"/>
<polygon fill="#63b8ff" stroke="#63b8ff" points="239.27,-176.85 237.07,-166.49 232.33,-175.96 239.27,-176.85"/>
</a>
</g>
</g>
<!-- Node3&#45;&gt;Node3 -->
<g id="edge4_Node000003_Node000003" class="edge">
<title>Node3&#45;&gt;Node3</title>
<g id="a_edge4_Node000003_Node000003"><a xlink:title=" ">
<path fill="none" stroke="#63b8ff" d="M183.48,-97.99C178,-107.06 186.96,-115.5 210.38,-115.5 223.18,-115.5 231.66,-112.97 235.82,-109.2"/>
<polygon fill="#63b8ff" stroke="#63b8ff" points="239.27,-109.85 237.07,-99.49 232.33,-108.96 239.27,-109.85"/>
</a>
</g>
</g>
<!-- Node4&#45;&gt;Node4 -->
<g id="edge6_Node000004_Node000004" class="edge">
<title>Node4&#45;&gt;Node4</title>
<g id="a_edge6_Node000004_Node000004"><a xlink:title=" ">
<path fill="none" stroke="#63b8ff" d="M183.48,-30.99C178,-40.06 186.96,-48.5 210.38,-48.5 223.18,-48.5 231.66,-45.97 235.82,-42.2"/>
<polygon fill="#63b8ff" stroke="#63b8ff" points="239.27,-42.85 237.07,-32.49 232.33,-41.96 239.27,-42.85"/>
</a>
</g>
</g>
</g>
</svg>
</svg>

<style type='text/css'>
<![CDATA[
[data-mouse-over-selected='false'] { opacity: 0.7; }
[data-mouse-over-selected='true']  { opacity: 1.0; }
]]>
</style>
<script type="application/ecmascript"><![CDATA[
document.addEventListener('DOMContentLoaded', (event) => {
  highlightEdges();
  highlightAdjacentNodes();
});
]]></script>
</svg>
