<?xml version="1.0" encoding="UTF-8" standalone="no"?>
<!DOCTYPE svg PUBLIC "-//W3C//DTD SVG 1.1//EN"
 "http://www.w3.org/Graphics/SVG/1.1/DTD/svg11.dtd">
<!-- Generated by graphviz version 14.1.2 (20260124.0452)
 -->
<!-- Title: gfdl_cloud_microphys_mod::qsmith_init Pages: 1 -->
<!--zoomable 137 -->

<svg id="main" version="1.1" xmlns="http://www.w3.org/2000/svg" xmlns:xlink="http://www.w3.org/1999/xlink" xml:space="preserve" onload="init(evt)">

<style type="text/css"><![CDATA[
.node, .edge {opacity: 0.7;}
.node.selected, .edge.selected {opacity: 1;}
.edge:hover path { stroke: red; }
.edge:hover polygon { stroke: red; fill: red; }
]]></style>

<defs>
  <circle id="rim" cx="0" cy="0" r="7"/>
  <circle id="rim2" cx="0" cy="0" r="3.5"/>
  <g id="zoomPlus">
    <use xlink:href="#rim" fill="#404040"><set attributeName="fill" to="#808080" begin="zoomplus.mouseover" end="zoomplus.mouseout"/></use>
    <path d="M-4,0h8M0,-4v8" fill="none" stroke="white" stroke-width="1.5" pointer-events="none"/>
  </g>
  <g id="zoomMin">
    <use xlink:href="#rim" fill="#404040"><set attributeName="fill" to="#808080" begin="zoomminus.mouseover" end="zoomminus.mouseout"/></use>
    <path d="M-4,0h8" fill="none" stroke="white" stroke-width="1.5" pointer-events="none"/>
  </g>
  <g id="arrowUp" transform="translate(30 24)">
    <use xlink:href="#rim"/>
    <path pointer-events="none" fill="none" stroke="white" stroke-width="1.5" d="M0,-3.0v7 M-2.5,-0.5L0,-3.0L2.5,-0.5"/>
  </g>
  <g id="arrowRight" transform="rotate(90) translate(36 -43)">
    <use xlink:href="#rim"/>
    <path pointer-events="none" fill="none" stroke="white" stroke-width="1.5" d="M0,-3.0v7 M-2.5,-0.5L0,-3.0L2.5,-0.5"/>
  </g>
  <g id="arrowDown" transform="rotate(180) translate(-30 -48)">
    <use xlink:href="#rim"/>
    <path pointer-events="none" fill="none" stroke="white" stroke-width="1.5" d="M0,-3.0v7 M-2.5,-0.5L0,-3.0L2.5,-0.5"/>
  </g>
  <g id="arrowLeft" transform="rotate(270) translate(-36 17)">
    <use xlink:href="#rim"/>
    <path pointer-events="none" fill="none" stroke="white" stroke-width="1.5" d="M0,-3.0v7 M-2.5,-0.5L0,-3.0L2.5,-0.5"/>
  </g>
  <g id="resetDef">
    <use xlink:href="#rim2" fill="#404040"><set attributeName="fill" to="#808080" begin="reset.mouseover" end="reset.mouseout"/></use>
  </g>
</defs>
<script type="application/ecmascript">
var viewWidth = 612;
var viewHeight = 137;
var sectionId = 'dynsection-1';
</script>
<script type="application/ecmascript" xlink:href="svg.min.js"/>
<svg id="graph" class="graph">
<g id="viewport">
<title>gfdl_cloud_microphys_mod::qsmith_init</title>
<!-- Node1 -->
<g id="Node000001" class="node">
<title>Node1</title>
<g id="a_Node000001"><a xlink:title="The subroutine &#39;qsmith_init&#39; initializes lookup tables for saturation water vapor pressure for the fo...">
<polygon fill="#999999" stroke="#666666" points="604,-79.5 493.5,-79.5 493.5,-49 604,-49 604,-79.5"/>
<text xml:space="preserve" text-anchor="start" x="501.5" y="-66" font-family="Source Sans Pro" font-size="10.00">gfdl_cloud_microphys</text>
<text xml:space="preserve" text-anchor="middle" x="548.75" y="-54.75" font-family="Source Sans Pro" font-size="10.00">_mod::qsmith_init</text>
</a>
</g>
</g>
<!-- Node2 -->
<g id="Node000002" class="node">
<title>Node2</title>
<g id="a_Node000002"><a xlink:href="group__mod__gfdl__cloud__mp_ga3bfa36c95ccd846ef06a711e29ae5c62.html#ga3bfa36c95ccd846ef06a711e29ae5c62" target="_top" xlink:title="The function &#39;qsmith&#39; computes the saturated specific humidity with a blend of water and ice dependin...">
<polygon fill="white" stroke="#666666" points="457.5,-128.5 347,-128.5 347,-98 457.5,-98 457.5,-128.5"/>
<text xml:space="preserve" text-anchor="start" x="355" y="-115" font-family="Source Sans Pro" font-size="10.00">gfdl_cloud_microphys</text>
<text xml:space="preserve" text-anchor="middle" x="402.25" y="-103.75" font-family="Source Sans Pro" font-size="10.00">_mod::qsmith</text>
</a>
</g>
</g>
<!-- Node1&#45;&gt;Node2 -->
<g id="edge1_Node000001_Node000002" class="edge">
<title>Node1&#45;&gt;Node2</title>
<g id="a_edge1_Node000001_Node000002"><a xlink:title=" ">
<path fill="none" stroke="#63b8ff" d="M490.83,-83.55C477.1,-88.21 462.59,-93.13 449.43,-97.59"/>
<polygon fill="#63b8ff" stroke="#63b8ff" points="491.85,-86.9 500.2,-80.37 489.6,-80.27 491.85,-86.9"/>
</a>
</g>
</g>
<!-- Node3 -->
<g id="Node000003" class="node">
<title>Node3</title>
<g id="a_Node000003"><a xlink:href="group__mod__gfdl__cloud__mp_gae73658e16d99bd2fd887547ba13c0489.html#gae73658e16d99bd2fd887547ba13c0489" target="_top" xlink:title="The subroutine &#39;setup_con&#39; sets up constants and calls &#39;qsmith_init&#39;.">
<polygon fill="white" stroke="#666666" points="457.5,-79.5 347,-79.5 347,-49 457.5,-49 457.5,-79.5"/>
<text xml:space="preserve" text-anchor="start" x="355" y="-66" font-family="Source Sans Pro" font-size="10.00">gfdl_cloud_microphys</text>
<text xml:space="preserve" text-anchor="middle" x="402.25" y="-54.75" font-family="Source Sans Pro" font-size="10.00">_mod::setup_con</text>
</a>
</g>
</g>
<!-- Node1&#45;&gt;Node3 -->
<g id="edge2_Node000001_Node000003" class="edge">
<title>Node1&#45;&gt;Node3</title>
<g id="a_edge2_Node000001_Node000003"><a xlink:title=" ">
<path fill="none" stroke="#63b8ff" d="M481.63,-64.25C473.71,-64.25 465.69,-64.25 457.96,-64.25"/>
<polygon fill="#63b8ff" stroke="#63b8ff" points="481.61,-67.75 491.61,-64.25 481.61,-60.75 481.61,-67.75"/>
</a>
</g>
</g>
<!-- Node6 -->
<g id="Node000006" class="node">
<title>Node6</title>
<g id="a_Node000006"><a xlink:href="namespacegfdl__cloud__microphys__mod_acd40e84031a4f81c06cfdec3749ddb21.html#acd40e84031a4f81c06cfdec3749ddb21" target="_top" xlink:title="The function &#39;wqs2&#39; returns the saturation vapor pressure over pure liquid water for a given temperat...">
<polygon fill="white" stroke="#666666" points="457.5,-30.5 347,-30.5 347,0 457.5,0 457.5,-30.5"/>
<text xml:space="preserve" text-anchor="start" x="355" y="-17" font-family="Source Sans Pro" font-size="10.00">gfdl_cloud_microphys</text>
<text xml:space="preserve" text-anchor="middle" x="402.25" y="-5.75" font-family="Source Sans Pro" font-size="10.00">_mod::wqs2</text>
</a>
</g>
</g>
<!-- Node1&#45;&gt;Node6 -->
<g id="edge5_Node000001_Node000006" class="edge">
<title>Node1&#45;&gt;Node6</title>
<g id="a_edge5_Node000001_Node000006"><a xlink:title=" ">
<path fill="none" stroke="#63b8ff" d="M490.83,-44.95C477.1,-40.29 462.59,-35.37 449.43,-30.91"/>
<polygon fill="#63b8ff" stroke="#63b8ff" points="489.6,-48.23 500.2,-48.13 491.85,-41.6 489.6,-48.23"/>
</a>
</g>
</g>
<!-- Node4 -->
<g id="Node000004" class="node">
<title>Node4</title>
<g id="a_Node000004"><a xlink:href="group__mod__gfdl__cloud__mp_gacb9663cee42bc7d8c26e24ea3a400212.html#gacb9663cee42bc7d8c26e24ea3a400212" target="_top" xlink:title="The subroutine &#39;gfdl_cloud_microphys_init&#39; initializes the GFDL cloud microphysics.">
<polygon fill="white" stroke="#666666" points="311,-85.12 170.5,-85.12 170.5,-43.38 311,-43.38 311,-85.12"/>
<text xml:space="preserve" text-anchor="start" x="178.5" y="-71.62" font-family="Source Sans Pro" font-size="10.00">gfdl_cloud_microphys</text>
<text xml:space="preserve" text-anchor="start" x="178.5" y="-60.38" font-family="Source Sans Pro" font-size="10.00">_mod::gfdl_cloud_microphys</text>
<text xml:space="preserve" text-anchor="middle" x="240.75" y="-49.12" font-family="Source Sans Pro" font-size="10.00">_mod_init</text>
</a>
</g>
</g>
<!-- Node3&#45;&gt;Node4 -->
<g id="edge3_Node000003_Node000004" class="edge">
<title>Node3&#45;&gt;Node4</title>
<g id="a_edge3_Node000003_Node000004"><a xlink:title=" ">
<path fill="none" stroke="#63b8ff" d="M335.4,-64.25C327.5,-64.25 319.41,-64.25 311.46,-64.25"/>
<polygon fill="#63b8ff" stroke="#63b8ff" points="335.29,-67.75 345.29,-64.25 335.29,-60.75 335.29,-67.75"/>
</a>
</g>
</g>
<!-- Node5 -->
<g id="Node000005" class="node">
<title>Node5</title>
<g id="a_Node000005"><a xlink:href="namespacegfdl__cloud__microphys_abe4f8ccdbd6330c63ab86308c39e16c0.html#abe4f8ccdbd6330c63ab86308c39e16c0" target="_top" xlink:title="The subroutine initializes the GFDL cloud microphysics.">
<polygon fill="white" stroke="#666666" points="134.5,-79.5 0,-79.5 0,-49 134.5,-49 134.5,-79.5"/>
<text xml:space="preserve" text-anchor="start" x="8" y="-66" font-family="Source Sans Pro" font-size="10.00">gfdl_cloud_microphys</text>
<text xml:space="preserve" text-anchor="middle" x="67.25" y="-54.75" font-family="Source Sans Pro" font-size="10.00">::gfdl_cloud_microphys_init</text>
</a>
</g>
</g>
<!-- Node4&#45;&gt;Node5 -->
<g id="edge4_Node000004_Node000005" class="edge">
<title>Node4&#45;&gt;Node5</title>
<g id="a_edge4_Node000004_Node000005"><a xlink:title=" ">
<path fill="none" stroke="#63b8ff" d="M159.13,-64.25C151.05,-64.25 142.9,-64.25 134.99,-64.25"/>
<polygon fill="#63b8ff" stroke="#63b8ff" points="158.98,-67.75 168.98,-64.25 158.98,-60.75 158.98,-67.75"/>
</a>
</g>
</g>
</g>
</svg>

<g id="navigator" transform="translate(0 0)" fill="#404254">
  <rect fill="#f2f5e9" fill-opacity="0.5" stroke="#606060" stroke-width=".5" x="0" y="0" width="60" height="60"/>
  <use id="zoomplus" xlink:href="#zoomPlus" x="17" y="9" onmousedown="handleZoom(evt,'in')"/>
  <use id="zoomminus" xlink:href="#zoomMin" x="42" y="9" onmousedown="handleZoom(evt,'out')"/>
  <use id="reset" xlink:href="#resetDef" x="30" y="36" onmousedown="handleReset()"/>
   <use id="arrowup" xlink:href="#arrowUp" x="0" y="0" onmousedown="handlePan(0,-1)"/>
  <use id="arrowright" xlink:href="#arrowRight" x="0" y="0" onmousedown="handlePan(1,0)"/>
  <use id="arrowdown" xlink:href="#arrowDown" x="0" y="0" onmousedown="handlePan(0,1)"/>
  <use id="arrowleft" xlink:href="#arrowLeft" x="0" y="0" onmousedown="handlePan(-1,0)"/>
</g>
<svg viewBox="0 0 15 15" width="100%" height="30px" preserveAspectRatio="xMaxYMin meet">
 <g id="arrow_out" transform="scale(0.3 0.3)">
  <a xlink:href="group__mod__gfdl__cloud__mp_gac22a96714d2fdfba424e9b29c460874e_gac22a96714d2fdfba424e9b29c460874e_icgraph_org.svg" target="_base">
   <rect id="button" ry="5" rx="5" y="6" x="6" height="38" width="38"
        fill="#f2f5e9" fill-opacity="0.5" stroke="#606060" stroke-width="1.0"/>
   <path id="arrow"
     d="M 11.500037,31.436501 C 11.940474,20.09759 22.043105,11.32322 32.158766,21.979434 L 37.068811,17.246167 C 37.068811,17.246167 37.088388,32 37.088388,32 L 22.160133,31.978069 C 22.160133,31.978069 26.997745,27.140456 26.997745,27.140456 C 18.528582,18.264221 13.291696,25.230495 11.500037,31.436501 z"
     style="fill:#404040;"/>
  </a>
 </g>
</svg>

<style type='text/css'>
<![CDATA[
[data-mouse-over-selected='false'] { opacity: 0.7; }
[data-mouse-over-selected='true']  { opacity: 1.0; }
]]>
</style>
<script type="application/ecmascript"><![CDATA[
document.addEventListener('DOMContentLoaded', (event) => {
  highlightEdges();
  highlightAdjacentNodes();
});
]]></script>
</svg>
