<?xml version="1.0" encoding="UTF-8" standalone="no"?>
<!DOCTYPE svg PUBLIC "-//W3C//DTD SVG 1.1//EN"
 "http://www.w3.org/Graphics/SVG/1.1/DTD/svg11.dtd">
<!-- Generated by graphviz version 14.1.2 (20260124.0452)
 -->
<!-- Title: nopac Pages: 1 -->
<svg width="437pt" height="288pt"
 viewBox="0.00 0.00 437.00 288.00" xmlns="http://www.w3.org/2000/svg" xmlns:xlink="http://www.w3.org/1999/xlink">
<g id="graph0" class="graph" transform="scale(1 1) rotate(0) translate(4 284.25)">
<title>nopac</title>
<!-- Node1 -->
<g id="Node000001" class="node">
<title>Node1</title>
<g id="a_Node000001"><a xlink:title="This subroutine calculates soil moisture and heat flux values and update soil moisture content and so...">
<polygon fill="#999999" stroke="#666666" points="42.25,-185.25 0,-185.25 0,-166 42.25,-166 42.25,-185.25"/>
<text xml:space="preserve" text-anchor="middle" x="21.12" y="-171.75" font-family="Source Sans Pro" font-size="10.00">nopac</text>
</a>
</g>
</g>
<!-- Node2 -->
<g id="Node000002" class="node">
<title>Node2</title>
<g id="a_Node000002"><a xlink:href="group___noah___l_s_m_ga4af741ecc120ddb0d7282f78df4136a5.html#ga4af741ecc120ddb0d7282f78df4136a5" target="_top" xlink:title="This subroutine calculates soil moisture flux. The soil moisture content (smc &#45; a per unit volume mea...">
<polygon fill="white" stroke="#666666" points="120.5,-243.25 78.25,-243.25 78.25,-224 120.5,-224 120.5,-243.25"/>
<text xml:space="preserve" text-anchor="middle" x="99.38" y="-229.75" font-family="Source Sans Pro" font-size="10.00">evapo</text>
</a>
</g>
</g>
<!-- Node1&#45;&gt;Node2 -->
<g id="edge1_Node000001_Node000002" class="edge">
<title>Node1&#45;&gt;Node2</title>
<g id="a_edge1_Node000001_Node000002"><a xlink:title=" ">
<path fill="none" stroke="#63b8ff" d="M35.41,-185.73C46.67,-194.29 63.05,-206.76 76.29,-216.82"/>
<polygon fill="#63b8ff" stroke="#63b8ff" points="73.96,-219.45 84.04,-222.72 78.2,-213.88 73.96,-219.45"/>
</a>
</g>
</g>
<!-- Node5 -->
<g id="Node000005" class="node">
<title>Node5</title>
<g id="a_Node000005"><a xlink:href="group___noah___l_s_m_ga977daabf4ff68b28fc5ccd8796d815cd.html#ga977daabf4ff68b28fc5ccd8796d815cd" target="_top" xlink:title="This subroutine updates the temperature state of the soil column based on the thermal diffusion equat...">
<polygon fill="white" stroke="#666666" points="117.88,-148.25 80.88,-148.25 80.88,-129 117.88,-129 117.88,-148.25"/>
<text xml:space="preserve" text-anchor="middle" x="99.38" y="-134.75" font-family="Source Sans Pro" font-size="10.00">shflx</text>
</a>
</g>
</g>
<!-- Node1&#45;&gt;Node5 -->
<g id="edge4_Node000001_Node000005" class="edge">
<title>Node1&#45;&gt;Node5</title>
<g id="a_edge4_Node000001_Node000005"><a xlink:title=" ">
<path fill="none" stroke="#63b8ff" d="M42.56,-165.71C51.06,-161.59 61.06,-156.73 70.23,-152.28"/>
<polygon fill="#63b8ff" stroke="#63b8ff" points="71.65,-155.48 79.12,-147.97 68.6,-149.18 71.65,-155.48"/>
</a>
</g>
</g>
<!-- Node11 -->
<g id="Node000011" class="node">
<title>Node11</title>
<g id="a_Node000011"><a xlink:href="group___noah___l_s_m_ga8bc3154096e6364c5fcddf884c003bef.html#ga8bc3154096e6364c5fcddf884c003bef" target="_top" xlink:title="This subroutine calculates thermal diffusivity and conductivity of the soil for a given point and tim...">
<polygon fill="white" stroke="#666666" points="281.12,-204.25 238.12,-204.25 238.12,-185 281.12,-185 281.12,-204.25"/>
<text xml:space="preserve" text-anchor="middle" x="259.62" y="-190.75" font-family="Source Sans Pro" font-size="10.00">tdfcnd</text>
</a>
</g>
</g>
<!-- Node1&#45;&gt;Node11 -->
<g id="edge20_Node000001_Node000011" class="edge">
<title>Node1&#45;&gt;Node11</title>
<g id="a_edge20_Node000001_Node000011"><a xlink:title=" ">
<path fill="none" stroke="#63b8ff" d="M42.7,-177.28C84.02,-180.6 177.35,-188.1 226.68,-192.06"/>
<polygon fill="#63b8ff" stroke="#63b8ff" points="226.17,-195.53 236.42,-192.84 226.73,-188.55 226.17,-195.53"/>
</a>
</g>
</g>
<!-- Node16 -->
<g id="Node000016" class="node">
<title>Node16</title>
<g id="a_Node000016"><a xlink:href="group___noah___l_s_m_gafa3e5637e56746e2539ef2567836defa.html#gafa3e5637e56746e2539ef2567836defa" target="_top" xlink:title="This subroutine calculates soil moisture flux. The soil moisture content (smc &#45; a per unit vulume mea...">
<polygon fill="white" stroke="#666666" points="119.38,-56.25 79.38,-56.25 79.38,-37 119.38,-37 119.38,-56.25"/>
<text xml:space="preserve" text-anchor="middle" x="99.38" y="-42.75" font-family="Source Sans Pro" font-size="10.00">smflx</text>
</a>
</g>
</g>
<!-- Node1&#45;&gt;Node16 -->
<g id="edge15_Node000001_Node000016" class="edge">
<title>Node1&#45;&gt;Node16</title>
<g id="a_edge15_Node000001_Node000016"><a xlink:title=" ">
<path fill="none" stroke="#63b8ff" d="M28.11,-165.5C40.69,-144.21 70.09,-94.47 86.6,-66.55"/>
<polygon fill="#63b8ff" stroke="#63b8ff" points="89.57,-68.39 91.65,-58 83.55,-64.83 89.57,-68.39"/>
</a>
</g>
</g>
<!-- Node3 -->
<g id="Node000003" class="node">
<title>Node3</title>
<g id="a_Node000003"><a xlink:href="group___noah___l_s_m_gabf8ee2c002871d95bc356e2058f49a92.html#gabf8ee2c002871d95bc356e2058f49a92" target="_top" xlink:title="This subrtouine calculates direct soil evaporation.">
<polygon fill="white" stroke="#666666" points="199.12,-280.25 156.88,-280.25 156.88,-261 199.12,-261 199.12,-280.25"/>
<text xml:space="preserve" text-anchor="middle" x="178" y="-266.75" font-family="Source Sans Pro" font-size="10.00">devap</text>
</a>
</g>
</g>
<!-- Node2&#45;&gt;Node3 -->
<g id="edge2_Node000002_Node000003" class="edge">
<title>Node2&#45;&gt;Node3</title>
<g id="a_edge2_Node000002_Node000003"><a xlink:title=" ">
<path fill="none" stroke="#63b8ff" d="M120.91,-243.54C128.64,-247.27 137.61,-251.6 146.08,-255.69"/>
<polygon fill="#63b8ff" stroke="#63b8ff" points="144.52,-258.83 155.05,-260.02 147.56,-252.52 144.52,-258.83"/>
</a>
</g>
</g>
<!-- Node4 -->
<g id="Node000004" class="node">
<title>Node4</title>
<g id="a_Node000004"><a xlink:href="group___noah___l_s_m_ga4bf7fbbf861a5c232da14ca6b74cdd4f.html#ga4bf7fbbf861a5c232da14ca6b74cdd4f" target="_top" xlink:title="This subroutine calculates transpiration for the veg class.">
<polygon fill="white" stroke="#666666" points="199.5,-243.25 156.5,-243.25 156.5,-224 199.5,-224 199.5,-243.25"/>
<text xml:space="preserve" text-anchor="middle" x="178" y="-229.75" font-family="Source Sans Pro" font-size="10.00">transp</text>
</a>
</g>
</g>
<!-- Node2&#45;&gt;Node4 -->
<g id="edge3_Node000002_Node000004" class="edge">
<title>Node2&#45;&gt;Node4</title>
<g id="a_edge3_Node000002_Node000004"><a xlink:title=" ">
<path fill="none" stroke="#63b8ff" d="M120.91,-233.62C128.24,-233.62 136.68,-233.62 144.75,-233.62"/>
<polygon fill="#63b8ff" stroke="#63b8ff" points="144.63,-237.13 154.63,-233.63 144.63,-230.13 144.63,-237.13"/>
</a>
</g>
</g>
<!-- Node6 -->
<g id="Node000006" class="node">
<title>Node6</title>
<g id="a_Node000006"><a xlink:href="group___noah___l_s_m_gabb602c2b09396e2f94c9556259f5bae4.html#gabb602c2b09396e2f94c9556259f5bae4" target="_top" xlink:title="This subroutine calculates the right hand side of the time tendency term of the soil thermal diffusio...">
<polygon fill="white" stroke="#666666" points="192.4,-130.25 163.6,-130.25 163.6,-111 192.4,-111 192.4,-130.25"/>
<text xml:space="preserve" text-anchor="middle" x="178" y="-116.75" font-family="Source Sans Pro" font-size="10.00">hrt</text>
</a>
</g>
</g>
<!-- Node5&#45;&gt;Node6 -->
<g id="edge5_Node000005_Node000006" class="edge">
<title>Node5&#45;&gt;Node6</title>
<g id="a_edge5_Node000005_Node000006"><a xlink:title=" ">
<path fill="none" stroke="#63b8ff" d="M118.15,-134.45C128.28,-132.07 141.13,-129.05 152.23,-126.44"/>
<polygon fill="#63b8ff" stroke="#63b8ff" points="152.98,-129.86 161.92,-124.17 151.38,-123.05 152.98,-129.86"/>
</a>
</g>
</g>
<!-- Node13 -->
<g id="Node000013" class="node">
<title>Node13</title>
<g id="a_Node000013"><a xlink:href="group___noah___l_s_m_ga32e89df3740f968f500900125ae9633d.html#ga32e89df3740f968f500900125ae9633d" target="_top" xlink:title="This subroutine calculates the right hand side of the time tendency term of the soil thermal diffusio...">
<polygon fill="white" stroke="#666666" points="198,-167.25 158,-167.25 158,-148 198,-148 198,-167.25"/>
<text xml:space="preserve" text-anchor="middle" x="178" y="-153.75" font-family="Source Sans Pro" font-size="10.00">hrtice</text>
</a>
</g>
</g>
<!-- Node5&#45;&gt;Node13 -->
<g id="edge12_Node000005_Node000013" class="edge">
<title>Node5&#45;&gt;Node13</title>
<g id="a_edge12_Node000005_Node000013"><a xlink:title=" ">
<path fill="none" stroke="#63b8ff" d="M118.15,-143.03C126.66,-145.14 137.1,-147.73 146.81,-150.14"/>
<polygon fill="#63b8ff" stroke="#63b8ff" points="145.7,-153.47 156.24,-152.48 147.38,-146.67 145.7,-153.47"/>
</a>
</g>
</g>
<!-- Node14 -->
<g id="Node000014" class="node">
<title>Node14</title>
<g id="a_Node000014"><a xlink:href="group___noah___l_s_m_gacb79bab20ee25c57918575949c15de73.html#gacb79bab20ee25c57918575949c15de73" target="_top" xlink:title="This subroutine calculates/updates the soil temperature field.">
<polygon fill="white" stroke="#666666" points="198,-93.25 158,-93.25 158,-74 198,-74 198,-93.25"/>
<text xml:space="preserve" text-anchor="middle" x="178" y="-79.75" font-family="Source Sans Pro" font-size="10.00">hstep</text>
</a>
</g>
</g>
<!-- Node5&#45;&gt;Node14 -->
<g id="edge13_Node000005_Node000014" class="edge">
<title>Node5&#45;&gt;Node14</title>
<g id="a_edge13_Node000005_Node000014"><a xlink:title=" ">
<path fill="none" stroke="#63b8ff" d="M114.43,-128.54C125.45,-120.63 141.01,-109.46 153.86,-100.24"/>
<polygon fill="#63b8ff" stroke="#63b8ff" points="155.72,-103.21 161.81,-94.53 151.64,-97.52 155.72,-103.21"/>
</a>
</g>
</g>
<!-- Node7 -->
<g id="Node000007" class="node">
<title>Node7</title>
<g id="a_Node000007"><a xlink:href="group___noah___l_s_m_ga1b241897d00ec3d66eabe9e959d0ce04.html#ga1b241897d00ec3d66eabe9e959d0ce04" target="_top" xlink:title="This subroutine calculates sink/source term of the termal diffusion equation.">
<polygon fill="white" stroke="#666666" points="282.25,-93.25 237,-93.25 237,-74 282.25,-74 282.25,-93.25"/>
<text xml:space="preserve" text-anchor="middle" x="259.62" y="-79.75" font-family="Source Sans Pro" font-size="10.00">snksrc</text>
</a>
</g>
</g>
<!-- Node6&#45;&gt;Node7 -->
<g id="edge6_Node000006_Node000007" class="edge">
<title>Node6&#45;&gt;Node7</title>
<g id="a_edge6_Node000006_Node000007"><a xlink:title=" ">
<path fill="none" stroke="#63b8ff" d="M192.87,-114.18C202.22,-109.84 214.94,-103.92 226.71,-98.45"/>
<polygon fill="#63b8ff" stroke="#63b8ff" points="228.16,-101.64 235.75,-94.25 225.21,-95.29 228.16,-101.64"/>
</a>
</g>
</g>
<!-- Node10 -->
<g id="Node000010" class="node">
<title>Node10</title>
<g id="a_Node000010"><a xlink:href="group___noah___l_s_m_ga8e248a6da8d1fd3c2e64b76f3bfbea50.html#ga8e248a6da8d1fd3c2e64b76f3bfbea50" target="_top" xlink:title="This subroutine calculates temperature on the boundary of the layer by interpolation of the middle la...">
<polygon fill="white" stroke="#666666" points="277,-167.25 242.25,-167.25 242.25,-148 277,-148 277,-167.25"/>
<text xml:space="preserve" text-anchor="middle" x="259.62" y="-153.75" font-family="Source Sans Pro" font-size="10.00">tbnd</text>
</a>
</g>
</g>
<!-- Node6&#45;&gt;Node10 -->
<g id="edge9_Node000006_Node000010" class="edge">
<title>Node6&#45;&gt;Node10</title>
<g id="a_edge9_Node000006_Node000010"><a xlink:title=" ">
<path fill="none" stroke="#63b8ff" d="M192.87,-127.07C203.52,-132.02 218.56,-139.01 231.57,-145.05"/>
<polygon fill="#63b8ff" stroke="#63b8ff" points="229.96,-148.17 240.51,-149.21 232.91,-141.82 229.96,-148.17"/>
</a>
</g>
</g>
<!-- Node6&#45;&gt;Node11 -->
<g id="edge10_Node000006_Node000011" class="edge">
<title>Node6&#45;&gt;Node11</title>
<g id="a_edge10_Node000006_Node000011"><a xlink:title=" ">
<path fill="none" stroke="#63b8ff" d="M190.88,-130.72C193.75,-133.25 196.77,-136 199.5,-138.62 216.26,-154.76 218.27,-160.99 235.5,-176.62 235.78,-176.88 236.07,-177.14 236.36,-177.4"/>
<polygon fill="#63b8ff" stroke="#63b8ff" points="234.04,-180.02 243.97,-183.71 238.51,-174.63 234.04,-180.02"/>
</a>
</g>
</g>
<!-- Node12 -->
<g id="Node000012" class="node">
<title>Node12</title>
<g id="a_Node000012"><a xlink:href="group___noah___l_s_m_gae50411efeb11ddeb8a0c53010745a95c.html#gae50411efeb11ddeb8a0c53010745a95c" target="_top" xlink:title="This subroutine calculates soil layer average temperature (tavg) in freezing/thawing layer using up,...">
<polygon fill="white" stroke="#666666" points="283.75,-130.25 235.5,-130.25 235.5,-111 283.75,-111 283.75,-130.25"/>
<text xml:space="preserve" text-anchor="middle" x="259.62" y="-116.75" font-family="Source Sans Pro" font-size="10.00">tmpavg</text>
</a>
</g>
</g>
<!-- Node6&#45;&gt;Node12 -->
<g id="edge11_Node000006_Node000012" class="edge">
<title>Node6&#45;&gt;Node12</title>
<g id="a_edge11_Node000006_Node000012"><a xlink:title=" ">
<path fill="none" stroke="#63b8ff" d="M192.87,-120.62C201.44,-120.62 212.86,-120.62 223.77,-120.62"/>
<polygon fill="#63b8ff" stroke="#63b8ff" points="223.74,-124.13 233.74,-120.63 223.74,-117.13 223.74,-124.13"/>
</a>
</g>
</g>
<!-- Node8 -->
<g id="Node000008" class="node">
<title>Node8</title>
<g id="a_Node000008"><a xlink:href="group___noah___l_s_m_ga7c0e713811400259a984b2153834e70c.html#ga7c0e713811400259a984b2153834e70c" target="_top" xlink:title="This subroutine calculates amount of supercooled liquid soil water content if temperature is below 27...">
<polygon fill="white" stroke="#666666" points="357.5,-93.25 319.75,-93.25 319.75,-74 357.5,-74 357.5,-93.25"/>
<text xml:space="preserve" text-anchor="middle" x="338.62" y="-79.75" font-family="Source Sans Pro" font-size="10.00">frh2o</text>
</a>
</g>
</g>
<!-- Node7&#45;&gt;Node8 -->
<g id="edge7_Node000007_Node000008" class="edge">
<title>Node7&#45;&gt;Node8</title>
<g id="a_edge7_Node000007_Node000008"><a xlink:title=" ">
<path fill="none" stroke="#63b8ff" d="M282.48,-83.62C290.4,-83.62 299.48,-83.62 307.96,-83.62"/>
<polygon fill="#63b8ff" stroke="#63b8ff" points="307.84,-87.13 317.84,-83.63 307.84,-80.13 307.84,-87.13"/>
</a>
</g>
</g>
<!-- Node9 -->
<g id="Node000009" class="node">
<title>Node9</title>
<g id="a_Node000009"><a xlink:href="group___noah_m_p___l_s_m_gace27cd3a7b4e23955e39e33bd344baae.html#gace27cd3a7b4e23955e39e33bd344baae" target="_top" xlink:title="check surface energy balance and water balance.">
<polygon fill="white" stroke="#666666" points="429,-93.25 393.5,-93.25 393.5,-74 429,-74 429,-93.25"/>
<text xml:space="preserve" text-anchor="middle" x="411.25" y="-79.75" font-family="Source Sans Pro" font-size="10.00">error</text>
</a>
</g>
</g>
<!-- Node8&#45;&gt;Node9 -->
<g id="edge8_Node000008_Node000009" class="edge">
<title>Node8&#45;&gt;Node9</title>
<g id="a_edge8_Node000008_Node000009"><a xlink:title=" ">
<path fill="none" stroke="#63b8ff" d="M357.81,-83.62C365.17,-83.62 373.84,-83.62 381.99,-83.62"/>
<polygon fill="#63b8ff" stroke="#63b8ff" points="381.82,-87.13 391.82,-83.63 381.82,-80.13 381.82,-87.13"/>
</a>
</g>
</g>
<!-- Node15 -->
<g id="Node000015" class="node">
<title>Node15</title>
<g id="a_Node000015"><a xlink:href="group___noah___l_s_m_ga3d7dabe1147278de865aa4691d5b2de0.html#ga3d7dabe1147278de865aa4691d5b2de0" target="_top" xlink:title="This subroutine inverts (solve) the tri&#45;diagonal matrix problem.">
<polygon fill="white" stroke="#666666" points="281.12,-56.25 238.12,-56.25 238.12,-37 281.12,-37 281.12,-56.25"/>
<text xml:space="preserve" text-anchor="middle" x="259.62" y="-42.75" font-family="Source Sans Pro" font-size="10.00">rosr12</text>
</a>
</g>
</g>
<!-- Node14&#45;&gt;Node15 -->
<g id="edge14_Node000014_Node000015" class="edge">
<title>Node14&#45;&gt;Node15</title>
<g id="a_edge14_Node000014_Node000015"><a xlink:title=" ">
<path fill="none" stroke="#63b8ff" d="M198.27,-74.67C207.06,-70.58 217.69,-65.65 227.56,-61.06"/>
<polygon fill="#63b8ff" stroke="#63b8ff" points="228.89,-64.3 236.48,-56.91 225.94,-57.95 228.89,-64.3"/>
</a>
</g>
</g>
<!-- Node17 -->
<g id="Node000017" class="node">
<title>Node17</title>
<g id="a_Node000017"><a xlink:href="group___noah___l_s_m_gaf59c85cce3b10eaa0ffeb366de9d5304.html#gaf59c85cce3b10eaa0ffeb366de9d5304" target="_top" xlink:title="This subroutine calculates the right hand side of the time tendency term of the soil water diffusion ...">
<polygon fill="white" stroke="#666666" points="192.4,-19.25 163.6,-19.25 163.6,0 192.4,0 192.4,-19.25"/>
<text xml:space="preserve" text-anchor="middle" x="178" y="-5.75" font-family="Source Sans Pro" font-size="10.00">srt</text>
</a>
</g>
</g>
<!-- Node16&#45;&gt;Node17 -->
<g id="edge16_Node000016_Node000017" class="edge">
<title>Node16&#45;&gt;Node17</title>
<g id="a_edge16_Node000016_Node000017"><a xlink:title=" ">
<path fill="none" stroke="#63b8ff" d="M119.71,-37.29C129.95,-32.34 142.61,-26.23 153.43,-21.01"/>
<polygon fill="#63b8ff" stroke="#63b8ff" points="154.62,-24.32 162.1,-16.82 151.58,-18.01 154.62,-24.32"/>
</a>
</g>
</g>
<!-- Node19 -->
<g id="Node000019" class="node">
<title>Node19</title>
<g id="a_Node000019"><a xlink:href="group___noah___l_s_m_ga22b00b15c1b261126ec2d15719cb3aa4.html#ga22b00b15c1b261126ec2d15719cb3aa4" target="_top" xlink:title="This subroutine calculates/updates soil moisture content values and canopy moisture content values.">
<polygon fill="white" stroke="#666666" points="198,-56.25 158,-56.25 158,-37 198,-37 198,-56.25"/>
<text xml:space="preserve" text-anchor="middle" x="178" y="-42.75" font-family="Source Sans Pro" font-size="10.00">sstep</text>
</a>
</g>
</g>
<!-- Node16&#45;&gt;Node19 -->
<g id="edge18_Node000016_Node000019" class="edge">
<title>Node16&#45;&gt;Node19</title>
<g id="a_edge18_Node000016_Node000019"><a xlink:title=" ">
<path fill="none" stroke="#63b8ff" d="M119.71,-46.62C127.79,-46.62 137.37,-46.62 146.36,-46.62"/>
<polygon fill="#63b8ff" stroke="#63b8ff" points="146.16,-50.13 156.16,-46.63 146.16,-43.13 146.16,-50.13"/>
</a>
</g>
</g>
<!-- Node18 -->
<g id="Node000018" class="node">
<title>Node18</title>
<g id="a_Node000018"><a xlink:href="group___noah___l_s_m_gabfc5ae94c847aa3351345e0e924302a1.html#gabfc5ae94c847aa3351345e0e924302a1" target="_top" xlink:title="This subroutine calculates soil water diffusivity and soil hydraulic conductivity.">
<polygon fill="white" stroke="#666666" points="283.38,-19.25 235.88,-19.25 235.88,0 283.38,0 283.38,-19.25"/>
<text xml:space="preserve" text-anchor="middle" x="259.62" y="-5.75" font-family="Source Sans Pro" font-size="10.00">wdfcnd</text>
</a>
</g>
</g>
<!-- Node17&#45;&gt;Node18 -->
<g id="edge17_Node000017_Node000018" class="edge">
<title>Node17&#45;&gt;Node18</title>
<g id="a_edge17_Node000017_Node000018"><a xlink:title=" ">
<path fill="none" stroke="#63b8ff" d="M192.87,-9.62C201.6,-9.62 213.28,-9.62 224.37,-9.62"/>
<polygon fill="#63b8ff" stroke="#63b8ff" points="224.05,-13.13 234.05,-9.63 224.05,-6.13 224.05,-13.13"/>
</a>
</g>
</g>
<!-- Node19&#45;&gt;Node15 -->
<g id="edge19_Node000019_Node000015" class="edge">
<title>Node19&#45;&gt;Node15</title>
<g id="a_edge19_Node000019_Node000015"><a xlink:title=" ">
<path fill="none" stroke="#63b8ff" d="M198.27,-46.62C206.78,-46.62 217.01,-46.62 226.61,-46.62"/>
<polygon fill="#63b8ff" stroke="#63b8ff" points="226.34,-50.13 236.34,-46.63 226.34,-43.13 226.34,-50.13"/>
</a>
</g>
</g>
</g>
</svg>
