<?xml version="1.0" encoding="UTF-8" standalone="no"?>
<!DOCTYPE svg PUBLIC "-//W3C//DTD SVG 1.1//EN"
 "http://www.w3.org/Graphics/SVG/1.1/DTD/svg11.dtd">
<!-- Generated by graphviz version 14.1.2 (20260124.0452)
 -->
<!-- Title: module_radiation_surface::setalb Pages: 1 -->
<!--zoomable 76 -->

<svg id="main" version="1.1" xmlns="http://www.w3.org/2000/svg" xmlns:xlink="http://www.w3.org/1999/xlink" xml:space="preserve" onload="init(evt)">

<style type="text/css"><![CDATA[
.node, .edge {opacity: 0.7;}
.node.selected, .edge.selected {opacity: 1;}
.edge:hover path { stroke: red; }
.edge:hover polygon { stroke: red; fill: red; }
]]></style>

<defs>
  <circle id="rim" cx="0" cy="0" r="7"/>
  <circle id="rim2" cx="0" cy="0" r="3.5"/>
  <g id="zoomPlus">
    <use xlink:href="#rim" fill="#404040"><set attributeName="fill" to="#808080" begin="zoomplus.mouseover" end="zoomplus.mouseout"/></use>
    <path d="M-4,0h8M0,-4v8" fill="none" stroke="white" stroke-width="1.5" pointer-events="none"/>
  </g>
  <g id="zoomMin">
    <use xlink:href="#rim" fill="#404040"><set attributeName="fill" to="#808080" begin="zoomminus.mouseover" end="zoomminus.mouseout"/></use>
    <path d="M-4,0h8" fill="none" stroke="white" stroke-width="1.5" pointer-events="none"/>
  </g>
  <g id="arrowUp" transform="translate(30 24)">
    <use xlink:href="#rim"/>
    <path pointer-events="none" fill="none" stroke="white" stroke-width="1.5" d="M0,-3.0v7 M-2.5,-0.5L0,-3.0L2.5,-0.5"/>
  </g>
  <g id="arrowRight" transform="rotate(90) translate(36 -43)">
    <use xlink:href="#rim"/>
    <path pointer-events="none" fill="none" stroke="white" stroke-width="1.5" d="M0,-3.0v7 M-2.5,-0.5L0,-3.0L2.5,-0.5"/>
  </g>
  <g id="arrowDown" transform="rotate(180) translate(-30 -48)">
    <use xlink:href="#rim"/>
    <path pointer-events="none" fill="none" stroke="white" stroke-width="1.5" d="M0,-3.0v7 M-2.5,-0.5L0,-3.0L2.5,-0.5"/>
  </g>
  <g id="arrowLeft" transform="rotate(270) translate(-36 17)">
    <use xlink:href="#rim"/>
    <path pointer-events="none" fill="none" stroke="white" stroke-width="1.5" d="M0,-3.0v7 M-2.5,-0.5L0,-3.0L2.5,-0.5"/>
  </g>
  <g id="resetDef">
    <use xlink:href="#rim2" fill="#404040"><set attributeName="fill" to="#808080" begin="reset.mouseover" end="reset.mouseout"/></use>
  </g>
</defs>
<script type="application/ecmascript">
var viewWidth = 557;
var viewHeight = 76;
var sectionId = 'dynsection-0';
</script>
<script type="application/ecmascript" xlink:href="svg.min.js"/>
<svg id="graph" class="graph">
<g id="viewport">
<title>module_radiation_surface::setalb</title>
<!-- Node1 -->
<g id="Node000001" class="node">
<title>Node1</title>
<g id="a_Node000001"><a xlink:title="This subroutine computes four components of surface albedos (i.e., vis&#45;nir, direct&#45;diffused) accordin...">
<polygon fill="#999999" stroke="#666666" points="127,-51.5 0,-51.5 0,-21 127,-21 127,-51.5"/>
<text xml:space="preserve" text-anchor="start" x="8" y="-38" font-family="Source Sans Pro" font-size="10.00">module_radiation_surface</text>
<text xml:space="preserve" text-anchor="middle" x="63.5" y="-26.75" font-family="Source Sans Pro" font-size="10.00">::setalb</text>
</a>
</g>
</g>
<!-- Node2 -->
<g id="Node000002" class="node">
<title>Node2</title>
<g id="a_Node000002"><a xlink:href="group___noah___l_s_m_ga028fc448a3afe77726222a337008ffa4.html#ga028fc448a3afe77726222a337008ffa4" target="_top" xlink:title="This subroutine calculates snow termal conductivity.">
<polygon fill="white" stroke="#666666" points="237.5,-67.88 193,-67.88 193,-48.62 237.5,-48.62 237.5,-67.88"/>
<text xml:space="preserve" text-anchor="middle" x="215.25" y="-54.38" font-family="Source Sans Pro" font-size="10.00">csnow</text>
</a>
</g>
</g>
<!-- Node1&#45;&gt;Node2 -->
<g id="edge1_Node000001_Node000002" class="edge">
<title>Node1&#45;&gt;Node2</title>
<g id="a_edge1_Node000001_Node000002"><a xlink:title=" ">
<path fill="none" stroke="#63b8ff" d="M127.14,-45.45C145.79,-48.19 165.48,-51.09 181.41,-53.43"/>
<polygon fill="#63b8ff" stroke="#63b8ff" points="180.88,-56.89 191.29,-54.88 181.9,-49.96 180.88,-56.89"/>
</a>
</g>
</g>
<!-- Node3 -->
<g id="Node000003" class="node">
<title>Node3</title>
<g id="a_Node000003"><a xlink:href="group__gfs__sfcpert_ga6fcfce740aade0680404536c8c36cb7b.html#ga6fcfce740aade0680404536c8c36cb7b" target="_top" xlink:title="This subroutine computes the beta distribution value that matches the percentile from the random patt...">
<polygon fill="white" stroke="#666666" points="267.5,-30.5 163,-30.5 163,0 267.5,0 267.5,-30.5"/>
<text xml:space="preserve" text-anchor="start" x="171" y="-17" font-family="Source Sans Pro" font-size="10.00">surface_perturbation</text>
<text xml:space="preserve" text-anchor="middle" x="215.25" y="-5.75" font-family="Source Sans Pro" font-size="10.00">::ppfbet</text>
</a>
</g>
</g>
<!-- Node1&#45;&gt;Node3 -->
<g id="edge2_Node000001_Node000003" class="edge">
<title>Node1&#45;&gt;Node3</title>
<g id="a_edge2_Node000001_Node000003"><a xlink:title=" ">
<path fill="none" stroke="#63b8ff" d="M127.14,-27.47C135.2,-26.34 143.46,-25.18 151.52,-24.05"/>
<polygon fill="#63b8ff" stroke="#63b8ff" points="151.84,-27.54 161.25,-22.68 150.87,-20.6 151.84,-27.54"/>
</a>
</g>
</g>
<!-- Node4 -->
<g id="Node000004" class="node">
<title>Node4</title>
<g id="a_Node000004"><a xlink:href="group__gfs__sfcpert_gabe7fa301a165300949c3ccc5ddcc1ce6.html#gabe7fa301a165300949c3ccc5ddcc1ce6" target="_top" xlink:title="This subroutine computes the value of the cumulative beta distribution at a single point x,...">
<polygon fill="white" stroke="#666666" points="408,-30.5 303.5,-30.5 303.5,0 408,0 408,-30.5"/>
<text xml:space="preserve" text-anchor="start" x="311.5" y="-17" font-family="Source Sans Pro" font-size="10.00">surface_perturbation</text>
<text xml:space="preserve" text-anchor="middle" x="355.75" y="-5.75" font-family="Source Sans Pro" font-size="10.00">::cdfbet</text>
</a>
</g>
</g>
<!-- Node3&#45;&gt;Node4 -->
<g id="edge3_Node000003_Node000004" class="edge">
<title>Node3&#45;&gt;Node4</title>
<g id="a_edge3_Node000003_Node000004"><a xlink:title=" ">
<path fill="none" stroke="#63b8ff" d="M267.82,-15.25C275.66,-15.25 283.83,-15.25 291.88,-15.25"/>
<polygon fill="#63b8ff" stroke="#63b8ff" points="291.62,-18.75 301.62,-15.25 291.62,-11.75 291.62,-18.75"/>
</a>
</g>
</g>
<!-- Node5 -->
<g id="Node000005" class="node">
<title>Node5</title>
<g id="a_Node000005"><a xlink:href="group__gfs__sfcpert_ga6770814b5acc83b696eb7f1280fea117.html#ga6770814b5acc83b696eb7f1280fea117" target="_top" xlink:title="This subroutine computes the natural logarithm of the gamma distribution. Users can set the absolute ...">
<polygon fill="white" stroke="#666666" points="548.5,-30.5 444,-30.5 444,0 548.5,0 548.5,-30.5"/>
<text xml:space="preserve" text-anchor="start" x="452" y="-17" font-family="Source Sans Pro" font-size="10.00">surface_perturbation</text>
<text xml:space="preserve" text-anchor="middle" x="496.25" y="-5.75" font-family="Source Sans Pro" font-size="10.00">::gmln</text>
</a>
</g>
</g>
<!-- Node4&#45;&gt;Node5 -->
<g id="edge4_Node000004_Node000005" class="edge">
<title>Node4&#45;&gt;Node5</title>
<g id="a_edge4_Node000004_Node000005"><a xlink:title=" ">
<path fill="none" stroke="#63b8ff" d="M408.32,-15.25C416.16,-15.25 424.33,-15.25 432.38,-15.25"/>
<polygon fill="#63b8ff" stroke="#63b8ff" points="432.12,-18.75 442.12,-15.25 432.12,-11.75 432.12,-18.75"/>
</a>
</g>
</g>
</g>
</svg>

<g id="navigator" transform="translate(0 0)" fill="#404254">
  <rect fill="#f2f5e9" fill-opacity="0.5" stroke="#606060" stroke-width=".5" x="0" y="0" width="60" height="60"/>
  <use id="zoomplus" xlink:href="#zoomPlus" x="17" y="9" onmousedown="handleZoom(evt,'in')"/>
  <use id="zoomminus" xlink:href="#zoomMin" x="42" y="9" onmousedown="handleZoom(evt,'out')"/>
  <use id="reset" xlink:href="#resetDef" x="30" y="36" onmousedown="handleReset()"/>
   <use id="arrowup" xlink:href="#arrowUp" x="0" y="0" onmousedown="handlePan(0,-1)"/>
  <use id="arrowright" xlink:href="#arrowRight" x="0" y="0" onmousedown="handlePan(1,0)"/>
  <use id="arrowdown" xlink:href="#arrowDown" x="0" y="0" onmousedown="handlePan(0,1)"/>
  <use id="arrowleft" xlink:href="#arrowLeft" x="0" y="0" onmousedown="handlePan(-1,0)"/>
</g>
<svg viewBox="0 0 15 15" width="100%" height="30px" preserveAspectRatio="xMaxYMin meet">
 <g id="arrow_out" transform="scale(0.3 0.3)">
  <a xlink:href="group__radiation__surface__mod_ga96e7774e8838988b62ea144b3a03f7ba_ga96e7774e8838988b62ea144b3a03f7ba_cgraph_org.svg" target="_base">
   <rect id="button" ry="5" rx="5" y="6" x="6" height="38" width="38"
        fill="#f2f5e9" fill-opacity="0.5" stroke="#606060" stroke-width="1.0"/>
   <path id="arrow"
     d="M 11.500037,31.436501 C 11.940474,20.09759 22.043105,11.32322 32.158766,21.979434 L 37.068811,17.246167 C 37.068811,17.246167 37.088388,32 37.088388,32 L 22.160133,31.978069 C 22.160133,31.978069 26.997745,27.140456 26.997745,27.140456 C 18.528582,18.264221 13.291696,25.230495 11.500037,31.436501 z"
     style="fill:#404040;"/>
  </a>
 </g>
</svg>

<style type='text/css'>
<![CDATA[
[data-mouse-over-selected='false'] { opacity: 0.7; }
[data-mouse-over-selected='true']  { opacity: 1.0; }
]]>
</style>
<script type="application/ecmascript"><![CDATA[
document.addEventListener('DOMContentLoaded', (event) => {
  highlightEdges();
  highlightAdjacentNodes();
});
]]></script>
</svg>
