<?xml version="1.0" encoding="UTF-8" standalone="no"?>
<!DOCTYPE svg PUBLIC "-//W3C//DTD SVG 1.1//EN"
 "http://www.w3.org/Graphics/SVG/1.1/DTD/svg11.dtd">
<!-- Generated by graphviz version 14.1.2 (20260124.0452)
 -->
<!-- Title: transp Pages: 1 -->
<svg width="477pt" height="64pt"
 viewBox="0.00 0.00 477.00 64.00" xmlns="http://www.w3.org/2000/svg" xmlns:xlink="http://www.w3.org/1999/xlink">
<g id="graph0" class="graph" transform="scale(1 1) rotate(0) translate(4 60.25)">
<title>transp</title>
<!-- Node1 -->
<g id="Node000001" class="node">
<title>Node1</title>
<g id="a_Node000001"><a xlink:title="This subroutine calculates transpiration for the veg class.">
<polygon fill="#999999" stroke="#666666" points="468.5,-37.25 425.5,-37.25 425.5,-18 468.5,-18 468.5,-37.25"/>
<text xml:space="preserve" text-anchor="middle" x="447" y="-23.75" font-family="Source Sans Pro" font-size="10.00">transp</text>
</a>
</g>
</g>
<!-- Node2 -->
<g id="Node000002" class="node">
<title>Node2</title>
<g id="a_Node000002"><a xlink:href="group___noah___l_s_m_ga4af741ecc120ddb0d7282f78df4136a5.html#ga4af741ecc120ddb0d7282f78df4136a5" target="_top" xlink:title="This subroutine calculates soil moisture flux. The soil moisture content (smc &#45; a per unit volume mea...">
<polygon fill="white" stroke="#666666" points="389.5,-37.25 347.25,-37.25 347.25,-18 389.5,-18 389.5,-37.25"/>
<text xml:space="preserve" text-anchor="middle" x="368.38" y="-23.75" font-family="Source Sans Pro" font-size="10.00">evapo</text>
</a>
</g>
</g>
<!-- Node1&#45;&gt;Node2 -->
<g id="edge1_Node000001_Node000002" class="edge">
<title>Node1&#45;&gt;Node2</title>
<g id="a_edge1_Node000001_Node000002"><a xlink:title=" ">
<path fill="none" stroke="#63b8ff" d="M413.64,-27.62C405.54,-27.62 397.09,-27.62 389.76,-27.62"/>
<polygon fill="#63b8ff" stroke="#63b8ff" points="413.55,-31.13 423.55,-27.63 413.55,-24.13 413.55,-31.13"/>
</a>
</g>
</g>
<!-- Node3 -->
<g id="Node000003" class="node">
<title>Node3</title>
<g id="a_Node000003"><a xlink:href="group___noah___l_s_m_ga92994e4737ecfd692a6704778558c9c2.html#ga92994e4737ecfd692a6704778558c9c2" target="_top" xlink:title="This subroutine calculates soil moisture and heat flux values and update soil moisture content and so...">
<polygon fill="white" stroke="#666666" points="308.62,-56.25 266.38,-56.25 266.38,-37 308.62,-37 308.62,-56.25"/>
<text xml:space="preserve" text-anchor="middle" x="287.5" y="-42.75" font-family="Source Sans Pro" font-size="10.00">nopac</text>
</a>
</g>
</g>
<!-- Node2&#45;&gt;Node3 -->
<g id="edge2_Node000002_Node000003" class="edge">
<title>Node2&#45;&gt;Node3</title>
<g id="a_edge2_Node000002_Node000003"><a xlink:title=" ">
<path fill="none" stroke="#63b8ff" d="M336.03,-35.18C326.94,-37.36 317.26,-39.7 309.02,-41.68"/>
<polygon fill="#63b8ff" stroke="#63b8ff" points="336.69,-38.62 345.59,-32.87 335.05,-31.81 336.69,-38.62"/>
</a>
</g>
</g>
<!-- Node6 -->
<g id="Node000006" class="node">
<title>Node6</title>
<g id="a_Node000006"><a xlink:href="group___noah___l_s_m_gad65a889bf3f431ade2a312674671ab41.html#gad65a889bf3f431ade2a312674671ab41" target="_top" xlink:title="This subroutine calculates soil moisture and heat flux values and update soil moisture content and so...">
<polygon fill="white" stroke="#666666" points="311.25,-19.25 263.75,-19.25 263.75,0 311.25,0 311.25,-19.25"/>
<text xml:space="preserve" text-anchor="middle" x="287.5" y="-5.75" font-family="Source Sans Pro" font-size="10.00">snopac</text>
</a>
</g>
</g>
<!-- Node2&#45;&gt;Node6 -->
<g id="edge5_Node000002_Node000006" class="edge">
<title>Node2&#45;&gt;Node6</title>
<g id="a_edge5_Node000002_Node000006"><a xlink:title=" ">
<path fill="none" stroke="#63b8ff" d="M335.99,-20.46C327.83,-18.6 319.18,-16.63 311.53,-14.88"/>
<polygon fill="#63b8ff" stroke="#63b8ff" points="335.06,-23.84 345.59,-22.65 336.62,-17.02 335.06,-23.84"/>
</a>
</g>
</g>
<!-- Node4 -->
<g id="Node000004" class="node">
<title>Node4</title>
<g id="a_Node000004"><a xlink:href="group___noah___l_s_m_ga36e98f3ac91f839b816fd167eab30901.html#ga36e98f3ac91f839b816fd167eab30901" target="_top" xlink:title="This is the entity of GFS Noah LSM model of physics subroutines. It is a soil/veg/snowpack land&#45;surfa...">
<polygon fill="white" stroke="#666666" points="227.75,-37.25 160.75,-37.25 160.75,-18 227.75,-18 227.75,-37.25"/>
<text xml:space="preserve" text-anchor="middle" x="194.25" y="-23.75" font-family="Source Sans Pro" font-size="10.00">sflx::gfssflx</text>
</a>
</g>
</g>
<!-- Node3&#45;&gt;Node4 -->
<g id="edge3_Node000003_Node000004" class="edge">
<title>Node3&#45;&gt;Node4</title>
<g id="a_edge3_Node000003_Node000004"><a xlink:title=" ">
<path fill="none" stroke="#63b8ff" d="M255.27,-40.12C246.47,-38.29 236.87,-36.29 227.99,-34.44"/>
<polygon fill="#63b8ff" stroke="#63b8ff" points="254.26,-43.49 264.77,-42.1 255.69,-36.63 254.26,-43.49"/>
</a>
</g>
</g>
<!-- Node5 -->
<g id="Node000005" class="node">
<title>Node5</title>
<g id="a_Node000005"><a xlink:href="group___noah___l_s_m_ga5d624f72a0da3ffcdf7a01fb9862e0e8.html#ga5d624f72a0da3ffcdf7a01fb9862e0e8" target="_top" xlink:title=" ">
<polygon fill="white" stroke="#666666" points="124.75,-37.25 0,-37.25 0,-18 124.75,-18 124.75,-37.25"/>
<text xml:space="preserve" text-anchor="middle" x="62.38" y="-23.75" font-family="Source Sans Pro" font-size="10.00">lsm_noah::lsm_noah_run</text>
</a>
</g>
</g>
<!-- Node4&#45;&gt;Node5 -->
<g id="edge4_Node000004_Node000005" class="edge">
<title>Node4&#45;&gt;Node5</title>
<g id="a_edge4_Node000004_Node000005"><a xlink:title=" ">
<path fill="none" stroke="#63b8ff" d="M149.18,-27.62C141.47,-27.62 133.32,-27.62 125.24,-27.62"/>
<polygon fill="#63b8ff" stroke="#63b8ff" points="148.96,-31.13 158.96,-27.63 148.96,-24.13 148.96,-31.13"/>
</a>
</g>
</g>
<!-- Node6&#45;&gt;Node4 -->
<g id="edge6_Node000006_Node000004" class="edge">
<title>Node6&#45;&gt;Node4</title>
<g id="a_edge6_Node000006_Node000004"><a xlink:title=" ">
<path fill="none" stroke="#63b8ff" d="M252.27,-16.38C244.29,-17.95 235.82,-19.62 227.92,-21.18"/>
<polygon fill="#63b8ff" stroke="#63b8ff" points="252.86,-19.83 261.99,-14.46 251.5,-12.96 252.86,-19.83"/>
</a>
</g>
</g>
</g>
</svg>
