<?xml version="1.0" encoding="UTF-8" standalone="no"?>
<!DOCTYPE svg PUBLIC "-//W3C//DTD SVG 1.1//EN"
 "http://www.w3.org/Graphics/SVG/1.1/DTD/svg11.dtd">
<!-- Generated by graphviz version 14.1.2 (20260124.0452)
 -->
<!-- Title: module_sf_ruclsm::qsn Pages: 1 -->
<svg width="977pt" height="103pt"
 viewBox="0.00 0.00 977.00 103.00" xmlns="http://www.w3.org/2000/svg" xmlns:xlink="http://www.w3.org/1999/xlink">
<g id="graph0" class="graph" transform="scale(1 1) rotate(0) translate(4 99.25)">
<title>module_sf_ruclsm::qsn</title>
<!-- Node1 -->
<g id="Node000001" class="node">
<title>Node1</title>
<g id="a_Node000001"><a xlink:title="This function computes water vapor mixing ratio at saturation from the precomputed table and a given ...">
<polygon fill="#999999" stroke="#666666" points="969,-57.25 851.75,-57.25 851.75,-38 969,-38 969,-57.25"/>
<text xml:space="preserve" text-anchor="middle" x="910.38" y="-43.75" font-family="Source Sans Pro" font-size="10.00">module_sf_ruclsm::qsn</text>
</a>
</g>
</g>
<!-- Node1&#45;&gt;Node1 -->
<g id="edge3_Node000001_Node000001" class="edge">
<title>Node1&#45;&gt;Node1</title>
<g id="a_edge3_Node000001_Node000001"><a xlink:title=" ">
<path fill="none" stroke="#63b8ff" d="M940.48,-68.32C937.01,-72.37 926.97,-75.25 910.38,-75.25 880.87,-75.25 872.11,-66.15 884.09,-57.54"/>
<polygon fill="#63b8ff" stroke="#63b8ff" points="943.8,-67.22 937.16,-58.96 937.2,-69.56 943.8,-67.22"/>
</a>
</g>
</g>
<!-- Node2 -->
<g id="Node000002" class="node">
<title>Node2</title>
<g id="a_Node000002"><a xlink:href="group__lsm__ruc__group_ga919051c947b9bd7272399d4b681ba2a8.html#ga919051c947b9bd7272399d4b681ba2a8" target="_top" xlink:title="The RUN LSM model is described in Smirnova et al.(1997) smirnova_1997 and Smirnova et al....">
<polygon fill="white" stroke="#666666" points="276.5,-95.25 145.75,-95.25 145.75,-76 276.5,-76 276.5,-95.25"/>
<text xml:space="preserve" text-anchor="middle" x="211.12" y="-81.75" font-family="Source Sans Pro" font-size="10.00">module_sf_ruclsm::lsmruc</text>
</a>
</g>
</g>
<!-- Node1&#45;&gt;Node2 -->
<g id="edge1_Node000001_Node000002" class="edge">
<title>Node1&#45;&gt;Node2</title>
<g id="a_edge1_Node000001_Node000002"><a xlink:title=" ">
<path fill="none" stroke="#63b8ff" d="M840.36,-58.81C832.08,-59.9 823.74,-60.87 815.75,-61.62 619.97,-80.1 387.17,-84.39 276.6,-85.36"/>
<polygon fill="#63b8ff" stroke="#63b8ff" points="840.63,-62.31 850.06,-57.48 839.68,-55.37 840.63,-62.31"/>
</a>
</g>
</g>
<!-- Node4 -->
<g id="Node000004" class="node">
<title>Node4</title>
<g id="a_Node000004"><a xlink:href="group__lsm__ruc__group_ga59cfce62a9e7a8c642e767ea7548b7c9.html#ga59cfce62a9e7a8c642e767ea7548b7c9" target="_top" xlink:title="This subroutine is called for sea ice with accumulated snow on its surface. It solves energy budget o...">
<polygon fill="white" stroke="#666666" points="633.25,-57.25 480,-57.25 480,-38 633.25,-38 633.25,-57.25"/>
<text xml:space="preserve" text-anchor="middle" x="556.62" y="-43.75" font-family="Source Sans Pro" font-size="10.00">module_sf_ruclsm::snowseaice</text>
</a>
</g>
</g>
<!-- Node1&#45;&gt;Node4 -->
<g id="edge4_Node000001_Node000004" class="edge">
<title>Node1&#45;&gt;Node4</title>
<g id="a_edge4_Node000001_Node000004"><a xlink:title=" ">
<path fill="none" stroke="#63b8ff" d="M840.13,-47.62C780.64,-47.62 695,-47.62 633.63,-47.62"/>
<polygon fill="#63b8ff" stroke="#63b8ff" points="839.78,-51.13 849.78,-47.63 839.78,-44.13 839.78,-51.13"/>
</a>
</g>
</g>
<!-- Node6 -->
<g id="Node000006" class="node">
<title>Node6</title>
<g id="a_Node000006"><a xlink:href="group__lsm__ruc__group_ga204e4de9df89836cdda1dca1ee66d86c.html#ga204e4de9df89836cdda1dca1ee66d86c" target="_top" xlink:title="This subroutine solves energy bugdget equation and heat diffusion equation to obtain snow and soil te...">
<polygon fill="white" stroke="#666666" points="815.75,-19.25 669.25,-19.25 669.25,0 815.75,0 815.75,-19.25"/>
<text xml:space="preserve" text-anchor="middle" x="742.5" y="-5.75" font-family="Source Sans Pro" font-size="10.00">module_sf_ruclsm::snowtemp</text>
</a>
</g>
</g>
<!-- Node1&#45;&gt;Node6 -->
<g id="edge8_Node000001_Node000006" class="edge">
<title>Node1&#45;&gt;Node6</title>
<g id="a_edge8_Node000001_Node000006"><a xlink:title=" ">
<path fill="none" stroke="#63b8ff" d="M854.29,-35.01C832.56,-30.03 807.94,-24.39 787.43,-19.69"/>
<polygon fill="#63b8ff" stroke="#63b8ff" points="853.35,-38.38 863.88,-37.2 854.92,-31.56 853.35,-38.38"/>
</a>
</g>
</g>
<!-- Node3 -->
<g id="Node000003" class="node">
<title>Node3</title>
<g id="a_Node000003"><a xlink:href="namespacelsm__ruc_affabfffd45a10349230af3cd4fc7cdeb.html#affabfffd45a10349230af3cd4fc7cdeb" target="_top" xlink:title=" ">
<polygon fill="white" stroke="#666666" points="109.75,-76.25 0,-76.25 0,-57 109.75,-57 109.75,-76.25"/>
<text xml:space="preserve" text-anchor="middle" x="54.88" y="-62.75" font-family="Source Sans Pro" font-size="10.00">lsm_ruc::lsm_ruc_run</text>
</a>
</g>
</g>
<!-- Node2&#45;&gt;Node3 -->
<g id="edge2_Node000002_Node000003" class="edge">
<title>Node2&#45;&gt;Node3</title>
<g id="a_edge2_Node000002_Node000003"><a xlink:title=" ">
<path fill="none" stroke="#63b8ff" d="M134.37,-76.29C126.1,-75.28 117.81,-74.25 109.88,-73.28"/>
<polygon fill="#63b8ff" stroke="#63b8ff" points="133.75,-79.74 144.1,-77.49 134.6,-72.8 133.75,-79.74"/>
</a>
</g>
</g>
<!-- Node5 -->
<g id="Node000005" class="node">
<title>Node5</title>
<g id="a_Node000005"><a xlink:href="group__lsm__ruc__group_gad9dd50472f87539dfaccb42d5495f831.html#gad9dd50472f87539dfaccb42d5495f831" target="_top" xlink:title="This subroutine solves energy and moisture budgets.">
<polygon fill="white" stroke="#666666" points="444,-57.25 312.5,-57.25 312.5,-38 444,-38 444,-57.25"/>
<text xml:space="preserve" text-anchor="middle" x="378.25" y="-43.75" font-family="Source Sans Pro" font-size="10.00">module_sf_ruclsm::sfctmp</text>
</a>
</g>
</g>
<!-- Node4&#45;&gt;Node5 -->
<g id="edge5_Node000004_Node000005" class="edge">
<title>Node4&#45;&gt;Node5</title>
<g id="a_edge5_Node000004_Node000005"><a xlink:title=" ">
<path fill="none" stroke="#63b8ff" d="M468.2,-47.62C460.14,-47.62 452.08,-47.62 444.28,-47.62"/>
<polygon fill="#63b8ff" stroke="#63b8ff" points="468.03,-51.13 478.03,-47.63 468.03,-44.13 468.03,-51.13"/>
</a>
</g>
</g>
<!-- Node5&#45;&gt;Node2 -->
<g id="edge7_Node000005_Node000002" class="edge">
<title>Node5&#45;&gt;Node2</title>
<g id="a_edge7_Node000005_Node000002"><a xlink:title=" ">
<path fill="none" stroke="#63b8ff" d="M322.42,-60.24C300.78,-65.22 276.27,-70.86 255.86,-75.56"/>
<polygon fill="#63b8ff" stroke="#63b8ff" points="323,-63.7 331.96,-58.05 321.43,-56.88 323,-63.7"/>
</a>
</g>
</g>
<!-- Node5&#45;&gt;Node3 -->
<g id="edge6_Node000005_Node000003" class="edge">
<title>Node5&#45;&gt;Node3</title>
<g id="a_edge6_Node000005_Node000003"><a xlink:title=" ">
<path fill="none" stroke="#63b8ff" d="M300.77,-52.15C242.05,-55.62 162.44,-60.32 110.14,-63.42"/>
<polygon fill="#63b8ff" stroke="#63b8ff" points="300.93,-55.64 310.7,-51.56 300.51,-48.66 300.93,-55.64"/>
</a>
</g>
</g>
<!-- Node7 -->
<g id="Node000007" class="node">
<title>Node7</title>
<g id="a_Node000007"><a xlink:href="group__lsm__ruc__group_gaecd085e0caf317dfb807e576fd426dec.html#gaecd085e0caf317dfb807e576fd426dec" target="_top" xlink:title="This subroutine is called for snow covered areas of land. It solves energy and moisture budgets on th...">
<polygon fill="white" stroke="#666666" points="626.5,-20.25 486.75,-20.25 486.75,-1 626.5,-1 626.5,-20.25"/>
<text xml:space="preserve" text-anchor="middle" x="556.62" y="-6.75" font-family="Source Sans Pro" font-size="10.00">module_sf_ruclsm::snowsoil</text>
</a>
</g>
</g>
<!-- Node6&#45;&gt;Node7 -->
<g id="edge9_Node000006_Node000007" class="edge">
<title>Node6&#45;&gt;Node7</title>
<g id="a_edge9_Node000006_Node000007"><a xlink:title=" ">
<path fill="none" stroke="#63b8ff" d="M657.35,-10.08C647.12,-10.14 636.75,-10.19 626.77,-10.25"/>
<polygon fill="#63b8ff" stroke="#63b8ff" points="657.33,-13.58 667.31,-10.03 657.3,-6.58 657.33,-13.58"/>
</a>
</g>
</g>
<!-- Node7&#45;&gt;Node5 -->
<g id="edge10_Node000007_Node000005" class="edge">
<title>Node7&#45;&gt;Node5</title>
<g id="a_edge10_Node000007_Node000005"><a xlink:title=" ">
<path fill="none" stroke="#63b8ff" d="M496.33,-23.06C473.9,-27.77 448.67,-33.06 427.39,-37.53"/>
<polygon fill="#63b8ff" stroke="#63b8ff" points="496.88,-26.52 505.95,-21.05 495.44,-19.67 496.88,-26.52"/>
</a>
</g>
</g>
</g>
</svg>
