<?xml version="1.0" encoding="UTF-8" standalone="no"?>
<!DOCTYPE svg PUBLIC "-//W3C//DTD SVG 1.1//EN"
 "http://www.w3.org/Graphics/SVG/1.1/DTD/svg11.dtd">
<!-- Generated by graphviz version 14.1.2 (20260124.0452)
 -->
<!-- Title: tsnosoi Pages: 1 -->
<svg width="211pt" height="64pt"
 viewBox="0.00 0.00 211.00 64.00" xmlns="http://www.w3.org/2000/svg" xmlns:xlink="http://www.w3.org/1999/xlink">
<g id="graph0" class="graph" transform="scale(1 1) rotate(0) translate(4 60.25)">
<title>tsnosoi</title>
<!-- Node1 -->
<g id="Node000001" class="node">
<title>Node1</title>
<g id="a_Node000001"><a xlink:title="compute snow (up to 3l) and soil (4l) temperature. note that snow temperatures during melting season ...">
<polygon fill="#999999" stroke="#666666" points="47.5,-37.25 0,-37.25 0,-18 47.5,-18 47.5,-37.25"/>
<text xml:space="preserve" text-anchor="middle" x="23.75" y="-23.75" font-family="Source Sans Pro" font-size="10.00">tsnosoi</text>
</a>
</g>
</g>
<!-- Node2 -->
<g id="Node000002" class="node">
<title>Node2</title>
<g id="a_Node000002"><a xlink:href="group___noah_m_p___l_s_m_ga676e00f810d3c10c628b878fd7d2c728.html#ga676e00f810d3c10c628b878fd7d2c728" target="_top" xlink:title="calculate the right hand side of the time tendency term of the soil thermal diffusion equation....">
<polygon fill="white" stroke="#666666" points="117.9,-56.25 89.1,-56.25 89.1,-37 117.9,-37 117.9,-56.25"/>
<text xml:space="preserve" text-anchor="middle" x="103.5" y="-42.75" font-family="Source Sans Pro" font-size="10.00">hrt</text>
</a>
</g>
</g>
<!-- Node1&#45;&gt;Node2 -->
<g id="edge1_Node000001_Node000002" class="edge">
<title>Node1&#45;&gt;Node2</title>
<g id="a_edge1_Node000001_Node000002"><a xlink:title=" ">
<path fill="none" stroke="#63b8ff" d="M47.66,-33.22C57.21,-35.56 68.32,-38.27 78.03,-40.65"/>
<polygon fill="#63b8ff" stroke="#63b8ff" points="76.97,-43.99 87.52,-42.96 78.64,-37.19 76.97,-43.99"/>
</a>
</g>
</g>
<!-- Node3 -->
<g id="Node000003" class="node">
<title>Node3</title>
<g id="a_Node000003"><a xlink:href="group___noah_m_p___l_s_m_ga1ee9e5d99d3e45d7647507959077328a.html#ga1ee9e5d99d3e45d7647507959077328a" target="_top" xlink:title="calculate/update the soil temperature fields.">
<polygon fill="white" stroke="#666666" points="123.5,-19.25 83.5,-19.25 83.5,0 123.5,0 123.5,-19.25"/>
<text xml:space="preserve" text-anchor="middle" x="103.5" y="-5.75" font-family="Source Sans Pro" font-size="10.00">hstep</text>
</a>
</g>
</g>
<!-- Node1&#45;&gt;Node3 -->
<g id="edge2_Node000001_Node000003" class="edge">
<title>Node1&#45;&gt;Node3</title>
<g id="a_edge2_Node000001_Node000003"><a xlink:title=" ">
<path fill="none" stroke="#63b8ff" d="M47.66,-22.32C55.33,-20.55 64.01,-18.54 72.16,-16.65"/>
<polygon fill="#63b8ff" stroke="#63b8ff" points="72.74,-20.11 81.69,-14.44 71.16,-13.29 72.74,-20.11"/>
</a>
</g>
</g>
<!-- Node4 -->
<g id="Node000004" class="node">
<title>Node4</title>
<g id="a_Node000004"><a xlink:href="group___noah_m_p___l_s_m_ga7a305dbb6a9210b227ee310c71f30fd9.html#ga7a305dbb6a9210b227ee310c71f30fd9" target="_top" xlink:title="solve the tri&#45;diagonal matrix equation">
<polygon fill="white" stroke="#666666" points="202.5,-19.25 159.5,-19.25 159.5,0 202.5,0 202.5,-19.25"/>
<text xml:space="preserve" text-anchor="middle" x="181" y="-5.75" font-family="Source Sans Pro" font-size="10.00">rosr12</text>
</a>
</g>
</g>
<!-- Node3&#45;&gt;Node4 -->
<g id="edge3_Node000003_Node000004" class="edge">
<title>Node3&#45;&gt;Node4</title>
<g id="a_edge3_Node000003_Node000004"><a xlink:title=" ">
<path fill="none" stroke="#63b8ff" d="M123.94,-9.62C131.16,-9.62 139.57,-9.62 147.63,-9.62"/>
<polygon fill="#63b8ff" stroke="#63b8ff" points="147.52,-13.13 157.52,-9.63 147.52,-6.13 147.52,-13.13"/>
</a>
</g>
</g>
</g>
</svg>
