<?xml version="1.0" encoding="UTF-8" standalone="no"?>
<!DOCTYPE svg PUBLIC "-//W3C//DTD SVG 1.1//EN"
 "http://www.w3.org/Graphics/SVG/1.1/DTD/svg11.dtd">
<!-- Generated by graphviz version 14.1.2 (20260124.0452)
 -->
<!-- Title: snowwater Pages: 1 -->
<svg width="332pt" height="158pt"
 viewBox="0.00 0.00 332.00 158.00" xmlns="http://www.w3.org/2000/svg" xmlns:xlink="http://www.w3.org/1999/xlink">

<svg id="main" version="1.1" xmlns="http://www.w3.org/2000/svg" xmlns:xlink="http://www.w3.org/1999/xlink" xml:space="preserve">

<style type="text/css"><![CDATA[
.node, .edge {opacity: 0.7;}
.node.selected, .edge.selected {opacity: 1;}
.edge:hover path { stroke: red; }
.edge:hover polygon { stroke: red; fill: red; }
]]></style>
<script type="application/ecmascript" xlink:href="svg.min.js"/>
<svg id="graph" class="graph">
<g id="graph0" class="graph" transform="scale(1 1) rotate(0) translate(4 154.25)">
<title>snowwater</title>
<!-- Node1 -->
<g id="Node000001" class="node">
<title>Node1</title>
<g id="a_Node000001"><a xlink:title=" ">
<polygon fill="#999999" stroke="#666666" points="63.25,-75.25 0,-75.25 0,-56 63.25,-56 63.25,-75.25"/>
<text xml:space="preserve" text-anchor="middle" x="31.62" y="-61.75" font-family="Source Sans Pro" font-size="10.00">snowwater</text>
</a>
</g>
</g>
<!-- Node2 -->
<g id="Node000002" class="node">
<title>Node2</title>
<g id="a_Node000002"><a xlink:href="group___noah_m_p___l_s_m_ga0d1a0707cf2a2a4fd14444b111a55048.html#ga0d1a0707cf2a2a4fd14444b111a55048" target="_top" xlink:title=" ">
<polygon fill="white" stroke="#666666" points="243,-75.25 190.25,-75.25 190.25,-56 243,-56 243,-75.25"/>
<text xml:space="preserve" text-anchor="middle" x="216.62" y="-61.75" font-family="Source Sans Pro" font-size="10.00">combine</text>
</a>
</g>
</g>
<!-- Node1&#45;&gt;Node2 -->
<g id="edge1_Node000001_Node000002" class="edge">
<title>Node1&#45;&gt;Node2</title>
<g id="a_edge1_Node000001_Node000002"><a xlink:title=" ">
<path fill="none" stroke="#63b8ff" d="M63.67,-65.62C95.41,-65.62 144.73,-65.62 178.51,-65.62"/>
<polygon fill="#63b8ff" stroke="#63b8ff" points="178.25,-69.13 188.25,-65.63 178.25,-62.13 178.25,-69.13"/>
</a>
</g>
</g>
<!-- Node4 -->
<g id="Node000004" class="node">
<title>Node4</title>
<g id="a_Node000004"><a xlink:href="group___noah_m_p___l_s_m_gabc66ddc0a33ac2d9fe3a1677febd1725.html#gabc66ddc0a33ac2d9fe3a1677febd1725" target="_top" xlink:title=" ">
<polygon fill="white" stroke="#666666" points="153.5,-113.25 100,-113.25 100,-94 153.5,-94 153.5,-113.25"/>
<text xml:space="preserve" text-anchor="middle" x="126.75" y="-99.75" font-family="Source Sans Pro" font-size="10.00">compact</text>
</a>
</g>
</g>
<!-- Node1&#45;&gt;Node4 -->
<g id="edge3_Node000001_Node000004" class="edge">
<title>Node1&#45;&gt;Node4</title>
<g id="a_edge3_Node000001_Node000004"><a xlink:title=" ">
<path fill="none" stroke="#63b8ff" d="M57.09,-75.61C67.38,-79.81 79.55,-84.77 90.76,-89.35"/>
<polygon fill="#63b8ff" stroke="#63b8ff" points="89.14,-92.47 99.72,-93 91.78,-85.99 89.14,-92.47"/>
</a>
</g>
</g>
<!-- Node5 -->
<g id="Node000005" class="node">
<title>Node5</title>
<g id="a_Node000005"><a xlink:href="group___noah_m_p___l_s_m_ga2a809bb1c3c3307616446d4f27d00d5c.html#ga2a809bb1c3c3307616446d4f27d00d5c" target="_top" xlink:title=" ">
<polygon fill="white" stroke="#666666" points="237.38,-19.25 195.88,-19.25 195.88,0 237.38,0 237.38,-19.25"/>
<text xml:space="preserve" text-anchor="middle" x="216.62" y="-5.75" font-family="Source Sans Pro" font-size="10.00">divide</text>
</a>
</g>
</g>
<!-- Node1&#45;&gt;Node5 -->
<g id="edge4_Node000001_Node000005" class="edge">
<title>Node1&#45;&gt;Node5</title>
<g id="a_edge4_Node000001_Node000005"><a xlink:title=" ">
<path fill="none" stroke="#63b8ff" d="M40.33,-55.59C51.55,-41.9 73.83,-18.01 99.25,-8.62 126.65,1.5 160.22,-0.13 184.25,-3.47"/>
<polygon fill="#63b8ff" stroke="#63b8ff" points="183.62,-6.91 194.04,-5.02 184.71,0 183.62,-6.91"/>
</a>
</g>
</g>
<!-- Node6 -->
<g id="Node000006" class="node">
<title>Node6</title>
<g id="a_Node000006"><a xlink:href="group___noah_m_p___l_s_m_ga27b8403f2911888350b2ce246e3c6620.html#ga27b8403f2911888350b2ce246e3c6620" target="_top" xlink:title="snow depth and density to account for the new snowfall. new values of snow depth &amp; density returned.">
<polygon fill="white" stroke="#666666" points="152.75,-37.25 100.75,-37.25 100.75,-18 152.75,-18 152.75,-37.25"/>
<text xml:space="preserve" text-anchor="middle" x="126.75" y="-23.75" font-family="Source Sans Pro" font-size="10.00">snowfall</text>
</a>
</g>
</g>
<!-- Node1&#45;&gt;Node6 -->
<g id="edge6_Node000001_Node000006" class="edge">
<title>Node1&#45;&gt;Node6</title>
<g id="a_edge6_Node000001_Node000006"><a xlink:title=" ">
<path fill="none" stroke="#63b8ff" d="M57.09,-55.64C67.38,-51.44 79.55,-46.48 90.76,-41.9"/>
<polygon fill="#63b8ff" stroke="#63b8ff" points="91.78,-45.26 99.72,-38.25 89.14,-38.78 91.78,-45.26"/>
</a>
</g>
</g>
<!-- Node7 -->
<g id="Node000007" class="node">
<title>Node7</title>
<g id="a_Node000007"><a xlink:href="group___noah_m_p___l_s_m_gad5df8e19f96bc0e98560e5df8c49c0fa.html#gad5df8e19f96bc0e98560e5df8c49c0fa" target="_top" xlink:title="renew the mass of ice lens (snice) and liquid (snliq) of the surface snow layer resulting from sublim...">
<polygon fill="white" stroke="#666666" points="154.25,-150.25 99.25,-150.25 99.25,-131 154.25,-131 154.25,-150.25"/>
<text xml:space="preserve" text-anchor="middle" x="126.75" y="-136.75" font-family="Source Sans Pro" font-size="10.00">snowh2o</text>
</a>
</g>
</g>
<!-- Node1&#45;&gt;Node7 -->
<g id="edge7_Node000001_Node000007" class="edge">
<title>Node1&#45;&gt;Node7</title>
<g id="a_edge7_Node000001_Node000007"><a xlink:title=" ">
<path fill="none" stroke="#63b8ff" d="M43.63,-75.7C56.58,-87.41 78.93,-107.1 99.25,-122.62 99.91,-123.13 100.59,-123.64 101.28,-124.15"/>
<polygon fill="#63b8ff" stroke="#63b8ff" points="98.99,-126.82 109.18,-129.75 103.04,-121.11 98.99,-126.82"/>
</a>
</g>
</g>
<!-- Node3 -->
<g id="Node000003" class="node">
<title>Node3</title>
<g id="a_Node000003"><a xlink:href="group___noah_m_p___l_s_m_ga4804d8de40f7ea8a8cf4ed6e22ff4aa0.html#ga4804d8de40f7ea8a8cf4ed6e22ff4aa0" target="_top" xlink:title=" ">
<polygon fill="white" stroke="#666666" points="324.25,-37.25 279,-37.25 279,-18 324.25,-18 324.25,-37.25"/>
<text xml:space="preserve" text-anchor="middle" x="301.62" y="-23.75" font-family="Source Sans Pro" font-size="10.00">combo</text>
</a>
</g>
</g>
<!-- Node2&#45;&gt;Node3 -->
<g id="edge2_Node000002_Node000003" class="edge">
<title>Node2&#45;&gt;Node3</title>
<g id="a_edge2_Node000002_Node000003"><a xlink:title=" ">
<path fill="none" stroke="#63b8ff" d="M239.43,-55.64C248.32,-51.57 258.78,-46.78 268.51,-42.33"/>
<polygon fill="#63b8ff" stroke="#63b8ff" points="269.66,-45.65 277.3,-38.3 266.75,-39.28 269.66,-45.65"/>
</a>
</g>
</g>
<!-- Node5&#45;&gt;Node3 -->
<g id="edge5_Node000005_Node000003" class="edge">
<title>Node5&#45;&gt;Node3</title>
<g id="a_edge5_Node000005_Node000003"><a xlink:title=" ">
<path fill="none" stroke="#63b8ff" d="M237.72,-13.98C246.71,-15.93 257.55,-18.28 267.68,-20.48"/>
<polygon fill="#63b8ff" stroke="#63b8ff" points="266.68,-23.85 277.2,-22.54 268.17,-17 266.68,-23.85"/>
</a>
</g>
</g>
<!-- Node7&#45;&gt;Node2 -->
<g id="edge8_Node000007_Node000002" class="edge">
<title>Node7&#45;&gt;Node2</title>
<g id="a_edge8_Node000007_Node000002"><a xlink:title=" ">
<path fill="none" stroke="#63b8ff" d="M143.45,-130.54C147.07,-128.05 150.86,-125.33 154.25,-122.62 169.66,-110.35 185.95,-95.11 197.87,-83.47"/>
<polygon fill="#63b8ff" stroke="#63b8ff" points="200.32,-85.97 204.97,-76.45 195.4,-80.99 200.32,-85.97"/>
</a>
</g>
</g>
</g>
</svg>
</svg>

<style type='text/css'>
<![CDATA[
[data-mouse-over-selected='false'] { opacity: 0.7; }
[data-mouse-over-selected='true']  { opacity: 1.0; }
]]>
</style>
<script type="application/ecmascript"><![CDATA[
document.addEventListener('DOMContentLoaded', (event) => {
  highlightEdges();
  highlightAdjacentNodes();
});
]]></script>
</svg>
