<?xml version="1.0" encoding="UTF-8" standalone="no"?>
<!DOCTYPE svg PUBLIC "-//W3C//DTD SVG 1.1//EN"
 "http://www.w3.org/Graphics/SVG/1.1/DTD/svg11.dtd">
<!-- Generated by graphviz version 14.1.2 (20260124.0452)
 -->
<!-- Title: vege_flux Pages: 1 -->
<svg width="290pt" height="323pt"
 viewBox="0.00 0.00 290.00 323.00" xmlns="http://www.w3.org/2000/svg" xmlns:xlink="http://www.w3.org/1999/xlink">
<g id="graph0" class="graph" transform="scale(1 1) rotate(0) translate(4 319.25)">
<title>vege_flux</title>
<!-- Node1 -->
<g id="Node000001" class="node">
<title>Node1</title>
<g id="a_Node000001"><a xlink:title="use newton&#45;raphson iteration to solve for vegetation (tv) and ground (tg) temperatures that balance t...">
<polygon fill="#999999" stroke="#666666" points="58,-167.25 0,-167.25 0,-148 58,-148 58,-167.25"/>
<text xml:space="preserve" text-anchor="middle" x="29" y="-153.75" font-family="Source Sans Pro" font-size="10.00">vege_flux</text>
</a>
</g>
</g>
<!-- Node2 -->
<g id="Node000002" class="node">
<title>Node2</title>
<g id="a_Node000002"><a xlink:href="group___noah_m_p___l_s_m_gaefd89a05ffdebdf90a566066a5704afb.html#gaefd89a05ffdebdf90a566066a5704afb" target="_top" xlink:title="calculate canopy resistance which depends on incoming solar radiation, air temperature,...">
<polygon fill="white" stroke="#666666" points="146,-315.25 100.75,-315.25 100.75,-296 146,-296 146,-315.25"/>
<text xml:space="preserve" text-anchor="middle" x="123.38" y="-301.75" font-family="Source Sans Pro" font-size="10.00">canres</text>
</a>
</g>
</g>
<!-- Node1&#45;&gt;Node2 -->
<g id="edge1_Node000001_Node000002" class="edge">
<title>Node1&#45;&gt;Node2</title>
<g id="a_edge1_Node000001_Node000002"><a xlink:title=" ">
<path fill="none" stroke="#63b8ff" d="M32.81,-167.49C39.83,-190.73 60.06,-249.81 94,-287.62 94.17,-287.81 94.33,-287.99 94.5,-288.18"/>
<polygon fill="#63b8ff" stroke="#63b8ff" points="92.17,-290.79 102.07,-294.56 96.69,-285.44 92.17,-290.79"/>
</a>
</g>
</g>
<!-- Node4 -->
<g id="Node000004" class="node">
<title>Node4</title>
<g id="a_Node000004"><a xlink:href="group___noah_m_p___l_s_m_gaecaebf370302a4553aafbf34e22f68c7.html#gaecaebf370302a4553aafbf34e22f68c7" target="_top" xlink:title="use polynomials to calculate saturation vapor pressure and derivative with respect to temperature: ov...">
<polygon fill="white" stroke="#666666" points="140.75,-278.25 106,-278.25 106,-259 140.75,-259 140.75,-278.25"/>
<text xml:space="preserve" text-anchor="middle" x="123.38" y="-264.75" font-family="Source Sans Pro" font-size="10.00">esat</text>
</a>
</g>
</g>
<!-- Node1&#45;&gt;Node4 -->
<g id="edge3_Node000001_Node000004" class="edge">
<title>Node1&#45;&gt;Node4</title>
<g id="a_edge3_Node000001_Node000004"><a xlink:title=" ">
<path fill="none" stroke="#63b8ff" d="M35.07,-167.54C44.68,-185.67 67.04,-224.65 94,-250.62 94.86,-251.45 95.77,-252.27 96.7,-253.06"/>
<polygon fill="#63b8ff" stroke="#63b8ff" points="94.28,-255.62 104.42,-258.69 98.41,-249.97 94.28,-255.62"/>
</a>
</g>
</g>
<!-- Node5 -->
<g id="Node000005" class="node">
<title>Node5</title>
<g id="a_Node000005"><a xlink:href="group___noah_m_p___l_s_m_gacbfc8b3400751a5ca499cdb11faf7444.html#gacbfc8b3400751a5ca499cdb11faf7444" target="_top" xlink:title="compute under&#45;canopy aerodynamic resistance rag and leaf boundary layer resistance rb.">
<polygon fill="white" stroke="#666666" points="142.25,-241.25 104.5,-241.25 104.5,-222 142.25,-222 142.25,-241.25"/>
<text xml:space="preserve" text-anchor="middle" x="123.38" y="-227.75" font-family="Source Sans Pro" font-size="10.00">ragrb</text>
</a>
</g>
</g>
<!-- Node1&#45;&gt;Node5 -->
<g id="edge4_Node000001_Node000005" class="edge">
<title>Node1&#45;&gt;Node5</title>
<g id="a_edge4_Node000001_Node000005"><a xlink:title=" ">
<path fill="none" stroke="#63b8ff" d="M40.45,-167.66C52.78,-179.3 74.14,-198.77 94,-213.62 94.68,-214.14 95.38,-214.65 96.09,-215.16"/>
<polygon fill="#63b8ff" stroke="#63b8ff" points="94.08,-218.03 104.33,-220.72 98,-212.23 94.08,-218.03"/>
</a>
</g>
</g>
<!-- Node6 -->
<g id="Node000006" class="node">
<title>Node6</title>
<g id="a_Node000006"><a xlink:href="group___noah_m_p___l_s_m_ga4e76a9ee20e3ff7f36f761ffdc781690.html#ga4e76a9ee20e3ff7f36f761ffdc781690" target="_top" xlink:title="compute surface drag coefficient cm for momentum and ch for heat.">
<polygon fill="white" stroke="#666666" points="146,-204.25 100.75,-204.25 100.75,-185 146,-185 146,-204.25"/>
<text xml:space="preserve" text-anchor="middle" x="123.38" y="-190.75" font-family="Source Sans Pro" font-size="10.00">sfcdif1</text>
</a>
</g>
</g>
<!-- Node1&#45;&gt;Node6 -->
<g id="edge5_Node000001_Node000006" class="edge">
<title>Node1&#45;&gt;Node6</title>
<g id="a_edge5_Node000001_Node000006"><a xlink:title=" ">
<path fill="none" stroke="#63b8ff" d="M55.24,-167.74C65.93,-172.02 78.51,-177.06 89.88,-181.61"/>
<polygon fill="#63b8ff" stroke="#63b8ff" points="88.32,-184.75 98.9,-185.22 90.92,-178.26 88.32,-184.75"/>
</a>
</g>
</g>
<!-- Node7 -->
<g id="Node000007" class="node">
<title>Node7</title>
<g id="a_Node000007"><a xlink:href="group___noah_m_p___l_s_m_ga8a86a91a2b7884f8fcd1d32a0edc405e.html#ga8a86a91a2b7884f8fcd1d32a0edc405e" target="_top" xlink:title="calculate surface layer exchange coefficients via iteractive process (Chen et al. 1997,...">
<polygon fill="white" stroke="#666666" points="146,-167.25 100.75,-167.25 100.75,-148 146,-148 146,-167.25"/>
<text xml:space="preserve" text-anchor="middle" x="123.38" y="-153.75" font-family="Source Sans Pro" font-size="10.00">sfcdif2</text>
</a>
</g>
</g>
<!-- Node1&#45;&gt;Node7 -->
<g id="edge6_Node000001_Node000007" class="edge">
<title>Node1&#45;&gt;Node7</title>
<g id="a_edge6_Node000001_Node000007"><a xlink:title=" ">
<path fill="none" stroke="#63b8ff" d="M58.47,-157.62C68.15,-157.62 79.05,-157.62 89.07,-157.62"/>
<polygon fill="#63b8ff" stroke="#63b8ff" points="88.79,-161.13 98.79,-157.63 88.79,-154.13 88.79,-161.13"/>
</a>
</g>
</g>
<!-- Node8 -->
<g id="Node000008" class="node">
<title>Node8</title>
<g id="a_Node000008"><a xlink:href="group___noah_m_p___l_s_m_ga5894e4162657666340f3bd83f4b6263d.html#ga5894e4162657666340f3bd83f4b6263d" target="_top" xlink:title="compute surface drag coefficient cm for momentum and ch for heat.">
<polygon fill="white" stroke="#666666" points="146,-130.25 100.75,-130.25 100.75,-111 146,-111 146,-130.25"/>
<text xml:space="preserve" text-anchor="middle" x="123.38" y="-116.75" font-family="Source Sans Pro" font-size="10.00">sfcdif3</text>
</a>
</g>
</g>
<!-- Node1&#45;&gt;Node8 -->
<g id="edge7_Node000001_Node000008" class="edge">
<title>Node1&#45;&gt;Node8</title>
<g id="a_edge7_Node000001_Node000008"><a xlink:title=" ">
<path fill="none" stroke="#63b8ff" d="M55.24,-147.51C65.93,-143.23 78.51,-138.19 89.88,-133.64"/>
<polygon fill="#63b8ff" stroke="#63b8ff" points="90.92,-136.99 98.9,-130.03 88.32,-130.5 90.92,-136.99"/>
</a>
</g>
</g>
<!-- Node9 -->
<g id="Node000009" class="node">
<title>Node9</title>
<g id="a_Node000009"><a xlink:href="group___noah_m_p___l_s_m_ga4a88258da12057ced7c9dc5760b53d13.html#ga4a88258da12057ced7c9dc5760b53d13" target="_top" xlink:title=" ">
<polygon fill="white" stroke="#666666" points="146,-93.25 100.75,-93.25 100.75,-74 146,-74 146,-93.25"/>
<text xml:space="preserve" text-anchor="middle" x="123.38" y="-79.75" font-family="Source Sans Pro" font-size="10.00">sfcdif4</text>
</a>
</g>
</g>
<!-- Node1&#45;&gt;Node9 -->
<g id="edge8_Node000001_Node000009" class="edge">
<title>Node1&#45;&gt;Node9</title>
<g id="a_edge8_Node000001_Node000009"><a xlink:title=" ">
<path fill="none" stroke="#63b8ff" d="M40.45,-147.59C52.78,-135.95 74.14,-116.48 94,-101.62 94.68,-101.11 95.38,-100.6 96.09,-100.09"/>
<polygon fill="#63b8ff" stroke="#63b8ff" points="98,-103.02 104.33,-94.53 94.08,-97.22 98,-103.02"/>
</a>
</g>
</g>
<!-- Node15 -->
<g id="Node000015" class="node">
<title>Node15</title>
<g id="a_Node000015"><a xlink:href="group___noah_m_p___l_s_m_gaeb7ee3e6405cb5d9bbec7126ee2e7772.html#gaeb7ee3e6405cb5d9bbec7126ee2e7772" target="_top" xlink:title=" ">
<polygon fill="white" stroke="#666666" points="149,-56.25 97.75,-56.25 97.75,-37 149,-37 149,-56.25"/>
<text xml:space="preserve" text-anchor="middle" x="123.38" y="-42.75" font-family="Source Sans Pro" font-size="10.00">stomata</text>
</a>
</g>
</g>
<!-- Node1&#45;&gt;Node15 -->
<g id="edge14_Node000001_Node000015" class="edge">
<title>Node1&#45;&gt;Node15</title>
<g id="a_edge14_Node000001_Node000015"><a xlink:title=" ">
<path fill="none" stroke="#63b8ff" d="M35.07,-147.71C44.68,-129.58 67.04,-90.6 94,-64.62 94.38,-64.26 94.76,-63.9 95.16,-63.54"/>
<polygon fill="#63b8ff" stroke="#63b8ff" points="97.15,-66.42 102.96,-57.56 92.89,-60.87 97.15,-66.42"/>
</a>
</g>
</g>
<!-- Node16 -->
<g id="Node000016" class="node">
<title>Node16</title>
<g id="a_Node000016"><a xlink:href="group___noah_m_p___l_s_m_gae2fa81a8d36349faf818400ee46c6357.html#gae2fa81a8d36349faf818400ee46c6357" target="_top" xlink:title=" ">
<polygon fill="white" stroke="#666666" points="152.75,-19.25 94,-19.25 94,0 152.75,0 152.75,-19.25"/>
<text xml:space="preserve" text-anchor="middle" x="123.38" y="-5.75" font-family="Source Sans Pro" font-size="10.00">thermalz0</text>
</a>
</g>
</g>
<!-- Node1&#45;&gt;Node16 -->
<g id="edge15_Node000001_Node000016" class="edge">
<title>Node1&#45;&gt;Node16</title>
<g id="a_edge15_Node000001_Node000016"><a xlink:title=" ">
<path fill="none" stroke="#63b8ff" d="M32.81,-147.76C39.83,-124.52 60.06,-65.44 94,-27.62 94.17,-27.44 94.33,-27.26 94.5,-27.07"/>
<polygon fill="#63b8ff" stroke="#63b8ff" points="96.69,-29.81 102.07,-20.69 92.17,-24.46 96.69,-29.81"/>
</a>
</g>
</g>
<!-- Node3 -->
<g id="Node000003" class="node">
<title>Node3</title>
<g id="a_Node000003"><a xlink:href="group___noah_m_p___l_s_m_gaa0c1d53715638ac0451a47dd559b22ae.html#gaa0c1d53715638ac0451a47dd559b22ae" target="_top" xlink:title=" ">
<polygon fill="white" stroke="#666666" points="259.12,-315.25 211.62,-315.25 211.62,-296 259.12,-296 259.12,-315.25"/>
<text xml:space="preserve" text-anchor="middle" x="235.38" y="-301.75" font-family="Source Sans Pro" font-size="10.00">calhum</text>
</a>
</g>
</g>
<!-- Node2&#45;&gt;Node3 -->
<g id="edge2_Node000002_Node000003" class="edge">
<title>Node2&#45;&gt;Node3</title>
<g id="a_edge2_Node000002_Node000003"><a xlink:title=" ">
<path fill="none" stroke="#63b8ff" d="M146.37,-305.62C161.65,-305.62 182.33,-305.62 199.8,-305.62"/>
<polygon fill="#63b8ff" stroke="#63b8ff" points="199.77,-309.13 209.77,-305.63 199.77,-302.13 199.77,-309.13"/>
</a>
</g>
</g>
<!-- Node10 -->
<g id="Node000010" class="node">
<title>Node10</title>
<g id="a_Node000010"><a xlink:href="group__mynn__sfc_gab8e348eef161b16bada8841a900501c2.html#gab8e348eef161b16bada8841a900501c2" target="_top" xlink:title="this is taken from andreas (2002; j. of hydromet) and andreas et al. (2005; blm).">
<polygon fill="white" stroke="#666666" points="273.75,-167.25 197,-167.25 197,-148 273.75,-148 273.75,-167.25"/>
<text xml:space="preserve" text-anchor="middle" x="235.38" y="-153.75" font-family="Source Sans Pro" font-size="10.00">andreas_2002</text>
</a>
</g>
</g>
<!-- Node9&#45;&gt;Node10 -->
<g id="edge9_Node000009_Node000010" class="edge">
<title>Node9&#45;&gt;Node10</title>
<g id="a_edge9_Node000009_Node000010"><a xlink:title=" ">
<path fill="none" stroke="#63b8ff" d="M141.66,-93.63C145.44,-96.08 149.33,-98.81 152.75,-101.62 170.71,-116.41 169.47,-126.6 188.75,-139.62 190.3,-140.67 191.92,-141.67 193.59,-142.63"/>
<polygon fill="#63b8ff" stroke="#63b8ff" points="191.64,-145.56 202.15,-146.91 194.77,-139.3 191.64,-145.56"/>
</a>
</g>
</g>
<!-- Node11 -->
<g id="Node000011" class="node">
<title>Node11</title>
<g id="a_Node000011"><a xlink:href="group___noah_m_p___l_s_m_ga88dbf6bdf1a8097e27b06ddfce89516c.html#ga88dbf6bdf1a8097e27b06ddfce89516c" target="_top" xlink:title="data. the formula for land uses a constant ratio (z_0/7.4) taken from garratt (1992).">
<polygon fill="white" stroke="#666666" points="270.38,-130.25 200.38,-130.25 200.38,-111 270.38,-111 270.38,-130.25"/>
<text xml:space="preserve" text-anchor="middle" x="235.38" y="-116.75" font-family="Source Sans Pro" font-size="10.00">garratt_1992</text>
</a>
</g>
</g>
<!-- Node9&#45;&gt;Node11 -->
<g id="edge10_Node000009_Node000011" class="edge">
<title>Node9&#45;&gt;Node11</title>
<g id="a_edge10_Node000009_Node000011"><a xlink:title=" ">
<path fill="none" stroke="#63b8ff" d="M146.37,-91.02C159.92,-95.58 177.71,-101.57 193.75,-106.96"/>
<polygon fill="#63b8ff" stroke="#63b8ff" points="192.47,-110.22 203.07,-110.09 194.7,-103.59 192.47,-110.22"/>
</a>
</g>
</g>
<!-- Node12 -->
<g id="Node000012" class="node">
<title>Node12</title>
<g id="a_Node000012"><a xlink:href="group__mynn__sfc_ga7bbe8445bfcae5adad4fed82a0ecbaee.html#ga7bbe8445bfcae5adad4fed82a0ecbaee" target="_top" xlink:title="this subroutine returns a more robust z/l that best matches the z/l from hogstrom (1996) for unstable...">
<polygon fill="white" stroke="#666666" points="269.25,-93.25 201.5,-93.25 201.5,-74 269.25,-74 269.25,-93.25"/>
<text xml:space="preserve" text-anchor="middle" x="235.38" y="-79.75" font-family="Source Sans Pro" font-size="10.00">li_etal_2010</text>
</a>
</g>
</g>
<!-- Node9&#45;&gt;Node12 -->
<g id="edge11_Node000009_Node000012" class="edge">
<title>Node9&#45;&gt;Node12</title>
<g id="a_edge11_Node000009_Node000012"><a xlink:title=" ">
<path fill="none" stroke="#63b8ff" d="M146.37,-83.62C158.86,-83.62 174.96,-83.62 189.96,-83.62"/>
<polygon fill="#63b8ff" stroke="#63b8ff" points="189.63,-87.13 199.63,-83.63 189.63,-80.13 189.63,-87.13"/>
</a>
</g>
</g>
<!-- Node13 -->
<g id="Node000013" class="node">
<title>Node13</title>
<g id="a_Node000013"><a xlink:href="group__mynn__sfc_ga25595438cdc181cd5e5e05aa45486a69.html#ga25595438cdc181cd5e5e05aa45486a69" target="_top" xlink:title="this is a modified version of yang et al (2002 qjrms, 2008 jamc) and chen et al (2010,...">
<polygon fill="white" stroke="#666666" points="267,-56.25 203.75,-56.25 203.75,-37 267,-37 267,-56.25"/>
<text xml:space="preserve" text-anchor="middle" x="235.38" y="-42.75" font-family="Source Sans Pro" font-size="10.00">yang_2008</text>
</a>
</g>
</g>
<!-- Node9&#45;&gt;Node13 -->
<g id="edge12_Node000009_Node000013" class="edge">
<title>Node9&#45;&gt;Node13</title>
<g id="a_edge12_Node000009_Node000013"><a xlink:title=" ">
<path fill="none" stroke="#63b8ff" d="M146.37,-76.23C159.92,-71.67 177.71,-65.68 193.75,-60.29"/>
<polygon fill="#63b8ff" stroke="#63b8ff" points="194.7,-63.66 203.07,-57.16 192.47,-57.03 194.7,-63.66"/>
</a>
</g>
</g>
<!-- Node14 -->
<g id="Node000014" class="node">
<title>Node14</title>
<g id="a_Node000014"><a xlink:href="group___noah_m_p___l_s_m_gaa1453a4f904aa171ea91510f464824b3.html#gaa1453a4f904aa171ea91510f464824b3" target="_top" xlink:title=" ">
<polygon fill="white" stroke="#666666" points="282,-19.25 188.75,-19.25 188.75,0 282,0 282,-19.25"/>
<text xml:space="preserve" text-anchor="middle" x="235.38" y="-5.75" font-family="Source Sans Pro" font-size="10.00">zilitinkevich_1995</text>
</a>
</g>
</g>
<!-- Node9&#45;&gt;Node14 -->
<g id="edge13_Node000009_Node000014" class="edge">
<title>Node9&#45;&gt;Node14</title>
<g id="a_edge13_Node000009_Node000014"><a xlink:title=" ">
<path fill="none" stroke="#63b8ff" d="M141.66,-73.62C145.44,-71.17 149.33,-68.44 152.75,-65.62 170.71,-50.84 169.47,-40.65 188.75,-27.62 190.3,-26.58 191.92,-25.58 193.59,-24.62"/>
<polygon fill="#63b8ff" stroke="#63b8ff" points="194.77,-27.95 202.15,-20.34 191.64,-21.69 194.77,-27.95"/>
</a>
</g>
</g>
</g>
</svg>
