<?xml version="1.0" encoding="UTF-8" standalone="no"?>
<!DOCTYPE svg PUBLIC "-//W3C//DTD SVG 1.1//EN"
 "http://www.w3.org/Graphics/SVG/1.1/DTD/svg11.dtd">
<!-- Generated by graphviz version 14.1.2 (20260124.0452)
 -->
<!-- Title: mp_nssl::mp_nssl_init Pages: 1 -->
<!--zoomable 362 -->

<svg id="main" version="1.1" xmlns="http://www.w3.org/2000/svg" xmlns:xlink="http://www.w3.org/1999/xlink" xml:space="preserve" onload="init(evt)">

<style type="text/css"><![CDATA[
.node, .edge {opacity: 0.7;}
.node.selected, .edge.selected {opacity: 1;}
.edge:hover path { stroke: red; }
.edge:hover polygon { stroke: red; fill: red; }
]]></style>

<defs>
  <circle id="rim" cx="0" cy="0" r="7"/>
  <circle id="rim2" cx="0" cy="0" r="3.5"/>
  <g id="zoomPlus">
    <use xlink:href="#rim" fill="#404040"><set attributeName="fill" to="#808080" begin="zoomplus.mouseover" end="zoomplus.mouseout"/></use>
    <path d="M-4,0h8M0,-4v8" fill="none" stroke="white" stroke-width="1.5" pointer-events="none"/>
  </g>
  <g id="zoomMin">
    <use xlink:href="#rim" fill="#404040"><set attributeName="fill" to="#808080" begin="zoomminus.mouseover" end="zoomminus.mouseout"/></use>
    <path d="M-4,0h8" fill="none" stroke="white" stroke-width="1.5" pointer-events="none"/>
  </g>
  <g id="arrowUp" transform="translate(30 24)">
    <use xlink:href="#rim"/>
    <path pointer-events="none" fill="none" stroke="white" stroke-width="1.5" d="M0,-3.0v7 M-2.5,-0.5L0,-3.0L2.5,-0.5"/>
  </g>
  <g id="arrowRight" transform="rotate(90) translate(36 -43)">
    <use xlink:href="#rim"/>
    <path pointer-events="none" fill="none" stroke="white" stroke-width="1.5" d="M0,-3.0v7 M-2.5,-0.5L0,-3.0L2.5,-0.5"/>
  </g>
  <g id="arrowDown" transform="rotate(180) translate(-30 -48)">
    <use xlink:href="#rim"/>
    <path pointer-events="none" fill="none" stroke="white" stroke-width="1.5" d="M0,-3.0v7 M-2.5,-0.5L0,-3.0L2.5,-0.5"/>
  </g>
  <g id="arrowLeft" transform="rotate(270) translate(-36 17)">
    <use xlink:href="#rim"/>
    <path pointer-events="none" fill="none" stroke="white" stroke-width="1.5" d="M0,-3.0v7 M-2.5,-0.5L0,-3.0L2.5,-0.5"/>
  </g>
  <g id="resetDef">
    <use xlink:href="#rim2" fill="#404040"><set attributeName="fill" to="#808080" begin="reset.mouseover" end="reset.mouseout"/></use>
  </g>
</defs>
<script type="application/ecmascript">
var viewWidth = 595;
var viewHeight = 362;
var sectionId = 'dynsection-0';
</script>
<script type="application/ecmascript" xlink:href="svg.min.js"/>
<svg id="graph" class="graph">
<g id="viewport">
<title>mp_nssl::mp_nssl_init</title>
<!-- Node1 -->
<g id="Node000001" class="node">
<title>Node1</title>
<g id="a_Node000001"><a xlink:title="This subroutine is a wrapper around the nssl_2mom_init().">
<polygon fill="#999999" stroke="#666666" points="113.5,-163.88 0,-163.88 0,-144.62 113.5,-144.62 113.5,-163.88"/>
<text xml:space="preserve" text-anchor="middle" x="56.75" y="-150.38" font-family="Source Sans Pro" font-size="10.00">mp_nssl::mp_nssl_init</text>
</a>
</g>
</g>
<!-- Node2 -->
<g id="Node000002" class="node">
<title>Node2</title>
<g id="a_Node000002"><a xlink:href="group__mod__nsslmp_gaa9669dfecb88fa29ceefb152f3a24b9e.html#gaa9669dfecb88fa29ceefb152f3a24b9e" target="_top" xlink:title="NSSL MP setup routine (sets local options and array indices).">
<polygon fill="white" stroke="#666666" points="271.25,-194.5 149.5,-194.5 149.5,-164 271.25,-164 271.25,-194.5"/>
<text xml:space="preserve" text-anchor="start" x="157.5" y="-181" font-family="Source Sans Pro" font-size="10.00">module_mp_nssl_2mom</text>
<text xml:space="preserve" text-anchor="middle" x="210.38" y="-169.75" font-family="Source Sans Pro" font-size="10.00">::nssl_2mom_init</text>
</a>
</g>
</g>
<!-- Node1&#45;&gt;Node2 -->
<g id="edge1_Node000001_Node000002" class="edge">
<title>Node1&#45;&gt;Node2</title>
<g id="a_edge1_Node000001_Node000002"><a xlink:title=" ">
<path fill="none" stroke="#63b8ff" d="M113.78,-163.49C121.72,-164.8 129.98,-166.16 138.17,-167.51"/>
<polygon fill="#63b8ff" stroke="#63b8ff" points="137.32,-170.92 147.76,-169.09 138.46,-164.01 137.32,-170.92"/>
</a>
</g>
</g>
<!-- Node9 -->
<g id="Node000009" class="node">
<title>Node9</title>
<g id="a_Node000009"><a xlink:href="group__mod__nsslmp_gad4f1554e9a7b8a8f0679dbb0ca2628ef.html#gad4f1554e9a7b8a8f0679dbb0ca2628ef" target="_top" xlink:title="NSSL MP subroutine to initialize physical constants provided by host model.">
<polygon fill="white" stroke="#666666" points="271.25,-145.5 149.5,-145.5 149.5,-115 271.25,-115 271.25,-145.5"/>
<text xml:space="preserve" text-anchor="start" x="157.5" y="-132" font-family="Source Sans Pro" font-size="10.00">module_mp_nssl_2mom</text>
<text xml:space="preserve" text-anchor="middle" x="210.38" y="-120.75" font-family="Source Sans Pro" font-size="10.00">::nssl_2mom_init_const</text>
</a>
</g>
</g>
<!-- Node1&#45;&gt;Node9 -->
<g id="edge16_Node000001_Node000009" class="edge">
<title>Node1&#45;&gt;Node9</title>
<g id="a_edge16_Node000001_Node000009"><a xlink:title=" ">
<path fill="none" stroke="#63b8ff" d="M113.78,-145.38C121.63,-144.14 129.79,-142.85 137.89,-141.57"/>
<polygon fill="#63b8ff" stroke="#63b8ff" points="138.42,-145.02 147.75,-140 137.33,-138.11 138.42,-145.02"/>
</a>
</g>
</g>
<!-- Node3 -->
<g id="Node000003" class="node">
<title>Node3</title>
<g id="a_Node000003"><a xlink:href="group__mod__nsslmp_gacfb4b38156737aa351dcc8dd1a3492c5.html#gacfb4b38156737aa351dcc8dd1a3492c5" target="_top" xlink:title="Function calculates collection coefficients following Siefert (2006).">
<polygon fill="white" stroke="#666666" points="429,-335.5 307.25,-335.5 307.25,-305 429,-305 429,-335.5"/>
<text xml:space="preserve" text-anchor="start" x="315.25" y="-322" font-family="Source Sans Pro" font-size="10.00">module_mp_nssl_2mom</text>
<text xml:space="preserve" text-anchor="middle" x="368.12" y="-310.75" font-family="Source Sans Pro" font-size="10.00">::delabk</text>
</a>
</g>
</g>
<!-- Node2&#45;&gt;Node3 -->
<g id="edge2_Node000002_Node000003" class="edge">
<title>Node2&#45;&gt;Node3</title>
<g id="a_edge2_Node000002_Node000003"><a xlink:title=" ">
<path fill="none" stroke="#63b8ff" d="M220.7,-194.82C236,-219.22 268.63,-266.62 307.25,-295.25 309.01,-296.56 310.86,-297.81 312.76,-299.01"/>
<polygon fill="#63b8ff" stroke="#63b8ff" points="310.87,-301.97 321.3,-303.83 314.31,-295.87 310.87,-301.97"/>
</a>
</g>
</g>
<!-- Node4 -->
<g id="Node000004" class="node">
<title>Node4</title>
<g id="a_Node000004"><a xlink:href="group__mod__nsslmp_ga0dabeda97fcbc7690787bb712eb2c267.html#ga0dabeda97fcbc7690787bb712eb2c267" target="_top" xlink:title="Function calculates collection coefficients following Siefert (2006).">
<polygon fill="white" stroke="#666666" points="429,-268.5 307.25,-268.5 307.25,-238 429,-238 429,-268.5"/>
<text xml:space="preserve" text-anchor="start" x="315.25" y="-255" font-family="Source Sans Pro" font-size="10.00">module_mp_nssl_2mom</text>
<text xml:space="preserve" text-anchor="middle" x="368.12" y="-243.75" font-family="Source Sans Pro" font-size="10.00">::delbk</text>
</a>
</g>
</g>
<!-- Node2&#45;&gt;Node4 -->
<g id="edge4_Node000002_Node000004" class="edge">
<title>Node2&#45;&gt;Node4</title>
<g id="a_edge4_Node000002_Node000004"><a xlink:title=" ">
<path fill="none" stroke="#63b8ff" d="M244.41,-194.94C267.53,-205.93 298.67,-220.72 323.79,-232.66"/>
<polygon fill="#63b8ff" stroke="#63b8ff" points="322.24,-235.8 332.77,-236.93 325.24,-229.48 322.24,-235.8"/>
</a>
</g>
</g>
<!-- Node5 -->
<g id="Node000005" class="node">
<title>Node5</title>
<g id="a_Node000005"><a xlink:href="group__mod__nsslmp_ga316422c2efdacd1dbdc0c1418350eaf6.html#ga316422c2efdacd1dbdc0c1418350eaf6" target="_top" xlink:title="Douple&#45;precision complete gamma function (double precision argument).">
<polygon fill="white" stroke="#666666" points="586.75,-164.5 465,-164.5 465,-134 586.75,-134 586.75,-164.5"/>
<text xml:space="preserve" text-anchor="start" x="473" y="-151" font-family="Source Sans Pro" font-size="10.00">module_mp_nssl_2mom</text>
<text xml:space="preserve" text-anchor="middle" x="525.88" y="-139.75" font-family="Source Sans Pro" font-size="10.00">::gamma_dp</text>
</a>
</g>
</g>
<!-- Node2&#45;&gt;Node5 -->
<g id="edge6_Node000002_Node000005" class="edge">
<title>Node2&#45;&gt;Node5</title>
<g id="a_edge6_Node000002_Node000005"><a xlink:title=" ">
<path fill="none" stroke="#63b8ff" d="M271.59,-190.89C315.63,-197.4 376.59,-202.23 429,-191.25 449.03,-187.05 469.99,-178.42 487.19,-170.07"/>
<polygon fill="#63b8ff" stroke="#63b8ff" points="488.66,-173.25 496.02,-165.62 485.51,-166.99 488.66,-173.25"/>
</a>
</g>
</g>
<!-- Node6 -->
<g id="Node000006" class="node">
<title>Node6</title>
<g id="a_Node000006"><a xlink:href="group__mod__nsslmp_ga4769e7fe84d08e5a07e8f9ea56914762.html#ga4769e7fe84d08e5a07e8f9ea56914762" target="_top" xlink:title="Douple&#45;precision complete gamma function (single precision input).">
<polygon fill="white" stroke="#666666" points="429,-164.5 307.25,-164.5 307.25,-134 429,-134 429,-164.5"/>
<text xml:space="preserve" text-anchor="start" x="315.25" y="-151" font-family="Source Sans Pro" font-size="10.00">module_mp_nssl_2mom</text>
<text xml:space="preserve" text-anchor="middle" x="368.12" y="-139.75" font-family="Source Sans Pro" font-size="10.00">::gamma_dpr</text>
</a>
</g>
</g>
<!-- Node2&#45;&gt;Node6 -->
<g id="edge8_Node000002_Node000006" class="edge">
<title>Node2&#45;&gt;Node6</title>
<g id="a_edge8_Node000002_Node000006"><a xlink:title=" ">
<path fill="none" stroke="#63b8ff" d="M271.59,-167.65C279.45,-166.14 287.55,-164.58 295.57,-163.03"/>
<polygon fill="#63b8ff" stroke="#63b8ff" points="296.17,-166.48 305.33,-161.15 294.84,-159.61 296.17,-166.48"/>
</a>
</g>
</g>
<!-- Node7 -->
<g id="Node000007" class="node">
<title>Node7</title>
<g id="a_Node000007"><a xlink:href="group__mod__nsslmp_ga966c94b788d8e8958fff525003f48fd9.html#ga966c94b788d8e8958fff525003f48fd9" target="_top" xlink:title="Single&#45;precision complete gamma function.">
<polygon fill="white" stroke="#666666" points="429,-97.5 307.25,-97.5 307.25,-67 429,-67 429,-97.5"/>
<text xml:space="preserve" text-anchor="start" x="315.25" y="-84" font-family="Source Sans Pro" font-size="10.00">module_mp_nssl_2mom</text>
<text xml:space="preserve" text-anchor="middle" x="368.12" y="-72.75" font-family="Source Sans Pro" font-size="10.00">::gamma_sp</text>
</a>
</g>
</g>
<!-- Node2&#45;&gt;Node7 -->
<g id="edge11_Node000002_Node000007" class="edge">
<title>Node2&#45;&gt;Node7</title>
<g id="a_edge11_Node000002_Node000007"><a xlink:title=" ">
<path fill="none" stroke="#63b8ff" d="M253.35,-163.51C259.49,-160.7 265.64,-157.59 271.25,-154.25 288.91,-143.74 290.9,-137.69 307.25,-125.25 316.32,-118.35 326.33,-111.04 335.52,-104.45"/>
<polygon fill="#63b8ff" stroke="#63b8ff" points="337.39,-107.42 343.5,-98.77 333.32,-101.72 337.39,-107.42"/>
</a>
</g>
</g>
<!-- Node8 -->
<g id="Node000008" class="node">
<title>Node8</title>
<g id="a_Node000008"><a xlink:href="group__mod__nsslmp_gaaf4043a7ae72d6c12e0326a9d3c16dd0.html#gaaf4043a7ae72d6c12e0326a9d3c16dd0" target="_top" xlink:title="Double&#45;precision incomplete gamma function (single precision args).">
<polygon fill="white" stroke="#666666" points="429,-30.5 307.25,-30.5 307.25,0 429,0 429,-30.5"/>
<text xml:space="preserve" text-anchor="start" x="315.25" y="-17" font-family="Source Sans Pro" font-size="10.00">module_mp_nssl_2mom</text>
<text xml:space="preserve" text-anchor="middle" x="368.12" y="-5.75" font-family="Source Sans Pro" font-size="10.00">::gamxinfdp</text>
</a>
</g>
</g>
<!-- Node2&#45;&gt;Node8 -->
<g id="edge13_Node000002_Node000008" class="edge">
<title>Node2&#45;&gt;Node8</title>
<g id="a_edge13_Node000002_Node000008"><a xlink:title=" ">
<path fill="none" stroke="#63b8ff" d="M259.47,-163.55C263.78,-160.9 267.81,-157.82 271.25,-154.25 302.87,-121.44 279.55,-94.43 307.25,-58.25 313.23,-50.43 321.02,-43.43 329,-37.46"/>
<polygon fill="#63b8ff" stroke="#63b8ff" points="330.91,-40.4 337.1,-31.81 326.9,-34.66 330.91,-40.4"/>
</a>
</g>
</g>
<!-- Node3&#45;&gt;Node3 -->
<g id="edge3_Node000003_Node000003" class="edge">
<title>Node3&#45;&gt;Node3</title>
<g id="a_edge3_Node000003_Node000003"><a xlink:title=" ">
<path fill="none" stroke="#63b8ff" d="M340.17,-335.99C334.47,-345.06 343.78,-353.5 368.12,-353.5 381.44,-353.5 390.25,-350.97 394.58,-347.2"/>
<polygon fill="#63b8ff" stroke="#63b8ff" points="398.02,-347.86 395.88,-337.49 391.08,-346.93 398.02,-347.86"/>
</a>
</g>
</g>
<!-- Node4&#45;&gt;Node4 -->
<g id="edge5_Node000004_Node000004" class="edge">
<title>Node4&#45;&gt;Node4</title>
<g id="a_edge5_Node000004_Node000004"><a xlink:title=" ">
<path fill="none" stroke="#63b8ff" d="M340.17,-268.99C334.47,-278.06 343.78,-286.5 368.12,-286.5 381.44,-286.5 390.25,-283.97 394.58,-280.2"/>
<polygon fill="#63b8ff" stroke="#63b8ff" points="398.02,-280.86 395.88,-270.49 391.08,-279.93 398.02,-280.86"/>
</a>
</g>
</g>
<!-- Node5&#45;&gt;Node5 -->
<g id="edge7_Node000005_Node000005" class="edge">
<title>Node5&#45;&gt;Node5</title>
<g id="a_edge7_Node000005_Node000005"><a xlink:title=" ">
<path fill="none" stroke="#63b8ff" d="M497.92,-164.99C492.22,-174.06 501.53,-182.5 525.88,-182.5 539.19,-182.5 548,-179.97 552.33,-176.2"/>
<polygon fill="#63b8ff" stroke="#63b8ff" points="555.77,-176.86 553.63,-166.49 548.83,-175.93 555.77,-176.86"/>
</a>
</g>
</g>
<!-- Node6&#45;&gt;Node5 -->
<g id="edge9_Node000006_Node000005" class="edge">
<title>Node6&#45;&gt;Node5</title>
<g id="a_edge9_Node000006_Node000005"><a xlink:title=" ">
<path fill="none" stroke="#63b8ff" d="M429.34,-149.25C437.2,-149.25 445.3,-149.25 453.32,-149.25"/>
<polygon fill="#63b8ff" stroke="#63b8ff" points="453.05,-152.75 463.05,-149.25 453.05,-145.75 453.05,-152.75"/>
</a>
</g>
</g>
<!-- Node6&#45;&gt;Node6 -->
<g id="edge10_Node000006_Node000006" class="edge">
<title>Node6&#45;&gt;Node6</title>
<g id="a_edge10_Node000006_Node000006"><a xlink:title=" ">
<path fill="none" stroke="#63b8ff" d="M340.17,-164.99C334.47,-174.06 343.78,-182.5 368.12,-182.5 381.44,-182.5 390.25,-179.97 394.58,-176.2"/>
<polygon fill="#63b8ff" stroke="#63b8ff" points="398.02,-176.86 395.88,-166.49 391.08,-175.93 398.02,-176.86"/>
</a>
</g>
</g>
<!-- Node7&#45;&gt;Node7 -->
<g id="edge12_Node000007_Node000007" class="edge">
<title>Node7&#45;&gt;Node7</title>
<g id="a_edge12_Node000007_Node000007"><a xlink:title=" ">
<path fill="none" stroke="#63b8ff" d="M340.17,-97.99C334.47,-107.06 343.78,-115.5 368.12,-115.5 381.44,-115.5 390.25,-112.97 394.58,-109.2"/>
<polygon fill="#63b8ff" stroke="#63b8ff" points="398.02,-109.86 395.88,-99.49 391.08,-108.93 398.02,-109.86"/>
</a>
</g>
</g>
<!-- Node8&#45;&gt;Node5 -->
<g id="edge14_Node000008_Node000005" class="edge">
<title>Node8&#45;&gt;Node5</title>
<g id="a_edge14_Node000008_Node000005"><a xlink:title=" ">
<path fill="none" stroke="#63b8ff" d="M392.42,-30.87C403.73,-38.74 417.36,-48.62 429,-58.25 455.07,-79.81 482.91,-106.72 501.83,-125.66"/>
<polygon fill="#63b8ff" stroke="#63b8ff" points="499.27,-128.05 508.8,-132.68 504.24,-123.12 499.27,-128.05"/>
</a>
</g>
</g>
<!-- Node8&#45;&gt;Node8 -->
<g id="edge15_Node000008_Node000008" class="edge">
<title>Node8&#45;&gt;Node8</title>
<g id="a_edge15_Node000008_Node000008"><a xlink:title=" ">
<path fill="none" stroke="#63b8ff" d="M340.17,-30.99C334.47,-40.06 343.78,-48.5 368.12,-48.5 381.44,-48.5 390.25,-45.97 394.58,-42.2"/>
<polygon fill="#63b8ff" stroke="#63b8ff" points="398.02,-42.86 395.88,-32.49 391.08,-41.93 398.02,-42.86"/>
</a>
</g>
</g>
</g>
</svg>

<g id="navigator" transform="translate(0 0)" fill="#404254">
  <rect fill="#f2f5e9" fill-opacity="0.5" stroke="#606060" stroke-width=".5" x="0" y="0" width="60" height="60"/>
  <use id="zoomplus" xlink:href="#zoomPlus" x="17" y="9" onmousedown="handleZoom(evt,'in')"/>
  <use id="zoomminus" xlink:href="#zoomMin" x="42" y="9" onmousedown="handleZoom(evt,'out')"/>
  <use id="reset" xlink:href="#resetDef" x="30" y="36" onmousedown="handleReset()"/>
   <use id="arrowup" xlink:href="#arrowUp" x="0" y="0" onmousedown="handlePan(0,-1)"/>
  <use id="arrowright" xlink:href="#arrowRight" x="0" y="0" onmousedown="handlePan(1,0)"/>
  <use id="arrowdown" xlink:href="#arrowDown" x="0" y="0" onmousedown="handlePan(0,1)"/>
  <use id="arrowleft" xlink:href="#arrowLeft" x="0" y="0" onmousedown="handlePan(-1,0)"/>
</g>
<svg viewBox="0 0 15 15" width="100%" height="30px" preserveAspectRatio="xMaxYMin meet">
 <g id="arrow_out" transform="scale(0.3 0.3)">
  <a xlink:href="group__nsslmp_ga5b91dc9cad0a4fb77651aeeaacc40854_ga5b91dc9cad0a4fb77651aeeaacc40854_cgraph_org.svg" target="_base">
   <rect id="button" ry="5" rx="5" y="6" x="6" height="38" width="38"
        fill="#f2f5e9" fill-opacity="0.5" stroke="#606060" stroke-width="1.0"/>
   <path id="arrow"
     d="M 11.500037,31.436501 C 11.940474,20.09759 22.043105,11.32322 32.158766,21.979434 L 37.068811,17.246167 C 37.068811,17.246167 37.088388,32 37.088388,32 L 22.160133,31.978069 C 22.160133,31.978069 26.997745,27.140456 26.997745,27.140456 C 18.528582,18.264221 13.291696,25.230495 11.500037,31.436501 z"
     style="fill:#404040;"/>
  </a>
 </g>
</svg>

<style type='text/css'>
<![CDATA[
[data-mouse-over-selected='false'] { opacity: 0.7; }
[data-mouse-over-selected='true']  { opacity: 1.0; }
]]>
</style>
<script type="application/ecmascript"><![CDATA[
document.addEventListener('DOMContentLoaded', (event) => {
  highlightEdges();
  highlightAdjacentNodes();
});
]]></script>
</svg>
