<?xml version="1.0" encoding="UTF-8" standalone="no"?>
<!DOCTYPE svg PUBLIC "-//W3C//DTD SVG 1.1//EN"
 "http://www.w3.org/Graphics/SVG/1.1/DTD/svg11.dtd">
<!-- Generated by graphviz version 14.1.2 (20260124.0452)
 -->
<!-- Title: combo Pages: 1 -->
<svg width="914pt" height="258pt"
 viewBox="0.00 0.00 914.00 258.00" xmlns="http://www.w3.org/2000/svg" xmlns:xlink="http://www.w3.org/1999/xlink">
<g id="graph0" class="graph" transform="scale(1 1) rotate(0) translate(4 253.88)">
<title>combo</title>
<!-- Node1 -->
<g id="Node000001" class="node">
<title>Node1</title>
<g id="a_Node000001"><a xlink:title=" ">
<polygon fill="#999999" stroke="#666666" points="906.25,-113.25 861,-113.25 861,-94 906.25,-94 906.25,-113.25"/>
<text xml:space="preserve" text-anchor="middle" x="883.62" y="-99.75" font-family="Source Sans Pro" font-size="10.00">combo</text>
</a>
</g>
</g>
<!-- Node2 -->
<g id="Node000002" class="node">
<title>Node2</title>
<g id="a_Node000002"><a xlink:href="group___noah_m_p___l_s_m_ga0d1a0707cf2a2a4fd14444b111a55048.html#ga0d1a0707cf2a2a4fd14444b111a55048" target="_top" xlink:title=" ">
<polygon fill="white" stroke="#666666" points="777.75,-169.25 725,-169.25 725,-150 777.75,-150 777.75,-169.25"/>
<text xml:space="preserve" text-anchor="middle" x="751.38" y="-155.75" font-family="Source Sans Pro" font-size="10.00">combine</text>
</a>
</g>
</g>
<!-- Node1&#45;&gt;Node2 -->
<g id="edge1_Node000001_Node000002" class="edge">
<title>Node1&#45;&gt;Node2</title>
<g id="a_edge1_Node000001_Node000002"><a xlink:title=" ">
<path fill="none" stroke="#63b8ff" d="M860.98,-120.44C850.58,-127.84 837.64,-136.09 825,-141.62 810.01,-148.19 792.18,-152.66 777.94,-155.5"/>
<polygon fill="#63b8ff" stroke="#63b8ff" points="862.89,-123.38 868.86,-114.62 858.74,-117.74 862.89,-123.38"/>
</a>
</g>
</g>
<!-- Node14 -->
<g id="Node000014" class="node">
<title>Node14</title>
<g id="a_Node000014"><a xlink:href="namespaceclm__lake_ac447acc162cd004682d862ea627caf4d.html#ac447acc162cd004682d862ea627caf4d" target="_top" xlink:title="Combine snow layers that are less than a minimum thickness or mass If the snow element thickness or m...">
<polygon fill="white" stroke="#666666" points="825,-132.25 677.75,-132.25 677.75,-113 825,-113 825,-132.25"/>
<text xml:space="preserve" text-anchor="middle" x="751.38" y="-118.75" font-family="Source Sans Pro" font-size="10.00">clm_lake::combinesnowlayers</text>
</a>
</g>
</g>
<!-- Node1&#45;&gt;Node14 -->
<g id="edge14_Node000001_Node000014" class="edge">
<title>Node1&#45;&gt;Node14</title>
<g id="a_edge14_Node000001_Node000014"><a xlink:title=" ">
<path fill="none" stroke="#63b8ff" d="M849.18,-108.5C840.64,-109.75 831.13,-111.14 821.51,-112.54"/>
<polygon fill="#63b8ff" stroke="#63b8ff" points="849.64,-111.97 859.03,-107.07 848.63,-105.05 849.64,-111.97"/>
</a>
</g>
</g>
<!-- Node15 -->
<g id="Node000015" class="node">
<title>Node15</title>
<g id="a_Node000015"><a xlink:href="group___noah_m_p___l_s_m_ga2a809bb1c3c3307616446d4f27d00d5c.html#ga2a809bb1c3c3307616446d4f27d00d5c" target="_top" xlink:title=" ">
<polygon fill="white" stroke="#666666" points="635,-94.25 593.5,-94.25 593.5,-75 635,-75 635,-94.25"/>
<text xml:space="preserve" text-anchor="middle" x="614.25" y="-80.75" font-family="Source Sans Pro" font-size="10.00">divide</text>
</a>
</g>
</g>
<!-- Node1&#45;&gt;Node15 -->
<g id="edge15_Node000001_Node000015" class="edge">
<title>Node1&#45;&gt;Node15</title>
<g id="a_edge15_Node000001_Node000015"><a xlink:title=" ">
<path fill="none" stroke="#63b8ff" d="M849.31,-101.26C793.03,-97.26 680.83,-89.29 635.22,-86.04"/>
<polygon fill="#63b8ff" stroke="#63b8ff" points="849.01,-104.75 859.23,-101.96 849.51,-97.76 849.01,-104.75"/>
</a>
</g>
</g>
<!-- Node16 -->
<g id="Node000016" class="node">
<title>Node16</title>
<g id="a_Node000016"><a xlink:href="namespaceclm__lake_acf8bb476b784cdc2fb82a0a387e3de9f.html#acf8bb476b784cdc2fb82a0a387e3de9f" target="_top" xlink:title="Subdivides snow layers if they exceed their prescribed maximum thickness.">
<polygon fill="white" stroke="#666666" points="819.38,-56.25 683.38,-56.25 683.38,-37 819.38,-37 819.38,-56.25"/>
<text xml:space="preserve" text-anchor="middle" x="751.38" y="-42.75" font-family="Source Sans Pro" font-size="10.00">clm_lake::dividesnowlayers</text>
</a>
</g>
</g>
<!-- Node1&#45;&gt;Node16 -->
<g id="edge17_Node000001_Node000016" class="edge">
<title>Node1&#45;&gt;Node16</title>
<g id="a_edge17_Node000001_Node000016"><a xlink:title=" ">
<path fill="none" stroke="#63b8ff" d="M857.78,-87.94C847.82,-82.04 836.1,-75.58 825,-70.62 813.12,-65.32 799.69,-60.56 787.64,-56.71"/>
<polygon fill="#63b8ff" stroke="#63b8ff" points="855.76,-90.81 866.12,-93 859.39,-84.82 855.76,-90.81"/>
</a>
</g>
</g>
<!-- Node3 -->
<g id="Node000003" class="node">
<title>Node3</title>
<g id="a_Node000003"><a xlink:href="group___noah_m_p___l_s_m_gad5df8e19f96bc0e98560e5df8c49c0fa.html#gad5df8e19f96bc0e98560e5df8c49c0fa" target="_top" xlink:title="renew the mass of ice lens (snice) and liquid (snliq) of the surface snow layer resulting from sublim...">
<polygon fill="white" stroke="#666666" points="641.75,-170.25 586.75,-170.25 586.75,-151 641.75,-151 641.75,-170.25"/>
<text xml:space="preserve" text-anchor="middle" x="614.25" y="-156.75" font-family="Source Sans Pro" font-size="10.00">snowh2o</text>
</a>
</g>
</g>
<!-- Node2&#45;&gt;Node3 -->
<g id="edge2_Node000002_Node000003" class="edge">
<title>Node2&#45;&gt;Node3</title>
<g id="a_edge2_Node000002_Node000003"><a xlink:title=" ">
<path fill="none" stroke="#63b8ff" d="M713.39,-159.9C690.73,-160.07 662.25,-160.28 641.81,-160.43"/>
<polygon fill="#63b8ff" stroke="#63b8ff" points="713.15,-163.4 723.13,-159.83 713.1,-156.4 713.15,-163.4"/>
</a>
</g>
</g>
<!-- Node4 -->
<g id="Node000004" class="node">
<title>Node4</title>
<g id="a_Node000004"><a xlink:href="group___noah_m_p___l_s_m_ga8500bdb5fcc68e431512068da0d31cd5.html#ga8500bdb5fcc68e431512068da0d31cd5" target="_top" xlink:title=" ">
<polygon fill="white" stroke="#666666" points="550.75,-132.25 487.5,-132.25 487.5,-113 550.75,-113 550.75,-132.25"/>
<text xml:space="preserve" text-anchor="middle" x="519.12" y="-118.75" font-family="Source Sans Pro" font-size="10.00">snowwater</text>
</a>
</g>
</g>
<!-- Node2&#45;&gt;Node4 -->
<g id="edge13_Node000002_Node000004" class="edge">
<title>Node2&#45;&gt;Node4</title>
<g id="a_edge13_Node000002_Node000004"><a xlink:title=" ">
<path fill="none" stroke="#63b8ff" d="M713.59,-153.44C692.56,-149.93 665.68,-145.48 641.75,-141.62 610.94,-136.67 575.72,-131.18 551.13,-127.39"/>
<polygon fill="#63b8ff" stroke="#63b8ff" points="712.99,-156.89 723.43,-155.09 714.15,-149.99 712.99,-156.89"/>
</a>
</g>
</g>
<!-- Node3&#45;&gt;Node4 -->
<g id="edge3_Node000003_Node000004" class="edge">
<title>Node3&#45;&gt;Node4</title>
<g id="a_edge3_Node000003_Node000004"><a xlink:title=" ">
<path fill="none" stroke="#63b8ff" d="M578.43,-146.42C567.23,-141.85 555.06,-136.88 544.75,-132.67"/>
<polygon fill="#63b8ff" stroke="#63b8ff" points="576.8,-149.53 587.38,-150.07 579.44,-143.05 576.8,-149.53"/>
</a>
</g>
</g>
<!-- Node5 -->
<g id="Node000005" class="node">
<title>Node5</title>
<g id="a_Node000005"><a xlink:href="namespaceclm__lake_a8880c2394213f41e2e8303f2fa89ed61.html#a8880c2394213f41e2e8303f2fa89ed61" target="_top" xlink:title="Calculation of Shallow Lake Hydrology. Full hydrology of snow layers is done. However,...">
<polygon fill="white" stroke="#666666" points="451.5,-151.25 312.5,-151.25 312.5,-132 451.5,-132 451.5,-151.25"/>
<text xml:space="preserve" text-anchor="middle" x="382" y="-137.75" font-family="Source Sans Pro" font-size="10.00">clm_lake::shallakehydrology</text>
</a>
</g>
</g>
<!-- Node4&#45;&gt;Node5 -->
<g id="edge4_Node000004_Node000005" class="edge">
<title>Node4&#45;&gt;Node5</title>
<g id="a_edge4_Node000004_Node000005"><a xlink:title=" ">
<path fill="none" stroke="#63b8ff" d="M475.93,-128.56C468.25,-129.64 460.06,-130.79 451.84,-131.94"/>
<polygon fill="#63b8ff" stroke="#63b8ff" points="476.21,-132.05 485.63,-127.19 475.24,-125.12 476.21,-132.05"/>
</a>
</g>
</g>
<!-- Node6 -->
<g id="Node000006" class="node">
<title>Node6</title>
<g id="a_Node000006"><a xlink:href="group___noah_m_p___l_s_m_ga2e84840f3ed90005f066340b388c03d6.html#ga2e84840f3ed90005f066340b388c03d6" target="_top" xlink:title="compute water budgets (water storages, et components, and runoff)">
<polygon fill="white" stroke="#666666" points="402,-114.25 362,-114.25 362,-95 402,-95 402,-114.25"/>
<text xml:space="preserve" text-anchor="middle" x="382" y="-100.75" font-family="Source Sans Pro" font-size="10.00">water</text>
</a>
</g>
</g>
<!-- Node4&#45;&gt;Node6 -->
<g id="edge5_Node000004_Node000006" class="edge">
<title>Node4&#45;&gt;Node6</title>
<g id="a_edge5_Node000004_Node000006"><a xlink:title=" ">
<path fill="none" stroke="#63b8ff" d="M475.86,-117C451.19,-113.71 421.26,-109.72 402.17,-107.18"/>
<polygon fill="#63b8ff" stroke="#63b8ff" points="475.25,-120.44 485.62,-118.3 476.17,-113.51 475.25,-120.44"/>
</a>
</g>
</g>
<!-- Node7 -->
<g id="Node000007" class="node">
<title>Node7</title>
<g id="a_Node000007"><a xlink:href="namespacegfdl__cloud__microphys__v3__mod_abff24ebeedbc1d30f155bfdf0b5b223d.html#abff24ebeedbc1d30f155bfdf0b5b223d" target="_top" xlink:title=" ">
<polygon fill="white" stroke="#666666" points="253.25,-249.88 142,-249.88 142,-219.38 253.25,-219.38 253.25,-249.88"/>
<text xml:space="preserve" text-anchor="start" x="150" y="-236.38" font-family="Source Sans Pro" font-size="10.00">gfdl_cloud_microphys</text>
<text xml:space="preserve" text-anchor="middle" x="197.62" y="-225.12" font-family="Source Sans Pro" font-size="10.00">_v3_mod::cld_sat_adj</text>
</a>
</g>
</g>
<!-- Node6&#45;&gt;Node7 -->
<g id="edge6_Node000006_Node000007" class="edge">
<title>Node6&#45;&gt;Node7</title>
<g id="a_edge6_Node000006_Node000007"><a xlink:title=" ">
<path fill="none" stroke="#63b8ff" d="M350.38,-106.65C337.4,-108.92 322.91,-113.5 312.5,-122.62 280.72,-150.48 307.69,-182.11 276.5,-210.62 269.92,-216.64 261.87,-221.15 253.46,-224.53"/>
<polygon fill="#63b8ff" stroke="#63b8ff" points="350.76,-110.13 360.21,-105.35 349.84,-103.19 350.76,-110.13"/>
</a>
</g>
</g>
<!-- Node8 -->
<g id="Node000008" class="node">
<title>Node8</title>
<g id="a_Node000008"><a xlink:href="namespacegfdl__cloud__microphys__v3__mod_a230685a7af97f93f58eec3bf7a7040ba.html#a230685a7af97f93f58eec3bf7a7040ba" target="_top" xlink:title=" ">
<polygon fill="white" stroke="#666666" points="275.75,-201.5 119.5,-201.5 119.5,-159.75 275.75,-159.75 275.75,-201.5"/>
<text xml:space="preserve" text-anchor="start" x="127.5" y="-188" font-family="Source Sans Pro" font-size="10.00">gfdl_cloud_microphys</text>
<text xml:space="preserve" text-anchor="start" x="127.5" y="-176.75" font-family="Source Sans Pro" font-size="10.00">_v3_mod::gfdl_cloud_microphys</text>
<text xml:space="preserve" text-anchor="middle" x="197.62" y="-165.5" font-family="Source Sans Pro" font-size="10.00">_v3_mod_driver</text>
</a>
</g>
</g>
<!-- Node6&#45;&gt;Node8 -->
<g id="edge7_Node000006_Node000008" class="edge">
<title>Node6&#45;&gt;Node8</title>
<g id="a_edge7_Node000006_Node000008"><a xlink:title=" ">
<path fill="none" stroke="#63b8ff" d="M350.59,-109.85C338.36,-112.65 324.36,-116.76 312.5,-122.62 294.33,-131.61 294.15,-140.65 276.5,-150.62 270.95,-153.76 265.01,-156.71 258.97,-159.43"/>
<polygon fill="#63b8ff" stroke="#63b8ff" points="351.1,-113.32 360.18,-107.86 349.67,-106.46 351.1,-113.32"/>
</a>
</g>
</g>
<!-- Node9 -->
<g id="Node000009" class="node">
<title>Node9</title>
<g id="a_Node000009"><a xlink:href="namespacegfdl__cloud__microphys__v3__mod_a371473ee4ccb0ae7f6d47141012b4af5.html#a371473ee4ccb0ae7f6d47141012b4af5" target="_top" xlink:title=" ">
<polygon fill="white" stroke="#666666" points="252.88,-141.88 142.38,-141.88 142.38,-111.38 252.88,-111.38 252.88,-141.88"/>
<text xml:space="preserve" text-anchor="start" x="150.38" y="-128.38" font-family="Source Sans Pro" font-size="10.00">gfdl_cloud_microphys</text>
<text xml:space="preserve" text-anchor="middle" x="197.62" y="-117.12" font-family="Source Sans Pro" font-size="10.00">_v3_mod::mtetw</text>
</a>
</g>
</g>
<!-- Node6&#45;&gt;Node9 -->
<g id="edge8_Node000006_Node000009" class="edge">
<title>Node6&#45;&gt;Node9</title>
<g id="a_edge8_Node000006_Node000009"><a xlink:title=" ">
<path fill="none" stroke="#63b8ff" d="M350.6,-108.29C324.06,-111.49 284.92,-116.21 253.01,-120.06"/>
<polygon fill="#63b8ff" stroke="#63b8ff" points="350.82,-111.79 360.32,-107.12 349.98,-104.84 350.82,-111.79"/>
</a>
</g>
</g>
<!-- Node10 -->
<g id="Node000010" class="node">
<title>Node10</title>
<g id="a_Node000010"><a xlink:href="group___noah_m_p___l_s_m_gab480f7969dad27ce9e00e559f82c464e.html#gab480f7969dad27ce9e00e559f82c464e" target="_top" xlink:title=" ">
<polygon fill="white" stroke="#666666" points="233.38,-93.25 161.88,-93.25 161.88,-74 233.38,-74 233.38,-93.25"/>
<text xml:space="preserve" text-anchor="middle" x="197.62" y="-79.75" font-family="Source Sans Pro" font-size="10.00">noahmp_sflx</text>
</a>
</g>
</g>
<!-- Node6&#45;&gt;Node10 -->
<g id="edge9_Node000006_Node000010" class="edge">
<title>Node6&#45;&gt;Node10</title>
<g id="a_edge9_Node000006_Node000010"><a xlink:title=" ">
<path fill="none" stroke="#63b8ff" d="M350.46,-101.11C318.24,-97.4 267.53,-91.56 233.7,-87.66"/>
<polygon fill="#63b8ff" stroke="#63b8ff" points="349.99,-104.58 360.32,-102.24 350.79,-97.62 349.99,-104.58"/>
</a>
</g>
</g>
<!-- Node12 -->
<g id="Node000012" class="node">
<title>Node12</title>
<g id="a_Node000012"><a xlink:href="group___s_a_m_fdeep_ga5e834dec0932a16a98b7d90fd69a9c70.html#ga5e834dec0932a16a98b7d90fd69a9c70" target="_top" xlink:title=" ">
<polygon fill="white" stroke="#666666" points="276.5,-56.25 118.75,-56.25 118.75,-37 276.5,-37 276.5,-56.25"/>
<text xml:space="preserve" text-anchor="middle" x="197.62" y="-42.75" font-family="Source Sans Pro" font-size="10.00">samfdeepcnv::samfdeepcnv_run</text>
</a>
</g>
</g>
<!-- Node6&#45;&gt;Node12 -->
<g id="edge11_Node000006_Node000012" class="edge">
<title>Node6&#45;&gt;Node12</title>
<g id="a_edge11_Node000006_Node000012"><a xlink:title=" ">
<path fill="none" stroke="#63b8ff" d="M351.28,-91.99C330.57,-83.49 302.17,-72.46 276.5,-64.62 267.08,-61.75 256.89,-59.08 247.09,-56.73"/>
<polygon fill="#63b8ff" stroke="#63b8ff" points="349.66,-95.1 360.24,-95.7 352.34,-88.64 349.66,-95.1"/>
</a>
</g>
</g>
<!-- Node13 -->
<g id="Node000013" class="node">
<title>Node13</title>
<g id="a_Node000013"><a xlink:href="group___s_a_m_f__shal_gaf2534c328553470068a75a9aa56b7d56.html#gaf2534c328553470068a75a9aa56b7d56" target="_top" xlink:title=" ">
<polygon fill="white" stroke="#666666" points="273.5,-19.25 121.75,-19.25 121.75,0 273.5,0 273.5,-19.25"/>
<text xml:space="preserve" text-anchor="middle" x="197.62" y="-5.75" font-family="Source Sans Pro" font-size="10.00">samfshalcnv::samfshalcnv_run</text>
</a>
</g>
</g>
<!-- Node6&#45;&gt;Node13 -->
<g id="edge12_Node000006_Node000013" class="edge">
<title>Node6&#45;&gt;Node13</title>
<g id="a_edge12_Node000006_Node000013"><a xlink:title=" ">
<path fill="none" stroke="#63b8ff" d="M362.29,-87.09C342.47,-69.48 309.55,-42.83 276.5,-27.62 269.69,-24.49 262.29,-21.88 254.85,-19.71"/>
<polygon fill="#63b8ff" stroke="#63b8ff" points="359.79,-89.55 369.54,-93.68 364.49,-84.36 359.79,-89.55"/>
</a>
</g>
</g>
<!-- Node11 -->
<g id="Node000011" class="node">
<title>Node11</title>
<g id="a_Node000011"><a xlink:href="group___noah_m_p___l_s_m_ga0e44f72a92d8830344fecdb9fb65e6fb.html#ga0e44f72a92d8830344fecdb9fb65e6fb" target="_top" xlink:title="This subroutine is the main CCPP entry point for the NoahMP LSM.">
<polygon fill="white" stroke="#666666" points="82.75,-93.25 0,-93.25 0,-74 82.75,-74 82.75,-93.25"/>
<text xml:space="preserve" text-anchor="middle" x="41.38" y="-79.75" font-family="Source Sans Pro" font-size="10.00">noahmpdrv_run</text>
</a>
</g>
</g>
<!-- Node10&#45;&gt;Node11 -->
<g id="edge10_Node000010_Node000011" class="edge">
<title>Node10&#45;&gt;Node11</title>
<g id="a_edge10_Node000010_Node000011"><a xlink:title=" ">
<path fill="none" stroke="#63b8ff" d="M150.22,-83.62C128.9,-83.62 103.84,-83.62 83.25,-83.62"/>
<polygon fill="#63b8ff" stroke="#63b8ff" points="150.11,-87.13 160.11,-83.63 150.11,-80.13 150.11,-87.13"/>
</a>
</g>
</g>
<!-- Node15&#45;&gt;Node4 -->
<g id="edge16_Node000015_Node000004" class="edge">
<title>Node15&#45;&gt;Node4</title>
<g id="a_edge16_Node000015_Node000004"><a xlink:title=" ">
<path fill="none" stroke="#63b8ff" d="M582.43,-97.2C570.25,-102.17 556.45,-107.8 544.94,-112.5"/>
<polygon fill="#63b8ff" stroke="#63b8ff" points="583.71,-100.46 591.64,-93.44 581.06,-93.98 583.71,-100.46"/>
</a>
</g>
</g>
</g>
</svg>
