<?xml version="1.0" encoding="UTF-8" standalone="no"?>
<!DOCTYPE svg PUBLIC "-//W3C//DTD SVG 1.1//EN"
 "http://www.w3.org/Graphics/SVG/1.1/DTD/svg11.dtd">
<!-- Generated by graphviz version 14.1.2 (20260124.0452)
 -->
<!-- Title: sflx::gfssflx Pages: 1 -->
<!--zoomable 530 -->

<svg id="main" version="1.1" xmlns="http://www.w3.org/2000/svg" xmlns:xlink="http://www.w3.org/1999/xlink" xml:space="preserve" onload="init(evt)">

<style type="text/css"><![CDATA[
.node, .edge {opacity: 0.7;}
.node.selected, .edge.selected {opacity: 1;}
.edge:hover path { stroke: red; }
.edge:hover polygon { stroke: red; fill: red; }
]]></style>

<defs>
  <circle id="rim" cx="0" cy="0" r="7"/>
  <circle id="rim2" cx="0" cy="0" r="3.5"/>
  <g id="zoomPlus">
    <use xlink:href="#rim" fill="#404040"><set attributeName="fill" to="#808080" begin="zoomplus.mouseover" end="zoomplus.mouseout"/></use>
    <path d="M-4,0h8M0,-4v8" fill="none" stroke="white" stroke-width="1.5" pointer-events="none"/>
  </g>
  <g id="zoomMin">
    <use xlink:href="#rim" fill="#404040"><set attributeName="fill" to="#808080" begin="zoomminus.mouseover" end="zoomminus.mouseout"/></use>
    <path d="M-4,0h8" fill="none" stroke="white" stroke-width="1.5" pointer-events="none"/>
  </g>
  <g id="arrowUp" transform="translate(30 24)">
    <use xlink:href="#rim"/>
    <path pointer-events="none" fill="none" stroke="white" stroke-width="1.5" d="M0,-3.0v7 M-2.5,-0.5L0,-3.0L2.5,-0.5"/>
  </g>
  <g id="arrowRight" transform="rotate(90) translate(36 -43)">
    <use xlink:href="#rim"/>
    <path pointer-events="none" fill="none" stroke="white" stroke-width="1.5" d="M0,-3.0v7 M-2.5,-0.5L0,-3.0L2.5,-0.5"/>
  </g>
  <g id="arrowDown" transform="rotate(180) translate(-30 -48)">
    <use xlink:href="#rim"/>
    <path pointer-events="none" fill="none" stroke="white" stroke-width="1.5" d="M0,-3.0v7 M-2.5,-0.5L0,-3.0L2.5,-0.5"/>
  </g>
  <g id="arrowLeft" transform="rotate(270) translate(-36 17)">
    <use xlink:href="#rim"/>
    <path pointer-events="none" fill="none" stroke="white" stroke-width="1.5" d="M0,-3.0v7 M-2.5,-0.5L0,-3.0L2.5,-0.5"/>
  </g>
  <g id="resetDef">
    <use xlink:href="#rim2" fill="#404040"><set attributeName="fill" to="#808080" begin="reset.mouseover" end="reset.mouseout"/></use>
  </g>
</defs>
<script type="application/ecmascript">
var viewWidth = 616;
var viewHeight = 530;
var sectionId = 'dynsection-0';
</script>
<script type="application/ecmascript" xlink:href="svg.min.js"/>
<svg id="graph" class="graph">
<g id="viewport">
<title>sflx::gfssflx</title>
<!-- Node1 -->
<g id="Node000001" class="node">
<title>Node1</title>
<g id="a_Node000001"><a xlink:title="This is the entity of GFS Noah LSM model of physics subroutines. It is a soil/veg/snowpack land&#45;surfa...">
<polygon fill="#999999" stroke="#666666" points="67,-241.25 0,-241.25 0,-222 67,-222 67,-241.25"/>
<text xml:space="preserve" text-anchor="middle" x="33.5" y="-227.75" font-family="Source Sans Pro" font-size="10.00">sflx::gfssflx</text>
</a>
</g>
</g>
<!-- Node2 -->
<g id="Node000002" class="node">
<title>Node2</title>
<g id="a_Node000002"><a xlink:href="group___noah_m_p___l_s_m_ga9d5adb20aca5b72a7e126136088e20d1.html#ga9d5adb20aca5b72a7e126136088e20d1" target="_top" xlink:title="surface albedos. also fluxes (per unit incoming direct and diffuse radiation) reflected,...">
<polygon fill="white" stroke="#666666" points="253.88,-448.25 209.38,-448.25 209.38,-429 253.88,-429 253.88,-448.25"/>
<text xml:space="preserve" text-anchor="middle" x="231.62" y="-434.75" font-family="Source Sans Pro" font-size="10.00">albedo</text>
</a>
</g>
</g>
<!-- Node1&#45;&gt;Node2 -->
<g id="edge1_Node000001_Node000002" class="edge">
<title>Node1&#45;&gt;Node2</title>
<g id="a_edge1_Node000001_Node000002"><a xlink:title=" ">
<path fill="none" stroke="#63b8ff" d="M35.57,-241.7C39.22,-270.84 53.79,-355.92 103,-400.62 129.05,-424.29 169.26,-433.25 197.57,-436.62"/>
<polygon fill="#63b8ff" stroke="#63b8ff" points="197.09,-440.09 207.39,-437.6 197.79,-433.13 197.09,-440.09"/>
</a>
</g>
</g>
<!-- Node8 -->
<g id="Node000008" class="node">
<title>Node8</title>
<g id="a_Node000008"><a xlink:href="group___noah___l_s_m_ga18a0f02e4a1a32b6cde35cbe67b09908.html#ga18a0f02e4a1a32b6cde35cbe67b09908" target="_top" xlink:title="This subroutine calculates albedo including snow effect (0 &#45;&gt; 1).">
<polygon fill="white" stroke="#666666" points="155,-467.25 113.5,-467.25 113.5,-448 155,-448 155,-467.25"/>
<text xml:space="preserve" text-anchor="middle" x="134.25" y="-453.75" font-family="Source Sans Pro" font-size="10.00">alcalc</text>
</a>
</g>
</g>
<!-- Node1&#45;&gt;Node8 -->
<g id="edge7_Node000001_Node000008" class="edge">
<title>Node1&#45;&gt;Node8</title>
<g id="a_edge7_Node000001_Node000008"><a xlink:title=" ">
<path fill="none" stroke="#63b8ff" d="M35.8,-241.35C40.32,-272.12 57.59,-369.13 103,-433.62 104.65,-435.98 106.6,-438.21 108.7,-440.31"/>
<polygon fill="#63b8ff" stroke="#63b8ff" points="106.21,-442.78 116.08,-446.64 110.77,-437.47 106.21,-442.78"/>
</a>
</g>
</g>
<!-- Node9 -->
<g id="Node000009" class="node">
<title>Node9</title>
<g id="a_Node000009"><a xlink:href="group___noah___l_s_m_gaa292bfa0bd38e58ab9389cb38e4d09c0.html#gaa292bfa0bd38e58ab9389cb38e4d09c0" target="_top" xlink:title="This subroutine calculates canopy resistance which depends on incoming solar radiation,...">
<polygon fill="white" stroke="#666666" points="156.88,-391.25 111.62,-391.25 111.62,-372 156.88,-372 156.88,-391.25"/>
<text xml:space="preserve" text-anchor="middle" x="134.25" y="-377.75" font-family="Source Sans Pro" font-size="10.00">canres</text>
</a>
</g>
</g>
<!-- Node1&#45;&gt;Node9 -->
<g id="edge9_Node000001_Node000009" class="edge">
<title>Node1&#45;&gt;Node9</title>
<g id="a_edge9_Node000001_Node000009"><a xlink:title=" ">
<path fill="none" stroke="#63b8ff" d="M37.58,-241.7C45.25,-265.44 67.21,-325.69 103,-363.62 103.36,-364 103.72,-364.38 104.1,-364.74"/>
<polygon fill="#63b8ff" stroke="#63b8ff" points="101.67,-367.29 111.69,-370.72 106,-361.78 101.67,-367.29"/>
</a>
</g>
</g>
<!-- Node10 -->
<g id="Node000010" class="node">
<title>Node10</title>
<g id="a_Node000010"><a xlink:href="group___noah___l_s_m_ga028fc448a3afe77726222a337008ffa4.html#ga028fc448a3afe77726222a337008ffa4" target="_top" xlink:title="This subroutine calculates snow termal conductivity.">
<polygon fill="white" stroke="#666666" points="156.5,-354.25 112,-354.25 112,-335 156.5,-335 156.5,-354.25"/>
<text xml:space="preserve" text-anchor="middle" x="134.25" y="-340.75" font-family="Source Sans Pro" font-size="10.00">csnow</text>
</a>
</g>
</g>
<!-- Node1&#45;&gt;Node10 -->
<g id="edge10_Node000001_Node000010" class="edge">
<title>Node1&#45;&gt;Node10</title>
<g id="a_edge10_Node000001_Node000010"><a xlink:title=" ">
<path fill="none" stroke="#63b8ff" d="M40.99,-241.6C52.39,-258.76 77.27,-294.51 103,-320.62 105.29,-322.95 107.81,-325.26 110.38,-327.48"/>
<polygon fill="#63b8ff" stroke="#63b8ff" points="107.95,-330.01 117.92,-333.59 112.35,-324.57 107.95,-330.01"/>
</a>
</g>
</g>
<!-- Node11 -->
<g id="Node000011" class="node">
<title>Node11</title>
<g id="a_Node000011"><a xlink:href="group___noah___l_s_m_ga92994e4737ecfd692a6704778558c9c2.html#ga92994e4737ecfd692a6704778558c9c2" target="_top" xlink:title="This subroutine calculates soil moisture and heat flux values and update soil moisture content and so...">
<polygon fill="white" stroke="#666666" points="155.38,-278.25 113.12,-278.25 113.12,-259 155.38,-259 155.38,-278.25"/>
<text xml:space="preserve" text-anchor="middle" x="134.25" y="-264.75" font-family="Source Sans Pro" font-size="10.00">nopac</text>
</a>
</g>
</g>
<!-- Node1&#45;&gt;Node11 -->
<g id="edge11_Node000001_Node000011" class="edge">
<title>Node1&#45;&gt;Node11</title>
<g id="a_edge11_Node000001_Node000011"><a xlink:title=" ">
<path fill="none" stroke="#63b8ff" d="M61.48,-241.74C74.15,-246.48 89.32,-252.17 102.44,-257.08"/>
<polygon fill="#63b8ff" stroke="#63b8ff" points="100.87,-260.23 111.46,-260.46 103.33,-253.67 100.87,-260.23"/>
</a>
</g>
</g>
<!-- Node21 -->
<g id="Node000021" class="node">
<title>Node21</title>
<g id="a_Node000021"><a xlink:href="group___noah___l_s_m_ga8bc3154096e6364c5fcddf884c003bef.html#ga8bc3154096e6364c5fcddf884c003bef" target="_top" xlink:title="This subroutine calculates thermal diffusivity and conductivity of the soil for a given point and tim...">
<polygon fill="white" stroke="#666666" points="459.88,-293.25 416.88,-293.25 416.88,-274 459.88,-274 459.88,-293.25"/>
<text xml:space="preserve" text-anchor="middle" x="438.38" y="-279.75" font-family="Source Sans Pro" font-size="10.00">tdfcnd</text>
</a>
</g>
</g>
<!-- Node1&#45;&gt;Node21 -->
<g id="edge43_Node000001_Node000021" class="edge">
<title>Node1&#45;&gt;Node21</title>
<g id="a_edge43_Node000001_Node000021"><a xlink:title=" ">
<path fill="none" stroke="#63b8ff" d="M42.56,-241.4C54.26,-254.75 77.37,-278.11 103,-287.62 207.85,-326.55 344.26,-304.62 405.35,-291.39"/>
<polygon fill="#63b8ff" stroke="#63b8ff" points="406.06,-294.82 415.05,-289.21 404.53,-287.99 406.06,-294.82"/>
</a>
</g>
</g>
<!-- Node30 -->
<g id="Node000030" class="node">
<title>Node30</title>
<g id="a_Node000030"><a xlink:href="group___noah___l_s_m_ga25b90f8a8049eb17cc6cb6a3fecf3fdc.html#ga25b90f8a8049eb17cc6cb6a3fecf3fdc" target="_top" xlink:title="This subroutine calculates potential evaporation for the current point. various partial sums/products...">
<polygon fill="white" stroke="#666666" points="159.5,-204.25 109,-204.25 109,-185 159.5,-185 159.5,-204.25"/>
<text xml:space="preserve" text-anchor="middle" x="134.25" y="-190.75" font-family="Source Sans Pro" font-size="10.00">penman</text>
</a>
</g>
</g>
<!-- Node1&#45;&gt;Node30 -->
<g id="edge32_Node000001_Node000030" class="edge">
<title>Node1&#45;&gt;Node30</title>
<g id="a_edge32_Node000001_Node000030"><a xlink:title=" ">
<path fill="none" stroke="#63b8ff" d="M61.48,-221.51C72.76,-217.29 86.02,-212.32 98.05,-207.81"/>
<polygon fill="#63b8ff" stroke="#63b8ff" points="99.11,-211.15 107.25,-204.37 96.66,-204.6 99.11,-211.15"/>
</a>
</g>
</g>
<!-- Node31 -->
<g id="Node000031" class="node">
<title>Node31</title>
<g id="a_Node000031"><a xlink:href="group___noah___l_s_m_ga1c19b4bae5de2a391c019b6778a58dad.html#ga1c19b4bae5de2a391c019b6778a58dad" target="_top" xlink:title="This subroutine internally sets default values or optionally read&#45;in via namelist i/o,...">
<polygon fill="white" stroke="#666666" points="157.25,-167.25 111.25,-167.25 111.25,-148 157.25,-148 157.25,-167.25"/>
<text xml:space="preserve" text-anchor="middle" x="134.25" y="-153.75" font-family="Source Sans Pro" font-size="10.00">redprm</text>
</a>
</g>
</g>
<!-- Node1&#45;&gt;Node31 -->
<g id="edge33_Node000001_Node000031" class="edge">
<title>Node1&#45;&gt;Node31</title>
<g id="a_edge33_Node000001_Node000031"><a xlink:title=" ">
<path fill="none" stroke="#63b8ff" d="M45.73,-221.57C58.97,-209.92 81.86,-190.43 103,-175.62 103.98,-174.94 104.98,-174.26 106,-173.58"/>
<polygon fill="#63b8ff" stroke="#63b8ff" points="107.5,-176.77 114.1,-168.47 103.77,-170.84 107.5,-176.77"/>
</a>
</g>
</g>
<!-- Node32 -->
<g id="Node000032" class="node">
<title>Node32</title>
<g id="a_Node000032"><a xlink:href="group___noah___l_s_m_gafdc2dc9815673befca7228be47616e41.html#gafdc2dc9815673befca7228be47616e41" target="_top" xlink:title="This subroutine calculates surface layer exchange coefficients via iterative process(see Chen et al....">
<polygon fill="white" stroke="#666666" points="154.25,-130.25 114.25,-130.25 114.25,-111 154.25,-111 154.25,-130.25"/>
<text xml:space="preserve" text-anchor="middle" x="134.25" y="-116.75" font-family="Source Sans Pro" font-size="10.00">sfcdif</text>
</a>
</g>
</g>
<!-- Node1&#45;&gt;Node32 -->
<g id="edge34_Node000001_Node000032" class="edge">
<title>Node1&#45;&gt;Node32</title>
<g id="a_edge34_Node000001_Node000032"><a xlink:title=" ">
<path fill="none" stroke="#63b8ff" d="M40.02,-221.66C50.46,-203.46 74.62,-164.35 103,-138.62 103.51,-138.16 104.03,-137.71 104.57,-137.26"/>
<polygon fill="#63b8ff" stroke="#63b8ff" points="106.57,-140.13 112.66,-131.46 102.49,-134.44 106.57,-140.13"/>
</a>
</g>
</g>
<!-- Node33 -->
<g id="Node000033" class="node">
<title>Node33</title>
<g id="a_Node000033"><a xlink:href="group___noah___l_s_m_gafca324f1a0f2bcca12116291bfc8ad68.html#gafca324f1a0f2bcca12116291bfc8ad68" target="_top" xlink:title="This subroutine calculates snow fraction (0&#45;&gt;1).">
<polygon fill="white" stroke="#666666" points="155.75,-93.25 112.75,-93.25 112.75,-74 155.75,-74 155.75,-93.25"/>
<text xml:space="preserve" text-anchor="middle" x="134.25" y="-79.75" font-family="Source Sans Pro" font-size="10.00">snfrac</text>
</a>
</g>
</g>
<!-- Node1&#45;&gt;Node33 -->
<g id="edge35_Node000001_Node000033" class="edge">
<title>Node1&#45;&gt;Node33</title>
<g id="a_edge35_Node000001_Node000033"><a xlink:title=" ">
<path fill="none" stroke="#63b8ff" d="M37.62,-221.7C45.38,-198.33 67.52,-139 103,-101.62 103.36,-101.25 103.72,-100.88 104.1,-100.51"/>
<polygon fill="#63b8ff" stroke="#63b8ff" points="106,-103.47 111.71,-94.55 101.68,-97.96 106,-103.47"/>
</a>
</g>
</g>
<!-- Node34 -->
<g id="Node000034" class="node">
<title>Node34</title>
<g id="a_Node000034"><a xlink:href="group___noah___l_s_m_gad65a889bf3f431ade2a312674671ab41.html#gad65a889bf3f431ade2a312674671ab41" target="_top" xlink:title="This subroutine calculates soil moisture and heat flux values and update soil moisture content and so...">
<polygon fill="white" stroke="#666666" points="158,-241.25 110.5,-241.25 110.5,-222 158,-222 158,-241.25"/>
<text xml:space="preserve" text-anchor="middle" x="134.25" y="-227.75" font-family="Source Sans Pro" font-size="10.00">snopac</text>
</a>
</g>
</g>
<!-- Node1&#45;&gt;Node34 -->
<g id="edge36_Node000001_Node000034" class="edge">
<title>Node1&#45;&gt;Node34</title>
<g id="a_edge36_Node000001_Node000034"><a xlink:title=" ">
<path fill="none" stroke="#63b8ff" d="M67.38,-231.62C77.46,-231.62 88.58,-231.62 98.77,-231.62"/>
<polygon fill="#63b8ff" stroke="#63b8ff" points="98.66,-235.13 108.66,-231.63 98.66,-228.13 98.66,-235.13"/>
</a>
</g>
</g>
<!-- Node36 -->
<g id="Node000036" class="node">
<title>Node36</title>
<g id="a_Node000036"><a xlink:href="group___noah___l_s_m_gab816dbe84c4db91178251b08553c6d02.html#gab816dbe84c4db91178251b08553c6d02" target="_top" xlink:title="This subroutine calculates snow depth and densitity to account for the new snowfall....">
<polygon fill="white" stroke="#666666" points="165.5,-56.25 103,-56.25 103,-37 165.5,-37 165.5,-56.25"/>
<text xml:space="preserve" text-anchor="middle" x="134.25" y="-42.75" font-family="Source Sans Pro" font-size="10.00">snow_new</text>
</a>
</g>
</g>
<!-- Node1&#45;&gt;Node36 -->
<g id="edge41_Node000001_Node000036" class="edge">
<title>Node1&#45;&gt;Node36</title>
<g id="a_edge41_Node000001_Node000036"><a xlink:title=" ">
<path fill="none" stroke="#63b8ff" d="M36.25,-221.82C41.64,-194.15 60.23,-114.22 103,-64.62 103.25,-64.34 103.5,-64.06 103.76,-63.78"/>
<polygon fill="#63b8ff" stroke="#63b8ff" points="105.75,-66.67 111.19,-57.58 101.27,-61.3 105.75,-66.67"/>
</a>
</g>
</g>
<!-- Node37 -->
<g id="Node000037" class="node">
<title>Node37</title>
<g id="a_Node000037"><a xlink:href="group___noah___l_s_m_ga95d889f436d70014fe640fa1b2420545.html#ga95d889f436d70014fe640fa1b2420545" target="_top" xlink:title="This subroutine calculates total roughness length over snow.">
<polygon fill="white" stroke="#666666" points="159.12,-19.25 109.38,-19.25 109.38,0 159.12,0 159.12,-19.25"/>
<text xml:space="preserve" text-anchor="middle" x="134.25" y="-5.75" font-family="Source Sans Pro" font-size="10.00">snowz0</text>
</a>
</g>
</g>
<!-- Node1&#45;&gt;Node37 -->
<g id="edge42_Node000001_Node000037" class="edge">
<title>Node1&#45;&gt;Node37</title>
<g id="a_edge42_Node000001_Node000037"><a xlink:title=" ">
<path fill="none" stroke="#63b8ff" d="M35.42,-221.53C38.79,-189.65 53.03,-89.55 103,-27.62 103.15,-27.43 103.31,-27.25 103.47,-27.06"/>
<polygon fill="#63b8ff" stroke="#63b8ff" points="105.53,-29.9 110.73,-20.68 100.91,-24.65 105.53,-29.9"/>
</a>
</g>
</g>
<!-- Node3 -->
<g id="Node000003" class="node">
<title>Node3</title>
<g id="a_Node000003"><a xlink:href="group___noah_m_p___l_s_m_ga497b40d27709666f17da3e555f8628a1.html#ga497b40d27709666f17da3e555f8628a1" target="_top" xlink:title="ground surface albedo">
<polygon fill="white" stroke="#666666" points="367,-448.25 309,-448.25 309,-429 367,-429 367,-448.25"/>
<text xml:space="preserve" text-anchor="middle" x="338" y="-434.75" font-family="Source Sans Pro" font-size="10.00">groundalb</text>
</a>
</g>
</g>
<!-- Node2&#45;&gt;Node3 -->
<g id="edge2_Node000002_Node000003" class="edge">
<title>Node2&#45;&gt;Node3</title>
<g id="a_edge2_Node000002_Node000003"><a xlink:title=" ">
<path fill="none" stroke="#63b8ff" d="M254.25,-438.62C266.69,-438.62 282.7,-438.62 297.33,-438.62"/>
<polygon fill="#63b8ff" stroke="#63b8ff" points="297.15,-442.13 307.15,-438.63 297.15,-435.13 297.15,-442.13"/>
</a>
</g>
</g>
<!-- Node4 -->
<g id="Node000004" class="node">
<title>Node4</title>
<g id="a_Node000004"><a xlink:href="group___noah_m_p___l_s_m_ga748c587c5dc0a38a1793042e92952d43.html#ga748c587c5dc0a38a1793042e92952d43" target="_top" xlink:title=" ">
<polygon fill="white" stroke="#666666" points="368.12,-411.25 307.88,-411.25 307.88,-392 368.12,-392 368.12,-411.25"/>
<text xml:space="preserve" text-anchor="middle" x="338" y="-397.75" font-family="Source Sans Pro" font-size="10.00">snow_age</text>
</a>
</g>
</g>
<!-- Node2&#45;&gt;Node4 -->
<g id="edge3_Node000002_Node000004" class="edge">
<title>Node2&#45;&gt;Node4</title>
<g id="a_edge3_Node000002_Node000004"><a xlink:title=" ">
<path fill="none" stroke="#63b8ff" d="M254.25,-430.96C266.94,-426.46 283.34,-420.65 298.19,-415.38"/>
<polygon fill="#63b8ff" stroke="#63b8ff" points="298.98,-418.82 307.23,-412.18 296.64,-412.22 298.98,-418.82"/>
</a>
</g>
</g>
<!-- Node5 -->
<g id="Node000005" class="node">
<title>Node5</title>
<g id="a_Node000005"><a xlink:href="group___noah_m_p___l_s_m_ga238debe3053962b0b33a5e846e333701.html#ga238debe3053962b0b33a5e846e333701" target="_top" xlink:title="bats snow surface albedo">
<polygon fill="white" stroke="#666666" points="376,-374.25 300,-374.25 300,-355 376,-355 376,-374.25"/>
<text xml:space="preserve" text-anchor="middle" x="338" y="-360.75" font-family="Source Sans Pro" font-size="10.00">snowalb_bats</text>
</a>
</g>
</g>
<!-- Node2&#45;&gt;Node5 -->
<g id="edge4_Node000002_Node000005" class="edge">
<title>Node2&#45;&gt;Node5</title>
<g id="a_edge4_Node000002_Node000005"><a xlink:title=" ">
<path fill="none" stroke="#63b8ff" d="M242.51,-428.54C254.69,-416.51 276.41,-396.31 297.75,-382.62 299.17,-381.71 300.64,-380.83 302.15,-379.96"/>
<polygon fill="#63b8ff" stroke="#63b8ff" points="303.77,-383.06 311.02,-375.34 300.53,-376.86 303.77,-383.06"/>
</a>
</g>
</g>
<!-- Node6 -->
<g id="Node000006" class="node">
<title>Node6</title>
<g id="a_Node000006"><a xlink:href="group___noah_m_p___l_s_m_ga2ea2346edd6f426f30dcc99085def5cf.html#ga2ea2346edd6f426f30dcc99085def5cf" target="_top" xlink:title="class snow surface albedo">
<polygon fill="white" stroke="#666666" points="378.25,-522.25 297.75,-522.25 297.75,-503 378.25,-503 378.25,-522.25"/>
<text xml:space="preserve" text-anchor="middle" x="338" y="-508.75" font-family="Source Sans Pro" font-size="10.00">snowalb_class</text>
</a>
</g>
</g>
<!-- Node2&#45;&gt;Node6 -->
<g id="edge5_Node000002_Node000006" class="edge">
<title>Node2&#45;&gt;Node6</title>
<g id="a_edge5_Node000002_Node000006"><a xlink:title=" ">
<path fill="none" stroke="#63b8ff" d="M242.51,-448.71C254.69,-460.74 276.41,-480.94 297.75,-494.62 299.17,-495.54 300.64,-496.42 302.15,-497.29"/>
<polygon fill="#63b8ff" stroke="#63b8ff" points="300.53,-500.39 311.02,-501.91 303.77,-494.19 300.53,-500.39"/>
</a>
</g>
</g>
<!-- Node7 -->
<g id="Node000007" class="node">
<title>Node7</title>
<g id="a_Node000007"><a xlink:href="group___noah_m_p___l_s_m_gaa737a61978bde4dc6363e11263999769.html#gaa737a61978bde4dc6363e11263999769" target="_top" xlink:title="use two&#45;stream approximation of Dickinson (1983) adv geophysics 25: 305&#45;353 and sellers (1985) int j ...">
<polygon fill="white" stroke="#666666" points="368.88,-485.25 307.12,-485.25 307.12,-466 368.88,-466 368.88,-485.25"/>
<text xml:space="preserve" text-anchor="middle" x="338" y="-471.75" font-family="Source Sans Pro" font-size="10.00">twostream</text>
</a>
</g>
</g>
<!-- Node2&#45;&gt;Node7 -->
<g id="edge6_Node000002_Node000007" class="edge">
<title>Node2&#45;&gt;Node7</title>
<g id="a_edge6_Node000002_Node000007"><a xlink:title=" ">
<path fill="none" stroke="#63b8ff" d="M254.25,-446.29C266.94,-450.79 283.34,-456.6 298.19,-461.87"/>
<polygon fill="#63b8ff" stroke="#63b8ff" points="296.64,-465.03 307.23,-465.07 298.98,-458.43 296.64,-465.03"/>
</a>
</g>
</g>
<!-- Node8&#45;&gt;Node2 -->
<g id="edge8_Node000008_Node000002" class="edge">
<title>Node8&#45;&gt;Node2</title>
<g id="a_edge8_Node000008_Node000002"><a xlink:title=" ">
<path fill="none" stroke="#63b8ff" d="M155.48,-453.6C167.78,-451.14 183.78,-447.96 197.86,-445.15"/>
<polygon fill="#63b8ff" stroke="#63b8ff" points="198.49,-448.59 207.62,-443.21 197.13,-441.73 198.49,-448.59"/>
</a>
</g>
</g>
<!-- Node12 -->
<g id="Node000012" class="node">
<title>Node12</title>
<g id="a_Node000012"><a xlink:href="group___noah___l_s_m_ga4af741ecc120ddb0d7282f78df4136a5.html#ga4af741ecc120ddb0d7282f78df4136a5" target="_top" xlink:title="This subroutine calculates soil moisture flux. The soil moisture content (smc &#45; a per unit volume mea...">
<polygon fill="white" stroke="#666666" points="252.75,-176.25 210.5,-176.25 210.5,-157 252.75,-157 252.75,-176.25"/>
<text xml:space="preserve" text-anchor="middle" x="231.62" y="-162.75" font-family="Source Sans Pro" font-size="10.00">evapo</text>
</a>
</g>
</g>
<!-- Node11&#45;&gt;Node12 -->
<g id="edge12_Node000011_Node000012" class="edge">
<title>Node11&#45;&gt;Node12</title>
<g id="a_edge12_Node000011_Node000012"><a xlink:title=" ">
<path fill="none" stroke="#63b8ff" d="M155.57,-258.6C159.13,-256.29 162.62,-253.62 165.5,-250.62 188.68,-226.56 178.52,-208.88 201.5,-184.62 201.76,-184.35 202.03,-184.08 202.3,-183.81"/>
<polygon fill="#63b8ff" stroke="#63b8ff" points="204.3,-186.69 209.89,-177.69 199.91,-181.24 204.3,-186.69"/>
</a>
</g>
</g>
<!-- Node15 -->
<g id="Node000015" class="node">
<title>Node15</title>
<g id="a_Node000015"><a xlink:href="group___noah___l_s_m_ga977daabf4ff68b28fc5ccd8796d815cd.html#ga977daabf4ff68b28fc5ccd8796d815cd" target="_top" xlink:title="This subroutine updates the temperature state of the soil column based on the thermal diffusion equat...">
<polygon fill="white" stroke="#666666" points="250.12,-250.25 213.12,-250.25 213.12,-231 250.12,-231 250.12,-250.25"/>
<text xml:space="preserve" text-anchor="middle" x="231.62" y="-236.75" font-family="Source Sans Pro" font-size="10.00">shflx</text>
</a>
</g>
</g>
<!-- Node11&#45;&gt;Node15 -->
<g id="edge15_Node000011_Node000015" class="edge">
<title>Node11&#45;&gt;Node15</title>
<g id="a_edge15_Node000011_Node000015"><a xlink:title=" ">
<path fill="none" stroke="#63b8ff" d="M155.48,-262.69C168.98,-258.72 186.95,-253.45 201.93,-249.05"/>
<polygon fill="#63b8ff" stroke="#63b8ff" points="202.62,-252.5 211.23,-246.32 200.65,-245.78 202.62,-252.5"/>
</a>
</g>
</g>
<!-- Node11&#45;&gt;Node21 -->
<g id="edge31_Node000011_Node000021" class="edge">
<title>Node11&#45;&gt;Node21</title>
<g id="a_edge31_Node000011_Node000021"><a xlink:title=" ">
<path fill="none" stroke="#63b8ff" d="M155.54,-269.63C207.02,-272.19 343,-278.94 405.33,-282.03"/>
<polygon fill="#63b8ff" stroke="#63b8ff" points="405.1,-285.53 415.26,-282.53 405.45,-278.54 405.1,-285.53"/>
</a>
</g>
</g>
<!-- Node26 -->
<g id="Node000026" class="node">
<title>Node26</title>
<g id="a_Node000026"><a xlink:href="group___noah___l_s_m_gafa3e5637e56746e2539ef2567836defa.html#gafa3e5637e56746e2539ef2567836defa" target="_top" xlink:title="This subroutine calculates soil moisture flux. The soil moisture content (smc &#45; a per unit vulume mea...">
<polygon fill="white" stroke="#666666" points="251.62,-213.25 211.62,-213.25 211.62,-194 251.62,-194 251.62,-213.25"/>
<text xml:space="preserve" text-anchor="middle" x="231.62" y="-199.75" font-family="Source Sans Pro" font-size="10.00">smflx</text>
</a>
</g>
</g>
<!-- Node11&#45;&gt;Node26 -->
<g id="edge26_Node000011_Node000026" class="edge">
<title>Node11&#45;&gt;Node26</title>
<g id="a_edge26_Node000011_Node000026"><a xlink:title=" ">
<path fill="none" stroke="#63b8ff" d="M153.11,-258.57C157.25,-256.08 161.59,-253.35 165.5,-250.62 182.37,-238.9 184.73,-233.49 201.5,-221.62 202.33,-221.04 203.17,-220.45 204.03,-219.86"/>
<polygon fill="#63b8ff" stroke="#63b8ff" points="205.7,-222.95 212.18,-214.57 201.89,-217.08 205.7,-222.95"/>
</a>
</g>
</g>
<!-- Node13 -->
<g id="Node000013" class="node">
<title>Node13</title>
<g id="a_Node000013"><a xlink:href="group___noah___l_s_m_gabf8ee2c002871d95bc356e2058f49a92.html#gabf8ee2c002871d95bc356e2058f49a92" target="_top" xlink:title="This subrtouine calculates direct soil evaporation.">
<polygon fill="white" stroke="#666666" points="359.12,-70.25 316.88,-70.25 316.88,-51 359.12,-51 359.12,-70.25"/>
<text xml:space="preserve" text-anchor="middle" x="338" y="-56.75" font-family="Source Sans Pro" font-size="10.00">devap</text>
</a>
</g>
</g>
<!-- Node12&#45;&gt;Node13 -->
<g id="edge13_Node000012_Node000013" class="edge">
<title>Node12&#45;&gt;Node13</title>
<g id="a_edge13_Node000012_Node000013"><a xlink:title=" ">
<path fill="none" stroke="#63b8ff" d="M252.24,-156.56C255.67,-154.25 259.01,-151.59 261.75,-148.62 285.5,-122.94 272.46,-102.8 297.75,-78.62 300.32,-76.17 303.29,-74 306.42,-72.1"/>
<polygon fill="#63b8ff" stroke="#63b8ff" points="307.97,-75.24 315.32,-67.61 304.81,-68.99 307.97,-75.24"/>
</a>
</g>
</g>
<!-- Node14 -->
<g id="Node000014" class="node">
<title>Node14</title>
<g id="a_Node000014"><a xlink:href="group___noah___l_s_m_ga4bf7fbbf861a5c232da14ca6b74cdd4f.html#ga4bf7fbbf861a5c232da14ca6b74cdd4f" target="_top" xlink:title="This subroutine calculates transpiration for the veg class.">
<polygon fill="white" stroke="#666666" points="359.5,-33.25 316.5,-33.25 316.5,-14 359.5,-14 359.5,-33.25"/>
<text xml:space="preserve" text-anchor="middle" x="338" y="-19.75" font-family="Source Sans Pro" font-size="10.00">transp</text>
</a>
</g>
</g>
<!-- Node12&#45;&gt;Node14 -->
<g id="edge14_Node000012_Node000014" class="edge">
<title>Node12&#45;&gt;Node14</title>
<g id="a_edge14_Node000012_Node000014"><a xlink:title=" ">
<path fill="none" stroke="#63b8ff" d="M252.91,-156.68C256.19,-154.38 259.31,-151.7 261.75,-148.62 292.94,-109.32 264.19,-78.92 297.75,-41.62 300.13,-38.98 302.98,-36.7 306.04,-34.73"/>
<polygon fill="#63b8ff" stroke="#63b8ff" points="307.58,-37.87 314.87,-30.18 304.38,-31.65 307.58,-37.87"/>
</a>
</g>
</g>
<!-- Node16 -->
<g id="Node000016" class="node">
<title>Node16</title>
<g id="a_Node000016"><a xlink:href="group___noah___l_s_m_gabb602c2b09396e2f94c9556259f5bae4.html#gabb602c2b09396e2f94c9556259f5bae4" target="_top" xlink:title="This subroutine calculates the right hand side of the time tendency term of the soil thermal diffusio...">
<polygon fill="white" stroke="#666666" points="352.4,-218.25 323.6,-218.25 323.6,-199 352.4,-199 352.4,-218.25"/>
<text xml:space="preserve" text-anchor="middle" x="338" y="-204.75" font-family="Source Sans Pro" font-size="10.00">hrt</text>
</a>
</g>
</g>
<!-- Node15&#45;&gt;Node16 -->
<g id="edge16_Node000015_Node000016" class="edge">
<title>Node15&#45;&gt;Node16</title>
<g id="a_edge16_Node000015_Node000016"><a xlink:title=" ">
<path fill="none" stroke="#63b8ff" d="M250.33,-235.2C267.38,-229.97 293.32,-222.02 312.38,-216.17"/>
<polygon fill="#63b8ff" stroke="#63b8ff" points="313.23,-219.57 321.77,-213.29 311.18,-212.88 313.23,-219.57"/>
</a>
</g>
</g>
<!-- Node23 -->
<g id="Node000023" class="node">
<title>Node23</title>
<g id="a_Node000023"><a xlink:href="group___noah___l_s_m_ga32e89df3740f968f500900125ae9633d.html#ga32e89df3740f968f500900125ae9633d" target="_top" xlink:title="This subroutine calculates the right hand side of the time tendency term of the soil thermal diffusio...">
<polygon fill="white" stroke="#666666" points="358,-255.25 318,-255.25 318,-236 358,-236 358,-255.25"/>
<text xml:space="preserve" text-anchor="middle" x="338" y="-241.75" font-family="Source Sans Pro" font-size="10.00">hrtice</text>
</a>
</g>
</g>
<!-- Node15&#45;&gt;Node23 -->
<g id="edge23_Node000015_Node000023" class="edge">
<title>Node15&#45;&gt;Node23</title>
<g id="a_edge23_Node000015_Node000023"><a xlink:title=" ">
<path fill="none" stroke="#63b8ff" d="M250.33,-241.47C265.69,-242.21 288.27,-243.29 306.53,-244.17"/>
<polygon fill="#63b8ff" stroke="#63b8ff" points="306.12,-247.65 316.28,-244.63 306.46,-240.66 306.12,-247.65"/>
</a>
</g>
</g>
<!-- Node24 -->
<g id="Node000024" class="node">
<title>Node24</title>
<g id="a_Node000024"><a xlink:href="group___noah___l_s_m_gacb79bab20ee25c57918575949c15de73.html#gacb79bab20ee25c57918575949c15de73" target="_top" xlink:title="This subroutine calculates/updates the soil temperature field.">
<polygon fill="white" stroke="#666666" points="358,-181.25 318,-181.25 318,-162 358,-162 358,-181.25"/>
<text xml:space="preserve" text-anchor="middle" x="338" y="-167.75" font-family="Source Sans Pro" font-size="10.00">hstep</text>
</a>
</g>
</g>
<!-- Node15&#45;&gt;Node24 -->
<g id="edge24_Node000015_Node000024" class="edge">
<title>Node15&#45;&gt;Node24</title>
<g id="a_edge24_Node000015_Node000024"><a xlink:title=" ">
<path fill="none" stroke="#63b8ff" d="M249.92,-230.68C253.9,-228.19 258.05,-225.42 261.75,-222.62 279.06,-209.53 279.67,-201.63 297.75,-189.62 300.81,-187.59 304.14,-185.68 307.52,-183.91"/>
<polygon fill="#63b8ff" stroke="#63b8ff" points="308.72,-187.22 316.23,-179.74 305.7,-180.9 308.72,-187.22"/>
</a>
</g>
</g>
<!-- Node17 -->
<g id="Node000017" class="node">
<title>Node17</title>
<g id="a_Node000017"><a xlink:href="group___noah___l_s_m_ga1b241897d00ec3d66eabe9e959d0ce04.html#ga1b241897d00ec3d66eabe9e959d0ce04" target="_top" xlink:title="This subroutine calculates sink/source term of the termal diffusion equation.">
<polygon fill="white" stroke="#666666" points="461,-181.25 415.75,-181.25 415.75,-162 461,-162 461,-181.25"/>
<text xml:space="preserve" text-anchor="middle" x="438.38" y="-167.75" font-family="Source Sans Pro" font-size="10.00">snksrc</text>
</a>
</g>
</g>
<!-- Node16&#45;&gt;Node17 -->
<g id="edge17_Node000016_Node000017" class="edge">
<title>Node16&#45;&gt;Node17</title>
<g id="a_edge17_Node000016_Node000017"><a xlink:title=" ">
<path fill="none" stroke="#63b8ff" d="M352.68,-203.48C366.14,-198.42 387.21,-190.49 404.97,-183.81"/>
<polygon fill="#63b8ff" stroke="#63b8ff" points="405.95,-187.18 414.08,-180.39 403.49,-180.63 405.95,-187.18"/>
</a>
</g>
</g>
<!-- Node20 -->
<g id="Node000020" class="node">
<title>Node20</title>
<g id="a_Node000020"><a xlink:href="group___noah___l_s_m_ga8e248a6da8d1fd3c2e64b76f3bfbea50.html#ga8e248a6da8d1fd3c2e64b76f3bfbea50" target="_top" xlink:title="This subroutine calculates temperature on the boundary of the layer by interpolation of the middle la...">
<polygon fill="white" stroke="#666666" points="455.75,-255.25 421,-255.25 421,-236 455.75,-236 455.75,-255.25"/>
<text xml:space="preserve" text-anchor="middle" x="438.38" y="-241.75" font-family="Source Sans Pro" font-size="10.00">tbnd</text>
</a>
</g>
</g>
<!-- Node16&#45;&gt;Node20 -->
<g id="edge20_Node000016_Node000020" class="edge">
<title>Node16&#45;&gt;Node20</title>
<g id="a_edge20_Node000016_Node000020"><a xlink:title=" ">
<path fill="none" stroke="#63b8ff" d="M352.68,-213.77C367.44,-219.32 391.33,-228.31 409.98,-235.32"/>
<polygon fill="#63b8ff" stroke="#63b8ff" points="408.51,-238.51 419.1,-238.75 410.98,-231.96 408.51,-238.51"/>
</a>
</g>
</g>
<!-- Node16&#45;&gt;Node21 -->
<g id="edge21_Node000016_Node000021" class="edge">
<title>Node16&#45;&gt;Node21</title>
<g id="a_edge21_Node000016_Node000021"><a xlink:title=" ">
<path fill="none" stroke="#63b8ff" d="M352.77,-213.44C360.63,-216.54 370.45,-221.04 378.25,-226.62 397.17,-240.17 397.23,-248.77 414.25,-264.62 414.88,-265.21 415.52,-265.8 416.17,-266.39"/>
<polygon fill="#63b8ff" stroke="#63b8ff" points="413.87,-269.02 423.74,-272.86 418.42,-263.7 413.87,-269.02"/>
</a>
</g>
</g>
<!-- Node22 -->
<g id="Node000022" class="node">
<title>Node22</title>
<g id="a_Node000022"><a xlink:href="group___noah___l_s_m_gae50411efeb11ddeb8a0c53010745a95c.html#gae50411efeb11ddeb8a0c53010745a95c" target="_top" xlink:title="This subroutine calculates soil layer average temperature (tavg) in freezing/thawing layer using up,...">
<polygon fill="white" stroke="#666666" points="462.5,-218.25 414.25,-218.25 414.25,-199 462.5,-199 462.5,-218.25"/>
<text xml:space="preserve" text-anchor="middle" x="438.38" y="-204.75" font-family="Source Sans Pro" font-size="10.00">tmpavg</text>
</a>
</g>
</g>
<!-- Node16&#45;&gt;Node22 -->
<g id="edge22_Node000016_Node000022" class="edge">
<title>Node16&#45;&gt;Node22</title>
<g id="a_edge22_Node000016_Node000022"><a xlink:title=" ">
<path fill="none" stroke="#63b8ff" d="M352.68,-208.62C365.55,-208.62 385.36,-208.62 402.59,-208.62"/>
<polygon fill="#63b8ff" stroke="#63b8ff" points="402.47,-212.13 412.47,-208.63 402.47,-205.13 402.47,-212.13"/>
</a>
</g>
</g>
<!-- Node18 -->
<g id="Node000018" class="node">
<title>Node18</title>
<g id="a_Node000018"><a xlink:href="group___noah___l_s_m_ga7c0e713811400259a984b2153834e70c.html#ga7c0e713811400259a984b2153834e70c" target="_top" xlink:title="This subroutine calculates amount of supercooled liquid soil water content if temperature is below 27...">
<polygon fill="white" stroke="#666666" points="536.25,-181.25 498.5,-181.25 498.5,-162 536.25,-162 536.25,-181.25"/>
<text xml:space="preserve" text-anchor="middle" x="517.38" y="-167.75" font-family="Source Sans Pro" font-size="10.00">frh2o</text>
</a>
</g>
</g>
<!-- Node17&#45;&gt;Node18 -->
<g id="edge18_Node000017_Node000018" class="edge">
<title>Node17&#45;&gt;Node18</title>
<g id="a_edge18_Node000017_Node000018"><a xlink:title=" ">
<path fill="none" stroke="#63b8ff" d="M461.23,-171.62C469.15,-171.62 478.23,-171.62 486.71,-171.62"/>
<polygon fill="#63b8ff" stroke="#63b8ff" points="486.59,-175.13 496.59,-171.63 486.59,-168.13 486.59,-175.13"/>
</a>
</g>
</g>
<!-- Node19 -->
<g id="Node000019" class="node">
<title>Node19</title>
<g id="a_Node000019"><a xlink:href="group___noah_m_p___l_s_m_gace27cd3a7b4e23955e39e33bd344baae.html#gace27cd3a7b4e23955e39e33bd344baae" target="_top" xlink:title="check surface energy balance and water balance.">
<polygon fill="white" stroke="#666666" points="607.75,-181.25 572.25,-181.25 572.25,-162 607.75,-162 607.75,-181.25"/>
<text xml:space="preserve" text-anchor="middle" x="590" y="-167.75" font-family="Source Sans Pro" font-size="10.00">error</text>
</a>
</g>
</g>
<!-- Node18&#45;&gt;Node19 -->
<g id="edge19_Node000018_Node000019" class="edge">
<title>Node18&#45;&gt;Node19</title>
<g id="a_edge19_Node000018_Node000019"><a xlink:title=" ">
<path fill="none" stroke="#63b8ff" d="M536.56,-171.62C543.92,-171.62 552.59,-171.62 560.74,-171.62"/>
<polygon fill="#63b8ff" stroke="#63b8ff" points="560.57,-175.13 570.57,-171.63 560.57,-168.13 560.57,-175.13"/>
</a>
</g>
</g>
<!-- Node25 -->
<g id="Node000025" class="node">
<title>Node25</title>
<g id="a_Node000025"><a xlink:href="group___noah___l_s_m_ga3d7dabe1147278de865aa4691d5b2de0.html#ga3d7dabe1147278de865aa4691d5b2de0" target="_top" xlink:title="This subroutine inverts (solve) the tri&#45;diagonal matrix problem.">
<polygon fill="white" stroke="#666666" points="459.88,-144.25 416.88,-144.25 416.88,-125 459.88,-125 459.88,-144.25"/>
<text xml:space="preserve" text-anchor="middle" x="438.38" y="-130.75" font-family="Source Sans Pro" font-size="10.00">rosr12</text>
</a>
</g>
</g>
<!-- Node24&#45;&gt;Node25 -->
<g id="edge25_Node000024_Node000025" class="edge">
<title>Node24&#45;&gt;Node25</title>
<g id="a_edge25_Node000024_Node000025"><a xlink:title=" ">
<path fill="none" stroke="#63b8ff" d="M358.44,-164.31C371.95,-159.23 390.27,-152.34 405.86,-146.48"/>
<polygon fill="#63b8ff" stroke="#63b8ff" points="407.08,-149.76 415.2,-142.96 404.61,-143.21 407.08,-149.76"/>
</a>
</g>
</g>
<!-- Node27 -->
<g id="Node000027" class="node">
<title>Node27</title>
<g id="a_Node000027"><a xlink:href="group___noah___l_s_m_gaf59c85cce3b10eaa0ffeb366de9d5304.html#gaf59c85cce3b10eaa0ffeb366de9d5304" target="_top" xlink:title="This subroutine calculates the right hand side of the time tendency term of the soil water diffusion ...">
<polygon fill="white" stroke="#666666" points="352.4,-107.25 323.6,-107.25 323.6,-88 352.4,-88 352.4,-107.25"/>
<text xml:space="preserve" text-anchor="middle" x="338" y="-93.75" font-family="Source Sans Pro" font-size="10.00">srt</text>
</a>
</g>
</g>
<!-- Node26&#45;&gt;Node27 -->
<g id="edge27_Node000026_Node000027" class="edge">
<title>Node26&#45;&gt;Node27</title>
<g id="a_edge27_Node000026_Node000027"><a xlink:title=" ">
<path fill="none" stroke="#63b8ff" d="M251.94,-193.77C255.47,-191.41 258.93,-188.68 261.75,-185.62 285.5,-159.94 272.46,-139.8 297.75,-115.62 302,-111.56 307.32,-108.3 312.67,-105.73"/>
<polygon fill="#63b8ff" stroke="#63b8ff" points="313.99,-108.98 321.93,-101.96 311.35,-102.49 313.99,-108.98"/>
</a>
</g>
</g>
<!-- Node29 -->
<g id="Node000029" class="node">
<title>Node29</title>
<g id="a_Node000029"><a xlink:href="group___noah___l_s_m_ga22b00b15c1b261126ec2d15719cb3aa4.html#ga22b00b15c1b261126ec2d15719cb3aa4" target="_top" xlink:title="This subroutine calculates/updates soil moisture content values and canopy moisture content values.">
<polygon fill="white" stroke="#666666" points="358,-144.25 318,-144.25 318,-125 358,-125 358,-144.25"/>
<text xml:space="preserve" text-anchor="middle" x="338" y="-130.75" font-family="Source Sans Pro" font-size="10.00">sstep</text>
</a>
</g>
</g>
<!-- Node26&#45;&gt;Node29 -->
<g id="edge29_Node000026_Node000029" class="edge">
<title>Node26&#45;&gt;Node29</title>
<g id="a_edge29_Node000026_Node000029"><a xlink:title=" ">
<path fill="none" stroke="#63b8ff" d="M249.92,-193.68C253.9,-191.19 258.05,-188.42 261.75,-185.62 279.06,-172.53 279.67,-164.63 297.75,-152.62 300.81,-150.59 304.14,-148.68 307.52,-146.91"/>
<polygon fill="#63b8ff" stroke="#63b8ff" points="308.72,-150.22 316.23,-142.74 305.7,-143.9 308.72,-150.22"/>
</a>
</g>
</g>
<!-- Node28 -->
<g id="Node000028" class="node">
<title>Node28</title>
<g id="a_Node000028"><a xlink:href="group___noah___l_s_m_gabfc5ae94c847aa3351345e0e924302a1.html#gabfc5ae94c847aa3351345e0e924302a1" target="_top" xlink:title="This subroutine calculates soil water diffusivity and soil hydraulic conductivity.">
<polygon fill="white" stroke="#666666" points="462.12,-107.25 414.62,-107.25 414.62,-88 462.12,-88 462.12,-107.25"/>
<text xml:space="preserve" text-anchor="middle" x="438.38" y="-93.75" font-family="Source Sans Pro" font-size="10.00">wdfcnd</text>
</a>
</g>
</g>
<!-- Node27&#45;&gt;Node28 -->
<g id="edge28_Node000027_Node000028" class="edge">
<title>Node27&#45;&gt;Node28</title>
<g id="a_edge28_Node000027_Node000028"><a xlink:title=" ">
<path fill="none" stroke="#63b8ff" d="M352.68,-97.62C365.63,-97.62 385.62,-97.62 402.93,-97.62"/>
<polygon fill="#63b8ff" stroke="#63b8ff" points="402.85,-101.13 412.85,-97.63 402.85,-94.13 402.85,-101.13"/>
</a>
</g>
</g>
<!-- Node29&#45;&gt;Node25 -->
<g id="edge30_Node000029_Node000025" class="edge">
<title>Node29&#45;&gt;Node25</title>
<g id="a_edge30_Node000029_Node000025"><a xlink:title=" ">
<path fill="none" stroke="#63b8ff" d="M358.44,-134.62C371.82,-134.62 389.92,-134.62 405.41,-134.62"/>
<polygon fill="#63b8ff" stroke="#63b8ff" points="405.11,-138.13 415.11,-134.63 405.11,-131.13 405.11,-138.13"/>
</a>
</g>
</g>
<!-- Node34&#45;&gt;Node12 -->
<g id="edge37_Node000034_Node000012" class="edge">
<title>Node34&#45;&gt;Node12</title>
<g id="a_edge37_Node000034_Node000012"><a xlink:title=" ">
<path fill="none" stroke="#63b8ff" d="M153.11,-221.57C157.25,-219.08 161.59,-216.35 165.5,-213.62 182.37,-201.9 184.73,-196.49 201.5,-184.62 202.33,-184.04 203.17,-183.45 204.03,-182.86"/>
<polygon fill="#63b8ff" stroke="#63b8ff" points="205.7,-185.95 212.18,-177.57 201.89,-180.08 205.7,-185.95"/>
</a>
</g>
</g>
<!-- Node34&#45;&gt;Node15 -->
<g id="edge38_Node000034_Node000015" class="edge">
<title>Node34&#45;&gt;Node15</title>
<g id="a_edge38_Node000034_Node000015"><a xlink:title=" ">
<path fill="none" stroke="#63b8ff" d="M158.34,-233.8C171.3,-235.03 187.6,-236.57 201.44,-237.87"/>
<polygon fill="#63b8ff" stroke="#63b8ff" points="201.03,-241.35 211.32,-238.8 201.69,-234.38 201.03,-241.35"/>
</a>
</g>
</g>
<!-- Node34&#45;&gt;Node26 -->
<g id="edge39_Node000034_Node000026" class="edge">
<title>Node34&#45;&gt;Node26</title>
<g id="a_edge39_Node000034_Node000026"><a xlink:title=" ">
<path fill="none" stroke="#63b8ff" d="M158.34,-224.85C171,-221.13 186.85,-216.48 200.48,-212.48"/>
<polygon fill="#63b8ff" stroke="#63b8ff" points="201.22,-215.9 209.83,-209.73 199.25,-209.19 201.22,-215.9"/>
</a>
</g>
</g>
<!-- Node35 -->
<g id="Node000035" class="node">
<title>Node35</title>
<g id="a_Node000035"><a xlink:href="group___noah___l_s_m_gab5149f309f4e291435f75dd63d4a97ac.html#gab5149f309f4e291435f75dd63d4a97ac" target="_top" xlink:title="This subroutine calculates compaction of a snowpack under conditions of increasing snow density,...">
<polygon fill="white" stroke="#666666" points="261.75,-139.25 201.5,-139.25 201.5,-120 261.75,-120 261.75,-139.25"/>
<text xml:space="preserve" text-anchor="middle" x="231.62" y="-125.75" font-family="Source Sans Pro" font-size="10.00">snowpack</text>
</a>
</g>
</g>
<!-- Node34&#45;&gt;Node35 -->
<g id="edge40_Node000034_Node000035" class="edge">
<title>Node34&#45;&gt;Node35</title>
<g id="a_edge40_Node000034_Node000035"><a xlink:title=" ">
<path fill="none" stroke="#63b8ff" d="M155.57,-221.6C159.13,-219.29 162.62,-216.62 165.5,-213.62 188.68,-189.56 178.52,-171.88 201.5,-147.62 201.76,-147.35 202.03,-147.08 202.3,-146.81"/>
<polygon fill="#63b8ff" stroke="#63b8ff" points="204.3,-149.69 209.89,-140.69 199.91,-144.24 204.3,-149.69"/>
</a>
</g>
</g>
</g>
</svg>

<g id="navigator" transform="translate(0 0)" fill="#404254">
  <rect fill="#f2f5e9" fill-opacity="0.5" stroke="#606060" stroke-width=".5" x="0" y="0" width="60" height="60"/>
  <use id="zoomplus" xlink:href="#zoomPlus" x="17" y="9" onmousedown="handleZoom(evt,'in')"/>
  <use id="zoomminus" xlink:href="#zoomMin" x="42" y="9" onmousedown="handleZoom(evt,'out')"/>
  <use id="reset" xlink:href="#resetDef" x="30" y="36" onmousedown="handleReset()"/>
   <use id="arrowup" xlink:href="#arrowUp" x="0" y="0" onmousedown="handlePan(0,-1)"/>
  <use id="arrowright" xlink:href="#arrowRight" x="0" y="0" onmousedown="handlePan(1,0)"/>
  <use id="arrowdown" xlink:href="#arrowDown" x="0" y="0" onmousedown="handlePan(0,1)"/>
  <use id="arrowleft" xlink:href="#arrowLeft" x="0" y="0" onmousedown="handlePan(-1,0)"/>
</g>
<svg viewBox="0 0 15 15" width="100%" height="30px" preserveAspectRatio="xMaxYMin meet">
 <g id="arrow_out" transform="scale(0.3 0.3)">
  <a xlink:href="group___noah___l_s_m_ga36e98f3ac91f839b816fd167eab30901_ga36e98f3ac91f839b816fd167eab30901_cgraph_org.svg" target="_base">
   <rect id="button" ry="5" rx="5" y="6" x="6" height="38" width="38"
        fill="#f2f5e9" fill-opacity="0.5" stroke="#606060" stroke-width="1.0"/>
   <path id="arrow"
     d="M 11.500037,31.436501 C 11.940474,20.09759 22.043105,11.32322 32.158766,21.979434 L 37.068811,17.246167 C 37.068811,17.246167 37.088388,32 37.088388,32 L 22.160133,31.978069 C 22.160133,31.978069 26.997745,27.140456 26.997745,27.140456 C 18.528582,18.264221 13.291696,25.230495 11.500037,31.436501 z"
     style="fill:#404040;"/>
  </a>
 </g>
</svg>

<style type='text/css'>
<![CDATA[
[data-mouse-over-selected='false'] { opacity: 0.7; }
[data-mouse-over-selected='true']  { opacity: 1.0; }
]]>
</style>
<script type="application/ecmascript"><![CDATA[
document.addEventListener('DOMContentLoaded', (event) => {
  highlightEdges();
  highlightAdjacentNodes();
});
]]></script>
</svg>
