<?xml version="1.0" encoding="UTF-8" standalone="no"?>
<!DOCTYPE svg PUBLIC "-//W3C//DTD SVG 1.1//EN"
 "http://www.w3.org/Graphics/SVG/1.1/DTD/svg11.dtd">
<!-- Generated by graphviz version 14.1.2 (20260124.0452)
 -->
<!-- Title: cu_gf_deep::get_cloud_bc Pages: 1 -->
<svg width="606pt" height="105pt"
 viewBox="0.00 0.00 606.00 105.00" xmlns="http://www.w3.org/2000/svg" xmlns:xlink="http://www.w3.org/1999/xlink">
<g id="graph0" class="graph" transform="scale(1 1) rotate(0) translate(4 101.27)">
<title>cu_gf_deep::get_cloud_bc</title>
<!-- Node1 -->
<g id="Node000001" class="node">
<title>Node1</title>
<g id="a_Node000001"><a xlink:title="Calculates the average value of a variable at the updraft originating level.">
<polygon fill="#999999" stroke="#666666" points="598,-55.26 468,-55.26 468,-36.01 598,-36.01 598,-55.26"/>
<text xml:space="preserve" text-anchor="middle" x="533" y="-41.76" font-family="Source Sans Pro" font-size="10.00">cu_gf_deep::get_cloud_bc</text>
</a>
</g>
</g>
<!-- Node2 -->
<g id="Node000002" class="node">
<title>Node2</title>
<g id="a_Node000002"><a xlink:href="group__cu__gf__deep__group_ga6fb15c7cf491936bd0b501eb4a7c3147.html#ga6fb15c7cf491936bd0b501eb4a7c3147" target="_top" xlink:title="Driver for the deep or congestus GF routine.">
<polygon fill="white" stroke="#666666" points="276.5,-74.26 135.25,-74.26 135.25,-55.01 276.5,-55.01 276.5,-74.26"/>
<text xml:space="preserve" text-anchor="middle" x="205.88" y="-60.76" font-family="Source Sans Pro" font-size="10.00">cu_gf_deep::cu_gf_deep_run</text>
</a>
</g>
</g>
<!-- Node1&#45;&gt;Node2 -->
<g id="edge1_Node000001_Node000002" class="edge">
<title>Node1&#45;&gt;Node2</title>
<g id="a_edge1_Node000001_Node000002"><a xlink:title=" ">
<path fill="none" stroke="#63b8ff" d="M506.19,-61.29C486.61,-72.2 458.62,-85.81 432,-91.64 363.36,-106.67 280.99,-87.61 237.41,-74.69"/>
<polygon fill="#63b8ff" stroke="#63b8ff" points="507.9,-64.34 514.82,-56.32 504.41,-58.27 507.9,-64.34"/>
</a>
</g>
</g>
<!-- Node4 -->
<g id="Node000004" class="node">
<title>Node4</title>
<g id="a_Node000004"><a xlink:href="group__cu__gf__sh__group_gac3f853aacccfdee63bf9a5e64611683f.html#gac3f853aacccfdee63bf9a5e64611683f" target="_top" xlink:title=" ">
<polygon fill="white" stroke="#666666" points="266,-34.26 145.75,-34.26 145.75,-15.01 266,-15.01 266,-34.26"/>
<text xml:space="preserve" text-anchor="middle" x="205.88" y="-20.76" font-family="Source Sans Pro" font-size="10.00">cu_gf_sh::cu_gf_sh_run</text>
</a>
</g>
</g>
<!-- Node1&#45;&gt;Node4 -->
<g id="edge3_Node000001_Node000004" class="edge">
<title>Node1&#45;&gt;Node4</title>
<g id="a_edge3_Node000001_Node000004"><a xlink:title=" ">
<path fill="none" stroke="#63b8ff" d="M502.8,-30.52C483.33,-21.31 456.83,-10.42 432,-5.64 368.26,6.64 292.84,-4.9 247.49,-14.59"/>
<polygon fill="#63b8ff" stroke="#63b8ff" points="501.24,-33.65 511.76,-34.89 504.31,-27.36 501.24,-33.65"/>
</a>
</g>
</g>
<!-- Node5 -->
<g id="Node000005" class="node">
<title>Node5</title>
<g id="a_Node000005"><a xlink:href="group__cu__gf__deep__group_ga0a1b26105b052b8c66d7eb99a64c032e.html#ga0a1b26105b052b8c66d7eb99a64c032e" target="_top" xlink:title="Calculates the level of convective cloud base.">
<polygon fill="white" stroke="#666666" points="432,-34.26 312.5,-34.26 312.5,-15.01 432,-15.01 432,-34.26"/>
<text xml:space="preserve" text-anchor="middle" x="372.25" y="-20.76" font-family="Source Sans Pro" font-size="10.00">cu_gf_deep::cup_kbcon</text>
</a>
</g>
</g>
<!-- Node1&#45;&gt;Node5 -->
<g id="edge5_Node000001_Node000005" class="edge">
<title>Node1&#45;&gt;Node5</title>
<g id="a_edge5_Node000001_Node000005"><a xlink:title=" ">
<path fill="none" stroke="#63b8ff" d="M456.54,-35.65C448.46,-34.58 440.32,-33.51 432.47,-32.47"/>
<polygon fill="#63b8ff" stroke="#63b8ff" points="456.01,-39.11 466.39,-36.96 456.93,-32.18 456.01,-39.11"/>
</a>
</g>
</g>
<!-- Node6 -->
<g id="Node000006" class="node">
<title>Node6</title>
<g id="a_Node000006"><a xlink:href="group__cu__gf__deep__group_ga956dc9e34d290057e2cf6fb86ec7ea7b.html#ga956dc9e34d290057e2cf6fb86ec7ea7b" target="_top" xlink:title="Calculates moisture properties of the updraft.">
<polygon fill="white" stroke="#666666" points="424.12,-82.89 320.38,-82.89 320.38,-52.39 424.12,-52.39 424.12,-82.89"/>
<text xml:space="preserve" text-anchor="start" x="328.38" y="-69.39" font-family="Source Sans Pro" font-size="10.00">cu_gf_deep::cup_up</text>
<text xml:space="preserve" text-anchor="middle" x="372.25" y="-58.14" font-family="Source Sans Pro" font-size="10.00">_moisture</text>
</a>
</g>
</g>
<!-- Node1&#45;&gt;Node6 -->
<g id="edge8_Node000001_Node000006" class="edge">
<title>Node1&#45;&gt;Node6</title>
<g id="a_edge8_Node000001_Node000006"><a xlink:title=" ">
<path fill="none" stroke="#63b8ff" d="M456.6,-56.09C445.7,-57.6 434.7,-59.12 424.43,-60.54"/>
<polygon fill="#63b8ff" stroke="#63b8ff" points="456.96,-59.57 466.39,-54.73 456,-52.63 456.96,-59.57"/>
</a>
</g>
</g>
<!-- Node3 -->
<g id="Node000003" class="node">
<title>Node3</title>
<g id="a_Node000003"><a xlink:href="group__cu__gf__group_ga5d2242a3e3ed78e40c6b81ee2538801b.html#ga5d2242a3e3ed78e40c6b81ee2538801b" target="_top" xlink:title="This is the Grell&#45;Freitas convection scheme driver module.">
<polygon fill="white" stroke="#666666" points="99.25,-57.89 0,-57.89 0,-27.39 99.25,-27.39 99.25,-57.89"/>
<text xml:space="preserve" text-anchor="start" x="8" y="-44.39" font-family="Source Sans Pro" font-size="10.00">cu_gf_driver::cu_gf</text>
<text xml:space="preserve" text-anchor="middle" x="49.62" y="-33.14" font-family="Source Sans Pro" font-size="10.00">_driver_run</text>
</a>
</g>
</g>
<!-- Node2&#45;&gt;Node3 -->
<g id="edge2_Node000002_Node000003" class="edge">
<title>Node2&#45;&gt;Node3</title>
<g id="a_edge2_Node000002_Node000003"><a xlink:title=" ">
<path fill="none" stroke="#63b8ff" d="M123.73,-53.06C115.49,-51.89 107.3,-50.72 99.56,-49.62"/>
<polygon fill="#63b8ff" stroke="#63b8ff" points="123.08,-56.51 133.47,-54.45 124.07,-49.58 123.08,-56.51"/>
</a>
</g>
</g>
<!-- Node4&#45;&gt;Node3 -->
<g id="edge4_Node000004_Node000003" class="edge">
<title>Node4&#45;&gt;Node3</title>
<g id="a_edge4_Node000004_Node000003"><a xlink:title=" ">
<path fill="none" stroke="#63b8ff" d="M134.43,-32.86C122.59,-34.24 110.54,-35.64 99.4,-36.94"/>
<polygon fill="#63b8ff" stroke="#63b8ff" points="134.65,-36.35 144.18,-31.72 133.84,-29.4 134.65,-36.35"/>
</a>
</g>
</g>
<!-- Node5&#45;&gt;Node2 -->
<g id="edge6_Node000005_Node000002" class="edge">
<title>Node5&#45;&gt;Node2</title>
<g id="a_edge6_Node000005_Node000002"><a xlink:title=" ">
<path fill="none" stroke="#63b8ff" d="M318.59,-37.45C295.86,-42.98 269.66,-49.36 248.34,-54.55"/>
<polygon fill="#63b8ff" stroke="#63b8ff" points="319.41,-40.85 328.3,-35.09 317.76,-34.05 319.41,-40.85"/>
</a>
</g>
</g>
<!-- Node5&#45;&gt;Node4 -->
<g id="edge7_Node000005_Node000004" class="edge">
<title>Node5&#45;&gt;Node4</title>
<g id="a_edge7_Node000005_Node000004"><a xlink:title=" ">
<path fill="none" stroke="#63b8ff" d="M301,-24.64C289.49,-24.64 277.67,-24.64 266.45,-24.64"/>
<polygon fill="#63b8ff" stroke="#63b8ff" points="300.86,-28.14 310.86,-24.64 300.86,-21.14 300.86,-28.14"/>
</a>
</g>
</g>
<!-- Node6&#45;&gt;Node2 -->
<g id="edge9_Node000006_Node000002" class="edge">
<title>Node6&#45;&gt;Node2</title>
<g id="a_edge9_Node000006_Node000002"><a xlink:title=" ">
<path fill="none" stroke="#63b8ff" d="M308.67,-66.49C298.31,-66.3 287.5,-66.11 276.97,-65.92"/>
<polygon fill="#63b8ff" stroke="#63b8ff" points="308.57,-69.99 318.63,-66.68 308.69,-62.99 308.57,-69.99"/>
</a>
</g>
</g>
</g>
</svg>
