<?xml version="1.0" encoding="UTF-8" standalone="no"?>
<!DOCTYPE svg PUBLIC "-//W3C//DTD SVG 1.1//EN"
 "http://www.w3.org/Graphics/SVG/1.1/DTD/svg11.dtd">
<!-- Generated by graphviz version 14.1.2 (20260124.0452)
 -->
<!-- Title: thermoprop Pages: 1 -->
<svg width="153pt" height="64pt"
 viewBox="0.00 0.00 153.00 64.00" xmlns="http://www.w3.org/2000/svg" xmlns:xlink="http://www.w3.org/1999/xlink">
<g id="graph0" class="graph" transform="scale(1 1) rotate(0) translate(4 60.25)">
<title>thermoprop</title>
<!-- Node1 -->
<g id="Node000001" class="node">
<title>Node1</title>
<g id="a_Node000001"><a xlink:title=" ">
<polygon fill="#999999" stroke="#666666" points="64.75,-37.25 0,-37.25 0,-18 64.75,-18 64.75,-37.25"/>
<text xml:space="preserve" text-anchor="middle" x="32.38" y="-23.75" font-family="Source Sans Pro" font-size="10.00">thermoprop</text>
</a>
</g>
</g>
<!-- Node2 -->
<g id="Node000002" class="node">
<title>Node2</title>
<g id="a_Node000002"><a xlink:href="group___noah_m_p___l_s_m_gaa026774816274ad1b9a02c5d0826aaea.html#gaa026774816274ad1b9a02c5d0826aaea" target="_top" xlink:title="snow bulk density,volumetric capacity, and thermal conductivity">
<polygon fill="white" stroke="#666666" points="145.25,-56.25 100.75,-56.25 100.75,-37 145.25,-37 145.25,-56.25"/>
<text xml:space="preserve" text-anchor="middle" x="123" y="-42.75" font-family="Source Sans Pro" font-size="10.00">csnow</text>
</a>
</g>
</g>
<!-- Node1&#45;&gt;Node2 -->
<g id="edge1_Node000001_Node000002" class="edge">
<title>Node1&#45;&gt;Node2</title>
<g id="a_edge1_Node000001_Node000002"><a xlink:title=" ">
<path fill="none" stroke="#63b8ff" d="M64.87,-34.38C72.76,-36.07 81.24,-37.89 89.19,-39.59"/>
<polygon fill="#63b8ff" stroke="#63b8ff" points="88.34,-42.99 98.85,-41.66 89.81,-36.14 88.34,-42.99"/>
</a>
</g>
</g>
<!-- Node3 -->
<g id="Node000003" class="node">
<title>Node3</title>
<g id="a_Node000003"><a xlink:href="group___noah_m_p___l_s_m_ga97cc7d00fd0fbc9628decbee58dcd8a9.html#ga97cc7d00fd0fbc9628decbee58dcd8a9" target="_top" xlink:title="calculate thermal diffusivity and conductivity of the soil. peters&#45;lidard approach (peters&#45;lidard et ...">
<polygon fill="white" stroke="#666666" points="144.5,-19.25 101.5,-19.25 101.5,0 144.5,0 144.5,-19.25"/>
<text xml:space="preserve" text-anchor="middle" x="123" y="-5.75" font-family="Source Sans Pro" font-size="10.00">tdfcnd</text>
</a>
</g>
</g>
<!-- Node1&#45;&gt;Node3 -->
<g id="edge2_Node000001_Node000003" class="edge">
<title>Node1&#45;&gt;Node3</title>
<g id="a_edge2_Node000001_Node000003"><a xlink:title=" ">
<path fill="none" stroke="#63b8ff" d="M64.87,-21.23C73.05,-19.57 81.88,-17.77 90.08,-16.11"/>
<polygon fill="#63b8ff" stroke="#63b8ff" points="90.55,-19.58 99.66,-14.16 89.16,-12.72 90.55,-19.58"/>
</a>
</g>
</g>
</g>
</svg>
