<?xml version="1.0" encoding="UTF-8" standalone="no"?>
<!DOCTYPE svg PUBLIC "-//W3C//DTD SVG 1.1//EN"
 "http://www.w3.org/Graphics/SVG/1.1/DTD/svg11.dtd">
<!-- Generated by graphviz version 14.1.2 (20260124.0452)
 -->
<!-- Title: module_mp_nssl_2mom::gamma_sp Pages: 1 -->
<!--zoomable 208 -->

<svg id="main" version="1.1" xmlns="http://www.w3.org/2000/svg" xmlns:xlink="http://www.w3.org/1999/xlink" xml:space="preserve" onload="init(evt)">

<style type="text/css"><![CDATA[
.node, .edge {opacity: 0.7;}
.node.selected, .edge.selected {opacity: 1;}
.edge:hover path { stroke: red; }
.edge:hover polygon { stroke: red; fill: red; }
]]></style>

<defs>
  <circle id="rim" cx="0" cy="0" r="7"/>
  <circle id="rim2" cx="0" cy="0" r="3.5"/>
  <g id="zoomPlus">
    <use xlink:href="#rim" fill="#404040"><set attributeName="fill" to="#808080" begin="zoomplus.mouseover" end="zoomplus.mouseout"/></use>
    <path d="M-4,0h8M0,-4v8" fill="none" stroke="white" stroke-width="1.5" pointer-events="none"/>
  </g>
  <g id="zoomMin">
    <use xlink:href="#rim" fill="#404040"><set attributeName="fill" to="#808080" begin="zoomminus.mouseover" end="zoomminus.mouseout"/></use>
    <path d="M-4,0h8" fill="none" stroke="white" stroke-width="1.5" pointer-events="none"/>
  </g>
  <g id="arrowUp" transform="translate(30 24)">
    <use xlink:href="#rim"/>
    <path pointer-events="none" fill="none" stroke="white" stroke-width="1.5" d="M0,-3.0v7 M-2.5,-0.5L0,-3.0L2.5,-0.5"/>
  </g>
  <g id="arrowRight" transform="rotate(90) translate(36 -43)">
    <use xlink:href="#rim"/>
    <path pointer-events="none" fill="none" stroke="white" stroke-width="1.5" d="M0,-3.0v7 M-2.5,-0.5L0,-3.0L2.5,-0.5"/>
  </g>
  <g id="arrowDown" transform="rotate(180) translate(-30 -48)">
    <use xlink:href="#rim"/>
    <path pointer-events="none" fill="none" stroke="white" stroke-width="1.5" d="M0,-3.0v7 M-2.5,-0.5L0,-3.0L2.5,-0.5"/>
  </g>
  <g id="arrowLeft" transform="rotate(270) translate(-36 17)">
    <use xlink:href="#rim"/>
    <path pointer-events="none" fill="none" stroke="white" stroke-width="1.5" d="M0,-3.0v7 M-2.5,-0.5L0,-3.0L2.5,-0.5"/>
  </g>
  <g id="resetDef">
    <use xlink:href="#rim2" fill="#404040"><set attributeName="fill" to="#808080" begin="reset.mouseover" end="reset.mouseout"/></use>
  </g>
</defs>
<script type="application/ecmascript">
var viewWidth = 911;
var viewHeight = 208;
var sectionId = 'dynsection-1';
</script>
<script type="application/ecmascript" xlink:href="svg.min.js"/>
<svg id="graph" class="graph">
<g id="viewport">
<title>module_mp_nssl_2mom::gamma_sp</title>
<!-- Node1 -->
<g id="Node000001" class="node">
<title>Node1</title>
<g id="a_Node000001"><a xlink:title="Single&#45;precision complete gamma function.">
<polygon fill="#999999" stroke="#666666" points="903,-128.5 781.25,-128.5 781.25,-98 903,-98 903,-128.5"/>
<text xml:space="preserve" text-anchor="start" x="789.25" y="-115" font-family="Source Sans Pro" font-size="10.00">module_mp_nssl_2mom</text>
<text xml:space="preserve" text-anchor="middle" x="842.12" y="-103.75" font-family="Source Sans Pro" font-size="10.00">::gamma_sp</text>
</a>
</g>
</g>
<!-- Node1&#45;&gt;Node1 -->
<g id="edge4_Node000001_Node000001" class="edge">
<title>Node1&#45;&gt;Node1</title>
<g id="a_edge4_Node000001_Node000001"><a xlink:title=" ">
<path fill="none" stroke="#63b8ff" d="M868.58,-140.2C864.25,-143.97 855.44,-146.5 842.12,-146.5 817.78,-146.5 808.47,-138.06 814.17,-128.99"/>
<polygon fill="#63b8ff" stroke="#63b8ff" points="872.02,-140.86 869.88,-130.49 865.08,-139.93 872.02,-140.86"/>
</a>
</g>
</g>
<!-- Node2 -->
<g id="Node000002" class="node">
<title>Node2</title>
<g id="a_Node000002"><a xlink:href="group__mod__nsslmp_gadf6ddb9b5fc84c24f63ed57e17c2ca0d.html#gadf6ddb9b5fc84c24f63ed57e17c2ca0d" target="_top" xlink:title="Subroutine to calculate effective radii for use by radiation routines.">
<polygon fill="white" stroke="#666666" points="429.75,-199.5 308,-199.5 308,-169 429.75,-169 429.75,-199.5"/>
<text xml:space="preserve" text-anchor="start" x="316" y="-186" font-family="Source Sans Pro" font-size="10.00">module_mp_nssl_2mom</text>
<text xml:space="preserve" text-anchor="middle" x="368.88" y="-174.75" font-family="Source Sans Pro" font-size="10.00">::calc_eff_radius</text>
</a>
</g>
</g>
<!-- Node1&#45;&gt;Node2 -->
<g id="edge1_Node000001_Node000002" class="edge">
<title>Node1&#45;&gt;Node2</title>
<g id="a_edge1_Node000001_Node000002"><a xlink:title=" ">
<path fill="none" stroke="#63b8ff" d="M813.93,-135.78C795.72,-149.41 770.53,-165.59 745.25,-173.25 637.93,-205.77 505.37,-199.56 429.93,-191.98"/>
<polygon fill="#63b8ff" stroke="#63b8ff" points="815.81,-138.75 821.59,-129.87 811.53,-133.21 815.81,-138.75"/>
</a>
</g>
</g>
<!-- Node5 -->
<g id="Node000005" class="node">
<title>Node5</title>
<g id="a_Node000005"><a xlink:href="group__mod__nsslmp_gafc90cf2417f6132ce54c2cf378dd2098.html#gafc90cf2417f6132ce54c2cf378dd2098" target="_top" xlink:title="single&#45;precision incomplete gamma function (single precision args)">
<polygon fill="white" stroke="#666666" points="745.25,-128.5 623.5,-128.5 623.5,-98 745.25,-98 745.25,-128.5"/>
<text xml:space="preserve" text-anchor="start" x="631.5" y="-115" font-family="Source Sans Pro" font-size="10.00">module_mp_nssl_2mom</text>
<text xml:space="preserve" text-anchor="middle" x="684.38" y="-103.75" font-family="Source Sans Pro" font-size="10.00">::gamxinf</text>
</a>
</g>
</g>
<!-- Node1&#45;&gt;Node5 -->
<g id="edge5_Node000001_Node000005" class="edge">
<title>Node1&#45;&gt;Node5</title>
<g id="a_edge5_Node000001_Node000005"><a xlink:title=" ">
<path fill="none" stroke="#63b8ff" d="M769.67,-113.25C761.65,-113.25 753.55,-113.25 745.69,-113.25"/>
<polygon fill="#63b8ff" stroke="#63b8ff" points="769.39,-116.75 779.39,-113.25 769.39,-109.75 769.39,-116.75"/>
</a>
</g>
</g>
<!-- Node6 -->
<g id="Node000006" class="node">
<title>Node6</title>
<g id="a_Node000006"><a xlink:href="group__mod__nsslmp_ga5c0f9300bf6b78c4b9d5390e53e45b67.html#ga5c0f9300bf6b78c4b9d5390e53e45b67" target="_top" xlink:title="Main microphysical processes routine.">
<polygon fill="white" stroke="#666666" points="587.5,-128.5 465.75,-128.5 465.75,-98 587.5,-98 587.5,-128.5"/>
<text xml:space="preserve" text-anchor="start" x="473.75" y="-115" font-family="Source Sans Pro" font-size="10.00">module_mp_nssl_2mom</text>
<text xml:space="preserve" text-anchor="middle" x="526.62" y="-103.75" font-family="Source Sans Pro" font-size="10.00">::nssl_2mom_gs</text>
</a>
</g>
</g>
<!-- Node1&#45;&gt;Node6 -->
<g id="edge9_Node000001_Node000006" class="edge">
<title>Node1&#45;&gt;Node6</title>
<g id="a_edge9_Node000001_Node000006"><a xlink:title=" ">
<path fill="none" stroke="#63b8ff" d="M803.44,-134.07C786.24,-142.42 765.28,-151.05 745.25,-155.25 692.29,-166.34 676.46,-166.34 623.5,-155.25 599.31,-150.18 573.76,-138.65 555.13,-128.94"/>
<polygon fill="#63b8ff" stroke="#63b8ff" points="804.91,-137.25 812.27,-129.62 801.76,-130.99 804.91,-137.25"/>
</a>
</g>
</g>
<!-- Node7 -->
<g id="Node000007" class="node">
<title>Node7</title>
<g id="a_Node000007"><a xlink:href="group__mod__nsslmp_gaa9669dfecb88fa29ceefb152f3a24b9e.html#gaa9669dfecb88fa29ceefb152f3a24b9e" target="_top" xlink:title="NSSL MP setup routine (sets local options and array indices).">
<polygon fill="white" stroke="#666666" points="745.25,-30.5 623.5,-30.5 623.5,0 745.25,0 745.25,-30.5"/>
<text xml:space="preserve" text-anchor="start" x="631.5" y="-17" font-family="Source Sans Pro" font-size="10.00">module_mp_nssl_2mom</text>
<text xml:space="preserve" text-anchor="middle" x="684.38" y="-5.75" font-family="Source Sans Pro" font-size="10.00">::nssl_2mom_init</text>
</a>
</g>
</g>
<!-- Node1&#45;&gt;Node7 -->
<g id="edge10_Node000001_Node000007" class="edge">
<title>Node1&#45;&gt;Node7</title>
<g id="a_edge10_Node000001_Node000007"><a xlink:title=" ">
<path fill="none" stroke="#63b8ff" d="M814.63,-90.12C796.06,-74.68 770.21,-54.65 745.25,-40.25 739.49,-36.93 733.21,-33.81 726.95,-30.98"/>
<polygon fill="#63b8ff" stroke="#63b8ff" points="812.31,-92.75 822.21,-96.53 816.83,-87.4 812.31,-92.75"/>
</a>
</g>
</g>
<!-- Node9 -->
<g id="Node000009" class="node">
<title>Node9</title>
<g id="a_Node000009"><a xlink:href="group__mod__nsslmp_ga9df936b176c8bb5adfa0a7fee691e57c.html#ga9df936b176c8bb5adfa0a7fee691e57c" target="_top" xlink:title="Mean hydrometeor size and fall speed calculations.">
<polygon fill="white" stroke="#666666" points="745.25,-79.5 623.5,-79.5 623.5,-49 745.25,-49 745.25,-79.5"/>
<text xml:space="preserve" text-anchor="start" x="631.5" y="-66" font-family="Source Sans Pro" font-size="10.00">module_mp_nssl_2mom</text>
<text xml:space="preserve" text-anchor="middle" x="684.38" y="-54.75" font-family="Source Sans Pro" font-size="10.00">::setvtz</text>
</a>
</g>
</g>
<!-- Node1&#45;&gt;Node9 -->
<g id="edge12_Node000001_Node000009" class="edge">
<title>Node1&#45;&gt;Node9</title>
<g id="a_edge12_Node000001_Node000009"><a xlink:title=" ">
<path fill="none" stroke="#63b8ff" d="M780.7,-94.24C765.72,-89.53 749.83,-84.53 735.41,-79.99"/>
<polygon fill="#63b8ff" stroke="#63b8ff" points="779.38,-97.49 789.97,-97.16 781.48,-90.82 779.38,-97.49"/>
</a>
</g>
</g>
<!-- Node3 -->
<g id="Node000003" class="node">
<title>Node3</title>
<g id="a_Node000003"><a xlink:href="group__mod__nsslmp_gaf719f942556bb1676739cbdff304e714.html#gaf719f942556bb1676739cbdff304e714" target="_top" xlink:title="Driver subroutine that copies state data to local 2D arrays for microphysics calls.">
<polygon fill="white" stroke="#666666" points="272,-128.5 150.25,-128.5 150.25,-98 272,-98 272,-128.5"/>
<text xml:space="preserve" text-anchor="start" x="158.25" y="-115" font-family="Source Sans Pro" font-size="10.00">module_mp_nssl_2mom</text>
<text xml:space="preserve" text-anchor="middle" x="211.12" y="-103.75" font-family="Source Sans Pro" font-size="10.00">::nssl_2mom_driver</text>
</a>
</g>
</g>
<!-- Node2&#45;&gt;Node3 -->
<g id="edge2_Node000002_Node000003" class="edge">
<title>Node2&#45;&gt;Node3</title>
<g id="a_edge2_Node000002_Node000003"><a xlink:title=" ">
<path fill="none" stroke="#63b8ff" d="M323.25,-163.91C298.85,-152.78 269.08,-139.21 246.49,-128.92"/>
<polygon fill="#63b8ff" stroke="#63b8ff" points="321.77,-167.08 332.32,-168.04 324.67,-160.71 321.77,-167.08"/>
</a>
</g>
</g>
<!-- Node4 -->
<g id="Node000004" class="node">
<title>Node4</title>
<g id="a_Node000004"><a xlink:href="group__nsslmp_gab213e8268947d3497e02437e7634b614.html#gab213e8268947d3497e02437e7634b614" target="_top" xlink:title=" ">
<polygon fill="white" stroke="#666666" points="114.25,-122.88 0,-122.88 0,-103.62 114.25,-103.62 114.25,-122.88"/>
<text xml:space="preserve" text-anchor="middle" x="57.13" y="-109.38" font-family="Source Sans Pro" font-size="10.00">mp_nssl::mp_nssl_run</text>
</a>
</g>
</g>
<!-- Node3&#45;&gt;Node4 -->
<g id="edge3_Node000003_Node000004" class="edge">
<title>Node3&#45;&gt;Node4</title>
<g id="a_edge3_Node000003_Node000004"><a xlink:title=" ">
<path fill="none" stroke="#63b8ff" d="M138.6,-113.25C130.44,-113.25 122.22,-113.25 114.3,-113.25"/>
<polygon fill="#63b8ff" stroke="#63b8ff" points="138.54,-116.75 148.54,-113.25 138.54,-109.75 138.54,-116.75"/>
</a>
</g>
</g>
<!-- Node5&#45;&gt;Node5 -->
<g id="edge6_Node000005_Node000005" class="edge">
<title>Node5&#45;&gt;Node5</title>
<g id="a_edge6_Node000005_Node000005"><a xlink:title=" ">
<path fill="none" stroke="#63b8ff" d="M710.83,-140.2C706.5,-143.97 697.69,-146.5 684.38,-146.5 660.03,-146.5 650.72,-138.06 656.42,-128.99"/>
<polygon fill="#63b8ff" stroke="#63b8ff" points="714.27,-140.86 712.13,-130.49 707.33,-139.93 714.27,-140.86"/>
</a>
</g>
</g>
<!-- Node5&#45;&gt;Node6 -->
<g id="edge7_Node000005_Node000006" class="edge">
<title>Node5&#45;&gt;Node6</title>
<g id="a_edge7_Node000005_Node000006"><a xlink:title=" ">
<path fill="none" stroke="#63b8ff" d="M611.92,-113.25C603.9,-113.25 595.8,-113.25 587.94,-113.25"/>
<polygon fill="#63b8ff" stroke="#63b8ff" points="611.64,-116.75 621.64,-113.25 611.64,-109.75 611.64,-116.75"/>
</a>
</g>
</g>
<!-- Node6&#45;&gt;Node3 -->
<g id="edge8_Node000006_Node000003" class="edge">
<title>Node6&#45;&gt;Node3</title>
<g id="a_edge8_Node000006_Node000003"><a xlink:title=" ">
<path fill="none" stroke="#63b8ff" d="M454.15,-113.25C399.2,-113.25 324.15,-113.25 272.26,-113.25"/>
<polygon fill="#63b8ff" stroke="#63b8ff" points="454.04,-116.75 464.04,-113.25 454.04,-109.75 454.04,-116.75"/>
</a>
</g>
</g>
<!-- Node8 -->
<g id="Node000008" class="node">
<title>Node8</title>
<g id="a_Node000008"><a xlink:href="group__nsslmp_ga5b91dc9cad0a4fb77651aeeaacc40854.html#ga5b91dc9cad0a4fb77651aeeaacc40854" target="_top" xlink:title="This subroutine is a wrapper around the nssl_2mom_init().">
<polygon fill="white" stroke="#666666" points="583.38,-24.88 469.88,-24.88 469.88,-5.63 583.38,-5.63 583.38,-24.88"/>
<text xml:space="preserve" text-anchor="middle" x="526.62" y="-11.38" font-family="Source Sans Pro" font-size="10.00">mp_nssl::mp_nssl_init</text>
</a>
</g>
</g>
<!-- Node7&#45;&gt;Node8 -->
<g id="edge11_Node000007_Node000008" class="edge">
<title>Node7&#45;&gt;Node8</title>
<g id="a_edge11_Node000007_Node000008"><a xlink:title=" ">
<path fill="none" stroke="#63b8ff" d="M611.81,-15.25C602.43,-15.25 592.93,-15.25 583.85,-15.25"/>
<polygon fill="#63b8ff" stroke="#63b8ff" points="611.64,-18.75 621.64,-15.25 611.64,-11.75 611.64,-18.75"/>
</a>
</g>
</g>
<!-- Node9&#45;&gt;Node6 -->
<g id="edge13_Node000009_Node000006" class="edge">
<title>Node9&#45;&gt;Node6</title>
<g id="a_edge13_Node000009_Node000006"><a xlink:title=" ">
<path fill="none" stroke="#63b8ff" d="M622.95,-83.26C607.97,-87.97 592.08,-92.97 577.66,-97.51"/>
<polygon fill="#63b8ff" stroke="#63b8ff" points="623.73,-86.68 632.22,-80.34 621.63,-80.01 623.73,-86.68"/>
</a>
</g>
</g>
<!-- Node10 -->
<g id="Node000010" class="node">
<title>Node10</title>
<g id="a_Node000010"><a xlink:href="group__mod__nsslmp_ga4ea70fd73f9b7e8dd2472e073f46ca5c.html#ga4ea70fd73f9b7e8dd2472e073f46ca5c" target="_top" xlink:title="Column&#45;wise front end to setvtz for sedimentation.">
<polygon fill="white" stroke="#666666" points="587.5,-79.5 465.75,-79.5 465.75,-49 587.5,-49 587.5,-79.5"/>
<text xml:space="preserve" text-anchor="start" x="473.75" y="-66" font-family="Source Sans Pro" font-size="10.00">module_mp_nssl_2mom</text>
<text xml:space="preserve" text-anchor="middle" x="526.62" y="-54.75" font-family="Source Sans Pro" font-size="10.00">::ziegfall1d</text>
</a>
</g>
</g>
<!-- Node9&#45;&gt;Node10 -->
<g id="edge14_Node000009_Node000010" class="edge">
<title>Node9&#45;&gt;Node10</title>
<g id="a_edge14_Node000009_Node000010"><a xlink:title=" ">
<path fill="none" stroke="#63b8ff" d="M611.92,-64.25C603.9,-64.25 595.8,-64.25 587.94,-64.25"/>
<polygon fill="#63b8ff" stroke="#63b8ff" points="611.64,-67.75 621.64,-64.25 611.64,-60.75 611.64,-67.75"/>
</a>
</g>
</g>
<!-- Node11 -->
<g id="Node000011" class="node">
<title>Node11</title>
<g id="a_Node000011"><a xlink:href="group__mod__nsslmp_gaa88ef817bac1d81c748fd32c9b9be6ea.html#gaa88ef817bac1d81c748fd32c9b9be6ea" target="_top" xlink:title="Sedimentation driver subroutine. Calls fallout column by column.">
<polygon fill="white" stroke="#666666" points="429.75,-82.5 308,-82.5 308,-52 429.75,-52 429.75,-82.5"/>
<text xml:space="preserve" text-anchor="start" x="316" y="-69" font-family="Source Sans Pro" font-size="10.00">module_mp_nssl_2mom</text>
<text xml:space="preserve" text-anchor="middle" x="368.88" y="-57.75" font-family="Source Sans Pro" font-size="10.00">::sediment1d</text>
</a>
</g>
</g>
<!-- Node10&#45;&gt;Node11 -->
<g id="edge15_Node000010_Node000011" class="edge">
<title>Node10&#45;&gt;Node11</title>
<g id="a_edge15_Node000010_Node000011"><a xlink:title=" ">
<path fill="none" stroke="#63b8ff" d="M454.17,-65.63C446.15,-65.78 438.05,-65.94 430.19,-66.09"/>
<polygon fill="#63b8ff" stroke="#63b8ff" points="453.96,-69.13 463.89,-65.44 453.83,-62.13 453.96,-69.13"/>
</a>
</g>
</g>
<!-- Node11&#45;&gt;Node3 -->
<g id="edge16_Node000011_Node000003" class="edge">
<title>Node11&#45;&gt;Node3</title>
<g id="a_edge16_Node000011_Node000003"><a xlink:title=" ">
<path fill="none" stroke="#63b8ff" d="M304.05,-86.1C291.18,-89.9 277.78,-93.86 265.31,-97.54"/>
<polygon fill="#63b8ff" stroke="#63b8ff" points="304.66,-89.57 313.26,-83.38 302.68,-82.86 304.66,-89.57"/>
</a>
</g>
</g>
</g>
</svg>

<g id="navigator" transform="translate(0 0)" fill="#404254">
  <rect fill="#f2f5e9" fill-opacity="0.5" stroke="#606060" stroke-width=".5" x="0" y="0" width="60" height="60"/>
  <use id="zoomplus" xlink:href="#zoomPlus" x="17" y="9" onmousedown="handleZoom(evt,'in')"/>
  <use id="zoomminus" xlink:href="#zoomMin" x="42" y="9" onmousedown="handleZoom(evt,'out')"/>
  <use id="reset" xlink:href="#resetDef" x="30" y="36" onmousedown="handleReset()"/>
   <use id="arrowup" xlink:href="#arrowUp" x="0" y="0" onmousedown="handlePan(0,-1)"/>
  <use id="arrowright" xlink:href="#arrowRight" x="0" y="0" onmousedown="handlePan(1,0)"/>
  <use id="arrowdown" xlink:href="#arrowDown" x="0" y="0" onmousedown="handlePan(0,1)"/>
  <use id="arrowleft" xlink:href="#arrowLeft" x="0" y="0" onmousedown="handlePan(-1,0)"/>
</g>
<svg viewBox="0 0 15 15" width="100%" height="30px" preserveAspectRatio="xMaxYMin meet">
 <g id="arrow_out" transform="scale(0.3 0.3)">
  <a xlink:href="group__mod__nsslmp_ga966c94b788d8e8958fff525003f48fd9_ga966c94b788d8e8958fff525003f48fd9_icgraph_org.svg" target="_base">
   <rect id="button" ry="5" rx="5" y="6" x="6" height="38" width="38"
        fill="#f2f5e9" fill-opacity="0.5" stroke="#606060" stroke-width="1.0"/>
   <path id="arrow"
     d="M 11.500037,31.436501 C 11.940474,20.09759 22.043105,11.32322 32.158766,21.979434 L 37.068811,17.246167 C 37.068811,17.246167 37.088388,32 37.088388,32 L 22.160133,31.978069 C 22.160133,31.978069 26.997745,27.140456 26.997745,27.140456 C 18.528582,18.264221 13.291696,25.230495 11.500037,31.436501 z"
     style="fill:#404040;"/>
  </a>
 </g>
</svg>

<style type='text/css'>
<![CDATA[
[data-mouse-over-selected='false'] { opacity: 0.7; }
[data-mouse-over-selected='true']  { opacity: 1.0; }
]]>
</style>
<script type="application/ecmascript"><![CDATA[
document.addEventListener('DOMContentLoaded', (event) => {
  highlightEdges();
  highlightAdjacentNodes();
});
]]></script>
</svg>
