<?xml version="1.0" encoding="UTF-8" standalone="no"?>
<!DOCTYPE svg PUBLIC "-//W3C//DTD SVG 1.1//EN"
 "http://www.w3.org/Graphics/SVG/1.1/DTD/svg11.dtd">
<!-- Generated by graphviz version 14.1.2 (20260124.0452)
 -->
<!-- Title: module_mp_nssl_2mom::nssl_2mom_driver Pages: 1 -->
<!--zoomable 682 -->

<svg id="main" version="1.1" xmlns="http://www.w3.org/2000/svg" xmlns:xlink="http://www.w3.org/1999/xlink" xml:space="preserve" onload="init(evt)">

<style type="text/css"><![CDATA[
.node, .edge {opacity: 0.7;}
.node.selected, .edge.selected {opacity: 1;}
.edge:hover path { stroke: red; }
.edge:hover polygon { stroke: red; fill: red; }
]]></style>

<defs>
  <circle id="rim" cx="0" cy="0" r="7"/>
  <circle id="rim2" cx="0" cy="0" r="3.5"/>
  <g id="zoomPlus">
    <use xlink:href="#rim" fill="#404040"><set attributeName="fill" to="#808080" begin="zoomplus.mouseover" end="zoomplus.mouseout"/></use>
    <path d="M-4,0h8M0,-4v8" fill="none" stroke="white" stroke-width="1.5" pointer-events="none"/>
  </g>
  <g id="zoomMin">
    <use xlink:href="#rim" fill="#404040"><set attributeName="fill" to="#808080" begin="zoomminus.mouseover" end="zoomminus.mouseout"/></use>
    <path d="M-4,0h8" fill="none" stroke="white" stroke-width="1.5" pointer-events="none"/>
  </g>
  <g id="arrowUp" transform="translate(30 24)">
    <use xlink:href="#rim"/>
    <path pointer-events="none" fill="none" stroke="white" stroke-width="1.5" d="M0,-3.0v7 M-2.5,-0.5L0,-3.0L2.5,-0.5"/>
  </g>
  <g id="arrowRight" transform="rotate(90) translate(36 -43)">
    <use xlink:href="#rim"/>
    <path pointer-events="none" fill="none" stroke="white" stroke-width="1.5" d="M0,-3.0v7 M-2.5,-0.5L0,-3.0L2.5,-0.5"/>
  </g>
  <g id="arrowDown" transform="rotate(180) translate(-30 -48)">
    <use xlink:href="#rim"/>
    <path pointer-events="none" fill="none" stroke="white" stroke-width="1.5" d="M0,-3.0v7 M-2.5,-0.5L0,-3.0L2.5,-0.5"/>
  </g>
  <g id="arrowLeft" transform="rotate(270) translate(-36 17)">
    <use xlink:href="#rim"/>
    <path pointer-events="none" fill="none" stroke="white" stroke-width="1.5" d="M0,-3.0v7 M-2.5,-0.5L0,-3.0L2.5,-0.5"/>
  </g>
  <g id="resetDef">
    <use xlink:href="#rim2" fill="#404040"><set attributeName="fill" to="#808080" begin="reset.mouseover" end="reset.mouseout"/></use>
  </g>
</defs>
<script type="application/ecmascript">
var viewWidth = 761;
var viewHeight = 682;
var sectionId = 'dynsection-0';
</script>
<script type="application/ecmascript" xlink:href="svg.min.js"/>
<svg id="graph" class="graph">
<g id="viewport">
<title>module_mp_nssl_2mom::nssl_2mom_driver</title>
<!-- Node1 -->
<g id="Node000001" class="node">
<title>Node1</title>
<g id="a_Node000001"><a xlink:title="Driver subroutine that copies state data to local 2D arrays for microphysics calls.">
<polygon fill="#999999" stroke="#666666" points="121.75,-522.5 0,-522.5 0,-492 121.75,-492 121.75,-522.5"/>
<text xml:space="preserve" text-anchor="start" x="8" y="-509" font-family="Source Sans Pro" font-size="10.00">module_mp_nssl_2mom</text>
<text xml:space="preserve" text-anchor="middle" x="60.88" y="-497.75" font-family="Source Sans Pro" font-size="10.00">::nssl_2mom_driver</text>
</a>
</g>
</g>
<!-- Node2 -->
<g id="Node000002" class="node">
<title>Node2</title>
<g id="a_Node000002"><a xlink:href="group__mod__nsslmp_gadf6ddb9b5fc84c24f63ed57e17c2ca0d.html#gadf6ddb9b5fc84c24f63ed57e17c2ca0d" target="_top" xlink:title="Subroutine to calculate effective radii for use by radiation routines.">
<polygon fill="white" stroke="#666666" points="437.25,-666.5 315.5,-666.5 315.5,-636 437.25,-636 437.25,-666.5"/>
<text xml:space="preserve" text-anchor="start" x="323.5" y="-653" font-family="Source Sans Pro" font-size="10.00">module_mp_nssl_2mom</text>
<text xml:space="preserve" text-anchor="middle" x="376.38" y="-641.75" font-family="Source Sans Pro" font-size="10.00">::calc_eff_radius</text>
</a>
</g>
</g>
<!-- Node1&#45;&gt;Node2 -->
<g id="edge1_Node000001_Node000002" class="edge">
<title>Node1&#45;&gt;Node2</title>
<g id="a_edge1_Node000001_Node000002"><a xlink:title=" ">
<path fill="none" stroke="#63b8ff" d="M66.4,-522.52C76.65,-554.02 104.97,-625.66 157.75,-654.25 202.47,-678.47 260.32,-676.4 305.14,-668.98"/>
<polygon fill="#63b8ff" stroke="#63b8ff" points="305.52,-672.47 314.74,-667.26 304.28,-665.58 305.52,-672.47"/>
</a>
</g>
</g>
<!-- Node4 -->
<g id="Node000004" class="node">
<title>Node4</title>
<g id="a_Node000004"><a xlink:href="group__mod__nsslmp_ga0fea874028a2389ed8ccb75e4824077a.html#ga0fea874028a2389ed8ccb75e4824077a" target="_top" xlink:title="Subroutine to calculate number concentrations from convection parameterization rates that have only m...">
<polygon fill="white" stroke="#666666" points="279.5,-645.5 157.75,-645.5 157.75,-615 279.5,-615 279.5,-645.5"/>
<text xml:space="preserve" text-anchor="start" x="165.75" y="-632" font-family="Source Sans Pro" font-size="10.00">module_mp_nssl_2mom</text>
<text xml:space="preserve" text-anchor="middle" x="218.62" y="-620.75" font-family="Source Sans Pro" font-size="10.00">::calcnfromcuten</text>
</a>
</g>
</g>
<!-- Node1&#45;&gt;Node4 -->
<g id="edge4_Node000001_Node000004" class="edge">
<title>Node1&#45;&gt;Node4</title>
<g id="a_edge4_Node000001_Node000004"><a xlink:title=" ">
<path fill="none" stroke="#63b8ff" d="M73.67,-522.73C90.4,-543.81 122.88,-581.6 157.75,-605.25 159.83,-606.66 162.01,-608.02 164.24,-609.32"/>
<polygon fill="#63b8ff" stroke="#63b8ff" points="162.52,-612.37 173,-613.94 165.79,-606.18 162.52,-612.37"/>
</a>
</g>
</g>
<!-- Node5 -->
<g id="Node000005" class="node">
<title>Node5</title>
<g id="a_Node000005"><a xlink:href="group__mod__nsslmp_ga58002862f8b4adfd1329ee40abd421ba.html#ga58002862f8b4adfd1329ee40abd421ba" target="_top" xlink:title="Subroutine to calculate number concentrations from initial state that has only mixing ratio.">
<polygon fill="white" stroke="#666666" points="279.5,-596.5 157.75,-596.5 157.75,-566 279.5,-566 279.5,-596.5"/>
<text xml:space="preserve" text-anchor="start" x="165.75" y="-583" font-family="Source Sans Pro" font-size="10.00">module_mp_nssl_2mom</text>
<text xml:space="preserve" text-anchor="middle" x="218.62" y="-571.75" font-family="Source Sans Pro" font-size="10.00">::calcnfromq</text>
</a>
</g>
</g>
<!-- Node1&#45;&gt;Node5 -->
<g id="edge5_Node000001_Node000005" class="edge">
<title>Node1&#45;&gt;Node5</title>
<g id="a_edge5_Node000001_Node000005"><a xlink:title=" ">
<path fill="none" stroke="#63b8ff" d="M90.96,-522.85C109.82,-532.79 135.02,-545.72 157.75,-556.25 161.23,-557.86 164.84,-559.49 168.49,-561.09"/>
<polygon fill="#63b8ff" stroke="#63b8ff" points="166.83,-564.19 177.39,-564.94 169.6,-557.76 166.83,-564.19"/>
</a>
</g>
</g>
<!-- Node6 -->
<g id="Node000006" class="node">
<title>Node6</title>
<g id="a_Node000006"><a xlink:href="group__mod__nsslmp_ga8a2d9c6519ecf9858ad38a0c2f5844de.html#ga8a2d9c6519ecf9858ad38a0c2f5844de" target="_top" xlink:title="Hail max size subroutine.">
<polygon fill="white" stroke="#666666" points="279.5,-547.5 157.75,-547.5 157.75,-517 279.5,-517 279.5,-547.5"/>
<text xml:space="preserve" text-anchor="start" x="165.75" y="-534" font-family="Source Sans Pro" font-size="10.00">module_mp_nssl_2mom</text>
<text xml:space="preserve" text-anchor="middle" x="218.62" y="-522.75" font-family="Source Sans Pro" font-size="10.00">::hailmaxd</text>
</a>
</g>
</g>
<!-- Node1&#45;&gt;Node6 -->
<g id="edge6_Node000001_Node000006" class="edge">
<title>Node1&#45;&gt;Node6</title>
<g id="a_edge6_Node000001_Node000006"><a xlink:title=" ">
<path fill="none" stroke="#63b8ff" d="M122.09,-516.92C129.95,-518.18 138.05,-519.48 146.07,-520.76"/>
<polygon fill="#63b8ff" stroke="#63b8ff" points="145.39,-524.2 155.82,-522.33 146.5,-517.29 145.39,-524.2"/>
</a>
</g>
</g>
<!-- Node7 -->
<g id="Node000007" class="node">
<title>Node7</title>
<g id="a_Node000007"><a xlink:href="group__mod__nsslmp_ga5c0f9300bf6b78c4b9d5390e53e45b67.html#ga5c0f9300bf6b78c4b9d5390e53e45b67" target="_top" xlink:title="Main microphysical processes routine.">
<polygon fill="white" stroke="#666666" points="437.25,-351.5 315.5,-351.5 315.5,-321 437.25,-321 437.25,-351.5"/>
<text xml:space="preserve" text-anchor="start" x="323.5" y="-338" font-family="Source Sans Pro" font-size="10.00">module_mp_nssl_2mom</text>
<text xml:space="preserve" text-anchor="middle" x="376.38" y="-326.75" font-family="Source Sans Pro" font-size="10.00">::nssl_2mom_gs</text>
</a>
</g>
</g>
<!-- Node1&#45;&gt;Node7 -->
<g id="edge7_Node000001_Node000007" class="edge">
<title>Node1&#45;&gt;Node7</title>
<g id="a_edge7_Node000001_Node000007"><a xlink:title=" ">
<path fill="none" stroke="#63b8ff" d="M67.04,-491.61C78.13,-460.74 107.4,-392.26 157.75,-361.25 201.09,-334.55 258.6,-328.94 303.62,-329.66"/>
<polygon fill="#63b8ff" stroke="#63b8ff" points="303.47,-333.16 313.56,-329.94 303.66,-326.16 303.47,-333.16"/>
</a>
</g>
</g>
<!-- Node18 -->
<g id="Node000018" class="node">
<title>Node18</title>
<g id="a_Node000018"><a xlink:href="group__mod__nsslmp_ga54ee18da58b1936e2dc345bd29b80f12.html#ga54ee18da58b1936e2dc345bd29b80f12" target="_top" xlink:title="Droplet nucleation routine. Explicit condensation/evaporation. Tiny mixing ratio cleanup.">
<polygon fill="white" stroke="#666666" points="279.5,-498.5 157.75,-498.5 157.75,-468 279.5,-468 279.5,-498.5"/>
<text xml:space="preserve" text-anchor="start" x="165.75" y="-485" font-family="Source Sans Pro" font-size="10.00">module_mp_nssl_2mom</text>
<text xml:space="preserve" text-anchor="middle" x="218.62" y="-473.75" font-family="Source Sans Pro" font-size="10.00">::nucond</text>
</a>
</g>
</g>
<!-- Node1&#45;&gt;Node18 -->
<g id="edge30_Node000001_Node000018" class="edge">
<title>Node1&#45;&gt;Node18</title>
<g id="a_edge30_Node000001_Node000018"><a xlink:title=" ">
<path fill="none" stroke="#63b8ff" d="M122.09,-497.97C129.95,-496.76 138.05,-495.51 146.07,-494.28"/>
<polygon fill="#63b8ff" stroke="#63b8ff" points="146.47,-497.76 155.82,-492.77 145.4,-490.84 146.47,-497.76"/>
</a>
</g>
</g>
<!-- Node20 -->
<g id="Node000020" class="node">
<title>Node20</title>
<g id="a_Node000020"><a xlink:href="group__mod__nsslmp_ga028b696f0860f5c6e6d9d062f404faf0.html#ga028b696f0860f5c6e6d9d062f404faf0" target="_top" xlink:title="Radar reflectivity calculation. Assumes ideal Rayleigh scattering.">
<polygon fill="white" stroke="#666666" points="279.5,-400.5 157.75,-400.5 157.75,-370 279.5,-370 279.5,-400.5"/>
<text xml:space="preserve" text-anchor="start" x="165.75" y="-387" font-family="Source Sans Pro" font-size="10.00">module_mp_nssl_2mom</text>
<text xml:space="preserve" text-anchor="middle" x="218.62" y="-375.75" font-family="Source Sans Pro" font-size="10.00">::radardd02</text>
</a>
</g>
</g>
<!-- Node1&#45;&gt;Node20 -->
<g id="edge32_Node000001_Node000020" class="edge">
<title>Node1&#45;&gt;Node20</title>
<g id="a_edge32_Node000001_Node000020"><a xlink:title=" ">
<path fill="none" stroke="#63b8ff" d="M73.99,-491.58C90.84,-470.66 123.2,-433.55 157.75,-410.25 159.84,-408.84 162.02,-407.49 164.25,-406.19"/>
<polygon fill="#63b8ff" stroke="#63b8ff" points="165.8,-409.34 173.01,-401.58 162.53,-403.14 165.8,-409.34"/>
</a>
</g>
</g>
<!-- Node21 -->
<g id="Node000021" class="node">
<title>Node21</title>
<g id="a_Node000021"><a xlink:href="group__mod__nsslmp_gaa88ef817bac1d81c748fd32c9b9be6ea.html#gaa88ef817bac1d81c748fd32c9b9be6ea" target="_top" xlink:title="Sedimentation driver subroutine. Calls fallout column by column.">
<polygon fill="white" stroke="#666666" points="279.5,-449.5 157.75,-449.5 157.75,-419 279.5,-419 279.5,-449.5"/>
<text xml:space="preserve" text-anchor="start" x="165.75" y="-436" font-family="Source Sans Pro" font-size="10.00">module_mp_nssl_2mom</text>
<text xml:space="preserve" text-anchor="middle" x="218.62" y="-424.75" font-family="Source Sans Pro" font-size="10.00">::sediment1d</text>
</a>
</g>
</g>
<!-- Node1&#45;&gt;Node21 -->
<g id="edge33_Node000001_Node000021" class="edge">
<title>Node1&#45;&gt;Node21</title>
<g id="a_edge33_Node000001_Node000021"><a xlink:title=" ">
<path fill="none" stroke="#63b8ff" d="M91.84,-491.58C110.62,-481.93 135.41,-469.49 157.75,-459.25 161.29,-457.63 164.96,-455.99 168.67,-454.37"/>
<polygon fill="#63b8ff" stroke="#63b8ff" points="169.93,-457.63 177.74,-450.46 167.17,-451.2 169.93,-457.63"/>
</a>
</g>
</g>
<!-- Node3 -->
<g id="Node000003" class="node">
<title>Node3</title>
<g id="a_Node000003"><a xlink:href="group__mod__nsslmp_ga966c94b788d8e8958fff525003f48fd9.html#ga966c94b788d8e8958fff525003f48fd9" target="_top" xlink:title="Single&#45;precision complete gamma function.">
<polygon fill="white" stroke="#666666" points="752.75,-569.5 631,-569.5 631,-539 752.75,-539 752.75,-569.5"/>
<text xml:space="preserve" text-anchor="start" x="639" y="-556" font-family="Source Sans Pro" font-size="10.00">module_mp_nssl_2mom</text>
<text xml:space="preserve" text-anchor="middle" x="691.88" y="-544.75" font-family="Source Sans Pro" font-size="10.00">::gamma_sp</text>
</a>
</g>
</g>
<!-- Node2&#45;&gt;Node3 -->
<g id="edge2_Node000002_Node000003" class="edge">
<title>Node2&#45;&gt;Node3</title>
<g id="a_edge2_Node000002_Node000003"><a xlink:title=" ">
<path fill="none" stroke="#63b8ff" d="M437.6,-646.43C482.19,-641.45 543.82,-631.55 595,-612.25 618.61,-603.35 642.9,-588.58 661.13,-576.17"/>
<polygon fill="#63b8ff" stroke="#63b8ff" points="662.88,-579.22 669.09,-570.63 658.88,-573.47 662.88,-579.22"/>
</a>
</g>
</g>
<!-- Node3&#45;&gt;Node3 -->
<g id="edge3_Node000003_Node000003" class="edge">
<title>Node3&#45;&gt;Node3</title>
<g id="a_edge3_Node000003_Node000003"><a xlink:title=" ">
<path fill="none" stroke="#63b8ff" d="M663.92,-569.99C658.22,-579.06 667.53,-587.5 691.88,-587.5 705.19,-587.5 714,-584.97 718.33,-581.2"/>
<polygon fill="#63b8ff" stroke="#63b8ff" points="721.77,-581.86 719.63,-571.49 714.83,-580.93 721.77,-581.86"/>
</a>
</g>
</g>
<!-- Node7&#45;&gt;Node3 -->
<g id="edge20_Node000007_Node000003" class="edge">
<title>Node7&#45;&gt;Node3</title>
<g id="a_edge20_Node000007_Node000003"><a xlink:title=" ">
<path fill="none" stroke="#63b8ff" d="M425.5,-351.92C429.8,-354.58 433.82,-357.67 437.25,-361.25 469.34,-394.77 439.64,-427.26 473.25,-459.25 514.31,-498.33 543.23,-474.16 595,-497.25 617.09,-507.1 640.44,-520.9 658.56,-532.46"/>
<polygon fill="#63b8ff" stroke="#63b8ff" points="656.49,-535.28 666.79,-537.78 660.3,-529.41 656.49,-535.28"/>
</a>
</g>
</g>
<!-- Node8 -->
<g id="Node000008" class="node">
<title>Node8</title>
<g id="a_Node000008"><a xlink:href="group__mod__nsslmp_gacfb4b38156737aa351dcc8dd1a3492c5.html#gacfb4b38156737aa351dcc8dd1a3492c5" target="_top" xlink:title="Function calculates collection coefficients following Siefert (2006).">
<polygon fill="white" stroke="#666666" points="595,-432.5 473.25,-432.5 473.25,-402 595,-402 595,-432.5"/>
<text xml:space="preserve" text-anchor="start" x="481.25" y="-419" font-family="Source Sans Pro" font-size="10.00">module_mp_nssl_2mom</text>
<text xml:space="preserve" text-anchor="middle" x="534.12" y="-407.75" font-family="Source Sans Pro" font-size="10.00">::delabk</text>
</a>
</g>
</g>
<!-- Node7&#45;&gt;Node8 -->
<g id="edge8_Node000007_Node000008" class="edge">
<title>Node7&#45;&gt;Node8</title>
<g id="a_edge8_Node000007_Node000008"><a xlink:title=" ">
<path fill="none" stroke="#63b8ff" d="M419.76,-351.97C425.79,-354.77 431.79,-357.88 437.25,-361.25 455.22,-372.34 455.28,-381.16 473.25,-392.25 475.64,-393.73 478.13,-395.15 480.69,-396.52"/>
<polygon fill="#63b8ff" stroke="#63b8ff" points="478.87,-399.53 489.38,-400.86 481.99,-393.26 478.87,-399.53"/>
</a>
</g>
</g>
<!-- Node9 -->
<g id="Node000009" class="node">
<title>Node9</title>
<g id="a_Node000009"><a xlink:href="group__mod__nsslmp_ga0dabeda97fcbc7690787bb712eb2c267.html#ga0dabeda97fcbc7690787bb712eb2c267" target="_top" xlink:title="Function calculates collection coefficients following Siefert (2006).">
<polygon fill="white" stroke="#666666" points="595,-365.5 473.25,-365.5 473.25,-335 595,-335 595,-365.5"/>
<text xml:space="preserve" text-anchor="start" x="481.25" y="-352" font-family="Source Sans Pro" font-size="10.00">module_mp_nssl_2mom</text>
<text xml:space="preserve" text-anchor="middle" x="534.12" y="-340.75" font-family="Source Sans Pro" font-size="10.00">::delbk</text>
</a>
</g>
</g>
<!-- Node7&#45;&gt;Node9 -->
<g id="edge10_Node000007_Node000009" class="edge">
<title>Node7&#45;&gt;Node9</title>
<g id="a_edge10_Node000007_Node000009"><a xlink:title=" ">
<path fill="none" stroke="#63b8ff" d="M437.59,-341.66C445.45,-342.37 453.55,-343.1 461.57,-343.82"/>
<polygon fill="#63b8ff" stroke="#63b8ff" points="461.03,-347.28 471.3,-344.69 461.66,-340.31 461.03,-347.28"/>
</a>
</g>
</g>
<!-- Node10 -->
<g id="Node000010" class="node">
<title>Node10</title>
<g id="a_Node000010"><a xlink:href="group__mod__nsslmp_ga6d0f1fb5cc9fda3d99aa187d63368fe9.html#ga6d0f1fb5cc9fda3d99aa187d63368fe9" target="_top" xlink:title="Function to interpolate from a table of incomplete gamma function values.">
<polygon fill="white" stroke="#666666" points="595,-298.5 473.25,-298.5 473.25,-268 595,-268 595,-298.5"/>
<text xml:space="preserve" text-anchor="start" x="481.25" y="-285" font-family="Source Sans Pro" font-size="10.00">module_mp_nssl_2mom</text>
<text xml:space="preserve" text-anchor="middle" x="534.12" y="-273.75" font-family="Source Sans Pro" font-size="10.00">::gaminterp</text>
</a>
</g>
</g>
<!-- Node7&#45;&gt;Node10 -->
<g id="edge12_Node000007_Node000010" class="edge">
<title>Node7&#45;&gt;Node10</title>
<g id="a_edge12_Node000007_Node000010"><a xlink:title=" ">
<path fill="none" stroke="#63b8ff" d="M423.26,-320.63C439.91,-314.97 458.91,-308.5 476.38,-302.56"/>
<polygon fill="#63b8ff" stroke="#63b8ff" points="477.25,-305.96 485.59,-299.42 475,-299.33 477.25,-305.96"/>
</a>
</g>
</g>
<!-- Node11 -->
<g id="Node000011" class="node">
<title>Node11</title>
<g id="a_Node000011"><a xlink:href="group__mod__nsslmp_gab0a066fab5da9d3bb15ed2a2722b47e6.html#gab0a066fab5da9d3bb15ed2a2722b47e6" target="_top" xlink:title="Function calculates Gamma(0.2,x)/Gamma[0.2] for 40 micro drops ( imurain == 3 ).">
<polygon fill="white" stroke="#666666" points="595,-231.5 473.25,-231.5 473.25,-201 595,-201 595,-231.5"/>
<text xml:space="preserve" text-anchor="start" x="481.25" y="-218" font-family="Source Sans Pro" font-size="10.00">module_mp_nssl_2mom</text>
<text xml:space="preserve" text-anchor="middle" x="534.12" y="-206.75" font-family="Source Sans Pro" font-size="10.00">::gaml02</text>
</a>
</g>
</g>
<!-- Node7&#45;&gt;Node11 -->
<g id="edge14_Node000007_Node000011" class="edge">
<title>Node7&#45;&gt;Node11</title>
<g id="a_edge14_Node000007_Node000011"><a xlink:title=" ">
<path fill="none" stroke="#63b8ff" d="M396.24,-320.6C415.4,-304.83 446.05,-279.91 473.25,-259.25 482.33,-252.35 492.33,-245.05 501.53,-238.46"/>
<polygon fill="#63b8ff" stroke="#63b8ff" points="503.39,-241.43 509.51,-232.78 499.33,-235.73 503.39,-241.43"/>
</a>
</g>
</g>
<!-- Node12 -->
<g id="Node000012" class="node">
<title>Node12</title>
<g id="a_Node000012"><a xlink:href="group__mod__nsslmp_gac1cafe76bb3fb3c6188460773d4ad989.html#gac1cafe76bb3fb3c6188460773d4ad989" target="_top" xlink:title="Function calculates fraction of drops larger than 300 microns ( imurain == 3 ).">
<polygon fill="white" stroke="#666666" points="595,-164.5 473.25,-164.5 473.25,-134 595,-134 595,-164.5"/>
<text xml:space="preserve" text-anchor="start" x="481.25" y="-151" font-family="Source Sans Pro" font-size="10.00">module_mp_nssl_2mom</text>
<text xml:space="preserve" text-anchor="middle" x="534.12" y="-139.75" font-family="Source Sans Pro" font-size="10.00">::gaml02d300</text>
</a>
</g>
</g>
<!-- Node7&#45;&gt;Node12 -->
<g id="edge16_Node000007_Node000012" class="edge">
<title>Node7&#45;&gt;Node12</title>
<g id="a_edge16_Node000007_Node000012"><a xlink:title=" ">
<path fill="none" stroke="#63b8ff" d="M385.3,-320.66C400,-292.74 433.62,-233.31 473.25,-192.25 480.48,-184.76 489.17,-177.68 497.65,-171.52"/>
<polygon fill="#63b8ff" stroke="#63b8ff" points="499.6,-174.42 505.81,-165.84 495.6,-168.68 499.6,-174.42"/>
</a>
</g>
</g>
<!-- Node13 -->
<g id="Node000013" class="node">
<title>Node13</title>
<g id="a_Node000013"><a xlink:href="group__mod__nsslmp_ga61f606380174ead05eccd18a0de55b54.html#ga61f606380174ead05eccd18a0de55b54" target="_top" xlink:title="Function calculates Gamma(0.2,x)/Gamma[0.2] for 500 micro drops ( imurain == 3 ).">
<polygon fill="white" stroke="#666666" points="595,-97.5 473.25,-97.5 473.25,-67 595,-67 595,-97.5"/>
<text xml:space="preserve" text-anchor="start" x="481.25" y="-84" font-family="Source Sans Pro" font-size="10.00">module_mp_nssl_2mom</text>
<text xml:space="preserve" text-anchor="middle" x="534.12" y="-72.75" font-family="Source Sans Pro" font-size="10.00">::gaml02d500</text>
</a>
</g>
</g>
<!-- Node7&#45;&gt;Node13 -->
<g id="edge18_Node000007_Node000013" class="edge">
<title>Node7&#45;&gt;Node13</title>
<g id="a_edge18_Node000007_Node000013"><a xlink:title=" ">
<path fill="none" stroke="#63b8ff" d="M381.41,-320.71C391.66,-283.6 421.56,-188.23 473.25,-125.25 479.68,-117.42 487.86,-110.31 496.1,-104.24"/>
<polygon fill="#63b8ff" stroke="#63b8ff" points="497.86,-107.28 504.08,-98.7 493.87,-101.52 497.86,-107.28"/>
</a>
</g>
</g>
<!-- Node14 -->
<g id="Node000014" class="node">
<title>Node14</title>
<g id="a_Node000014"><a xlink:href="group__mod__nsslmp_gafc90cf2417f6132ce54c2cf378dd2098.html#gafc90cf2417f6132ce54c2cf378dd2098" target="_top" xlink:title="single&#45;precision incomplete gamma function (single precision args)">
<polygon fill="white" stroke="#666666" points="595,-536.5 473.25,-536.5 473.25,-506 595,-506 595,-536.5"/>
<text xml:space="preserve" text-anchor="start" x="481.25" y="-523" font-family="Source Sans Pro" font-size="10.00">module_mp_nssl_2mom</text>
<text xml:space="preserve" text-anchor="middle" x="534.12" y="-511.75" font-family="Source Sans Pro" font-size="10.00">::gamxinf</text>
</a>
</g>
</g>
<!-- Node7&#45;&gt;Node14 -->
<g id="edge21_Node000007_Node000014" class="edge">
<title>Node7&#45;&gt;Node14</title>
<g id="a_edge21_Node000007_Node000014"><a xlink:title=" ">
<path fill="none" stroke="#63b8ff" d="M426.1,-351.82C430.24,-354.49 434.05,-357.61 437.25,-361.25 477.14,-406.58 434.63,-445.83 473.25,-492.25 475.33,-494.75 477.67,-497.05 480.2,-499.16"/>
<polygon fill="#63b8ff" stroke="#63b8ff" points="477.95,-501.86 488.13,-504.78 481.99,-496.14 477.95,-501.86"/>
</a>
</g>
</g>
<!-- Node15 -->
<g id="Node000015" class="node">
<title>Node15</title>
<g id="a_Node000015"><a xlink:href="group__mod__nsslmp_gaaf4043a7ae72d6c12e0326a9d3c16dd0.html#gaaf4043a7ae72d6c12e0326a9d3c16dd0" target="_top" xlink:title="Double&#45;precision incomplete gamma function (single precision args).">
<polygon fill="white" stroke="#666666" points="595,-30.5 473.25,-30.5 473.25,0 595,0 595,-30.5"/>
<text xml:space="preserve" text-anchor="start" x="481.25" y="-17" font-family="Source Sans Pro" font-size="10.00">module_mp_nssl_2mom</text>
<text xml:space="preserve" text-anchor="middle" x="534.12" y="-5.75" font-family="Source Sans Pro" font-size="10.00">::gamxinfdp</text>
</a>
</g>
</g>
<!-- Node7&#45;&gt;Node15 -->
<g id="edge24_Node000007_Node000015" class="edge">
<title>Node7&#45;&gt;Node15</title>
<g id="a_edge24_Node000007_Node000015"><a xlink:title=" ">
<path fill="none" stroke="#63b8ff" d="M379.39,-320.56C385.84,-275.59 409.37,-144.04 473.25,-58.25 479.13,-50.36 486.88,-43.32 494.84,-37.35"/>
<polygon fill="#63b8ff" stroke="#63b8ff" points="496.75,-40.29 502.96,-31.7 492.75,-34.54 496.75,-40.29"/>
</a>
</g>
</g>
<!-- Node17 -->
<g id="Node000017" class="node">
<title>Node17</title>
<g id="a_Node000017"><a xlink:href="group__mod__nsslmp_ga9df936b176c8bb5adfa0a7fee691e57c.html#ga9df936b176c8bb5adfa0a7fee691e57c" target="_top" xlink:title="Mean hydrometeor size and fall speed calculations.">
<polygon fill="white" stroke="#666666" points="595,-603.5 473.25,-603.5 473.25,-573 595,-573 595,-603.5"/>
<text xml:space="preserve" text-anchor="start" x="481.25" y="-590" font-family="Source Sans Pro" font-size="10.00">module_mp_nssl_2mom</text>
<text xml:space="preserve" text-anchor="middle" x="534.12" y="-578.75" font-family="Source Sans Pro" font-size="10.00">::setvtz</text>
</a>
</g>
</g>
<!-- Node7&#45;&gt;Node17 -->
<g id="edge28_Node000007_Node000017" class="edge">
<title>Node7&#45;&gt;Node17</title>
<g id="a_edge28_Node000007_Node000017"><a xlink:title=" ">
<path fill="none" stroke="#63b8ff" d="M427.02,-351.91C430.86,-354.56 434.36,-357.65 437.25,-361.25 494.29,-432.4 416.21,-492.1 473.25,-563.25 473.79,-563.93 474.35,-564.58 474.94,-565.22"/>
<polygon fill="#63b8ff" stroke="#63b8ff" points="472.48,-567.72 482.33,-571.6 477.05,-562.42 472.48,-567.72"/>
</a>
</g>
</g>
<!-- Node8&#45;&gt;Node8 -->
<g id="edge9_Node000008_Node000008" class="edge">
<title>Node8&#45;&gt;Node8</title>
<g id="a_edge9_Node000008_Node000008"><a xlink:title=" ">
<path fill="none" stroke="#63b8ff" d="M506.17,-432.99C500.47,-442.06 509.78,-450.5 534.12,-450.5 547.44,-450.5 556.25,-447.97 560.58,-444.2"/>
<polygon fill="#63b8ff" stroke="#63b8ff" points="564.02,-444.86 561.88,-434.49 557.08,-443.93 564.02,-444.86"/>
</a>
</g>
</g>
<!-- Node9&#45;&gt;Node9 -->
<g id="edge11_Node000009_Node000009" class="edge">
<title>Node9&#45;&gt;Node9</title>
<g id="a_edge11_Node000009_Node000009"><a xlink:title=" ">
<path fill="none" stroke="#63b8ff" d="M506.17,-365.99C500.47,-375.06 509.78,-383.5 534.12,-383.5 547.44,-383.5 556.25,-380.97 560.58,-377.2"/>
<polygon fill="#63b8ff" stroke="#63b8ff" points="564.02,-377.86 561.88,-367.49 557.08,-376.93 564.02,-377.86"/>
</a>
</g>
</g>
<!-- Node10&#45;&gt;Node10 -->
<g id="edge13_Node000010_Node000010" class="edge">
<title>Node10&#45;&gt;Node10</title>
<g id="a_edge13_Node000010_Node000010"><a xlink:title=" ">
<path fill="none" stroke="#63b8ff" d="M506.17,-298.99C500.47,-308.06 509.78,-316.5 534.12,-316.5 547.44,-316.5 556.25,-313.97 560.58,-310.2"/>
<polygon fill="#63b8ff" stroke="#63b8ff" points="564.02,-310.86 561.88,-300.49 557.08,-309.93 564.02,-310.86"/>
</a>
</g>
</g>
<!-- Node11&#45;&gt;Node11 -->
<g id="edge15_Node000011_Node000011" class="edge">
<title>Node11&#45;&gt;Node11</title>
<g id="a_edge15_Node000011_Node000011"><a xlink:title=" ">
<path fill="none" stroke="#63b8ff" d="M506.17,-231.99C500.47,-241.06 509.78,-249.5 534.12,-249.5 547.44,-249.5 556.25,-246.97 560.58,-243.2"/>
<polygon fill="#63b8ff" stroke="#63b8ff" points="564.02,-243.86 561.88,-233.49 557.08,-242.93 564.02,-243.86"/>
</a>
</g>
</g>
<!-- Node12&#45;&gt;Node12 -->
<g id="edge17_Node000012_Node000012" class="edge">
<title>Node12&#45;&gt;Node12</title>
<g id="a_edge17_Node000012_Node000012"><a xlink:title=" ">
<path fill="none" stroke="#63b8ff" d="M506.17,-164.99C500.47,-174.06 509.78,-182.5 534.12,-182.5 547.44,-182.5 556.25,-179.97 560.58,-176.2"/>
<polygon fill="#63b8ff" stroke="#63b8ff" points="564.02,-176.86 561.88,-166.49 557.08,-175.93 564.02,-176.86"/>
</a>
</g>
</g>
<!-- Node13&#45;&gt;Node13 -->
<g id="edge19_Node000013_Node000013" class="edge">
<title>Node13&#45;&gt;Node13</title>
<g id="a_edge19_Node000013_Node000013"><a xlink:title=" ">
<path fill="none" stroke="#63b8ff" d="M506.17,-97.99C500.47,-107.06 509.78,-115.5 534.12,-115.5 547.44,-115.5 556.25,-112.97 560.58,-109.2"/>
<polygon fill="#63b8ff" stroke="#63b8ff" points="564.02,-109.86 561.88,-99.49 557.08,-108.93 564.02,-109.86"/>
</a>
</g>
</g>
<!-- Node14&#45;&gt;Node3 -->
<g id="edge22_Node000014_Node000003" class="edge">
<title>Node14&#45;&gt;Node3</title>
<g id="a_edge22_Node000014_Node000003"><a xlink:title=" ">
<path fill="none" stroke="#63b8ff" d="M595.34,-534.01C603.2,-535.67 611.3,-537.39 619.32,-539.09"/>
<polygon fill="#63b8ff" stroke="#63b8ff" points="618.57,-542.51 629.08,-541.16 620.02,-535.66 618.57,-542.51"/>
</a>
</g>
</g>
<!-- Node14&#45;&gt;Node14 -->
<g id="edge23_Node000014_Node000014" class="edge">
<title>Node14&#45;&gt;Node14</title>
<g id="a_edge23_Node000014_Node000014"><a xlink:title=" ">
<path fill="none" stroke="#63b8ff" d="M506.17,-536.99C500.47,-546.06 509.78,-554.5 534.12,-554.5 547.44,-554.5 556.25,-551.97 560.58,-548.2"/>
<polygon fill="#63b8ff" stroke="#63b8ff" points="564.02,-548.86 561.88,-538.49 557.08,-547.93 564.02,-548.86"/>
</a>
</g>
</g>
<!-- Node15&#45;&gt;Node15 -->
<g id="edge27_Node000015_Node000015" class="edge">
<title>Node15&#45;&gt;Node15</title>
<g id="a_edge27_Node000015_Node000015"><a xlink:title=" ">
<path fill="none" stroke="#63b8ff" d="M506.17,-30.99C500.47,-40.06 509.78,-48.5 534.12,-48.5 547.44,-48.5 556.25,-45.97 560.58,-42.2"/>
<polygon fill="#63b8ff" stroke="#63b8ff" points="564.02,-42.86 561.88,-32.49 557.08,-41.93 564.02,-42.86"/>
</a>
</g>
</g>
<!-- Node16 -->
<g id="Node000016" class="node">
<title>Node16</title>
<g id="a_Node000016"><a xlink:href="group__mod__nsslmp_ga316422c2efdacd1dbdc0c1418350eaf6.html#ga316422c2efdacd1dbdc0c1418350eaf6" target="_top" xlink:title="Douple&#45;precision complete gamma function (double precision argument).">
<polygon fill="white" stroke="#666666" points="752.75,-30.5 631,-30.5 631,0 752.75,0 752.75,-30.5"/>
<text xml:space="preserve" text-anchor="start" x="639" y="-17" font-family="Source Sans Pro" font-size="10.00">module_mp_nssl_2mom</text>
<text xml:space="preserve" text-anchor="middle" x="691.88" y="-5.75" font-family="Source Sans Pro" font-size="10.00">::gamma_dp</text>
</a>
</g>
</g>
<!-- Node15&#45;&gt;Node16 -->
<g id="edge25_Node000015_Node000016" class="edge">
<title>Node15&#45;&gt;Node16</title>
<g id="a_edge25_Node000015_Node000016"><a xlink:title=" ">
<path fill="none" stroke="#63b8ff" d="M595.34,-15.25C603.2,-15.25 611.3,-15.25 619.32,-15.25"/>
<polygon fill="#63b8ff" stroke="#63b8ff" points="619.05,-18.75 629.05,-15.25 619.05,-11.75 619.05,-18.75"/>
</a>
</g>
</g>
<!-- Node16&#45;&gt;Node16 -->
<g id="edge26_Node000016_Node000016" class="edge">
<title>Node16&#45;&gt;Node16</title>
<g id="a_edge26_Node000016_Node000016"><a xlink:title=" ">
<path fill="none" stroke="#63b8ff" d="M663.92,-30.99C658.22,-40.06 667.53,-48.5 691.88,-48.5 705.19,-48.5 714,-45.97 718.33,-42.2"/>
<polygon fill="#63b8ff" stroke="#63b8ff" points="721.77,-42.86 719.63,-32.49 714.83,-41.93 721.77,-42.86"/>
</a>
</g>
</g>
<!-- Node17&#45;&gt;Node3 -->
<g id="edge29_Node000017_Node000003" class="edge">
<title>Node17&#45;&gt;Node3</title>
<g id="a_edge29_Node000017_Node000003"><a xlink:title=" ">
<path fill="none" stroke="#63b8ff" d="M595.34,-575.1C603.2,-573.39 611.3,-571.62 619.32,-569.87"/>
<polygon fill="#63b8ff" stroke="#63b8ff" points="620.06,-573.29 629.08,-567.74 618.57,-566.45 620.06,-573.29"/>
</a>
</g>
</g>
<!-- Node19 -->
<g id="Node000019" class="node">
<title>Node19</title>
<g id="a_Node000019"><a xlink:href="group__mod__nsslmp_ga9508fcfd1b4336c24e0829c5398f250b.html#ga9508fcfd1b4336c24e0829c5398f250b" target="_top" xlink:title="Subroutine that returns the maximum possible condensation.">
<polygon fill="white" stroke="#666666" points="437.25,-596.5 315.5,-596.5 315.5,-566 437.25,-566 437.25,-596.5"/>
<text xml:space="preserve" text-anchor="start" x="323.5" y="-583" font-family="Source Sans Pro" font-size="10.00">module_mp_nssl_2mom</text>
<text xml:space="preserve" text-anchor="middle" x="376.38" y="-571.75" font-family="Source Sans Pro" font-size="10.00">::qvexcess</text>
</a>
</g>
</g>
<!-- Node18&#45;&gt;Node19 -->
<g id="edge31_Node000018_Node000019" class="edge">
<title>Node18&#45;&gt;Node19</title>
<g id="a_edge31_Node000018_Node000019"><a xlink:title=" ">
<path fill="none" stroke="#63b8ff" d="M264.6,-498.88C269.86,-501.61 274.97,-504.72 279.5,-508.25 300.54,-524.63 294.46,-539.87 315.5,-556.25 317.2,-557.57 318.98,-558.84 320.82,-560.05"/>
<polygon fill="#63b8ff" stroke="#63b8ff" points="318.69,-562.86 329.1,-564.86 322.21,-556.81 318.69,-562.86"/>
</a>
</g>
</g>
<!-- Node22 -->
<g id="Node000022" class="node">
<title>Node22</title>
<g id="a_Node000022"><a xlink:href="group__mod__nsslmp_ga0cb30e0249d14d780428d4d9bd829003.html#ga0cb30e0249d14d780428d4d9bd829003" target="_top" xlink:title="Subroutine to correct number concentration to prevent reflectivity growth.">
<polygon fill="white" stroke="#666666" points="437.25,-400.5 315.5,-400.5 315.5,-370 437.25,-370 437.25,-400.5"/>
<text xml:space="preserve" text-anchor="start" x="323.5" y="-387" font-family="Source Sans Pro" font-size="10.00">module_mp_nssl_2mom</text>
<text xml:space="preserve" text-anchor="middle" x="376.38" y="-375.75" font-family="Source Sans Pro" font-size="10.00">::calcnfromz1d</text>
</a>
</g>
</g>
<!-- Node21&#45;&gt;Node22 -->
<g id="edge34_Node000021_Node000022" class="edge">
<title>Node21&#45;&gt;Node22</title>
<g id="a_edge34_Node000021_Node000022"><a xlink:title=" ">
<path fill="none" stroke="#63b8ff" d="M269.33,-418.61C283.73,-414.08 299.62,-409.08 314.61,-404.37"/>
<polygon fill="#63b8ff" stroke="#63b8ff" points="315.4,-407.79 323.89,-401.45 313.3,-401.11 315.4,-407.79"/>
</a>
</g>
</g>
<!-- Node23 -->
<g id="Node000023" class="node">
<title>Node23</title>
<g id="a_Node000023"><a xlink:href="group__mod__nsslmp_ga416d221e65719addcd9254cf20e3c0eb.html#ga416d221e65719addcd9254cf20e3c0eb" target="_top" xlink:title="Calculates temporary reflectivity moment for adaptive size&#45;sorting limiter.">
<polygon fill="white" stroke="#666666" points="437.25,-498.5 315.5,-498.5 315.5,-468 437.25,-468 437.25,-498.5"/>
<text xml:space="preserve" text-anchor="start" x="323.5" y="-485" font-family="Source Sans Pro" font-size="10.00">module_mp_nssl_2mom</text>
<text xml:space="preserve" text-anchor="middle" x="376.38" y="-473.75" font-family="Source Sans Pro" font-size="10.00">::calczgr1d</text>
</a>
</g>
</g>
<!-- Node21&#45;&gt;Node23 -->
<g id="edge35_Node000021_Node000023" class="edge">
<title>Node21&#45;&gt;Node23</title>
<g id="a_edge35_Node000021_Node000023"><a xlink:title=" ">
<path fill="none" stroke="#63b8ff" d="M269.33,-449.89C283.73,-454.42 299.62,-459.42 314.61,-464.13"/>
<polygon fill="#63b8ff" stroke="#63b8ff" points="313.3,-467.39 323.89,-467.05 315.4,-460.71 313.3,-467.39"/>
</a>
</g>
</g>
<!-- Node24 -->
<g id="Node000024" class="node">
<title>Node24</title>
<g id="a_Node000024"><a xlink:href="group__mod__nsslmp_gae621d5fefce44abf9ff804cb6d0c5913.html#gae621d5fefce44abf9ff804cb6d0c5913" target="_top" xlink:title="Column sedimentation fallout subroutine.">
<polygon fill="white" stroke="#666666" points="437.25,-449.5 315.5,-449.5 315.5,-419 437.25,-419 437.25,-449.5"/>
<text xml:space="preserve" text-anchor="start" x="323.5" y="-436" font-family="Source Sans Pro" font-size="10.00">module_mp_nssl_2mom</text>
<text xml:space="preserve" text-anchor="middle" x="376.38" y="-424.75" font-family="Source Sans Pro" font-size="10.00">::fallout1d</text>
</a>
</g>
</g>
<!-- Node21&#45;&gt;Node24 -->
<g id="edge36_Node000021_Node000024" class="edge">
<title>Node21&#45;&gt;Node24</title>
<g id="a_edge36_Node000021_Node000024"><a xlink:title=" ">
<path fill="none" stroke="#63b8ff" d="M279.84,-434.25C287.7,-434.25 295.8,-434.25 303.82,-434.25"/>
<polygon fill="#63b8ff" stroke="#63b8ff" points="303.55,-437.75 313.55,-434.25 303.55,-430.75 303.55,-437.75"/>
</a>
</g>
</g>
<!-- Node25 -->
<g id="Node000025" class="node">
<title>Node25</title>
<g id="a_Node000025"><a xlink:href="group__mod__nsslmp_ga4ea70fd73f9b7e8dd2472e073f46ca5c.html#ga4ea70fd73f9b7e8dd2472e073f46ca5c" target="_top" xlink:title="Column&#45;wise front end to setvtz for sedimentation.">
<polygon fill="white" stroke="#666666" points="437.25,-547.5 315.5,-547.5 315.5,-517 437.25,-517 437.25,-547.5"/>
<text xml:space="preserve" text-anchor="start" x="323.5" y="-534" font-family="Source Sans Pro" font-size="10.00">module_mp_nssl_2mom</text>
<text xml:space="preserve" text-anchor="middle" x="376.38" y="-522.75" font-family="Source Sans Pro" font-size="10.00">::ziegfall1d</text>
</a>
</g>
</g>
<!-- Node21&#45;&gt;Node25 -->
<g id="edge37_Node000021_Node000025" class="edge">
<title>Node21&#45;&gt;Node25</title>
<g id="a_edge37_Node000021_Node000025"><a xlink:title=" ">
<path fill="none" stroke="#63b8ff" d="M264.6,-449.88C269.86,-452.61 274.97,-455.72 279.5,-459.25 300.54,-475.63 294.46,-490.87 315.5,-507.25 317.2,-508.57 318.98,-509.84 320.82,-511.05"/>
<polygon fill="#63b8ff" stroke="#63b8ff" points="318.69,-513.86 329.1,-515.86 322.21,-507.81 318.69,-513.86"/>
</a>
</g>
</g>
<!-- Node25&#45;&gt;Node17 -->
<g id="edge38_Node000025_Node000017" class="edge">
<title>Node25&#45;&gt;Node17</title>
<g id="a_edge38_Node000025_Node000017"><a xlink:title=" ">
<path fill="none" stroke="#63b8ff" d="M421.17,-548C439,-554.41 459.79,-561.88 478.59,-568.64"/>
<polygon fill="#63b8ff" stroke="#63b8ff" points="477.37,-571.92 487.96,-572.01 479.73,-565.33 477.37,-571.92"/>
</a>
</g>
</g>
</g>
</svg>

<g id="navigator" transform="translate(0 0)" fill="#404254">
  <rect fill="#f2f5e9" fill-opacity="0.5" stroke="#606060" stroke-width=".5" x="0" y="0" width="60" height="60"/>
  <use id="zoomplus" xlink:href="#zoomPlus" x="17" y="9" onmousedown="handleZoom(evt,'in')"/>
  <use id="zoomminus" xlink:href="#zoomMin" x="42" y="9" onmousedown="handleZoom(evt,'out')"/>
  <use id="reset" xlink:href="#resetDef" x="30" y="36" onmousedown="handleReset()"/>
   <use id="arrowup" xlink:href="#arrowUp" x="0" y="0" onmousedown="handlePan(0,-1)"/>
  <use id="arrowright" xlink:href="#arrowRight" x="0" y="0" onmousedown="handlePan(1,0)"/>
  <use id="arrowdown" xlink:href="#arrowDown" x="0" y="0" onmousedown="handlePan(0,1)"/>
  <use id="arrowleft" xlink:href="#arrowLeft" x="0" y="0" onmousedown="handlePan(-1,0)"/>
</g>
<svg viewBox="0 0 15 15" width="100%" height="30px" preserveAspectRatio="xMaxYMin meet">
 <g id="arrow_out" transform="scale(0.3 0.3)">
  <a xlink:href="group__mod__nsslmp_gaf719f942556bb1676739cbdff304e714_gaf719f942556bb1676739cbdff304e714_cgraph_org.svg" target="_base">
   <rect id="button" ry="5" rx="5" y="6" x="6" height="38" width="38"
        fill="#f2f5e9" fill-opacity="0.5" stroke="#606060" stroke-width="1.0"/>
   <path id="arrow"
     d="M 11.500037,31.436501 C 11.940474,20.09759 22.043105,11.32322 32.158766,21.979434 L 37.068811,17.246167 C 37.068811,17.246167 37.088388,32 37.088388,32 L 22.160133,31.978069 C 22.160133,31.978069 26.997745,27.140456 26.997745,27.140456 C 18.528582,18.264221 13.291696,25.230495 11.500037,31.436501 z"
     style="fill:#404040;"/>
  </a>
 </g>
</svg>

<style type='text/css'>
<![CDATA[
[data-mouse-over-selected='false'] { opacity: 0.7; }
[data-mouse-over-selected='true']  { opacity: 1.0; }
]]>
</style>
<script type="application/ecmascript"><![CDATA[
document.addEventListener('DOMContentLoaded', (event) => {
  highlightEdges();
  highlightAdjacentNodes();
});
]]></script>
</svg>
