<?xml version="1.0" encoding="UTF-8" standalone="no"?>
<!DOCTYPE svg PUBLIC "-//W3C//DTD SVG 1.1//EN"
 "http://www.w3.org/Graphics/SVG/1.1/DTD/svg11.dtd">
<!-- Generated by graphviz version 14.1.2 (20260124.0452)
 -->
<!-- Title: module_sf_ruclsm::vilka Pages: 1 -->
<svg width="975pt" height="140pt"
 viewBox="0.00 0.00 975.00 140.00" xmlns="http://www.w3.org/2000/svg" xmlns:xlink="http://www.w3.org/1999/xlink">
<g id="graph0" class="graph" transform="scale(1 1) rotate(0) translate(4 136.25)">
<title>module_sf_ruclsm::vilka</title>
<!-- Node1 -->
<g id="Node000001" class="node">
<title>Node1</title>
<g id="a_Node000001"><a xlink:title="This subroutine finds the solution of energy budget at the surface from the pre&#45;computed table of sat...">
<polygon fill="#999999" stroke="#666666" points="966.75,-74.25 845,-74.25 845,-55 966.75,-55 966.75,-74.25"/>
<text xml:space="preserve" text-anchor="middle" x="905.88" y="-60.75" font-family="Source Sans Pro" font-size="10.00">module_sf_ruclsm::vilka</text>
</a>
</g>
</g>
<!-- Node2 -->
<g id="Node000002" class="node">
<title>Node2</title>
<g id="a_Node000002"><a xlink:href="group__lsm__ruc__group_ga272369b99aa473b1f4faed9fd3fe17fe.html#ga272369b99aa473b1f4faed9fd3fe17fe" target="_top" xlink:title="This subroutine is called for sea ice without accumulated snow on its surface. it solves heat diffusi...">
<polygon fill="white" stroke="#666666" points="609.62,-132.25 490.12,-132.25 490.12,-113 609.62,-113 609.62,-132.25"/>
<text xml:space="preserve" text-anchor="middle" x="549.88" y="-118.75" font-family="Source Sans Pro" font-size="10.00">module_sf_ruclsm::sice</text>
</a>
</g>
</g>
<!-- Node1&#45;&gt;Node2 -->
<g id="edge1_Node000001_Node000002" class="edge">
<title>Node1&#45;&gt;Node2</title>
<g id="a_edge1_Node000001_Node000002"><a xlink:title=" ">
<path fill="none" stroke="#63b8ff" d="M874.45,-79.41C855.97,-87.69 831.64,-97.39 809,-102.62 742,-118.12 662.89,-122.24 610.07,-123.04"/>
<polygon fill="#63b8ff" stroke="#63b8ff" points="875.88,-82.6 883.5,-75.24 872.95,-76.25 875.88,-82.6"/>
</a>
</g>
</g>
<!-- Node6 -->
<g id="Node000006" class="node">
<title>Node6</title>
<g id="a_Node000006"><a xlink:href="group__lsm__ruc__group_ga59cfce62a9e7a8c642e767ea7548b7c9.html#ga59cfce62a9e7a8c642e767ea7548b7c9" target="_top" xlink:title="This subroutine is called for sea ice with accumulated snow on its surface. It solves energy budget o...">
<polygon fill="white" stroke="#666666" points="809,-93.25 655.75,-93.25 655.75,-74 809,-74 809,-93.25"/>
<text xml:space="preserve" text-anchor="middle" x="732.38" y="-79.75" font-family="Source Sans Pro" font-size="10.00">module_sf_ruclsm::snowseaice</text>
</a>
</g>
</g>
<!-- Node1&#45;&gt;Node6 -->
<g id="edge6_Node000001_Node000006" class="edge">
<title>Node1&#45;&gt;Node6</title>
<g id="a_edge6_Node000001_Node000006"><a xlink:title=" ">
<path fill="none" stroke="#63b8ff" d="M833.67,-72.51C825.62,-73.4 817.4,-74.32 809.3,-75.21"/>
<polygon fill="#63b8ff" stroke="#63b8ff" points="833.83,-76.02 843.39,-71.44 833.06,-69.06 833.83,-76.02"/>
</a>
</g>
</g>
<!-- Node7 -->
<g id="Node000007" class="node">
<title>Node7</title>
<g id="a_Node000007"><a xlink:href="group__lsm__ruc__group_ga204e4de9df89836cdda1dca1ee66d86c.html#ga204e4de9df89836cdda1dca1ee66d86c" target="_top" xlink:title="This subroutine solves energy bugdget equation and heat diffusion equation to obtain snow and soil te...">
<polygon fill="white" stroke="#666666" points="805.62,-56.25 659.12,-56.25 659.12,-37 805.62,-37 805.62,-56.25"/>
<text xml:space="preserve" text-anchor="middle" x="732.38" y="-42.75" font-family="Source Sans Pro" font-size="10.00">module_sf_ruclsm::snowtemp</text>
</a>
</g>
</g>
<!-- Node1&#45;&gt;Node7 -->
<g id="edge8_Node000001_Node000007" class="edge">
<title>Node1&#45;&gt;Node7</title>
<g id="a_edge8_Node000001_Node000007"><a xlink:title=" ">
<path fill="none" stroke="#63b8ff" d="M833.53,-57.14C824.43,-56.18 815.12,-55.2 806.01,-54.25"/>
<polygon fill="#63b8ff" stroke="#63b8ff" points="833.08,-60.61 843.39,-58.17 833.81,-53.65 833.08,-60.61"/>
</a>
</g>
</g>
<!-- Node9 -->
<g id="Node000009" class="node">
<title>Node9</title>
<g id="a_Node000009"><a xlink:href="group__lsm__ruc__group_gafc7d78906732947d1ac00ca46d7e8147.html#gafc7d78906732947d1ac00ca46d7e8147" target="_top" xlink:title="This subroutine solves energy budget equation and heat diffusion equation.">
<polygon fill="white" stroke="#666666" points="801.5,-19.25 663.25,-19.25 663.25,0 801.5,0 801.5,-19.25"/>
<text xml:space="preserve" text-anchor="middle" x="732.38" y="-5.75" font-family="Source Sans Pro" font-size="10.00">module_sf_ruclsm::soiltemp</text>
</a>
</g>
</g>
<!-- Node1&#45;&gt;Node9 -->
<g id="edge11_Node000001_Node000009" class="edge">
<title>Node1&#45;&gt;Node9</title>
<g id="a_edge11_Node000001_Node000009"><a xlink:title=" ">
<path fill="none" stroke="#63b8ff" d="M870.91,-50.23C852.75,-42.86 829.88,-34.11 809,-27.62 799.72,-24.74 789.68,-22.06 780.04,-19.69"/>
<polygon fill="#63b8ff" stroke="#63b8ff" points="869.57,-53.46 880.15,-54.03 872.23,-46.99 869.57,-53.46"/>
</a>
</g>
</g>
<!-- Node3 -->
<g id="Node000003" class="node">
<title>Node3</title>
<g id="a_Node000003"><a xlink:href="group__lsm__ruc__group_gad9dd50472f87539dfaccb42d5495f831.html#gad9dd50472f87539dfaccb42d5495f831" target="_top" xlink:title="This subroutine solves energy and moisture budgets.">
<polygon fill="white" stroke="#666666" points="444,-75.25 312.5,-75.25 312.5,-56 444,-56 444,-75.25"/>
<text xml:space="preserve" text-anchor="middle" x="378.25" y="-61.75" font-family="Source Sans Pro" font-size="10.00">module_sf_ruclsm::sfctmp</text>
</a>
</g>
</g>
<!-- Node2&#45;&gt;Node3 -->
<g id="edge2_Node000002_Node000003" class="edge">
<title>Node2&#45;&gt;Node3</title>
<g id="a_edge2_Node000002_Node000003"><a xlink:title=" ">
<path fill="none" stroke="#63b8ff" d="M508.23,-108.97C477.74,-98.72 436.7,-84.93 409.17,-75.68"/>
<polygon fill="#63b8ff" stroke="#63b8ff" points="506.91,-112.22 517.51,-112.08 509.14,-105.58 506.91,-112.22"/>
</a>
</g>
</g>
<!-- Node4 -->
<g id="Node000004" class="node">
<title>Node4</title>
<g id="a_Node000004"><a xlink:href="namespacelsm__ruc_affabfffd45a10349230af3cd4fc7cdeb.html#affabfffd45a10349230af3cd4fc7cdeb" target="_top" xlink:title=" ">
<polygon fill="white" stroke="#666666" points="109.75,-75.25 0,-75.25 0,-56 109.75,-56 109.75,-75.25"/>
<text xml:space="preserve" text-anchor="middle" x="54.88" y="-61.75" font-family="Source Sans Pro" font-size="10.00">lsm_ruc::lsm_ruc_run</text>
</a>
</g>
</g>
<!-- Node3&#45;&gt;Node4 -->
<g id="edge3_Node000003_Node000004" class="edge">
<title>Node3&#45;&gt;Node4</title>
<g id="a_edge3_Node000003_Node000004"><a xlink:title=" ">
<path fill="none" stroke="#63b8ff" d="M300.77,-65.62C242.05,-65.62 162.44,-65.62 110.14,-65.62"/>
<polygon fill="#63b8ff" stroke="#63b8ff" points="300.7,-69.13 310.7,-65.63 300.7,-62.13 300.7,-69.13"/>
</a>
</g>
</g>
<!-- Node5 -->
<g id="Node000005" class="node">
<title>Node5</title>
<g id="a_Node000005"><a xlink:href="group__lsm__ruc__group_ga919051c947b9bd7272399d4b681ba2a8.html#ga919051c947b9bd7272399d4b681ba2a8" target="_top" xlink:title="The RUN LSM model is described in Smirnova et al.(1997) smirnova_1997 and Smirnova et al....">
<polygon fill="white" stroke="#666666" points="276.5,-56.25 145.75,-56.25 145.75,-37 276.5,-37 276.5,-56.25"/>
<text xml:space="preserve" text-anchor="middle" x="211.12" y="-42.75" font-family="Source Sans Pro" font-size="10.00">module_sf_ruclsm::lsmruc</text>
</a>
</g>
</g>
<!-- Node3&#45;&gt;Node5 -->
<g id="edge4_Node000003_Node000005" class="edge">
<title>Node3&#45;&gt;Node5</title>
<g id="a_edge4_Node000003_Node000005"><a xlink:title=" ">
<path fill="none" stroke="#63b8ff" d="M301.14,-56.87C293.07,-55.94 284.92,-55 277,-54.09"/>
<polygon fill="#63b8ff" stroke="#63b8ff" points="300.62,-60.33 310.96,-58 301.42,-53.38 300.62,-60.33"/>
</a>
</g>
</g>
<!-- Node5&#45;&gt;Node4 -->
<g id="edge5_Node000005_Node000004" class="edge">
<title>Node5&#45;&gt;Node4</title>
<g id="a_edge5_Node000005_Node000004"><a xlink:title=" ">
<path fill="none" stroke="#63b8ff" d="M134.37,-55.96C126.1,-56.97 117.81,-58 109.88,-58.97"/>
<polygon fill="#63b8ff" stroke="#63b8ff" points="134.6,-59.45 144.1,-54.76 133.75,-52.51 134.6,-59.45"/>
</a>
</g>
</g>
<!-- Node6&#45;&gt;Node3 -->
<g id="edge7_Node000006_Node000003" class="edge">
<title>Node6&#45;&gt;Node3</title>
<g id="a_edge7_Node000006_Node000003"><a xlink:title=" ">
<path fill="none" stroke="#63b8ff" d="M644.1,-79.16C582.27,-76 500.65,-71.83 444.44,-68.96"/>
<polygon fill="#63b8ff" stroke="#63b8ff" points="643.73,-82.65 653.89,-79.66 644.08,-75.66 643.73,-82.65"/>
</a>
</g>
</g>
<!-- Node8 -->
<g id="Node000008" class="node">
<title>Node8</title>
<g id="a_Node000008"><a xlink:href="group__lsm__ruc__group_gaecd085e0caf317dfb807e576fd426dec.html#gaecd085e0caf317dfb807e576fd426dec" target="_top" xlink:title="This subroutine is called for snow covered areas of land. It solves energy and moisture budgets on th...">
<polygon fill="white" stroke="#666666" points="619.75,-56.25 480,-56.25 480,-37 619.75,-37 619.75,-56.25"/>
<text xml:space="preserve" text-anchor="middle" x="549.88" y="-42.75" font-family="Source Sans Pro" font-size="10.00">module_sf_ruclsm::snowsoil</text>
</a>
</g>
</g>
<!-- Node7&#45;&gt;Node8 -->
<g id="edge9_Node000007_Node000008" class="edge">
<title>Node7&#45;&gt;Node8</title>
<g id="a_edge9_Node000007_Node000008"><a xlink:title=" ">
<path fill="none" stroke="#63b8ff" d="M647.3,-46.62C638.2,-46.62 629.03,-46.62 620.14,-46.62"/>
<polygon fill="#63b8ff" stroke="#63b8ff" points="647.23,-50.13 657.23,-46.63 647.23,-43.13 647.23,-50.13"/>
</a>
</g>
</g>
<!-- Node8&#45;&gt;Node3 -->
<g id="edge10_Node000008_Node000003" class="edge">
<title>Node8&#45;&gt;Node3</title>
<g id="a_edge10_Node000008_Node000003"><a xlink:title=" ">
<path fill="none" stroke="#63b8ff" d="M468.5,-55.63C460.41,-56.53 452.25,-57.45 444.35,-58.33"/>
<polygon fill="#63b8ff" stroke="#63b8ff" points="468.83,-59.11 478.38,-54.52 468.05,-52.16 468.83,-59.11"/>
</a>
</g>
</g>
<!-- Node10 -->
<g id="Node000010" class="node">
<title>Node10</title>
<g id="a_Node000010"><a xlink:href="group__lsm__ruc__group_gaec10146a1f142cfc8ec2126fa1d54702.html#gaec10146a1f142cfc8ec2126fa1d54702" target="_top" xlink:title="This subroutine calculates energy and moisture budget for vegetated surfaces without snow,...">
<polygon fill="white" stroke="#666666" points="608.12,-19.25 491.62,-19.25 491.62,0 608.12,0 608.12,-19.25"/>
<text xml:space="preserve" text-anchor="middle" x="549.88" y="-5.75" font-family="Source Sans Pro" font-size="10.00">module_sf_ruclsm::soil</text>
</a>
</g>
</g>
<!-- Node9&#45;&gt;Node10 -->
<g id="edge12_Node000009_Node000010" class="edge">
<title>Node9&#45;&gt;Node10</title>
<g id="a_edge12_Node000009_Node000010"><a xlink:title=" ">
<path fill="none" stroke="#63b8ff" d="M651.38,-9.62C636.92,-9.62 622.1,-9.62 608.44,-9.62"/>
<polygon fill="#63b8ff" stroke="#63b8ff" points="651.36,-13.13 661.36,-9.63 651.36,-6.13 651.36,-13.13"/>
</a>
</g>
</g>
<!-- Node10&#45;&gt;Node3 -->
<g id="edge13_Node000010_Node000003" class="edge">
<title>Node10&#45;&gt;Node3</title>
<g id="a_edge13_Node000010_Node000003"><a xlink:title=" ">
<path fill="none" stroke="#63b8ff" d="M496.7,-22.64C491.04,-24.24 485.38,-25.91 480,-27.62 453.64,-36.02 424.08,-47.41 403.84,-55.52"/>
<polygon fill="#63b8ff" stroke="#63b8ff" points="497.34,-26.09 506.06,-20.08 495.49,-19.34 497.34,-26.09"/>
</a>
</g>
</g>
</g>
</svg>
