<?xml version="1.0" encoding="UTF-8" standalone="no"?>
<!DOCTYPE svg PUBLIC "-//W3C//DTD SVG 1.1//EN"
 "http://www.w3.org/Graphics/SVG/1.1/DTD/svg11.dtd">
<!-- Generated by graphviz version 14.1.2 (20260124.0452)
 -->
<!-- Title: module_nst_water_prop::get_dtzm_2d Pages: 1 -->
<svg width="274pt" height="88pt"
 viewBox="0.00 0.00 274.00 88.00" xmlns="http://www.w3.org/2000/svg" xmlns:xlink="http://www.w3.org/1999/xlink">
<g id="graph0" class="graph" transform="scale(1 1) rotate(0) translate(4 83.5)">
<title>module_nst_water_prop::get_dtzm_2d</title>
<!-- Node1 -->
<g id="Node000001" class="node">
<title>Node1</title>
<g id="a_Node000001"><a xlink:title=" ">
<polygon fill="#999999" stroke="#666666" points="266,-54.5 146.5,-54.5 146.5,-24 266,-24 266,-54.5"/>
<text xml:space="preserve" text-anchor="start" x="154.5" y="-41" font-family="Source Sans Pro" font-size="10.00">module_nst_water_prop</text>
<text xml:space="preserve" text-anchor="middle" x="206.25" y="-29.75" font-family="Source Sans Pro" font-size="10.00">::get_dtzm_2d</text>
</a>
</g>
</g>
<!-- Node2 -->
<g id="Node000002" class="node">
<title>Node2</title>
<g id="a_Node000002"><a xlink:href="namespacesfc__nst__post_ad2f762c60bd291d0337d7be908eb222c.html#ad2f762c60bd291d0337d7be908eb222c" target="_top" xlink:title=" ">
<polygon fill="white" stroke="#666666" points="110.5,-79.5 0,-79.5 0,-49 110.5,-49 110.5,-79.5"/>
<text xml:space="preserve" text-anchor="start" x="8" y="-66" font-family="Source Sans Pro" font-size="10.00">sfc_nst_post::sfc_nst</text>
<text xml:space="preserve" text-anchor="middle" x="55.25" y="-54.75" font-family="Source Sans Pro" font-size="10.00">_post_run</text>
</a>
</g>
</g>
<!-- Node1&#45;&gt;Node2 -->
<g id="edge1_Node000001_Node000002" class="edge">
<title>Node1&#45;&gt;Node2</title>
<g id="a_edge1_Node000001_Node000002"><a xlink:title=" ">
<path fill="none" stroke="#63b8ff" d="M135.26,-50.99C127.06,-52.37 118.78,-53.76 110.83,-55.09"/>
<polygon fill="#63b8ff" stroke="#63b8ff" points="135.59,-54.49 144.87,-49.38 134.43,-47.58 135.59,-54.49"/>
</a>
</g>
</g>
<!-- Node3 -->
<g id="Node000003" class="node">
<title>Node3</title>
<g id="a_Node000003"><a xlink:href="namespacesfc__nst__pre_a92c99209f0e17389249753001ae756b7.html#a92c99209f0e17389249753001ae756b7" target="_top" xlink:title=" ">
<polygon fill="white" stroke="#666666" points="107.88,-30.5 2.62,-30.5 2.62,0 107.88,0 107.88,-30.5"/>
<text xml:space="preserve" text-anchor="start" x="10.62" y="-17" font-family="Source Sans Pro" font-size="10.00">sfc_nst_pre::sfc_nst</text>
<text xml:space="preserve" text-anchor="middle" x="55.25" y="-5.75" font-family="Source Sans Pro" font-size="10.00">_pre_run</text>
</a>
</g>
</g>
<!-- Node1&#45;&gt;Node3 -->
<g id="edge2_Node000001_Node000003" class="edge">
<title>Node1&#45;&gt;Node3</title>
<g id="a_edge2_Node000001_Node000003"><a xlink:title=" ">
<path fill="none" stroke="#63b8ff" d="M135.24,-27.97C126.05,-26.49 116.77,-25 107.96,-23.58"/>
<polygon fill="#63b8ff" stroke="#63b8ff" points="134.44,-31.39 144.87,-29.52 135.55,-24.48 134.44,-31.39"/>
</a>
</g>
</g>
</g>
</svg>
