<?xml version="1.0" encoding="UTF-8" standalone="no"?>
<!DOCTYPE svg PUBLIC "-//W3C//DTD SVG 1.1//EN"
 "http://www.w3.org/Graphics/SVG/1.1/DTD/svg11.dtd">
<!-- Generated by graphviz version 14.1.2 (20260124.0452)
 -->
<!-- Title: noahmp_glacier_routines::noahmp_glacier Pages: 1 -->
<svg width="932pt" height="735pt"
 viewBox="0.00 0.00 932.00 735.00" xmlns="http://www.w3.org/2000/svg" xmlns:xlink="http://www.w3.org/1999/xlink">
<g id="graph0" class="graph" transform="scale(1 1) rotate(0) translate(4 731.02)">
<title>noahmp_glacier_routines::noahmp_glacier</title>
<!-- Node1 -->
<g id="Node000001" class="node">
<title>Node1</title>
<g id="a_Node000001"><a xlink:title=" ">
<polygon fill="#999999" stroke="#666666" points="124,-405.65 0,-405.65 0,-375.15 124,-375.15 124,-405.65"/>
<text xml:space="preserve" text-anchor="start" x="8" y="-392.15" font-family="Source Sans Pro" font-size="10.00">noahmp_glacier_routines</text>
<text xml:space="preserve" text-anchor="middle" x="62" y="-380.9" font-family="Source Sans Pro" font-size="10.00">::noahmp_glacier</text>
</a>
</g>
</g>
<!-- Node2 -->
<g id="Node000002" class="node">
<title>Node2</title>
<g id="a_Node000002"><a xlink:href="group___noah_m_p___l_s_m_ga9d5adb20aca5b72a7e126136088e20d1.html#ga9d5adb20aca5b72a7e126136088e20d1" target="_top" xlink:title="surface albedos. also fluxes (per unit incoming direct and diffuse radiation) reflected,...">
<polygon fill="white" stroke="#666666" points="244.25,-634.02 199.75,-634.02 199.75,-614.77 244.25,-614.77 244.25,-634.02"/>
<text xml:space="preserve" text-anchor="middle" x="222" y="-620.52" font-family="Source Sans Pro" font-size="10.00">albedo</text>
</a>
</g>
</g>
<!-- Node1&#45;&gt;Node2 -->
<g id="edge1_Node000001_Node000002" class="edge">
<title>Node1&#45;&gt;Node2</title>
<g id="a_edge1_Node000001_Node000002"><a xlink:title=" ">
<path fill="none" stroke="#63b8ff" d="M73.61,-406.12C101.6,-447.56 177.36,-559.76 207.94,-605.05"/>
<polygon fill="#63b8ff" stroke="#63b8ff" points="204.87,-606.77 213.37,-613.1 210.67,-602.85 204.87,-606.77"/>
</a>
</g>
</g>
<!-- Node8 -->
<g id="Node000008" class="node">
<title>Node8</title>
<g id="a_Node000008"><a xlink:href="group___noah_m_p___l_s_m_ga17573a155ef5f06ca4f81e8a35b8f22e.html#ga17573a155ef5f06ca4f81e8a35b8f22e" target="_top" xlink:title="re&#45;process atmospheric forcing">
<polygon fill="white" stroke="#666666" points="284,-454.65 160,-454.65 160,-424.15 284,-424.15 284,-454.65"/>
<text xml:space="preserve" text-anchor="start" x="168" y="-441.15" font-family="Source Sans Pro" font-size="10.00">noahmp_glacier_routines</text>
<text xml:space="preserve" text-anchor="middle" x="222" y="-429.9" font-family="Source Sans Pro" font-size="10.00">::atm_glacier</text>
</a>
</g>
</g>
<!-- Node1&#45;&gt;Node8 -->
<g id="edge7_Node000001_Node000008" class="edge">
<title>Node1&#45;&gt;Node8</title>
<g id="a_edge7_Node000001_Node000008"><a xlink:title=" ">
<path fill="none" stroke="#63b8ff" d="M113.43,-406.04C128.03,-410.57 144.15,-415.56 159.36,-420.28"/>
<polygon fill="#63b8ff" stroke="#63b8ff" points="158.21,-423.59 168.79,-423.21 160.28,-416.9 158.21,-423.59"/>
</a>
</g>
</g>
<!-- Node9 -->
<g id="Node000009" class="node">
<title>Node9</title>
<g id="a_Node000009"><a xlink:href="group___noah_m_p___l_s_m_ga93dd9aedd32004c8cf2c88c222073c6a.html#ga93dd9aedd32004c8cf2c88c222073c6a" target="_top" xlink:title="Compute energy budget (momentum &amp; energy fluxes and phase changes).">
<polygon fill="white" stroke="#666666" points="284,-405.65 160,-405.65 160,-375.15 284,-375.15 284,-405.65"/>
<text xml:space="preserve" text-anchor="start" x="168" y="-392.15" font-family="Source Sans Pro" font-size="10.00">noahmp_glacier_routines</text>
<text xml:space="preserve" text-anchor="middle" x="222" y="-380.9" font-family="Source Sans Pro" font-size="10.00">::energy_glacier</text>
</a>
</g>
</g>
<!-- Node1&#45;&gt;Node9 -->
<g id="edge8_Node000001_Node000009" class="edge">
<title>Node1&#45;&gt;Node9</title>
<g id="a_edge8_Node000001_Node000009"><a xlink:title=" ">
<path fill="none" stroke="#63b8ff" d="M124.09,-390.4C132,-390.4 140.16,-390.4 148.23,-390.4"/>
<polygon fill="#63b8ff" stroke="#63b8ff" points="148.04,-393.9 158.04,-390.4 148.04,-386.9 148.04,-393.9"/>
</a>
</g>
</g>
<!-- Node30 -->
<g id="Node000030" class="node">
<title>Node30</title>
<g id="a_Node000030"><a xlink:href="group___noah_m_p___l_s_m_ga66e01db7fffd36858b38bc8a61de48db.html#ga66e01db7fffd36858b38bc8a61de48db" target="_top" xlink:title=" ">
<polygon fill="white" stroke="#666666" points="284,-356.65 160,-356.65 160,-326.15 284,-326.15 284,-356.65"/>
<text xml:space="preserve" text-anchor="start" x="168" y="-343.15" font-family="Source Sans Pro" font-size="10.00">noahmp_glacier_routines</text>
<text xml:space="preserve" text-anchor="middle" x="222" y="-331.9" font-family="Source Sans Pro" font-size="10.00">::error_glacier</text>
</a>
</g>
</g>
<!-- Node1&#45;&gt;Node30 -->
<g id="edge29_Node000001_Node000030" class="edge">
<title>Node1&#45;&gt;Node30</title>
<g id="a_edge29_Node000001_Node000030"><a xlink:title=" ">
<path fill="none" stroke="#63b8ff" d="M113.43,-374.76C128.03,-370.23 144.15,-365.23 159.36,-360.52"/>
<polygon fill="#63b8ff" stroke="#63b8ff" points="160.28,-363.89 168.79,-357.59 158.21,-357.21 160.28,-363.89"/>
</a>
</g>
</g>
<!-- Node31 -->
<g id="Node000031" class="node">
<title>Node31</title>
<g id="a_Node000031"><a xlink:href="group___noah_m_p___l_s_m_ga7f8fc6fe269c4c0666edaf50859bfbce.html#ga7f8fc6fe269c4c0666edaf50859bfbce" target="_top" xlink:title=" ">
<polygon fill="white" stroke="#666666" points="284,-237.65 160,-237.65 160,-207.15 284,-207.15 284,-237.65"/>
<text xml:space="preserve" text-anchor="start" x="168" y="-224.15" font-family="Source Sans Pro" font-size="10.00">noahmp_glacier_routines</text>
<text xml:space="preserve" text-anchor="middle" x="222" y="-212.9" font-family="Source Sans Pro" font-size="10.00">::water_glacier</text>
</a>
</g>
</g>
<!-- Node1&#45;&gt;Node31 -->
<g id="edge30_Node000001_Node000031" class="edge">
<title>Node1&#45;&gt;Node31</title>
<g id="a_edge30_Node000001_Node000031"><a xlink:title=" ">
<path fill="none" stroke="#63b8ff" d="M77.58,-374.89C105.33,-345.39 165.89,-281 198.74,-246.07"/>
<polygon fill="#63b8ff" stroke="#63b8ff" points="201.12,-248.65 205.42,-238.97 196.02,-243.85 201.12,-248.65"/>
</a>
</g>
</g>
<!-- Node3 -->
<g id="Node000003" class="node">
<title>Node3</title>
<g id="a_Node000003"><a xlink:href="group___noah_m_p___l_s_m_ga497b40d27709666f17da3e555f8628a1.html#ga497b40d27709666f17da3e555f8628a1" target="_top" xlink:title="ground surface albedo">
<polygon fill="white" stroke="#666666" points="411,-690.02 353,-690.02 353,-670.77 411,-670.77 411,-690.02"/>
<text xml:space="preserve" text-anchor="middle" x="382" y="-676.52" font-family="Source Sans Pro" font-size="10.00">groundalb</text>
</a>
</g>
</g>
<!-- Node2&#45;&gt;Node3 -->
<g id="edge2_Node000002_Node000003" class="edge">
<title>Node2&#45;&gt;Node3</title>
<g id="a_edge2_Node000002_Node000003"><a xlink:title=" ">
<path fill="none" stroke="#63b8ff" d="M244.38,-633.39C263.9,-641.45 293.65,-653.37 320,-662.4 326.92,-664.77 334.35,-667.12 341.56,-669.3"/>
<polygon fill="#63b8ff" stroke="#63b8ff" points="340.56,-672.66 351.14,-672.14 342.55,-665.95 340.56,-672.66"/>
</a>
</g>
</g>
<!-- Node4 -->
<g id="Node000004" class="node">
<title>Node4</title>
<g id="a_Node000004"><a xlink:href="group___noah_m_p___l_s_m_ga748c587c5dc0a38a1793042e92952d43.html#ga748c587c5dc0a38a1793042e92952d43" target="_top" xlink:title=" ">
<polygon fill="white" stroke="#666666" points="412.12,-653.02 351.88,-653.02 351.88,-633.77 412.12,-633.77 412.12,-653.02"/>
<text xml:space="preserve" text-anchor="middle" x="382" y="-639.52" font-family="Source Sans Pro" font-size="10.00">snow_age</text>
</a>
</g>
</g>
<!-- Node2&#45;&gt;Node4 -->
<g id="edge3_Node000002_Node000004" class="edge">
<title>Node2&#45;&gt;Node4</title>
<g id="a_edge3_Node000002_Node000004"><a xlink:title=" ">
<path fill="none" stroke="#63b8ff" d="M244.64,-627C269.22,-629.96 309.88,-634.85 340.41,-638.52"/>
<polygon fill="#63b8ff" stroke="#63b8ff" points="339.72,-641.96 350.06,-639.68 340.55,-635.01 339.72,-641.96"/>
</a>
</g>
</g>
<!-- Node5 -->
<g id="Node000005" class="node">
<title>Node5</title>
<g id="a_Node000005"><a xlink:href="group___noah_m_p___l_s_m_ga238debe3053962b0b33a5e846e333701.html#ga238debe3053962b0b33a5e846e333701" target="_top" xlink:title="bats snow surface albedo">
<polygon fill="white" stroke="#666666" points="420,-616.02 344,-616.02 344,-596.77 420,-596.77 420,-616.02"/>
<text xml:space="preserve" text-anchor="middle" x="382" y="-602.52" font-family="Source Sans Pro" font-size="10.00">snowalb_bats</text>
</a>
</g>
</g>
<!-- Node2&#45;&gt;Node5 -->
<g id="edge4_Node000002_Node000005" class="edge">
<title>Node2&#45;&gt;Node5</title>
<g id="a_edge4_Node000002_Node000005"><a xlink:title=" ">
<path fill="none" stroke="#63b8ff" d="M244.64,-621.93C267.1,-619.37 302.97,-615.29 332.29,-611.95"/>
<polygon fill="#63b8ff" stroke="#63b8ff" points="332.53,-615.44 342.07,-610.83 331.74,-608.49 332.53,-615.44"/>
</a>
</g>
</g>
<!-- Node6 -->
<g id="Node000006" class="node">
<title>Node6</title>
<g id="a_Node000006"><a xlink:href="group___noah_m_p___l_s_m_ga2ea2346edd6f426f30dcc99085def5cf.html#ga2ea2346edd6f426f30dcc99085def5cf" target="_top" xlink:title="class snow surface albedo">
<polygon fill="white" stroke="#666666" points="422.25,-579.02 341.75,-579.02 341.75,-559.77 422.25,-559.77 422.25,-579.02"/>
<text xml:space="preserve" text-anchor="middle" x="382" y="-565.52" font-family="Source Sans Pro" font-size="10.00">snowalb_class</text>
</a>
</g>
</g>
<!-- Node2&#45;&gt;Node6 -->
<g id="edge5_Node000002_Node000006" class="edge">
<title>Node2&#45;&gt;Node6</title>
<g id="a_edge5_Node000002_Node000006"><a xlink:title=" ">
<path fill="none" stroke="#63b8ff" d="M244.4,-615.69C263.94,-607.86 293.7,-596.28 320,-587.4 324.66,-585.83 329.54,-584.26 334.43,-582.74"/>
<polygon fill="#63b8ff" stroke="#63b8ff" points="335.05,-586.2 343.6,-579.94 333.02,-579.51 335.05,-586.2"/>
</a>
</g>
</g>
<!-- Node7 -->
<g id="Node000007" class="node">
<title>Node7</title>
<g id="a_Node000007"><a xlink:href="group___noah_m_p___l_s_m_gaa737a61978bde4dc6363e11263999769.html#gaa737a61978bde4dc6363e11263999769" target="_top" xlink:title="use two&#45;stream approximation of Dickinson (1983) adv geophysics 25: 305&#45;353 and sellers (1985) int j ...">
<polygon fill="white" stroke="#666666" points="412.88,-727.02 351.12,-727.02 351.12,-707.77 412.88,-707.77 412.88,-727.02"/>
<text xml:space="preserve" text-anchor="middle" x="382" y="-713.52" font-family="Source Sans Pro" font-size="10.00">twostream</text>
</a>
</g>
</g>
<!-- Node2&#45;&gt;Node7 -->
<g id="edge6_Node000002_Node000007" class="edge">
<title>Node2&#45;&gt;Node7</title>
<g id="a_edge6_Node000002_Node000007"><a xlink:title=" ">
<path fill="none" stroke="#63b8ff" d="M233.15,-634.37C249.89,-650.29 284.93,-681.47 320,-699.4 326.26,-702.6 333.18,-705.32 340.04,-707.6"/>
<polygon fill="#63b8ff" stroke="#63b8ff" points="338.64,-710.83 349.22,-710.39 340.68,-704.14 338.64,-710.83"/>
</a>
</g>
</g>
<!-- Node10 -->
<g id="Node000010" class="node">
<title>Node10</title>
<g id="a_Node000010"><a xlink:href="group___noah_m_p___l_s_m_gaf512c10513f75c077220936b2ca74c42.html#gaf512c10513f75c077220936b2ca74c42" target="_top" xlink:title="use newton&#45;raphson iteration to solve ground (tg) temperature that balances the surface energy budget...">
<polygon fill="white" stroke="#666666" points="444,-463.65 320,-463.65 320,-433.15 444,-433.15 444,-463.65"/>
<text xml:space="preserve" text-anchor="start" x="328" y="-450.15" font-family="Source Sans Pro" font-size="10.00">noahmp_glacier_routines</text>
<text xml:space="preserve" text-anchor="middle" x="382" y="-438.9" font-family="Source Sans Pro" font-size="10.00">::glacier_flux</text>
</a>
</g>
</g>
<!-- Node9&#45;&gt;Node10 -->
<g id="edge9_Node000009_Node000010" class="edge">
<title>Node9&#45;&gt;Node10</title>
<g id="a_edge9_Node000009_Node000010"><a xlink:title=" ">
<path fill="none" stroke="#63b8ff" d="M265.76,-406.09C284.81,-413.09 307.46,-421.4 327.62,-428.8"/>
<polygon fill="#63b8ff" stroke="#63b8ff" points="326.19,-432.01 336.79,-432.17 328.61,-425.44 326.19,-432.01"/>
</a>
</g>
</g>
<!-- Node19 -->
<g id="Node000019" class="node">
<title>Node19</title>
<g id="a_Node000019"><a xlink:href="group___noah_m_p___l_s_m_ga827b1816e6e9afd09680b5d7fa3b010e.html#ga827b1816e6e9afd09680b5d7fa3b010e" target="_top" xlink:title=" ">
<polygon fill="white" stroke="#666666" points="444,-405.65 320,-405.65 320,-375.15 444,-375.15 444,-405.65"/>
<text xml:space="preserve" text-anchor="start" x="328" y="-392.15" font-family="Source Sans Pro" font-size="10.00">noahmp_glacier_routines</text>
<text xml:space="preserve" text-anchor="middle" x="382" y="-380.9" font-family="Source Sans Pro" font-size="10.00">::phasechange_glacier</text>
</a>
</g>
</g>
<!-- Node9&#45;&gt;Node19 -->
<g id="edge18_Node000009_Node000019" class="edge">
<title>Node9&#45;&gt;Node19</title>
<g id="a_edge18_Node000009_Node000019"><a xlink:title=" ">
<path fill="none" stroke="#63b8ff" d="M284.09,-390.4C292,-390.4 300.16,-390.4 308.23,-390.4"/>
<polygon fill="#63b8ff" stroke="#63b8ff" points="308.04,-393.9 318.04,-390.4 308.04,-386.9 308.04,-393.9"/>
</a>
</g>
</g>
<!-- Node20 -->
<g id="Node000020" class="node">
<title>Node20</title>
<g id="a_Node000020"><a xlink:href="group___noah_m_p___l_s_m_ga7ad0f73530d119a7f827a4aaa8a9b393.html#ga7ad0f73530d119a7f827a4aaa8a9b393" target="_top" xlink:title="Compute solar radiation: absorbed &amp; reflected by the ground.">
<polygon fill="white" stroke="#666666" points="444,-338.65 320,-338.65 320,-308.15 444,-308.15 444,-338.65"/>
<text xml:space="preserve" text-anchor="start" x="328" y="-325.15" font-family="Source Sans Pro" font-size="10.00">noahmp_glacier_routines</text>
<text xml:space="preserve" text-anchor="middle" x="382" y="-313.9" font-family="Source Sans Pro" font-size="10.00">::radiation_glacier</text>
</a>
</g>
</g>
<!-- Node9&#45;&gt;Node20 -->
<g id="edge19_Node000009_Node000020" class="edge">
<title>Node9&#45;&gt;Node20</title>
<g id="a_edge19_Node000009_Node000020"><a xlink:title=" ">
<path fill="none" stroke="#63b8ff" d="M261.44,-374.78C268.94,-371.69 276.72,-368.46 284,-365.4 300.65,-358.38 318.83,-350.55 334.91,-343.57"/>
<polygon fill="#63b8ff" stroke="#63b8ff" points="335.98,-346.93 343.75,-339.73 333.19,-340.51 335.98,-346.93"/>
</a>
</g>
</g>
<!-- Node24 -->
<g id="Node000024" class="node">
<title>Node24</title>
<g id="a_Node000024"><a xlink:href="group___noah_m_p___l_s_m_ga2282179d290ca1b1610198040782accb.html#ga2282179d290ca1b1610198040782accb" target="_top" xlink:title="calculate thermal properties of soil, snow, lake, and frozen soil.">
<polygon fill="white" stroke="#666666" points="444,-262.65 320,-262.65 320,-232.15 444,-232.15 444,-262.65"/>
<text xml:space="preserve" text-anchor="start" x="328" y="-249.15" font-family="Source Sans Pro" font-size="10.00">noahmp_glacier_routines</text>
<text xml:space="preserve" text-anchor="middle" x="382" y="-237.9" font-family="Source Sans Pro" font-size="10.00">::thermoprop_glacier</text>
</a>
</g>
</g>
<!-- Node9&#45;&gt;Node24 -->
<g id="edge23_Node000009_Node000024" class="edge">
<title>Node9&#45;&gt;Node24</title>
<g id="a_edge23_Node000009_Node000024"><a xlink:title=" ">
<path fill="none" stroke="#63b8ff" d="M270.57,-374.79C275.4,-372.1 279.99,-368.99 284,-365.4 308.89,-343.11 298.94,-325.34 320,-299.4 328.69,-288.7 339.78,-278.5 350.11,-270.02"/>
<polygon fill="#63b8ff" stroke="#63b8ff" points="352.08,-272.93 357.74,-263.97 347.73,-267.44 352.08,-272.93"/>
</a>
</g>
</g>
<!-- Node26 -->
<g id="Node000026" class="node">
<title>Node26</title>
<g id="a_Node000026"><a xlink:href="group___noah_m_p___l_s_m_ga476f265b4772bd2ad7825e02a29e32cd.html#ga476f265b4772bd2ad7825e02a29e32cd" target="_top" xlink:title=" ">
<polygon fill="white" stroke="#666666" points="444,-541.65 320,-541.65 320,-511.15 444,-511.15 444,-541.65"/>
<text xml:space="preserve" text-anchor="start" x="328" y="-528.15" font-family="Source Sans Pro" font-size="10.00">noahmp_glacier_routines</text>
<text xml:space="preserve" text-anchor="middle" x="382" y="-516.9" font-family="Source Sans Pro" font-size="10.00">::tsnosoi_glacier</text>
</a>
</g>
</g>
<!-- Node9&#45;&gt;Node26 -->
<g id="edge25_Node000009_Node000026" class="edge">
<title>Node9&#45;&gt;Node26</title>
<g id="a_edge25_Node000009_Node000026"><a xlink:title=" ">
<path fill="none" stroke="#63b8ff" d="M270.04,-406.1C275.02,-408.78 279.79,-411.87 284,-415.4 306.95,-434.66 300.59,-449.57 320,-472.4 329.45,-483.51 341.18,-494.43 351.83,-503.51"/>
<polygon fill="#63b8ff" stroke="#63b8ff" points="349.35,-506 359.28,-509.71 353.83,-500.62 349.35,-506"/>
</a>
</g>
</g>
<!-- Node11 -->
<g id="Node000011" class="node">
<title>Node11</title>
<g id="a_Node000011"><a xlink:href="group___noah_m_p___l_s_m_ga198a78cba7dcb5d138ee9f2896b932ff.html#ga198a78cba7dcb5d138ee9f2896b932ff" target="_top" xlink:title=" ">
<polygon fill="white" stroke="#666666" points="604,-517.65 480,-517.65 480,-487.15 604,-487.15 604,-517.65"/>
<text xml:space="preserve" text-anchor="start" x="488" y="-504.15" font-family="Source Sans Pro" font-size="10.00">noahmp_glacier_routines</text>
<text xml:space="preserve" text-anchor="middle" x="542" y="-492.9" font-family="Source Sans Pro" font-size="10.00">::esat</text>
</a>
</g>
</g>
<!-- Node10&#45;&gt;Node11 -->
<g id="edge10_Node000010_Node000011" class="edge">
<title>Node10&#45;&gt;Node11</title>
<g id="a_edge10_Node000010_Node000011"><a xlink:title=" ">
<path fill="none" stroke="#63b8ff" d="M428.7,-464.02C446.07,-469.95 466.06,-476.79 484.32,-483.03"/>
<polygon fill="#63b8ff" stroke="#63b8ff" points="483.1,-486.31 493.7,-486.23 485.37,-479.69 483.1,-486.31"/>
</a>
</g>
</g>
<!-- Node12 -->
<g id="Node000012" class="node">
<title>Node12</title>
<g id="a_Node000012"><a xlink:href="group___noah_m_p___l_s_m_ga3233db40fc83f01063964817c22944ac.html#ga3233db40fc83f01063964817c22944ac" target="_top" xlink:title="compute surface drag coefficient cm for momentum and ch for heat">
<polygon fill="white" stroke="#666666" points="604,-468.65 480,-468.65 480,-438.15 604,-438.15 604,-468.65"/>
<text xml:space="preserve" text-anchor="start" x="488" y="-455.15" font-family="Source Sans Pro" font-size="10.00">noahmp_glacier_routines</text>
<text xml:space="preserve" text-anchor="middle" x="542" y="-443.9" font-family="Source Sans Pro" font-size="10.00">::sfcdif1_glacier</text>
</a>
</g>
</g>
<!-- Node10&#45;&gt;Node12 -->
<g id="edge11_Node000010_Node000012" class="edge">
<title>Node10&#45;&gt;Node12</title>
<g id="a_edge11_Node000010_Node000012"><a xlink:title=" ">
<path fill="none" stroke="#63b8ff" d="M444.09,-450.33C452,-450.58 460.16,-450.84 468.23,-451.1"/>
<polygon fill="#63b8ff" stroke="#63b8ff" points="467.94,-454.59 478.04,-451.41 468.16,-447.59 467.94,-454.59"/>
</a>
</g>
</g>
<!-- Node13 -->
<g id="Node000013" class="node">
<title>Node13</title>
<g id="a_Node000013"><a xlink:href="group___noah_m_p___l_s_m_ga4a88258da12057ced7c9dc5760b53d13.html#ga4a88258da12057ced7c9dc5760b53d13" target="_top" xlink:title=" ">
<polygon fill="white" stroke="#666666" points="564.62,-420.02 519.38,-420.02 519.38,-400.77 564.62,-400.77 564.62,-420.02"/>
<text xml:space="preserve" text-anchor="middle" x="542" y="-406.52" font-family="Source Sans Pro" font-size="10.00">sfcdif4</text>
</a>
</g>
</g>
<!-- Node10&#45;&gt;Node13 -->
<g id="edge12_Node000010_Node000013" class="edge">
<title>Node10&#45;&gt;Node13</title>
<g id="a_edge12_Node000010_Node000013"><a xlink:title=" ">
<path fill="none" stroke="#63b8ff" d="M444.09,-433.71C465.85,-428.47 489.52,-422.78 508.02,-418.33"/>
<polygon fill="#63b8ff" stroke="#63b8ff" points="508.71,-421.77 517.61,-416.02 507.07,-414.96 508.71,-421.77"/>
</a>
</g>
</g>
<!-- Node14 -->
<g id="Node000014" class="node">
<title>Node14</title>
<g id="a_Node000014"><a xlink:href="group__mynn__sfc_gab8e348eef161b16bada8841a900501c2.html#gab8e348eef161b16bada8841a900501c2" target="_top" xlink:title="this is taken from andreas (2002; j. of hydromet) and andreas et al. (2005; blm).">
<polygon fill="white" stroke="#666666" points="740.38,-420.02 663.62,-420.02 663.62,-400.77 740.38,-400.77 740.38,-420.02"/>
<text xml:space="preserve" text-anchor="middle" x="702" y="-406.52" font-family="Source Sans Pro" font-size="10.00">andreas_2002</text>
</a>
</g>
</g>
<!-- Node13&#45;&gt;Node14 -->
<g id="edge13_Node000013_Node000014" class="edge">
<title>Node13&#45;&gt;Node14</title>
<g id="a_edge13_Node000013_Node000014"><a xlink:title=" ">
<path fill="none" stroke="#63b8ff" d="M564.97,-410.4C587.43,-410.4 623.05,-410.4 652.21,-410.4"/>
<polygon fill="#63b8ff" stroke="#63b8ff" points="651.92,-413.9 661.92,-410.4 651.92,-406.9 651.92,-413.9"/>
</a>
</g>
</g>
<!-- Node15 -->
<g id="Node000015" class="node">
<title>Node15</title>
<g id="a_Node000015"><a xlink:href="group___noah_m_p___l_s_m_ga88dbf6bdf1a8097e27b06ddfce89516c.html#ga88dbf6bdf1a8097e27b06ddfce89516c" target="_top" xlink:title="data. the formula for land uses a constant ratio (z_0/7.4) taken from garratt (1992).">
<polygon fill="white" stroke="#666666" points="737,-383.02 667,-383.02 667,-363.77 737,-363.77 737,-383.02"/>
<text xml:space="preserve" text-anchor="middle" x="702" y="-369.52" font-family="Source Sans Pro" font-size="10.00">garratt_1992</text>
</a>
</g>
</g>
<!-- Node13&#45;&gt;Node15 -->
<g id="edge14_Node000013_Node000015" class="edge">
<title>Node13&#45;&gt;Node15</title>
<g id="a_edge14_Node000013_Node000015"><a xlink:title=" ">
<path fill="none" stroke="#63b8ff" d="M564.97,-405.25C588.35,-399.78 626.01,-390.96 655.78,-383.99"/>
<polygon fill="#63b8ff" stroke="#63b8ff" points="656.35,-387.45 665.29,-381.76 654.75,-380.63 656.35,-387.45"/>
</a>
</g>
</g>
<!-- Node16 -->
<g id="Node000016" class="node">
<title>Node16</title>
<g id="a_Node000016"><a xlink:href="group__mynn__sfc_ga7bbe8445bfcae5adad4fed82a0ecbaee.html#ga7bbe8445bfcae5adad4fed82a0ecbaee" target="_top" xlink:title="this subroutine returns a more robust z/l that best matches the z/l from hogstrom (1996) for unstable...">
<polygon fill="white" stroke="#666666" points="735.88,-346.02 668.12,-346.02 668.12,-326.77 735.88,-326.77 735.88,-346.02"/>
<text xml:space="preserve" text-anchor="middle" x="702" y="-332.52" font-family="Source Sans Pro" font-size="10.00">li_etal_2010</text>
</a>
</g>
</g>
<!-- Node13&#45;&gt;Node16 -->
<g id="edge15_Node000013_Node000016" class="edge">
<title>Node13&#45;&gt;Node16</title>
<g id="a_edge15_Node000013_Node000016"><a xlink:title=" ">
<path fill="none" stroke="#63b8ff" d="M565,-406.33C577.13,-403.43 592.09,-398.71 604,-391.4 623.55,-379.4 620.36,-366.25 640,-354.4 645.26,-351.22 651.11,-348.58 657.05,-346.39"/>
<polygon fill="#63b8ff" stroke="#63b8ff" points="657.87,-349.8 666.29,-343.37 655.7,-343.14 657.87,-349.8"/>
</a>
</g>
</g>
<!-- Node17 -->
<g id="Node000017" class="node">
<title>Node17</title>
<g id="a_Node000017"><a xlink:href="group__mynn__sfc_ga25595438cdc181cd5e5e05aa45486a69.html#ga25595438cdc181cd5e5e05aa45486a69" target="_top" xlink:title="this is a modified version of yang et al (2002 qjrms, 2008 jamc) and chen et al (2010,...">
<polygon fill="white" stroke="#666666" points="733.62,-494.02 670.38,-494.02 670.38,-474.77 733.62,-474.77 733.62,-494.02"/>
<text xml:space="preserve" text-anchor="middle" x="702" y="-480.52" font-family="Source Sans Pro" font-size="10.00">yang_2008</text>
</a>
</g>
</g>
<!-- Node13&#45;&gt;Node17 -->
<g id="edge16_Node000013_Node000017" class="edge">
<title>Node13&#45;&gt;Node17</title>
<g id="a_edge16_Node000013_Node000017"><a xlink:title=" ">
<path fill="none" stroke="#63b8ff" d="M565,-414.46C577.13,-417.37 592.09,-422.09 604,-429.4 623.55,-441.4 620.36,-454.54 640,-466.4 645.96,-469.99 652.67,-472.91 659.42,-475.26"/>
<polygon fill="#63b8ff" stroke="#63b8ff" points="657.9,-478.46 668.49,-478.07 659.97,-471.77 657.9,-478.46"/>
</a>
</g>
</g>
<!-- Node18 -->
<g id="Node000018" class="node">
<title>Node18</title>
<g id="a_Node000018"><a xlink:href="group___noah_m_p___l_s_m_gaa1453a4f904aa171ea91510f464824b3.html#gaa1453a4f904aa171ea91510f464824b3" target="_top" xlink:title=" ">
<polygon fill="white" stroke="#666666" points="748.62,-457.02 655.38,-457.02 655.38,-437.77 748.62,-437.77 748.62,-457.02"/>
<text xml:space="preserve" text-anchor="middle" x="702" y="-443.52" font-family="Source Sans Pro" font-size="10.00">zilitinkevich_1995</text>
</a>
</g>
</g>
<!-- Node13&#45;&gt;Node18 -->
<g id="edge17_Node000013_Node000018" class="edge">
<title>Node13&#45;&gt;Node18</title>
<g id="a_edge17_Node000013_Node000018"><a xlink:title=" ">
<path fill="none" stroke="#63b8ff" d="M564.97,-415.54C586.08,-420.49 618.82,-428.15 646.89,-434.73"/>
<polygon fill="#63b8ff" stroke="#63b8ff" points="645.78,-438.06 656.31,-436.93 647.37,-431.25 645.78,-438.06"/>
</a>
</g>
</g>
<!-- Node21 -->
<g id="Node000021" class="node">
<title>Node21</title>
<g id="a_Node000021"><a xlink:href="group___noah_m_p___l_s_m_gac231e8b379ab2704f527cafe9a6a92f4.html#gac231e8b379ab2704f527cafe9a6a92f4" target="_top" xlink:title=" ">
<polygon fill="white" stroke="#666666" points="604,-382.65 480,-382.65 480,-352.15 604,-352.15 604,-382.65"/>
<text xml:space="preserve" text-anchor="start" x="488" y="-369.15" font-family="Source Sans Pro" font-size="10.00">noahmp_glacier_routines</text>
<text xml:space="preserve" text-anchor="middle" x="542" y="-357.9" font-family="Source Sans Pro" font-size="10.00">::snow_age_glacier</text>
</a>
</g>
</g>
<!-- Node20&#45;&gt;Node21 -->
<g id="edge20_Node000020_Node000021" class="edge">
<title>Node20&#45;&gt;Node21</title>
<g id="a_edge20_Node000020_Node000021"><a xlink:title=" ">
<path fill="none" stroke="#63b8ff" d="M439.15,-339.04C450.31,-342.14 462.13,-345.43 473.62,-348.63"/>
<polygon fill="#63b8ff" stroke="#63b8ff" points="472.47,-351.95 483.04,-351.26 474.35,-345.2 472.47,-351.95"/>
</a>
</g>
</g>
<!-- Node22 -->
<g id="Node000022" class="node">
<title>Node22</title>
<g id="a_Node000022"><a xlink:href="group___noah_m_p___l_s_m_ga613d1d7c1ed2ae1eef0bef9a893801be.html#ga613d1d7c1ed2ae1eef0bef9a893801be" target="_top" xlink:title=" ">
<polygon fill="white" stroke="#666666" points="604,-333.65 480,-333.65 480,-303.15 604,-303.15 604,-333.65"/>
<text xml:space="preserve" text-anchor="start" x="488" y="-320.15" font-family="Source Sans Pro" font-size="10.00">noahmp_glacier_routines</text>
<text xml:space="preserve" text-anchor="middle" x="542" y="-308.9" font-family="Source Sans Pro" font-size="10.00">::snowalb_bats_glacier</text>
</a>
</g>
</g>
<!-- Node20&#45;&gt;Node22 -->
<g id="edge21_Node000020_Node000022" class="edge">
<title>Node20&#45;&gt;Node22</title>
<g id="a_edge21_Node000020_Node000022"><a xlink:title=" ">
<path fill="none" stroke="#63b8ff" d="M444.09,-321.47C452,-321.21 460.16,-320.96 468.23,-320.7"/>
<polygon fill="#63b8ff" stroke="#63b8ff" points="468.16,-324.21 478.04,-320.39 467.94,-317.21 468.16,-324.21"/>
</a>
</g>
</g>
<!-- Node23 -->
<g id="Node000023" class="node">
<title>Node23</title>
<g id="a_Node000023"><a xlink:href="group___noah_m_p___l_s_m_gabfb2c60fe82d420428209f17e65ddf02.html#gabfb2c60fe82d420428209f17e65ddf02" target="_top" xlink:title=" ">
<polygon fill="white" stroke="#666666" points="604,-284.65 480,-284.65 480,-254.15 604,-254.15 604,-284.65"/>
<text xml:space="preserve" text-anchor="start" x="488" y="-271.15" font-family="Source Sans Pro" font-size="10.00">noahmp_glacier_routines</text>
<text xml:space="preserve" text-anchor="middle" x="542" y="-259.9" font-family="Source Sans Pro" font-size="10.00">::snowalb_class_glacier</text>
</a>
</g>
</g>
<!-- Node20&#45;&gt;Node23 -->
<g id="edge22_Node000020_Node000023" class="edge">
<title>Node20&#45;&gt;Node23</title>
<g id="a_edge22_Node000020_Node000023"><a xlink:title=" ">
<path fill="none" stroke="#63b8ff" d="M428.7,-307.78C446.07,-301.84 466.06,-295.01 484.32,-288.77"/>
<polygon fill="#63b8ff" stroke="#63b8ff" points="485.37,-292.11 493.7,-285.57 483.1,-285.49 485.37,-292.11"/>
</a>
</g>
</g>
<!-- Node25 -->
<g id="Node000025" class="node">
<title>Node25</title>
<g id="a_Node000025"><a xlink:href="group___noah_m_p___l_s_m_ga87a53ef88356626801e6ff98ce939011.html#ga87a53ef88356626801e6ff98ce939011" target="_top" xlink:title="snow bulk density, volumetric capacity, and thermal conductivity">
<polygon fill="white" stroke="#666666" points="604,-235.65 480,-235.65 480,-205.15 604,-205.15 604,-235.65"/>
<text xml:space="preserve" text-anchor="start" x="488" y="-222.15" font-family="Source Sans Pro" font-size="10.00">noahmp_glacier_routines</text>
<text xml:space="preserve" text-anchor="middle" x="542" y="-210.9" font-family="Source Sans Pro" font-size="10.00">::csnow_glacier</text>
</a>
</g>
</g>
<!-- Node24&#45;&gt;Node25 -->
<g id="edge24_Node000024_Node000025" class="edge">
<title>Node24&#45;&gt;Node25</title>
<g id="a_edge24_Node000024_Node000025"><a xlink:title=" ">
<path fill="none" stroke="#63b8ff" d="M444.09,-236.96C452,-235.61 460.16,-234.21 468.23,-232.83"/>
<polygon fill="#63b8ff" stroke="#63b8ff" points="468.79,-236.29 478.06,-231.15 467.62,-229.39 468.79,-236.29"/>
</a>
</g>
</g>
<!-- Node27 -->
<g id="Node000027" class="node">
<title>Node27</title>
<g id="a_Node000027"><a xlink:href="group___noah_m_p___l_s_m_ga3d809b60b84d8ec6f0641d32edac467f.html#ga3d809b60b84d8ec6f0641d32edac467f" target="_top" xlink:title=" ">
<polygon fill="white" stroke="#666666" points="604,-615.65 480,-615.65 480,-585.15 604,-585.15 604,-615.65"/>
<text xml:space="preserve" text-anchor="start" x="488" y="-602.15" font-family="Source Sans Pro" font-size="10.00">noahmp_glacier_routines</text>
<text xml:space="preserve" text-anchor="middle" x="542" y="-590.9" font-family="Source Sans Pro" font-size="10.00">::hrt_glacier</text>
</a>
</g>
</g>
<!-- Node26&#45;&gt;Node27 -->
<g id="edge26_Node000026_Node000027" class="edge">
<title>Node26&#45;&gt;Node27</title>
<g id="a_edge26_Node000026_Node000027"><a xlink:title=" ">
<path fill="none" stroke="#63b8ff" d="M426.55,-542.09C432.52,-544.66 438.48,-547.45 444,-550.4 461.18,-559.58 462.89,-566.09 480,-575.4 482.97,-577.01 486.07,-578.59 489.22,-580.11"/>
<polygon fill="#63b8ff" stroke="#63b8ff" points="487.49,-583.17 498.04,-584.15 490.41,-576.8 487.49,-583.17"/>
</a>
</g>
</g>
<!-- Node28 -->
<g id="Node000028" class="node">
<title>Node28</title>
<g id="a_Node000028"><a xlink:href="group___noah_m_p___l_s_m_gad0ad01a8e6079c118f406348fc829ba8.html#gad0ad01a8e6079c118f406348fc829ba8" target="_top" xlink:title=" ">
<polygon fill="white" stroke="#666666" points="604,-566.65 480,-566.65 480,-536.15 604,-536.15 604,-566.65"/>
<text xml:space="preserve" text-anchor="start" x="488" y="-553.15" font-family="Source Sans Pro" font-size="10.00">noahmp_glacier_routines</text>
<text xml:space="preserve" text-anchor="middle" x="542" y="-541.9" font-family="Source Sans Pro" font-size="10.00">::hstep_glacier</text>
</a>
</g>
</g>
<!-- Node26&#45;&gt;Node28 -->
<g id="edge27_Node000026_Node000028" class="edge">
<title>Node26&#45;&gt;Node28</title>
<g id="a_edge27_Node000026_Node000028"><a xlink:title=" ">
<path fill="none" stroke="#63b8ff" d="M444.09,-536.06C452,-537.32 460.16,-538.61 468.23,-539.88"/>
<polygon fill="#63b8ff" stroke="#63b8ff" points="467.64,-543.33 478.06,-541.44 468.73,-536.42 467.64,-543.33"/>
</a>
</g>
</g>
<!-- Node29 -->
<g id="Node000029" class="node">
<title>Node29</title>
<g id="a_Node000029"><a xlink:href="group___noah_m_p___l_s_m_ga368ca6e0c1bef7000a6325c1c382421b.html#ga368ca6e0c1bef7000a6325c1c382421b" target="_top" xlink:title=" ">
<polygon fill="white" stroke="#666666" points="764,-566.65 640,-566.65 640,-536.15 764,-536.15 764,-566.65"/>
<text xml:space="preserve" text-anchor="start" x="648" y="-553.15" font-family="Source Sans Pro" font-size="10.00">noahmp_glacier_routines</text>
<text xml:space="preserve" text-anchor="middle" x="702" y="-541.9" font-family="Source Sans Pro" font-size="10.00">::rosr12_glacier</text>
</a>
</g>
</g>
<!-- Node28&#45;&gt;Node29 -->
<g id="edge28_Node000028_Node000029" class="edge">
<title>Node28&#45;&gt;Node29</title>
<g id="a_edge28_Node000028_Node000029"><a xlink:title=" ">
<path fill="none" stroke="#63b8ff" d="M604.09,-551.4C612,-551.4 620.16,-551.4 628.23,-551.4"/>
<polygon fill="#63b8ff" stroke="#63b8ff" points="628.04,-554.9 638.04,-551.4 628.04,-547.9 628.04,-554.9"/>
</a>
</g>
</g>
<!-- Node32 -->
<g id="Node000032" class="node">
<title>Node32</title>
<g id="a_Node000032"><a xlink:href="group___noah_m_p___l_s_m_ga7e56aa2916d87208019c88446904b04b.html#ga7e56aa2916d87208019c88446904b04b" target="_top" xlink:title=" ">
<polygon fill="white" stroke="#666666" points="444,-122.65 320,-122.65 320,-92.15 444,-92.15 444,-122.65"/>
<text xml:space="preserve" text-anchor="start" x="328" y="-109.15" font-family="Source Sans Pro" font-size="10.00">noahmp_glacier_routines</text>
<text xml:space="preserve" text-anchor="middle" x="382" y="-97.9" font-family="Source Sans Pro" font-size="10.00">::snowwater_glacier</text>
</a>
</g>
</g>
<!-- Node31&#45;&gt;Node32 -->
<g id="edge31_Node000031_Node000032" class="edge">
<title>Node31&#45;&gt;Node32</title>
<g id="a_edge31_Node000031_Node000032"><a xlink:title=" ">
<path fill="none" stroke="#63b8ff" d="M244.64,-206.65C271.98,-186.75 319.22,-152.37 350.29,-129.75"/>
<polygon fill="#63b8ff" stroke="#63b8ff" points="352.12,-132.75 358.15,-124.03 348,-127.09 352.12,-132.75"/>
</a>
</g>
</g>
<!-- Node33 -->
<g id="Node000033" class="node">
<title>Node33</title>
<g id="a_Node000033"><a xlink:href="group___noah_m_p___l_s_m_ga70ce0369bd8ba21d6ab56fa001a20be8.html#ga70ce0369bd8ba21d6ab56fa001a20be8" target="_top" xlink:title=" ">
<polygon fill="white" stroke="#666666" points="764,-51.65 640,-51.65 640,-21.15 764,-21.15 764,-51.65"/>
<text xml:space="preserve" text-anchor="start" x="648" y="-38.15" font-family="Source Sans Pro" font-size="10.00">noahmp_glacier_routines</text>
<text xml:space="preserve" text-anchor="middle" x="702" y="-26.9" font-family="Source Sans Pro" font-size="10.00">::combine_glacier</text>
</a>
</g>
</g>
<!-- Node32&#45;&gt;Node33 -->
<g id="edge32_Node000032_Node000033" class="edge">
<title>Node32&#45;&gt;Node33</title>
<g id="a_edge32_Node000032_Node000033"><a xlink:title=" ">
<path fill="none" stroke="#63b8ff" d="M392.93,-91.87C408.37,-69.33 440.5,-28.52 480,-12.4 534.96,10.03 603.66,-3.16 649.75,-17.26"/>
<polygon fill="#63b8ff" stroke="#63b8ff" points="648.63,-20.58 659.22,-20.29 650.76,-13.91 648.63,-20.58"/>
</a>
</g>
</g>
<!-- Node35 -->
<g id="Node000035" class="node">
<title>Node35</title>
<g id="a_Node000035"><a xlink:href="group___noah_m_p___l_s_m_ga5c2db6763c56bf372eef6bdc07ede3cc.html#ga5c2db6763c56bf372eef6bdc07ede3cc" target="_top" xlink:title=" ">
<polygon fill="white" stroke="#666666" points="604,-186.65 480,-186.65 480,-156.15 604,-156.15 604,-186.65"/>
<text xml:space="preserve" text-anchor="start" x="488" y="-173.15" font-family="Source Sans Pro" font-size="10.00">noahmp_glacier_routines</text>
<text xml:space="preserve" text-anchor="middle" x="542" y="-161.9" font-family="Source Sans Pro" font-size="10.00">::compact_glacier</text>
</a>
</g>
</g>
<!-- Node32&#45;&gt;Node35 -->
<g id="edge34_Node000032_Node000035" class="edge">
<title>Node32&#45;&gt;Node35</title>
<g id="a_edge34_Node000032_Node000035"><a xlink:title=" ">
<path fill="none" stroke="#63b8ff" d="M421.65,-123.05C442.79,-131.62 469.19,-142.31 491.79,-151.46"/>
<polygon fill="#63b8ff" stroke="#63b8ff" points="490.21,-154.6 500.8,-155.11 492.84,-148.12 490.21,-154.6"/>
</a>
</g>
</g>
<!-- Node36 -->
<g id="Node000036" class="node">
<title>Node36</title>
<g id="a_Node000036"><a xlink:href="group___noah_m_p___l_s_m_ga7d14a54053fc9c70ea7705754d594a92.html#ga7d14a54053fc9c70ea7705754d594a92" target="_top" xlink:title=" ">
<polygon fill="white" stroke="#666666" points="764,-122.65 640,-122.65 640,-92.15 764,-92.15 764,-122.65"/>
<text xml:space="preserve" text-anchor="start" x="648" y="-109.15" font-family="Source Sans Pro" font-size="10.00">noahmp_glacier_routines</text>
<text xml:space="preserve" text-anchor="middle" x="702" y="-97.9" font-family="Source Sans Pro" font-size="10.00">::divide_glacier</text>
</a>
</g>
</g>
<!-- Node32&#45;&gt;Node36 -->
<g id="edge35_Node000032_Node000036" class="edge">
<title>Node32&#45;&gt;Node36</title>
<g id="a_edge35_Node000032_Node000036"><a xlink:title=" ">
<path fill="none" stroke="#63b8ff" d="M444.31,-108.85C456.15,-109.08 468.46,-109.28 480,-109.4 535.11,-109.97 548.89,-109.97 604,-109.4 611.84,-109.32 620.04,-109.2 628.2,-109.06"/>
<polygon fill="#63b8ff" stroke="#63b8ff" points="628.24,-112.56 638.17,-108.88 628.11,-105.56 628.24,-112.56"/>
</a>
</g>
</g>
<!-- Node37 -->
<g id="Node000037" class="node">
<title>Node37</title>
<g id="a_Node000037"><a xlink:href="group___noah_m_p___l_s_m_ga8017d043aecaf401ec7e591c3c558161.html#ga8017d043aecaf401ec7e591c3c558161" target="_top" xlink:title=" ">
<polygon fill="white" stroke="#666666" points="604,-100.65 480,-100.65 480,-70.15 604,-70.15 604,-100.65"/>
<text xml:space="preserve" text-anchor="start" x="488" y="-87.15" font-family="Source Sans Pro" font-size="10.00">noahmp_glacier_routines</text>
<text xml:space="preserve" text-anchor="middle" x="542" y="-75.9" font-family="Source Sans Pro" font-size="10.00">::snowfall_glacier</text>
</a>
</g>
</g>
<!-- Node32&#45;&gt;Node37 -->
<g id="edge37_Node000032_Node000037" class="edge">
<title>Node32&#45;&gt;Node37</title>
<g id="a_edge37_Node000032_Node000037"><a xlink:title=" ">
<path fill="none" stroke="#63b8ff" d="M444.09,-98.89C452,-97.79 460.16,-96.65 468.23,-95.53"/>
<polygon fill="#63b8ff" stroke="#63b8ff" points="468.63,-99.01 478.06,-94.16 467.67,-92.08 468.63,-99.01"/>
</a>
</g>
</g>
<!-- Node38 -->
<g id="Node000038" class="node">
<title>Node38</title>
<g id="a_Node000038"><a xlink:href="group___noah_m_p___l_s_m_ga3b426a088b2f2e94145bc4cea265cc61.html#ga3b426a088b2f2e94145bc4cea265cc61" target="_top" xlink:title=" ">
<polygon fill="white" stroke="#666666" points="604,-51.65 480,-51.65 480,-21.15 604,-21.15 604,-51.65"/>
<text xml:space="preserve" text-anchor="start" x="488" y="-38.15" font-family="Source Sans Pro" font-size="10.00">noahmp_glacier_routines</text>
<text xml:space="preserve" text-anchor="middle" x="542" y="-26.9" font-family="Source Sans Pro" font-size="10.00">::snowh2o_glacier</text>
</a>
</g>
</g>
<!-- Node32&#45;&gt;Node38 -->
<g id="edge38_Node000032_Node000038" class="edge">
<title>Node32&#45;&gt;Node38</title>
<g id="a_edge38_Node000032_Node000038"><a xlink:title=" ">
<path fill="none" stroke="#63b8ff" d="M414.69,-91.84C433.55,-82.72 458.01,-71.11 480,-61.4 483.73,-59.75 487.6,-58.08 491.5,-56.42"/>
<polygon fill="#63b8ff" stroke="#63b8ff" points="492.56,-59.77 500.42,-52.68 489.85,-53.32 492.56,-59.77"/>
</a>
</g>
</g>
<!-- Node34 -->
<g id="Node000034" class="node">
<title>Node34</title>
<g id="a_Node000034"><a xlink:href="group___noah_m_p___l_s_m_ga2725fe77ae7f78845a85c7c379e3ed2e.html#ga2725fe77ae7f78845a85c7c379e3ed2e" target="_top" xlink:title=" ">
<polygon fill="white" stroke="#666666" points="924,-97.65 800,-97.65 800,-67.15 924,-67.15 924,-97.65"/>
<text xml:space="preserve" text-anchor="start" x="808" y="-84.15" font-family="Source Sans Pro" font-size="10.00">noahmp_glacier_routines</text>
<text xml:space="preserve" text-anchor="middle" x="862" y="-72.9" font-family="Source Sans Pro" font-size="10.00">::combo_glacier</text>
</a>
</g>
</g>
<!-- Node33&#45;&gt;Node34 -->
<g id="edge33_Node000033_Node000034" class="edge">
<title>Node33&#45;&gt;Node34</title>
<g id="a_edge33_Node000033_Node000034"><a xlink:title=" ">
<path fill="none" stroke="#63b8ff" d="M756.93,-52.1C769.57,-55.78 783.17,-59.74 796.23,-63.54"/>
<polygon fill="#63b8ff" stroke="#63b8ff" points="795.01,-66.83 805.59,-66.27 796.97,-60.11 795.01,-66.83"/>
</a>
</g>
</g>
<!-- Node36&#45;&gt;Node34 -->
<g id="edge36_Node000036_Node000034" class="edge">
<title>Node36&#45;&gt;Node34</title>
<g id="a_edge36_Node000036_Node000034"><a xlink:title=" ">
<path fill="none" stroke="#63b8ff" d="M764.09,-97.73C772,-96.48 780.16,-95.19 788.23,-93.91"/>
<polygon fill="#63b8ff" stroke="#63b8ff" points="788.73,-97.38 798.06,-92.36 787.64,-90.46 788.73,-97.38"/>
</a>
</g>
</g>
<!-- Node38&#45;&gt;Node33 -->
<g id="edge39_Node000038_Node000033" class="edge">
<title>Node38&#45;&gt;Node33</title>
<g id="a_edge39_Node000038_Node000033"><a xlink:title=" ">
<path fill="none" stroke="#63b8ff" d="M604.09,-36.4C612,-36.4 620.16,-36.4 628.23,-36.4"/>
<polygon fill="#63b8ff" stroke="#63b8ff" points="628.04,-39.9 638.04,-36.4 628.04,-32.9 628.04,-39.9"/>
</a>
</g>
</g>
</g>
</svg>
