<?xml version="1.0" encoding="UTF-8" standalone="no"?>
<!DOCTYPE svg PUBLIC "-//W3C//DTD SVG 1.1//EN"
 "http://www.w3.org/Graphics/SVG/1.1/DTD/svg11.dtd">
<!-- Generated by graphviz version 14.1.2 (20260124.0452)
 -->
<!-- Title: rrtmg_sw::rrtmg_sw_run Pages: 1 -->
<svg width="422pt" height="619pt"
 viewBox="0.00 0.00 422.00 619.00" xmlns="http://www.w3.org/2000/svg" xmlns:xlink="http://www.w3.org/1999/xlink">
<g id="graph0" class="graph" transform="scale(1 1) rotate(0) translate(4 615.25)">
<title>rrtmg_sw::rrtmg_sw_run</title>
<!-- Node1 -->
<g id="Node000001" class="node">
<title>Node1</title>
<g id="a_Node000001"><a xlink:title=" ">
<polygon fill="#999999" stroke="#666666" points="121.75,-537.25 0,-537.25 0,-518 121.75,-518 121.75,-537.25"/>
<text xml:space="preserve" text-anchor="middle" x="60.88" y="-523.75" font-family="Source Sans Pro" font-size="10.00">rrtmg_sw::rrtmg_sw_run</text>
</a>
</g>
</g>
<!-- Node2 -->
<g id="Node000002" class="node">
<title>Node2</title>
<g id="a_Node000002"><a xlink:href="group__module__radsw__main_ga336d1ab636b4392dcb907d0d780e8487.html#ga336d1ab636b4392dcb907d0d780e8487" target="_top" xlink:title="This subroutine computes the cloud optical properties for each cloudy layer and g&#45;point interval.">
<polygon fill="white" stroke="#666666" points="253.62,-611.25 159.62,-611.25 159.62,-592 253.62,-592 253.62,-611.25"/>
<text xml:space="preserve" text-anchor="middle" x="206.62" y="-597.75" font-family="Source Sans Pro" font-size="10.00">rrtmg_sw::cldprop</text>
</a>
</g>
</g>
<!-- Node1&#45;&gt;Node2 -->
<g id="edge1_Node000001_Node000002" class="edge">
<title>Node1&#45;&gt;Node2</title>
<g id="a_edge1_Node000001_Node000002"><a xlink:title=" ">
<path fill="none" stroke="#63b8ff" d="M77.05,-537.57C95.59,-549.47 128.16,-569.54 157.75,-583.62 160.35,-584.86 163.05,-586.07 165.8,-587.24"/>
<polygon fill="#63b8ff" stroke="#63b8ff" points="164.45,-590.47 175.03,-590.98 167.08,-583.99 164.45,-590.47"/>
</a>
</g>
</g>
<!-- Node4 -->
<g id="Node000004" class="node">
<title>Node4</title>
<g id="a_Node000004"><a xlink:href="group__module__radsw__main_ga75a4e30460100beb2c2453be850a3ba5.html#ga75a4e30460100beb2c2453be850a3ba5" target="_top" xlink:title="This subroutine computes various coefficients needed in radiative transfer calculation.">
<polygon fill="white" stroke="#666666" points="254,-574.25 159.25,-574.25 159.25,-555 254,-555 254,-574.25"/>
<text xml:space="preserve" text-anchor="middle" x="206.62" y="-560.75" font-family="Source Sans Pro" font-size="10.00">rrtmg_sw::setcoef</text>
</a>
</g>
</g>
<!-- Node1&#45;&gt;Node4 -->
<g id="edge3_Node000001_Node000004" class="edge">
<title>Node1&#45;&gt;Node4</title>
<g id="a_edge3_Node000001_Node000004"><a xlink:title=" ">
<path fill="none" stroke="#63b8ff" d="M101.16,-537.74C117.87,-542.04 137.58,-547.11 155.34,-551.68"/>
<polygon fill="#63b8ff" stroke="#63b8ff" points="154.37,-555.05 164.93,-554.15 156.11,-548.27 154.37,-555.05"/>
</a>
</g>
</g>
<!-- Node5 -->
<g id="Node000005" class="node">
<title>Node5</title>
<g id="a_Node000005"><a xlink:href="group__module__radsw__main_gabcbc14a26bd383deffec85ef74354a97.html#gabcbc14a26bd383deffec85ef74354a97" target="_top" xlink:title="This subroutine computes the shortwave radiative fluxes using two&#45;stream method.">
<polygon fill="white" stroke="#666666" points="254,-537.25 159.25,-537.25 159.25,-518 254,-518 254,-537.25"/>
<text xml:space="preserve" text-anchor="middle" x="206.62" y="-523.75" font-family="Source Sans Pro" font-size="10.00">rrtmg_sw::spcvrtc</text>
</a>
</g>
</g>
<!-- Node1&#45;&gt;Node5 -->
<g id="edge4_Node000001_Node000005" class="edge">
<title>Node1&#45;&gt;Node5</title>
<g id="a_edge4_Node000001_Node000005"><a xlink:title=" ">
<path fill="none" stroke="#63b8ff" d="M122.01,-527.62C130.47,-527.62 139.15,-527.62 147.58,-527.62"/>
<polygon fill="#63b8ff" stroke="#63b8ff" points="147.34,-531.13 157.34,-527.63 147.34,-524.13 147.34,-531.13"/>
</a>
</g>
</g>
<!-- Node7 -->
<g id="Node000007" class="node">
<title>Node7</title>
<g id="a_Node000007"><a xlink:href="group__module__radsw__main_ga9af8942fec8a26e18e27caa0ad93534b.html#ga9af8942fec8a26e18e27caa0ad93534b" target="_top" xlink:title="This subroutine computes the shortwave radiative fluxes using two&#45;stream method of h....">
<polygon fill="white" stroke="#666666" points="255.5,-500.25 157.75,-500.25 157.75,-481 255.5,-481 255.5,-500.25"/>
<text xml:space="preserve" text-anchor="middle" x="206.62" y="-486.75" font-family="Source Sans Pro" font-size="10.00">rrtmg_sw::spcvrtm</text>
</a>
</g>
</g>
<!-- Node1&#45;&gt;Node7 -->
<g id="edge6_Node000001_Node000007" class="edge">
<title>Node1&#45;&gt;Node7</title>
<g id="a_edge6_Node000001_Node000007"><a xlink:title=" ">
<path fill="none" stroke="#63b8ff" d="M101.16,-517.51C117.87,-513.21 137.58,-508.14 155.34,-503.57"/>
<polygon fill="#63b8ff" stroke="#63b8ff" points="156.11,-506.98 164.93,-501.1 154.37,-500.2 156.11,-506.98"/>
</a>
</g>
</g>
<!-- Node8 -->
<g id="Node000008" class="node">
<title>Node8</title>
<g id="a_Node000008"><a xlink:href="group__module__radsw__main_gac639d33a4e94f0183aedd3d43943d52d.html#gac639d33a4e94f0183aedd3d43943d52d" target="_top" xlink:title="This subroutine calculates optical depths for gaseous absorption and rayleigh scattering &#160;&#160;subroutine...">
<polygon fill="white" stroke="#666666" points="252.5,-278.25 160.75,-278.25 160.75,-259 252.5,-259 252.5,-278.25"/>
<text xml:space="preserve" text-anchor="middle" x="206.62" y="-264.75" font-family="Source Sans Pro" font-size="10.00">rrtmg_sw::taumol</text>
</a>
</g>
</g>
<!-- Node1&#45;&gt;Node8 -->
<g id="edge8_Node000001_Node000008" class="edge">
<title>Node1&#45;&gt;Node8</title>
<g id="a_edge8_Node000001_Node000008"><a xlink:title=" ">
<path fill="none" stroke="#63b8ff" d="M67.33,-517.79C88.55,-479.57 165.75,-340.47 194.63,-288.44"/>
<polygon fill="#63b8ff" stroke="#63b8ff" points="197.63,-290.24 199.43,-279.8 191.51,-286.84 197.63,-290.24"/>
</a>
</g>
</g>
<!-- Node3 -->
<g id="Node000003" class="node">
<title>Node3</title>
<g id="a_Node000003"><a xlink:href="group__module__radsw__main_ga2c3a6663350f2f9d442fb4c3bd7350fc.html#ga2c3a6663350f2f9d442fb4c3bd7350fc" target="_top" xlink:title="This subroutine computes the sub&#45;colum cloud profile flag array.">
<polygon fill="white" stroke="#666666" points="414,-611.25 291.5,-611.25 291.5,-592 414,-592 414,-611.25"/>
<text xml:space="preserve" text-anchor="middle" x="352.75" y="-597.75" font-family="Source Sans Pro" font-size="10.00">rrtmg_sw::mcica_subcol</text>
</a>
</g>
</g>
<!-- Node2&#45;&gt;Node3 -->
<g id="edge2_Node000002_Node000003" class="edge">
<title>Node2&#45;&gt;Node3</title>
<g id="a_edge2_Node000002_Node000003"><a xlink:title=" ">
<path fill="none" stroke="#63b8ff" d="M254.02,-601.62C262.26,-601.62 271.01,-601.62 279.77,-601.62"/>
<polygon fill="#63b8ff" stroke="#63b8ff" points="279.71,-605.13 289.71,-601.63 279.71,-598.13 279.71,-605.13"/>
</a>
</g>
</g>
<!-- Node6 -->
<g id="Node000006" class="node">
<title>Node6</title>
<g id="a_Node000006"><a xlink:href="group__module__radsw__main_ga0c28670bd195e19c674259cafd6faf90.html#ga0c28670bd195e19c674259cafd6faf90" target="_top" xlink:title="This subroutine is called by spcvrtc() and spcvrtm(), and computes the upward and downward radiation ...">
<polygon fill="white" stroke="#666666" points="396.38,-537.25 309.12,-537.25 309.12,-518 396.38,-518 396.38,-537.25"/>
<text xml:space="preserve" text-anchor="middle" x="352.75" y="-523.75" font-family="Source Sans Pro" font-size="10.00">rrtmg_sw::vrtqdr</text>
</a>
</g>
</g>
<!-- Node5&#45;&gt;Node6 -->
<g id="edge5_Node000005_Node000006" class="edge">
<title>Node5&#45;&gt;Node6</title>
<g id="a_edge5_Node000005_Node000006"><a xlink:title=" ">
<path fill="none" stroke="#63b8ff" d="M254.42,-527.62C268.3,-527.62 283.61,-527.62 297.9,-527.62"/>
<polygon fill="#63b8ff" stroke="#63b8ff" points="297.58,-531.13 307.58,-527.63 297.58,-524.13 297.58,-531.13"/>
</a>
</g>
</g>
<!-- Node7&#45;&gt;Node6 -->
<g id="edge7_Node000007_Node000006" class="edge">
<title>Node7&#45;&gt;Node6</title>
<g id="a_edge7_Node000007_Node000006"><a xlink:title=" ">
<path fill="none" stroke="#63b8ff" d="M247.01,-500.74C263.77,-505.04 283.52,-510.11 301.33,-514.68"/>
<polygon fill="#63b8ff" stroke="#63b8ff" points="300.39,-518.05 310.95,-517.15 302.13,-511.27 300.39,-518.05"/>
</a>
</g>
</g>
<!-- Node9 -->
<g id="Node000009" class="node">
<title>Node9</title>
<g id="a_Node000009"><a xlink:href="group__module__radsw__main_ga8702f5f6285ff1a5cbfad740545fffb6.html#ga8702f5f6285ff1a5cbfad740545fffb6" target="_top" xlink:title="The subroutine computes the optical depth in band 16: 2600&#45;3250 cm&#45;1 (low &#45; h2o,ch4; high &#45; ch4).">
<polygon fill="white" stroke="#666666" points="380.62,-500.25 324.88,-500.25 324.88,-481 380.62,-481 380.62,-500.25"/>
<text xml:space="preserve" text-anchor="middle" x="352.75" y="-486.75" font-family="Source Sans Pro" font-size="10.00">taumol16</text>
</a>
</g>
</g>
<!-- Node8&#45;&gt;Node9 -->
<g id="edge9_Node000008_Node000009" class="edge">
<title>Node8&#45;&gt;Node9</title>
<g id="a_edge9_Node000008_Node000009"><a xlink:title=" ">
<path fill="none" stroke="#63b8ff" d="M208.69,-278.4C212.79,-311.04 230.45,-417.38 291.5,-472.62 297.73,-478.27 305.67,-482.14 313.72,-484.8"/>
<polygon fill="#63b8ff" stroke="#63b8ff" points="312.58,-488.12 323.15,-487.34 314.4,-481.36 312.58,-488.12"/>
</a>
</g>
</g>
<!-- Node10 -->
<g id="Node000010" class="node">
<title>Node10</title>
<g id="a_Node000010"><a xlink:href="group__module__radsw__main_gae46d1c061726bcde426caadd80b1fd80.html#gae46d1c061726bcde426caadd80b1fd80" target="_top" xlink:title="The subroutine computes the optical depth in band 17: 3250&#45;4000 cm&#45;1 (low &#45; h2o,co2; high &#45; h2o,...">
<polygon fill="white" stroke="#666666" points="380.62,-463.25 324.88,-463.25 324.88,-444 380.62,-444 380.62,-463.25"/>
<text xml:space="preserve" text-anchor="middle" x="352.75" y="-449.75" font-family="Source Sans Pro" font-size="10.00">taumol17</text>
</a>
</g>
</g>
<!-- Node8&#45;&gt;Node10 -->
<g id="edge10_Node000008_Node000010" class="edge">
<title>Node8&#45;&gt;Node10</title>
<g id="a_edge10_Node000008_Node000010"><a xlink:title=" ">
<path fill="none" stroke="#63b8ff" d="M209.72,-278.62C216.3,-307.52 239.29,-391.85 291.5,-435.62 297.81,-440.92 305.63,-444.65 313.53,-447.29"/>
<polygon fill="#63b8ff" stroke="#63b8ff" points="312.57,-450.66 323.14,-449.93 314.42,-443.91 312.57,-450.66"/>
</a>
</g>
</g>
<!-- Node11 -->
<g id="Node000011" class="node">
<title>Node11</title>
<g id="a_Node000011"><a xlink:href="group__module__radsw__main_ga06f6f2b0ef60df93c267a667a2e1aa36.html#ga06f6f2b0ef60df93c267a667a2e1aa36" target="_top" xlink:title="The subroutine computes the optical depth in band 18: 4000&#45;4650 cm&#45;1 (low &#45; h2o,ch4; high &#45; ch4).">
<polygon fill="white" stroke="#666666" points="380.62,-426.25 324.88,-426.25 324.88,-407 380.62,-407 380.62,-426.25"/>
<text xml:space="preserve" text-anchor="middle" x="352.75" y="-412.75" font-family="Source Sans Pro" font-size="10.00">taumol18</text>
</a>
</g>
</g>
<!-- Node8&#45;&gt;Node11 -->
<g id="edge11_Node000008_Node000011" class="edge">
<title>Node8&#45;&gt;Node11</title>
<g id="a_edge11_Node000008_Node000011"><a xlink:title=" ">
<path fill="none" stroke="#63b8ff" d="M211.18,-278.46C220.44,-302.71 247.68,-365.72 291.5,-398.62 297.97,-403.48 305.74,-407.03 313.51,-409.63"/>
<polygon fill="#63b8ff" stroke="#63b8ff" points="312.35,-412.94 322.92,-412.29 314.25,-406.2 312.35,-412.94"/>
</a>
</g>
</g>
<!-- Node12 -->
<g id="Node000012" class="node">
<title>Node12</title>
<g id="a_Node000012"><a xlink:href="group__module__radsw__main_ga776a0d78fda9f4fd0f1153b55be597df.html#ga776a0d78fda9f4fd0f1153b55be597df" target="_top" xlink:title="The subroutine computes the optical depth in band 19: 4650&#45;5150 cm&#45;1 (low &#45; h2o,co2; high &#45; co2).">
<polygon fill="white" stroke="#666666" points="380.62,-389.25 324.88,-389.25 324.88,-370 380.62,-370 380.62,-389.25"/>
<text xml:space="preserve" text-anchor="middle" x="352.75" y="-375.75" font-family="Source Sans Pro" font-size="10.00">taumol19</text>
</a>
</g>
</g>
<!-- Node8&#45;&gt;Node12 -->
<g id="edge12_Node000008_Node000012" class="edge">
<title>Node8&#45;&gt;Node12</title>
<g id="a_edge12_Node000008_Node000012"><a xlink:title=" ">
<path fill="none" stroke="#63b8ff" d="M213.92,-278.68C226.37,-297.73 256.03,-339.21 291.5,-361.62 298.2,-365.86 305.94,-369.14 313.59,-371.66"/>
<polygon fill="#63b8ff" stroke="#63b8ff" points="312.58,-375.01 323.16,-374.43 314.53,-368.29 312.58,-375.01"/>
</a>
</g>
</g>
<!-- Node13 -->
<g id="Node000013" class="node">
<title>Node13</title>
<g id="a_Node000013"><a xlink:href="group__module__radsw__main_ga6eb9a29728a986ea6b15240adebd4a0c.html#ga6eb9a29728a986ea6b15240adebd4a0c" target="_top" xlink:title="The subroutine computes the optical depth in band 20: 5150&#45;6150 cm&#45;1 (low &#45; h2o; high &#45; h2o).">
<polygon fill="white" stroke="#666666" points="380.62,-352.25 324.88,-352.25 324.88,-333 380.62,-333 380.62,-352.25"/>
<text xml:space="preserve" text-anchor="middle" x="352.75" y="-338.75" font-family="Source Sans Pro" font-size="10.00">taumol20</text>
</a>
</g>
</g>
<!-- Node8&#45;&gt;Node13 -->
<g id="edge13_Node000008_Node000013" class="edge">
<title>Node8&#45;&gt;Node13</title>
<g id="a_edge13_Node000008_Node000013"><a xlink:title=" ">
<path fill="none" stroke="#63b8ff" d="M219.99,-278.62C235.75,-290.94 264.25,-311.81 291.5,-324.62 298.39,-327.86 305.99,-330.67 313.42,-333.05"/>
<polygon fill="#63b8ff" stroke="#63b8ff" points="312.39,-336.39 322.97,-335.89 314.38,-329.68 312.39,-336.39"/>
</a>
</g>
</g>
<!-- Node14 -->
<g id="Node000014" class="node">
<title>Node14</title>
<g id="a_Node000014"><a xlink:href="group__module__radsw__main_ga54619c48147f35da2d7855dc488c0ff4.html#ga54619c48147f35da2d7855dc488c0ff4" target="_top" xlink:title="The subroutine computes the optical depth in band 21: 6150&#45;7700 cm&#45;1 (low &#45; h2o,co2; high &#45; h2o,...">
<polygon fill="white" stroke="#666666" points="380.62,-315.25 324.88,-315.25 324.88,-296 380.62,-296 380.62,-315.25"/>
<text xml:space="preserve" text-anchor="middle" x="352.75" y="-301.75" font-family="Source Sans Pro" font-size="10.00">taumol21</text>
</a>
</g>
</g>
<!-- Node8&#45;&gt;Node14 -->
<g id="edge14_Node000008_Node000014" class="edge">
<title>Node8&#45;&gt;Node14</title>
<g id="a_edge14_Node000008_Node000014"><a xlink:title=" ">
<path fill="none" stroke="#63b8ff" d="M247.01,-278.74C267.82,-284.08 293.25,-290.61 313.84,-295.89"/>
<polygon fill="#63b8ff" stroke="#63b8ff" points="312.7,-299.21 323.26,-298.31 314.44,-292.43 312.7,-299.21"/>
</a>
</g>
</g>
<!-- Node15 -->
<g id="Node000015" class="node">
<title>Node15</title>
<g id="a_Node000015"><a xlink:href="group__module__radsw__main_ga3b5392346eee35eb13a2a54175b6338b.html#ga3b5392346eee35eb13a2a54175b6338b" target="_top" xlink:title="The subroutine computes the optical depth in band 22: 7700&#45;8050 cm&#45;1 (low &#45; h2o,o2; high &#45; o2).">
<polygon fill="white" stroke="#666666" points="380.62,-278.25 324.88,-278.25 324.88,-259 380.62,-259 380.62,-278.25"/>
<text xml:space="preserve" text-anchor="middle" x="352.75" y="-264.75" font-family="Source Sans Pro" font-size="10.00">taumol22</text>
</a>
</g>
</g>
<!-- Node8&#45;&gt;Node15 -->
<g id="edge15_Node000008_Node000015" class="edge">
<title>Node8&#45;&gt;Node15</title>
<g id="a_edge15_Node000008_Node000015"><a xlink:title=" ">
<path fill="none" stroke="#63b8ff" d="M252.83,-268.62C272.29,-268.62 294.8,-268.62 313.43,-268.62"/>
<polygon fill="#63b8ff" stroke="#63b8ff" points="313.23,-272.13 323.23,-268.63 313.23,-265.13 313.23,-272.13"/>
</a>
</g>
</g>
<!-- Node16 -->
<g id="Node000016" class="node">
<title>Node16</title>
<g id="a_Node000016"><a xlink:href="group__module__radsw__main_gadf5d73763c80ec079b72dda7d74cba94.html#gadf5d73763c80ec079b72dda7d74cba94" target="_top" xlink:title="The subroutine computes the optical depth in band 23: 8050&#45;12850 cm&#45;1 (low &#45; h2o; high &#45; nothing).">
<polygon fill="white" stroke="#666666" points="380.62,-241.25 324.88,-241.25 324.88,-222 380.62,-222 380.62,-241.25"/>
<text xml:space="preserve" text-anchor="middle" x="352.75" y="-227.75" font-family="Source Sans Pro" font-size="10.00">taumol23</text>
</a>
</g>
</g>
<!-- Node8&#45;&gt;Node16 -->
<g id="edge16_Node000008_Node000016" class="edge">
<title>Node8&#45;&gt;Node16</title>
<g id="a_edge16_Node000008_Node000016"><a xlink:title=" ">
<path fill="none" stroke="#63b8ff" d="M247.01,-258.51C267.82,-253.17 293.25,-246.64 313.84,-241.36"/>
<polygon fill="#63b8ff" stroke="#63b8ff" points="314.44,-244.82 323.26,-238.94 312.7,-238.04 314.44,-244.82"/>
</a>
</g>
</g>
<!-- Node17 -->
<g id="Node000017" class="node">
<title>Node17</title>
<g id="a_Node000017"><a xlink:href="group__module__radsw__main_gae0abf1a08aa5d6ca14bfea83d0603716.html#gae0abf1a08aa5d6ca14bfea83d0603716" target="_top" xlink:title="The subroutine computes the optical depth in band 24: 12850&#45;16000 cm&#45;1 (low &#45; h2o,...">
<polygon fill="white" stroke="#666666" points="380.62,-204.25 324.88,-204.25 324.88,-185 380.62,-185 380.62,-204.25"/>
<text xml:space="preserve" text-anchor="middle" x="352.75" y="-190.75" font-family="Source Sans Pro" font-size="10.00">taumol24</text>
</a>
</g>
</g>
<!-- Node8&#45;&gt;Node17 -->
<g id="edge17_Node000008_Node000017" class="edge">
<title>Node8&#45;&gt;Node17</title>
<g id="a_edge17_Node000008_Node000017"><a xlink:title=" ">
<path fill="none" stroke="#63b8ff" d="M219.99,-258.63C235.75,-246.31 264.25,-225.44 291.5,-212.62 298.39,-209.39 305.99,-206.58 313.42,-204.2"/>
<polygon fill="#63b8ff" stroke="#63b8ff" points="314.38,-207.57 322.97,-201.36 312.39,-200.86 314.38,-207.57"/>
</a>
</g>
</g>
<!-- Node18 -->
<g id="Node000018" class="node">
<title>Node18</title>
<g id="a_Node000018"><a xlink:href="group__module__radsw__main_ga21b72d6de9247eccb20de836ea76cf7a.html#ga21b72d6de9247eccb20de836ea76cf7a" target="_top" xlink:title="The subroutine computes the optical depth in band 25: 16000&#45;22650 cm&#45;1 (low &#45; h2o; high &#45; nothing).">
<polygon fill="white" stroke="#666666" points="380.62,-167.25 324.88,-167.25 324.88,-148 380.62,-148 380.62,-167.25"/>
<text xml:space="preserve" text-anchor="middle" x="352.75" y="-153.75" font-family="Source Sans Pro" font-size="10.00">taumol25</text>
</a>
</g>
</g>
<!-- Node8&#45;&gt;Node18 -->
<g id="edge18_Node000008_Node000018" class="edge">
<title>Node8&#45;&gt;Node18</title>
<g id="a_edge18_Node000008_Node000018"><a xlink:title=" ">
<path fill="none" stroke="#63b8ff" d="M213.92,-258.57C226.37,-239.52 256.03,-198.04 291.5,-175.62 298.2,-171.39 305.94,-168.11 313.59,-165.59"/>
<polygon fill="#63b8ff" stroke="#63b8ff" points="314.53,-168.96 323.16,-162.82 312.58,-162.24 314.53,-168.96"/>
</a>
</g>
</g>
<!-- Node19 -->
<g id="Node000019" class="node">
<title>Node19</title>
<g id="a_Node000019"><a xlink:href="group__module__radsw__main_ga20261640145a5d10e091ef3c67763175.html#ga20261640145a5d10e091ef3c67763175" target="_top" xlink:title="The subroutine computes the optical depth in band 26: 22650&#45;29000 cm&#45;1 (low &#45; nothing; high &#45; nothing...">
<polygon fill="white" stroke="#666666" points="380.62,-130.25 324.88,-130.25 324.88,-111 380.62,-111 380.62,-130.25"/>
<text xml:space="preserve" text-anchor="middle" x="352.75" y="-116.75" font-family="Source Sans Pro" font-size="10.00">taumol26</text>
</a>
</g>
</g>
<!-- Node8&#45;&gt;Node19 -->
<g id="edge19_Node000008_Node000019" class="edge">
<title>Node8&#45;&gt;Node19</title>
<g id="a_edge19_Node000008_Node000019"><a xlink:title=" ">
<path fill="none" stroke="#63b8ff" d="M211.18,-258.79C220.44,-234.54 247.68,-171.53 291.5,-138.62 297.97,-133.77 305.74,-130.22 313.51,-127.62"/>
<polygon fill="#63b8ff" stroke="#63b8ff" points="314.25,-131.05 322.92,-124.96 312.35,-124.31 314.25,-131.05"/>
</a>
</g>
</g>
<!-- Node20 -->
<g id="Node000020" class="node">
<title>Node20</title>
<g id="a_Node000020"><a xlink:href="group__module__radsw__main_ga7d2cea6cc0cfde853d25a14ba0efcca2.html#ga7d2cea6cc0cfde853d25a14ba0efcca2" target="_top" xlink:title="The subroutine computes the optical depth in band 27: 29000&#45;38000 cm&#45;1 (low &#45; o3; high &#45; o3).">
<polygon fill="white" stroke="#666666" points="380.62,-93.25 324.88,-93.25 324.88,-74 380.62,-74 380.62,-93.25"/>
<text xml:space="preserve" text-anchor="middle" x="352.75" y="-79.75" font-family="Source Sans Pro" font-size="10.00">taumol27</text>
</a>
</g>
</g>
<!-- Node8&#45;&gt;Node20 -->
<g id="edge20_Node000008_Node000020" class="edge">
<title>Node8&#45;&gt;Node20</title>
<g id="a_edge20_Node000008_Node000020"><a xlink:title=" ">
<path fill="none" stroke="#63b8ff" d="M209.72,-258.63C216.3,-229.73 239.29,-145.4 291.5,-101.62 297.81,-96.33 305.63,-92.6 313.53,-89.96"/>
<polygon fill="#63b8ff" stroke="#63b8ff" points="314.42,-93.34 323.14,-87.32 312.57,-86.59 314.42,-93.34"/>
</a>
</g>
</g>
<!-- Node21 -->
<g id="Node000021" class="node">
<title>Node21</title>
<g id="a_Node000021"><a xlink:href="group__module__radsw__main_ga2113c76707f43cf91fe5926ab69d1b8b.html#ga2113c76707f43cf91fe5926ab69d1b8b" target="_top" xlink:title="The subroutine computes the optical depth in band 28: 38000&#45;50000 cm&#45;1 (low &#45; o3,o2; high &#45; o3,...">
<polygon fill="white" stroke="#666666" points="380.62,-56.25 324.88,-56.25 324.88,-37 380.62,-37 380.62,-56.25"/>
<text xml:space="preserve" text-anchor="middle" x="352.75" y="-42.75" font-family="Source Sans Pro" font-size="10.00">taumol28</text>
</a>
</g>
</g>
<!-- Node8&#45;&gt;Node21 -->
<g id="edge21_Node000008_Node000021" class="edge">
<title>Node8&#45;&gt;Node21</title>
<g id="a_edge21_Node000008_Node000021"><a xlink:title=" ">
<path fill="none" stroke="#63b8ff" d="M208.69,-258.85C212.79,-226.21 230.45,-119.87 291.5,-64.62 297.73,-58.98 305.67,-55.11 313.72,-52.45"/>
<polygon fill="#63b8ff" stroke="#63b8ff" points="314.4,-55.89 323.15,-49.91 312.58,-49.13 314.4,-55.89"/>
</a>
</g>
</g>
<!-- Node22 -->
<g id="Node000022" class="node">
<title>Node22</title>
<g id="a_Node000022"><a xlink:href="group__module__radsw__main_ga08e2db10432d07392f29a49bc5b5c640.html#ga08e2db10432d07392f29a49bc5b5c640" target="_top" xlink:title="The subroutine computes the optical depth in band 29: 820&#45;2600 cm&#45;1 (low &#45; h2o; high &#45; co2).">
<polygon fill="white" stroke="#666666" points="380.62,-19.25 324.88,-19.25 324.88,0 380.62,0 380.62,-19.25"/>
<text xml:space="preserve" text-anchor="middle" x="352.75" y="-5.75" font-family="Source Sans Pro" font-size="10.00">taumol29</text>
</a>
</g>
</g>
<!-- Node8&#45;&gt;Node22 -->
<g id="edge22_Node000008_Node000022" class="edge">
<title>Node8&#45;&gt;Node22</title>
<g id="a_edge22_Node000008_Node000022"><a xlink:title=" ">
<path fill="none" stroke="#63b8ff" d="M208.01,-258.68C209.96,-222.2 221.7,-94.38 291.5,-27.62 297.58,-21.82 305.45,-17.87 313.48,-15.2"/>
<polygon fill="#63b8ff" stroke="#63b8ff" points="314.17,-18.64 322.93,-12.67 312.37,-11.87 314.17,-18.64"/>
</a>
</g>
</g>
</g>
</svg>
