<?xml version="1.0" encoding="UTF-8" standalone="no"?>
<!DOCTYPE svg PUBLIC "-//W3C//DTD SVG 1.1//EN"
 "http://www.w3.org/Graphics/SVG/1.1/DTD/svg11.dtd">
<!-- Generated by graphviz version 14.1.2 (20260124.0452)
 -->
<!-- Title: module_mp_thompson::qi_aut_qs Pages: 1 -->
<svg width="593pt" height="78pt"
 viewBox="0.00 0.00 593.00 78.00" xmlns="http://www.w3.org/2000/svg" xmlns:xlink="http://www.w3.org/1999/xlink">
<g id="graph0" class="graph" transform="scale(1 1) rotate(0) translate(4 73.5)">
<title>module_mp_thompson::qi_aut_qs</title>
<!-- Node1 -->
<g id="Node000001" class="node">
<title>Node1</title>
<g id="a_Node000001"><a xlink:title="Cloud ice converting to snow since portion greater than min snow size. Given cloud ice content (kg/m*...">
<polygon fill="#999999" stroke="#666666" points="114.25,-51.5 0,-51.5 0,-21 114.25,-21 114.25,-51.5"/>
<text xml:space="preserve" text-anchor="start" x="8" y="-38" font-family="Source Sans Pro" font-size="10.00">module_mp_thompson</text>
<text xml:space="preserve" text-anchor="middle" x="57.12" y="-26.75" font-family="Source Sans Pro" font-size="10.00">::qi_aut_qs</text>
</a>
</g>
</g>
<!-- Node2 -->
<g id="Node000002" class="node">
<title>Node2</title>
<g id="a_Node000002"><a xlink:href="group__aathompson_ga5126f9b7d52cd4d3e7b072907abb4257.html#ga5126f9b7d52cd4d3e7b072907abb4257" target="_top" xlink:title=" ">
<polygon fill="white" stroke="#666666" points="264.5,-51.5 150.25,-51.5 150.25,-21 264.5,-21 264.5,-51.5"/>
<text xml:space="preserve" text-anchor="start" x="158.25" y="-38" font-family="Source Sans Pro" font-size="10.00">module_mp_thompson</text>
<text xml:space="preserve" text-anchor="middle" x="207.38" y="-26.75" font-family="Source Sans Pro" font-size="10.00">::gammp</text>
</a>
</g>
</g>
<!-- Node1&#45;&gt;Node2 -->
<g id="edge1_Node000001_Node000002" class="edge">
<title>Node1&#45;&gt;Node2</title>
<g id="a_edge1_Node000001_Node000002"><a xlink:title=" ">
<path fill="none" stroke="#63b8ff" d="M114.59,-36.25C122.49,-36.25 130.67,-36.25 138.75,-36.25"/>
<polygon fill="#63b8ff" stroke="#63b8ff" points="138.55,-39.75 148.55,-36.25 138.55,-32.75 138.55,-39.75"/>
</a>
</g>
</g>
<!-- Node2&#45;&gt;Node2 -->
<g id="edge2_Node000002_Node000002" class="edge">
<title>Node2&#45;&gt;Node2</title>
<g id="a_edge2_Node000002_Node000002"><a xlink:title=" ">
<path fill="none" stroke="#63b8ff" d="M180.75,-51.99C175.32,-61.06 184.19,-69.5 207.38,-69.5 220.05,-69.5 228.45,-66.97 232.57,-63.2"/>
<polygon fill="#63b8ff" stroke="#63b8ff" points="236.02,-63.85 233.81,-53.49 229.07,-62.97 236.02,-63.85"/>
</a>
</g>
</g>
<!-- Node3 -->
<g id="Node000003" class="node">
<title>Node3</title>
<g id="a_Node000003"><a xlink:href="group__aathompson_ga409e17891d433b3214f570828a824255.html#ga409e17891d433b3214f570828a824255" target="_top" xlink:title="Returns the incomplete gamma function q(a,x) evaluated by its continued fraction representation as ga...">
<polygon fill="white" stroke="#666666" points="434.25,-67.88 300.5,-67.88 300.5,-48.62 434.25,-48.62 434.25,-67.88"/>
<text xml:space="preserve" text-anchor="middle" x="367.38" y="-54.38" font-family="Source Sans Pro" font-size="10.00">module_mp_thompson::gcf</text>
</a>
</g>
</g>
<!-- Node2&#45;&gt;Node3 -->
<g id="edge3_Node000002_Node000003" class="edge">
<title>Node2&#45;&gt;Node3</title>
<g id="a_edge3_Node000002_Node000003"><a xlink:title=" ">
<path fill="none" stroke="#63b8ff" d="M264.97,-44.13C272.73,-45.21 280.81,-46.34 288.87,-47.46"/>
<polygon fill="#63b8ff" stroke="#63b8ff" points="288.33,-50.92 298.71,-48.83 289.29,-43.98 288.33,-50.92"/>
</a>
</g>
</g>
<!-- Node5 -->
<g id="Node000005" class="node">
<title>Node5</title>
<g id="a_Node000005"><a xlink:href="group__aathompson_ga28690a3c274459f6eb11ab59d0ae5a44.html#ga28690a3c274459f6eb11ab59d0ae5a44" target="_top" xlink:title="Returns the incomplete gamma function p(a,x) evaluated by its series representation as gamser.">
<polygon fill="white" stroke="#666666" points="424.5,-30.5 310.25,-30.5 310.25,0 424.5,0 424.5,-30.5"/>
<text xml:space="preserve" text-anchor="start" x="318.25" y="-17" font-family="Source Sans Pro" font-size="10.00">module_mp_thompson</text>
<text xml:space="preserve" text-anchor="middle" x="367.38" y="-5.75" font-family="Source Sans Pro" font-size="10.00">::gser</text>
</a>
</g>
</g>
<!-- Node2&#45;&gt;Node5 -->
<g id="edge6_Node000002_Node000005" class="edge">
<title>Node2&#45;&gt;Node5</title>
<g id="a_edge6_Node000002_Node000005"><a xlink:title=" ">
<path fill="none" stroke="#63b8ff" d="M264.97,-28.73C275.93,-27.27 287.51,-25.73 298.78,-24.23"/>
<polygon fill="#63b8ff" stroke="#63b8ff" points="298.96,-27.74 308.41,-22.95 298.04,-20.8 298.96,-27.74"/>
</a>
</g>
</g>
<!-- Node4 -->
<g id="Node000004" class="node">
<title>Node4</title>
<g id="a_Node000004"><a xlink:href="group__aathompson_gad2946a6deeab8b049fcd554d930f35c9.html#gad2946a6deeab8b049fcd554d930f35c9" target="_top" xlink:title="Returns the value ln(gamma(xx)) for xx &gt; 0.">
<polygon fill="white" stroke="#666666" points="584.5,-51.5 470.25,-51.5 470.25,-21 584.5,-21 584.5,-51.5"/>
<text xml:space="preserve" text-anchor="start" x="478.25" y="-38" font-family="Source Sans Pro" font-size="10.00">module_mp_thompson</text>
<text xml:space="preserve" text-anchor="middle" x="527.38" y="-26.75" font-family="Source Sans Pro" font-size="10.00">::gammln</text>
</a>
</g>
</g>
<!-- Node3&#45;&gt;Node4 -->
<g id="edge4_Node000003_Node000004" class="edge">
<title>Node3&#45;&gt;Node4</title>
<g id="a_edge4_Node000003_Node000004"><a xlink:title=" ">
<path fill="none" stroke="#63b8ff" d="M434.47,-49.05C442.51,-47.93 450.74,-46.78 458.81,-45.66"/>
<polygon fill="#63b8ff" stroke="#63b8ff" points="459.15,-49.14 468.57,-44.3 458.19,-42.21 459.15,-49.14"/>
</a>
</g>
</g>
<!-- Node4&#45;&gt;Node4 -->
<g id="edge5_Node000004_Node000004" class="edge">
<title>Node4&#45;&gt;Node4</title>
<g id="a_edge5_Node000004_Node000004"><a xlink:title=" ">
<path fill="none" stroke="#63b8ff" d="M499.02,-51.99C493.24,-61.06 502.69,-69.5 527.38,-69.5 540.88,-69.5 549.82,-66.97 554.21,-63.2"/>
<polygon fill="#63b8ff" stroke="#63b8ff" points="557.65,-63.87 555.52,-53.49 550.71,-62.93 557.65,-63.87"/>
</a>
</g>
</g>
<!-- Node5&#45;&gt;Node4 -->
<g id="edge7_Node000005_Node000004" class="edge">
<title>Node5&#45;&gt;Node4</title>
<g id="a_edge7_Node000005_Node000004"><a xlink:title=" ">
<path fill="none" stroke="#63b8ff" d="M424.97,-22.77C435.93,-24.23 447.51,-25.77 458.78,-27.27"/>
<polygon fill="#63b8ff" stroke="#63b8ff" points="458.04,-30.7 468.41,-28.55 458.96,-23.76 458.04,-30.7"/>
</a>
</g>
</g>
</g>
</svg>
