<?xml version="1.0" encoding="UTF-8" standalone="no"?>
<!DOCTYPE svg PUBLIC "-//W3C//DTD SVG 1.1//EN"
 "http://www.w3.org/Graphics/SVG/1.1/DTD/svg11.dtd">
<!-- Generated by graphviz version 14.1.2 (20260124.0452)
 -->
<!-- Title: module_mp_thompson::rslf Pages: 1 -->
<svg width="600pt" height="88pt"
 viewBox="0.00 0.00 600.00 88.00" xmlns="http://www.w3.org/2000/svg" xmlns:xlink="http://www.w3.org/1999/xlink">
<g id="graph0" class="graph" transform="scale(1 1) rotate(0) translate(4 83.5)">
<title>module_mp_thompson::rslf</title>
<!-- Node1 -->
<g id="Node000001" class="node">
<title>Node1</title>
<g id="a_Node000001"><a xlink:title="THIS FUNCTION CALCULATES THE LIQUID SATURATION VAPOR MIXING RATIO AS A FUNCTION OF TEMPERATURE AND PR...">
<polygon fill="#999999" stroke="#666666" points="592,-54.5 477.75,-54.5 477.75,-24 592,-24 592,-54.5"/>
<text xml:space="preserve" text-anchor="start" x="485.75" y="-41" font-family="Source Sans Pro" font-size="10.00">module_mp_thompson</text>
<text xml:space="preserve" text-anchor="middle" x="534.88" y="-29.75" font-family="Source Sans Pro" font-size="10.00">::rslf</text>
</a>
</g>
</g>
<!-- Node1&#45;&gt;Node1 -->
<g id="edge5_Node000001_Node000001" class="edge">
<title>Node1&#45;&gt;Node1</title>
<g id="a_edge5_Node000001_Node000001"><a xlink:title=" ">
<path fill="none" stroke="#63b8ff" d="M560.83,-66.2C556.58,-69.97 547.93,-72.5 534.88,-72.5 511,-72.5 501.86,-64.06 507.45,-54.99"/>
<polygon fill="#63b8ff" stroke="#63b8ff" points="564.27,-66.86 562.1,-56.49 557.33,-65.95 564.27,-66.86"/>
</a>
</g>
</g>
<!-- Node2 -->
<g id="Node000002" class="node">
<title>Node2</title>
<g id="a_Node000002"><a xlink:href="group__module__radiation__clouds_gae11bdd130c90bee7cff8741ec4504bce.html#gae11bdd130c90bee7cff8741ec4504bce" target="_top" xlink:title="Cloud fraction scheme by G. Thompson (NCAR&#45;RAL), not intended for combining with any cumulus or shall...">
<polygon fill="white" stroke="#666666" points="441.75,-79.5 318.5,-79.5 318.5,-49 441.75,-49 441.75,-79.5"/>
<text xml:space="preserve" text-anchor="start" x="326.5" y="-66" font-family="Source Sans Pro" font-size="10.00">module_radiation_clouds</text>
<text xml:space="preserve" text-anchor="middle" x="380.12" y="-54.75" font-family="Source Sans Pro" font-size="10.00">::cal_cldfra3</text>
</a>
</g>
</g>
<!-- Node1&#45;&gt;Node2 -->
<g id="edge1_Node000001_Node000002" class="edge">
<title>Node1&#45;&gt;Node2</title>
<g id="a_edge1_Node000001_Node000002"><a xlink:title=" ">
<path fill="none" stroke="#63b8ff" d="M466.24,-50.32C458.24,-51.63 450.12,-52.96 442.21,-54.25"/>
<polygon fill="#63b8ff" stroke="#63b8ff" points="466.63,-53.8 475.94,-48.73 465.5,-46.89 466.63,-53.8"/>
</a>
</g>
</g>
<!-- Node5 -->
<g id="Node000005" class="node">
<title>Node5</title>
<g id="a_Node000005"><a xlink:href="group__aathompson_gab35ac4001561513747f53afcf6c9ac3b.html#gab35ac4001561513747f53afcf6c9ac3b" target="_top" xlink:title="This subroutine computes the moisture tendencies of water vapor, cloud droplets, rain,...">
<polygon fill="white" stroke="#666666" points="437.25,-30.5 323,-30.5 323,0 437.25,0 437.25,-30.5"/>
<text xml:space="preserve" text-anchor="start" x="331" y="-17" font-family="Source Sans Pro" font-size="10.00">module_mp_thompson</text>
<text xml:space="preserve" text-anchor="middle" x="380.12" y="-5.75" font-family="Source Sans Pro" font-size="10.00">::mp_thompson</text>
</a>
</g>
</g>
<!-- Node1&#45;&gt;Node5 -->
<g id="edge4_Node000001_Node000005" class="edge">
<title>Node1&#45;&gt;Node5</title>
<g id="a_edge4_Node000001_Node000005"><a xlink:title=" ">
<path fill="none" stroke="#63b8ff" d="M466.3,-28.63C456.71,-27.13 446.94,-25.59 437.59,-24.12"/>
<polygon fill="#63b8ff" stroke="#63b8ff" points="465.51,-32.05 475.94,-30.15 466.6,-25.14 465.51,-32.05"/>
</a>
</g>
</g>
<!-- Node3 -->
<g id="Node000003" class="node">
<title>Node3</title>
<g id="a_Node000003"><a xlink:href="group__module__radiation__clouds_ga0f8f599f3b125b66e0784e053208ae8f.html#ga0f8f599f3b125b66e0784e053208ae8f" target="_top" xlink:title="This subroutine added by G. Thompson specifically to account for explicit (microphysics&#45;produced) clo...">
<polygon fill="white" stroke="#666666" points="282.5,-79.5 159.25,-79.5 159.25,-49 282.5,-49 282.5,-79.5"/>
<text xml:space="preserve" text-anchor="start" x="167.25" y="-66" font-family="Source Sans Pro" font-size="10.00">module_radiation_clouds</text>
<text xml:space="preserve" text-anchor="middle" x="220.88" y="-54.75" font-family="Source Sans Pro" font-size="10.00">::progcld_thompson</text>
</a>
</g>
</g>
<!-- Node2&#45;&gt;Node3 -->
<g id="edge2_Node000002_Node000003" class="edge">
<title>Node2&#45;&gt;Node3</title>
<g id="a_edge2_Node000002_Node000003"><a xlink:title=" ">
<path fill="none" stroke="#63b8ff" d="M306.98,-64.25C298.89,-64.25 290.7,-64.25 282.77,-64.25"/>
<polygon fill="#63b8ff" stroke="#63b8ff" points="306.81,-67.75 316.81,-64.25 306.81,-60.75 306.81,-67.75"/>
</a>
</g>
</g>
<!-- Node4 -->
<g id="Node000004" class="node">
<title>Node4</title>
<g id="a_Node000004"><a xlink:href="group__module__radiation__clouds_gade0c4ffb0276ff706253a39568a88a67.html#gade0c4ffb0276ff706253a39568a88a67" target="_top" xlink:title="Subroutine radiation_clouds_prop computes cloud related quantities for different cloud microphysics s...">
<polygon fill="white" stroke="#666666" points="123.25,-79.5 0,-79.5 0,-49 123.25,-49 123.25,-79.5"/>
<text xml:space="preserve" text-anchor="start" x="8" y="-66" font-family="Source Sans Pro" font-size="10.00">module_radiation_clouds</text>
<text xml:space="preserve" text-anchor="middle" x="61.62" y="-54.75" font-family="Source Sans Pro" font-size="10.00">::radiation_clouds_prop</text>
</a>
</g>
</g>
<!-- Node3&#45;&gt;Node4 -->
<g id="edge3_Node000003_Node000004" class="edge">
<title>Node3&#45;&gt;Node4</title>
<g id="a_edge3_Node000003_Node000004"><a xlink:title=" ">
<path fill="none" stroke="#63b8ff" d="M147.73,-64.25C139.64,-64.25 131.45,-64.25 123.52,-64.25"/>
<polygon fill="#63b8ff" stroke="#63b8ff" points="147.56,-67.75 157.56,-64.25 147.56,-60.75 147.56,-67.75"/>
</a>
</g>
</g>
</g>
</svg>
