<?xml version="1.0" encoding="UTF-8" standalone="no"?>
<!DOCTYPE svg PUBLIC "-//W3C//DTD SVG 1.1//EN"
 "http://www.w3.org/Graphics/SVG/1.1/DTD/svg11.dtd">
<!-- Generated by graphviz version 14.1.2 (20260124.0452)
 -->
<!-- Title: module_sf_ruclsm::snowseaice Pages: 1 -->
<svg width="319pt" height="82pt"
 viewBox="0.00 0.00 319.00 82.00" xmlns="http://www.w3.org/2000/svg" xmlns:xlink="http://www.w3.org/1999/xlink">
<g id="graph0" class="graph" transform="scale(1 1) rotate(0) translate(4 78.25)">
<title>module_sf_ruclsm::snowseaice</title>
<!-- Node1 -->
<g id="Node000001" class="node">
<title>Node1</title>
<g id="a_Node000001"><a xlink:title="This subroutine is called for sea ice with accumulated snow on its surface. It solves energy budget o...">
<polygon fill="#999999" stroke="#666666" points="153.25,-37.25 0,-37.25 0,-18 153.25,-18 153.25,-37.25"/>
<text xml:space="preserve" text-anchor="middle" x="76.62" y="-23.75" font-family="Source Sans Pro" font-size="10.00">module_sf_ruclsm::snowseaice</text>
</a>
</g>
</g>
<!-- Node2 -->
<g id="Node000002" class="node">
<title>Node2</title>
<g id="a_Node000002"><a xlink:href="group__lsm__ruc__group_ga0892c4c726f23c4e4c8317efd197c208.html#ga0892c4c726f23c4e4c8317efd197c208" target="_top" xlink:title="This function computes water vapor mixing ratio at saturation from the precomputed table and a given ...">
<polygon fill="white" stroke="#666666" points="308.75,-56.25 191.5,-56.25 191.5,-37 308.75,-37 308.75,-56.25"/>
<text xml:space="preserve" text-anchor="middle" x="250.12" y="-42.75" font-family="Source Sans Pro" font-size="10.00">module_sf_ruclsm::qsn</text>
</a>
</g>
</g>
<!-- Node1&#45;&gt;Node2 -->
<g id="edge1_Node000001_Node000002" class="edge">
<title>Node1&#45;&gt;Node2</title>
<g id="a_edge1_Node000001_Node000002"><a xlink:title=" ">
<path fill="none" stroke="#63b8ff" d="M153.35,-36.01C162.14,-36.99 171.08,-37.98 179.79,-38.94"/>
<polygon fill="#63b8ff" stroke="#63b8ff" points="179.24,-42.4 189.56,-40.03 180.01,-35.45 179.24,-42.4"/>
</a>
</g>
</g>
<!-- Node3 -->
<g id="Node000003" class="node">
<title>Node3</title>
<g id="a_Node000003"><a xlink:href="group__lsm__ruc__group_ga03c426be3516bfb046dfd57c1b89dbbe.html#ga03c426be3516bfb046dfd57c1b89dbbe" target="_top" xlink:title="This subroutine finds the solution of energy budget at the surface from the pre&#45;computed table of sat...">
<polygon fill="white" stroke="#666666" points="311,-19.25 189.25,-19.25 189.25,0 311,0 311,-19.25"/>
<text xml:space="preserve" text-anchor="middle" x="250.12" y="-5.75" font-family="Source Sans Pro" font-size="10.00">module_sf_ruclsm::vilka</text>
</a>
</g>
</g>
<!-- Node1&#45;&gt;Node3 -->
<g id="edge3_Node000001_Node000003" class="edge">
<title>Node1&#45;&gt;Node3</title>
<g id="a_edge3_Node000001_Node000003"><a xlink:title=" ">
<path fill="none" stroke="#63b8ff" d="M153.35,-19.68C161.46,-18.83 169.69,-17.96 177.75,-17.12"/>
<polygon fill="#63b8ff" stroke="#63b8ff" points="177.91,-20.62 187.49,-16.09 177.18,-13.66 177.91,-20.62"/>
</a>
</g>
</g>
<!-- Node2&#45;&gt;Node2 -->
<g id="edge2_Node000002_Node000002" class="edge">
<title>Node2&#45;&gt;Node2</title>
<g id="a_edge2_Node000002_Node000002"><a xlink:title=" ">
<path fill="none" stroke="#63b8ff" d="M222.96,-56.54C210.57,-65.15 219.63,-74.25 250.12,-74.25 267.28,-74.25 277.65,-71.37 281.24,-67.32"/>
<polygon fill="#63b8ff" stroke="#63b8ff" points="284.53,-66.15 277.81,-57.96 277.96,-68.55 284.53,-66.15"/>
</a>
</g>
</g>
</g>
</svg>
