<?xml version="1.0" encoding="UTF-8" standalone="no"?>
<!DOCTYPE svg PUBLIC "-//W3C//DTD SVG 1.1//EN"
 "http://www.w3.org/Graphics/SVG/1.1/DTD/svg11.dtd">
<!-- Generated by graphviz version 14.1.2 (20260124.0452)
 -->
<!-- Title: module_sf_mynn::sfclay1d_mynn Pages: 1 -->
<!--zoomable 1008 -->

<svg id="main" version="1.1" xmlns="http://www.w3.org/2000/svg" xmlns:xlink="http://www.w3.org/1999/xlink" xml:space="preserve" onload="init(evt)">

<style type="text/css"><![CDATA[
.node, .edge {opacity: 0.7;}
.node.selected, .edge.selected {opacity: 1;}
.edge:hover path { stroke: red; }
.edge:hover polygon { stroke: red; fill: red; }
]]></style>

<defs>
  <circle id="rim" cx="0" cy="0" r="7"/>
  <circle id="rim2" cx="0" cy="0" r="3.5"/>
  <g id="zoomPlus">
    <use xlink:href="#rim" fill="#404040"><set attributeName="fill" to="#808080" begin="zoomplus.mouseover" end="zoomplus.mouseout"/></use>
    <path d="M-4,0h8M0,-4v8" fill="none" stroke="white" stroke-width="1.5" pointer-events="none"/>
  </g>
  <g id="zoomMin">
    <use xlink:href="#rim" fill="#404040"><set attributeName="fill" to="#808080" begin="zoomminus.mouseover" end="zoomminus.mouseout"/></use>
    <path d="M-4,0h8" fill="none" stroke="white" stroke-width="1.5" pointer-events="none"/>
  </g>
  <g id="arrowUp" transform="translate(30 24)">
    <use xlink:href="#rim"/>
    <path pointer-events="none" fill="none" stroke="white" stroke-width="1.5" d="M0,-3.0v7 M-2.5,-0.5L0,-3.0L2.5,-0.5"/>
  </g>
  <g id="arrowRight" transform="rotate(90) translate(36 -43)">
    <use xlink:href="#rim"/>
    <path pointer-events="none" fill="none" stroke="white" stroke-width="1.5" d="M0,-3.0v7 M-2.5,-0.5L0,-3.0L2.5,-0.5"/>
  </g>
  <g id="arrowDown" transform="rotate(180) translate(-30 -48)">
    <use xlink:href="#rim"/>
    <path pointer-events="none" fill="none" stroke="white" stroke-width="1.5" d="M0,-3.0v7 M-2.5,-0.5L0,-3.0L2.5,-0.5"/>
  </g>
  <g id="arrowLeft" transform="rotate(270) translate(-36 17)">
    <use xlink:href="#rim"/>
    <path pointer-events="none" fill="none" stroke="white" stroke-width="1.5" d="M0,-3.0v7 M-2.5,-0.5L0,-3.0L2.5,-0.5"/>
  </g>
  <g id="resetDef">
    <use xlink:href="#rim2" fill="#404040"><set attributeName="fill" to="#808080" begin="reset.mouseover" end="reset.mouseout"/></use>
  </g>
</defs>
<script type="application/ecmascript">
var viewWidth = 560;
var viewHeight = 1008;
var sectionId = 'dynsection-0';
</script>
<script type="application/ecmascript" xlink:href="svg.min.js"/>
<svg id="graph" class="graph">
<g id="viewport">
<title>module_sf_mynn::sfclay1d_mynn</title>
<!-- Node1 -->
<g id="Node000001" class="node">
<title>Node1</title>
<g id="a_Node000001"><a xlink:title="This subroutine calculates u*, z/L, and the exchange coefficients which are passed to subsequent sche...">
<polygon fill="#999999" stroke="#666666" points="162.25,-588.88 0,-588.88 0,-569.62 162.25,-569.62 162.25,-588.88"/>
<text xml:space="preserve" text-anchor="middle" x="81.12" y="-575.38" font-family="Source Sans Pro" font-size="10.00">module_sf_mynn::sfclay1d_mynn</text>
</a>
</g>
</g>
<!-- Node2 -->
<g id="Node000002" class="node">
<title>Node2</title>
<g id="a_Node000002"><a xlink:href="group__mynn__sfc_ga4b25c539d21bd439596f5a9adba12a47.html#ga4b25c539d21bd439596f5a9adba12a47" target="_top" xlink:title="This is taken from Andreas (2002; J. of Hydromet) and Andreas et al. (2005; BLM).">
<polygon fill="white" stroke="#666666" points="363.5,-999.88 206.5,-999.88 206.5,-980.62 363.5,-980.62 363.5,-999.88"/>
<text xml:space="preserve" text-anchor="middle" x="285" y="-986.38" font-family="Source Sans Pro" font-size="10.00">module_sf_mynn::andreas_2002</text>
</a>
</g>
</g>
<!-- Node1&#45;&gt;Node2 -->
<g id="edge1_Node000001_Node000002" class="edge">
<title>Node1&#45;&gt;Node2</title>
<g id="a_edge1_Node000001_Node000002"><a xlink:title=" ">
<path fill="none" stroke="#63b8ff" d="M81.68,-589.35C80.05,-639.42 79.82,-862.98 198.25,-972.25 198.77,-972.73 199.31,-973.21 199.85,-973.67"/>
<polygon fill="#63b8ff" stroke="#63b8ff" points="197.87,-976.55 208.1,-979.31 201.83,-970.78 197.87,-976.55"/>
</a>
</g>
</g>
<!-- Node3 -->
<g id="Node000003" class="node">
<title>Node3</title>
<g id="a_Node000003"><a xlink:href="group__mynn__sfc_ga24752a5f2d97dbfa6653a4a2e09dd452.html#ga24752a5f2d97dbfa6653a4a2e09dd452" target="_top" xlink:title="This version of Charnock&#39;s relation employs a varying Charnock parameter, similar to COARE3....">
<polygon fill="white" stroke="#666666" points="366.12,-962.88 203.88,-962.88 203.88,-943.62 366.12,-943.62 366.12,-962.88"/>
<text xml:space="preserve" text-anchor="middle" x="285" y="-949.38" font-family="Source Sans Pro" font-size="10.00">module_sf_mynn::charnock_1955</text>
</a>
</g>
</g>
<!-- Node1&#45;&gt;Node3 -->
<g id="edge2_Node000001_Node000003" class="edge">
<title>Node1&#45;&gt;Node3</title>
<g id="a_edge2_Node000001_Node000003"><a xlink:title=" ">
<path fill="none" stroke="#63b8ff" d="M82.07,-589.3C82.37,-636.29 90.15,-836.26 198.25,-934.25 199.36,-935.26 200.52,-936.22 201.71,-937.13"/>
<polygon fill="#63b8ff" stroke="#63b8ff" points="199.84,-940.09 210.18,-942.43 203.56,-934.16 199.84,-940.09"/>
</a>
</g>
</g>
<!-- Node4 -->
<g id="Node000004" class="node">
<title>Node4</title>
<g id="a_Node000004"><a xlink:href="group__mynn__sfc_ga6f58970b26a345173a4b938ce79986a1.html#ga6f58970b26a345173a4b938ce79986a1" target="_top" xlink:title=" ">
<polygon fill="white" stroke="#666666" points="344.75,-925.5 225.25,-925.5 225.25,-895 344.75,-895 344.75,-925.5"/>
<text xml:space="preserve" text-anchor="start" x="233.25" y="-912" font-family="Source Sans Pro" font-size="10.00">module_sf_mynn::davis</text>
<text xml:space="preserve" text-anchor="middle" x="285" y="-900.75" font-family="Source Sans Pro" font-size="10.00">_etal_2008</text>
</a>
</g>
</g>
<!-- Node1&#45;&gt;Node4 -->
<g id="edge3_Node000001_Node000004" class="edge">
<title>Node1&#45;&gt;Node4</title>
<g id="a_edge3_Node000001_Node000004"><a xlink:title=" ">
<path fill="none" stroke="#63b8ff" d="M82.8,-589.19C86.23,-631.64 105.39,-799.45 198.25,-885.25 203.07,-889.7 208.63,-893.36 214.56,-896.37"/>
<polygon fill="#63b8ff" stroke="#63b8ff" points="212.88,-899.46 223.45,-900.25 215.68,-893.04 212.88,-899.46"/>
</a>
</g>
</g>
<!-- Node5 -->
<g id="Node000005" class="node">
<title>Node5</title>
<g id="a_Node000005"><a xlink:href="group__mynn__sfc_gae5186e30771524f661b8506fcc83f7a8.html#gae5186e30771524f661b8506fcc83f7a8" target="_top" xlink:title="This version of Charnock&#39;s relation employs a varying Charnock parameter, taken from COARE 3....">
<polygon fill="white" stroke="#666666" points="346.25,-876.5 223.75,-876.5 223.75,-846 346.25,-846 346.25,-876.5"/>
<text xml:space="preserve" text-anchor="start" x="231.75" y="-863" font-family="Source Sans Pro" font-size="10.00">module_sf_mynn::edson</text>
<text xml:space="preserve" text-anchor="middle" x="285" y="-851.75" font-family="Source Sans Pro" font-size="10.00">_etal_2013</text>
</a>
</g>
</g>
<!-- Node1&#45;&gt;Node5 -->
<g id="edge4_Node000001_Node000005" class="edge">
<title>Node1&#45;&gt;Node5</title>
<g id="a_edge4_Node000001_Node000005"><a xlink:title=" ">
<path fill="none" stroke="#63b8ff" d="M83.59,-589.14C89.74,-627.22 117.1,-765.79 198.25,-836.25 202.67,-840.09 207.66,-843.34 212.94,-846.1"/>
<polygon fill="#63b8ff" stroke="#63b8ff" points="211.47,-849.27 222.03,-850.18 214.34,-842.89 211.47,-849.27"/>
</a>
</g>
</g>
<!-- Node6 -->
<g id="Node000006" class="node">
<title>Node6</title>
<g id="a_Node000006"><a xlink:href="group__mynn__sfc_gafae928cdee7c24f2ec11f10708193792.html#gafae928cdee7c24f2ec11f10708193792" target="_top" xlink:title="This formulation for thermal and moisture roughness length (Zt and Zq) as a function of the roughness...">
<polygon fill="white" stroke="#666666" points="344.75,-827.5 225.25,-827.5 225.25,-797 344.75,-797 344.75,-827.5"/>
<text xml:space="preserve" text-anchor="start" x="233.25" y="-814" font-family="Source Sans Pro" font-size="10.00">module_sf_mynn::fairall</text>
<text xml:space="preserve" text-anchor="middle" x="285" y="-802.75" font-family="Source Sans Pro" font-size="10.00">_etal_2003</text>
</a>
</g>
</g>
<!-- Node1&#45;&gt;Node6 -->
<g id="edge5_Node000001_Node000006" class="edge">
<title>Node1&#45;&gt;Node6</title>
<g id="a_edge5_Node000001_Node000006"><a xlink:title=" ">
<path fill="none" stroke="#63b8ff" d="M84.75,-589.28C94.06,-622.79 128.7,-731.85 198.25,-787.25 203.3,-791.27 208.98,-794.65 214.94,-797.48"/>
<polygon fill="#63b8ff" stroke="#63b8ff" points="213.22,-800.56 223.8,-801.17 215.91,-794.09 213.22,-800.56"/>
</a>
</g>
</g>
<!-- Node7 -->
<g id="Node000007" class="node">
<title>Node7</title>
<g id="a_Node000007"><a xlink:href="group__mynn__sfc_ga4b9bb922e616c8c76bf1f117db9bdd4b.html#ga4b9bb922e616c8c76bf1f117db9bdd4b" target="_top" xlink:title="This formulation for thermal and moisture roughness length (Zt and Zq) as a function of the roughness...">
<polygon fill="white" stroke="#666666" points="344.75,-778.5 225.25,-778.5 225.25,-748 344.75,-748 344.75,-778.5"/>
<text xml:space="preserve" text-anchor="start" x="233.25" y="-765" font-family="Source Sans Pro" font-size="10.00">module_sf_mynn::fairall</text>
<text xml:space="preserve" text-anchor="middle" x="285" y="-753.75" font-family="Source Sans Pro" font-size="10.00">_etal_2014</text>
</a>
</g>
</g>
<!-- Node1&#45;&gt;Node7 -->
<g id="edge6_Node000001_Node000007" class="edge">
<title>Node1&#45;&gt;Node7</title>
<g id="a_edge6_Node000001_Node000007"><a xlink:title=" ">
<path fill="none" stroke="#63b8ff" d="M86.48,-589.31C99.23,-617.56 139.37,-698.28 198.25,-739.25 203.25,-742.73 208.73,-745.7 214.44,-748.25"/>
<polygon fill="#63b8ff" stroke="#63b8ff" points="212.91,-751.4 223.5,-751.82 215.48,-744.89 212.91,-751.4"/>
</a>
</g>
</g>
<!-- Node8 -->
<g id="Node000008" class="node">
<title>Node8</title>
<g id="a_Node000008"><a xlink:href="group__mynn__sfc_gabcddba37d2f63570c5487a832d6d0808.html#gabcddba37d2f63570c5487a832d6d0808" target="_top" xlink:title="This formulation for the thermal and moisture roughness lengths (Zt and Zq) relates them to Z0 via th...">
<polygon fill="white" stroke="#666666" points="360.12,-729.88 209.88,-729.88 209.88,-710.62 360.12,-710.62 360.12,-729.88"/>
<text xml:space="preserve" text-anchor="middle" x="285" y="-716.38" font-family="Source Sans Pro" font-size="10.00">module_sf_mynn::garratt_1992</text>
</a>
</g>
</g>
<!-- Node1&#45;&gt;Node8 -->
<g id="edge7_Node000001_Node000008" class="edge">
<title>Node1&#45;&gt;Node8</title>
<g id="a_edge7_Node000001_Node000008"><a xlink:title=" ">
<path fill="none" stroke="#63b8ff" d="M88.58,-589.37C104.25,-613.04 146.82,-672.21 198.25,-701.25 201.44,-703.05 204.78,-704.68 208.22,-706.15"/>
<polygon fill="#63b8ff" stroke="#63b8ff" points="206.78,-709.35 217.37,-709.6 209.24,-702.8 206.78,-709.35"/>
</a>
</g>
</g>
<!-- Node9 -->
<g id="Node000009" class="node">
<title>Node9</title>
<g id="a_Node000009"><a xlink:href="group__mynn__sfc_ga8132bf9ce581779f82f4118e8a275013.html#ga8132bf9ce581779f82f4118e8a275013" target="_top" xlink:title=" ">
<polygon fill="white" stroke="#666666" points="339.88,-692.5 230.12,-692.5 230.12,-662 339.88,-662 339.88,-692.5"/>
<text xml:space="preserve" text-anchor="start" x="238.12" y="-679" font-family="Source Sans Pro" font-size="10.00">module_sf_mynn::gfs</text>
<text xml:space="preserve" text-anchor="middle" x="285" y="-667.75" font-family="Source Sans Pro" font-size="10.00">_z0_lnd</text>
</a>
</g>
</g>
<!-- Node1&#45;&gt;Node9 -->
<g id="edge8_Node000001_Node000009" class="edge">
<title>Node1&#45;&gt;Node9</title>
<g id="a_edge8_Node000001_Node000009"><a xlink:title=" ">
<path fill="none" stroke="#63b8ff" d="M95.37,-589.31C116.24,-604.76 158.5,-634.38 198.25,-652.25 204.9,-655.24 212,-657.98 219.17,-660.45"/>
<polygon fill="#63b8ff" stroke="#63b8ff" points="217.63,-663.63 228.22,-663.41 219.8,-656.97 217.63,-663.63"/>
</a>
</g>
</g>
<!-- Node10 -->
<g id="Node000010" class="node">
<title>Node10</title>
<g id="a_Node000010"><a xlink:href="group__mynn__sfc_gaaa5898e1b7cca87a6682f85defb5c2e9.html#gaaa5898e1b7cca87a6682f85defb5c2e9" target="_top" xlink:title=" ">
<polygon fill="white" stroke="#666666" points="339.88,-643.5 230.12,-643.5 230.12,-613 339.88,-613 339.88,-643.5"/>
<text xml:space="preserve" text-anchor="start" x="238.12" y="-630" font-family="Source Sans Pro" font-size="10.00">module_sf_mynn::gfs</text>
<text xml:space="preserve" text-anchor="middle" x="285" y="-618.75" font-family="Source Sans Pro" font-size="10.00">_z0_wat</text>
</a>
</g>
</g>
<!-- Node1&#45;&gt;Node10 -->
<g id="edge9_Node000001_Node000010" class="edge">
<title>Node1&#45;&gt;Node10</title>
<g id="a_edge9_Node000001_Node000010"><a xlink:title=" ">
<path fill="none" stroke="#63b8ff" d="M123.46,-589.28C150.91,-595.95 187.52,-604.83 218.85,-612.44"/>
<polygon fill="#63b8ff" stroke="#63b8ff" points="217.67,-615.75 228.21,-614.71 219.32,-608.95 217.67,-615.75"/>
</a>
</g>
</g>
<!-- Node13 -->
<g id="Node000013" class="node">
<title>Node13</title>
<g id="a_Node000013"><a xlink:href="group__mynn__sfc_gaf86498f1d153a9a81a209266b298268f.html#gaf86498f1d153a9a81a209266b298268f" target="_top" xlink:title=" ">
<polygon fill="white" stroke="#666666" points="339.88,-594.5 230.12,-594.5 230.12,-564 339.88,-564 339.88,-594.5"/>
<text xml:space="preserve" text-anchor="start" x="238.12" y="-581" font-family="Source Sans Pro" font-size="10.00">module_sf_mynn::gfs</text>
<text xml:space="preserve" text-anchor="middle" x="285" y="-569.75" font-family="Source Sans Pro" font-size="10.00">_zt_lnd</text>
</a>
</g>
</g>
<!-- Node1&#45;&gt;Node13 -->
<g id="edge12_Node000001_Node000013" class="edge">
<title>Node1&#45;&gt;Node13</title>
<g id="a_edge12_Node000001_Node000013"><a xlink:title=" ">
<path fill="none" stroke="#63b8ff" d="M162.49,-579.25C180.98,-579.25 200.43,-579.25 218.22,-579.25"/>
<polygon fill="#63b8ff" stroke="#63b8ff" points="218.13,-582.75 228.13,-579.25 218.13,-575.75 218.13,-582.75"/>
</a>
</g>
</g>
<!-- Node14 -->
<g id="Node000014" class="node">
<title>Node14</title>
<g id="a_Node000014"><a xlink:href="group__mynn__sfc_ga16135fde36dbe926afe4a8883ded1d1d.html#ga16135fde36dbe926afe4a8883ded1d1d" target="_top" xlink:title=" ">
<polygon fill="white" stroke="#666666" points="339.88,-545.5 230.12,-545.5 230.12,-515 339.88,-515 339.88,-545.5"/>
<text xml:space="preserve" text-anchor="start" x="238.12" y="-532" font-family="Source Sans Pro" font-size="10.00">module_sf_mynn::gfs</text>
<text xml:space="preserve" text-anchor="middle" x="285" y="-520.75" font-family="Source Sans Pro" font-size="10.00">_zt_wat</text>
</a>
</g>
</g>
<!-- Node1&#45;&gt;Node14 -->
<g id="edge13_Node000001_Node000014" class="edge">
<title>Node1&#45;&gt;Node14</title>
<g id="a_edge13_Node000001_Node000014"><a xlink:title=" ">
<path fill="none" stroke="#63b8ff" d="M123.46,-569.22C150.91,-562.55 187.52,-553.67 218.85,-546.06"/>
<polygon fill="#63b8ff" stroke="#63b8ff" points="219.32,-549.55 228.21,-543.79 217.67,-542.75 219.32,-549.55"/>
</a>
</g>
</g>
<!-- Node17 -->
<g id="Node000017" class="node">
<title>Node17</title>
<g id="a_Node000017"><a xlink:href="group__mynn__sfc_ga313671969a16aee828efb31d353b213c.html#ga313671969a16aee828efb31d353b213c" target="_top" xlink:title="This subroutine returns a more robust z/L that best matches the z/L from Hogstrom (1996) for unstable...">
<polygon fill="white" stroke="#666666" points="335.38,-496.5 234.62,-496.5 234.62,-466 335.38,-466 335.38,-496.5"/>
<text xml:space="preserve" text-anchor="start" x="242.62" y="-483" font-family="Source Sans Pro" font-size="10.00">module_sf_mynn::li</text>
<text xml:space="preserve" text-anchor="middle" x="285" y="-471.75" font-family="Source Sans Pro" font-size="10.00">_etal_2010</text>
</a>
</g>
</g>
<!-- Node1&#45;&gt;Node17 -->
<g id="edge16_Node000001_Node000017" class="edge">
<title>Node1&#45;&gt;Node17</title>
<g id="a_edge16_Node000001_Node000017"><a xlink:title=" ">
<path fill="none" stroke="#63b8ff" d="M95.37,-569.19C116.24,-553.74 158.5,-524.12 198.25,-506.25 206.21,-502.67 214.81,-499.46 223.38,-496.63"/>
<polygon fill="#63b8ff" stroke="#63b8ff" points="224.24,-500.03 232.74,-493.69 222.15,-493.35 224.24,-500.03"/>
</a>
</g>
</g>
<!-- Node18 -->
<g id="Node000018" class="node">
<title>Node18</title>
<g id="a_Node000018"><a xlink:href="group__mynn__sfc_ga2a33b37b24c6050511f00967992ece58.html#ga2a33b37b24c6050511f00967992ece58" target="_top" xlink:title=" ">
<polygon fill="white" stroke="#666666" points="342.12,-429.5 227.88,-429.5 227.88,-399 342.12,-399 342.12,-429.5"/>
<text xml:space="preserve" text-anchor="start" x="235.88" y="-416" font-family="Source Sans Pro" font-size="10.00">module_sf_mynn::psih</text>
<text xml:space="preserve" text-anchor="middle" x="285" y="-404.75" font-family="Source Sans Pro" font-size="10.00">_stable</text>
</a>
</g>
</g>
<!-- Node1&#45;&gt;Node18 -->
<g id="edge17_Node000001_Node000018" class="edge">
<title>Node1&#45;&gt;Node18</title>
<g id="a_edge17_Node000001_Node000018"><a xlink:title=" ">
<path fill="none" stroke="#63b8ff" d="M89.62,-569.29C106.81,-546.94 151.25,-492.06 198.25,-457.25 209.76,-448.73 223.22,-441.08 236.01,-434.67"/>
<polygon fill="#63b8ff" stroke="#63b8ff" points="237.23,-437.97 244.72,-430.47 234.19,-431.67 237.23,-437.97"/>
</a>
</g>
</g>
<!-- Node21 -->
<g id="Node000021" class="node">
<title>Node21</title>
<g id="a_Node000021"><a xlink:href="group__mynn__sfc_ga6e10bc7bd36fcdbf2b555f49396c9eec.html#ga6e10bc7bd36fcdbf2b555f49396c9eec" target="_top" xlink:title=" ">
<polygon fill="white" stroke="#666666" points="342.12,-362.5 227.88,-362.5 227.88,-332 342.12,-332 342.12,-362.5"/>
<text xml:space="preserve" text-anchor="start" x="235.88" y="-349" font-family="Source Sans Pro" font-size="10.00">module_sf_mynn::psih</text>
<text xml:space="preserve" text-anchor="middle" x="285" y="-337.75" font-family="Source Sans Pro" font-size="10.00">_unstable</text>
</a>
</g>
</g>
<!-- Node1&#45;&gt;Node21 -->
<g id="edge23_Node000001_Node000021" class="edge">
<title>Node1&#45;&gt;Node21</title>
<g id="a_edge23_Node000001_Node000021"><a xlink:title=" ">
<path fill="none" stroke="#63b8ff" d="M85.91,-569.31C97.93,-538.84 138.09,-445.44 198.25,-390.25 207.84,-381.46 219.56,-374.02 231.22,-367.94"/>
<polygon fill="#63b8ff" stroke="#63b8ff" points="232.6,-371.16 240.03,-363.61 229.51,-364.88 232.6,-371.16"/>
</a>
</g>
</g>
<!-- Node24 -->
<g id="Node000024" class="node">
<title>Node24</title>
<g id="a_Node000024"><a xlink:href="group__mynn__sfc_ga454633ed81c49d8e9468a102612e38d1.html#ga454633ed81c49d8e9468a102612e38d1" target="_top" xlink:title="look&#45;up table functions &#45; or, if beyond &#45;10 &lt; z/L &lt; 10, recalculate">
<polygon fill="white" stroke="#666666" points="343.62,-295.5 226.38,-295.5 226.38,-265 343.62,-265 343.62,-295.5"/>
<text xml:space="preserve" text-anchor="start" x="234.38" y="-282" font-family="Source Sans Pro" font-size="10.00">module_sf_mynn::psim</text>
<text xml:space="preserve" text-anchor="middle" x="285" y="-270.75" font-family="Source Sans Pro" font-size="10.00">_stable</text>
</a>
</g>
</g>
<!-- Node1&#45;&gt;Node24 -->
<g id="edge29_Node000001_Node000024" class="edge">
<title>Node1&#45;&gt;Node24</title>
<g id="a_edge29_Node000001_Node000024"><a xlink:title=" ">
<path fill="none" stroke="#63b8ff" d="M84.11,-569.33C92,-532.26 124.33,-400.11 198.25,-323.25 206.82,-314.34 217.64,-306.97 228.67,-301.02"/>
<polygon fill="#63b8ff" stroke="#63b8ff" points="230.09,-304.22 237.46,-296.61 226.95,-297.96 230.09,-304.22"/>
</a>
</g>
</g>
<!-- Node27 -->
<g id="Node000027" class="node">
<title>Node27</title>
<g id="a_Node000027"><a xlink:href="group__mynn__sfc_ga885118af5fa22eb8e00039c531ddd8db.html#ga885118af5fa22eb8e00039c531ddd8db" target="_top" xlink:title=" ">
<polygon fill="white" stroke="#666666" points="343.62,-228.5 226.38,-228.5 226.38,-198 343.62,-198 343.62,-228.5"/>
<text xml:space="preserve" text-anchor="start" x="234.38" y="-215" font-family="Source Sans Pro" font-size="10.00">module_sf_mynn::psim</text>
<text xml:space="preserve" text-anchor="middle" x="285" y="-203.75" font-family="Source Sans Pro" font-size="10.00">_unstable</text>
</a>
</g>
</g>
<!-- Node1&#45;&gt;Node27 -->
<g id="edge35_Node000001_Node000027" class="edge">
<title>Node1&#45;&gt;Node27</title>
<g id="a_edge35_Node000001_Node000027"><a xlink:title=" ">
<path fill="none" stroke="#63b8ff" d="M83.05,-569.2C87.5,-526.21 110.27,-355.44 198.25,-256.25 206.21,-247.28 216.47,-239.95 227.11,-234.06"/>
<polygon fill="#63b8ff" stroke="#63b8ff" points="228.7,-237.18 236.02,-229.52 225.52,-230.94 228.7,-237.18"/>
</a>
</g>
</g>
<!-- Node30 -->
<g id="Node000030" class="node">
<title>Node30</title>
<g id="a_Node000030"><a xlink:href="group__mynn__sfc_ga9ab0b939197c07ac6ef3cae7acee13a5.html#ga9ab0b939197c07ac6ef3cae7acee13a5" target="_top" xlink:title="This formulation for roughness length was designed account for. wave steepness.">
<polygon fill="white" stroke="#666666" points="345.12,-179.5 224.88,-179.5 224.88,-149 345.12,-149 345.12,-179.5"/>
<text xml:space="preserve" text-anchor="start" x="232.88" y="-166" font-family="Source Sans Pro" font-size="10.00">module_sf_mynn::taylor</text>
<text xml:space="preserve" text-anchor="middle" x="285" y="-154.75" font-family="Source Sans Pro" font-size="10.00">_yelland_2001</text>
</a>
</g>
</g>
<!-- Node1&#45;&gt;Node30 -->
<g id="edge41_Node000001_Node000030" class="edge">
<title>Node1&#45;&gt;Node30</title>
<g id="a_edge41_Node000001_Node000030"><a xlink:title=" ">
<path fill="none" stroke="#63b8ff" d="M81.88,-569.4C81.2,-520.55 84.78,-302.07 198.25,-189.25 202.9,-184.63 208.35,-180.85 214.22,-177.76"/>
<polygon fill="#63b8ff" stroke="#63b8ff" points="215.33,-181.1 223.02,-173.82 212.47,-174.71 215.33,-181.1"/>
</a>
</g>
</g>
<!-- Node31 -->
<g id="Node000031" class="node">
<title>Node31</title>
<g id="a_Node000031"><a xlink:href="group__mynn__sfc_ga259ab52e1c191830559f851230ca17d9.html#ga259ab52e1c191830559f851230ca17d9" target="_top" xlink:title="This is a modified version of Yang et al (2002 QJRMS, 2008 JAMC) and Chen et al (2010,...">
<polygon fill="white" stroke="#666666" points="356.75,-130.88 213.25,-130.88 213.25,-111.62 356.75,-111.62 356.75,-130.88"/>
<text xml:space="preserve" text-anchor="middle" x="285" y="-117.38" font-family="Source Sans Pro" font-size="10.00">module_sf_mynn::yang_2008</text>
</a>
</g>
</g>
<!-- Node1&#45;&gt;Node31 -->
<g id="edge42_Node000001_Node000031" class="edge">
<title>Node1&#45;&gt;Node31</title>
<g id="a_edge42_Node000001_Node000031"><a xlink:title=" ">
<path fill="none" stroke="#63b8ff" d="M83.35,-569.31C90.87,-510.01 132.57,-203.32 198.25,-140.25 199.86,-138.71 201.56,-137.28 203.35,-135.95"/>
<polygon fill="#63b8ff" stroke="#63b8ff" points="204.83,-139.15 211.57,-130.97 201.2,-133.16 204.83,-139.15"/>
</a>
</g>
</g>
<!-- Node32 -->
<g id="Node000032" class="node">
<title>Node32</title>
<g id="a_Node000032"><a xlink:href="group__mynn__sfc_gac8b632de4cd0fcd7e8dfa9a943edaec4.html#gac8b632de4cd0fcd7e8dfa9a943edaec4" target="_top" xlink:title="This subroutine returns the thermal and moisture roughness lengths from Zilitinkevich (1995) and Zili...">
<polygon fill="white" stroke="#666666" points="371.75,-93.88 198.25,-93.88 198.25,-74.62 371.75,-74.62 371.75,-93.88"/>
<text xml:space="preserve" text-anchor="middle" x="285" y="-80.38" font-family="Source Sans Pro" font-size="10.00">module_sf_mynn::zilitinkevich_1995</text>
</a>
</g>
</g>
<!-- Node1&#45;&gt;Node32 -->
<g id="edge43_Node000001_Node000032" class="edge">
<title>Node1&#45;&gt;Node32</title>
<g id="a_edge43_Node000001_Node000032"><a xlink:title=" ">
<path fill="none" stroke="#63b8ff" d="M83.12,-569.27C89.56,-506.9 127.23,-171.04 198.25,-102.25 198.65,-101.87 199.05,-101.49 199.46,-101.12"/>
<polygon fill="#63b8ff" stroke="#63b8ff" points="201.5,-103.96 207.55,-95.26 197.4,-98.29 201.5,-103.96"/>
</a>
</g>
</g>
<!-- Node11 -->
<g id="Node000011" class="node">
<title>Node11</title>
<g id="a_Node000011"><a xlink:href="group__mynn__sfc_gaeb3eb0de61ef2d256cf8b8c53cd99d79.html#gaeb3eb0de61ef2d256cf8b8c53cd99d79" target="_top" xlink:title="add fitted z0,zt curves for hurricane application (used in HWRF/HMON) Weiguo Wang,...">
<polygon fill="white" stroke="#666666" points="552,-671.88 407.75,-671.88 407.75,-652.62 552,-652.62 552,-671.88"/>
<text xml:space="preserve" text-anchor="middle" x="479.88" y="-658.38" font-family="Source Sans Pro" font-size="10.00">module_sf_mynn::znot_m_v6</text>
</a>
</g>
</g>
<!-- Node10&#45;&gt;Node11 -->
<g id="edge10_Node000010_Node000011" class="edge">
<title>Node10&#45;&gt;Node11</title>
<g id="a_edge10_Node000010_Node000011"><a xlink:title=" ">
<path fill="none" stroke="#63b8ff" d="M340.24,-637.81C362.07,-641.66 387.5,-646.14 410.57,-650.21"/>
<polygon fill="#63b8ff" stroke="#63b8ff" points="409.73,-653.62 420.19,-651.9 410.95,-646.72 409.73,-653.62"/>
</a>
</g>
</g>
<!-- Node12 -->
<g id="Node000012" class="node">
<title>Node12</title>
<g id="a_Node000012"><a xlink:href="group__mynn__sfc_ga784c4ee38a178b60dc3b77cb975d01fc.html#ga784c4ee38a178b60dc3b77cb975d01fc" target="_top" xlink:title="Calculate areodynamical roughness over water with input 10&#45;m wind For low&#45;to&#45;moderate winds,...">
<polygon fill="white" stroke="#666666" points="552,-634.88 407.75,-634.88 407.75,-615.62 552,-615.62 552,-634.88"/>
<text xml:space="preserve" text-anchor="middle" x="479.88" y="-621.38" font-family="Source Sans Pro" font-size="10.00">module_sf_mynn::znot_m_v7</text>
</a>
</g>
</g>
<!-- Node10&#45;&gt;Node12 -->
<g id="edge11_Node000010_Node000012" class="edge">
<title>Node10&#45;&gt;Node12</title>
<g id="a_edge11_Node000010_Node000012"><a xlink:title=" ">
<path fill="none" stroke="#63b8ff" d="M340.24,-627.41C357.58,-627.14 377.18,-626.83 396.07,-626.54"/>
<polygon fill="#63b8ff" stroke="#63b8ff" points="395.94,-630.04 405.88,-626.39 395.83,-623.04 395.94,-630.04"/>
</a>
</g>
</g>
<!-- Node15 -->
<g id="Node000015" class="node">
<title>Node15</title>
<g id="a_Node000015"><a xlink:href="group__mynn__sfc_ga88ef473ba576cf88e7848dc3734c11c8.html#ga88ef473ba576cf88e7848dc3734c11c8" target="_top" xlink:title="Calculate scalar roughness over water with input 10&#45;m wind For low&#45;to&#45;moderate winds,...">
<polygon fill="white" stroke="#666666" points="549.38,-591.88 410.38,-591.88 410.38,-572.62 549.38,-572.62 549.38,-591.88"/>
<text xml:space="preserve" text-anchor="middle" x="479.88" y="-578.38" font-family="Source Sans Pro" font-size="10.00">module_sf_mynn::znot_t_v6</text>
</a>
</g>
</g>
<!-- Node14&#45;&gt;Node15 -->
<g id="edge14_Node000014_Node000015" class="edge">
<title>Node14&#45;&gt;Node15</title>
<g id="a_edge14_Node000014_Node000015"><a xlink:title=" ">
<path fill="none" stroke="#63b8ff" d="M340.17,-545.68C361.23,-551.6 385.59,-558.35 407.75,-564.25 414.06,-565.93 420.69,-567.66 427.27,-569.35"/>
<polygon fill="#63b8ff" stroke="#63b8ff" points="426.19,-572.68 436.74,-571.77 427.92,-565.9 426.19,-572.68"/>
</a>
</g>
</g>
<!-- Node16 -->
<g id="Node000016" class="node">
<title>Node16</title>
<g id="a_Node000016"><a xlink:href="group__mynn__sfc_ga13aa942a8049528849034aa65d68de58.html#ga13aa942a8049528849034aa65d68de58" target="_top" xlink:title="Calculate scalar roughness over water with input 10&#45;m wind For low&#45;to&#45;moderate winds,...">
<polygon fill="white" stroke="#666666" points="549.38,-554.88 410.38,-554.88 410.38,-535.62 549.38,-535.62 549.38,-554.88"/>
<text xml:space="preserve" text-anchor="middle" x="479.88" y="-541.38" font-family="Source Sans Pro" font-size="10.00">module_sf_mynn::znot_t_v7</text>
</a>
</g>
</g>
<!-- Node14&#45;&gt;Node16 -->
<g id="edge15_Node000014_Node000016" class="edge">
<title>Node14&#45;&gt;Node16</title>
<g id="a_edge15_Node000014_Node000016"><a xlink:title=" ">
<path fill="none" stroke="#63b8ff" d="M340.24,-534.47C358.31,-535.87 378.84,-537.47 398.46,-539"/>
<polygon fill="#63b8ff" stroke="#63b8ff" points="398.13,-542.48 408.37,-539.77 398.68,-535.5 398.13,-542.48"/>
</a>
</g>
</g>
<!-- Node18&#45;&gt;Node18 -->
<g id="edge18_Node000018_Node000018" class="edge">
<title>Node18&#45;&gt;Node18</title>
<g id="a_edge18_Node000018_Node000018"><a xlink:title=" ">
<path fill="none" stroke="#63b8ff" d="M250.47,-429.99C243.42,-439.06 254.93,-447.5 285,-447.5 301.44,-447.5 312.34,-444.97 317.68,-441.2"/>
<polygon fill="#63b8ff" stroke="#63b8ff" points="321.11,-441.92 319.29,-431.48 314.2,-440.78 321.11,-441.92"/>
</a>
</g>
</g>
<!-- Node19 -->
<g id="Node000019" class="node">
<title>Node19</title>
<g id="a_Node000019"><a xlink:href="group__mynn__sfc_ga214373cdd64d666866d4c818b57a47ec.html#ga214373cdd64d666866d4c818b57a47ec" target="_top" xlink:title=" ">
<polygon fill="white" stroke="#666666" points="537,-499.5 422.75,-499.5 422.75,-469 537,-469 537,-499.5"/>
<text xml:space="preserve" text-anchor="start" x="430.75" y="-486" font-family="Source Sans Pro" font-size="10.00">module_sf_mynn::psih</text>
<text xml:space="preserve" text-anchor="middle" x="479.88" y="-474.75" font-family="Source Sans Pro" font-size="10.00">_stable_full</text>
</a>
</g>
</g>
<!-- Node18&#45;&gt;Node19 -->
<g id="edge19_Node000018_Node000019" class="edge">
<title>Node18&#45;&gt;Node19</title>
<g id="a_edge19_Node000018_Node000019"><a xlink:title=" ">
<path fill="none" stroke="#63b8ff" d="M327.92,-429.93C351.37,-438.66 381.15,-449.66 407.75,-459.25 412.79,-461.07 418.05,-462.95 423.31,-464.82"/>
<polygon fill="#63b8ff" stroke="#63b8ff" points="422.04,-468.08 432.64,-468.12 424.38,-461.48 422.04,-468.08"/>
</a>
</g>
</g>
<!-- Node20 -->
<g id="Node000020" class="node">
<title>Node20</title>
<g id="a_Node000020"><a xlink:href="group__mynn__sfc_ga2186e04d782df51218fbd03d31517fc8.html#ga2186e04d782df51218fbd03d31517fc8" target="_top" xlink:title=" ">
<polygon fill="white" stroke="#666666" points="537,-432.5 422.75,-432.5 422.75,-402 537,-402 537,-432.5"/>
<text xml:space="preserve" text-anchor="start" x="430.75" y="-419" font-family="Source Sans Pro" font-size="10.00">module_sf_mynn::psih</text>
<text xml:space="preserve" text-anchor="middle" x="479.88" y="-407.75" font-family="Source Sans Pro" font-size="10.00">_stable_full_gfs</text>
</a>
</g>
</g>
<!-- Node18&#45;&gt;Node20 -->
<g id="edge21_Node000018_Node000020" class="edge">
<title>Node18&#45;&gt;Node20</title>
<g id="a_edge21_Node000018_Node000020"><a xlink:title=" ">
<path fill="none" stroke="#63b8ff" d="M342.57,-415.13C363.96,-415.46 388.53,-415.84 410.86,-416.19"/>
<polygon fill="#63b8ff" stroke="#63b8ff" points="410.74,-419.69 420.8,-416.35 410.85,-412.69 410.74,-419.69"/>
</a>
</g>
</g>
<!-- Node19&#45;&gt;Node19 -->
<g id="edge20_Node000019_Node000019" class="edge">
<title>Node19&#45;&gt;Node19</title>
<g id="a_edge20_Node000019_Node000019"><a xlink:title=" ">
<path fill="none" stroke="#63b8ff" d="M445.34,-499.99C438.3,-509.06 449.81,-517.5 479.88,-517.5 496.32,-517.5 507.21,-514.97 512.56,-511.2"/>
<polygon fill="#63b8ff" stroke="#63b8ff" points="515.99,-511.92 514.16,-501.48 509.08,-510.78 515.99,-511.92"/>
</a>
</g>
</g>
<!-- Node20&#45;&gt;Node20 -->
<g id="edge22_Node000020_Node000020" class="edge">
<title>Node20&#45;&gt;Node20</title>
<g id="a_edge22_Node000020_Node000020"><a xlink:title=" ">
<path fill="none" stroke="#63b8ff" d="M445.34,-432.99C438.3,-442.06 449.81,-450.5 479.88,-450.5 496.32,-450.5 507.21,-447.97 512.56,-444.2"/>
<polygon fill="#63b8ff" stroke="#63b8ff" points="515.99,-444.92 514.16,-434.48 509.08,-443.78 515.99,-444.92"/>
</a>
</g>
</g>
<!-- Node21&#45;&gt;Node21 -->
<g id="edge24_Node000021_Node000021" class="edge">
<title>Node21&#45;&gt;Node21</title>
<g id="a_edge24_Node000021_Node000021"><a xlink:title=" ">
<path fill="none" stroke="#63b8ff" d="M250.47,-362.99C243.42,-372.06 254.93,-380.5 285,-380.5 301.44,-380.5 312.34,-377.97 317.68,-374.2"/>
<polygon fill="#63b8ff" stroke="#63b8ff" points="321.11,-374.92 319.29,-364.48 314.2,-373.78 321.11,-374.92"/>
</a>
</g>
</g>
<!-- Node22 -->
<g id="Node000022" class="node">
<title>Node22</title>
<g id="a_Node000022"><a xlink:href="group__mynn__sfc_gae46cc20c17ea15f5c9f5610ab6942073.html#gae46cc20c17ea15f5c9f5610ab6942073" target="_top" xlink:title=" ">
<polygon fill="white" stroke="#666666" points="537,-365.5 422.75,-365.5 422.75,-335 537,-335 537,-365.5"/>
<text xml:space="preserve" text-anchor="start" x="430.75" y="-352" font-family="Source Sans Pro" font-size="10.00">module_sf_mynn::psih</text>
<text xml:space="preserve" text-anchor="middle" x="479.88" y="-340.75" font-family="Source Sans Pro" font-size="10.00">_unstable_full</text>
</a>
</g>
</g>
<!-- Node21&#45;&gt;Node22 -->
<g id="edge25_Node000021_Node000022" class="edge">
<title>Node21&#45;&gt;Node22</title>
<g id="a_edge25_Node000021_Node000022"><a xlink:title=" ">
<path fill="none" stroke="#63b8ff" d="M342.57,-348.13C363.96,-348.46 388.53,-348.84 410.86,-349.19"/>
<polygon fill="#63b8ff" stroke="#63b8ff" points="410.74,-352.69 420.8,-349.35 410.85,-345.69 410.74,-352.69"/>
</a>
</g>
</g>
<!-- Node23 -->
<g id="Node000023" class="node">
<title>Node23</title>
<g id="a_Node000023"><a xlink:href="group__mynn__sfc_gaa556db3881e63c9fc578aafd1071e248.html#gaa556db3881e63c9fc578aafd1071e248" target="_top" xlink:title=" ">
<polygon fill="white" stroke="#666666" points="537,-298.5 422.75,-298.5 422.75,-268 537,-268 537,-298.5"/>
<text xml:space="preserve" text-anchor="start" x="430.75" y="-285" font-family="Source Sans Pro" font-size="10.00">module_sf_mynn::psih</text>
<text xml:space="preserve" text-anchor="middle" x="479.88" y="-273.75" font-family="Source Sans Pro" font-size="10.00">_unstable_full_gfs</text>
</a>
</g>
</g>
<!-- Node21&#45;&gt;Node23 -->
<g id="edge27_Node000021_Node000023" class="edge">
<title>Node21&#45;&gt;Node23</title>
<g id="a_edge27_Node000021_Node000023"><a xlink:title=" ">
<path fill="none" stroke="#63b8ff" d="M341.98,-331.5C351.93,-328.54 362.17,-325.39 371.75,-322.25 389.9,-316.31 409.58,-309.31 427.07,-302.89"/>
<polygon fill="#63b8ff" stroke="#63b8ff" points="428.05,-306.25 436.21,-299.5 425.62,-299.69 428.05,-306.25"/>
</a>
</g>
</g>
<!-- Node22&#45;&gt;Node22 -->
<g id="edge26_Node000022_Node000022" class="edge">
<title>Node22&#45;&gt;Node22</title>
<g id="a_edge26_Node000022_Node000022"><a xlink:title=" ">
<path fill="none" stroke="#63b8ff" d="M445.34,-365.99C438.3,-375.06 449.81,-383.5 479.88,-383.5 496.32,-383.5 507.21,-380.97 512.56,-377.2"/>
<polygon fill="#63b8ff" stroke="#63b8ff" points="515.99,-377.92 514.16,-367.48 509.08,-376.78 515.99,-377.92"/>
</a>
</g>
</g>
<!-- Node23&#45;&gt;Node23 -->
<g id="edge28_Node000023_Node000023" class="edge">
<title>Node23&#45;&gt;Node23</title>
<g id="a_edge28_Node000023_Node000023"><a xlink:title=" ">
<path fill="none" stroke="#63b8ff" d="M445.34,-298.99C438.3,-308.06 449.81,-316.5 479.88,-316.5 496.32,-316.5 507.21,-313.97 512.56,-310.2"/>
<polygon fill="#63b8ff" stroke="#63b8ff" points="515.99,-310.92 514.16,-300.48 509.08,-309.78 515.99,-310.92"/>
</a>
</g>
</g>
<!-- Node24&#45;&gt;Node24 -->
<g id="edge30_Node000024_Node000024" class="edge">
<title>Node24&#45;&gt;Node24</title>
<g id="a_edge30_Node000024_Node000024"><a xlink:title=" ">
<path fill="none" stroke="#63b8ff" d="M250.47,-295.99C243.42,-305.06 254.93,-313.5 285,-313.5 301.44,-313.5 312.34,-310.97 317.68,-307.2"/>
<polygon fill="#63b8ff" stroke="#63b8ff" points="321.11,-307.92 319.29,-297.48 314.2,-306.78 321.11,-307.92"/>
</a>
</g>
</g>
<!-- Node25 -->
<g id="Node000025" class="node">
<title>Node25</title>
<g id="a_Node000025"><a xlink:href="group__mynn__sfc_gaaefd04628906b35b8ba54bbf62e6a78f.html#gaaefd04628906b35b8ba54bbf62e6a78f" target="_top" xlink:title=" ">
<polygon fill="white" stroke="#666666" points="538.5,-231.5 421.25,-231.5 421.25,-201 538.5,-201 538.5,-231.5"/>
<text xml:space="preserve" text-anchor="start" x="429.25" y="-218" font-family="Source Sans Pro" font-size="10.00">module_sf_mynn::psim</text>
<text xml:space="preserve" text-anchor="middle" x="479.88" y="-206.75" font-family="Source Sans Pro" font-size="10.00">_stable_full</text>
</a>
</g>
</g>
<!-- Node24&#45;&gt;Node25 -->
<g id="edge31_Node000024_Node000025" class="edge">
<title>Node24&#45;&gt;Node25</title>
<g id="a_edge31_Node000024_Node000025"><a xlink:title=" ">
<path fill="none" stroke="#63b8ff" d="M341.98,-264.5C351.93,-261.54 362.17,-258.39 371.75,-255.25 389.9,-249.31 409.58,-242.31 427.07,-235.89"/>
<polygon fill="#63b8ff" stroke="#63b8ff" points="428.05,-239.25 436.21,-232.5 425.62,-232.69 428.05,-239.25"/>
</a>
</g>
</g>
<!-- Node26 -->
<g id="Node000026" class="node">
<title>Node26</title>
<g id="a_Node000026"><a xlink:href="group__mynn__sfc_ga12649bf97aa4974c23a7723c418907e0.html#ga12649bf97aa4974c23a7723c418907e0" target="_top" xlink:title=" ">
<polygon fill="white" stroke="#666666" points="538.5,-164.5 421.25,-164.5 421.25,-134 538.5,-134 538.5,-164.5"/>
<text xml:space="preserve" text-anchor="start" x="429.25" y="-151" font-family="Source Sans Pro" font-size="10.00">module_sf_mynn::psim</text>
<text xml:space="preserve" text-anchor="middle" x="479.88" y="-139.75" font-family="Source Sans Pro" font-size="10.00">_stable_full_gfs</text>
</a>
</g>
</g>
<!-- Node24&#45;&gt;Node26 -->
<g id="edge33_Node000024_Node000026" class="edge">
<title>Node24&#45;&gt;Node26</title>
<g id="a_edge33_Node000024_Node000026"><a xlink:title=" ">
<path fill="none" stroke="#63b8ff" d="M343.86,-270.01C353.83,-266.46 363.59,-261.68 371.75,-255.25 397.07,-235.28 385.23,-215.33 407.75,-192.25 415.76,-184.04 425.66,-176.78 435.49,-170.68"/>
<polygon fill="#63b8ff" stroke="#63b8ff" points="437.07,-173.81 443.93,-165.73 433.53,-167.77 437.07,-173.81"/>
</a>
</g>
</g>
<!-- Node25&#45;&gt;Node25 -->
<g id="edge32_Node000025_Node000025" class="edge">
<title>Node25&#45;&gt;Node25</title>
<g id="a_edge32_Node000025_Node000025"><a xlink:title=" ">
<path fill="none" stroke="#63b8ff" d="M445.34,-231.99C438.3,-241.06 449.81,-249.5 479.88,-249.5 496.32,-249.5 507.21,-246.97 512.56,-243.2"/>
<polygon fill="#63b8ff" stroke="#63b8ff" points="515.99,-243.92 514.16,-233.48 509.08,-242.78 515.99,-243.92"/>
</a>
</g>
</g>
<!-- Node26&#45;&gt;Node26 -->
<g id="edge34_Node000026_Node000026" class="edge">
<title>Node26&#45;&gt;Node26</title>
<g id="a_edge34_Node000026_Node000026"><a xlink:title=" ">
<path fill="none" stroke="#63b8ff" d="M445.34,-164.99C438.3,-174.06 449.81,-182.5 479.88,-182.5 496.32,-182.5 507.21,-179.97 512.56,-176.2"/>
<polygon fill="#63b8ff" stroke="#63b8ff" points="515.99,-176.92 514.16,-166.48 509.08,-175.78 515.99,-176.92"/>
</a>
</g>
</g>
<!-- Node27&#45;&gt;Node27 -->
<g id="edge36_Node000027_Node000027" class="edge">
<title>Node27&#45;&gt;Node27</title>
<g id="a_edge36_Node000027_Node000027"><a xlink:title=" ">
<path fill="none" stroke="#63b8ff" d="M250.47,-228.99C243.42,-238.06 254.93,-246.5 285,-246.5 301.44,-246.5 312.34,-243.97 317.68,-240.2"/>
<polygon fill="#63b8ff" stroke="#63b8ff" points="321.11,-240.92 319.29,-230.48 314.2,-239.78 321.11,-240.92"/>
</a>
</g>
</g>
<!-- Node28 -->
<g id="Node000028" class="node">
<title>Node28</title>
<g id="a_Node000028"><a xlink:href="group__mynn__sfc_gace0216359bf098fd5cc7fa7cb8b3b716.html#gace0216359bf098fd5cc7fa7cb8b3b716" target="_top" xlink:title=" ">
<polygon fill="white" stroke="#666666" points="538.5,-97.5 421.25,-97.5 421.25,-67 538.5,-67 538.5,-97.5"/>
<text xml:space="preserve" text-anchor="start" x="429.25" y="-84" font-family="Source Sans Pro" font-size="10.00">module_sf_mynn::psim</text>
<text xml:space="preserve" text-anchor="middle" x="479.88" y="-72.75" font-family="Source Sans Pro" font-size="10.00">_unstable_full</text>
</a>
</g>
</g>
<!-- Node27&#45;&gt;Node28 -->
<g id="edge37_Node000027_Node000028" class="edge">
<title>Node27&#45;&gt;Node28</title>
<g id="a_edge37_Node000027_Node000028"><a xlink:title=" ">
<path fill="none" stroke="#63b8ff" d="M343.86,-203.01C353.83,-199.46 363.59,-194.68 371.75,-188.25 397.07,-168.28 385.23,-148.33 407.75,-125.25 415.76,-117.04 425.66,-109.78 435.49,-103.68"/>
<polygon fill="#63b8ff" stroke="#63b8ff" points="437.07,-106.81 443.93,-98.73 433.53,-100.77 437.07,-106.81"/>
</a>
</g>
</g>
<!-- Node29 -->
<g id="Node000029" class="node">
<title>Node29</title>
<g id="a_Node000029"><a xlink:href="group__mynn__sfc_ga8e88a4eb2ee98eb538da06f42215e8b7.html#ga8e88a4eb2ee98eb538da06f42215e8b7" target="_top" xlink:title=" ">
<polygon fill="white" stroke="#666666" points="538.5,-30.5 421.25,-30.5 421.25,0 538.5,0 538.5,-30.5"/>
<text xml:space="preserve" text-anchor="start" x="429.25" y="-17" font-family="Source Sans Pro" font-size="10.00">module_sf_mynn::psim</text>
<text xml:space="preserve" text-anchor="middle" x="479.88" y="-5.75" font-family="Source Sans Pro" font-size="10.00">_unstable_full_gfs</text>
</a>
</g>
</g>
<!-- Node27&#45;&gt;Node29 -->
<g id="edge39_Node000027_Node000029" class="edge">
<title>Node27&#45;&gt;Node29</title>
<g id="a_edge39_Node000027_Node000029"><a xlink:title=" ">
<path fill="none" stroke="#63b8ff" d="M343.95,-205.07C354.26,-201.35 364.13,-195.98 371.75,-188.25 413.85,-145.57 371.54,-106.03 407.75,-58.25 414.15,-49.81 422.73,-42.67 431.72,-36.78"/>
<polygon fill="#63b8ff" stroke="#63b8ff" points="433.47,-39.81 440.24,-31.66 429.87,-33.81 433.47,-39.81"/>
</a>
</g>
</g>
<!-- Node28&#45;&gt;Node28 -->
<g id="edge38_Node000028_Node000028" class="edge">
<title>Node28&#45;&gt;Node28</title>
<g id="a_edge38_Node000028_Node000028"><a xlink:title=" ">
<path fill="none" stroke="#63b8ff" d="M445.34,-97.99C438.3,-107.06 449.81,-115.5 479.88,-115.5 496.32,-115.5 507.21,-112.97 512.56,-109.2"/>
<polygon fill="#63b8ff" stroke="#63b8ff" points="515.99,-109.92 514.16,-99.48 509.08,-108.78 515.99,-109.92"/>
</a>
</g>
</g>
<!-- Node29&#45;&gt;Node29 -->
<g id="edge40_Node000029_Node000029" class="edge">
<title>Node29&#45;&gt;Node29</title>
<g id="a_edge40_Node000029_Node000029"><a xlink:title=" ">
<path fill="none" stroke="#63b8ff" d="M445.34,-30.99C438.3,-40.06 449.81,-48.5 479.88,-48.5 496.32,-48.5 507.21,-45.97 512.56,-42.2"/>
<polygon fill="#63b8ff" stroke="#63b8ff" points="515.99,-42.92 514.16,-32.48 509.08,-41.78 515.99,-42.92"/>
</a>
</g>
</g>
</g>
</svg>

<g id="navigator" transform="translate(0 0)" fill="#404254">
  <rect fill="#f2f5e9" fill-opacity="0.5" stroke="#606060" stroke-width=".5" x="0" y="0" width="60" height="60"/>
  <use id="zoomplus" xlink:href="#zoomPlus" x="17" y="9" onmousedown="handleZoom(evt,'in')"/>
  <use id="zoomminus" xlink:href="#zoomMin" x="42" y="9" onmousedown="handleZoom(evt,'out')"/>
  <use id="reset" xlink:href="#resetDef" x="30" y="36" onmousedown="handleReset()"/>
   <use id="arrowup" xlink:href="#arrowUp" x="0" y="0" onmousedown="handlePan(0,-1)"/>
  <use id="arrowright" xlink:href="#arrowRight" x="0" y="0" onmousedown="handlePan(1,0)"/>
  <use id="arrowdown" xlink:href="#arrowDown" x="0" y="0" onmousedown="handlePan(0,1)"/>
  <use id="arrowleft" xlink:href="#arrowLeft" x="0" y="0" onmousedown="handlePan(-1,0)"/>
</g>
<svg viewBox="0 0 15 15" width="100%" height="30px" preserveAspectRatio="xMaxYMin meet">
 <g id="arrow_out" transform="scale(0.3 0.3)">
  <a xlink:href="group__mynn__sfc_ga51403acc4b5f2876fedbb82b29a2dc2e_ga51403acc4b5f2876fedbb82b29a2dc2e_cgraph_org.svg" target="_base">
   <rect id="button" ry="5" rx="5" y="6" x="6" height="38" width="38"
        fill="#f2f5e9" fill-opacity="0.5" stroke="#606060" stroke-width="1.0"/>
   <path id="arrow"
     d="M 11.500037,31.436501 C 11.940474,20.09759 22.043105,11.32322 32.158766,21.979434 L 37.068811,17.246167 C 37.068811,17.246167 37.088388,32 37.088388,32 L 22.160133,31.978069 C 22.160133,31.978069 26.997745,27.140456 26.997745,27.140456 C 18.528582,18.264221 13.291696,25.230495 11.500037,31.436501 z"
     style="fill:#404040;"/>
  </a>
 </g>
</svg>

<style type='text/css'>
<![CDATA[
[data-mouse-over-selected='false'] { opacity: 0.7; }
[data-mouse-over-selected='true']  { opacity: 1.0; }
]]>
</style>
<script type="application/ecmascript"><![CDATA[
document.addEventListener('DOMContentLoaded', (event) => {
  highlightEdges();
  highlightAdjacentNodes();
});
]]></script>
</svg>
