<?xml version="1.0" encoding="UTF-8" standalone="no"?>
<!DOCTYPE svg PUBLIC "-//W3C//DTD SVG 1.1//EN"
 "http://www.w3.org/Graphics/SVG/1.1/DTD/svg11.dtd">
<!-- Generated by graphviz version 14.1.2 (20260124.0452)
 -->
<!-- Title: taumol19 Pages: 1 -->
<svg width="349pt" height="27pt"
 viewBox="0.00 0.00 349.00 27.00" xmlns="http://www.w3.org/2000/svg" xmlns:xlink="http://www.w3.org/1999/xlink">
<g id="graph0" class="graph" transform="scale(1 1) rotate(0) translate(4 23.25)">
<title>taumol19</title>
<!-- Node1 -->
<g id="Node000001" class="node">
<title>Node1</title>
<g id="a_Node000001"><a xlink:title="The subroutine computes the optical depth in band 19: 4650&#45;5150 cm&#45;1 (low &#45; h2o,co2; high &#45; co2).">
<polygon fill="#999999" stroke="#666666" points="341.25,-19.25 285.5,-19.25 285.5,0 341.25,0 341.25,-19.25"/>
<text xml:space="preserve" text-anchor="middle" x="313.38" y="-5.75" font-family="Source Sans Pro" font-size="10.00">taumol19</text>
</a>
</g>
</g>
<!-- Node2 -->
<g id="Node000002" class="node">
<title>Node2</title>
<g id="a_Node000002"><a xlink:href="group__module__radsw__main_gac639d33a4e94f0183aedd3d43943d52d.html#gac639d33a4e94f0183aedd3d43943d52d" target="_top" xlink:title="This subroutine calculates optical depths for gaseous absorption and rayleigh scattering &#160;&#160;subroutine...">
<polygon fill="white" stroke="#666666" points="249.5,-19.25 157.75,-19.25 157.75,0 249.5,0 249.5,-19.25"/>
<text xml:space="preserve" text-anchor="middle" x="203.62" y="-5.75" font-family="Source Sans Pro" font-size="10.00">rrtmg_sw::taumol</text>
</a>
</g>
</g>
<!-- Node1&#45;&gt;Node2 -->
<g id="edge1_Node000001_Node000002" class="edge">
<title>Node1&#45;&gt;Node2</title>
<g id="a_edge1_Node000001_Node000002"><a xlink:title=" ">
<path fill="none" stroke="#63b8ff" d="M273.83,-9.62C266.06,-9.62 257.81,-9.62 249.83,-9.62"/>
<polygon fill="#63b8ff" stroke="#63b8ff" points="273.67,-13.13 283.67,-9.63 273.67,-6.13 273.67,-13.13"/>
</a>
</g>
</g>
<!-- Node3 -->
<g id="Node000003" class="node">
<title>Node3</title>
<g id="a_Node000003"><a xlink:href="group__module__radsw__main_ga98a04fd11b2af93cfa87e4cb8d02f2a0.html#ga98a04fd11b2af93cfa87e4cb8d02f2a0" target="_top" xlink:title=" ">
<polygon fill="white" stroke="#666666" points="121.75,-19.25 0,-19.25 0,0 121.75,0 121.75,-19.25"/>
<text xml:space="preserve" text-anchor="middle" x="60.88" y="-5.75" font-family="Source Sans Pro" font-size="10.00">rrtmg_sw::rrtmg_sw_run</text>
</a>
</g>
</g>
<!-- Node2&#45;&gt;Node3 -->
<g id="edge2_Node000002_Node000003" class="edge">
<title>Node2&#45;&gt;Node3</title>
<g id="a_edge2_Node000002_Node000003"><a xlink:title=" ">
<path fill="none" stroke="#63b8ff" d="M146.05,-9.62C138.22,-9.62 130.15,-9.62 122.25,-9.62"/>
<polygon fill="#63b8ff" stroke="#63b8ff" points="145.8,-13.13 155.8,-9.63 145.8,-6.13 145.8,-13.13"/>
</a>
</g>
</g>
</g>
</svg>
