<?xml version="1.0" encoding="UTF-8" standalone="no"?>
<!DOCTYPE svg PUBLIC "-//W3C//DTD SVG 1.1//EN"
 "http://www.w3.org/Graphics/SVG/1.1/DTD/svg11.dtd">
<!-- Generated by graphviz version 14.1.2 (20260124.0452)
 -->
<!-- Title: csnow Pages: 1 -->
<svg width="376pt" height="76pt"
 viewBox="0.00 0.00 376.00 76.00" xmlns="http://www.w3.org/2000/svg" xmlns:xlink="http://www.w3.org/1999/xlink">
<g id="graph0" class="graph" transform="scale(1 1) rotate(0) translate(4 71.88)">
<title>csnow</title>
<!-- Node1 -->
<g id="Node000001" class="node">
<title>Node1</title>
<g id="a_Node000001"><a xlink:title="This subroutine calculates snow termal conductivity.">
<polygon fill="#999999" stroke="#666666" points="368.25,-45.88 323.75,-45.88 323.75,-26.62 368.25,-26.62 368.25,-45.88"/>
<text xml:space="preserve" text-anchor="middle" x="346" y="-32.38" font-family="Source Sans Pro" font-size="10.00">csnow</text>
</a>
</g>
</g>
<!-- Node2 -->
<g id="Node000002" class="node">
<title>Node2</title>
<g id="a_Node000002"><a xlink:href="group___noah___l_s_m_ga36e98f3ac91f839b816fd167eab30901.html#ga36e98f3ac91f839b816fd167eab30901" target="_top" xlink:title="This is the entity of GFS Noah LSM model of physics subroutines. It is a soil/veg/snowpack land&#45;surfa...">
<polygon fill="white" stroke="#666666" points="257.75,-67.88 190.75,-67.88 190.75,-48.62 257.75,-48.62 257.75,-67.88"/>
<text xml:space="preserve" text-anchor="middle" x="224.25" y="-54.38" font-family="Source Sans Pro" font-size="10.00">sflx::gfssflx</text>
</a>
</g>
</g>
<!-- Node1&#45;&gt;Node2 -->
<g id="edge1_Node000001_Node000002" class="edge">
<title>Node1&#45;&gt;Node2</title>
<g id="a_edge1_Node000001_Node000002"><a xlink:title=" ">
<path fill="none" stroke="#63b8ff" d="M312.32,-42.25C295.46,-45.35 274.95,-49.12 258.07,-52.22"/>
<polygon fill="#63b8ff" stroke="#63b8ff" points="312.62,-45.76 321.83,-40.51 311.36,-38.87 312.62,-45.76"/>
</a>
</g>
</g>
<!-- Node4 -->
<g id="Node000004" class="node">
<title>Node4</title>
<g id="a_Node000004"><a xlink:href="group__radiation__surface__mod_ga96e7774e8838988b62ea144b3a03f7ba.html#ga96e7774e8838988b62ea144b3a03f7ba" target="_top" xlink:title="This subroutine computes four components of surface albedos (i.e., vis&#45;nir, direct&#45;diffused) accordin...">
<polygon fill="white" stroke="#666666" points="287.75,-30.5 160.75,-30.5 160.75,0 287.75,0 287.75,-30.5"/>
<text xml:space="preserve" text-anchor="start" x="168.75" y="-17" font-family="Source Sans Pro" font-size="10.00">module_radiation_surface</text>
<text xml:space="preserve" text-anchor="middle" x="224.25" y="-5.75" font-family="Source Sans Pro" font-size="10.00">::setalb</text>
</a>
</g>
</g>
<!-- Node1&#45;&gt;Node4 -->
<g id="edge3_Node000001_Node000004" class="edge">
<title>Node1&#45;&gt;Node4</title>
<g id="a_edge3_Node000001_Node000004"><a xlink:title=" ">
<path fill="none" stroke="#63b8ff" d="M312.18,-30.49C304.66,-29.17 296.41,-27.73 288.09,-26.27"/>
<polygon fill="#63b8ff" stroke="#63b8ff" points="311.37,-33.91 321.82,-32.19 312.58,-27.01 311.37,-33.91"/>
</a>
</g>
</g>
<!-- Node3 -->
<g id="Node000003" class="node">
<title>Node3</title>
<g id="a_Node000003"><a xlink:href="group___noah___l_s_m_ga5d624f72a0da3ffcdf7a01fb9862e0e8.html#ga5d624f72a0da3ffcdf7a01fb9862e0e8" target="_top" xlink:title=" ">
<polygon fill="white" stroke="#666666" points="124.75,-67.88 0,-67.88 0,-48.62 124.75,-48.62 124.75,-67.88"/>
<text xml:space="preserve" text-anchor="middle" x="62.38" y="-54.38" font-family="Source Sans Pro" font-size="10.00">lsm_noah::lsm_noah_run</text>
</a>
</g>
</g>
<!-- Node2&#45;&gt;Node3 -->
<g id="edge2_Node000002_Node000003" class="edge">
<title>Node2&#45;&gt;Node3</title>
<g id="a_edge2_Node000002_Node000003"><a xlink:title=" ">
<path fill="none" stroke="#63b8ff" d="M179.4,-58.25C162.67,-58.25 143.26,-58.25 125.16,-58.25"/>
<polygon fill="#63b8ff" stroke="#63b8ff" points="179,-61.75 189,-58.25 179,-54.75 179,-61.75"/>
</a>
</g>
</g>
</g>
</svg>
