<?xml version="1.0" encoding="UTF-8" standalone="no"?>
<!DOCTYPE svg PUBLIC "-//W3C//DTD SVG 1.1//EN"
 "http://www.w3.org/Graphics/SVG/1.1/DTD/svg11.dtd">
<!-- Generated by graphviz version 14.1.2 (20260124.0452)
 -->
<!-- Title: cu_gf_sh::cu_gf_sh_run Pages: 1 -->
<!--zoomable 373 -->

<svg id="main" version="1.1" xmlns="http://www.w3.org/2000/svg" xmlns:xlink="http://www.w3.org/1999/xlink" xml:space="preserve" onload="init(evt)">

<style type="text/css"><![CDATA[
.node, .edge {opacity: 0.7;}
.node.selected, .edge.selected {opacity: 1;}
.edge:hover path { stroke: red; }
.edge:hover polygon { stroke: red; fill: red; }
]]></style>

<defs>
  <circle id="rim" cx="0" cy="0" r="7"/>
  <circle id="rim2" cx="0" cy="0" r="3.5"/>
  <g id="zoomPlus">
    <use xlink:href="#rim" fill="#404040"><set attributeName="fill" to="#808080" begin="zoomplus.mouseover" end="zoomplus.mouseout"/></use>
    <path d="M-4,0h8M0,-4v8" fill="none" stroke="white" stroke-width="1.5" pointer-events="none"/>
  </g>
  <g id="zoomMin">
    <use xlink:href="#rim" fill="#404040"><set attributeName="fill" to="#808080" begin="zoomminus.mouseover" end="zoomminus.mouseout"/></use>
    <path d="M-4,0h8" fill="none" stroke="white" stroke-width="1.5" pointer-events="none"/>
  </g>
  <g id="arrowUp" transform="translate(30 24)">
    <use xlink:href="#rim"/>
    <path pointer-events="none" fill="none" stroke="white" stroke-width="1.5" d="M0,-3.0v7 M-2.5,-0.5L0,-3.0L2.5,-0.5"/>
  </g>
  <g id="arrowRight" transform="rotate(90) translate(36 -43)">
    <use xlink:href="#rim"/>
    <path pointer-events="none" fill="none" stroke="white" stroke-width="1.5" d="M0,-3.0v7 M-2.5,-0.5L0,-3.0L2.5,-0.5"/>
  </g>
  <g id="arrowDown" transform="rotate(180) translate(-30 -48)">
    <use xlink:href="#rim"/>
    <path pointer-events="none" fill="none" stroke="white" stroke-width="1.5" d="M0,-3.0v7 M-2.5,-0.5L0,-3.0L2.5,-0.5"/>
  </g>
  <g id="arrowLeft" transform="rotate(270) translate(-36 17)">
    <use xlink:href="#rim"/>
    <path pointer-events="none" fill="none" stroke="white" stroke-width="1.5" d="M0,-3.0v7 M-2.5,-0.5L0,-3.0L2.5,-0.5"/>
  </g>
  <g id="resetDef">
    <use xlink:href="#rim2" fill="#404040"><set attributeName="fill" to="#808080" begin="reset.mouseover" end="reset.mouseout"/></use>
  </g>
</defs>
<script type="application/ecmascript">
var viewWidth = 632;
var viewHeight = 373;
var sectionId = 'dynsection-0';
</script>
<script type="application/ecmascript" xlink:href="svg.min.js"/>
<svg id="graph" class="graph">
<g id="viewport">
<title>cu_gf_sh::cu_gf_sh_run</title>
<!-- Node1 -->
<g id="Node000001" class="node">
<title>Node1</title>
<g id="a_Node000001"><a xlink:title=" ">
<polygon fill="#999999" stroke="#666666" points="120.25,-196.88 0,-196.88 0,-177.62 120.25,-177.62 120.25,-196.88"/>
<text xml:space="preserve" text-anchor="middle" x="60.12" y="-183.38" font-family="Source Sans Pro" font-size="10.00">cu_gf_sh::cu_gf_sh_run</text>
</a>
</g>
</g>
<!-- Node2 -->
<g id="Node000002" class="node">
<title>Node2</title>
<g id="a_Node000002"><a xlink:href="group__cu__gf__deep__group_gabf84026a03bf21d4ba4eaa77efa11d93.html#gabf84026a03bf21d4ba4eaa77efa11d93" target="_top" xlink:title="Calculates environmental moist static energy, saturation moist static energy, heights,...">
<polygon fill="white" stroke="#666666" points="276.88,-346.88 167.88,-346.88 167.88,-327.62 276.88,-327.62 276.88,-346.88"/>
<text xml:space="preserve" text-anchor="middle" x="222.38" y="-333.38" font-family="Source Sans Pro" font-size="10.00">cu_gf_deep::cup_env</text>
</a>
</g>
</g>
<!-- Node1&#45;&gt;Node2 -->
<g id="edge1_Node000001_Node000002" class="edge">
<title>Node1&#45;&gt;Node2</title>
<g id="a_edge1_Node000001_Node000002"><a xlink:title=" ">
<path fill="none" stroke="#63b8ff" d="M65.45,-197.3C76.63,-222.06 108.95,-286.33 156.25,-319.25 157.81,-320.33 159.42,-321.35 161.09,-322.31"/>
<polygon fill="#63b8ff" stroke="#63b8ff" points="159.19,-325.27 169.72,-326.48 162.24,-318.98 159.19,-325.27"/>
</a>
</g>
</g>
<!-- Node4 -->
<g id="Node000004" class="node">
<title>Node4</title>
<g id="a_Node000004"><a xlink:href="group__cu__gf__deep__group_ga56111f64554b06083c77b1bec308b6ea.html#ga56111f64554b06083c77b1bec308b6ea" target="_top" xlink:title="Calculates environmental values on cloud levels.">
<polygon fill="white" stroke="#666666" points="288.5,-309.88 156.25,-309.88 156.25,-290.62 288.5,-290.62 288.5,-309.88"/>
<text xml:space="preserve" text-anchor="middle" x="222.38" y="-296.38" font-family="Source Sans Pro" font-size="10.00">cu_gf_deep::cup_env_clev</text>
</a>
</g>
</g>
<!-- Node1&#45;&gt;Node4 -->
<g id="edge4_Node000001_Node000004" class="edge">
<title>Node1&#45;&gt;Node4</title>
<g id="a_edge4_Node000001_Node000004"><a xlink:title=" ">
<path fill="none" stroke="#63b8ff" d="M68.28,-197.26C82.67,-216.66 117.12,-259.47 156.25,-282.25 158.43,-283.52 160.71,-284.71 163.05,-285.81"/>
<polygon fill="#63b8ff" stroke="#63b8ff" points="161.62,-289.01 172.2,-289.57 164.28,-282.53 161.62,-289.01"/>
</a>
</g>
</g>
<!-- Node5 -->
<g id="Node000005" class="node">
<title>Node5</title>
<g id="a_Node000005"><a xlink:href="group__cu__gf__deep__group_ga0a1b26105b052b8c66d7eb99a64c032e.html#ga0a1b26105b052b8c66d7eb99a64c032e" target="_top" xlink:title="Calculates the level of convective cloud base.">
<polygon fill="white" stroke="#666666" points="282.12,-272.88 162.62,-272.88 162.62,-253.62 282.12,-253.62 282.12,-272.88"/>
<text xml:space="preserve" text-anchor="middle" x="222.38" y="-259.38" font-family="Source Sans Pro" font-size="10.00">cu_gf_deep::cup_kbcon</text>
</a>
</g>
</g>
<!-- Node1&#45;&gt;Node5 -->
<g id="edge5_Node000001_Node000005" class="edge">
<title>Node1&#45;&gt;Node5</title>
<g id="a_edge5_Node000001_Node000005"><a xlink:title=" ">
<path fill="none" stroke="#63b8ff" d="M77.58,-197.22C96.25,-208.29 127.81,-226.32 156.25,-239.25 163.94,-242.75 172.31,-246.13 180.4,-249.2"/>
<polygon fill="#63b8ff" stroke="#63b8ff" points="179.16,-252.47 189.75,-252.64 181.58,-245.9 179.16,-252.47"/>
</a>
</g>
</g>
<!-- Node6 -->
<g id="Node000006" class="node">
<title>Node6</title>
<g id="a_Node000006"><a xlink:href="group__cu__gf__deep__group_ga1c93354ade8bedf132cb748238d59ff1.html#ga1c93354ade8bedf132cb748238d59ff1" target="_top" xlink:title="Calculates the average value of a variable at the updraft originating level.">
<polygon fill="white" stroke="#666666" points="454.5,-253.88 324.5,-253.88 324.5,-234.62 454.5,-234.62 454.5,-253.88"/>
<text xml:space="preserve" text-anchor="middle" x="389.5" y="-240.38" font-family="Source Sans Pro" font-size="10.00">cu_gf_deep::get_cloud_bc</text>
</a>
</g>
</g>
<!-- Node1&#45;&gt;Node6 -->
<g id="edge9_Node000001_Node000006" class="edge">
<title>Node1&#45;&gt;Node6</title>
<g id="a_edge9_Node000001_Node000006"><a xlink:title=" ">
<path fill="none" stroke="#63b8ff" d="M109.94,-197.34C124.79,-200.32 141.17,-203.51 156.25,-206.25 208.5,-215.74 267.57,-225.39 313.06,-232.59"/>
<polygon fill="#63b8ff" stroke="#63b8ff" points="312.4,-236.03 322.82,-234.13 313.49,-229.12 312.4,-236.03"/>
</a>
</g>
</g>
<!-- Node7 -->
<g id="Node000007" class="node">
<title>Node7</title>
<g id="a_Node000007"><a xlink:href="group__cu__gf__deep__group_gadce84bec635baa56686cb533dbc1e456.html#gadce84bec635baa56686cb533dbc1e456" target="_top" xlink:title="Calculates the level at which the minimum value in an array occurs.">
<polygon fill="white" stroke="#666666" points="283.25,-196.88 161.5,-196.88 161.5,-177.62 283.25,-177.62 283.25,-196.88"/>
<text xml:space="preserve" text-anchor="middle" x="222.38" y="-183.38" font-family="Source Sans Pro" font-size="10.00">cu_gf_deep::cup_minimi</text>
</a>
</g>
</g>
<!-- Node1&#45;&gt;Node7 -->
<g id="edge7_Node000001_Node000007" class="edge">
<title>Node1&#45;&gt;Node7</title>
<g id="a_edge7_Node000001_Node000007"><a xlink:title=" ">
<path fill="none" stroke="#63b8ff" d="M120.34,-187.25C129.89,-187.25 139.86,-187.25 149.67,-187.25"/>
<polygon fill="#63b8ff" stroke="#63b8ff" points="149.55,-190.75 159.55,-187.25 149.55,-183.75 149.55,-190.75"/>
</a>
</g>
</g>
<!-- Node8 -->
<g id="Node000008" class="node">
<title>Node8</title>
<g id="a_Node000008"><a xlink:href="group__cu__gf__deep__group_ga5b68f3b33a94b5a23df8c21759ffb320.html#ga5b68f3b33a94b5a23df8c21759ffb320" target="_top" xlink:title="Calculates the cloud work functions for updrafts.">
<polygon fill="white" stroke="#666666" points="284.75,-159.88 160,-159.88 160,-140.62 284.75,-140.62 284.75,-159.88"/>
<text xml:space="preserve" text-anchor="middle" x="222.38" y="-146.38" font-family="Source Sans Pro" font-size="10.00">cu_gf_deep::cup_up_aa0</text>
</a>
</g>
</g>
<!-- Node1&#45;&gt;Node8 -->
<g id="edge8_Node000001_Node000008" class="edge">
<title>Node1&#45;&gt;Node8</title>
<g id="a_edge8_Node000001_Node000008"><a xlink:title=" ">
<path fill="none" stroke="#63b8ff" d="M104.91,-177.14C123.9,-172.75 146.35,-167.57 166.44,-162.93"/>
<polygon fill="#63b8ff" stroke="#63b8ff" points="167.21,-166.35 176.16,-160.69 165.63,-159.53 167.21,-166.35"/>
</a>
</g>
</g>
<!-- Node9 -->
<g id="Node000009" class="node">
<title>Node9</title>
<g id="a_Node000009"><a xlink:href="group__cu__gf__deep__group_ga05c3c7ba138f383b801c11f6022521fc.html#ga05c3c7ba138f383b801c11f6022521fc" target="_top" xlink:title="Finds temperature inversions using the first and second derivative of temperature.">
<polygon fill="white" stroke="#666666" points="287.38,-122.5 157.38,-122.5 157.38,-92 287.38,-92 287.38,-122.5"/>
<text xml:space="preserve" text-anchor="start" x="165.38" y="-109" font-family="Source Sans Pro" font-size="10.00">cu_gf_deep::get_inversion</text>
<text xml:space="preserve" text-anchor="middle" x="222.38" y="-97.75" font-family="Source Sans Pro" font-size="10.00">_layers</text>
</a>
</g>
</g>
<!-- Node1&#45;&gt;Node9 -->
<g id="edge10_Node000001_Node000009" class="edge">
<title>Node1&#45;&gt;Node9</title>
<g id="a_edge10_Node000001_Node000009"><a xlink:title=" ">
<path fill="none" stroke="#63b8ff" d="M76.15,-177.26C94.52,-165.32 126.81,-145.2 156.25,-131.25 159.16,-129.87 162.17,-128.52 165.23,-127.2"/>
<polygon fill="#63b8ff" stroke="#63b8ff" points="166.43,-130.49 174.35,-123.45 163.77,-124.02 166.43,-130.49"/>
</a>
</g>
</g>
<!-- Node10 -->
<g id="Node000010" class="node">
<title>Node10</title>
<g id="a_Node000010"><a xlink:href="group__cu__gf__deep__group_ga3e83c3a033d897332227dcf1820cce9c.html#ga3e83c3a033d897332227dcf1820cce9c" target="_top" xlink:title="Calculates mass entranment and detrainment rates.">
<polygon fill="white" stroke="#666666" points="281,-73.5 163.75,-73.5 163.75,-43 281,-43 281,-73.5"/>
<text xml:space="preserve" text-anchor="start" x="171.75" y="-60" font-family="Source Sans Pro" font-size="10.00">cu_gf_deep::get_lateral</text>
<text xml:space="preserve" text-anchor="middle" x="222.38" y="-48.75" font-family="Source Sans Pro" font-size="10.00">_massflux</text>
</a>
</g>
</g>
<!-- Node1&#45;&gt;Node10 -->
<g id="edge11_Node000001_Node000010" class="edge">
<title>Node1&#45;&gt;Node10</title>
<g id="a_edge11_Node000001_Node000010"><a xlink:title=" ">
<path fill="none" stroke="#63b8ff" d="M67.82,-177.24C81.91,-156.87 116.62,-110.26 156.25,-83.25 158.32,-81.84 160.49,-80.49 162.71,-79.2"/>
<polygon fill="#63b8ff" stroke="#63b8ff" points="164.18,-82.39 171.45,-74.67 160.96,-76.17 164.18,-82.39"/>
</a>
</g>
</g>
<!-- Node11 -->
<g id="Node000011" class="node">
<title>Node11</title>
<g id="a_Node000011"><a xlink:href="group__cu__gf__deep__group_ga7ab8f34f0c857d59f7c9b44e7126e83b.html#ga7ab8f34f0c857d59f7c9b44e7126e83b" target="_top" xlink:title="Driver for the normalized mass&#45;flux routine.">
<polygon fill="white" stroke="#666666" points="286.62,-24.88 158.12,-24.88 158.12,-5.63 286.62,-5.63 286.62,-24.88"/>
<text xml:space="preserve" text-anchor="middle" x="222.38" y="-11.38" font-family="Source Sans Pro" font-size="10.00">cu_gf_deep::rates_up_pdf</text>
</a>
</g>
</g>
<!-- Node1&#45;&gt;Node11 -->
<g id="edge12_Node000001_Node000011" class="edge">
<title>Node1&#45;&gt;Node11</title>
<g id="a_edge12_Node000001_Node000011"><a xlink:title=" ">
<path fill="none" stroke="#63b8ff" d="M64.44,-177.28C74.02,-150 104.43,-73.58 156.25,-34.25 158.04,-32.89 159.93,-31.62 161.89,-30.45"/>
<polygon fill="#63b8ff" stroke="#63b8ff" points="163.45,-33.59 170.83,-25.98 160.32,-27.33 163.45,-33.59"/>
</a>
</g>
</g>
<!-- Node3 -->
<g id="Node000003" class="node">
<title>Node3</title>
<g id="a_Node000003"><a xlink:href="group__cu__gf__deep__group_ga67f0d8a404e9280703043abc833c487c.html#ga67f0d8a404e9280703043abc833c487c" target="_top" xlink:title="Calculates saturation vapor pressure.">
<polygon fill="white" stroke="#666666" points="440.25,-346.88 338.75,-346.88 338.75,-327.62 440.25,-327.62 440.25,-346.88"/>
<text xml:space="preserve" text-anchor="middle" x="389.5" y="-333.38" font-family="Source Sans Pro" font-size="10.00">cu_gf_deep::satvap</text>
</a>
</g>
</g>
<!-- Node2&#45;&gt;Node3 -->
<g id="edge2_Node000002_Node000003" class="edge">
<title>Node2&#45;&gt;Node3</title>
<g id="a_edge2_Node000002_Node000003"><a xlink:title=" ">
<path fill="none" stroke="#63b8ff" d="M276.99,-337.25C293.05,-337.25 310.8,-337.25 327.31,-337.25"/>
<polygon fill="#63b8ff" stroke="#63b8ff" points="327,-340.75 337,-337.25 327,-333.75 327,-340.75"/>
</a>
</g>
</g>
<!-- Node3&#45;&gt;Node3 -->
<g id="edge3_Node000003_Node000003" class="edge">
<title>Node3&#45;&gt;Node3</title>
<g id="a_edge3_Node000003_Node000003"><a xlink:title=" ">
<path fill="none" stroke="#63b8ff" d="M363.34,-347.16C351.4,-355.77 360.12,-364.88 389.5,-364.88 406.02,-364.88 416.01,-361.99 419.47,-357.94"/>
<polygon fill="#63b8ff" stroke="#63b8ff" points="422.8,-356.86 416.17,-348.59 416.19,-359.19 422.8,-356.86"/>
</a>
</g>
</g>
<!-- Node5&#45;&gt;Node6 -->
<g id="edge6_Node000005_Node000006" class="edge">
<title>Node5&#45;&gt;Node6</title>
<g id="a_edge6_Node000005_Node000006"><a xlink:title=" ">
<path fill="none" stroke="#63b8ff" d="M282.52,-256.44C292.34,-255.31 302.64,-254.13 312.8,-252.96"/>
<polygon fill="#63b8ff" stroke="#63b8ff" points="313.13,-256.45 322.67,-251.82 312.33,-249.49 313.13,-256.45"/>
</a>
</g>
</g>
<!-- Node12 -->
<g id="Node000012" class="node">
<title>Node12</title>
<g id="a_Node000012"><a xlink:href="group__cu__gf__deep__group_ga0ea82b4d199c9b93aa5200682dda3685.html#ga0ea82b4d199c9b93aa5200682dda3685" target="_top" xlink:title="Calculates a normalized mass&#45;flux profile for updrafts and downdrafts using the beta function.">
<polygon fill="white" stroke="#666666" points="440.25,-30.5 338.75,-30.5 338.75,0 440.25,0 440.25,-30.5"/>
<text xml:space="preserve" text-anchor="start" x="346.75" y="-17" font-family="Source Sans Pro" font-size="10.00">cu_gf_deep::get_zu</text>
<text xml:space="preserve" text-anchor="middle" x="389.5" y="-5.75" font-family="Source Sans Pro" font-size="10.00">_zd_pdf_fim</text>
</a>
</g>
</g>
<!-- Node11&#45;&gt;Node12 -->
<g id="edge13_Node000011_Node000012" class="edge">
<title>Node11&#45;&gt;Node12</title>
<g id="a_edge13_Node000011_Node000012"><a xlink:title=" ">
<path fill="none" stroke="#63b8ff" d="M286.74,-15.25C299.97,-15.25 313.89,-15.25 327.04,-15.25"/>
<polygon fill="#63b8ff" stroke="#63b8ff" points="326.86,-18.75 336.86,-15.25 326.86,-11.75 326.86,-18.75"/>
</a>
</g>
</g>
<!-- Node13 -->
<g id="Node000013" class="node">
<title>Node13</title>
<g id="a_Node000013"><a xlink:href="group__cu__gf__deep__group_ga8c1bcf8ed725e281ff0c09744d46b27c.html#ga8c1bcf8ed725e281ff0c09744d46b27c" target="_top" xlink:title=" ">
<polygon fill="white" stroke="#666666" points="623.5,-24.88 490.5,-24.88 490.5,-5.63 623.5,-5.63 623.5,-24.88"/>
<text xml:space="preserve" text-anchor="middle" x="557" y="-11.38" font-family="Source Sans Pro" font-size="10.00">cu_gf_deep::my_maxloc1d</text>
</a>
</g>
</g>
<!-- Node12&#45;&gt;Node13 -->
<g id="edge14_Node000012_Node000013" class="edge">
<title>Node12&#45;&gt;Node13</title>
<g id="a_edge14_Node000012_Node000013"><a xlink:title=" ">
<path fill="none" stroke="#63b8ff" d="M440.6,-15.25C452.67,-15.25 465.84,-15.25 478.83,-15.25"/>
<polygon fill="#63b8ff" stroke="#63b8ff" points="478.65,-18.75 488.65,-15.25 478.65,-11.75 478.65,-18.75"/>
</a>
</g>
</g>
<!-- Node13&#45;&gt;Node13 -->
<g id="edge15_Node000013_Node000013" class="edge">
<title>Node13&#45;&gt;Node13</title>
<g id="a_edge15_Node000013_Node000013"><a xlink:title=" ">
<path fill="none" stroke="#63b8ff" d="M530.78,-25.16C518.82,-33.77 527.56,-42.88 557,-42.88 573.56,-42.88 583.57,-39.99 587.03,-35.94"/>
<polygon fill="#63b8ff" stroke="#63b8ff" points="590.36,-34.85 583.73,-26.59 583.76,-37.18 590.36,-34.85"/>
</a>
</g>
</g>
</g>
</svg>

<g id="navigator" transform="translate(0 0)" fill="#404254">
  <rect fill="#f2f5e9" fill-opacity="0.5" stroke="#606060" stroke-width=".5" x="0" y="0" width="60" height="60"/>
  <use id="zoomplus" xlink:href="#zoomPlus" x="17" y="9" onmousedown="handleZoom(evt,'in')"/>
  <use id="zoomminus" xlink:href="#zoomMin" x="42" y="9" onmousedown="handleZoom(evt,'out')"/>
  <use id="reset" xlink:href="#resetDef" x="30" y="36" onmousedown="handleReset()"/>
   <use id="arrowup" xlink:href="#arrowUp" x="0" y="0" onmousedown="handlePan(0,-1)"/>
  <use id="arrowright" xlink:href="#arrowRight" x="0" y="0" onmousedown="handlePan(1,0)"/>
  <use id="arrowdown" xlink:href="#arrowDown" x="0" y="0" onmousedown="handlePan(0,1)"/>
  <use id="arrowleft" xlink:href="#arrowLeft" x="0" y="0" onmousedown="handlePan(-1,0)"/>
</g>
<svg viewBox="0 0 15 15" width="100%" height="30px" preserveAspectRatio="xMaxYMin meet">
 <g id="arrow_out" transform="scale(0.3 0.3)">
  <a xlink:href="group__cu__gf__sh__group_gac3f853aacccfdee63bf9a5e64611683f_gac3f853aacccfdee63bf9a5e64611683f_cgraph_org.svg" target="_base">
   <rect id="button" ry="5" rx="5" y="6" x="6" height="38" width="38"
        fill="#f2f5e9" fill-opacity="0.5" stroke="#606060" stroke-width="1.0"/>
   <path id="arrow"
     d="M 11.500037,31.436501 C 11.940474,20.09759 22.043105,11.32322 32.158766,21.979434 L 37.068811,17.246167 C 37.068811,17.246167 37.088388,32 37.088388,32 L 22.160133,31.978069 C 22.160133,31.978069 26.997745,27.140456 26.997745,27.140456 C 18.528582,18.264221 13.291696,25.230495 11.500037,31.436501 z"
     style="fill:#404040;"/>
  </a>
 </g>
</svg>

<style type='text/css'>
<![CDATA[
[data-mouse-over-selected='false'] { opacity: 0.7; }
[data-mouse-over-selected='true']  { opacity: 1.0; }
]]>
</style>
<script type="application/ecmascript"><![CDATA[
document.addEventListener('DOMContentLoaded', (event) => {
  highlightEdges();
  highlightAdjacentNodes();
});
]]></script>
</svg>
