<?xml version="1.0" encoding="UTF-8" standalone="no"?>
<!DOCTYPE svg PUBLIC "-//W3C//DTD SVG 1.1//EN"
 "http://www.w3.org/Graphics/SVG/1.1/DTD/svg11.dtd">
<!-- Generated by graphviz version 14.1.2 (20260124.0452)
 -->
<!-- Title: cu_gf_deep::cup_env_clev Pages: 1 -->
<svg width="453pt" height="64pt"
 viewBox="0.00 0.00 453.00 64.00" xmlns="http://www.w3.org/2000/svg" xmlns:xlink="http://www.w3.org/1999/xlink">
<g id="graph0" class="graph" transform="scale(1 1) rotate(0) translate(4 60.25)">
<title>cu_gf_deep::cup_env_clev</title>
<!-- Node1 -->
<g id="Node000001" class="node">
<title>Node1</title>
<g id="a_Node000001"><a xlink:title="Calculates environmental values on cloud levels.">
<polygon fill="#999999" stroke="#666666" points="444.75,-37.25 312.5,-37.25 312.5,-18 444.75,-18 444.75,-37.25"/>
<text xml:space="preserve" text-anchor="middle" x="378.62" y="-23.75" font-family="Source Sans Pro" font-size="10.00">cu_gf_deep::cup_env_clev</text>
</a>
</g>
</g>
<!-- Node2 -->
<g id="Node000002" class="node">
<title>Node2</title>
<g id="a_Node000002"><a xlink:href="group__cu__gf__deep__group_ga6fb15c7cf491936bd0b501eb4a7c3147.html#ga6fb15c7cf491936bd0b501eb4a7c3147" target="_top" xlink:title="Driver for the deep or congestus GF routine.">
<polygon fill="white" stroke="#666666" points="276.5,-56.25 135.25,-56.25 135.25,-37 276.5,-37 276.5,-56.25"/>
<text xml:space="preserve" text-anchor="middle" x="205.88" y="-42.75" font-family="Source Sans Pro" font-size="10.00">cu_gf_deep::cu_gf_deep_run</text>
</a>
</g>
</g>
<!-- Node1&#45;&gt;Node2 -->
<g id="edge1_Node000001_Node000002" class="edge">
<title>Node1&#45;&gt;Node2</title>
<g id="a_edge1_Node000001_Node000002"><a xlink:title=" ">
<path fill="none" stroke="#63b8ff" d="M300.85,-36.17C292.83,-37.06 284.7,-37.96 276.76,-38.85"/>
<polygon fill="#63b8ff" stroke="#63b8ff" points="301.04,-39.67 310.59,-35.08 300.27,-32.71 301.04,-39.67"/>
</a>
</g>
</g>
<!-- Node4 -->
<g id="Node000004" class="node">
<title>Node4</title>
<g id="a_Node000004"><a xlink:href="group__cu__gf__sh__group_gac3f853aacccfdee63bf9a5e64611683f.html#gac3f853aacccfdee63bf9a5e64611683f" target="_top" xlink:title=" ">
<polygon fill="white" stroke="#666666" points="266,-19.25 145.75,-19.25 145.75,0 266,0 266,-19.25"/>
<text xml:space="preserve" text-anchor="middle" x="205.88" y="-5.75" font-family="Source Sans Pro" font-size="10.00">cu_gf_sh::cu_gf_sh_run</text>
</a>
</g>
</g>
<!-- Node1&#45;&gt;Node4 -->
<g id="edge3_Node000001_Node000004" class="edge">
<title>Node1&#45;&gt;Node4</title>
<g id="a_edge3_Node000001_Node000004"><a xlink:title=" ">
<path fill="none" stroke="#63b8ff" d="M300.68,-19.51C289.16,-18.3 277.44,-17.06 266.36,-15.9"/>
<polygon fill="#63b8ff" stroke="#63b8ff" points="300.28,-22.99 310.59,-20.56 301.01,-16.03 300.28,-22.99"/>
</a>
</g>
</g>
<!-- Node3 -->
<g id="Node000003" class="node">
<title>Node3</title>
<g id="a_Node000003"><a xlink:href="group__cu__gf__group_ga5d2242a3e3ed78e40c6b81ee2538801b.html#ga5d2242a3e3ed78e40c6b81ee2538801b" target="_top" xlink:title="This is the Grell&#45;Freitas convection scheme driver module.">
<polygon fill="white" stroke="#666666" points="99.25,-42.88 0,-42.88 0,-12.37 99.25,-12.37 99.25,-42.88"/>
<text xml:space="preserve" text-anchor="start" x="8" y="-29.38" font-family="Source Sans Pro" font-size="10.00">cu_gf_driver::cu_gf</text>
<text xml:space="preserve" text-anchor="middle" x="49.62" y="-18.12" font-family="Source Sans Pro" font-size="10.00">_driver_run</text>
</a>
</g>
</g>
<!-- Node2&#45;&gt;Node3 -->
<g id="edge2_Node000002_Node000003" class="edge">
<title>Node2&#45;&gt;Node3</title>
<g id="a_edge2_Node000002_Node000003"><a xlink:title=" ">
<path fill="none" stroke="#63b8ff" d="M123.73,-36.63C115.49,-35.61 107.3,-34.61 99.56,-33.65"/>
<polygon fill="#63b8ff" stroke="#63b8ff" points="123.12,-40.08 133.47,-37.83 123.97,-33.13 123.12,-40.08"/>
</a>
</g>
</g>
<!-- Node4&#45;&gt;Node3 -->
<g id="edge4_Node000004_Node000003" class="edge">
<title>Node4&#45;&gt;Node3</title>
<g id="a_edge4_Node000004_Node000003"><a xlink:title=" ">
<path fill="none" stroke="#63b8ff" d="M134.43,-17.85C122.59,-19.23 110.54,-20.63 99.4,-21.93"/>
<polygon fill="#63b8ff" stroke="#63b8ff" points="134.65,-21.34 144.18,-16.71 133.84,-14.39 134.65,-21.34"/>
</a>
</g>
</g>
</g>
</svg>
