<?xml version="1.0" encoding="UTF-8" standalone="no"?>
<!DOCTYPE svg PUBLIC "-//W3C//DTD SVG 1.1//EN"
 "http://www.w3.org/Graphics/SVG/1.1/DTD/svg11.dtd">
<!-- Generated by graphviz version 14.1.2 (20260124.0452)
 -->
<!-- Title: sfc_nst::sfc_nst_run Pages: 1 -->
<!--zoomable 600 -->

<svg id="main" version="1.1" xmlns="http://www.w3.org/2000/svg" xmlns:xlink="http://www.w3.org/1999/xlink" xml:space="preserve" onload="init(evt)">

<style type="text/css"><![CDATA[
.node, .edge {opacity: 0.7;}
.node.selected, .edge.selected {opacity: 1;}
.edge:hover path { stroke: red; }
.edge:hover polygon { stroke: red; fill: red; }
]]></style>

<defs>
  <circle id="rim" cx="0" cy="0" r="7"/>
  <circle id="rim2" cx="0" cy="0" r="3.5"/>
  <g id="zoomPlus">
    <use xlink:href="#rim" fill="#404040"><set attributeName="fill" to="#808080" begin="zoomplus.mouseover" end="zoomplus.mouseout"/></use>
    <path d="M-4,0h8M0,-4v8" fill="none" stroke="white" stroke-width="1.5" pointer-events="none"/>
  </g>
  <g id="zoomMin">
    <use xlink:href="#rim" fill="#404040"><set attributeName="fill" to="#808080" begin="zoomminus.mouseover" end="zoomminus.mouseout"/></use>
    <path d="M-4,0h8" fill="none" stroke="white" stroke-width="1.5" pointer-events="none"/>
  </g>
  <g id="arrowUp" transform="translate(30 24)">
    <use xlink:href="#rim"/>
    <path pointer-events="none" fill="none" stroke="white" stroke-width="1.5" d="M0,-3.0v7 M-2.5,-0.5L0,-3.0L2.5,-0.5"/>
  </g>
  <g id="arrowRight" transform="rotate(90) translate(36 -43)">
    <use xlink:href="#rim"/>
    <path pointer-events="none" fill="none" stroke="white" stroke-width="1.5" d="M0,-3.0v7 M-2.5,-0.5L0,-3.0L2.5,-0.5"/>
  </g>
  <g id="arrowDown" transform="rotate(180) translate(-30 -48)">
    <use xlink:href="#rim"/>
    <path pointer-events="none" fill="none" stroke="white" stroke-width="1.5" d="M0,-3.0v7 M-2.5,-0.5L0,-3.0L2.5,-0.5"/>
  </g>
  <g id="arrowLeft" transform="rotate(270) translate(-36 17)">
    <use xlink:href="#rim"/>
    <path pointer-events="none" fill="none" stroke="white" stroke-width="1.5" d="M0,-3.0v7 M-2.5,-0.5L0,-3.0L2.5,-0.5"/>
  </g>
  <g id="resetDef">
    <use xlink:href="#rim2" fill="#404040"><set attributeName="fill" to="#808080" begin="reset.mouseover" end="reset.mouseout"/></use>
  </g>
</defs>
<script type="application/ecmascript">
var viewWidth = 588;
var viewHeight = 600;
var sectionId = 'dynsection-0';
</script>
<script type="application/ecmascript" xlink:href="svg.min.js"/>
<svg id="graph" class="graph">
<g id="viewport">
<title>sfc_nst::sfc_nst_run</title>
<!-- Node1 -->
<g id="Node000001" class="node">
<title>Node1</title>
<g id="a_Node000001"><a xlink:title=" ">
<polygon fill="#999999" stroke="#666666" points="105.25,-319.88 0,-319.88 0,-300.62 105.25,-300.62 105.25,-319.88"/>
<text xml:space="preserve" text-anchor="middle" x="52.62" y="-306.38" font-family="Source Sans Pro" font-size="10.00">sfc_nst::sfc_nst_run</text>
</a>
</g>
</g>
<!-- Node2 -->
<g id="Node000002" class="node">
<title>Node2</title>
<g id="a_Node000002"><a xlink:href="group__gfs__nst__main__mod_ga2f383e6c00657a19972148586f2de19a.html#ga2f383e6c00657a19972148586f2de19a" target="_top" xlink:title="This subroutine calculates the diurnal warming amount at the top layer with thickness of delz.">
<polygon fill="white" stroke="#666666" points="264.12,-591.88 157.38,-591.88 157.38,-572.62 264.12,-572.62 264.12,-591.88"/>
<text xml:space="preserve" text-anchor="middle" x="210.75" y="-578.38" font-family="Source Sans Pro" font-size="10.00">nst_module::cal_ttop</text>
</a>
</g>
</g>
<!-- Node1&#45;&gt;Node2 -->
<g id="edge1_Node000001_Node000002" class="edge">
<title>Node1&#45;&gt;Node2</title>
<g id="a_edge1_Node000001_Node000002"><a xlink:title=" ">
<path fill="none" stroke="#63b8ff" d="M53.89,-320.28C55.47,-358.29 66.35,-494.78 141.25,-564.25 143.12,-565.98 145.13,-567.55 147.26,-568.97"/>
<polygon fill="#63b8ff" stroke="#63b8ff" points="145.37,-571.93 155.84,-573.59 148.69,-565.77 145.37,-571.93"/>
</a>
</g>
</g>
<!-- Node3 -->
<g id="Node000003" class="node">
<title>Node3</title>
<g id="a_Node000003"><a xlink:href="group__gfs__nst__main__mod_gaa16130eb3060667be686f5c59dc365d6.html#gaa16130eb3060667be686f5c59dc365d6" target="_top" xlink:title="This subroutine computes coefficients (w_0 and w_d) to calculate d(tw)/d(ts).">
<polygon fill="white" stroke="#666666" points="259.62,-554.88 161.88,-554.88 161.88,-535.62 259.62,-535.62 259.62,-554.88"/>
<text xml:space="preserve" text-anchor="middle" x="210.75" y="-541.38" font-family="Source Sans Pro" font-size="10.00">nst_module::cal_w</text>
</a>
</g>
</g>
<!-- Node1&#45;&gt;Node3 -->
<g id="edge2_Node000001_Node000003" class="edge">
<title>Node1&#45;&gt;Node3</title>
<g id="a_edge2_Node000001_Node000003"><a xlink:title=" ">
<path fill="none" stroke="#63b8ff" d="M54.55,-320.24C58.29,-354.64 75.39,-469.25 141.25,-527.25 144.25,-529.89 147.59,-532.15 151.13,-534.08"/>
<polygon fill="#63b8ff" stroke="#63b8ff" points="149.62,-537.24 160.18,-538.1 152.46,-530.84 149.62,-537.24"/>
</a>
</g>
</g>
<!-- Node4 -->
<g id="Node000004" class="node">
<title>Node4</title>
<g id="a_Node000004"><a xlink:href="group__gfs__nst__main__mod_ga08dc2d930310b21de0d64cf6c1235c1c.html#ga08dc2d930310b21de0d64cf6c1235c1c" target="_top" xlink:title="This subroutine calculates depth for convective adjustment.">
<polygon fill="white" stroke="#666666" points="269.38,-517.88 152.12,-517.88 152.12,-498.62 269.38,-498.62 269.38,-517.88"/>
<text xml:space="preserve" text-anchor="middle" x="210.75" y="-504.38" font-family="Source Sans Pro" font-size="10.00">nst_module::convdepth</text>
</a>
</g>
</g>
<!-- Node1&#45;&gt;Node4 -->
<g id="edge3_Node000001_Node000004" class="edge">
<title>Node1&#45;&gt;Node4</title>
<g id="a_edge3_Node000001_Node000004"><a xlink:title=" ">
<path fill="none" stroke="#63b8ff" d="M55.45,-320.23C61.58,-350.74 84.3,-443.5 141.25,-490.25 142.22,-491.05 143.23,-491.81 144.26,-492.55"/>
<polygon fill="#63b8ff" stroke="#63b8ff" points="142.48,-495.55 152.89,-497.5 145.96,-489.49 142.48,-495.55"/>
</a>
</g>
</g>
<!-- Node5 -->
<g id="Node000005" class="node">
<title>Node5</title>
<g id="a_Node000005"><a xlink:href="group__gfs__nst__main__mod_gaef9c6aa5c785e8eb45d72108370fd077.html#gaef9c6aa5c785e8eb45d72108370fd077" target="_top" xlink:title="This subroutine contains the upper ocean cool&#45;skin parameterization (Fairall et al,...">
<polygon fill="white" stroke="#666666" points="267.5,-480.88 154,-480.88 154,-461.62 267.5,-461.62 267.5,-480.88"/>
<text xml:space="preserve" text-anchor="middle" x="210.75" y="-467.38" font-family="Source Sans Pro" font-size="10.00">nst_module::cool_skin</text>
</a>
</g>
</g>
<!-- Node1&#45;&gt;Node5 -->
<g id="edge4_Node000001_Node000005" class="edge">
<title>Node1&#45;&gt;Node5</title>
<g id="a_edge4_Node000001_Node000005"><a xlink:title=" ">
<path fill="none" stroke="#63b8ff" d="M56.89,-320.28C65.87,-346.3 93.54,-416.41 141.25,-452.25 143.21,-453.73 145.29,-455.09 147.44,-456.34"/>
<polygon fill="#63b8ff" stroke="#63b8ff" points="145.43,-459.25 155.94,-460.53 148.52,-452.97 145.43,-459.25"/>
</a>
</g>
</g>
<!-- Node6 -->
<g id="Node000006" class="node">
<title>Node6</title>
<g id="a_Node000006"><a xlink:href="group__gfs__nst__main__mod_ga145ec239c4ce636e671701d0f8780664.html#ga145ec239c4ce636e671701d0f8780664" target="_top" xlink:title="This subroutine computes sea water density.">
<polygon fill="white" stroke="#666666" points="270.5,-443.5 151,-443.5 151,-413 270.5,-413 270.5,-443.5"/>
<text xml:space="preserve" text-anchor="start" x="159" y="-430" font-family="Source Sans Pro" font-size="10.00">module_nst_water_prop</text>
<text xml:space="preserve" text-anchor="middle" x="210.75" y="-418.75" font-family="Source Sans Pro" font-size="10.00">::density</text>
</a>
</g>
</g>
<!-- Node1&#45;&gt;Node6 -->
<g id="edge5_Node000001_Node000006" class="edge">
<title>Node1&#45;&gt;Node6</title>
<g id="a_edge5_Node000001_Node000006"><a xlink:title=" ">
<path fill="none" stroke="#63b8ff" d="M61.3,-320.33C75.41,-338.29 107.17,-376.1 141.25,-399.25 145.69,-402.27 150.49,-405.07 155.43,-407.64"/>
<polygon fill="#63b8ff" stroke="#63b8ff" points="153.77,-410.73 164.29,-411.95 156.83,-404.44 153.77,-410.73"/>
</a>
</g>
</g>
<!-- Node7 -->
<g id="Node000007" class="node">
<title>Node7</title>
<g id="a_Node000007"><a xlink:href="group__gfs__nst__main__mod_ga7bd8d3987cfe757a5b0e3cdfd5baa26c.html#ga7bd8d3987cfe757a5b0e3cdfd5baa26c" target="_top" xlink:title="This subroutine resets the value of xt,xs,xu,xv,xz,xtts,xzts.">
<polygon fill="white" stroke="#666666" points="580,-356.88 470.25,-356.88 470.25,-337.62 580,-337.62 580,-356.88"/>
<text xml:space="preserve" text-anchor="middle" x="525.12" y="-343.38" font-family="Source Sans Pro" font-size="10.00">nst_module::dtl_reset</text>
</a>
</g>
</g>
<!-- Node1&#45;&gt;Node7 -->
<g id="edge6_Node000001_Node000007" class="edge">
<title>Node1&#45;&gt;Node7</title>
<g id="a_edge6_Node000001_Node000007"><a xlink:title=" ">
<path fill="none" stroke="#63b8ff" d="M64.48,-320.17C80.09,-333.68 110.4,-357.24 141.25,-366.25 257,-400.08 400.71,-376.5 474.81,-359.83"/>
<polygon fill="#63b8ff" stroke="#63b8ff" points="475.23,-363.33 484.18,-357.67 473.65,-356.51 475.23,-363.33"/>
</a>
</g>
</g>
<!-- Node8 -->
<g id="Node000008" class="node">
<title>Node8</title>
<g id="a_Node000008"><a xlink:href="group__gfs__nst__main__mod_ga5571223d5c5ae3121591f34a8d33223e.html#ga5571223d5c5ae3121591f34a8d33223e" target="_top" xlink:title="This subroutine contains the module of diurnal thermocline layer model.">
<polygon fill="white" stroke="#666666" points="263,-356.88 158.5,-356.88 158.5,-337.62 263,-337.62 263,-356.88"/>
<text xml:space="preserve" text-anchor="middle" x="210.75" y="-343.38" font-family="Source Sans Pro" font-size="10.00">nst_module::dtm_1p</text>
</a>
</g>
</g>
<!-- Node1&#45;&gt;Node8 -->
<g id="edge7_Node000001_Node000008" class="edge">
<title>Node1&#45;&gt;Node8</title>
<g id="a_edge7_Node000001_Node000008"><a xlink:title=" ">
<path fill="none" stroke="#63b8ff" d="M96.29,-320.36C114.7,-324.72 136.45,-329.88 155.96,-334.5"/>
<polygon fill="#63b8ff" stroke="#63b8ff" points="155.13,-337.9 165.67,-336.8 156.74,-331.09 155.13,-337.9"/>
</a>
</g>
</g>
<!-- Node11 -->
<g id="Node000011" class="node">
<title>Node11</title>
<g id="a_Node000011"><a xlink:href="group__gfs__nst__main__mod_ga164262837de9214bdf9394a51c7c9352.html#ga164262837de9214bdf9394a51c7c9352" target="_top" xlink:title="This subroutine applies free convection adjustment(fca).">
<polygon fill="white" stroke="#666666" points="272.38,-319.88 149.12,-319.88 149.12,-300.62 272.38,-300.62 272.38,-319.88"/>
<text xml:space="preserve" text-anchor="middle" x="210.75" y="-306.38" font-family="Source Sans Pro" font-size="10.00">nst_module::dtm_1p_fca</text>
</a>
</g>
</g>
<!-- Node1&#45;&gt;Node11 -->
<g id="edge12_Node000001_Node000011" class="edge">
<title>Node1&#45;&gt;Node11</title>
<g id="a_edge12_Node000001_Node000011"><a xlink:title=" ">
<path fill="none" stroke="#63b8ff" d="M105.61,-310.25C115.77,-310.25 126.6,-310.25 137.29,-310.25"/>
<polygon fill="#63b8ff" stroke="#63b8ff" points="137.28,-313.75 147.28,-310.25 137.28,-306.75 137.28,-313.75"/>
</a>
</g>
</g>
<!-- Node12 -->
<g id="Node000012" class="node">
<title>Node12</title>
<g id="a_Node000012"><a xlink:href="group__gfs__nst__main__mod_ga74a25c0dc3f4d29dc88f4424cbada861.html#ga74a25c0dc3f4d29dc88f4424cbada861" target="_top" xlink:title="This subroutine applies minimum depth adjustment (xz adjustment).">
<polygon fill="white" stroke="#666666" points="275,-282.88 146.5,-282.88 146.5,-263.62 275,-263.62 275,-282.88"/>
<text xml:space="preserve" text-anchor="middle" x="210.75" y="-269.38" font-family="Source Sans Pro" font-size="10.00">nst_module::dtm_1p_mda</text>
</a>
</g>
</g>
<!-- Node1&#45;&gt;Node12 -->
<g id="edge13_Node000001_Node000012" class="edge">
<title>Node1&#45;&gt;Node12</title>
<g id="a_edge13_Node000001_Node000012"><a xlink:title=" ">
<path fill="none" stroke="#63b8ff" d="M96.29,-300.14C114.7,-295.78 136.45,-290.62 155.96,-286"/>
<polygon fill="#63b8ff" stroke="#63b8ff" points="156.74,-289.41 165.67,-283.7 155.13,-282.6 156.74,-289.41"/>
</a>
</g>
</g>
<!-- Node13 -->
<g id="Node000013" class="node">
<title>Node13</title>
<g id="a_Node000013"><a xlink:href="group__gfs__nst__main__mod_ga4bf7ce16840d714fec6cee957471e718.html#ga4bf7ce16840d714fec6cee957471e718" target="_top" xlink:title="This subroutine applies maximum temperature adjustment (mta).">
<polygon fill="white" stroke="#666666" points="273.88,-245.88 147.62,-245.88 147.62,-226.62 273.88,-226.62 273.88,-245.88"/>
<text xml:space="preserve" text-anchor="middle" x="210.75" y="-232.38" font-family="Source Sans Pro" font-size="10.00">nst_module::dtm_1p_mta</text>
</a>
</g>
</g>
<!-- Node1&#45;&gt;Node13 -->
<g id="edge14_Node000001_Node000013" class="edge">
<title>Node1&#45;&gt;Node13</title>
<g id="a_edge14_Node000001_Node000013"><a xlink:title=" ">
<path fill="none" stroke="#63b8ff" d="M66.55,-300.14C83.03,-287.7 112.81,-266.71 141.25,-254.25 144.85,-252.67 148.62,-251.21 152.46,-249.85"/>
<polygon fill="#63b8ff" stroke="#63b8ff" points="153.51,-253.19 161.95,-246.79 151.36,-246.53 153.51,-253.19"/>
</a>
</g>
</g>
<!-- Node14 -->
<g id="Node000014" class="node">
<title>Node14</title>
<g id="a_Node000014"><a xlink:href="group__gfs__nst__main__mod_ga116e705b704fdc6ba6ecdedce4f2ee61.html#ga116e705b704fdc6ba6ecdedce4f2ee61" target="_top" xlink:title="This subroutine applies maximum warming adjustment (mwa).">
<polygon fill="white" stroke="#666666" points="276.12,-208.88 145.38,-208.88 145.38,-189.62 276.12,-189.62 276.12,-208.88"/>
<text xml:space="preserve" text-anchor="middle" x="210.75" y="-195.38" font-family="Source Sans Pro" font-size="10.00">nst_module::dtm_1p_mwa</text>
</a>
</g>
</g>
<!-- Node1&#45;&gt;Node14 -->
<g id="edge15_Node000001_Node000014" class="edge">
<title>Node1&#45;&gt;Node14</title>
<g id="a_edge15_Node000001_Node000014"><a xlink:title=" ">
<path fill="none" stroke="#63b8ff" d="M60.04,-300.4C73.01,-281.3 104.25,-239.23 141.25,-217.25 143.4,-215.97 145.64,-214.79 147.94,-213.68"/>
<polygon fill="#63b8ff" stroke="#63b8ff" points="149.05,-217.01 156.94,-209.94 146.36,-210.55 149.05,-217.01"/>
</a>
</g>
</g>
<!-- Node15 -->
<g id="Node000015" class="node">
<title>Node15</title>
<g id="a_Node000015"><a xlink:href="group__gfs__nst__main__mod_ga9007725e783b26b4424c4694016235f5.html#ga9007725e783b26b4424c4694016235f5" target="_top" xlink:title="This subroutine applies top layer adjustment (tla).">
<polygon fill="white" stroke="#666666" points="270.88,-171.88 150.62,-171.88 150.62,-152.62 270.88,-152.62 270.88,-171.88"/>
<text xml:space="preserve" text-anchor="middle" x="210.75" y="-158.38" font-family="Source Sans Pro" font-size="10.00">nst_module::dtm_1p_tla</text>
</a>
</g>
</g>
<!-- Node1&#45;&gt;Node15 -->
<g id="edge16_Node000001_Node000015" class="edge">
<title>Node1&#45;&gt;Node15</title>
<g id="a_edge16_Node000001_Node000015"><a xlink:title=" ">
<path fill="none" stroke="#63b8ff" d="M57.4,-300.32C67.21,-275.86 95.97,-212.39 141.25,-180.25 142.8,-179.15 144.41,-178.12 146.08,-177.14"/>
<polygon fill="#63b8ff" stroke="#63b8ff" points="147.26,-180.46 154.69,-172.92 144.17,-174.18 147.26,-180.46"/>
</a>
</g>
</g>
<!-- Node16 -->
<g id="Node000016" class="node">
<title>Node16</title>
<g id="a_Node000016"><a xlink:href="group__gfs__nst__main__mod_ga25d34d9108cef737a45cce10e4269279.html#ga25d34d9108cef737a45cce10e4269279" target="_top" xlink:title="This subroutine computes dtm (the mean of ).">
<polygon fill="white" stroke="#666666" points="270.5,-134.5 151,-134.5 151,-104 270.5,-104 270.5,-134.5"/>
<text xml:space="preserve" text-anchor="start" x="159" y="-121" font-family="Source Sans Pro" font-size="10.00">module_nst_water_prop</text>
<text xml:space="preserve" text-anchor="middle" x="210.75" y="-109.75" font-family="Source Sans Pro" font-size="10.00">::get_dtzm_point</text>
</a>
</g>
</g>
<!-- Node1&#45;&gt;Node16 -->
<g id="edge17_Node000001_Node000016" class="edge">
<title>Node1&#45;&gt;Node16</title>
<g id="a_edge17_Node000001_Node000016"><a xlink:title=" ">
<path fill="none" stroke="#63b8ff" d="M56.06,-300.36C63.58,-271.78 89.21,-188.19 141.25,-143.25 142.18,-142.45 143.14,-141.67 144.12,-140.92"/>
<polygon fill="#63b8ff" stroke="#63b8ff" points="145.78,-144.01 152.28,-135.65 141.98,-138.13 145.78,-144.01"/>
</a>
</g>
</g>
<!-- Node17 -->
<g id="Node000017" class="node">
<title>Node17</title>
<g id="a_Node000017"><a xlink:href="group__gfs__nst__main__mod_gaf99b350f68c090e8c043a17a59f79b67.html#gaf99b350f68c090e8c043a17a59f79b67" target="_top" xlink:title=" ">
<polygon fill="white" stroke="#666666" points="280.25,-67.88 141.25,-67.88 141.25,-48.62 280.25,-48.62 280.25,-67.88"/>
<text xml:space="preserve" text-anchor="middle" x="210.75" y="-54.38" font-family="Source Sans Pro" font-size="10.00">module_nst_water_prop::grv</text>
</a>
</g>
</g>
<!-- Node1&#45;&gt;Node17 -->
<g id="edge18_Node000001_Node000017" class="edge">
<title>Node1&#45;&gt;Node17</title>
<g id="a_edge18_Node000001_Node000017"><a xlink:title=" ">
<path fill="none" stroke="#63b8ff" d="M55.19,-300.44C60.91,-267.56 83.38,-159.75 141.25,-95.25 149.46,-86.1 160.48,-78.78 171.28,-73.15"/>
<polygon fill="#63b8ff" stroke="#63b8ff" points="172.6,-76.4 180.1,-68.92 169.57,-70.09 172.6,-76.4"/>
</a>
</g>
</g>
<!-- Node18 -->
<g id="Node000018" class="node">
<title>Node18</title>
<g id="a_Node000018"><a xlink:href="group__gfs__nst__main__mod_ga8832504bf7674b233b0842af159b6bfb.html#ga8832504bf7674b233b0842af159b6bfb" target="_top" xlink:title="This subroutine computes thermal expansion coefficient (alpha) and saline contraction coefficient (be...">
<polygon fill="white" stroke="#666666" points="270.5,-30.5 151,-30.5 151,0 270.5,0 270.5,-30.5"/>
<text xml:space="preserve" text-anchor="start" x="159" y="-17" font-family="Source Sans Pro" font-size="10.00">module_nst_water_prop</text>
<text xml:space="preserve" text-anchor="middle" x="210.75" y="-5.75" font-family="Source Sans Pro" font-size="10.00">::rhocoef</text>
</a>
</g>
</g>
<!-- Node1&#45;&gt;Node18 -->
<g id="edge20_Node000001_Node000018" class="edge">
<title>Node1&#45;&gt;Node18</title>
<g id="a_edge20_Node000001_Node000018"><a xlink:title=" ">
<path fill="none" stroke="#63b8ff" d="M53.83,-300.3C55.17,-261.29 65.27,-117.1 141.25,-39.25 141.73,-38.76 142.22,-38.27 142.73,-37.8"/>
<polygon fill="#63b8ff" stroke="#63b8ff" points="144.62,-40.76 150.43,-31.89 140.36,-35.2 144.62,-40.76"/>
</a>
</g>
</g>
<!-- Node9 -->
<g id="Node000009" class="node">
<title>Node9</title>
<g id="a_Node000009"><a xlink:href="group__gfs__nst__main__mod_ga8a675addc5dc1e840b49bf2ceac1baf9.html#ga8a675addc5dc1e840b49bf2ceac1baf9" target="_top" xlink:title=" ">
<polygon fill="white" stroke="#666666" points="434.25,-356.88 316.25,-356.88 316.25,-337.62 434.25,-337.62 434.25,-356.88"/>
<text xml:space="preserve" text-anchor="middle" x="375.25" y="-343.38" font-family="Source Sans Pro" font-size="10.00">nst_module::dtm_onset</text>
</a>
</g>
</g>
<!-- Node8&#45;&gt;Node9 -->
<g id="edge8_Node000008_Node000009" class="edge">
<title>Node8&#45;&gt;Node9</title>
<g id="a_edge8_Node000008_Node000009"><a xlink:title=" ">
<path fill="none" stroke="#63b8ff" d="M263.17,-347.25C276.24,-347.25 290.51,-347.25 304.34,-347.25"/>
<polygon fill="#63b8ff" stroke="#63b8ff" points="304.3,-350.75 314.3,-347.25 304.3,-343.75 304.3,-350.75"/>
</a>
</g>
</g>
<!-- Node10 -->
<g id="Node000010" class="node">
<title>Node10</title>
<g id="a_Node000010"><a xlink:href="group__gfs__nst__main__mod_gaa63c73ffe0e4993cd939bfd283d31f8c.html#gaa63c73ffe0e4993cd939bfd283d31f8c" target="_top" xlink:title="This subroutine integrates one time step with modified Euler method.">
<polygon fill="white" stroke="#666666" points="426,-319.88 324.5,-319.88 324.5,-300.62 426,-300.62 426,-319.88"/>
<text xml:space="preserve" text-anchor="middle" x="375.25" y="-306.38" font-family="Source Sans Pro" font-size="10.00">nst_module::eulerm</text>
</a>
</g>
</g>
<!-- Node8&#45;&gt;Node10 -->
<g id="edge10_Node000008_Node000010" class="edge">
<title>Node8&#45;&gt;Node10</title>
<g id="a_edge10_Node000008_Node000010"><a xlink:title=" ">
<path fill="none" stroke="#63b8ff" d="M256.15,-337.14C275.5,-332.73 298.38,-327.52 318.83,-322.87"/>
<polygon fill="#63b8ff" stroke="#63b8ff" points="319.45,-326.32 328.42,-320.68 317.9,-319.49 319.45,-326.32"/>
</a>
</g>
</g>
<!-- Node9&#45;&gt;Node7 -->
<g id="edge9_Node000009_Node000007" class="edge">
<title>Node9&#45;&gt;Node7</title>
<g id="a_edge9_Node000009_Node000007"><a xlink:title=" ">
<path fill="none" stroke="#63b8ff" d="M434.69,-347.25C442.5,-347.25 450.56,-347.25 458.48,-347.25"/>
<polygon fill="#63b8ff" stroke="#63b8ff" points="458.44,-350.75 468.44,-347.25 458.44,-343.75 458.44,-350.75"/>
</a>
</g>
</g>
<!-- Node10&#45;&gt;Node7 -->
<g id="edge11_Node000010_Node000007" class="edge">
<title>Node10&#45;&gt;Node7</title>
<g id="a_edge11_Node000010_Node000007"><a xlink:title=" ">
<path fill="none" stroke="#63b8ff" d="M416.66,-320.36C433.94,-324.68 454.32,-329.78 472.66,-334.37"/>
<polygon fill="#63b8ff" stroke="#63b8ff" points="471.75,-337.75 482.3,-336.78 473.45,-330.96 471.75,-337.75"/>
</a>
</g>
</g>
<!-- Node17&#45;&gt;Node17 -->
<g id="edge19_Node000017_Node000017" class="edge">
<title>Node17&#45;&gt;Node17</title>
<g id="a_edge19_Node000017_Node000017"><a xlink:title=" ">
<path fill="none" stroke="#63b8ff" d="M185.99,-68.16C174.7,-76.77 182.95,-85.88 210.75,-85.88 226.38,-85.88 235.84,-82.99 239.1,-78.94"/>
<polygon fill="#63b8ff" stroke="#63b8ff" points="242.47,-77.98 235.98,-69.6 235.83,-80.19 242.47,-77.98"/>
</a>
</g>
</g>
</g>
</svg>

<g id="navigator" transform="translate(0 0)" fill="#404254">
  <rect fill="#f2f5e9" fill-opacity="0.5" stroke="#606060" stroke-width=".5" x="0" y="0" width="60" height="60"/>
  <use id="zoomplus" xlink:href="#zoomPlus" x="17" y="9" onmousedown="handleZoom(evt,'in')"/>
  <use id="zoomminus" xlink:href="#zoomMin" x="42" y="9" onmousedown="handleZoom(evt,'out')"/>
  <use id="reset" xlink:href="#resetDef" x="30" y="36" onmousedown="handleReset()"/>
   <use id="arrowup" xlink:href="#arrowUp" x="0" y="0" onmousedown="handlePan(0,-1)"/>
  <use id="arrowright" xlink:href="#arrowRight" x="0" y="0" onmousedown="handlePan(1,0)"/>
  <use id="arrowdown" xlink:href="#arrowDown" x="0" y="0" onmousedown="handlePan(0,1)"/>
  <use id="arrowleft" xlink:href="#arrowLeft" x="0" y="0" onmousedown="handlePan(-1,0)"/>
</g>
<svg viewBox="0 0 15 15" width="100%" height="30px" preserveAspectRatio="xMaxYMin meet">
 <g id="arrow_out" transform="scale(0.3 0.3)">
  <a xlink:href="group__gfs__nst__main__mod_gac3a5be259ff62716070a38364d88cac4_gac3a5be259ff62716070a38364d88cac4_cgraph_org.svg" target="_base">
   <rect id="button" ry="5" rx="5" y="6" x="6" height="38" width="38"
        fill="#f2f5e9" fill-opacity="0.5" stroke="#606060" stroke-width="1.0"/>
   <path id="arrow"
     d="M 11.500037,31.436501 C 11.940474,20.09759 22.043105,11.32322 32.158766,21.979434 L 37.068811,17.246167 C 37.068811,17.246167 37.088388,32 37.088388,32 L 22.160133,31.978069 C 22.160133,31.978069 26.997745,27.140456 26.997745,27.140456 C 18.528582,18.264221 13.291696,25.230495 11.500037,31.436501 z"
     style="fill:#404040;"/>
  </a>
 </g>
</svg>

<style type='text/css'>
<![CDATA[
[data-mouse-over-selected='false'] { opacity: 0.7; }
[data-mouse-over-selected='true']  { opacity: 1.0; }
]]>
</style>
<script type="application/ecmascript"><![CDATA[
document.addEventListener('DOMContentLoaded', (event) => {
  highlightEdges();
  highlightAdjacentNodes();
});
]]></script>
</svg>
