<?xml version="1.0" encoding="UTF-8" standalone="no"?>
<!DOCTYPE svg PUBLIC "-//W3C//DTD SVG 1.1//EN"
 "http://www.w3.org/Graphics/SVG/1.1/DTD/svg11.dtd">
<!-- Generated by graphviz version 14.1.2 (20260124.0452)
 -->
<!-- Title: rrtmg_sw::vrtqdr Pages: 1 -->
<svg width="387pt" height="64pt"
 viewBox="0.00 0.00 387.00 64.00" xmlns="http://www.w3.org/2000/svg" xmlns:xlink="http://www.w3.org/1999/xlink">
<g id="graph0" class="graph" transform="scale(1 1) rotate(0) translate(4 60.25)">
<title>rrtmg_sw::vrtqdr</title>
<!-- Node1 -->
<g id="Node000001" class="node">
<title>Node1</title>
<g id="a_Node000001"><a xlink:title="This subroutine is called by spcvrtc() and spcvrtm(), and computes the upward and downward radiation ...">
<polygon fill="#999999" stroke="#666666" points="378.75,-37.25 291.5,-37.25 291.5,-18 378.75,-18 378.75,-37.25"/>
<text xml:space="preserve" text-anchor="middle" x="335.12" y="-23.75" font-family="Source Sans Pro" font-size="10.00">rrtmg_sw::vrtqdr</text>
</a>
</g>
</g>
<!-- Node2 -->
<g id="Node000002" class="node">
<title>Node2</title>
<g id="a_Node000002"><a xlink:href="group__module__radsw__main_gabcbc14a26bd383deffec85ef74354a97.html#gabcbc14a26bd383deffec85ef74354a97" target="_top" xlink:title="This subroutine computes the shortwave radiative fluxes using two&#45;stream method.">
<polygon fill="white" stroke="#666666" points="254,-56.25 159.25,-56.25 159.25,-37 254,-37 254,-56.25"/>
<text xml:space="preserve" text-anchor="middle" x="206.62" y="-42.75" font-family="Source Sans Pro" font-size="10.00">rrtmg_sw::spcvrtc</text>
</a>
</g>
</g>
<!-- Node1&#45;&gt;Node2 -->
<g id="edge1_Node000001_Node000002" class="edge">
<title>Node1&#45;&gt;Node2</title>
<g id="a_edge1_Node000001_Node000002"><a xlink:title=" ">
<path fill="none" stroke="#63b8ff" d="M280.18,-35.73C271.57,-37.02 262.73,-38.35 254.31,-39.61"/>
<polygon fill="#63b8ff" stroke="#63b8ff" points="280.43,-39.23 289.8,-34.28 279.39,-32.31 280.43,-39.23"/>
</a>
</g>
</g>
<!-- Node4 -->
<g id="Node000004" class="node">
<title>Node4</title>
<g id="a_Node000004"><a xlink:href="group__module__radsw__main_ga9af8942fec8a26e18e27caa0ad93534b.html#ga9af8942fec8a26e18e27caa0ad93534b" target="_top" xlink:title="This subroutine computes the shortwave radiative fluxes using two&#45;stream method of h....">
<polygon fill="white" stroke="#666666" points="255.5,-19.25 157.75,-19.25 157.75,0 255.5,0 255.5,-19.25"/>
<text xml:space="preserve" text-anchor="middle" x="206.62" y="-5.75" font-family="Source Sans Pro" font-size="10.00">rrtmg_sw::spcvrtm</text>
</a>
</g>
</g>
<!-- Node1&#45;&gt;Node4 -->
<g id="edge3_Node000001_Node000004" class="edge">
<title>Node1&#45;&gt;Node4</title>
<g id="a_edge3_Node000001_Node000004"><a xlink:title=" ">
<path fill="none" stroke="#63b8ff" d="M280.03,-19.93C271.92,-18.77 263.6,-17.59 255.63,-16.46"/>
<polygon fill="#63b8ff" stroke="#63b8ff" points="279.41,-23.37 289.8,-21.32 280.39,-16.44 279.41,-23.37"/>
</a>
</g>
</g>
<!-- Node3 -->
<g id="Node000003" class="node">
<title>Node3</title>
<g id="a_Node000003"><a xlink:href="group__module__radsw__main_ga98a04fd11b2af93cfa87e4cb8d02f2a0.html#ga98a04fd11b2af93cfa87e4cb8d02f2a0" target="_top" xlink:title=" ">
<polygon fill="white" stroke="#666666" points="121.75,-37.25 0,-37.25 0,-18 121.75,-18 121.75,-37.25"/>
<text xml:space="preserve" text-anchor="middle" x="60.88" y="-23.75" font-family="Source Sans Pro" font-size="10.00">rrtmg_sw::rrtmg_sw_run</text>
</a>
</g>
</g>
<!-- Node2&#45;&gt;Node3 -->
<g id="edge2_Node000002_Node000003" class="edge">
<title>Node2&#45;&gt;Node3</title>
<g id="a_edge2_Node000002_Node000003"><a xlink:title=" ">
<path fill="none" stroke="#63b8ff" d="M147.71,-38.97C139.31,-37.86 130.64,-36.71 122.2,-35.6"/>
<polygon fill="#63b8ff" stroke="#63b8ff" points="147.08,-42.42 157.45,-40.26 148,-35.48 147.08,-42.42"/>
</a>
</g>
</g>
<!-- Node4&#45;&gt;Node3 -->
<g id="edge4_Node000004_Node000003" class="edge">
<title>Node4&#45;&gt;Node3</title>
<g id="a_edge4_Node000004_Node000003"><a xlink:title=" ">
<path fill="none" stroke="#63b8ff" d="M145.96,-17.1C138.05,-18.09 129.93,-19.1 122.02,-20.09"/>
<polygon fill="#63b8ff" stroke="#63b8ff" points="146.37,-20.57 155.86,-15.86 145.5,-13.63 146.37,-20.57"/>
</a>
</g>
</g>
</g>
</svg>
