<?xml version="1.0" encoding="UTF-8" standalone="no"?>
<!DOCTYPE svg PUBLIC "-//W3C//DTD SVG 1.1//EN"
 "http://www.w3.org/Graphics/SVG/1.1/DTD/svg11.dtd">
<!-- Generated by graphviz version 14.1.2 (20260124.0452)
 -->
<!-- Title: srt Pages: 1 -->
<svg width="126pt" height="64pt"
 viewBox="0.00 0.00 126.00 64.00" xmlns="http://www.w3.org/2000/svg" xmlns:xlink="http://www.w3.org/1999/xlink">
<g id="graph0" class="graph" transform="scale(1 1) rotate(0) translate(4 60.25)">
<title>srt</title>
<!-- Node1 -->
<g id="Node000001" class="node">
<title>Node1</title>
<g id="a_Node000001"><a xlink:title="calculate the right hand side of the time tendency term of the soil water diffusion equation....">
<polygon fill="#999999" stroke="#666666" points="28.8,-37.25 0,-37.25 0,-18 28.8,-18 28.8,-37.25"/>
<text xml:space="preserve" text-anchor="middle" x="14.4" y="-23.75" font-family="Source Sans Pro" font-size="10.00">srt</text>
</a>
</g>
</g>
<!-- Node2 -->
<g id="Node000002" class="node">
<title>Node2</title>
<g id="a_Node000002"><a xlink:href="group___noah_m_p___l_s_m_gaffab2571eaa0a1c94d971a5344c8a109.html#gaffab2571eaa0a1c94d971a5344c8a109" target="_top" xlink:title="calculate soil water diffusivity and soil hydraulic conductivity.">
<polygon fill="white" stroke="#666666" points="117.55,-56.25 64.8,-56.25 64.8,-37 117.55,-37 117.55,-56.25"/>
<text xml:space="preserve" text-anchor="middle" x="91.18" y="-42.75" font-family="Source Sans Pro" font-size="10.00">wdfcnd1</text>
</a>
</g>
</g>
<!-- Node1&#45;&gt;Node2 -->
<g id="edge1_Node000001_Node000002" class="edge">
<title>Node1&#45;&gt;Node2</title>
<g id="a_edge1_Node000001_Node000002"><a xlink:title=" ">
<path fill="none" stroke="#63b8ff" d="M29.11,-31.11C36.05,-32.87 44.84,-35.1 53.56,-37.32"/>
<polygon fill="#63b8ff" stroke="#63b8ff" points="52.42,-40.64 62.98,-39.71 54.15,-33.86 52.42,-40.64"/>
</a>
</g>
</g>
<!-- Node3 -->
<g id="Node000003" class="node">
<title>Node3</title>
<g id="a_Node000003"><a xlink:href="group___noah_m_p___l_s_m_gaca325ee2efde047e6cd030ace7d5931f.html#gaca325ee2efde047e6cd030ace7d5931f" target="_top" xlink:title="calculate soil water diffusivity and soil hydraulic conductivity.">
<polygon fill="white" stroke="#666666" points="117.55,-19.25 64.8,-19.25 64.8,0 117.55,0 117.55,-19.25"/>
<text xml:space="preserve" text-anchor="middle" x="91.18" y="-5.75" font-family="Source Sans Pro" font-size="10.00">wdfcnd2</text>
</a>
</g>
</g>
<!-- Node1&#45;&gt;Node3 -->
<g id="edge2_Node000001_Node000003" class="edge">
<title>Node1&#45;&gt;Node3</title>
<g id="a_edge2_Node000001_Node000003"><a xlink:title=" ">
<path fill="none" stroke="#63b8ff" d="M29.11,-24.32C35.97,-22.67 44.64,-20.59 53.27,-18.51"/>
<polygon fill="#63b8ff" stroke="#63b8ff" points="54.07,-21.92 62.97,-16.17 52.43,-15.11 54.07,-21.92"/>
</a>
</g>
</g>
</g>
</svg>
