<?xml version="1.0" encoding="UTF-8" standalone="no"?>
<!DOCTYPE svg PUBLIC "-//W3C//DTD SVG 1.1//EN"
 "http://www.w3.org/Graphics/SVG/1.1/DTD/svg11.dtd">
<!-- Generated by graphviz version 14.1.2 (20260124.0452)
 -->
<!-- Title: satmedmfvdifq::satmedmfvdifq_run Pages: 1 -->
<svg width="324pt" height="175pt"
 viewBox="0.00 0.00 324.00 175.00" xmlns="http://www.w3.org/2000/svg" xmlns:xlink="http://www.w3.org/1999/xlink">

<svg id="main" version="1.1" xmlns="http://www.w3.org/2000/svg" xmlns:xlink="http://www.w3.org/1999/xlink" xml:space="preserve">

<style type="text/css"><![CDATA[
.node, .edge {opacity: 0.7;}
.node.selected, .edge.selected {opacity: 1;}
.edge:hover path { stroke: red; }
.edge:hover polygon { stroke: red; fill: red; }
]]></style>
<script type="application/ecmascript" xlink:href="svg.min.js"/>
<svg id="graph" class="graph">
<g id="graph0" class="graph" transform="scale(1 1) rotate(0) translate(4 171.25)">
<title>satmedmfvdifq::satmedmfvdifq_run</title>
<!-- Node1 -->
<g id="Node000001" class="node">
<title>Node1</title>
<g id="a_Node000001"><a xlink:title=" ">
<polygon fill="#999999" stroke="#666666" points="169.75,-93.25 0,-93.25 0,-74 169.75,-74 169.75,-93.25"/>
<text xml:space="preserve" text-anchor="middle" x="84.88" y="-79.75" font-family="Source Sans Pro" font-size="10.00">satmedmfvdifq::satmedmfvdifq_run</text>
</a>
</g>
</g>
<!-- Node2 -->
<g id="Node000002" class="node">
<title>Node2</title>
<g id="a_Node000002"><a xlink:href="group__module__satmedmfvdifq_ga15bba20685ffc8340f58dce1d887fdb6.html#ga15bba20685ffc8340f58dce1d887fdb6" target="_top" xlink:title="This subroutine computes mass flux and updraft parcel properties for thermals driven by surface heati...">
<polygon fill="white" stroke="#666666" points="316.25,-167.25 205.75,-167.25 205.75,-148 316.25,-148 316.25,-167.25"/>
<text xml:space="preserve" text-anchor="middle" x="261" y="-153.75" font-family="Source Sans Pro" font-size="10.00">mfpbltq_mod::mfpbltq</text>
</a>
</g>
</g>
<!-- Node1&#45;&gt;Node2 -->
<g id="edge1_Node000001_Node000002" class="edge">
<title>Node1&#45;&gt;Node2</title>
<g id="a_edge1_Node000001_Node000002"><a xlink:title=" ">
<path fill="none" stroke="#63b8ff" d="M105.5,-93.66C128.99,-105.46 169.68,-125.27 205.75,-139.62 209.36,-141.06 213.14,-142.48 216.95,-143.85"/>
<polygon fill="#63b8ff" stroke="#63b8ff" points="215.62,-147.1 226.22,-147.08 217.92,-140.49 215.62,-147.1"/>
</a>
</g>
</g>
<!-- Node3 -->
<g id="Node000003" class="node">
<title>Node3</title>
<g id="a_Node000003"><a xlink:href="group__module__satmedmfvdifq_ga860b6176c81a0b7b5a8dd27b6aff850c.html#ga860b6176c81a0b7b5a8dd27b6aff850c" target="_top" xlink:title="This subroutine computes mass flux and downdraft parcel properties for stratocumulus&#45;top&#45;driven turbu...">
<polygon fill="white" stroke="#666666" points="316.25,-130.25 205.75,-130.25 205.75,-111 316.25,-111 316.25,-130.25"/>
<text xml:space="preserve" text-anchor="middle" x="261" y="-116.75" font-family="Source Sans Pro" font-size="10.00">mfscuq_mod::mfscuq</text>
</a>
</g>
</g>
<!-- Node1&#45;&gt;Node3 -->
<g id="edge2_Node000001_Node000003" class="edge">
<title>Node1&#45;&gt;Node3</title>
<g id="a_edge2_Node000001_Node000003"><a xlink:title=" ">
<path fill="none" stroke="#63b8ff" d="M133.46,-93.74C154.38,-98.18 179.16,-103.45 201.22,-108.14"/>
<polygon fill="#63b8ff" stroke="#63b8ff" points="200.49,-111.56 211,-110.21 201.94,-104.71 200.49,-111.56"/>
</a>
</g>
</g>
<!-- Node4 -->
<g id="Node000004" class="node">
<title>Node4</title>
<g id="a_Node000004"><a xlink:href="group__module__satmedmfvdifq_gafeb82aad16f009ddfae09ae940c52f7e.html#gafeb82aad16f009ddfae09ae940c52f7e" target="_top" xlink:title="This subroutine ..">
<polygon fill="white" stroke="#666666" points="302.38,-93.25 219.62,-93.25 219.62,-74 302.38,-74 302.38,-93.25"/>
<text xml:space="preserve" text-anchor="middle" x="261" y="-79.75" font-family="Source Sans Pro" font-size="10.00">tridi_mod::tridi2</text>
</a>
</g>
</g>
<!-- Node1&#45;&gt;Node4 -->
<g id="edge3_Node000001_Node000004" class="edge">
<title>Node1&#45;&gt;Node4</title>
<g id="a_edge3_Node000001_Node000004"><a xlink:title=" ">
<path fill="none" stroke="#63b8ff" d="M170.13,-83.62C183.16,-83.62 196.27,-83.62 208.29,-83.62"/>
<polygon fill="#63b8ff" stroke="#63b8ff" points="207.94,-87.13 217.94,-83.63 207.94,-80.13 207.94,-87.13"/>
</a>
</g>
</g>
<!-- Node5 -->
<g id="Node000005" class="node">
<title>Node5</title>
<g id="a_Node000005"><a xlink:href="group__module__satmedmfvdifq_ga9031977c1d186acb458ef87523aaff5b.html#ga9031977c1d186acb458ef87523aaff5b" target="_top" xlink:title="Routine to solve the tridiagonal system to calculate u&#45; and v&#45;momentum at ; part of two&#45;part process ...">
<polygon fill="white" stroke="#666666" points="302.38,-56.25 219.62,-56.25 219.62,-37 302.38,-37 302.38,-56.25"/>
<text xml:space="preserve" text-anchor="middle" x="261" y="-42.75" font-family="Source Sans Pro" font-size="10.00">tridi_mod::tridin</text>
</a>
</g>
</g>
<!-- Node1&#45;&gt;Node5 -->
<g id="edge4_Node000001_Node000005" class="edge">
<title>Node1&#45;&gt;Node5</title>
<g id="a_edge4_Node000001_Node000005"><a xlink:title=" ">
<path fill="none" stroke="#63b8ff" d="M133.46,-73.51C156.56,-68.61 184.37,-62.7 208.03,-57.67"/>
<polygon fill="#63b8ff" stroke="#63b8ff" points="208.74,-61.1 217.79,-55.59 207.28,-54.25 208.74,-61.1"/>
</a>
</g>
</g>
<!-- Node6 -->
<g id="Node000006" class="node">
<title>Node6</title>
<g id="a_Node000006"><a xlink:href="group__module__satmedmfvdifq_ga5f820ea7a901b9154fc66428d371c02c.html#ga5f820ea7a901b9154fc66428d371c02c" target="_top" xlink:title="This subroutine solves tridiagonal problem for TKE.">
<polygon fill="white" stroke="#666666" points="301.25,-19.25 220.75,-19.25 220.75,0 301.25,0 301.25,-19.25"/>
<text xml:space="preserve" text-anchor="middle" x="261" y="-5.75" font-family="Source Sans Pro" font-size="10.00">tridi_mod::tridit</text>
</a>
</g>
</g>
<!-- Node1&#45;&gt;Node6 -->
<g id="edge5_Node000001_Node000006" class="edge">
<title>Node1&#45;&gt;Node6</title>
<g id="a_edge5_Node000001_Node000006"><a xlink:title=" ">
<path fill="none" stroke="#63b8ff" d="M105.5,-73.59C128.99,-61.79 169.68,-41.98 205.75,-27.62 209.36,-26.19 213.14,-24.77 216.95,-23.4"/>
<polygon fill="#63b8ff" stroke="#63b8ff" points="217.92,-26.76 226.22,-20.17 215.62,-20.15 217.92,-26.76"/>
</a>
</g>
</g>
</g>
</svg>
</svg>

<style type='text/css'>
<![CDATA[
[data-mouse-over-selected='false'] { opacity: 0.7; }
[data-mouse-over-selected='true']  { opacity: 1.0; }
]]>
</style>
<script type="application/ecmascript"><![CDATA[
document.addEventListener('DOMContentLoaded', (event) => {
  highlightEdges();
  highlightAdjacentNodes();
});
]]></script>
</svg>
