<?xml version="1.0" encoding="UTF-8" standalone="no"?>
<!DOCTYPE svg PUBLIC "-//W3C//DTD SVG 1.1//EN"
 "http://www.w3.org/Graphics/SVG/1.1/DTD/svg11.dtd">
<!-- Generated by graphviz version 14.1.2 (20260124.0452)
 -->
<!-- Title: nst_module::cal_ttop Pages: 1 -->
<svg width="279pt" height="64pt"
 viewBox="0.00 0.00 279.00 64.00" xmlns="http://www.w3.org/2000/svg" xmlns:xlink="http://www.w3.org/1999/xlink">
<g id="graph0" class="graph" transform="scale(1 1) rotate(0) translate(4 60.25)">
<title>nst_module::cal_ttop</title>
<!-- Node1 -->
<g id="Node000001" class="node">
<title>Node1</title>
<g id="a_Node000001"><a xlink:title="This subroutine calculates the diurnal warming amount at the top layer with thickness of delz.">
<polygon fill="#999999" stroke="#666666" points="270.5,-37.25 163.75,-37.25 163.75,-18 270.5,-18 270.5,-37.25"/>
<text xml:space="preserve" text-anchor="middle" x="217.12" y="-23.75" font-family="Source Sans Pro" font-size="10.00">nst_module::cal_ttop</text>
</a>
</g>
</g>
<!-- Node2 -->
<g id="Node000002" class="node">
<title>Node2</title>
<g id="a_Node000002"><a xlink:href="group__gfs__nst__main__mod_ga1313dc227a78424d4a00d503fc3c5f87.html#ga1313dc227a78424d4a00d503fc3c5f87" target="_top" xlink:title="This subroutine applies xz adjustment.">
<polygon fill="white" stroke="#666666" points="127.75,-56.25 0,-56.25 0,-37 127.75,-37 127.75,-56.25"/>
<text xml:space="preserve" text-anchor="middle" x="63.88" y="-42.75" font-family="Source Sans Pro" font-size="10.00">nst_module::dtm_1p_zwa</text>
</a>
</g>
</g>
<!-- Node1&#45;&gt;Node2 -->
<g id="edge1_Node000001_Node000002" class="edge">
<title>Node1&#45;&gt;Node2</title>
<g id="a_edge1_Node000001_Node000002"><a xlink:title=" ">
<path fill="none" stroke="#63b8ff" d="M152.46,-35.62C144.43,-36.63 136.22,-37.66 128.2,-38.67"/>
<polygon fill="#63b8ff" stroke="#63b8ff" points="152.66,-39.12 162.15,-34.41 151.79,-32.18 152.66,-39.12"/>
</a>
</g>
</g>
<!-- Node3 -->
<g id="Node000003" class="node">
<title>Node3</title>
<g id="a_Node000003"><a xlink:href="group__gfs__nst__main__mod_gac3a5be259ff62716070a38364d88cac4.html#gac3a5be259ff62716070a38364d88cac4" target="_top" xlink:title=" ">
<polygon fill="white" stroke="#666666" points="116.5,-19.25 11.25,-19.25 11.25,0 116.5,0 116.5,-19.25"/>
<text xml:space="preserve" text-anchor="middle" x="63.88" y="-5.75" font-family="Source Sans Pro" font-size="10.00">sfc_nst::sfc_nst_run</text>
</a>
</g>
</g>
<!-- Node1&#45;&gt;Node3 -->
<g id="edge2_Node000001_Node000003" class="edge">
<title>Node1&#45;&gt;Node3</title>
<g id="a_edge2_Node000001_Node000003"><a xlink:title=" ">
<path fill="none" stroke="#63b8ff" d="M152.41,-20.04C140.52,-18.63 128.23,-17.16 116.75,-15.8"/>
<polygon fill="#63b8ff" stroke="#63b8ff" points="151.8,-23.49 162.15,-21.2 152.63,-16.54 151.8,-23.49"/>
</a>
</g>
</g>
</g>
</svg>
