<?xml version="1.0" encoding="UTF-8" standalone="no"?>
<!DOCTYPE svg PUBLIC "-//W3C//DTD SVG 1.1//EN"
 "http://www.w3.org/Graphics/SVG/1.1/DTD/svg11.dtd">
<!-- Generated by graphviz version 14.1.2 (20260124.0452)
 -->
<!-- Title: module_bl_mynn::qsat_blend Pages: 1 -->
<svg width="852pt" height="200pt"
 viewBox="0.00 0.00 852.00 200.00" xmlns="http://www.w3.org/2000/svg" xmlns:xlink="http://www.w3.org/1999/xlink">
<g id="graph0" class="graph" transform="scale(1 1) rotate(0) translate(4 195.88)">
<title>module_bl_mynn::qsat_blend</title>
<!-- Node1 -->
<g id="Node000001" class="node">
<title>Node1</title>
<g id="a_Node000001"><a xlink:title="This function extends function &quot;esat&quot; and returns a &quot;blended&quot; saturation mixing ratio....">
<polygon fill="#999999" stroke="#666666" points="843.5,-116.5 729.25,-116.5 729.25,-86 843.5,-86 843.5,-116.5"/>
<text xml:space="preserve" text-anchor="start" x="737.25" y="-103" font-family="Source Sans Pro" font-size="10.00">module_bl_mynn::qsat</text>
<text xml:space="preserve" text-anchor="middle" x="786.38" y="-91.75" font-family="Source Sans Pro" font-size="10.00">_blend</text>
</a>
</g>
</g>
<!-- Node1&#45;&gt;Node1 -->
<g id="edge12_Node000001_Node000001" class="edge">
<title>Node1&#45;&gt;Node1</title>
<g id="a_edge12_Node000001_Node000001"><a xlink:title=" ">
<path fill="none" stroke="#63b8ff" d="M817.11,-128.2C812.08,-131.97 801.84,-134.5 786.38,-134.5 758.1,-134.5 747.28,-126.06 753.9,-116.99"/>
<polygon fill="#63b8ff" stroke="#63b8ff" points="820.54,-128.9 818.61,-118.48 813.62,-127.83 820.54,-128.9"/>
</a>
</g>
</g>
<!-- Node2 -->
<g id="Node000002" class="node">
<title>Node2</title>
<g id="a_Node000002"><a xlink:href="group__gp__mynnedmf_ga8a29adb739751b21ffacddb8f24ac8ab.html#ga8a29adb739751b21ffacddb8f24ac8ab" target="_top" xlink:title="This subroutine.">
<polygon fill="white" stroke="#666666" points="693.25,-191.88 513,-191.88 513,-172.62 693.25,-172.62 693.25,-191.88"/>
<text xml:space="preserve" text-anchor="middle" x="603.12" y="-178.38" font-family="Source Sans Pro" font-size="10.00">module_bl_mynn::condensation_edmf</text>
</a>
</g>
</g>
<!-- Node1&#45;&gt;Node2 -->
<g id="edge1_Node000001_Node000002" class="edge">
<title>Node1&#45;&gt;Node2</title>
<g id="a_edge1_Node000001_Node000002"><a xlink:title=" ">
<path fill="none" stroke="#63b8ff" d="M754.94,-123.21C737.55,-134.94 714.95,-148.86 693.25,-158.25 680.16,-163.92 665.4,-168.54 651.72,-172.17"/>
<polygon fill="#63b8ff" stroke="#63b8ff" points="756.52,-126.37 762.78,-117.82 752.56,-120.61 756.52,-126.37"/>
</a>
</g>
</g>
<!-- Node4 -->
<g id="Node000004" class="node">
<title>Node4</title>
<g id="a_Node000004"><a xlink:href="group__gp__mynnedmf_ga1a32198222c028ebc56fe79f6872be53.html#ga1a32198222c028ebc56fe79f6872be53" target="_top" xlink:title="This subroutine is the Dynamic Multi&#45;Plume (DMP) Mass&#45;Flux Scheme.">
<polygon fill="white" stroke="#666666" points="476.25,-153.88 345.5,-153.88 345.5,-134.62 476.25,-134.62 476.25,-153.88"/>
<text xml:space="preserve" text-anchor="middle" x="410.88" y="-140.38" font-family="Source Sans Pro" font-size="10.00">module_bl_mynn::dmp_mf</text>
</a>
</g>
</g>
<!-- Node1&#45;&gt;Node4 -->
<g id="edge7_Node000001_Node000004" class="edge">
<title>Node1&#45;&gt;Node4</title>
<g id="a_edge7_Node000001_Node000004"><a xlink:title=" ">
<path fill="none" stroke="#63b8ff" d="M721,-119.65C711.75,-121.82 702.3,-123.78 693.25,-125.25 619.55,-137.23 533.81,-141.68 476.52,-143.32"/>
<polygon fill="#63b8ff" stroke="#63b8ff" points="721.8,-123.06 730.68,-117.28 720.14,-116.26 721.8,-123.06"/>
</a>
</g>
</g>
<!-- Node7 -->
<g id="Node000007" class="node">
<title>Node7</title>
<g id="a_Node000007"><a xlink:href="namespacemodule__bl__mynn_a48e02bb6bcacd2648525aae22648c48c.html#a48e02bb6bcacd2648525aae22648c48c" target="_top" xlink:title=" ">
<polygon fill="white" stroke="#666666" points="679.75,-116.5 526.5,-116.5 526.5,-86 679.75,-86 679.75,-116.5"/>
<text xml:space="preserve" text-anchor="start" x="534.5" y="-103" font-family="Source Sans Pro" font-size="10.00">module_bl_mynn::condensation</text>
<text xml:space="preserve" text-anchor="middle" x="603.12" y="-91.75" font-family="Source Sans Pro" font-size="10.00">_edmf_r</text>
</a>
</g>
</g>
<!-- Node1&#45;&gt;Node7 -->
<g id="edge6_Node000001_Node000007" class="edge">
<title>Node1&#45;&gt;Node7</title>
<g id="a_edge6_Node000001_Node000007"><a xlink:title=" ">
<path fill="none" stroke="#63b8ff" d="M717.53,-101.25C705.32,-101.25 692.52,-101.25 680.09,-101.25"/>
<polygon fill="#63b8ff" stroke="#63b8ff" points="717.51,-104.75 727.51,-101.25 717.51,-97.75 717.51,-104.75"/>
</a>
</g>
</g>
<!-- Node8 -->
<g id="Node000008" class="node">
<title>Node8</title>
<g id="a_Node000008"><a xlink:href="group__gp__mynnedmf_ga72e450860b06f1c3b6c7a9bbb0c94ce7.html#ga72e450860b06f1c3b6c7a9bbb0c94ce7" target="_top" xlink:title="This subroutine calculates the nonconvective component of the subgrid cloud fraction and mixing ratio...">
<polygon fill="white" stroke="#666666" points="469.5,-73.5 352.25,-73.5 352.25,-43 469.5,-43 469.5,-73.5"/>
<text xml:space="preserve" text-anchor="start" x="360.25" y="-60" font-family="Source Sans Pro" font-size="10.00">module_bl_mynn::mym</text>
<text xml:space="preserve" text-anchor="middle" x="410.88" y="-48.75" font-family="Source Sans Pro" font-size="10.00">_condensation</text>
</a>
</g>
</g>
<!-- Node1&#45;&gt;Node8 -->
<g id="edge8_Node000001_Node000008" class="edge">
<title>Node1&#45;&gt;Node8</title>
<g id="a_edge8_Node000001_Node000008"><a xlink:title=" ">
<path fill="none" stroke="#63b8ff" d="M721,-82.85C711.75,-80.68 702.3,-78.72 693.25,-77.25 616.65,-64.8 527.04,-60.48 469.9,-59"/>
<polygon fill="#63b8ff" stroke="#63b8ff" points="720.14,-86.24 730.68,-85.22 721.8,-79.44 720.14,-86.24"/>
</a>
</g>
</g>
<!-- Node9 -->
<g id="Node000009" class="node">
<title>Node9</title>
<g id="a_Node000009"><a xlink:href="group__gp__mynnedmf_gabd440b7b99df6a4736c2118fd96e3fd1.html#gabd440b7b99df6a4736c2118fd96e3fd1" target="_top" xlink:title="This subroutine solves for tendencies of U, V, , qv, qc, and qi.">
<polygon fill="white" stroke="#666666" points="662.88,-30.5 543.38,-30.5 543.38,0 662.88,0 662.88,-30.5"/>
<text xml:space="preserve" text-anchor="start" x="551.38" y="-17" font-family="Source Sans Pro" font-size="10.00">module_bl_mynn::mynn</text>
<text xml:space="preserve" text-anchor="middle" x="603.12" y="-5.75" font-family="Source Sans Pro" font-size="10.00">_tendencies</text>
</a>
</g>
</g>
<!-- Node1&#45;&gt;Node9 -->
<g id="edge10_Node000001_Node000009" class="edge">
<title>Node1&#45;&gt;Node9</title>
<g id="a_edge10_Node000001_Node000009"><a xlink:title=" ">
<path fill="none" stroke="#63b8ff" d="M754.39,-79.49C737,-67.94 714.56,-54.13 693.25,-44.25 682.47,-39.25 670.6,-34.75 659.12,-30.86"/>
<polygon fill="#63b8ff" stroke="#63b8ff" points="752,-82.09 762.25,-84.78 755.92,-76.29 752,-82.09"/>
</a>
</g>
</g>
<!-- Node3 -->
<g id="Node000003" class="node">
<title>Node3</title>
<g id="a_Node000003"><a xlink:href="namespacemodule__bl__mynn_a368a8a7b0a2166fb291fd875ba771968.html#a368a8a7b0a2166fb291fd875ba771968" target="_top" xlink:title=" ">
<polygon fill="white" stroke="#666666" points="477,-191.88 344.75,-191.88 344.75,-172.62 477,-172.62 477,-191.88"/>
<text xml:space="preserve" text-anchor="middle" x="410.88" y="-178.38" font-family="Source Sans Pro" font-size="10.00">module_bl_mynn::ddmf_jpl</text>
</a>
</g>
</g>
<!-- Node2&#45;&gt;Node3 -->
<g id="edge2_Node000002_Node000003" class="edge">
<title>Node2&#45;&gt;Node3</title>
<g id="a_edge2_Node000002_Node000003"><a xlink:title=" ">
<path fill="none" stroke="#63b8ff" d="M501.17,-182.25C493.11,-182.25 485.11,-182.25 477.4,-182.25"/>
<polygon fill="#63b8ff" stroke="#63b8ff" points="501.06,-185.75 511.06,-182.25 501.06,-178.75 501.06,-185.75"/>
</a>
</g>
</g>
<!-- Node2&#45;&gt;Node4 -->
<g id="edge3_Node000002_Node000004" class="edge">
<title>Node2&#45;&gt;Node4</title>
<g id="a_edge3_Node000002_Node000004"><a xlink:title=" ">
<path fill="none" stroke="#63b8ff" d="M540.66,-169.97C515.32,-164.91 486.32,-159.12 462.26,-154.31"/>
<polygon fill="#63b8ff" stroke="#63b8ff" points="539.66,-173.34 550.16,-171.87 541.04,-166.48 539.66,-173.34"/>
</a>
</g>
</g>
<!-- Node5 -->
<g id="Node000005" class="node">
<title>Node5</title>
<g id="a_Node000005"><a xlink:href="group__gp__mynnedmf_ga727e10ec7e7a73d34a7f50dadbda2b83.html#ga727e10ec7e7a73d34a7f50dadbda2b83" target="_top" xlink:title="This subroutine is the MYNN&#45;EDNF PBL driver routine,which encompassed the majority of the subroutines...">
<polygon fill="white" stroke="#666666" points="308.75,-73.5 189.25,-73.5 189.25,-43 308.75,-43 308.75,-73.5"/>
<text xml:space="preserve" text-anchor="start" x="197.25" y="-60" font-family="Source Sans Pro" font-size="10.00">module_bl_mynn::mynn</text>
<text xml:space="preserve" text-anchor="middle" x="249" y="-48.75" font-family="Source Sans Pro" font-size="10.00">_bl_driver</text>
</a>
</g>
</g>
<!-- Node4&#45;&gt;Node5 -->
<g id="edge4_Node000004_Node000005" class="edge">
<title>Node4&#45;&gt;Node5</title>
<g id="a_edge4_Node000004_Node000005"><a xlink:title=" ">
<path fill="none" stroke="#63b8ff" d="M381.35,-128.91C352.5,-113.39 308.12,-89.51 279.07,-73.89"/>
<polygon fill="#63b8ff" stroke="#63b8ff" points="379.42,-131.84 389.89,-133.5 382.74,-125.68 379.42,-131.84"/>
</a>
</g>
</g>
<!-- Node6 -->
<g id="Node000006" class="node">
<title>Node6</title>
<g id="a_Node000006"><a xlink:href="namespacemynnedmf__wrapper_aa6a54f8cc283d97e9c1d299ce2be79d3.html#aa6a54f8cc283d97e9c1d299ce2be79d3" target="_top" xlink:title=" ">
<polygon fill="white" stroke="#666666" points="153.25,-73.5 0,-73.5 0,-43 153.25,-43 153.25,-73.5"/>
<text xml:space="preserve" text-anchor="start" x="8" y="-60" font-family="Source Sans Pro" font-size="10.00">mynnedmf_wrapper::mynnedmf</text>
<text xml:space="preserve" text-anchor="middle" x="76.62" y="-48.75" font-family="Source Sans Pro" font-size="10.00">_wrapper_run</text>
</a>
</g>
</g>
<!-- Node5&#45;&gt;Node6 -->
<g id="edge5_Node000005_Node000006" class="edge">
<title>Node5&#45;&gt;Node6</title>
<g id="a_edge5_Node000005_Node000006"><a xlink:title=" ">
<path fill="none" stroke="#63b8ff" d="M177.54,-58.25C169.68,-58.25 161.66,-58.25 153.74,-58.25"/>
<polygon fill="#63b8ff" stroke="#63b8ff" points="177.38,-61.75 187.38,-58.25 177.38,-54.75 177.38,-61.75"/>
</a>
</g>
</g>
<!-- Node8&#45;&gt;Node5 -->
<g id="edge9_Node000008_Node000005" class="edge">
<title>Node8&#45;&gt;Node5</title>
<g id="a_edge9_Node000008_Node000005"><a xlink:title=" ">
<path fill="none" stroke="#63b8ff" d="M340.87,-58.25C330.33,-58.25 319.54,-58.25 309.25,-58.25"/>
<polygon fill="#63b8ff" stroke="#63b8ff" points="340.64,-61.75 350.64,-58.25 340.64,-54.75 340.64,-61.75"/>
</a>
</g>
</g>
<!-- Node9&#45;&gt;Node5 -->
<g id="edge11_Node000009_Node000005" class="edge">
<title>Node9&#45;&gt;Node5</title>
<g id="a_edge11_Node000009_Node000005"><a xlink:title=" ">
<path fill="none" stroke="#63b8ff" d="M531.58,-17.14C479.64,-19.34 407.45,-24.07 344.75,-34.25 331.85,-36.34 318.14,-39.35 305.27,-42.53"/>
<polygon fill="#63b8ff" stroke="#63b8ff" points="531.64,-20.65 541.49,-16.75 531.36,-13.65 531.64,-20.65"/>
</a>
</g>
</g>
</g>
</svg>
