<?xml version="1.0" encoding="UTF-8" standalone="no"?>
<!DOCTYPE svg PUBLIC "-//W3C//DTD SVG 1.1//EN"
 "http://www.w3.org/Graphics/SVG/1.1/DTD/svg11.dtd">
<!-- Generated by graphviz version 14.1.2 (20260124.0452)
 -->
<!-- Title: module_mp_thompson::gammln Pages: 1 -->
<svg width="942pt" height="124pt"
 viewBox="0.00 0.00 942.00 124.00" xmlns="http://www.w3.org/2000/svg" xmlns:xlink="http://www.w3.org/1999/xlink">
<g id="graph0" class="graph" transform="scale(1 1) rotate(0) translate(4 119.5)">
<title>module_mp_thompson::gammln</title>
<!-- Node1 -->
<g id="Node000001" class="node">
<title>Node1</title>
<g id="a_Node000001"><a xlink:title="Returns the value ln(gamma(xx)) for xx &gt; 0.">
<polygon fill="#999999" stroke="#666666" points="933.75,-73.5 819.5,-73.5 819.5,-43 933.75,-43 933.75,-73.5"/>
<text xml:space="preserve" text-anchor="start" x="827.5" y="-60" font-family="Source Sans Pro" font-size="10.00">module_mp_thompson</text>
<text xml:space="preserve" text-anchor="middle" x="876.62" y="-48.75" font-family="Source Sans Pro" font-size="10.00">::gammln</text>
</a>
</g>
</g>
<!-- Node1&#45;&gt;Node1 -->
<g id="edge1_Node000001_Node000001" class="edge">
<title>Node1&#45;&gt;Node1</title>
<g id="a_edge1_Node000001_Node000001"><a xlink:title=" ">
<path fill="none" stroke="#63b8ff" d="M903.46,-85.2C899.07,-88.97 890.13,-91.5 876.62,-91.5 851.94,-91.5 842.49,-83.06 848.27,-73.99"/>
<polygon fill="#63b8ff" stroke="#63b8ff" points="906.9,-85.87 904.77,-75.49 899.96,-84.93 906.9,-85.87"/>
</a>
</g>
</g>
<!-- Node2 -->
<g id="Node000002" class="node">
<title>Node2</title>
<g id="a_Node000002"><a xlink:href="group__aathompson_ga409e17891d433b3214f570828a824255.html#ga409e17891d433b3214f570828a824255" target="_top" xlink:title="Returns the incomplete gamma function q(a,x) evaluated by its continued fraction representation as ga...">
<polygon fill="white" stroke="#666666" points="783.5,-110.88 649.75,-110.88 649.75,-91.62 783.5,-91.62 783.5,-110.88"/>
<text xml:space="preserve" text-anchor="middle" x="716.62" y="-97.38" font-family="Source Sans Pro" font-size="10.00">module_mp_thompson::gcf</text>
</a>
</g>
</g>
<!-- Node1&#45;&gt;Node2 -->
<g id="edge2_Node000001_Node000002" class="edge">
<title>Node1&#45;&gt;Node2</title>
<g id="a_edge2_Node000001_Node000002"><a xlink:title=" ">
<path fill="none" stroke="#63b8ff" d="M808.06,-76.64C789.73,-81.63 770.56,-86.84 754.61,-91.19"/>
<polygon fill="#63b8ff" stroke="#63b8ff" points="808.84,-80.05 817.57,-74.05 807,-73.3 808.84,-80.05"/>
</a>
</g>
</g>
<!-- Node7 -->
<g id="Node000007" class="node">
<title>Node7</title>
<g id="a_Node000007"><a xlink:href="group__aathompson_ga28690a3c274459f6eb11ab59d0ae5a44.html#ga28690a3c274459f6eb11ab59d0ae5a44" target="_top" xlink:title="Returns the incomplete gamma function p(a,x) evaluated by its series representation as gamser.">
<polygon fill="white" stroke="#666666" points="773.75,-73.5 659.5,-73.5 659.5,-43 773.75,-43 773.75,-73.5"/>
<text xml:space="preserve" text-anchor="start" x="667.5" y="-60" font-family="Source Sans Pro" font-size="10.00">module_mp_thompson</text>
<text xml:space="preserve" text-anchor="middle" x="716.62" y="-48.75" font-family="Source Sans Pro" font-size="10.00">::gser</text>
</a>
</g>
</g>
<!-- Node1&#45;&gt;Node7 -->
<g id="edge8_Node000001_Node000007" class="edge">
<title>Node1&#45;&gt;Node7</title>
<g id="a_edge8_Node000001_Node000007"><a xlink:title=" ">
<path fill="none" stroke="#63b8ff" d="M807.55,-58.25C796.39,-58.25 784.93,-58.25 774.09,-58.25"/>
<polygon fill="#63b8ff" stroke="#63b8ff" points="807.52,-61.75 817.52,-58.25 807.52,-54.75 807.52,-61.75"/>
</a>
</g>
</g>
<!-- Node8 -->
<g id="Node000008" class="node">
<title>Node8</title>
<g id="a_Node000008"><a xlink:href="group__aathompson_ga8a455cb4e751f42fa53a31bb47649767.html#ga8a455cb4e751f42fa53a31bb47649767" target="_top" xlink:title=" ">
<polygon fill="white" stroke="#666666" points="613.75,-30.5 499.5,-30.5 499.5,0 613.75,0 613.75,-30.5"/>
<text xml:space="preserve" text-anchor="start" x="507.5" y="-17" font-family="Source Sans Pro" font-size="10.00">module_mp_thompson</text>
<text xml:space="preserve" text-anchor="middle" x="556.62" y="-5.75" font-family="Source Sans Pro" font-size="10.00">::wgamma</text>
</a>
</g>
</g>
<!-- Node1&#45;&gt;Node8 -->
<g id="edge10_Node000001_Node000008" class="edge">
<title>Node1&#45;&gt;Node8</title>
<g id="a_edge10_Node000001_Node000008"><a xlink:title=" ">
<path fill="none" stroke="#63b8ff" d="M810.87,-39.9C801.73,-37.75 792.42,-35.78 783.5,-34.25 726.29,-24.46 660.02,-19.65 614.12,-17.32"/>
<polygon fill="#63b8ff" stroke="#63b8ff" points="809.87,-43.26 820.42,-42.24 811.54,-36.46 809.87,-43.26"/>
</a>
</g>
</g>
<!-- Node3 -->
<g id="Node000003" class="node">
<title>Node3</title>
<g id="a_Node000003"><a xlink:href="group__aathompson_ga5126f9b7d52cd4d3e7b072907abb4257.html#ga5126f9b7d52cd4d3e7b072907abb4257" target="_top" xlink:title=" ">
<polygon fill="white" stroke="#666666" points="613.75,-97.5 499.5,-97.5 499.5,-67 613.75,-67 613.75,-97.5"/>
<text xml:space="preserve" text-anchor="start" x="507.5" y="-84" font-family="Source Sans Pro" font-size="10.00">module_mp_thompson</text>
<text xml:space="preserve" text-anchor="middle" x="556.62" y="-72.75" font-family="Source Sans Pro" font-size="10.00">::gammp</text>
</a>
</g>
</g>
<!-- Node2&#45;&gt;Node3 -->
<g id="edge3_Node000002_Node000003" class="edge">
<title>Node2&#45;&gt;Node3</title>
<g id="a_edge3_Node000002_Node000003"><a xlink:title=" ">
<path fill="none" stroke="#63b8ff" d="M638.35,-91.96C630.12,-90.97 621.86,-89.97 613.93,-89.02"/>
<polygon fill="#63b8ff" stroke="#63b8ff" points="637.69,-95.4 648.03,-93.12 638.52,-88.45 637.69,-95.4"/>
</a>
</g>
</g>
<!-- Node3&#45;&gt;Node3 -->
<g id="edge4_Node000003_Node000003" class="edge">
<title>Node3&#45;&gt;Node3</title>
<g id="a_edge4_Node000003_Node000003"><a xlink:title=" ">
<path fill="none" stroke="#63b8ff" d="M581.82,-109.2C577.7,-112.97 569.3,-115.5 556.62,-115.5 533.44,-115.5 524.57,-107.06 530,-97.99"/>
<polygon fill="#63b8ff" stroke="#63b8ff" points="585.27,-109.85 583.06,-99.49 578.32,-108.97 585.27,-109.85"/>
</a>
</g>
</g>
<!-- Node4 -->
<g id="Node000004" class="node">
<title>Node4</title>
<g id="a_Node000004"><a xlink:href="group__aathompson_ga38c4bc57c8dd450c76cc65b1991cf23d.html#ga38c4bc57c8dd450c76cc65b1991cf23d" target="_top" xlink:title="Cloud ice converting to snow since portion greater than min snow size. Given cloud ice content (kg/m*...">
<polygon fill="white" stroke="#666666" points="463.5,-91.5 349.25,-91.5 349.25,-61 463.5,-61 463.5,-91.5"/>
<text xml:space="preserve" text-anchor="start" x="357.25" y="-78" font-family="Source Sans Pro" font-size="10.00">module_mp_thompson</text>
<text xml:space="preserve" text-anchor="middle" x="406.38" y="-66.75" font-family="Source Sans Pro" font-size="10.00">::qi_aut_qs</text>
</a>
</g>
</g>
<!-- Node3&#45;&gt;Node4 -->
<g id="edge5_Node000003_Node000004" class="edge">
<title>Node3&#45;&gt;Node4</title>
<g id="a_edge5_Node000003_Node000004"><a xlink:title=" ">
<path fill="none" stroke="#63b8ff" d="M487.84,-79.51C479.76,-79.18 471.58,-78.85 463.69,-78.53"/>
<polygon fill="#63b8ff" stroke="#63b8ff" points="487.51,-83 497.64,-79.9 487.79,-76 487.51,-83"/>
</a>
</g>
</g>
<!-- Node5 -->
<g id="Node000005" class="node">
<title>Node5</title>
<g id="a_Node000005"><a xlink:href="group__aathompson_ga913721b93920f568db16540ff0dac1e9.html#ga913721b93920f568db16540ff0dac1e9" target="_top" xlink:title="This subroutine calculates simplified cloud species equations and create lookup tables in Thomspson s...">
<polygon fill="white" stroke="#666666" points="313.25,-63.5 199,-63.5 199,-33 313.25,-33 313.25,-63.5"/>
<text xml:space="preserve" text-anchor="start" x="207" y="-50" font-family="Source Sans Pro" font-size="10.00">module_mp_thompson</text>
<text xml:space="preserve" text-anchor="middle" x="256.12" y="-38.75" font-family="Source Sans Pro" font-size="10.00">::thompson_init</text>
</a>
</g>
</g>
<!-- Node4&#45;&gt;Node5 -->
<g id="edge6_Node000004_Node000005" class="edge">
<title>Node4&#45;&gt;Node5</title>
<g id="a_edge6_Node000004_Node000005"><a xlink:title=" ">
<path fill="none" stroke="#63b8ff" d="M337.87,-63.5C329.7,-61.96 321.42,-60.39 313.44,-58.89"/>
<polygon fill="#63b8ff" stroke="#63b8ff" points="336.94,-66.89 347.42,-65.3 338.24,-60.01 336.94,-66.89"/>
</a>
</g>
</g>
<!-- Node6 -->
<g id="Node000006" class="node">
<title>Node6</title>
<g id="a_Node000006"><a xlink:href="namespacemp__thompson_abcad8fa6c118cf2ac1922e451d7ae174.html#abcad8fa6c118cf2ac1922e451d7ae174" target="_top" xlink:title="This subroutine is a wrapper around the actual thompson_init().">
<polygon fill="white" stroke="#666666" points="163,-57.88 0,-57.88 0,-38.62 163,-38.62 163,-57.88"/>
<text xml:space="preserve" text-anchor="middle" x="81.5" y="-44.38" font-family="Source Sans Pro" font-size="10.00">mp_thompson::mp_thompson_init</text>
</a>
</g>
</g>
<!-- Node5&#45;&gt;Node6 -->
<g id="edge7_Node000005_Node000006" class="edge">
<title>Node5&#45;&gt;Node6</title>
<g id="a_edge7_Node000005_Node000006"><a xlink:title=" ">
<path fill="none" stroke="#63b8ff" d="M187.25,-48.25C179.38,-48.25 171.29,-48.25 163.26,-48.25"/>
<polygon fill="#63b8ff" stroke="#63b8ff" points="187.09,-51.75 197.09,-48.25 187.09,-44.75 187.09,-51.75"/>
</a>
</g>
</g>
<!-- Node7&#45;&gt;Node3 -->
<g id="edge9_Node000007_Node000003" class="edge">
<title>Node7&#45;&gt;Node3</title>
<g id="a_edge9_Node000007_Node000003"><a xlink:title=" ">
<path fill="none" stroke="#63b8ff" d="M647.9,-68.54C636.63,-70.25 625.04,-72.01 614.09,-73.67"/>
<polygon fill="#63b8ff" stroke="#63b8ff" points="648.17,-72.04 657.53,-67.07 647.12,-65.12 648.17,-72.04"/>
</a>
</g>
</g>
<!-- Node8&#45;&gt;Node5 -->
<g id="edge11_Node000008_Node000005" class="edge">
<title>Node8&#45;&gt;Node5</title>
<g id="a_edge11_Node000008_Node000005"><a xlink:title=" ">
<path fill="none" stroke="#63b8ff" d="M487.88,-22.74C435.27,-28.56 363.17,-36.53 313.64,-42"/>
<polygon fill="#63b8ff" stroke="#63b8ff" points="488.07,-26.24 497.62,-21.66 487.3,-19.28 488.07,-26.24"/>
</a>
</g>
</g>
<!-- Node8&#45;&gt;Node8 -->
<g id="edge12_Node000008_Node000008" class="edge">
<title>Node8&#45;&gt;Node8</title>
<g id="a_edge12_Node000008_Node000008"><a xlink:title=" ">
<path fill="none" stroke="#63b8ff" d="M581.82,-42.2C577.7,-45.97 569.3,-48.5 556.62,-48.5 533.44,-48.5 524.57,-40.06 530,-30.99"/>
<polygon fill="#63b8ff" stroke="#63b8ff" points="585.27,-42.85 583.06,-32.49 578.32,-41.97 585.27,-42.85"/>
</a>
</g>
</g>
</g>
</svg>
