<?xml version="1.0" encoding="UTF-8" standalone="no"?>
<!DOCTYPE svg PUBLIC "-//W3C//DTD SVG 1.1//EN"
 "http://www.w3.org/Graphics/SVG/1.1/DTD/svg11.dtd">
<!-- Generated by graphviz version 14.1.2 (20260124.0452)
 -->
<!-- Title: module_mp_nssl_2mom::sediment1d Pages: 1 -->
<svg width="603pt" height="186pt"
 viewBox="0.00 0.00 603.00 186.00" xmlns="http://www.w3.org/2000/svg" xmlns:xlink="http://www.w3.org/1999/xlink">
<g id="graph0" class="graph" transform="scale(1 1) rotate(0) translate(4 181.5)">
<title>module_mp_nssl_2mom::sediment1d</title>
<!-- Node1 -->
<g id="Node000001" class="node">
<title>Node1</title>
<g id="a_Node000001"><a xlink:title="Sedimentation driver subroutine. Calls fallout column by column.">
<polygon fill="#999999" stroke="#666666" points="121.75,-103.5 0,-103.5 0,-73 121.75,-73 121.75,-103.5"/>
<text xml:space="preserve" text-anchor="start" x="8" y="-90" font-family="Source Sans Pro" font-size="10.00">module_mp_nssl_2mom</text>
<text xml:space="preserve" text-anchor="middle" x="60.88" y="-78.75" font-family="Source Sans Pro" font-size="10.00">::sediment1d</text>
</a>
</g>
</g>
<!-- Node2 -->
<g id="Node000002" class="node">
<title>Node2</title>
<g id="a_Node000002"><a xlink:href="group__mod__nsslmp_ga0cb30e0249d14d780428d4d9bd829003.html#ga0cb30e0249d14d780428d4d9bd829003" target="_top" xlink:title="Subroutine to correct number concentration to prevent reflectivity growth.">
<polygon fill="white" stroke="#666666" points="279.5,-177.5 157.75,-177.5 157.75,-147 279.5,-147 279.5,-177.5"/>
<text xml:space="preserve" text-anchor="start" x="165.75" y="-164" font-family="Source Sans Pro" font-size="10.00">module_mp_nssl_2mom</text>
<text xml:space="preserve" text-anchor="middle" x="218.62" y="-152.75" font-family="Source Sans Pro" font-size="10.00">::calcnfromz1d</text>
</a>
</g>
</g>
<!-- Node1&#45;&gt;Node2 -->
<g id="edge1_Node000001_Node000002" class="edge">
<title>Node1&#45;&gt;Node2</title>
<g id="a_edge1_Node000001_Node000002"><a xlink:title=" ">
<path fill="none" stroke="#63b8ff" d="M90.96,-103.85C109.82,-113.79 135.02,-126.72 157.75,-137.25 161.23,-138.86 164.84,-140.49 168.49,-142.09"/>
<polygon fill="#63b8ff" stroke="#63b8ff" points="166.83,-145.19 177.39,-145.94 169.6,-138.76 166.83,-145.19"/>
</a>
</g>
</g>
<!-- Node3 -->
<g id="Node000003" class="node">
<title>Node3</title>
<g id="a_Node000003"><a xlink:href="group__mod__nsslmp_ga416d221e65719addcd9254cf20e3c0eb.html#ga416d221e65719addcd9254cf20e3c0eb" target="_top" xlink:title="Calculates temporary reflectivity moment for adaptive size&#45;sorting limiter.">
<polygon fill="white" stroke="#666666" points="279.5,-128.5 157.75,-128.5 157.75,-98 279.5,-98 279.5,-128.5"/>
<text xml:space="preserve" text-anchor="start" x="165.75" y="-115" font-family="Source Sans Pro" font-size="10.00">module_mp_nssl_2mom</text>
<text xml:space="preserve" text-anchor="middle" x="218.62" y="-103.75" font-family="Source Sans Pro" font-size="10.00">::calczgr1d</text>
</a>
</g>
</g>
<!-- Node1&#45;&gt;Node3 -->
<g id="edge2_Node000001_Node000003" class="edge">
<title>Node1&#45;&gt;Node3</title>
<g id="a_edge2_Node000001_Node000003"><a xlink:title=" ">
<path fill="none" stroke="#63b8ff" d="M122.09,-97.92C129.95,-99.18 138.05,-100.48 146.07,-101.76"/>
<polygon fill="#63b8ff" stroke="#63b8ff" points="145.39,-105.2 155.82,-103.33 146.5,-98.29 145.39,-105.2"/>
</a>
</g>
</g>
<!-- Node4 -->
<g id="Node000004" class="node">
<title>Node4</title>
<g id="a_Node000004"><a xlink:href="group__mod__nsslmp_gae621d5fefce44abf9ff804cb6d0c5913.html#gae621d5fefce44abf9ff804cb6d0c5913" target="_top" xlink:title="Column sedimentation fallout subroutine.">
<polygon fill="white" stroke="#666666" points="279.5,-79.5 157.75,-79.5 157.75,-49 279.5,-49 279.5,-79.5"/>
<text xml:space="preserve" text-anchor="start" x="165.75" y="-66" font-family="Source Sans Pro" font-size="10.00">module_mp_nssl_2mom</text>
<text xml:space="preserve" text-anchor="middle" x="218.62" y="-54.75" font-family="Source Sans Pro" font-size="10.00">::fallout1d</text>
</a>
</g>
</g>
<!-- Node1&#45;&gt;Node4 -->
<g id="edge3_Node000001_Node000004" class="edge">
<title>Node1&#45;&gt;Node4</title>
<g id="a_edge3_Node000001_Node000004"><a xlink:title=" ">
<path fill="none" stroke="#63b8ff" d="M122.09,-78.97C129.95,-77.76 138.05,-76.51 146.07,-75.28"/>
<polygon fill="#63b8ff" stroke="#63b8ff" points="146.47,-78.76 155.82,-73.77 145.4,-71.84 146.47,-78.76"/>
</a>
</g>
</g>
<!-- Node5 -->
<g id="Node000005" class="node">
<title>Node5</title>
<g id="a_Node000005"><a xlink:href="group__mod__nsslmp_ga4ea70fd73f9b7e8dd2472e073f46ca5c.html#ga4ea70fd73f9b7e8dd2472e073f46ca5c" target="_top" xlink:title="Column&#45;wise front end to setvtz for sedimentation.">
<polygon fill="white" stroke="#666666" points="279.5,-30.5 157.75,-30.5 157.75,0 279.5,0 279.5,-30.5"/>
<text xml:space="preserve" text-anchor="start" x="165.75" y="-17" font-family="Source Sans Pro" font-size="10.00">module_mp_nssl_2mom</text>
<text xml:space="preserve" text-anchor="middle" x="218.62" y="-5.75" font-family="Source Sans Pro" font-size="10.00">::ziegfall1d</text>
</a>
</g>
</g>
<!-- Node1&#45;&gt;Node5 -->
<g id="edge4_Node000001_Node000005" class="edge">
<title>Node1&#45;&gt;Node5</title>
<g id="a_edge4_Node000001_Node000005"><a xlink:title=" ">
<path fill="none" stroke="#63b8ff" d="M91.84,-72.58C110.62,-62.93 135.41,-50.49 157.75,-40.25 161.29,-38.63 164.96,-36.99 168.67,-35.37"/>
<polygon fill="#63b8ff" stroke="#63b8ff" points="169.93,-38.63 177.74,-31.46 167.17,-32.2 169.93,-38.63"/>
</a>
</g>
</g>
<!-- Node6 -->
<g id="Node000006" class="node">
<title>Node6</title>
<g id="a_Node000006"><a xlink:href="group__mod__nsslmp_ga9df936b176c8bb5adfa0a7fee691e57c.html#ga9df936b176c8bb5adfa0a7fee691e57c" target="_top" xlink:title="Mean hydrometeor size and fall speed calculations.">
<polygon fill="white" stroke="#666666" points="437.25,-30.5 315.5,-30.5 315.5,0 437.25,0 437.25,-30.5"/>
<text xml:space="preserve" text-anchor="start" x="323.5" y="-17" font-family="Source Sans Pro" font-size="10.00">module_mp_nssl_2mom</text>
<text xml:space="preserve" text-anchor="middle" x="376.38" y="-5.75" font-family="Source Sans Pro" font-size="10.00">::setvtz</text>
</a>
</g>
</g>
<!-- Node5&#45;&gt;Node6 -->
<g id="edge5_Node000005_Node000006" class="edge">
<title>Node5&#45;&gt;Node6</title>
<g id="a_edge5_Node000005_Node000006"><a xlink:title=" ">
<path fill="none" stroke="#63b8ff" d="M279.84,-15.25C287.7,-15.25 295.8,-15.25 303.82,-15.25"/>
<polygon fill="#63b8ff" stroke="#63b8ff" points="303.55,-18.75 313.55,-15.25 303.55,-11.75 303.55,-18.75"/>
</a>
</g>
</g>
<!-- Node7 -->
<g id="Node000007" class="node">
<title>Node7</title>
<g id="a_Node000007"><a xlink:href="group__mod__nsslmp_ga966c94b788d8e8958fff525003f48fd9.html#ga966c94b788d8e8958fff525003f48fd9" target="_top" xlink:title="Single&#45;precision complete gamma function.">
<polygon fill="white" stroke="#666666" points="595,-30.5 473.25,-30.5 473.25,0 595,0 595,-30.5"/>
<text xml:space="preserve" text-anchor="start" x="481.25" y="-17" font-family="Source Sans Pro" font-size="10.00">module_mp_nssl_2mom</text>
<text xml:space="preserve" text-anchor="middle" x="534.12" y="-5.75" font-family="Source Sans Pro" font-size="10.00">::gamma_sp</text>
</a>
</g>
</g>
<!-- Node6&#45;&gt;Node7 -->
<g id="edge6_Node000006_Node000007" class="edge">
<title>Node6&#45;&gt;Node7</title>
<g id="a_edge6_Node000006_Node000007"><a xlink:title=" ">
<path fill="none" stroke="#63b8ff" d="M437.59,-15.25C445.45,-15.25 453.55,-15.25 461.57,-15.25"/>
<polygon fill="#63b8ff" stroke="#63b8ff" points="461.3,-18.75 471.3,-15.25 461.3,-11.75 461.3,-18.75"/>
</a>
</g>
</g>
<!-- Node7&#45;&gt;Node7 -->
<g id="edge7_Node000007_Node000007" class="edge">
<title>Node7&#45;&gt;Node7</title>
<g id="a_edge7_Node000007_Node000007"><a xlink:title=" ">
<path fill="none" stroke="#63b8ff" d="M506.17,-30.99C500.47,-40.06 509.78,-48.5 534.12,-48.5 547.44,-48.5 556.25,-45.97 560.58,-42.2"/>
<polygon fill="#63b8ff" stroke="#63b8ff" points="564.02,-42.86 561.88,-32.49 557.08,-41.93 564.02,-42.86"/>
</a>
</g>
</g>
</g>
</svg>
