<?xml version="1.0" encoding="UTF-8" standalone="no"?>
<!DOCTYPE svg PUBLIC "-//W3C//DTD SVG 1.1//EN"
 "http://www.w3.org/Graphics/SVG/1.1/DTD/svg11.dtd">
<!-- Generated by graphviz version 14.1.2 (20260124.0452)
 -->
<!-- Title: module_mp_thompson::gammp Pages: 1 -->
<svg width="442pt" height="78pt"
 viewBox="0.00 0.00 442.00 78.00" xmlns="http://www.w3.org/2000/svg" xmlns:xlink="http://www.w3.org/1999/xlink">
<g id="graph0" class="graph" transform="scale(1 1) rotate(0) translate(4 73.5)">
<title>module_mp_thompson::gammp</title>
<!-- Node1 -->
<g id="Node000001" class="node">
<title>Node1</title>
<g id="a_Node000001"><a xlink:title=" ">
<polygon fill="#999999" stroke="#666666" points="114.25,-51.5 0,-51.5 0,-21 114.25,-21 114.25,-51.5"/>
<text xml:space="preserve" text-anchor="start" x="8" y="-38" font-family="Source Sans Pro" font-size="10.00">module_mp_thompson</text>
<text xml:space="preserve" text-anchor="middle" x="57.12" y="-26.75" font-family="Source Sans Pro" font-size="10.00">::gammp</text>
</a>
</g>
</g>
<!-- Node1&#45;&gt;Node1 -->
<g id="edge1_Node000001_Node000001" class="edge">
<title>Node1&#45;&gt;Node1</title>
<g id="a_edge1_Node000001_Node000001"><a xlink:title=" ">
<path fill="none" stroke="#63b8ff" d="M28.77,-51.99C22.99,-61.06 32.44,-69.5 57.12,-69.5 70.63,-69.5 79.57,-66.97 83.96,-63.2"/>
<polygon fill="#63b8ff" stroke="#63b8ff" points="87.4,-63.87 85.27,-53.49 80.46,-62.93 87.4,-63.87"/>
</a>
</g>
</g>
<!-- Node2 -->
<g id="Node000002" class="node">
<title>Node2</title>
<g id="a_Node000002"><a xlink:href="group__aathompson_ga409e17891d433b3214f570828a824255.html#ga409e17891d433b3214f570828a824255" target="_top" xlink:title="Returns the incomplete gamma function q(a,x) evaluated by its continued fraction representation as ga...">
<polygon fill="white" stroke="#666666" points="284,-67.88 150.25,-67.88 150.25,-48.62 284,-48.62 284,-67.88"/>
<text xml:space="preserve" text-anchor="middle" x="217.12" y="-54.38" font-family="Source Sans Pro" font-size="10.00">module_mp_thompson::gcf</text>
</a>
</g>
</g>
<!-- Node1&#45;&gt;Node2 -->
<g id="edge2_Node000001_Node000002" class="edge">
<title>Node1&#45;&gt;Node2</title>
<g id="a_edge2_Node000001_Node000002"><a xlink:title=" ">
<path fill="none" stroke="#63b8ff" d="M114.72,-44.13C122.48,-45.21 130.56,-46.34 138.62,-47.46"/>
<polygon fill="#63b8ff" stroke="#63b8ff" points="138.08,-50.92 148.46,-48.83 139.04,-43.98 138.08,-50.92"/>
</a>
</g>
</g>
<!-- Node4 -->
<g id="Node000004" class="node">
<title>Node4</title>
<g id="a_Node000004"><a xlink:href="group__aathompson_ga28690a3c274459f6eb11ab59d0ae5a44.html#ga28690a3c274459f6eb11ab59d0ae5a44" target="_top" xlink:title="Returns the incomplete gamma function p(a,x) evaluated by its series representation as gamser.">
<polygon fill="white" stroke="#666666" points="274.25,-30.5 160,-30.5 160,0 274.25,0 274.25,-30.5"/>
<text xml:space="preserve" text-anchor="start" x="168" y="-17" font-family="Source Sans Pro" font-size="10.00">module_mp_thompson</text>
<text xml:space="preserve" text-anchor="middle" x="217.12" y="-5.75" font-family="Source Sans Pro" font-size="10.00">::gser</text>
</a>
</g>
</g>
<!-- Node1&#45;&gt;Node4 -->
<g id="edge5_Node000001_Node000004" class="edge">
<title>Node1&#45;&gt;Node4</title>
<g id="a_edge5_Node000001_Node000004"><a xlink:title=" ">
<path fill="none" stroke="#63b8ff" d="M114.72,-28.73C125.68,-27.27 137.26,-25.73 148.53,-24.23"/>
<polygon fill="#63b8ff" stroke="#63b8ff" points="148.71,-27.74 158.16,-22.95 147.79,-20.8 148.71,-27.74"/>
</a>
</g>
</g>
<!-- Node3 -->
<g id="Node000003" class="node">
<title>Node3</title>
<g id="a_Node000003"><a xlink:href="group__aathompson_gad2946a6deeab8b049fcd554d930f35c9.html#gad2946a6deeab8b049fcd554d930f35c9" target="_top" xlink:title="Returns the value ln(gamma(xx)) for xx &gt; 0.">
<polygon fill="white" stroke="#666666" points="434.25,-51.5 320,-51.5 320,-21 434.25,-21 434.25,-51.5"/>
<text xml:space="preserve" text-anchor="start" x="328" y="-38" font-family="Source Sans Pro" font-size="10.00">module_mp_thompson</text>
<text xml:space="preserve" text-anchor="middle" x="377.12" y="-26.75" font-family="Source Sans Pro" font-size="10.00">::gammln</text>
</a>
</g>
</g>
<!-- Node2&#45;&gt;Node3 -->
<g id="edge3_Node000002_Node000003" class="edge">
<title>Node2&#45;&gt;Node3</title>
<g id="a_edge3_Node000002_Node000003"><a xlink:title=" ">
<path fill="none" stroke="#63b8ff" d="M284.22,-49.05C292.26,-47.93 300.49,-46.78 308.56,-45.66"/>
<polygon fill="#63b8ff" stroke="#63b8ff" points="308.9,-49.14 318.32,-44.3 307.94,-42.21 308.9,-49.14"/>
</a>
</g>
</g>
<!-- Node3&#45;&gt;Node3 -->
<g id="edge4_Node000003_Node000003" class="edge">
<title>Node3&#45;&gt;Node3</title>
<g id="a_edge4_Node000003_Node000003"><a xlink:title=" ">
<path fill="none" stroke="#63b8ff" d="M348.77,-51.99C342.99,-61.06 352.44,-69.5 377.12,-69.5 390.63,-69.5 399.57,-66.97 403.96,-63.2"/>
<polygon fill="#63b8ff" stroke="#63b8ff" points="407.4,-63.87 405.27,-53.49 400.46,-62.93 407.4,-63.87"/>
</a>
</g>
</g>
<!-- Node4&#45;&gt;Node3 -->
<g id="edge6_Node000004_Node000003" class="edge">
<title>Node4&#45;&gt;Node3</title>
<g id="a_edge6_Node000004_Node000003"><a xlink:title=" ">
<path fill="none" stroke="#63b8ff" d="M274.72,-22.77C285.68,-24.23 297.26,-25.77 308.53,-27.27"/>
<polygon fill="#63b8ff" stroke="#63b8ff" points="307.79,-30.7 318.16,-28.55 308.71,-23.76 307.79,-30.7"/>
</a>
</g>
</g>
</g>
</svg>
