<?xml version="1.0" encoding="UTF-8" standalone="no"?>
<!DOCTYPE svg PUBLIC "-//W3C//DTD SVG 1.1//EN"
 "http://www.w3.org/Graphics/SVG/1.1/DTD/svg11.dtd">
<!-- Generated by graphviz version 14.1.2 (20260124.0452)
 -->
<!-- Title: snopac Pages: 1 -->
<svg width="460pt" height="249pt"
 viewBox="0.00 0.00 460.00 249.00" xmlns="http://www.w3.org/2000/svg" xmlns:xlink="http://www.w3.org/1999/xlink">
<g id="graph0" class="graph" transform="scale(1 1) rotate(0) translate(4 245.25)">
<title>snopac</title>
<!-- Node1 -->
<g id="Node000001" class="node">
<title>Node1</title>
<g id="a_Node000001"><a xlink:title="This subroutine calculates soil moisture and heat flux values and update soil moisture content and so...">
<polygon fill="#999999" stroke="#666666" points="47.5,-93.25 0,-93.25 0,-74 47.5,-74 47.5,-93.25"/>
<text xml:space="preserve" text-anchor="middle" x="23.75" y="-79.75" font-family="Source Sans Pro" font-size="10.00">snopac</text>
</a>
</g>
</g>
<!-- Node2 -->
<g id="Node000002" class="node">
<title>Node2</title>
<g id="a_Node000002"><a xlink:href="group___noah___l_s_m_ga4af741ecc120ddb0d7282f78df4136a5.html#ga4af741ecc120ddb0d7282f78df4136a5" target="_top" xlink:title="This subroutine calculates soil moisture flux. The soil moisture content (smc &#45; a per unit volume mea...">
<polygon fill="white" stroke="#666666" points="134.75,-204.25 92.5,-204.25 92.5,-185 134.75,-185 134.75,-204.25"/>
<text xml:space="preserve" text-anchor="middle" x="113.62" y="-190.75" font-family="Source Sans Pro" font-size="10.00">evapo</text>
</a>
</g>
</g>
<!-- Node1&#45;&gt;Node2 -->
<g id="edge1_Node000001_Node000002" class="edge">
<title>Node1&#45;&gt;Node2</title>
<g id="a_edge1_Node000001_Node000002"><a xlink:title=" ">
<path fill="none" stroke="#63b8ff" d="M32.55,-93.48C47.17,-111.94 78.91,-152.04 97.75,-175.83"/>
<polygon fill="#63b8ff" stroke="#63b8ff" points="94.83,-177.78 103.78,-183.45 100.32,-173.44 94.83,-177.78"/>
</a>
</g>
</g>
<!-- Node5 -->
<g id="Node000005" class="node">
<title>Node5</title>
<g id="a_Node000005"><a xlink:href="group___noah___l_s_m_ga977daabf4ff68b28fc5ccd8796d815cd.html#ga977daabf4ff68b28fc5ccd8796d815cd" target="_top" xlink:title="This subroutine updates the temperature state of the soil column based on the thermal diffusion equat...">
<polygon fill="white" stroke="#666666" points="132.12,-112.25 95.12,-112.25 95.12,-93 132.12,-93 132.12,-112.25"/>
<text xml:space="preserve" text-anchor="middle" x="113.62" y="-98.75" font-family="Source Sans Pro" font-size="10.00">shflx</text>
</a>
</g>
</g>
<!-- Node1&#45;&gt;Node5 -->
<g id="edge4_Node000001_Node000005" class="edge">
<title>Node1&#45;&gt;Node5</title>
<g id="a_edge4_Node000001_Node000005"><a xlink:title=" ">
<path fill="none" stroke="#63b8ff" d="M47.84,-88.62C58.82,-90.99 72.07,-93.86 83.71,-96.37"/>
<polygon fill="#63b8ff" stroke="#63b8ff" points="82.69,-99.73 93.2,-98.43 84.17,-92.89 82.69,-99.73"/>
</a>
</g>
</g>
<!-- Node16 -->
<g id="Node000016" class="node">
<title>Node16</title>
<g id="a_Node000016"><a xlink:href="group___noah___l_s_m_gafa3e5637e56746e2539ef2567836defa.html#gafa3e5637e56746e2539ef2567836defa" target="_top" xlink:title="This subroutine calculates soil moisture flux. The soil moisture content (smc &#45; a per unit vulume mea...">
<polygon fill="white" stroke="#666666" points="133.62,-65.25 93.62,-65.25 93.62,-46 133.62,-46 133.62,-65.25"/>
<text xml:space="preserve" text-anchor="middle" x="113.62" y="-51.75" font-family="Source Sans Pro" font-size="10.00">smflx</text>
</a>
</g>
</g>
<!-- Node1&#45;&gt;Node16 -->
<g id="edge15_Node000001_Node000016" class="edge">
<title>Node1&#45;&gt;Node16</title>
<g id="a_edge15_Node000001_Node000016"><a xlink:title=" ">
<path fill="none" stroke="#63b8ff" d="M47.84,-76.27C58.44,-72.89 71.15,-68.84 82.5,-65.23"/>
<polygon fill="#63b8ff" stroke="#63b8ff" points="83.35,-68.63 91.81,-62.26 81.22,-61.96 83.35,-68.63"/>
</a>
</g>
</g>
<!-- Node20 -->
<g id="Node000020" class="node">
<title>Node20</title>
<g id="a_Node000020"><a xlink:href="group___noah___l_s_m_gab5149f309f4e291435f75dd63d4a97ac.html#gab5149f309f4e291435f75dd63d4a97ac" target="_top" xlink:title="This subroutine calculates compaction of a snowpack under conditions of increasing snow density,...">
<polygon fill="white" stroke="#666666" points="143.75,-28.25 83.5,-28.25 83.5,-9 143.75,-9 143.75,-28.25"/>
<text xml:space="preserve" text-anchor="middle" x="113.62" y="-14.75" font-family="Source Sans Pro" font-size="10.00">snowpack</text>
</a>
</g>
</g>
<!-- Node1&#45;&gt;Node20 -->
<g id="edge20_Node000001_Node000020" class="edge">
<title>Node1&#45;&gt;Node20</title>
<g id="a_edge20_Node000001_Node000020"><a xlink:title=" ">
<path fill="none" stroke="#63b8ff" d="M36.13,-73.83C47.74,-64.02 66.42,-48.67 83.5,-36.62 84.35,-36.03 85.22,-35.42 86.1,-34.82"/>
<polygon fill="#63b8ff" stroke="#63b8ff" points="88.01,-37.76 94.5,-29.39 84.2,-31.89 88.01,-37.76"/>
</a>
</g>
</g>
<!-- Node3 -->
<g id="Node000003" class="node">
<title>Node3</title>
<g id="a_Node000003"><a xlink:href="group___noah___l_s_m_gabf8ee2c002871d95bc356e2058f49a92.html#gabf8ee2c002871d95bc356e2058f49a92" target="_top" xlink:title="This subrtouine calculates direct soil evaporation.">
<polygon fill="white" stroke="#666666" points="222.38,-241.25 180.12,-241.25 180.12,-222 222.38,-222 222.38,-241.25"/>
<text xml:space="preserve" text-anchor="middle" x="201.25" y="-227.75" font-family="Source Sans Pro" font-size="10.00">devap</text>
</a>
</g>
</g>
<!-- Node2&#45;&gt;Node3 -->
<g id="edge2_Node000002_Node000003" class="edge">
<title>Node2&#45;&gt;Node3</title>
<g id="a_edge2_Node000002_Node000003"><a xlink:title=" ">
<path fill="none" stroke="#63b8ff" d="M134.92,-203.39C145.19,-207.83 157.87,-213.31 169.32,-218.26"/>
<polygon fill="#63b8ff" stroke="#63b8ff" points="167.85,-221.44 178.42,-222.19 170.63,-215.01 167.85,-221.44"/>
</a>
</g>
</g>
<!-- Node4 -->
<g id="Node000004" class="node">
<title>Node4</title>
<g id="a_Node000004"><a xlink:href="group___noah___l_s_m_ga4bf7fbbf861a5c232da14ca6b74cdd4f.html#ga4bf7fbbf861a5c232da14ca6b74cdd4f" target="_top" xlink:title="This subroutine calculates transpiration for the veg class.">
<polygon fill="white" stroke="#666666" points="222.75,-204.25 179.75,-204.25 179.75,-185 222.75,-185 222.75,-204.25"/>
<text xml:space="preserve" text-anchor="middle" x="201.25" y="-190.75" font-family="Source Sans Pro" font-size="10.00">transp</text>
</a>
</g>
</g>
<!-- Node2&#45;&gt;Node4 -->
<g id="edge3_Node000002_Node000004" class="edge">
<title>Node2&#45;&gt;Node4</title>
<g id="a_edge3_Node000002_Node000004"><a xlink:title=" ">
<path fill="none" stroke="#63b8ff" d="M134.92,-194.62C144.8,-194.62 156.91,-194.62 168.01,-194.62"/>
<polygon fill="#63b8ff" stroke="#63b8ff" points="168,-198.13 178,-194.63 168,-191.13 168,-198.13"/>
</a>
</g>
</g>
<!-- Node6 -->
<g id="Node000006" class="node">
<title>Node6</title>
<g id="a_Node000006"><a xlink:href="group___noah___l_s_m_gabb602c2b09396e2f94c9556259f5bae4.html#gabb602c2b09396e2f94c9556259f5bae4" target="_top" xlink:title="This subroutine calculates the right hand side of the time tendency term of the soil thermal diffusio...">
<polygon fill="white" stroke="#666666" points="215.65,-167.25 186.85,-167.25 186.85,-148 215.65,-148 215.65,-167.25"/>
<text xml:space="preserve" text-anchor="middle" x="201.25" y="-153.75" font-family="Source Sans Pro" font-size="10.00">hrt</text>
</a>
</g>
</g>
<!-- Node5&#45;&gt;Node6 -->
<g id="edge5_Node000005_Node000006" class="edge">
<title>Node5&#45;&gt;Node6</title>
<g id="a_edge5_Node000005_Node000006"><a xlink:title=" ">
<path fill="none" stroke="#63b8ff" d="M130.33,-112.71C143.43,-121.13 162.29,-133.24 177.12,-142.77"/>
<polygon fill="#63b8ff" stroke="#63b8ff" points="175.04,-145.59 185.35,-148.05 178.82,-139.7 175.04,-145.59"/>
</a>
</g>
</g>
<!-- Node13 -->
<g id="Node000013" class="node">
<title>Node13</title>
<g id="a_Node000013"><a xlink:href="group___noah___l_s_m_ga32e89df3740f968f500900125ae9633d.html#ga32e89df3740f968f500900125ae9633d" target="_top" xlink:title="This subroutine calculates the right hand side of the time tendency term of the soil thermal diffusio...">
<polygon fill="white" stroke="#666666" points="221.25,-130.25 181.25,-130.25 181.25,-111 221.25,-111 221.25,-130.25"/>
<text xml:space="preserve" text-anchor="middle" x="201.25" y="-116.75" font-family="Source Sans Pro" font-size="10.00">hrtice</text>
</a>
</g>
</g>
<!-- Node5&#45;&gt;Node13 -->
<g id="edge12_Node000005_Node000013" class="edge">
<title>Node5&#45;&gt;Node13</title>
<g id="a_edge12_Node000005_Node000013"><a xlink:title=" ">
<path fill="none" stroke="#63b8ff" d="M132.37,-106.35C143.24,-108.64 157.45,-111.63 170.06,-114.28"/>
<polygon fill="#63b8ff" stroke="#63b8ff" points="169.06,-117.64 179.56,-116.28 170.5,-110.79 169.06,-117.64"/>
</a>
</g>
</g>
<!-- Node14 -->
<g id="Node000014" class="node">
<title>Node14</title>
<g id="a_Node000014"><a xlink:href="group___noah___l_s_m_gacb79bab20ee25c57918575949c15de73.html#gacb79bab20ee25c57918575949c15de73" target="_top" xlink:title="This subroutine calculates/updates the soil temperature field.">
<polygon fill="white" stroke="#666666" points="221.25,-93.25 181.25,-93.25 181.25,-74 221.25,-74 221.25,-93.25"/>
<text xml:space="preserve" text-anchor="middle" x="201.25" y="-79.75" font-family="Source Sans Pro" font-size="10.00">hstep</text>
</a>
</g>
</g>
<!-- Node5&#45;&gt;Node14 -->
<g id="edge13_Node000005_Node000014" class="edge">
<title>Node5&#45;&gt;Node14</title>
<g id="a_edge13_Node000005_Node000014"><a xlink:title=" ">
<path fill="none" stroke="#63b8ff" d="M132.37,-98.69C143.24,-96.27 157.45,-93.12 170.06,-90.32"/>
<polygon fill="#63b8ff" stroke="#63b8ff" points="170.56,-93.8 179.56,-88.22 169.04,-86.96 170.56,-93.8"/>
</a>
</g>
</g>
<!-- Node7 -->
<g id="Node000007" class="node">
<title>Node7</title>
<g id="a_Node000007"><a xlink:href="group___noah___l_s_m_ga1b241897d00ec3d66eabe9e959d0ce04.html#ga1b241897d00ec3d66eabe9e959d0ce04" target="_top" xlink:title="This subroutine calculates sink/source term of the termal diffusion equation.">
<polygon fill="white" stroke="#666666" points="305.5,-231.25 260.25,-231.25 260.25,-212 305.5,-212 305.5,-231.25"/>
<text xml:space="preserve" text-anchor="middle" x="282.88" y="-217.75" font-family="Source Sans Pro" font-size="10.00">snksrc</text>
</a>
</g>
</g>
<!-- Node6&#45;&gt;Node7 -->
<g id="edge6_Node000006_Node000007" class="edge">
<title>Node6&#45;&gt;Node7</title>
<g id="a_edge6_Node000006_Node000007"><a xlink:title=" ">
<path fill="none" stroke="#63b8ff" d="M214.31,-167.57C225.71,-176.94 243.31,-191.33 258.75,-203.62 259.27,-204.04 259.8,-204.46 260.34,-204.89"/>
<polygon fill="#63b8ff" stroke="#63b8ff" points="257.89,-207.42 267.92,-210.84 262.22,-201.91 257.89,-207.42"/>
</a>
</g>
</g>
<!-- Node10 -->
<g id="Node000010" class="node">
<title>Node10</title>
<g id="a_Node000010"><a xlink:href="group___noah___l_s_m_ga8e248a6da8d1fd3c2e64b76f3bfbea50.html#ga8e248a6da8d1fd3c2e64b76f3bfbea50" target="_top" xlink:title="This subroutine calculates temperature on the boundary of the layer by interpolation of the middle la...">
<polygon fill="white" stroke="#666666" points="300.25,-194.25 265.5,-194.25 265.5,-175 300.25,-175 300.25,-194.25"/>
<text xml:space="preserve" text-anchor="middle" x="282.88" y="-180.75" font-family="Source Sans Pro" font-size="10.00">tbnd</text>
</a>
</g>
</g>
<!-- Node6&#45;&gt;Node10 -->
<g id="edge9_Node000006_Node000010" class="edge">
<title>Node6&#45;&gt;Node10</title>
<g id="a_edge9_Node000006_Node000010"><a xlink:title=" ">
<path fill="none" stroke="#63b8ff" d="M216.12,-162.33C226.66,-165.9 241.51,-170.94 254.43,-175.32"/>
<polygon fill="#63b8ff" stroke="#63b8ff" points="253.1,-178.56 263.7,-178.46 255.35,-171.93 253.1,-178.56"/>
</a>
</g>
</g>
<!-- Node11 -->
<g id="Node000011" class="node">
<title>Node11</title>
<g id="a_Node000011"><a xlink:href="group___noah___l_s_m_ga8bc3154096e6364c5fcddf884c003bef.html#ga8bc3154096e6364c5fcddf884c003bef" target="_top" xlink:title="This subroutine calculates thermal diffusivity and conductivity of the soil for a given point and tim...">
<polygon fill="white" stroke="#666666" points="304.38,-157.25 261.38,-157.25 261.38,-138 304.38,-138 304.38,-157.25"/>
<text xml:space="preserve" text-anchor="middle" x="282.88" y="-143.75" font-family="Source Sans Pro" font-size="10.00">tdfcnd</text>
</a>
</g>
</g>
<!-- Node6&#45;&gt;Node11 -->
<g id="edge10_Node000006_Node000011" class="edge">
<title>Node6&#45;&gt;Node11</title>
<g id="a_edge10_Node000006_Node000011"><a xlink:title=" ">
<path fill="none" stroke="#63b8ff" d="M216.12,-155.88C225.41,-154.72 238.04,-153.13 249.74,-151.66"/>
<polygon fill="#63b8ff" stroke="#63b8ff" points="250,-155.16 259.49,-150.44 249.13,-148.21 250,-155.16"/>
</a>
</g>
</g>
<!-- Node12 -->
<g id="Node000012" class="node">
<title>Node12</title>
<g id="a_Node000012"><a xlink:href="group___noah___l_s_m_gae50411efeb11ddeb8a0c53010745a95c.html#gae50411efeb11ddeb8a0c53010745a95c" target="_top" xlink:title="This subroutine calculates soil layer average temperature (tavg) in freezing/thawing layer using up,...">
<polygon fill="white" stroke="#666666" points="307,-120.25 258.75,-120.25 258.75,-101 307,-101 307,-120.25"/>
<text xml:space="preserve" text-anchor="middle" x="282.88" y="-106.75" font-family="Source Sans Pro" font-size="10.00">tmpavg</text>
</a>
</g>
</g>
<!-- Node6&#45;&gt;Node12 -->
<g id="edge11_Node000006_Node000012" class="edge">
<title>Node6&#45;&gt;Node12</title>
<g id="a_edge11_Node000006_Node000012"><a xlink:title=" ">
<path fill="none" stroke="#63b8ff" d="M216.12,-149.44C226.81,-143.13 241.91,-134.21 254.95,-126.52"/>
<polygon fill="#63b8ff" stroke="#63b8ff" points="256.71,-129.55 263.54,-121.45 253.15,-123.52 256.71,-129.55"/>
</a>
</g>
</g>
<!-- Node8 -->
<g id="Node000008" class="node">
<title>Node8</title>
<g id="a_Node000008"><a xlink:href="group___noah___l_s_m_ga7c0e713811400259a984b2153834e70c.html#ga7c0e713811400259a984b2153834e70c" target="_top" xlink:title="This subroutine calculates amount of supercooled liquid soil water content if temperature is below 27...">
<polygon fill="white" stroke="#666666" points="380.75,-231.25 343,-231.25 343,-212 380.75,-212 380.75,-231.25"/>
<text xml:space="preserve" text-anchor="middle" x="361.88" y="-217.75" font-family="Source Sans Pro" font-size="10.00">frh2o</text>
</a>
</g>
</g>
<!-- Node7&#45;&gt;Node8 -->
<g id="edge7_Node000007_Node000008" class="edge">
<title>Node7&#45;&gt;Node8</title>
<g id="a_edge7_Node000007_Node000008"><a xlink:title=" ">
<path fill="none" stroke="#63b8ff" d="M305.73,-221.62C313.65,-221.62 322.73,-221.62 331.21,-221.62"/>
<polygon fill="#63b8ff" stroke="#63b8ff" points="331.09,-225.13 341.09,-221.63 331.09,-218.13 331.09,-225.13"/>
</a>
</g>
</g>
<!-- Node9 -->
<g id="Node000009" class="node">
<title>Node9</title>
<g id="a_Node000009"><a xlink:href="group___noah_m_p___l_s_m_gace27cd3a7b4e23955e39e33bd344baae.html#gace27cd3a7b4e23955e39e33bd344baae" target="_top" xlink:title="check surface energy balance and water balance.">
<polygon fill="white" stroke="#666666" points="452.25,-231.25 416.75,-231.25 416.75,-212 452.25,-212 452.25,-231.25"/>
<text xml:space="preserve" text-anchor="middle" x="434.5" y="-217.75" font-family="Source Sans Pro" font-size="10.00">error</text>
</a>
</g>
</g>
<!-- Node8&#45;&gt;Node9 -->
<g id="edge8_Node000008_Node000009" class="edge">
<title>Node8&#45;&gt;Node9</title>
<g id="a_edge8_Node000008_Node000009"><a xlink:title=" ">
<path fill="none" stroke="#63b8ff" d="M381.06,-221.62C388.42,-221.62 397.09,-221.62 405.24,-221.62"/>
<polygon fill="#63b8ff" stroke="#63b8ff" points="405.07,-225.13 415.07,-221.63 405.07,-218.13 405.07,-225.13"/>
</a>
</g>
</g>
<!-- Node15 -->
<g id="Node000015" class="node">
<title>Node15</title>
<g id="a_Node000015"><a xlink:href="group___noah___l_s_m_ga3d7dabe1147278de865aa4691d5b2de0.html#ga3d7dabe1147278de865aa4691d5b2de0" target="_top" xlink:title="This subroutine inverts (solve) the tri&#45;diagonal matrix problem.">
<polygon fill="white" stroke="#666666" points="304.38,-74.25 261.38,-74.25 261.38,-55 304.38,-55 304.38,-74.25"/>
<text xml:space="preserve" text-anchor="middle" x="282.88" y="-60.75" font-family="Source Sans Pro" font-size="10.00">rosr12</text>
</a>
</g>
</g>
<!-- Node14&#45;&gt;Node15 -->
<g id="edge14_Node000014_Node000015" class="edge">
<title>Node14&#45;&gt;Node15</title>
<g id="a_edge14_Node000014_Node000015"><a xlink:title=" ">
<path fill="none" stroke="#63b8ff" d="M221.52,-79.03C230.13,-76.97 240.49,-74.5 250.18,-72.19"/>
<polygon fill="#63b8ff" stroke="#63b8ff" points="250.72,-75.66 259.63,-69.93 249.09,-68.85 250.72,-75.66"/>
</a>
</g>
</g>
<!-- Node17 -->
<g id="Node000017" class="node">
<title>Node17</title>
<g id="a_Node000017"><a xlink:href="group___noah___l_s_m_gaf59c85cce3b10eaa0ffeb366de9d5304.html#gaf59c85cce3b10eaa0ffeb366de9d5304" target="_top" xlink:title="This subroutine calculates the right hand side of the time tendency term of the soil water diffusion ...">
<polygon fill="white" stroke="#666666" points="215.65,-19.25 186.85,-19.25 186.85,0 215.65,0 215.65,-19.25"/>
<text xml:space="preserve" text-anchor="middle" x="201.25" y="-5.75" font-family="Source Sans Pro" font-size="10.00">srt</text>
</a>
</g>
</g>
<!-- Node16&#45;&gt;Node17 -->
<g id="edge16_Node000016_Node000017" class="edge">
<title>Node16&#45;&gt;Node17</title>
<g id="a_edge16_Node000016_Node000017"><a xlink:title=" ">
<path fill="none" stroke="#63b8ff" d="M133.2,-45.64C145.86,-38.85 162.72,-29.79 176.37,-22.46"/>
<polygon fill="#63b8ff" stroke="#63b8ff" points="178,-25.55 185.15,-17.74 174.68,-19.39 178,-25.55"/>
</a>
</g>
</g>
<!-- Node19 -->
<g id="Node000019" class="node">
<title>Node19</title>
<g id="a_Node000019"><a xlink:href="group___noah___l_s_m_ga22b00b15c1b261126ec2d15719cb3aa4.html#ga22b00b15c1b261126ec2d15719cb3aa4" target="_top" xlink:title="This subroutine calculates/updates soil moisture content values and canopy moisture content values.">
<polygon fill="white" stroke="#666666" points="221.25,-56.25 181.25,-56.25 181.25,-37 221.25,-37 221.25,-56.25"/>
<text xml:space="preserve" text-anchor="middle" x="201.25" y="-42.75" font-family="Source Sans Pro" font-size="10.00">sstep</text>
</a>
</g>
</g>
<!-- Node16&#45;&gt;Node19 -->
<g id="edge18_Node000016_Node000019" class="edge">
<title>Node16&#45;&gt;Node19</title>
<g id="a_edge18_Node000016_Node000019"><a xlink:title=" ">
<path fill="none" stroke="#63b8ff" d="M134.05,-53.58C144.56,-52.48 157.79,-51.09 169.64,-49.84"/>
<polygon fill="#63b8ff" stroke="#63b8ff" points="169.81,-53.34 179.39,-48.82 169.08,-46.38 169.81,-53.34"/>
</a>
</g>
</g>
<!-- Node18 -->
<g id="Node000018" class="node">
<title>Node18</title>
<g id="a_Node000018"><a xlink:href="group___noah___l_s_m_gabfc5ae94c847aa3351345e0e924302a1.html#gabfc5ae94c847aa3351345e0e924302a1" target="_top" xlink:title="This subroutine calculates soil water diffusivity and soil hydraulic conductivity.">
<polygon fill="white" stroke="#666666" points="306.62,-19.25 259.12,-19.25 259.12,0 306.62,0 306.62,-19.25"/>
<text xml:space="preserve" text-anchor="middle" x="282.88" y="-5.75" font-family="Source Sans Pro" font-size="10.00">wdfcnd</text>
</a>
</g>
</g>
<!-- Node17&#45;&gt;Node18 -->
<g id="edge17_Node000017_Node000018" class="edge">
<title>Node17&#45;&gt;Node18</title>
<g id="a_edge17_Node000017_Node000018"><a xlink:title=" ">
<path fill="none" stroke="#63b8ff" d="M216.12,-9.62C224.85,-9.62 236.53,-9.62 247.62,-9.62"/>
<polygon fill="#63b8ff" stroke="#63b8ff" points="247.3,-13.13 257.3,-9.63 247.3,-6.13 247.3,-13.13"/>
</a>
</g>
</g>
<!-- Node19&#45;&gt;Node15 -->
<g id="edge19_Node000019_Node000015" class="edge">
<title>Node19&#45;&gt;Node15</title>
<g id="a_edge19_Node000019_Node000015"><a xlink:title=" ">
<path fill="none" stroke="#63b8ff" d="M221.52,-50.98C230.13,-52.93 240.49,-55.27 250.18,-57.46"/>
<polygon fill="#63b8ff" stroke="#63b8ff" points="249.1,-60.8 259.63,-59.6 250.65,-53.98 249.1,-60.8"/>
</a>
</g>
</g>
</g>
</svg>
