<?xml version="1.0" encoding="UTF-8" standalone="no"?>
<!DOCTYPE svg PUBLIC "-//W3C//DTD SVG 1.1//EN"
 "http://www.w3.org/Graphics/SVG/1.1/DTD/svg11.dtd">
<!-- Generated by graphviz version 14.1.2 (20260124.0452)
 -->
<!-- Title: noahmp_glacier_routines::energy_glacier Pages: 1 -->
<!--zoomable 419 -->

<svg id="main" version="1.1" xmlns="http://www.w3.org/2000/svg" xmlns:xlink="http://www.w3.org/1999/xlink" xml:space="preserve" onload="init(evt)">

<style type="text/css"><![CDATA[
.node, .edge {opacity: 0.7;}
.node.selected, .edge.selected {opacity: 1;}
.edge:hover path { stroke: red; }
.edge:hover polygon { stroke: red; fill: red; }
]]></style>

<defs>
  <circle id="rim" cx="0" cy="0" r="7"/>
  <circle id="rim2" cx="0" cy="0" r="3.5"/>
  <g id="zoomPlus">
    <use xlink:href="#rim" fill="#404040"><set attributeName="fill" to="#808080" begin="zoomplus.mouseover" end="zoomplus.mouseout"/></use>
    <path d="M-4,0h8M0,-4v8" fill="none" stroke="white" stroke-width="1.5" pointer-events="none"/>
  </g>
  <g id="zoomMin">
    <use xlink:href="#rim" fill="#404040"><set attributeName="fill" to="#808080" begin="zoomminus.mouseover" end="zoomminus.mouseout"/></use>
    <path d="M-4,0h8" fill="none" stroke="white" stroke-width="1.5" pointer-events="none"/>
  </g>
  <g id="arrowUp" transform="translate(30 24)">
    <use xlink:href="#rim"/>
    <path pointer-events="none" fill="none" stroke="white" stroke-width="1.5" d="M0,-3.0v7 M-2.5,-0.5L0,-3.0L2.5,-0.5"/>
  </g>
  <g id="arrowRight" transform="rotate(90) translate(36 -43)">
    <use xlink:href="#rim"/>
    <path pointer-events="none" fill="none" stroke="white" stroke-width="1.5" d="M0,-3.0v7 M-2.5,-0.5L0,-3.0L2.5,-0.5"/>
  </g>
  <g id="arrowDown" transform="rotate(180) translate(-30 -48)">
    <use xlink:href="#rim"/>
    <path pointer-events="none" fill="none" stroke="white" stroke-width="1.5" d="M0,-3.0v7 M-2.5,-0.5L0,-3.0L2.5,-0.5"/>
  </g>
  <g id="arrowLeft" transform="rotate(270) translate(-36 17)">
    <use xlink:href="#rim"/>
    <path pointer-events="none" fill="none" stroke="white" stroke-width="1.5" d="M0,-3.0v7 M-2.5,-0.5L0,-3.0L2.5,-0.5"/>
  </g>
  <g id="resetDef">
    <use xlink:href="#rim2" fill="#404040"><set attributeName="fill" to="#808080" begin="reset.mouseover" end="reset.mouseout"/></use>
  </g>
</defs>
<script type="application/ecmascript">
var viewWidth = 612;
var viewHeight = 419;
var sectionId = 'dynsection-0';
</script>
<script type="application/ecmascript" xlink:href="svg.min.js"/>
<svg id="graph" class="graph">
<g id="viewport">
<title>noahmp_glacier_routines::energy_glacier</title>
<!-- Node1 -->
<g id="Node000001" class="node">
<title>Node1</title>
<g id="a_Node000001"><a xlink:title="Compute energy budget (momentum &amp; energy fluxes and phase changes).">
<polygon fill="#999999" stroke="#666666" points="124,-201.5 0,-201.5 0,-171 124,-171 124,-201.5"/>
<text xml:space="preserve" text-anchor="start" x="8" y="-188" font-family="Source Sans Pro" font-size="10.00">noahmp_glacier_routines</text>
<text xml:space="preserve" text-anchor="middle" x="62" y="-176.75" font-family="Source Sans Pro" font-size="10.00">::energy_glacier</text>
</a>
</g>
</g>
<!-- Node2 -->
<g id="Node000002" class="node">
<title>Node2</title>
<g id="a_Node000002"><a xlink:href="group___noah_m_p___l_s_m_gaf512c10513f75c077220936b2ca74c42.html#gaf512c10513f75c077220936b2ca74c42" target="_top" xlink:title="use newton&#45;raphson iteration to solve ground (tg) temperature that balances the surface energy budget...">
<polygon fill="white" stroke="#666666" points="284,-339.5 160,-339.5 160,-309 284,-309 284,-339.5"/>
<text xml:space="preserve" text-anchor="start" x="168" y="-326" font-family="Source Sans Pro" font-size="10.00">noahmp_glacier_routines</text>
<text xml:space="preserve" text-anchor="middle" x="222" y="-314.75" font-family="Source Sans Pro" font-size="10.00">::glacier_flux</text>
</a>
</g>
</g>
<!-- Node1&#45;&gt;Node2 -->
<g id="edge1_Node000001_Node000002" class="edge">
<title>Node1&#45;&gt;Node2</title>
<g id="a_edge1_Node000001_Node000002"><a xlink:title=" ">
<path fill="none" stroke="#63b8ff" d="M80.82,-201.81C108.55,-226.04 162.22,-272.91 194.51,-301.11"/>
<polygon fill="#63b8ff" stroke="#63b8ff" points="192.03,-303.6 201.87,-307.54 196.64,-298.32 192.03,-303.6"/>
</a>
</g>
</g>
<!-- Node11 -->
<g id="Node000011" class="node">
<title>Node11</title>
<g id="a_Node000011"><a xlink:href="group___noah_m_p___l_s_m_ga827b1816e6e9afd09680b5d7fa3b010e.html#ga827b1816e6e9afd09680b5d7fa3b010e" target="_top" xlink:title=" ">
<polygon fill="white" stroke="#666666" points="284,-250.5 160,-250.5 160,-220 284,-220 284,-250.5"/>
<text xml:space="preserve" text-anchor="start" x="168" y="-237" font-family="Source Sans Pro" font-size="10.00">noahmp_glacier_routines</text>
<text xml:space="preserve" text-anchor="middle" x="222" y="-225.75" font-family="Source Sans Pro" font-size="10.00">::phasechange_glacier</text>
</a>
</g>
</g>
<!-- Node1&#45;&gt;Node11 -->
<g id="edge10_Node000001_Node000011" class="edge">
<title>Node1&#45;&gt;Node11</title>
<g id="a_edge10_Node000001_Node000011"><a xlink:title=" ">
<path fill="none" stroke="#63b8ff" d="M113.43,-201.89C128.03,-206.42 144.15,-211.42 159.36,-216.13"/>
<polygon fill="#63b8ff" stroke="#63b8ff" points="158.21,-219.44 168.79,-219.06 160.28,-212.75 158.21,-219.44"/>
</a>
</g>
</g>
<!-- Node12 -->
<g id="Node000012" class="node">
<title>Node12</title>
<g id="a_Node000012"><a xlink:href="group___noah_m_p___l_s_m_ga7ad0f73530d119a7f827a4aaa8a9b393.html#ga7ad0f73530d119a7f827a4aaa8a9b393" target="_top" xlink:title="Compute solar radiation: absorbed &amp; reflected by the ground.">
<polygon fill="white" stroke="#666666" points="284,-201.5 160,-201.5 160,-171 284,-171 284,-201.5"/>
<text xml:space="preserve" text-anchor="start" x="168" y="-188" font-family="Source Sans Pro" font-size="10.00">noahmp_glacier_routines</text>
<text xml:space="preserve" text-anchor="middle" x="222" y="-176.75" font-family="Source Sans Pro" font-size="10.00">::radiation_glacier</text>
</a>
</g>
</g>
<!-- Node1&#45;&gt;Node12 -->
<g id="edge11_Node000001_Node000012" class="edge">
<title>Node1&#45;&gt;Node12</title>
<g id="a_edge11_Node000001_Node000012"><a xlink:title=" ">
<path fill="none" stroke="#63b8ff" d="M124.09,-186.25C132,-186.25 140.16,-186.25 148.23,-186.25"/>
<polygon fill="#63b8ff" stroke="#63b8ff" points="148.04,-189.75 158.04,-186.25 148.04,-182.75 148.04,-189.75"/>
</a>
</g>
</g>
<!-- Node16 -->
<g id="Node000016" class="node">
<title>Node16</title>
<g id="a_Node000016"><a xlink:href="group___noah_m_p___l_s_m_ga2282179d290ca1b1610198040782accb.html#ga2282179d290ca1b1610198040782accb" target="_top" xlink:title="calculate thermal properties of soil, snow, lake, and frozen soil.">
<polygon fill="white" stroke="#666666" points="284,-128.5 160,-128.5 160,-98 284,-98 284,-128.5"/>
<text xml:space="preserve" text-anchor="start" x="168" y="-115" font-family="Source Sans Pro" font-size="10.00">noahmp_glacier_routines</text>
<text xml:space="preserve" text-anchor="middle" x="222" y="-103.75" font-family="Source Sans Pro" font-size="10.00">::thermoprop_glacier</text>
</a>
</g>
</g>
<!-- Node1&#45;&gt;Node16 -->
<g id="edge15_Node000001_Node000016" class="edge">
<title>Node1&#45;&gt;Node16</title>
<g id="a_edge15_Node000001_Node000016"><a xlink:title=" ">
<path fill="none" stroke="#63b8ff" d="M96.89,-170.59C120.22,-159.81 151.44,-145.39 176.73,-133.71"/>
<polygon fill="#63b8ff" stroke="#63b8ff" points="178.18,-136.89 185.79,-129.52 175.24,-130.54 178.18,-136.89"/>
</a>
</g>
</g>
<!-- Node18 -->
<g id="Node000018" class="node">
<title>Node18</title>
<g id="a_Node000018"><a xlink:href="group___noah_m_p___l_s_m_ga476f265b4772bd2ad7825e02a29e32cd.html#ga476f265b4772bd2ad7825e02a29e32cd" target="_top" xlink:title=" ">
<polygon fill="white" stroke="#666666" points="284,-79.5 160,-79.5 160,-49 284,-49 284,-79.5"/>
<text xml:space="preserve" text-anchor="start" x="168" y="-66" font-family="Source Sans Pro" font-size="10.00">noahmp_glacier_routines</text>
<text xml:space="preserve" text-anchor="middle" x="222" y="-54.75" font-family="Source Sans Pro" font-size="10.00">::tsnosoi_glacier</text>
</a>
</g>
</g>
<!-- Node1&#45;&gt;Node18 -->
<g id="edge17_Node000001_Node000018" class="edge">
<title>Node1&#45;&gt;Node18</title>
<g id="a_edge17_Node000001_Node000018"><a xlink:title=" ">
<path fill="none" stroke="#63b8ff" d="M75.27,-170.56C92.34,-149.61 125.1,-112.47 160,-89.25 162.09,-87.86 164.27,-86.52 166.51,-85.24"/>
<polygon fill="#63b8ff" stroke="#63b8ff" points="168.01,-88.41 175.27,-80.69 164.78,-82.2 168.01,-88.41"/>
</a>
</g>
</g>
<!-- Node3 -->
<g id="Node000003" class="node">
<title>Node3</title>
<g id="a_Node000003"><a xlink:href="group___noah_m_p___l_s_m_ga198a78cba7dcb5d138ee9f2896b932ff.html#ga198a78cba7dcb5d138ee9f2896b932ff" target="_top" xlink:title=" ">
<polygon fill="white" stroke="#666666" points="444,-410.5 320,-410.5 320,-380 444,-380 444,-410.5"/>
<text xml:space="preserve" text-anchor="start" x="328" y="-397" font-family="Source Sans Pro" font-size="10.00">noahmp_glacier_routines</text>
<text xml:space="preserve" text-anchor="middle" x="382" y="-385.75" font-family="Source Sans Pro" font-size="10.00">::esat</text>
</a>
</g>
</g>
<!-- Node2&#45;&gt;Node3 -->
<g id="edge2_Node000002_Node000003" class="edge">
<title>Node2&#45;&gt;Node3</title>
<g id="a_edge2_Node000002_Node000003"><a xlink:title=" ">
<path fill="none" stroke="#63b8ff" d="M254.69,-339.81C273.55,-348.93 298.01,-360.54 320,-370.25 323.73,-371.9 327.6,-373.57 331.5,-375.23"/>
<polygon fill="#63b8ff" stroke="#63b8ff" points="329.85,-378.33 340.42,-378.97 332.56,-371.87 329.85,-378.33"/>
</a>
</g>
</g>
<!-- Node4 -->
<g id="Node000004" class="node">
<title>Node4</title>
<g id="a_Node000004"><a xlink:href="group___noah_m_p___l_s_m_ga3233db40fc83f01063964817c22944ac.html#ga3233db40fc83f01063964817c22944ac" target="_top" xlink:title="compute surface drag coefficient cm for momentum and ch for heat">
<polygon fill="white" stroke="#666666" points="444,-361.5 320,-361.5 320,-331 444,-331 444,-361.5"/>
<text xml:space="preserve" text-anchor="start" x="328" y="-348" font-family="Source Sans Pro" font-size="10.00">noahmp_glacier_routines</text>
<text xml:space="preserve" text-anchor="middle" x="382" y="-336.75" font-family="Source Sans Pro" font-size="10.00">::sfcdif1_glacier</text>
</a>
</g>
</g>
<!-- Node2&#45;&gt;Node4 -->
<g id="edge3_Node000002_Node000004" class="edge">
<title>Node2&#45;&gt;Node4</title>
<g id="a_edge3_Node000002_Node000004"><a xlink:title=" ">
<path fill="none" stroke="#63b8ff" d="M284.09,-332.76C292,-333.86 300.16,-334.99 308.23,-336.12"/>
<polygon fill="#63b8ff" stroke="#63b8ff" points="307.67,-339.57 318.06,-337.49 308.63,-332.64 307.67,-339.57"/>
</a>
</g>
</g>
<!-- Node5 -->
<g id="Node000005" class="node">
<title>Node5</title>
<g id="a_Node000005"><a xlink:href="group___noah_m_p___l_s_m_ga4a88258da12057ced7c9dc5760b53d13.html#ga4a88258da12057ced7c9dc5760b53d13" target="_top" xlink:title=" ">
<polygon fill="white" stroke="#666666" points="404.62,-312.88 359.38,-312.88 359.38,-293.62 404.62,-293.62 404.62,-312.88"/>
<text xml:space="preserve" text-anchor="middle" x="382" y="-299.38" font-family="Source Sans Pro" font-size="10.00">sfcdif4</text>
</a>
</g>
</g>
<!-- Node2&#45;&gt;Node5 -->
<g id="edge4_Node000002_Node000005" class="edge">
<title>Node2&#45;&gt;Node5</title>
<g id="a_edge4_Node000002_Node000005"><a xlink:title=" ">
<path fill="none" stroke="#63b8ff" d="M284.09,-316.13C305.74,-313.25 329.29,-310.12 347.76,-307.67"/>
<polygon fill="#63b8ff" stroke="#63b8ff" points="348.13,-311.15 357.58,-306.36 347.21,-304.21 348.13,-311.15"/>
</a>
</g>
</g>
<!-- Node6 -->
<g id="Node000006" class="node">
<title>Node6</title>
<g id="a_Node000006"><a xlink:href="group__mynn__sfc_gab8e348eef161b16bada8841a900501c2.html#gab8e348eef161b16bada8841a900501c2" target="_top" xlink:title="this is taken from andreas (2002; j. of hydromet) and andreas et al. (2005; blm).">
<polygon fill="white" stroke="#666666" points="580.38,-386.88 503.62,-386.88 503.62,-367.62 580.38,-367.62 580.38,-386.88"/>
<text xml:space="preserve" text-anchor="middle" x="542" y="-373.38" font-family="Source Sans Pro" font-size="10.00">andreas_2002</text>
</a>
</g>
</g>
<!-- Node5&#45;&gt;Node6 -->
<g id="edge5_Node000005_Node000006" class="edge">
<title>Node5&#45;&gt;Node6</title>
<g id="a_edge5_Node000005_Node000006"><a xlink:title=" ">
<path fill="none" stroke="#63b8ff" d="M405,-307.32C417.13,-310.22 432.09,-314.94 444,-322.25 463.55,-334.25 460.36,-347.39 480,-359.25 483.99,-361.66 488.32,-363.76 492.77,-365.59"/>
<polygon fill="#63b8ff" stroke="#63b8ff" points="491.25,-368.77 501.85,-368.88 493.64,-362.18 491.25,-368.77"/>
</a>
</g>
</g>
<!-- Node7 -->
<g id="Node000007" class="node">
<title>Node7</title>
<g id="a_Node000007"><a xlink:href="group___noah_m_p___l_s_m_ga88dbf6bdf1a8097e27b06ddfce89516c.html#ga88dbf6bdf1a8097e27b06ddfce89516c" target="_top" xlink:title="data. the formula for land uses a constant ratio (z_0/7.4) taken from garratt (1992).">
<polygon fill="white" stroke="#666666" points="577,-349.88 507,-349.88 507,-330.62 577,-330.62 577,-349.88"/>
<text xml:space="preserve" text-anchor="middle" x="542" y="-336.38" font-family="Source Sans Pro" font-size="10.00">garratt_1992</text>
</a>
</g>
</g>
<!-- Node5&#45;&gt;Node7 -->
<g id="edge6_Node000005_Node000007" class="edge">
<title>Node5&#45;&gt;Node7</title>
<g id="a_edge6_Node000005_Node000007"><a xlink:title=" ">
<path fill="none" stroke="#63b8ff" d="M404.97,-308.39C428.35,-313.87 466.01,-322.69 495.78,-329.66"/>
<polygon fill="#63b8ff" stroke="#63b8ff" points="494.75,-333.01 505.29,-331.89 496.35,-326.2 494.75,-333.01"/>
</a>
</g>
</g>
<!-- Node8 -->
<g id="Node000008" class="node">
<title>Node8</title>
<g id="a_Node000008"><a xlink:href="group__mynn__sfc_ga7bbe8445bfcae5adad4fed82a0ecbaee.html#ga7bbe8445bfcae5adad4fed82a0ecbaee" target="_top" xlink:title="this subroutine returns a more robust z/l that best matches the z/l from hogstrom (1996) for unstable...">
<polygon fill="white" stroke="#666666" points="575.88,-312.88 508.12,-312.88 508.12,-293.62 575.88,-293.62 575.88,-312.88"/>
<text xml:space="preserve" text-anchor="middle" x="542" y="-299.38" font-family="Source Sans Pro" font-size="10.00">li_etal_2010</text>
</a>
</g>
</g>
<!-- Node5&#45;&gt;Node8 -->
<g id="edge7_Node000005_Node000008" class="edge">
<title>Node5&#45;&gt;Node8</title>
<g id="a_edge7_Node000005_Node000008"><a xlink:title=" ">
<path fill="none" stroke="#63b8ff" d="M404.97,-303.25C428.47,-303.25 466.4,-303.25 496.24,-303.25"/>
<polygon fill="#63b8ff" stroke="#63b8ff" points="496.14,-306.75 506.14,-303.25 496.14,-299.75 496.14,-306.75"/>
</a>
</g>
</g>
<!-- Node9 -->
<g id="Node000009" class="node">
<title>Node9</title>
<g id="a_Node000009"><a xlink:href="group__mynn__sfc_ga25595438cdc181cd5e5e05aa45486a69.html#ga25595438cdc181cd5e5e05aa45486a69" target="_top" xlink:title="this is a modified version of yang et al (2002 qjrms, 2008 jamc) and chen et al (2010,...">
<polygon fill="white" stroke="#666666" points="573.62,-275.88 510.38,-275.88 510.38,-256.62 573.62,-256.62 573.62,-275.88"/>
<text xml:space="preserve" text-anchor="middle" x="542" y="-262.38" font-family="Source Sans Pro" font-size="10.00">yang_2008</text>
</a>
</g>
</g>
<!-- Node5&#45;&gt;Node9 -->
<g id="edge8_Node000005_Node000009" class="edge">
<title>Node5&#45;&gt;Node9</title>
<g id="a_edge8_Node000005_Node000009"><a xlink:title=" ">
<path fill="none" stroke="#63b8ff" d="M404.97,-298.11C429.18,-292.44 468.69,-283.18 498.91,-276.11"/>
<polygon fill="#63b8ff" stroke="#63b8ff" points="499.57,-279.55 508.51,-273.86 497.98,-272.73 499.57,-279.55"/>
</a>
</g>
</g>
<!-- Node10 -->
<g id="Node000010" class="node">
<title>Node10</title>
<g id="a_Node000010"><a xlink:href="group___noah_m_p___l_s_m_gaa1453a4f904aa171ea91510f464824b3.html#gaa1453a4f904aa171ea91510f464824b3" target="_top" xlink:title=" ">
<polygon fill="white" stroke="#666666" points="588.62,-238.88 495.38,-238.88 495.38,-219.62 588.62,-219.62 588.62,-238.88"/>
<text xml:space="preserve" text-anchor="middle" x="542" y="-225.38" font-family="Source Sans Pro" font-size="10.00">zilitinkevich_1995</text>
</a>
</g>
</g>
<!-- Node5&#45;&gt;Node10 -->
<g id="edge9_Node000005_Node000010" class="edge">
<title>Node5&#45;&gt;Node10</title>
<g id="a_edge9_Node000005_Node000010"><a xlink:title=" ">
<path fill="none" stroke="#63b8ff" d="M405,-299.18C417.13,-296.28 432.09,-291.56 444,-284.25 463.55,-272.25 460.36,-259.11 480,-247.25 482.03,-246.02 484.15,-244.88 486.33,-243.8"/>
<polygon fill="#63b8ff" stroke="#63b8ff" points="487.64,-247.05 495.46,-239.91 484.89,-240.61 487.64,-247.05"/>
</a>
</g>
</g>
<!-- Node13 -->
<g id="Node000013" class="node">
<title>Node13</title>
<g id="a_Node000013"><a xlink:href="group___noah_m_p___l_s_m_gac231e8b379ab2704f527cafe9a6a92f4.html#gac231e8b379ab2704f527cafe9a6a92f4" target="_top" xlink:title=" ">
<polygon fill="white" stroke="#666666" points="444,-275.5 320,-275.5 320,-245 444,-245 444,-275.5"/>
<text xml:space="preserve" text-anchor="start" x="328" y="-262" font-family="Source Sans Pro" font-size="10.00">noahmp_glacier_routines</text>
<text xml:space="preserve" text-anchor="middle" x="382" y="-250.75" font-family="Source Sans Pro" font-size="10.00">::snow_age_glacier</text>
</a>
</g>
</g>
<!-- Node12&#45;&gt;Node13 -->
<g id="edge12_Node000012_Node000013" class="edge">
<title>Node12&#45;&gt;Node13</title>
<g id="a_edge12_Node000012_Node000013"><a xlink:title=" ">
<path fill="none" stroke="#63b8ff" d="M264.53,-201.97C271.14,-204.84 277.83,-207.97 284,-211.25 300.98,-220.27 303.02,-226.23 320,-235.25 322.99,-236.84 326.1,-238.39 329.26,-239.9"/>
<polygon fill="#63b8ff" stroke="#63b8ff" points="327.54,-242.96 338.09,-243.91 330.44,-236.59 327.54,-242.96"/>
</a>
</g>
</g>
<!-- Node14 -->
<g id="Node000014" class="node">
<title>Node14</title>
<g id="a_Node000014"><a xlink:href="group___noah_m_p___l_s_m_ga613d1d7c1ed2ae1eef0bef9a893801be.html#ga613d1d7c1ed2ae1eef0bef9a893801be" target="_top" xlink:title=" ">
<polygon fill="white" stroke="#666666" points="444,-226.5 320,-226.5 320,-196 444,-196 444,-226.5"/>
<text xml:space="preserve" text-anchor="start" x="328" y="-213" font-family="Source Sans Pro" font-size="10.00">noahmp_glacier_routines</text>
<text xml:space="preserve" text-anchor="middle" x="382" y="-201.75" font-family="Source Sans Pro" font-size="10.00">::snowalb_bats_glacier</text>
</a>
</g>
</g>
<!-- Node12&#45;&gt;Node14 -->
<g id="edge13_Node000012_Node000014" class="edge">
<title>Node12&#45;&gt;Node14</title>
<g id="a_edge13_Node000012_Node000014"><a xlink:title=" ">
<path fill="none" stroke="#63b8ff" d="M284.09,-195.92C292,-197.17 300.16,-198.46 308.23,-199.74"/>
<polygon fill="#63b8ff" stroke="#63b8ff" points="307.64,-203.19 318.06,-201.29 308.73,-196.27 307.64,-203.19"/>
</a>
</g>
</g>
<!-- Node15 -->
<g id="Node000015" class="node">
<title>Node15</title>
<g id="a_Node000015"><a xlink:href="group___noah_m_p___l_s_m_gabfb2c60fe82d420428209f17e65ddf02.html#gabfb2c60fe82d420428209f17e65ddf02" target="_top" xlink:title=" ">
<polygon fill="white" stroke="#666666" points="444,-177.5 320,-177.5 320,-147 444,-147 444,-177.5"/>
<text xml:space="preserve" text-anchor="start" x="328" y="-164" font-family="Source Sans Pro" font-size="10.00">noahmp_glacier_routines</text>
<text xml:space="preserve" text-anchor="middle" x="382" y="-152.75" font-family="Source Sans Pro" font-size="10.00">::snowalb_class_glacier</text>
</a>
</g>
</g>
<!-- Node12&#45;&gt;Node15 -->
<g id="edge14_Node000012_Node000015" class="edge">
<title>Node12&#45;&gt;Node15</title>
<g id="a_edge14_Node000012_Node000015"><a xlink:title=" ">
<path fill="none" stroke="#63b8ff" d="M284.09,-176.97C292,-175.77 300.16,-174.53 308.23,-173.3"/>
<polygon fill="#63b8ff" stroke="#63b8ff" points="308.7,-176.77 318.06,-171.81 307.65,-169.85 308.7,-176.77"/>
</a>
</g>
</g>
<!-- Node17 -->
<g id="Node000017" class="node">
<title>Node17</title>
<g id="a_Node000017"><a xlink:href="group___noah_m_p___l_s_m_ga87a53ef88356626801e6ff98ce939011.html#ga87a53ef88356626801e6ff98ce939011" target="_top" xlink:title="snow bulk density, volumetric capacity, and thermal conductivity">
<polygon fill="white" stroke="#666666" points="444,-128.5 320,-128.5 320,-98 444,-98 444,-128.5"/>
<text xml:space="preserve" text-anchor="start" x="328" y="-115" font-family="Source Sans Pro" font-size="10.00">noahmp_glacier_routines</text>
<text xml:space="preserve" text-anchor="middle" x="382" y="-103.75" font-family="Source Sans Pro" font-size="10.00">::csnow_glacier</text>
</a>
</g>
</g>
<!-- Node16&#45;&gt;Node17 -->
<g id="edge16_Node000016_Node000017" class="edge">
<title>Node16&#45;&gt;Node17</title>
<g id="a_edge16_Node000016_Node000017"><a xlink:title=" ">
<path fill="none" stroke="#63b8ff" d="M284.09,-113.25C292,-113.25 300.16,-113.25 308.23,-113.25"/>
<polygon fill="#63b8ff" stroke="#63b8ff" points="308.04,-116.75 318.04,-113.25 308.04,-109.75 308.04,-116.75"/>
</a>
</g>
</g>
<!-- Node19 -->
<g id="Node000019" class="node">
<title>Node19</title>
<g id="a_Node000019"><a xlink:href="group___noah_m_p___l_s_m_ga3d809b60b84d8ec6f0641d32edac467f.html#ga3d809b60b84d8ec6f0641d32edac467f" target="_top" xlink:title=" ">
<polygon fill="white" stroke="#666666" points="444,-79.5 320,-79.5 320,-49 444,-49 444,-79.5"/>
<text xml:space="preserve" text-anchor="start" x="328" y="-66" font-family="Source Sans Pro" font-size="10.00">noahmp_glacier_routines</text>
<text xml:space="preserve" text-anchor="middle" x="382" y="-54.75" font-family="Source Sans Pro" font-size="10.00">::hrt_glacier</text>
</a>
</g>
</g>
<!-- Node18&#45;&gt;Node19 -->
<g id="edge18_Node000018_Node000019" class="edge">
<title>Node18&#45;&gt;Node19</title>
<g id="a_edge18_Node000018_Node000019"><a xlink:title=" ">
<path fill="none" stroke="#63b8ff" d="M284.09,-64.25C292,-64.25 300.16,-64.25 308.23,-64.25"/>
<polygon fill="#63b8ff" stroke="#63b8ff" points="308.04,-67.75 318.04,-64.25 308.04,-60.75 308.04,-67.75"/>
</a>
</g>
</g>
<!-- Node20 -->
<g id="Node000020" class="node">
<title>Node20</title>
<g id="a_Node000020"><a xlink:href="group___noah_m_p___l_s_m_gad0ad01a8e6079c118f406348fc829ba8.html#gad0ad01a8e6079c118f406348fc829ba8" target="_top" xlink:title=" ">
<polygon fill="white" stroke="#666666" points="444,-30.5 320,-30.5 320,0 444,0 444,-30.5"/>
<text xml:space="preserve" text-anchor="start" x="328" y="-17" font-family="Source Sans Pro" font-size="10.00">noahmp_glacier_routines</text>
<text xml:space="preserve" text-anchor="middle" x="382" y="-5.75" font-family="Source Sans Pro" font-size="10.00">::hstep_glacier</text>
</a>
</g>
</g>
<!-- Node18&#45;&gt;Node20 -->
<g id="edge19_Node000018_Node000020" class="edge">
<title>Node18&#45;&gt;Node20</title>
<g id="a_edge19_Node000018_Node000020"><a xlink:title=" ">
<path fill="none" stroke="#63b8ff" d="M273.43,-48.61C288.03,-44.08 304.15,-39.08 319.36,-34.37"/>
<polygon fill="#63b8ff" stroke="#63b8ff" points="320.28,-37.75 328.79,-31.44 318.21,-31.06 320.28,-37.75"/>
</a>
</g>
</g>
<!-- Node21 -->
<g id="Node000021" class="node">
<title>Node21</title>
<g id="a_Node000021"><a xlink:href="group___noah_m_p___l_s_m_ga368ca6e0c1bef7000a6325c1c382421b.html#ga368ca6e0c1bef7000a6325c1c382421b" target="_top" xlink:title=" ">
<polygon fill="white" stroke="#666666" points="604,-30.5 480,-30.5 480,0 604,0 604,-30.5"/>
<text xml:space="preserve" text-anchor="start" x="488" y="-17" font-family="Source Sans Pro" font-size="10.00">noahmp_glacier_routines</text>
<text xml:space="preserve" text-anchor="middle" x="542" y="-5.75" font-family="Source Sans Pro" font-size="10.00">::rosr12_glacier</text>
</a>
</g>
</g>
<!-- Node20&#45;&gt;Node21 -->
<g id="edge20_Node000020_Node000021" class="edge">
<title>Node20&#45;&gt;Node21</title>
<g id="a_edge20_Node000020_Node000021"><a xlink:title=" ">
<path fill="none" stroke="#63b8ff" d="M444.09,-15.25C452,-15.25 460.16,-15.25 468.23,-15.25"/>
<polygon fill="#63b8ff" stroke="#63b8ff" points="468.04,-18.75 478.04,-15.25 468.04,-11.75 468.04,-18.75"/>
</a>
</g>
</g>
</g>
</svg>

<g id="navigator" transform="translate(0 0)" fill="#404254">
  <rect fill="#f2f5e9" fill-opacity="0.5" stroke="#606060" stroke-width=".5" x="0" y="0" width="60" height="60"/>
  <use id="zoomplus" xlink:href="#zoomPlus" x="17" y="9" onmousedown="handleZoom(evt,'in')"/>
  <use id="zoomminus" xlink:href="#zoomMin" x="42" y="9" onmousedown="handleZoom(evt,'out')"/>
  <use id="reset" xlink:href="#resetDef" x="30" y="36" onmousedown="handleReset()"/>
   <use id="arrowup" xlink:href="#arrowUp" x="0" y="0" onmousedown="handlePan(0,-1)"/>
  <use id="arrowright" xlink:href="#arrowRight" x="0" y="0" onmousedown="handlePan(1,0)"/>
  <use id="arrowdown" xlink:href="#arrowDown" x="0" y="0" onmousedown="handlePan(0,1)"/>
  <use id="arrowleft" xlink:href="#arrowLeft" x="0" y="0" onmousedown="handlePan(-1,0)"/>
</g>
<svg viewBox="0 0 15 15" width="100%" height="30px" preserveAspectRatio="xMaxYMin meet">
 <g id="arrow_out" transform="scale(0.3 0.3)">
  <a xlink:href="group___noah_m_p___l_s_m_ga93dd9aedd32004c8cf2c88c222073c6a_ga93dd9aedd32004c8cf2c88c222073c6a_cgraph_org.svg" target="_base">
   <rect id="button" ry="5" rx="5" y="6" x="6" height="38" width="38"
        fill="#f2f5e9" fill-opacity="0.5" stroke="#606060" stroke-width="1.0"/>
   <path id="arrow"
     d="M 11.500037,31.436501 C 11.940474,20.09759 22.043105,11.32322 32.158766,21.979434 L 37.068811,17.246167 C 37.068811,17.246167 37.088388,32 37.088388,32 L 22.160133,31.978069 C 22.160133,31.978069 26.997745,27.140456 26.997745,27.140456 C 18.528582,18.264221 13.291696,25.230495 11.500037,31.436501 z"
     style="fill:#404040;"/>
  </a>
 </g>
</svg>

<style type='text/css'>
<![CDATA[
[data-mouse-over-selected='false'] { opacity: 0.7; }
[data-mouse-over-selected='true']  { opacity: 1.0; }
]]>
</style>
<script type="application/ecmascript"><![CDATA[
document.addEventListener('DOMContentLoaded', (event) => {
  highlightEdges();
  highlightAdjacentNodes();
});
]]></script>
</svg>
