<?xml version="1.0" encoding="UTF-8" standalone="no"?>
<!DOCTYPE svg PUBLIC "-//W3C//DTD SVG 1.1//EN"
 "http://www.w3.org/Graphics/SVG/1.1/DTD/svg11.dtd">
<!-- Generated by graphviz version 14.1.2 (20260124.0452)
 -->
<!-- Title: gfdl_cloud_microphys_mod::subgrid_z_proc Pages: 1 -->
<svg width="267pt" height="57pt"
 viewBox="0.00 0.00 267.00 57.00" xmlns="http://www.w3.org/2000/svg" xmlns:xlink="http://www.w3.org/1999/xlink">
<g id="graph0" class="graph" transform="scale(1 1) rotate(0) translate(4 52.5)">
<title>gfdl_cloud_microphys_mod::subgrid_z_proc</title>
<!-- Node1 -->
<g id="Node000001" class="node">
<title>Node1</title>
<g id="a_Node000001"><a xlink:title="This subroutine calculates temperature sentive high vertical resolution processes.">
<polygon fill="#999999" stroke="#666666" points="112,-30.5 0,-30.5 0,0 112,0 112,-30.5"/>
<text xml:space="preserve" text-anchor="start" x="8" y="-17" font-family="Source Sans Pro" font-size="10.00">gfdl_cloud_microphys</text>
<text xml:space="preserve" text-anchor="middle" x="56" y="-5.75" font-family="Source Sans Pro" font-size="10.00">_mod::subgrid_z_proc</text>
</a>
</g>
</g>
<!-- Node2 -->
<g id="Node000002" class="node">
<title>Node2</title>
<g id="a_Node000002"><a xlink:href="group__mod__gfdl__cloud__mp_ga6dce09bb764ce09d571eb55783abcf48.html#ga6dce09bb764ce09d571eb55783abcf48" target="_top" xlink:title="The function &#39;wqs1&#39; returns the saturation vapor pressure over pure liquid water for a given temperat...">
<polygon fill="white" stroke="#666666" points="258.5,-30.5 148,-30.5 148,0 258.5,0 258.5,-30.5"/>
<text xml:space="preserve" text-anchor="start" x="156" y="-17" font-family="Source Sans Pro" font-size="10.00">gfdl_cloud_microphys</text>
<text xml:space="preserve" text-anchor="middle" x="203.25" y="-5.75" font-family="Source Sans Pro" font-size="10.00">_mod::wqs1</text>
</a>
</g>
</g>
<!-- Node1&#45;&gt;Node2 -->
<g id="edge1_Node000001_Node000002" class="edge">
<title>Node1&#45;&gt;Node2</title>
<g id="a_edge1_Node000001_Node000002"><a xlink:title=" ">
<path fill="none" stroke="#63b8ff" d="M112.33,-15.25C120.08,-15.25 128.12,-15.25 136.05,-15.25"/>
<polygon fill="#63b8ff" stroke="#63b8ff" points="136.04,-18.75 146.04,-15.25 136.04,-11.75 136.04,-18.75"/>
</a>
</g>
</g>
<!-- Node2&#45;&gt;Node2 -->
<g id="edge2_Node000002_Node000002" class="edge">
<title>Node2&#45;&gt;Node2</title>
<g id="a_edge2_Node000002_Node000002"><a xlink:title=" ">
<path fill="none" stroke="#63b8ff" d="M177.16,-30.99C171.83,-40.06 180.53,-48.5 203.25,-48.5 215.68,-48.5 223.91,-45.97 227.94,-42.2"/>
<polygon fill="#63b8ff" stroke="#63b8ff" points="231.39,-42.84 229.16,-32.49 224.44,-41.98 231.39,-42.84"/>
</a>
</g>
</g>
</g>
</svg>
