<?xml version="1.0" encoding="UTF-8" standalone="no"?>
<!DOCTYPE svg PUBLIC "-//W3C//DTD SVG 1.1//EN"
 "http://www.w3.org/Graphics/SVG/1.1/DTD/svg11.dtd">
<!-- Generated by graphviz version 14.1.2 (20260124.0452)
 -->
<!-- Title: module_mp_thompson::graupel_psd_parameters Pages: 1 -->
<svg width="460pt" height="137pt"
 viewBox="0.00 0.00 460.00 137.00" xmlns="http://www.w3.org/2000/svg" xmlns:xlink="http://www.w3.org/1999/xlink">
<g id="graph0" class="graph" transform="scale(1 1) rotate(0) translate(4 132.5)">
<title>module_mp_thompson::graupel_psd_parameters</title>
<!-- Node1 -->
<g id="Node000001" class="node">
<title>Node1</title>
<g id="a_Node000001"><a xlink:title="Calculates graupel size distribution parameters.">
<polygon fill="#999999" stroke="#666666" points="452.25,-79.5 323.75,-79.5 323.75,-49 452.25,-49 452.25,-79.5"/>
<text xml:space="preserve" text-anchor="start" x="331.75" y="-66" font-family="Source Sans Pro" font-size="10.00">module_mp_thompson</text>
<text xml:space="preserve" text-anchor="middle" x="388" y="-54.75" font-family="Source Sans Pro" font-size="10.00">::graupel_psd_parameters</text>
</a>
</g>
</g>
<!-- Node2 -->
<g id="Node000002" class="node">
<title>Node2</title>
<g id="a_Node000002"><a xlink:href="group__aathompson_ga8a3937b93a8a3780c0f84ab6f333638c.html#ga8a3937b93a8a3780c0f84ab6f333638c" target="_top" xlink:title="Compute radar reflectivity assuming 10 cm wavelength radar and using Rayleigh approximation....">
<polygon fill="white" stroke="#666666" points="276.12,-79.5 161.88,-79.5 161.88,-49 276.12,-49 276.12,-79.5"/>
<text xml:space="preserve" text-anchor="start" x="169.88" y="-66" font-family="Source Sans Pro" font-size="10.00">module_mp_thompson</text>
<text xml:space="preserve" text-anchor="middle" x="219" y="-54.75" font-family="Source Sans Pro" font-size="10.00">::calc_refl10cm</text>
</a>
</g>
</g>
<!-- Node1&#45;&gt;Node2 -->
<g id="edge1_Node000001_Node000002" class="edge">
<title>Node1&#45;&gt;Node2</title>
<g id="a_edge1_Node000001_Node000002"><a xlink:title=" ">
<path fill="none" stroke="#63b8ff" d="M312.07,-64.25C300.15,-64.25 288,-64.25 276.6,-64.25"/>
<polygon fill="#63b8ff" stroke="#63b8ff" points="311.87,-67.75 321.87,-64.25 311.87,-60.75 311.87,-67.75"/>
</a>
</g>
</g>
<!-- Node5 -->
<g id="Node000005" class="node">
<title>Node5</title>
<g id="a_Node000005"><a xlink:href="group__aathompson_gaff7d32ce96fc67c5e7968195b1241291.html#gaff7d32ce96fc67c5e7968195b1241291" target="_top" xlink:title="Calculates graupel/hail maximum diameter.">
<polygon fill="white" stroke="#666666" points="287.75,-128.5 150.25,-128.5 150.25,-98 287.75,-98 287.75,-128.5"/>
<text xml:space="preserve" text-anchor="start" x="158.25" y="-115" font-family="Source Sans Pro" font-size="10.00">module_mp_thompson</text>
<text xml:space="preserve" text-anchor="middle" x="219" y="-103.75" font-family="Source Sans Pro" font-size="10.00">::hail_mass_99th_percentile</text>
</a>
</g>
</g>
<!-- Node1&#45;&gt;Node5 -->
<g id="edge4_Node000001_Node000005" class="edge">
<title>Node1&#45;&gt;Node5</title>
<g id="a_edge4_Node000001_Node000005"><a xlink:title=" ">
<path fill="none" stroke="#63b8ff" d="M322.68,-83.12C306.48,-87.87 289.27,-92.93 273.65,-97.51"/>
<polygon fill="#63b8ff" stroke="#63b8ff" points="323.64,-86.49 332.25,-80.31 321.67,-79.77 323.64,-86.49"/>
</a>
</g>
</g>
<!-- Node6 -->
<g id="Node000006" class="node">
<title>Node6</title>
<g id="a_Node000006"><a xlink:href="group__aathompson_gab35ac4001561513747f53afcf6c9ac3b.html#gab35ac4001561513747f53afcf6c9ac3b" target="_top" xlink:title="This subroutine computes the moisture tendencies of water vapor, cloud droplets, rain,...">
<polygon fill="white" stroke="#666666" points="276.12,-30.5 161.88,-30.5 161.88,0 276.12,0 276.12,-30.5"/>
<text xml:space="preserve" text-anchor="start" x="169.88" y="-17" font-family="Source Sans Pro" font-size="10.00">module_mp_thompson</text>
<text xml:space="preserve" text-anchor="middle" x="219" y="-5.75" font-family="Source Sans Pro" font-size="10.00">::mp_thompson</text>
</a>
</g>
</g>
<!-- Node1&#45;&gt;Node6 -->
<g id="edge6_Node000001_Node000006" class="edge">
<title>Node1&#45;&gt;Node6</title>
<g id="a_edge6_Node000001_Node000006"><a xlink:title=" ">
<path fill="none" stroke="#63b8ff" d="M322.68,-45.38C306.48,-40.63 289.27,-35.57 273.65,-30.99"/>
<polygon fill="#63b8ff" stroke="#63b8ff" points="321.67,-48.73 332.25,-48.19 323.64,-42.01 321.67,-48.73"/>
</a>
</g>
</g>
<!-- Node3 -->
<g id="Node000003" class="node">
<title>Node3</title>
<g id="a_Node000003"><a xlink:href="group__aathompson_ga91f91d9fdb9ec49b853861384a61d70a.html#ga91f91d9fdb9ec49b853861384a61d70a" target="_top" xlink:title="This is a wrapper routine designed to transfer values from 3D to 1D.">
<polygon fill="white" stroke="#666666" points="114.25,-128.5 0,-128.5 0,-98 114.25,-98 114.25,-128.5"/>
<text xml:space="preserve" text-anchor="start" x="8" y="-115" font-family="Source Sans Pro" font-size="10.00">module_mp_thompson</text>
<text xml:space="preserve" text-anchor="middle" x="57.13" y="-103.75" font-family="Source Sans Pro" font-size="10.00">::mp_gt_driver</text>
</a>
</g>
</g>
<!-- Node2&#45;&gt;Node3 -->
<g id="edge2_Node000002_Node000003" class="edge">
<title>Node2&#45;&gt;Node3</title>
<g id="a_edge2_Node000002_Node000003"><a xlink:title=" ">
<path fill="none" stroke="#63b8ff" d="M155.98,-83.26C140.6,-87.97 124.29,-92.97 109.49,-97.51"/>
<polygon fill="#63b8ff" stroke="#63b8ff" points="156.99,-86.61 165.53,-80.33 154.94,-79.92 156.99,-86.61"/>
</a>
</g>
</g>
<!-- Node4 -->
<g id="Node000004" class="node">
<title>Node4</title>
<g id="a_Node000004"><a xlink:href="namespacemodule__mp__thompson_af9c4d19b4ce9dc561aabc7b0c6c7212e.html#af9c4d19b4ce9dc561aabc7b0c6c7212e" target="_top" xlink:title=" ">
<polygon fill="white" stroke="#666666" points="114.25,-80.12 0,-80.12 0,-38.38 114.25,-38.38 114.25,-80.12"/>
<text xml:space="preserve" text-anchor="start" x="8" y="-66.62" font-family="Source Sans Pro" font-size="10.00">module_mp_thompson</text>
<text xml:space="preserve" text-anchor="start" x="8" y="-55.38" font-family="Source Sans Pro" font-size="10.00">::thompson_3d_to_1d</text>
<text xml:space="preserve" text-anchor="middle" x="57.13" y="-44.12" font-family="Source Sans Pro" font-size="10.00">_driver</text>
</a>
</g>
</g>
<!-- Node2&#45;&gt;Node4 -->
<g id="edge3_Node000002_Node000004" class="edge">
<title>Node2&#45;&gt;Node4</title>
<g id="a_edge3_Node000002_Node000004"><a xlink:title=" ">
<path fill="none" stroke="#63b8ff" d="M150.34,-62.13C138.41,-61.76 126.1,-61.38 114.52,-61.01"/>
<polygon fill="#63b8ff" stroke="#63b8ff" points="150.02,-65.63 160.12,-62.44 150.24,-58.63 150.02,-65.63"/>
</a>
</g>
</g>
<!-- Node5&#45;&gt;Node3 -->
<g id="edge5_Node000005_Node000003" class="edge">
<title>Node5&#45;&gt;Node3</title>
<g id="a_edge5_Node000005_Node000003"><a xlink:title=" ">
<path fill="none" stroke="#63b8ff" d="M138.95,-113.25C130.68,-113.25 122.39,-113.25 114.44,-113.25"/>
<polygon fill="#63b8ff" stroke="#63b8ff" points="138.69,-116.75 148.69,-113.25 138.69,-109.75 138.69,-116.75"/>
</a>
</g>
</g>
</g>
</svg>
