<?xml version="1.0" encoding="UTF-8" standalone="no"?>
<!DOCTYPE svg PUBLIC "-//W3C//DTD SVG 1.1//EN"
 "http://www.w3.org/Graphics/SVG/1.1/DTD/svg11.dtd">
<!-- Generated by graphviz version 14.1.2 (20260124.0452)
 -->
<!-- Title: psih_unstable_full Pages: 1 -->
<svg width="235pt" height="155pt"
 viewBox="0.00 0.00 235.00 155.00" xmlns="http://www.w3.org/2000/svg" xmlns:xlink="http://www.w3.org/1999/xlink">

<svg id="main" version="1.1" xmlns="http://www.w3.org/2000/svg" xmlns:xlink="http://www.w3.org/1999/xlink" xml:space="preserve">

<style type="text/css"><![CDATA[
.node, .edge {opacity: 0.7;}
.node.selected, .edge.selected {opacity: 1;}
.edge:hover path { stroke: red; }
.edge:hover polygon { stroke: red; fill: red; }
]]></style>
<script type="application/ecmascript" xlink:href="svg.min.js"/>
<svg id="graph" class="graph">
<g id="graph0" class="graph" transform="scale(1 1) rotate(0) translate(4 151.25)">
<title>psih_unstable_full</title>
<!-- Node1 -->
<g id="Node000001" class="node">
<title>Node1</title>
<g id="a_Node000001"><a xlink:title=" ">
<polygon fill="#999999" stroke="#666666" points="94,-74.25 0,-74.25 0,-55 94,-55 94,-74.25"/>
<text xml:space="preserve" text-anchor="middle" x="47" y="-60.75" font-family="Source Sans Pro" font-size="10.00">psih_unstable_full</text>
</a>
</g>
</g>
<!-- Node1&#45;&gt;Node1 -->
<g id="edge3_Node000001_Node000001" class="edge">
<title>Node1&#45;&gt;Node1</title>
<g id="a_edge3_Node000001_Node000001"><a xlink:title=" ">
<path fill="none" stroke="#63b8ff" d="M26.41,-74.54C17.02,-83.15 23.88,-92.25 47,-92.25 59.64,-92.25 67.42,-89.53 70.34,-85.65"/>
<polygon fill="#63b8ff" stroke="#63b8ff" points="73.75,-84.87 67.95,-76.01 66.96,-86.56 73.75,-84.87"/>
</a>
</g>
</g>
<!-- Node2 -->
<g id="Node000002" class="node">
<title>Node2</title>
<g id="a_Node000002"><a xlink:href="group__mynn__sfc_ga381ef2e5dcc86392a5e0912234fa8eee.html#ga381ef2e5dcc86392a5e0912234fa8eee" target="_top" xlink:title=" ">
<polygon fill="white" stroke="#666666" points="220.25,-129.25 136.75,-129.25 136.75,-110 220.25,-110 220.25,-129.25"/>
<text xml:space="preserve" text-anchor="middle" x="178.5" y="-115.75" font-family="Source Sans Pro" font-size="10.00">psih_stable_full</text>
</a>
</g>
</g>
<!-- Node1&#45;&gt;Node2 -->
<g id="edge1_Node000001_Node000002" class="edge">
<title>Node1&#45;&gt;Node2</title>
<g id="a_edge1_Node000001_Node000002"><a xlink:title=" ">
<path fill="none" stroke="#63b8ff" d="M69.42,-74.73C85.88,-82.38 109.22,-93.01 130,-101.62 133.02,-102.88 136.15,-104.14 139.32,-105.39"/>
<polygon fill="#63b8ff" stroke="#63b8ff" points="138.01,-108.64 148.6,-108.99 140.54,-102.11 138.01,-108.64"/>
</a>
</g>
</g>
<!-- Node3 -->
<g id="Node000003" class="node">
<title>Node3</title>
<g id="a_Node000003"><a xlink:href="group__mynn__sfc_ga81004abe9ba55cfcae3d491e5711e235.html#ga81004abe9ba55cfcae3d491e5711e235" target="_top" xlink:title=" ">
<polygon fill="white" stroke="#666666" points="221.75,-74.25 135.25,-74.25 135.25,-55 221.75,-55 221.75,-74.25"/>
<text xml:space="preserve" text-anchor="middle" x="178.5" y="-60.75" font-family="Source Sans Pro" font-size="10.00">psim_stable_full</text>
</a>
</g>
</g>
<!-- Node1&#45;&gt;Node3 -->
<g id="edge4_Node000001_Node000003" class="edge">
<title>Node1&#45;&gt;Node3</title>
<g id="a_edge4_Node000001_Node000003"><a xlink:title=" ">
<path fill="none" stroke="#63b8ff" d="M94.39,-64.62C103.88,-64.62 113.95,-64.62 123.68,-64.62"/>
<polygon fill="#63b8ff" stroke="#63b8ff" points="123.37,-68.13 133.37,-64.63 123.37,-61.13 123.37,-68.13"/>
</a>
</g>
</g>
<!-- Node4 -->
<g id="Node000004" class="node">
<title>Node4</title>
<g id="a_Node000004"><a xlink:href="group__mynn__sfc_ga549207c176216c3344d8565fc6d484e1.html#ga549207c176216c3344d8565fc6d484e1" target="_top" xlink:title=" ">
<polygon fill="white" stroke="#666666" points="227,-19.25 130,-19.25 130,0 227,0 227,-19.25"/>
<text xml:space="preserve" text-anchor="middle" x="178.5" y="-5.75" font-family="Source Sans Pro" font-size="10.00">psim_unstable_full</text>
</a>
</g>
</g>
<!-- Node1&#45;&gt;Node4 -->
<g id="edge6_Node000001_Node000004" class="edge">
<title>Node1&#45;&gt;Node4</title>
<g id="a_edge6_Node000001_Node000004"><a xlink:title=" ">
<path fill="none" stroke="#63b8ff" d="M71.75,-54.54C91.83,-46.01 120.85,-33.69 143.41,-24.1"/>
<polygon fill="#63b8ff" stroke="#63b8ff" points="144.67,-27.37 152.51,-20.24 141.93,-20.93 144.67,-27.37"/>
</a>
</g>
</g>
<!-- Node2&#45;&gt;Node2 -->
<g id="edge2_Node000002_Node000002" class="edge">
<title>Node2&#45;&gt;Node2</title>
<g id="a_edge2_Node000002_Node000002"><a xlink:title=" ">
<path fill="none" stroke="#63b8ff" d="M157.91,-129.54C148.52,-138.15 155.38,-147.25 178.5,-147.25 191.14,-147.25 198.92,-144.53 201.84,-140.65"/>
<polygon fill="#63b8ff" stroke="#63b8ff" points="205.25,-139.87 199.45,-131.01 198.46,-141.56 205.25,-139.87"/>
</a>
</g>
</g>
<!-- Node3&#45;&gt;Node3 -->
<g id="edge5_Node000003_Node000003" class="edge">
<title>Node3&#45;&gt;Node3</title>
<g id="a_edge5_Node000003_Node000003"><a xlink:title=" ">
<path fill="none" stroke="#63b8ff" d="M157.91,-74.54C148.52,-83.15 155.38,-92.25 178.5,-92.25 191.14,-92.25 198.92,-89.53 201.84,-85.65"/>
<polygon fill="#63b8ff" stroke="#63b8ff" points="205.25,-84.87 199.45,-76.01 198.46,-86.56 205.25,-84.87"/>
</a>
</g>
</g>
<!-- Node4&#45;&gt;Node4 -->
<g id="edge7_Node000004_Node000004" class="edge">
<title>Node4&#45;&gt;Node4</title>
<g id="a_edge7_Node000004_Node000004"><a xlink:title=" ">
<path fill="none" stroke="#63b8ff" d="M157.91,-19.54C148.52,-28.15 155.38,-37.25 178.5,-37.25 191.14,-37.25 198.92,-34.53 201.84,-30.65"/>
<polygon fill="#63b8ff" stroke="#63b8ff" points="205.25,-29.87 199.45,-21.01 198.46,-31.56 205.25,-29.87"/>
</a>
</g>
</g>
</g>
</svg>
</svg>

<style type='text/css'>
<![CDATA[
[data-mouse-over-selected='false'] { opacity: 0.7; }
[data-mouse-over-selected='true']  { opacity: 1.0; }
]]>
</style>
<script type="application/ecmascript"><![CDATA[
document.addEventListener('DOMContentLoaded', (event) => {
  highlightEdges();
  highlightAdjacentNodes();
});
]]></script>
</svg>
