<?xml version="1.0" encoding="UTF-8" standalone="no"?>
<!DOCTYPE svg PUBLIC "-//W3C//DTD SVG 1.1//EN"
 "http://www.w3.org/Graphics/SVG/1.1/DTD/svg11.dtd">
<!-- Generated by graphviz version 14.1.2 (20260124.0452)
 -->
<!-- Title: module_mp_thompson::gcf Pages: 1 -->
<!--zoomable 57 -->

<svg id="main" version="1.1" xmlns="http://www.w3.org/2000/svg" xmlns:xlink="http://www.w3.org/1999/xlink" xml:space="preserve" onload="init(evt)">

<style type="text/css"><![CDATA[
.node, .edge {opacity: 0.7;}
.node.selected, .edge.selected {opacity: 1;}
.edge:hover path { stroke: red; }
.edge:hover polygon { stroke: red; fill: red; }
]]></style>

<defs>
  <circle id="rim" cx="0" cy="0" r="7"/>
  <circle id="rim2" cx="0" cy="0" r="3.5"/>
  <g id="zoomPlus">
    <use xlink:href="#rim" fill="#404040"><set attributeName="fill" to="#808080" begin="zoomplus.mouseover" end="zoomplus.mouseout"/></use>
    <path d="M-4,0h8M0,-4v8" fill="none" stroke="white" stroke-width="1.5" pointer-events="none"/>
  </g>
  <g id="zoomMin">
    <use xlink:href="#rim" fill="#404040"><set attributeName="fill" to="#808080" begin="zoomminus.mouseover" end="zoomminus.mouseout"/></use>
    <path d="M-4,0h8" fill="none" stroke="white" stroke-width="1.5" pointer-events="none"/>
  </g>
  <g id="arrowUp" transform="translate(30 24)">
    <use xlink:href="#rim"/>
    <path pointer-events="none" fill="none" stroke="white" stroke-width="1.5" d="M0,-3.0v7 M-2.5,-0.5L0,-3.0L2.5,-0.5"/>
  </g>
  <g id="arrowRight" transform="rotate(90) translate(36 -43)">
    <use xlink:href="#rim"/>
    <path pointer-events="none" fill="none" stroke="white" stroke-width="1.5" d="M0,-3.0v7 M-2.5,-0.5L0,-3.0L2.5,-0.5"/>
  </g>
  <g id="arrowDown" transform="rotate(180) translate(-30 -48)">
    <use xlink:href="#rim"/>
    <path pointer-events="none" fill="none" stroke="white" stroke-width="1.5" d="M0,-3.0v7 M-2.5,-0.5L0,-3.0L2.5,-0.5"/>
  </g>
  <g id="arrowLeft" transform="rotate(270) translate(-36 17)">
    <use xlink:href="#rim"/>
    <path pointer-events="none" fill="none" stroke="white" stroke-width="1.5" d="M0,-3.0v7 M-2.5,-0.5L0,-3.0L2.5,-0.5"/>
  </g>
  <g id="resetDef">
    <use xlink:href="#rim2" fill="#404040"><set attributeName="fill" to="#808080" begin="reset.mouseover" end="reset.mouseout"/></use>
  </g>
</defs>
<script type="application/ecmascript">
var viewWidth = 792;
var viewHeight = 57;
var sectionId = 'dynsection-1';
</script>
<script type="application/ecmascript" xlink:href="svg.min.js"/>
<svg id="graph" class="graph">
<g id="viewport">
<title>module_mp_thompson::gcf</title>
<!-- Node1 -->
<g id="Node000001" class="node">
<title>Node1</title>
<g id="a_Node000001"><a xlink:title="Returns the incomplete gamma function q(a,x) evaluated by its continued fraction representation as ga...">
<polygon fill="#999999" stroke="#666666" points="783.5,-24.88 649.75,-24.88 649.75,-5.63 783.5,-5.63 783.5,-24.88"/>
<text xml:space="preserve" text-anchor="middle" x="716.62" y="-11.38" font-family="Source Sans Pro" font-size="10.00">module_mp_thompson::gcf</text>
</a>
</g>
</g>
<!-- Node2 -->
<g id="Node000002" class="node">
<title>Node2</title>
<g id="a_Node000002"><a xlink:href="group__aathompson_ga5126f9b7d52cd4d3e7b072907abb4257.html#ga5126f9b7d52cd4d3e7b072907abb4257" target="_top" xlink:title=" ">
<polygon fill="white" stroke="#666666" points="613.75,-30.5 499.5,-30.5 499.5,0 613.75,0 613.75,-30.5"/>
<text xml:space="preserve" text-anchor="start" x="507.5" y="-17" font-family="Source Sans Pro" font-size="10.00">module_mp_thompson</text>
<text xml:space="preserve" text-anchor="middle" x="556.62" y="-5.75" font-family="Source Sans Pro" font-size="10.00">::gammp</text>
</a>
</g>
</g>
<!-- Node1&#45;&gt;Node2 -->
<g id="edge1_Node000001_Node000002" class="edge">
<title>Node1&#45;&gt;Node2</title>
<g id="a_edge1_Node000001_Node000002"><a xlink:title=" ">
<path fill="none" stroke="#63b8ff" d="M638.07,-15.25C629.93,-15.25 621.77,-15.25 613.93,-15.25"/>
<polygon fill="#63b8ff" stroke="#63b8ff" points="638.02,-18.75 648.02,-15.25 638.02,-11.75 638.02,-18.75"/>
</a>
</g>
</g>
<!-- Node2&#45;&gt;Node2 -->
<g id="edge2_Node000002_Node000002" class="edge">
<title>Node2&#45;&gt;Node2</title>
<g id="a_edge2_Node000002_Node000002"><a xlink:title=" ">
<path fill="none" stroke="#63b8ff" d="M581.82,-42.2C577.7,-45.97 569.3,-48.5 556.62,-48.5 533.44,-48.5 524.57,-40.06 530,-30.99"/>
<polygon fill="#63b8ff" stroke="#63b8ff" points="585.27,-42.85 583.06,-32.49 578.32,-41.97 585.27,-42.85"/>
</a>
</g>
</g>
<!-- Node3 -->
<g id="Node000003" class="node">
<title>Node3</title>
<g id="a_Node000003"><a xlink:href="group__aathompson_ga38c4bc57c8dd450c76cc65b1991cf23d.html#ga38c4bc57c8dd450c76cc65b1991cf23d" target="_top" xlink:title="Cloud ice converting to snow since portion greater than min snow size. Given cloud ice content (kg/m*...">
<polygon fill="white" stroke="#666666" points="463.5,-30.5 349.25,-30.5 349.25,0 463.5,0 463.5,-30.5"/>
<text xml:space="preserve" text-anchor="start" x="357.25" y="-17" font-family="Source Sans Pro" font-size="10.00">module_mp_thompson</text>
<text xml:space="preserve" text-anchor="middle" x="406.38" y="-5.75" font-family="Source Sans Pro" font-size="10.00">::qi_aut_qs</text>
</a>
</g>
</g>
<!-- Node2&#45;&gt;Node3 -->
<g id="edge3_Node000002_Node000003" class="edge">
<title>Node2&#45;&gt;Node3</title>
<g id="a_edge3_Node000002_Node000003"><a xlink:title=" ">
<path fill="none" stroke="#63b8ff" d="M487.84,-15.25C479.76,-15.25 471.58,-15.25 463.69,-15.25"/>
<polygon fill="#63b8ff" stroke="#63b8ff" points="487.64,-18.75 497.64,-15.25 487.64,-11.75 487.64,-18.75"/>
</a>
</g>
</g>
<!-- Node4 -->
<g id="Node000004" class="node">
<title>Node4</title>
<g id="a_Node000004"><a xlink:href="group__aathompson_ga913721b93920f568db16540ff0dac1e9.html#ga913721b93920f568db16540ff0dac1e9" target="_top" xlink:title="This subroutine calculates simplified cloud species equations and create lookup tables in Thomspson s...">
<polygon fill="white" stroke="#666666" points="313.25,-30.5 199,-30.5 199,0 313.25,0 313.25,-30.5"/>
<text xml:space="preserve" text-anchor="start" x="207" y="-17" font-family="Source Sans Pro" font-size="10.00">module_mp_thompson</text>
<text xml:space="preserve" text-anchor="middle" x="256.12" y="-5.75" font-family="Source Sans Pro" font-size="10.00">::thompson_init</text>
</a>
</g>
</g>
<!-- Node3&#45;&gt;Node4 -->
<g id="edge4_Node000003_Node000004" class="edge">
<title>Node3&#45;&gt;Node4</title>
<g id="a_edge4_Node000003_Node000004"><a xlink:title=" ">
<path fill="none" stroke="#63b8ff" d="M337.59,-15.25C329.51,-15.25 321.33,-15.25 313.44,-15.25"/>
<polygon fill="#63b8ff" stroke="#63b8ff" points="337.39,-18.75 347.39,-15.25 337.39,-11.75 337.39,-18.75"/>
</a>
</g>
</g>
<!-- Node5 -->
<g id="Node000005" class="node">
<title>Node5</title>
<g id="a_Node000005"><a xlink:href="namespacemp__thompson_abcad8fa6c118cf2ac1922e451d7ae174.html#abcad8fa6c118cf2ac1922e451d7ae174" target="_top" xlink:title="This subroutine is a wrapper around the actual thompson_init().">
<polygon fill="white" stroke="#666666" points="163,-24.88 0,-24.88 0,-5.63 163,-5.63 163,-24.88"/>
<text xml:space="preserve" text-anchor="middle" x="81.5" y="-11.38" font-family="Source Sans Pro" font-size="10.00">mp_thompson::mp_thompson_init</text>
</a>
</g>
</g>
<!-- Node4&#45;&gt;Node5 -->
<g id="edge5_Node000004_Node000005" class="edge">
<title>Node4&#45;&gt;Node5</title>
<g id="a_edge5_Node000004_Node000005"><a xlink:title=" ">
<path fill="none" stroke="#63b8ff" d="M187.25,-15.25C179.38,-15.25 171.29,-15.25 163.26,-15.25"/>
<polygon fill="#63b8ff" stroke="#63b8ff" points="187.09,-18.75 197.09,-15.25 187.09,-11.75 187.09,-18.75"/>
</a>
</g>
</g>
</g>
</svg>

<g id="navigator" transform="translate(0 0)" fill="#404254">
  <rect fill="#f2f5e9" fill-opacity="0.5" stroke="#606060" stroke-width=".5" x="0" y="0" width="60" height="60"/>
  <use id="zoomplus" xlink:href="#zoomPlus" x="17" y="9" onmousedown="handleZoom(evt,'in')"/>
  <use id="zoomminus" xlink:href="#zoomMin" x="42" y="9" onmousedown="handleZoom(evt,'out')"/>
  <use id="reset" xlink:href="#resetDef" x="30" y="36" onmousedown="handleReset()"/>
   <use id="arrowup" xlink:href="#arrowUp" x="0" y="0" onmousedown="handlePan(0,-1)"/>
  <use id="arrowright" xlink:href="#arrowRight" x="0" y="0" onmousedown="handlePan(1,0)"/>
  <use id="arrowdown" xlink:href="#arrowDown" x="0" y="0" onmousedown="handlePan(0,1)"/>
  <use id="arrowleft" xlink:href="#arrowLeft" x="0" y="0" onmousedown="handlePan(-1,0)"/>
</g>
<svg viewBox="0 0 15 15" width="100%" height="30px" preserveAspectRatio="xMaxYMin meet">
 <g id="arrow_out" transform="scale(0.3 0.3)">
  <a xlink:href="group__aathompson_ga409e17891d433b3214f570828a824255_ga409e17891d433b3214f570828a824255_icgraph_org.svg" target="_base">
   <rect id="button" ry="5" rx="5" y="6" x="6" height="38" width="38"
        fill="#f2f5e9" fill-opacity="0.5" stroke="#606060" stroke-width="1.0"/>
   <path id="arrow"
     d="M 11.500037,31.436501 C 11.940474,20.09759 22.043105,11.32322 32.158766,21.979434 L 37.068811,17.246167 C 37.068811,17.246167 37.088388,32 37.088388,32 L 22.160133,31.978069 C 22.160133,31.978069 26.997745,27.140456 26.997745,27.140456 C 18.528582,18.264221 13.291696,25.230495 11.500037,31.436501 z"
     style="fill:#404040;"/>
  </a>
 </g>
</svg>

<style type='text/css'>
<![CDATA[
[data-mouse-over-selected='false'] { opacity: 0.7; }
[data-mouse-over-selected='true']  { opacity: 1.0; }
]]>
</style>
<script type="application/ecmascript"><![CDATA[
document.addEventListener('DOMContentLoaded', (event) => {
  highlightEdges();
  highlightAdjacentNodes();
});
]]></script>
</svg>
