<?xml version="1.0" encoding="UTF-8" standalone="no"?>
<!DOCTYPE svg PUBLIC "-//W3C//DTD SVG 1.1//EN"
 "http://www.w3.org/Graphics/SVG/1.1/DTD/svg11.dtd">
<!-- Generated by graphviz version 14.1.2 (20260124.0452)
 -->
<!-- Title: module_sf_mynn::psih_unstable_full Pages: 1 -->
<svg width="844pt" height="150pt"
 viewBox="0.00 0.00 844.00 150.00" xmlns="http://www.w3.org/2000/svg" xmlns:xlink="http://www.w3.org/1999/xlink">
<g id="graph0" class="graph" transform="scale(1 1) rotate(0) translate(4 145.88)">
<title>module_sf_mynn::psih_unstable_full</title>
<!-- Node1 -->
<g id="Node000001" class="node">
<title>Node1</title>
<g id="a_Node000001"><a xlink:title=" ">
<polygon fill="#999999" stroke="#666666" points="836,-100.88 721.75,-100.88 721.75,-70.38 836,-70.38 836,-100.88"/>
<text xml:space="preserve" text-anchor="start" x="729.75" y="-87.38" font-family="Source Sans Pro" font-size="10.00">module_sf_mynn::psih</text>
<text xml:space="preserve" text-anchor="middle" x="778.88" y="-76.12" font-family="Source Sans Pro" font-size="10.00">_unstable_full</text>
</a>
</g>
</g>
<!-- Node1&#45;&gt;Node1 -->
<g id="edge10_Node000001_Node000001" class="edge">
<title>Node1&#45;&gt;Node1</title>
<g id="a_edge10_Node000001_Node000001"><a xlink:title=" ">
<path fill="none" stroke="#63b8ff" d="M805.14,-112.58C800.85,-116.35 792.09,-118.88 778.88,-118.88 754.71,-118.88 745.46,-110.43 751.12,-101.36"/>
<polygon fill="#63b8ff" stroke="#63b8ff" points="808.58,-113.23 806.43,-102.86 801.65,-112.31 808.58,-113.23"/>
</a>
</g>
</g>
<!-- Node2 -->
<g id="Node000002" class="node">
<title>Node2</title>
<g id="a_Node000002"><a xlink:href="group__mynn__sfc_ga7d43076a92a7e664f30463dbfc1c6f4f.html#ga7d43076a92a7e664f30463dbfc1c6f4f" target="_top" xlink:title=" ">
<polygon fill="white" stroke="#666666" points="685.75,-131.25 558.75,-131.25 558.75,-112 685.75,-112 685.75,-131.25"/>
<text xml:space="preserve" text-anchor="middle" x="622.25" y="-117.75" font-family="Source Sans Pro" font-size="10.00">module_sf_mynn::psi_init</text>
</a>
</g>
</g>
<!-- Node1&#45;&gt;Node2 -->
<g id="edge1_Node000001_Node000002" class="edge">
<title>Node1&#45;&gt;Node2</title>
<g id="a_edge1_Node000001_Node000002"><a xlink:title=" ">
<path fill="none" stroke="#63b8ff" d="M710.83,-101.23C695.85,-104.72 680.34,-108.33 666.62,-111.53"/>
<polygon fill="#63b8ff" stroke="#63b8ff" points="711.19,-104.74 720.14,-99.07 709.61,-97.93 711.19,-104.74"/>
</a>
</g>
</g>
<!-- Node4 -->
<g id="Node000004" class="node">
<title>Node4</title>
<g id="a_Node000004"><a xlink:href="group__mynn__sfc_ga6e10bc7bd36fcdbf2b555f49396c9eec.html#ga6e10bc7bd36fcdbf2b555f49396c9eec" target="_top" xlink:title=" ">
<polygon fill="white" stroke="#666666" points="679.38,-70.88 565.12,-70.88 565.12,-40.38 679.38,-40.38 679.38,-70.88"/>
<text xml:space="preserve" text-anchor="start" x="573.12" y="-57.38" font-family="Source Sans Pro" font-size="10.00">module_sf_mynn::psih</text>
<text xml:space="preserve" text-anchor="middle" x="622.25" y="-46.12" font-family="Source Sans Pro" font-size="10.00">_unstable</text>
</a>
</g>
</g>
<!-- Node1&#45;&gt;Node4 -->
<g id="edge3_Node000001_Node000004" class="edge">
<title>Node1&#45;&gt;Node4</title>
<g id="a_edge3_Node000001_Node000004"><a xlink:title=" ">
<path fill="none" stroke="#63b8ff" d="M710.58,-72.57C700.29,-70.57 689.75,-68.53 679.73,-66.58"/>
<polygon fill="#63b8ff" stroke="#63b8ff" points="709.64,-75.95 720.13,-74.42 710.98,-69.08 709.64,-75.95"/>
</a>
</g>
</g>
<!-- Node3 -->
<g id="Node000003" class="node">
<title>Node3</title>
<g id="a_Node000003"><a xlink:href="group__mynn__sfc_ga568591c767b19faa3bea8cc9f3d4eb05.html#ga568591c767b19faa3bea8cc9f3d4eb05" target="_top" xlink:title=" ">
<polygon fill="white" stroke="#666666" points="510,-141.88 373.25,-141.88 373.25,-111.38 510,-111.38 510,-141.88"/>
<text xml:space="preserve" text-anchor="start" x="381.25" y="-128.38" font-family="Source Sans Pro" font-size="10.00">mynnsfc_wrapper::mynnsfc</text>
<text xml:space="preserve" text-anchor="middle" x="441.62" y="-117.12" font-family="Source Sans Pro" font-size="10.00">_wrapper_init</text>
</a>
</g>
</g>
<!-- Node2&#45;&gt;Node3 -->
<g id="edge2_Node000002_Node000003" class="edge">
<title>Node2&#45;&gt;Node3</title>
<g id="a_edge2_Node000002_Node000003"><a xlink:title=" ">
<path fill="none" stroke="#63b8ff" d="M546.86,-123.71C534.81,-124.04 522.38,-124.39 510.49,-124.73"/>
<polygon fill="#63b8ff" stroke="#63b8ff" points="546.86,-127.21 556.76,-123.43 546.67,-120.21 546.86,-127.21"/>
</a>
</g>
</g>
<!-- Node4&#45;&gt;Node4 -->
<g id="edge4_Node000004_Node000004" class="edge">
<title>Node4&#45;&gt;Node4</title>
<g id="a_edge4_Node000004_Node000004"><a xlink:title=" ">
<path fill="none" stroke="#63b8ff" d="M648.52,-82.58C644.22,-86.35 635.47,-88.88 622.25,-88.88 598.08,-88.88 588.83,-80.43 594.5,-71.36"/>
<polygon fill="#63b8ff" stroke="#63b8ff" points="651.96,-83.23 649.8,-72.86 645.02,-82.31 651.96,-83.23"/>
</a>
</g>
</g>
<!-- Node5 -->
<g id="Node000005" class="node">
<title>Node5</title>
<g id="a_Node000005"><a xlink:href="group__mynn__sfc_ga51403acc4b5f2876fedbb82b29a2dc2e.html#ga51403acc4b5f2876fedbb82b29a2dc2e" target="_top" xlink:title="This subroutine calculates u*, z/L, and the exchange coefficients which are passed to subsequent sche...">
<polygon fill="white" stroke="#666666" points="522.75,-93.25 360.5,-93.25 360.5,-74 522.75,-74 522.75,-93.25"/>
<text xml:space="preserve" text-anchor="middle" x="441.62" y="-79.75" font-family="Source Sans Pro" font-size="10.00">module_sf_mynn::sfclay1d_mynn</text>
</a>
</g>
</g>
<!-- Node4&#45;&gt;Node5 -->
<g id="edge5_Node000004_Node000005" class="edge">
<title>Node4&#45;&gt;Node5</title>
<g id="a_edge5_Node000004_Node000005"><a xlink:title=" ">
<path fill="none" stroke="#63b8ff" d="M553.8,-66.2C538.52,-68.59 522.33,-71.13 507.18,-73.51"/>
<polygon fill="#63b8ff" stroke="#63b8ff" points="553.9,-69.73 563.24,-64.72 552.82,-62.81 553.9,-69.73"/>
</a>
</g>
</g>
<!-- Node8 -->
<g id="Node000008" class="node">
<title>Node8</title>
<g id="a_Node000008"><a xlink:href="namespacemodule__sf__mynn_a90fd8579b051a294a6626abe29d7b108.html#a90fd8579b051a294a6626abe29d7b108" target="_top" xlink:title=" ">
<polygon fill="white" stroke="#666666" points="501.38,-56.25 381.88,-56.25 381.88,-37 501.38,-37 501.38,-56.25"/>
<text xml:space="preserve" text-anchor="middle" x="441.62" y="-42.75" font-family="Source Sans Pro" font-size="10.00">module_sf_mynn::zolri2</text>
</a>
</g>
</g>
<!-- Node4&#45;&gt;Node8 -->
<g id="edge8_Node000004_Node000008" class="edge">
<title>Node4&#45;&gt;Node8</title>
<g id="a_edge8_Node000004_Node000008"><a xlink:title=" ">
<path fill="none" stroke="#63b8ff" d="M553.71,-52.22C536.66,-51.36 518.47,-50.45 501.86,-49.61"/>
<polygon fill="#63b8ff" stroke="#63b8ff" points="553.06,-55.69 563.22,-52.7 553.41,-48.7 553.06,-55.69"/>
</a>
</g>
</g>
<!-- Node9 -->
<g id="Node000009" class="node">
<title>Node9</title>
<g id="a_Node000009"><a xlink:href="namespacemodule__sf__mynn_ad99d17e1d30aa8eb9716e9519518eb9d.html#ad99d17e1d30aa8eb9716e9519518eb9d" target="_top" xlink:title=" ">
<polygon fill="white" stroke="#666666" points="501.38,-19.25 381.88,-19.25 381.88,0 501.38,0 501.38,-19.25"/>
<text xml:space="preserve" text-anchor="middle" x="441.62" y="-5.75" font-family="Source Sans Pro" font-size="10.00">module_sf_mynn::zolrib</text>
</a>
</g>
</g>
<!-- Node4&#45;&gt;Node9 -->
<g id="edge9_Node000004_Node000009" class="edge">
<title>Node4&#45;&gt;Node9</title>
<g id="a_edge9_Node000004_Node000009"><a xlink:title=" ">
<path fill="none" stroke="#63b8ff" d="M557.17,-36.85C545.74,-33.66 533.91,-30.46 522.75,-27.62 511.97,-24.88 500.32,-22.14 489.34,-19.66"/>
<polygon fill="#63b8ff" stroke="#63b8ff" points="555.95,-40.14 566.52,-39.48 557.84,-33.4 555.95,-40.14"/>
</a>
</g>
</g>
<!-- Node6 -->
<g id="Node000006" class="node">
<title>Node6</title>
<g id="a_Node000006"><a xlink:href="group__mynn__sfc_gac0ece656c5688dd834becc8babfad72c.html#gac0ece656c5688dd834becc8babfad72c" target="_top" xlink:title="This subroutine.">
<polygon fill="white" stroke="#666666" points="324.5,-93.25 172.75,-93.25 172.75,-74 324.5,-74 324.5,-93.25"/>
<text xml:space="preserve" text-anchor="middle" x="248.62" y="-79.75" font-family="Source Sans Pro" font-size="10.00">module_sf_mynn::sfclay_mynn</text>
</a>
</g>
</g>
<!-- Node5&#45;&gt;Node6 -->
<g id="edge6_Node000005_Node000006" class="edge">
<title>Node5&#45;&gt;Node6</title>
<g id="a_edge6_Node000005_Node000006"><a xlink:title=" ">
<path fill="none" stroke="#63b8ff" d="M348.84,-83.62C340.79,-83.62 332.7,-83.62 324.8,-83.62"/>
<polygon fill="#63b8ff" stroke="#63b8ff" points="348.66,-87.13 358.66,-83.63 348.66,-80.13 348.66,-87.13"/>
</a>
</g>
</g>
<!-- Node7 -->
<g id="Node000007" class="node">
<title>Node7</title>
<g id="a_Node000007"><a xlink:href="group__mynn__sfc_gacc51d950a2377e011c8f110ff091c4d4.html#gacc51d950a2377e011c8f110ff091c4d4" target="_top" xlink:title=" ">
<polygon fill="white" stroke="#666666" points="136.75,-98.88 0,-98.88 0,-68.38 136.75,-68.38 136.75,-98.88"/>
<text xml:space="preserve" text-anchor="start" x="8" y="-85.38" font-family="Source Sans Pro" font-size="10.00">mynnsfc_wrapper::mynnsfc</text>
<text xml:space="preserve" text-anchor="middle" x="68.38" y="-74.12" font-family="Source Sans Pro" font-size="10.00">_wrapper_run</text>
</a>
</g>
</g>
<!-- Node6&#45;&gt;Node7 -->
<g id="edge7_Node000006_Node000007" class="edge">
<title>Node6&#45;&gt;Node7</title>
<g id="a_edge7_Node000006_Node000007"><a xlink:title=" ">
<path fill="none" stroke="#63b8ff" d="M160.99,-83.62C152.96,-83.62 144.91,-83.62 137.09,-83.62"/>
<polygon fill="#63b8ff" stroke="#63b8ff" points="160.78,-87.13 170.78,-83.63 160.78,-80.13 160.78,-87.13"/>
</a>
</g>
</g>
</g>
</svg>
