<?xml version="1.0" encoding="UTF-8" standalone="no"?>
<!DOCTYPE svg PUBLIC "-//W3C//DTD SVG 1.1//EN"
 "http://www.w3.org/Graphics/SVG/1.1/DTD/svg11.dtd">
<!-- Generated by graphviz version 14.1.2 (20260124.0452)
 -->
<!-- Title: GFS Near&#45;Surface Sea Temperature Module Pages: 1 -->
<svg width="318pt" height="125pt"
 viewBox="0.00 0.00 318.00 125.00" xmlns="http://www.w3.org/2000/svg" xmlns:xlink="http://www.w3.org/1999/xlink">
<g id="graph0" class="graph" transform="scale(1 1) rotate(0) translate(4 120.88)">
<title>GFS Near&#45;Surface Sea Temperature Module</title>
<!-- Node2 -->
<g id="Node000002" class="node">
<title>Node2</title>
<g id="a_Node000002"><a xlink:href="group__dtm__module.html" target="_top" xlink:title="This module contains the diurnal thermocline layer model (DTM) of the GFS NSST scheme.">
<polygon fill="white" stroke="#666666" points="309.5,-116.88 153.25,-116.88 153.25,-86.38 309.5,-86.38 309.5,-116.88"/>
<text xml:space="preserve" text-anchor="start" x="161.25" y="-103.38" font-family="Source Sans Pro" font-size="10.00">GFS NSST Diurnal Thermocline</text>
<text xml:space="preserve" text-anchor="middle" x="231.38" y="-92.12" font-family="Source Sans Pro" font-size="10.00"> Model</text>
</a>
</g>
</g>
<!-- Node1 -->
<g id="Node000001" class="node">
<title>Node1</title>
<g id="a_Node000001"><a xlink:title="This module contains the CCPP&#45;compliant GFS near&#45;surface sea temperature scheme.This subroutine calls...">
<polygon fill="#999999" stroke="#666666" points="117.25,-67.88 0,-67.88 0,-37.38 117.25,-37.38 117.25,-67.88"/>
<text xml:space="preserve" text-anchor="start" x="8" y="-54.38" font-family="Source Sans Pro" font-size="10.00">GFS Near&#45;Surface Sea</text>
<text xml:space="preserve" text-anchor="middle" x="58.62" y="-43.12" font-family="Source Sans Pro" font-size="10.00"> Temperature Module</text>
</a>
</g>
</g>
<!-- Node1&#45;&gt;Node2 -->
<g id="edge1" class="edge">
<title>Node1&#45;&gt;Node2</title>
<path fill="none" stroke="black" d="M124.91,-71.36C141.61,-76.15 159.4,-81.26 175.52,-85.88"/>
<polygon fill="black" stroke="black" points="126.15,-68.08 115.58,-68.68 124.22,-74.8 126.15,-68.08"/>
</g>
<!-- Node3 -->
<g id="Node000003" class="node">
<title>Node3</title>
<g id="a_Node000003"><a xlink:href="group__nst__parameters.html" target="_top" xlink:title=" ">
<polygon fill="white" stroke="#666666" points="288.5,-67.88 174.25,-67.88 174.25,-37.38 288.5,-37.38 288.5,-67.88"/>
<text xml:space="preserve" text-anchor="start" x="182.25" y="-54.38" font-family="Source Sans Pro" font-size="10.00">GFS NSST Parameter</text>
<text xml:space="preserve" text-anchor="middle" x="231.38" y="-43.12" font-family="Source Sans Pro" font-size="10.00"> Module</text>
</a>
</g>
</g>
<!-- Node1&#45;&gt;Node3 -->
<g id="edge2" class="edge">
<title>Node1&#45;&gt;Node3</title>
<path fill="none" stroke="black" d="M128.72,-52.62C143.69,-52.62 159.36,-52.62 173.78,-52.62"/>
<polygon fill="black" stroke="black" points="128.95,-49.13 118.95,-52.63 128.95,-56.13 128.95,-49.13"/>
</g>
<!-- Node4 -->
<g id="Node000004" class="node">
<title>Node4</title>
<g id="a_Node000004"><a xlink:href="group__waterprop.html" target="_top" xlink:title=" ">
<polygon fill="white" stroke="#666666" points="298.62,-19.25 164.12,-19.25 164.12,0 298.62,0 298.62,-19.25"/>
<text xml:space="preserve" text-anchor="middle" x="231.38" y="-5.75" font-family="Source Sans Pro" font-size="10.00">GFS NSST Water Property</text>
</a>
</g>
</g>
<!-- Node1&#45;&gt;Node4 -->
<g id="edge3" class="edge">
<title>Node1&#45;&gt;Node4</title>
<path fill="none" stroke="black" d="M128.45,-34.9C136.8,-32.78 145.22,-30.64 153.25,-28.62 164.89,-25.7 177.52,-22.57 189.13,-19.71"/>
<polygon fill="black" stroke="black" points="127.83,-31.45 119,-37.31 129.56,-38.23 127.83,-31.45"/>
</g>
</g>
</svg>
