<?xml version="1.0" encoding="UTF-8" standalone="no"?>
<!DOCTYPE svg PUBLIC "-//W3C//DTD SVG 1.1//EN"
 "http://www.w3.org/Graphics/SVG/1.1/DTD/svg11.dtd">
<!-- Generated by graphviz version 14.1.2 (20260124.0452)
 -->
<!-- Title: module_sf_ruclsm::lsmruc Pages: 1 -->
<!--zoomable 255 -->

<svg id="main" version="1.1" xmlns="http://www.w3.org/2000/svg" xmlns:xlink="http://www.w3.org/1999/xlink" xml:space="preserve" onload="init(evt)">

<style type="text/css"><![CDATA[
.node, .edge {opacity: 0.7;}
.node.selected, .edge.selected {opacity: 1;}
.edge:hover path { stroke: red; }
.edge:hover polygon { stroke: red; fill: red; }
]]></style>

<defs>
  <circle id="rim" cx="0" cy="0" r="7"/>
  <circle id="rim2" cx="0" cy="0" r="3.5"/>
  <g id="zoomPlus">
    <use xlink:href="#rim" fill="#404040"><set attributeName="fill" to="#808080" begin="zoomplus.mouseover" end="zoomplus.mouseout"/></use>
    <path d="M-4,0h8M0,-4v8" fill="none" stroke="white" stroke-width="1.5" pointer-events="none"/>
  </g>
  <g id="zoomMin">
    <use xlink:href="#rim" fill="#404040"><set attributeName="fill" to="#808080" begin="zoomminus.mouseover" end="zoomminus.mouseout"/></use>
    <path d="M-4,0h8" fill="none" stroke="white" stroke-width="1.5" pointer-events="none"/>
  </g>
  <g id="arrowUp" transform="translate(30 24)">
    <use xlink:href="#rim"/>
    <path pointer-events="none" fill="none" stroke="white" stroke-width="1.5" d="M0,-3.0v7 M-2.5,-0.5L0,-3.0L2.5,-0.5"/>
  </g>
  <g id="arrowRight" transform="rotate(90) translate(36 -43)">
    <use xlink:href="#rim"/>
    <path pointer-events="none" fill="none" stroke="white" stroke-width="1.5" d="M0,-3.0v7 M-2.5,-0.5L0,-3.0L2.5,-0.5"/>
  </g>
  <g id="arrowDown" transform="rotate(180) translate(-30 -48)">
    <use xlink:href="#rim"/>
    <path pointer-events="none" fill="none" stroke="white" stroke-width="1.5" d="M0,-3.0v7 M-2.5,-0.5L0,-3.0L2.5,-0.5"/>
  </g>
  <g id="arrowLeft" transform="rotate(270) translate(-36 17)">
    <use xlink:href="#rim"/>
    <path pointer-events="none" fill="none" stroke="white" stroke-width="1.5" d="M0,-3.0v7 M-2.5,-0.5L0,-3.0L2.5,-0.5"/>
  </g>
  <g id="resetDef">
    <use xlink:href="#rim2" fill="#404040"><set attributeName="fill" to="#808080" begin="reset.mouseover" end="reset.mouseout"/></use>
  </g>
</defs>
<script type="application/ecmascript">
var viewWidth = 837;
var viewHeight = 255;
var sectionId = 'dynsection-0';
</script>
<script type="application/ecmascript" xlink:href="svg.min.js"/>
<svg id="graph" class="graph">
<g id="viewport">
<title>module_sf_ruclsm::lsmruc</title>
<!-- Node1 -->
<g id="Node000001" class="node">
<title>Node1</title>
<g id="a_Node000001"><a xlink:title="The RUN LSM model is described in Smirnova et al.(1997) smirnova_1997 and Smirnova et al....">
<polygon fill="#999999" stroke="#666666" points="130.75,-155.04 0,-155.04 0,-135.79 130.75,-135.79 130.75,-155.04"/>
<text xml:space="preserve" text-anchor="middle" x="65.38" y="-141.54" font-family="Source Sans Pro" font-size="10.00">module_sf_ruclsm::lsmruc</text>
</a>
</g>
</g>
<!-- Node2 -->
<g id="Node000002" class="node">
<title>Node2</title>
<g id="a_Node000002"><a xlink:href="group__lsm__ruc__group_ga0892c4c726f23c4e4c8317efd197c208.html#ga0892c4c726f23c4e4c8317efd197c208" target="_top" xlink:title="This function computes water vapor mixing ratio at saturation from the precomputed table and a given ...">
<polygon fill="white" stroke="#666666" points="827,-229.04 709.75,-229.04 709.75,-209.79 827,-209.79 827,-229.04"/>
<text xml:space="preserve" text-anchor="middle" x="768.38" y="-215.54" font-family="Source Sans Pro" font-size="10.00">module_sf_ruclsm::qsn</text>
</a>
</g>
</g>
<!-- Node1&#45;&gt;Node2 -->
<g id="edge1_Node000001_Node000002" class="edge">
<title>Node1&#45;&gt;Node2</title>
<g id="a_edge1_Node000001_Node000002"><a xlink:title=" ">
<path fill="none" stroke="#63b8ff" d="M96.45,-155.45C184.47,-183.66 449.36,-260.21 671.5,-238.41 685.62,-237.03 700.75,-234.52 714.72,-231.77"/>
<polygon fill="#63b8ff" stroke="#63b8ff" points="715.06,-235.27 724.15,-229.83 713.66,-228.41 715.06,-235.27"/>
</a>
</g>
</g>
<!-- Node3 -->
<g id="Node000003" class="node">
<title>Node3</title>
<g id="a_Node000003"><a xlink:href="group__lsm__ruc__group_gad9dd50472f87539dfaccb42d5495f831.html#gad9dd50472f87539dfaccb42d5495f831" target="_top" xlink:title="This subroutine solves energy and moisture budgets.">
<polygon fill="white" stroke="#666666" points="302.38,-155.04 170.88,-155.04 170.88,-135.79 302.38,-135.79 302.38,-155.04"/>
<text xml:space="preserve" text-anchor="middle" x="236.62" y="-141.54" font-family="Source Sans Pro" font-size="10.00">module_sf_ruclsm::sfctmp</text>
</a>
</g>
</g>
<!-- Node1&#45;&gt;Node3 -->
<g id="edge3_Node000001_Node000003" class="edge">
<title>Node1&#45;&gt;Node3</title>
<g id="a_edge3_Node000001_Node000003"><a xlink:title=" ">
<path fill="none" stroke="#63b8ff" d="M130.84,-145.41C140.08,-145.41 149.65,-145.41 159.08,-145.41"/>
<polygon fill="#63b8ff" stroke="#63b8ff" points="158.98,-148.91 168.98,-145.41 158.98,-141.91 158.98,-148.91"/>
</a>
</g>
</g>
<!-- Node14 -->
<g id="Node000014" class="node">
<title>Node14</title>
<g id="a_Node000014"><a xlink:href="group__lsm__ruc__group_ga9dd427d384ba72540370a326059e1dc3.html#ga9dd427d384ba72540370a326059e1dc3" target="_top" xlink:title="This subroutine computes effective land and soil parameters in the grid cell from the weighted contri...">
<polygon fill="white" stroke="#666666" points="306.5,-118.04 166.75,-118.04 166.75,-98.79 306.5,-98.79 306.5,-118.04"/>
<text xml:space="preserve" text-anchor="middle" x="236.62" y="-104.54" font-family="Source Sans Pro" font-size="10.00">module_sf_ruclsm::soilvegin</text>
</a>
</g>
</g>
<!-- Node1&#45;&gt;Node14 -->
<g id="edge22_Node000001_Node000014" class="edge">
<title>Node1&#45;&gt;Node14</title>
<g id="a_edge22_Node000001_Node000014"><a xlink:title=" ">
<path fill="none" stroke="#63b8ff" d="M112.62,-135.3C132.87,-130.88 156.83,-125.64 178.2,-120.97"/>
<polygon fill="#63b8ff" stroke="#63b8ff" points="178.93,-124.39 187.95,-118.83 177.44,-117.55 178.93,-124.39"/>
</a>
</g>
</g>
<!-- Node2&#45;&gt;Node2 -->
<g id="edge2_Node000002_Node000002" class="edge">
<title>Node2&#45;&gt;Node2</title>
<g id="a_edge2_Node000002_Node000002"><a xlink:title=" ">
<path fill="none" stroke="#63b8ff" d="M741.21,-229.32C728.82,-237.93 737.88,-247.04 768.38,-247.04 785.53,-247.04 795.9,-244.16 799.49,-240.1"/>
<polygon fill="#63b8ff" stroke="#63b8ff" points="802.78,-238.93 796.06,-230.75 796.21,-241.34 802.78,-238.93"/>
</a>
</g>
</g>
<!-- Node4 -->
<g id="Node000004" class="node">
<title>Node4</title>
<g id="a_Node000004"><a xlink:href="group__lsm__ruc__group_ga272369b99aa473b1f4faed9fd3fe17fe.html#ga272369b99aa473b1f4faed9fd3fe17fe" target="_top" xlink:title="This subroutine is called for sea ice without accumulated snow on its surface. it solves heat diffusi...">
<polygon fill="white" stroke="#666666" points="472.12,-44.04 352.62,-44.04 352.62,-24.79 472.12,-24.79 472.12,-44.04"/>
<text xml:space="preserve" text-anchor="middle" x="412.38" y="-30.54" font-family="Source Sans Pro" font-size="10.00">module_sf_ruclsm::sice</text>
</a>
</g>
</g>
<!-- Node3&#45;&gt;Node4 -->
<g id="edge4_Node000003_Node000004" class="edge">
<title>Node3&#45;&gt;Node4</title>
<g id="a_edge4_Node000003_Node000004"><a xlink:title=" ">
<path fill="none" stroke="#63b8ff" d="M289.31,-135.31C295.31,-133.16 301.18,-130.56 306.5,-127.41 326.53,-115.57 325.37,-105.15 342.5,-89.41 357.33,-75.78 375.12,-61.63 388.9,-51.09"/>
<polygon fill="#63b8ff" stroke="#63b8ff" points="390.65,-54.16 396.51,-45.34 386.42,-48.58 390.65,-54.16"/>
</a>
</g>
</g>
<!-- Node6 -->
<g id="Node000006" class="node">
<title>Node6</title>
<g id="a_Node000006"><a xlink:href="group__lsm__ruc__group_ga59cfce62a9e7a8c642e767ea7548b7c9.html#ga59cfce62a9e7a8c642e767ea7548b7c9" target="_top" xlink:title="This subroutine is called for sea ice with accumulated snow on its surface. It solves energy budget o...">
<polygon fill="white" stroke="#666666" points="671.5,-229.04 518.25,-229.04 518.25,-209.79 671.5,-209.79 671.5,-229.04"/>
<text xml:space="preserve" text-anchor="middle" x="594.88" y="-215.54" font-family="Source Sans Pro" font-size="10.00">module_sf_ruclsm::snowseaice</text>
</a>
</g>
</g>
<!-- Node3&#45;&gt;Node6 -->
<g id="edge6_Node000003_Node000006" class="edge">
<title>Node3&#45;&gt;Node6</title>
<g id="a_edge6_Node000003_Node000006"><a xlink:title=" ">
<path fill="none" stroke="#63b8ff" d="M286.04,-155.47C350.47,-168.85 464.34,-192.5 534.06,-206.99"/>
<polygon fill="#63b8ff" stroke="#63b8ff" points="533.29,-210.4 543.8,-209.01 534.72,-203.55 533.29,-210.4"/>
</a>
</g>
</g>
<!-- Node7 -->
<g id="Node000007" class="node">
<title>Node7</title>
<g id="a_Node000007"><a xlink:href="group__lsm__ruc__group_gaecd085e0caf317dfb807e576fd426dec.html#gaecd085e0caf317dfb807e576fd426dec" target="_top" xlink:title="This subroutine is called for snow covered areas of land. It solves energy and moisture budgets on th...">
<polygon fill="white" stroke="#666666" points="482.25,-155.04 342.5,-155.04 342.5,-135.79 482.25,-135.79 482.25,-155.04"/>
<text xml:space="preserve" text-anchor="middle" x="412.38" y="-141.54" font-family="Source Sans Pro" font-size="10.00">module_sf_ruclsm::snowsoil</text>
</a>
</g>
</g>
<!-- Node3&#45;&gt;Node7 -->
<g id="edge9_Node000003_Node000007" class="edge">
<title>Node3&#45;&gt;Node7</title>
<g id="a_edge9_Node000003_Node000007"><a xlink:title=" ">
<path fill="none" stroke="#63b8ff" d="M302.82,-145.41C311.92,-145.41 321.37,-145.41 330.71,-145.41"/>
<polygon fill="#63b8ff" stroke="#63b8ff" points="330.53,-148.91 340.53,-145.41 330.53,-141.91 330.53,-148.91"/>
</a>
</g>
</g>
<!-- Node12 -->
<g id="Node000012" class="node">
<title>Node12</title>
<g id="a_Node000012"><a xlink:href="group__lsm__ruc__group_gaec10146a1f142cfc8ec2126fa1d54702.html#gaec10146a1f142cfc8ec2126fa1d54702" target="_top" xlink:title="This subroutine calculates energy and moisture budget for vegetated surfaces without snow,...">
<polygon fill="white" stroke="#666666" points="470.62,-118.04 354.12,-118.04 354.12,-98.79 470.62,-98.79 470.62,-118.04"/>
<text xml:space="preserve" text-anchor="middle" x="412.38" y="-104.54" font-family="Source Sans Pro" font-size="10.00">module_sf_ruclsm::soil</text>
</a>
</g>
</g>
<!-- Node3&#45;&gt;Node12 -->
<g id="edge16_Node000003_Node000012" class="edge">
<title>Node3&#45;&gt;Node12</title>
<g id="a_edge16_Node000003_Node000012"><a xlink:title=" ">
<path fill="none" stroke="#63b8ff" d="M285.1,-135.3C305.98,-130.86 330.71,-125.59 352.72,-120.9"/>
<polygon fill="#63b8ff" stroke="#63b8ff" points="353.42,-124.33 362.47,-118.83 351.96,-117.48 353.42,-124.33"/>
</a>
</g>
</g>
<!-- Node5 -->
<g id="Node000005" class="node">
<title>Node5</title>
<g id="a_Node000005"><a xlink:href="group__lsm__ruc__group_ga03c426be3516bfb046dfd57c1b89dbbe.html#ga03c426be3516bfb046dfd57c1b89dbbe" target="_top" xlink:title="This subroutine finds the solution of energy budget at the surface from the pre&#45;computed table of sat...">
<polygon fill="white" stroke="#666666" points="829.25,-118.04 707.5,-118.04 707.5,-98.79 829.25,-98.79 829.25,-118.04"/>
<text xml:space="preserve" text-anchor="middle" x="768.38" y="-104.54" font-family="Source Sans Pro" font-size="10.00">module_sf_ruclsm::vilka</text>
</a>
</g>
</g>
<!-- Node4&#45;&gt;Node5 -->
<g id="edge5_Node000004_Node000005" class="edge">
<title>Node4&#45;&gt;Node5</title>
<g id="a_edge5_Node000004_Node000005"><a xlink:title=" ">
<path fill="none" stroke="#63b8ff" d="M441.77,-24.39C490.7,-8.8 593.21,16.32 671.5,-15.41 708.03,-30.22 738.31,-66.36 754.55,-88.98"/>
<polygon fill="#63b8ff" stroke="#63b8ff" points="751.56,-90.81 760.12,-97.05 757.32,-86.83 751.56,-90.81"/>
</a>
</g>
</g>
<!-- Node6&#45;&gt;Node2 -->
<g id="edge7_Node000006_Node000002" class="edge">
<title>Node6&#45;&gt;Node2</title>
<g id="a_edge7_Node000006_Node000002"><a xlink:title=" ">
<path fill="none" stroke="#63b8ff" d="M671.6,-219.41C680.39,-219.41 689.33,-219.41 698.04,-219.41"/>
<polygon fill="#63b8ff" stroke="#63b8ff" points="697.8,-222.91 707.8,-219.41 697.8,-215.91 697.8,-222.91"/>
</a>
</g>
</g>
<!-- Node6&#45;&gt;Node5 -->
<g id="edge8_Node000006_Node000005" class="edge">
<title>Node6&#45;&gt;Node5</title>
<g id="a_edge8_Node000006_Node000005"><a xlink:title=" ">
<path fill="none" stroke="#63b8ff" d="M652.88,-209.38C659.35,-207.22 665.7,-204.59 671.5,-201.41 705.55,-182.73 736.08,-148.69 753.12,-127.38"/>
<polygon fill="#63b8ff" stroke="#63b8ff" points="755.86,-129.56 759.24,-119.52 750.34,-125.26 755.86,-129.56"/>
</a>
</g>
</g>
<!-- Node8 -->
<g id="Node000008" class="node">
<title>Node8</title>
<g id="a_Node000008"><a xlink:href="group__lsm__ruc__group_ga204e4de9df89836cdda1dca1ee66d86c.html#ga204e4de9df89836cdda1dca1ee66d86c" target="_top" xlink:title="This subroutine solves energy bugdget equation and heat diffusion equation to obtain snow and soil te...">
<polygon fill="white" stroke="#666666" points="668.12,-192.04 521.62,-192.04 521.62,-172.79 668.12,-172.79 668.12,-192.04"/>
<text xml:space="preserve" text-anchor="middle" x="594.88" y="-178.54" font-family="Source Sans Pro" font-size="10.00">module_sf_ruclsm::snowtemp</text>
</a>
</g>
</g>
<!-- Node7&#45;&gt;Node8 -->
<g id="edge10_Node000007_Node000008" class="edge">
<title>Node7&#45;&gt;Node8</title>
<g id="a_edge10_Node000007_Node000008"><a xlink:title=" ">
<path fill="none" stroke="#63b8ff" d="M462.7,-155.52C484.58,-160.01 510.55,-165.33 533.57,-170.05"/>
<polygon fill="#63b8ff" stroke="#63b8ff" points="532.63,-173.43 543.13,-172.01 534.04,-166.57 532.63,-173.43"/>
</a>
</g>
</g>
<!-- Node9 -->
<g id="Node000009" class="node">
<title>Node9</title>
<g id="a_Node000009"><a xlink:href="group__lsm__ruc__group_ga278c9faad6ab598b60a3bf8c562e5a8a.html#ga278c9faad6ab598b60a3bf8c562e5a8a" target="_top" xlink:title="This subroutine solves moisture budget and computes soil moisture and surface and sub&#45;surface runoffs...">
<polygon fill="white" stroke="#666666" points="665.12,-155.04 524.62,-155.04 524.62,-135.79 665.12,-135.79 665.12,-155.04"/>
<text xml:space="preserve" text-anchor="middle" x="594.88" y="-141.54" font-family="Source Sans Pro" font-size="10.00">module_sf_ruclsm::soilmoist</text>
</a>
</g>
</g>
<!-- Node7&#45;&gt;Node9 -->
<g id="edge13_Node000007_Node000009" class="edge">
<title>Node7&#45;&gt;Node9</title>
<g id="a_edge13_Node000007_Node000009"><a xlink:title=" ">
<path fill="none" stroke="#63b8ff" d="M482.64,-145.41C492.54,-145.41 502.79,-145.41 512.89,-145.41"/>
<polygon fill="#63b8ff" stroke="#63b8ff" points="512.68,-148.91 522.68,-145.41 512.68,-141.91 512.68,-148.91"/>
</a>
</g>
</g>
<!-- Node10 -->
<g id="Node000010" class="node">
<title>Node10</title>
<g id="a_Node000010"><a xlink:href="group__lsm__ruc__group_ga53ef8a1d870ab8dab2cc31f456c6b3a5.html#ga53ef8a1d870ab8dab2cc31f456c6b3a5" target="_top" xlink:title="This subroutine computes thermal diffusivity, and diffusional and hydraulic condeuctivities in soil.">
<polygon fill="white" stroke="#666666" points="662.5,-118.04 527.25,-118.04 527.25,-98.79 662.5,-98.79 662.5,-118.04"/>
<text xml:space="preserve" text-anchor="middle" x="594.88" y="-104.54" font-family="Source Sans Pro" font-size="10.00">module_sf_ruclsm::soilprop</text>
</a>
</g>
</g>
<!-- Node7&#45;&gt;Node10 -->
<g id="edge14_Node000007_Node000010" class="edge">
<title>Node7&#45;&gt;Node10</title>
<g id="a_edge14_Node000007_Node000010"><a xlink:title=" ">
<path fill="none" stroke="#63b8ff" d="M462.7,-135.3C484.58,-130.81 510.55,-125.49 533.57,-120.77"/>
<polygon fill="#63b8ff" stroke="#63b8ff" points="534.04,-124.25 543.13,-118.81 532.63,-117.39 534.04,-124.25"/>
</a>
</g>
</g>
<!-- Node11 -->
<g id="Node000011" class="node">
<title>Node11</title>
<g id="a_Node000011"><a xlink:href="group__lsm__ruc__group_ga360e53dc48f6b38b3536375605199e96.html#ga360e53dc48f6b38b3536375605199e96" target="_top" xlink:title="This subroutine solves the transpiration function (EQs. 18,19 in Smirnova et al.(1997) smirnova_1997)...">
<polygon fill="white" stroke="#666666" points="658,-81.04 531.75,-81.04 531.75,-61.79 658,-61.79 658,-81.04"/>
<text xml:space="preserve" text-anchor="middle" x="594.88" y="-67.54" font-family="Source Sans Pro" font-size="10.00">module_sf_ruclsm::transf</text>
</a>
</g>
</g>
<!-- Node7&#45;&gt;Node11 -->
<g id="edge15_Node000007_Node000011" class="edge">
<title>Node7&#45;&gt;Node11</title>
<g id="a_edge15_Node000007_Node000011"><a xlink:title=" ">
<path fill="none" stroke="#63b8ff" d="M465.06,-135.31C471.06,-133.16 476.93,-130.56 482.25,-127.41 502.28,-115.57 498.1,-101.03 518.25,-89.41 520.57,-88.07 522.98,-86.84 525.46,-85.69"/>
<polygon fill="#63b8ff" stroke="#63b8ff" points="526.57,-89.02 534.54,-82.04 523.96,-82.52 526.57,-89.02"/>
</a>
</g>
</g>
<!-- Node8&#45;&gt;Node2 -->
<g id="edge11_Node000008_Node000002" class="edge">
<title>Node8&#45;&gt;Node2</title>
<g id="a_edge11_Node000008_Node000002"><a xlink:title=" ">
<path fill="none" stroke="#63b8ff" d="M642.74,-192.52C663.34,-196.97 687.75,-202.23 709.48,-206.92"/>
<polygon fill="#63b8ff" stroke="#63b8ff" points="708.58,-210.31 719.09,-208.99 710.05,-203.46 708.58,-210.31"/>
</a>
</g>
</g>
<!-- Node8&#45;&gt;Node5 -->
<g id="edge12_Node000008_Node000005" class="edge">
<title>Node8&#45;&gt;Node5</title>
<g id="a_edge12_Node000008_Node000005"><a xlink:title=" ">
<path fill="none" stroke="#63b8ff" d="M647.36,-172.32C655.56,-170.1 663.86,-167.47 671.5,-164.41 697.62,-153.94 725.12,-137.21 743.94,-124.75"/>
<polygon fill="#63b8ff" stroke="#63b8ff" points="745.85,-127.69 752.18,-119.19 741.94,-121.88 745.85,-127.69"/>
</a>
</g>
</g>
<!-- Node12&#45;&gt;Node9 -->
<g id="edge17_Node000012_Node000009" class="edge">
<title>Node12&#45;&gt;Node9</title>
<g id="a_edge17_Node000012_Node000009"><a xlink:title=" ">
<path fill="none" stroke="#63b8ff" d="M462.7,-118.52C484.58,-123.01 510.55,-128.33 533.57,-133.05"/>
<polygon fill="#63b8ff" stroke="#63b8ff" points="532.63,-136.43 543.13,-135.01 534.04,-129.57 532.63,-136.43"/>
</a>
</g>
</g>
<!-- Node12&#45;&gt;Node10 -->
<g id="edge18_Node000012_Node000010" class="edge">
<title>Node12&#45;&gt;Node10</title>
<g id="a_edge18_Node000012_Node000010"><a xlink:title=" ">
<path fill="none" stroke="#63b8ff" d="M470.98,-108.41C485.21,-108.41 500.68,-108.41 515.7,-108.41"/>
<polygon fill="#63b8ff" stroke="#63b8ff" points="515.55,-111.91 525.55,-108.41 515.55,-104.91 515.55,-111.91"/>
</a>
</g>
</g>
<!-- Node12&#45;&gt;Node11 -->
<g id="edge21_Node000012_Node000011" class="edge">
<title>Node12&#45;&gt;Node11</title>
<g id="a_edge21_Node000012_Node000011"><a xlink:title=" ">
<path fill="none" stroke="#63b8ff" d="M462.7,-98.3C484.58,-93.81 510.55,-88.49 533.57,-83.77"/>
<polygon fill="#63b8ff" stroke="#63b8ff" points="534.04,-87.25 543.13,-81.81 532.63,-80.39 534.04,-87.25"/>
</a>
</g>
</g>
<!-- Node13 -->
<g id="Node000013" class="node">
<title>Node13</title>
<g id="a_Node000013"><a xlink:href="group__lsm__ruc__group_gafc7d78906732947d1ac00ca46d7e8147.html#gafc7d78906732947d1ac00ca46d7e8147" target="_top" xlink:title="This subroutine solves energy budget equation and heat diffusion equation.">
<polygon fill="white" stroke="#666666" points="664,-44.04 525.75,-44.04 525.75,-24.79 664,-24.79 664,-44.04"/>
<text xml:space="preserve" text-anchor="middle" x="594.88" y="-30.54" font-family="Source Sans Pro" font-size="10.00">module_sf_ruclsm::soiltemp</text>
</a>
</g>
</g>
<!-- Node12&#45;&gt;Node13 -->
<g id="edge19_Node000012_Node000013" class="edge">
<title>Node12&#45;&gt;Node13</title>
<g id="a_edge19_Node000012_Node000013"><a xlink:title=" ">
<path fill="none" stroke="#63b8ff" d="M429.12,-98.34C449.12,-85.94 485.05,-64.99 518.25,-52.41 522.92,-50.64 527.82,-49.01 532.79,-47.51"/>
<polygon fill="#63b8ff" stroke="#63b8ff" points="533.56,-50.93 542.24,-44.85 531.67,-44.19 533.56,-50.93"/>
</a>
</g>
</g>
<!-- Node13&#45;&gt;Node5 -->
<g id="edge20_Node000013_Node000005" class="edge">
<title>Node13&#45;&gt;Node5</title>
<g id="a_edge20_Node000013_Node000005"><a xlink:title=" ">
<path fill="none" stroke="#63b8ff" d="M647.36,-44.5C655.56,-46.72 663.86,-49.35 671.5,-52.41 697.62,-62.88 725.12,-79.62 743.94,-92.07"/>
<polygon fill="#63b8ff" stroke="#63b8ff" points="741.94,-94.94 752.18,-97.63 745.85,-89.14 741.94,-94.94"/>
</a>
</g>
</g>
</g>
</svg>

<g id="navigator" transform="translate(0 0)" fill="#404254">
  <rect fill="#f2f5e9" fill-opacity="0.5" stroke="#606060" stroke-width=".5" x="0" y="0" width="60" height="60"/>
  <use id="zoomplus" xlink:href="#zoomPlus" x="17" y="9" onmousedown="handleZoom(evt,'in')"/>
  <use id="zoomminus" xlink:href="#zoomMin" x="42" y="9" onmousedown="handleZoom(evt,'out')"/>
  <use id="reset" xlink:href="#resetDef" x="30" y="36" onmousedown="handleReset()"/>
   <use id="arrowup" xlink:href="#arrowUp" x="0" y="0" onmousedown="handlePan(0,-1)"/>
  <use id="arrowright" xlink:href="#arrowRight" x="0" y="0" onmousedown="handlePan(1,0)"/>
  <use id="arrowdown" xlink:href="#arrowDown" x="0" y="0" onmousedown="handlePan(0,1)"/>
  <use id="arrowleft" xlink:href="#arrowLeft" x="0" y="0" onmousedown="handlePan(-1,0)"/>
</g>
<svg viewBox="0 0 15 15" width="100%" height="30px" preserveAspectRatio="xMaxYMin meet">
 <g id="arrow_out" transform="scale(0.3 0.3)">
  <a xlink:href="group__lsm__ruc__group_ga919051c947b9bd7272399d4b681ba2a8_ga919051c947b9bd7272399d4b681ba2a8_cgraph_org.svg" target="_base">
   <rect id="button" ry="5" rx="5" y="6" x="6" height="38" width="38"
        fill="#f2f5e9" fill-opacity="0.5" stroke="#606060" stroke-width="1.0"/>
   <path id="arrow"
     d="M 11.500037,31.436501 C 11.940474,20.09759 22.043105,11.32322 32.158766,21.979434 L 37.068811,17.246167 C 37.068811,17.246167 37.088388,32 37.088388,32 L 22.160133,31.978069 C 22.160133,31.978069 26.997745,27.140456 26.997745,27.140456 C 18.528582,18.264221 13.291696,25.230495 11.500037,31.436501 z"
     style="fill:#404040;"/>
  </a>
 </g>
</svg>

<style type='text/css'>
<![CDATA[
[data-mouse-over-selected='false'] { opacity: 0.7; }
[data-mouse-over-selected='true']  { opacity: 1.0; }
]]>
</style>
<script type="application/ecmascript"><![CDATA[
document.addEventListener('DOMContentLoaded', (event) => {
  highlightEdges();
  highlightAdjacentNodes();
});
]]></script>
</svg>
