<?xml version="1.0" encoding="UTF-8" standalone="no"?>
<!DOCTYPE svg PUBLIC "-//W3C//DTD SVG 1.1//EN"
 "http://www.w3.org/Graphics/SVG/1.1/DTD/svg11.dtd">
<!-- Generated by graphviz version 14.1.2 (20260124.0452)
 -->
<!-- Title: mynnsfc_wrapper::mynnsfc_wrapper_init Pages: 1 -->
<svg width="461pt" height="526pt"
 viewBox="0.00 0.00 461.00 526.00" xmlns="http://www.w3.org/2000/svg" xmlns:xlink="http://www.w3.org/1999/xlink">
<g id="graph0" class="graph" transform="scale(1 1) rotate(0) translate(4 521.5)">
<title>mynnsfc_wrapper::mynnsfc_wrapper_init</title>
<!-- Node1 -->
<g id="Node000001" class="node">
<title>Node1</title>
<g id="a_Node000001"><a xlink:title=" ">
<polygon fill="#999999" stroke="#666666" points="136.75,-264.5 0,-264.5 0,-234 136.75,-234 136.75,-264.5"/>
<text xml:space="preserve" text-anchor="start" x="8" y="-251" font-family="Source Sans Pro" font-size="10.00">mynnsfc_wrapper::mynnsfc</text>
<text xml:space="preserve" text-anchor="middle" x="68.38" y="-239.75" font-family="Source Sans Pro" font-size="10.00">_wrapper_init</text>
</a>
</g>
</g>
<!-- Node2 -->
<g id="Node000002" class="node">
<title>Node2</title>
<g id="a_Node000002"><a xlink:href="group__mynn__sfc_ga7d43076a92a7e664f30463dbfc1c6f4f.html#ga7d43076a92a7e664f30463dbfc1c6f4f" target="_top" xlink:title=" ">
<polygon fill="white" stroke="#666666" points="299.75,-258.88 172.75,-258.88 172.75,-239.62 299.75,-239.62 299.75,-258.88"/>
<text xml:space="preserve" text-anchor="middle" x="236.25" y="-245.38" font-family="Source Sans Pro" font-size="10.00">module_sf_mynn::psi_init</text>
</a>
</g>
</g>
<!-- Node1&#45;&gt;Node2 -->
<g id="edge1_Node000001_Node000002" class="edge">
<title>Node1&#45;&gt;Node2</title>
<g id="a_edge1_Node000001_Node000002"><a xlink:title=" ">
<path fill="none" stroke="#63b8ff" d="M136.84,-249.25C144.83,-249.25 153.01,-249.25 161.09,-249.25"/>
<polygon fill="#63b8ff" stroke="#63b8ff" points="160.88,-252.75 170.88,-249.25 160.88,-245.75 160.88,-252.75"/>
</a>
</g>
</g>
<!-- Node3 -->
<g id="Node000003" class="node">
<title>Node3</title>
<g id="a_Node000003"><a xlink:href="group__mynn__sfc_ga214373cdd64d666866d4c818b57a47ec.html#ga214373cdd64d666866d4c818b57a47ec" target="_top" xlink:title=" ">
<polygon fill="white" stroke="#666666" points="451.5,-499.5 337.25,-499.5 337.25,-469 451.5,-469 451.5,-499.5"/>
<text xml:space="preserve" text-anchor="start" x="345.25" y="-486" font-family="Source Sans Pro" font-size="10.00">module_sf_mynn::psih</text>
<text xml:space="preserve" text-anchor="middle" x="394.38" y="-474.75" font-family="Source Sans Pro" font-size="10.00">_stable_full</text>
</a>
</g>
</g>
<!-- Node2&#45;&gt;Node3 -->
<g id="edge2_Node000002_Node000003" class="edge">
<title>Node2&#45;&gt;Node3</title>
<g id="a_edge2_Node000002_Node000003"><a xlink:title=" ">
<path fill="none" stroke="#63b8ff" d="M239.24,-259.04C246.38,-291.81 273.64,-398.93 335.75,-459.25 336.78,-460.25 337.87,-461.22 338.99,-462.15"/>
<polygon fill="#63b8ff" stroke="#63b8ff" points="336.78,-464.88 346.98,-467.74 340.79,-459.14 336.78,-464.88"/>
</a>
</g>
</g>
<!-- Node4 -->
<g id="Node000004" class="node">
<title>Node4</title>
<g id="a_Node000004"><a xlink:href="group__mynn__sfc_ga2186e04d782df51218fbd03d31517fc8.html#ga2186e04d782df51218fbd03d31517fc8" target="_top" xlink:title=" ">
<polygon fill="white" stroke="#666666" points="451.5,-432.5 337.25,-432.5 337.25,-402 451.5,-402 451.5,-432.5"/>
<text xml:space="preserve" text-anchor="start" x="345.25" y="-419" font-family="Source Sans Pro" font-size="10.00">module_sf_mynn::psih</text>
<text xml:space="preserve" text-anchor="middle" x="394.38" y="-407.75" font-family="Source Sans Pro" font-size="10.00">_stable_full_gfs</text>
</a>
</g>
</g>
<!-- Node2&#45;&gt;Node4 -->
<g id="edge4_Node000002_Node000004" class="edge">
<title>Node2&#45;&gt;Node4</title>
<g id="a_edge4_Node000002_Node000004"><a xlink:title=" ">
<path fill="none" stroke="#63b8ff" d="M241.74,-259.34C253.57,-284.91 288.03,-352.99 335.75,-392.25 337.23,-393.46 338.77,-394.63 340.37,-395.75"/>
<polygon fill="#63b8ff" stroke="#63b8ff" points="338.32,-398.6 348.67,-400.84 341.97,-392.63 338.32,-398.6"/>
</a>
</g>
</g>
<!-- Node5 -->
<g id="Node000005" class="node">
<title>Node5</title>
<g id="a_Node000005"><a xlink:href="group__mynn__sfc_gae46cc20c17ea15f5c9f5610ab6942073.html#gae46cc20c17ea15f5c9f5610ab6942073" target="_top" xlink:title=" ">
<polygon fill="white" stroke="#666666" points="451.5,-365.5 337.25,-365.5 337.25,-335 451.5,-335 451.5,-365.5"/>
<text xml:space="preserve" text-anchor="start" x="345.25" y="-352" font-family="Source Sans Pro" font-size="10.00">module_sf_mynn::psih</text>
<text xml:space="preserve" text-anchor="middle" x="394.38" y="-340.75" font-family="Source Sans Pro" font-size="10.00">_unstable_full</text>
</a>
</g>
</g>
<!-- Node2&#45;&gt;Node5 -->
<g id="edge6_Node000002_Node000005" class="edge">
<title>Node2&#45;&gt;Node5</title>
<g id="a_edge6_Node000002_Node000005"><a xlink:title=" ">
<path fill="none" stroke="#63b8ff" d="M248.41,-259.36C266,-274.95 301.71,-305.16 335.75,-325.25 338.22,-326.71 340.78,-328.12 343.4,-329.5"/>
<polygon fill="#63b8ff" stroke="#63b8ff" points="341.8,-332.61 352.31,-333.9 344.9,-326.34 341.8,-332.61"/>
</a>
</g>
</g>
<!-- Node6 -->
<g id="Node000006" class="node">
<title>Node6</title>
<g id="a_Node000006"><a xlink:href="group__mynn__sfc_gaa556db3881e63c9fc578aafd1071e248.html#gaa556db3881e63c9fc578aafd1071e248" target="_top" xlink:title=" ">
<polygon fill="white" stroke="#666666" points="451.5,-298.5 337.25,-298.5 337.25,-268 451.5,-268 451.5,-298.5"/>
<text xml:space="preserve" text-anchor="start" x="345.25" y="-285" font-family="Source Sans Pro" font-size="10.00">module_sf_mynn::psih</text>
<text xml:space="preserve" text-anchor="middle" x="394.38" y="-273.75" font-family="Source Sans Pro" font-size="10.00">_unstable_full_gfs</text>
</a>
</g>
</g>
<!-- Node2&#45;&gt;Node6 -->
<g id="edge8_Node000002_Node000006" class="edge">
<title>Node2&#45;&gt;Node6</title>
<g id="a_edge8_Node000002_Node000006"><a xlink:title=" ">
<path fill="none" stroke="#63b8ff" d="M283.67,-259.36C296.86,-262.23 311.51,-265.42 325.68,-268.51"/>
<polygon fill="#63b8ff" stroke="#63b8ff" points="324.92,-271.93 335.44,-270.63 326.41,-265.09 324.92,-271.93"/>
</a>
</g>
</g>
<!-- Node7 -->
<g id="Node000007" class="node">
<title>Node7</title>
<g id="a_Node000007"><a xlink:href="group__mynn__sfc_gaaefd04628906b35b8ba54bbf62e6a78f.html#gaaefd04628906b35b8ba54bbf62e6a78f" target="_top" xlink:title=" ">
<polygon fill="white" stroke="#666666" points="453,-231.5 335.75,-231.5 335.75,-201 453,-201 453,-231.5"/>
<text xml:space="preserve" text-anchor="start" x="343.75" y="-218" font-family="Source Sans Pro" font-size="10.00">module_sf_mynn::psim</text>
<text xml:space="preserve" text-anchor="middle" x="394.38" y="-206.75" font-family="Source Sans Pro" font-size="10.00">_stable_full</text>
</a>
</g>
</g>
<!-- Node2&#45;&gt;Node7 -->
<g id="edge10_Node000002_Node000007" class="edge">
<title>Node2&#45;&gt;Node7</title>
<g id="a_edge10_Node000002_Node000007"><a xlink:title=" ">
<path fill="none" stroke="#63b8ff" d="M284.94,-239.17C297.41,-236.53 311.11,-233.64 324.44,-230.82"/>
<polygon fill="#63b8ff" stroke="#63b8ff" points="324.98,-234.28 334.04,-228.79 323.54,-227.43 324.98,-234.28"/>
</a>
</g>
</g>
<!-- Node8 -->
<g id="Node000008" class="node">
<title>Node8</title>
<g id="a_Node000008"><a xlink:href="group__mynn__sfc_ga12649bf97aa4974c23a7723c418907e0.html#ga12649bf97aa4974c23a7723c418907e0" target="_top" xlink:title=" ">
<polygon fill="white" stroke="#666666" points="453,-164.5 335.75,-164.5 335.75,-134 453,-134 453,-164.5"/>
<text xml:space="preserve" text-anchor="start" x="343.75" y="-151" font-family="Source Sans Pro" font-size="10.00">module_sf_mynn::psim</text>
<text xml:space="preserve" text-anchor="middle" x="394.38" y="-139.75" font-family="Source Sans Pro" font-size="10.00">_stable_full_gfs</text>
</a>
</g>
</g>
<!-- Node2&#45;&gt;Node8 -->
<g id="edge12_Node000002_Node000008" class="edge">
<title>Node2&#45;&gt;Node8</title>
<g id="a_edge12_Node000002_Node000008"><a xlink:title=" ">
<path fill="none" stroke="#63b8ff" d="M252.79,-239.3C277.57,-223.42 326.61,-192.01 359.7,-170.82"/>
<polygon fill="#63b8ff" stroke="#63b8ff" points="361.19,-174.02 367.72,-165.68 357.42,-168.13 361.19,-174.02"/>
</a>
</g>
</g>
<!-- Node9 -->
<g id="Node000009" class="node">
<title>Node9</title>
<g id="a_Node000009"><a xlink:href="group__mynn__sfc_gace0216359bf098fd5cc7fa7cb8b3b716.html#gace0216359bf098fd5cc7fa7cb8b3b716" target="_top" xlink:title=" ">
<polygon fill="white" stroke="#666666" points="453,-97.5 335.75,-97.5 335.75,-67 453,-67 453,-97.5"/>
<text xml:space="preserve" text-anchor="start" x="343.75" y="-84" font-family="Source Sans Pro" font-size="10.00">module_sf_mynn::psim</text>
<text xml:space="preserve" text-anchor="middle" x="394.38" y="-72.75" font-family="Source Sans Pro" font-size="10.00">_unstable_full</text>
</a>
</g>
</g>
<!-- Node2&#45;&gt;Node9 -->
<g id="edge14_Node000002_Node000009" class="edge">
<title>Node2&#45;&gt;Node9</title>
<g id="a_edge14_Node000002_Node000009"><a xlink:title=" ">
<path fill="none" stroke="#63b8ff" d="M243.89,-239.21C258.74,-217.14 296.48,-163.35 335.75,-125.25 343.24,-117.99 351.97,-110.88 360.35,-104.61"/>
<polygon fill="#63b8ff" stroke="#63b8ff" points="362.31,-107.52 368.34,-98.81 358.19,-101.85 362.31,-107.52"/>
</a>
</g>
</g>
<!-- Node10 -->
<g id="Node000010" class="node">
<title>Node10</title>
<g id="a_Node000010"><a xlink:href="group__mynn__sfc_ga8e88a4eb2ee98eb538da06f42215e8b7.html#ga8e88a4eb2ee98eb538da06f42215e8b7" target="_top" xlink:title=" ">
<polygon fill="white" stroke="#666666" points="453,-30.5 335.75,-30.5 335.75,0 453,0 453,-30.5"/>
<text xml:space="preserve" text-anchor="start" x="343.75" y="-17" font-family="Source Sans Pro" font-size="10.00">module_sf_mynn::psim</text>
<text xml:space="preserve" text-anchor="middle" x="394.38" y="-5.75" font-family="Source Sans Pro" font-size="10.00">_unstable_full_gfs</text>
</a>
</g>
</g>
<!-- Node2&#45;&gt;Node10 -->
<g id="edge16_Node000002_Node000010" class="edge">
<title>Node2&#45;&gt;Node10</title>
<g id="a_edge16_Node000002_Node000010"><a xlink:title=" ">
<path fill="none" stroke="#63b8ff" d="M240.59,-239.19C250.94,-209.12 284.86,-118.31 335.75,-58.25 342.19,-50.65 350.21,-43.61 358.2,-37.52"/>
<polygon fill="#63b8ff" stroke="#63b8ff" points="360.19,-40.41 366.25,-31.72 356.09,-34.73 360.19,-40.41"/>
</a>
</g>
</g>
<!-- Node3&#45;&gt;Node3 -->
<g id="edge3_Node000003_Node000003" class="edge">
<title>Node3&#45;&gt;Node3</title>
<g id="a_edge3_Node000003_Node000003"><a xlink:title=" ">
<path fill="none" stroke="#63b8ff" d="M366.36,-499.99C360.64,-509.06 369.98,-517.5 394.38,-517.5 407.72,-517.5 416.56,-514.97 420.89,-511.2"/>
<polygon fill="#63b8ff" stroke="#63b8ff" points="424.34,-511.86 422.19,-501.49 417.4,-510.93 424.34,-511.86"/>
</a>
</g>
</g>
<!-- Node4&#45;&gt;Node4 -->
<g id="edge5_Node000004_Node000004" class="edge">
<title>Node4&#45;&gt;Node4</title>
<g id="a_edge5_Node000004_Node000004"><a xlink:title=" ">
<path fill="none" stroke="#63b8ff" d="M366.36,-432.99C360.64,-442.06 369.98,-450.5 394.38,-450.5 407.72,-450.5 416.56,-447.97 420.89,-444.2"/>
<polygon fill="#63b8ff" stroke="#63b8ff" points="424.34,-444.86 422.19,-434.49 417.4,-443.93 424.34,-444.86"/>
</a>
</g>
</g>
<!-- Node5&#45;&gt;Node5 -->
<g id="edge7_Node000005_Node000005" class="edge">
<title>Node5&#45;&gt;Node5</title>
<g id="a_edge7_Node000005_Node000005"><a xlink:title=" ">
<path fill="none" stroke="#63b8ff" d="M366.36,-365.99C360.64,-375.06 369.98,-383.5 394.38,-383.5 407.72,-383.5 416.56,-380.97 420.89,-377.2"/>
<polygon fill="#63b8ff" stroke="#63b8ff" points="424.34,-377.86 422.19,-367.49 417.4,-376.93 424.34,-377.86"/>
</a>
</g>
</g>
<!-- Node6&#45;&gt;Node6 -->
<g id="edge9_Node000006_Node000006" class="edge">
<title>Node6&#45;&gt;Node6</title>
<g id="a_edge9_Node000006_Node000006"><a xlink:title=" ">
<path fill="none" stroke="#63b8ff" d="M366.36,-298.99C360.64,-308.06 369.98,-316.5 394.38,-316.5 407.72,-316.5 416.56,-313.97 420.89,-310.2"/>
<polygon fill="#63b8ff" stroke="#63b8ff" points="424.34,-310.86 422.19,-300.49 417.4,-309.93 424.34,-310.86"/>
</a>
</g>
</g>
<!-- Node7&#45;&gt;Node7 -->
<g id="edge11_Node000007_Node000007" class="edge">
<title>Node7&#45;&gt;Node7</title>
<g id="a_edge11_Node000007_Node000007"><a xlink:title=" ">
<path fill="none" stroke="#63b8ff" d="M366.36,-231.99C360.64,-241.06 369.98,-249.5 394.38,-249.5 407.72,-249.5 416.56,-246.97 420.89,-243.2"/>
<polygon fill="#63b8ff" stroke="#63b8ff" points="424.34,-243.86 422.19,-233.49 417.4,-242.93 424.34,-243.86"/>
</a>
</g>
</g>
<!-- Node8&#45;&gt;Node8 -->
<g id="edge13_Node000008_Node000008" class="edge">
<title>Node8&#45;&gt;Node8</title>
<g id="a_edge13_Node000008_Node000008"><a xlink:title=" ">
<path fill="none" stroke="#63b8ff" d="M366.36,-164.99C360.64,-174.06 369.98,-182.5 394.38,-182.5 407.72,-182.5 416.56,-179.97 420.89,-176.2"/>
<polygon fill="#63b8ff" stroke="#63b8ff" points="424.34,-176.86 422.19,-166.49 417.4,-175.93 424.34,-176.86"/>
</a>
</g>
</g>
<!-- Node9&#45;&gt;Node9 -->
<g id="edge15_Node000009_Node000009" class="edge">
<title>Node9&#45;&gt;Node9</title>
<g id="a_edge15_Node000009_Node000009"><a xlink:title=" ">
<path fill="none" stroke="#63b8ff" d="M366.36,-97.99C360.64,-107.06 369.98,-115.5 394.38,-115.5 407.72,-115.5 416.56,-112.97 420.89,-109.2"/>
<polygon fill="#63b8ff" stroke="#63b8ff" points="424.34,-109.86 422.19,-99.49 417.4,-108.93 424.34,-109.86"/>
</a>
</g>
</g>
<!-- Node10&#45;&gt;Node10 -->
<g id="edge17_Node000010_Node000010" class="edge">
<title>Node10&#45;&gt;Node10</title>
<g id="a_edge17_Node000010_Node000010"><a xlink:title=" ">
<path fill="none" stroke="#63b8ff" d="M366.36,-30.99C360.64,-40.06 369.98,-48.5 394.38,-48.5 407.72,-48.5 416.56,-45.97 420.89,-42.2"/>
<polygon fill="#63b8ff" stroke="#63b8ff" points="424.34,-42.86 422.19,-32.49 417.4,-41.93 424.34,-42.86"/>
</a>
</g>
</g>
</g>
</svg>
