<?xml version="1.0" encoding="UTF-8" standalone="no"?>
<!DOCTYPE svg PUBLIC "-//W3C//DTD SVG 1.1//EN"
 "http://www.w3.org/Graphics/SVG/1.1/DTD/svg11.dtd">
<!-- Generated by graphviz version 14.1.2 (20260124.0452)
 -->
<!-- Title: noahmp_glacier_routines::divide_glacier Pages: 1 -->
<svg width="612pt" height="39pt"
 viewBox="0.00 0.00 612.00 39.00" xmlns="http://www.w3.org/2000/svg" xmlns:xlink="http://www.w3.org/1999/xlink">
<g id="graph0" class="graph" transform="scale(1 1) rotate(0) translate(4 34.5)">
<title>noahmp_glacier_routines::divide_glacier</title>
<!-- Node1 -->
<g id="Node000001" class="node">
<title>Node1</title>
<g id="a_Node000001"><a xlink:title=" ">
<polygon fill="#999999" stroke="#666666" points="604,-30.5 480,-30.5 480,0 604,0 604,-30.5"/>
<text xml:space="preserve" text-anchor="start" x="488" y="-17" font-family="Source Sans Pro" font-size="10.00">noahmp_glacier_routines</text>
<text xml:space="preserve" text-anchor="middle" x="542" y="-5.75" font-family="Source Sans Pro" font-size="10.00">::divide_glacier</text>
</a>
</g>
</g>
<!-- Node2 -->
<g id="Node000002" class="node">
<title>Node2</title>
<g id="a_Node000002"><a xlink:href="group___noah_m_p___l_s_m_ga7e56aa2916d87208019c88446904b04b.html#ga7e56aa2916d87208019c88446904b04b" target="_top" xlink:title=" ">
<polygon fill="white" stroke="#666666" points="444,-30.5 320,-30.5 320,0 444,0 444,-30.5"/>
<text xml:space="preserve" text-anchor="start" x="328" y="-17" font-family="Source Sans Pro" font-size="10.00">noahmp_glacier_routines</text>
<text xml:space="preserve" text-anchor="middle" x="382" y="-5.75" font-family="Source Sans Pro" font-size="10.00">::snowwater_glacier</text>
</a>
</g>
</g>
<!-- Node1&#45;&gt;Node2 -->
<g id="edge1_Node000001_Node000002" class="edge">
<title>Node1&#45;&gt;Node2</title>
<g id="a_edge1_Node000001_Node000002"><a xlink:title=" ">
<path fill="none" stroke="#63b8ff" d="M468.6,-15.25C460.53,-15.25 452.36,-15.25 444.45,-15.25"/>
<polygon fill="#63b8ff" stroke="#63b8ff" points="468.4,-18.75 478.4,-15.25 468.4,-11.75 468.4,-18.75"/>
</a>
</g>
</g>
<!-- Node3 -->
<g id="Node000003" class="node">
<title>Node3</title>
<g id="a_Node000003"><a xlink:href="group___noah_m_p___l_s_m_ga7f8fc6fe269c4c0666edaf50859bfbce.html#ga7f8fc6fe269c4c0666edaf50859bfbce" target="_top" xlink:title=" ">
<polygon fill="white" stroke="#666666" points="284,-30.5 160,-30.5 160,0 284,0 284,-30.5"/>
<text xml:space="preserve" text-anchor="start" x="168" y="-17" font-family="Source Sans Pro" font-size="10.00">noahmp_glacier_routines</text>
<text xml:space="preserve" text-anchor="middle" x="222" y="-5.75" font-family="Source Sans Pro" font-size="10.00">::water_glacier</text>
</a>
</g>
</g>
<!-- Node2&#45;&gt;Node3 -->
<g id="edge2_Node000002_Node000003" class="edge">
<title>Node2&#45;&gt;Node3</title>
<g id="a_edge2_Node000002_Node000003"><a xlink:title=" ">
<path fill="none" stroke="#63b8ff" d="M308.6,-15.25C300.53,-15.25 292.36,-15.25 284.45,-15.25"/>
<polygon fill="#63b8ff" stroke="#63b8ff" points="308.4,-18.75 318.4,-15.25 308.4,-11.75 308.4,-18.75"/>
</a>
</g>
</g>
<!-- Node4 -->
<g id="Node000004" class="node">
<title>Node4</title>
<g id="a_Node000004"><a xlink:href="group___noah_m_p___l_s_m_ga86c69e134a41160e0c6f06bfb3a654a6.html#ga86c69e134a41160e0c6f06bfb3a654a6" target="_top" xlink:title=" ">
<polygon fill="white" stroke="#666666" points="124,-30.5 0,-30.5 0,0 124,0 124,-30.5"/>
<text xml:space="preserve" text-anchor="start" x="8" y="-17" font-family="Source Sans Pro" font-size="10.00">noahmp_glacier_routines</text>
<text xml:space="preserve" text-anchor="middle" x="62" y="-5.75" font-family="Source Sans Pro" font-size="10.00">::noahmp_glacier</text>
</a>
</g>
</g>
<!-- Node3&#45;&gt;Node4 -->
<g id="edge3_Node000003_Node000004" class="edge">
<title>Node3&#45;&gt;Node4</title>
<g id="a_edge3_Node000003_Node000004"><a xlink:title=" ">
<path fill="none" stroke="#63b8ff" d="M148.6,-15.25C140.53,-15.25 132.36,-15.25 124.45,-15.25"/>
<polygon fill="#63b8ff" stroke="#63b8ff" points="148.4,-18.75 158.4,-15.25 148.4,-11.75 148.4,-18.75"/>
</a>
</g>
</g>
</g>
</svg>
