<?xml version="1.0" encoding="UTF-8" standalone="no"?>
<!DOCTYPE svg PUBLIC "-//W3C//DTD SVG 1.1//EN"
 "http://www.w3.org/Graphics/SVG/1.1/DTD/svg11.dtd">
<!-- Generated by graphviz version 14.1.2 (20260124.0452)
 -->
<!-- Title: module_bl_mynn::condensation_edmf Pages: 1 -->
<svg width="701pt" height="70pt"
 viewBox="0.00 0.00 701.00 70.00" xmlns="http://www.w3.org/2000/svg" xmlns:xlink="http://www.w3.org/1999/xlink">
<g id="graph0" class="graph" transform="scale(1 1) rotate(0) translate(4 65.88)">
<title>module_bl_mynn::condensation_edmf</title>
<!-- Node1 -->
<g id="Node000001" class="node">
<title>Node1</title>
<g id="a_Node000001"><a xlink:title="This subroutine.">
<polygon fill="#999999" stroke="#666666" points="693.25,-42.88 513,-42.88 513,-23.62 693.25,-23.62 693.25,-42.88"/>
<text xml:space="preserve" text-anchor="middle" x="603.12" y="-29.38" font-family="Source Sans Pro" font-size="10.00">module_bl_mynn::condensation_edmf</text>
</a>
</g>
</g>
<!-- Node2 -->
<g id="Node000002" class="node">
<title>Node2</title>
<g id="a_Node000002"><a xlink:href="namespacemodule__bl__mynn_a368a8a7b0a2166fb291fd875ba771968.html#a368a8a7b0a2166fb291fd875ba771968" target="_top" xlink:title=" ">
<polygon fill="white" stroke="#666666" points="477,-61.88 344.75,-61.88 344.75,-42.62 477,-42.62 477,-61.88"/>
<text xml:space="preserve" text-anchor="middle" x="410.88" y="-48.38" font-family="Source Sans Pro" font-size="10.00">module_bl_mynn::ddmf_jpl</text>
</a>
</g>
</g>
<!-- Node1&#45;&gt;Node2 -->
<g id="edge1_Node000001_Node000002" class="edge">
<title>Node1&#45;&gt;Node2</title>
<g id="a_edge1_Node000001_Node000002"><a xlink:title=" ">
<path fill="none" stroke="#63b8ff" d="M501.17,-43.33C493.11,-44.14 485.11,-44.94 477.4,-45.71"/>
<polygon fill="#63b8ff" stroke="#63b8ff" points="501.46,-46.82 511.06,-42.34 500.77,-39.86 501.46,-46.82"/>
</a>
</g>
</g>
<!-- Node3 -->
<g id="Node000003" class="node">
<title>Node3</title>
<g id="a_Node000003"><a xlink:href="group__gp__mynnedmf_ga1a32198222c028ebc56fe79f6872be53.html#ga1a32198222c028ebc56fe79f6872be53" target="_top" xlink:title="This subroutine is the Dynamic Multi&#45;Plume (DMP) Mass&#45;Flux Scheme.">
<polygon fill="white" stroke="#666666" points="476.25,-24.88 345.5,-24.88 345.5,-5.63 476.25,-5.63 476.25,-24.88"/>
<text xml:space="preserve" text-anchor="middle" x="410.88" y="-11.38" font-family="Source Sans Pro" font-size="10.00">module_bl_mynn::dmp_mf</text>
</a>
</g>
</g>
<!-- Node1&#45;&gt;Node3 -->
<g id="edge2_Node000001_Node000003" class="edge">
<title>Node1&#45;&gt;Node3</title>
<g id="a_edge2_Node000001_Node000003"><a xlink:title=" ">
<path fill="none" stroke="#63b8ff" d="M501.18,-23.7C492.83,-22.91 484.54,-22.13 476.57,-21.37"/>
<polygon fill="#63b8ff" stroke="#63b8ff" points="500.78,-27.18 511.06,-24.63 501.44,-20.21 500.78,-27.18"/>
</a>
</g>
</g>
<!-- Node4 -->
<g id="Node000004" class="node">
<title>Node4</title>
<g id="a_Node000004"><a xlink:href="group__gp__mynnedmf_ga727e10ec7e7a73d34a7f50dadbda2b83.html#ga727e10ec7e7a73d34a7f50dadbda2b83" target="_top" xlink:title="This subroutine is the MYNN&#45;EDNF PBL driver routine,which encompassed the majority of the subroutines...">
<polygon fill="white" stroke="#666666" points="308.75,-30.5 189.25,-30.5 189.25,0 308.75,0 308.75,-30.5"/>
<text xml:space="preserve" text-anchor="start" x="197.25" y="-17" font-family="Source Sans Pro" font-size="10.00">module_bl_mynn::mynn</text>
<text xml:space="preserve" text-anchor="middle" x="249" y="-5.75" font-family="Source Sans Pro" font-size="10.00">_bl_driver</text>
</a>
</g>
</g>
<!-- Node3&#45;&gt;Node4 -->
<g id="edge3_Node000003_Node000004" class="edge">
<title>Node3&#45;&gt;Node4</title>
<g id="a_edge3_Node000003_Node000004"><a xlink:title=" ">
<path fill="none" stroke="#63b8ff" d="M333.99,-15.25C325.64,-15.25 317.23,-15.25 309.13,-15.25"/>
<polygon fill="#63b8ff" stroke="#63b8ff" points="333.8,-18.75 343.8,-15.25 333.79,-11.75 333.8,-18.75"/>
</a>
</g>
</g>
<!-- Node5 -->
<g id="Node000005" class="node">
<title>Node5</title>
<g id="a_Node000005"><a xlink:href="namespacemynnedmf__wrapper_aa6a54f8cc283d97e9c1d299ce2be79d3.html#aa6a54f8cc283d97e9c1d299ce2be79d3" target="_top" xlink:title=" ">
<polygon fill="white" stroke="#666666" points="153.25,-30.5 0,-30.5 0,0 153.25,0 153.25,-30.5"/>
<text xml:space="preserve" text-anchor="start" x="8" y="-17" font-family="Source Sans Pro" font-size="10.00">mynnedmf_wrapper::mynnedmf</text>
<text xml:space="preserve" text-anchor="middle" x="76.62" y="-5.75" font-family="Source Sans Pro" font-size="10.00">_wrapper_run</text>
</a>
</g>
</g>
<!-- Node4&#45;&gt;Node5 -->
<g id="edge4_Node000004_Node000005" class="edge">
<title>Node4&#45;&gt;Node5</title>
<g id="a_edge4_Node000004_Node000005"><a xlink:title=" ">
<path fill="none" stroke="#63b8ff" d="M177.54,-15.25C169.68,-15.25 161.66,-15.25 153.74,-15.25"/>
<polygon fill="#63b8ff" stroke="#63b8ff" points="177.38,-18.75 187.38,-15.25 177.38,-11.75 177.38,-18.75"/>
</a>
</g>
</g>
</g>
</svg>
