<?xml version="1.0" encoding="UTF-8" standalone="no"?>
<!DOCTYPE svg PUBLIC "-//W3C//DTD SVG 1.1//EN"
 "http://www.w3.org/Graphics/SVG/1.1/DTD/svg11.dtd">
<!-- Generated by graphviz version 14.1.2 (20260124.0452)
 -->
<!-- Title: module_sf_mynn::psim_unstable Pages: 1 -->
<svg width="684pt" height="107pt"
 viewBox="0.00 0.00 684.00 107.00" xmlns="http://www.w3.org/2000/svg" xmlns:xlink="http://www.w3.org/1999/xlink">
<g id="graph0" class="graph" transform="scale(1 1) rotate(0) translate(4 102.88)">
<title>module_sf_mynn::psim_unstable</title>
<!-- Node1 -->
<g id="Node000001" class="node">
<title>Node1</title>
<g id="a_Node000001"><a xlink:title=" ">
<polygon fill="#999999" stroke="#666666" points="676,-61.88 558.75,-61.88 558.75,-31.38 676,-31.38 676,-61.88"/>
<text xml:space="preserve" text-anchor="start" x="566.75" y="-48.38" font-family="Source Sans Pro" font-size="10.00">module_sf_mynn::psim</text>
<text xml:space="preserve" text-anchor="middle" x="617.38" y="-37.12" font-family="Source Sans Pro" font-size="10.00">_unstable</text>
</a>
</g>
</g>
<!-- Node1&#45;&gt;Node1 -->
<g id="edge1_Node000001_Node000001" class="edge">
<title>Node1&#45;&gt;Node1</title>
<g id="a_edge1_Node000001_Node000001"><a xlink:title=" ">
<path fill="none" stroke="#63b8ff" d="M646.85,-73.58C642.03,-77.35 632.2,-79.88 617.38,-79.88 590.26,-79.88 579.88,-71.43 586.23,-62.36"/>
<polygon fill="#63b8ff" stroke="#63b8ff" points="650.28,-74.26 648.3,-63.86 643.36,-73.23 650.28,-74.26"/>
</a>
</g>
</g>
<!-- Node2 -->
<g id="Node000002" class="node">
<title>Node2</title>
<g id="a_Node000002"><a xlink:href="group__mynn__sfc_ga51403acc4b5f2876fedbb82b29a2dc2e.html#ga51403acc4b5f2876fedbb82b29a2dc2e" target="_top" xlink:title="This subroutine calculates u*, z/L, and the exchange coefficients which are passed to subsequent sche...">
<polygon fill="white" stroke="#666666" points="522.75,-93.25 360.5,-93.25 360.5,-74 522.75,-74 522.75,-93.25"/>
<text xml:space="preserve" text-anchor="middle" x="441.62" y="-79.75" font-family="Source Sans Pro" font-size="10.00">module_sf_mynn::sfclay1d_mynn</text>
</a>
</g>
</g>
<!-- Node1&#45;&gt;Node2 -->
<g id="edge2_Node000001_Node000002" class="edge">
<title>Node1&#45;&gt;Node2</title>
<g id="a_edge2_Node000001_Node000002"><a xlink:title=" ">
<path fill="none" stroke="#63b8ff" d="M547.39,-61.32C528.19,-65.4 507.77,-69.75 490.11,-73.51"/>
<polygon fill="#63b8ff" stroke="#63b8ff" points="547.99,-64.77 557.04,-59.26 546.53,-57.92 547.99,-64.77"/>
</a>
</g>
</g>
<!-- Node5 -->
<g id="Node000005" class="node">
<title>Node5</title>
<g id="a_Node000005"><a xlink:href="namespacemodule__sf__mynn_a90fd8579b051a294a6626abe29d7b108.html#a90fd8579b051a294a6626abe29d7b108" target="_top" xlink:title=" ">
<polygon fill="white" stroke="#666666" points="501.38,-56.25 381.88,-56.25 381.88,-37 501.38,-37 501.38,-56.25"/>
<text xml:space="preserve" text-anchor="middle" x="441.62" y="-42.75" font-family="Source Sans Pro" font-size="10.00">module_sf_mynn::zolri2</text>
</a>
</g>
</g>
<!-- Node1&#45;&gt;Node5 -->
<g id="edge5_Node000001_Node000005" class="edge">
<title>Node1&#45;&gt;Node5</title>
<g id="a_edge5_Node000001_Node000005"><a xlink:title=" ">
<path fill="none" stroke="#63b8ff" d="M547.18,-46.62C532.13,-46.62 516.33,-46.62 501.71,-46.62"/>
<polygon fill="#63b8ff" stroke="#63b8ff" points="547.01,-50.13 557.01,-46.63 547.01,-43.13 547.01,-50.13"/>
</a>
</g>
</g>
<!-- Node6 -->
<g id="Node000006" class="node">
<title>Node6</title>
<g id="a_Node000006"><a xlink:href="namespacemodule__sf__mynn_ad99d17e1d30aa8eb9716e9519518eb9d.html#ad99d17e1d30aa8eb9716e9519518eb9d" target="_top" xlink:title=" ">
<polygon fill="white" stroke="#666666" points="501.38,-19.25 381.88,-19.25 381.88,0 501.38,0 501.38,-19.25"/>
<text xml:space="preserve" text-anchor="middle" x="441.62" y="-5.75" font-family="Source Sans Pro" font-size="10.00">module_sf_mynn::zolrib</text>
</a>
</g>
</g>
<!-- Node1&#45;&gt;Node6 -->
<g id="edge6_Node000001_Node000006" class="edge">
<title>Node1&#45;&gt;Node6</title>
<g id="a_edge6_Node000001_Node000006"><a xlink:title=" ">
<path fill="none" stroke="#63b8ff" d="M547.39,-31.93C528.19,-27.85 507.77,-23.5 490.11,-19.74"/>
<polygon fill="#63b8ff" stroke="#63b8ff" points="546.53,-35.33 557.04,-33.99 547.99,-28.48 546.53,-35.33"/>
</a>
</g>
</g>
<!-- Node3 -->
<g id="Node000003" class="node">
<title>Node3</title>
<g id="a_Node000003"><a xlink:href="group__mynn__sfc_gac0ece656c5688dd834becc8babfad72c.html#gac0ece656c5688dd834becc8babfad72c" target="_top" xlink:title="This subroutine.">
<polygon fill="white" stroke="#666666" points="324.5,-93.25 172.75,-93.25 172.75,-74 324.5,-74 324.5,-93.25"/>
<text xml:space="preserve" text-anchor="middle" x="248.62" y="-79.75" font-family="Source Sans Pro" font-size="10.00">module_sf_mynn::sfclay_mynn</text>
</a>
</g>
</g>
<!-- Node2&#45;&gt;Node3 -->
<g id="edge3_Node000002_Node000003" class="edge">
<title>Node2&#45;&gt;Node3</title>
<g id="a_edge3_Node000002_Node000003"><a xlink:title=" ">
<path fill="none" stroke="#63b8ff" d="M348.84,-83.62C340.79,-83.62 332.7,-83.62 324.8,-83.62"/>
<polygon fill="#63b8ff" stroke="#63b8ff" points="348.66,-87.13 358.66,-83.63 348.66,-80.13 348.66,-87.13"/>
</a>
</g>
</g>
<!-- Node4 -->
<g id="Node000004" class="node">
<title>Node4</title>
<g id="a_Node000004"><a xlink:href="group__mynn__sfc_gacc51d950a2377e011c8f110ff091c4d4.html#gacc51d950a2377e011c8f110ff091c4d4" target="_top" xlink:title=" ">
<polygon fill="white" stroke="#666666" points="136.75,-98.88 0,-98.88 0,-68.38 136.75,-68.38 136.75,-98.88"/>
<text xml:space="preserve" text-anchor="start" x="8" y="-85.38" font-family="Source Sans Pro" font-size="10.00">mynnsfc_wrapper::mynnsfc</text>
<text xml:space="preserve" text-anchor="middle" x="68.38" y="-74.12" font-family="Source Sans Pro" font-size="10.00">_wrapper_run</text>
</a>
</g>
</g>
<!-- Node3&#45;&gt;Node4 -->
<g id="edge4_Node000003_Node000004" class="edge">
<title>Node3&#45;&gt;Node4</title>
<g id="a_edge4_Node000003_Node000004"><a xlink:title=" ">
<path fill="none" stroke="#63b8ff" d="M160.99,-83.62C152.96,-83.62 144.91,-83.62 137.09,-83.62"/>
<polygon fill="#63b8ff" stroke="#63b8ff" points="160.78,-87.13 170.78,-83.63 160.78,-80.13 160.78,-87.13"/>
</a>
</g>
</g>
</g>
</svg>
