<?xml version="1.0" encoding="UTF-8" standalone="no"?>
<!DOCTYPE svg PUBLIC "-//W3C//DTD SVG 1.1//EN"
 "http://www.w3.org/Graphics/SVG/1.1/DTD/svg11.dtd">
<!-- Generated by graphviz version 14.1.2 (20260124.0452)
 -->
<!-- Title: cu_gf_deep::get_inversion_layers Pages: 1 -->
<svg width="451pt" height="64pt"
 viewBox="0.00 0.00 451.00 64.00" xmlns="http://www.w3.org/2000/svg" xmlns:xlink="http://www.w3.org/1999/xlink">
<g id="graph0" class="graph" transform="scale(1 1) rotate(0) translate(4 60.25)">
<title>cu_gf_deep::get_inversion_layers</title>
<!-- Node1 -->
<g id="Node000001" class="node">
<title>Node1</title>
<g id="a_Node000001"><a xlink:title="Finds temperature inversions using the first and second derivative of temperature.">
<polygon fill="#999999" stroke="#666666" points="442.5,-42.88 312.5,-42.88 312.5,-12.37 442.5,-12.37 442.5,-42.88"/>
<text xml:space="preserve" text-anchor="start" x="320.5" y="-29.38" font-family="Source Sans Pro" font-size="10.00">cu_gf_deep::get_inversion</text>
<text xml:space="preserve" text-anchor="middle" x="377.5" y="-18.12" font-family="Source Sans Pro" font-size="10.00">_layers</text>
</a>
</g>
</g>
<!-- Node2 -->
<g id="Node000002" class="node">
<title>Node2</title>
<g id="a_Node000002"><a xlink:href="group__cu__gf__deep__group_ga6fb15c7cf491936bd0b501eb4a7c3147.html#ga6fb15c7cf491936bd0b501eb4a7c3147" target="_top" xlink:title="Driver for the deep or congestus GF routine.">
<polygon fill="white" stroke="#666666" points="276.5,-56.25 135.25,-56.25 135.25,-37 276.5,-37 276.5,-56.25"/>
<text xml:space="preserve" text-anchor="middle" x="205.88" y="-42.75" font-family="Source Sans Pro" font-size="10.00">cu_gf_deep::cu_gf_deep_run</text>
</a>
</g>
</g>
<!-- Node1&#45;&gt;Node2 -->
<g id="edge1_Node000001_Node000002" class="edge">
<title>Node1&#45;&gt;Node2</title>
<g id="a_edge1_Node000001_Node000002"><a xlink:title=" ">
<path fill="none" stroke="#63b8ff" d="M301.05,-36.08C292.97,-36.98 284.78,-37.9 276.76,-38.8"/>
<polygon fill="#63b8ff" stroke="#63b8ff" points="301.32,-39.57 310.87,-34.98 300.54,-32.61 301.32,-39.57"/>
</a>
</g>
</g>
<!-- Node4 -->
<g id="Node000004" class="node">
<title>Node4</title>
<g id="a_Node000004"><a xlink:href="group__cu__gf__sh__group_gac3f853aacccfdee63bf9a5e64611683f.html#gac3f853aacccfdee63bf9a5e64611683f" target="_top" xlink:title=" ">
<polygon fill="white" stroke="#666666" points="266,-19.25 145.75,-19.25 145.75,0 266,0 266,-19.25"/>
<text xml:space="preserve" text-anchor="middle" x="205.88" y="-5.75" font-family="Source Sans Pro" font-size="10.00">cu_gf_sh::cu_gf_sh_run</text>
</a>
</g>
</g>
<!-- Node1&#45;&gt;Node4 -->
<g id="edge3_Node000001_Node000004" class="edge">
<title>Node1&#45;&gt;Node4</title>
<g id="a_edge3_Node000001_Node000004"><a xlink:title=" ">
<path fill="none" stroke="#63b8ff" d="M301.26,-19.64C289.57,-18.4 277.62,-17.13 266.34,-15.94"/>
<polygon fill="#63b8ff" stroke="#63b8ff" points="300.55,-23.09 310.87,-20.66 301.29,-16.12 300.55,-23.09"/>
</a>
</g>
</g>
<!-- Node3 -->
<g id="Node000003" class="node">
<title>Node3</title>
<g id="a_Node000003"><a xlink:href="group__cu__gf__group_ga5d2242a3e3ed78e40c6b81ee2538801b.html#ga5d2242a3e3ed78e40c6b81ee2538801b" target="_top" xlink:title="This is the Grell&#45;Freitas convection scheme driver module.">
<polygon fill="white" stroke="#666666" points="99.25,-42.88 0,-42.88 0,-12.37 99.25,-12.37 99.25,-42.88"/>
<text xml:space="preserve" text-anchor="start" x="8" y="-29.38" font-family="Source Sans Pro" font-size="10.00">cu_gf_driver::cu_gf</text>
<text xml:space="preserve" text-anchor="middle" x="49.62" y="-18.12" font-family="Source Sans Pro" font-size="10.00">_driver_run</text>
</a>
</g>
</g>
<!-- Node2&#45;&gt;Node3 -->
<g id="edge2_Node000002_Node000003" class="edge">
<title>Node2&#45;&gt;Node3</title>
<g id="a_edge2_Node000002_Node000003"><a xlink:title=" ">
<path fill="none" stroke="#63b8ff" d="M123.73,-36.63C115.49,-35.61 107.3,-34.61 99.56,-33.65"/>
<polygon fill="#63b8ff" stroke="#63b8ff" points="123.12,-40.08 133.47,-37.83 123.97,-33.13 123.12,-40.08"/>
</a>
</g>
</g>
<!-- Node4&#45;&gt;Node3 -->
<g id="edge4_Node000004_Node000003" class="edge">
<title>Node4&#45;&gt;Node3</title>
<g id="a_edge4_Node000004_Node000003"><a xlink:title=" ">
<path fill="none" stroke="#63b8ff" d="M134.43,-17.85C122.59,-19.23 110.54,-20.63 99.4,-21.93"/>
<polygon fill="#63b8ff" stroke="#63b8ff" points="134.65,-21.34 144.18,-16.71 133.84,-14.39 134.65,-21.34"/>
</a>
</g>
</g>
</g>
</svg>
