<?xml version="1.0" encoding="UTF-8" standalone="no"?>
<!DOCTYPE svg PUBLIC "-//W3C//DTD SVG 1.1//EN"
 "http://www.w3.org/Graphics/SVG/1.1/DTD/svg11.dtd">
<!-- Generated by graphviz version 14.1.2 (20260124.0452)
 -->
<!-- Title: module_sf_ruclsm::snowseaice Pages: 1 -->
<svg width="641pt" height="46pt"
 viewBox="0.00 0.00 641.00 46.00" xmlns="http://www.w3.org/2000/svg" xmlns:xlink="http://www.w3.org/1999/xlink">
<g id="graph0" class="graph" transform="scale(1 1) rotate(0) translate(4 42.25)">
<title>module_sf_ruclsm::snowseaice</title>
<!-- Node1 -->
<g id="Node000001" class="node">
<title>Node1</title>
<g id="a_Node000001"><a xlink:title="This subroutine is called for sea ice with accumulated snow on its surface. It solves energy budget o...">
<polygon fill="#999999" stroke="#666666" points="633.25,-38.25 480,-38.25 480,-19 633.25,-19 633.25,-38.25"/>
<text xml:space="preserve" text-anchor="middle" x="556.62" y="-24.75" font-family="Source Sans Pro" font-size="10.00">module_sf_ruclsm::snowseaice</text>
</a>
</g>
</g>
<!-- Node2 -->
<g id="Node000002" class="node">
<title>Node2</title>
<g id="a_Node000002"><a xlink:href="group__lsm__ruc__group_gad9dd50472f87539dfaccb42d5495f831.html#gad9dd50472f87539dfaccb42d5495f831" target="_top" xlink:title="This subroutine solves energy and moisture budgets.">
<polygon fill="white" stroke="#666666" points="444,-38.25 312.5,-38.25 312.5,-19 444,-19 444,-38.25"/>
<text xml:space="preserve" text-anchor="middle" x="378.25" y="-24.75" font-family="Source Sans Pro" font-size="10.00">module_sf_ruclsm::sfctmp</text>
</a>
</g>
</g>
<!-- Node1&#45;&gt;Node2 -->
<g id="edge1_Node000001_Node000002" class="edge">
<title>Node1&#45;&gt;Node2</title>
<g id="a_edge1_Node000001_Node000002"><a xlink:title=" ">
<path fill="none" stroke="#63b8ff" d="M468.2,-28.62C460.14,-28.62 452.08,-28.62 444.28,-28.62"/>
<polygon fill="#63b8ff" stroke="#63b8ff" points="468.03,-32.13 478.03,-28.63 468.03,-25.13 468.03,-32.13"/>
</a>
</g>
</g>
<!-- Node3 -->
<g id="Node000003" class="node">
<title>Node3</title>
<g id="a_Node000003"><a xlink:href="namespacelsm__ruc_affabfffd45a10349230af3cd4fc7cdeb.html#affabfffd45a10349230af3cd4fc7cdeb" target="_top" xlink:title=" ">
<polygon fill="white" stroke="#666666" points="109.75,-38.25 0,-38.25 0,-19 109.75,-19 109.75,-38.25"/>
<text xml:space="preserve" text-anchor="middle" x="54.88" y="-24.75" font-family="Source Sans Pro" font-size="10.00">lsm_ruc::lsm_ruc_run</text>
</a>
</g>
</g>
<!-- Node2&#45;&gt;Node3 -->
<g id="edge2_Node000002_Node000003" class="edge">
<title>Node2&#45;&gt;Node3</title>
<g id="a_edge2_Node000002_Node000003"><a xlink:title=" ">
<path fill="none" stroke="#63b8ff" d="M300.77,-28.62C242.05,-28.62 162.44,-28.62 110.14,-28.62"/>
<polygon fill="#63b8ff" stroke="#63b8ff" points="300.7,-32.13 310.7,-28.63 300.7,-25.13 300.7,-32.13"/>
</a>
</g>
</g>
<!-- Node4 -->
<g id="Node000004" class="node">
<title>Node4</title>
<g id="a_Node000004"><a xlink:href="group__lsm__ruc__group_ga919051c947b9bd7272399d4b681ba2a8.html#ga919051c947b9bd7272399d4b681ba2a8" target="_top" xlink:title="The RUN LSM model is described in Smirnova et al.(1997) smirnova_1997 and Smirnova et al....">
<polygon fill="white" stroke="#666666" points="276.5,-19.25 145.75,-19.25 145.75,0 276.5,0 276.5,-19.25"/>
<text xml:space="preserve" text-anchor="middle" x="211.12" y="-5.75" font-family="Source Sans Pro" font-size="10.00">module_sf_ruclsm::lsmruc</text>
</a>
</g>
</g>
<!-- Node2&#45;&gt;Node4 -->
<g id="edge3_Node000002_Node000004" class="edge">
<title>Node2&#45;&gt;Node4</title>
<g id="a_edge3_Node000002_Node000004"><a xlink:title=" ">
<path fill="none" stroke="#63b8ff" d="M301.14,-19.87C293.07,-18.94 284.92,-18 277,-17.09"/>
<polygon fill="#63b8ff" stroke="#63b8ff" points="300.62,-23.33 310.96,-21 301.42,-16.38 300.62,-23.33"/>
</a>
</g>
</g>
<!-- Node4&#45;&gt;Node3 -->
<g id="edge4_Node000004_Node000003" class="edge">
<title>Node4&#45;&gt;Node3</title>
<g id="a_edge4_Node000004_Node000003"><a xlink:title=" ">
<path fill="none" stroke="#63b8ff" d="M134.37,-18.96C126.1,-19.97 117.81,-21 109.88,-21.97"/>
<polygon fill="#63b8ff" stroke="#63b8ff" points="134.6,-22.45 144.1,-17.76 133.75,-15.51 134.6,-22.45"/>
</a>
</g>
</g>
</g>
</svg>
