<?xml version="1.0" encoding="UTF-8" standalone="no"?>
<!DOCTYPE svg PUBLIC "-//W3C//DTD SVG 1.1//EN"
 "http://www.w3.org/Graphics/SVG/1.1/DTD/svg11.dtd">
<!-- Generated by graphviz version 14.1.2 (20260124.0452)
 -->
<!-- Title: sfc_diag::sfc_diag_run Pages: 1 -->
<!--zoomable 175 -->

<svg id="main" version="1.1" xmlns="http://www.w3.org/2000/svg" xmlns:xlink="http://www.w3.org/1999/xlink" xml:space="preserve" onload="init(evt)">

<style type="text/css"><![CDATA[
.node, .edge {opacity: 0.7;}
.node.selected, .edge.selected {opacity: 1;}
.edge:hover path { stroke: red; }
.edge:hover polygon { stroke: red; fill: red; }
]]></style>

<defs>
  <circle id="rim" cx="0" cy="0" r="7"/>
  <circle id="rim2" cx="0" cy="0" r="3.5"/>
  <g id="zoomPlus">
    <use xlink:href="#rim" fill="#404040"><set attributeName="fill" to="#808080" begin="zoomplus.mouseover" end="zoomplus.mouseout"/></use>
    <path d="M-4,0h8M0,-4v8" fill="none" stroke="white" stroke-width="1.5" pointer-events="none"/>
  </g>
  <g id="zoomMin">
    <use xlink:href="#rim" fill="#404040"><set attributeName="fill" to="#808080" begin="zoomminus.mouseover" end="zoomminus.mouseout"/></use>
    <path d="M-4,0h8" fill="none" stroke="white" stroke-width="1.5" pointer-events="none"/>
  </g>
  <g id="arrowUp" transform="translate(30 24)">
    <use xlink:href="#rim"/>
    <path pointer-events="none" fill="none" stroke="white" stroke-width="1.5" d="M0,-3.0v7 M-2.5,-0.5L0,-3.0L2.5,-0.5"/>
  </g>
  <g id="arrowRight" transform="rotate(90) translate(36 -43)">
    <use xlink:href="#rim"/>
    <path pointer-events="none" fill="none" stroke="white" stroke-width="1.5" d="M0,-3.0v7 M-2.5,-0.5L0,-3.0L2.5,-0.5"/>
  </g>
  <g id="arrowDown" transform="rotate(180) translate(-30 -48)">
    <use xlink:href="#rim"/>
    <path pointer-events="none" fill="none" stroke="white" stroke-width="1.5" d="M0,-3.0v7 M-2.5,-0.5L0,-3.0L2.5,-0.5"/>
  </g>
  <g id="arrowLeft" transform="rotate(270) translate(-36 17)">
    <use xlink:href="#rim"/>
    <path pointer-events="none" fill="none" stroke="white" stroke-width="1.5" d="M0,-3.0v7 M-2.5,-0.5L0,-3.0L2.5,-0.5"/>
  </g>
  <g id="resetDef">
    <use xlink:href="#rim2" fill="#404040"><set attributeName="fill" to="#808080" begin="reset.mouseover" end="reset.mouseout"/></use>
  </g>
</defs>
<script type="application/ecmascript">
var viewWidth = 501;
var viewHeight = 175;
var sectionId = 'dynsection-0';
</script>
<script type="application/ecmascript" xlink:href="svg.min.js"/>
<svg id="graph" class="graph">
<g id="viewport">
<title>sfc_diag::sfc_diag_run</title>
<!-- Node1 -->
<g id="Node000001" class="node">
<title>Node1</title>
<g id="a_Node000001"><a xlink:title=" ">
<polygon fill="#999999" stroke="#666666" points="114.25,-56.25 0,-56.25 0,-37 114.25,-37 114.25,-56.25"/>
<text xml:space="preserve" text-anchor="middle" x="57.12" y="-42.75" font-family="Source Sans Pro" font-size="10.00">sfc_diag::sfc_diag_run</text>
</a>
</g>
</g>
<!-- Node2 -->
<g id="Node000002" class="node">
<title>Node2</title>
<g id="a_Node000002"><a xlink:href="group___noah___l_s_m_ga977daabf4ff68b28fc5ccd8796d815cd.html#ga977daabf4ff68b28fc5ccd8796d815cd" target="_top" xlink:title="This subroutine updates the temperature state of the soil column based on the thermal diffusion equat...">
<polygon fill="white" stroke="#666666" points="187.25,-56.25 150.25,-56.25 150.25,-37 187.25,-37 187.25,-56.25"/>
<text xml:space="preserve" text-anchor="middle" x="168.75" y="-42.75" font-family="Source Sans Pro" font-size="10.00">shflx</text>
</a>
</g>
</g>
<!-- Node1&#45;&gt;Node2 -->
<g id="edge1_Node000001_Node000002" class="edge">
<title>Node1&#45;&gt;Node2</title>
<g id="a_edge1_Node000001_Node000002"><a xlink:title=" ">
<path fill="none" stroke="#63b8ff" d="M114.54,-46.62C122.84,-46.62 131.1,-46.62 138.54,-46.62"/>
<polygon fill="#63b8ff" stroke="#63b8ff" points="138.29,-50.13 148.29,-46.63 138.29,-43.13 138.29,-50.13"/>
</a>
</g>
</g>
<!-- Node3 -->
<g id="Node000003" class="node">
<title>Node3</title>
<g id="a_Node000003"><a xlink:href="group___noah___l_s_m_gabb602c2b09396e2f94c9556259f5bae4.html#gabb602c2b09396e2f94c9556259f5bae4" target="_top" xlink:title="This subroutine calculates the right hand side of the time tendency term of the soil thermal diffusio...">
<polygon fill="white" stroke="#666666" points="257.65,-93.25 228.85,-93.25 228.85,-74 257.65,-74 257.65,-93.25"/>
<text xml:space="preserve" text-anchor="middle" x="243.25" y="-79.75" font-family="Source Sans Pro" font-size="10.00">hrt</text>
</a>
</g>
</g>
<!-- Node2&#45;&gt;Node3 -->
<g id="edge2_Node000002_Node000003" class="edge">
<title>Node2&#45;&gt;Node3</title>
<g id="a_edge2_Node000002_Node000003"><a xlink:title=" ">
<path fill="none" stroke="#63b8ff" d="M187.67,-55.77C196.91,-60.49 208.3,-66.3 218.29,-71.4"/>
<polygon fill="#63b8ff" stroke="#63b8ff" points="216.55,-74.44 227.05,-75.87 219.73,-68.2 216.55,-74.44"/>
</a>
</g>
</g>
<!-- Node10 -->
<g id="Node000010" class="node">
<title>Node10</title>
<g id="a_Node000010"><a xlink:href="group___noah___l_s_m_ga32e89df3740f968f500900125ae9633d.html#ga32e89df3740f968f500900125ae9633d" target="_top" xlink:title="This subroutine calculates the right hand side of the time tendency term of the soil thermal diffusio...">
<polygon fill="white" stroke="#666666" points="263.25,-56.25 223.25,-56.25 223.25,-37 263.25,-37 263.25,-56.25"/>
<text xml:space="preserve" text-anchor="middle" x="243.25" y="-42.75" font-family="Source Sans Pro" font-size="10.00">hrtice</text>
</a>
</g>
</g>
<!-- Node2&#45;&gt;Node10 -->
<g id="edge9_Node000002_Node000010" class="edge">
<title>Node2&#45;&gt;Node10</title>
<g id="a_edge9_Node000002_Node000010"><a xlink:title=" ">
<path fill="none" stroke="#63b8ff" d="M187.67,-46.62C194.83,-46.62 203.28,-46.62 211.36,-46.62"/>
<polygon fill="#63b8ff" stroke="#63b8ff" points="211.24,-50.13 221.24,-46.63 211.24,-43.13 211.24,-50.13"/>
</a>
</g>
</g>
<!-- Node11 -->
<g id="Node000011" class="node">
<title>Node11</title>
<g id="a_Node000011"><a xlink:href="group___noah___l_s_m_gacb79bab20ee25c57918575949c15de73.html#gacb79bab20ee25c57918575949c15de73" target="_top" xlink:title="This subroutine calculates/updates the soil temperature field.">
<polygon fill="white" stroke="#666666" points="263.25,-19.25 223.25,-19.25 223.25,0 263.25,0 263.25,-19.25"/>
<text xml:space="preserve" text-anchor="middle" x="243.25" y="-5.75" font-family="Source Sans Pro" font-size="10.00">hstep</text>
</a>
</g>
</g>
<!-- Node2&#45;&gt;Node11 -->
<g id="edge10_Node000002_Node000011" class="edge">
<title>Node2&#45;&gt;Node11</title>
<g id="a_edge10_Node000002_Node000011"><a xlink:title=" ">
<path fill="none" stroke="#63b8ff" d="M187.67,-37.48C195.24,-33.61 204.26,-29.01 212.77,-24.67"/>
<polygon fill="#63b8ff" stroke="#63b8ff" points="214.09,-27.93 221.41,-20.26 210.91,-21.69 214.09,-27.93"/>
</a>
</g>
</g>
<!-- Node4 -->
<g id="Node000004" class="node">
<title>Node4</title>
<g id="a_Node000004"><a xlink:href="group___noah___l_s_m_ga1b241897d00ec3d66eabe9e959d0ce04.html#ga1b241897d00ec3d66eabe9e959d0ce04" target="_top" xlink:title="This subroutine calculates sink/source term of the termal diffusion equation.">
<polygon fill="white" stroke="#666666" points="346,-167.25 300.75,-167.25 300.75,-148 346,-148 346,-167.25"/>
<text xml:space="preserve" text-anchor="middle" x="323.38" y="-153.75" font-family="Source Sans Pro" font-size="10.00">snksrc</text>
</a>
</g>
</g>
<!-- Node3&#45;&gt;Node4 -->
<g id="edge3_Node000003_Node000004" class="edge">
<title>Node3&#45;&gt;Node4</title>
<g id="a_edge3_Node000003_Node000004"><a xlink:title=" ">
<path fill="none" stroke="#63b8ff" d="M253.22,-93.53C263.81,-105.04 282.16,-124.39 299.25,-139.62 299.53,-139.88 299.82,-140.13 300.11,-140.39"/>
<polygon fill="#63b8ff" stroke="#63b8ff" points="297.81,-143.02 307.75,-146.68 302.26,-137.62 297.81,-143.02"/>
</a>
</g>
</g>
<!-- Node7 -->
<g id="Node000007" class="node">
<title>Node7</title>
<g id="a_Node000007"><a xlink:href="group___noah___l_s_m_ga8e248a6da8d1fd3c2e64b76f3bfbea50.html#ga8e248a6da8d1fd3c2e64b76f3bfbea50" target="_top" xlink:title="This subroutine calculates temperature on the boundary of the layer by interpolation of the middle la...">
<polygon fill="white" stroke="#666666" points="340.75,-130.25 306,-130.25 306,-111 340.75,-111 340.75,-130.25"/>
<text xml:space="preserve" text-anchor="middle" x="323.38" y="-116.75" font-family="Source Sans Pro" font-size="10.00">tbnd</text>
</a>
</g>
</g>
<!-- Node3&#45;&gt;Node7 -->
<g id="edge6_Node000003_Node000007" class="edge">
<title>Node3&#45;&gt;Node7</title>
<g id="a_edge6_Node000003_Node000007"><a xlink:title=" ">
<path fill="none" stroke="#63b8ff" d="M257.86,-90.07C268.24,-94.99 282.87,-101.92 295.58,-107.93"/>
<polygon fill="#63b8ff" stroke="#63b8ff" points="293.76,-110.95 304.3,-112.06 296.76,-104.62 293.76,-110.95"/>
</a>
</g>
</g>
<!-- Node8 -->
<g id="Node000008" class="node">
<title>Node8</title>
<g id="a_Node000008"><a xlink:href="group___noah___l_s_m_ga8bc3154096e6364c5fcddf884c003bef.html#ga8bc3154096e6364c5fcddf884c003bef" target="_top" xlink:title="This subroutine calculates thermal diffusivity and conductivity of the soil for a given point and tim...">
<polygon fill="white" stroke="#666666" points="344.88,-93.25 301.88,-93.25 301.88,-74 344.88,-74 344.88,-93.25"/>
<text xml:space="preserve" text-anchor="middle" x="323.38" y="-79.75" font-family="Source Sans Pro" font-size="10.00">tdfcnd</text>
</a>
</g>
</g>
<!-- Node3&#45;&gt;Node8 -->
<g id="edge7_Node000003_Node000008" class="edge">
<title>Node3&#45;&gt;Node8</title>
<g id="a_edge7_Node000003_Node000008"><a xlink:title=" ">
<path fill="none" stroke="#63b8ff" d="M257.86,-83.62C266.81,-83.62 278.93,-83.62 290.25,-83.62"/>
<polygon fill="#63b8ff" stroke="#63b8ff" points="290.07,-87.13 300.07,-83.63 290.07,-80.13 290.07,-87.13"/>
</a>
</g>
</g>
<!-- Node9 -->
<g id="Node000009" class="node">
<title>Node9</title>
<g id="a_Node000009"><a xlink:href="group___noah___l_s_m_gae50411efeb11ddeb8a0c53010745a95c.html#gae50411efeb11ddeb8a0c53010745a95c" target="_top" xlink:title="This subroutine calculates soil layer average temperature (tavg) in freezing/thawing layer using up,...">
<polygon fill="white" stroke="#666666" points="347.5,-56.25 299.25,-56.25 299.25,-37 347.5,-37 347.5,-56.25"/>
<text xml:space="preserve" text-anchor="middle" x="323.38" y="-42.75" font-family="Source Sans Pro" font-size="10.00">tmpavg</text>
</a>
</g>
</g>
<!-- Node3&#45;&gt;Node9 -->
<g id="edge8_Node000003_Node000009" class="edge">
<title>Node3&#45;&gt;Node9</title>
<g id="a_edge8_Node000003_Node000009"><a xlink:title=" ">
<path fill="none" stroke="#63b8ff" d="M257.86,-77.18C267.03,-72.84 279.52,-66.92 291.06,-61.45"/>
<polygon fill="#63b8ff" stroke="#63b8ff" points="292.37,-64.71 299.91,-57.26 289.37,-58.38 292.37,-64.71"/>
</a>
</g>
</g>
<!-- Node5 -->
<g id="Node000005" class="node">
<title>Node5</title>
<g id="a_Node000005"><a xlink:href="group___noah___l_s_m_ga7c0e713811400259a984b2153834e70c.html#ga7c0e713811400259a984b2153834e70c" target="_top" xlink:title="This subroutine calculates amount of supercooled liquid soil water content if temperature is below 27...">
<polygon fill="white" stroke="#666666" points="421.25,-167.25 383.5,-167.25 383.5,-148 421.25,-148 421.25,-167.25"/>
<text xml:space="preserve" text-anchor="middle" x="402.38" y="-153.75" font-family="Source Sans Pro" font-size="10.00">frh2o</text>
</a>
</g>
</g>
<!-- Node4&#45;&gt;Node5 -->
<g id="edge4_Node000004_Node000005" class="edge">
<title>Node4&#45;&gt;Node5</title>
<g id="a_edge4_Node000004_Node000005"><a xlink:title=" ">
<path fill="none" stroke="#63b8ff" d="M346.23,-157.62C354.15,-157.62 363.23,-157.62 371.71,-157.62"/>
<polygon fill="#63b8ff" stroke="#63b8ff" points="371.59,-161.13 381.59,-157.63 371.59,-154.13 371.59,-161.13"/>
</a>
</g>
</g>
<!-- Node6 -->
<g id="Node000006" class="node">
<title>Node6</title>
<g id="a_Node000006"><a xlink:href="group___noah_m_p___l_s_m_gace27cd3a7b4e23955e39e33bd344baae.html#gace27cd3a7b4e23955e39e33bd344baae" target="_top" xlink:title="check surface energy balance and water balance.">
<polygon fill="white" stroke="#666666" points="492.75,-167.25 457.25,-167.25 457.25,-148 492.75,-148 492.75,-167.25"/>
<text xml:space="preserve" text-anchor="middle" x="475" y="-153.75" font-family="Source Sans Pro" font-size="10.00">error</text>
</a>
</g>
</g>
<!-- Node5&#45;&gt;Node6 -->
<g id="edge5_Node000005_Node000006" class="edge">
<title>Node5&#45;&gt;Node6</title>
<g id="a_edge5_Node000005_Node000006"><a xlink:title=" ">
<path fill="none" stroke="#63b8ff" d="M421.56,-157.62C428.92,-157.62 437.59,-157.62 445.74,-157.62"/>
<polygon fill="#63b8ff" stroke="#63b8ff" points="445.57,-161.13 455.57,-157.63 445.57,-154.13 445.57,-161.13"/>
</a>
</g>
</g>
<!-- Node12 -->
<g id="Node000012" class="node">
<title>Node12</title>
<g id="a_Node000012"><a xlink:href="group___noah___l_s_m_ga3d7dabe1147278de865aa4691d5b2de0.html#ga3d7dabe1147278de865aa4691d5b2de0" target="_top" xlink:title="This subroutine inverts (solve) the tri&#45;diagonal matrix problem.">
<polygon fill="white" stroke="#666666" points="344.88,-19.25 301.88,-19.25 301.88,0 344.88,0 344.88,-19.25"/>
<text xml:space="preserve" text-anchor="middle" x="323.38" y="-5.75" font-family="Source Sans Pro" font-size="10.00">rosr12</text>
</a>
</g>
</g>
<!-- Node11&#45;&gt;Node12 -->
<g id="edge11_Node000011_Node000012" class="edge">
<title>Node11&#45;&gt;Node12</title>
<g id="a_edge11_Node000011_Node000012"><a xlink:title=" ">
<path fill="none" stroke="#63b8ff" d="M263.56,-9.62C271.6,-9.62 281.16,-9.62 290.21,-9.62"/>
<polygon fill="#63b8ff" stroke="#63b8ff" points="290.13,-13.13 300.13,-9.63 290.13,-6.13 290.13,-13.13"/>
</a>
</g>
</g>
</g>
</svg>

<g id="navigator" transform="translate(0 0)" fill="#404254">
  <rect fill="#f2f5e9" fill-opacity="0.5" stroke="#606060" stroke-width=".5" x="0" y="0" width="60" height="60"/>
  <use id="zoomplus" xlink:href="#zoomPlus" x="17" y="9" onmousedown="handleZoom(evt,'in')"/>
  <use id="zoomminus" xlink:href="#zoomMin" x="42" y="9" onmousedown="handleZoom(evt,'out')"/>
  <use id="reset" xlink:href="#resetDef" x="30" y="36" onmousedown="handleReset()"/>
   <use id="arrowup" xlink:href="#arrowUp" x="0" y="0" onmousedown="handlePan(0,-1)"/>
  <use id="arrowright" xlink:href="#arrowRight" x="0" y="0" onmousedown="handlePan(1,0)"/>
  <use id="arrowdown" xlink:href="#arrowDown" x="0" y="0" onmousedown="handlePan(0,1)"/>
  <use id="arrowleft" xlink:href="#arrowLeft" x="0" y="0" onmousedown="handlePan(-1,0)"/>
</g>
<svg viewBox="0 0 15 15" width="100%" height="30px" preserveAspectRatio="xMaxYMin meet">
 <g id="arrow_out" transform="scale(0.3 0.3)">
  <a xlink:href="group__sfc__diag__mod_ga7e773c818d77462fd7acbd9b15baf909_ga7e773c818d77462fd7acbd9b15baf909_cgraph_org.svg" target="_base">
   <rect id="button" ry="5" rx="5" y="6" x="6" height="38" width="38"
        fill="#f2f5e9" fill-opacity="0.5" stroke="#606060" stroke-width="1.0"/>
   <path id="arrow"
     d="M 11.500037,31.436501 C 11.940474,20.09759 22.043105,11.32322 32.158766,21.979434 L 37.068811,17.246167 C 37.068811,17.246167 37.088388,32 37.088388,32 L 22.160133,31.978069 C 22.160133,31.978069 26.997745,27.140456 26.997745,27.140456 C 18.528582,18.264221 13.291696,25.230495 11.500037,31.436501 z"
     style="fill:#404040;"/>
  </a>
 </g>
</svg>

<style type='text/css'>
<![CDATA[
[data-mouse-over-selected='false'] { opacity: 0.7; }
[data-mouse-over-selected='true']  { opacity: 1.0; }
]]>
</style>
<script type="application/ecmascript"><![CDATA[
document.addEventListener('DOMContentLoaded', (event) => {
  highlightEdges();
  highlightAdjacentNodes();
});
]]></script>
</svg>
