<?xml version="1.0" encoding="UTF-8" standalone="no"?>
<!DOCTYPE svg PUBLIC "-//W3C//DTD SVG 1.1//EN"
 "http://www.w3.org/Graphics/SVG/1.1/DTD/svg11.dtd">
<!-- Generated by graphviz version 14.1.2 (20260124.0452)
 -->
<!-- Title: thermoprop Pages: 1 -->
<svg width="467pt" height="101pt"
 viewBox="0.00 0.00 467.00 101.00" xmlns="http://www.w3.org/2000/svg" xmlns:xlink="http://www.w3.org/1999/xlink">

<svg id="main" version="1.1" xmlns="http://www.w3.org/2000/svg" xmlns:xlink="http://www.w3.org/1999/xlink" xml:space="preserve">

<style type="text/css"><![CDATA[
.node, .edge {opacity: 0.7;}
.node.selected, .edge.selected {opacity: 1;}
.edge:hover path { stroke: red; }
.edge:hover polygon { stroke: red; fill: red; }
]]></style>
<script type="application/ecmascript" xlink:href="svg.min.js"/>
<svg id="graph" class="graph">
<g id="graph0" class="graph" transform="scale(1 1) rotate(0) translate(4 97.25)">
<title>thermoprop</title>
<!-- Node1 -->
<g id="Node000001" class="node">
<title>Node1</title>
<g id="a_Node000001"><a xlink:title=" ">
<polygon fill="#999999" stroke="#666666" points="458.5,-56.25 393.75,-56.25 393.75,-37 458.5,-37 458.5,-56.25"/>
<text xml:space="preserve" text-anchor="middle" x="426.12" y="-42.75" font-family="Source Sans Pro" font-size="10.00">thermoprop</text>
</a>
</g>
</g>
<!-- Node2 -->
<g id="Node000002" class="node">
<title>Node2</title>
<g id="a_Node000002"><a xlink:href="group___noah_m_p___l_s_m_ga2698d46b5582d11d0d6fc78d49dd796c.html#ga2698d46b5582d11d0d6fc78d49dd796c" target="_top" xlink:title="We use different approaches to deal with subgrid features of radiation transfer and turbulent transfe...">
<polygon fill="white" stroke="#666666" points="357.75,-56.25 312.5,-56.25 312.5,-37 357.75,-37 357.75,-56.25"/>
<text xml:space="preserve" text-anchor="middle" x="335.12" y="-42.75" font-family="Source Sans Pro" font-size="10.00">energy</text>
</a>
</g>
</g>
<!-- Node1&#45;&gt;Node2 -->
<g id="edge1_Node000001_Node000002" class="edge">
<title>Node1&#45;&gt;Node2</title>
<g id="a_edge1_Node000001_Node000002"><a xlink:title=" ">
<path fill="none" stroke="#63b8ff" d="M382.27,-46.62C373.91,-46.62 365.49,-46.62 358.16,-46.62"/>
<polygon fill="#63b8ff" stroke="#63b8ff" points="381.98,-50.13 391.98,-46.63 381.98,-43.13 381.98,-50.13"/>
</a>
</g>
</g>
<!-- Node3 -->
<g id="Node000003" class="node">
<title>Node3</title>
<g id="a_Node000003"><a xlink:href="group___noah_m_p___l_s_m_gab480f7969dad27ce9e00e559f82c464e.html#gab480f7969dad27ce9e00e559f82c464e" target="_top" xlink:title=" ">
<polygon fill="white" stroke="#666666" points="233.38,-93.25 161.88,-93.25 161.88,-74 233.38,-74 233.38,-93.25"/>
<text xml:space="preserve" text-anchor="middle" x="197.62" y="-79.75" font-family="Source Sans Pro" font-size="10.00">noahmp_sflx</text>
</a>
</g>
</g>
<!-- Node2&#45;&gt;Node3 -->
<g id="edge2_Node000002_Node000003" class="edge">
<title>Node2&#45;&gt;Node3</title>
<g id="a_edge2_Node000002_Node000003"><a xlink:title=" ">
<path fill="none" stroke="#63b8ff" d="M301.23,-58.05C293.18,-60.68 284.57,-63.37 276.5,-65.62 262.6,-69.51 247.14,-73.21 233.69,-76.24"/>
<polygon fill="#63b8ff" stroke="#63b8ff" points="302.3,-61.38 310.67,-54.89 300.08,-54.74 302.3,-61.38"/>
</a>
</g>
</g>
<!-- Node5 -->
<g id="Node000005" class="node">
<title>Node5</title>
<g id="a_Node000005"><a xlink:href="group___s_a_m_fdeep_ga5e834dec0932a16a98b7d90fd69a9c70.html#ga5e834dec0932a16a98b7d90fd69a9c70" target="_top" xlink:title=" ">
<polygon fill="white" stroke="#666666" points="276.5,-56.25 118.75,-56.25 118.75,-37 276.5,-37 276.5,-56.25"/>
<text xml:space="preserve" text-anchor="middle" x="197.62" y="-42.75" font-family="Source Sans Pro" font-size="10.00">samfdeepcnv::samfdeepcnv_run</text>
</a>
</g>
</g>
<!-- Node2&#45;&gt;Node5 -->
<g id="edge4_Node000002_Node000005" class="edge">
<title>Node2&#45;&gt;Node5</title>
<g id="a_edge4_Node000002_Node000005"><a xlink:title=" ">
<path fill="none" stroke="#63b8ff" d="M300.79,-46.62C293.42,-46.62 285.3,-46.62 276.96,-46.62"/>
<polygon fill="#63b8ff" stroke="#63b8ff" points="300.54,-50.13 310.54,-46.63 300.54,-43.13 300.54,-50.13"/>
</a>
</g>
</g>
<!-- Node6 -->
<g id="Node000006" class="node">
<title>Node6</title>
<g id="a_Node000006"><a xlink:href="group___s_a_m_f__shal_gaf2534c328553470068a75a9aa56b7d56.html#gaf2534c328553470068a75a9aa56b7d56" target="_top" xlink:title=" ">
<polygon fill="white" stroke="#666666" points="273.5,-19.25 121.75,-19.25 121.75,0 273.5,0 273.5,-19.25"/>
<text xml:space="preserve" text-anchor="middle" x="197.62" y="-5.75" font-family="Source Sans Pro" font-size="10.00">samfshalcnv::samfshalcnv_run</text>
</a>
</g>
</g>
<!-- Node2&#45;&gt;Node6 -->
<g id="edge5_Node000002_Node000006" class="edge">
<title>Node2&#45;&gt;Node6</title>
<g id="a_edge5_Node000002_Node000006"><a xlink:title=" ">
<path fill="none" stroke="#63b8ff" d="M301.23,-35.2C293.18,-32.57 284.57,-29.88 276.5,-27.62 266.48,-24.82 255.64,-22.11 245.33,-19.69"/>
<polygon fill="#63b8ff" stroke="#63b8ff" points="300.08,-38.51 310.67,-38.36 302.3,-31.87 300.08,-38.51"/>
</a>
</g>
</g>
<!-- Node4 -->
<g id="Node000004" class="node">
<title>Node4</title>
<g id="a_Node000004"><a xlink:href="group___noah_m_p___l_s_m_ga0e44f72a92d8830344fecdb9fb65e6fb.html#ga0e44f72a92d8830344fecdb9fb65e6fb" target="_top" xlink:title="This subroutine is the main CCPP entry point for the NoahMP LSM.">
<polygon fill="white" stroke="#666666" points="82.75,-93.25 0,-93.25 0,-74 82.75,-74 82.75,-93.25"/>
<text xml:space="preserve" text-anchor="middle" x="41.38" y="-79.75" font-family="Source Sans Pro" font-size="10.00">noahmpdrv_run</text>
</a>
</g>
</g>
<!-- Node3&#45;&gt;Node4 -->
<g id="edge3_Node000003_Node000004" class="edge">
<title>Node3&#45;&gt;Node4</title>
<g id="a_edge3_Node000003_Node000004"><a xlink:title=" ">
<path fill="none" stroke="#63b8ff" d="M150.22,-83.62C128.9,-83.62 103.84,-83.62 83.25,-83.62"/>
<polygon fill="#63b8ff" stroke="#63b8ff" points="150.11,-87.13 160.11,-83.63 150.11,-80.13 150.11,-87.13"/>
</a>
</g>
</g>
</g>
</svg>
</svg>

<style type='text/css'>
<![CDATA[
[data-mouse-over-selected='false'] { opacity: 0.7; }
[data-mouse-over-selected='true']  { opacity: 1.0; }
]]>
</style>
<script type="application/ecmascript"><![CDATA[
document.addEventListener('DOMContentLoaded', (event) => {
  highlightEdges();
  highlightAdjacentNodes();
});
]]></script>
</svg>
