<?xml version="1.0" encoding="UTF-8" standalone="no"?>
<!DOCTYPE svg PUBLIC "-//W3C//DTD SVG 1.1//EN"
 "http://www.w3.org/Graphics/SVG/1.1/DTD/svg11.dtd">
<!-- Generated by graphviz version 14.1.2 (20260124.0452)
 -->
<!-- Title: module_bl_mynn::mynn_bl_driver Pages: 1 -->
<!--zoomable 502 -->

<svg id="main" version="1.1" xmlns="http://www.w3.org/2000/svg" xmlns:xlink="http://www.w3.org/1999/xlink" xml:space="preserve" onload="init(evt)">

<style type="text/css"><![CDATA[
.node, .edge {opacity: 0.7;}
.node.selected, .edge.selected {opacity: 1;}
.edge:hover path { stroke: red; }
.edge:hover polygon { stroke: red; fill: red; }
]]></style>

<defs>
  <circle id="rim" cx="0" cy="0" r="7"/>
  <circle id="rim2" cx="0" cy="0" r="3.5"/>
  <g id="zoomPlus">
    <use xlink:href="#rim" fill="#404040"><set attributeName="fill" to="#808080" begin="zoomplus.mouseover" end="zoomplus.mouseout"/></use>
    <path d="M-4,0h8M0,-4v8" fill="none" stroke="white" stroke-width="1.5" pointer-events="none"/>
  </g>
  <g id="zoomMin">
    <use xlink:href="#rim" fill="#404040"><set attributeName="fill" to="#808080" begin="zoomminus.mouseover" end="zoomminus.mouseout"/></use>
    <path d="M-4,0h8" fill="none" stroke="white" stroke-width="1.5" pointer-events="none"/>
  </g>
  <g id="arrowUp" transform="translate(30 24)">
    <use xlink:href="#rim"/>
    <path pointer-events="none" fill="none" stroke="white" stroke-width="1.5" d="M0,-3.0v7 M-2.5,-0.5L0,-3.0L2.5,-0.5"/>
  </g>
  <g id="arrowRight" transform="rotate(90) translate(36 -43)">
    <use xlink:href="#rim"/>
    <path pointer-events="none" fill="none" stroke="white" stroke-width="1.5" d="M0,-3.0v7 M-2.5,-0.5L0,-3.0L2.5,-0.5"/>
  </g>
  <g id="arrowDown" transform="rotate(180) translate(-30 -48)">
    <use xlink:href="#rim"/>
    <path pointer-events="none" fill="none" stroke="white" stroke-width="1.5" d="M0,-3.0v7 M-2.5,-0.5L0,-3.0L2.5,-0.5"/>
  </g>
  <g id="arrowLeft" transform="rotate(270) translate(-36 17)">
    <use xlink:href="#rim"/>
    <path pointer-events="none" fill="none" stroke="white" stroke-width="1.5" d="M0,-3.0v7 M-2.5,-0.5L0,-3.0L2.5,-0.5"/>
  </g>
  <g id="resetDef">
    <use xlink:href="#rim2" fill="#404040"><set attributeName="fill" to="#808080" begin="reset.mouseover" end="reset.mouseout"/></use>
  </g>
</defs>
<script type="application/ecmascript">
var viewWidth = 672;
var viewHeight = 502;
var sectionId = 'dynsection-0';
</script>
<script type="application/ecmascript" xlink:href="svg.min.js"/>
<svg id="graph" class="graph">
<g id="viewport">
<title>module_bl_mynn::mynn_bl_driver</title>
<!-- Node1 -->
<g id="Node000001" class="node">
<title>Node1</title>
<g id="a_Node000001"><a xlink:title="This subroutine is the MYNN&#45;EDNF PBL driver routine,which encompassed the majority of the subroutines...">
<polygon fill="#999999" stroke="#666666" points="119.5,-192.5 0,-192.5 0,-162 119.5,-162 119.5,-192.5"/>
<text xml:space="preserve" text-anchor="start" x="8" y="-179" font-family="Source Sans Pro" font-size="10.00">module_bl_mynn::mynn</text>
<text xml:space="preserve" text-anchor="middle" x="59.75" y="-167.75" font-family="Source Sans Pro" font-size="10.00">_bl_driver</text>
</a>
</g>
</g>
<!-- Node2 -->
<g id="Node000002" class="node">
<title>Node2</title>
<g id="a_Node000002"><a xlink:href="group__gp__mynnedmf_ga1a32198222c028ebc56fe79f6872be53.html#ga1a32198222c028ebc56fe79f6872be53" target="_top" xlink:title="This subroutine is the Dynamic Multi&#45;Plume (DMP) Mass&#45;Flux Scheme.">
<polygon fill="white" stroke="#666666" points="287,-394.88 156.25,-394.88 156.25,-375.62 287,-375.62 287,-394.88"/>
<text xml:space="preserve" text-anchor="middle" x="221.62" y="-381.38" font-family="Source Sans Pro" font-size="10.00">module_bl_mynn::dmp_mf</text>
</a>
</g>
</g>
<!-- Node1&#45;&gt;Node2 -->
<g id="edge1_Node000001_Node000002" class="edge">
<title>Node1&#45;&gt;Node2</title>
<g id="a_edge1_Node000001_Node000002"><a xlink:title=" ">
<path fill="none" stroke="#63b8ff" d="M68.08,-192.92C82.28,-222.26 115.65,-286.65 155.5,-332.25 167.42,-345.9 183.12,-358.79 196.12,-368.44"/>
<polygon fill="#63b8ff" stroke="#63b8ff" points="194.04,-371.25 204.2,-374.26 198.13,-365.57 194.04,-371.25"/>
</a>
</g>
</g>
<!-- Node7 -->
<g id="Node000007" class="node">
<title>Node7</title>
<g id="a_Node000007"><a xlink:href="group__gp__mynnedmf_ga0dc8b774b082b37c5f048db5f209ad12.html#ga0dc8b774b082b37c5f048db5f209ad12" target="_top" xlink:title="This subroutine calculates hybrid diagnotic boundary&#45;layer height (PBLH).">
<polygon fill="white" stroke="#666666" points="287.75,-165.88 155.5,-165.88 155.5,-146.62 287.75,-146.62 287.75,-165.88"/>
<text xml:space="preserve" text-anchor="middle" x="221.62" y="-152.38" font-family="Source Sans Pro" font-size="10.00">module_bl_mynn::get_pblh</text>
</a>
</g>
</g>
<!-- Node1&#45;&gt;Node7 -->
<g id="edge10_Node000001_Node000007" class="edge">
<title>Node1&#45;&gt;Node7</title>
<g id="a_edge10_Node000001_Node000007"><a xlink:title=" ">
<path fill="none" stroke="#63b8ff" d="M119.83,-169.49C127.63,-168.47 135.71,-167.4 143.75,-166.35"/>
<polygon fill="#63b8ff" stroke="#63b8ff" points="144.1,-169.83 153.56,-165.06 143.19,-162.89 144.1,-169.83"/>
</a>
</g>
</g>
<!-- Node8 -->
<g id="Node000008" class="node">
<title>Node8</title>
<g id="a_Node000008"><a xlink:href="group__gp__mynnedmf_ga72e450860b06f1c3b6c7a9bbb0c94ce7.html#ga72e450860b06f1c3b6c7a9bbb0c94ce7" target="_top" xlink:title="This subroutine calculates the nonconvective component of the subgrid cloud fraction and mixing ratio...">
<polygon fill="white" stroke="#666666" points="280.25,-323.5 163,-323.5 163,-293 280.25,-293 280.25,-323.5"/>
<text xml:space="preserve" text-anchor="start" x="171" y="-310" font-family="Source Sans Pro" font-size="10.00">module_bl_mynn::mym</text>
<text xml:space="preserve" text-anchor="middle" x="221.62" y="-298.75" font-family="Source Sans Pro" font-size="10.00">_condensation</text>
</a>
</g>
</g>
<!-- Node1&#45;&gt;Node8 -->
<g id="edge11_Node000001_Node000008" class="edge">
<title>Node1&#45;&gt;Node8</title>
<g id="a_edge11_Node000001_Node000008"><a xlink:title=" ">
<path fill="none" stroke="#63b8ff" d="M73.72,-192.74C90.99,-212.73 123.13,-247.86 155.5,-272.25 162.46,-277.49 170.27,-282.47 178,-286.96"/>
<polygon fill="#63b8ff" stroke="#63b8ff" points="176.29,-290.01 186.72,-291.83 179.7,-283.9 176.29,-290.01"/>
</a>
</g>
</g>
<!-- Node9 -->
<g id="Node000009" class="node">
<title>Node9</title>
<g id="a_Node000009"><a xlink:href="group__gp__mynnedmf_ga97717283bfde857ef86fb46f37063824.html#ga97717283bfde857ef86fb46f37063824" target="_top" xlink:title="This subroutine initializes the mixing length, TKE, , , and .">
<polygon fill="white" stroke="#666666" points="280.25,-128.5 163,-128.5 163,-98 280.25,-98 280.25,-128.5"/>
<text xml:space="preserve" text-anchor="start" x="171" y="-115" font-family="Source Sans Pro" font-size="10.00">module_bl_mynn::mym</text>
<text xml:space="preserve" text-anchor="middle" x="221.62" y="-103.75" font-family="Source Sans Pro" font-size="10.00">_initialize</text>
</a>
</g>
</g>
<!-- Node1&#45;&gt;Node9 -->
<g id="edge15_Node000001_Node000009" class="edge">
<title>Node1&#45;&gt;Node9</title>
<g id="a_edge15_Node000001_Node000009"><a xlink:title=" ">
<path fill="none" stroke="#63b8ff" d="M96.58,-161.66C114.24,-154.1 135.9,-144.99 155.5,-137.25 159.08,-135.83 162.79,-134.4 166.52,-132.97"/>
<polygon fill="#63b8ff" stroke="#63b8ff" points="167.55,-136.32 175.66,-129.51 165.07,-129.78 167.55,-136.32"/>
</a>
</g>
</g>
<!-- Node13 -->
<g id="Node000013" class="node">
<title>Node13</title>
<g id="a_Node000013"><a xlink:href="group__gp__mynnedmf_gaf3104a808121c8c051204a21f55957cc.html#gaf3104a808121c8c051204a21f55957cc" target="_top" xlink:title="This subroutine predicts the turbulent quantities at the next step.">
<polygon fill="white" stroke="#666666" points="280.25,-214.5 163,-214.5 163,-184 280.25,-184 280.25,-214.5"/>
<text xml:space="preserve" text-anchor="start" x="171" y="-201" font-family="Source Sans Pro" font-size="10.00">module_bl_mynn::mym</text>
<text xml:space="preserve" text-anchor="middle" x="221.62" y="-189.75" font-family="Source Sans Pro" font-size="10.00">_predict</text>
</a>
</g>
</g>
<!-- Node1&#45;&gt;Node13 -->
<g id="edge19_Node000001_Node000013" class="edge">
<title>Node1&#45;&gt;Node13</title>
<g id="a_edge19_Node000001_Node000013"><a xlink:title=" ">
<path fill="none" stroke="#63b8ff" d="M119.83,-185.38C130.08,-186.79 140.83,-188.27 151.33,-189.71"/>
<polygon fill="#63b8ff" stroke="#63b8ff" points="150.71,-193.16 161.09,-191.06 151.66,-186.23 150.71,-193.16"/>
</a>
</g>
</g>
<!-- Node15 -->
<g id="Node000015" class="node">
<title>Node15</title>
<g id="a_Node000015"><a xlink:href="group__gp__mynnedmf_ga017b6066d332a8612fa00f2713db57fa.html#ga017b6066d332a8612fa00f2713db57fa" target="_top" xlink:title="This subroutine calculates the vertical diffusivity coefficients and the production terms for the tur...">
<polygon fill="white" stroke="#666666" points="280.25,-79.5 163,-79.5 163,-49 280.25,-49 280.25,-79.5"/>
<text xml:space="preserve" text-anchor="start" x="171" y="-66" font-family="Source Sans Pro" font-size="10.00">module_bl_mynn::mym</text>
<text xml:space="preserve" text-anchor="middle" x="221.62" y="-54.75" font-family="Source Sans Pro" font-size="10.00">_turbulence</text>
</a>
</g>
</g>
<!-- Node1&#45;&gt;Node15 -->
<g id="edge21_Node000001_Node000015" class="edge">
<title>Node1&#45;&gt;Node15</title>
<g id="a_edge21_Node000001_Node000015"><a xlink:title=" ">
<path fill="none" stroke="#63b8ff" d="M74.08,-161.64C91.23,-142.38 122.73,-109.68 155.5,-89.25 157.93,-87.74 160.46,-86.29 163.06,-84.91"/>
<polygon fill="#63b8ff" stroke="#63b8ff" points="164.51,-88.1 171.98,-80.58 161.45,-81.8 164.51,-88.1"/>
</a>
</g>
</g>
<!-- Node16 -->
<g id="Node000016" class="node">
<title>Node16</title>
<g id="a_Node000016"><a xlink:href="group__gp__mynnedmf_gabd440b7b99df6a4736c2118fd96e3fd1.html#gabd440b7b99df6a4736c2118fd96e3fd1" target="_top" xlink:title="This subroutine solves for tendencies of U, V, , qv, qc, and qi.">
<polygon fill="white" stroke="#666666" points="281.38,-263.5 161.88,-263.5 161.88,-233 281.38,-233 281.38,-263.5"/>
<text xml:space="preserve" text-anchor="start" x="169.88" y="-250" font-family="Source Sans Pro" font-size="10.00">module_bl_mynn::mynn</text>
<text xml:space="preserve" text-anchor="middle" x="221.62" y="-238.75" font-family="Source Sans Pro" font-size="10.00">_tendencies</text>
</a>
</g>
</g>
<!-- Node1&#45;&gt;Node16 -->
<g id="edge24_Node000001_Node000016" class="edge">
<title>Node1&#45;&gt;Node16</title>
<g id="a_edge24_Node000001_Node000016"><a xlink:title=" ">
<path fill="none" stroke="#63b8ff" d="M91.17,-192.84C109.6,-202.08 133.69,-213.79 155.5,-223.25 159.51,-224.99 163.68,-226.74 167.9,-228.45"/>
<polygon fill="#63b8ff" stroke="#63b8ff" points="166.38,-231.62 176.97,-232.07 168.98,-225.11 166.38,-231.62"/>
</a>
</g>
</g>
<!-- Node17 -->
<g id="Node000017" class="node">
<title>Node17</title>
<g id="a_Node000017"><a xlink:href="group__gp__mynnedmf_gaf8eee736ba0e92dd2fe1f97755b3b3fb.html#gaf8eee736ba0e92dd2fe1f97755b3b3fb" target="_top" xlink:title=" ">
<polygon fill="white" stroke="#666666" points="285.5,-30.5 157.75,-30.5 157.75,0 285.5,0 285.5,-30.5"/>
<text xml:space="preserve" text-anchor="start" x="165.75" y="-17" font-family="Source Sans Pro" font-size="10.00">module_bl_mynn::retrieve</text>
<text xml:space="preserve" text-anchor="middle" x="221.62" y="-5.75" font-family="Source Sans Pro" font-size="10.00">_exchange_coeffs</text>
</a>
</g>
</g>
<!-- Node1&#45;&gt;Node17 -->
<g id="edge27_Node000001_Node000017" class="edge">
<title>Node1&#45;&gt;Node17</title>
<g id="a_edge27_Node000001_Node000017"><a xlink:title=" ">
<path fill="none" stroke="#63b8ff" d="M67.57,-161.84C80.7,-133.84 112.07,-74.38 155.5,-40.25 157.04,-39.04 158.64,-37.88 160.3,-36.78"/>
<polygon fill="#63b8ff" stroke="#63b8ff" points="162.04,-39.82 168.92,-31.76 158.52,-33.77 162.04,-39.82"/>
</a>
</g>
</g>
<!-- Node3 -->
<g id="Node000003" class="node">
<title>Node3</title>
<g id="a_Node000003"><a xlink:href="group__gp__mynnedmf_ga8a29adb739751b21ffacddb8f24ac8ab.html#ga8a29adb739751b21ffacddb8f24ac8ab" target="_top" xlink:title="This subroutine.">
<polygon fill="white" stroke="#666666" points="504,-493.88 323.75,-493.88 323.75,-474.62 504,-474.62 504,-493.88"/>
<text xml:space="preserve" text-anchor="middle" x="413.88" y="-480.38" font-family="Source Sans Pro" font-size="10.00">module_bl_mynn::condensation_edmf</text>
</a>
</g>
</g>
<!-- Node2&#45;&gt;Node3 -->
<g id="edge2_Node000002_Node000003" class="edge">
<title>Node2&#45;&gt;Node3</title>
<g id="a_edge2_Node000002_Node000003"><a xlink:title=" ">
<path fill="none" stroke="#63b8ff" d="M233.25,-395.29C250.75,-411.31 287.35,-442.64 323.75,-460.25 332.55,-464.51 342.23,-468.1 351.85,-471.1"/>
<polygon fill="#63b8ff" stroke="#63b8ff" points="350.62,-474.39 361.2,-473.82 352.57,-467.67 350.62,-474.39"/>
</a>
</g>
</g>
<!-- Node4 -->
<g id="Node000004" class="node">
<title>Node4</title>
<g id="a_Node000004"><a xlink:href="group__gp__mynnedmf_ga41a4c80227342f73cd16d2ae814498d0.html#ga41a4c80227342f73cd16d2ae814498d0" target="_top" xlink:title="This function extends function &quot;esat&quot; and returns a &quot;blended&quot; saturation mixing ratio....">
<polygon fill="white" stroke="#666666" points="659.12,-375.5 544.88,-375.5 544.88,-345 659.12,-345 659.12,-375.5"/>
<text xml:space="preserve" text-anchor="start" x="552.88" y="-362" font-family="Source Sans Pro" font-size="10.00">module_bl_mynn::qsat</text>
<text xml:space="preserve" text-anchor="middle" x="602" y="-350.75" font-family="Source Sans Pro" font-size="10.00">_blend</text>
</a>
</g>
</g>
<!-- Node2&#45;&gt;Node4 -->
<g id="edge7_Node000002_Node000004" class="edge">
<title>Node2&#45;&gt;Node4</title>
<g id="a_edge7_Node000002_Node000004"><a xlink:title=" ">
<path fill="none" stroke="#63b8ff" d="M240.57,-395.26C260.27,-405.63 293.17,-421.15 323.75,-427.25 402.31,-442.92 427.52,-451.1 504,-427.25 531.58,-418.65 558.24,-399.17 576.6,-383.41"/>
<polygon fill="#63b8ff" stroke="#63b8ff" points="578.87,-386.08 584.03,-376.82 574.23,-380.84 578.87,-386.08"/>
</a>
</g>
</g>
<!-- Node5 -->
<g id="Node000005" class="node">
<title>Node5</title>
<g id="a_Node000005"><a xlink:href="group__gp__mynnedmf_gae8047a4c3a14e775edc08c08caf43d80.html#gae8047a4c3a14e775edc08c08caf43d80" target="_top" xlink:title=" ">
<polygon fill="white" stroke="#666666" points="471,-333.5 356.75,-333.5 356.75,-303 471,-303 471,-333.5"/>
<text xml:space="preserve" text-anchor="start" x="364.75" y="-320" font-family="Source Sans Pro" font-size="10.00">module_bl_mynn::esat</text>
<text xml:space="preserve" text-anchor="middle" x="413.88" y="-308.75" font-family="Source Sans Pro" font-size="10.00">_blend</text>
</a>
</g>
</g>
<!-- Node2&#45;&gt;Node5 -->
<g id="edge5_Node000002_Node000005" class="edge">
<title>Node2&#45;&gt;Node5</title>
<g id="a_edge5_Node000002_Node000005"><a xlink:title=" ">
<path fill="none" stroke="#63b8ff" d="M251.11,-375.22C279.2,-365.33 322.86,-349.95 357.75,-337.66"/>
<polygon fill="#63b8ff" stroke="#63b8ff" points="358.57,-341.08 366.84,-334.46 356.25,-334.48 358.57,-341.08"/>
</a>
</g>
</g>
<!-- Node6 -->
<g id="Node000006" class="node">
<title>Node6</title>
<g id="a_Node000006"><a xlink:href="group__gp__mynnedmf_gaa969fd37a058f1244a944268798075e7.html#gaa969fd37a058f1244a944268798075e7" target="_top" xlink:title="This function interpolates the latent heats of vaporization and sublimation into a single,...">
<polygon fill="white" stroke="#666666" points="465.38,-400.5 362.38,-400.5 362.38,-370 465.38,-370 465.38,-400.5"/>
<text xml:space="preserve" text-anchor="start" x="370.38" y="-387" font-family="Source Sans Pro" font-size="10.00">module_bl_mynn::xl</text>
<text xml:space="preserve" text-anchor="middle" x="413.88" y="-375.75" font-family="Source Sans Pro" font-size="10.00">_blend</text>
</a>
</g>
</g>
<!-- Node2&#45;&gt;Node6 -->
<g id="edge8_Node000002_Node000006" class="edge">
<title>Node2&#45;&gt;Node6</title>
<g id="a_edge8_Node000002_Node000006"><a xlink:title=" ">
<path fill="none" stroke="#63b8ff" d="M287.3,-385.25C307.75,-385.25 330.29,-385.25 350.57,-385.25"/>
<polygon fill="#63b8ff" stroke="#63b8ff" points="350.38,-388.75 360.38,-385.25 350.38,-381.75 350.38,-388.75"/>
</a>
</g>
</g>
<!-- Node3&#45;&gt;Node4 -->
<g id="edge3_Node000003_Node000004" class="edge">
<title>Node3&#45;&gt;Node4</title>
<g id="a_edge3_Node000003_Node000004"><a xlink:title=" ">
<path fill="none" stroke="#63b8ff" d="M470.47,-474.22C482.02,-470.81 493.78,-466.26 504,-460.25 536.65,-441.04 565.66,-407.9 583.26,-385.07"/>
<polygon fill="#63b8ff" stroke="#63b8ff" points="585.96,-387.3 589.17,-377.2 580.37,-383.09 585.96,-387.3"/>
</a>
</g>
</g>
<!-- Node4&#45;&gt;Node4 -->
<g id="edge4_Node000004_Node000004" class="edge">
<title>Node4&#45;&gt;Node4</title>
<g id="a_edge4_Node000004_Node000004"><a xlink:title=" ">
<path fill="none" stroke="#63b8ff" d="M568.66,-375.99C561.86,-385.06 572.97,-393.5 602,-393.5 617.87,-393.5 628.39,-390.97 633.55,-387.2"/>
<polygon fill="#63b8ff" stroke="#63b8ff" points="636.98,-387.91 635.1,-377.48 630.07,-386.81 636.98,-387.91"/>
</a>
</g>
</g>
<!-- Node5&#45;&gt;Node5 -->
<g id="edge6_Node000005_Node000005" class="edge">
<title>Node5&#45;&gt;Node5</title>
<g id="a_edge6_Node000005_Node000005"><a xlink:title=" ">
<path fill="none" stroke="#63b8ff" d="M380.54,-333.99C373.74,-343.06 384.85,-351.5 413.88,-351.5 429.75,-351.5 440.27,-348.97 445.42,-345.2"/>
<polygon fill="#63b8ff" stroke="#63b8ff" points="448.86,-345.91 446.97,-335.48 441.94,-344.81 448.86,-345.91"/>
</a>
</g>
</g>
<!-- Node6&#45;&gt;Node6 -->
<g id="edge9_Node000006_Node000006" class="edge">
<title>Node6&#45;&gt;Node6</title>
<g id="a_edge9_Node000006_Node000006"><a xlink:title=" ">
<path fill="none" stroke="#63b8ff" d="M380.54,-400.99C373.74,-410.06 384.85,-418.5 413.88,-418.5 429.75,-418.5 440.27,-415.97 445.42,-412.2"/>
<polygon fill="#63b8ff" stroke="#63b8ff" points="448.86,-412.91 446.97,-402.48 441.94,-411.81 448.86,-412.91"/>
</a>
</g>
</g>
<!-- Node8&#45;&gt;Node4 -->
<g id="edge13_Node000008_Node000004" class="edge">
<title>Node8&#45;&gt;Node4</title>
<g id="a_edge13_Node000008_Node000004"><a xlink:title=" ">
<path fill="none" stroke="#63b8ff" d="M280.65,-293.99C338.56,-282.38 429.44,-271.29 504,-294.25 531.31,-302.66 557.82,-321.67 576.2,-337.14"/>
<polygon fill="#63b8ff" stroke="#63b8ff" points="573.81,-339.7 583.65,-343.62 578.4,-334.42 573.81,-339.7"/>
</a>
</g>
</g>
<!-- Node8&#45;&gt;Node5 -->
<g id="edge12_Node000008_Node000005" class="edge">
<title>Node8&#45;&gt;Node5</title>
<g id="a_edge12_Node000008_Node000005"><a xlink:title=" ">
<path fill="none" stroke="#63b8ff" d="M280.74,-311.3C301.02,-312.37 323.97,-313.58 344.98,-314.68"/>
<polygon fill="#63b8ff" stroke="#63b8ff" points="344.74,-318.17 354.91,-315.2 345.11,-311.18 344.74,-318.17"/>
</a>
</g>
</g>
<!-- Node8&#45;&gt;Node6 -->
<g id="edge14_Node000008_Node000006" class="edge">
<title>Node8&#45;&gt;Node6</title>
<g id="a_edge14_Node000008_Node000006"><a xlink:title=" ">
<path fill="none" stroke="#63b8ff" d="M249.4,-323.91C269.4,-335.12 297.66,-350 323.75,-360.25 332.57,-363.71 342.05,-366.91 351.42,-369.77"/>
<polygon fill="#63b8ff" stroke="#63b8ff" points="350.29,-373.09 360.87,-372.55 352.27,-366.37 350.29,-373.09"/>
</a>
</g>
</g>
<!-- Node10 -->
<g id="Node000010" class="node">
<title>Node10</title>
<g id="a_Node000010"><a xlink:href="group__gp__mynnedmf_ga31475b966d06e7a87123bc895999cbfd.html#ga31475b966d06e7a87123bc895999cbfd" target="_top" xlink:title="This subroutine calculates the mixing lengths.">
<polygon fill="white" stroke="#666666" points="472.5,-79.5 355.25,-79.5 355.25,-49 472.5,-49 472.5,-79.5"/>
<text xml:space="preserve" text-anchor="start" x="363.25" y="-66" font-family="Source Sans Pro" font-size="10.00">module_bl_mynn::mym</text>
<text xml:space="preserve" text-anchor="middle" x="413.88" y="-54.75" font-family="Source Sans Pro" font-size="10.00">_length</text>
</a>
</g>
</g>
<!-- Node9&#45;&gt;Node10 -->
<g id="edge16_Node000009_Node000010" class="edge">
<title>Node9&#45;&gt;Node10</title>
<g id="a_edge16_Node000009_Node000010"><a xlink:title=" ">
<path fill="none" stroke="#63b8ff" d="M280.74,-98.28C300.66,-93.15 323.13,-87.36 343.83,-82.03"/>
<polygon fill="#63b8ff" stroke="#63b8ff" points="344.51,-85.47 353.32,-79.59 342.77,-78.69 344.51,-85.47"/>
</a>
</g>
</g>
<!-- Node12 -->
<g id="Node000012" class="node">
<title>Node12</title>
<g id="a_Node000012"><a xlink:href="group__gp__mynnedmf_ga3d26bde7e00169d4fc2be40b6d685ff5.html#ga3d26bde7e00169d4fc2be40b6d685ff5" target="_top" xlink:title="This subroutine calculates the level 2, non&#45;dimensional wind shear &#160;and vertical temperature gradient...">
<polygon fill="white" stroke="#666666" points="472.5,-128.5 355.25,-128.5 355.25,-98 472.5,-98 472.5,-128.5"/>
<text xml:space="preserve" text-anchor="start" x="363.25" y="-115" font-family="Source Sans Pro" font-size="10.00">module_bl_mynn::mym</text>
<text xml:space="preserve" text-anchor="middle" x="413.88" y="-103.75" font-family="Source Sans Pro" font-size="10.00">_level2</text>
</a>
</g>
</g>
<!-- Node9&#45;&gt;Node12 -->
<g id="edge18_Node000009_Node000012" class="edge">
<title>Node9&#45;&gt;Node12</title>
<g id="a_edge18_Node000009_Node000012"><a xlink:title=" ">
<path fill="none" stroke="#63b8ff" d="M280.74,-113.25C300.56,-113.25 322.93,-113.25 343.54,-113.25"/>
<polygon fill="#63b8ff" stroke="#63b8ff" points="343.27,-116.75 353.27,-113.25 343.27,-109.75 343.27,-116.75"/>
</a>
</g>
</g>
<!-- Node11 -->
<g id="Node000011" class="node">
<title>Node11</title>
<g id="a_Node000011"><a xlink:href="group__gp__mynnedmf_gab2842ad87c88dcd589ebfb585862cd56.html#gab2842ad87c88dcd589ebfb585862cd56" target="_top" xlink:title="This subroutine was taken from the BouLac scheme in WRF&#45;ARW and modified for integration into the MYN...">
<polygon fill="white" stroke="#666666" points="664,-79.5 540,-79.5 540,-49 664,-49 664,-79.5"/>
<text xml:space="preserve" text-anchor="start" x="548" y="-66" font-family="Source Sans Pro" font-size="10.00">module_bl_mynn::boulac</text>
<text xml:space="preserve" text-anchor="middle" x="602" y="-54.75" font-family="Source Sans Pro" font-size="10.00">_length</text>
</a>
</g>
</g>
<!-- Node10&#45;&gt;Node11 -->
<g id="edge17_Node000010_Node000011" class="edge">
<title>Node10&#45;&gt;Node11</title>
<g id="a_edge17_Node000010_Node000011"><a xlink:title=" ">
<path fill="none" stroke="#63b8ff" d="M472.75,-64.25C490.33,-64.25 509.88,-64.25 528.32,-64.25"/>
<polygon fill="#63b8ff" stroke="#63b8ff" points="528.11,-67.75 538.1,-64.25 528.1,-60.75 528.11,-67.75"/>
</a>
</g>
</g>
<!-- Node14 -->
<g id="Node000014" class="node">
<title>Node14</title>
<g id="a_Node000014"><a xlink:href="group__gp__mynnedmf_ga4fa1805b4144393074c41831e22f9cf4.html#ga4fa1805b4144393074c41831e22f9cf4" target="_top" xlink:title=" ">
<polygon fill="white" stroke="#666666" points="477.38,-208.88 350.38,-208.88 350.38,-189.62 477.38,-189.62 477.38,-208.88"/>
<text xml:space="preserve" text-anchor="middle" x="413.88" y="-195.38" font-family="Source Sans Pro" font-size="10.00">module_bl_mynn::tridiag2</text>
</a>
</g>
</g>
<!-- Node13&#45;&gt;Node14 -->
<g id="edge20_Node000013_Node000014" class="edge">
<title>Node13&#45;&gt;Node14</title>
<g id="a_edge20_Node000013_Node000014"><a xlink:title=" ">
<path fill="none" stroke="#63b8ff" d="M280.74,-199.25C299.02,-199.25 319.45,-199.25 338.68,-199.25"/>
<polygon fill="#63b8ff" stroke="#63b8ff" points="338.64,-202.75 348.64,-199.25 338.64,-195.75 338.64,-202.75"/>
</a>
</g>
</g>
<!-- Node15&#45;&gt;Node10 -->
<g id="edge22_Node000015_Node000010" class="edge">
<title>Node15&#45;&gt;Node10</title>
<g id="a_edge22_Node000015_Node000010"><a xlink:title=" ">
<path fill="none" stroke="#63b8ff" d="M280.74,-64.25C300.56,-64.25 322.93,-64.25 343.54,-64.25"/>
<polygon fill="#63b8ff" stroke="#63b8ff" points="343.27,-67.75 353.27,-64.25 343.27,-60.75 343.27,-67.75"/>
</a>
</g>
</g>
<!-- Node15&#45;&gt;Node12 -->
<g id="edge23_Node000015_Node000012" class="edge">
<title>Node15&#45;&gt;Node12</title>
<g id="a_edge23_Node000015_Node000012"><a xlink:title=" ">
<path fill="none" stroke="#63b8ff" d="M280.74,-79.22C300.66,-84.35 323.13,-90.14 343.83,-95.47"/>
<polygon fill="#63b8ff" stroke="#63b8ff" points="342.77,-98.81 353.32,-97.91 344.51,-92.03 342.77,-98.81"/>
</a>
</g>
</g>
<!-- Node16&#45;&gt;Node4 -->
<g id="edge25_Node000016_Node000004" class="edge">
<title>Node16&#45;&gt;Node4</title>
<g id="a_edge25_Node000016_Node000004"><a xlink:title=" ">
<path fill="none" stroke="#63b8ff" d="M281.74,-244.34C340.5,-242.71 432.02,-246.37 504,-277.25 534.56,-290.36 562.61,-316.61 580.6,-336.09"/>
<polygon fill="#63b8ff" stroke="#63b8ff" points="577.85,-338.26 587.12,-343.37 583.06,-333.59 577.85,-338.26"/>
</a>
</g>
</g>
<!-- Node16&#45;&gt;Node14 -->
<g id="edge26_Node000016_Node000014" class="edge">
<title>Node16&#45;&gt;Node14</title>
<g id="a_edge26_Node000016_Node000014"><a xlink:title=" ">
<path fill="none" stroke="#63b8ff" d="M281.78,-233.01C307.7,-226.34 337.79,-218.59 362.61,-212.2"/>
<polygon fill="#63b8ff" stroke="#63b8ff" points="363.33,-215.63 372.14,-209.74 361.58,-208.85 363.33,-215.63"/>
</a>
</g>
</g>
</g>
</svg>

<g id="navigator" transform="translate(0 0)" fill="#404254">
  <rect fill="#f2f5e9" fill-opacity="0.5" stroke="#606060" stroke-width=".5" x="0" y="0" width="60" height="60"/>
  <use id="zoomplus" xlink:href="#zoomPlus" x="17" y="9" onmousedown="handleZoom(evt,'in')"/>
  <use id="zoomminus" xlink:href="#zoomMin" x="42" y="9" onmousedown="handleZoom(evt,'out')"/>
  <use id="reset" xlink:href="#resetDef" x="30" y="36" onmousedown="handleReset()"/>
   <use id="arrowup" xlink:href="#arrowUp" x="0" y="0" onmousedown="handlePan(0,-1)"/>
  <use id="arrowright" xlink:href="#arrowRight" x="0" y="0" onmousedown="handlePan(1,0)"/>
  <use id="arrowdown" xlink:href="#arrowDown" x="0" y="0" onmousedown="handlePan(0,1)"/>
  <use id="arrowleft" xlink:href="#arrowLeft" x="0" y="0" onmousedown="handlePan(-1,0)"/>
</g>
<svg viewBox="0 0 15 15" width="100%" height="30px" preserveAspectRatio="xMaxYMin meet">
 <g id="arrow_out" transform="scale(0.3 0.3)">
  <a xlink:href="group__gp__mynnedmf_ga727e10ec7e7a73d34a7f50dadbda2b83_ga727e10ec7e7a73d34a7f50dadbda2b83_cgraph_org.svg" target="_base">
   <rect id="button" ry="5" rx="5" y="6" x="6" height="38" width="38"
        fill="#f2f5e9" fill-opacity="0.5" stroke="#606060" stroke-width="1.0"/>
   <path id="arrow"
     d="M 11.500037,31.436501 C 11.940474,20.09759 22.043105,11.32322 32.158766,21.979434 L 37.068811,17.246167 C 37.068811,17.246167 37.088388,32 37.088388,32 L 22.160133,31.978069 C 22.160133,31.978069 26.997745,27.140456 26.997745,27.140456 C 18.528582,18.264221 13.291696,25.230495 11.500037,31.436501 z"
     style="fill:#404040;"/>
  </a>
 </g>
</svg>

<style type='text/css'>
<![CDATA[
[data-mouse-over-selected='false'] { opacity: 0.7; }
[data-mouse-over-selected='true']  { opacity: 1.0; }
]]>
</style>
<script type="application/ecmascript"><![CDATA[
document.addEventListener('DOMContentLoaded', (event) => {
  highlightEdges();
  highlightAdjacentNodes();
});
]]></script>
</svg>
