<?xml version="1.0" encoding="UTF-8" standalone="no"?>
<!DOCTYPE svg PUBLIC "-//W3C//DTD SVG 1.1//EN"
 "http://www.w3.org/Graphics/SVG/1.1/DTD/svg11.dtd">
<!-- Generated by graphviz version 14.1.2 (20260124.0452)
 -->
<!-- Title: noahmp_glacier_routines::glacier_flux Pages: 1 -->
<svg width="421pt" height="199pt"
 viewBox="0.00 0.00 421.00 199.00" xmlns="http://www.w3.org/2000/svg" xmlns:xlink="http://www.w3.org/1999/xlink">
<g id="graph0" class="graph" transform="scale(1 1) rotate(0) translate(4 194.88)">
<title>noahmp_glacier_routines::glacier_flux</title>
<!-- Node1 -->
<g id="Node000001" class="node">
<title>Node1</title>
<g id="a_Node000001"><a xlink:title="use newton&#45;raphson iteration to solve ground (tg) temperature that balances the surface energy budget...">
<polygon fill="#999999" stroke="#666666" points="124,-141.88 0,-141.88 0,-111.38 124,-111.38 124,-141.88"/>
<text xml:space="preserve" text-anchor="start" x="8" y="-128.38" font-family="Source Sans Pro" font-size="10.00">noahmp_glacier_routines</text>
<text xml:space="preserve" text-anchor="middle" x="62" y="-117.12" font-family="Source Sans Pro" font-size="10.00">::glacier_flux</text>
</a>
</g>
</g>
<!-- Node2 -->
<g id="Node000002" class="node">
<title>Node2</title>
<g id="a_Node000002"><a xlink:href="group___noah_m_p___l_s_m_ga198a78cba7dcb5d138ee9f2896b932ff.html#ga198a78cba7dcb5d138ee9f2896b932ff" target="_top" xlink:title=" ">
<polygon fill="white" stroke="#666666" points="284,-190.88 160,-190.88 160,-160.38 284,-160.38 284,-190.88"/>
<text xml:space="preserve" text-anchor="start" x="168" y="-177.38" font-family="Source Sans Pro" font-size="10.00">noahmp_glacier_routines</text>
<text xml:space="preserve" text-anchor="middle" x="222" y="-166.12" font-family="Source Sans Pro" font-size="10.00">::esat</text>
</a>
</g>
</g>
<!-- Node1&#45;&gt;Node2 -->
<g id="edge1_Node000001_Node000002" class="edge">
<title>Node1&#45;&gt;Node2</title>
<g id="a_edge1_Node000001_Node000002"><a xlink:title=" ">
<path fill="none" stroke="#63b8ff" d="M113.43,-142.26C128.03,-146.79 144.15,-151.79 159.36,-156.51"/>
<polygon fill="#63b8ff" stroke="#63b8ff" points="158.21,-159.82 168.79,-159.43 160.28,-153.13 158.21,-159.82"/>
</a>
</g>
</g>
<!-- Node3 -->
<g id="Node000003" class="node">
<title>Node3</title>
<g id="a_Node000003"><a xlink:href="group___noah_m_p___l_s_m_ga3233db40fc83f01063964817c22944ac.html#ga3233db40fc83f01063964817c22944ac" target="_top" xlink:title="compute surface drag coefficient cm for momentum and ch for heat">
<polygon fill="white" stroke="#666666" points="284,-141.88 160,-141.88 160,-111.38 284,-111.38 284,-141.88"/>
<text xml:space="preserve" text-anchor="start" x="168" y="-128.38" font-family="Source Sans Pro" font-size="10.00">noahmp_glacier_routines</text>
<text xml:space="preserve" text-anchor="middle" x="222" y="-117.12" font-family="Source Sans Pro" font-size="10.00">::sfcdif1_glacier</text>
</a>
</g>
</g>
<!-- Node1&#45;&gt;Node3 -->
<g id="edge2_Node000001_Node000003" class="edge">
<title>Node1&#45;&gt;Node3</title>
<g id="a_edge2_Node000001_Node000003"><a xlink:title=" ">
<path fill="none" stroke="#63b8ff" d="M124.09,-126.62C132,-126.62 140.16,-126.62 148.23,-126.62"/>
<polygon fill="#63b8ff" stroke="#63b8ff" points="148.04,-130.13 158.04,-126.63 148.04,-123.13 148.04,-130.13"/>
</a>
</g>
</g>
<!-- Node4 -->
<g id="Node000004" class="node">
<title>Node4</title>
<g id="a_Node000004"><a xlink:href="group___noah_m_p___l_s_m_ga4a88258da12057ced7c9dc5760b53d13.html#ga4a88258da12057ced7c9dc5760b53d13" target="_top" xlink:title=" ">
<polygon fill="white" stroke="#666666" points="244.62,-93.25 199.38,-93.25 199.38,-74 244.62,-74 244.62,-93.25"/>
<text xml:space="preserve" text-anchor="middle" x="222" y="-79.75" font-family="Source Sans Pro" font-size="10.00">sfcdif4</text>
</a>
</g>
</g>
<!-- Node1&#45;&gt;Node4 -->
<g id="edge3_Node000001_Node000004" class="edge">
<title>Node1&#45;&gt;Node4</title>
<g id="a_edge3_Node000001_Node000004"><a xlink:title=" ">
<path fill="none" stroke="#63b8ff" d="M120.49,-110.98C143.25,-104.79 168.58,-97.89 188.12,-92.57"/>
<polygon fill="#63b8ff" stroke="#63b8ff" points="188.99,-95.96 197.72,-89.96 187.15,-89.21 188.99,-95.96"/>
</a>
</g>
</g>
<!-- Node5 -->
<g id="Node000005" class="node">
<title>Node5</title>
<g id="a_Node000005"><a xlink:href="group__mynn__sfc_gab8e348eef161b16bada8841a900501c2.html#gab8e348eef161b16bada8841a900501c2" target="_top" xlink:title="this is taken from andreas (2002; j. of hydromet) and andreas et al. (2005; blm).">
<polygon fill="white" stroke="#666666" points="405,-167.25 328.25,-167.25 328.25,-148 405,-148 405,-167.25"/>
<text xml:space="preserve" text-anchor="middle" x="366.62" y="-153.75" font-family="Source Sans Pro" font-size="10.00">andreas_2002</text>
</a>
</g>
</g>
<!-- Node4&#45;&gt;Node5 -->
<g id="edge4_Node000004_Node000005" class="edge">
<title>Node4&#45;&gt;Node5</title>
<g id="a_edge4_Node000004_Node000005"><a xlink:title=" ">
<path fill="none" stroke="#63b8ff" d="M245,-87.69C257.13,-90.6 272.09,-95.31 284,-102.62 303.55,-114.63 300.9,-126.91 320,-139.62 321.56,-140.66 323.19,-141.66 324.86,-142.6"/>
<polygon fill="#63b8ff" stroke="#63b8ff" points="322.92,-145.54 333.43,-146.86 326.03,-139.28 322.92,-145.54"/>
</a>
</g>
</g>
<!-- Node6 -->
<g id="Node000006" class="node">
<title>Node6</title>
<g id="a_Node000006"><a xlink:href="group___noah_m_p___l_s_m_ga88dbf6bdf1a8097e27b06ddfce89516c.html#ga88dbf6bdf1a8097e27b06ddfce89516c" target="_top" xlink:title="data. the formula for land uses a constant ratio (z_0/7.4) taken from garratt (1992).">
<polygon fill="white" stroke="#666666" points="401.62,-130.25 331.62,-130.25 331.62,-111 401.62,-111 401.62,-130.25"/>
<text xml:space="preserve" text-anchor="middle" x="366.62" y="-116.75" font-family="Source Sans Pro" font-size="10.00">garratt_1992</text>
</a>
</g>
</g>
<!-- Node4&#45;&gt;Node6 -->
<g id="edge5_Node000004_Node000006" class="edge">
<title>Node4&#45;&gt;Node6</title>
<g id="a_edge5_Node000004_Node000006"><a xlink:title=" ">
<path fill="none" stroke="#63b8ff" d="M244.97,-89.33C264.89,-94.49 294.89,-102.28 319.99,-108.79"/>
<polygon fill="#63b8ff" stroke="#63b8ff" points="319.1,-112.17 329.66,-111.3 320.86,-105.4 319.1,-112.17"/>
</a>
</g>
</g>
<!-- Node7 -->
<g id="Node000007" class="node">
<title>Node7</title>
<g id="a_Node000007"><a xlink:href="group__mynn__sfc_ga7bbe8445bfcae5adad4fed82a0ecbaee.html#ga7bbe8445bfcae5adad4fed82a0ecbaee" target="_top" xlink:title="this subroutine returns a more robust z/l that best matches the z/l from hogstrom (1996) for unstable...">
<polygon fill="white" stroke="#666666" points="400.5,-93.25 332.75,-93.25 332.75,-74 400.5,-74 400.5,-93.25"/>
<text xml:space="preserve" text-anchor="middle" x="366.62" y="-79.75" font-family="Source Sans Pro" font-size="10.00">li_etal_2010</text>
</a>
</g>
</g>
<!-- Node4&#45;&gt;Node7 -->
<g id="edge6_Node000004_Node000007" class="edge">
<title>Node4&#45;&gt;Node7</title>
<g id="a_edge6_Node000004_Node000007"><a xlink:title=" ">
<path fill="none" stroke="#63b8ff" d="M244.97,-83.62C265.23,-83.62 295.92,-83.62 321.27,-83.62"/>
<polygon fill="#63b8ff" stroke="#63b8ff" points="320.97,-87.13 330.97,-83.63 320.97,-80.13 320.97,-87.13"/>
</a>
</g>
</g>
<!-- Node8 -->
<g id="Node000008" class="node">
<title>Node8</title>
<g id="a_Node000008"><a xlink:href="group__mynn__sfc_ga25595438cdc181cd5e5e05aa45486a69.html#ga25595438cdc181cd5e5e05aa45486a69" target="_top" xlink:title="this is a modified version of yang et al (2002 qjrms, 2008 jamc) and chen et al (2010,...">
<polygon fill="white" stroke="#666666" points="398.25,-56.25 335,-56.25 335,-37 398.25,-37 398.25,-56.25"/>
<text xml:space="preserve" text-anchor="middle" x="366.62" y="-42.75" font-family="Source Sans Pro" font-size="10.00">yang_2008</text>
</a>
</g>
</g>
<!-- Node4&#45;&gt;Node8 -->
<g id="edge7_Node000004_Node000008" class="edge">
<title>Node4&#45;&gt;Node8</title>
<g id="a_edge7_Node000004_Node000008"><a xlink:title=" ">
<path fill="none" stroke="#63b8ff" d="M244.97,-77.92C265.87,-72.5 297.85,-64.21 323.64,-57.52"/>
<polygon fill="#63b8ff" stroke="#63b8ff" points="324.36,-60.95 333.16,-55.05 322.6,-54.17 324.36,-60.95"/>
</a>
</g>
</g>
<!-- Node9 -->
<g id="Node000009" class="node">
<title>Node9</title>
<g id="a_Node000009"><a xlink:href="group___noah_m_p___l_s_m_gaa1453a4f904aa171ea91510f464824b3.html#gaa1453a4f904aa171ea91510f464824b3" target="_top" xlink:title=" ">
<polygon fill="white" stroke="#666666" points="413.25,-19.25 320,-19.25 320,0 413.25,0 413.25,-19.25"/>
<text xml:space="preserve" text-anchor="middle" x="366.62" y="-5.75" font-family="Source Sans Pro" font-size="10.00">zilitinkevich_1995</text>
</a>
</g>
</g>
<!-- Node4&#45;&gt;Node9 -->
<g id="edge8_Node000004_Node000009" class="edge">
<title>Node4&#45;&gt;Node9</title>
<g id="a_edge8_Node000004_Node000009"><a xlink:title=" ">
<path fill="none" stroke="#63b8ff" d="M238.74,-73.57C257.61,-61.74 290.4,-41.91 320,-27.62 322.55,-26.39 325.21,-25.18 327.9,-24"/>
<polygon fill="#63b8ff" stroke="#63b8ff" points="329.05,-27.31 336.92,-20.22 326.35,-20.85 329.05,-27.31"/>
</a>
</g>
</g>
</g>
</svg>
