<?xml version="1.0" encoding="UTF-8" standalone="no"?>
<!DOCTYPE svg PUBLIC "-//W3C//DTD SVG 1.1//EN"
 "http://www.w3.org/Graphics/SVG/1.1/DTD/svg11.dtd">
<!-- Generated by graphviz version 14.1.2 (20260124.0452)
 -->
<!-- Title: cu_gf_deep::my_maxloc1d Pages: 1 -->
<svg width="756pt" height="64pt"
 viewBox="0.00 0.00 756.00 64.00" xmlns="http://www.w3.org/2000/svg" xmlns:xlink="http://www.w3.org/1999/xlink">
<g id="graph0" class="graph" transform="scale(1 1) rotate(0) translate(4 60.25)">
<title>cu_gf_deep::my_maxloc1d</title>
<!-- Node1 -->
<g id="Node000001" class="node">
<title>Node1</title>
<g id="a_Node000001"><a xlink:title=" ">
<polygon fill="#999999" stroke="#666666" points="747.5,-38.25 614.5,-38.25 614.5,-19 747.5,-19 747.5,-38.25"/>
<text xml:space="preserve" text-anchor="middle" x="681" y="-24.75" font-family="Source Sans Pro" font-size="10.00">cu_gf_deep::my_maxloc1d</text>
</a>
</g>
</g>
<!-- Node1&#45;&gt;Node1 -->
<g id="edge8_Node000001_Node000001" class="edge">
<title>Node1&#45;&gt;Node1</title>
<g id="a_edge8_Node000001_Node000001"><a xlink:title=" ">
<path fill="none" stroke="#63b8ff" d="M708.48,-49.32C705.31,-53.37 696.15,-56.25 681,-56.25 654.06,-56.25 646.06,-47.15 657.01,-38.54"/>
<polygon fill="#63b8ff" stroke="#63b8ff" points="711.87,-48.42 705.46,-39.98 705.21,-50.57 711.87,-48.42"/>
</a>
</g>
</g>
<!-- Node2 -->
<g id="Node000002" class="node">
<title>Node2</title>
<g id="a_Node000002"><a xlink:href="group__cu__gf__deep__group_ga0ea82b4d199c9b93aa5200682dda3685.html#ga0ea82b4d199c9b93aa5200682dda3685" target="_top" xlink:title="Calculates a normalized mass&#45;flux profile for updrafts and downdrafts using the beta function.">
<polygon fill="white" stroke="#666666" points="578.5,-43.88 477,-43.88 477,-13.37 578.5,-13.37 578.5,-43.88"/>
<text xml:space="preserve" text-anchor="start" x="485" y="-30.38" font-family="Source Sans Pro" font-size="10.00">cu_gf_deep::get_zu</text>
<text xml:space="preserve" text-anchor="middle" x="527.75" y="-19.12" font-family="Source Sans Pro" font-size="10.00">_zd_pdf_fim</text>
</a>
</g>
</g>
<!-- Node1&#45;&gt;Node2 -->
<g id="edge1_Node000001_Node000002" class="edge">
<title>Node1&#45;&gt;Node2</title>
<g id="a_edge1_Node000001_Node000002"><a xlink:title=" ">
<path fill="none" stroke="#63b8ff" d="M602.72,-28.62C594.65,-28.62 586.61,-28.62 578.96,-28.62"/>
<polygon fill="#63b8ff" stroke="#63b8ff" points="602.59,-32.13 612.59,-28.63 602.59,-25.13 602.59,-32.13"/>
</a>
</g>
</g>
<!-- Node3 -->
<g id="Node000003" class="node">
<title>Node3</title>
<g id="a_Node000003"><a xlink:href="group__cu__gf__deep__group_ga6fb15c7cf491936bd0b501eb4a7c3147.html#ga6fb15c7cf491936bd0b501eb4a7c3147" target="_top" xlink:title="Driver for the deep or congestus GF routine.">
<polygon fill="white" stroke="#666666" points="276.5,-56.25 135.25,-56.25 135.25,-37 276.5,-37 276.5,-56.25"/>
<text xml:space="preserve" text-anchor="middle" x="205.88" y="-42.75" font-family="Source Sans Pro" font-size="10.00">cu_gf_deep::cu_gf_deep_run</text>
</a>
</g>
</g>
<!-- Node2&#45;&gt;Node3 -->
<g id="edge2_Node000002_Node000003" class="edge">
<title>Node2&#45;&gt;Node3</title>
<g id="a_edge2_Node000002_Node000003"><a xlink:title=" ">
<path fill="none" stroke="#63b8ff" d="M465.33,-32.08C411.49,-35.11 333.25,-39.51 276.97,-42.68"/>
<polygon fill="#63b8ff" stroke="#63b8ff" points="465.47,-35.58 475.26,-31.52 465.08,-28.59 465.47,-35.58"/>
</a>
</g>
</g>
<!-- Node5 -->
<g id="Node000005" class="node">
<title>Node5</title>
<g id="a_Node000005"><a xlink:href="group__cu__gf__deep__group_ga7ab8f34f0c857d59f7c9b44e7126e83b.html#ga7ab8f34f0c857d59f7c9b44e7126e83b" target="_top" xlink:title="Driver for the normalized mass&#45;flux routine.">
<polygon fill="white" stroke="#666666" points="441,-19.25 312.5,-19.25 312.5,0 441,0 441,-19.25"/>
<text xml:space="preserve" text-anchor="middle" x="376.75" y="-5.75" font-family="Source Sans Pro" font-size="10.00">cu_gf_deep::rates_up_pdf</text>
</a>
</g>
</g>
<!-- Node2&#45;&gt;Node5 -->
<g id="edge4_Node000002_Node000005" class="edge">
<title>Node2&#45;&gt;Node5</title>
<g id="a_edge4_Node000002_Node000005"><a xlink:title=" ">
<path fill="none" stroke="#63b8ff" d="M465.34,-20.79C457.44,-19.79 449.34,-18.75 441.41,-17.74"/>
<polygon fill="#63b8ff" stroke="#63b8ff" points="464.86,-24.26 475.22,-22.05 465.74,-17.32 464.86,-24.26"/>
</a>
</g>
</g>
<!-- Node4 -->
<g id="Node000004" class="node">
<title>Node4</title>
<g id="a_Node000004"><a xlink:href="group__cu__gf__group_ga5d2242a3e3ed78e40c6b81ee2538801b.html#ga5d2242a3e3ed78e40c6b81ee2538801b" target="_top" xlink:title="This is the Grell&#45;Freitas convection scheme driver module.">
<polygon fill="white" stroke="#666666" points="99.25,-42.88 0,-42.88 0,-12.37 99.25,-12.37 99.25,-42.88"/>
<text xml:space="preserve" text-anchor="start" x="8" y="-29.38" font-family="Source Sans Pro" font-size="10.00">cu_gf_driver::cu_gf</text>
<text xml:space="preserve" text-anchor="middle" x="49.62" y="-18.12" font-family="Source Sans Pro" font-size="10.00">_driver_run</text>
</a>
</g>
</g>
<!-- Node3&#45;&gt;Node4 -->
<g id="edge3_Node000003_Node000004" class="edge">
<title>Node3&#45;&gt;Node4</title>
<g id="a_edge3_Node000003_Node000004"><a xlink:title=" ">
<path fill="none" stroke="#63b8ff" d="M123.73,-36.63C115.49,-35.61 107.3,-34.61 99.56,-33.65"/>
<polygon fill="#63b8ff" stroke="#63b8ff" points="123.12,-40.08 133.47,-37.83 123.97,-33.13 123.12,-40.08"/>
</a>
</g>
</g>
<!-- Node5&#45;&gt;Node3 -->
<g id="edge5_Node000005_Node000003" class="edge">
<title>Node5&#45;&gt;Node3</title>
<g id="a_edge5_Node000005_Node000003"><a xlink:title=" ">
<path fill="none" stroke="#63b8ff" d="M318.39,-22.19C297.06,-26.87 273.16,-32.1 252.97,-36.53"/>
<polygon fill="#63b8ff" stroke="#63b8ff" points="319.11,-25.62 328.13,-20.06 317.61,-18.78 319.11,-25.62"/>
</a>
</g>
</g>
<!-- Node6 -->
<g id="Node000006" class="node">
<title>Node6</title>
<g id="a_Node000006"><a xlink:href="group__cu__gf__sh__group_gac3f853aacccfdee63bf9a5e64611683f.html#gac3f853aacccfdee63bf9a5e64611683f" target="_top" xlink:title=" ">
<polygon fill="white" stroke="#666666" points="266,-19.25 145.75,-19.25 145.75,0 266,0 266,-19.25"/>
<text xml:space="preserve" text-anchor="middle" x="205.88" y="-5.75" font-family="Source Sans Pro" font-size="10.00">cu_gf_sh::cu_gf_sh_run</text>
</a>
</g>
</g>
<!-- Node5&#45;&gt;Node6 -->
<g id="edge6_Node000005_Node000006" class="edge">
<title>Node5&#45;&gt;Node6</title>
<g id="a_edge6_Node000005_Node000006"><a xlink:title=" ">
<path fill="none" stroke="#63b8ff" d="M300.94,-9.62C289.38,-9.62 277.57,-9.62 266.4,-9.62"/>
<polygon fill="#63b8ff" stroke="#63b8ff" points="300.87,-13.13 310.87,-9.63 300.87,-6.13 300.87,-13.13"/>
</a>
</g>
</g>
<!-- Node6&#45;&gt;Node4 -->
<g id="edge7_Node000006_Node000004" class="edge">
<title>Node6&#45;&gt;Node4</title>
<g id="a_edge7_Node000006_Node000004"><a xlink:title=" ">
<path fill="none" stroke="#63b8ff" d="M134.43,-17.85C122.59,-19.23 110.54,-20.63 99.4,-21.93"/>
<polygon fill="#63b8ff" stroke="#63b8ff" points="134.65,-21.34 144.18,-16.71 133.84,-14.39 134.65,-21.34"/>
</a>
</g>
</g>
</g>
</svg>
