<?xml version="1.0" encoding="UTF-8" standalone="no"?>
<!DOCTYPE svg PUBLIC "-//W3C//DTD SVG 1.1//EN"
 "http://www.w3.org/Graphics/SVG/1.1/DTD/svg11.dtd">
<!-- Generated by graphviz version 14.1.2 (20260124.0452)
 -->
<!-- Title: module_mp_nssl_2mom::nssl_2mom_gs Pages: 1 -->
<svg width="445pt" height="612pt"
 viewBox="0.00 0.00 445.00 612.00" xmlns="http://www.w3.org/2000/svg" xmlns:xlink="http://www.w3.org/1999/xlink">
<g id="graph0" class="graph" transform="scale(1 1) rotate(0) translate(4 607.5)">
<title>module_mp_nssl_2mom::nssl_2mom_gs</title>
<!-- Node1 -->
<g id="Node000001" class="node">
<title>Node1</title>
<g id="a_Node000001"><a xlink:title="Main microphysical processes routine.">
<polygon fill="#999999" stroke="#666666" points="121.75,-283.5 0,-283.5 0,-253 121.75,-253 121.75,-283.5"/>
<text xml:space="preserve" text-anchor="start" x="8" y="-270" font-family="Source Sans Pro" font-size="10.00">module_mp_nssl_2mom</text>
<text xml:space="preserve" text-anchor="middle" x="60.88" y="-258.75" font-family="Source Sans Pro" font-size="10.00">::nssl_2mom_gs</text>
</a>
</g>
</g>
<!-- Node2 -->
<g id="Node000002" class="node">
<title>Node2</title>
<g id="a_Node000002"><a xlink:href="group__mod__nsslmp_gacfb4b38156737aa351dcc8dd1a3492c5.html#gacfb4b38156737aa351dcc8dd1a3492c5" target="_top" xlink:title="Function calculates collection coefficients following Siefert (2006).">
<polygon fill="white" stroke="#666666" points="279.5,-585.5 157.75,-585.5 157.75,-555 279.5,-555 279.5,-585.5"/>
<text xml:space="preserve" text-anchor="start" x="165.75" y="-572" font-family="Source Sans Pro" font-size="10.00">module_mp_nssl_2mom</text>
<text xml:space="preserve" text-anchor="middle" x="218.62" y="-560.75" font-family="Source Sans Pro" font-size="10.00">::delabk</text>
</a>
</g>
</g>
<!-- Node1&#45;&gt;Node2 -->
<g id="edge1_Node000001_Node000002" class="edge">
<title>Node1&#45;&gt;Node2</title>
<g id="a_edge1_Node000001_Node000002"><a xlink:title=" ">
<path fill="none" stroke="#63b8ff" d="M62.93,-283.99C66.85,-330.21 84.4,-467.18 157.75,-545.25 158.6,-546.15 159.48,-547.02 160.4,-547.87"/>
<polygon fill="#63b8ff" stroke="#63b8ff" points="158.12,-550.53 168.22,-553.73 162.32,-544.93 158.12,-550.53"/>
</a>
</g>
</g>
<!-- Node3 -->
<g id="Node000003" class="node">
<title>Node3</title>
<g id="a_Node000003"><a xlink:href="group__mod__nsslmp_ga0dabeda97fcbc7690787bb712eb2c267.html#ga0dabeda97fcbc7690787bb712eb2c267" target="_top" xlink:title="Function calculates collection coefficients following Siefert (2006).">
<polygon fill="white" stroke="#666666" points="279.5,-518.5 157.75,-518.5 157.75,-488 279.5,-488 279.5,-518.5"/>
<text xml:space="preserve" text-anchor="start" x="165.75" y="-505" font-family="Source Sans Pro" font-size="10.00">module_mp_nssl_2mom</text>
<text xml:space="preserve" text-anchor="middle" x="218.62" y="-493.75" font-family="Source Sans Pro" font-size="10.00">::delbk</text>
</a>
</g>
</g>
<!-- Node1&#45;&gt;Node3 -->
<g id="edge3_Node000001_Node000003" class="edge">
<title>Node1&#45;&gt;Node3</title>
<g id="a_edge3_Node000001_Node000003"><a xlink:title=" ">
<path fill="none" stroke="#63b8ff" d="M64.92,-283.97C73.13,-322.29 99.14,-421.53 157.75,-478.25 158.8,-479.26 159.89,-480.24 161.03,-481.18"/>
<polygon fill="#63b8ff" stroke="#63b8ff" points="158.92,-483.97 169.13,-486.79 162.9,-478.22 158.92,-483.97"/>
</a>
</g>
</g>
<!-- Node4 -->
<g id="Node000004" class="node">
<title>Node4</title>
<g id="a_Node000004"><a xlink:href="group__mod__nsslmp_ga6d0f1fb5cc9fda3d99aa187d63368fe9.html#ga6d0f1fb5cc9fda3d99aa187d63368fe9" target="_top" xlink:title="Function to interpolate from a table of incomplete gamma function values.">
<polygon fill="white" stroke="#666666" points="279.5,-451.5 157.75,-451.5 157.75,-421 279.5,-421 279.5,-451.5"/>
<text xml:space="preserve" text-anchor="start" x="165.75" y="-438" font-family="Source Sans Pro" font-size="10.00">module_mp_nssl_2mom</text>
<text xml:space="preserve" text-anchor="middle" x="218.62" y="-426.75" font-family="Source Sans Pro" font-size="10.00">::gaminterp</text>
</a>
</g>
</g>
<!-- Node1&#45;&gt;Node4 -->
<g id="edge5_Node000001_Node000004" class="edge">
<title>Node1&#45;&gt;Node4</title>
<g id="a_edge5_Node000001_Node000004"><a xlink:title=" ">
<path fill="none" stroke="#63b8ff" d="M68.54,-283.76C81.65,-312.6 113.41,-374.82 157.75,-411.25 159.22,-412.45 160.75,-413.61 162.33,-414.71"/>
<polygon fill="#63b8ff" stroke="#63b8ff" points="160.2,-417.52 170.56,-419.73 163.85,-411.54 160.2,-417.52"/>
</a>
</g>
</g>
<!-- Node5 -->
<g id="Node000005" class="node">
<title>Node5</title>
<g id="a_Node000005"><a xlink:href="group__mod__nsslmp_gab0a066fab5da9d3bb15ed2a2722b47e6.html#gab0a066fab5da9d3bb15ed2a2722b47e6" target="_top" xlink:title="Function calculates Gamma(0.2,x)/Gamma[0.2] for 40 micro drops ( imurain == 3 ).">
<polygon fill="white" stroke="#666666" points="279.5,-384.5 157.75,-384.5 157.75,-354 279.5,-354 279.5,-384.5"/>
<text xml:space="preserve" text-anchor="start" x="165.75" y="-371" font-family="Source Sans Pro" font-size="10.00">module_mp_nssl_2mom</text>
<text xml:space="preserve" text-anchor="middle" x="218.62" y="-359.75" font-family="Source Sans Pro" font-size="10.00">::gaml02</text>
</a>
</g>
</g>
<!-- Node1&#45;&gt;Node5 -->
<g id="edge7_Node000001_Node000005" class="edge">
<title>Node1&#45;&gt;Node5</title>
<g id="a_edge7_Node000001_Node000005"><a xlink:title=" ">
<path fill="none" stroke="#63b8ff" d="M78.5,-283.78C96.84,-300.34 127.75,-326.55 157.75,-344.25 160.34,-345.78 163.05,-347.26 165.81,-348.69"/>
<polygon fill="#63b8ff" stroke="#63b8ff" points="164.11,-351.75 174.63,-352.96 167.16,-345.45 164.11,-351.75"/>
</a>
</g>
</g>
<!-- Node6 -->
<g id="Node000006" class="node">
<title>Node6</title>
<g id="a_Node000006"><a xlink:href="group__mod__nsslmp_gac1cafe76bb3fb3c6188460773d4ad989.html#gac1cafe76bb3fb3c6188460773d4ad989" target="_top" xlink:title="Function calculates fraction of drops larger than 300 microns ( imurain == 3 ).">
<polygon fill="white" stroke="#666666" points="279.5,-317.5 157.75,-317.5 157.75,-287 279.5,-287 279.5,-317.5"/>
<text xml:space="preserve" text-anchor="start" x="165.75" y="-304" font-family="Source Sans Pro" font-size="10.00">module_mp_nssl_2mom</text>
<text xml:space="preserve" text-anchor="middle" x="218.62" y="-292.75" font-family="Source Sans Pro" font-size="10.00">::gaml02d300</text>
</a>
</g>
</g>
<!-- Node1&#45;&gt;Node6 -->
<g id="edge9_Node000001_Node000006" class="edge">
<title>Node1&#45;&gt;Node6</title>
<g id="a_edge9_Node000001_Node000006"><a xlink:title=" ">
<path fill="none" stroke="#63b8ff" d="M122.09,-281.4C129.95,-283.11 138.05,-284.88 146.07,-286.63"/>
<polygon fill="#63b8ff" stroke="#63b8ff" points="145.32,-290.05 155.83,-288.76 146.81,-283.21 145.32,-290.05"/>
</a>
</g>
</g>
<!-- Node7 -->
<g id="Node000007" class="node">
<title>Node7</title>
<g id="a_Node000007"><a xlink:href="group__mod__nsslmp_ga61f606380174ead05eccd18a0de55b54.html#ga61f606380174ead05eccd18a0de55b54" target="_top" xlink:title="Function calculates Gamma(0.2,x)/Gamma[0.2] for 500 micro drops ( imurain == 3 ).">
<polygon fill="white" stroke="#666666" points="279.5,-250.5 157.75,-250.5 157.75,-220 279.5,-220 279.5,-250.5"/>
<text xml:space="preserve" text-anchor="start" x="165.75" y="-237" font-family="Source Sans Pro" font-size="10.00">module_mp_nssl_2mom</text>
<text xml:space="preserve" text-anchor="middle" x="218.62" y="-225.75" font-family="Source Sans Pro" font-size="10.00">::gaml02d500</text>
</a>
</g>
</g>
<!-- Node1&#45;&gt;Node7 -->
<g id="edge11_Node000001_Node000007" class="edge">
<title>Node1&#45;&gt;Node7</title>
<g id="a_edge11_Node000001_Node000007"><a xlink:title=" ">
<path fill="none" stroke="#63b8ff" d="M122.09,-255.49C129.95,-253.83 138.05,-252.11 146.07,-250.41"/>
<polygon fill="#63b8ff" stroke="#63b8ff" points="146.77,-253.84 155.83,-248.34 145.32,-246.99 146.77,-253.84"/>
</a>
</g>
</g>
<!-- Node8 -->
<g id="Node000008" class="node">
<title>Node8</title>
<g id="a_Node000008"><a xlink:href="group__mod__nsslmp_ga966c94b788d8e8958fff525003f48fd9.html#ga966c94b788d8e8958fff525003f48fd9" target="_top" xlink:title="Single&#45;precision complete gamma function.">
<polygon fill="white" stroke="#666666" points="437.25,-146.5 315.5,-146.5 315.5,-116 437.25,-116 437.25,-146.5"/>
<text xml:space="preserve" text-anchor="start" x="323.5" y="-133" font-family="Source Sans Pro" font-size="10.00">module_mp_nssl_2mom</text>
<text xml:space="preserve" text-anchor="middle" x="376.38" y="-121.75" font-family="Source Sans Pro" font-size="10.00">::gamma_sp</text>
</a>
</g>
</g>
<!-- Node1&#45;&gt;Node8 -->
<g id="edge13_Node000001_Node000008" class="edge">
<title>Node1&#45;&gt;Node8</title>
<g id="a_edge13_Node000001_Node000008"><a xlink:title=" ">
<path fill="none" stroke="#63b8ff" d="M84.69,-252.61C103.62,-240.15 131.58,-222.92 157.75,-211.25 209.52,-188.16 226.4,-193.1 279.5,-173.25 296.81,-166.78 315.51,-158.82 331.75,-151.57"/>
<polygon fill="#63b8ff" stroke="#63b8ff" points="332.97,-154.86 340.65,-147.56 330.09,-148.48 332.97,-154.86"/>
</a>
</g>
</g>
<!-- Node9 -->
<g id="Node000009" class="node">
<title>Node9</title>
<g id="a_Node000009"><a xlink:href="group__mod__nsslmp_gafc90cf2417f6132ce54c2cf378dd2098.html#gafc90cf2417f6132ce54c2cf378dd2098" target="_top" xlink:title="single&#45;precision incomplete gamma function (single precision args)">
<polygon fill="white" stroke="#666666" points="279.5,-146.5 157.75,-146.5 157.75,-116 279.5,-116 279.5,-146.5"/>
<text xml:space="preserve" text-anchor="start" x="165.75" y="-133" font-family="Source Sans Pro" font-size="10.00">module_mp_nssl_2mom</text>
<text xml:space="preserve" text-anchor="middle" x="218.62" y="-121.75" font-family="Source Sans Pro" font-size="10.00">::gamxinf</text>
</a>
</g>
</g>
<!-- Node1&#45;&gt;Node9 -->
<g id="edge15_Node000001_Node000009" class="edge">
<title>Node1&#45;&gt;Node9</title>
<g id="a_edge15_Node000001_Node000009"><a xlink:title=" ">
<path fill="none" stroke="#63b8ff" d="M77.76,-252.52C96.46,-234.19 128.66,-203.24 157.75,-178.25 167.32,-170.03 178.08,-161.4 187.82,-153.81"/>
<polygon fill="#63b8ff" stroke="#63b8ff" points="189.79,-156.72 195.56,-147.83 185.51,-151.18 189.79,-156.72"/>
</a>
</g>
</g>
<!-- Node10 -->
<g id="Node000010" class="node">
<title>Node10</title>
<g id="a_Node000010"><a xlink:href="group__mod__nsslmp_gaaf4043a7ae72d6c12e0326a9d3c16dd0.html#gaaf4043a7ae72d6c12e0326a9d3c16dd0" target="_top" xlink:title="Double&#45;precision incomplete gamma function (single precision args).">
<polygon fill="white" stroke="#666666" points="279.5,-30.5 157.75,-30.5 157.75,0 279.5,0 279.5,-30.5"/>
<text xml:space="preserve" text-anchor="start" x="165.75" y="-17" font-family="Source Sans Pro" font-size="10.00">module_mp_nssl_2mom</text>
<text xml:space="preserve" text-anchor="middle" x="218.62" y="-5.75" font-family="Source Sans Pro" font-size="10.00">::gamxinfdp</text>
</a>
</g>
</g>
<!-- Node1&#45;&gt;Node10 -->
<g id="edge18_Node000001_Node000010" class="edge">
<title>Node1&#45;&gt;Node10</title>
<g id="a_edge18_Node000001_Node000010"><a xlink:title=" ">
<path fill="none" stroke="#63b8ff" d="M66.01,-252.51C76.37,-215.38 106.33,-120.78 157.75,-58.25 164.19,-50.42 172.37,-43.32 180.61,-37.25"/>
<polygon fill="#63b8ff" stroke="#63b8ff" points="182.37,-40.28 188.59,-31.71 178.38,-34.53 182.37,-40.28"/>
</a>
</g>
</g>
<!-- Node12 -->
<g id="Node000012" class="node">
<title>Node12</title>
<g id="a_Node000012"><a xlink:href="group__mod__nsslmp_ga9df936b176c8bb5adfa0a7fee691e57c.html#ga9df936b176c8bb5adfa0a7fee691e57c" target="_top" xlink:title="Mean hydrometeor size and fall speed calculations.">
<polygon fill="white" stroke="#666666" points="279.5,-97.5 157.75,-97.5 157.75,-67 279.5,-67 279.5,-97.5"/>
<text xml:space="preserve" text-anchor="start" x="165.75" y="-84" font-family="Source Sans Pro" font-size="10.00">module_mp_nssl_2mom</text>
<text xml:space="preserve" text-anchor="middle" x="218.62" y="-72.75" font-family="Source Sans Pro" font-size="10.00">::setvtz</text>
</a>
</g>
</g>
<!-- Node1&#45;&gt;Node12 -->
<g id="edge22_Node000001_Node000012" class="edge">
<title>Node1&#45;&gt;Node12</title>
<g id="a_edge22_Node000001_Node000012"><a xlink:title=" ">
<path fill="none" stroke="#63b8ff" d="M67.27,-252.75C78.97,-221.21 109.59,-149.04 157.75,-107.25 159.03,-106.14 160.36,-105.08 161.74,-104.06"/>
<polygon fill="#63b8ff" stroke="#63b8ff" points="163.53,-107.06 170.09,-98.74 159.77,-101.16 163.53,-107.06"/>
</a>
</g>
</g>
<!-- Node2&#45;&gt;Node2 -->
<g id="edge2_Node000002_Node000002" class="edge">
<title>Node2&#45;&gt;Node2</title>
<g id="a_edge2_Node000002_Node000002"><a xlink:title=" ">
<path fill="none" stroke="#63b8ff" d="M190.67,-585.99C184.97,-595.06 194.28,-603.5 218.62,-603.5 231.94,-603.5 240.75,-600.97 245.08,-597.2"/>
<polygon fill="#63b8ff" stroke="#63b8ff" points="248.52,-597.86 246.38,-587.49 241.58,-596.93 248.52,-597.86"/>
</a>
</g>
</g>
<!-- Node3&#45;&gt;Node3 -->
<g id="edge4_Node000003_Node000003" class="edge">
<title>Node3&#45;&gt;Node3</title>
<g id="a_edge4_Node000003_Node000003"><a xlink:title=" ">
<path fill="none" stroke="#63b8ff" d="M190.67,-518.99C184.97,-528.06 194.28,-536.5 218.62,-536.5 231.94,-536.5 240.75,-533.97 245.08,-530.2"/>
<polygon fill="#63b8ff" stroke="#63b8ff" points="248.52,-530.86 246.38,-520.49 241.58,-529.93 248.52,-530.86"/>
</a>
</g>
</g>
<!-- Node4&#45;&gt;Node4 -->
<g id="edge6_Node000004_Node000004" class="edge">
<title>Node4&#45;&gt;Node4</title>
<g id="a_edge6_Node000004_Node000004"><a xlink:title=" ">
<path fill="none" stroke="#63b8ff" d="M190.67,-451.99C184.97,-461.06 194.28,-469.5 218.62,-469.5 231.94,-469.5 240.75,-466.97 245.08,-463.2"/>
<polygon fill="#63b8ff" stroke="#63b8ff" points="248.52,-463.86 246.38,-453.49 241.58,-462.93 248.52,-463.86"/>
</a>
</g>
</g>
<!-- Node5&#45;&gt;Node5 -->
<g id="edge8_Node000005_Node000005" class="edge">
<title>Node5&#45;&gt;Node5</title>
<g id="a_edge8_Node000005_Node000005"><a xlink:title=" ">
<path fill="none" stroke="#63b8ff" d="M190.67,-384.99C184.97,-394.06 194.28,-402.5 218.62,-402.5 231.94,-402.5 240.75,-399.97 245.08,-396.2"/>
<polygon fill="#63b8ff" stroke="#63b8ff" points="248.52,-396.86 246.38,-386.49 241.58,-395.93 248.52,-396.86"/>
</a>
</g>
</g>
<!-- Node6&#45;&gt;Node6 -->
<g id="edge10_Node000006_Node000006" class="edge">
<title>Node6&#45;&gt;Node6</title>
<g id="a_edge10_Node000006_Node000006"><a xlink:title=" ">
<path fill="none" stroke="#63b8ff" d="M190.67,-317.99C184.97,-327.06 194.28,-335.5 218.62,-335.5 231.94,-335.5 240.75,-332.97 245.08,-329.2"/>
<polygon fill="#63b8ff" stroke="#63b8ff" points="248.52,-329.86 246.38,-319.49 241.58,-328.93 248.52,-329.86"/>
</a>
</g>
</g>
<!-- Node7&#45;&gt;Node7 -->
<g id="edge12_Node000007_Node000007" class="edge">
<title>Node7&#45;&gt;Node7</title>
<g id="a_edge12_Node000007_Node000007"><a xlink:title=" ">
<path fill="none" stroke="#63b8ff" d="M190.67,-250.99C184.97,-260.06 194.28,-268.5 218.62,-268.5 231.94,-268.5 240.75,-265.97 245.08,-262.2"/>
<polygon fill="#63b8ff" stroke="#63b8ff" points="248.52,-262.86 246.38,-252.49 241.58,-261.93 248.52,-262.86"/>
</a>
</g>
</g>
<!-- Node8&#45;&gt;Node8 -->
<g id="edge14_Node000008_Node000008" class="edge">
<title>Node8&#45;&gt;Node8</title>
<g id="a_edge14_Node000008_Node000008"><a xlink:title=" ">
<path fill="none" stroke="#63b8ff" d="M348.42,-146.99C342.72,-156.06 352.03,-164.5 376.38,-164.5 389.69,-164.5 398.5,-161.97 402.83,-158.2"/>
<polygon fill="#63b8ff" stroke="#63b8ff" points="406.27,-158.86 404.13,-148.49 399.33,-157.93 406.27,-158.86"/>
</a>
</g>
</g>
<!-- Node9&#45;&gt;Node8 -->
<g id="edge16_Node000009_Node000008" class="edge">
<title>Node9&#45;&gt;Node8</title>
<g id="a_edge16_Node000009_Node000008"><a xlink:title=" ">
<path fill="none" stroke="#63b8ff" d="M279.84,-131.25C287.7,-131.25 295.8,-131.25 303.82,-131.25"/>
<polygon fill="#63b8ff" stroke="#63b8ff" points="303.55,-134.75 313.55,-131.25 303.55,-127.75 303.55,-134.75"/>
</a>
</g>
</g>
<!-- Node9&#45;&gt;Node9 -->
<g id="edge17_Node000009_Node000009" class="edge">
<title>Node9&#45;&gt;Node9</title>
<g id="a_edge17_Node000009_Node000009"><a xlink:title=" ">
<path fill="none" stroke="#63b8ff" d="M190.67,-146.99C184.97,-156.06 194.28,-164.5 218.62,-164.5 231.94,-164.5 240.75,-161.97 245.08,-158.2"/>
<polygon fill="#63b8ff" stroke="#63b8ff" points="248.52,-158.86 246.38,-148.49 241.58,-157.93 248.52,-158.86"/>
</a>
</g>
</g>
<!-- Node10&#45;&gt;Node10 -->
<g id="edge21_Node000010_Node000010" class="edge">
<title>Node10&#45;&gt;Node10</title>
<g id="a_edge21_Node000010_Node000010"><a xlink:title=" ">
<path fill="none" stroke="#63b8ff" d="M190.67,-30.99C184.97,-40.06 194.28,-48.5 218.62,-48.5 231.94,-48.5 240.75,-45.97 245.08,-42.2"/>
<polygon fill="#63b8ff" stroke="#63b8ff" points="248.52,-42.86 246.38,-32.49 241.58,-41.93 248.52,-42.86"/>
</a>
</g>
</g>
<!-- Node11 -->
<g id="Node000011" class="node">
<title>Node11</title>
<g id="a_Node000011"><a xlink:href="group__mod__nsslmp_ga316422c2efdacd1dbdc0c1418350eaf6.html#ga316422c2efdacd1dbdc0c1418350eaf6" target="_top" xlink:title="Douple&#45;precision complete gamma function (double precision argument).">
<polygon fill="white" stroke="#666666" points="437.25,-30.5 315.5,-30.5 315.5,0 437.25,0 437.25,-30.5"/>
<text xml:space="preserve" text-anchor="start" x="323.5" y="-17" font-family="Source Sans Pro" font-size="10.00">module_mp_nssl_2mom</text>
<text xml:space="preserve" text-anchor="middle" x="376.38" y="-5.75" font-family="Source Sans Pro" font-size="10.00">::gamma_dp</text>
</a>
</g>
</g>
<!-- Node10&#45;&gt;Node11 -->
<g id="edge19_Node000010_Node000011" class="edge">
<title>Node10&#45;&gt;Node11</title>
<g id="a_edge19_Node000010_Node000011"><a xlink:title=" ">
<path fill="none" stroke="#63b8ff" d="M279.84,-15.25C287.7,-15.25 295.8,-15.25 303.82,-15.25"/>
<polygon fill="#63b8ff" stroke="#63b8ff" points="303.55,-18.75 313.55,-15.25 303.55,-11.75 303.55,-18.75"/>
</a>
</g>
</g>
<!-- Node11&#45;&gt;Node11 -->
<g id="edge20_Node000011_Node000011" class="edge">
<title>Node11&#45;&gt;Node11</title>
<g id="a_edge20_Node000011_Node000011"><a xlink:title=" ">
<path fill="none" stroke="#63b8ff" d="M348.42,-30.99C342.72,-40.06 352.03,-48.5 376.38,-48.5 389.69,-48.5 398.5,-45.97 402.83,-42.2"/>
<polygon fill="#63b8ff" stroke="#63b8ff" points="406.27,-42.86 404.13,-32.49 399.33,-41.93 406.27,-42.86"/>
</a>
</g>
</g>
<!-- Node12&#45;&gt;Node8 -->
<g id="edge23_Node000012_Node000008" class="edge">
<title>Node12&#45;&gt;Node8</title>
<g id="a_edge23_Node000012_Node000008"><a xlink:title=" ">
<path fill="none" stroke="#63b8ff" d="M269.33,-97.89C283.73,-102.42 299.62,-107.42 314.61,-112.13"/>
<polygon fill="#63b8ff" stroke="#63b8ff" points="313.3,-115.39 323.89,-115.05 315.4,-108.71 313.3,-115.39"/>
</a>
</g>
</g>
</g>
</svg>
