<?xml version="1.0" encoding="UTF-8" standalone="no"?>
<!DOCTYPE svg PUBLIC "-//W3C//DTD SVG 1.1//EN"
 "http://www.w3.org/Graphics/SVG/1.1/DTD/svg11.dtd">
<!-- Generated by graphviz version 14.1.2 (20260124.0452)
 -->
<!-- Title: rrtmg_lw::rrtmg_lw_run Pages: 1 -->
<!--zoomable 619 -->

<svg id="main" version="1.1" xmlns="http://www.w3.org/2000/svg" xmlns:xlink="http://www.w3.org/1999/xlink" xml:space="preserve" onload="init(evt)">

<style type="text/css"><![CDATA[
.node, .edge {opacity: 0.7;}
.node.selected, .edge.selected {opacity: 1;}
.edge:hover path { stroke: red; }
.edge:hover polygon { stroke: red; fill: red; }
]]></style>

<defs>
  <circle id="rim" cx="0" cy="0" r="7"/>
  <circle id="rim2" cx="0" cy="0" r="3.5"/>
  <g id="zoomPlus">
    <use xlink:href="#rim" fill="#404040"><set attributeName="fill" to="#808080" begin="zoomplus.mouseover" end="zoomplus.mouseout"/></use>
    <path d="M-4,0h8M0,-4v8" fill="none" stroke="white" stroke-width="1.5" pointer-events="none"/>
  </g>
  <g id="zoomMin">
    <use xlink:href="#rim" fill="#404040"><set attributeName="fill" to="#808080" begin="zoomminus.mouseover" end="zoomminus.mouseout"/></use>
    <path d="M-4,0h8" fill="none" stroke="white" stroke-width="1.5" pointer-events="none"/>
  </g>
  <g id="arrowUp" transform="translate(30 24)">
    <use xlink:href="#rim"/>
    <path pointer-events="none" fill="none" stroke="white" stroke-width="1.5" d="M0,-3.0v7 M-2.5,-0.5L0,-3.0L2.5,-0.5"/>
  </g>
  <g id="arrowRight" transform="rotate(90) translate(36 -43)">
    <use xlink:href="#rim"/>
    <path pointer-events="none" fill="none" stroke="white" stroke-width="1.5" d="M0,-3.0v7 M-2.5,-0.5L0,-3.0L2.5,-0.5"/>
  </g>
  <g id="arrowDown" transform="rotate(180) translate(-30 -48)">
    <use xlink:href="#rim"/>
    <path pointer-events="none" fill="none" stroke="white" stroke-width="1.5" d="M0,-3.0v7 M-2.5,-0.5L0,-3.0L2.5,-0.5"/>
  </g>
  <g id="arrowLeft" transform="rotate(270) translate(-36 17)">
    <use xlink:href="#rim"/>
    <path pointer-events="none" fill="none" stroke="white" stroke-width="1.5" d="M0,-3.0v7 M-2.5,-0.5L0,-3.0L2.5,-0.5"/>
  </g>
  <g id="resetDef">
    <use xlink:href="#rim2" fill="#404040"><set attributeName="fill" to="#808080" begin="reset.mouseover" end="reset.mouseout"/></use>
  </g>
</defs>
<script type="application/ecmascript">
var viewWidth = 407;
var viewHeight = 619;
var sectionId = 'dynsection-0';
</script>
<script type="application/ecmascript" xlink:href="svg.min.js"/>
<svg id="graph" class="graph">
<g id="viewport">
<title>rrtmg_lw::rrtmg_lw_run</title>
<!-- Node1 -->
<g id="Node000001" class="node">
<title>Node1</title>
<g id="a_Node000001"><a xlink:title=" ">
<polygon fill="#999999" stroke="#666666" points="115.75,-462.25 0,-462.25 0,-443 115.75,-443 115.75,-462.25"/>
<text xml:space="preserve" text-anchor="middle" x="57.88" y="-448.75" font-family="Source Sans Pro" font-size="10.00">rrtmg_lw::rrtmg_lw_run</text>
</a>
</g>
</g>
<!-- Node2 -->
<g id="Node000002" class="node">
<title>Node2</title>
<g id="a_Node000002"><a xlink:href="group__module__radlw__main_ga188f960ab677a1015cf5d08a73f8d065.html#ga188f960ab677a1015cf5d08a73f8d065" target="_top" xlink:title="This subroutine computes the cloud optical depth(s) for each cloudy layer and g&#45;point interval.">
<polygon fill="white" stroke="#666666" points="243.12,-583.25 152.12,-583.25 152.12,-564 243.12,-564 243.12,-583.25"/>
<text xml:space="preserve" text-anchor="middle" x="197.62" y="-569.75" font-family="Source Sans Pro" font-size="10.00">rrtmg_lw::cldprop</text>
</a>
</g>
</g>
<!-- Node1&#45;&gt;Node2 -->
<g id="edge1_Node000001_Node000002" class="edge">
<title>Node1&#45;&gt;Node2</title>
<g id="a_edge1_Node000001_Node000002"><a xlink:title=" ">
<path fill="none" stroke="#63b8ff" d="M70.15,-462.53C93.46,-483 147.22,-530.23 176.59,-556.03"/>
<polygon fill="#63b8ff" stroke="#63b8ff" points="174.24,-558.62 184.06,-562.59 178.86,-553.36 174.24,-558.62"/>
</a>
</g>
</g>
<!-- Node4 -->
<g id="Node000004" class="node">
<title>Node4</title>
<g id="a_Node000004"><a xlink:href="group__module__radlw__main_ga5b2017b2dfab616e103d102f2e05ec32.html#ga5b2017b2dfab616e103d102f2e05ec32" target="_top" xlink:title="This subroutine computes the upward/downward radiative fluxes, and heating rates for both clear or cl...">
<polygon fill="white" stroke="#666666" points="234.5,-518.25 160.75,-518.25 160.75,-499 234.5,-499 234.5,-518.25"/>
<text xml:space="preserve" text-anchor="middle" x="197.62" y="-504.75" font-family="Source Sans Pro" font-size="10.00">rrtmg_lw::rtrn</text>
</a>
</g>
</g>
<!-- Node1&#45;&gt;Node4 -->
<g id="edge3_Node000001_Node000004" class="edge">
<title>Node1&#45;&gt;Node4</title>
<g id="a_edge3_Node000001_Node000004"><a xlink:title=" ">
<path fill="none" stroke="#63b8ff" d="M83.3,-462.67C102.02,-470.36 128.5,-481.21 151.75,-490.62 154.74,-491.84 157.84,-493.09 160.96,-494.35"/>
<polygon fill="#63b8ff" stroke="#63b8ff" points="159.47,-497.52 170.05,-498 162.08,-491.02 159.47,-497.52"/>
</a>
</g>
</g>
<!-- Node5 -->
<g id="Node000005" class="node">
<title>Node5</title>
<g id="a_Node000005"><a xlink:href="group__module__radlw__main_ga3faed55d3d5b73b8cb75bba1b85d292b.html#ga3faed55d3d5b73b8cb75bba1b85d292b" target="_top" xlink:title="This subroutine computes the upward/downward radiative fluxes, and heating rates for both clear or cl...">
<polygon fill="white" stroke="#666666" points="241.25,-481.25 154,-481.25 154,-462 241.25,-462 241.25,-481.25"/>
<text xml:space="preserve" text-anchor="middle" x="197.62" y="-467.75" font-family="Source Sans Pro" font-size="10.00">rrtmg_lw::rtrnmc</text>
</a>
</g>
</g>
<!-- Node1&#45;&gt;Node5 -->
<g id="edge4_Node000001_Node000005" class="edge">
<title>Node1&#45;&gt;Node5</title>
<g id="a_edge4_Node000001_Node000005"><a xlink:title=" ">
<path fill="none" stroke="#63b8ff" d="M116.1,-460.52C124.83,-461.72 133.83,-462.96 142.5,-464.16"/>
<polygon fill="#63b8ff" stroke="#63b8ff" points="141.77,-467.59 152.16,-465.49 142.73,-460.66 141.77,-467.59"/>
</a>
</g>
</g>
<!-- Node6 -->
<g id="Node000006" class="node">
<title>Node6</title>
<g id="a_Node000006"><a xlink:href="group__module__radlw__main_ga07da933ac2e2f41461ac0d2a03d5e206.html#ga07da933ac2e2f41461ac0d2a03d5e206" target="_top" xlink:title="This subroutine computes the upward/downward radiative fluxes, and heating rates for both clear or cl...">
<polygon fill="white" stroke="#666666" points="240.12,-444.25 155.12,-444.25 155.12,-425 240.12,-425 240.12,-444.25"/>
<text xml:space="preserve" text-anchor="middle" x="197.62" y="-430.75" font-family="Source Sans Pro" font-size="10.00">rrtmg_lw::rtrnmr</text>
</a>
</g>
</g>
<!-- Node1&#45;&gt;Node6 -->
<g id="edge5_Node000001_Node000006" class="edge">
<title>Node1&#45;&gt;Node6</title>
<g id="a_edge5_Node000001_Node000006"><a xlink:title=" ">
<path fill="none" stroke="#63b8ff" d="M116.1,-445.15C125.24,-443.95 134.67,-442.72 143.72,-441.54"/>
<polygon fill="#63b8ff" stroke="#63b8ff" points="143.95,-445.04 153.41,-440.27 143.04,-438.1 143.95,-445.04"/>
</a>
</g>
</g>
<!-- Node7 -->
<g id="Node000007" class="node">
<title>Node7</title>
<g id="a_Node000007"><a xlink:href="group__module__radlw__main_ga555eb0bcd1a400265c458cd97ba972de.html#ga555eb0bcd1a400265c458cd97ba972de" target="_top" xlink:title="This subroutine computes various coefficients needed in radiative transfer calculations.">
<polygon fill="white" stroke="#666666" points="243.5,-407.25 151.75,-407.25 151.75,-388 243.5,-388 243.5,-407.25"/>
<text xml:space="preserve" text-anchor="middle" x="197.62" y="-393.75" font-family="Source Sans Pro" font-size="10.00">rrtmg_lw::setcoef</text>
</a>
</g>
</g>
<!-- Node1&#45;&gt;Node7 -->
<g id="edge6_Node000001_Node000007" class="edge">
<title>Node1&#45;&gt;Node7</title>
<g id="a_edge6_Node000001_Node000007"><a xlink:title=" ">
<path fill="none" stroke="#63b8ff" d="M84.14,-442.54C105.69,-433.93 136.93,-421.46 161.02,-411.84"/>
<polygon fill="#63b8ff" stroke="#63b8ff" points="162.12,-415.17 170.11,-408.21 159.53,-408.67 162.12,-415.17"/>
</a>
</g>
</g>
<!-- Node8 -->
<g id="Node000008" class="node">
<title>Node8</title>
<g id="a_Node000008"><a xlink:href="group__module__radlw__main_ga7a5cbc99583212a0bd0d5f7b87ab1769.html#ga7a5cbc99583212a0bd0d5f7b87ab1769" target="_top" xlink:title="This subroutine contains optical depths developed for the rapid radiative transfer model.">
<polygon fill="white" stroke="#666666" points="242,-315.25 153.25,-315.25 153.25,-296 242,-296 242,-315.25"/>
<text xml:space="preserve" text-anchor="middle" x="197.62" y="-301.75" font-family="Source Sans Pro" font-size="10.00">rrtmg_lw::taumol</text>
</a>
</g>
</g>
<!-- Node1&#45;&gt;Node8 -->
<g id="edge7_Node000001_Node000008" class="edge">
<title>Node1&#45;&gt;Node8</title>
<g id="a_edge7_Node000001_Node000008"><a xlink:title=" ">
<path fill="none" stroke="#63b8ff" d="M68.34,-442.52C91.36,-417.96 150.49,-354.86 179.73,-323.65"/>
<polygon fill="#63b8ff" stroke="#63b8ff" points="182.13,-326.21 186.42,-316.52 177.03,-321.42 182.13,-326.21"/>
</a>
</g>
</g>
<!-- Node3 -->
<g id="Node000003" class="node">
<title>Node3</title>
<g id="a_Node000003"><a xlink:href="group__module__radlw__main_gab60cf43f655ddfaec2df63444c6b899c.html#gab60cf43f655ddfaec2df63444c6b899c" target="_top" xlink:title="This suroutine computes sub&#45;colum cloud profile flag array.">
<polygon fill="white" stroke="#666666" points="399,-611.25 279.5,-611.25 279.5,-592 399,-592 399,-611.25"/>
<text xml:space="preserve" text-anchor="middle" x="339.25" y="-597.75" font-family="Source Sans Pro" font-size="10.00">rrtmg_lw::mcica_subcol</text>
</a>
</g>
</g>
<!-- Node2&#45;&gt;Node3 -->
<g id="edge2_Node000002_Node000003" class="edge">
<title>Node2&#45;&gt;Node3</title>
<g id="a_edge2_Node000002_Node000003"><a xlink:title=" ">
<path fill="none" stroke="#63b8ff" d="M243.57,-582.64C254.21,-584.77 265.74,-587.08 276.97,-589.34"/>
<polygon fill="#63b8ff" stroke="#63b8ff" points="276.08,-592.73 286.58,-591.26 277.46,-585.86 276.08,-592.73"/>
</a>
</g>
</g>
<!-- Node9 -->
<g id="Node000009" class="node">
<title>Node9</title>
<g id="a_Node000009"><a xlink:href="group__module__radlw__main_ga001d1bcd17533f7f920f859ff9a4e60f.html#ga001d1bcd17533f7f920f859ff9a4e60f" target="_top" xlink:title="band 1: 10&#45;350 cm&#45;1 (low key &#45; h2o; low minor &#45; n2); (high key &#45; h2o; high minor &#45; n2)">
<polygon fill="white" stroke="#666666" points="364.5,-574.25 314,-574.25 314,-555 364.5,-555 364.5,-574.25"/>
<text xml:space="preserve" text-anchor="middle" x="339.25" y="-560.75" font-family="Source Sans Pro" font-size="10.00">taugb01</text>
</a>
</g>
</g>
<!-- Node8&#45;&gt;Node9 -->
<g id="edge8_Node000008_Node000009" class="edge">
<title>Node8&#45;&gt;Node9</title>
<g id="a_edge8_Node000008_Node000009"><a xlink:title=" ">
<path fill="none" stroke="#63b8ff" d="M206.18,-315.44C216.2,-328.93 233.76,-354.32 243.5,-378.62 271.9,-449.51 227.88,-490.35 279.5,-546.62 285.57,-553.24 293.99,-557.45 302.57,-560.12"/>
<polygon fill="#63b8ff" stroke="#63b8ff" points="301.73,-563.52 312.28,-562.47 303.38,-556.72 301.73,-563.52"/>
</a>
</g>
</g>
<!-- Node10 -->
<g id="Node000010" class="node">
<title>Node10</title>
<g id="a_Node000010"><a xlink:href="group__module__radlw__main_ga926415cb51870dda9a90883e01a2ee38.html#ga926415cb51870dda9a90883e01a2ee38" target="_top" xlink:title="Band 2: 350&#45;500 cm&#45;1 (low key &#45; h2o; high key &#45; h2o).">
<polygon fill="white" stroke="#666666" points="364.5,-537.25 314,-537.25 314,-518 364.5,-518 364.5,-537.25"/>
<text xml:space="preserve" text-anchor="middle" x="339.25" y="-523.75" font-family="Source Sans Pro" font-size="10.00">taugb02</text>
</a>
</g>
</g>
<!-- Node8&#45;&gt;Node10 -->
<g id="edge9_Node000008_Node000010" class="edge">
<title>Node8&#45;&gt;Node10</title>
<g id="a_edge9_Node000008_Node000010"><a xlink:title=" ">
<path fill="none" stroke="#63b8ff" d="M205.98,-315.52C215.77,-329.11 233.07,-354.61 243.5,-378.62 267.55,-434.01 237.43,-466.31 279.5,-509.62 285.7,-516.01 294.1,-520.14 302.61,-522.82"/>
<polygon fill="#63b8ff" stroke="#63b8ff" points="301.66,-526.19 312.21,-525.19 303.34,-519.39 301.66,-526.19"/>
</a>
</g>
</g>
<!-- Node11 -->
<g id="Node000011" class="node">
<title>Node11</title>
<g id="a_Node000011"><a xlink:href="group__module__radlw__main_ga45e39b507d1fc031c80d9c7f06905d4a.html#ga45e39b507d1fc031c80d9c7f06905d4a" target="_top" xlink:title="Band 3: 500&#45;630 cm&#45;1 (low key &#45; h2o,co2; low minor &#45; n2o); (high key &#45; h2o,co2; high minor &#45; n2o).">
<polygon fill="white" stroke="#666666" points="364.5,-500.25 314,-500.25 314,-481 364.5,-481 364.5,-500.25"/>
<text xml:space="preserve" text-anchor="middle" x="339.25" y="-486.75" font-family="Source Sans Pro" font-size="10.00">taugb03</text>
</a>
</g>
</g>
<!-- Node8&#45;&gt;Node11 -->
<g id="edge10_Node000008_Node000011" class="edge">
<title>Node8&#45;&gt;Node11</title>
<g id="a_edge10_Node000008_Node000011"><a xlink:title=" ">
<path fill="none" stroke="#63b8ff" d="M205.64,-315.68C215.05,-329.45 231.91,-355.15 243.5,-378.62 263.3,-418.74 246.8,-442.09 279.5,-472.62 285.95,-478.65 294.37,-482.66 302.81,-485.33"/>
<polygon fill="#63b8ff" stroke="#63b8ff" points="301.73,-488.67 312.29,-487.75 303.46,-481.88 301.73,-488.67"/>
</a>
</g>
</g>
<!-- Node12 -->
<g id="Node000012" class="node">
<title>Node12</title>
<g id="a_Node000012"><a xlink:href="group__module__radlw__main_gae69174bcf1a87dc7a5baffac69797d07.html#gae69174bcf1a87dc7a5baffac69797d07" target="_top" xlink:title="Band 4: 630&#45;700 cm&#45;1 (low key &#45; h2o,co2; high key &#45; o3,co2).">
<polygon fill="white" stroke="#666666" points="364.5,-463.25 314,-463.25 314,-444 364.5,-444 364.5,-463.25"/>
<text xml:space="preserve" text-anchor="middle" x="339.25" y="-449.75" font-family="Source Sans Pro" font-size="10.00">taugb04</text>
</a>
</g>
</g>
<!-- Node8&#45;&gt;Node12 -->
<g id="edge11_Node000008_Node000012" class="edge">
<title>Node8&#45;&gt;Node12</title>
<g id="a_edge11_Node000008_Node000012"><a xlink:title=" ">
<path fill="none" stroke="#63b8ff" d="M204.85,-315.73C223.56,-346.1 278.1,-434.55 279.5,-435.62 286.24,-440.81 294.49,-444.52 302.64,-447.15"/>
<polygon fill="#63b8ff" stroke="#63b8ff" points="301.53,-450.48 312.1,-449.73 303.37,-443.73 301.53,-450.48"/>
</a>
</g>
</g>
<!-- Node13 -->
<g id="Node000013" class="node">
<title>Node13</title>
<g id="a_Node000013"><a xlink:href="group__module__radlw__main_ga92653ffcd20ff247a00eaf3339cba6df.html#ga92653ffcd20ff247a00eaf3339cba6df" target="_top" xlink:title="Band 5: 700&#45;820 cm&#45;1 (low key &#45; h2o,co2; low minor &#45; o3, ccl4) (high key &#45; o3,co2).">
<polygon fill="white" stroke="#666666" points="364.5,-426.25 314,-426.25 314,-407 364.5,-407 364.5,-426.25"/>
<text xml:space="preserve" text-anchor="middle" x="339.25" y="-412.75" font-family="Source Sans Pro" font-size="10.00">taugb05</text>
</a>
</g>
</g>
<!-- Node8&#45;&gt;Node13 -->
<g id="edge12_Node000008_Node000013" class="edge">
<title>Node8&#45;&gt;Node13</title>
<g id="a_edge12_Node000008_Node000013"><a xlink:title=" ">
<path fill="none" stroke="#63b8ff" d="M204.62,-315.66C216.49,-334.69 244.87,-376.13 279.5,-398.62 286.49,-403.17 294.69,-406.61 302.71,-409.21"/>
<polygon fill="#63b8ff" stroke="#63b8ff" points="301.75,-412.58 312.32,-411.93 303.65,-405.84 301.75,-412.58"/>
</a>
</g>
</g>
<!-- Node14 -->
<g id="Node000014" class="node">
<title>Node14</title>
<g id="a_Node000014"><a xlink:href="group__module__radlw__main_ga7190d415614aa35deefacff1041d4719.html#ga7190d415614aa35deefacff1041d4719" target="_top" xlink:title="Band 6: 820&#45;980 cm&#45;1 (low key &#45; h2o; low minor &#45; co2) (high key &#45; none; high minor &#45; cfc11,...">
<polygon fill="white" stroke="#666666" points="364.5,-389.25 314,-389.25 314,-370 364.5,-370 364.5,-389.25"/>
<text xml:space="preserve" text-anchor="middle" x="339.25" y="-375.75" font-family="Source Sans Pro" font-size="10.00">taugb06</text>
</a>
</g>
</g>
<!-- Node8&#45;&gt;Node14 -->
<g id="edge13_Node000008_Node000014" class="edge">
<title>Node8&#45;&gt;Node14</title>
<g id="a_edge13_Node000008_Node000014"><a xlink:title=" ">
<path fill="none" stroke="#63b8ff" d="M210.5,-315.62C225.65,-327.94 253.07,-348.81 279.5,-361.62 286.81,-365.17 294.96,-368.2 302.82,-370.7"/>
<polygon fill="#63b8ff" stroke="#63b8ff" points="301.57,-373.98 312.15,-373.46 303.55,-367.27 301.57,-373.98"/>
</a>
</g>
</g>
<!-- Node15 -->
<g id="Node000015" class="node">
<title>Node15</title>
<g id="a_Node000015"><a xlink:href="group__module__radlw__main_ga2208d86ae0712a0ca426bbe96de825bc.html#ga2208d86ae0712a0ca426bbe96de825bc" target="_top" xlink:title="Band 7: 980&#45;1080 cm&#45;1 (low key &#45; h2o,o3; low minor &#45; co2) (high key &#45; o3; high minor &#45; co2).">
<polygon fill="white" stroke="#666666" points="364.5,-352.25 314,-352.25 314,-333 364.5,-333 364.5,-352.25"/>
<text xml:space="preserve" text-anchor="middle" x="339.25" y="-338.75" font-family="Source Sans Pro" font-size="10.00">taugb07</text>
</a>
</g>
</g>
<!-- Node8&#45;&gt;Node15 -->
<g id="edge14_Node000008_Node000015" class="edge">
<title>Node8&#45;&gt;Node15</title>
<g id="a_edge14_Node000008_Node000015"><a xlink:title=" ">
<path fill="none" stroke="#63b8ff" d="M236.78,-315.74C257.39,-321.2 282.68,-327.9 302.85,-333.25"/>
<polygon fill="#63b8ff" stroke="#63b8ff" points="301.74,-336.57 312.31,-335.75 303.54,-329.81 301.74,-336.57"/>
</a>
</g>
</g>
<!-- Node16 -->
<g id="Node000016" class="node">
<title>Node16</title>
<g id="a_Node000016"><a xlink:href="group__module__radlw__main_ga1447d5bda5b521d27171e61881684183.html#ga1447d5bda5b521d27171e61881684183" target="_top" xlink:title="Band 8: 1080&#45;1180 cm&#45;1 (low key &#45; h2o; low minor &#45; co2,o3,n2o) (high key &#45; o3; high minor &#45; co2,...">
<polygon fill="white" stroke="#666666" points="364.5,-315.25 314,-315.25 314,-296 364.5,-296 364.5,-315.25"/>
<text xml:space="preserve" text-anchor="middle" x="339.25" y="-301.75" font-family="Source Sans Pro" font-size="10.00">taugb08</text>
</a>
</g>
</g>
<!-- Node8&#45;&gt;Node16 -->
<g id="edge15_Node000008_Node000016" class="edge">
<title>Node8&#45;&gt;Node16</title>
<g id="a_edge15_Node000008_Node000016"><a xlink:title=" ">
<path fill="none" stroke="#63b8ff" d="M242.42,-305.62C261.71,-305.62 284.09,-305.62 302.37,-305.62"/>
<polygon fill="#63b8ff" stroke="#63b8ff" points="302.2,-309.13 312.2,-305.63 302.2,-302.13 302.2,-309.13"/>
</a>
</g>
</g>
<!-- Node17 -->
<g id="Node000017" class="node">
<title>Node17</title>
<g id="a_Node000017"><a xlink:href="group__module__radlw__main_ga889abbaaa2d421c0c3dc820e2004414d.html#ga889abbaaa2d421c0c3dc820e2004414d" target="_top" xlink:title="Band 9: 1180&#45;1390 cm&#45;1 (low key &#45; h2o,ch4; low minor &#45; n2o) (high key &#45; ch4; high minor &#45; n2o).">
<polygon fill="white" stroke="#666666" points="364.5,-278.25 314,-278.25 314,-259 364.5,-259 364.5,-278.25"/>
<text xml:space="preserve" text-anchor="middle" x="339.25" y="-264.75" font-family="Source Sans Pro" font-size="10.00">taugb09</text>
</a>
</g>
</g>
<!-- Node8&#45;&gt;Node17 -->
<g id="edge16_Node000008_Node000017" class="edge">
<title>Node8&#45;&gt;Node17</title>
<g id="a_edge16_Node000008_Node000017"><a xlink:title=" ">
<path fill="none" stroke="#63b8ff" d="M236.78,-295.51C257.39,-290.05 282.68,-283.35 302.85,-278"/>
<polygon fill="#63b8ff" stroke="#63b8ff" points="303.54,-281.44 312.31,-275.5 301.74,-274.68 303.54,-281.44"/>
</a>
</g>
</g>
<!-- Node18 -->
<g id="Node000018" class="node">
<title>Node18</title>
<g id="a_Node000018"><a xlink:href="group__module__radlw__main_ga74c1cb8390daff1e5ce5e863c50b7873.html#ga74c1cb8390daff1e5ce5e863c50b7873" target="_top" xlink:title="Band 10: 1390&#45;1480 cm&#45;1 (low key &#45; h2o; high key &#45; h2o).">
<polygon fill="white" stroke="#666666" points="364.5,-241.25 314,-241.25 314,-222 364.5,-222 364.5,-241.25"/>
<text xml:space="preserve" text-anchor="middle" x="339.25" y="-227.75" font-family="Source Sans Pro" font-size="10.00">taugb10</text>
</a>
</g>
</g>
<!-- Node8&#45;&gt;Node18 -->
<g id="edge17_Node000008_Node000018" class="edge">
<title>Node8&#45;&gt;Node18</title>
<g id="a_edge17_Node000008_Node000018"><a xlink:title=" ">
<path fill="none" stroke="#63b8ff" d="M210.5,-295.63C225.65,-283.31 253.07,-262.44 279.5,-249.62 286.81,-246.08 294.96,-243.05 302.82,-240.55"/>
<polygon fill="#63b8ff" stroke="#63b8ff" points="303.55,-243.98 312.15,-237.79 301.57,-237.27 303.55,-243.98"/>
</a>
</g>
</g>
<!-- Node19 -->
<g id="Node000019" class="node">
<title>Node19</title>
<g id="a_Node000019"><a xlink:href="group__module__radlw__main_ga573fd5b3580d6bbf5bfa2f01ee547034.html#ga573fd5b3580d6bbf5bfa2f01ee547034" target="_top" xlink:title="Band 11: 1480&#45;1800 cm&#45;1 (low &#45; h2o; low minor &#45; o2) (high key &#45; h2o; high minor &#45; o2).">
<polygon fill="white" stroke="#666666" points="364.5,-204.25 314,-204.25 314,-185 364.5,-185 364.5,-204.25"/>
<text xml:space="preserve" text-anchor="middle" x="339.25" y="-190.75" font-family="Source Sans Pro" font-size="10.00">taugb11</text>
</a>
</g>
</g>
<!-- Node8&#45;&gt;Node19 -->
<g id="edge18_Node000008_Node000019" class="edge">
<title>Node8&#45;&gt;Node19</title>
<g id="a_edge18_Node000008_Node000019"><a xlink:title=" ">
<path fill="none" stroke="#63b8ff" d="M204.62,-295.59C216.49,-276.56 244.87,-235.12 279.5,-212.62 286.49,-208.08 294.69,-204.64 302.71,-202.04"/>
<polygon fill="#63b8ff" stroke="#63b8ff" points="303.65,-205.41 312.32,-199.32 301.75,-198.67 303.65,-205.41"/>
</a>
</g>
</g>
<!-- Node20 -->
<g id="Node000020" class="node">
<title>Node20</title>
<g id="a_Node000020"><a xlink:href="group__module__radlw__main_gae56eaa9e3b897ca235d4d6b271cc1e47.html#gae56eaa9e3b897ca235d4d6b271cc1e47" target="_top" xlink:title="Band 12: 1800&#45;2080 cm&#45;1 (low &#45; h2o,co2; high &#45; nothing).">
<polygon fill="white" stroke="#666666" points="364.5,-167.25 314,-167.25 314,-148 364.5,-148 364.5,-167.25"/>
<text xml:space="preserve" text-anchor="middle" x="339.25" y="-153.75" font-family="Source Sans Pro" font-size="10.00">taugb12</text>
</a>
</g>
</g>
<!-- Node8&#45;&gt;Node20 -->
<g id="edge19_Node000008_Node000020" class="edge">
<title>Node8&#45;&gt;Node20</title>
<g id="a_edge19_Node000008_Node000020"><a xlink:title=" ">
<path fill="none" stroke="#63b8ff" d="M201.96,-295.81C210.68,-271.61 236.52,-208.69 279.5,-175.62 286.24,-170.44 294.49,-166.73 302.64,-164.1"/>
<polygon fill="#63b8ff" stroke="#63b8ff" points="303.37,-167.52 312.1,-161.52 301.53,-160.77 303.37,-167.52"/>
</a>
</g>
</g>
<!-- Node21 -->
<g id="Node000021" class="node">
<title>Node21</title>
<g id="a_Node000021"><a xlink:href="group__module__radlw__main_ga2ac7254d2dcff516e8e44b8b679302c0.html#ga2ac7254d2dcff516e8e44b8b679302c0" target="_top" xlink:title="Band 13: 2080&#45;2250 cm&#45;1 (low key&#45;h2o,n2o; high minor&#45;o3 minor).">
<polygon fill="white" stroke="#666666" points="364.5,-130.25 314,-130.25 314,-111 364.5,-111 364.5,-130.25"/>
<text xml:space="preserve" text-anchor="middle" x="339.25" y="-116.75" font-family="Source Sans Pro" font-size="10.00">taugb13</text>
</a>
</g>
</g>
<!-- Node8&#45;&gt;Node21 -->
<g id="edge20_Node000008_Node000021" class="edge">
<title>Node8&#45;&gt;Node21</title>
<g id="a_edge20_Node000008_Node000021"><a xlink:title=" ">
<path fill="none" stroke="#63b8ff" d="M200.54,-295.65C206.62,-266.82 228.13,-182.65 279.5,-138.62 286.07,-132.99 294.38,-129.12 302.66,-126.46"/>
<polygon fill="#63b8ff" stroke="#63b8ff" points="303.53,-129.85 312.31,-123.92 301.75,-123.09 303.53,-129.85"/>
</a>
</g>
</g>
<!-- Node22 -->
<g id="Node000022" class="node">
<title>Node22</title>
<g id="a_Node000022"><a xlink:href="group__module__radlw__main_ga26140cbe1a3d6119b56cf5c2d539670e.html#ga26140cbe1a3d6119b56cf5c2d539670e" target="_top" xlink:title="Band 14: 2250&#45;2380 cm&#45;1 (low &#45; co2; high &#45; co2).">
<polygon fill="white" stroke="#666666" points="364.5,-93.25 314,-93.25 314,-74 364.5,-74 364.5,-93.25"/>
<text xml:space="preserve" text-anchor="middle" x="339.25" y="-79.75" font-family="Source Sans Pro" font-size="10.00">taugb14</text>
</a>
</g>
</g>
<!-- Node8&#45;&gt;Node22 -->
<g id="edge21_Node000008_Node000022" class="edge">
<title>Node8&#45;&gt;Node22</title>
<g id="a_edge21_Node000008_Node000022"><a xlink:title=" ">
<path fill="none" stroke="#63b8ff" d="M199.55,-295.88C203.18,-263.31 219.31,-157.18 279.5,-101.62 285.86,-95.76 294.09,-91.8 302.36,-89.13"/>
<polygon fill="#63b8ff" stroke="#63b8ff" points="303.24,-92.52 312.04,-86.62 301.48,-85.74 303.24,-92.52"/>
</a>
</g>
</g>
<!-- Node23 -->
<g id="Node000023" class="node">
<title>Node23</title>
<g id="a_Node000023"><a xlink:href="group__module__radlw__main_ga93b5c0ae0525697ffffb6228581a301c.html#ga93b5c0ae0525697ffffb6228581a301c" target="_top" xlink:title="Band 15: 2380&#45;2600 cm&#45;1 (low &#45; n2o,co2; low minor &#45; n2) (high &#45; nothing).">
<polygon fill="white" stroke="#666666" points="364.5,-56.25 314,-56.25 314,-37 364.5,-37 364.5,-56.25"/>
<text xml:space="preserve" text-anchor="middle" x="339.25" y="-42.75" font-family="Source Sans Pro" font-size="10.00">taugb15</text>
</a>
</g>
</g>
<!-- Node8&#45;&gt;Node23 -->
<g id="edge22_Node000008_Node000023" class="edge">
<title>Node8&#45;&gt;Node23</title>
<g id="a_edge22_Node000008_Node000023"><a xlink:title=" ">
<path fill="none" stroke="#63b8ff" d="M198.89,-295.71C200.39,-259.32 210.57,-131.75 279.5,-64.62 285.82,-58.47 294.2,-54.41 302.63,-51.74"/>
<polygon fill="#63b8ff" stroke="#63b8ff" points="303.29,-55.18 312.13,-49.33 301.58,-48.39 303.29,-55.18"/>
</a>
</g>
</g>
<!-- Node24 -->
<g id="Node000024" class="node">
<title>Node24</title>
<g id="a_Node000024"><a xlink:href="group__module__radlw__main_ga942ce0031745cd1b3b4ebc3915970554.html#ga942ce0031745cd1b3b4ebc3915970554" target="_top" xlink:title="Band 16: 2600&#45;3250 cm&#45;1 (low key&#45; h2o,ch4; high key &#45; ch4).">
<polygon fill="white" stroke="#666666" points="364.5,-19.25 314,-19.25 314,0 364.5,0 364.5,-19.25"/>
<text xml:space="preserve" text-anchor="middle" x="339.25" y="-5.75" font-family="Source Sans Pro" font-size="10.00">taugb16</text>
</a>
</g>
</g>
<!-- Node8&#45;&gt;Node24 -->
<g id="edge23_Node000008_Node000024" class="edge">
<title>Node8&#45;&gt;Node24</title>
<g id="a_edge23_Node000008_Node000024"><a xlink:title=" ">
<path fill="none" stroke="#63b8ff" d="M198.37,-295.62C197.92,-255.76 201.69,-106.55 279.5,-27.62 285.75,-21.29 294.17,-17.17 302.67,-14.5"/>
<polygon fill="#63b8ff" stroke="#63b8ff" points="303.4,-17.92 312.27,-12.11 301.72,-11.13 303.4,-17.92"/>
</a>
</g>
</g>
</g>
</svg>

<g id="navigator" transform="translate(0 0)" fill="#404254">
  <rect fill="#f2f5e9" fill-opacity="0.5" stroke="#606060" stroke-width=".5" x="0" y="0" width="60" height="60"/>
  <use id="zoomplus" xlink:href="#zoomPlus" x="17" y="9" onmousedown="handleZoom(evt,'in')"/>
  <use id="zoomminus" xlink:href="#zoomMin" x="42" y="9" onmousedown="handleZoom(evt,'out')"/>
  <use id="reset" xlink:href="#resetDef" x="30" y="36" onmousedown="handleReset()"/>
   <use id="arrowup" xlink:href="#arrowUp" x="0" y="0" onmousedown="handlePan(0,-1)"/>
  <use id="arrowright" xlink:href="#arrowRight" x="0" y="0" onmousedown="handlePan(1,0)"/>
  <use id="arrowdown" xlink:href="#arrowDown" x="0" y="0" onmousedown="handlePan(0,1)"/>
  <use id="arrowleft" xlink:href="#arrowLeft" x="0" y="0" onmousedown="handlePan(-1,0)"/>
</g>
<svg viewBox="0 0 15 15" width="100%" height="30px" preserveAspectRatio="xMaxYMin meet">
 <g id="arrow_out" transform="scale(0.3 0.3)">
  <a xlink:href="group__module__radlw__main_gaeb3fc1ab18633529cb7c6446e2cc2df9_gaeb3fc1ab18633529cb7c6446e2cc2df9_cgraph_org.svg" target="_base">
   <rect id="button" ry="5" rx="5" y="6" x="6" height="38" width="38"
        fill="#f2f5e9" fill-opacity="0.5" stroke="#606060" stroke-width="1.0"/>
   <path id="arrow"
     d="M 11.500037,31.436501 C 11.940474,20.09759 22.043105,11.32322 32.158766,21.979434 L 37.068811,17.246167 C 37.068811,17.246167 37.088388,32 37.088388,32 L 22.160133,31.978069 C 22.160133,31.978069 26.997745,27.140456 26.997745,27.140456 C 18.528582,18.264221 13.291696,25.230495 11.500037,31.436501 z"
     style="fill:#404040;"/>
  </a>
 </g>
</svg>

<style type='text/css'>
<![CDATA[
[data-mouse-over-selected='false'] { opacity: 0.7; }
[data-mouse-over-selected='true']  { opacity: 1.0; }
]]>
</style>
<script type="application/ecmascript"><![CDATA[
document.addEventListener('DOMContentLoaded', (event) => {
  highlightEdges();
  highlightAdjacentNodes();
});
]]></script>
</svg>
