<?xml version="1.0" encoding="UTF-8" standalone="no"?>
<!DOCTYPE svg PUBLIC "-//W3C//DTD SVG 1.1//EN"
 "http://www.w3.org/Graphics/SVG/1.1/DTD/svg11.dtd">
<!-- Generated by graphviz version 14.1.2 (20260124.0452)
 -->
<!-- Title: albedo Pages: 1 -->
<svg width="169pt" height="175pt"
 viewBox="0.00 0.00 169.00 175.00" xmlns="http://www.w3.org/2000/svg" xmlns:xlink="http://www.w3.org/1999/xlink">
<g id="graph0" class="graph" transform="scale(1 1) rotate(0) translate(4 171.25)">
<title>albedo</title>
<!-- Node1 -->
<g id="Node000001" class="node">
<title>Node1</title>
<g id="a_Node000001"><a xlink:title="surface albedos. also fluxes (per unit incoming direct and diffuse radiation) reflected,...">
<polygon fill="#999999" stroke="#666666" points="44.5,-93.25 0,-93.25 0,-74 44.5,-74 44.5,-93.25"/>
<text xml:space="preserve" text-anchor="middle" x="22.25" y="-79.75" font-family="Source Sans Pro" font-size="10.00">albedo</text>
</a>
</g>
</g>
<!-- Node2 -->
<g id="Node000002" class="node">
<title>Node2</title>
<g id="a_Node000002"><a xlink:href="group___noah_m_p___l_s_m_ga497b40d27709666f17da3e555f8628a1.html#ga497b40d27709666f17da3e555f8628a1" target="_top" xlink:title="ground surface albedo">
<polygon fill="white" stroke="#666666" points="149.75,-167.25 91.75,-167.25 91.75,-148 149.75,-148 149.75,-167.25"/>
<text xml:space="preserve" text-anchor="middle" x="120.75" y="-153.75" font-family="Source Sans Pro" font-size="10.00">groundalb</text>
</a>
</g>
</g>
<!-- Node1&#45;&gt;Node2 -->
<g id="edge1_Node000001_Node000002" class="edge">
<title>Node1&#45;&gt;Node2</title>
<g id="a_edge1_Node000001_Node000002"><a xlink:title=" ">
<path fill="none" stroke="#63b8ff" d="M31.33,-93.38C41.72,-105.46 60.79,-126.08 80.5,-139.62 81.85,-140.55 83.26,-141.46 84.7,-142.33"/>
<polygon fill="#63b8ff" stroke="#63b8ff" points="82.75,-145.25 93.22,-146.92 86.07,-139.09 82.75,-145.25"/>
</a>
</g>
</g>
<!-- Node3 -->
<g id="Node000003" class="node">
<title>Node3</title>
<g id="a_Node000003"><a xlink:href="group___noah_m_p___l_s_m_ga748c587c5dc0a38a1793042e92952d43.html#ga748c587c5dc0a38a1793042e92952d43" target="_top" xlink:title=" ">
<polygon fill="white" stroke="#666666" points="150.88,-130.25 90.62,-130.25 90.62,-111 150.88,-111 150.88,-130.25"/>
<text xml:space="preserve" text-anchor="middle" x="120.75" y="-116.75" font-family="Source Sans Pro" font-size="10.00">snow_age</text>
</a>
</g>
</g>
<!-- Node1&#45;&gt;Node3 -->
<g id="edge2_Node000001_Node000003" class="edge">
<title>Node1&#45;&gt;Node3</title>
<g id="a_edge2_Node000001_Node000003"><a xlink:title=" ">
<path fill="none" stroke="#63b8ff" d="M44.67,-91.84C55.95,-96.16 70.09,-101.59 83.06,-106.56"/>
<polygon fill="#63b8ff" stroke="#63b8ff" points="81.58,-109.74 92.17,-110.05 84.08,-103.2 81.58,-109.74"/>
</a>
</g>
</g>
<!-- Node4 -->
<g id="Node000004" class="node">
<title>Node4</title>
<g id="a_Node000004"><a xlink:href="group___noah_m_p___l_s_m_ga238debe3053962b0b33a5e846e333701.html#ga238debe3053962b0b33a5e846e333701" target="_top" xlink:title="bats snow surface albedo">
<polygon fill="white" stroke="#666666" points="158.75,-93.25 82.75,-93.25 82.75,-74 158.75,-74 158.75,-93.25"/>
<text xml:space="preserve" text-anchor="middle" x="120.75" y="-79.75" font-family="Source Sans Pro" font-size="10.00">snowalb_bats</text>
</a>
</g>
</g>
<!-- Node1&#45;&gt;Node4 -->
<g id="edge3_Node000001_Node000004" class="edge">
<title>Node1&#45;&gt;Node4</title>
<g id="a_edge3_Node000001_Node000004"><a xlink:title=" ">
<path fill="none" stroke="#63b8ff" d="M44.67,-83.62C52.56,-83.62 61.86,-83.62 71.18,-83.62"/>
<polygon fill="#63b8ff" stroke="#63b8ff" points="70.94,-87.13 80.94,-83.63 70.94,-80.13 70.94,-87.13"/>
</a>
</g>
</g>
<!-- Node5 -->
<g id="Node000005" class="node">
<title>Node5</title>
<g id="a_Node000005"><a xlink:href="group___noah_m_p___l_s_m_ga2ea2346edd6f426f30dcc99085def5cf.html#ga2ea2346edd6f426f30dcc99085def5cf" target="_top" xlink:title="class snow surface albedo">
<polygon fill="white" stroke="#666666" points="161,-56.25 80.5,-56.25 80.5,-37 161,-37 161,-56.25"/>
<text xml:space="preserve" text-anchor="middle" x="120.75" y="-42.75" font-family="Source Sans Pro" font-size="10.00">snowalb_class</text>
</a>
</g>
</g>
<!-- Node1&#45;&gt;Node5 -->
<g id="edge4_Node000001_Node000005" class="edge">
<title>Node1&#45;&gt;Node5</title>
<g id="a_edge4_Node000001_Node000005"><a xlink:title=" ">
<path fill="none" stroke="#63b8ff" d="M44.67,-75.41C55.95,-71.09 70.09,-65.66 83.06,-60.69"/>
<polygon fill="#63b8ff" stroke="#63b8ff" points="84.08,-64.05 92.17,-57.2 81.58,-57.51 84.08,-64.05"/>
</a>
</g>
</g>
<!-- Node6 -->
<g id="Node000006" class="node">
<title>Node6</title>
<g id="a_Node000006"><a xlink:href="group___noah_m_p___l_s_m_gaa737a61978bde4dc6363e11263999769.html#gaa737a61978bde4dc6363e11263999769" target="_top" xlink:title="use two&#45;stream approximation of Dickinson (1983) adv geophysics 25: 305&#45;353 and sellers (1985) int j ...">
<polygon fill="white" stroke="#666666" points="151.62,-19.25 89.88,-19.25 89.88,0 151.62,0 151.62,-19.25"/>
<text xml:space="preserve" text-anchor="middle" x="120.75" y="-5.75" font-family="Source Sans Pro" font-size="10.00">twostream</text>
</a>
</g>
</g>
<!-- Node1&#45;&gt;Node6 -->
<g id="edge5_Node000001_Node000006" class="edge">
<title>Node1&#45;&gt;Node6</title>
<g id="a_edge5_Node000001_Node000006"><a xlink:title=" ">
<path fill="none" stroke="#63b8ff" d="M31.33,-73.87C41.72,-61.79 60.79,-41.17 80.5,-27.62 81.85,-26.7 83.26,-25.79 84.7,-24.92"/>
<polygon fill="#63b8ff" stroke="#63b8ff" points="86.07,-28.16 93.22,-20.33 82.75,-22 86.07,-28.16"/>
</a>
</g>
</g>
</g>
</svg>
