<?xml version="1.0" encoding="UTF-8" standalone="no"?>
<!DOCTYPE svg PUBLIC "-//W3C//DTD SVG 1.1//EN"
 "http://www.w3.org/Graphics/SVG/1.1/DTD/svg11.dtd">
<!-- Generated by graphviz version 14.1.2 (20260124.0452)
 -->
<!-- Title: gfdl_cloud_microphys_mod::warm_rain Pages: 1 -->
<svg width="580pt" height="284pt"
 viewBox="0.00 0.00 580.00 284.00" xmlns="http://www.w3.org/2000/svg" xmlns:xlink="http://www.w3.org/1999/xlink">
<g id="graph0" class="graph" transform="scale(1 1) rotate(0) translate(4 279.5)">
<title>gfdl_cloud_microphys_mod::warm_rain</title>
<!-- Node1 -->
<g id="Node000001" class="node">
<title>Node1</title>
<g id="a_Node000001"><a xlink:title="This subroutine includes warm rain cloud microphysics.">
<polygon fill="#999999" stroke="#666666" points="110.5,-152.5 0,-152.5 0,-122 110.5,-122 110.5,-152.5"/>
<text xml:space="preserve" text-anchor="start" x="8" y="-139" font-family="Source Sans Pro" font-size="10.00">gfdl_cloud_microphys</text>
<text xml:space="preserve" text-anchor="middle" x="55.25" y="-127.75" font-family="Source Sans Pro" font-size="10.00">_mod::warm_rain</text>
</a>
</g>
</g>
<!-- Node2 -->
<g id="Node000002" class="node">
<title>Node2</title>
<g id="a_Node000002"><a xlink:href="group__mod__gfdl__cloud__mp_ga6888d7e95c34f76ecd432293eea9723f.html#ga6888d7e95c34f76ecd432293eea9723f" target="_top" xlink:title="The subroutine &#39;check_column&#39; checks if the water species is large enough to fall.">
<polygon fill="white" stroke="#666666" points="267.88,-275.5 157.38,-275.5 157.38,-245 267.88,-245 267.88,-275.5"/>
<text xml:space="preserve" text-anchor="start" x="165.38" y="-262" font-family="Source Sans Pro" font-size="10.00">gfdl_cloud_microphys</text>
<text xml:space="preserve" text-anchor="middle" x="212.62" y="-250.75" font-family="Source Sans Pro" font-size="10.00">_mod::check_column</text>
</a>
</g>
</g>
<!-- Node1&#45;&gt;Node2 -->
<g id="edge1_Node000001_Node000002" class="edge">
<title>Node1&#45;&gt;Node2</title>
<g id="a_edge1_Node000001_Node000002"><a xlink:title=" ">
<path fill="none" stroke="#63b8ff" d="M67.05,-152.92C82.45,-174.21 112.63,-212.25 146.5,-235.25 148.58,-236.66 150.74,-238 152.97,-239.29"/>
<polygon fill="#63b8ff" stroke="#63b8ff" points="151.22,-242.32 161.71,-243.81 154.44,-236.11 151.22,-242.32"/>
</a>
</g>
</g>
<!-- Node3 -->
<g id="Node000003" class="node">
<title>Node3</title>
<g id="a_Node000003"><a xlink:href="group__mod__gfdl__cloud__mp_ga2f6f4139188eb18db6c84ac21f19f07b.html#ga2f6f4139188eb18db6c84ac21f19f07b" target="_top" xlink:title="The subroutine computes the time&#45;implicit monotonic fall scheme.">
<polygon fill="white" stroke="#666666" points="267.88,-226.5 157.38,-226.5 157.38,-196 267.88,-196 267.88,-226.5"/>
<text xml:space="preserve" text-anchor="start" x="165.38" y="-213" font-family="Source Sans Pro" font-size="10.00">gfdl_cloud_microphys</text>
<text xml:space="preserve" text-anchor="middle" x="212.62" y="-201.75" font-family="Source Sans Pro" font-size="10.00">_mod::implicit_fall</text>
</a>
</g>
</g>
<!-- Node1&#45;&gt;Node3 -->
<g id="edge2_Node000001_Node000003" class="edge">
<title>Node1&#45;&gt;Node3</title>
<g id="a_edge2_Node000001_Node000003"><a xlink:title=" ">
<path fill="none" stroke="#63b8ff" d="M83.03,-152.99C100.74,-163.1 124.64,-176.17 146.5,-186.25 150.24,-187.97 154.13,-189.68 158.08,-191.35"/>
<polygon fill="#63b8ff" stroke="#63b8ff" points="156.57,-194.51 167.15,-195.06 159.22,-188.03 156.57,-194.51"/>
</a>
</g>
</g>
<!-- Node4 -->
<g id="Node000004" class="node">
<title>Node4</title>
<g id="a_Node000004"><a xlink:href="group__mod__gfdl__cloud__mp_gabfcb03d4ab831c5f0a879b75b2cf4e01.html#gabfcb03d4ab831c5f0a879b75b2cf4e01" target="_top" xlink:title="Lagrangian scheme.">
<polygon fill="white" stroke="#666666" points="278.75,-177.5 146.5,-177.5 146.5,-147 278.75,-147 278.75,-177.5"/>
<text xml:space="preserve" text-anchor="start" x="154.5" y="-164" font-family="Source Sans Pro" font-size="10.00">gfdl_cloud_microphys</text>
<text xml:space="preserve" text-anchor="middle" x="212.62" y="-152.75" font-family="Source Sans Pro" font-size="10.00">_mod::lagrangian_fall_ppm</text>
</a>
</g>
</g>
<!-- Node1&#45;&gt;Node4 -->
<g id="edge3_Node000001_Node000004" class="edge">
<title>Node1&#45;&gt;Node4</title>
<g id="a_edge3_Node000001_Node000004"><a xlink:title=" ">
<path fill="none" stroke="#63b8ff" d="M110.59,-145.99C118.47,-147.26 126.71,-148.59 134.93,-149.91"/>
<polygon fill="#63b8ff" stroke="#63b8ff" points="134.17,-153.33 144.6,-151.47 135.28,-146.42 134.17,-153.33"/>
</a>
</g>
</g>
<!-- Node7 -->
<g id="Node000007" class="node">
<title>Node7</title>
<g id="a_Node000007"><a xlink:href="group__mod__gfdl__cloud__mp_ga60295ecd2dc7ed890e0c643d562862b6.html#ga60295ecd2dc7ed890e0c643d562862b6" target="_top" xlink:title="Definition of vertical subgrid variability used for cloud ice and cloud water autoconversion.">
<polygon fill="white" stroke="#666666" points="267.88,-128.5 157.38,-128.5 157.38,-98 267.88,-98 267.88,-128.5"/>
<text xml:space="preserve" text-anchor="start" x="165.38" y="-115" font-family="Source Sans Pro" font-size="10.00">gfdl_cloud_microphys</text>
<text xml:space="preserve" text-anchor="middle" x="212.62" y="-103.75" font-family="Source Sans Pro" font-size="10.00">_mod::linear_prof</text>
</a>
</g>
</g>
<!-- Node1&#45;&gt;Node7 -->
<g id="edge6_Node000001_Node000007" class="edge">
<title>Node1&#45;&gt;Node7</title>
<g id="a_edge6_Node000001_Node000007"><a xlink:title=" ">
<path fill="none" stroke="#63b8ff" d="M110.59,-128.86C122,-127.09 134.15,-125.22 145.92,-123.4"/>
<polygon fill="#63b8ff" stroke="#63b8ff" points="146.21,-126.9 155.55,-121.91 145.14,-119.98 146.21,-126.9"/>
</a>
</g>
</g>
<!-- Node8 -->
<g id="Node000008" class="node">
<title>Node8</title>
<g id="a_Node000008"><a xlink:href="group__mod__gfdl__cloud__mp_ga6c69bf161f1301a1733d4cf1665d5b59.html#ga6c69bf161f1301a1733d4cf1665d5b59" target="_top" xlink:title="This subroutine calculates evaporation of rain and accretion of rain.">
<polygon fill="white" stroke="#666666" points="267.88,-79.5 157.38,-79.5 157.38,-49 267.88,-49 267.88,-79.5"/>
<text xml:space="preserve" text-anchor="start" x="165.38" y="-66" font-family="Source Sans Pro" font-size="10.00">gfdl_cloud_microphys</text>
<text xml:space="preserve" text-anchor="middle" x="212.62" y="-54.75" font-family="Source Sans Pro" font-size="10.00">_mod::revap_racc</text>
</a>
</g>
</g>
<!-- Node1&#45;&gt;Node8 -->
<g id="edge7_Node000001_Node000008" class="edge">
<title>Node1&#45;&gt;Node8</title>
<g id="a_edge7_Node000001_Node000008"><a xlink:title=" ">
<path fill="none" stroke="#63b8ff" d="M83.46,-121.66C101.15,-111.8 124.86,-99.11 146.5,-89.25 150.25,-87.54 154.15,-85.85 158.09,-84.19"/>
<polygon fill="#63b8ff" stroke="#63b8ff" points="159.24,-87.51 167.18,-80.49 156.59,-81.02 159.24,-87.51"/>
</a>
</g>
</g>
<!-- Node9 -->
<g id="Node000009" class="node">
<title>Node9</title>
<g id="a_Node000009"><a xlink:href="group__mod__gfdl__cloud__mp_gae04747b6ac095f189c2e9b92a93f2256.html#gae04747b6ac095f189c2e9b92a93f2256" target="_top" xlink:title="This subroutine calculates sedimentation of heat.">
<polygon fill="white" stroke="#666666" points="267.88,-30.5 157.38,-30.5 157.38,0 267.88,0 267.88,-30.5"/>
<text xml:space="preserve" text-anchor="start" x="165.38" y="-17" font-family="Source Sans Pro" font-size="10.00">gfdl_cloud_microphys</text>
<text xml:space="preserve" text-anchor="middle" x="212.62" y="-5.75" font-family="Source Sans Pro" font-size="10.00">_mod::sedi_heat</text>
</a>
</g>
</g>
<!-- Node1&#45;&gt;Node9 -->
<g id="edge8_Node000001_Node000009" class="edge">
<title>Node1&#45;&gt;Node9</title>
<g id="a_edge8_Node000001_Node000009"><a xlink:title=" ">
<path fill="none" stroke="#63b8ff" d="M67.09,-121.75C82.53,-100.68 112.76,-63.04 146.5,-40.25 148.7,-38.76 151,-37.35 153.37,-36"/>
<polygon fill="#63b8ff" stroke="#63b8ff" points="154.76,-39.22 162.06,-31.55 151.57,-32.99 154.76,-39.22"/>
</a>
</g>
</g>
<!-- Node5 -->
<g id="Node000005" class="node">
<title>Node5</title>
<g id="a_Node000005"><a xlink:href="group__mod__gfdl__cloud__mp_gaeaa05a4c1310e5a546cadd40f1c66c42.html#gaeaa05a4c1310e5a546cadd40f1c66c42" target="_top" xlink:title=" ">
<polygon fill="white" stroke="#666666" points="425.25,-177.5 314.75,-177.5 314.75,-147 425.25,-147 425.25,-177.5"/>
<text xml:space="preserve" text-anchor="start" x="322.75" y="-164" font-family="Source Sans Pro" font-size="10.00">gfdl_cloud_microphys</text>
<text xml:space="preserve" text-anchor="middle" x="370" y="-152.75" font-family="Source Sans Pro" font-size="10.00">_mod::cs_profile</text>
</a>
</g>
</g>
<!-- Node4&#45;&gt;Node5 -->
<g id="edge4_Node000004_Node000005" class="edge">
<title>Node4&#45;&gt;Node5</title>
<g id="a_edge4_Node000004_Node000005"><a xlink:title=" ">
<path fill="none" stroke="#63b8ff" d="M279.07,-162.25C286.98,-162.25 295.07,-162.25 302.99,-162.25"/>
<polygon fill="#63b8ff" stroke="#63b8ff" points="302.92,-165.75 312.92,-162.25 302.92,-158.75 302.92,-165.75"/>
</a>
</g>
</g>
<!-- Node6 -->
<g id="Node000006" class="node">
<title>Node6</title>
<g id="a_Node000006"><a xlink:href="group__mod__gfdl__cloud__mp_ga4551eade22b554cea965dc3efbe63ce4.html#ga4551eade22b554cea965dc3efbe63ce4" target="_top" xlink:title="This subroutine perform positive definite constraint.">
<polygon fill="white" stroke="#666666" points="571.75,-177.5 461.25,-177.5 461.25,-147 571.75,-147 571.75,-177.5"/>
<text xml:space="preserve" text-anchor="start" x="469.25" y="-164" font-family="Source Sans Pro" font-size="10.00">gfdl_cloud_microphys</text>
<text xml:space="preserve" text-anchor="middle" x="516.5" y="-152.75" font-family="Source Sans Pro" font-size="10.00">_mod::cs_limiters</text>
</a>
</g>
</g>
<!-- Node5&#45;&gt;Node6 -->
<g id="edge5_Node000005_Node000006" class="edge">
<title>Node5&#45;&gt;Node6</title>
<g id="a_edge5_Node000005_Node000006"><a xlink:title=" ">
<path fill="none" stroke="#63b8ff" d="M425.63,-162.25C433.36,-162.25 441.38,-162.25 449.3,-162.25"/>
<polygon fill="#63b8ff" stroke="#63b8ff" points="449.28,-165.75 459.28,-162.25 449.28,-158.75 449.28,-165.75"/>
</a>
</g>
</g>
</g>
</svg>
