<?xml version="1.0" encoding="UTF-8" standalone="no"?>
<!DOCTYPE svg PUBLIC "-//W3C//DTD SVG 1.1//EN"
 "http://www.w3.org/Graphics/SVG/1.1/DTD/svg11.dtd">
<!-- Generated by graphviz version 14.1.2 (20260124.0452)
 -->
<!-- Title: nst_module::dtm_1p Pages: 1 -->
<svg width="412pt" height="64pt"
 viewBox="0.00 0.00 412.00 64.00" xmlns="http://www.w3.org/2000/svg" xmlns:xlink="http://www.w3.org/1999/xlink">
<g id="graph0" class="graph" transform="scale(1 1) rotate(0) translate(4 60.25)">
<title>nst_module::dtm_1p</title>
<!-- Node1 -->
<g id="Node000001" class="node">
<title>Node1</title>
<g id="a_Node000001"><a xlink:title="This subroutine contains the module of diurnal thermocline layer model.">
<polygon fill="#999999" stroke="#666666" points="104.5,-37.25 0,-37.25 0,-18 104.5,-18 104.5,-37.25"/>
<text xml:space="preserve" text-anchor="middle" x="52.25" y="-23.75" font-family="Source Sans Pro" font-size="10.00">nst_module::dtm_1p</text>
</a>
</g>
</g>
<!-- Node2 -->
<g id="Node000002" class="node">
<title>Node2</title>
<g id="a_Node000002"><a xlink:href="group__gfs__nst__main__mod_ga8a675addc5dc1e840b49bf2ceac1baf9.html#ga8a675addc5dc1e840b49bf2ceac1baf9" target="_top" xlink:title=" ">
<polygon fill="white" stroke="#666666" points="258.5,-56.25 140.5,-56.25 140.5,-37 258.5,-37 258.5,-56.25"/>
<text xml:space="preserve" text-anchor="middle" x="199.5" y="-42.75" font-family="Source Sans Pro" font-size="10.00">nst_module::dtm_onset</text>
</a>
</g>
</g>
<!-- Node1&#45;&gt;Node2 -->
<g id="edge1_Node000001_Node000002" class="edge">
<title>Node1&#45;&gt;Node2</title>
<g id="a_edge1_Node000001_Node000002"><a xlink:title=" ">
<path fill="none" stroke="#63b8ff" d="M104.87,-34.38C112.63,-35.39 120.74,-36.45 128.8,-37.51"/>
<polygon fill="#63b8ff" stroke="#63b8ff" points="128.25,-40.97 138.62,-38.79 129.16,-34.02 128.25,-40.97"/>
</a>
</g>
</g>
<!-- Node4 -->
<g id="Node000004" class="node">
<title>Node4</title>
<g id="a_Node000004"><a xlink:href="group__gfs__nst__main__mod_gaa63c73ffe0e4993cd939bfd283d31f8c.html#gaa63c73ffe0e4993cd939bfd283d31f8c" target="_top" xlink:title="This subroutine integrates one time step with modified Euler method.">
<polygon fill="white" stroke="#666666" points="250.25,-19.25 148.75,-19.25 148.75,0 250.25,0 250.25,-19.25"/>
<text xml:space="preserve" text-anchor="middle" x="199.5" y="-5.75" font-family="Source Sans Pro" font-size="10.00">nst_module::eulerm</text>
</a>
</g>
</g>
<!-- Node1&#45;&gt;Node4 -->
<g id="edge3_Node000001_Node000004" class="edge">
<title>Node1&#45;&gt;Node4</title>
<g id="a_edge3_Node000001_Node000004"><a xlink:title=" ">
<path fill="none" stroke="#63b8ff" d="M104.87,-21.23C115.4,-19.92 126.57,-18.54 137.4,-17.2"/>
<polygon fill="#63b8ff" stroke="#63b8ff" points="137.51,-20.71 147.01,-16.01 136.65,-13.76 137.51,-20.71"/>
</a>
</g>
</g>
<!-- Node3 -->
<g id="Node000003" class="node">
<title>Node3</title>
<g id="a_Node000003"><a xlink:href="group__gfs__nst__main__mod_ga7bd8d3987cfe757a5b0e3cdfd5baa26c.html#ga7bd8d3987cfe757a5b0e3cdfd5baa26c" target="_top" xlink:title="This subroutine resets the value of xt,xs,xu,xv,xz,xtts,xzts.">
<polygon fill="white" stroke="#666666" points="404.25,-37.25 294.5,-37.25 294.5,-18 404.25,-18 404.25,-37.25"/>
<text xml:space="preserve" text-anchor="middle" x="349.38" y="-23.75" font-family="Source Sans Pro" font-size="10.00">nst_module::dtl_reset</text>
</a>
</g>
</g>
<!-- Node2&#45;&gt;Node3 -->
<g id="edge2_Node000002_Node000003" class="edge">
<title>Node2&#45;&gt;Node3</title>
<g id="a_edge2_Node000002_Node000003"><a xlink:title=" ">
<path fill="none" stroke="#63b8ff" d="M258.94,-39.12C266.85,-38.1 274.99,-37.05 283.01,-36.02"/>
<polygon fill="#63b8ff" stroke="#63b8ff" points="283.23,-39.52 292.7,-34.78 282.34,-32.58 283.23,-39.52"/>
</a>
</g>
</g>
<!-- Node4&#45;&gt;Node3 -->
<g id="edge4_Node000004_Node000003" class="edge">
<title>Node4&#45;&gt;Node3</title>
<g id="a_edge4_Node000004_Node000003"><a xlink:title=" ">
<path fill="none" stroke="#63b8ff" d="M250.56,-15.72C260.95,-16.98 272.04,-18.33 282.88,-19.65"/>
<polygon fill="#63b8ff" stroke="#63b8ff" points="282.2,-23.1 292.55,-20.83 283.05,-16.15 282.2,-23.1"/>
</a>
</g>
</g>
</g>
</svg>
