<?xml version="1.0" encoding="UTF-8" standalone="no"?>
<!DOCTYPE svg PUBLIC "-//W3C//DTD SVG 1.1//EN"
 "http://www.w3.org/Graphics/SVG/1.1/DTD/svg11.dtd">
<!-- Generated by graphviz version 14.1.2 (20260124.0452)
 -->
<!-- Title: module_sf_ruclsm::snowsoil Pages: 1 -->
<svg width="488pt" height="174pt"
 viewBox="0.00 0.00 488.00 174.00" xmlns="http://www.w3.org/2000/svg" xmlns:xlink="http://www.w3.org/1999/xlink">

<svg id="main" version="1.1" xmlns="http://www.w3.org/2000/svg" xmlns:xlink="http://www.w3.org/1999/xlink" xml:space="preserve">

<style type="text/css"><![CDATA[
.node, .edge {opacity: 0.7;}
.node.selected, .edge.selected {opacity: 1;}
.edge:hover path { stroke: red; }
.edge:hover polygon { stroke: red; fill: red; }
]]></style>
<script type="application/ecmascript" xlink:href="svg.min.js"/>
<svg id="graph" class="graph">
<g id="graph0" class="graph" transform="scale(1 1) rotate(0) translate(4 170.25)">
<title>module_sf_ruclsm::snowsoil</title>
<!-- Node1 -->
<g id="Node000001" class="node">
<title>Node1</title>
<g id="a_Node000001"><a xlink:title="This subroutine is called for snow covered areas of land. It solves energy and moisture budgets on th...">
<polygon fill="#999999" stroke="#666666" points="139.75,-74.25 0,-74.25 0,-55 139.75,-55 139.75,-74.25"/>
<text xml:space="preserve" text-anchor="middle" x="69.88" y="-60.75" font-family="Source Sans Pro" font-size="10.00">module_sf_ruclsm::snowsoil</text>
</a>
</g>
</g>
<!-- Node2 -->
<g id="Node000002" class="node">
<title>Node2</title>
<g id="a_Node000002"><a xlink:href="group__lsm__ruc__group_ga204e4de9df89836cdda1dca1ee66d86c.html#ga204e4de9df89836cdda1dca1ee66d86c" target="_top" xlink:title="This subroutine solves energy bugdget equation and heat diffusion equation to obtain snow and soil te...">
<polygon fill="white" stroke="#666666" points="322.25,-130.25 175.75,-130.25 175.75,-111 322.25,-111 322.25,-130.25"/>
<text xml:space="preserve" text-anchor="middle" x="249" y="-116.75" font-family="Source Sans Pro" font-size="10.00">module_sf_ruclsm::snowtemp</text>
</a>
</g>
</g>
<!-- Node1&#45;&gt;Node2 -->
<g id="edge1_Node000001_Node000002" class="edge">
<title>Node1&#45;&gt;Node2</title>
<g id="a_edge1_Node000001_Node000002"><a xlink:title=" ">
<path fill="none" stroke="#63b8ff" d="M96.48,-74.75C117.57,-82.87 148.33,-94.27 175.75,-102.62 181.55,-104.39 187.64,-106.12 193.73,-107.75"/>
<polygon fill="#63b8ff" stroke="#63b8ff" points="192.6,-111.07 203.16,-110.21 194.37,-104.3 192.6,-111.07"/>
</a>
</g>
</g>
<!-- Node5 -->
<g id="Node000005" class="node">
<title>Node5</title>
<g id="a_Node000005"><a xlink:href="group__lsm__ruc__group_ga278c9faad6ab598b60a3bf8c562e5a8a.html#ga278c9faad6ab598b60a3bf8c562e5a8a" target="_top" xlink:title="This subroutine solves moisture budget and computes soil moisture and surface and sub&#45;surface runoffs...">
<polygon fill="white" stroke="#666666" points="319.25,-93.25 178.75,-93.25 178.75,-74 319.25,-74 319.25,-93.25"/>
<text xml:space="preserve" text-anchor="middle" x="249" y="-79.75" font-family="Source Sans Pro" font-size="10.00">module_sf_ruclsm::soilmoist</text>
</a>
</g>
</g>
<!-- Node1&#45;&gt;Node5 -->
<g id="edge5_Node000001_Node000005" class="edge">
<title>Node1&#45;&gt;Node5</title>
<g id="a_edge5_Node000001_Node000005"><a xlink:title=" ">
<path fill="none" stroke="#63b8ff" d="M140.12,-72.05C148.99,-73 158.13,-73.98 167.16,-74.95"/>
<polygon fill="#63b8ff" stroke="#63b8ff" points="166.69,-78.42 177.01,-76.01 167.44,-71.46 166.69,-78.42"/>
</a>
</g>
</g>
<!-- Node6 -->
<g id="Node000006" class="node">
<title>Node6</title>
<g id="a_Node000006"><a xlink:href="group__lsm__ruc__group_ga53ef8a1d870ab8dab2cc31f456c6b3a5.html#ga53ef8a1d870ab8dab2cc31f456c6b3a5" target="_top" xlink:title="This subroutine computes thermal diffusivity, and diffusional and hydraulic condeuctivities in soil.">
<polygon fill="white" stroke="#666666" points="316.62,-56.25 181.38,-56.25 181.38,-37 316.62,-37 316.62,-56.25"/>
<text xml:space="preserve" text-anchor="middle" x="249" y="-42.75" font-family="Source Sans Pro" font-size="10.00">module_sf_ruclsm::soilprop</text>
</a>
</g>
</g>
<!-- Node1&#45;&gt;Node6 -->
<g id="edge6_Node000001_Node000006" class="edge">
<title>Node1&#45;&gt;Node6</title>
<g id="a_edge6_Node000001_Node000006"><a xlink:title=" ">
<path fill="none" stroke="#63b8ff" d="M140.12,-57.59C149.81,-56.6 159.83,-55.59 169.68,-54.58"/>
<polygon fill="#63b8ff" stroke="#63b8ff" points="170.03,-58.07 179.62,-53.57 169.32,-51.1 170.03,-58.07"/>
</a>
</g>
</g>
<!-- Node7 -->
<g id="Node000007" class="node">
<title>Node7</title>
<g id="a_Node000007"><a xlink:href="group__lsm__ruc__group_ga360e53dc48f6b38b3536375605199e96.html#ga360e53dc48f6b38b3536375605199e96" target="_top" xlink:title="This subroutine solves the transpiration function (EQs. 18,19 in Smirnova et al.(1997) smirnova_1997)...">
<polygon fill="white" stroke="#666666" points="312.12,-19.25 185.88,-19.25 185.88,0 312.12,0 312.12,-19.25"/>
<text xml:space="preserve" text-anchor="middle" x="249" y="-5.75" font-family="Source Sans Pro" font-size="10.00">module_sf_ruclsm::transf</text>
</a>
</g>
</g>
<!-- Node1&#45;&gt;Node7 -->
<g id="edge7_Node000001_Node000007" class="edge">
<title>Node1&#45;&gt;Node7</title>
<g id="a_edge7_Node000001_Node000007"><a xlink:title=" ">
<path fill="none" stroke="#63b8ff" d="M96.94,-54.65C118.02,-46.77 148.57,-35.79 175.75,-27.62 181.55,-25.88 187.65,-24.17 193.75,-22.55"/>
<polygon fill="#63b8ff" stroke="#63b8ff" points="194.38,-26 203.18,-20.1 192.62,-19.22 194.38,-26"/>
</a>
</g>
</g>
<!-- Node3 -->
<g id="Node000003" class="node">
<title>Node3</title>
<g id="a_Node000003"><a xlink:href="group__lsm__ruc__group_ga0892c4c726f23c4e4c8317efd197c208.html#ga0892c4c726f23c4e4c8317efd197c208" target="_top" xlink:title="This function computes water vapor mixing ratio at saturation from the precomputed table and a given ...">
<polygon fill="white" stroke="#666666" points="477.75,-148.25 360.5,-148.25 360.5,-129 477.75,-129 477.75,-148.25"/>
<text xml:space="preserve" text-anchor="middle" x="419.12" y="-134.75" font-family="Source Sans Pro" font-size="10.00">module_sf_ruclsm::qsn</text>
</a>
</g>
</g>
<!-- Node2&#45;&gt;Node3 -->
<g id="edge2_Node000002_Node000003" class="edge">
<title>Node2&#45;&gt;Node3</title>
<g id="a_edge2_Node000002_Node000003"><a xlink:title=" ">
<path fill="none" stroke="#63b8ff" d="M322.28,-128.36C331.06,-129.3 340.03,-130.26 348.77,-131.2"/>
<polygon fill="#63b8ff" stroke="#63b8ff" points="348.28,-134.67 358.6,-132.25 349.03,-127.71 348.28,-134.67"/>
</a>
</g>
</g>
<!-- Node4 -->
<g id="Node000004" class="node">
<title>Node4</title>
<g id="a_Node000004"><a xlink:href="group__lsm__ruc__group_ga03c426be3516bfb046dfd57c1b89dbbe.html#ga03c426be3516bfb046dfd57c1b89dbbe" target="_top" xlink:title="This subroutine finds the solution of energy budget at the surface from the pre&#45;computed table of sat...">
<polygon fill="white" stroke="#666666" points="480,-111.25 358.25,-111.25 358.25,-92 480,-92 480,-111.25"/>
<text xml:space="preserve" text-anchor="middle" x="419.12" y="-97.75" font-family="Source Sans Pro" font-size="10.00">module_sf_ruclsm::vilka</text>
</a>
</g>
</g>
<!-- Node2&#45;&gt;Node4 -->
<g id="edge4_Node000002_Node000004" class="edge">
<title>Node2&#45;&gt;Node4</title>
<g id="a_edge4_Node000002_Node000004"><a xlink:title=" ">
<path fill="none" stroke="#63b8ff" d="M322.28,-112.46C330.32,-111.55 338.51,-110.62 346.55,-109.71"/>
<polygon fill="#63b8ff" stroke="#63b8ff" points="346.73,-113.22 356.27,-108.61 345.94,-106.26 346.73,-113.22"/>
</a>
</g>
</g>
<!-- Node3&#45;&gt;Node3 -->
<g id="edge3_Node000003_Node000003" class="edge">
<title>Node3&#45;&gt;Node3</title>
<g id="a_edge3_Node000003_Node000003"><a xlink:title=" ">
<path fill="none" stroke="#63b8ff" d="M392.49,-148.54C380.34,-157.15 389.22,-166.25 419.12,-166.25 435.95,-166.25 446.11,-163.37 449.63,-159.32"/>
<polygon fill="#63b8ff" stroke="#63b8ff" points="452.94,-158.19 446.27,-149.96 446.36,-160.56 452.94,-158.19"/>
</a>
</g>
</g>
</g>
</svg>
</svg>

<style type='text/css'>
<![CDATA[
[data-mouse-over-selected='false'] { opacity: 0.7; }
[data-mouse-over-selected='true']  { opacity: 1.0; }
]]>
</style>
<script type="application/ecmascript"><![CDATA[
document.addEventListener('DOMContentLoaded', (event) => {
  highlightEdges();
  highlightAdjacentNodes();
});
]]></script>
</svg>
