<?xml version="1.0" encoding="UTF-8" standalone="no"?>
<!DOCTYPE svg PUBLIC "-//W3C//DTD SVG 1.1//EN"
 "http://www.w3.org/Graphics/SVG/1.1/DTD/svg11.dtd">
<!-- Generated by graphviz version 14.1.2 (20260124.0452)
 -->
<!-- Title: co2flux Pages: 1 -->
<svg width="363pt" height="27pt"
 viewBox="0.00 0.00 363.00 27.00" xmlns="http://www.w3.org/2000/svg" xmlns:xlink="http://www.w3.org/1999/xlink">
<g id="graph0" class="graph" transform="scale(1 1) rotate(0) translate(4 23.25)">
<title>co2flux</title>
<!-- Node1 -->
<g id="Node000001" class="node">
<title>Node1</title>
<g id="a_Node000001"><a xlink:title="the original code is from Dickinson et al.(1998), modified by guo&#45;yue niu, 2004">
<polygon fill="#999999" stroke="#666666" points="355,-19.25 307.5,-19.25 307.5,0 355,0 355,-19.25"/>
<text xml:space="preserve" text-anchor="middle" x="331.25" y="-5.75" font-family="Source Sans Pro" font-size="10.00">co2flux</text>
</a>
</g>
</g>
<!-- Node2 -->
<g id="Node000002" class="node">
<title>Node2</title>
<g id="a_Node000002"><a xlink:href="group___noah_m_p___l_s_m_ga47b0778587d0eebbb80a3fef6bf2fcf4.html#ga47b0778587d0eebbb80a3fef6bf2fcf4" target="_top" xlink:title=" ">
<polygon fill="white" stroke="#666666" points="271.5,-19.25 226.25,-19.25 226.25,0 271.5,0 271.5,-19.25"/>
<text xml:space="preserve" text-anchor="middle" x="248.88" y="-5.75" font-family="Source Sans Pro" font-size="10.00">carbon</text>
</a>
</g>
</g>
<!-- Node1&#45;&gt;Node2 -->
<g id="edge1_Node000001_Node000002" class="edge">
<title>Node1&#45;&gt;Node2</title>
<g id="a_edge1_Node000001_Node000002"><a xlink:title=" ">
<path fill="none" stroke="#63b8ff" d="M295.62,-9.62C287.6,-9.62 279.28,-9.62 271.97,-9.62"/>
<polygon fill="#63b8ff" stroke="#63b8ff" points="295.49,-13.13 305.49,-9.63 295.49,-6.13 295.49,-13.13"/>
</a>
</g>
</g>
<!-- Node3 -->
<g id="Node000003" class="node">
<title>Node3</title>
<g id="a_Node000003"><a xlink:href="group___noah_m_p___l_s_m_gab480f7969dad27ce9e00e559f82c464e.html#gab480f7969dad27ce9e00e559f82c464e" target="_top" xlink:title=" ">
<polygon fill="white" stroke="#666666" points="190.25,-19.25 118.75,-19.25 118.75,0 190.25,0 190.25,-19.25"/>
<text xml:space="preserve" text-anchor="middle" x="154.5" y="-5.75" font-family="Source Sans Pro" font-size="10.00">noahmp_sflx</text>
</a>
</g>
</g>
<!-- Node2&#45;&gt;Node3 -->
<g id="edge2_Node000002_Node000003" class="edge">
<title>Node2&#45;&gt;Node3</title>
<g id="a_edge2_Node000002_Node000003"><a xlink:title=" ">
<path fill="none" stroke="#63b8ff" d="M214.66,-9.62C206.85,-9.62 198.49,-9.62 190.59,-9.62"/>
<polygon fill="#63b8ff" stroke="#63b8ff" points="214.47,-13.13 224.47,-9.63 214.47,-6.13 214.47,-13.13"/>
</a>
</g>
</g>
<!-- Node4 -->
<g id="Node000004" class="node">
<title>Node4</title>
<g id="a_Node000004"><a xlink:href="group___noah_m_p___l_s_m_ga0e44f72a92d8830344fecdb9fb65e6fb.html#ga0e44f72a92d8830344fecdb9fb65e6fb" target="_top" xlink:title="This subroutine is the main CCPP entry point for the NoahMP LSM.">
<polygon fill="white" stroke="#666666" points="82.75,-19.25 0,-19.25 0,0 82.75,0 82.75,-19.25"/>
<text xml:space="preserve" text-anchor="middle" x="41.38" y="-5.75" font-family="Source Sans Pro" font-size="10.00">noahmpdrv_run</text>
</a>
</g>
</g>
<!-- Node3&#45;&gt;Node4 -->
<g id="edge3_Node000003_Node000004" class="edge">
<title>Node3&#45;&gt;Node4</title>
<g id="a_edge3_Node000003_Node000004"><a xlink:title=" ">
<path fill="none" stroke="#63b8ff" d="M106.99,-9.62C99.06,-9.62 90.88,-9.62 83.12,-9.62"/>
<polygon fill="#63b8ff" stroke="#63b8ff" points="106.83,-13.13 116.83,-9.63 106.83,-6.13 106.83,-13.13"/>
</a>
</g>
</g>
</g>
</svg>
