<?xml version="1.0" encoding="UTF-8" standalone="no"?>
<!DOCTYPE svg PUBLIC "-//W3C//DTD SVG 1.1//EN"
 "http://www.w3.org/Graphics/SVG/1.1/DTD/svg11.dtd">
<!-- Generated by graphviz version 14.1.2 (20260124.0452)
 -->
<!-- Title: module_sf_mynn::fairall_etal_2003 Pages: 1 -->
<svg width="686pt" height="39pt"
 viewBox="0.00 0.00 686.00 39.00" xmlns="http://www.w3.org/2000/svg" xmlns:xlink="http://www.w3.org/1999/xlink">
<g id="graph0" class="graph" transform="scale(1 1) rotate(0) translate(4 34.5)">
<title>module_sf_mynn::fairall_etal_2003</title>
<!-- Node1 -->
<g id="Node000001" class="node">
<title>Node1</title>
<g id="a_Node000001"><a xlink:title="This formulation for thermal and moisture roughness length (Zt and Zq) as a function of the roughness...">
<polygon fill="#999999" stroke="#666666" points="678.25,-30.5 558.75,-30.5 558.75,0 678.25,0 678.25,-30.5"/>
<text xml:space="preserve" text-anchor="start" x="566.75" y="-17" font-family="Source Sans Pro" font-size="10.00">module_sf_mynn::fairall</text>
<text xml:space="preserve" text-anchor="middle" x="618.5" y="-5.75" font-family="Source Sans Pro" font-size="10.00">_etal_2003</text>
</a>
</g>
</g>
<!-- Node2 -->
<g id="Node000002" class="node">
<title>Node2</title>
<g id="a_Node000002"><a xlink:href="group__mynn__sfc_ga51403acc4b5f2876fedbb82b29a2dc2e.html#ga51403acc4b5f2876fedbb82b29a2dc2e" target="_top" xlink:title="This subroutine calculates u*, z/L, and the exchange coefficients which are passed to subsequent sche...">
<polygon fill="white" stroke="#666666" points="522.75,-24.88 360.5,-24.88 360.5,-5.63 522.75,-5.63 522.75,-24.88"/>
<text xml:space="preserve" text-anchor="middle" x="441.62" y="-11.38" font-family="Source Sans Pro" font-size="10.00">module_sf_mynn::sfclay1d_mynn</text>
</a>
</g>
</g>
<!-- Node1&#45;&gt;Node2 -->
<g id="edge1_Node000001_Node000002" class="edge">
<title>Node1&#45;&gt;Node2</title>
<g id="a_edge1_Node000001_Node000002"><a xlink:title=" ">
<path fill="none" stroke="#63b8ff" d="M546.98,-15.25C539.14,-15.25 531.12,-15.25 523.17,-15.25"/>
<polygon fill="#63b8ff" stroke="#63b8ff" points="546.78,-18.75 556.78,-15.25 546.78,-11.75 546.78,-18.75"/>
</a>
</g>
</g>
<!-- Node3 -->
<g id="Node000003" class="node">
<title>Node3</title>
<g id="a_Node000003"><a xlink:href="group__mynn__sfc_gac0ece656c5688dd834becc8babfad72c.html#gac0ece656c5688dd834becc8babfad72c" target="_top" xlink:title="This subroutine.">
<polygon fill="white" stroke="#666666" points="324.5,-24.88 172.75,-24.88 172.75,-5.63 324.5,-5.63 324.5,-24.88"/>
<text xml:space="preserve" text-anchor="middle" x="248.62" y="-11.38" font-family="Source Sans Pro" font-size="10.00">module_sf_mynn::sfclay_mynn</text>
</a>
</g>
</g>
<!-- Node2&#45;&gt;Node3 -->
<g id="edge2_Node000002_Node000003" class="edge">
<title>Node2&#45;&gt;Node3</title>
<g id="a_edge2_Node000002_Node000003"><a xlink:title=" ">
<path fill="none" stroke="#63b8ff" d="M348.84,-15.25C340.79,-15.25 332.7,-15.25 324.8,-15.25"/>
<polygon fill="#63b8ff" stroke="#63b8ff" points="348.66,-18.75 358.66,-15.25 348.66,-11.75 348.66,-18.75"/>
</a>
</g>
</g>
<!-- Node4 -->
<g id="Node000004" class="node">
<title>Node4</title>
<g id="a_Node000004"><a xlink:href="group__mynn__sfc_gacc51d950a2377e011c8f110ff091c4d4.html#gacc51d950a2377e011c8f110ff091c4d4" target="_top" xlink:title=" ">
<polygon fill="white" stroke="#666666" points="136.75,-30.5 0,-30.5 0,0 136.75,0 136.75,-30.5"/>
<text xml:space="preserve" text-anchor="start" x="8" y="-17" font-family="Source Sans Pro" font-size="10.00">mynnsfc_wrapper::mynnsfc</text>
<text xml:space="preserve" text-anchor="middle" x="68.38" y="-5.75" font-family="Source Sans Pro" font-size="10.00">_wrapper_run</text>
</a>
</g>
</g>
<!-- Node3&#45;&gt;Node4 -->
<g id="edge3_Node000003_Node000004" class="edge">
<title>Node3&#45;&gt;Node4</title>
<g id="a_edge3_Node000003_Node000004"><a xlink:title=" ">
<path fill="none" stroke="#63b8ff" d="M160.99,-15.25C152.96,-15.25 144.91,-15.25 137.09,-15.25"/>
<polygon fill="#63b8ff" stroke="#63b8ff" points="160.78,-18.75 170.78,-15.25 160.78,-11.75 160.78,-18.75"/>
</a>
</g>
</g>
</g>
</svg>
