<?xml version="1.0" encoding="UTF-8" standalone="no"?>
<!DOCTYPE svg PUBLIC "-//W3C//DTD SVG 1.1//EN"
 "http://www.w3.org/Graphics/SVG/1.1/DTD/svg11.dtd">
<!-- Generated by graphviz version 14.1.2 (20260124.0452)
 -->
<!-- Title: cu_gf_driver::cu_gf_driver_run Pages: 1 -->
<svg width="788pt" height="920pt"
 viewBox="0.00 0.00 788.00 920.00" xmlns="http://www.w3.org/2000/svg" xmlns:xlink="http://www.w3.org/1999/xlink">
<g id="graph0" class="graph" transform="scale(1 1) rotate(0) translate(4 915.58)">
<title>cu_gf_driver::cu_gf_driver_run</title>
<!-- Node1 -->
<g id="Node000001" class="node">
<title>Node1</title>
<g id="a_Node000001"><a xlink:title="This is the Grell&#45;Freitas convection scheme driver module.">
<polygon fill="#999999" stroke="#666666" points="99.25,-454.88 0,-454.88 0,-424.38 99.25,-424.38 99.25,-454.88"/>
<text xml:space="preserve" text-anchor="start" x="8" y="-441.38" font-family="Source Sans Pro" font-size="10.00">cu_gf_driver::cu_gf</text>
<text xml:space="preserve" text-anchor="middle" x="49.62" y="-430.12" font-family="Source Sans Pro" font-size="10.00">_driver_run</text>
</a>
</g>
</g>
<!-- Node2 -->
<g id="Node000002" class="node">
<title>Node2</title>
<g id="a_Node000002"><a xlink:href="group__cu__gf__deep__group_ga6fb15c7cf491936bd0b501eb4a7c3147.html#ga6fb15c7cf491936bd0b501eb4a7c3147" target="_top" xlink:title="Driver for the deep or congestus GF routine.">
<polygon fill="white" stroke="#666666" points="276.5,-468.25 135.25,-468.25 135.25,-449 276.5,-449 276.5,-468.25"/>
<text xml:space="preserve" text-anchor="middle" x="205.88" y="-454.75" font-family="Source Sans Pro" font-size="10.00">cu_gf_deep::cu_gf_deep_run</text>
</a>
</g>
</g>
<!-- Node1&#45;&gt;Node2 -->
<g id="edge1_Node000001_Node000002" class="edge">
<title>Node1&#45;&gt;Node2</title>
<g id="a_edge1_Node000001_Node000002"><a xlink:title=" ">
<path fill="none" stroke="#63b8ff" d="M99.43,-445.64C107.2,-446.59 115.41,-447.6 123.68,-448.62"/>
<polygon fill="#63b8ff" stroke="#63b8ff" points="123.12,-452.08 133.47,-449.83 123.97,-445.13 123.12,-452.08"/>
</a>
</g>
</g>
<!-- Node17 -->
<g id="Node000017" class="node">
<title>Node17</title>
<g id="a_Node000017"><a xlink:href="group__cu__gf__deep__group_ga0e5723e9155e2a883630bbdbf1ada794.html#ga0e5723e9155e2a883630bbdbf1ada794" target="_top" xlink:title="Calculates tracer fluxes due to subsidence, only up&#45;stream differencing is currently used but flux co...">
<polygon fill="white" stroke="#666666" points="428.25,-19.25 329,-19.25 329,0 428.25,0 428.25,-19.25"/>
<text xml:space="preserve" text-anchor="middle" x="378.62" y="-5.75" font-family="Source Sans Pro" font-size="10.00">cu_gf_deep::fct1d3</text>
</a>
</g>
</g>
<!-- Node1&#45;&gt;Node17 -->
<g id="edge40_Node000001_Node000017" class="edge">
<title>Node1&#45;&gt;Node17</title>
<g id="a_edge40_Node000001_Node000017"><a xlink:title=" ">
<path fill="none" stroke="#63b8ff" d="M99.57,-438.14C158.68,-435.23 253.1,-426.7 276.5,-401.62 332.42,-341.72 262.84,-99.81 312.5,-34.62 315.23,-31.04 318.54,-27.97 322.21,-25.34"/>
<polygon fill="#63b8ff" stroke="#63b8ff" points="323.74,-28.5 330.61,-20.43 320.21,-22.46 323.74,-28.5"/>
</a>
</g>
</g>
<!-- Node26 -->
<g id="Node000026" class="node">
<title>Node26</title>
<g id="a_Node000026"><a xlink:href="group__cu__gf__sh__group_gac3f853aacccfdee63bf9a5e64611683f.html#gac3f853aacccfdee63bf9a5e64611683f" target="_top" xlink:title=" ">
<polygon fill="white" stroke="#666666" points="266,-738.25 145.75,-738.25 145.75,-719 266,-719 266,-738.25"/>
<text xml:space="preserve" text-anchor="middle" x="205.88" y="-724.75" font-family="Source Sans Pro" font-size="10.00">cu_gf_sh::cu_gf_sh_run</text>
</a>
</g>
</g>
<!-- Node1&#45;&gt;Node26 -->
<g id="edge30_Node000001_Node000026" class="edge">
<title>Node1&#45;&gt;Node26</title>
<g id="a_edge30_Node000001_Node000026"><a xlink:title=" ">
<path fill="none" stroke="#63b8ff" d="M58.92,-455.16C84.97,-503.98 165.18,-654.26 194.23,-708.68"/>
<polygon fill="#63b8ff" stroke="#63b8ff" points="191.11,-710.26 198.9,-717.44 197.28,-706.97 191.11,-710.26"/>
</a>
</g>
</g>
<!-- Node27 -->
<g id="Node000027" class="node">
<title>Node27</title>
<g id="a_Node000027"><a xlink:href="group__cu__gf__deep__group_gaaea6fe07b5f29f0a6c38b1aefe88a2c3.html#gaaea6fe07b5f29f0a6c38b1aefe88a2c3" target="_top" xlink:title="Checks for negative or excessive tendencies and corrects in a mass conversing way by adjusting the cl...">
<polygon fill="white" stroke="#666666" points="265.62,-392.25 146.12,-392.25 146.12,-373 265.62,-373 265.62,-392.25"/>
<text xml:space="preserve" text-anchor="middle" x="205.88" y="-378.75" font-family="Source Sans Pro" font-size="10.00">cu_gf_deep::neg_check</text>
</a>
</g>
</g>
<!-- Node1&#45;&gt;Node27 -->
<g id="edge41_Node000001_Node000027" class="edge">
<title>Node1&#45;&gt;Node27</title>
<g id="a_edge41_Node000001_Node000027"><a xlink:title=" ">
<path fill="none" stroke="#63b8ff" d="M89.68,-424.02C103.97,-418.41 120.3,-412.11 135.25,-406.62 144.57,-403.2 154.63,-399.65 164.14,-396.36"/>
<polygon fill="#63b8ff" stroke="#63b8ff" points="165.22,-399.69 173.54,-393.13 162.94,-393.07 165.22,-399.69"/>
</a>
</g>
</g>
<!-- Node3 -->
<g id="Node000003" class="node">
<title>Node3</title>
<g id="a_Node000003"><a xlink:href="group__cu__gf__deep__group_gaebe39ce8c6cd4488372362eecfe00ee0.html#gaebe39ce8c6cd4488372362eecfe00ee0" target="_top" xlink:title="Calculates strength of downdraft based on windshear and/or aerosol content.">
<polygon fill="white" stroke="#666666" points="439.88,-143.25 317.38,-143.25 317.38,-124 439.88,-124 439.88,-143.25"/>
<text xml:space="preserve" text-anchor="middle" x="378.62" y="-129.75" font-family="Source Sans Pro" font-size="10.00">cu_gf_deep::cup_dd_edt</text>
</a>
</g>
</g>
<!-- Node2&#45;&gt;Node3 -->
<g id="edge2_Node000002_Node000003" class="edge">
<title>Node2&#45;&gt;Node3</title>
<g id="a_edge2_Node000002_Node000003"><a xlink:title=" ">
<path fill="none" stroke="#63b8ff" d="M257.96,-448.59C265.05,-445.2 271.58,-440.68 276.5,-434.62 356.23,-336.61 230.43,-248.7 312.5,-152.62 313.07,-151.95 313.67,-151.3 314.29,-150.68"/>
<polygon fill="#63b8ff" stroke="#63b8ff" points="316.32,-153.53 322.11,-144.65 312.05,-147.98 316.32,-153.53"/>
</a>
</g>
</g>
<!-- Node4 -->
<g id="Node000004" class="node">
<title>Node4</title>
<g id="a_Node000004"><a xlink:href="group__cu__gf__deep__group_ga000f41a8ebc36623b1e3b6c71d904632.html#ga000f41a8ebc36623b1e3b6c71d904632" target="_top" xlink:title="Calcultes moisture properties of downdrafts.">
<polygon fill="white" stroke="#666666" points="430.5,-105.88 326.75,-105.88 326.75,-75.38 430.5,-75.38 430.5,-105.88"/>
<text xml:space="preserve" text-anchor="start" x="334.75" y="-92.38" font-family="Source Sans Pro" font-size="10.00">cu_gf_deep::cup_dd</text>
<text xml:space="preserve" text-anchor="middle" x="378.62" y="-81.12" font-family="Source Sans Pro" font-size="10.00">_moisture</text>
</a>
</g>
</g>
<!-- Node2&#45;&gt;Node4 -->
<g id="edge3_Node000002_Node000004" class="edge">
<title>Node2&#45;&gt;Node4</title>
<g id="a_edge3_Node000002_Node000004"><a xlink:title=" ">
<path fill="none" stroke="#63b8ff" d="M258.04,-448.66C265.12,-445.26 271.62,-440.71 276.5,-434.62 365.98,-322.93 224.2,-227.26 312.5,-114.62 313.92,-112.81 315.49,-111.13 317.19,-109.58"/>
<polygon fill="#63b8ff" stroke="#63b8ff" points="319.24,-112.42 325.29,-103.73 315.14,-106.75 319.24,-112.42"/>
</a>
</g>
</g>
<!-- Node5 -->
<g id="Node000005" class="node">
<title>Node5</title>
<g id="a_Node000005"><a xlink:href="group__cu__gf__deep__group_gabf84026a03bf21d4ba4eaa77efa11d93.html#gabf84026a03bf21d4ba4eaa77efa11d93" target="_top" xlink:title="Calculates environmental moist static energy, saturation moist static energy, heights,...">
<polygon fill="white" stroke="#666666" points="433.12,-831.25 324.12,-831.25 324.12,-812 433.12,-812 433.12,-831.25"/>
<text xml:space="preserve" text-anchor="middle" x="378.62" y="-817.75" font-family="Source Sans Pro" font-size="10.00">cu_gf_deep::cup_env</text>
</a>
</g>
</g>
<!-- Node2&#45;&gt;Node5 -->
<g id="edge4_Node000002_Node000005" class="edge">
<title>Node2&#45;&gt;Node5</title>
<g id="a_edge4_Node000002_Node000005"><a xlink:title=" ">
<path fill="none" stroke="#63b8ff" d="M209.62,-468.55C224.94,-523.76 299.62,-791.09 312.5,-803.62 313.11,-804.22 313.75,-804.8 314.4,-805.36"/>
<polygon fill="#63b8ff" stroke="#63b8ff" points="312.15,-808.07 322.39,-810.78 316.07,-802.27 312.15,-808.07"/>
</a>
</g>
</g>
<!-- Node7 -->
<g id="Node000007" class="node">
<title>Node7</title>
<g id="a_Node000007"><a xlink:href="group__cu__gf__deep__group_ga56111f64554b06083c77b1bec308b6ea.html#ga56111f64554b06083c77b1bec308b6ea" target="_top" xlink:title="Calculates environmental values on cloud levels.">
<polygon fill="white" stroke="#666666" points="444.75,-720.25 312.5,-720.25 312.5,-701 444.75,-701 444.75,-720.25"/>
<text xml:space="preserve" text-anchor="middle" x="378.62" y="-706.75" font-family="Source Sans Pro" font-size="10.00">cu_gf_deep::cup_env_clev</text>
</a>
</g>
</g>
<!-- Node2&#45;&gt;Node7 -->
<g id="edge7_Node000002_Node000007" class="edge">
<title>Node2&#45;&gt;Node7</title>
<g id="a_edge7_Node000002_Node000007"><a xlink:title=" ">
<path fill="none" stroke="#63b8ff" d="M208.29,-468.38C214,-504.17 238.7,-629.42 312.5,-692.62 313.44,-693.43 314.4,-694.19 315.4,-694.92"/>
<polygon fill="#63b8ff" stroke="#63b8ff" points="313.34,-697.77 323.73,-699.87 316.91,-691.75 313.34,-697.77"/>
</a>
</g>
</g>
<!-- Node8 -->
<g id="Node000008" class="node">
<title>Node8</title>
<g id="a_Node000008"><a xlink:href="group__cu__gf__deep__group_gabf30a4d89f48c3dff7256bbedff097fe.html#gabf30a4d89f48c3dff7256bbedff097fe" target="_top" xlink:title="Calculates an ensemble of closures and the resulting ensemble average to determine cloud base mass&#45;fl...">
<polygon fill="white" stroke="#666666" points="439.88,-424.88 317.38,-424.88 317.38,-394.38 439.88,-394.38 439.88,-424.88"/>
<text xml:space="preserve" text-anchor="start" x="325.38" y="-411.38" font-family="Source Sans Pro" font-size="10.00">cu_gf_deep::cup_forcing</text>
<text xml:space="preserve" text-anchor="middle" x="378.62" y="-400.12" font-family="Source Sans Pro" font-size="10.00">_ens_3d</text>
</a>
</g>
</g>
<!-- Node2&#45;&gt;Node8 -->
<g id="edge8_Node000002_Node000008" class="edge">
<title>Node2&#45;&gt;Node8</title>
<g id="a_edge8_Node000002_Node000008"><a xlink:title=" ">
<path fill="none" stroke="#63b8ff" d="M241.84,-448.59C262.06,-442.79 288.16,-435.3 312.07,-428.44"/>
<polygon fill="#63b8ff" stroke="#63b8ff" points="312.77,-431.88 321.41,-425.76 310.84,-425.15 312.77,-431.88"/>
</a>
</g>
</g>
<!-- Node9 -->
<g id="Node000009" class="node">
<title>Node9</title>
<g id="a_Node000009"><a xlink:href="group__cu__gf__deep__group_ga0a1b26105b052b8c66d7eb99a64c032e.html#ga0a1b26105b052b8c66d7eb99a64c032e" target="_top" xlink:title="Calculates the level of convective cloud base.">
<polygon fill="white" stroke="#666666" points="438.38,-794.25 318.88,-794.25 318.88,-775 438.38,-775 438.38,-794.25"/>
<text xml:space="preserve" text-anchor="middle" x="378.62" y="-780.75" font-family="Source Sans Pro" font-size="10.00">cu_gf_deep::cup_kbcon</text>
</a>
</g>
</g>
<!-- Node2&#45;&gt;Node9 -->
<g id="edge9_Node000002_Node000009" class="edge">
<title>Node2&#45;&gt;Node9</title>
<g id="a_edge9_Node000002_Node000009"><a xlink:title=" ">
<path fill="none" stroke="#63b8ff" d="M208.97,-468.52C219.28,-516.32 265.98,-722.85 312.5,-766.62 313.12,-767.21 313.77,-767.78 314.42,-768.33"/>
<polygon fill="#63b8ff" stroke="#63b8ff" points="312.22,-771.07 322.49,-773.67 316.09,-765.24 312.22,-771.07"/>
</a>
</g>
</g>
<!-- Node10 -->
<g id="Node000010" class="node">
<title>Node10</title>
<g id="a_Node000010"><a xlink:href="group__cu__gf__deep__group_ga1c93354ade8bedf132cb748238d59ff1.html#ga1c93354ade8bedf132cb748238d59ff1" target="_top" xlink:title="Calculates the average value of a variable at the updraft originating level.">
<polygon fill="white" stroke="#666666" points="610.75,-674.25 480.75,-674.25 480.75,-655 610.75,-655 610.75,-674.25"/>
<text xml:space="preserve" text-anchor="middle" x="545.75" y="-660.75" font-family="Source Sans Pro" font-size="10.00">cu_gf_deep::get_cloud_bc</text>
</a>
</g>
</g>
<!-- Node2&#45;&gt;Node10 -->
<g id="edge19_Node000002_Node000010" class="edge">
<title>Node2&#45;&gt;Node10</title>
<g id="a_edge19_Node000002_Node000010"><a xlink:title=" ">
<path fill="none" stroke="#63b8ff" d="M248.68,-468.72C314.73,-484.79 436.61,-514.95 444.75,-520.62 490.56,-552.6 522.09,-612.75 536.26,-644.24"/>
<polygon fill="#63b8ff" stroke="#63b8ff" points="533.05,-645.61 540.24,-653.39 539.47,-642.83 533.05,-645.61"/>
</a>
</g>
</g>
<!-- Node11 -->
<g id="Node000011" class="node">
<title>Node11</title>
<g id="a_Node000011"><a xlink:href="group__cu__gf__deep__group_ga72f5f742d6336b136978702e0140cfb5.html#ga72f5f742d6336b136978702e0140cfb5" target="_top" xlink:title="Calculates the level at which the maximum value in an array occurs.">
<polygon fill="white" stroke="#666666" points="441,-376.25 316.25,-376.25 316.25,-357 441,-357 441,-376.25"/>
<text xml:space="preserve" text-anchor="middle" x="378.62" y="-362.75" font-family="Source Sans Pro" font-size="10.00">cu_gf_deep::cup_maximi</text>
</a>
</g>
</g>
<!-- Node2&#45;&gt;Node11 -->
<g id="edge11_Node000002_Node000011" class="edge">
<title>Node2&#45;&gt;Node11</title>
<g id="a_edge11_Node000002_Node000011"><a xlink:title=" ">
<path fill="none" stroke="#63b8ff" d="M249.4,-448.53C258.87,-445.07 268.47,-440.54 276.5,-434.62 298.26,-418.6 290.36,-401.12 312.5,-385.62 314.7,-384.09 317.02,-382.67 319.43,-381.37"/>
<polygon fill="#63b8ff" stroke="#63b8ff" points="320.71,-384.63 328.33,-377.27 317.78,-378.28 320.71,-384.63"/>
</a>
</g>
</g>
<!-- Node12 -->
<g id="Node000012" class="node">
<title>Node12</title>
<g id="a_Node000012"><a xlink:href="group__cu__gf__deep__group_gadce84bec635baa56686cb533dbc1e456.html#gadce84bec635baa56686cb533dbc1e456" target="_top" xlink:title="Calculates the level at which the minimum value in an array occurs.">
<polygon fill="white" stroke="#666666" points="439.5,-683.25 317.75,-683.25 317.75,-664 439.5,-664 439.5,-683.25"/>
<text xml:space="preserve" text-anchor="middle" x="378.62" y="-669.75" font-family="Source Sans Pro" font-size="10.00">cu_gf_deep::cup_minimi</text>
</a>
</g>
</g>
<!-- Node2&#45;&gt;Node12 -->
<g id="edge12_Node000002_Node000012" class="edge">
<title>Node2&#45;&gt;Node12</title>
<g id="a_edge12_Node000002_Node000012"><a xlink:title=" ">
<path fill="none" stroke="#63b8ff" d="M209.23,-468.61C217.4,-500.95 247.62,-603.78 312.5,-655.62 313.49,-656.41 314.5,-657.16 315.55,-657.88"/>
<polygon fill="#63b8ff" stroke="#63b8ff" points="313.83,-660.93 324.26,-662.78 317.25,-654.83 313.83,-660.93"/>
</a>
</g>
</g>
<!-- Node13 -->
<g id="Node000013" class="node">
<title>Node13</title>
<g id="a_Node000013"><a xlink:href="group__cu__gf__deep__group_ga0406c0b79f9eb26b5ba45605ee51b75d.html#ga0406c0b79f9eb26b5ba45605ee51b75d" target="_top" xlink:title="This subroutine calculates final output fields including physical tendencies, precipitation,...">
<polygon fill="white" stroke="#666666" points="438.75,-338.88 318.5,-338.88 318.5,-308.38 438.75,-308.38 438.75,-338.88"/>
<text xml:space="preserve" text-anchor="start" x="326.5" y="-325.38" font-family="Source Sans Pro" font-size="10.00">cu_gf_deep::cup_output</text>
<text xml:space="preserve" text-anchor="middle" x="378.62" y="-314.12" font-family="Source Sans Pro" font-size="10.00">_ens_3d</text>
</a>
</g>
</g>
<!-- Node2&#45;&gt;Node13 -->
<g id="edge13_Node000002_Node000013" class="edge">
<title>Node2&#45;&gt;Node13</title>
<g id="a_edge13_Node000002_Node000013"><a xlink:title=" ">
<path fill="none" stroke="#63b8ff" d="M253.77,-448.6C262.06,-445.2 270.08,-440.67 276.5,-434.62 306.97,-405.94 282.34,-376.63 312.5,-347.62 313.12,-347.03 313.75,-346.45 314.4,-345.88"/>
<polygon fill="#63b8ff" stroke="#63b8ff" points="316.26,-348.86 322.33,-340.18 312.17,-343.18 316.26,-348.86"/>
</a>
</g>
</g>
<!-- Node14 -->
<g id="Node000014" class="node">
<title>Node14</title>
<g id="a_Node000014"><a xlink:href="group__cu__gf__deep__group_ga5b68f3b33a94b5a23df8c21759ffb320.html#ga5b68f3b33a94b5a23df8c21759ffb320" target="_top" xlink:title="Calculates the cloud work functions for updrafts.">
<polygon fill="white" stroke="#666666" points="441,-646.25 316.25,-646.25 316.25,-627 441,-627 441,-646.25"/>
<text xml:space="preserve" text-anchor="middle" x="378.62" y="-632.75" font-family="Source Sans Pro" font-size="10.00">cu_gf_deep::cup_up_aa0</text>
</a>
</g>
</g>
<!-- Node2&#45;&gt;Node14 -->
<g id="edge14_Node000002_Node000014" class="edge">
<title>Node2&#45;&gt;Node14</title>
<g id="a_edge14_Node000002_Node000014"><a xlink:title=" ">
<path fill="none" stroke="#63b8ff" d="M210.61,-468.59C221.61,-496.58 256.7,-576.59 312.5,-617.62 314.43,-619.04 316.46,-620.35 318.57,-621.57"/>
<polygon fill="#63b8ff" stroke="#63b8ff" points="316.98,-624.69 327.51,-625.91 320.04,-618.39 316.98,-624.69"/>
</a>
</g>
</g>
<!-- Node15 -->
<g id="Node000015" class="node">
<title>Node15</title>
<g id="a_Node000015"><a xlink:href="group__cu__gf__deep__group_ga5042afe10f07540454330ed4a77a5992.html#ga5042afe10f07540454330ed4a77a5992" target="_top" xlink:title="Calculates the cloud work function based on boundary layer forcing.">
<polygon fill="white" stroke="#666666" points="430.5,-289.88 326.75,-289.88 326.75,-259.38 430.5,-259.38 430.5,-289.88"/>
<text xml:space="preserve" text-anchor="start" x="334.75" y="-276.38" font-family="Source Sans Pro" font-size="10.00">cu_gf_deep::cup_up</text>
<text xml:space="preserve" text-anchor="middle" x="378.62" y="-265.12" font-family="Source Sans Pro" font-size="10.00">_aa1bl</text>
</a>
</g>
</g>
<!-- Node2&#45;&gt;Node15 -->
<g id="edge15_Node000002_Node000015" class="edge">
<title>Node2&#45;&gt;Node15</title>
<g id="a_edge15_Node000002_Node000015"><a xlink:title=" ">
<path fill="none" stroke="#63b8ff" d="M255.86,-448.64C263.56,-445.25 270.84,-440.71 276.5,-434.62 318.82,-389.18 270.98,-345.8 312.5,-299.62 313.99,-297.97 315.6,-296.42 317.3,-294.98"/>
<polygon fill="#63b8ff" stroke="#63b8ff" points="319.07,-298.02 325.28,-289.44 315.08,-292.27 319.07,-298.02"/>
</a>
</g>
</g>
<!-- Node16 -->
<g id="Node000016" class="node">
<title>Node16</title>
<g id="a_Node000016"><a xlink:href="group__cu__gf__deep__group_ga956dc9e34d290057e2cf6fb86ec7ea7b.html#ga956dc9e34d290057e2cf6fb86ec7ea7b" target="_top" xlink:title="Calculates moisture properties of the updraft.">
<polygon fill="white" stroke="#666666" points="430.5,-559.88 326.75,-559.88 326.75,-529.38 430.5,-529.38 430.5,-559.88"/>
<text xml:space="preserve" text-anchor="start" x="334.75" y="-546.38" font-family="Source Sans Pro" font-size="10.00">cu_gf_deep::cup_up</text>
<text xml:space="preserve" text-anchor="middle" x="378.62" y="-535.12" font-family="Source Sans Pro" font-size="10.00">_moisture</text>
</a>
</g>
</g>
<!-- Node2&#45;&gt;Node16 -->
<g id="edge16_Node000002_Node000016" class="edge">
<title>Node2&#45;&gt;Node16</title>
<g id="a_edge16_Node000002_Node000016"><a xlink:title=" ">
<path fill="none" stroke="#63b8ff" d="M224.6,-468.73C245.41,-480.46 281.08,-500.18 312.5,-515.62 318.41,-518.53 324.67,-521.48 330.88,-524.33"/>
<polygon fill="#63b8ff" stroke="#63b8ff" points="329.3,-527.45 339.85,-528.38 332.18,-521.07 329.3,-527.45"/>
</a>
</g>
</g>
<!-- Node2&#45;&gt;Node17 -->
<g id="edge18_Node000002_Node000017" class="edge">
<title>Node2&#45;&gt;Node17</title>
<g id="a_edge18_Node000002_Node000017"><a xlink:title=" ">
<path fill="none" stroke="#63b8ff" d="M258.5,-448.58C265.43,-445.19 271.77,-440.67 276.5,-434.62 331.65,-364.18 258.1,-104.65 312.5,-33.62 314.81,-30.61 317.53,-27.98 320.54,-25.67"/>
<polygon fill="#63b8ff" stroke="#63b8ff" points="322.28,-28.71 328.97,-20.5 318.62,-22.74 322.28,-28.71"/>
</a>
</g>
</g>
<!-- Node18 -->
<g id="Node000018" class="node">
<title>Node18</title>
<g id="a_Node000018"><a xlink:href="group__cu__gf__deep__group_ga05c3c7ba138f383b801c11f6022521fc.html#ga05c3c7ba138f383b801c11f6022521fc" target="_top" xlink:title="Finds temperature inversions using the first and second derivative of temperature.">
<polygon fill="white" stroke="#666666" points="443.62,-608.88 313.62,-608.88 313.62,-578.38 443.62,-578.38 443.62,-608.88"/>
<text xml:space="preserve" text-anchor="start" x="321.62" y="-595.38" font-family="Source Sans Pro" font-size="10.00">cu_gf_deep::get_inversion</text>
<text xml:space="preserve" text-anchor="middle" x="378.62" y="-584.12" font-family="Source Sans Pro" font-size="10.00">_layers</text>
</a>
</g>
</g>
<!-- Node2&#45;&gt;Node18 -->
<g id="edge20_Node000002_Node000018" class="edge">
<title>Node2&#45;&gt;Node18</title>
<g id="a_edge20_Node000002_Node000018"><a xlink:title=" ">
<path fill="none" stroke="#63b8ff" d="M213.96,-468.54C229.53,-489.68 268.83,-539.63 312.5,-568.62 314.71,-570.09 317.03,-571.5 319.4,-572.83"/>
<polygon fill="#63b8ff" stroke="#63b8ff" points="317.61,-575.85 328.11,-577.25 320.78,-569.6 317.61,-575.85"/>
</a>
</g>
</g>
<!-- Node19 -->
<g id="Node000019" class="node">
<title>Node19</title>
<g id="a_Node000019"><a xlink:href="group__cu__gf__deep__group_ga3e83c3a033d897332227dcf1820cce9c.html#ga3e83c3a033d897332227dcf1820cce9c" target="_top" xlink:title="Calculates mass entranment and detrainment rates.">
<polygon fill="white" stroke="#666666" points="437.25,-879.88 320,-879.88 320,-849.38 437.25,-849.38 437.25,-879.88"/>
<text xml:space="preserve" text-anchor="start" x="328" y="-866.38" font-family="Source Sans Pro" font-size="10.00">cu_gf_deep::get_lateral</text>
<text xml:space="preserve" text-anchor="middle" x="378.62" y="-855.12" font-family="Source Sans Pro" font-size="10.00">_massflux</text>
</a>
</g>
</g>
<!-- Node2&#45;&gt;Node19 -->
<g id="edge21_Node000002_Node000019" class="edge">
<title>Node2&#45;&gt;Node19</title>
<g id="a_edge21_Node000002_Node000019"><a xlink:title=" ">
<path fill="none" stroke="#63b8ff" d="M209.67,-468.67C219.1,-502.57 250.62,-615.9 276.5,-709.62 292.57,-767.83 271.65,-796.16 312.5,-840.62 312.87,-841.02 313.24,-841.42 313.62,-841.8"/>
<polygon fill="#63b8ff" stroke="#63b8ff" points="311.35,-844.47 321.33,-848.04 315.76,-839.03 311.35,-844.47"/>
</a>
</g>
</g>
<!-- Node20 -->
<g id="Node000020" class="node">
<title>Node20</title>
<g id="a_Node000020"><a xlink:href="group__cu__gf__deep__group_gad0ef609f904a0f485a7e516fcdf1ec91.html#gad0ef609f904a0f485a7e516fcdf1ec91" target="_top" xlink:title="Calculates the melting profile.">
<polygon fill="white" stroke="#666666" points="439.88,-240.88 317.38,-240.88 317.38,-210.38 439.88,-210.38 439.88,-240.88"/>
<text xml:space="preserve" text-anchor="start" x="325.38" y="-227.38" font-family="Source Sans Pro" font-size="10.00">cu_gf_deep::get_melting</text>
<text xml:space="preserve" text-anchor="middle" x="378.62" y="-216.12" font-family="Source Sans Pro" font-size="10.00">_profile</text>
</a>
</g>
</g>
<!-- Node2&#45;&gt;Node20 -->
<g id="edge22_Node000002_Node000020" class="edge">
<title>Node2&#45;&gt;Node20</title>
<g id="a_edge22_Node000002_Node000020"><a xlink:title=" ">
<path fill="none" stroke="#63b8ff" d="M256.91,-448.63C264.31,-445.24 271.21,-440.7 276.5,-434.62 331.2,-371.76 258.9,-314.43 312.5,-250.62 313.16,-249.83 313.86,-249.07 314.58,-248.33"/>
<polygon fill="#63b8ff" stroke="#63b8ff" points="316.47,-251.3 321.96,-242.23 312.02,-245.9 316.47,-251.3"/>
</a>
</g>
</g>
<!-- Node21 -->
<g id="Node000021" class="node">
<title>Node21</title>
<g id="a_Node000021"><a xlink:href="group__cu__gf__deep__group_ga437990517241b0b03f21daf6e08e68d1.html#ga437990517241b0b03f21daf6e08e68d1" target="_top" xlink:title="Calculates the partition between cloud water and cloud ice.">
<polygon fill="white" stroke="#666666" points="441.38,-191.88 315.88,-191.88 315.88,-161.38 441.38,-161.38 441.38,-191.88"/>
<text xml:space="preserve" text-anchor="start" x="323.88" y="-178.38" font-family="Source Sans Pro" font-size="10.00">cu_gf_deep::get_partition</text>
<text xml:space="preserve" text-anchor="middle" x="378.62" y="-167.12" font-family="Source Sans Pro" font-size="10.00">_liq_ice</text>
</a>
</g>
</g>
<!-- Node2&#45;&gt;Node21 -->
<g id="edge23_Node000002_Node000021" class="edge">
<title>Node2&#45;&gt;Node21</title>
<g id="a_edge23_Node000002_Node000021"><a xlink:title=" ">
<path fill="none" stroke="#63b8ff" d="M257.47,-448.65C264.71,-445.25 271.42,-440.71 276.5,-434.62 343.69,-354.22 246.71,-283.18 312.5,-201.62 313.04,-200.95 313.6,-200.3 314.18,-199.66"/>
<polygon fill="#63b8ff" stroke="#63b8ff" points="316.24,-202.52 321.52,-193.33 311.66,-197.22 316.24,-202.52"/>
</a>
</g>
</g>
<!-- Node22 -->
<g id="Node000022" class="node">
<title>Node22</title>
<g id="a_Node000022"><a xlink:href="group__cu__gf__deep__group_ga0ea82b4d199c9b93aa5200682dda3685.html#ga0ea82b4d199c9b93aa5200682dda3685" target="_top" xlink:title="Calculates a normalized mass&#45;flux profile for updrafts and downdrafts using the beta function.">
<polygon fill="white" stroke="#666666" points="596.5,-409.88 495,-409.88 495,-379.38 596.5,-379.38 596.5,-409.88"/>
<text xml:space="preserve" text-anchor="start" x="503" y="-396.38" font-family="Source Sans Pro" font-size="10.00">cu_gf_deep::get_zu</text>
<text xml:space="preserve" text-anchor="middle" x="545.75" y="-385.12" font-family="Source Sans Pro" font-size="10.00">_zd_pdf_fim</text>
</a>
</g>
</g>
<!-- Node2&#45;&gt;Node22 -->
<g id="edge24_Node000002_Node000022" class="edge">
<title>Node2&#45;&gt;Node22</title>
<g id="a_edge24_Node000002_Node000022"><a xlink:title=" ">
<path fill="none" stroke="#63b8ff" d="M258.46,-448.55C265.4,-445.16 271.75,-440.65 276.5,-434.62 327.41,-370.13 251.64,-121.83 312.5,-66.62 356.04,-27.14 397.51,-31.64 444.75,-66.62 494.38,-103.38 529.25,-296.04 540.69,-367.72"/>
<polygon fill="#63b8ff" stroke="#63b8ff" points="537.2,-368.06 542.2,-377.4 544.11,-366.98 537.2,-368.06"/>
</a>
</g>
</g>
<!-- Node24 -->
<g id="Node000024" class="node">
<title>Node24</title>
<g id="a_Node000024"><a xlink:href="group__cu__gf__deep__group_gae5806e6d015ae59ce8780ab7d0f3bf12.html#gae5806e6d015ae59ce8780ab7d0f3bf12" target="_top" xlink:title="Calculates rain evaporation below cloud base.">
<polygon fill="white" stroke="#666666" points="435.75,-473.88 321.5,-473.88 321.5,-443.38 435.75,-443.38 435.75,-473.88"/>
<text xml:space="preserve" text-anchor="start" x="329.5" y="-460.38" font-family="Source Sans Pro" font-size="10.00">cu_gf_deep::rain_evap</text>
<text xml:space="preserve" text-anchor="middle" x="378.62" y="-449.12" font-family="Source Sans Pro" font-size="10.00">_below_cloudbase</text>
</a>
</g>
</g>
<!-- Node2&#45;&gt;Node24 -->
<g id="edge27_Node000002_Node000024" class="edge">
<title>Node2&#45;&gt;Node24</title>
<g id="a_edge27_Node000002_Node000024"><a xlink:title=" ">
<path fill="none" stroke="#63b8ff" d="M276.82,-458.62C287.64,-458.62 298.8,-458.62 309.58,-458.62"/>
<polygon fill="#63b8ff" stroke="#63b8ff" points="309.58,-462.13 319.58,-458.63 309.58,-455.13 309.58,-462.13"/>
</a>
</g>
</g>
<!-- Node25 -->
<g id="Node000025" class="node">
<title>Node25</title>
<g id="a_Node000025"><a xlink:href="group__cu__gf__deep__group_ga7ab8f34f0c857d59f7c9b44e7126e83b.html#ga7ab8f34f0c857d59f7c9b44e7126e83b" target="_top" xlink:title="Driver for the normalized mass&#45;flux routine.">
<polygon fill="white" stroke="#666666" points="442.88,-757.25 314.38,-757.25 314.38,-738 442.88,-738 442.88,-757.25"/>
<text xml:space="preserve" text-anchor="middle" x="378.62" y="-743.75" font-family="Source Sans Pro" font-size="10.00">cu_gf_deep::rates_up_pdf</text>
</a>
</g>
</g>
<!-- Node2&#45;&gt;Node25 -->
<g id="edge28_Node000002_Node000025" class="edge">
<title>Node2&#45;&gt;Node25</title>
<g id="a_edge28_Node000002_Node000025"><a xlink:title=" ">
<path fill="none" stroke="#63b8ff" d="M207.64,-468.51C211.22,-507.88 229.86,-655.01 312.5,-729.62 313.15,-730.21 313.82,-730.79 314.51,-731.34"/>
<polygon fill="#63b8ff" stroke="#63b8ff" points="312.62,-734.28 322.93,-736.71 316.38,-728.38 312.62,-734.28"/>
</a>
</g>
</g>
<!-- Node6 -->
<g id="Node000006" class="node">
<title>Node6</title>
<g id="a_Node000006"><a xlink:href="group__cu__gf__deep__group_ga67f0d8a404e9280703043abc833c487c.html#ga67f0d8a404e9280703043abc833c487c" target="_top" xlink:title="Calculates saturation vapor pressure.">
<polygon fill="white" stroke="#666666" points="596.5,-831.25 495,-831.25 495,-812 596.5,-812 596.5,-831.25"/>
<text xml:space="preserve" text-anchor="middle" x="545.75" y="-817.75" font-family="Source Sans Pro" font-size="10.00">cu_gf_deep::satvap</text>
</a>
</g>
</g>
<!-- Node5&#45;&gt;Node6 -->
<g id="edge5_Node000005_Node000006" class="edge">
<title>Node5&#45;&gt;Node6</title>
<g id="a_edge5_Node000005_Node000006"><a xlink:title=" ">
<path fill="none" stroke="#63b8ff" d="M433.24,-821.62C449.3,-821.62 467.05,-821.62 483.56,-821.62"/>
<polygon fill="#63b8ff" stroke="#63b8ff" points="483.25,-825.13 493.25,-821.63 483.25,-818.13 483.25,-825.13"/>
</a>
</g>
</g>
<!-- Node6&#45;&gt;Node6 -->
<g id="edge6_Node000006_Node000006" class="edge">
<title>Node6&#45;&gt;Node6</title>
<g id="a_edge6_Node000006_Node000006"><a xlink:title=" ">
<path fill="none" stroke="#63b8ff" d="M519.59,-831.54C507.65,-840.15 516.37,-849.25 545.75,-849.25 562.27,-849.25 572.26,-846.37 575.72,-842.32"/>
<polygon fill="#63b8ff" stroke="#63b8ff" points="579.05,-841.23 572.42,-832.97 572.44,-843.56 579.05,-841.23"/>
</a>
</g>
</g>
<!-- Node9&#45;&gt;Node10 -->
<g id="edge10_Node000009_Node000010" class="edge">
<title>Node9&#45;&gt;Node10</title>
<g id="a_edge10_Node000009_Node000010"><a xlink:title=" ">
<path fill="none" stroke="#63b8ff" d="M427.43,-774.57C433.46,-772.4 439.39,-769.78 444.75,-766.62 481.23,-745.13 513.53,-706.94 531,-683.88"/>
<polygon fill="#63b8ff" stroke="#63b8ff" points="533.72,-686.08 536.85,-675.96 528.09,-681.93 533.72,-686.08"/>
</a>
</g>
</g>
<!-- Node16&#45;&gt;Node10 -->
<g id="edge17_Node000016_Node000010" class="edge">
<title>Node16&#45;&gt;Node10</title>
<g id="a_edge17_Node000016_Node000010"><a xlink:title=" ">
<path fill="none" stroke="#63b8ff" d="M426.95,-560.24C433.13,-563 439.22,-566.13 444.75,-569.62 478.64,-591.02 510.96,-625.05 529.28,-646.04"/>
<polygon fill="#63b8ff" stroke="#63b8ff" points="526.52,-648.2 535.68,-653.53 531.84,-643.65 526.52,-648.2"/>
</a>
</g>
</g>
<!-- Node23 -->
<g id="Node000023" class="node">
<title>Node23</title>
<g id="a_Node000023"><a xlink:href="group__cu__gf__deep__group_ga8c1bcf8ed725e281ff0c09744d46b27c.html#ga8c1bcf8ed725e281ff0c09744d46b27c" target="_top" xlink:title=" ">
<polygon fill="white" stroke="#666666" points="779.75,-404.25 646.75,-404.25 646.75,-385 779.75,-385 779.75,-404.25"/>
<text xml:space="preserve" text-anchor="middle" x="713.25" y="-390.75" font-family="Source Sans Pro" font-size="10.00">cu_gf_deep::my_maxloc1d</text>
</a>
</g>
</g>
<!-- Node22&#45;&gt;Node23 -->
<g id="edge25_Node000022_Node000023" class="edge">
<title>Node22&#45;&gt;Node23</title>
<g id="a_edge25_Node000022_Node000023"><a xlink:title=" ">
<path fill="none" stroke="#63b8ff" d="M596.85,-394.62C608.92,-394.62 622.09,-394.62 635.08,-394.62"/>
<polygon fill="#63b8ff" stroke="#63b8ff" points="634.9,-398.13 644.9,-394.63 634.9,-391.13 634.9,-398.13"/>
</a>
</g>
</g>
<!-- Node23&#45;&gt;Node23 -->
<g id="edge26_Node000023_Node000023" class="edge">
<title>Node23&#45;&gt;Node23</title>
<g id="a_edge26_Node000023_Node000023"><a xlink:title=" ">
<path fill="none" stroke="#63b8ff" d="M687.03,-404.54C675.07,-413.15 683.81,-422.25 713.25,-422.25 729.81,-422.25 739.82,-419.37 743.28,-415.32"/>
<polygon fill="#63b8ff" stroke="#63b8ff" points="746.61,-414.23 739.98,-405.97 740.01,-416.56 746.61,-414.23"/>
</a>
</g>
</g>
<!-- Node25&#45;&gt;Node22 -->
<g id="edge29_Node000025_Node000022" class="edge">
<title>Node25&#45;&gt;Node22</title>
<g id="a_edge29_Node000025_Node000022"><a xlink:title=" ">
<path fill="none" stroke="#63b8ff" d="M433.63,-737.65C437.7,-735.47 441.48,-732.83 444.75,-729.62 467.54,-707.3 520.35,-495.68 538.49,-420.76"/>
<polygon fill="#63b8ff" stroke="#63b8ff" points="541.8,-421.97 540.74,-411.43 535,-420.33 541.8,-421.97"/>
</a>
</g>
</g>
<!-- Node26&#45;&gt;Node5 -->
<g id="edge31_Node000026_Node000005" class="edge">
<title>Node26&#45;&gt;Node5</title>
<g id="a_edge31_Node000026_Node000005"><a xlink:title=" ">
<path fill="none" stroke="#63b8ff" d="M218.07,-738.61C236.49,-754.55 274.92,-785.77 312.5,-803.62 315.63,-805.11 318.91,-806.5 322.25,-807.78"/>
<polygon fill="#63b8ff" stroke="#63b8ff" points="321.06,-811.07 331.65,-811.05 323.36,-804.46 321.06,-811.07"/>
</a>
</g>
</g>
<!-- Node26&#45;&gt;Node7 -->
<g id="edge32_Node000026_Node000007" class="edge">
<title>Node26&#45;&gt;Node7</title>
<g id="a_edge32_Node000026_Node000007"><a xlink:title=" ">
<path fill="none" stroke="#63b8ff" d="M266.12,-722.38C277.36,-721.19 289.27,-719.94 300.96,-718.71"/>
<polygon fill="#63b8ff" stroke="#63b8ff" points="300.99,-722.22 310.56,-717.69 300.25,-715.26 300.99,-722.22"/>
</a>
</g>
</g>
<!-- Node26&#45;&gt;Node9 -->
<g id="edge33_Node000026_Node000009" class="edge">
<title>Node26&#45;&gt;Node9</title>
<g id="a_edge33_Node000026_Node000009"><a xlink:title=" ">
<path fill="none" stroke="#63b8ff" d="M233.17,-738.71C254.42,-746.71 285.2,-757.95 312.5,-766.62 317.61,-768.25 322.97,-769.87 328.34,-771.43"/>
<polygon fill="#63b8ff" stroke="#63b8ff" points="327.23,-774.75 337.8,-774.13 329.14,-768.02 327.23,-774.75"/>
</a>
</g>
</g>
<!-- Node26&#45;&gt;Node10 -->
<g id="edge36_Node000026_Node000010" class="edge">
<title>Node26&#45;&gt;Node10</title>
<g id="a_edge36_Node000026_Node000010"><a xlink:title=" ">
<path fill="none" stroke="#63b8ff" d="M209.79,-738.63C219,-768.23 250.65,-855.35 312.5,-888.62 364.26,-916.48 395.82,-921.19 444.75,-888.62 479.25,-865.67 464.03,-840.54 480.75,-802.62 499.32,-760.53 522.25,-711.81 535.01,-684.99"/>
<polygon fill="#63b8ff" stroke="#63b8ff" points="538.17,-686.51 539.31,-675.97 531.85,-683.49 538.17,-686.51"/>
</a>
</g>
</g>
<!-- Node26&#45;&gt;Node12 -->
<g id="edge34_Node000026_Node000012" class="edge">
<title>Node26&#45;&gt;Node12</title>
<g id="a_edge34_Node000026_Node000012"><a xlink:title=" ">
<path fill="none" stroke="#63b8ff" d="M234.06,-718.53C255.3,-710.79 285.61,-700.04 312.5,-691.62 317.68,-690 323.12,-688.38 328.56,-686.81"/>
<polygon fill="#63b8ff" stroke="#63b8ff" points="329.5,-690.18 338.16,-684.08 327.59,-683.44 329.5,-690.18"/>
</a>
</g>
</g>
<!-- Node26&#45;&gt;Node14 -->
<g id="edge35_Node000026_Node000014" class="edge">
<title>Node26&#45;&gt;Node14</title>
<g id="a_edge35_Node000026_Node000014"><a xlink:title=" ">
<path fill="none" stroke="#63b8ff" d="M218.4,-718.52C236.97,-702.73 275.23,-672.19 312.5,-654.62 315.64,-653.15 318.91,-651.77 322.26,-650.49"/>
<polygon fill="#63b8ff" stroke="#63b8ff" points="323.37,-653.81 331.67,-647.23 321.07,-647.2 323.37,-653.81"/>
</a>
</g>
</g>
<!-- Node26&#45;&gt;Node18 -->
<g id="edge37_Node000026_Node000018" class="edge">
<title>Node26&#45;&gt;Node18</title>
<g id="a_edge37_Node000026_Node000018"><a xlink:title=" ">
<path fill="none" stroke="#63b8ff" d="M213.91,-718.57C229.37,-697.14 268.49,-646.56 312.5,-617.62 314.13,-616.56 315.81,-615.53 317.53,-614.53"/>
<polygon fill="#63b8ff" stroke="#63b8ff" points="319.11,-617.66 326.4,-609.97 315.9,-611.43 319.11,-617.66"/>
</a>
</g>
</g>
<!-- Node26&#45;&gt;Node19 -->
<g id="edge38_Node000026_Node000019" class="edge">
<title>Node26&#45;&gt;Node19</title>
<g id="a_edge38_Node000026_Node000019"><a xlink:title=" ">
<path fill="none" stroke="#63b8ff" d="M213.65,-738.45C228.91,-759.89 268.12,-811.3 312.5,-840.62 314.12,-841.7 315.8,-842.73 317.52,-843.73"/>
<polygon fill="#63b8ff" stroke="#63b8ff" points="315.89,-846.82 326.38,-848.3 319.1,-840.6 315.89,-846.82"/>
</a>
</g>
</g>
<!-- Node26&#45;&gt;Node25 -->
<g id="edge39_Node000026_Node000025" class="edge">
<title>Node26&#45;&gt;Node25</title>
<g id="a_edge39_Node000026_Node000025"><a xlink:title=" ">
<path fill="none" stroke="#63b8ff" d="M266.12,-735.22C277.99,-736.54 290.61,-737.94 302.93,-739.31"/>
<polygon fill="#63b8ff" stroke="#63b8ff" points="302.29,-742.76 312.62,-740.39 303.07,-735.81 302.29,-742.76"/>
</a>
</g>
</g>
</g>
</svg>
