<?xml version="1.0" encoding="UTF-8" standalone="no"?>
<!DOCTYPE svg PUBLIC "-//W3C//DTD SVG 1.1//EN"
 "http://www.w3.org/Graphics/SVG/1.1/DTD/svg11.dtd">
<!-- Generated by graphviz version 14.1.2 (20260124.0452)
 -->
<!-- Title: noahmpdrv_init Pages: 1 -->
<svg width="498pt" height="165pt"
 viewBox="0.00 0.00 498.00 165.00" xmlns="http://www.w3.org/2000/svg" xmlns:xlink="http://www.w3.org/1999/xlink">

<svg id="main" version="1.1" xmlns="http://www.w3.org/2000/svg" xmlns:xlink="http://www.w3.org/1999/xlink" xml:space="preserve">

<style type="text/css"><![CDATA[
.node, .edge {opacity: 0.7;}
.node.selected, .edge.selected {opacity: 1;}
.edge:hover path { stroke: red; }
.edge:hover polygon { stroke: red; fill: red; }
]]></style>
<script type="application/ecmascript" xlink:href="svg.min.js"/>
<svg id="graph" class="graph">
<g id="graph0" class="graph" transform="scale(1 1) rotate(0) translate(4 160.88)">
<title>noahmpdrv_init</title>
<!-- Node1 -->
<g id="Node000001" class="node">
<title>Node1</title>
<g id="a_Node000001"><a xlink:title="This subroutine is called during the CCPP initialization phase and calls set_soilveg() to initialize ...">
<polygon fill="#999999" stroke="#666666" points="82,-45.88 0,-45.88 0,-26.62 82,-26.62 82,-45.88"/>
<text xml:space="preserve" text-anchor="middle" x="41" y="-32.38" font-family="Source Sans Pro" font-size="10.00">noahmpdrv_init</text>
</a>
</g>
</g>
<!-- Node2 -->
<g id="Node000002" class="node">
<title>Node2</title>
<g id="a_Node000002"><a xlink:href="group___noah_m_p___l_s_m_ga33794c1f89d40a55548dfc108f2b3324.html#ga33794c1f89d40a55548dfc108f2b3324" target="_top" xlink:title=" ">
<polygon fill="white" stroke="#666666" points="195.88,-67.88 149.12,-67.88 149.12,-48.62 195.88,-48.62 195.88,-67.88"/>
<text xml:space="preserve" text-anchor="middle" x="172.5" y="-54.38" font-family="Source Sans Pro" font-size="10.00">psi_init</text>
</a>
</g>
</g>
<!-- Node1&#45;&gt;Node2 -->
<g id="edge1_Node000001_Node000002" class="edge">
<title>Node1&#45;&gt;Node2</title>
<g id="a_edge1_Node000001_Node000002"><a xlink:title=" ">
<path fill="none" stroke="#63b8ff" d="M82.26,-43.09C100.12,-46.12 120.89,-49.65 137.9,-52.54"/>
<polygon fill="#63b8ff" stroke="#63b8ff" points="137.05,-55.95 147.5,-54.17 138.22,-49.05 137.05,-55.95"/>
</a>
</g>
</g>
<!-- Node7 -->
<g id="Node000007" class="node">
<title>Node7</title>
<g id="a_Node000007"><a xlink:href="group___noah___l_s_m_ga961eacb6f4b1b1b724401001b85c874d.html#ga961eacb6f4b1b1b724401001b85c874d" target="_top" xlink:title="This subroutine initializes soil and vegetation.">
<polygon fill="white" stroke="#666666" points="227,-30.5 118,-30.5 118,0 227,0 227,-30.5"/>
<text xml:space="preserve" text-anchor="start" x="126" y="-17" font-family="Source Sans Pro" font-size="10.00">set_soilveg_mod::set</text>
<text xml:space="preserve" text-anchor="middle" x="172.5" y="-5.75" font-family="Source Sans Pro" font-size="10.00">_soilveg</text>
</a>
</g>
</g>
<!-- Node1&#45;&gt;Node7 -->
<g id="edge13_Node000001_Node000007" class="edge">
<title>Node1&#45;&gt;Node7</title>
<g id="a_edge13_Node000001_Node000007"><a xlink:title=" ">
<path fill="none" stroke="#63b8ff" d="M82.26,-29.72C90.02,-28.46 98.33,-27.11 106.64,-25.77"/>
<polygon fill="#63b8ff" stroke="#63b8ff" points="107.12,-29.24 116.43,-24.18 106,-22.33 107.12,-29.24"/>
</a>
</g>
</g>
<!-- Node3 -->
<g id="Node000003" class="node">
<title>Node3</title>
<g id="a_Node000003"><a xlink:href="group__mynn__sfc_ga381ef2e5dcc86392a5e0912234fa8eee.html#ga381ef2e5dcc86392a5e0912234fa8eee" target="_top" xlink:title=" ">
<polygon fill="white" stroke="#666666" points="483.25,-138.88 399.75,-138.88 399.75,-119.62 483.25,-119.62 483.25,-138.88"/>
<text xml:space="preserve" text-anchor="middle" x="441.5" y="-125.38" font-family="Source Sans Pro" font-size="10.00">psih_stable_full</text>
</a>
</g>
</g>
<!-- Node2&#45;&gt;Node3 -->
<g id="edge2_Node000002_Node000003" class="edge">
<title>Node2&#45;&gt;Node3</title>
<g id="a_edge2_Node000002_Node000003"><a xlink:title=" ">
<path fill="none" stroke="#63b8ff" d="M185.29,-68.25C201.57,-81.41 232.4,-104.05 263,-114.25 303.64,-127.79 352.26,-131.07 388.33,-131.23"/>
<polygon fill="#63b8ff" stroke="#63b8ff" points="388.08,-134.73 398.07,-131.19 388.05,-127.73 388.08,-134.73"/>
</a>
</g>
</g>
<!-- Node4 -->
<g id="Node000004" class="node">
<title>Node4</title>
<g id="a_Node000004"><a xlink:href="group__mynn__sfc_gaeb753808f2ff0e0954f848137dc4b51d.html#gaeb753808f2ff0e0954f848137dc4b51d" target="_top" xlink:title=" ">
<polygon fill="white" stroke="#666666" points="357,-86.88 263,-86.88 263,-67.62 357,-67.62 357,-86.88"/>
<text xml:space="preserve" text-anchor="middle" x="310" y="-73.38" font-family="Source Sans Pro" font-size="10.00">psih_unstable_full</text>
</a>
</g>
</g>
<!-- Node2&#45;&gt;Node4 -->
<g id="edge4_Node000002_Node000004" class="edge">
<title>Node2&#45;&gt;Node4</title>
<g id="a_edge4_Node000002_Node000004"><a xlink:title=" ">
<path fill="none" stroke="#63b8ff" d="M196.18,-61.43C211.29,-63.55 231.89,-66.44 251.34,-69.17"/>
<polygon fill="#63b8ff" stroke="#63b8ff" points="250.73,-72.61 261.12,-70.54 251.7,-65.68 250.73,-72.61"/>
</a>
</g>
</g>
<!-- Node5 -->
<g id="Node000005" class="node">
<title>Node5</title>
<g id="a_Node000005"><a xlink:href="group__mynn__sfc_ga81004abe9ba55cfcae3d491e5711e235.html#ga81004abe9ba55cfcae3d491e5711e235" target="_top" xlink:title=" ">
<polygon fill="white" stroke="#666666" points="484.75,-80.88 398.25,-80.88 398.25,-61.62 484.75,-61.62 484.75,-80.88"/>
<text xml:space="preserve" text-anchor="middle" x="441.5" y="-67.38" font-family="Source Sans Pro" font-size="10.00">psim_stable_full</text>
</a>
</g>
</g>
<!-- Node2&#45;&gt;Node5 -->
<g id="edge11_Node000002_Node000005" class="edge">
<title>Node2&#45;&gt;Node5</title>
<g id="a_edge11_Node000002_Node000005"><a xlink:title=" ">
<path fill="none" stroke="#63b8ff" d="M196.14,-57.13C230.83,-55.66 299.19,-53.78 357,-58.25 366.67,-59 376.92,-60.23 386.8,-61.64"/>
<polygon fill="#63b8ff" stroke="#63b8ff" points="386.26,-65.1 396.67,-63.14 387.31,-58.18 386.26,-65.1"/>
</a>
</g>
</g>
<!-- Node6 -->
<g id="Node000006" class="node">
<title>Node6</title>
<g id="a_Node000006"><a xlink:href="group__mynn__sfc_ga549207c176216c3344d8565fc6d484e1.html#ga549207c176216c3344d8565fc6d484e1" target="_top" xlink:title=" ">
<polygon fill="white" stroke="#666666" points="490,-20.88 393,-20.88 393,-1.63 490,-1.63 490,-20.88"/>
<text xml:space="preserve" text-anchor="middle" x="441.5" y="-7.38" font-family="Source Sans Pro" font-size="10.00">psim_unstable_full</text>
</a>
</g>
</g>
<!-- Node2&#45;&gt;Node6 -->
<g id="edge12_Node000002_Node000006" class="edge">
<title>Node2&#45;&gt;Node6</title>
<g id="a_edge12_Node000002_Node000006"><a xlink:title=" ">
<path fill="none" stroke="#63b8ff" d="M196.26,-54.24C236.88,-47.09 323.02,-31.93 381.35,-21.66"/>
<polygon fill="#63b8ff" stroke="#63b8ff" points="381.9,-25.12 391.14,-19.94 380.68,-18.23 381.9,-25.12"/>
</a>
</g>
</g>
<!-- Node3&#45;&gt;Node3 -->
<g id="edge3_Node000003_Node000003" class="edge">
<title>Node3&#45;&gt;Node3</title>
<g id="a_edge3_Node000003_Node000003"><a xlink:title=" ">
<path fill="none" stroke="#63b8ff" d="M420.91,-139.16C411.52,-147.77 418.38,-156.88 441.5,-156.88 454.14,-156.88 461.92,-154.15 464.84,-150.28"/>
<polygon fill="#63b8ff" stroke="#63b8ff" points="468.25,-149.5 462.45,-140.63 461.46,-151.18 468.25,-149.5"/>
</a>
</g>
</g>
<!-- Node4&#45;&gt;Node3 -->
<g id="edge5_Node000004_Node000003" class="edge">
<title>Node4&#45;&gt;Node3</title>
<g id="a_edge5_Node000004_Node000003"><a xlink:title=" ">
<path fill="none" stroke="#63b8ff" d="M335.97,-87.28C355.59,-95.15 383.16,-106.22 405.06,-115.02"/>
<polygon fill="#63b8ff" stroke="#63b8ff" points="403.62,-118.21 414.2,-118.69 406.23,-111.72 403.62,-118.21"/>
</a>
</g>
</g>
<!-- Node4&#45;&gt;Node4 -->
<g id="edge6_Node000004_Node000004" class="edge">
<title>Node4&#45;&gt;Node4</title>
<g id="a_edge6_Node000004_Node000004"><a xlink:title=" ">
<path fill="none" stroke="#63b8ff" d="M289.41,-87.16C280.02,-95.77 286.88,-104.88 310,-104.88 322.64,-104.88 330.42,-102.15 333.34,-98.28"/>
<polygon fill="#63b8ff" stroke="#63b8ff" points="336.75,-97.5 330.95,-88.63 329.96,-99.18 336.75,-97.5"/>
</a>
</g>
</g>
<!-- Node4&#45;&gt;Node5 -->
<g id="edge7_Node000004_Node000005" class="edge">
<title>Node4&#45;&gt;Node5</title>
<g id="a_edge7_Node000004_Node000005"><a xlink:title=" ">
<path fill="none" stroke="#63b8ff" d="M357.39,-75.1C366.88,-74.66 376.95,-74.19 386.68,-73.74"/>
<polygon fill="#63b8ff" stroke="#63b8ff" points="386.55,-77.25 396.38,-73.29 386.22,-70.26 386.55,-77.25"/>
</a>
</g>
</g>
<!-- Node4&#45;&gt;Node6 -->
<g id="edge9_Node000004_Node000006" class="edge">
<title>Node4&#45;&gt;Node6</title>
<g id="a_edge9_Node000004_Node000006"><a xlink:title=" ">
<path fill="none" stroke="#63b8ff" d="M330.67,-67.23C351.87,-56.42 385.88,-39.09 410.44,-26.57"/>
<polygon fill="#63b8ff" stroke="#63b8ff" points="411.98,-29.71 419.3,-22.06 408.8,-23.48 411.98,-29.71"/>
</a>
</g>
</g>
<!-- Node5&#45;&gt;Node5 -->
<g id="edge8_Node000005_Node000005" class="edge">
<title>Node5&#45;&gt;Node5</title>
<g id="a_edge8_Node000005_Node000005"><a xlink:title=" ">
<path fill="none" stroke="#63b8ff" d="M420.91,-81.16C411.52,-89.77 418.38,-98.88 441.5,-98.88 454.14,-98.88 461.92,-96.15 464.84,-92.28"/>
<polygon fill="#63b8ff" stroke="#63b8ff" points="468.25,-91.5 462.45,-82.63 461.46,-93.18 468.25,-91.5"/>
</a>
</g>
</g>
<!-- Node6&#45;&gt;Node6 -->
<g id="edge10_Node000006_Node000006" class="edge">
<title>Node6&#45;&gt;Node6</title>
<g id="a_edge10_Node000006_Node000006"><a xlink:title=" ">
<path fill="none" stroke="#63b8ff" d="M420.91,-21.16C411.52,-29.77 418.38,-38.88 441.5,-38.88 454.14,-38.88 461.92,-36.15 464.84,-32.28"/>
<polygon fill="#63b8ff" stroke="#63b8ff" points="468.25,-31.5 462.45,-22.63 461.46,-33.18 468.25,-31.5"/>
</a>
</g>
</g>
</g>
</svg>
</svg>

<style type='text/css'>
<![CDATA[
[data-mouse-over-selected='false'] { opacity: 0.7; }
[data-mouse-over-selected='true']  { opacity: 1.0; }
]]>
</style>
<script type="application/ecmascript"><![CDATA[
document.addEventListener('DOMContentLoaded', (event) => {
  highlightEdges();
  highlightAdjacentNodes();
});
]]></script>
</svg>
