<?xml version="1.0" encoding="UTF-8" standalone="no"?>
<!DOCTYPE svg PUBLIC "-//W3C//DTD SVG 1.1//EN"
 "http://www.w3.org/Graphics/SVG/1.1/DTD/svg11.dtd">
<!-- Generated by graphviz version 14.1.2 (20260124.0452)
 -->
<!-- Title: module_radiation_cloud_overlap::cmp_dcorr_lgth Pages: 1 -->
<svg width="151pt" height="84pt"
 viewBox="0.00 0.00 151.00 84.00" xmlns="http://www.w3.org/2000/svg" xmlns:xlink="http://www.w3.org/1999/xlink">
<g id="graph0" class="graph" transform="scale(1 1) rotate(0) translate(4 80.25)">
<title>module_radiation_cloud_overlap::cmp_dcorr_lgth</title>
<!-- Node1 -->
<g id="Node000001" class="node">
<title>Node1</title>
<g id="a_Node000001"><a xlink:title=" ">
<polygon fill="#999999" stroke="none" points="143.25,-76.25 0,-76.25 0,0 143.25,0 143.25,-76.25"/>
<text xml:space="preserve" text-anchor="start" x="16.88" y="-62.75" font-family="Source Sans Pro" font-size="10.00">module_radiation_cloud</text>
<text xml:space="preserve" text-anchor="start" x="16.88" y="-51.5" font-family="Source Sans Pro" font-size="10.00">_overlap::cmp_dcorr_lgth</text>
<text xml:space="preserve" text-anchor="start" x="70.12" y="-36.25" font-family="Source Sans Pro" font-size="10.00"> </text>
<text xml:space="preserve" text-anchor="start" x="4" y="-21" font-family="Source Sans Pro" font-size="10.00">+</text>
<text xml:space="preserve" text-anchor="start" x="14" y="-21" font-family="Source Sans Pro" font-size="10.00">cmp_dcorr_lgth_hogan()</text>
<text xml:space="preserve" text-anchor="start" x="4" y="-5.75" font-family="Source Sans Pro" font-size="10.00">+</text>
<text xml:space="preserve" text-anchor="start" x="14" y="-5.75" font-family="Source Sans Pro" font-size="10.00">cmp_dcorr_lgth_oreopoulos()</text>
<polygon fill="#666666" stroke="#666666" points="0,-47.75 0,-47.75 143.25,-47.75 143.25,-47.75 0,-47.75"/>
<polygon fill="#666666" stroke="#666666" points="0,-32.5 0,-32.5 143.25,-32.5 143.25,-32.5 0,-32.5"/>
<polygon fill="none" stroke="#666666" points="0,0 0,-76.25 143.25,-76.25 143.25,0 0,0"/>
</a>
</g>
</g>
</g>
</svg>
