<?xml version="1.0" encoding="UTF-8" standalone="no"?>
<!DOCTYPE svg PUBLIC "-//W3C//DTD SVG 1.1//EN"
 "http://www.w3.org/Graphics/SVG/1.1/DTD/svg11.dtd">
<!-- Generated by graphviz version 14.1.2 (20260124.0452)
 -->
<!-- Title: module_bl_mynn::ddmf_jpl Pages: 1 -->
<svg width="507pt" height="57pt"
 viewBox="0.00 0.00 507.00 57.00" xmlns="http://www.w3.org/2000/svg" xmlns:xlink="http://www.w3.org/1999/xlink">
<g id="graph0" class="graph" transform="scale(1 1) rotate(0) translate(4 52.5)">
<title>module_bl_mynn::ddmf_jpl</title>
<!-- Node1 -->
<g id="Node000001" class="node">
<title>Node1</title>
<g id="a_Node000001"><a xlink:title=" ">
<polygon fill="#999999" stroke="#666666" points="132.25,-24.88 0,-24.88 0,-5.63 132.25,-5.63 132.25,-24.88"/>
<text xml:space="preserve" text-anchor="middle" x="66.12" y="-11.38" font-family="Source Sans Pro" font-size="10.00">module_bl_mynn::ddmf_jpl</text>
</a>
</g>
</g>
<!-- Node2 -->
<g id="Node000002" class="node">
<title>Node2</title>
<g id="a_Node000002"><a xlink:href="group__gp__mynnedmf_ga8a29adb739751b21ffacddb8f24ac8ab.html#ga8a29adb739751b21ffacddb8f24ac8ab" target="_top" xlink:title="This subroutine.">
<polygon fill="white" stroke="#666666" points="348.5,-24.88 168.25,-24.88 168.25,-5.63 348.5,-5.63 348.5,-24.88"/>
<text xml:space="preserve" text-anchor="middle" x="258.38" y="-11.38" font-family="Source Sans Pro" font-size="10.00">module_bl_mynn::condensation_edmf</text>
</a>
</g>
</g>
<!-- Node1&#45;&gt;Node2 -->
<g id="edge1_Node000001_Node000002" class="edge">
<title>Node1&#45;&gt;Node2</title>
<g id="a_edge1_Node000001_Node000002"><a xlink:title=" ">
<path fill="none" stroke="#63b8ff" d="M132.6,-15.25C140.34,-15.25 148.38,-15.25 156.47,-15.25"/>
<polygon fill="#63b8ff" stroke="#63b8ff" points="156.41,-18.75 166.41,-15.25 156.41,-11.75 156.41,-18.75"/>
</a>
</g>
</g>
<!-- Node3 -->
<g id="Node000003" class="node">
<title>Node3</title>
<g id="a_Node000003"><a xlink:href="group__gp__mynnedmf_ga41a4c80227342f73cd16d2ae814498d0.html#ga41a4c80227342f73cd16d2ae814498d0" target="_top" xlink:title="This function extends function &quot;esat&quot; and returns a &quot;blended&quot; saturation mixing ratio....">
<polygon fill="white" stroke="#666666" points="498.75,-30.5 384.5,-30.5 384.5,0 498.75,0 498.75,-30.5"/>
<text xml:space="preserve" text-anchor="start" x="392.5" y="-17" font-family="Source Sans Pro" font-size="10.00">module_bl_mynn::qsat</text>
<text xml:space="preserve" text-anchor="middle" x="441.62" y="-5.75" font-family="Source Sans Pro" font-size="10.00">_blend</text>
</a>
</g>
</g>
<!-- Node2&#45;&gt;Node3 -->
<g id="edge2_Node000002_Node000003" class="edge">
<title>Node2&#45;&gt;Node3</title>
<g id="a_edge2_Node000002_Node000003"><a xlink:title=" ">
<path fill="none" stroke="#63b8ff" d="M348.94,-15.25C356.87,-15.25 364.82,-15.25 372.54,-15.25"/>
<polygon fill="#63b8ff" stroke="#63b8ff" points="372.52,-18.75 382.52,-15.25 372.52,-11.75 372.52,-18.75"/>
</a>
</g>
</g>
<!-- Node3&#45;&gt;Node3 -->
<g id="edge3_Node000003_Node000003" class="edge">
<title>Node3&#45;&gt;Node3</title>
<g id="a_edge3_Node000003_Node000003"><a xlink:title=" ">
<path fill="none" stroke="#63b8ff" d="M409.15,-30.99C402.53,-40.06 413.35,-48.5 441.62,-48.5 457.09,-48.5 467.33,-45.97 472.36,-42.2"/>
<polygon fill="#63b8ff" stroke="#63b8ff" points="475.79,-42.9 473.86,-32.48 468.87,-41.83 475.79,-42.9"/>
</a>
</g>
</g>
</g>
</svg>
