<?xml version="1.0" encoding="UTF-8" standalone="no"?>
<!DOCTYPE svg PUBLIC "-//W3C//DTD SVG 1.1//EN"
 "http://www.w3.org/Graphics/SVG/1.1/DTD/svg11.dtd">
<!-- Generated by graphviz version 14.1.2 (20260124.0452)
 -->
<!-- Title: gfdl_cloud_microphys_v3_mod::gfdl_cloud_microphys_v3_mod_driver Pages: 1 -->
<svg width="631pt" height="343pt"
 viewBox="0.00 0.00 631.00 343.00" xmlns="http://www.w3.org/2000/svg" xmlns:xlink="http://www.w3.org/1999/xlink">
<g id="graph0" class="graph" transform="scale(1 1) rotate(0) translate(4 339.25)">
<title>gfdl_cloud_microphys_v3_mod::gfdl_cloud_microphys_v3_mod_driver</title>
<!-- Node1 -->
<g id="Node000001" class="node">
<title>Node1</title>
<g id="a_Node000001"><a xlink:title=" ">
<polygon fill="#999999" stroke="#666666" points="156.25,-272.5 0,-272.5 0,-230.75 156.25,-230.75 156.25,-272.5"/>
<text xml:space="preserve" text-anchor="start" x="8" y="-259" font-family="Source Sans Pro" font-size="10.00">gfdl_cloud_microphys</text>
<text xml:space="preserve" text-anchor="start" x="8" y="-247.75" font-family="Source Sans Pro" font-size="10.00">_v3_mod::gfdl_cloud_microphys</text>
<text xml:space="preserve" text-anchor="middle" x="78.12" y="-236.5" font-family="Source Sans Pro" font-size="10.00">_v3_mod_driver</text>
</a>
</g>
</g>
<!-- Node2 -->
<g id="Node000002" class="node">
<title>Node2</title>
<g id="a_Node000002"><a xlink:href="group___noah_m_p___l_s_m_ga2e84840f3ed90005f066340b388c03d6.html#ga2e84840f3ed90005f066340b388c03d6" target="_top" xlink:title="compute water budgets (water storages, et components, and runoff)">
<polygon fill="white" stroke="#666666" points="232.25,-261.25 192.25,-261.25 192.25,-242 232.25,-242 232.25,-261.25"/>
<text xml:space="preserve" text-anchor="middle" x="212.25" y="-247.75" font-family="Source Sans Pro" font-size="10.00">water</text>
</a>
</g>
</g>
<!-- Node1&#45;&gt;Node2 -->
<g id="edge1_Node000001_Node000002" class="edge">
<title>Node1&#45;&gt;Node2</title>
<g id="a_edge1_Node000001_Node000002"><a xlink:title=" ">
<path fill="none" stroke="#63b8ff" d="M156.75,-251.62C165.1,-251.62 173.19,-251.62 180.47,-251.62"/>
<polygon fill="#63b8ff" stroke="#63b8ff" points="180.36,-255.13 190.36,-251.63 180.36,-248.13 180.36,-255.13"/>
</a>
</g>
</g>
<!-- Node3 -->
<g id="Node000003" class="node">
<title>Node3</title>
<g id="a_Node000003"><a xlink:href="group___noah_m_p___l_s_m_ga0f7c6c8dacb67eba3a21e7d4d3afc369.html#ga0f7c6c8dacb67eba3a21e7d4d3afc369" target="_top" xlink:title="canopy hydrology">
<polygon fill="white" stroke="#666666" points="343.12,-335.25 287.38,-335.25 287.38,-316 343.12,-316 343.12,-335.25"/>
<text xml:space="preserve" text-anchor="middle" x="315.25" y="-321.75" font-family="Source Sans Pro" font-size="10.00">canwater</text>
</a>
</g>
</g>
<!-- Node2&#45;&gt;Node3 -->
<g id="edge2_Node000002_Node000003" class="edge">
<title>Node2&#45;&gt;Node3</title>
<g id="a_edge2_Node000002_Node000003"><a xlink:title=" ">
<path fill="none" stroke="#63b8ff" d="M220.81,-261.58C230.59,-273.87 248.69,-294.71 268.25,-307.62 270.93,-309.4 273.82,-311.04 276.79,-312.54"/>
<polygon fill="#63b8ff" stroke="#63b8ff" points="275.1,-315.62 285.66,-316.54 277.98,-309.24 275.1,-315.62"/>
</a>
</g>
</g>
<!-- Node4 -->
<g id="Node000004" class="node">
<title>Node4</title>
<g id="a_Node000004"><a xlink:href="group___noah_m_p___l_s_m_ga6ce8861ff5926b6f3efb1e7d8c552de1.html#ga6ce8861ff5926b6f3efb1e7d8c552de1" target="_top" xlink:title=" ">
<polygon fill="white" stroke="#666666" points="349.88,-298.25 280.62,-298.25 280.62,-279 349.88,-279 349.88,-298.25"/>
<text xml:space="preserve" text-anchor="middle" x="315.25" y="-284.75" font-family="Source Sans Pro" font-size="10.00">groundwater</text>
</a>
</g>
</g>
<!-- Node2&#45;&gt;Node4 -->
<g id="edge3_Node000002_Node000004" class="edge">
<title>Node2&#45;&gt;Node4</title>
<g id="a_edge3_Node000002_Node000004"><a xlink:title=" ">
<path fill="none" stroke="#63b8ff" d="M232.72,-258.76C245.09,-263.29 261.5,-269.3 276.35,-274.74"/>
<polygon fill="#63b8ff" stroke="#63b8ff" points="274.8,-277.9 285.4,-278.06 277.21,-271.33 274.8,-277.9"/>
</a>
</g>
</g>
<!-- Node5 -->
<g id="Node000005" class="node">
<title>Node5</title>
<g id="a_Node000005"><a xlink:href="group___noah_m_p___l_s_m_ga027ec32eb5879830419538747eeb65a5.html#ga027ec32eb5879830419538747eeb65a5" target="_top" xlink:title="diagnoses water table depth and computes recharge when the water table is within the resolved soil la...">
<polygon fill="white" stroke="#666666" points="362.25,-261.25 268.25,-261.25 268.25,-242 362.25,-242 362.25,-261.25"/>
<text xml:space="preserve" text-anchor="middle" x="315.25" y="-247.75" font-family="Source Sans Pro" font-size="10.00">shallowwatertable</text>
</a>
</g>
</g>
<!-- Node2&#45;&gt;Node5 -->
<g id="edge4_Node000002_Node000005" class="edge">
<title>Node2&#45;&gt;Node5</title>
<g id="a_edge4_Node000002_Node000005"><a xlink:title=" ">
<path fill="none" stroke="#63b8ff" d="M232.72,-251.62C239.74,-251.62 248.06,-251.62 256.66,-251.62"/>
<polygon fill="#63b8ff" stroke="#63b8ff" points="256.52,-255.13 266.52,-251.63 256.52,-248.13 256.52,-255.13"/>
</a>
</g>
</g>
<!-- Node6 -->
<g id="Node000006" class="node">
<title>Node6</title>
<g id="a_Node000006"><a xlink:href="group___noah_m_p___l_s_m_ga8500bdb5fcc68e431512068da0d31cd5.html#ga8500bdb5fcc68e431512068da0d31cd5" target="_top" xlink:title=" ">
<polygon fill="white" stroke="#666666" points="346.88,-224.25 283.62,-224.25 283.62,-205 346.88,-205 346.88,-224.25"/>
<text xml:space="preserve" text-anchor="middle" x="315.25" y="-210.75" font-family="Source Sans Pro" font-size="10.00">snowwater</text>
</a>
</g>
</g>
<!-- Node2&#45;&gt;Node6 -->
<g id="edge5_Node000002_Node000006" class="edge">
<title>Node2&#45;&gt;Node6</title>
<g id="a_edge5_Node000002_Node000006"><a xlink:title=" ">
<path fill="none" stroke="#63b8ff" d="M232.72,-244.49C245.09,-239.96 261.5,-233.95 276.35,-228.51"/>
<polygon fill="#63b8ff" stroke="#63b8ff" points="277.21,-231.92 285.4,-225.19 274.8,-225.35 277.21,-231.92"/>
</a>
</g>
</g>
<!-- Node13 -->
<g id="Node000013" class="node">
<title>Node13</title>
<g id="a_Node000013"><a xlink:href="group___noah_m_p___l_s_m_gadca44347d78a09297195f41298a47f8d.html#gadca44347d78a09297195f41298a47f8d" target="_top" xlink:title="calculate surface runoff and soil moisture.">
<polygon fill="white" stroke="#666666" points="342.75,-93.25 287.75,-93.25 287.75,-74 342.75,-74 342.75,-93.25"/>
<text xml:space="preserve" text-anchor="middle" x="315.25" y="-79.75" font-family="Source Sans Pro" font-size="10.00">soilwater</text>
</a>
</g>
</g>
<!-- Node2&#45;&gt;Node13 -->
<g id="edge14_Node000002_Node000013" class="edge">
<title>Node2&#45;&gt;Node13</title>
<g id="a_edge14_Node000002_Node000013"><a xlink:title=" ">
<path fill="none" stroke="#63b8ff" d="M219.27,-241.62C235.58,-214.48 280.91,-139.09 302.51,-103.16"/>
<polygon fill="#63b8ff" stroke="#63b8ff" points="305.46,-105.04 307.61,-94.67 299.46,-101.43 305.46,-105.04"/>
</a>
</g>
</g>
<!-- Node7 -->
<g id="Node000007" class="node">
<title>Node7</title>
<g id="a_Node000007"><a xlink:href="group___noah_m_p___l_s_m_ga0d1a0707cf2a2a4fd14444b111a55048.html#ga0d1a0707cf2a2a4fd14444b111a55048" target="_top" xlink:title=" ">
<polygon fill="white" stroke="#666666" points="542,-206.25 489.25,-206.25 489.25,-187 542,-187 542,-206.25"/>
<text xml:space="preserve" text-anchor="middle" x="515.62" y="-192.75" font-family="Source Sans Pro" font-size="10.00">combine</text>
</a>
</g>
</g>
<!-- Node6&#45;&gt;Node7 -->
<g id="edge6_Node000006_Node000007" class="edge">
<title>Node6&#45;&gt;Node7</title>
<g id="a_edge6_Node000006_Node000007"><a xlink:title=" ">
<path fill="none" stroke="#63b8ff" d="M332.8,-204.62C348.87,-195.53 374.28,-182.78 398.25,-177.62 422.15,-172.48 429.08,-173.97 453.25,-177.62 461.42,-178.86 470,-180.97 478.07,-183.35"/>
<polygon fill="#63b8ff" stroke="#63b8ff" points="477.01,-186.69 487.6,-186.37 479.13,-180.01 477.01,-186.69"/>
</a>
</g>
</g>
<!-- Node9 -->
<g id="Node000009" class="node">
<title>Node9</title>
<g id="a_Node000009"><a xlink:href="group___noah_m_p___l_s_m_gabc66ddc0a33ac2d9fe3a1677febd1725.html#gabc66ddc0a33ac2d9fe3a1677febd1725" target="_top" xlink:title=" ">
<polygon fill="white" stroke="#666666" points="452.5,-319.25 399,-319.25 399,-300 452.5,-300 452.5,-319.25"/>
<text xml:space="preserve" text-anchor="middle" x="425.75" y="-305.75" font-family="Source Sans Pro" font-size="10.00">compact</text>
</a>
</g>
</g>
<!-- Node6&#45;&gt;Node9 -->
<g id="edge8_Node000006_Node000009" class="edge">
<title>Node6&#45;&gt;Node9</title>
<g id="a_edge8_Node000006_Node000009"><a xlink:title=" ">
<path fill="none" stroke="#63b8ff" d="M347.34,-223.82C352.63,-226.19 357.83,-229.09 362.25,-232.62 384.51,-250.39 379.56,-264.14 398.25,-285.62 400.14,-287.8 402.21,-289.97 404.34,-292.07"/>
<polygon fill="#63b8ff" stroke="#63b8ff" points="401.74,-294.43 411.45,-298.65 406.49,-289.29 401.74,-294.43"/>
</a>
</g>
</g>
<!-- Node10 -->
<g id="Node000010" class="node">
<title>Node10</title>
<g id="a_Node000010"><a xlink:href="group___noah_m_p___l_s_m_ga2a809bb1c3c3307616446d4f27d00d5c.html#ga2a809bb1c3c3307616446d4f27d00d5c" target="_top" xlink:title=" ">
<polygon fill="white" stroke="#666666" points="536.38,-262.25 494.88,-262.25 494.88,-243 536.38,-243 536.38,-262.25"/>
<text xml:space="preserve" text-anchor="middle" x="515.62" y="-248.75" font-family="Source Sans Pro" font-size="10.00">divide</text>
</a>
</g>
</g>
<!-- Node6&#45;&gt;Node10 -->
<g id="edge9_Node000006_Node000010" class="edge">
<title>Node6&#45;&gt;Node10</title>
<g id="a_edge9_Node000006_Node000010"><a xlink:title=" ">
<path fill="none" stroke="#63b8ff" d="M343.75,-224.69C349.9,-227.13 356.35,-229.85 362.25,-232.62 378.81,-240.42 380.53,-248.03 398.25,-252.62 426.36,-259.91 459.58,-259.01 483.32,-256.83"/>
<polygon fill="#63b8ff" stroke="#63b8ff" points="483.39,-260.34 492.97,-255.8 482.65,-253.38 483.39,-260.34"/>
</a>
</g>
</g>
<!-- Node11 -->
<g id="Node000011" class="node">
<title>Node11</title>
<g id="a_Node000011"><a xlink:href="group___noah_m_p___l_s_m_ga27b8403f2911888350b2ce246e3c6620.html#ga27b8403f2911888350b2ce246e3c6620" target="_top" xlink:title="snow depth and density to account for the new snowfall. new values of snow depth &amp; density returned.">
<polygon fill="white" stroke="#666666" points="451.75,-243.25 399.75,-243.25 399.75,-224 451.75,-224 451.75,-243.25"/>
<text xml:space="preserve" text-anchor="middle" x="425.75" y="-229.75" font-family="Source Sans Pro" font-size="10.00">snowfall</text>
</a>
</g>
</g>
<!-- Node6&#45;&gt;Node11 -->
<g id="edge11_Node000006_Node000011" class="edge">
<title>Node6&#45;&gt;Node11</title>
<g id="a_edge11_Node000006_Node000011"><a xlink:title=" ">
<path fill="none" stroke="#63b8ff" d="M347.34,-220.07C360.13,-222.31 375.03,-224.92 388.32,-227.25"/>
<polygon fill="#63b8ff" stroke="#63b8ff" points="387.55,-230.66 398,-228.94 388.76,-223.77 387.55,-230.66"/>
</a>
</g>
</g>
<!-- Node12 -->
<g id="Node000012" class="node">
<title>Node12</title>
<g id="a_Node000012"><a xlink:href="group___noah_m_p___l_s_m_gad5df8e19f96bc0e98560e5df8c49c0fa.html#gad5df8e19f96bc0e98560e5df8c49c0fa" target="_top" xlink:title="renew the mass of ice lens (snice) and liquid (snliq) of the surface snow layer resulting from sublim...">
<polygon fill="white" stroke="#666666" points="453.25,-206.25 398.25,-206.25 398.25,-187 453.25,-187 453.25,-206.25"/>
<text xml:space="preserve" text-anchor="middle" x="425.75" y="-192.75" font-family="Source Sans Pro" font-size="10.00">snowh2o</text>
</a>
</g>
</g>
<!-- Node6&#45;&gt;Node12 -->
<g id="edge12_Node000006_Node000012" class="edge">
<title>Node6&#45;&gt;Node12</title>
<g id="a_edge12_Node000006_Node000012"><a xlink:title=" ">
<path fill="none" stroke="#63b8ff" d="M347.34,-209.47C359.62,-207.43 373.84,-205.07 386.71,-202.94"/>
<polygon fill="#63b8ff" stroke="#63b8ff" points="387.28,-206.39 396.58,-201.3 386.14,-199.48 387.28,-206.39"/>
</a>
</g>
</g>
<!-- Node8 -->
<g id="Node000008" class="node">
<title>Node8</title>
<g id="a_Node000008"><a xlink:href="group___noah_m_p___l_s_m_ga4804d8de40f7ea8a8cf4ed6e22ff4aa0.html#ga4804d8de40f7ea8a8cf4ed6e22ff4aa0" target="_top" xlink:title=" ">
<polygon fill="white" stroke="#666666" points="623.25,-234.25 578,-234.25 578,-215 623.25,-215 623.25,-234.25"/>
<text xml:space="preserve" text-anchor="middle" x="600.62" y="-220.75" font-family="Source Sans Pro" font-size="10.00">combo</text>
</a>
</g>
</g>
<!-- Node7&#45;&gt;Node8 -->
<g id="edge7_Node000007_Node000008" class="edge">
<title>Node7&#45;&gt;Node8</title>
<g id="a_edge7_Node000007_Node000008"><a xlink:title=" ">
<path fill="none" stroke="#63b8ff" d="M542.43,-205.33C550.22,-207.96 558.87,-210.88 567.04,-213.63"/>
<polygon fill="#63b8ff" stroke="#63b8ff" points="565.72,-216.88 576.31,-216.76 567.96,-210.25 565.72,-216.88"/>
</a>
</g>
</g>
<!-- Node10&#45;&gt;Node8 -->
<g id="edge10_Node000010_Node000008" class="edge">
<title>Node10&#45;&gt;Node8</title>
<g id="a_edge10_Node000010_Node000008"><a xlink:title=" ">
<path fill="none" stroke="#63b8ff" d="M536.72,-245.85C545.81,-242.78 556.78,-239.08 567.01,-235.63"/>
<polygon fill="#63b8ff" stroke="#63b8ff" points="567.89,-239.03 576.24,-232.51 565.65,-232.39 567.89,-239.03"/>
</a>
</g>
</g>
<!-- Node12&#45;&gt;Node7 -->
<g id="edge13_Node000012_Node000007" class="edge">
<title>Node12&#45;&gt;Node7</title>
<g id="a_edge13_Node000012_Node000007"><a xlink:title=" ">
<path fill="none" stroke="#63b8ff" d="M453.59,-196.62C461.12,-196.62 469.44,-196.62 477.46,-196.62"/>
<polygon fill="#63b8ff" stroke="#63b8ff" points="477.34,-200.13 487.34,-196.63 477.34,-193.13 477.34,-200.13"/>
</a>
</g>
</g>
<!-- Node14 -->
<g id="Node000014" class="node">
<title>Node14</title>
<g id="a_Node000014"><a xlink:href="group___noah_m_p___l_s_m_ga33eceb1b8d3e8a38dec1ca21f811f13d.html#ga33eceb1b8d3e8a38dec1ca21f811f13d" target="_top" xlink:title="compute inflitration rate at soil surface and surface runoff">
<polygon fill="white" stroke="#666666" points="441.25,-93.25 410.25,-93.25 410.25,-74 441.25,-74 441.25,-93.25"/>
<text xml:space="preserve" text-anchor="middle" x="425.75" y="-79.75" font-family="Source Sans Pro" font-size="10.00">infil</text>
</a>
</g>
</g>
<!-- Node13&#45;&gt;Node14 -->
<g id="edge15_Node000013_Node000014" class="edge">
<title>Node13&#45;&gt;Node14</title>
<g id="a_edge15_Node000013_Node000014"><a xlink:title=" ">
<path fill="none" stroke="#63b8ff" d="M343.07,-83.62C360.04,-83.62 381.86,-83.62 398.68,-83.62"/>
<polygon fill="#63b8ff" stroke="#63b8ff" points="398.39,-87.13 408.39,-83.63 398.39,-80.13 398.39,-87.13"/>
</a>
</g>
</g>
<!-- Node16 -->
<g id="Node000016" class="node">
<title>Node16</title>
<g id="a_Node000016"><a xlink:href="group___noah_m_p___l_s_m_ga2825a3a5bbdeed71a7b6ea89ff9bce16.html#ga2825a3a5bbdeed71a7b6ea89ff9bce16" target="_top" xlink:title="calculate the right hand side of the time tendency term of the soil water diffusion equation....">
<polygon fill="white" stroke="#666666" points="440.15,-56.25 411.35,-56.25 411.35,-37 440.15,-37 440.15,-56.25"/>
<text xml:space="preserve" text-anchor="middle" x="425.75" y="-42.75" font-family="Source Sans Pro" font-size="10.00">srt</text>
</a>
</g>
</g>
<!-- Node13&#45;&gt;Node16 -->
<g id="edge17_Node000013_Node000016" class="edge">
<title>Node13&#45;&gt;Node16</title>
<g id="a_edge17_Node000013_Node000016"><a xlink:title=" ">
<path fill="none" stroke="#63b8ff" d="M343.07,-74.48C360.61,-68.5 383.34,-60.75 400.37,-54.94"/>
<polygon fill="#63b8ff" stroke="#63b8ff" points="401.34,-58.3 409.68,-51.76 399.08,-51.68 401.34,-58.3"/>
</a>
</g>
</g>
<!-- Node18 -->
<g id="Node000018" class="node">
<title>Node18</title>
<g id="a_Node000018"><a xlink:href="group___noah_m_p___l_s_m_gae10b02d7df0104a84451abc57e0410fb.html#gae10b02d7df0104a84451abc57e0410fb" target="_top" xlink:title="calculate/update soil moisture content values.">
<polygon fill="white" stroke="#666666" points="445.75,-19.25 405.75,-19.25 405.75,0 445.75,0 445.75,-19.25"/>
<text xml:space="preserve" text-anchor="middle" x="425.75" y="-5.75" font-family="Source Sans Pro" font-size="10.00">sstep</text>
</a>
</g>
</g>
<!-- Node13&#45;&gt;Node18 -->
<g id="edge20_Node000013_Node000018" class="edge">
<title>Node13&#45;&gt;Node18</title>
<g id="a_edge20_Node000013_Node000018"><a xlink:title=" ">
<path fill="none" stroke="#63b8ff" d="M330.76,-73.7C347.14,-62.5 374.6,-43.73 398.25,-27.62 398.96,-27.14 399.67,-26.66 400.4,-26.16"/>
<polygon fill="#63b8ff" stroke="#63b8ff" points="402.34,-29.08 408.64,-20.56 398.4,-23.29 402.34,-29.08"/>
</a>
</g>
</g>
<!-- Node20 -->
<g id="Node000020" class="node">
<title>Node20</title>
<g id="a_Node000020"><a xlink:href="group___noah_m_p___l_s_m_gadc2da87aeab4494d5234d18df3d223f7.html#gadc2da87aeab4494d5234d18df3d223f7" target="_top" xlink:title="calculate equilibrium water table depth (niu et al., 2005)">
<polygon fill="white" stroke="#666666" points="446.88,-130.25 404.62,-130.25 404.62,-111 446.88,-111 446.88,-130.25"/>
<text xml:space="preserve" text-anchor="middle" x="425.75" y="-116.75" font-family="Source Sans Pro" font-size="10.00">zwteq</text>
</a>
</g>
</g>
<!-- Node13&#45;&gt;Node20 -->
<g id="edge22_Node000013_Node000020" class="edge">
<title>Node13&#45;&gt;Node20</title>
<g id="a_edge22_Node000013_Node000020"><a xlink:title=" ">
<path fill="none" stroke="#63b8ff" d="M343.07,-92.77C358.47,-98.02 377.87,-104.64 393.9,-110.1"/>
<polygon fill="#63b8ff" stroke="#63b8ff" points="392.34,-113.27 402.93,-113.18 394.6,-106.64 392.34,-113.27"/>
</a>
</g>
</g>
<!-- Node15 -->
<g id="Node000015" class="node">
<title>Node15</title>
<g id="a_Node000015"><a xlink:href="group___noah_m_p___l_s_m_gaca325ee2efde047e6cd030ace7d5931f.html#gaca325ee2efde047e6cd030ace7d5931f" target="_top" xlink:title="calculate soil water diffusivity and soil hydraulic conductivity.">
<polygon fill="white" stroke="#666666" points="542,-93.25 489.25,-93.25 489.25,-74 542,-74 542,-93.25"/>
<text xml:space="preserve" text-anchor="middle" x="515.62" y="-79.75" font-family="Source Sans Pro" font-size="10.00">wdfcnd2</text>
</a>
</g>
</g>
<!-- Node14&#45;&gt;Node15 -->
<g id="edge16_Node000014_Node000015" class="edge">
<title>Node14&#45;&gt;Node15</title>
<g id="a_edge16_Node000014_Node000015"><a xlink:title=" ">
<path fill="none" stroke="#63b8ff" d="M441.66,-83.62C451.55,-83.62 465.01,-83.62 477.67,-83.62"/>
<polygon fill="#63b8ff" stroke="#63b8ff" points="477.44,-87.13 487.44,-83.63 477.44,-80.13 477.44,-87.13"/>
</a>
</g>
</g>
<!-- Node16&#45;&gt;Node15 -->
<g id="edge19_Node000016_Node000015" class="edge">
<title>Node16&#45;&gt;Node15</title>
<g id="a_edge19_Node000016_Node000015"><a xlink:title=" ">
<path fill="none" stroke="#63b8ff" d="M440.48,-52.41C451.17,-56.91 466.49,-63.36 480.44,-69.23"/>
<polygon fill="#63b8ff" stroke="#63b8ff" points="478.76,-72.32 489.33,-72.98 481.48,-65.87 478.76,-72.32"/>
</a>
</g>
</g>
<!-- Node17 -->
<g id="Node000017" class="node">
<title>Node17</title>
<g id="a_Node000017"><a xlink:href="group___noah_m_p___l_s_m_gaffab2571eaa0a1c94d971a5344c8a109.html#gaffab2571eaa0a1c94d971a5344c8a109" target="_top" xlink:title="calculate soil water diffusivity and soil hydraulic conductivity.">
<polygon fill="white" stroke="#666666" points="542,-56.25 489.25,-56.25 489.25,-37 542,-37 542,-56.25"/>
<text xml:space="preserve" text-anchor="middle" x="515.62" y="-42.75" font-family="Source Sans Pro" font-size="10.00">wdfcnd1</text>
</a>
</g>
</g>
<!-- Node16&#45;&gt;Node17 -->
<g id="edge18_Node000016_Node000017" class="edge">
<title>Node16&#45;&gt;Node17</title>
<g id="a_edge18_Node000016_Node000017"><a xlink:title=" ">
<path fill="none" stroke="#63b8ff" d="M440.48,-46.62C450.49,-46.62 464.54,-46.62 477.73,-46.62"/>
<polygon fill="#63b8ff" stroke="#63b8ff" points="477.46,-50.13 487.46,-46.63 477.46,-43.13 477.46,-50.13"/>
</a>
</g>
</g>
<!-- Node19 -->
<g id="Node000019" class="node">
<title>Node19</title>
<g id="a_Node000019"><a xlink:href="group___noah_m_p___l_s_m_ga7a305dbb6a9210b227ee310c71f30fd9.html#ga7a305dbb6a9210b227ee310c71f30fd9" target="_top" xlink:title="solve the tri&#45;diagonal matrix equation">
<polygon fill="white" stroke="#666666" points="537.12,-19.25 494.12,-19.25 494.12,0 537.12,0 537.12,-19.25"/>
<text xml:space="preserve" text-anchor="middle" x="515.62" y="-5.75" font-family="Source Sans Pro" font-size="10.00">rosr12</text>
</a>
</g>
</g>
<!-- Node18&#45;&gt;Node19 -->
<g id="edge21_Node000018_Node000019" class="edge">
<title>Node18&#45;&gt;Node19</title>
<g id="a_edge21_Node000018_Node000019"><a xlink:title=" ">
<path fill="none" stroke="#63b8ff" d="M445.82,-9.62C456.53,-9.62 470.18,-9.62 482.49,-9.62"/>
<polygon fill="#63b8ff" stroke="#63b8ff" points="482.24,-13.13 492.24,-9.63 482.24,-6.13 482.24,-13.13"/>
</a>
</g>
</g>
</g>
</svg>
