<?xml version="1.0" encoding="UTF-8" standalone="no"?>
<!DOCTYPE svg PUBLIC "-//W3C//DTD SVG 1.1//EN"
 "http://www.w3.org/Graphics/SVG/1.1/DTD/svg11.dtd">
<!-- Generated by graphviz version 14.1.2 (20260124.0452)
 -->
<!-- Title: gfdl_cloud_microphys_v3_mod::cld_sat_adj Pages: 1 -->
<svg width="586pt" height="343pt"
 viewBox="0.00 0.00 586.00 343.00" xmlns="http://www.w3.org/2000/svg" xmlns:xlink="http://www.w3.org/1999/xlink">
<g id="graph0" class="graph" transform="scale(1 1) rotate(0) translate(4 339.25)">
<title>gfdl_cloud_microphys_v3_mod::cld_sat_adj</title>
<!-- Node1 -->
<g id="Node000001" class="node">
<title>Node1</title>
<g id="a_Node000001"><a xlink:title=" ">
<polygon fill="#999999" stroke="#666666" points="111.25,-266.88 0,-266.88 0,-236.38 111.25,-236.38 111.25,-266.88"/>
<text xml:space="preserve" text-anchor="start" x="8" y="-253.38" font-family="Source Sans Pro" font-size="10.00">gfdl_cloud_microphys</text>
<text xml:space="preserve" text-anchor="middle" x="55.62" y="-242.12" font-family="Source Sans Pro" font-size="10.00">_v3_mod::cld_sat_adj</text>
</a>
</g>
</g>
<!-- Node2 -->
<g id="Node000002" class="node">
<title>Node2</title>
<g id="a_Node000002"><a xlink:href="group___noah_m_p___l_s_m_ga2e84840f3ed90005f066340b388c03d6.html#ga2e84840f3ed90005f066340b388c03d6" target="_top" xlink:title="compute water budgets (water storages, et components, and runoff)">
<polygon fill="white" stroke="#666666" points="187.25,-261.25 147.25,-261.25 147.25,-242 187.25,-242 187.25,-261.25"/>
<text xml:space="preserve" text-anchor="middle" x="167.25" y="-247.75" font-family="Source Sans Pro" font-size="10.00">water</text>
</a>
</g>
</g>
<!-- Node1&#45;&gt;Node2 -->
<g id="edge1_Node000001_Node000002" class="edge">
<title>Node1&#45;&gt;Node2</title>
<g id="a_edge1_Node000001_Node000002"><a xlink:title=" ">
<path fill="none" stroke="#63b8ff" d="M111.44,-251.62C119.7,-251.62 127.96,-251.62 135.47,-251.62"/>
<polygon fill="#63b8ff" stroke="#63b8ff" points="135.39,-255.13 145.39,-251.63 135.39,-248.13 135.39,-255.13"/>
</a>
</g>
</g>
<!-- Node3 -->
<g id="Node000003" class="node">
<title>Node3</title>
<g id="a_Node000003"><a xlink:href="group___noah_m_p___l_s_m_ga0f7c6c8dacb67eba3a21e7d4d3afc369.html#ga0f7c6c8dacb67eba3a21e7d4d3afc369" target="_top" xlink:title="canopy hydrology">
<polygon fill="white" stroke="#666666" points="298.12,-335.25 242.38,-335.25 242.38,-316 298.12,-316 298.12,-335.25"/>
<text xml:space="preserve" text-anchor="middle" x="270.25" y="-321.75" font-family="Source Sans Pro" font-size="10.00">canwater</text>
</a>
</g>
</g>
<!-- Node2&#45;&gt;Node3 -->
<g id="edge2_Node000002_Node000003" class="edge">
<title>Node2&#45;&gt;Node3</title>
<g id="a_edge2_Node000002_Node000003"><a xlink:title=" ">
<path fill="none" stroke="#63b8ff" d="M175.81,-261.58C185.59,-273.87 203.69,-294.71 223.25,-307.62 225.93,-309.4 228.82,-311.04 231.79,-312.54"/>
<polygon fill="#63b8ff" stroke="#63b8ff" points="230.1,-315.62 240.66,-316.54 232.98,-309.24 230.1,-315.62"/>
</a>
</g>
</g>
<!-- Node4 -->
<g id="Node000004" class="node">
<title>Node4</title>
<g id="a_Node000004"><a xlink:href="group___noah_m_p___l_s_m_ga6ce8861ff5926b6f3efb1e7d8c552de1.html#ga6ce8861ff5926b6f3efb1e7d8c552de1" target="_top" xlink:title=" ">
<polygon fill="white" stroke="#666666" points="304.88,-298.25 235.62,-298.25 235.62,-279 304.88,-279 304.88,-298.25"/>
<text xml:space="preserve" text-anchor="middle" x="270.25" y="-284.75" font-family="Source Sans Pro" font-size="10.00">groundwater</text>
</a>
</g>
</g>
<!-- Node2&#45;&gt;Node4 -->
<g id="edge3_Node000002_Node000004" class="edge">
<title>Node2&#45;&gt;Node4</title>
<g id="a_edge3_Node000002_Node000004"><a xlink:title=" ">
<path fill="none" stroke="#63b8ff" d="M187.72,-258.76C200.09,-263.29 216.5,-269.3 231.35,-274.74"/>
<polygon fill="#63b8ff" stroke="#63b8ff" points="229.8,-277.9 240.4,-278.06 232.21,-271.33 229.8,-277.9"/>
</a>
</g>
</g>
<!-- Node5 -->
<g id="Node000005" class="node">
<title>Node5</title>
<g id="a_Node000005"><a xlink:href="group___noah_m_p___l_s_m_ga027ec32eb5879830419538747eeb65a5.html#ga027ec32eb5879830419538747eeb65a5" target="_top" xlink:title="diagnoses water table depth and computes recharge when the water table is within the resolved soil la...">
<polygon fill="white" stroke="#666666" points="317.25,-261.25 223.25,-261.25 223.25,-242 317.25,-242 317.25,-261.25"/>
<text xml:space="preserve" text-anchor="middle" x="270.25" y="-247.75" font-family="Source Sans Pro" font-size="10.00">shallowwatertable</text>
</a>
</g>
</g>
<!-- Node2&#45;&gt;Node5 -->
<g id="edge4_Node000002_Node000005" class="edge">
<title>Node2&#45;&gt;Node5</title>
<g id="a_edge4_Node000002_Node000005"><a xlink:title=" ">
<path fill="none" stroke="#63b8ff" d="M187.72,-251.62C194.74,-251.62 203.06,-251.62 211.66,-251.62"/>
<polygon fill="#63b8ff" stroke="#63b8ff" points="211.52,-255.13 221.52,-251.63 211.52,-248.13 211.52,-255.13"/>
</a>
</g>
</g>
<!-- Node6 -->
<g id="Node000006" class="node">
<title>Node6</title>
<g id="a_Node000006"><a xlink:href="group___noah_m_p___l_s_m_ga8500bdb5fcc68e431512068da0d31cd5.html#ga8500bdb5fcc68e431512068da0d31cd5" target="_top" xlink:title=" ">
<polygon fill="white" stroke="#666666" points="301.88,-224.25 238.62,-224.25 238.62,-205 301.88,-205 301.88,-224.25"/>
<text xml:space="preserve" text-anchor="middle" x="270.25" y="-210.75" font-family="Source Sans Pro" font-size="10.00">snowwater</text>
</a>
</g>
</g>
<!-- Node2&#45;&gt;Node6 -->
<g id="edge5_Node000002_Node000006" class="edge">
<title>Node2&#45;&gt;Node6</title>
<g id="a_edge5_Node000002_Node000006"><a xlink:title=" ">
<path fill="none" stroke="#63b8ff" d="M187.72,-244.49C200.09,-239.96 216.5,-233.95 231.35,-228.51"/>
<polygon fill="#63b8ff" stroke="#63b8ff" points="232.21,-231.92 240.4,-225.19 229.8,-225.35 232.21,-231.92"/>
</a>
</g>
</g>
<!-- Node13 -->
<g id="Node000013" class="node">
<title>Node13</title>
<g id="a_Node000013"><a xlink:href="group___noah_m_p___l_s_m_gadca44347d78a09297195f41298a47f8d.html#gadca44347d78a09297195f41298a47f8d" target="_top" xlink:title="calculate surface runoff and soil moisture.">
<polygon fill="white" stroke="#666666" points="297.75,-93.25 242.75,-93.25 242.75,-74 297.75,-74 297.75,-93.25"/>
<text xml:space="preserve" text-anchor="middle" x="270.25" y="-79.75" font-family="Source Sans Pro" font-size="10.00">soilwater</text>
</a>
</g>
</g>
<!-- Node2&#45;&gt;Node13 -->
<g id="edge14_Node000002_Node000013" class="edge">
<title>Node2&#45;&gt;Node13</title>
<g id="a_edge14_Node000002_Node000013"><a xlink:title=" ">
<path fill="none" stroke="#63b8ff" d="M174.27,-241.62C190.58,-214.48 235.91,-139.09 257.51,-103.16"/>
<polygon fill="#63b8ff" stroke="#63b8ff" points="260.46,-105.04 262.61,-94.67 254.46,-101.43 260.46,-105.04"/>
</a>
</g>
</g>
<!-- Node7 -->
<g id="Node000007" class="node">
<title>Node7</title>
<g id="a_Node000007"><a xlink:href="group___noah_m_p___l_s_m_ga0d1a0707cf2a2a4fd14444b111a55048.html#ga0d1a0707cf2a2a4fd14444b111a55048" target="_top" xlink:title=" ">
<polygon fill="white" stroke="#666666" points="497,-206.25 444.25,-206.25 444.25,-187 497,-187 497,-206.25"/>
<text xml:space="preserve" text-anchor="middle" x="470.62" y="-192.75" font-family="Source Sans Pro" font-size="10.00">combine</text>
</a>
</g>
</g>
<!-- Node6&#45;&gt;Node7 -->
<g id="edge6_Node000006_Node000007" class="edge">
<title>Node6&#45;&gt;Node7</title>
<g id="a_edge6_Node000006_Node000007"><a xlink:title=" ">
<path fill="none" stroke="#63b8ff" d="M287.8,-204.62C303.87,-195.53 329.28,-182.78 353.25,-177.62 377.15,-172.48 384.08,-173.97 408.25,-177.62 416.42,-178.86 425,-180.97 433.07,-183.35"/>
<polygon fill="#63b8ff" stroke="#63b8ff" points="432.01,-186.69 442.6,-186.37 434.13,-180.01 432.01,-186.69"/>
</a>
</g>
</g>
<!-- Node9 -->
<g id="Node000009" class="node">
<title>Node9</title>
<g id="a_Node000009"><a xlink:href="group___noah_m_p___l_s_m_gabc66ddc0a33ac2d9fe3a1677febd1725.html#gabc66ddc0a33ac2d9fe3a1677febd1725" target="_top" xlink:title=" ">
<polygon fill="white" stroke="#666666" points="407.5,-319.25 354,-319.25 354,-300 407.5,-300 407.5,-319.25"/>
<text xml:space="preserve" text-anchor="middle" x="380.75" y="-305.75" font-family="Source Sans Pro" font-size="10.00">compact</text>
</a>
</g>
</g>
<!-- Node6&#45;&gt;Node9 -->
<g id="edge8_Node000006_Node000009" class="edge">
<title>Node6&#45;&gt;Node9</title>
<g id="a_edge8_Node000006_Node000009"><a xlink:title=" ">
<path fill="none" stroke="#63b8ff" d="M302.34,-223.82C307.63,-226.19 312.83,-229.09 317.25,-232.62 339.51,-250.39 334.56,-264.14 353.25,-285.62 355.14,-287.8 357.21,-289.97 359.34,-292.07"/>
<polygon fill="#63b8ff" stroke="#63b8ff" points="356.74,-294.43 366.45,-298.65 361.49,-289.29 356.74,-294.43"/>
</a>
</g>
</g>
<!-- Node10 -->
<g id="Node000010" class="node">
<title>Node10</title>
<g id="a_Node000010"><a xlink:href="group___noah_m_p___l_s_m_ga2a809bb1c3c3307616446d4f27d00d5c.html#ga2a809bb1c3c3307616446d4f27d00d5c" target="_top" xlink:title=" ">
<polygon fill="white" stroke="#666666" points="491.38,-262.25 449.88,-262.25 449.88,-243 491.38,-243 491.38,-262.25"/>
<text xml:space="preserve" text-anchor="middle" x="470.62" y="-248.75" font-family="Source Sans Pro" font-size="10.00">divide</text>
</a>
</g>
</g>
<!-- Node6&#45;&gt;Node10 -->
<g id="edge9_Node000006_Node000010" class="edge">
<title>Node6&#45;&gt;Node10</title>
<g id="a_edge9_Node000006_Node000010"><a xlink:title=" ">
<path fill="none" stroke="#63b8ff" d="M298.75,-224.69C304.9,-227.13 311.35,-229.85 317.25,-232.62 333.81,-240.42 335.53,-248.03 353.25,-252.62 381.36,-259.91 414.58,-259.01 438.32,-256.83"/>
<polygon fill="#63b8ff" stroke="#63b8ff" points="438.39,-260.34 447.97,-255.8 437.65,-253.38 438.39,-260.34"/>
</a>
</g>
</g>
<!-- Node11 -->
<g id="Node000011" class="node">
<title>Node11</title>
<g id="a_Node000011"><a xlink:href="group___noah_m_p___l_s_m_ga27b8403f2911888350b2ce246e3c6620.html#ga27b8403f2911888350b2ce246e3c6620" target="_top" xlink:title="snow depth and density to account for the new snowfall. new values of snow depth &amp; density returned.">
<polygon fill="white" stroke="#666666" points="406.75,-243.25 354.75,-243.25 354.75,-224 406.75,-224 406.75,-243.25"/>
<text xml:space="preserve" text-anchor="middle" x="380.75" y="-229.75" font-family="Source Sans Pro" font-size="10.00">snowfall</text>
</a>
</g>
</g>
<!-- Node6&#45;&gt;Node11 -->
<g id="edge11_Node000006_Node000011" class="edge">
<title>Node6&#45;&gt;Node11</title>
<g id="a_edge11_Node000006_Node000011"><a xlink:title=" ">
<path fill="none" stroke="#63b8ff" d="M302.34,-220.07C315.13,-222.31 330.03,-224.92 343.32,-227.25"/>
<polygon fill="#63b8ff" stroke="#63b8ff" points="342.55,-230.66 353,-228.94 343.76,-223.77 342.55,-230.66"/>
</a>
</g>
</g>
<!-- Node12 -->
<g id="Node000012" class="node">
<title>Node12</title>
<g id="a_Node000012"><a xlink:href="group___noah_m_p___l_s_m_gad5df8e19f96bc0e98560e5df8c49c0fa.html#gad5df8e19f96bc0e98560e5df8c49c0fa" target="_top" xlink:title="renew the mass of ice lens (snice) and liquid (snliq) of the surface snow layer resulting from sublim...">
<polygon fill="white" stroke="#666666" points="408.25,-206.25 353.25,-206.25 353.25,-187 408.25,-187 408.25,-206.25"/>
<text xml:space="preserve" text-anchor="middle" x="380.75" y="-192.75" font-family="Source Sans Pro" font-size="10.00">snowh2o</text>
</a>
</g>
</g>
<!-- Node6&#45;&gt;Node12 -->
<g id="edge12_Node000006_Node000012" class="edge">
<title>Node6&#45;&gt;Node12</title>
<g id="a_edge12_Node000006_Node000012"><a xlink:title=" ">
<path fill="none" stroke="#63b8ff" d="M302.34,-209.47C314.62,-207.43 328.84,-205.07 341.71,-202.94"/>
<polygon fill="#63b8ff" stroke="#63b8ff" points="342.28,-206.39 351.58,-201.3 341.14,-199.48 342.28,-206.39"/>
</a>
</g>
</g>
<!-- Node8 -->
<g id="Node000008" class="node">
<title>Node8</title>
<g id="a_Node000008"><a xlink:href="group___noah_m_p___l_s_m_ga4804d8de40f7ea8a8cf4ed6e22ff4aa0.html#ga4804d8de40f7ea8a8cf4ed6e22ff4aa0" target="_top" xlink:title=" ">
<polygon fill="white" stroke="#666666" points="578.25,-234.25 533,-234.25 533,-215 578.25,-215 578.25,-234.25"/>
<text xml:space="preserve" text-anchor="middle" x="555.62" y="-220.75" font-family="Source Sans Pro" font-size="10.00">combo</text>
</a>
</g>
</g>
<!-- Node7&#45;&gt;Node8 -->
<g id="edge7_Node000007_Node000008" class="edge">
<title>Node7&#45;&gt;Node8</title>
<g id="a_edge7_Node000007_Node000008"><a xlink:title=" ">
<path fill="none" stroke="#63b8ff" d="M497.43,-205.33C505.22,-207.96 513.87,-210.88 522.04,-213.63"/>
<polygon fill="#63b8ff" stroke="#63b8ff" points="520.72,-216.88 531.31,-216.76 522.96,-210.25 520.72,-216.88"/>
</a>
</g>
</g>
<!-- Node10&#45;&gt;Node8 -->
<g id="edge10_Node000010_Node000008" class="edge">
<title>Node10&#45;&gt;Node8</title>
<g id="a_edge10_Node000010_Node000008"><a xlink:title=" ">
<path fill="none" stroke="#63b8ff" d="M491.72,-245.85C500.81,-242.78 511.78,-239.08 522.01,-235.63"/>
<polygon fill="#63b8ff" stroke="#63b8ff" points="522.89,-239.03 531.24,-232.51 520.65,-232.39 522.89,-239.03"/>
</a>
</g>
</g>
<!-- Node12&#45;&gt;Node7 -->
<g id="edge13_Node000012_Node000007" class="edge">
<title>Node12&#45;&gt;Node7</title>
<g id="a_edge13_Node000012_Node000007"><a xlink:title=" ">
<path fill="none" stroke="#63b8ff" d="M408.59,-196.62C416.12,-196.62 424.44,-196.62 432.46,-196.62"/>
<polygon fill="#63b8ff" stroke="#63b8ff" points="432.34,-200.13 442.34,-196.63 432.34,-193.13 432.34,-200.13"/>
</a>
</g>
</g>
<!-- Node14 -->
<g id="Node000014" class="node">
<title>Node14</title>
<g id="a_Node000014"><a xlink:href="group___noah_m_p___l_s_m_ga33eceb1b8d3e8a38dec1ca21f811f13d.html#ga33eceb1b8d3e8a38dec1ca21f811f13d" target="_top" xlink:title="compute inflitration rate at soil surface and surface runoff">
<polygon fill="white" stroke="#666666" points="396.25,-93.25 365.25,-93.25 365.25,-74 396.25,-74 396.25,-93.25"/>
<text xml:space="preserve" text-anchor="middle" x="380.75" y="-79.75" font-family="Source Sans Pro" font-size="10.00">infil</text>
</a>
</g>
</g>
<!-- Node13&#45;&gt;Node14 -->
<g id="edge15_Node000013_Node000014" class="edge">
<title>Node13&#45;&gt;Node14</title>
<g id="a_edge15_Node000013_Node000014"><a xlink:title=" ">
<path fill="none" stroke="#63b8ff" d="M298.07,-83.62C315.04,-83.62 336.86,-83.62 353.68,-83.62"/>
<polygon fill="#63b8ff" stroke="#63b8ff" points="353.39,-87.13 363.39,-83.63 353.39,-80.13 353.39,-87.13"/>
</a>
</g>
</g>
<!-- Node16 -->
<g id="Node000016" class="node">
<title>Node16</title>
<g id="a_Node000016"><a xlink:href="group___noah_m_p___l_s_m_ga2825a3a5bbdeed71a7b6ea89ff9bce16.html#ga2825a3a5bbdeed71a7b6ea89ff9bce16" target="_top" xlink:title="calculate the right hand side of the time tendency term of the soil water diffusion equation....">
<polygon fill="white" stroke="#666666" points="395.15,-56.25 366.35,-56.25 366.35,-37 395.15,-37 395.15,-56.25"/>
<text xml:space="preserve" text-anchor="middle" x="380.75" y="-42.75" font-family="Source Sans Pro" font-size="10.00">srt</text>
</a>
</g>
</g>
<!-- Node13&#45;&gt;Node16 -->
<g id="edge17_Node000013_Node000016" class="edge">
<title>Node13&#45;&gt;Node16</title>
<g id="a_edge17_Node000013_Node000016"><a xlink:title=" ">
<path fill="none" stroke="#63b8ff" d="M298.07,-74.48C315.61,-68.5 338.34,-60.75 355.37,-54.94"/>
<polygon fill="#63b8ff" stroke="#63b8ff" points="356.34,-58.3 364.68,-51.76 354.08,-51.68 356.34,-58.3"/>
</a>
</g>
</g>
<!-- Node18 -->
<g id="Node000018" class="node">
<title>Node18</title>
<g id="a_Node000018"><a xlink:href="group___noah_m_p___l_s_m_gae10b02d7df0104a84451abc57e0410fb.html#gae10b02d7df0104a84451abc57e0410fb" target="_top" xlink:title="calculate/update soil moisture content values.">
<polygon fill="white" stroke="#666666" points="400.75,-19.25 360.75,-19.25 360.75,0 400.75,0 400.75,-19.25"/>
<text xml:space="preserve" text-anchor="middle" x="380.75" y="-5.75" font-family="Source Sans Pro" font-size="10.00">sstep</text>
</a>
</g>
</g>
<!-- Node13&#45;&gt;Node18 -->
<g id="edge20_Node000013_Node000018" class="edge">
<title>Node13&#45;&gt;Node18</title>
<g id="a_edge20_Node000013_Node000018"><a xlink:title=" ">
<path fill="none" stroke="#63b8ff" d="M285.76,-73.7C302.14,-62.5 329.6,-43.73 353.25,-27.62 353.96,-27.14 354.67,-26.66 355.4,-26.16"/>
<polygon fill="#63b8ff" stroke="#63b8ff" points="357.34,-29.08 363.64,-20.56 353.4,-23.29 357.34,-29.08"/>
</a>
</g>
</g>
<!-- Node20 -->
<g id="Node000020" class="node">
<title>Node20</title>
<g id="a_Node000020"><a xlink:href="group___noah_m_p___l_s_m_gadc2da87aeab4494d5234d18df3d223f7.html#gadc2da87aeab4494d5234d18df3d223f7" target="_top" xlink:title="calculate equilibrium water table depth (niu et al., 2005)">
<polygon fill="white" stroke="#666666" points="401.88,-130.25 359.62,-130.25 359.62,-111 401.88,-111 401.88,-130.25"/>
<text xml:space="preserve" text-anchor="middle" x="380.75" y="-116.75" font-family="Source Sans Pro" font-size="10.00">zwteq</text>
</a>
</g>
</g>
<!-- Node13&#45;&gt;Node20 -->
<g id="edge22_Node000013_Node000020" class="edge">
<title>Node13&#45;&gt;Node20</title>
<g id="a_edge22_Node000013_Node000020"><a xlink:title=" ">
<path fill="none" stroke="#63b8ff" d="M298.07,-92.77C313.47,-98.02 332.87,-104.64 348.9,-110.1"/>
<polygon fill="#63b8ff" stroke="#63b8ff" points="347.34,-113.27 357.93,-113.18 349.6,-106.64 347.34,-113.27"/>
</a>
</g>
</g>
<!-- Node15 -->
<g id="Node000015" class="node">
<title>Node15</title>
<g id="a_Node000015"><a xlink:href="group___noah_m_p___l_s_m_gaca325ee2efde047e6cd030ace7d5931f.html#gaca325ee2efde047e6cd030ace7d5931f" target="_top" xlink:title="calculate soil water diffusivity and soil hydraulic conductivity.">
<polygon fill="white" stroke="#666666" points="497,-93.25 444.25,-93.25 444.25,-74 497,-74 497,-93.25"/>
<text xml:space="preserve" text-anchor="middle" x="470.62" y="-79.75" font-family="Source Sans Pro" font-size="10.00">wdfcnd2</text>
</a>
</g>
</g>
<!-- Node14&#45;&gt;Node15 -->
<g id="edge16_Node000014_Node000015" class="edge">
<title>Node14&#45;&gt;Node15</title>
<g id="a_edge16_Node000014_Node000015"><a xlink:title=" ">
<path fill="none" stroke="#63b8ff" d="M396.66,-83.62C406.55,-83.62 420.01,-83.62 432.67,-83.62"/>
<polygon fill="#63b8ff" stroke="#63b8ff" points="432.44,-87.13 442.44,-83.63 432.44,-80.13 432.44,-87.13"/>
</a>
</g>
</g>
<!-- Node16&#45;&gt;Node15 -->
<g id="edge19_Node000016_Node000015" class="edge">
<title>Node16&#45;&gt;Node15</title>
<g id="a_edge19_Node000016_Node000015"><a xlink:title=" ">
<path fill="none" stroke="#63b8ff" d="M395.48,-52.41C406.17,-56.91 421.49,-63.36 435.44,-69.23"/>
<polygon fill="#63b8ff" stroke="#63b8ff" points="433.76,-72.32 444.33,-72.98 436.48,-65.87 433.76,-72.32"/>
</a>
</g>
</g>
<!-- Node17 -->
<g id="Node000017" class="node">
<title>Node17</title>
<g id="a_Node000017"><a xlink:href="group___noah_m_p___l_s_m_gaffab2571eaa0a1c94d971a5344c8a109.html#gaffab2571eaa0a1c94d971a5344c8a109" target="_top" xlink:title="calculate soil water diffusivity and soil hydraulic conductivity.">
<polygon fill="white" stroke="#666666" points="497,-56.25 444.25,-56.25 444.25,-37 497,-37 497,-56.25"/>
<text xml:space="preserve" text-anchor="middle" x="470.62" y="-42.75" font-family="Source Sans Pro" font-size="10.00">wdfcnd1</text>
</a>
</g>
</g>
<!-- Node16&#45;&gt;Node17 -->
<g id="edge18_Node000016_Node000017" class="edge">
<title>Node16&#45;&gt;Node17</title>
<g id="a_edge18_Node000016_Node000017"><a xlink:title=" ">
<path fill="none" stroke="#63b8ff" d="M395.48,-46.62C405.49,-46.62 419.54,-46.62 432.73,-46.62"/>
<polygon fill="#63b8ff" stroke="#63b8ff" points="432.46,-50.13 442.46,-46.63 432.46,-43.13 432.46,-50.13"/>
</a>
</g>
</g>
<!-- Node19 -->
<g id="Node000019" class="node">
<title>Node19</title>
<g id="a_Node000019"><a xlink:href="group___noah_m_p___l_s_m_ga7a305dbb6a9210b227ee310c71f30fd9.html#ga7a305dbb6a9210b227ee310c71f30fd9" target="_top" xlink:title="solve the tri&#45;diagonal matrix equation">
<polygon fill="white" stroke="#666666" points="492.12,-19.25 449.12,-19.25 449.12,0 492.12,0 492.12,-19.25"/>
<text xml:space="preserve" text-anchor="middle" x="470.62" y="-5.75" font-family="Source Sans Pro" font-size="10.00">rosr12</text>
</a>
</g>
</g>
<!-- Node18&#45;&gt;Node19 -->
<g id="edge21_Node000018_Node000019" class="edge">
<title>Node18&#45;&gt;Node19</title>
<g id="a_edge21_Node000018_Node000019"><a xlink:title=" ">
<path fill="none" stroke="#63b8ff" d="M400.82,-9.62C411.53,-9.62 425.18,-9.62 437.49,-9.62"/>
<polygon fill="#63b8ff" stroke="#63b8ff" points="437.24,-13.13 447.24,-9.63 437.24,-6.13 437.24,-13.13"/>
</a>
</g>
</g>
</g>
</svg>
