<?xml version="1.0" encoding="UTF-8" standalone="no"?>
<!DOCTYPE svg PUBLIC "-//W3C//DTD SVG 1.1//EN"
 "http://www.w3.org/Graphics/SVG/1.1/DTD/svg11.dtd">
<!-- Generated by graphviz version 14.1.2 (20260124.0452)
 -->
<!-- Title: mp_tempo::mp_tempo_init Pages: 1 -->
<svg width="297pt" height="57pt"
 viewBox="0.00 0.00 297.00 57.00" xmlns="http://www.w3.org/2000/svg" xmlns:xlink="http://www.w3.org/1999/xlink">
<g id="graph0" class="graph" transform="scale(1 1) rotate(0) translate(4 52.5)">
<title>mp_tempo::mp_tempo_init</title>
<!-- Node1 -->
<g id="Node000001" class="node">
<title>Node1</title>
<g id="a_Node000001"><a xlink:title="This subroutine is a wrapper around the actual tempo_init().">
<polygon fill="#999999" stroke="#666666" points="131.5,-24.88 0,-24.88 0,-5.63 131.5,-5.63 131.5,-24.88"/>
<text xml:space="preserve" text-anchor="middle" x="65.75" y="-11.38" font-family="Source Sans Pro" font-size="10.00">mp_tempo::mp_tempo_init</text>
</a>
</g>
</g>
<!-- Node2 -->
<g id="Node000002" class="node">
<title>Node2</title>
<g id="a_Node000002"><a xlink:href="group__aathompson_gab812a9b110a35fdb5f5361322242990f.html#gab812a9b110a35fdb5f5361322242990f" target="_top" xlink:title="Table of lookup values of radiative effective radius of ice crystals as a function of Temperature fro...">
<polygon fill="white" stroke="#666666" points="289.25,-30.5 167.5,-30.5 167.5,0 289.25,0 289.25,-30.5"/>
<text xml:space="preserve" text-anchor="start" x="175.5" y="-17" font-family="Source Sans Pro" font-size="10.00">module_mp_tempo_utils</text>
<text xml:space="preserve" text-anchor="middle" x="228.38" y="-5.75" font-family="Source Sans Pro" font-size="10.00">::make_icenumber</text>
</a>
</g>
</g>
<!-- Node1&#45;&gt;Node2 -->
<g id="edge1_Node000001_Node000002" class="edge">
<title>Node1&#45;&gt;Node2</title>
<g id="a_edge1_Node000001_Node000002"><a xlink:title=" ">
<path fill="none" stroke="#63b8ff" d="M131.62,-15.25C139.61,-15.25 147.81,-15.25 155.89,-15.25"/>
<polygon fill="#63b8ff" stroke="#63b8ff" points="155.69,-18.75 165.69,-15.25 155.69,-11.75 155.69,-18.75"/>
</a>
</g>
</g>
<!-- Node2&#45;&gt;Node2 -->
<g id="edge2_Node000002_Node000002" class="edge">
<title>Node2&#45;&gt;Node2</title>
<g id="a_edge2_Node000002_Node000002"><a xlink:title=" ">
<path fill="none" stroke="#63b8ff" d="M199.56,-30.99C193.68,-40.06 203.28,-48.5 228.38,-48.5 242.1,-48.5 251.19,-45.97 255.65,-42.2"/>
<polygon fill="#63b8ff" stroke="#63b8ff" points="259.09,-42.87 256.99,-32.49 252.15,-41.91 259.09,-42.87"/>
</a>
</g>
</g>
</g>
</svg>
