<?xml version="1.0" encoding="UTF-8" standalone="no"?>
<!DOCTYPE svg PUBLIC "-//W3C//DTD SVG 1.1//EN"
 "http://www.w3.org/Graphics/SVG/1.1/DTD/svg11.dtd">
<!-- Generated by graphviz version 14.1.2 (20260124.0452)
 -->
<!-- Title: fv_sat_adj::fv_sat_adj_init Pages: 1 -->
<svg width="249pt" height="101pt"
 viewBox="0.00 0.00 249.00 101.00" xmlns="http://www.w3.org/2000/svg" xmlns:xlink="http://www.w3.org/1999/xlink">
<g id="graph0" class="graph" transform="scale(1 1) rotate(0) translate(4 97.25)">
<title>fv_sat_adj::fv_sat_adj_init</title>
<!-- Node1 -->
<g id="Node000001" class="node">
<title>Node1</title>
<g id="a_Node000001"><a xlink:title="The subroutine &#39;fv_sat_adj_init&#39; initializes lookup tables for the saturation mixing ratio.">
<polygon fill="#999999" stroke="#666666" points="94,-61.88 0,-61.88 0,-31.38 94,-31.38 94,-61.88"/>
<text xml:space="preserve" text-anchor="start" x="8" y="-48.38" font-family="Source Sans Pro" font-size="10.00">fv_sat_adj::fv_sat</text>
<text xml:space="preserve" text-anchor="middle" x="47" y="-37.12" font-family="Source Sans Pro" font-size="10.00">_adj_init</text>
</a>
</g>
</g>
<!-- Node2 -->
<g id="Node000002" class="node">
<title>Node2</title>
<g id="a_Node000002"><a xlink:href="group__fast__sat__adj_ga27dc8914ed7693b0639361ffb12cf6e3.html#ga27dc8914ed7693b0639361ffb12cf6e3" target="_top" xlink:title="saturation water vapor pressure table i">
<polygon fill="white" stroke="#666666" points="237.5,-93.25 133.75,-93.25 133.75,-74 237.5,-74 237.5,-93.25"/>
<text xml:space="preserve" text-anchor="middle" x="185.62" y="-79.75" font-family="Source Sans Pro" font-size="10.00">fv_sat_adj::qs_table</text>
</a>
</g>
</g>
<!-- Node1&#45;&gt;Node2 -->
<g id="edge1_Node000001_Node000002" class="edge">
<title>Node1&#45;&gt;Node2</title>
<g id="a_edge1_Node000001_Node000002"><a xlink:title=" ">
<path fill="none" stroke="#63b8ff" d="M94.25,-59.15C107.94,-62.86 122.94,-66.92 136.73,-70.65"/>
<polygon fill="#63b8ff" stroke="#63b8ff" points="135.44,-73.93 146.01,-73.17 137.27,-67.18 135.44,-73.93"/>
</a>
</g>
</g>
<!-- Node3 -->
<g id="Node000003" class="node">
<title>Node3</title>
<g id="a_Node000003"><a xlink:href="group__fast__sat__adj_ga5aebabb829bc1434708a0e79284ddcd1.html#ga5aebabb829bc1434708a0e79284ddcd1" target="_top" xlink:title="saturation water vapor pressure table iii.">
<polygon fill="white" stroke="#666666" points="240.12,-56.25 131.12,-56.25 131.12,-37 240.12,-37 240.12,-56.25"/>
<text xml:space="preserve" text-anchor="middle" x="185.62" y="-42.75" font-family="Source Sans Pro" font-size="10.00">fv_sat_adj::qs_table2</text>
</a>
</g>
</g>
<!-- Node1&#45;&gt;Node3 -->
<g id="edge2_Node000001_Node000003" class="edge">
<title>Node1&#45;&gt;Node3</title>
<g id="a_edge2_Node000001_Node000003"><a xlink:title=" ">
<path fill="none" stroke="#63b8ff" d="M94.25,-46.62C102.34,-46.62 110.9,-46.62 119.39,-46.62"/>
<polygon fill="#63b8ff" stroke="#63b8ff" points="119.36,-50.13 129.36,-46.63 119.36,-43.13 119.36,-50.13"/>
</a>
</g>
</g>
<!-- Node4 -->
<g id="Node000004" class="node">
<title>Node4</title>
<g id="a_Node000004"><a xlink:href="group__fast__sat__adj_ga3b4d9182f5c5163995e44095cbb43fd4.html#ga3b4d9182f5c5163995e44095cbb43fd4" target="_top" xlink:title="saturation water vapor pressure table ii.">
<polygon fill="white" stroke="#666666" points="241.25,-19.25 130,-19.25 130,0 241.25,0 241.25,-19.25"/>
<text xml:space="preserve" text-anchor="middle" x="185.62" y="-5.75" font-family="Source Sans Pro" font-size="10.00">fv_sat_adj::qs_tablew</text>
</a>
</g>
</g>
<!-- Node1&#45;&gt;Node4 -->
<g id="edge3_Node000001_Node000004" class="edge">
<title>Node1&#45;&gt;Node4</title>
<g id="a_edge3_Node000001_Node000004"><a xlink:title=" ">
<path fill="none" stroke="#63b8ff" d="M94.25,-34.1C107.94,-30.39 122.94,-26.33 136.73,-22.6"/>
<polygon fill="#63b8ff" stroke="#63b8ff" points="137.27,-26.07 146.01,-20.08 135.44,-19.32 137.27,-26.07"/>
</a>
</g>
</g>
</g>
</svg>
