<?xml version="1.0" encoding="UTF-8" standalone="no"?>
<!DOCTYPE svg PUBLIC "-//W3C//DTD SVG 1.1//EN"
 "http://www.w3.org/Graphics/SVG/1.1/DTD/svg11.dtd">
<!-- Generated by graphviz version 14.1.2 (20260124.0452)
 -->
<!-- Title: clm_lake::clm_lake_run Pages: 1 -->
<svg width="324pt" height="175pt"
 viewBox="0.00 0.00 324.00 175.00" xmlns="http://www.w3.org/2000/svg" xmlns:xlink="http://www.w3.org/1999/xlink">
<g id="graph0" class="graph" transform="scale(1 1) rotate(0) translate(4 171.25)">
<title>clm_lake::clm_lake_run</title>
<!-- Node1 -->
<g id="Node000001" class="node">
<title>Node1</title>
<g id="a_Node000001"><a xlink:title=" ">
<polygon fill="#999999" stroke="#666666" points="118.75,-93.25 0,-93.25 0,-74 118.75,-74 118.75,-93.25"/>
<text xml:space="preserve" text-anchor="middle" x="59.38" y="-79.75" font-family="Source Sans Pro" font-size="10.00">clm_lake::clm_lake_run</text>
</a>
</g>
</g>
<!-- Node2 -->
<g id="Node000002" class="node">
<title>Node2</title>
<g id="a_Node000002"><a xlink:href="group___noah_m_p___l_s_m_ga9d5adb20aca5b72a7e126136088e20d1.html#ga9d5adb20aca5b72a7e126136088e20d1" target="_top" xlink:title="surface albedos. also fluxes (per unit incoming direct and diffuse radiation) reflected,...">
<polygon fill="white" stroke="#666666" points="199.25,-93.25 154.75,-93.25 154.75,-74 199.25,-74 199.25,-93.25"/>
<text xml:space="preserve" text-anchor="middle" x="177" y="-79.75" font-family="Source Sans Pro" font-size="10.00">albedo</text>
</a>
</g>
</g>
<!-- Node1&#45;&gt;Node2 -->
<g id="edge1_Node000001_Node000002" class="edge">
<title>Node1&#45;&gt;Node2</title>
<g id="a_edge1_Node000001_Node000002"><a xlink:title=" ">
<path fill="none" stroke="#63b8ff" d="M119.2,-83.62C127.38,-83.62 135.53,-83.62 142.99,-83.62"/>
<polygon fill="#63b8ff" stroke="#63b8ff" points="142.92,-87.13 152.92,-83.63 142.92,-80.13 142.92,-87.13"/>
</a>
</g>
</g>
<!-- Node3 -->
<g id="Node000003" class="node">
<title>Node3</title>
<g id="a_Node000003"><a xlink:href="group___noah_m_p___l_s_m_ga497b40d27709666f17da3e555f8628a1.html#ga497b40d27709666f17da3e555f8628a1" target="_top" xlink:title="ground surface albedo">
<polygon fill="white" stroke="#666666" points="304.5,-167.25 246.5,-167.25 246.5,-148 304.5,-148 304.5,-167.25"/>
<text xml:space="preserve" text-anchor="middle" x="275.5" y="-153.75" font-family="Source Sans Pro" font-size="10.00">groundalb</text>
</a>
</g>
</g>
<!-- Node2&#45;&gt;Node3 -->
<g id="edge2_Node000002_Node000003" class="edge">
<title>Node2&#45;&gt;Node3</title>
<g id="a_edge2_Node000002_Node000003"><a xlink:title=" ">
<path fill="none" stroke="#63b8ff" d="M186.08,-93.38C196.47,-105.46 215.54,-126.08 235.25,-139.62 236.6,-140.55 238.01,-141.46 239.45,-142.33"/>
<polygon fill="#63b8ff" stroke="#63b8ff" points="237.5,-145.25 247.97,-146.92 240.82,-139.09 237.5,-145.25"/>
</a>
</g>
</g>
<!-- Node4 -->
<g id="Node000004" class="node">
<title>Node4</title>
<g id="a_Node000004"><a xlink:href="group___noah_m_p___l_s_m_ga748c587c5dc0a38a1793042e92952d43.html#ga748c587c5dc0a38a1793042e92952d43" target="_top" xlink:title=" ">
<polygon fill="white" stroke="#666666" points="305.62,-130.25 245.38,-130.25 245.38,-111 305.62,-111 305.62,-130.25"/>
<text xml:space="preserve" text-anchor="middle" x="275.5" y="-116.75" font-family="Source Sans Pro" font-size="10.00">snow_age</text>
</a>
</g>
</g>
<!-- Node2&#45;&gt;Node4 -->
<g id="edge3_Node000002_Node000004" class="edge">
<title>Node2&#45;&gt;Node4</title>
<g id="a_edge3_Node000002_Node000004"><a xlink:title=" ">
<path fill="none" stroke="#63b8ff" d="M199.42,-91.84C210.7,-96.16 224.84,-101.59 237.81,-106.56"/>
<polygon fill="#63b8ff" stroke="#63b8ff" points="236.33,-109.74 246.92,-110.05 238.83,-103.2 236.33,-109.74"/>
</a>
</g>
</g>
<!-- Node5 -->
<g id="Node000005" class="node">
<title>Node5</title>
<g id="a_Node000005"><a xlink:href="group___noah_m_p___l_s_m_ga238debe3053962b0b33a5e846e333701.html#ga238debe3053962b0b33a5e846e333701" target="_top" xlink:title="bats snow surface albedo">
<polygon fill="white" stroke="#666666" points="313.5,-93.25 237.5,-93.25 237.5,-74 313.5,-74 313.5,-93.25"/>
<text xml:space="preserve" text-anchor="middle" x="275.5" y="-79.75" font-family="Source Sans Pro" font-size="10.00">snowalb_bats</text>
</a>
</g>
</g>
<!-- Node2&#45;&gt;Node5 -->
<g id="edge4_Node000002_Node000005" class="edge">
<title>Node2&#45;&gt;Node5</title>
<g id="a_edge4_Node000002_Node000005"><a xlink:title=" ">
<path fill="none" stroke="#63b8ff" d="M199.42,-83.62C207.31,-83.62 216.61,-83.62 225.93,-83.62"/>
<polygon fill="#63b8ff" stroke="#63b8ff" points="225.69,-87.13 235.69,-83.63 225.69,-80.13 225.69,-87.13"/>
</a>
</g>
</g>
<!-- Node6 -->
<g id="Node000006" class="node">
<title>Node6</title>
<g id="a_Node000006"><a xlink:href="group___noah_m_p___l_s_m_ga2ea2346edd6f426f30dcc99085def5cf.html#ga2ea2346edd6f426f30dcc99085def5cf" target="_top" xlink:title="class snow surface albedo">
<polygon fill="white" stroke="#666666" points="315.75,-56.25 235.25,-56.25 235.25,-37 315.75,-37 315.75,-56.25"/>
<text xml:space="preserve" text-anchor="middle" x="275.5" y="-42.75" font-family="Source Sans Pro" font-size="10.00">snowalb_class</text>
</a>
</g>
</g>
<!-- Node2&#45;&gt;Node6 -->
<g id="edge5_Node000002_Node000006" class="edge">
<title>Node2&#45;&gt;Node6</title>
<g id="a_edge5_Node000002_Node000006"><a xlink:title=" ">
<path fill="none" stroke="#63b8ff" d="M199.42,-75.41C210.7,-71.09 224.84,-65.66 237.81,-60.69"/>
<polygon fill="#63b8ff" stroke="#63b8ff" points="238.83,-64.05 246.92,-57.2 236.33,-57.51 238.83,-64.05"/>
</a>
</g>
</g>
<!-- Node7 -->
<g id="Node000007" class="node">
<title>Node7</title>
<g id="a_Node000007"><a xlink:href="group___noah_m_p___l_s_m_gaa737a61978bde4dc6363e11263999769.html#gaa737a61978bde4dc6363e11263999769" target="_top" xlink:title="use two&#45;stream approximation of Dickinson (1983) adv geophysics 25: 305&#45;353 and sellers (1985) int j ...">
<polygon fill="white" stroke="#666666" points="306.38,-19.25 244.62,-19.25 244.62,0 306.38,0 306.38,-19.25"/>
<text xml:space="preserve" text-anchor="middle" x="275.5" y="-5.75" font-family="Source Sans Pro" font-size="10.00">twostream</text>
</a>
</g>
</g>
<!-- Node2&#45;&gt;Node7 -->
<g id="edge6_Node000002_Node000007" class="edge">
<title>Node2&#45;&gt;Node7</title>
<g id="a_edge6_Node000002_Node000007"><a xlink:title=" ">
<path fill="none" stroke="#63b8ff" d="M186.08,-73.87C196.47,-61.79 215.54,-41.17 235.25,-27.62 236.6,-26.7 238.01,-25.79 239.45,-24.92"/>
<polygon fill="#63b8ff" stroke="#63b8ff" points="240.82,-28.16 247.97,-20.33 237.5,-22 240.82,-28.16"/>
</a>
</g>
</g>
</g>
</svg>
