<?xml version="1.0" encoding="UTF-8" standalone="no"?>
<!DOCTYPE svg PUBLIC "-//W3C//DTD SVG 1.1//EN"
 "http://www.w3.org/Graphics/SVG/1.1/DTD/svg11.dtd">
<!-- Generated by graphviz version 14.1.2 (20260124.0452)
 -->
<!-- Title: lsm_ruc::lsm_ruc_run Pages: 1 -->
<!--zoomable 313 -->

<svg id="main" version="1.1" xmlns="http://www.w3.org/2000/svg" xmlns:xlink="http://www.w3.org/1999/xlink" xml:space="preserve" onload="init(evt)">

<style type="text/css"><![CDATA[
.node, .edge {opacity: 0.7;}
.node.selected, .edge.selected {opacity: 1;}
.edge:hover path { stroke: red; }
.edge:hover polygon { stroke: red; fill: red; }
]]></style>

<defs>
  <circle id="rim" cx="0" cy="0" r="7"/>
  <circle id="rim2" cx="0" cy="0" r="3.5"/>
  <g id="zoomPlus">
    <use xlink:href="#rim" fill="#404040"><set attributeName="fill" to="#808080" begin="zoomplus.mouseover" end="zoomplus.mouseout"/></use>
    <path d="M-4,0h8M0,-4v8" fill="none" stroke="white" stroke-width="1.5" pointer-events="none"/>
  </g>
  <g id="zoomMin">
    <use xlink:href="#rim" fill="#404040"><set attributeName="fill" to="#808080" begin="zoomminus.mouseover" end="zoomminus.mouseout"/></use>
    <path d="M-4,0h8" fill="none" stroke="white" stroke-width="1.5" pointer-events="none"/>
  </g>
  <g id="arrowUp" transform="translate(30 24)">
    <use xlink:href="#rim"/>
    <path pointer-events="none" fill="none" stroke="white" stroke-width="1.5" d="M0,-3.0v7 M-2.5,-0.5L0,-3.0L2.5,-0.5"/>
  </g>
  <g id="arrowRight" transform="rotate(90) translate(36 -43)">
    <use xlink:href="#rim"/>
    <path pointer-events="none" fill="none" stroke="white" stroke-width="1.5" d="M0,-3.0v7 M-2.5,-0.5L0,-3.0L2.5,-0.5"/>
  </g>
  <g id="arrowDown" transform="rotate(180) translate(-30 -48)">
    <use xlink:href="#rim"/>
    <path pointer-events="none" fill="none" stroke="white" stroke-width="1.5" d="M0,-3.0v7 M-2.5,-0.5L0,-3.0L2.5,-0.5"/>
  </g>
  <g id="arrowLeft" transform="rotate(270) translate(-36 17)">
    <use xlink:href="#rim"/>
    <path pointer-events="none" fill="none" stroke="white" stroke-width="1.5" d="M0,-3.0v7 M-2.5,-0.5L0,-3.0L2.5,-0.5"/>
  </g>
  <g id="resetDef">
    <use xlink:href="#rim2" fill="#404040"><set attributeName="fill" to="#808080" begin="reset.mouseover" end="reset.mouseout"/></use>
  </g>
</defs>
<script type="application/ecmascript">
var viewWidth = 983;
var viewHeight = 313;
var sectionId = 'dynsection-0';
</script>
<script type="application/ecmascript" xlink:href="svg.min.js"/>
<svg id="graph" class="graph">
<g id="viewport">
<title>lsm_ruc::lsm_ruc_run</title>
<!-- Node1 -->
<g id="Node000001" class="node">
<title>Node1</title>
<g id="a_Node000001"><a xlink:title=" ">
<polygon fill="#999999" stroke="#666666" points="109.75,-195.04 0,-195.04 0,-175.79 109.75,-175.79 109.75,-195.04"/>
<text xml:space="preserve" text-anchor="middle" x="54.88" y="-181.54" font-family="Source Sans Pro" font-size="10.00">lsm_ruc::lsm_ruc_run</text>
</a>
</g>
</g>
<!-- Node2 -->
<g id="Node000002" class="node">
<title>Node2</title>
<g id="a_Node000002"><a xlink:href="group__lsm__ruc__group_ga919051c947b9bd7272399d4b681ba2a8.html#ga919051c947b9bd7272399d4b681ba2a8" target="_top" xlink:title="The RUN LSM model is described in Smirnova et al.(1997) smirnova_1997 and Smirnova et al....">
<polygon fill="white" stroke="#666666" points="276.5,-256.04 145.75,-256.04 145.75,-236.79 276.5,-236.79 276.5,-256.04"/>
<text xml:space="preserve" text-anchor="middle" x="211.12" y="-242.54" font-family="Source Sans Pro" font-size="10.00">module_sf_ruclsm::lsmruc</text>
</a>
</g>
</g>
<!-- Node1&#45;&gt;Node2 -->
<g id="edge1_Node000001_Node000002" class="edge">
<title>Node1&#45;&gt;Node2</title>
<g id="a_edge1_Node000001_Node000002"><a xlink:title=" ">
<path fill="none" stroke="#63b8ff" d="M81.35,-195.48C106.69,-205.51 145.8,-220.97 174.28,-232.23"/>
<polygon fill="#63b8ff" stroke="#63b8ff" points="172.62,-235.34 183.21,-235.77 175.2,-228.83 172.62,-235.34"/>
</a>
</g>
</g>
<!-- Node4 -->
<g id="Node000004" class="node">
<title>Node4</title>
<g id="a_Node000004"><a xlink:href="group__lsm__ruc__group_gad9dd50472f87539dfaccb42d5495f831.html#gad9dd50472f87539dfaccb42d5495f831" target="_top" xlink:title="This subroutine solves energy and moisture budgets.">
<polygon fill="white" stroke="#666666" points="448.12,-183.04 316.62,-183.04 316.62,-163.79 448.12,-163.79 448.12,-183.04"/>
<text xml:space="preserve" text-anchor="middle" x="382.38" y="-169.54" font-family="Source Sans Pro" font-size="10.00">module_sf_ruclsm::sfctmp</text>
</a>
</g>
</g>
<!-- Node1&#45;&gt;Node4 -->
<g id="edge26_Node000001_Node000004" class="edge">
<title>Node1&#45;&gt;Node4</title>
<g id="a_edge26_Node000001_Node000004"><a xlink:title=" ">
<path fill="none" stroke="#63b8ff" d="M109.99,-183.42C163.23,-181.45 245.02,-178.44 304.9,-176.23"/>
<polygon fill="#63b8ff" stroke="#63b8ff" points="304.81,-179.74 314.67,-175.87 304.55,-172.74 304.81,-179.74"/>
</a>
</g>
</g>
<!-- Node16 -->
<g id="Node000016" class="node">
<title>Node16</title>
<g id="a_Node000016"><a xlink:href="group__lsm__ruc__group_ga62018adea7e0870cfadb6377991c29e1.html#ga62018adea7e0870cfadb6377991c29e1" target="_top" xlink:title="This function calculates the liquid saturation vapor mixing ratio as a function of temperature and pr...">
<polygon fill="white" stroke="#666666" points="268.62,-139.04 153.62,-139.04 153.62,-119.79 268.62,-119.79 268.62,-139.04"/>
<text xml:space="preserve" text-anchor="middle" x="211.12" y="-125.54" font-family="Source Sans Pro" font-size="10.00">module_sf_ruclsm::rslf</text>
</a>
</g>
</g>
<!-- Node1&#45;&gt;Node16 -->
<g id="edge24_Node000001_Node000016" class="edge">
<title>Node1&#45;&gt;Node16</title>
<g id="a_edge24_Node000001_Node000016"><a xlink:title=" ">
<path fill="none" stroke="#63b8ff" d="M83.45,-175.4C107.98,-166.5 144.09,-153.38 171.49,-143.44"/>
<polygon fill="#63b8ff" stroke="#63b8ff" points="172.64,-146.74 180.84,-140.04 170.25,-140.16 172.64,-146.74"/>
</a>
</g>
</g>
<!-- Node3 -->
<g id="Node000003" class="node">
<title>Node3</title>
<g id="a_Node000003"><a xlink:href="group__lsm__ruc__group_ga0892c4c726f23c4e4c8317efd197c208.html#ga0892c4c726f23c4e4c8317efd197c208" target="_top" xlink:title="This function computes water vapor mixing ratio at saturation from the precomputed table and a given ...">
<polygon fill="white" stroke="#666666" points="972.75,-229.04 855.5,-229.04 855.5,-209.79 972.75,-209.79 972.75,-229.04"/>
<text xml:space="preserve" text-anchor="middle" x="914.12" y="-215.54" font-family="Source Sans Pro" font-size="10.00">module_sf_ruclsm::qsn</text>
</a>
</g>
</g>
<!-- Node2&#45;&gt;Node3 -->
<g id="edge2_Node000002_Node000003" class="edge">
<title>Node2&#45;&gt;Node3</title>
<g id="a_edge2_Node000002_Node000003"><a xlink:title=" ">
<path fill="none" stroke="#63b8ff" d="M276.83,-249.41C387.79,-253.69 621.33,-258.95 817.25,-238.41 831.09,-236.96 845.91,-234.49 859.65,-231.8"/>
<polygon fill="#63b8ff" stroke="#63b8ff" points="860.32,-235.24 869.42,-229.81 858.92,-228.38 860.32,-235.24"/>
</a>
</g>
</g>
<!-- Node2&#45;&gt;Node4 -->
<g id="edge4_Node000002_Node000004" class="edge">
<title>Node2&#45;&gt;Node4</title>
<g id="a_edge4_Node000002_Node000004"><a xlink:title=" ">
<path fill="none" stroke="#63b8ff" d="M235.3,-236.41C264.39,-223.87 314.48,-202.27 347.76,-187.91"/>
<polygon fill="#63b8ff" stroke="#63b8ff" points="348.75,-191.3 356.54,-184.12 345.97,-184.87 348.75,-191.3"/>
</a>
</g>
</g>
<!-- Node15 -->
<g id="Node000015" class="node">
<title>Node15</title>
<g id="a_Node000015"><a xlink:href="group__lsm__ruc__group_ga9dd427d384ba72540370a326059e1dc3.html#ga9dd427d384ba72540370a326059e1dc3" target="_top" xlink:title="This subroutine computes effective land and soil parameters in the grid cell from the weighted contri...">
<polygon fill="white" stroke="#666666" points="452.25,-305.04 312.5,-305.04 312.5,-285.79 452.25,-285.79 452.25,-305.04"/>
<text xml:space="preserve" text-anchor="middle" x="382.38" y="-291.54" font-family="Source Sans Pro" font-size="10.00">module_sf_ruclsm::soilvegin</text>
</a>
</g>
</g>
<!-- Node2&#45;&gt;Node15 -->
<g id="edge23_Node000002_Node000015" class="edge">
<title>Node2&#45;&gt;Node15</title>
<g id="a_edge23_Node000002_Node000015"><a xlink:title=" ">
<path fill="none" stroke="#63b8ff" d="M246.78,-256.45C272.48,-263.89 307.76,-274.1 335.75,-282.2"/>
<polygon fill="#63b8ff" stroke="#63b8ff" points="334.44,-285.47 345.02,-284.89 336.39,-278.74 334.44,-285.47"/>
</a>
</g>
</g>
<!-- Node3&#45;&gt;Node3 -->
<g id="edge3_Node000003_Node000003" class="edge">
<title>Node3&#45;&gt;Node3</title>
<g id="a_edge3_Node000003_Node000003"><a xlink:title=" ">
<path fill="none" stroke="#63b8ff" d="M886.96,-229.32C874.57,-237.93 883.63,-247.04 914.12,-247.04 931.28,-247.04 941.65,-244.16 945.24,-240.1"/>
<polygon fill="#63b8ff" stroke="#63b8ff" points="948.53,-238.93 941.81,-230.75 941.96,-241.34 948.53,-238.93"/>
</a>
</g>
</g>
<!-- Node5 -->
<g id="Node000005" class="node">
<title>Node5</title>
<g id="a_Node000005"><a xlink:href="group__lsm__ruc__group_ga272369b99aa473b1f4faed9fd3fe17fe.html#ga272369b99aa473b1f4faed9fd3fe17fe" target="_top" xlink:title="This subroutine is called for sea ice without accumulated snow on its surface. it solves heat diffusi...">
<polygon fill="white" stroke="#666666" points="617.88,-44.04 498.38,-44.04 498.38,-24.79 617.88,-24.79 617.88,-44.04"/>
<text xml:space="preserve" text-anchor="middle" x="558.12" y="-30.54" font-family="Source Sans Pro" font-size="10.00">module_sf_ruclsm::sice</text>
</a>
</g>
</g>
<!-- Node4&#45;&gt;Node5 -->
<g id="edge5_Node000004_Node000005" class="edge">
<title>Node4&#45;&gt;Node5</title>
<g id="a_edge5_Node000004_Node000005"><a xlink:title=" ">
<path fill="none" stroke="#63b8ff" d="M395.96,-163.32C415.64,-147.54 454.91,-116.07 488.25,-89.41 504.27,-76.6 522.4,-62.12 536.04,-51.24"/>
<polygon fill="#63b8ff" stroke="#63b8ff" points="537.86,-54.26 543.5,-45.29 533.5,-48.79 537.86,-54.26"/>
</a>
</g>
</g>
<!-- Node7 -->
<g id="Node000007" class="node">
<title>Node7</title>
<g id="a_Node000007"><a xlink:href="group__lsm__ruc__group_ga59cfce62a9e7a8c642e767ea7548b7c9.html#ga59cfce62a9e7a8c642e767ea7548b7c9" target="_top" xlink:title="This subroutine is called for sea ice with accumulated snow on its surface. It solves energy budget o...">
<polygon fill="white" stroke="#666666" points="817.25,-229.04 664,-229.04 664,-209.79 817.25,-209.79 817.25,-229.04"/>
<text xml:space="preserve" text-anchor="middle" x="740.62" y="-215.54" font-family="Source Sans Pro" font-size="10.00">module_sf_ruclsm::snowseaice</text>
</a>
</g>
</g>
<!-- Node4&#45;&gt;Node7 -->
<g id="edge7_Node000004_Node000007" class="edge">
<title>Node4&#45;&gt;Node7</title>
<g id="a_edge7_Node000004_Node000007"><a xlink:title=" ">
<path fill="none" stroke="#63b8ff" d="M448.3,-181.8C505.57,-189.19 589.5,-200.03 652.58,-208.17"/>
<polygon fill="#63b8ff" stroke="#63b8ff" points="651.84,-211.61 662.21,-209.42 652.74,-204.66 651.84,-211.61"/>
</a>
</g>
</g>
<!-- Node8 -->
<g id="Node000008" class="node">
<title>Node8</title>
<g id="a_Node000008"><a xlink:href="group__lsm__ruc__group_gaecd085e0caf317dfb807e576fd426dec.html#gaecd085e0caf317dfb807e576fd426dec" target="_top" xlink:title="This subroutine is called for snow covered areas of land. It solves energy and moisture budgets on th...">
<polygon fill="white" stroke="#666666" points="628,-155.04 488.25,-155.04 488.25,-135.79 628,-135.79 628,-155.04"/>
<text xml:space="preserve" text-anchor="middle" x="558.12" y="-141.54" font-family="Source Sans Pro" font-size="10.00">module_sf_ruclsm::snowsoil</text>
</a>
</g>
</g>
<!-- Node4&#45;&gt;Node8 -->
<g id="edge10_Node000004_Node000008" class="edge">
<title>Node4&#45;&gt;Node8</title>
<g id="a_edge10_Node000004_Node000008"><a xlink:title=" ">
<path fill="none" stroke="#63b8ff" d="M446.1,-163.3C458.16,-161.36 470.89,-159.31 483.26,-157.32"/>
<polygon fill="#63b8ff" stroke="#63b8ff" points="483.68,-160.79 493,-155.75 482.57,-153.88 483.68,-160.79"/>
</a>
</g>
</g>
<!-- Node13 -->
<g id="Node000013" class="node">
<title>Node13</title>
<g id="a_Node000013"><a xlink:href="group__lsm__ruc__group_gaec10146a1f142cfc8ec2126fa1d54702.html#gaec10146a1f142cfc8ec2126fa1d54702" target="_top" xlink:title="This subroutine calculates energy and moisture budget for vegetated surfaces without snow,...">
<polygon fill="white" stroke="#666666" points="616.38,-118.04 499.88,-118.04 499.88,-98.79 616.38,-98.79 616.38,-118.04"/>
<text xml:space="preserve" text-anchor="middle" x="558.12" y="-104.54" font-family="Source Sans Pro" font-size="10.00">module_sf_ruclsm::soil</text>
</a>
</g>
</g>
<!-- Node4&#45;&gt;Node13 -->
<g id="edge17_Node000004_Node000013" class="edge">
<title>Node4&#45;&gt;Node13</title>
<g id="a_edge17_Node000004_Node000013"><a xlink:title=" ">
<path fill="none" stroke="#63b8ff" d="M403.08,-163.4C423.86,-153.11 457.76,-137.14 488.25,-126.41 493.04,-124.73 498.06,-123.12 503.12,-121.61"/>
<polygon fill="#63b8ff" stroke="#63b8ff" points="504.06,-124.98 512.72,-118.88 502.14,-118.25 504.06,-124.98"/>
</a>
</g>
</g>
<!-- Node6 -->
<g id="Node000006" class="node">
<title>Node6</title>
<g id="a_Node000006"><a xlink:href="group__lsm__ruc__group_ga03c426be3516bfb046dfd57c1b89dbbe.html#ga03c426be3516bfb046dfd57c1b89dbbe" target="_top" xlink:title="This subroutine finds the solution of energy budget at the surface from the pre&#45;computed table of sat...">
<polygon fill="white" stroke="#666666" points="975,-118.04 853.25,-118.04 853.25,-98.79 975,-98.79 975,-118.04"/>
<text xml:space="preserve" text-anchor="middle" x="914.12" y="-104.54" font-family="Source Sans Pro" font-size="10.00">module_sf_ruclsm::vilka</text>
</a>
</g>
</g>
<!-- Node5&#45;&gt;Node6 -->
<g id="edge6_Node000005_Node000006" class="edge">
<title>Node5&#45;&gt;Node6</title>
<g id="a_edge6_Node000005_Node000006"><a xlink:title=" ">
<path fill="none" stroke="#63b8ff" d="M587.52,-24.39C636.45,-8.8 738.96,16.32 817.25,-15.41 853.78,-30.22 884.06,-66.36 900.3,-88.98"/>
<polygon fill="#63b8ff" stroke="#63b8ff" points="897.31,-90.81 905.87,-97.05 903.07,-86.83 897.31,-90.81"/>
</a>
</g>
</g>
<!-- Node7&#45;&gt;Node3 -->
<g id="edge8_Node000007_Node000003" class="edge">
<title>Node7&#45;&gt;Node3</title>
<g id="a_edge8_Node000007_Node000003"><a xlink:title=" ">
<path fill="none" stroke="#63b8ff" d="M817.35,-219.41C826.14,-219.41 835.08,-219.41 843.79,-219.41"/>
<polygon fill="#63b8ff" stroke="#63b8ff" points="843.55,-222.91 853.55,-219.41 843.55,-215.91 843.55,-222.91"/>
</a>
</g>
</g>
<!-- Node7&#45;&gt;Node6 -->
<g id="edge9_Node000007_Node000006" class="edge">
<title>Node7&#45;&gt;Node6</title>
<g id="a_edge9_Node000007_Node000006"><a xlink:title=" ">
<path fill="none" stroke="#63b8ff" d="M798.63,-209.38C805.1,-207.22 811.45,-204.59 817.25,-201.41 851.3,-182.73 881.83,-148.69 898.87,-127.38"/>
<polygon fill="#63b8ff" stroke="#63b8ff" points="901.61,-129.56 904.99,-119.52 896.09,-125.26 901.61,-129.56"/>
</a>
</g>
</g>
<!-- Node9 -->
<g id="Node000009" class="node">
<title>Node9</title>
<g id="a_Node000009"><a xlink:href="group__lsm__ruc__group_ga204e4de9df89836cdda1dca1ee66d86c.html#ga204e4de9df89836cdda1dca1ee66d86c" target="_top" xlink:title="This subroutine solves energy bugdget equation and heat diffusion equation to obtain snow and soil te...">
<polygon fill="white" stroke="#666666" points="813.88,-192.04 667.38,-192.04 667.38,-172.79 813.88,-172.79 813.88,-192.04"/>
<text xml:space="preserve" text-anchor="middle" x="740.62" y="-178.54" font-family="Source Sans Pro" font-size="10.00">module_sf_ruclsm::snowtemp</text>
</a>
</g>
</g>
<!-- Node8&#45;&gt;Node9 -->
<g id="edge11_Node000008_Node000009" class="edge">
<title>Node8&#45;&gt;Node9</title>
<g id="a_edge11_Node000008_Node000009"><a xlink:title=" ">
<path fill="none" stroke="#63b8ff" d="M608.45,-155.52C630.33,-160.01 656.3,-165.33 679.32,-170.05"/>
<polygon fill="#63b8ff" stroke="#63b8ff" points="678.38,-173.43 688.88,-172.01 679.79,-166.57 678.38,-173.43"/>
</a>
</g>
</g>
<!-- Node10 -->
<g id="Node000010" class="node">
<title>Node10</title>
<g id="a_Node000010"><a xlink:href="group__lsm__ruc__group_ga278c9faad6ab598b60a3bf8c562e5a8a.html#ga278c9faad6ab598b60a3bf8c562e5a8a" target="_top" xlink:title="This subroutine solves moisture budget and computes soil moisture and surface and sub&#45;surface runoffs...">
<polygon fill="white" stroke="#666666" points="810.88,-155.04 670.38,-155.04 670.38,-135.79 810.88,-135.79 810.88,-155.04"/>
<text xml:space="preserve" text-anchor="middle" x="740.62" y="-141.54" font-family="Source Sans Pro" font-size="10.00">module_sf_ruclsm::soilmoist</text>
</a>
</g>
</g>
<!-- Node8&#45;&gt;Node10 -->
<g id="edge14_Node000008_Node000010" class="edge">
<title>Node8&#45;&gt;Node10</title>
<g id="a_edge14_Node000008_Node000010"><a xlink:title=" ">
<path fill="none" stroke="#63b8ff" d="M628.39,-145.41C638.29,-145.41 648.54,-145.41 658.64,-145.41"/>
<polygon fill="#63b8ff" stroke="#63b8ff" points="658.43,-148.91 668.43,-145.41 658.43,-141.91 658.43,-148.91"/>
</a>
</g>
</g>
<!-- Node11 -->
<g id="Node000011" class="node">
<title>Node11</title>
<g id="a_Node000011"><a xlink:href="group__lsm__ruc__group_ga53ef8a1d870ab8dab2cc31f456c6b3a5.html#ga53ef8a1d870ab8dab2cc31f456c6b3a5" target="_top" xlink:title="This subroutine computes thermal diffusivity, and diffusional and hydraulic condeuctivities in soil.">
<polygon fill="white" stroke="#666666" points="808.25,-118.04 673,-118.04 673,-98.79 808.25,-98.79 808.25,-118.04"/>
<text xml:space="preserve" text-anchor="middle" x="740.62" y="-104.54" font-family="Source Sans Pro" font-size="10.00">module_sf_ruclsm::soilprop</text>
</a>
</g>
</g>
<!-- Node8&#45;&gt;Node11 -->
<g id="edge15_Node000008_Node000011" class="edge">
<title>Node8&#45;&gt;Node11</title>
<g id="a_edge15_Node000008_Node000011"><a xlink:title=" ">
<path fill="none" stroke="#63b8ff" d="M608.45,-135.3C630.33,-130.81 656.3,-125.49 679.32,-120.77"/>
<polygon fill="#63b8ff" stroke="#63b8ff" points="679.79,-124.25 688.88,-118.81 678.38,-117.39 679.79,-124.25"/>
</a>
</g>
</g>
<!-- Node12 -->
<g id="Node000012" class="node">
<title>Node12</title>
<g id="a_Node000012"><a xlink:href="group__lsm__ruc__group_ga360e53dc48f6b38b3536375605199e96.html#ga360e53dc48f6b38b3536375605199e96" target="_top" xlink:title="This subroutine solves the transpiration function (EQs. 18,19 in Smirnova et al.(1997) smirnova_1997)...">
<polygon fill="white" stroke="#666666" points="803.75,-81.04 677.5,-81.04 677.5,-61.79 803.75,-61.79 803.75,-81.04"/>
<text xml:space="preserve" text-anchor="middle" x="740.62" y="-67.54" font-family="Source Sans Pro" font-size="10.00">module_sf_ruclsm::transf</text>
</a>
</g>
</g>
<!-- Node8&#45;&gt;Node12 -->
<g id="edge16_Node000008_Node000012" class="edge">
<title>Node8&#45;&gt;Node12</title>
<g id="a_edge16_Node000008_Node000012"><a xlink:title=" ">
<path fill="none" stroke="#63b8ff" d="M610.81,-135.31C616.81,-133.16 622.68,-130.56 628,-127.41 648.03,-115.57 643.85,-101.03 664,-89.41 666.32,-88.07 668.73,-86.84 671.21,-85.69"/>
<polygon fill="#63b8ff" stroke="#63b8ff" points="672.32,-89.02 680.29,-82.04 669.71,-82.52 672.32,-89.02"/>
</a>
</g>
</g>
<!-- Node9&#45;&gt;Node3 -->
<g id="edge12_Node000009_Node000003" class="edge">
<title>Node9&#45;&gt;Node3</title>
<g id="a_edge12_Node000009_Node000003"><a xlink:title=" ">
<path fill="none" stroke="#63b8ff" d="M788.49,-192.52C809.09,-196.97 833.5,-202.23 855.23,-206.92"/>
<polygon fill="#63b8ff" stroke="#63b8ff" points="854.33,-210.31 864.84,-208.99 855.8,-203.46 854.33,-210.31"/>
</a>
</g>
</g>
<!-- Node9&#45;&gt;Node6 -->
<g id="edge13_Node000009_Node000006" class="edge">
<title>Node9&#45;&gt;Node6</title>
<g id="a_edge13_Node000009_Node000006"><a xlink:title=" ">
<path fill="none" stroke="#63b8ff" d="M793.11,-172.32C801.31,-170.1 809.61,-167.47 817.25,-164.41 843.37,-153.94 870.87,-137.21 889.69,-124.75"/>
<polygon fill="#63b8ff" stroke="#63b8ff" points="891.6,-127.69 897.93,-119.19 887.69,-121.88 891.6,-127.69"/>
</a>
</g>
</g>
<!-- Node13&#45;&gt;Node10 -->
<g id="edge18_Node000013_Node000010" class="edge">
<title>Node13&#45;&gt;Node10</title>
<g id="a_edge18_Node000013_Node000010"><a xlink:title=" ">
<path fill="none" stroke="#63b8ff" d="M608.45,-118.52C630.33,-123.01 656.3,-128.33 679.32,-133.05"/>
<polygon fill="#63b8ff" stroke="#63b8ff" points="678.38,-136.43 688.88,-135.01 679.79,-129.57 678.38,-136.43"/>
</a>
</g>
</g>
<!-- Node13&#45;&gt;Node11 -->
<g id="edge19_Node000013_Node000011" class="edge">
<title>Node13&#45;&gt;Node11</title>
<g id="a_edge19_Node000013_Node000011"><a xlink:title=" ">
<path fill="none" stroke="#63b8ff" d="M616.73,-108.41C630.96,-108.41 646.43,-108.41 661.45,-108.41"/>
<polygon fill="#63b8ff" stroke="#63b8ff" points="661.3,-111.91 671.3,-108.41 661.3,-104.91 661.3,-111.91"/>
</a>
</g>
</g>
<!-- Node13&#45;&gt;Node12 -->
<g id="edge22_Node000013_Node000012" class="edge">
<title>Node13&#45;&gt;Node12</title>
<g id="a_edge22_Node000013_Node000012"><a xlink:title=" ">
<path fill="none" stroke="#63b8ff" d="M608.45,-98.3C630.33,-93.81 656.3,-88.49 679.32,-83.77"/>
<polygon fill="#63b8ff" stroke="#63b8ff" points="679.79,-87.25 688.88,-81.81 678.38,-80.39 679.79,-87.25"/>
</a>
</g>
</g>
<!-- Node14 -->
<g id="Node000014" class="node">
<title>Node14</title>
<g id="a_Node000014"><a xlink:href="group__lsm__ruc__group_gafc7d78906732947d1ac00ca46d7e8147.html#gafc7d78906732947d1ac00ca46d7e8147" target="_top" xlink:title="This subroutine solves energy budget equation and heat diffusion equation.">
<polygon fill="white" stroke="#666666" points="809.75,-44.04 671.5,-44.04 671.5,-24.79 809.75,-24.79 809.75,-44.04"/>
<text xml:space="preserve" text-anchor="middle" x="740.62" y="-30.54" font-family="Source Sans Pro" font-size="10.00">module_sf_ruclsm::soiltemp</text>
</a>
</g>
</g>
<!-- Node13&#45;&gt;Node14 -->
<g id="edge20_Node000013_Node000014" class="edge">
<title>Node13&#45;&gt;Node14</title>
<g id="a_edge20_Node000013_Node000014"><a xlink:title=" ">
<path fill="none" stroke="#63b8ff" d="M574.87,-98.34C594.87,-85.94 630.8,-64.99 664,-52.41 668.67,-50.64 673.57,-49.01 678.54,-47.51"/>
<polygon fill="#63b8ff" stroke="#63b8ff" points="679.31,-50.93 687.99,-44.85 677.42,-44.19 679.31,-50.93"/>
</a>
</g>
</g>
<!-- Node14&#45;&gt;Node6 -->
<g id="edge21_Node000014_Node000006" class="edge">
<title>Node14&#45;&gt;Node6</title>
<g id="a_edge21_Node000014_Node000006"><a xlink:title=" ">
<path fill="none" stroke="#63b8ff" d="M793.11,-44.5C801.31,-46.72 809.61,-49.35 817.25,-52.41 843.37,-62.88 870.87,-79.62 889.69,-92.07"/>
<polygon fill="#63b8ff" stroke="#63b8ff" points="887.69,-94.94 897.93,-97.63 891.6,-89.14 887.69,-94.94"/>
</a>
</g>
</g>
<!-- Node16&#45;&gt;Node16 -->
<g id="edge25_Node000016_Node000016" class="edge">
<title>Node16&#45;&gt;Node16</title>
<g id="a_edge25_Node000016_Node000016"><a xlink:title=" ">
<path fill="none" stroke="#63b8ff" d="M186.66,-139.32C175.51,-147.93 183.66,-157.04 211.12,-157.04 226.57,-157.04 235.91,-154.16 239.14,-150.1"/>
<polygon fill="#63b8ff" stroke="#63b8ff" points="242.52,-149.16 236.06,-140.76 235.87,-151.36 242.52,-149.16"/>
</a>
</g>
</g>
</g>
</svg>

<g id="navigator" transform="translate(0 0)" fill="#404254">
  <rect fill="#f2f5e9" fill-opacity="0.5" stroke="#606060" stroke-width=".5" x="0" y="0" width="60" height="60"/>
  <use id="zoomplus" xlink:href="#zoomPlus" x="17" y="9" onmousedown="handleZoom(evt,'in')"/>
  <use id="zoomminus" xlink:href="#zoomMin" x="42" y="9" onmousedown="handleZoom(evt,'out')"/>
  <use id="reset" xlink:href="#resetDef" x="30" y="36" onmousedown="handleReset()"/>
   <use id="arrowup" xlink:href="#arrowUp" x="0" y="0" onmousedown="handlePan(0,-1)"/>
  <use id="arrowright" xlink:href="#arrowRight" x="0" y="0" onmousedown="handlePan(1,0)"/>
  <use id="arrowdown" xlink:href="#arrowDown" x="0" y="0" onmousedown="handlePan(0,1)"/>
  <use id="arrowleft" xlink:href="#arrowLeft" x="0" y="0" onmousedown="handlePan(-1,0)"/>
</g>
<svg viewBox="0 0 15 15" width="100%" height="30px" preserveAspectRatio="xMaxYMin meet">
 <g id="arrow_out" transform="scale(0.3 0.3)">
  <a xlink:href="namespacelsm__ruc_affabfffd45a10349230af3cd4fc7cdeb_affabfffd45a10349230af3cd4fc7cdeb_cgraph_org.svg" target="_base">
   <rect id="button" ry="5" rx="5" y="6" x="6" height="38" width="38"
        fill="#f2f5e9" fill-opacity="0.5" stroke="#606060" stroke-width="1.0"/>
   <path id="arrow"
     d="M 11.500037,31.436501 C 11.940474,20.09759 22.043105,11.32322 32.158766,21.979434 L 37.068811,17.246167 C 37.068811,17.246167 37.088388,32 37.088388,32 L 22.160133,31.978069 C 22.160133,31.978069 26.997745,27.140456 26.997745,27.140456 C 18.528582,18.264221 13.291696,25.230495 11.500037,31.436501 z"
     style="fill:#404040;"/>
  </a>
 </g>
</svg>

<style type='text/css'>
<![CDATA[
[data-mouse-over-selected='false'] { opacity: 0.7; }
[data-mouse-over-selected='true']  { opacity: 1.0; }
]]>
</style>
<script type="application/ecmascript"><![CDATA[
document.addEventListener('DOMContentLoaded', (event) => {
  highlightEdges();
  highlightAdjacentNodes();
});
]]></script>
</svg>
