<?xml version="1.0" encoding="UTF-8" standalone="no"?>
<!DOCTYPE svg PUBLIC "-//W3C//DTD SVG 1.1//EN"
 "http://www.w3.org/Graphics/SVG/1.1/DTD/svg11.dtd">
<!-- Generated by graphviz version 14.1.2 (20260124.0452)
 -->
<!-- Title: gfdl_cloud_microphys_v3_mod::mtetw Pages: 1 -->
<svg width="586pt" height="343pt"
 viewBox="0.00 0.00 586.00 343.00" xmlns="http://www.w3.org/2000/svg" xmlns:xlink="http://www.w3.org/1999/xlink">
<g id="graph0" class="graph" transform="scale(1 1) rotate(0) translate(4 339.25)">
<title>gfdl_cloud_microphys_v3_mod::mtetw</title>
<!-- Node1 -->
<g id="Node000001" class="node">
<title>Node1</title>
<g id="a_Node000001"><a xlink:title=" ">
<polygon fill="#999999" stroke="#666666" points="110.5,-266.88 0,-266.88 0,-236.38 110.5,-236.38 110.5,-266.88"/>
<text xml:space="preserve" text-anchor="start" x="8" y="-253.38" font-family="Source Sans Pro" font-size="10.00">gfdl_cloud_microphys</text>
<text xml:space="preserve" text-anchor="middle" x="55.25" y="-242.12" font-family="Source Sans Pro" font-size="10.00">_v3_mod::mtetw</text>
</a>
</g>
</g>
<!-- Node2 -->
<g id="Node000002" class="node">
<title>Node2</title>
<g id="a_Node000002"><a xlink:href="group___noah_m_p___l_s_m_ga2e84840f3ed90005f066340b388c03d6.html#ga2e84840f3ed90005f066340b388c03d6" target="_top" xlink:title="compute water budgets (water storages, et components, and runoff)">
<polygon fill="white" stroke="#666666" points="186.5,-261.25 146.5,-261.25 146.5,-242 186.5,-242 186.5,-261.25"/>
<text xml:space="preserve" text-anchor="middle" x="166.5" y="-247.75" font-family="Source Sans Pro" font-size="10.00">water</text>
</a>
</g>
</g>
<!-- Node1&#45;&gt;Node2 -->
<g id="edge1_Node000001_Node000002" class="edge">
<title>Node1&#45;&gt;Node2</title>
<g id="a_edge1_Node000001_Node000002"><a xlink:title=" ">
<path fill="none" stroke="#63b8ff" d="M110.88,-251.62C119.11,-251.62 127.34,-251.62 134.82,-251.62"/>
<polygon fill="#63b8ff" stroke="#63b8ff" points="134.71,-255.13 144.71,-251.63 134.71,-248.13 134.71,-255.13"/>
</a>
</g>
</g>
<!-- Node3 -->
<g id="Node000003" class="node">
<title>Node3</title>
<g id="a_Node000003"><a xlink:href="group___noah_m_p___l_s_m_ga0f7c6c8dacb67eba3a21e7d4d3afc369.html#ga0f7c6c8dacb67eba3a21e7d4d3afc369" target="_top" xlink:title="canopy hydrology">
<polygon fill="white" stroke="#666666" points="297.38,-335.25 241.62,-335.25 241.62,-316 297.38,-316 297.38,-335.25"/>
<text xml:space="preserve" text-anchor="middle" x="269.5" y="-321.75" font-family="Source Sans Pro" font-size="10.00">canwater</text>
</a>
</g>
</g>
<!-- Node2&#45;&gt;Node3 -->
<g id="edge2_Node000002_Node000003" class="edge">
<title>Node2&#45;&gt;Node3</title>
<g id="a_edge2_Node000002_Node000003"><a xlink:title=" ">
<path fill="none" stroke="#63b8ff" d="M175.06,-261.58C184.84,-273.87 202.94,-294.71 222.5,-307.62 225.18,-309.4 228.07,-311.04 231.04,-312.54"/>
<polygon fill="#63b8ff" stroke="#63b8ff" points="229.35,-315.62 239.91,-316.54 232.23,-309.24 229.35,-315.62"/>
</a>
</g>
</g>
<!-- Node4 -->
<g id="Node000004" class="node">
<title>Node4</title>
<g id="a_Node000004"><a xlink:href="group___noah_m_p___l_s_m_ga6ce8861ff5926b6f3efb1e7d8c552de1.html#ga6ce8861ff5926b6f3efb1e7d8c552de1" target="_top" xlink:title=" ">
<polygon fill="white" stroke="#666666" points="304.12,-298.25 234.88,-298.25 234.88,-279 304.12,-279 304.12,-298.25"/>
<text xml:space="preserve" text-anchor="middle" x="269.5" y="-284.75" font-family="Source Sans Pro" font-size="10.00">groundwater</text>
</a>
</g>
</g>
<!-- Node2&#45;&gt;Node4 -->
<g id="edge3_Node000002_Node000004" class="edge">
<title>Node2&#45;&gt;Node4</title>
<g id="a_edge3_Node000002_Node000004"><a xlink:title=" ">
<path fill="none" stroke="#63b8ff" d="M186.97,-258.76C199.34,-263.29 215.75,-269.3 230.6,-274.74"/>
<polygon fill="#63b8ff" stroke="#63b8ff" points="229.05,-277.9 239.65,-278.06 231.46,-271.33 229.05,-277.9"/>
</a>
</g>
</g>
<!-- Node5 -->
<g id="Node000005" class="node">
<title>Node5</title>
<g id="a_Node000005"><a xlink:href="group___noah_m_p___l_s_m_ga027ec32eb5879830419538747eeb65a5.html#ga027ec32eb5879830419538747eeb65a5" target="_top" xlink:title="diagnoses water table depth and computes recharge when the water table is within the resolved soil la...">
<polygon fill="white" stroke="#666666" points="316.5,-261.25 222.5,-261.25 222.5,-242 316.5,-242 316.5,-261.25"/>
<text xml:space="preserve" text-anchor="middle" x="269.5" y="-247.75" font-family="Source Sans Pro" font-size="10.00">shallowwatertable</text>
</a>
</g>
</g>
<!-- Node2&#45;&gt;Node5 -->
<g id="edge4_Node000002_Node000005" class="edge">
<title>Node2&#45;&gt;Node5</title>
<g id="a_edge4_Node000002_Node000005"><a xlink:title=" ">
<path fill="none" stroke="#63b8ff" d="M186.97,-251.62C193.99,-251.62 202.31,-251.62 210.91,-251.62"/>
<polygon fill="#63b8ff" stroke="#63b8ff" points="210.77,-255.13 220.77,-251.63 210.77,-248.13 210.77,-255.13"/>
</a>
</g>
</g>
<!-- Node6 -->
<g id="Node000006" class="node">
<title>Node6</title>
<g id="a_Node000006"><a xlink:href="group___noah_m_p___l_s_m_ga8500bdb5fcc68e431512068da0d31cd5.html#ga8500bdb5fcc68e431512068da0d31cd5" target="_top" xlink:title=" ">
<polygon fill="white" stroke="#666666" points="301.12,-224.25 237.88,-224.25 237.88,-205 301.12,-205 301.12,-224.25"/>
<text xml:space="preserve" text-anchor="middle" x="269.5" y="-210.75" font-family="Source Sans Pro" font-size="10.00">snowwater</text>
</a>
</g>
</g>
<!-- Node2&#45;&gt;Node6 -->
<g id="edge5_Node000002_Node000006" class="edge">
<title>Node2&#45;&gt;Node6</title>
<g id="a_edge5_Node000002_Node000006"><a xlink:title=" ">
<path fill="none" stroke="#63b8ff" d="M186.97,-244.49C199.34,-239.96 215.75,-233.95 230.6,-228.51"/>
<polygon fill="#63b8ff" stroke="#63b8ff" points="231.46,-231.92 239.65,-225.19 229.05,-225.35 231.46,-231.92"/>
</a>
</g>
</g>
<!-- Node13 -->
<g id="Node000013" class="node">
<title>Node13</title>
<g id="a_Node000013"><a xlink:href="group___noah_m_p___l_s_m_gadca44347d78a09297195f41298a47f8d.html#gadca44347d78a09297195f41298a47f8d" target="_top" xlink:title="calculate surface runoff and soil moisture.">
<polygon fill="white" stroke="#666666" points="297,-93.25 242,-93.25 242,-74 297,-74 297,-93.25"/>
<text xml:space="preserve" text-anchor="middle" x="269.5" y="-79.75" font-family="Source Sans Pro" font-size="10.00">soilwater</text>
</a>
</g>
</g>
<!-- Node2&#45;&gt;Node13 -->
<g id="edge14_Node000002_Node000013" class="edge">
<title>Node2&#45;&gt;Node13</title>
<g id="a_edge14_Node000002_Node000013"><a xlink:title=" ">
<path fill="none" stroke="#63b8ff" d="M173.52,-241.62C189.83,-214.48 235.16,-139.09 256.76,-103.16"/>
<polygon fill="#63b8ff" stroke="#63b8ff" points="259.71,-105.04 261.86,-94.67 253.71,-101.43 259.71,-105.04"/>
</a>
</g>
</g>
<!-- Node7 -->
<g id="Node000007" class="node">
<title>Node7</title>
<g id="a_Node000007"><a xlink:href="group___noah_m_p___l_s_m_ga0d1a0707cf2a2a4fd14444b111a55048.html#ga0d1a0707cf2a2a4fd14444b111a55048" target="_top" xlink:title=" ">
<polygon fill="white" stroke="#666666" points="496.25,-206.25 443.5,-206.25 443.5,-187 496.25,-187 496.25,-206.25"/>
<text xml:space="preserve" text-anchor="middle" x="469.88" y="-192.75" font-family="Source Sans Pro" font-size="10.00">combine</text>
</a>
</g>
</g>
<!-- Node6&#45;&gt;Node7 -->
<g id="edge6_Node000006_Node000007" class="edge">
<title>Node6&#45;&gt;Node7</title>
<g id="a_edge6_Node000006_Node000007"><a xlink:title=" ">
<path fill="none" stroke="#63b8ff" d="M287.05,-204.62C303.12,-195.53 328.53,-182.78 352.5,-177.62 376.4,-172.48 383.33,-173.97 407.5,-177.62 415.67,-178.86 424.25,-180.97 432.32,-183.35"/>
<polygon fill="#63b8ff" stroke="#63b8ff" points="431.26,-186.69 441.85,-186.37 433.38,-180.01 431.26,-186.69"/>
</a>
</g>
</g>
<!-- Node9 -->
<g id="Node000009" class="node">
<title>Node9</title>
<g id="a_Node000009"><a xlink:href="group___noah_m_p___l_s_m_gabc66ddc0a33ac2d9fe3a1677febd1725.html#gabc66ddc0a33ac2d9fe3a1677febd1725" target="_top" xlink:title=" ">
<polygon fill="white" stroke="#666666" points="406.75,-319.25 353.25,-319.25 353.25,-300 406.75,-300 406.75,-319.25"/>
<text xml:space="preserve" text-anchor="middle" x="380" y="-305.75" font-family="Source Sans Pro" font-size="10.00">compact</text>
</a>
</g>
</g>
<!-- Node6&#45;&gt;Node9 -->
<g id="edge8_Node000006_Node000009" class="edge">
<title>Node6&#45;&gt;Node9</title>
<g id="a_edge8_Node000006_Node000009"><a xlink:title=" ">
<path fill="none" stroke="#63b8ff" d="M301.59,-223.82C306.88,-226.19 312.08,-229.09 316.5,-232.62 338.76,-250.39 333.81,-264.14 352.5,-285.62 354.39,-287.8 356.46,-289.97 358.59,-292.07"/>
<polygon fill="#63b8ff" stroke="#63b8ff" points="355.99,-294.43 365.7,-298.65 360.74,-289.29 355.99,-294.43"/>
</a>
</g>
</g>
<!-- Node10 -->
<g id="Node000010" class="node">
<title>Node10</title>
<g id="a_Node000010"><a xlink:href="group___noah_m_p___l_s_m_ga2a809bb1c3c3307616446d4f27d00d5c.html#ga2a809bb1c3c3307616446d4f27d00d5c" target="_top" xlink:title=" ">
<polygon fill="white" stroke="#666666" points="490.62,-262.25 449.12,-262.25 449.12,-243 490.62,-243 490.62,-262.25"/>
<text xml:space="preserve" text-anchor="middle" x="469.88" y="-248.75" font-family="Source Sans Pro" font-size="10.00">divide</text>
</a>
</g>
</g>
<!-- Node6&#45;&gt;Node10 -->
<g id="edge9_Node000006_Node000010" class="edge">
<title>Node6&#45;&gt;Node10</title>
<g id="a_edge9_Node000006_Node000010"><a xlink:title=" ">
<path fill="none" stroke="#63b8ff" d="M298,-224.69C304.15,-227.13 310.6,-229.85 316.5,-232.62 333.06,-240.42 334.78,-248.03 352.5,-252.62 380.61,-259.91 413.83,-259.01 437.57,-256.83"/>
<polygon fill="#63b8ff" stroke="#63b8ff" points="437.64,-260.34 447.22,-255.8 436.9,-253.38 437.64,-260.34"/>
</a>
</g>
</g>
<!-- Node11 -->
<g id="Node000011" class="node">
<title>Node11</title>
<g id="a_Node000011"><a xlink:href="group___noah_m_p___l_s_m_ga27b8403f2911888350b2ce246e3c6620.html#ga27b8403f2911888350b2ce246e3c6620" target="_top" xlink:title="snow depth and density to account for the new snowfall. new values of snow depth &amp; density returned.">
<polygon fill="white" stroke="#666666" points="406,-243.25 354,-243.25 354,-224 406,-224 406,-243.25"/>
<text xml:space="preserve" text-anchor="middle" x="380" y="-229.75" font-family="Source Sans Pro" font-size="10.00">snowfall</text>
</a>
</g>
</g>
<!-- Node6&#45;&gt;Node11 -->
<g id="edge11_Node000006_Node000011" class="edge">
<title>Node6&#45;&gt;Node11</title>
<g id="a_edge11_Node000006_Node000011"><a xlink:title=" ">
<path fill="none" stroke="#63b8ff" d="M301.59,-220.07C314.38,-222.31 329.28,-224.92 342.57,-227.25"/>
<polygon fill="#63b8ff" stroke="#63b8ff" points="341.8,-230.66 352.25,-228.94 343.01,-223.77 341.8,-230.66"/>
</a>
</g>
</g>
<!-- Node12 -->
<g id="Node000012" class="node">
<title>Node12</title>
<g id="a_Node000012"><a xlink:href="group___noah_m_p___l_s_m_gad5df8e19f96bc0e98560e5df8c49c0fa.html#gad5df8e19f96bc0e98560e5df8c49c0fa" target="_top" xlink:title="renew the mass of ice lens (snice) and liquid (snliq) of the surface snow layer resulting from sublim...">
<polygon fill="white" stroke="#666666" points="407.5,-206.25 352.5,-206.25 352.5,-187 407.5,-187 407.5,-206.25"/>
<text xml:space="preserve" text-anchor="middle" x="380" y="-192.75" font-family="Source Sans Pro" font-size="10.00">snowh2o</text>
</a>
</g>
</g>
<!-- Node6&#45;&gt;Node12 -->
<g id="edge12_Node000006_Node000012" class="edge">
<title>Node6&#45;&gt;Node12</title>
<g id="a_edge12_Node000006_Node000012"><a xlink:title=" ">
<path fill="none" stroke="#63b8ff" d="M301.59,-209.47C313.87,-207.43 328.09,-205.07 340.96,-202.94"/>
<polygon fill="#63b8ff" stroke="#63b8ff" points="341.53,-206.39 350.83,-201.3 340.39,-199.48 341.53,-206.39"/>
</a>
</g>
</g>
<!-- Node8 -->
<g id="Node000008" class="node">
<title>Node8</title>
<g id="a_Node000008"><a xlink:href="group___noah_m_p___l_s_m_ga4804d8de40f7ea8a8cf4ed6e22ff4aa0.html#ga4804d8de40f7ea8a8cf4ed6e22ff4aa0" target="_top" xlink:title=" ">
<polygon fill="white" stroke="#666666" points="577.5,-234.25 532.25,-234.25 532.25,-215 577.5,-215 577.5,-234.25"/>
<text xml:space="preserve" text-anchor="middle" x="554.88" y="-220.75" font-family="Source Sans Pro" font-size="10.00">combo</text>
</a>
</g>
</g>
<!-- Node7&#45;&gt;Node8 -->
<g id="edge7_Node000007_Node000008" class="edge">
<title>Node7&#45;&gt;Node8</title>
<g id="a_edge7_Node000007_Node000008"><a xlink:title=" ">
<path fill="none" stroke="#63b8ff" d="M496.68,-205.33C504.47,-207.96 513.12,-210.88 521.29,-213.63"/>
<polygon fill="#63b8ff" stroke="#63b8ff" points="519.97,-216.88 530.56,-216.76 522.21,-210.25 519.97,-216.88"/>
</a>
</g>
</g>
<!-- Node10&#45;&gt;Node8 -->
<g id="edge10_Node000010_Node000008" class="edge">
<title>Node10&#45;&gt;Node8</title>
<g id="a_edge10_Node000010_Node000008"><a xlink:title=" ">
<path fill="none" stroke="#63b8ff" d="M490.97,-245.85C500.06,-242.78 511.03,-239.08 521.26,-235.63"/>
<polygon fill="#63b8ff" stroke="#63b8ff" points="522.14,-239.03 530.49,-232.51 519.9,-232.39 522.14,-239.03"/>
</a>
</g>
</g>
<!-- Node12&#45;&gt;Node7 -->
<g id="edge13_Node000012_Node000007" class="edge">
<title>Node12&#45;&gt;Node7</title>
<g id="a_edge13_Node000012_Node000007"><a xlink:title=" ">
<path fill="none" stroke="#63b8ff" d="M407.84,-196.62C415.37,-196.62 423.69,-196.62 431.71,-196.62"/>
<polygon fill="#63b8ff" stroke="#63b8ff" points="431.59,-200.13 441.59,-196.63 431.59,-193.13 431.59,-200.13"/>
</a>
</g>
</g>
<!-- Node14 -->
<g id="Node000014" class="node">
<title>Node14</title>
<g id="a_Node000014"><a xlink:href="group___noah_m_p___l_s_m_ga33eceb1b8d3e8a38dec1ca21f811f13d.html#ga33eceb1b8d3e8a38dec1ca21f811f13d" target="_top" xlink:title="compute inflitration rate at soil surface and surface runoff">
<polygon fill="white" stroke="#666666" points="395.5,-93.25 364.5,-93.25 364.5,-74 395.5,-74 395.5,-93.25"/>
<text xml:space="preserve" text-anchor="middle" x="380" y="-79.75" font-family="Source Sans Pro" font-size="10.00">infil</text>
</a>
</g>
</g>
<!-- Node13&#45;&gt;Node14 -->
<g id="edge15_Node000013_Node000014" class="edge">
<title>Node13&#45;&gt;Node14</title>
<g id="a_edge15_Node000013_Node000014"><a xlink:title=" ">
<path fill="none" stroke="#63b8ff" d="M297.32,-83.62C314.29,-83.62 336.11,-83.62 352.93,-83.62"/>
<polygon fill="#63b8ff" stroke="#63b8ff" points="352.64,-87.13 362.64,-83.63 352.64,-80.13 352.64,-87.13"/>
</a>
</g>
</g>
<!-- Node16 -->
<g id="Node000016" class="node">
<title>Node16</title>
<g id="a_Node000016"><a xlink:href="group___noah_m_p___l_s_m_ga2825a3a5bbdeed71a7b6ea89ff9bce16.html#ga2825a3a5bbdeed71a7b6ea89ff9bce16" target="_top" xlink:title="calculate the right hand side of the time tendency term of the soil water diffusion equation....">
<polygon fill="white" stroke="#666666" points="394.4,-56.25 365.6,-56.25 365.6,-37 394.4,-37 394.4,-56.25"/>
<text xml:space="preserve" text-anchor="middle" x="380" y="-42.75" font-family="Source Sans Pro" font-size="10.00">srt</text>
</a>
</g>
</g>
<!-- Node13&#45;&gt;Node16 -->
<g id="edge17_Node000013_Node000016" class="edge">
<title>Node13&#45;&gt;Node16</title>
<g id="a_edge17_Node000013_Node000016"><a xlink:title=" ">
<path fill="none" stroke="#63b8ff" d="M297.32,-74.48C314.86,-68.5 337.59,-60.75 354.62,-54.94"/>
<polygon fill="#63b8ff" stroke="#63b8ff" points="355.59,-58.3 363.93,-51.76 353.33,-51.68 355.59,-58.3"/>
</a>
</g>
</g>
<!-- Node18 -->
<g id="Node000018" class="node">
<title>Node18</title>
<g id="a_Node000018"><a xlink:href="group___noah_m_p___l_s_m_gae10b02d7df0104a84451abc57e0410fb.html#gae10b02d7df0104a84451abc57e0410fb" target="_top" xlink:title="calculate/update soil moisture content values.">
<polygon fill="white" stroke="#666666" points="400,-19.25 360,-19.25 360,0 400,0 400,-19.25"/>
<text xml:space="preserve" text-anchor="middle" x="380" y="-5.75" font-family="Source Sans Pro" font-size="10.00">sstep</text>
</a>
</g>
</g>
<!-- Node13&#45;&gt;Node18 -->
<g id="edge20_Node000013_Node000018" class="edge">
<title>Node13&#45;&gt;Node18</title>
<g id="a_edge20_Node000013_Node000018"><a xlink:title=" ">
<path fill="none" stroke="#63b8ff" d="M285.01,-73.7C301.39,-62.5 328.85,-43.73 352.5,-27.62 353.21,-27.14 353.92,-26.66 354.65,-26.16"/>
<polygon fill="#63b8ff" stroke="#63b8ff" points="356.59,-29.08 362.89,-20.56 352.65,-23.29 356.59,-29.08"/>
</a>
</g>
</g>
<!-- Node20 -->
<g id="Node000020" class="node">
<title>Node20</title>
<g id="a_Node000020"><a xlink:href="group___noah_m_p___l_s_m_gadc2da87aeab4494d5234d18df3d223f7.html#gadc2da87aeab4494d5234d18df3d223f7" target="_top" xlink:title="calculate equilibrium water table depth (niu et al., 2005)">
<polygon fill="white" stroke="#666666" points="401.12,-130.25 358.88,-130.25 358.88,-111 401.12,-111 401.12,-130.25"/>
<text xml:space="preserve" text-anchor="middle" x="380" y="-116.75" font-family="Source Sans Pro" font-size="10.00">zwteq</text>
</a>
</g>
</g>
<!-- Node13&#45;&gt;Node20 -->
<g id="edge22_Node000013_Node000020" class="edge">
<title>Node13&#45;&gt;Node20</title>
<g id="a_edge22_Node000013_Node000020"><a xlink:title=" ">
<path fill="none" stroke="#63b8ff" d="M297.32,-92.77C312.72,-98.02 332.12,-104.64 348.15,-110.1"/>
<polygon fill="#63b8ff" stroke="#63b8ff" points="346.59,-113.27 357.18,-113.18 348.85,-106.64 346.59,-113.27"/>
</a>
</g>
</g>
<!-- Node15 -->
<g id="Node000015" class="node">
<title>Node15</title>
<g id="a_Node000015"><a xlink:href="group___noah_m_p___l_s_m_gaca325ee2efde047e6cd030ace7d5931f.html#gaca325ee2efde047e6cd030ace7d5931f" target="_top" xlink:title="calculate soil water diffusivity and soil hydraulic conductivity.">
<polygon fill="white" stroke="#666666" points="496.25,-93.25 443.5,-93.25 443.5,-74 496.25,-74 496.25,-93.25"/>
<text xml:space="preserve" text-anchor="middle" x="469.88" y="-79.75" font-family="Source Sans Pro" font-size="10.00">wdfcnd2</text>
</a>
</g>
</g>
<!-- Node14&#45;&gt;Node15 -->
<g id="edge16_Node000014_Node000015" class="edge">
<title>Node14&#45;&gt;Node15</title>
<g id="a_edge16_Node000014_Node000015"><a xlink:title=" ">
<path fill="none" stroke="#63b8ff" d="M395.91,-83.62C405.8,-83.62 419.26,-83.62 431.92,-83.62"/>
<polygon fill="#63b8ff" stroke="#63b8ff" points="431.69,-87.13 441.69,-83.63 431.69,-80.13 431.69,-87.13"/>
</a>
</g>
</g>
<!-- Node16&#45;&gt;Node15 -->
<g id="edge19_Node000016_Node000015" class="edge">
<title>Node16&#45;&gt;Node15</title>
<g id="a_edge19_Node000016_Node000015"><a xlink:title=" ">
<path fill="none" stroke="#63b8ff" d="M394.73,-52.41C405.42,-56.91 420.74,-63.36 434.69,-69.23"/>
<polygon fill="#63b8ff" stroke="#63b8ff" points="433.01,-72.32 443.58,-72.98 435.73,-65.87 433.01,-72.32"/>
</a>
</g>
</g>
<!-- Node17 -->
<g id="Node000017" class="node">
<title>Node17</title>
<g id="a_Node000017"><a xlink:href="group___noah_m_p___l_s_m_gaffab2571eaa0a1c94d971a5344c8a109.html#gaffab2571eaa0a1c94d971a5344c8a109" target="_top" xlink:title="calculate soil water diffusivity and soil hydraulic conductivity.">
<polygon fill="white" stroke="#666666" points="496.25,-56.25 443.5,-56.25 443.5,-37 496.25,-37 496.25,-56.25"/>
<text xml:space="preserve" text-anchor="middle" x="469.88" y="-42.75" font-family="Source Sans Pro" font-size="10.00">wdfcnd1</text>
</a>
</g>
</g>
<!-- Node16&#45;&gt;Node17 -->
<g id="edge18_Node000016_Node000017" class="edge">
<title>Node16&#45;&gt;Node17</title>
<g id="a_edge18_Node000016_Node000017"><a xlink:title=" ">
<path fill="none" stroke="#63b8ff" d="M394.73,-46.62C404.74,-46.62 418.79,-46.62 431.98,-46.62"/>
<polygon fill="#63b8ff" stroke="#63b8ff" points="431.71,-50.13 441.71,-46.63 431.71,-43.13 431.71,-50.13"/>
</a>
</g>
</g>
<!-- Node19 -->
<g id="Node000019" class="node">
<title>Node19</title>
<g id="a_Node000019"><a xlink:href="group___noah_m_p___l_s_m_ga7a305dbb6a9210b227ee310c71f30fd9.html#ga7a305dbb6a9210b227ee310c71f30fd9" target="_top" xlink:title="solve the tri&#45;diagonal matrix equation">
<polygon fill="white" stroke="#666666" points="491.38,-19.25 448.38,-19.25 448.38,0 491.38,0 491.38,-19.25"/>
<text xml:space="preserve" text-anchor="middle" x="469.88" y="-5.75" font-family="Source Sans Pro" font-size="10.00">rosr12</text>
</a>
</g>
</g>
<!-- Node18&#45;&gt;Node19 -->
<g id="edge21_Node000018_Node000019" class="edge">
<title>Node18&#45;&gt;Node19</title>
<g id="a_edge21_Node000018_Node000019"><a xlink:title=" ">
<path fill="none" stroke="#63b8ff" d="M400.07,-9.62C410.78,-9.62 424.43,-9.62 436.74,-9.62"/>
<polygon fill="#63b8ff" stroke="#63b8ff" points="436.49,-13.13 446.49,-9.63 436.49,-6.13 436.49,-13.13"/>
</a>
</g>
</g>
</g>
</svg>
