<?xml version="1.0" encoding="UTF-8" standalone="no"?>
<!DOCTYPE svg PUBLIC "-//W3C//DTD SVG 1.1//EN"
 "http://www.w3.org/Graphics/SVG/1.1/DTD/svg11.dtd">
<!-- Generated by graphviz version 14.1.2 (20260124.0452)
 -->
<!-- Title: clm_lake::shallakehydrology Pages: 1 -->
<svg width="507pt" height="158pt"
 viewBox="0.00 0.00 507.00 158.00" xmlns="http://www.w3.org/2000/svg" xmlns:xlink="http://www.w3.org/1999/xlink">
<g id="graph0" class="graph" transform="scale(1 1) rotate(0) translate(4 154.25)">
<title>clm_lake::shallakehydrology</title>
<!-- Node1 -->
<g id="Node000001" class="node">
<title>Node1</title>
<g id="a_Node000001"><a xlink:title="Calculation of Shallow Lake Hydrology. Full hydrology of snow layers is done. However,...">
<polygon fill="#999999" stroke="#666666" points="139,-75.25 0,-75.25 0,-56 139,-56 139,-75.25"/>
<text xml:space="preserve" text-anchor="middle" x="69.5" y="-61.75" font-family="Source Sans Pro" font-size="10.00">clm_lake::shallakehydrology</text>
</a>
</g>
</g>
<!-- Node2 -->
<g id="Node000002" class="node">
<title>Node2</title>
<g id="a_Node000002"><a xlink:href="group___noah_m_p___l_s_m_ga8500bdb5fcc68e431512068da0d31cd5.html#ga8500bdb5fcc68e431512068da0d31cd5" target="_top" xlink:title=" ">
<polygon fill="white" stroke="#666666" points="238.25,-75.25 175,-75.25 175,-56 238.25,-56 238.25,-75.25"/>
<text xml:space="preserve" text-anchor="middle" x="206.62" y="-61.75" font-family="Source Sans Pro" font-size="10.00">snowwater</text>
</a>
</g>
</g>
<!-- Node1&#45;&gt;Node2 -->
<g id="edge1_Node000001_Node000002" class="edge">
<title>Node1&#45;&gt;Node2</title>
<g id="a_edge1_Node000001_Node000002"><a xlink:title=" ">
<path fill="none" stroke="#63b8ff" d="M139.25,-65.62C147.38,-65.62 155.49,-65.62 163.1,-65.62"/>
<polygon fill="#63b8ff" stroke="#63b8ff" points="163.07,-69.13 173.07,-65.63 163.07,-62.13 163.07,-69.13"/>
</a>
</g>
</g>
<!-- Node3 -->
<g id="Node000003" class="node">
<title>Node3</title>
<g id="a_Node000003"><a xlink:href="group___noah_m_p___l_s_m_ga0d1a0707cf2a2a4fd14444b111a55048.html#ga0d1a0707cf2a2a4fd14444b111a55048" target="_top" xlink:title=" ">
<polygon fill="white" stroke="#666666" points="418,-75.25 365.25,-75.25 365.25,-56 418,-56 418,-75.25"/>
<text xml:space="preserve" text-anchor="middle" x="391.62" y="-61.75" font-family="Source Sans Pro" font-size="10.00">combine</text>
</a>
</g>
</g>
<!-- Node2&#45;&gt;Node3 -->
<g id="edge2_Node000002_Node000003" class="edge">
<title>Node2&#45;&gt;Node3</title>
<g id="a_edge2_Node000002_Node000003"><a xlink:title=" ">
<path fill="none" stroke="#63b8ff" d="M238.67,-65.62C270.41,-65.62 319.73,-65.62 353.51,-65.62"/>
<polygon fill="#63b8ff" stroke="#63b8ff" points="353.25,-69.13 363.25,-65.63 353.25,-62.13 353.25,-69.13"/>
</a>
</g>
</g>
<!-- Node5 -->
<g id="Node000005" class="node">
<title>Node5</title>
<g id="a_Node000005"><a xlink:href="group___noah_m_p___l_s_m_gabc66ddc0a33ac2d9fe3a1677febd1725.html#gabc66ddc0a33ac2d9fe3a1677febd1725" target="_top" xlink:title=" ">
<polygon fill="white" stroke="#666666" points="328.5,-113.25 275,-113.25 275,-94 328.5,-94 328.5,-113.25"/>
<text xml:space="preserve" text-anchor="middle" x="301.75" y="-99.75" font-family="Source Sans Pro" font-size="10.00">compact</text>
</a>
</g>
</g>
<!-- Node2&#45;&gt;Node5 -->
<g id="edge4_Node000002_Node000005" class="edge">
<title>Node2&#45;&gt;Node5</title>
<g id="a_edge4_Node000002_Node000005"><a xlink:title=" ">
<path fill="none" stroke="#63b8ff" d="M232.09,-75.61C242.38,-79.81 254.55,-84.77 265.76,-89.35"/>
<polygon fill="#63b8ff" stroke="#63b8ff" points="264.14,-92.47 274.72,-93 266.78,-85.99 264.14,-92.47"/>
</a>
</g>
</g>
<!-- Node6 -->
<g id="Node000006" class="node">
<title>Node6</title>
<g id="a_Node000006"><a xlink:href="group___noah_m_p___l_s_m_ga2a809bb1c3c3307616446d4f27d00d5c.html#ga2a809bb1c3c3307616446d4f27d00d5c" target="_top" xlink:title=" ">
<polygon fill="white" stroke="#666666" points="412.38,-19.25 370.88,-19.25 370.88,0 412.38,0 412.38,-19.25"/>
<text xml:space="preserve" text-anchor="middle" x="391.62" y="-5.75" font-family="Source Sans Pro" font-size="10.00">divide</text>
</a>
</g>
</g>
<!-- Node2&#45;&gt;Node6 -->
<g id="edge5_Node000002_Node000006" class="edge">
<title>Node2&#45;&gt;Node6</title>
<g id="a_edge5_Node000002_Node000006"><a xlink:title=" ">
<path fill="none" stroke="#63b8ff" d="M215.33,-55.59C226.55,-41.9 248.83,-18.01 274.25,-8.62 301.65,1.5 335.22,-0.13 359.25,-3.47"/>
<polygon fill="#63b8ff" stroke="#63b8ff" points="358.62,-6.91 369.04,-5.02 359.71,0 358.62,-6.91"/>
</a>
</g>
</g>
<!-- Node7 -->
<g id="Node000007" class="node">
<title>Node7</title>
<g id="a_Node000007"><a xlink:href="group___noah_m_p___l_s_m_ga27b8403f2911888350b2ce246e3c6620.html#ga27b8403f2911888350b2ce246e3c6620" target="_top" xlink:title="snow depth and density to account for the new snowfall. new values of snow depth &amp; density returned.">
<polygon fill="white" stroke="#666666" points="327.75,-37.25 275.75,-37.25 275.75,-18 327.75,-18 327.75,-37.25"/>
<text xml:space="preserve" text-anchor="middle" x="301.75" y="-23.75" font-family="Source Sans Pro" font-size="10.00">snowfall</text>
</a>
</g>
</g>
<!-- Node2&#45;&gt;Node7 -->
<g id="edge7_Node000002_Node000007" class="edge">
<title>Node2&#45;&gt;Node7</title>
<g id="a_edge7_Node000002_Node000007"><a xlink:title=" ">
<path fill="none" stroke="#63b8ff" d="M232.09,-55.64C242.38,-51.44 254.55,-46.48 265.76,-41.9"/>
<polygon fill="#63b8ff" stroke="#63b8ff" points="266.78,-45.26 274.72,-38.25 264.14,-38.78 266.78,-45.26"/>
</a>
</g>
</g>
<!-- Node8 -->
<g id="Node000008" class="node">
<title>Node8</title>
<g id="a_Node000008"><a xlink:href="group___noah_m_p___l_s_m_gad5df8e19f96bc0e98560e5df8c49c0fa.html#gad5df8e19f96bc0e98560e5df8c49c0fa" target="_top" xlink:title="renew the mass of ice lens (snice) and liquid (snliq) of the surface snow layer resulting from sublim...">
<polygon fill="white" stroke="#666666" points="329.25,-150.25 274.25,-150.25 274.25,-131 329.25,-131 329.25,-150.25"/>
<text xml:space="preserve" text-anchor="middle" x="301.75" y="-136.75" font-family="Source Sans Pro" font-size="10.00">snowh2o</text>
</a>
</g>
</g>
<!-- Node2&#45;&gt;Node8 -->
<g id="edge8_Node000002_Node000008" class="edge">
<title>Node2&#45;&gt;Node8</title>
<g id="a_edge8_Node000002_Node000008"><a xlink:title=" ">
<path fill="none" stroke="#63b8ff" d="M218.63,-75.7C231.58,-87.41 253.93,-107.1 274.25,-122.62 274.91,-123.13 275.59,-123.64 276.28,-124.15"/>
<polygon fill="#63b8ff" stroke="#63b8ff" points="273.99,-126.82 284.18,-129.75 278.04,-121.11 273.99,-126.82"/>
</a>
</g>
</g>
<!-- Node4 -->
<g id="Node000004" class="node">
<title>Node4</title>
<g id="a_Node000004"><a xlink:href="group___noah_m_p___l_s_m_ga4804d8de40f7ea8a8cf4ed6e22ff4aa0.html#ga4804d8de40f7ea8a8cf4ed6e22ff4aa0" target="_top" xlink:title=" ">
<polygon fill="white" stroke="#666666" points="499.25,-37.25 454,-37.25 454,-18 499.25,-18 499.25,-37.25"/>
<text xml:space="preserve" text-anchor="middle" x="476.62" y="-23.75" font-family="Source Sans Pro" font-size="10.00">combo</text>
</a>
</g>
</g>
<!-- Node3&#45;&gt;Node4 -->
<g id="edge3_Node000003_Node000004" class="edge">
<title>Node3&#45;&gt;Node4</title>
<g id="a_edge3_Node000003_Node000004"><a xlink:title=" ">
<path fill="none" stroke="#63b8ff" d="M414.43,-55.64C423.32,-51.57 433.78,-46.78 443.51,-42.33"/>
<polygon fill="#63b8ff" stroke="#63b8ff" points="444.66,-45.65 452.3,-38.3 441.75,-39.28 444.66,-45.65"/>
</a>
</g>
</g>
<!-- Node6&#45;&gt;Node4 -->
<g id="edge6_Node000006_Node000004" class="edge">
<title>Node6&#45;&gt;Node4</title>
<g id="a_edge6_Node000006_Node000004"><a xlink:title=" ">
<path fill="none" stroke="#63b8ff" d="M412.72,-13.98C421.71,-15.93 432.55,-18.28 442.68,-20.48"/>
<polygon fill="#63b8ff" stroke="#63b8ff" points="441.68,-23.85 452.2,-22.54 443.17,-17 441.68,-23.85"/>
</a>
</g>
</g>
<!-- Node8&#45;&gt;Node3 -->
<g id="edge9_Node000008_Node000003" class="edge">
<title>Node8&#45;&gt;Node3</title>
<g id="a_edge9_Node000008_Node000003"><a xlink:title=" ">
<path fill="none" stroke="#63b8ff" d="M318.45,-130.54C322.07,-128.05 325.86,-125.33 329.25,-122.62 344.66,-110.35 360.95,-95.11 372.87,-83.47"/>
<polygon fill="#63b8ff" stroke="#63b8ff" points="375.32,-85.97 379.97,-76.45 370.4,-80.99 375.32,-85.97"/>
</a>
</g>
</g>
</g>
</svg>
